%TF.GenerationSoftware,KiCad,Pcbnew,8.0.6*%
%TF.CreationDate,2024-11-07T12:24:51-05:00*%
%TF.ProjectId,ESP32-Uno-Board-v2,45535033-322d-4556-9e6f-2d426f617264,rev?*%
%TF.SameCoordinates,Original*%
%TF.FileFunction,Legend,Top*%
%TF.FilePolarity,Positive*%
%FSLAX46Y46*%
G04 Gerber Fmt 4.6, Leading zero omitted, Abs format (unit mm)*
G04 Created by KiCad (PCBNEW 8.0.6) date 2024-11-07 12:24:51*
%MOMM*%
%LPD*%
G01*
G04 APERTURE LIST*
%ADD10C,0.150000*%
%ADD11C,0.152400*%
%ADD12C,0.120000*%
%ADD13C,0.508000*%
%ADD14C,0.127000*%
%ADD15C,0.200000*%
%ADD16C,0.400000*%
G04 APERTURE END LIST*
D10*
X138833333Y-119609580D02*
X138785714Y-119657200D01*
X138785714Y-119657200D02*
X138642857Y-119704819D01*
X138642857Y-119704819D02*
X138547619Y-119704819D01*
X138547619Y-119704819D02*
X138404762Y-119657200D01*
X138404762Y-119657200D02*
X138309524Y-119561961D01*
X138309524Y-119561961D02*
X138261905Y-119466723D01*
X138261905Y-119466723D02*
X138214286Y-119276247D01*
X138214286Y-119276247D02*
X138214286Y-119133390D01*
X138214286Y-119133390D02*
X138261905Y-118942914D01*
X138261905Y-118942914D02*
X138309524Y-118847676D01*
X138309524Y-118847676D02*
X138404762Y-118752438D01*
X138404762Y-118752438D02*
X138547619Y-118704819D01*
X138547619Y-118704819D02*
X138642857Y-118704819D01*
X138642857Y-118704819D02*
X138785714Y-118752438D01*
X138785714Y-118752438D02*
X138833333Y-118800057D01*
X139214286Y-118800057D02*
X139261905Y-118752438D01*
X139261905Y-118752438D02*
X139357143Y-118704819D01*
X139357143Y-118704819D02*
X139595238Y-118704819D01*
X139595238Y-118704819D02*
X139690476Y-118752438D01*
X139690476Y-118752438D02*
X139738095Y-118800057D01*
X139738095Y-118800057D02*
X139785714Y-118895295D01*
X139785714Y-118895295D02*
X139785714Y-118990533D01*
X139785714Y-118990533D02*
X139738095Y-119133390D01*
X139738095Y-119133390D02*
X139166667Y-119704819D01*
X139166667Y-119704819D02*
X139785714Y-119704819D01*
X126580057Y-118305238D02*
X126532438Y-118400476D01*
X126532438Y-118400476D02*
X126437200Y-118495714D01*
X126437200Y-118495714D02*
X126294342Y-118638571D01*
X126294342Y-118638571D02*
X126246723Y-118733809D01*
X126246723Y-118733809D02*
X126246723Y-118829047D01*
X126484819Y-118781428D02*
X126437200Y-118876666D01*
X126437200Y-118876666D02*
X126341961Y-118971904D01*
X126341961Y-118971904D02*
X126151485Y-119019523D01*
X126151485Y-119019523D02*
X125818152Y-119019523D01*
X125818152Y-119019523D02*
X125627676Y-118971904D01*
X125627676Y-118971904D02*
X125532438Y-118876666D01*
X125532438Y-118876666D02*
X125484819Y-118781428D01*
X125484819Y-118781428D02*
X125484819Y-118590952D01*
X125484819Y-118590952D02*
X125532438Y-118495714D01*
X125532438Y-118495714D02*
X125627676Y-118400476D01*
X125627676Y-118400476D02*
X125818152Y-118352857D01*
X125818152Y-118352857D02*
X126151485Y-118352857D01*
X126151485Y-118352857D02*
X126341961Y-118400476D01*
X126341961Y-118400476D02*
X126437200Y-118495714D01*
X126437200Y-118495714D02*
X126484819Y-118590952D01*
X126484819Y-118590952D02*
X126484819Y-118781428D01*
X126484819Y-117400476D02*
X126484819Y-117971904D01*
X126484819Y-117686190D02*
X125484819Y-117686190D01*
X125484819Y-117686190D02*
X125627676Y-117781428D01*
X125627676Y-117781428D02*
X125722914Y-117876666D01*
X125722914Y-117876666D02*
X125770533Y-117971904D01*
X116533333Y-150774819D02*
X116200000Y-150298628D01*
X115961905Y-150774819D02*
X115961905Y-149774819D01*
X115961905Y-149774819D02*
X116342857Y-149774819D01*
X116342857Y-149774819D02*
X116438095Y-149822438D01*
X116438095Y-149822438D02*
X116485714Y-149870057D01*
X116485714Y-149870057D02*
X116533333Y-149965295D01*
X116533333Y-149965295D02*
X116533333Y-150108152D01*
X116533333Y-150108152D02*
X116485714Y-150203390D01*
X116485714Y-150203390D02*
X116438095Y-150251009D01*
X116438095Y-150251009D02*
X116342857Y-150298628D01*
X116342857Y-150298628D02*
X115961905Y-150298628D01*
X117390476Y-149774819D02*
X117200000Y-149774819D01*
X117200000Y-149774819D02*
X117104762Y-149822438D01*
X117104762Y-149822438D02*
X117057143Y-149870057D01*
X117057143Y-149870057D02*
X116961905Y-150012914D01*
X116961905Y-150012914D02*
X116914286Y-150203390D01*
X116914286Y-150203390D02*
X116914286Y-150584342D01*
X116914286Y-150584342D02*
X116961905Y-150679580D01*
X116961905Y-150679580D02*
X117009524Y-150727200D01*
X117009524Y-150727200D02*
X117104762Y-150774819D01*
X117104762Y-150774819D02*
X117295238Y-150774819D01*
X117295238Y-150774819D02*
X117390476Y-150727200D01*
X117390476Y-150727200D02*
X117438095Y-150679580D01*
X117438095Y-150679580D02*
X117485714Y-150584342D01*
X117485714Y-150584342D02*
X117485714Y-150346247D01*
X117485714Y-150346247D02*
X117438095Y-150251009D01*
X117438095Y-150251009D02*
X117390476Y-150203390D01*
X117390476Y-150203390D02*
X117295238Y-150155771D01*
X117295238Y-150155771D02*
X117104762Y-150155771D01*
X117104762Y-150155771D02*
X117009524Y-150203390D01*
X117009524Y-150203390D02*
X116961905Y-150251009D01*
X116961905Y-150251009D02*
X116914286Y-150346247D01*
X113454819Y-138738094D02*
X112454819Y-138738094D01*
X112454819Y-138738094D02*
X112454819Y-138499999D01*
X112454819Y-138499999D02*
X112502438Y-138357142D01*
X112502438Y-138357142D02*
X112597676Y-138261904D01*
X112597676Y-138261904D02*
X112692914Y-138214285D01*
X112692914Y-138214285D02*
X112883390Y-138166666D01*
X112883390Y-138166666D02*
X113026247Y-138166666D01*
X113026247Y-138166666D02*
X113216723Y-138214285D01*
X113216723Y-138214285D02*
X113311961Y-138261904D01*
X113311961Y-138261904D02*
X113407200Y-138357142D01*
X113407200Y-138357142D02*
X113454819Y-138499999D01*
X113454819Y-138499999D02*
X113454819Y-138738094D01*
X112454819Y-137833332D02*
X112454819Y-137214285D01*
X112454819Y-137214285D02*
X112835771Y-137547618D01*
X112835771Y-137547618D02*
X112835771Y-137404761D01*
X112835771Y-137404761D02*
X112883390Y-137309523D01*
X112883390Y-137309523D02*
X112931009Y-137261904D01*
X112931009Y-137261904D02*
X113026247Y-137214285D01*
X113026247Y-137214285D02*
X113264342Y-137214285D01*
X113264342Y-137214285D02*
X113359580Y-137261904D01*
X113359580Y-137261904D02*
X113407200Y-137309523D01*
X113407200Y-137309523D02*
X113454819Y-137404761D01*
X113454819Y-137404761D02*
X113454819Y-137690475D01*
X113454819Y-137690475D02*
X113407200Y-137785713D01*
X113407200Y-137785713D02*
X113359580Y-137833332D01*
X139083333Y-129109580D02*
X139035714Y-129157200D01*
X139035714Y-129157200D02*
X138892857Y-129204819D01*
X138892857Y-129204819D02*
X138797619Y-129204819D01*
X138797619Y-129204819D02*
X138654762Y-129157200D01*
X138654762Y-129157200D02*
X138559524Y-129061961D01*
X138559524Y-129061961D02*
X138511905Y-128966723D01*
X138511905Y-128966723D02*
X138464286Y-128776247D01*
X138464286Y-128776247D02*
X138464286Y-128633390D01*
X138464286Y-128633390D02*
X138511905Y-128442914D01*
X138511905Y-128442914D02*
X138559524Y-128347676D01*
X138559524Y-128347676D02*
X138654762Y-128252438D01*
X138654762Y-128252438D02*
X138797619Y-128204819D01*
X138797619Y-128204819D02*
X138892857Y-128204819D01*
X138892857Y-128204819D02*
X139035714Y-128252438D01*
X139035714Y-128252438D02*
X139083333Y-128300057D01*
X140035714Y-129204819D02*
X139464286Y-129204819D01*
X139750000Y-129204819D02*
X139750000Y-128204819D01*
X139750000Y-128204819D02*
X139654762Y-128347676D01*
X139654762Y-128347676D02*
X139559524Y-128442914D01*
X139559524Y-128442914D02*
X139464286Y-128490533D01*
X153657200Y-125947832D02*
X153704819Y-125804975D01*
X153704819Y-125804975D02*
X153704819Y-125566880D01*
X153704819Y-125566880D02*
X153657200Y-125471642D01*
X153657200Y-125471642D02*
X153609580Y-125424023D01*
X153609580Y-125424023D02*
X153514342Y-125376404D01*
X153514342Y-125376404D02*
X153419104Y-125376404D01*
X153419104Y-125376404D02*
X153323866Y-125424023D01*
X153323866Y-125424023D02*
X153276247Y-125471642D01*
X153276247Y-125471642D02*
X153228628Y-125566880D01*
X153228628Y-125566880D02*
X153181009Y-125757356D01*
X153181009Y-125757356D02*
X153133390Y-125852594D01*
X153133390Y-125852594D02*
X153085771Y-125900213D01*
X153085771Y-125900213D02*
X152990533Y-125947832D01*
X152990533Y-125947832D02*
X152895295Y-125947832D01*
X152895295Y-125947832D02*
X152800057Y-125900213D01*
X152800057Y-125900213D02*
X152752438Y-125852594D01*
X152752438Y-125852594D02*
X152704819Y-125757356D01*
X152704819Y-125757356D02*
X152704819Y-125519261D01*
X152704819Y-125519261D02*
X152752438Y-125376404D01*
X152704819Y-125043070D02*
X153704819Y-124804975D01*
X153704819Y-124804975D02*
X152990533Y-124614499D01*
X152990533Y-124614499D02*
X153704819Y-124424023D01*
X153704819Y-124424023D02*
X152704819Y-124185928D01*
X152800057Y-123852594D02*
X152752438Y-123804975D01*
X152752438Y-123804975D02*
X152704819Y-123709737D01*
X152704819Y-123709737D02*
X152704819Y-123471642D01*
X152704819Y-123471642D02*
X152752438Y-123376404D01*
X152752438Y-123376404D02*
X152800057Y-123328785D01*
X152800057Y-123328785D02*
X152895295Y-123281166D01*
X152895295Y-123281166D02*
X152990533Y-123281166D01*
X152990533Y-123281166D02*
X153133390Y-123328785D01*
X153133390Y-123328785D02*
X153704819Y-123900213D01*
X153704819Y-123900213D02*
X153704819Y-123281166D01*
X166134819Y-108716666D02*
X165658628Y-109049999D01*
X166134819Y-109288094D02*
X165134819Y-109288094D01*
X165134819Y-109288094D02*
X165134819Y-108907142D01*
X165134819Y-108907142D02*
X165182438Y-108811904D01*
X165182438Y-108811904D02*
X165230057Y-108764285D01*
X165230057Y-108764285D02*
X165325295Y-108716666D01*
X165325295Y-108716666D02*
X165468152Y-108716666D01*
X165468152Y-108716666D02*
X165563390Y-108764285D01*
X165563390Y-108764285D02*
X165611009Y-108811904D01*
X165611009Y-108811904D02*
X165658628Y-108907142D01*
X165658628Y-108907142D02*
X165658628Y-109288094D01*
X165134819Y-107811904D02*
X165134819Y-108288094D01*
X165134819Y-108288094D02*
X165611009Y-108335713D01*
X165611009Y-108335713D02*
X165563390Y-108288094D01*
X165563390Y-108288094D02*
X165515771Y-108192856D01*
X165515771Y-108192856D02*
X165515771Y-107954761D01*
X165515771Y-107954761D02*
X165563390Y-107859523D01*
X165563390Y-107859523D02*
X165611009Y-107811904D01*
X165611009Y-107811904D02*
X165706247Y-107764285D01*
X165706247Y-107764285D02*
X165944342Y-107764285D01*
X165944342Y-107764285D02*
X166039580Y-107811904D01*
X166039580Y-107811904D02*
X166087200Y-107859523D01*
X166087200Y-107859523D02*
X166134819Y-107954761D01*
X166134819Y-107954761D02*
X166134819Y-108192856D01*
X166134819Y-108192856D02*
X166087200Y-108288094D01*
X166087200Y-108288094D02*
X166039580Y-108335713D01*
X131283333Y-139274819D02*
X130950000Y-138798628D01*
X130711905Y-139274819D02*
X130711905Y-138274819D01*
X130711905Y-138274819D02*
X131092857Y-138274819D01*
X131092857Y-138274819D02*
X131188095Y-138322438D01*
X131188095Y-138322438D02*
X131235714Y-138370057D01*
X131235714Y-138370057D02*
X131283333Y-138465295D01*
X131283333Y-138465295D02*
X131283333Y-138608152D01*
X131283333Y-138608152D02*
X131235714Y-138703390D01*
X131235714Y-138703390D02*
X131188095Y-138751009D01*
X131188095Y-138751009D02*
X131092857Y-138798628D01*
X131092857Y-138798628D02*
X130711905Y-138798628D01*
X131616667Y-138274819D02*
X132283333Y-138274819D01*
X132283333Y-138274819D02*
X131854762Y-139274819D01*
X112545180Y-143765205D02*
X113545180Y-143765205D01*
X113545180Y-143765205D02*
X113545180Y-144003300D01*
X113545180Y-144003300D02*
X113497561Y-144146157D01*
X113497561Y-144146157D02*
X113402323Y-144241395D01*
X113402323Y-144241395D02*
X113307085Y-144289014D01*
X113307085Y-144289014D02*
X113116609Y-144336633D01*
X113116609Y-144336633D02*
X112973752Y-144336633D01*
X112973752Y-144336633D02*
X112783276Y-144289014D01*
X112783276Y-144289014D02*
X112688038Y-144241395D01*
X112688038Y-144241395D02*
X112592800Y-144146157D01*
X112592800Y-144146157D02*
X112545180Y-144003300D01*
X112545180Y-144003300D02*
X112545180Y-143765205D01*
X113449942Y-144717586D02*
X113497561Y-144765205D01*
X113497561Y-144765205D02*
X113545180Y-144860443D01*
X113545180Y-144860443D02*
X113545180Y-145098538D01*
X113545180Y-145098538D02*
X113497561Y-145193776D01*
X113497561Y-145193776D02*
X113449942Y-145241395D01*
X113449942Y-145241395D02*
X113354704Y-145289014D01*
X113354704Y-145289014D02*
X113259466Y-145289014D01*
X113259466Y-145289014D02*
X113116609Y-145241395D01*
X113116609Y-145241395D02*
X112545180Y-144669967D01*
X112545180Y-144669967D02*
X112545180Y-145289014D01*
X139488095Y-142954819D02*
X139488095Y-143764342D01*
X139488095Y-143764342D02*
X139535714Y-143859580D01*
X139535714Y-143859580D02*
X139583333Y-143907200D01*
X139583333Y-143907200D02*
X139678571Y-143954819D01*
X139678571Y-143954819D02*
X139869047Y-143954819D01*
X139869047Y-143954819D02*
X139964285Y-143907200D01*
X139964285Y-143907200D02*
X140011904Y-143859580D01*
X140011904Y-143859580D02*
X140059523Y-143764342D01*
X140059523Y-143764342D02*
X140059523Y-142954819D01*
X140440476Y-142954819D02*
X141059523Y-142954819D01*
X141059523Y-142954819D02*
X140726190Y-143335771D01*
X140726190Y-143335771D02*
X140869047Y-143335771D01*
X140869047Y-143335771D02*
X140964285Y-143383390D01*
X140964285Y-143383390D02*
X141011904Y-143431009D01*
X141011904Y-143431009D02*
X141059523Y-143526247D01*
X141059523Y-143526247D02*
X141059523Y-143764342D01*
X141059523Y-143764342D02*
X141011904Y-143859580D01*
X141011904Y-143859580D02*
X140964285Y-143907200D01*
X140964285Y-143907200D02*
X140869047Y-143954819D01*
X140869047Y-143954819D02*
X140583333Y-143954819D01*
X140583333Y-143954819D02*
X140488095Y-143907200D01*
X140488095Y-143907200D02*
X140440476Y-143859580D01*
X130640477Y-149781010D02*
X130783334Y-149828629D01*
X130783334Y-149828629D02*
X130830953Y-149876248D01*
X130830953Y-149876248D02*
X130878572Y-149971486D01*
X130878572Y-149971486D02*
X130878572Y-150114343D01*
X130878572Y-150114343D02*
X130830953Y-150209581D01*
X130830953Y-150209581D02*
X130783334Y-150257201D01*
X130783334Y-150257201D02*
X130688096Y-150304820D01*
X130688096Y-150304820D02*
X130307144Y-150304820D01*
X130307144Y-150304820D02*
X130307144Y-149304820D01*
X130307144Y-149304820D02*
X130640477Y-149304820D01*
X130640477Y-149304820D02*
X130735715Y-149352439D01*
X130735715Y-149352439D02*
X130783334Y-149400058D01*
X130783334Y-149400058D02*
X130830953Y-149495296D01*
X130830953Y-149495296D02*
X130830953Y-149590534D01*
X130830953Y-149590534D02*
X130783334Y-149685772D01*
X130783334Y-149685772D02*
X130735715Y-149733391D01*
X130735715Y-149733391D02*
X130640477Y-149781010D01*
X130640477Y-149781010D02*
X130307144Y-149781010D01*
X131164287Y-149304820D02*
X131735715Y-149304820D01*
X131450001Y-150304820D02*
X131450001Y-149304820D01*
X132069049Y-150304820D02*
X132069049Y-149304820D01*
X132069049Y-149304820D02*
X132640477Y-150304820D01*
X132640477Y-150304820D02*
X132640477Y-149304820D01*
X133640477Y-150304820D02*
X133069049Y-150304820D01*
X133354763Y-150304820D02*
X133354763Y-149304820D01*
X133354763Y-149304820D02*
X133259525Y-149447677D01*
X133259525Y-149447677D02*
X133164287Y-149542915D01*
X133164287Y-149542915D02*
X133069049Y-149590534D01*
X112416667Y-135257200D02*
X112559524Y-135304819D01*
X112559524Y-135304819D02*
X112797619Y-135304819D01*
X112797619Y-135304819D02*
X112892857Y-135257200D01*
X112892857Y-135257200D02*
X112940476Y-135209580D01*
X112940476Y-135209580D02*
X112988095Y-135114342D01*
X112988095Y-135114342D02*
X112988095Y-135019104D01*
X112988095Y-135019104D02*
X112940476Y-134923866D01*
X112940476Y-134923866D02*
X112892857Y-134876247D01*
X112892857Y-134876247D02*
X112797619Y-134828628D01*
X112797619Y-134828628D02*
X112607143Y-134781009D01*
X112607143Y-134781009D02*
X112511905Y-134733390D01*
X112511905Y-134733390D02*
X112464286Y-134685771D01*
X112464286Y-134685771D02*
X112416667Y-134590533D01*
X112416667Y-134590533D02*
X112416667Y-134495295D01*
X112416667Y-134495295D02*
X112464286Y-134400057D01*
X112464286Y-134400057D02*
X112511905Y-134352438D01*
X112511905Y-134352438D02*
X112607143Y-134304819D01*
X112607143Y-134304819D02*
X112845238Y-134304819D01*
X112845238Y-134304819D02*
X112988095Y-134352438D01*
X113321429Y-134304819D02*
X113559524Y-135304819D01*
X113559524Y-135304819D02*
X113750000Y-134590533D01*
X113750000Y-134590533D02*
X113940476Y-135304819D01*
X113940476Y-135304819D02*
X114178572Y-134304819D01*
X115083333Y-135304819D02*
X114511905Y-135304819D01*
X114797619Y-135304819D02*
X114797619Y-134304819D01*
X114797619Y-134304819D02*
X114702381Y-134447676D01*
X114702381Y-134447676D02*
X114607143Y-134542914D01*
X114607143Y-134542914D02*
X114511905Y-134590533D01*
X122488095Y-145704819D02*
X122488095Y-146514342D01*
X122488095Y-146514342D02*
X122535714Y-146609580D01*
X122535714Y-146609580D02*
X122583333Y-146657200D01*
X122583333Y-146657200D02*
X122678571Y-146704819D01*
X122678571Y-146704819D02*
X122869047Y-146704819D01*
X122869047Y-146704819D02*
X122964285Y-146657200D01*
X122964285Y-146657200D02*
X123011904Y-146609580D01*
X123011904Y-146609580D02*
X123059523Y-146514342D01*
X123059523Y-146514342D02*
X123059523Y-145704819D01*
X123488095Y-145800057D02*
X123535714Y-145752438D01*
X123535714Y-145752438D02*
X123630952Y-145704819D01*
X123630952Y-145704819D02*
X123869047Y-145704819D01*
X123869047Y-145704819D02*
X123964285Y-145752438D01*
X123964285Y-145752438D02*
X124011904Y-145800057D01*
X124011904Y-145800057D02*
X124059523Y-145895295D01*
X124059523Y-145895295D02*
X124059523Y-145990533D01*
X124059523Y-145990533D02*
X124011904Y-146133390D01*
X124011904Y-146133390D02*
X123440476Y-146704819D01*
X123440476Y-146704819D02*
X124059523Y-146704819D01*
X185339819Y-125671904D02*
X186149342Y-125671904D01*
X186149342Y-125671904D02*
X186244580Y-125624285D01*
X186244580Y-125624285D02*
X186292200Y-125576666D01*
X186292200Y-125576666D02*
X186339819Y-125481428D01*
X186339819Y-125481428D02*
X186339819Y-125290952D01*
X186339819Y-125290952D02*
X186292200Y-125195714D01*
X186292200Y-125195714D02*
X186244580Y-125148095D01*
X186244580Y-125148095D02*
X186149342Y-125100476D01*
X186149342Y-125100476D02*
X185339819Y-125100476D01*
X186339819Y-124100476D02*
X186339819Y-124671904D01*
X186339819Y-124386190D02*
X185339819Y-124386190D01*
X185339819Y-124386190D02*
X185482676Y-124481428D01*
X185482676Y-124481428D02*
X185577914Y-124576666D01*
X185577914Y-124576666D02*
X185625533Y-124671904D01*
X131583333Y-146774819D02*
X131250000Y-146298628D01*
X131011905Y-146774819D02*
X131011905Y-145774819D01*
X131011905Y-145774819D02*
X131392857Y-145774819D01*
X131392857Y-145774819D02*
X131488095Y-145822438D01*
X131488095Y-145822438D02*
X131535714Y-145870057D01*
X131535714Y-145870057D02*
X131583333Y-145965295D01*
X131583333Y-145965295D02*
X131583333Y-146108152D01*
X131583333Y-146108152D02*
X131535714Y-146203390D01*
X131535714Y-146203390D02*
X131488095Y-146251009D01*
X131488095Y-146251009D02*
X131392857Y-146298628D01*
X131392857Y-146298628D02*
X131011905Y-146298628D01*
X132440476Y-146108152D02*
X132440476Y-146774819D01*
X132202381Y-145727200D02*
X131964286Y-146441485D01*
X131964286Y-146441485D02*
X132583333Y-146441485D01*
X120679912Y-123973680D02*
X120679912Y-124688410D01*
X120679912Y-124688410D02*
X120632263Y-124831356D01*
X120632263Y-124831356D02*
X120536966Y-124926654D01*
X120536966Y-124926654D02*
X120394020Y-124974302D01*
X120394020Y-124974302D02*
X120298723Y-124974302D01*
X121108750Y-124068978D02*
X121156399Y-124021329D01*
X121156399Y-124021329D02*
X121251696Y-123973680D01*
X121251696Y-123973680D02*
X121489940Y-123973680D01*
X121489940Y-123973680D02*
X121585237Y-124021329D01*
X121585237Y-124021329D02*
X121632886Y-124068978D01*
X121632886Y-124068978D02*
X121680534Y-124164275D01*
X121680534Y-124164275D02*
X121680534Y-124259572D01*
X121680534Y-124259572D02*
X121632886Y-124402518D01*
X121632886Y-124402518D02*
X121061102Y-124974302D01*
X121061102Y-124974302D02*
X121680534Y-124974302D01*
X172806010Y-110059523D02*
X172853629Y-109916666D01*
X172853629Y-109916666D02*
X172901248Y-109869047D01*
X172901248Y-109869047D02*
X172996486Y-109821428D01*
X172996486Y-109821428D02*
X173139343Y-109821428D01*
X173139343Y-109821428D02*
X173234581Y-109869047D01*
X173234581Y-109869047D02*
X173282201Y-109916666D01*
X173282201Y-109916666D02*
X173329820Y-110011904D01*
X173329820Y-110011904D02*
X173329820Y-110392856D01*
X173329820Y-110392856D02*
X172329820Y-110392856D01*
X172329820Y-110392856D02*
X172329820Y-110059523D01*
X172329820Y-110059523D02*
X172377439Y-109964285D01*
X172377439Y-109964285D02*
X172425058Y-109916666D01*
X172425058Y-109916666D02*
X172520296Y-109869047D01*
X172520296Y-109869047D02*
X172615534Y-109869047D01*
X172615534Y-109869047D02*
X172710772Y-109916666D01*
X172710772Y-109916666D02*
X172758391Y-109964285D01*
X172758391Y-109964285D02*
X172806010Y-110059523D01*
X172806010Y-110059523D02*
X172806010Y-110392856D01*
X172329820Y-109535713D02*
X172329820Y-108964285D01*
X173329820Y-109249999D02*
X172329820Y-109249999D01*
X173329820Y-108630951D02*
X172329820Y-108630951D01*
X172329820Y-108630951D02*
X173329820Y-108059523D01*
X173329820Y-108059523D02*
X172329820Y-108059523D01*
X172425058Y-107630951D02*
X172377439Y-107583332D01*
X172377439Y-107583332D02*
X172329820Y-107488094D01*
X172329820Y-107488094D02*
X172329820Y-107249999D01*
X172329820Y-107249999D02*
X172377439Y-107154761D01*
X172377439Y-107154761D02*
X172425058Y-107107142D01*
X172425058Y-107107142D02*
X172520296Y-107059523D01*
X172520296Y-107059523D02*
X172615534Y-107059523D01*
X172615534Y-107059523D02*
X172758391Y-107107142D01*
X172758391Y-107107142D02*
X173329820Y-107678570D01*
X173329820Y-107678570D02*
X173329820Y-107059523D01*
X139166666Y-122890419D02*
X139214285Y-122842800D01*
X139214285Y-122842800D02*
X139357142Y-122795180D01*
X139357142Y-122795180D02*
X139452380Y-122795180D01*
X139452380Y-122795180D02*
X139595237Y-122842800D01*
X139595237Y-122842800D02*
X139690475Y-122938038D01*
X139690475Y-122938038D02*
X139738094Y-123033276D01*
X139738094Y-123033276D02*
X139785713Y-123223752D01*
X139785713Y-123223752D02*
X139785713Y-123366609D01*
X139785713Y-123366609D02*
X139738094Y-123557085D01*
X139738094Y-123557085D02*
X139690475Y-123652323D01*
X139690475Y-123652323D02*
X139595237Y-123747561D01*
X139595237Y-123747561D02*
X139452380Y-123795180D01*
X139452380Y-123795180D02*
X139357142Y-123795180D01*
X139357142Y-123795180D02*
X139214285Y-123747561D01*
X139214285Y-123747561D02*
X139166666Y-123699942D01*
X138833332Y-123795180D02*
X138214285Y-123795180D01*
X138214285Y-123795180D02*
X138547618Y-123414228D01*
X138547618Y-123414228D02*
X138404761Y-123414228D01*
X138404761Y-123414228D02*
X138309523Y-123366609D01*
X138309523Y-123366609D02*
X138261904Y-123318990D01*
X138261904Y-123318990D02*
X138214285Y-123223752D01*
X138214285Y-123223752D02*
X138214285Y-122985657D01*
X138214285Y-122985657D02*
X138261904Y-122890419D01*
X138261904Y-122890419D02*
X138309523Y-122842800D01*
X138309523Y-122842800D02*
X138404761Y-122795180D01*
X138404761Y-122795180D02*
X138690475Y-122795180D01*
X138690475Y-122795180D02*
X138785713Y-122842800D01*
X138785713Y-122842800D02*
X138833332Y-122890419D01*
X123083333Y-109634819D02*
X122750000Y-109158628D01*
X122511905Y-109634819D02*
X122511905Y-108634819D01*
X122511905Y-108634819D02*
X122892857Y-108634819D01*
X122892857Y-108634819D02*
X122988095Y-108682438D01*
X122988095Y-108682438D02*
X123035714Y-108730057D01*
X123035714Y-108730057D02*
X123083333Y-108825295D01*
X123083333Y-108825295D02*
X123083333Y-108968152D01*
X123083333Y-108968152D02*
X123035714Y-109063390D01*
X123035714Y-109063390D02*
X122988095Y-109111009D01*
X122988095Y-109111009D02*
X122892857Y-109158628D01*
X122892857Y-109158628D02*
X122511905Y-109158628D01*
X123464286Y-108730057D02*
X123511905Y-108682438D01*
X123511905Y-108682438D02*
X123607143Y-108634819D01*
X123607143Y-108634819D02*
X123845238Y-108634819D01*
X123845238Y-108634819D02*
X123940476Y-108682438D01*
X123940476Y-108682438D02*
X123988095Y-108730057D01*
X123988095Y-108730057D02*
X124035714Y-108825295D01*
X124035714Y-108825295D02*
X124035714Y-108920533D01*
X124035714Y-108920533D02*
X123988095Y-109063390D01*
X123988095Y-109063390D02*
X123416667Y-109634819D01*
X123416667Y-109634819D02*
X124035714Y-109634819D01*
X121333333Y-129774819D02*
X121000000Y-129298628D01*
X120761905Y-129774819D02*
X120761905Y-128774819D01*
X120761905Y-128774819D02*
X121142857Y-128774819D01*
X121142857Y-128774819D02*
X121238095Y-128822438D01*
X121238095Y-128822438D02*
X121285714Y-128870057D01*
X121285714Y-128870057D02*
X121333333Y-128965295D01*
X121333333Y-128965295D02*
X121333333Y-129108152D01*
X121333333Y-129108152D02*
X121285714Y-129203390D01*
X121285714Y-129203390D02*
X121238095Y-129251009D01*
X121238095Y-129251009D02*
X121142857Y-129298628D01*
X121142857Y-129298628D02*
X120761905Y-129298628D01*
X121666667Y-128774819D02*
X122285714Y-128774819D01*
X122285714Y-128774819D02*
X121952381Y-129155771D01*
X121952381Y-129155771D02*
X122095238Y-129155771D01*
X122095238Y-129155771D02*
X122190476Y-129203390D01*
X122190476Y-129203390D02*
X122238095Y-129251009D01*
X122238095Y-129251009D02*
X122285714Y-129346247D01*
X122285714Y-129346247D02*
X122285714Y-129584342D01*
X122285714Y-129584342D02*
X122238095Y-129679580D01*
X122238095Y-129679580D02*
X122190476Y-129727200D01*
X122190476Y-129727200D02*
X122095238Y-129774819D01*
X122095238Y-129774819D02*
X121809524Y-129774819D01*
X121809524Y-129774819D02*
X121714286Y-129727200D01*
X121714286Y-129727200D02*
X121666667Y-129679580D01*
X117787746Y-106306110D02*
X117073461Y-106306110D01*
X117073461Y-106306110D02*
X116930604Y-106258491D01*
X116930604Y-106258491D02*
X116835366Y-106163253D01*
X116835366Y-106163253D02*
X116787746Y-106020396D01*
X116787746Y-106020396D02*
X116787746Y-105925158D01*
X116787746Y-107306110D02*
X116787746Y-106734682D01*
X116787746Y-107020396D02*
X117787746Y-107020396D01*
X117787746Y-107020396D02*
X117644889Y-106925158D01*
X117644889Y-106925158D02*
X117549651Y-106829920D01*
X117549651Y-106829920D02*
X117502032Y-106734682D01*
X128704819Y-130382494D02*
X127704819Y-130382494D01*
X127704819Y-130382494D02*
X127704819Y-130144399D01*
X127704819Y-130144399D02*
X127752438Y-130001542D01*
X127752438Y-130001542D02*
X127847676Y-129906304D01*
X127847676Y-129906304D02*
X127942914Y-129858685D01*
X127942914Y-129858685D02*
X128133390Y-129811066D01*
X128133390Y-129811066D02*
X128276247Y-129811066D01*
X128276247Y-129811066D02*
X128466723Y-129858685D01*
X128466723Y-129858685D02*
X128561961Y-129906304D01*
X128561961Y-129906304D02*
X128657200Y-130001542D01*
X128657200Y-130001542D02*
X128704819Y-130144399D01*
X128704819Y-130144399D02*
X128704819Y-130382494D01*
X128704819Y-128858685D02*
X128704819Y-129430113D01*
X128704819Y-129144399D02*
X127704819Y-129144399D01*
X127704819Y-129144399D02*
X127847676Y-129239637D01*
X127847676Y-129239637D02*
X127942914Y-129334875D01*
X127942914Y-129334875D02*
X127990533Y-129430113D01*
D11*
%TO.C,C2*%
X138207549Y-120177000D02*
X139792451Y-120177000D01*
X139792451Y-118323000D02*
X138207549Y-118323000D01*
D12*
%TO.C,Q1*%
X127080000Y-115100000D02*
X127080000Y-121520000D01*
X127080000Y-121520000D02*
X127350000Y-121520000D01*
X133980000Y-115100000D02*
X133980000Y-121520000D01*
X133980000Y-121520000D02*
X133710000Y-121520000D01*
X127390000Y-122940000D02*
X127060000Y-123180000D01*
X127060000Y-122700000D01*
X127390000Y-122940000D01*
G36*
X127390000Y-122940000D02*
G01*
X127060000Y-123180000D01*
X127060000Y-122700000D01*
X127390000Y-122940000D01*
G37*
%TO.C,R6*%
X117427064Y-147590000D02*
X115972936Y-147590000D01*
X117427064Y-149410000D02*
X115972936Y-149410000D01*
D11*
%TO.C,D3*%
X112250700Y-137659850D02*
X112250700Y-138340150D01*
X112365000Y-139866900D02*
X113635000Y-139866900D01*
X112365000Y-140628900D02*
X113635000Y-140628900D01*
X113000000Y-139691640D02*
X113000000Y-140882900D01*
X113000000Y-140628900D02*
X112365000Y-139866900D01*
X113000000Y-140628900D02*
X112492000Y-139866900D01*
X113000000Y-140628900D02*
X112619000Y-139866900D01*
X113000000Y-140628900D02*
X112746000Y-139866900D01*
X113000000Y-140628900D02*
X112873000Y-139866900D01*
X113000000Y-140628900D02*
X113127000Y-139866900D01*
X113000000Y-140628900D02*
X113254000Y-139866900D01*
X113000000Y-140628900D02*
X113381000Y-139866900D01*
X113000000Y-140628900D02*
X113508000Y-139866900D01*
X113000000Y-140628900D02*
X113635000Y-139866900D01*
X113749300Y-138340150D02*
X113749300Y-137659850D01*
%TO.C,C1*%
X135719400Y-125219400D02*
X135719400Y-127807660D01*
X135719400Y-129692340D02*
X135719400Y-132280600D01*
X135719400Y-132280600D02*
X142780600Y-132280600D01*
X142780600Y-125219400D02*
X135719400Y-125219400D01*
X142780600Y-127807660D02*
X142780600Y-125219400D01*
X142780600Y-132280600D02*
X142780600Y-129692340D01*
%TO.C,SW2*%
X151370400Y-121490300D02*
X151370400Y-127738700D01*
X151370400Y-127738700D02*
X155129600Y-127738700D01*
X155129600Y-121490300D02*
X151370400Y-121490300D01*
X155129600Y-127738700D02*
X155129600Y-121490300D01*
D12*
%TO.C,R5*%
X166590000Y-109277064D02*
X166590000Y-107822936D01*
X168410000Y-109277064D02*
X168410000Y-107822936D01*
%TO.C,R7*%
X132177064Y-136090000D02*
X130722936Y-136090000D01*
X132177064Y-137910000D02*
X130722936Y-137910000D01*
D11*
%TO.C,D2*%
X112250700Y-144163150D02*
X112250700Y-144843450D01*
X113000000Y-141874400D02*
X112365000Y-142636400D01*
X113000000Y-141874400D02*
X112492000Y-142636400D01*
X113000000Y-141874400D02*
X112619000Y-142636400D01*
X113000000Y-141874400D02*
X112746000Y-142636400D01*
X113000000Y-141874400D02*
X112873000Y-142636400D01*
X113000000Y-141874400D02*
X113127000Y-142636400D01*
X113000000Y-141874400D02*
X113254000Y-142636400D01*
X113000000Y-141874400D02*
X113381000Y-142636400D01*
X113000000Y-141874400D02*
X113508000Y-142636400D01*
X113000000Y-141874400D02*
X113635000Y-142636400D01*
X113000000Y-142811660D02*
X113000000Y-141620400D01*
X113635000Y-141874400D02*
X112365000Y-141874400D01*
X113635000Y-142636400D02*
X112365000Y-142636400D01*
X113749300Y-144843450D02*
X113749300Y-144163150D01*
D12*
%TO.C,U3*%
X138340000Y-135590000D02*
X138340000Y-136850000D01*
X138340000Y-142410000D02*
X138340000Y-141150000D01*
X142100000Y-135590000D02*
X138340000Y-135590000D01*
X142100000Y-142410000D02*
X138340000Y-142410000D01*
X143620000Y-142640000D02*
X143140000Y-142640000D01*
X143380000Y-142310000D01*
X143620000Y-142640000D01*
G36*
X143620000Y-142640000D02*
G01*
X143140000Y-142640000D01*
X143380000Y-142310000D01*
X143620000Y-142640000D01*
G37*
D11*
%TO.C,BTN1*%
X128622601Y-151509924D02*
X128622601Y-152722802D01*
X128622601Y-152722802D02*
X135277401Y-152722802D01*
X131122645Y-147973001D02*
X128622601Y-147973001D01*
X135277401Y-147973001D02*
X132777357Y-147973001D01*
X135277401Y-152722802D02*
X135277401Y-151509924D01*
D13*
X135679640Y-148698366D02*
G75*
G02*
X136293401Y-149000001I232761J-301635D01*
G01*
X136293401Y-149000002D02*
G75*
G02*
X135679640Y-149301636I-381000J1D01*
G01*
D12*
%TO.C,R1*%
X122572936Y-106590000D02*
X124027064Y-106590000D01*
X122572936Y-108410000D02*
X124027064Y-108410000D01*
%TO.C,SW1*%
X112420000Y-130810000D02*
X112420000Y-125670000D01*
X112420000Y-133410000D02*
X112420000Y-132080000D01*
X113750000Y-133410000D02*
X112420000Y-133410000D01*
X115080000Y-125670000D02*
X112420000Y-125670000D01*
X115080000Y-130810000D02*
X112420000Y-130810000D01*
X115080000Y-130810000D02*
X115080000Y-125670000D01*
%TO.C,U2*%
X121340000Y-138340000D02*
X121340000Y-139600000D01*
X121340000Y-145160000D02*
X121340000Y-143900000D01*
X125100000Y-138340000D02*
X121340000Y-138340000D01*
X125100000Y-145160000D02*
X121340000Y-145160000D01*
X126620000Y-145390000D02*
X126140000Y-145390000D01*
X126380000Y-145060000D01*
X126620000Y-145390000D01*
G36*
X126620000Y-145390000D02*
G01*
X126140000Y-145390000D01*
X126380000Y-145060000D01*
X126620000Y-145390000D01*
G37*
D14*
%TO.C,U1*%
X159000000Y-122485000D02*
X159000000Y-123730000D01*
X159000000Y-140485000D02*
X159000000Y-139240000D01*
X159730000Y-122485000D02*
X159000000Y-122485000D01*
X159730000Y-140485000D02*
X159000000Y-140485000D01*
X177780000Y-122485000D02*
X184500000Y-122485000D01*
X184500000Y-122485000D02*
X184500000Y-140485000D01*
X184500000Y-140485000D02*
X177780000Y-140485000D01*
D15*
X177110000Y-121285000D02*
G75*
G02*
X176910000Y-121285000I-100000J0D01*
G01*
X176910000Y-121285000D02*
G75*
G02*
X177110000Y-121285000I100000J0D01*
G01*
D12*
%TO.C,R4*%
X132477064Y-143590000D02*
X131022936Y-143590000D01*
X132477064Y-145410000D02*
X131022936Y-145410000D01*
D14*
%TO.C,J2*%
X109800000Y-113250000D02*
X124200000Y-113250000D01*
X109800000Y-122250000D02*
X109800000Y-113250000D01*
X117950000Y-122250000D02*
X109800000Y-122250000D01*
X124200000Y-113250000D02*
X124200000Y-115100000D01*
X124200000Y-120300000D02*
X124200000Y-122250000D01*
X124200000Y-122250000D02*
X123050000Y-122250000D01*
D16*
X125700000Y-117750000D02*
G75*
G02*
X125300000Y-117750000I-200000J0D01*
G01*
X125300000Y-117750000D02*
G75*
G02*
X125700000Y-117750000I200000J0D01*
G01*
D11*
%TO.C,BTN2*%
X170998001Y-105422600D02*
X170998001Y-107922644D01*
X170998001Y-109577356D02*
X170998001Y-112077400D01*
X174534924Y-112077400D02*
X175747802Y-112077400D01*
X175747802Y-105422600D02*
X174534924Y-105422600D01*
X175747802Y-112077400D02*
X175747802Y-105422600D01*
D13*
X171723366Y-105020361D02*
G75*
G02*
X172025001Y-104406600I301635J232761D01*
G01*
X172025002Y-104406600D02*
G75*
G02*
X172326636Y-105020361I-1J-381000D01*
G01*
D11*
%TO.C,C3*%
X138207549Y-124177000D02*
X139792451Y-124177000D01*
X139792451Y-122323000D02*
X138207549Y-122323000D01*
D12*
%TO.C,R2*%
X122522936Y-110090000D02*
X123977064Y-110090000D01*
X122522936Y-111910000D02*
X123977064Y-111910000D01*
%TO.C,R3*%
X122227064Y-126590000D02*
X120772936Y-126590000D01*
X122227064Y-128410000D02*
X120772936Y-128410000D01*
D11*
%TO.C,J1*%
X109176367Y-102042044D02*
X109176367Y-111236844D01*
X109176367Y-111236844D02*
X112309964Y-111236844D01*
X112309964Y-102042044D02*
X109176367Y-102042044D01*
X114795167Y-111236844D02*
X115339365Y-111236844D01*
X115339359Y-102042044D02*
X114795167Y-102042044D01*
X118535768Y-111236844D02*
X118904566Y-111236844D01*
X118904566Y-102042044D02*
X118535772Y-102042044D01*
X118904566Y-111236844D02*
X118904566Y-102042044D01*
D13*
X117572694Y-101245104D02*
G75*
G02*
X118297423Y-101436544I344872J-161940D01*
G01*
D11*
%TO.C,D1*%
X126154500Y-127091700D02*
X126154500Y-132197100D01*
X126154500Y-132197100D02*
X126786960Y-132197100D01*
X126786960Y-127091700D02*
X126154500Y-127091700D01*
X129713040Y-132197100D02*
X130345500Y-132197100D01*
X130345500Y-127091700D02*
X129713040Y-127091700D01*
X130345500Y-132197100D02*
X130345500Y-127091700D01*
X128326200Y-133632200D02*
G75*
G02*
X128173800Y-133632200I-76200J0D01*
G01*
X128173800Y-133632200D02*
G75*
G02*
X128326200Y-133632200I76200J0D01*
G01*
%TD*%
M02*
