%TF.GenerationSoftware,KiCad,Pcbnew,8.0.5*%
%TF.CreationDate,2024-10-15T22:54:42-04:00*%
%TF.ProjectId,ESP32-Uno-Board-v2,45535033-322d-4556-9e6f-2d426f617264,rev?*%
%TF.SameCoordinates,Original*%
%TF.FileFunction,Copper,L2,Bot*%
%TF.FilePolarity,Positive*%
%FSLAX46Y46*%
G04 Gerber Fmt 4.6, Leading zero omitted, Abs format (unit mm)*
G04 Created by KiCad (PCBNEW 8.0.5) date 2024-10-15 22:54:42*
%MOMM*%
%LPD*%
G01*
G04 APERTURE LIST*
%TA.AperFunction,ComponentPad*%
%ADD10O,1.727200X1.727200*%
%TD*%
%TA.AperFunction,ComponentPad*%
%ADD11R,1.727200X1.727200*%
%TD*%
%TA.AperFunction,ComponentPad*%
%ADD12C,1.270000*%
%TD*%
%TA.AperFunction,ComponentPad*%
%ADD13R,1.700000X1.700000*%
%TD*%
%TA.AperFunction,ComponentPad*%
%ADD14O,1.700000X1.700000*%
%TD*%
%TA.AperFunction,ComponentPad*%
%ADD15C,0.300000*%
%TD*%
%TA.AperFunction,ComponentPad*%
%ADD16R,2.600000X2.600000*%
%TD*%
%TA.AperFunction,ComponentPad*%
%ADD17C,2.600000*%
%TD*%
%TA.AperFunction,ComponentPad*%
%ADD18C,0.660400*%
%TD*%
%TA.AperFunction,ComponentPad*%
%ADD19O,1.905000X1.117600*%
%TD*%
%TA.AperFunction,ComponentPad*%
%ADD20O,2.616200X1.117600*%
%TD*%
%TA.AperFunction,ViaPad*%
%ADD21C,1.500000*%
%TD*%
%TA.AperFunction,ViaPad*%
%ADD22C,0.600000*%
%TD*%
%TA.AperFunction,Conductor*%
%ADD23C,0.500000*%
%TD*%
%TA.AperFunction,Conductor*%
%ADD24C,0.250000*%
%TD*%
%TA.AperFunction,Conductor*%
%ADD25C,0.200000*%
%TD*%
G04 APERTURE END LIST*
D10*
%TO.P,A2,3V3,3.3V*%
%TO.N,+3V3*%
X145560000Y-147710000D03*
X145560000Y-150250000D03*
%TO.P,A2,5V,5V*%
%TO.N,+5V*%
X148100000Y-147710000D03*
X148100000Y-150250000D03*
%TO.P,A2,A0,A0*%
%TO.N,/A0*%
X160800000Y-150250000D03*
%TO.P,A2,A1,A1*%
%TO.N,/A1*%
X163340000Y-150250000D03*
%TO.P,A2,A2,A2*%
%TO.N,/A2*%
X165880000Y-150250000D03*
%TO.P,A2,A3,A3*%
%TO.N,/A3*%
X168420000Y-150250000D03*
%TO.P,A2,A4,A4*%
%TO.N,/A4*%
X170960000Y-150250000D03*
%TO.P,A2,A5,A5*%
%TO.N,/A5*%
X173500000Y-150250000D03*
%TO.P,A2,AREF,AREF*%
%TO.N,unconnected-(A2-PadAREF)*%
X133876000Y-101990000D03*
%TO.P,A2,BOOT*%
%TO.N,N/C*%
X137940000Y-150250000D03*
%TO.P,A2,D0,D0/RX*%
%TO.N,/RX*%
X173500000Y-101990000D03*
%TO.P,A2,D1,D1/TX*%
%TO.N,/TX*%
X170960000Y-101990000D03*
%TO.P,A2,D2,D2*%
%TO.N,/GPIO4*%
X168420000Y-101990000D03*
%TO.P,A2,D3,D3*%
%TO.N,/GPIO5*%
X165880000Y-101990000D03*
%TO.P,A2,D4,D4*%
%TO.N,/GPIO7*%
X163340000Y-101990000D03*
%TO.P,A2,D5,D5*%
%TO.N,/GPIO16*%
X160800000Y-101990000D03*
%TO.P,A2,D6,D6*%
%TO.N,/GPIO18*%
X158260000Y-101990000D03*
%TO.P,A2,D7,D7*%
%TO.N,/GPIO2*%
X155720000Y-101990000D03*
%TO.P,A2,D8,D8*%
%TO.N,/GPIO46*%
X151656000Y-101990000D03*
%TO.P,A2,D9,D9*%
%TO.N,/GPIO14*%
X149116000Y-101990000D03*
%TO.P,A2,D10,D10*%
%TO.N,/GPIO21*%
X146576000Y-101990000D03*
%TO.P,A2,D11,D11*%
%TO.N,/GPIO47*%
X144036000Y-101990000D03*
%TO.P,A2,D12,D12*%
%TO.N,/GPIO48*%
X141496000Y-101990000D03*
%TO.P,A2,D13,D13*%
%TO.N,/GPIO45*%
X138956000Y-101990000D03*
%TO.P,A2,D14,D14*%
%TO.N,/GPIO6*%
X165880000Y-104530000D03*
%TO.P,A2,D15,D15*%
%TO.N,/GPIO15*%
X163340000Y-104530000D03*
%TO.P,A2,D16,D16*%
%TO.N,/GPIO17*%
X160800000Y-104530000D03*
%TO.P,A2,D17,D17*%
%TO.N,/GPIO1*%
X158260000Y-104530000D03*
%TO.P,A2,D18,D18*%
%TO.N,/GPIO3*%
X155720000Y-104530000D03*
%TO.P,A2,D19,D19*%
%TO.N,/GPIO42*%
X170960000Y-147710000D03*
%TO.P,A2,D20,D20*%
%TO.N,/GPIO41*%
X168420000Y-147710000D03*
%TO.P,A2,D21,D21*%
%TO.N,/GPIO40*%
X165880000Y-147710000D03*
%TO.P,A2,D22,D22*%
%TO.N,/GPIO39*%
X163340000Y-147710000D03*
%TO.P,A2,D23,D23*%
%TO.N,/GPIO38*%
X160800000Y-147710000D03*
D11*
%TO.P,A2,GND1,GNDA*%
%TO.N,GND*%
X136416000Y-101990000D03*
X150640000Y-150250000D03*
X153180000Y-150250000D03*
%TO.P,A2,GND2,GNDB*%
X150640000Y-147710000D03*
X153180000Y-147710000D03*
D10*
%TO.P,A2,IORF,IOREF*%
%TO.N,unconnected-(A2-IOREF-PadIORF)*%
X140480000Y-150250000D03*
%TO.P,A2,PWR1*%
%TO.N,N/C*%
X143020000Y-147710000D03*
%TO.P,A2,PWR2*%
X140480000Y-147710000D03*
%TO.P,A2,PWR3*%
X137940000Y-147710000D03*
%TO.P,A2,RST1,RESET*%
%TO.N,/GPIO0*%
X143020000Y-150250000D03*
%TO.P,A2,SCL,SCL*%
%TO.N,/SCL*%
X128796000Y-101990000D03*
%TO.P,A2,SDA,SDA*%
%TO.N,/SDA*%
X131336000Y-101990000D03*
%TO.P,A2,VIN,VIN*%
%TO.N,VIN*%
X155720000Y-147710000D03*
X155720000Y-150250000D03*
%TD*%
D12*
%TO.P,BTN2,5*%
%TO.N,N/C*%
X171499998Y-108750000D03*
%TO.P,BTN2,6*%
X174250000Y-108750000D03*
%TD*%
%TO.P,SW4,5*%
%TO.N,N/C*%
X132000000Y-148499998D03*
%TO.P,SW4,6*%
X132000000Y-151250000D03*
%TD*%
D13*
%TO.P,SW1,1,A*%
%TO.N,/VUSB*%
X113750000Y-132080000D03*
D14*
%TO.P,SW1,2,B*%
%TO.N,VCC*%
X113750000Y-129540000D03*
%TO.P,SW1,3,C*%
%TO.N,VDC*%
X113750000Y-127000000D03*
%TD*%
D15*
%TO.P,U1,41_10*%
%TO.N,N/C*%
X172410000Y-130125000D03*
%TO.P,U1,41_11*%
X172410000Y-128625000D03*
%TO.P,U1,41_12*%
X172410000Y-131625000D03*
%TO.P,U1,41_13*%
X170910000Y-128625000D03*
%TO.P,U1,41_14*%
X170910000Y-130125000D03*
%TO.P,U1,41_15*%
X170910000Y-131625000D03*
%TO.P,U1,41_16*%
X173160000Y-129375000D03*
%TO.P,U1,41_17*%
X173160000Y-130875000D03*
%TO.P,U1,41_18*%
X171660000Y-129375000D03*
%TO.P,U1,41_19*%
X171660000Y-130875000D03*
%TO.P,U1,41_20*%
X170160000Y-129375000D03*
%TO.P,U1,41_21*%
X170160000Y-130875000D03*
%TD*%
D16*
%TO.P,J2,1*%
%TO.N,VIN*%
X123200000Y-118310000D03*
D17*
%TO.P,J2,2*%
%TO.N,GND*%
X117200000Y-118310000D03*
%TO.P,J2,3*%
X120200000Y-123010000D03*
%TD*%
D18*
%TO.P,J1,A1,GND*%
%TO.N,GND*%
X117917566Y-103664444D03*
%TO.P,J1,A4,VBUS*%
%TO.N,/VUSB*%
X117917566Y-104514445D03*
%TO.P,J1,A5,CC1*%
%TO.N,/CC1*%
X117917566Y-105364443D03*
%TO.P,J1,A6,D+*%
%TO.N,/USB_D+*%
X117917566Y-106214444D03*
%TO.P,J1,A7,D-*%
%TO.N,/USB_D-*%
X117917566Y-107064445D03*
%TO.P,J1,A8,SBU1*%
%TO.N,unconnected-(J1-SBU1-PadA8)*%
X117917566Y-107914446D03*
%TO.P,J1,A9,VBUS*%
%TO.N,/VUSB*%
X117917566Y-108764444D03*
%TO.P,J1,A12,GND*%
%TO.N,GND*%
X117917566Y-109614445D03*
%TO.P,J1,B1,GND*%
X116567566Y-109614445D03*
%TO.P,J1,B4,VBUS*%
%TO.N,/VUSB*%
X116567566Y-108764444D03*
%TO.P,J1,B5,CC2*%
%TO.N,/CC2*%
X116567566Y-107914446D03*
%TO.P,J1,B6,D+*%
%TO.N,/USB_D+*%
X116567566Y-107064445D03*
%TO.P,J1,B7,D-*%
%TO.N,/USB_D-*%
X116567566Y-106214444D03*
%TO.P,J1,B8,SBU2*%
%TO.N,unconnected-(J1-SBU2-PadB8)*%
X116567566Y-105364443D03*
%TO.P,J1,B9,VBUS*%
%TO.N,/VUSB*%
X116567566Y-104514445D03*
%TO.P,J1,B12,GND*%
%TO.N,GND*%
X116567566Y-103664444D03*
D19*
%TO.P,J1,S1,SHIELD*%
X113552566Y-102314459D03*
%TO.P,J1,S2,SHIELD*%
X113552566Y-110964429D03*
D20*
%TO.P,J1,S3,SHIELD*%
X116937565Y-102314444D03*
%TO.P,J1,S4,SHIELD*%
X116937566Y-110964429D03*
%TD*%
D21*
%TO.N,GND*%
X139113452Y-126120000D03*
X143780119Y-126120000D03*
X141446785Y-126120000D03*
X136780119Y-126120000D03*
X176250000Y-132500000D03*
X176250000Y-127833333D03*
X176250000Y-130166667D03*
X176250000Y-134833333D03*
X116250000Y-143083333D03*
X116250000Y-138416666D03*
X116250000Y-140750000D03*
X116250000Y-145416666D03*
X144250000Y-140250000D03*
X141916666Y-140250000D03*
X139583333Y-140250000D03*
X137250000Y-140250000D03*
D22*
%TO.N,+3V3*%
X163750000Y-125250000D03*
%TO.N,/GPIO7*%
X166224101Y-115525899D03*
%TO.N,/GPIO4*%
X168750000Y-115500000D03*
%TO.N,/USB_D+*%
X159625000Y-120125000D03*
%TO.N,/GPIO16*%
X164449997Y-115500000D03*
%TO.N,/GPIO21*%
X151249839Y-118541048D03*
%TO.N,/GPIO45*%
X147992220Y-118992220D03*
%TO.N,/A0*%
X160995000Y-131995000D03*
%TO.N,/GPIO17*%
X163649994Y-115500000D03*
%TO.N,/GPIO6*%
X167106801Y-115526040D03*
%TO.N,/GPIO14*%
X150750000Y-119275000D03*
%TO.N,/GPIO48*%
X150681332Y-117181391D03*
%TO.N,/A3*%
X161000000Y-128185000D03*
%TO.N,/GPIO1*%
X166000000Y-127500000D03*
%TO.N,/GPIO18*%
X162849991Y-115500000D03*
%TO.N,/GPIO15*%
X165250000Y-115500000D03*
%TO.N,/GPIO5*%
X167906771Y-115500000D03*
%TO.N,/GPIO47*%
X151252983Y-117741051D03*
%TO.N,/A1*%
X161000000Y-130725000D03*
%TO.N,/GPIO2*%
X165250000Y-126500000D03*
%TO.N,/A2*%
X161000000Y-129455000D03*
%TO.N,/USB_D-*%
X161170000Y-120830000D03*
%TO.N,/TX*%
X170500000Y-136750000D03*
%TO.N,/RX*%
X171250000Y-137500000D03*
%TO.N,/SDA*%
X161250000Y-119250000D03*
%TO.N,/SCL*%
X128750000Y-112000000D03*
X156000000Y-126250000D03*
%TO.N,Net-(D2-A)*%
X118750000Y-148750000D03*
X127500000Y-140000000D03*
%TO.N,Net-(D3-A)*%
X128000000Y-137750000D03*
X117250000Y-148497017D03*
%TD*%
D23*
%TO.N,+3V3*%
X160000000Y-125250000D02*
X159000000Y-126250000D01*
X145560000Y-147710000D02*
X145542000Y-147728000D01*
X159000000Y-137250000D02*
X151000000Y-145250000D01*
X146750000Y-145250000D02*
X145560000Y-146440000D01*
X151000000Y-145250000D02*
X146750000Y-145250000D01*
X145542000Y-147728000D02*
X145542000Y-150368000D01*
X159000000Y-126250000D02*
X159000000Y-137250000D01*
X163750000Y-125250000D02*
X160000000Y-125250000D01*
X145560000Y-146440000D02*
X145560000Y-147710000D01*
D24*
%TO.N,/GPIO7*%
X163340000Y-101990000D02*
X164691400Y-103341400D01*
X165430000Y-111134416D02*
X166224101Y-111928517D01*
X164691400Y-109145816D02*
X165430000Y-109884416D01*
X166224101Y-115525899D02*
X166250000Y-115500000D01*
X165430000Y-109884416D02*
X165430000Y-111134416D01*
X164691400Y-103341400D02*
X164691400Y-109145816D01*
X166224101Y-111928517D02*
X166224101Y-115525899D01*
D23*
%TO.N,/GPIO4*%
X168365041Y-102144959D02*
X168402000Y-102108000D01*
D24*
X168420000Y-101990000D02*
X168420000Y-103670000D01*
X168750000Y-104000000D02*
X168750000Y-115500000D01*
X168420000Y-103670000D02*
X168750000Y-104000000D01*
%TO.N,/USB_D+*%
X117494159Y-106274444D02*
X116644158Y-107124445D01*
X116644158Y-107124445D02*
X116567566Y-107124445D01*
X128825000Y-107825000D02*
X127274444Y-106274444D01*
X158700000Y-120300000D02*
X131948959Y-120300000D01*
X128825000Y-110554720D02*
X128825000Y-107825000D01*
X158875000Y-120125000D02*
X158700000Y-120300000D01*
X127274444Y-106274444D02*
X117494159Y-106274444D01*
X129825000Y-111554720D02*
X128825000Y-110554720D01*
X131948959Y-120300000D02*
X129825000Y-118176041D01*
X129825000Y-118176041D02*
X129825000Y-111554720D01*
X159625000Y-120125000D02*
X158875000Y-120125000D01*
%TO.N,/GPIO16*%
X162151400Y-107878608D02*
X164449997Y-110177205D01*
X162151400Y-103341400D02*
X162151400Y-107878608D01*
X164449997Y-110177205D02*
X164449997Y-115500000D01*
X160800000Y-101990000D02*
X162151400Y-103341400D01*
D23*
X164449997Y-115500000D02*
X164500000Y-115449997D01*
D24*
%TO.N,/GPIO21*%
X158664035Y-118500000D02*
X160650000Y-116514035D01*
X147250000Y-104250000D02*
X146576000Y-103576000D01*
X160650000Y-116514035D02*
X160650000Y-110309188D01*
X151249839Y-118541048D02*
X151290887Y-118500000D01*
X153750000Y-107386396D02*
X150613604Y-104250000D01*
X151290887Y-118500000D02*
X158664035Y-118500000D01*
X157727208Y-107386396D02*
X153750000Y-107386396D01*
X150613604Y-104250000D02*
X147250000Y-104250000D01*
X146576000Y-103576000D02*
X146576000Y-101990000D01*
X160650000Y-110309188D02*
X157727208Y-107386396D01*
%TO.N,/GPIO45*%
X150104416Y-105650000D02*
X146740812Y-105650000D01*
X143927208Y-104200000D02*
X141813604Y-104200000D01*
X157168020Y-108736396D02*
X153190812Y-108736396D01*
X145740812Y-104650000D02*
X144377208Y-104650000D01*
X141363604Y-103750000D02*
X139250000Y-103750000D01*
X150478839Y-116500000D02*
X158754847Y-116500000D01*
X147992220Y-118992220D02*
X150056332Y-116928108D01*
X158754847Y-116500000D02*
X159300000Y-115954847D01*
X159300000Y-110868376D02*
X157168020Y-108736396D01*
X144377208Y-104650000D02*
X143927208Y-104200000D01*
X159300000Y-115954847D02*
X159300000Y-110868376D01*
X141813604Y-104200000D02*
X141363604Y-103750000D01*
X150056332Y-116922507D02*
X150478839Y-116500000D01*
X153190812Y-108736396D02*
X150104416Y-105650000D01*
X150056332Y-116928108D02*
X150056332Y-116922507D01*
X139250000Y-103750000D02*
X138956000Y-103456000D01*
X146740812Y-105650000D02*
X145740812Y-104650000D01*
X138956000Y-103456000D02*
X138956000Y-101990000D01*
%TO.N,/A0*%
X162150000Y-135809188D02*
X162150000Y-132650000D01*
X162000000Y-146750000D02*
X164000000Y-144750000D01*
X164000000Y-137659188D02*
X162150000Y-135809188D01*
X164000000Y-144750000D02*
X164000000Y-137659188D01*
X162000000Y-149050000D02*
X162000000Y-146750000D01*
X162150000Y-132650000D02*
X161495000Y-131995000D01*
X161495000Y-131995000D02*
X160995000Y-131995000D01*
X160800000Y-150250000D02*
X162000000Y-149050000D01*
%TO.N,/GPIO17*%
X163649994Y-110013598D02*
X163649994Y-115500000D01*
X160800000Y-107163604D02*
X163649994Y-110013598D01*
X160800000Y-104530000D02*
X160800000Y-107163604D01*
%TO.N,/GPIO6*%
X167106801Y-112174821D02*
X167106801Y-115526040D01*
X165880000Y-104530000D02*
X165880000Y-107130000D01*
X166800000Y-111868020D02*
X167106801Y-112174821D01*
X167106801Y-115526040D02*
X167000000Y-115419239D01*
X166800000Y-108050000D02*
X166800000Y-111868020D01*
X165880000Y-107130000D02*
X166800000Y-108050000D01*
%TO.N,/GPIO14*%
X153936396Y-106936396D02*
X149116000Y-102116000D01*
X158525431Y-119275000D02*
X161100000Y-116700431D01*
X150750000Y-119275000D02*
X158525431Y-119275000D01*
X161100000Y-116700431D02*
X161100000Y-110122792D01*
X161100000Y-110122792D02*
X157913604Y-106936396D01*
X157913604Y-106936396D02*
X153936396Y-106936396D01*
X149116000Y-102116000D02*
X149116000Y-101990000D01*
%TO.N,/GPIO48*%
X159750000Y-116141243D02*
X159750000Y-110681980D01*
X150290812Y-105200000D02*
X146927208Y-105200000D01*
X142000000Y-103750000D02*
X141496000Y-103246000D01*
X144113604Y-103750000D02*
X142000000Y-103750000D01*
X150681332Y-117181391D02*
X150746672Y-117116051D01*
X158775192Y-117116051D02*
X159750000Y-116141243D01*
X150746672Y-117116051D02*
X158775192Y-117116051D01*
X145927208Y-104200000D02*
X144563604Y-104200000D01*
X146927208Y-105200000D02*
X145927208Y-104200000D01*
X144563604Y-104200000D02*
X144113604Y-103750000D01*
X157354416Y-108286396D02*
X153377208Y-108286396D01*
X153377208Y-108286396D02*
X150290812Y-105200000D01*
X141496000Y-103246000D02*
X141496000Y-101990000D01*
X159750000Y-110681980D02*
X157354416Y-108286396D01*
%TO.N,/A3*%
X168420000Y-150250000D02*
X169750000Y-148920000D01*
X161821396Y-128185000D02*
X161000000Y-128185000D01*
X169750000Y-148920000D02*
X169750000Y-146750000D01*
X163500000Y-129863604D02*
X161821396Y-128185000D01*
X169750000Y-146750000D02*
X165428600Y-142428600D01*
X165428600Y-142428600D02*
X165428600Y-137178600D01*
X163500000Y-135250000D02*
X163500000Y-129863604D01*
X165428600Y-137178600D02*
X163500000Y-135250000D01*
%TO.N,/GPIO1*%
X162000000Y-109750000D02*
X158250000Y-106000000D01*
X162000000Y-116250000D02*
X162000000Y-109750000D01*
X158250000Y-106000000D02*
X158250000Y-104540000D01*
X166000000Y-120250000D02*
X162000000Y-116250000D01*
X166000000Y-127500000D02*
X166000000Y-120250000D01*
X158250000Y-104540000D02*
X158260000Y-104530000D01*
%TO.N,/GPIO18*%
X159448600Y-103178600D02*
X159448600Y-106448600D01*
X159448600Y-106448600D02*
X162849991Y-109849991D01*
X158260000Y-101990000D02*
X159448600Y-103178600D01*
X162849991Y-109849991D02*
X162849991Y-115500000D01*
%TO.N,/GPIO15*%
X164980000Y-111320812D02*
X165250000Y-111590812D01*
X163340000Y-104530000D02*
X163340000Y-108430812D01*
X163340000Y-108430812D02*
X164980000Y-110070812D01*
X165250000Y-111590812D02*
X165250000Y-115500000D01*
X164980000Y-110070812D02*
X164980000Y-111320812D01*
%TO.N,/GPIO5*%
X167250000Y-111681624D02*
X167906771Y-112338395D01*
D23*
X165862000Y-102351950D02*
X165862000Y-102108000D01*
D24*
X167906771Y-112338395D02*
X167906771Y-115500000D01*
X167250000Y-103360000D02*
X167250000Y-111681624D01*
X165880000Y-101990000D02*
X167250000Y-103360000D01*
%TO.N,/GPIO47*%
X144750000Y-103750000D02*
X144036000Y-103036000D01*
X146113604Y-103750000D02*
X144750000Y-103750000D01*
X150477208Y-104750000D02*
X147113604Y-104750000D01*
X151252983Y-117741051D02*
X158786588Y-117741051D01*
X160200000Y-116327639D02*
X160200000Y-110495584D01*
X158786588Y-117741051D02*
X160200000Y-116327639D01*
X144036000Y-103036000D02*
X144036000Y-101990000D01*
X147113604Y-104750000D02*
X146113604Y-103750000D01*
X157540812Y-107836396D02*
X153563604Y-107836396D01*
X153563604Y-107836396D02*
X150477208Y-104750000D01*
X160200000Y-110495584D02*
X157540812Y-107836396D01*
%TO.N,/A1*%
X162600000Y-131350000D02*
X161975000Y-130725000D01*
X163340000Y-150250000D02*
X164528600Y-149061400D01*
X164528600Y-137551392D02*
X162600000Y-135622792D01*
X164528600Y-149061400D02*
X164528600Y-137551392D01*
X161975000Y-130725000D02*
X161000000Y-130725000D01*
X162600000Y-135622792D02*
X162600000Y-131350000D01*
%TO.N,/GPIO2*%
X161550000Y-109936396D02*
X161550000Y-116436396D01*
X165250000Y-120136396D02*
X165250000Y-126500000D01*
X155720000Y-101990000D02*
X157071400Y-103341400D01*
X157071400Y-105457796D02*
X161550000Y-109936396D01*
X157071400Y-103341400D02*
X157071400Y-105457796D01*
X161550000Y-116436396D02*
X165250000Y-120136396D01*
%TO.N,/A2*%
X163050000Y-135436396D02*
X163050000Y-130550000D01*
X161955000Y-129455000D02*
X161000000Y-129455000D01*
X164978600Y-142728600D02*
X164978600Y-137364996D01*
X167231400Y-148898600D02*
X167231400Y-144981400D01*
X165880000Y-150250000D02*
X167231400Y-148898600D01*
X163050000Y-130550000D02*
X161955000Y-129455000D01*
X167231400Y-144981400D02*
X164978600Y-142728600D01*
X164978600Y-137364996D02*
X163050000Y-135436396D01*
%TO.N,/USB_D-*%
X127488049Y-107124445D02*
X117917566Y-107124445D01*
X128375000Y-110741116D02*
X128375000Y-108011396D01*
X131762563Y-120750000D02*
X129375000Y-118362437D01*
X129375000Y-118362437D02*
X129375000Y-111741116D01*
X161090000Y-120750000D02*
X131762563Y-120750000D01*
X129375000Y-111741116D02*
X128375000Y-110741116D01*
X128375000Y-108011396D02*
X127488049Y-107124445D01*
X161170000Y-120830000D02*
X161090000Y-120750000D01*
%TO.N,/VUSB*%
X115690000Y-108764444D02*
X115337778Y-108412222D01*
D23*
X111500000Y-131000000D02*
X112580000Y-132080000D01*
D24*
X117857566Y-108764444D02*
X115690000Y-108764444D01*
D23*
X111500000Y-109750000D02*
X111500000Y-131000000D01*
X112580000Y-132080000D02*
X113750000Y-132080000D01*
X112250000Y-109000000D02*
X111500000Y-109750000D01*
X114750000Y-109000000D02*
X112250000Y-109000000D01*
D24*
X115337778Y-104912222D02*
X115337778Y-108412222D01*
X117917566Y-104514445D02*
X115735555Y-104514445D01*
D23*
X115337778Y-108412222D02*
X114750000Y-109000000D01*
D24*
X115735555Y-104514445D02*
X115337778Y-104912222D01*
D23*
%TO.N,/TX*%
X167500000Y-118250000D02*
X169500000Y-116250000D01*
X170942000Y-105058000D02*
X170942000Y-102108000D01*
X167500000Y-133750000D02*
X167500000Y-118250000D01*
X169500000Y-116250000D02*
X169500000Y-106500000D01*
X169500000Y-106500000D02*
X170942000Y-105058000D01*
X170500000Y-136750000D02*
X167500000Y-133750000D01*
%TO.N,/RX*%
X168200000Y-133200000D02*
X168200000Y-118539950D01*
X170200000Y-116539950D02*
X170200000Y-107250000D01*
X171250000Y-137500000D02*
X171250000Y-136250000D01*
X171250000Y-136250000D02*
X168200000Y-133200000D01*
X168200000Y-118539950D02*
X170200000Y-116539950D01*
X173482000Y-103968000D02*
X173482000Y-102108000D01*
X170200000Y-107250000D02*
X173482000Y-103968000D01*
D25*
%TO.N,/SDA*%
X129750000Y-103500000D02*
X129250000Y-104000000D01*
X132125000Y-119875000D02*
X158523959Y-119875000D01*
X129250000Y-110378680D02*
X130250000Y-111378680D01*
X159151471Y-119250000D02*
X161250000Y-119250000D01*
X130250000Y-118000000D02*
X132125000Y-119875000D01*
X130250000Y-111378680D02*
X130250000Y-118000000D01*
X131336000Y-101990000D02*
X131336000Y-103164000D01*
X129250000Y-104000000D02*
X129250000Y-110378680D01*
X158523959Y-119875000D02*
X158698959Y-119700000D01*
X158698959Y-119700000D02*
X158701471Y-119700000D01*
X131000000Y-103500000D02*
X129750000Y-103500000D01*
X131336000Y-103164000D02*
X131000000Y-103500000D01*
X158701471Y-119700000D02*
X159151471Y-119250000D01*
D23*
%TO.N,/SCL*%
X128750000Y-118625000D02*
X128750000Y-112000000D01*
X156000000Y-123500000D02*
X153825000Y-121325000D01*
X153825000Y-121325000D02*
X131450000Y-121325000D01*
X156000000Y-126250000D02*
X156000000Y-123500000D01*
X131450000Y-121325000D02*
X128750000Y-118625000D01*
D25*
%TO.N,Net-(D2-A)*%
X118750000Y-148750000D02*
X127500000Y-140000000D01*
%TO.N,Net-(D3-A)*%
X117250000Y-148497017D02*
X117988068Y-147758949D01*
X117988068Y-147758949D02*
X117991051Y-147758949D01*
X117991051Y-147758949D02*
X128000000Y-137750000D01*
%TD*%
%TA.AperFunction,Conductor*%
%TO.N,GND*%
G36*
X150210375Y-117522482D02*
G01*
X150274699Y-117565461D01*
X150275762Y-117564077D01*
X150403703Y-117662249D01*
X150403710Y-117662254D01*
X150467315Y-117688599D01*
X150537623Y-117717721D01*
X150537634Y-117717722D01*
X150543411Y-117719271D01*
X150630548Y-117762239D01*
X150694609Y-117835282D01*
X150709085Y-117870229D01*
X150710407Y-117869682D01*
X150778367Y-118033754D01*
X150776367Y-118034582D01*
X150800551Y-118105819D01*
X150794199Y-118202766D01*
X150769326Y-118262820D01*
X150768976Y-118263424D01*
X150713510Y-118397333D01*
X150713510Y-118397335D01*
X150713509Y-118397337D01*
X150713509Y-118397339D01*
X150694589Y-118541048D01*
X150692459Y-118557229D01*
X150690365Y-118556953D01*
X150675635Y-118631006D01*
X150621659Y-118711788D01*
X150540878Y-118765764D01*
X150472374Y-118794139D01*
X150472371Y-118794141D01*
X150357383Y-118882374D01*
X150357374Y-118882383D01*
X150269141Y-118997371D01*
X150269136Y-118997378D01*
X150213671Y-119131285D01*
X150213671Y-119131287D01*
X150213670Y-119131289D01*
X150213670Y-119131291D01*
X150195429Y-119269845D01*
X150194750Y-119275002D01*
X150194750Y-119275500D01*
X150194556Y-119276473D01*
X150192620Y-119291181D01*
X150191656Y-119291054D01*
X150175796Y-119370788D01*
X150121820Y-119451570D01*
X150041038Y-119505546D01*
X149945750Y-119524500D01*
X148740254Y-119524500D01*
X148644966Y-119505546D01*
X148564184Y-119451570D01*
X148510208Y-119370788D01*
X148491254Y-119275500D01*
X148510207Y-119180214D01*
X148528549Y-119135931D01*
X148528548Y-119135931D01*
X148528550Y-119135929D01*
X148540108Y-119048132D01*
X148571336Y-118956139D01*
X148610903Y-118904572D01*
X149939020Y-117576455D01*
X150019799Y-117522482D01*
X150115087Y-117503528D01*
X150210375Y-117522482D01*
G37*
%TD.AperFunction*%
%TD*%
%TA.AperFunction,NonConductor*%
G36*
X124102617Y-100059454D02*
G01*
X124183399Y-100113430D01*
X124237375Y-100194212D01*
X124256329Y-100289500D01*
X124237375Y-100384788D01*
X124183399Y-100465570D01*
X124158910Y-100487045D01*
X124017268Y-100595729D01*
X124017258Y-100595738D01*
X123845738Y-100767258D01*
X123845729Y-100767268D01*
X123698064Y-100959710D01*
X123698062Y-100959714D01*
X123576778Y-101169782D01*
X123576770Y-101169798D01*
X123483948Y-101393894D01*
X123483940Y-101393917D01*
X123421163Y-101628204D01*
X123421162Y-101628209D01*
X123389500Y-101868712D01*
X123389500Y-102111287D01*
X123421162Y-102351790D01*
X123421163Y-102351795D01*
X123483940Y-102586082D01*
X123483948Y-102586105D01*
X123576770Y-102810201D01*
X123576778Y-102810217D01*
X123698058Y-103020279D01*
X123698064Y-103020289D01*
X123845729Y-103212731D01*
X123845738Y-103212741D01*
X124017258Y-103384261D01*
X124017268Y-103384270D01*
X124064436Y-103420463D01*
X124209711Y-103531936D01*
X124209720Y-103531941D01*
X124419782Y-103653221D01*
X124419798Y-103653229D01*
X124544456Y-103704863D01*
X124643900Y-103746054D01*
X124643911Y-103746057D01*
X124643917Y-103746059D01*
X124788441Y-103784784D01*
X124878211Y-103808838D01*
X125118712Y-103840500D01*
X125361288Y-103840500D01*
X125601789Y-103808838D01*
X125810797Y-103752834D01*
X125836082Y-103746059D01*
X125836084Y-103746058D01*
X125836100Y-103746054D01*
X126011537Y-103673386D01*
X126060201Y-103653229D01*
X126060206Y-103653226D01*
X126060212Y-103653224D01*
X126270289Y-103531936D01*
X126462738Y-103384265D01*
X126634265Y-103212738D01*
X126781936Y-103020289D01*
X126903224Y-102810212D01*
X126908216Y-102798162D01*
X126967340Y-102655421D01*
X126996054Y-102586100D01*
X126997956Y-102579004D01*
X127018055Y-102503991D01*
X127058838Y-102351789D01*
X127090500Y-102111288D01*
X127090500Y-101868712D01*
X127058838Y-101628211D01*
X127018055Y-101476007D01*
X126996059Y-101393917D01*
X126996057Y-101393911D01*
X126996054Y-101393900D01*
X126938589Y-101255166D01*
X126903229Y-101169798D01*
X126903221Y-101169782D01*
X126781938Y-100959714D01*
X126781935Y-100959710D01*
X126781930Y-100959704D01*
X126634265Y-100767262D01*
X126462738Y-100595735D01*
X126462735Y-100595733D01*
X126462731Y-100595729D01*
X126321090Y-100487045D01*
X126257031Y-100414001D01*
X126225801Y-100322002D01*
X126232155Y-100225055D01*
X126275126Y-100137919D01*
X126348170Y-100073860D01*
X126440169Y-100042630D01*
X126472671Y-100040500D01*
X174189546Y-100040500D01*
X174284834Y-100059454D01*
X174365616Y-100113430D01*
X175426570Y-101174384D01*
X175480546Y-101255166D01*
X175499500Y-101350454D01*
X175499500Y-108213915D01*
X175480546Y-108309203D01*
X175426570Y-108389985D01*
X175345788Y-108443961D01*
X175250500Y-108462915D01*
X175155212Y-108443961D01*
X175074430Y-108389985D01*
X175034860Y-108338415D01*
X174970333Y-108226652D01*
X174970332Y-108226650D01*
X174903871Y-108152838D01*
X174845779Y-108088320D01*
X174695189Y-107978910D01*
X174593985Y-107933851D01*
X174525143Y-107903200D01*
X174525138Y-107903199D01*
X174343070Y-107864500D01*
X174156930Y-107864500D01*
X173974861Y-107903199D01*
X173974856Y-107903200D01*
X173804809Y-107978911D01*
X173654223Y-108088318D01*
X173529667Y-108226650D01*
X173529666Y-108226652D01*
X173436598Y-108387851D01*
X173379079Y-108564877D01*
X173379079Y-108564878D01*
X173359622Y-108750000D01*
X173379079Y-108935121D01*
X173379079Y-108935122D01*
X173436598Y-109112148D01*
X173529666Y-109273347D01*
X173529667Y-109273349D01*
X173529669Y-109273351D01*
X173654221Y-109411680D01*
X173804811Y-109521090D01*
X173974858Y-109596800D01*
X174156930Y-109635500D01*
X174343069Y-109635500D01*
X174343070Y-109635500D01*
X174525142Y-109596800D01*
X174695189Y-109521090D01*
X174845779Y-109411680D01*
X174970331Y-109273351D01*
X175034861Y-109161581D01*
X175098918Y-109088539D01*
X175186054Y-109045569D01*
X175283001Y-109039214D01*
X175375000Y-109070443D01*
X175448045Y-109134502D01*
X175491015Y-109221638D01*
X175499500Y-109286084D01*
X175499500Y-112105892D01*
X175533606Y-112233181D01*
X175533607Y-112233183D01*
X175533608Y-112233186D01*
X175599500Y-112347314D01*
X177292246Y-114040059D01*
X178176570Y-114924383D01*
X178230546Y-115005165D01*
X178249500Y-115100453D01*
X178249500Y-116476808D01*
X178230546Y-116572096D01*
X178176570Y-116652878D01*
X178095788Y-116706854D01*
X178000500Y-116725808D01*
X177905212Y-116706854D01*
X177824430Y-116652878D01*
X177770454Y-116572096D01*
X177770454Y-116572095D01*
X177703229Y-116409798D01*
X177703221Y-116409782D01*
X177581941Y-116199720D01*
X177581935Y-116199710D01*
X177581792Y-116199524D01*
X177491068Y-116081289D01*
X177434270Y-116007268D01*
X177434261Y-116007258D01*
X177262741Y-115835738D01*
X177262731Y-115835729D01*
X177070289Y-115688064D01*
X177070279Y-115688058D01*
X176860217Y-115566778D01*
X176860201Y-115566770D01*
X176636105Y-115473948D01*
X176636103Y-115473947D01*
X176636100Y-115473946D01*
X176636096Y-115473945D01*
X176636082Y-115473940D01*
X176401795Y-115411163D01*
X176401790Y-115411162D01*
X176161288Y-115379500D01*
X175918712Y-115379500D01*
X175678209Y-115411162D01*
X175678204Y-115411163D01*
X175443917Y-115473940D01*
X175443894Y-115473948D01*
X175219798Y-115566770D01*
X175219782Y-115566778D01*
X175009720Y-115688058D01*
X175009710Y-115688064D01*
X174817268Y-115835729D01*
X174817258Y-115835738D01*
X174645738Y-116007258D01*
X174645729Y-116007268D01*
X174498064Y-116199710D01*
X174498058Y-116199720D01*
X174376778Y-116409782D01*
X174376770Y-116409798D01*
X174283948Y-116633894D01*
X174283940Y-116633917D01*
X174221163Y-116868204D01*
X174221162Y-116868209D01*
X174189500Y-117108712D01*
X174189500Y-117351287D01*
X174221162Y-117591790D01*
X174221163Y-117591795D01*
X174283940Y-117826082D01*
X174283948Y-117826105D01*
X174376770Y-118050201D01*
X174376778Y-118050217D01*
X174498058Y-118260279D01*
X174498064Y-118260289D01*
X174645729Y-118452731D01*
X174645738Y-118452741D01*
X174817258Y-118624261D01*
X174817268Y-118624270D01*
X174938491Y-118717287D01*
X175009711Y-118771936D01*
X175009720Y-118771941D01*
X175219782Y-118893221D01*
X175219798Y-118893229D01*
X175359858Y-118951242D01*
X175443900Y-118986054D01*
X175443911Y-118986057D01*
X175443917Y-118986059D01*
X175594360Y-119026370D01*
X175678211Y-119048838D01*
X175918712Y-119080500D01*
X176161288Y-119080500D01*
X176401789Y-119048838D01*
X176593865Y-118997371D01*
X176636082Y-118986059D01*
X176636084Y-118986058D01*
X176636100Y-118986054D01*
X176817198Y-118911041D01*
X176860201Y-118893229D01*
X176860206Y-118893226D01*
X176860212Y-118893224D01*
X177070289Y-118771936D01*
X177262738Y-118624265D01*
X177434265Y-118452738D01*
X177581936Y-118260289D01*
X177703224Y-118050212D01*
X177770455Y-117887902D01*
X177824429Y-117807122D01*
X177905211Y-117753145D01*
X178000499Y-117734191D01*
X178095787Y-117753145D01*
X178176569Y-117807120D01*
X178230546Y-117887902D01*
X178249500Y-117983190D01*
X178249500Y-144416808D01*
X178230546Y-144512096D01*
X178176570Y-144592878D01*
X178095788Y-144646854D01*
X178000500Y-144665808D01*
X177905212Y-144646854D01*
X177824430Y-144592878D01*
X177770454Y-144512096D01*
X177770454Y-144512095D01*
X177703229Y-144349798D01*
X177703221Y-144349782D01*
X177581941Y-144139720D01*
X177581935Y-144139710D01*
X177434270Y-143947268D01*
X177434261Y-143947258D01*
X177262741Y-143775738D01*
X177262731Y-143775729D01*
X177070289Y-143628064D01*
X177070279Y-143628058D01*
X176860217Y-143506778D01*
X176860201Y-143506770D01*
X176636105Y-143413948D01*
X176636103Y-143413947D01*
X176636100Y-143413946D01*
X176636096Y-143413945D01*
X176636082Y-143413940D01*
X176401795Y-143351163D01*
X176401790Y-143351162D01*
X176161288Y-143319500D01*
X175918712Y-143319500D01*
X175678209Y-143351162D01*
X175678204Y-143351163D01*
X175443917Y-143413940D01*
X175443894Y-143413948D01*
X175219798Y-143506770D01*
X175219782Y-143506778D01*
X175009720Y-143628058D01*
X175009710Y-143628064D01*
X174817268Y-143775729D01*
X174817258Y-143775738D01*
X174645738Y-143947258D01*
X174645729Y-143947268D01*
X174498064Y-144139710D01*
X174498058Y-144139720D01*
X174376778Y-144349782D01*
X174376770Y-144349798D01*
X174283948Y-144573894D01*
X174283940Y-144573917D01*
X174221163Y-144808204D01*
X174221162Y-144808209D01*
X174189500Y-145048712D01*
X174189500Y-145291287D01*
X174221162Y-145531790D01*
X174221163Y-145531795D01*
X174283940Y-145766082D01*
X174283948Y-145766105D01*
X174376770Y-145990201D01*
X174376778Y-145990217D01*
X174498058Y-146200279D01*
X174498064Y-146200289D01*
X174645729Y-146392731D01*
X174645738Y-146392741D01*
X174817258Y-146564261D01*
X174817268Y-146564270D01*
X174919598Y-146642790D01*
X175009711Y-146711936D01*
X175012517Y-146713556D01*
X175219782Y-146833221D01*
X175219798Y-146833229D01*
X175358441Y-146890656D01*
X175443900Y-146926054D01*
X175443911Y-146926057D01*
X175443917Y-146926059D01*
X175594248Y-146966340D01*
X175678211Y-146988838D01*
X175918712Y-147020500D01*
X176161288Y-147020500D01*
X176401789Y-146988838D01*
X176570327Y-146943678D01*
X176636082Y-146926059D01*
X176636084Y-146926058D01*
X176636100Y-146926054D01*
X176787766Y-146863231D01*
X176860201Y-146833229D01*
X176860206Y-146833226D01*
X176860212Y-146833224D01*
X177070289Y-146711936D01*
X177262738Y-146564265D01*
X177434265Y-146392738D01*
X177581936Y-146200289D01*
X177703224Y-145990212D01*
X177770455Y-145827902D01*
X177824429Y-145747122D01*
X177905211Y-145693145D01*
X178000499Y-145674191D01*
X178095787Y-145693145D01*
X178176569Y-145747120D01*
X178230546Y-145827902D01*
X178249500Y-145923190D01*
X178249500Y-148729546D01*
X178230546Y-148824834D01*
X178176570Y-148905616D01*
X175942686Y-151139500D01*
X175942685Y-151139499D01*
X175849502Y-151232683D01*
X175849501Y-151232683D01*
X175783606Y-151346818D01*
X175749500Y-151474107D01*
X175749500Y-152040500D01*
X175730546Y-152135788D01*
X175676570Y-152216570D01*
X175595788Y-152270546D01*
X175500500Y-152289500D01*
X132814851Y-152289500D01*
X132719563Y-152270546D01*
X132638781Y-152216570D01*
X132584805Y-152135788D01*
X132565851Y-152040500D01*
X132584805Y-151945212D01*
X132629809Y-151873886D01*
X132673952Y-151824860D01*
X132720331Y-151773351D01*
X132813401Y-151612149D01*
X132870921Y-151435120D01*
X132890378Y-151250000D01*
X132870921Y-151064880D01*
X132813401Y-150887851D01*
X132785199Y-150839004D01*
X132720333Y-150726652D01*
X132720332Y-150726650D01*
X132678027Y-150679666D01*
X132595779Y-150588320D01*
X132445189Y-150478910D01*
X132350853Y-150436908D01*
X132275143Y-150403200D01*
X132275138Y-150403199D01*
X132093070Y-150364500D01*
X131906930Y-150364500D01*
X131724861Y-150403199D01*
X131724856Y-150403200D01*
X131554809Y-150478911D01*
X131404223Y-150588318D01*
X131279667Y-150726650D01*
X131279666Y-150726652D01*
X131186598Y-150887851D01*
X131129079Y-151064877D01*
X131129079Y-151064878D01*
X131109622Y-151250000D01*
X131129079Y-151435121D01*
X131129079Y-151435122D01*
X131186598Y-151612148D01*
X131279666Y-151773347D01*
X131279671Y-151773354D01*
X131370191Y-151873886D01*
X131419866Y-151957381D01*
X131433808Y-152053531D01*
X131409893Y-152147696D01*
X131351763Y-152225542D01*
X131268268Y-152275217D01*
X131185149Y-152289500D01*
X125067764Y-152289500D01*
X124972476Y-152270546D01*
X124891694Y-152216570D01*
X124837718Y-152135788D01*
X124818764Y-152040500D01*
X124837718Y-151945212D01*
X124891694Y-151864430D01*
X124943264Y-151824860D01*
X125000279Y-151791942D01*
X125000280Y-151791940D01*
X125000289Y-151791936D01*
X125192738Y-151644265D01*
X125364265Y-151472738D01*
X125511936Y-151280289D01*
X125633224Y-151070212D01*
X125633585Y-151069342D01*
X125708760Y-150887851D01*
X125726054Y-150846100D01*
X125727956Y-150839004D01*
X125748055Y-150763991D01*
X125788838Y-150611789D01*
X125820500Y-150371288D01*
X125820500Y-150128712D01*
X125788838Y-149888211D01*
X125748055Y-149736007D01*
X125726059Y-149653917D01*
X125726057Y-149653911D01*
X125726054Y-149653900D01*
X125660741Y-149496220D01*
X125633229Y-149429798D01*
X125633221Y-149429782D01*
X125547068Y-149280562D01*
X125511936Y-149219711D01*
X125442456Y-149129163D01*
X125364270Y-149027268D01*
X125364261Y-149027258D01*
X125192741Y-148855738D01*
X125192731Y-148855729D01*
X125000289Y-148708064D01*
X125000279Y-148708058D01*
X124790217Y-148586778D01*
X124790201Y-148586770D01*
X124580711Y-148499998D01*
X131109622Y-148499998D01*
X131129079Y-148685119D01*
X131129079Y-148685120D01*
X131186598Y-148862146D01*
X131279666Y-149023345D01*
X131279667Y-149023347D01*
X131283519Y-149027625D01*
X131404221Y-149161678D01*
X131554811Y-149271088D01*
X131724858Y-149346798D01*
X131906930Y-149385498D01*
X132093069Y-149385498D01*
X132093070Y-149385498D01*
X132275142Y-149346798D01*
X132445189Y-149271088D01*
X132595779Y-149161678D01*
X132720331Y-149023349D01*
X132813401Y-148862147D01*
X132870921Y-148685118D01*
X132890378Y-148499998D01*
X132870921Y-148314878D01*
X132813401Y-148137849D01*
X132800372Y-148115282D01*
X132720333Y-147976650D01*
X132720332Y-147976648D01*
X132675578Y-147926944D01*
X132595779Y-147838318D01*
X132445189Y-147728908D01*
X132402722Y-147710000D01*
X136821127Y-147710000D01*
X136840177Y-147915587D01*
X136840177Y-147915589D01*
X136840178Y-147915592D01*
X136896682Y-148114184D01*
X136896684Y-148114190D01*
X136988711Y-148299004D01*
X136988718Y-148299016D01*
X137113143Y-148463781D01*
X137265726Y-148602879D01*
X137329985Y-148642666D01*
X137441275Y-148711574D01*
X137441283Y-148711577D01*
X137534822Y-148747815D01*
X137616828Y-148799911D01*
X137672656Y-148879424D01*
X137693806Y-148974249D01*
X137677057Y-149069950D01*
X137624961Y-149151956D01*
X137545448Y-149207784D01*
X137534822Y-149212185D01*
X137441283Y-149248422D01*
X137441269Y-149248429D01*
X137265726Y-149357120D01*
X137113143Y-149496218D01*
X136988718Y-149660983D01*
X136988711Y-149660995D01*
X136896684Y-149845809D01*
X136896682Y-149845815D01*
X136896682Y-149845816D01*
X136894519Y-149853420D01*
X136840177Y-150044412D01*
X136821127Y-150250000D01*
X136840177Y-150455587D01*
X136840177Y-150455589D01*
X136840178Y-150455592D01*
X136896682Y-150654184D01*
X136896684Y-150654190D01*
X136988711Y-150839004D01*
X136988718Y-150839016D01*
X137113143Y-151003781D01*
X137265726Y-151142879D01*
X137344473Y-151191637D01*
X137441275Y-151251574D01*
X137633806Y-151326161D01*
X137735284Y-151345130D01*
X137836761Y-151364100D01*
X137836763Y-151364100D01*
X138043238Y-151364100D01*
X138083828Y-151356512D01*
X138246194Y-151326161D01*
X138438725Y-151251574D01*
X138614272Y-151142880D01*
X138766857Y-151003780D01*
X138891285Y-150839011D01*
X138936686Y-150747833D01*
X138987105Y-150646580D01*
X139046545Y-150569730D01*
X139130870Y-150521477D01*
X139227242Y-150509167D01*
X139320989Y-150534674D01*
X139397839Y-150594114D01*
X139432895Y-150646580D01*
X139528711Y-150839004D01*
X139528718Y-150839016D01*
X139653143Y-151003781D01*
X139805726Y-151142879D01*
X139884473Y-151191637D01*
X139981275Y-151251574D01*
X140173806Y-151326161D01*
X140275284Y-151345130D01*
X140376761Y-151364100D01*
X140376763Y-151364100D01*
X140583238Y-151364100D01*
X140623828Y-151356512D01*
X140786194Y-151326161D01*
X140978725Y-151251574D01*
X141154272Y-151142880D01*
X141306857Y-151003780D01*
X141431285Y-150839011D01*
X141476686Y-150747833D01*
X141527105Y-150646580D01*
X141586545Y-150569730D01*
X141670870Y-150521477D01*
X141767242Y-150509167D01*
X141860989Y-150534674D01*
X141937839Y-150594114D01*
X141972895Y-150646580D01*
X142068711Y-150839004D01*
X142068718Y-150839016D01*
X142193143Y-151003781D01*
X142345726Y-151142879D01*
X142424473Y-151191637D01*
X142521275Y-151251574D01*
X142713806Y-151326161D01*
X142815284Y-151345130D01*
X142916761Y-151364100D01*
X142916763Y-151364100D01*
X143123238Y-151364100D01*
X143163828Y-151356512D01*
X143326194Y-151326161D01*
X143518725Y-151251574D01*
X143694272Y-151142880D01*
X143846857Y-151003780D01*
X143971285Y-150839011D01*
X144016686Y-150747833D01*
X144067105Y-150646580D01*
X144126545Y-150569730D01*
X144210870Y-150521477D01*
X144307242Y-150509167D01*
X144400989Y-150534674D01*
X144477839Y-150594114D01*
X144512895Y-150646580D01*
X144608711Y-150839004D01*
X144608718Y-150839016D01*
X144733143Y-151003781D01*
X144885726Y-151142879D01*
X144964473Y-151191637D01*
X145061275Y-151251574D01*
X145253806Y-151326161D01*
X145355284Y-151345130D01*
X145456761Y-151364100D01*
X145456763Y-151364100D01*
X145663238Y-151364100D01*
X145703828Y-151356512D01*
X145866194Y-151326161D01*
X146058725Y-151251574D01*
X146234272Y-151142880D01*
X146386857Y-151003780D01*
X146511285Y-150839011D01*
X146556686Y-150747833D01*
X146607105Y-150646580D01*
X146666545Y-150569730D01*
X146750870Y-150521477D01*
X146847242Y-150509167D01*
X146940989Y-150534674D01*
X147017839Y-150594114D01*
X147052895Y-150646580D01*
X147148711Y-150839004D01*
X147148718Y-150839016D01*
X147273143Y-151003781D01*
X147425726Y-151142879D01*
X147504473Y-151191637D01*
X147601275Y-151251574D01*
X147793806Y-151326161D01*
X147895284Y-151345130D01*
X147996761Y-151364100D01*
X147996763Y-151364100D01*
X148203238Y-151364100D01*
X148243828Y-151356512D01*
X148406194Y-151326161D01*
X148598725Y-151251574D01*
X148774272Y-151142880D01*
X148926857Y-151003780D01*
X149051285Y-150839011D01*
X149091624Y-150758000D01*
X149104505Y-150732132D01*
X149163945Y-150655282D01*
X149248270Y-150607029D01*
X149344642Y-150594719D01*
X149438389Y-150620226D01*
X149515239Y-150679666D01*
X149563492Y-150763991D01*
X149576400Y-150843121D01*
X149576400Y-151133295D01*
X149588004Y-151191637D01*
X149632206Y-151257789D01*
X149632210Y-151257793D01*
X149698362Y-151301995D01*
X149756705Y-151313600D01*
X150214999Y-151313600D01*
X150215000Y-151313599D01*
X150215000Y-150529880D01*
X150233498Y-150561920D01*
X150328080Y-150656502D01*
X150443919Y-150723381D01*
X150573120Y-150758000D01*
X150706880Y-150758000D01*
X150836081Y-150723381D01*
X150951920Y-150656502D01*
X151046502Y-150561920D01*
X151065000Y-150529880D01*
X151065000Y-151313599D01*
X151065001Y-151313600D01*
X151523295Y-151313600D01*
X151581637Y-151301995D01*
X151647789Y-151257793D01*
X151647793Y-151257789D01*
X151702964Y-151175221D01*
X151771663Y-151106522D01*
X151861422Y-151069342D01*
X151958577Y-151069342D01*
X152048337Y-151106522D01*
X152117036Y-151175221D01*
X152172206Y-151257789D01*
X152172210Y-151257793D01*
X152238362Y-151301995D01*
X152296705Y-151313600D01*
X152754999Y-151313600D01*
X152755000Y-151313599D01*
X152755000Y-150529880D01*
X152773498Y-150561920D01*
X152868080Y-150656502D01*
X152983919Y-150723381D01*
X153113120Y-150758000D01*
X153246880Y-150758000D01*
X153376081Y-150723381D01*
X153491920Y-150656502D01*
X153586502Y-150561920D01*
X153605000Y-150529880D01*
X153605000Y-151313599D01*
X153605001Y-151313600D01*
X154063295Y-151313600D01*
X154121637Y-151301995D01*
X154187789Y-151257793D01*
X154187793Y-151257789D01*
X154231995Y-151191637D01*
X154243600Y-151133295D01*
X154243600Y-150843121D01*
X154262554Y-150747833D01*
X154316530Y-150667051D01*
X154397312Y-150613075D01*
X154492600Y-150594121D01*
X154587888Y-150613075D01*
X154668670Y-150667051D01*
X154715495Y-150732132D01*
X154768711Y-150839004D01*
X154768718Y-150839016D01*
X154893143Y-151003781D01*
X155045726Y-151142879D01*
X155124473Y-151191637D01*
X155221275Y-151251574D01*
X155413806Y-151326161D01*
X155515284Y-151345130D01*
X155616761Y-151364100D01*
X155616763Y-151364100D01*
X155823238Y-151364100D01*
X155863828Y-151356512D01*
X156026194Y-151326161D01*
X156218725Y-151251574D01*
X156394272Y-151142880D01*
X156546857Y-151003780D01*
X156671285Y-150839011D01*
X156763318Y-150654184D01*
X156819822Y-150455592D01*
X156838873Y-150250000D01*
X156819822Y-150044408D01*
X156763318Y-149845816D01*
X156762771Y-149844718D01*
X156671288Y-149660995D01*
X156671286Y-149660991D01*
X156671285Y-149660989D01*
X156671282Y-149660986D01*
X156671281Y-149660983D01*
X156546856Y-149496218D01*
X156394273Y-149357120D01*
X156218730Y-149248429D01*
X156218729Y-149248428D01*
X156218725Y-149248426D01*
X156125176Y-149212185D01*
X156043171Y-149160090D01*
X155987343Y-149080576D01*
X155966193Y-148985752D01*
X155982941Y-148890051D01*
X156035037Y-148808044D01*
X156114551Y-148752216D01*
X156125176Y-148747815D01*
X156218725Y-148711574D01*
X156394272Y-148602880D01*
X156546857Y-148463780D01*
X156671285Y-148299011D01*
X156763318Y-148114184D01*
X156819822Y-147915592D01*
X156838873Y-147710000D01*
X159681127Y-147710000D01*
X159700177Y-147915587D01*
X159700177Y-147915589D01*
X159700178Y-147915592D01*
X159756682Y-148114184D01*
X159756684Y-148114190D01*
X159848711Y-148299004D01*
X159848718Y-148299016D01*
X159973143Y-148463781D01*
X160125726Y-148602879D01*
X160189985Y-148642666D01*
X160301275Y-148711574D01*
X160301283Y-148711577D01*
X160394822Y-148747815D01*
X160476828Y-148799911D01*
X160532656Y-148879424D01*
X160553806Y-148974249D01*
X160537057Y-149069950D01*
X160484961Y-149151956D01*
X160405448Y-149207784D01*
X160394822Y-149212185D01*
X160301283Y-149248422D01*
X160301269Y-149248429D01*
X160125726Y-149357120D01*
X159973143Y-149496218D01*
X159848718Y-149660983D01*
X159848711Y-149660995D01*
X159756684Y-149845809D01*
X159756682Y-149845815D01*
X159756682Y-149845816D01*
X159754519Y-149853420D01*
X159700177Y-150044412D01*
X159681127Y-150250000D01*
X159700177Y-150455587D01*
X159700177Y-150455589D01*
X159700178Y-150455592D01*
X159756682Y-150654184D01*
X159756684Y-150654190D01*
X159848711Y-150839004D01*
X159848718Y-150839016D01*
X159973143Y-151003781D01*
X160125726Y-151142879D01*
X160204473Y-151191637D01*
X160301275Y-151251574D01*
X160493806Y-151326161D01*
X160595284Y-151345130D01*
X160696761Y-151364100D01*
X160696763Y-151364100D01*
X160903238Y-151364100D01*
X160943828Y-151356512D01*
X161106194Y-151326161D01*
X161298725Y-151251574D01*
X161474272Y-151142880D01*
X161626857Y-151003780D01*
X161751285Y-150839011D01*
X161796686Y-150747833D01*
X161847105Y-150646580D01*
X161906545Y-150569730D01*
X161990870Y-150521477D01*
X162087242Y-150509167D01*
X162180989Y-150534674D01*
X162257839Y-150594114D01*
X162292895Y-150646580D01*
X162388711Y-150839004D01*
X162388718Y-150839016D01*
X162513143Y-151003781D01*
X162665726Y-151142879D01*
X162744473Y-151191637D01*
X162841275Y-151251574D01*
X163033806Y-151326161D01*
X163135284Y-151345130D01*
X163236761Y-151364100D01*
X163236763Y-151364100D01*
X163443238Y-151364100D01*
X163483828Y-151356512D01*
X163646194Y-151326161D01*
X163838725Y-151251574D01*
X164014272Y-151142880D01*
X164166857Y-151003780D01*
X164291285Y-150839011D01*
X164336686Y-150747833D01*
X164387105Y-150646580D01*
X164446545Y-150569730D01*
X164530870Y-150521477D01*
X164627242Y-150509167D01*
X164720989Y-150534674D01*
X164797839Y-150594114D01*
X164832895Y-150646580D01*
X164928711Y-150839004D01*
X164928718Y-150839016D01*
X165053143Y-151003781D01*
X165205726Y-151142879D01*
X165284473Y-151191637D01*
X165381275Y-151251574D01*
X165573806Y-151326161D01*
X165675284Y-151345130D01*
X165776761Y-151364100D01*
X165776763Y-151364100D01*
X165983238Y-151364100D01*
X166023828Y-151356512D01*
X166186194Y-151326161D01*
X166378725Y-151251574D01*
X166554272Y-151142880D01*
X166706857Y-151003780D01*
X166831285Y-150839011D01*
X166876686Y-150747833D01*
X166927105Y-150646580D01*
X166986545Y-150569730D01*
X167070870Y-150521477D01*
X167167242Y-150509167D01*
X167260989Y-150534674D01*
X167337839Y-150594114D01*
X167372895Y-150646580D01*
X167468711Y-150839004D01*
X167468718Y-150839016D01*
X167593143Y-151003781D01*
X167745726Y-151142879D01*
X167824473Y-151191637D01*
X167921275Y-151251574D01*
X168113806Y-151326161D01*
X168215284Y-151345130D01*
X168316761Y-151364100D01*
X168316763Y-151364100D01*
X168523238Y-151364100D01*
X168563828Y-151356512D01*
X168726194Y-151326161D01*
X168918725Y-151251574D01*
X169094272Y-151142880D01*
X169246857Y-151003780D01*
X169371285Y-150839011D01*
X169416686Y-150747833D01*
X169467105Y-150646580D01*
X169526545Y-150569730D01*
X169610870Y-150521477D01*
X169707242Y-150509167D01*
X169800989Y-150534674D01*
X169877839Y-150594114D01*
X169912895Y-150646580D01*
X170008711Y-150839004D01*
X170008718Y-150839016D01*
X170133143Y-151003781D01*
X170285726Y-151142879D01*
X170364473Y-151191637D01*
X170461275Y-151251574D01*
X170653806Y-151326161D01*
X170755284Y-151345130D01*
X170856761Y-151364100D01*
X170856763Y-151364100D01*
X171063238Y-151364100D01*
X171103828Y-151356512D01*
X171266194Y-151326161D01*
X171458725Y-151251574D01*
X171634272Y-151142880D01*
X171786857Y-151003780D01*
X171911285Y-150839011D01*
X171956686Y-150747833D01*
X172007105Y-150646580D01*
X172066545Y-150569730D01*
X172150870Y-150521477D01*
X172247242Y-150509167D01*
X172340989Y-150534674D01*
X172417839Y-150594114D01*
X172452895Y-150646580D01*
X172548711Y-150839004D01*
X172548718Y-150839016D01*
X172673143Y-151003781D01*
X172825726Y-151142879D01*
X172904473Y-151191637D01*
X173001275Y-151251574D01*
X173193806Y-151326161D01*
X173295284Y-151345130D01*
X173396761Y-151364100D01*
X173396763Y-151364100D01*
X173603238Y-151364100D01*
X173643828Y-151356512D01*
X173806194Y-151326161D01*
X173998725Y-151251574D01*
X174174272Y-151142880D01*
X174326857Y-151003780D01*
X174451285Y-150839011D01*
X174543318Y-150654184D01*
X174599822Y-150455592D01*
X174618873Y-150250000D01*
X174599822Y-150044408D01*
X174543318Y-149845816D01*
X174542771Y-149844718D01*
X174451288Y-149660995D01*
X174451286Y-149660991D01*
X174451285Y-149660989D01*
X174451282Y-149660986D01*
X174451281Y-149660983D01*
X174326856Y-149496218D01*
X174174273Y-149357120D01*
X173998730Y-149248429D01*
X173998729Y-149248428D01*
X173998725Y-149248426D01*
X173806194Y-149173839D01*
X173806193Y-149173838D01*
X173806191Y-149173838D01*
X173603240Y-149135900D01*
X173603237Y-149135900D01*
X173396763Y-149135900D01*
X173396760Y-149135900D01*
X173193809Y-149173838D01*
X173193807Y-149173838D01*
X173001277Y-149248425D01*
X173001269Y-149248429D01*
X172825726Y-149357120D01*
X172673143Y-149496218D01*
X172548718Y-149660983D01*
X172548714Y-149660991D01*
X172452895Y-149853420D01*
X172393454Y-149930269D01*
X172309129Y-149978522D01*
X172212757Y-149990832D01*
X172119010Y-149965325D01*
X172042161Y-149905884D01*
X172007105Y-149853420D01*
X171956686Y-149752166D01*
X171911285Y-149660989D01*
X171911282Y-149660985D01*
X171911281Y-149660983D01*
X171786856Y-149496218D01*
X171634273Y-149357120D01*
X171458730Y-149248429D01*
X171458729Y-149248428D01*
X171458725Y-149248426D01*
X171365176Y-149212185D01*
X171283171Y-149160090D01*
X171227343Y-149080576D01*
X171206193Y-148985752D01*
X171222941Y-148890051D01*
X171275037Y-148808044D01*
X171354551Y-148752216D01*
X171365176Y-148747815D01*
X171458725Y-148711574D01*
X171634272Y-148602880D01*
X171786857Y-148463780D01*
X171911285Y-148299011D01*
X172003318Y-148114184D01*
X172059822Y-147915592D01*
X172078873Y-147710000D01*
X172059822Y-147504408D01*
X172003318Y-147305816D01*
X172002771Y-147304718D01*
X171911288Y-147120995D01*
X171911286Y-147120991D01*
X171911285Y-147120989D01*
X171911282Y-147120986D01*
X171911281Y-147120983D01*
X171786856Y-146956218D01*
X171634273Y-146817120D01*
X171458730Y-146708429D01*
X171458729Y-146708428D01*
X171458725Y-146708426D01*
X171266194Y-146633839D01*
X171266193Y-146633838D01*
X171266191Y-146633838D01*
X171063240Y-146595900D01*
X171063237Y-146595900D01*
X170856763Y-146595900D01*
X170856760Y-146595900D01*
X170653809Y-146633838D01*
X170653807Y-146633838D01*
X170461277Y-146708425D01*
X170461265Y-146708431D01*
X170456774Y-146711212D01*
X170452379Y-146712856D01*
X170450974Y-146713556D01*
X170450900Y-146713409D01*
X170365779Y-146745256D01*
X170268682Y-146741887D01*
X170180267Y-146701616D01*
X170113992Y-146630576D01*
X170108139Y-146619154D01*
X170108069Y-146619195D01*
X170099910Y-146605064D01*
X170099910Y-146605062D01*
X170050475Y-146519438D01*
X169980562Y-146449525D01*
X165877030Y-142345993D01*
X165823054Y-142265211D01*
X165804100Y-142169923D01*
X165804100Y-137129167D01*
X165804099Y-137129163D01*
X165800131Y-137114355D01*
X165800128Y-137114343D01*
X165786778Y-137064516D01*
X165786778Y-137064515D01*
X165778512Y-137033667D01*
X165778508Y-137033659D01*
X165775024Y-137027625D01*
X165729075Y-136948038D01*
X165659162Y-136878125D01*
X163948430Y-135167393D01*
X163894454Y-135086611D01*
X163875500Y-134991323D01*
X163875500Y-129814169D01*
X163871271Y-129798387D01*
X163871271Y-129798386D01*
X163861159Y-129760647D01*
X163849911Y-129718667D01*
X163800475Y-129633042D01*
X162051959Y-127884526D01*
X162051958Y-127884525D01*
X162051957Y-127884524D01*
X161966333Y-127835089D01*
X161918582Y-127822295D01*
X161918582Y-127822294D01*
X161918579Y-127822294D01*
X161870832Y-127809500D01*
X161870831Y-127809500D01*
X161499458Y-127809500D01*
X161404170Y-127790546D01*
X161347876Y-127758045D01*
X161277624Y-127704138D01*
X161277621Y-127704136D01*
X161143713Y-127648671D01*
X161143710Y-127648670D01*
X161143709Y-127648670D01*
X161000000Y-127629750D01*
X160856291Y-127648670D01*
X160856289Y-127648670D01*
X160856287Y-127648671D01*
X160856285Y-127648671D01*
X160722378Y-127704136D01*
X160722371Y-127704141D01*
X160607383Y-127792374D01*
X160607374Y-127792383D01*
X160519141Y-127907371D01*
X160519136Y-127907378D01*
X160463671Y-128041285D01*
X160463671Y-128041287D01*
X160463670Y-128041289D01*
X160463670Y-128041291D01*
X160444750Y-128185000D01*
X160463670Y-128328709D01*
X160463670Y-128328711D01*
X160463671Y-128328712D01*
X160463671Y-128328714D01*
X160519136Y-128462621D01*
X160519141Y-128462628D01*
X160607374Y-128577616D01*
X160607380Y-128577622D01*
X160665807Y-128622455D01*
X160729866Y-128695501D01*
X160761095Y-128787500D01*
X160754740Y-128884447D01*
X160711770Y-128971582D01*
X160665807Y-129017545D01*
X160607380Y-129062377D01*
X160607374Y-129062383D01*
X160519141Y-129177371D01*
X160519136Y-129177378D01*
X160463671Y-129311285D01*
X160463671Y-129311287D01*
X160463670Y-129311289D01*
X160463670Y-129311291D01*
X160444750Y-129455000D01*
X160463670Y-129598709D01*
X160463670Y-129598711D01*
X160463671Y-129598712D01*
X160463671Y-129598714D01*
X160519136Y-129732621D01*
X160519141Y-129732628D01*
X160607374Y-129847616D01*
X160607380Y-129847622D01*
X160665807Y-129892455D01*
X160729866Y-129965501D01*
X160761095Y-130057500D01*
X160754740Y-130154447D01*
X160711770Y-130241582D01*
X160665807Y-130287545D01*
X160607380Y-130332377D01*
X160607374Y-130332383D01*
X160519141Y-130447371D01*
X160519136Y-130447378D01*
X160463671Y-130581285D01*
X160463671Y-130581287D01*
X160463670Y-130581289D01*
X160463670Y-130581291D01*
X160444750Y-130725000D01*
X160463670Y-130868709D01*
X160463670Y-130868711D01*
X160463671Y-130868712D01*
X160463671Y-130868714D01*
X160519136Y-131002621D01*
X160519141Y-131002628D01*
X160607374Y-131117616D01*
X160607379Y-131117621D01*
X160663307Y-131160536D01*
X160727365Y-131233580D01*
X160758595Y-131325579D01*
X160752241Y-131422526D01*
X160709271Y-131509662D01*
X160663308Y-131555625D01*
X160602382Y-131602375D01*
X160602374Y-131602383D01*
X160514141Y-131717371D01*
X160514136Y-131717378D01*
X160458671Y-131851285D01*
X160458671Y-131851287D01*
X160458670Y-131851289D01*
X160458670Y-131851291D01*
X160439750Y-131995000D01*
X160458670Y-132138709D01*
X160458670Y-132138711D01*
X160458671Y-132138712D01*
X160458671Y-132138714D01*
X160514136Y-132272621D01*
X160514141Y-132272628D01*
X160602374Y-132387616D01*
X160602383Y-132387625D01*
X160717371Y-132475858D01*
X160717378Y-132475863D01*
X160851286Y-132531328D01*
X160851291Y-132531330D01*
X160995000Y-132550250D01*
X161138709Y-132531330D01*
X161240680Y-132489092D01*
X161335962Y-132470140D01*
X161431251Y-132489094D01*
X161512032Y-132543070D01*
X161512033Y-132543070D01*
X161701570Y-132732607D01*
X161755546Y-132813389D01*
X161774500Y-132908677D01*
X161774500Y-135858623D01*
X161800090Y-135954126D01*
X161828630Y-136003560D01*
X161849524Y-136039749D01*
X163551570Y-137741795D01*
X163605546Y-137822577D01*
X163624500Y-137917865D01*
X163624500Y-144491323D01*
X163605546Y-144586611D01*
X163551570Y-144667393D01*
X161699522Y-146519441D01*
X161641994Y-146619084D01*
X161577935Y-146692129D01*
X161490800Y-146735100D01*
X161393853Y-146741454D01*
X161309408Y-146712788D01*
X161309026Y-146713556D01*
X161303364Y-146710736D01*
X161301854Y-146710224D01*
X161299461Y-146708793D01*
X161298729Y-146708428D01*
X161298725Y-146708426D01*
X161106194Y-146633839D01*
X161106193Y-146633838D01*
X161106191Y-146633838D01*
X160903240Y-146595900D01*
X160903237Y-146595900D01*
X160696763Y-146595900D01*
X160696760Y-146595900D01*
X160493809Y-146633838D01*
X160493807Y-146633838D01*
X160301277Y-146708425D01*
X160301269Y-146708429D01*
X160125726Y-146817120D01*
X159973143Y-146956218D01*
X159848718Y-147120983D01*
X159848711Y-147120995D01*
X159756684Y-147305809D01*
X159756682Y-147305815D01*
X159756682Y-147305816D01*
X159707556Y-147478479D01*
X159700177Y-147504412D01*
X159681127Y-147710000D01*
X156838873Y-147710000D01*
X156819822Y-147504408D01*
X156763318Y-147305816D01*
X156762771Y-147304718D01*
X156671288Y-147120995D01*
X156671286Y-147120991D01*
X156671285Y-147120989D01*
X156671282Y-147120986D01*
X156671281Y-147120983D01*
X156546856Y-146956218D01*
X156394273Y-146817120D01*
X156218730Y-146708429D01*
X156218729Y-146708428D01*
X156218725Y-146708426D01*
X156026194Y-146633839D01*
X156026193Y-146633838D01*
X156026191Y-146633838D01*
X155823240Y-146595900D01*
X155823237Y-146595900D01*
X155616763Y-146595900D01*
X155616760Y-146595900D01*
X155413809Y-146633838D01*
X155413807Y-146633838D01*
X155221277Y-146708425D01*
X155221269Y-146708429D01*
X155045726Y-146817120D01*
X154893143Y-146956218D01*
X154768718Y-147120983D01*
X154768713Y-147120991D01*
X154715495Y-147227868D01*
X154656054Y-147304718D01*
X154571729Y-147352970D01*
X154475357Y-147365280D01*
X154381610Y-147339773D01*
X154304760Y-147280332D01*
X154256508Y-147196007D01*
X154243600Y-147116878D01*
X154243600Y-146826704D01*
X154231995Y-146768362D01*
X154187793Y-146702210D01*
X154187789Y-146702206D01*
X154121637Y-146658004D01*
X154063295Y-146646400D01*
X153605001Y-146646400D01*
X153605000Y-146646401D01*
X153605000Y-147430119D01*
X153586502Y-147398080D01*
X153491920Y-147303498D01*
X153376081Y-147236619D01*
X153246880Y-147202000D01*
X153113120Y-147202000D01*
X152983919Y-147236619D01*
X152868080Y-147303498D01*
X152773498Y-147398080D01*
X152755000Y-147430119D01*
X152755000Y-146646401D01*
X152754999Y-146646400D01*
X152296705Y-146646400D01*
X152238362Y-146658004D01*
X152172210Y-146702206D01*
X152172205Y-146702211D01*
X152117035Y-146784779D01*
X152048336Y-146853478D01*
X151958576Y-146890657D01*
X151861421Y-146890656D01*
X151771662Y-146853476D01*
X151702965Y-146784779D01*
X151647794Y-146702211D01*
X151647789Y-146702206D01*
X151581637Y-146658004D01*
X151523295Y-146646400D01*
X151065001Y-146646400D01*
X151065000Y-146646401D01*
X151065000Y-147430119D01*
X151046502Y-147398080D01*
X150951920Y-147303498D01*
X150836081Y-147236619D01*
X150706880Y-147202000D01*
X150573120Y-147202000D01*
X150443919Y-147236619D01*
X150328080Y-147303498D01*
X150233498Y-147398080D01*
X150215000Y-147430119D01*
X150215000Y-146646401D01*
X150214999Y-146646400D01*
X149756705Y-146646400D01*
X149698362Y-146658004D01*
X149632210Y-146702206D01*
X149632206Y-146702210D01*
X149588004Y-146768362D01*
X149576400Y-146826704D01*
X149576400Y-147116878D01*
X149557446Y-147212166D01*
X149503470Y-147292948D01*
X149422688Y-147346924D01*
X149327400Y-147365878D01*
X149232112Y-147346924D01*
X149151330Y-147292948D01*
X149104505Y-147227868D01*
X149051286Y-147120991D01*
X149051281Y-147120983D01*
X148926856Y-146956218D01*
X148774273Y-146817120D01*
X148598730Y-146708429D01*
X148598729Y-146708428D01*
X148598725Y-146708426D01*
X148406194Y-146633839D01*
X148406193Y-146633838D01*
X148406191Y-146633838D01*
X148203240Y-146595900D01*
X148203237Y-146595900D01*
X147996763Y-146595900D01*
X147996760Y-146595900D01*
X147793809Y-146633838D01*
X147793807Y-146633838D01*
X147601277Y-146708425D01*
X147601269Y-146708429D01*
X147425726Y-146817120D01*
X147273143Y-146956218D01*
X147148718Y-147120983D01*
X147148714Y-147120991D01*
X147052895Y-147313420D01*
X146993454Y-147390269D01*
X146909129Y-147438522D01*
X146812757Y-147450832D01*
X146719010Y-147425325D01*
X146642161Y-147365884D01*
X146607105Y-147313420D01*
X146556686Y-147212166D01*
X146511285Y-147120989D01*
X146511282Y-147120985D01*
X146511281Y-147120983D01*
X146386856Y-146956218D01*
X146247258Y-146828958D01*
X146189608Y-146750756D01*
X146166274Y-146656445D01*
X146180807Y-146560383D01*
X146230995Y-146477195D01*
X146238939Y-146468875D01*
X146884385Y-145823430D01*
X146965166Y-145769454D01*
X147060454Y-145750500D01*
X151065892Y-145750500D01*
X151193186Y-145716392D01*
X151307314Y-145650500D01*
X159400499Y-137557315D01*
X159402356Y-137554100D01*
X159466392Y-137443186D01*
X159489675Y-137356291D01*
X159500500Y-137315893D01*
X159500500Y-137184108D01*
X159500500Y-126560454D01*
X159519454Y-126465166D01*
X159573430Y-126384384D01*
X160134384Y-125823430D01*
X160215166Y-125769454D01*
X160310454Y-125750500D01*
X163470259Y-125750500D01*
X163565545Y-125769453D01*
X163606286Y-125786328D01*
X163606291Y-125786330D01*
X163750000Y-125805250D01*
X163893709Y-125786330D01*
X163893714Y-125786328D01*
X164027621Y-125730863D01*
X164027622Y-125730862D01*
X164027625Y-125730861D01*
X164142621Y-125642621D01*
X164230861Y-125527625D01*
X164286330Y-125393709D01*
X164305250Y-125250000D01*
X164286330Y-125106291D01*
X164286328Y-125106285D01*
X164230863Y-124972378D01*
X164230858Y-124972371D01*
X164142625Y-124857383D01*
X164142616Y-124857374D01*
X164027628Y-124769141D01*
X164027621Y-124769136D01*
X163893713Y-124713671D01*
X163893710Y-124713670D01*
X163893709Y-124713670D01*
X163750000Y-124694750D01*
X163749999Y-124694750D01*
X163606292Y-124713669D01*
X163606290Y-124713669D01*
X163565545Y-124730547D01*
X163470259Y-124749500D01*
X159934108Y-124749500D01*
X159806818Y-124783606D01*
X159806814Y-124783607D01*
X159806814Y-124783608D01*
X159692686Y-124849500D01*
X158692686Y-125849500D01*
X158692685Y-125849499D01*
X158599502Y-125942683D01*
X158599501Y-125942683D01*
X158533606Y-126056818D01*
X158499500Y-126184107D01*
X158499500Y-136939546D01*
X158480546Y-137034834D01*
X158426570Y-137115616D01*
X150865616Y-144676570D01*
X150784834Y-144730546D01*
X150689546Y-144749500D01*
X146684107Y-144749500D01*
X146556817Y-144783607D01*
X146556816Y-144783607D01*
X146556814Y-144783608D01*
X146442686Y-144849500D01*
X145252686Y-146039500D01*
X145252685Y-146039499D01*
X145159502Y-146132683D01*
X145159501Y-146132683D01*
X145093606Y-146246818D01*
X145059500Y-146374107D01*
X145059500Y-146570832D01*
X145040546Y-146666120D01*
X144986570Y-146746902D01*
X144941584Y-146782535D01*
X144885724Y-146817122D01*
X144733143Y-146956218D01*
X144608718Y-147120983D01*
X144608714Y-147120991D01*
X144512895Y-147313420D01*
X144453454Y-147390269D01*
X144369129Y-147438522D01*
X144272757Y-147450832D01*
X144179010Y-147425325D01*
X144102161Y-147365884D01*
X144067105Y-147313420D01*
X144016686Y-147212166D01*
X143971285Y-147120989D01*
X143971282Y-147120985D01*
X143971281Y-147120983D01*
X143846856Y-146956218D01*
X143694273Y-146817120D01*
X143518730Y-146708429D01*
X143518729Y-146708428D01*
X143518725Y-146708426D01*
X143326194Y-146633839D01*
X143326193Y-146633838D01*
X143326191Y-146633838D01*
X143123240Y-146595900D01*
X143123237Y-146595900D01*
X142916763Y-146595900D01*
X142916760Y-146595900D01*
X142713809Y-146633838D01*
X142713807Y-146633838D01*
X142521277Y-146708425D01*
X142521269Y-146708429D01*
X142345726Y-146817120D01*
X142193143Y-146956218D01*
X142068718Y-147120983D01*
X142068714Y-147120991D01*
X141972895Y-147313420D01*
X141913454Y-147390269D01*
X141829129Y-147438522D01*
X141732757Y-147450832D01*
X141639010Y-147425325D01*
X141562161Y-147365884D01*
X141527105Y-147313420D01*
X141476686Y-147212166D01*
X141431285Y-147120989D01*
X141431282Y-147120985D01*
X141431281Y-147120983D01*
X141306856Y-146956218D01*
X141154273Y-146817120D01*
X140978730Y-146708429D01*
X140978729Y-146708428D01*
X140978725Y-146708426D01*
X140786194Y-146633839D01*
X140786193Y-146633838D01*
X140786191Y-146633838D01*
X140583240Y-146595900D01*
X140583237Y-146595900D01*
X140376763Y-146595900D01*
X140376760Y-146595900D01*
X140173809Y-146633838D01*
X140173807Y-146633838D01*
X139981277Y-146708425D01*
X139981269Y-146708429D01*
X139805726Y-146817120D01*
X139653143Y-146956218D01*
X139528718Y-147120983D01*
X139528714Y-147120991D01*
X139432895Y-147313420D01*
X139373454Y-147390269D01*
X139289129Y-147438522D01*
X139192757Y-147450832D01*
X139099010Y-147425325D01*
X139022161Y-147365884D01*
X138987105Y-147313420D01*
X138936686Y-147212166D01*
X138891285Y-147120989D01*
X138891282Y-147120985D01*
X138891281Y-147120983D01*
X138766856Y-146956218D01*
X138614273Y-146817120D01*
X138438730Y-146708429D01*
X138438729Y-146708428D01*
X138438725Y-146708426D01*
X138246194Y-146633839D01*
X138246193Y-146633838D01*
X138246191Y-146633838D01*
X138043240Y-146595900D01*
X138043237Y-146595900D01*
X137836763Y-146595900D01*
X137836760Y-146595900D01*
X137633809Y-146633838D01*
X137633807Y-146633838D01*
X137441277Y-146708425D01*
X137441269Y-146708429D01*
X137265726Y-146817120D01*
X137113143Y-146956218D01*
X136988718Y-147120983D01*
X136988711Y-147120995D01*
X136896684Y-147305809D01*
X136896682Y-147305815D01*
X136896682Y-147305816D01*
X136847556Y-147478479D01*
X136840177Y-147504412D01*
X136821127Y-147710000D01*
X132402722Y-147710000D01*
X132350853Y-147686906D01*
X132275143Y-147653198D01*
X132275138Y-147653197D01*
X132093070Y-147614498D01*
X131906930Y-147614498D01*
X131724861Y-147653197D01*
X131724856Y-147653198D01*
X131554809Y-147728909D01*
X131404223Y-147838316D01*
X131279667Y-147976648D01*
X131279666Y-147976650D01*
X131186598Y-148137849D01*
X131129079Y-148314875D01*
X131129079Y-148314876D01*
X131109622Y-148499998D01*
X124580711Y-148499998D01*
X124566105Y-148493948D01*
X124566103Y-148493947D01*
X124566100Y-148493946D01*
X124566096Y-148493945D01*
X124566082Y-148493940D01*
X124331795Y-148431163D01*
X124331790Y-148431162D01*
X124091288Y-148399500D01*
X123848712Y-148399500D01*
X123608209Y-148431162D01*
X123608204Y-148431163D01*
X123373917Y-148493940D01*
X123373894Y-148493948D01*
X123149798Y-148586770D01*
X123149782Y-148586778D01*
X122939720Y-148708058D01*
X122939710Y-148708064D01*
X122747268Y-148855729D01*
X122747258Y-148855738D01*
X122575738Y-149027258D01*
X122575729Y-149027268D01*
X122428064Y-149219710D01*
X122428058Y-149219720D01*
X122306778Y-149429782D01*
X122306770Y-149429798D01*
X122213948Y-149653894D01*
X122213940Y-149653917D01*
X122151163Y-149888204D01*
X122151162Y-149888209D01*
X122119500Y-150128712D01*
X122119500Y-150371287D01*
X122151162Y-150611790D01*
X122151163Y-150611795D01*
X122213940Y-150846082D01*
X122213948Y-150846105D01*
X122306770Y-151070201D01*
X122306778Y-151070217D01*
X122428058Y-151280279D01*
X122428064Y-151280289D01*
X122575729Y-151472731D01*
X122575738Y-151472741D01*
X122747258Y-151644261D01*
X122747268Y-151644270D01*
X122868491Y-151737287D01*
X122915494Y-151773354D01*
X122939710Y-151791935D01*
X122939720Y-151791942D01*
X122996736Y-151824860D01*
X123069781Y-151888919D01*
X123112752Y-151976054D01*
X123119106Y-152073001D01*
X123087876Y-152165000D01*
X123023817Y-152238045D01*
X122936682Y-152281016D01*
X122872236Y-152289500D01*
X110749500Y-152289500D01*
X110654212Y-152270546D01*
X110573430Y-152216570D01*
X110519454Y-152135788D01*
X110500500Y-152040500D01*
X110500500Y-148497017D01*
X116694750Y-148497017D01*
X116713670Y-148640726D01*
X116713670Y-148640728D01*
X116713671Y-148640729D01*
X116713671Y-148640731D01*
X116769136Y-148774638D01*
X116769141Y-148774645D01*
X116857374Y-148889633D01*
X116857383Y-148889642D01*
X116972371Y-148977875D01*
X116972378Y-148977880D01*
X117092484Y-149027628D01*
X117106291Y-149033347D01*
X117250000Y-149052267D01*
X117393709Y-149033347D01*
X117393714Y-149033345D01*
X117527621Y-148977880D01*
X117527622Y-148977879D01*
X117527625Y-148977878D01*
X117642621Y-148889638D01*
X117730861Y-148774642D01*
X117730864Y-148774634D01*
X117739021Y-148760508D01*
X117740457Y-148761337D01*
X117783676Y-148696648D01*
X117864455Y-148642666D01*
X117959742Y-148623707D01*
X118055031Y-148642656D01*
X118135815Y-148696627D01*
X118189797Y-148777406D01*
X118206625Y-148840203D01*
X118213669Y-148893706D01*
X118213671Y-148893714D01*
X118269136Y-149027621D01*
X118269141Y-149027628D01*
X118357374Y-149142616D01*
X118357383Y-149142625D01*
X118472371Y-149230858D01*
X118472378Y-149230863D01*
X118592368Y-149280563D01*
X118606291Y-149286330D01*
X118750000Y-149305250D01*
X118893709Y-149286330D01*
X118893714Y-149286328D01*
X119027621Y-149230863D01*
X119027622Y-149230862D01*
X119027625Y-149230861D01*
X119124281Y-149156694D01*
X119142616Y-149142625D01*
X119142616Y-149142624D01*
X119142621Y-149142621D01*
X119230861Y-149027625D01*
X119231012Y-149027262D01*
X119286328Y-148893714D01*
X119286328Y-148893713D01*
X119286330Y-148893709D01*
X119303249Y-148765195D01*
X119334478Y-148673202D01*
X119374044Y-148621636D01*
X127371635Y-140624045D01*
X127452414Y-140570072D01*
X127515193Y-140553249D01*
X127643709Y-140536330D01*
X127643714Y-140536328D01*
X127777621Y-140480863D01*
X127777622Y-140480862D01*
X127777625Y-140480861D01*
X127892621Y-140392621D01*
X127980861Y-140277625D01*
X128036330Y-140143709D01*
X128055250Y-140000000D01*
X128036330Y-139856291D01*
X128010698Y-139794408D01*
X127980863Y-139722378D01*
X127980858Y-139722371D01*
X127892625Y-139607383D01*
X127892616Y-139607374D01*
X127777628Y-139519141D01*
X127777621Y-139519136D01*
X127643713Y-139463671D01*
X127643710Y-139463670D01*
X127643709Y-139463670D01*
X127500000Y-139444750D01*
X127499999Y-139444750D01*
X127422197Y-139454993D01*
X127325250Y-139448638D01*
X127238114Y-139405668D01*
X127174056Y-139332623D01*
X127142826Y-139240624D01*
X127149181Y-139143677D01*
X127192151Y-139056541D01*
X127213617Y-139032062D01*
X127871634Y-138374045D01*
X127952413Y-138320072D01*
X128015193Y-138303249D01*
X128143709Y-138286330D01*
X128143714Y-138286328D01*
X128277621Y-138230863D01*
X128277622Y-138230862D01*
X128277625Y-138230861D01*
X128392621Y-138142621D01*
X128480861Y-138027625D01*
X128526325Y-137917865D01*
X128536328Y-137893714D01*
X128536328Y-137893713D01*
X128536330Y-137893709D01*
X128555250Y-137750000D01*
X128536330Y-137606291D01*
X128516043Y-137557312D01*
X128480863Y-137472378D01*
X128480858Y-137472371D01*
X128392625Y-137357383D01*
X128392616Y-137357374D01*
X128277628Y-137269141D01*
X128277621Y-137269136D01*
X128143713Y-137213671D01*
X128143710Y-137213670D01*
X128143709Y-137213670D01*
X128000000Y-137194750D01*
X127856291Y-137213670D01*
X127856289Y-137213670D01*
X127856287Y-137213671D01*
X127856285Y-137213671D01*
X127722378Y-137269136D01*
X127722371Y-137269141D01*
X127607383Y-137357374D01*
X127607374Y-137357383D01*
X127519141Y-137472371D01*
X127519136Y-137472378D01*
X127463671Y-137606285D01*
X127463669Y-137606293D01*
X127446750Y-137734800D01*
X127415520Y-137826798D01*
X127375951Y-137878366D01*
X117797209Y-147457107D01*
X117772972Y-147478362D01*
X117378365Y-147872968D01*
X117297584Y-147926944D01*
X117234800Y-147943767D01*
X117106293Y-147960686D01*
X117106285Y-147960688D01*
X116972378Y-148016153D01*
X116972371Y-148016158D01*
X116857383Y-148104391D01*
X116857374Y-148104400D01*
X116769141Y-148219388D01*
X116769136Y-148219395D01*
X116713671Y-148353302D01*
X116713671Y-148353304D01*
X116713670Y-148353306D01*
X116713670Y-148353308D01*
X116694750Y-148497017D01*
X110500500Y-148497017D01*
X110500500Y-109684107D01*
X110999500Y-109684107D01*
X110999500Y-131065892D01*
X111033606Y-131193181D01*
X111033607Y-131193183D01*
X111033608Y-131193186D01*
X111099500Y-131307314D01*
X112179500Y-132387314D01*
X112179499Y-132387314D01*
X112272683Y-132480497D01*
X112272683Y-132480498D01*
X112272685Y-132480499D01*
X112272686Y-132480500D01*
X112386814Y-132546392D01*
X112429112Y-132557725D01*
X112464945Y-132567327D01*
X112552081Y-132610297D01*
X112616140Y-132683342D01*
X112647370Y-132775341D01*
X112649500Y-132807843D01*
X112649500Y-132954676D01*
X112664033Y-133027739D01*
X112719397Y-133110599D01*
X112719399Y-133110601D01*
X112802260Y-133165966D01*
X112875324Y-133180499D01*
X112875325Y-133180500D01*
X112875326Y-133180500D01*
X114624675Y-133180500D01*
X114624675Y-133180499D01*
X114697740Y-133165966D01*
X114780601Y-133110601D01*
X114835966Y-133027740D01*
X114850500Y-132954674D01*
X114850500Y-131205326D01*
X114835966Y-131132260D01*
X114823324Y-131113339D01*
X114780602Y-131049400D01*
X114780599Y-131049397D01*
X114710602Y-131002628D01*
X114697740Y-130994034D01*
X114697739Y-130994033D01*
X114624676Y-130979500D01*
X114624674Y-130979500D01*
X114390760Y-130979500D01*
X114295472Y-130960546D01*
X114214690Y-130906570D01*
X114160714Y-130825788D01*
X114141760Y-130730500D01*
X114160714Y-130635212D01*
X114214690Y-130554430D01*
X114259679Y-130518796D01*
X114307228Y-130489355D01*
X114416041Y-130421981D01*
X114495549Y-130349500D01*
X114566760Y-130284583D01*
X114566760Y-130284581D01*
X114566764Y-130284579D01*
X114689673Y-130121821D01*
X114780582Y-129939250D01*
X114828622Y-129770405D01*
X114836396Y-129743087D01*
X114836396Y-129743086D01*
X114836397Y-129743083D01*
X114855215Y-129540000D01*
X114836397Y-129336917D01*
X114780582Y-129140750D01*
X114762826Y-129105090D01*
X114689676Y-128958184D01*
X114689674Y-128958182D01*
X114689673Y-128958179D01*
X114566764Y-128795421D01*
X114566763Y-128795420D01*
X114566760Y-128795416D01*
X114416042Y-128658019D01*
X114242640Y-128550653D01*
X114242637Y-128550652D01*
X114117528Y-128502185D01*
X114035523Y-128450090D01*
X113979695Y-128370577D01*
X113958544Y-128275752D01*
X113975292Y-128180052D01*
X114027388Y-128098045D01*
X114106901Y-128042217D01*
X114117516Y-128037819D01*
X114242637Y-127989348D01*
X114416041Y-127881981D01*
X114495549Y-127809500D01*
X114566760Y-127744583D01*
X114566760Y-127744581D01*
X114566764Y-127744579D01*
X114689673Y-127581821D01*
X114780582Y-127399250D01*
X114836397Y-127203083D01*
X114855215Y-127000000D01*
X114836397Y-126796917D01*
X114833384Y-126786328D01*
X114792805Y-126643709D01*
X114780582Y-126600750D01*
X114744172Y-126527628D01*
X114689676Y-126418184D01*
X114689674Y-126418182D01*
X114689673Y-126418179D01*
X114566764Y-126255421D01*
X114566763Y-126255420D01*
X114566760Y-126255416D01*
X114416042Y-126118019D01*
X114242640Y-126010654D01*
X114242637Y-126010652D01*
X114052456Y-125936976D01*
X114052451Y-125936975D01*
X113851979Y-125899500D01*
X113851976Y-125899500D01*
X113648024Y-125899500D01*
X113648021Y-125899500D01*
X113447548Y-125936975D01*
X113447546Y-125936975D01*
X113447544Y-125936976D01*
X113257363Y-126010652D01*
X113257361Y-126010653D01*
X113257359Y-126010654D01*
X113083957Y-126118019D01*
X112933239Y-126255416D01*
X112810323Y-126418184D01*
X112719418Y-126600748D01*
X112719417Y-126600752D01*
X112663603Y-126796912D01*
X112663602Y-126796920D01*
X112644785Y-127000000D01*
X112663602Y-127203079D01*
X112663603Y-127203087D01*
X112719417Y-127399247D01*
X112719418Y-127399251D01*
X112810323Y-127581815D01*
X112810325Y-127581818D01*
X112810327Y-127581821D01*
X112902697Y-127704139D01*
X112933239Y-127744583D01*
X113083957Y-127881980D01*
X113257359Y-127989346D01*
X113257361Y-127989346D01*
X113257363Y-127989348D01*
X113382471Y-128037814D01*
X113464477Y-128089910D01*
X113520305Y-128169424D01*
X113541455Y-128264248D01*
X113524707Y-128359949D01*
X113472611Y-128441956D01*
X113393097Y-128497784D01*
X113382483Y-128502180D01*
X113331867Y-128521788D01*
X113257359Y-128550653D01*
X113083957Y-128658019D01*
X112933239Y-128795416D01*
X112810323Y-128958184D01*
X112719418Y-129140748D01*
X112719417Y-129140752D01*
X112663603Y-129336912D01*
X112663602Y-129336920D01*
X112644785Y-129540000D01*
X112663602Y-129743079D01*
X112663603Y-129743087D01*
X112719417Y-129939247D01*
X112719418Y-129939251D01*
X112810323Y-130121815D01*
X112810325Y-130121818D01*
X112810327Y-130121821D01*
X112866226Y-130195843D01*
X112933239Y-130284583D01*
X113083957Y-130421980D01*
X113240321Y-130518796D01*
X113311359Y-130585073D01*
X113351626Y-130673491D01*
X113354992Y-130770587D01*
X113320944Y-130861581D01*
X113254667Y-130932619D01*
X113166249Y-130972886D01*
X113109240Y-130979500D01*
X112875323Y-130979500D01*
X112802260Y-130994033D01*
X112719400Y-131049397D01*
X112719395Y-131049402D01*
X112702836Y-131074185D01*
X112634137Y-131142884D01*
X112544377Y-131180063D01*
X112447222Y-131180062D01*
X112357463Y-131142882D01*
X112319731Y-131111917D01*
X112073430Y-130865616D01*
X112019454Y-130784834D01*
X112000500Y-130689546D01*
X112000500Y-123010000D01*
X118694859Y-123010000D01*
X118715387Y-123257741D01*
X118715389Y-123257748D01*
X118776410Y-123498714D01*
X118776413Y-123498722D01*
X118876267Y-123726365D01*
X118878766Y-123730191D01*
X119419936Y-123189021D01*
X119430743Y-123243351D01*
X119491049Y-123388942D01*
X119578599Y-123519970D01*
X119690030Y-123631401D01*
X119821058Y-123718951D01*
X119966649Y-123779257D01*
X120020976Y-123790063D01*
X119483322Y-124327717D01*
X119483322Y-124327718D01*
X119595388Y-124388366D01*
X119595393Y-124388368D01*
X119830502Y-124469082D01*
X119830512Y-124469084D01*
X120075706Y-124510000D01*
X120324294Y-124510000D01*
X120569487Y-124469084D01*
X120569497Y-124469082D01*
X120804606Y-124388368D01*
X120804611Y-124388366D01*
X120916676Y-124327718D01*
X120379021Y-123790063D01*
X120433351Y-123779257D01*
X120578942Y-123718951D01*
X120709970Y-123631401D01*
X120821401Y-123519970D01*
X120908951Y-123388942D01*
X120969257Y-123243351D01*
X120980063Y-123189021D01*
X121521233Y-123730191D01*
X121523730Y-123726370D01*
X121523731Y-123726368D01*
X121623586Y-123498722D01*
X121623589Y-123498714D01*
X121684610Y-123257748D01*
X121684612Y-123257741D01*
X121705140Y-123010000D01*
X121684612Y-122762258D01*
X121684610Y-122762251D01*
X121623589Y-122521285D01*
X121623586Y-122521277D01*
X121523733Y-122293635D01*
X121523730Y-122293630D01*
X121521232Y-122289806D01*
X120980063Y-122830976D01*
X120969257Y-122776649D01*
X120908951Y-122631058D01*
X120821401Y-122500030D01*
X120709970Y-122388599D01*
X120578942Y-122301049D01*
X120433351Y-122240743D01*
X120379021Y-122229936D01*
X120916676Y-121692281D01*
X120804607Y-121631631D01*
X120569497Y-121550917D01*
X120569487Y-121550915D01*
X120324294Y-121510000D01*
X120075706Y-121510000D01*
X119830512Y-121550915D01*
X119830509Y-121550916D01*
X119595390Y-121631632D01*
X119595388Y-121631633D01*
X119483322Y-121692280D01*
X120020978Y-122229936D01*
X119966649Y-122240743D01*
X119821058Y-122301049D01*
X119690030Y-122388599D01*
X119578599Y-122500030D01*
X119491049Y-122631058D01*
X119430743Y-122776649D01*
X119419936Y-122830978D01*
X118878765Y-122289807D01*
X118876267Y-122293633D01*
X118876265Y-122293636D01*
X118776417Y-122521267D01*
X118776410Y-122521285D01*
X118715389Y-122762251D01*
X118715387Y-122762258D01*
X118694859Y-123010000D01*
X112000500Y-123010000D01*
X112000500Y-118310000D01*
X115694859Y-118310000D01*
X115715387Y-118557741D01*
X115715389Y-118557748D01*
X115776410Y-118798714D01*
X115776413Y-118798722D01*
X115876267Y-119026365D01*
X115878766Y-119030191D01*
X116419936Y-118489021D01*
X116430743Y-118543351D01*
X116491049Y-118688942D01*
X116578599Y-118819970D01*
X116690030Y-118931401D01*
X116821058Y-119018951D01*
X116966649Y-119079257D01*
X117020976Y-119090063D01*
X116483322Y-119627717D01*
X116483322Y-119627718D01*
X116595388Y-119688366D01*
X116595393Y-119688368D01*
X116830502Y-119769082D01*
X116830512Y-119769084D01*
X117075706Y-119810000D01*
X117324294Y-119810000D01*
X117569487Y-119769084D01*
X117569497Y-119769082D01*
X117804606Y-119688368D01*
X117804611Y-119688366D01*
X117916676Y-119627718D01*
X117379021Y-119090063D01*
X117433351Y-119079257D01*
X117578942Y-119018951D01*
X117709970Y-118931401D01*
X117821401Y-118819970D01*
X117908951Y-118688942D01*
X117969257Y-118543351D01*
X117980063Y-118489021D01*
X118521233Y-119030191D01*
X118523730Y-119026370D01*
X118523731Y-119026368D01*
X118623586Y-118798722D01*
X118623589Y-118798714D01*
X118684610Y-118557748D01*
X118684612Y-118557741D01*
X118705140Y-118310000D01*
X118684612Y-118062258D01*
X118684610Y-118062251D01*
X118623589Y-117821285D01*
X118623586Y-117821277D01*
X118523733Y-117593635D01*
X118523730Y-117593630D01*
X118521232Y-117589806D01*
X117980063Y-118130976D01*
X117969257Y-118076649D01*
X117908951Y-117931058D01*
X117821401Y-117800030D01*
X117709970Y-117688599D01*
X117578942Y-117601049D01*
X117433351Y-117540743D01*
X117379021Y-117529936D01*
X117916676Y-116992281D01*
X117903819Y-116985323D01*
X121649500Y-116985323D01*
X121649500Y-119634676D01*
X121664033Y-119707739D01*
X121719397Y-119790599D01*
X121719399Y-119790601D01*
X121802260Y-119845966D01*
X121875324Y-119860499D01*
X121875325Y-119860500D01*
X121875326Y-119860500D01*
X124524675Y-119860500D01*
X124524675Y-119860499D01*
X124597740Y-119845966D01*
X124680601Y-119790601D01*
X124735966Y-119707740D01*
X124750500Y-119634674D01*
X124750500Y-116985326D01*
X124735966Y-116912260D01*
X124694978Y-116850916D01*
X124680602Y-116829400D01*
X124680599Y-116829397D01*
X124625607Y-116792653D01*
X124597740Y-116774034D01*
X124597739Y-116774033D01*
X124524676Y-116759500D01*
X124524674Y-116759500D01*
X121875326Y-116759500D01*
X121875323Y-116759500D01*
X121802260Y-116774033D01*
X121719400Y-116829397D01*
X121719397Y-116829400D01*
X121664033Y-116912260D01*
X121649500Y-116985323D01*
X117903819Y-116985323D01*
X117804607Y-116931631D01*
X117569497Y-116850917D01*
X117569487Y-116850915D01*
X117324294Y-116810000D01*
X117075706Y-116810000D01*
X116830512Y-116850915D01*
X116830509Y-116850916D01*
X116595390Y-116931632D01*
X116595388Y-116931633D01*
X116483322Y-116992280D01*
X117020978Y-117529936D01*
X116966649Y-117540743D01*
X116821058Y-117601049D01*
X116690030Y-117688599D01*
X116578599Y-117800030D01*
X116491049Y-117931058D01*
X116430743Y-118076649D01*
X116419936Y-118130978D01*
X115878765Y-117589807D01*
X115876267Y-117593633D01*
X115876265Y-117593636D01*
X115776417Y-117821267D01*
X115776410Y-117821285D01*
X115715389Y-118062251D01*
X115715387Y-118062258D01*
X115694859Y-118310000D01*
X112000500Y-118310000D01*
X112000500Y-111402535D01*
X112019454Y-111307247D01*
X112073430Y-111226465D01*
X112154212Y-111172489D01*
X112249500Y-111153535D01*
X112344788Y-111172489D01*
X112425570Y-111226465D01*
X112479546Y-111307247D01*
X112479546Y-111307248D01*
X112486422Y-111323848D01*
X112486426Y-111323856D01*
X112569464Y-111448132D01*
X112675162Y-111553830D01*
X112799438Y-111636868D01*
X112799443Y-111636871D01*
X112937529Y-111694068D01*
X113084133Y-111723229D01*
X113127565Y-111723229D01*
X113131424Y-111719369D01*
X113146520Y-111643481D01*
X113200496Y-111562699D01*
X113281278Y-111508723D01*
X113312118Y-111498254D01*
X113365755Y-111483883D01*
X113388970Y-111477663D01*
X113389510Y-111479680D01*
X113463674Y-111464929D01*
X113641458Y-111464929D01*
X113715621Y-111479680D01*
X113716162Y-111477663D01*
X113739377Y-111483883D01*
X113793010Y-111498253D01*
X113880145Y-111541222D01*
X113944205Y-111614266D01*
X113975435Y-111706265D01*
X113976475Y-111722137D01*
X113977567Y-111723229D01*
X114020999Y-111723229D01*
X114167602Y-111694068D01*
X114305688Y-111636871D01*
X114305693Y-111636868D01*
X114429969Y-111553830D01*
X114535667Y-111448132D01*
X114574891Y-111389429D01*
X114509629Y-111267330D01*
X114481427Y-111174359D01*
X114488712Y-111085507D01*
X114497742Y-111051809D01*
X114501566Y-111037536D01*
X114501566Y-110891322D01*
X114501565Y-110891320D01*
X114488712Y-110843349D01*
X114482358Y-110746402D01*
X114509630Y-110661526D01*
X114574892Y-110539429D01*
X114535667Y-110480725D01*
X114429969Y-110375027D01*
X114305693Y-110291989D01*
X114305688Y-110291986D01*
X114167602Y-110234789D01*
X114020999Y-110205629D01*
X113977567Y-110205629D01*
X113973706Y-110209489D01*
X113958612Y-110285376D01*
X113904636Y-110366158D01*
X113823854Y-110420134D01*
X113793013Y-110430603D01*
X113731928Y-110446971D01*
X113731926Y-110446971D01*
X113716165Y-110451195D01*
X113715624Y-110449177D01*
X113641458Y-110463929D01*
X113463674Y-110463929D01*
X113389507Y-110449177D01*
X113388967Y-110451195D01*
X113373205Y-110446971D01*
X113373204Y-110446971D01*
X113312119Y-110430603D01*
X113224985Y-110387633D01*
X113160926Y-110314588D01*
X113129696Y-110222589D01*
X113128656Y-110206720D01*
X113127565Y-110205629D01*
X113084133Y-110205629D01*
X112937529Y-110234789D01*
X112799443Y-110291986D01*
X112799438Y-110291989D01*
X112675162Y-110375027D01*
X112569464Y-110480725D01*
X112486426Y-110605001D01*
X112486422Y-110605008D01*
X112479545Y-110621612D01*
X112425568Y-110702393D01*
X112344786Y-110756369D01*
X112249498Y-110775322D01*
X112154210Y-110756367D01*
X112073429Y-110702390D01*
X112019453Y-110621608D01*
X112000500Y-110526322D01*
X112000500Y-110060454D01*
X112019454Y-109965166D01*
X112073430Y-109884384D01*
X112384384Y-109573430D01*
X112465166Y-109519454D01*
X112560454Y-109500500D01*
X114815892Y-109500500D01*
X114943186Y-109466392D01*
X115057314Y-109400500D01*
X115284862Y-109172951D01*
X115365642Y-109118975D01*
X115460930Y-109100021D01*
X115528410Y-109113443D01*
X115529298Y-109110130D01*
X115545061Y-109114353D01*
X115545062Y-109114354D01*
X115592813Y-109127149D01*
X115640564Y-109139944D01*
X115640565Y-109139944D01*
X115817571Y-109139944D01*
X115912859Y-109158898D01*
X115993641Y-109212874D01*
X116047617Y-109293656D01*
X116066571Y-109388944D01*
X116052527Y-109459546D01*
X116055236Y-109460272D01*
X116051013Y-109476032D01*
X116032791Y-109614444D01*
X116051012Y-109752855D01*
X116110682Y-109896911D01*
X116108265Y-109897911D01*
X116131713Y-109966989D01*
X116125358Y-110063936D01*
X116082386Y-110151071D01*
X116009340Y-110215128D01*
X115977708Y-110228842D01*
X115978233Y-110230108D01*
X115828843Y-110291986D01*
X115828838Y-110291989D01*
X115704562Y-110375027D01*
X115598864Y-110480725D01*
X115559639Y-110539429D01*
X115624902Y-110661527D01*
X115653104Y-110754499D01*
X115645820Y-110843345D01*
X115632966Y-110891320D01*
X115632966Y-111037541D01*
X115645819Y-111085511D01*
X115652172Y-111182458D01*
X115624902Y-111267330D01*
X115559639Y-111389428D01*
X115598864Y-111448132D01*
X115704562Y-111553830D01*
X115828838Y-111636868D01*
X115828843Y-111636871D01*
X115966929Y-111694068D01*
X116113533Y-111723229D01*
X116512565Y-111723229D01*
X116512566Y-111723228D01*
X116512566Y-111713929D01*
X116531520Y-111618641D01*
X116585496Y-111537859D01*
X116666278Y-111483883D01*
X116761566Y-111464929D01*
X117113566Y-111464929D01*
X117208854Y-111483883D01*
X117289636Y-111537859D01*
X117343612Y-111618641D01*
X117362566Y-111713929D01*
X117362566Y-111723228D01*
X117362567Y-111723229D01*
X117761599Y-111723229D01*
X117908202Y-111694068D01*
X118046288Y-111636871D01*
X118046293Y-111636868D01*
X118170569Y-111553830D01*
X118276267Y-111448132D01*
X118315491Y-111389429D01*
X118250229Y-111267330D01*
X118222027Y-111174359D01*
X118229312Y-111085507D01*
X118238342Y-111051809D01*
X118242166Y-111037536D01*
X118242166Y-110891322D01*
X118242165Y-110891320D01*
X118229312Y-110843349D01*
X118222958Y-110746402D01*
X118250230Y-110661526D01*
X118315492Y-110539429D01*
X118276267Y-110480725D01*
X118170567Y-110375025D01*
X118107381Y-110332806D01*
X118038681Y-110264107D01*
X118001502Y-110174348D01*
X118001501Y-110165353D01*
X117626662Y-109790514D01*
X117572686Y-109709732D01*
X117553732Y-109614444D01*
X117561772Y-109574026D01*
X117714366Y-109574026D01*
X117714366Y-109654864D01*
X117745301Y-109729549D01*
X117802462Y-109786710D01*
X117877147Y-109817645D01*
X117957985Y-109817645D01*
X118032670Y-109786710D01*
X118089831Y-109729549D01*
X118120766Y-109654864D01*
X118120766Y-109574026D01*
X118089831Y-109499341D01*
X118032670Y-109442180D01*
X117957985Y-109411245D01*
X117877147Y-109411245D01*
X117802462Y-109442180D01*
X117745301Y-109499341D01*
X117714366Y-109574026D01*
X117561772Y-109574026D01*
X117572686Y-109519156D01*
X117626659Y-109438378D01*
X117651630Y-109413406D01*
X117732410Y-109359428D01*
X117827698Y-109340472D01*
X117860201Y-109342602D01*
X117894514Y-109347120D01*
X117917564Y-109350155D01*
X117917565Y-109350155D01*
X117917565Y-109350154D01*
X117917566Y-109350155D01*
X117974925Y-109342603D01*
X118071867Y-109348955D01*
X118159004Y-109391924D01*
X118183496Y-109413402D01*
X118444452Y-109674358D01*
X118452340Y-109614444D01*
X118434119Y-109476034D01*
X118374450Y-109331980D01*
X118377846Y-109330573D01*
X118356131Y-109266608D01*
X118362483Y-109169661D01*
X118405449Y-109082526D01*
X118424807Y-109057300D01*
X118483319Y-108916037D01*
X118503277Y-108764444D01*
X118483319Y-108612851D01*
X118483317Y-108612847D01*
X118483317Y-108612844D01*
X118424808Y-108471590D01*
X118420396Y-108463948D01*
X118389165Y-108371950D01*
X118395517Y-108275003D01*
X118420396Y-108214942D01*
X118424804Y-108207306D01*
X118424804Y-108207305D01*
X118424807Y-108207302D01*
X118483319Y-108066039D01*
X118503277Y-107914446D01*
X118485766Y-107781442D01*
X118492120Y-107684501D01*
X118535090Y-107597365D01*
X118608134Y-107533306D01*
X118700133Y-107502075D01*
X118732636Y-107499945D01*
X127229372Y-107499945D01*
X127324660Y-107518899D01*
X127405442Y-107572875D01*
X127926570Y-108094003D01*
X127980546Y-108174785D01*
X127999500Y-108270073D01*
X127999500Y-110790553D01*
X128025089Y-110886053D01*
X128025091Y-110886056D01*
X128059299Y-110945307D01*
X128059304Y-110945313D01*
X128074525Y-110971678D01*
X128074527Y-110971680D01*
X128357732Y-111254886D01*
X128411708Y-111335667D01*
X128430662Y-111430955D01*
X128411708Y-111526244D01*
X128366543Y-111593839D01*
X128367314Y-111594430D01*
X128358300Y-111606176D01*
X128357739Y-111607017D01*
X128357380Y-111607375D01*
X128269141Y-111722371D01*
X128269136Y-111722378D01*
X128213671Y-111856285D01*
X128213671Y-111856287D01*
X128213670Y-111856289D01*
X128213670Y-111856291D01*
X128194750Y-112000000D01*
X128208691Y-112105892D01*
X128213671Y-112143713D01*
X128230545Y-112184449D01*
X128249500Y-112279737D01*
X128249500Y-118690892D01*
X128283606Y-118818181D01*
X128283607Y-118818183D01*
X128283608Y-118818186D01*
X128349500Y-118932314D01*
X131142686Y-121725500D01*
X131256814Y-121791392D01*
X131384108Y-121825500D01*
X131515893Y-121825500D01*
X153514546Y-121825500D01*
X153609834Y-121844454D01*
X153690616Y-121898430D01*
X155426570Y-123634384D01*
X155480546Y-123715166D01*
X155499500Y-123810454D01*
X155499500Y-125970258D01*
X155480548Y-126065542D01*
X155463669Y-126106291D01*
X155463669Y-126106292D01*
X155444750Y-126249999D01*
X155444750Y-126250000D01*
X155463670Y-126393709D01*
X155463670Y-126393711D01*
X155463671Y-126393712D01*
X155463671Y-126393714D01*
X155519136Y-126527621D01*
X155519141Y-126527628D01*
X155607374Y-126642616D01*
X155607383Y-126642625D01*
X155722371Y-126730858D01*
X155722378Y-126730863D01*
X155835265Y-126777621D01*
X155856291Y-126786330D01*
X156000000Y-126805250D01*
X156143709Y-126786330D01*
X156143714Y-126786328D01*
X156277621Y-126730863D01*
X156277622Y-126730862D01*
X156277625Y-126730861D01*
X156392621Y-126642621D01*
X156480861Y-126527625D01*
X156492304Y-126500000D01*
X156536328Y-126393714D01*
X156536328Y-126393713D01*
X156536330Y-126393709D01*
X156555250Y-126250000D01*
X156536330Y-126106291D01*
X156519452Y-126065542D01*
X156500500Y-125970258D01*
X156500500Y-123434107D01*
X156466393Y-123306818D01*
X156466392Y-123306814D01*
X156400500Y-123192686D01*
X156400499Y-123192685D01*
X156400498Y-123192683D01*
X156307314Y-123099499D01*
X156307314Y-123099500D01*
X154758384Y-121550570D01*
X154704408Y-121469788D01*
X154685454Y-121374500D01*
X154704408Y-121279212D01*
X154758384Y-121198430D01*
X154839166Y-121144454D01*
X154934454Y-121125500D01*
X160580062Y-121125500D01*
X160675350Y-121144454D01*
X160756132Y-121198430D01*
X160777104Y-121222346D01*
X160777383Y-121222625D01*
X160892371Y-121310858D01*
X160892378Y-121310863D01*
X161026286Y-121366328D01*
X161026291Y-121366330D01*
X161170000Y-121385250D01*
X161313709Y-121366330D01*
X161313714Y-121366328D01*
X161447621Y-121310863D01*
X161447622Y-121310862D01*
X161447625Y-121310861D01*
X161562621Y-121222621D01*
X161650861Y-121107625D01*
X161706330Y-120973709D01*
X161725250Y-120830000D01*
X161706330Y-120686291D01*
X161706328Y-120686285D01*
X161650863Y-120552378D01*
X161650858Y-120552371D01*
X161562625Y-120437383D01*
X161562616Y-120437374D01*
X161447628Y-120349141D01*
X161447621Y-120349136D01*
X161313714Y-120293671D01*
X161313706Y-120293669D01*
X161302051Y-120292135D01*
X161210053Y-120260904D01*
X161198868Y-120251094D01*
X161149892Y-120275248D01*
X161117947Y-120281602D01*
X161026293Y-120293669D01*
X161026285Y-120293671D01*
X160877297Y-120355384D01*
X160875694Y-120351516D01*
X160814075Y-120372390D01*
X160781729Y-120374500D01*
X160429250Y-120374500D01*
X160333962Y-120355546D01*
X160253180Y-120301570D01*
X160199204Y-120220788D01*
X160183343Y-120141054D01*
X160182380Y-120141181D01*
X160180443Y-120126473D01*
X160180250Y-120125500D01*
X160180250Y-120125002D01*
X160177625Y-120105062D01*
X160161330Y-119981291D01*
X160146209Y-119944787D01*
X160127256Y-119849500D01*
X160146210Y-119754212D01*
X160200186Y-119673431D01*
X160280968Y-119619454D01*
X160376256Y-119600500D01*
X160717962Y-119600500D01*
X160813250Y-119619454D01*
X160869544Y-119651956D01*
X160972370Y-119730858D01*
X160972378Y-119730863D01*
X161106285Y-119786328D01*
X161106287Y-119786328D01*
X161106291Y-119786330D01*
X161117943Y-119787864D01*
X161209940Y-119819091D01*
X161221130Y-119828904D01*
X161270114Y-119804749D01*
X161302041Y-119798398D01*
X161393709Y-119786330D01*
X161393714Y-119786328D01*
X161527621Y-119730863D01*
X161527622Y-119730862D01*
X161527625Y-119730861D01*
X161620809Y-119659357D01*
X161642616Y-119642625D01*
X161642616Y-119642624D01*
X161642621Y-119642621D01*
X161648718Y-119634676D01*
X161674942Y-119600500D01*
X161730861Y-119527625D01*
X161732156Y-119524500D01*
X161786328Y-119393714D01*
X161786328Y-119393713D01*
X161786330Y-119393709D01*
X161805250Y-119250000D01*
X161786330Y-119106291D01*
X161786328Y-119106285D01*
X161730863Y-118972378D01*
X161730858Y-118972371D01*
X161642625Y-118857383D01*
X161642616Y-118857374D01*
X161527628Y-118769141D01*
X161527621Y-118769136D01*
X161393713Y-118713671D01*
X161393710Y-118713670D01*
X161393709Y-118713670D01*
X161250000Y-118694750D01*
X161106291Y-118713670D01*
X161106289Y-118713670D01*
X161106287Y-118713671D01*
X161106285Y-118713671D01*
X160972378Y-118769136D01*
X160972370Y-118769141D01*
X160869544Y-118848044D01*
X160782409Y-118891015D01*
X160717962Y-118899500D01*
X160033108Y-118899500D01*
X159937820Y-118880546D01*
X159857038Y-118826570D01*
X159803062Y-118745788D01*
X159784108Y-118650500D01*
X159803062Y-118555212D01*
X159857038Y-118474430D01*
X160531438Y-117800030D01*
X161280950Y-117050517D01*
X161361729Y-116996544D01*
X161457017Y-116977590D01*
X161552305Y-116996544D01*
X161633087Y-117050520D01*
X164801570Y-120219003D01*
X164855546Y-120299785D01*
X164874500Y-120395073D01*
X164874500Y-126000542D01*
X164855546Y-126095830D01*
X164823045Y-126152124D01*
X164769138Y-126222375D01*
X164769136Y-126222378D01*
X164713671Y-126356285D01*
X164713671Y-126356287D01*
X164713670Y-126356289D01*
X164713670Y-126356291D01*
X164694750Y-126500000D01*
X164713670Y-126643709D01*
X164713670Y-126643711D01*
X164713671Y-126643712D01*
X164713671Y-126643714D01*
X164769136Y-126777621D01*
X164769141Y-126777628D01*
X164857374Y-126892616D01*
X164857383Y-126892625D01*
X164972371Y-126980858D01*
X164972378Y-126980863D01*
X165106286Y-127036328D01*
X165106291Y-127036330D01*
X165250000Y-127055250D01*
X165250003Y-127055249D01*
X165252803Y-127055618D01*
X165344802Y-127086848D01*
X165417847Y-127150906D01*
X165460818Y-127238042D01*
X165467172Y-127334989D01*
X165465109Y-127345362D01*
X165463670Y-127356290D01*
X165463670Y-127356291D01*
X165444750Y-127500000D01*
X165463670Y-127643709D01*
X165463670Y-127643711D01*
X165463671Y-127643712D01*
X165463671Y-127643714D01*
X165519136Y-127777621D01*
X165519141Y-127777628D01*
X165607374Y-127892616D01*
X165607383Y-127892625D01*
X165722371Y-127980858D01*
X165722378Y-127980863D01*
X165856286Y-128036328D01*
X165856291Y-128036330D01*
X166000000Y-128055250D01*
X166143709Y-128036330D01*
X166143714Y-128036328D01*
X166277621Y-127980863D01*
X166277622Y-127980862D01*
X166277625Y-127980861D01*
X166392621Y-127892621D01*
X166480861Y-127777625D01*
X166520454Y-127682037D01*
X166574429Y-127601257D01*
X166655210Y-127547280D01*
X166750498Y-127528325D01*
X166845786Y-127547278D01*
X166926568Y-127601254D01*
X166980545Y-127682035D01*
X166999500Y-127777323D01*
X166999500Y-133815892D01*
X167033606Y-133943181D01*
X167033607Y-133943183D01*
X167033608Y-133943186D01*
X167099500Y-134057314D01*
X168891685Y-135849499D01*
X169948287Y-136906101D01*
X170002263Y-136986883D01*
X170002264Y-136986884D01*
X170019139Y-137027624D01*
X170019141Y-137027628D01*
X170107374Y-137142616D01*
X170107383Y-137142625D01*
X170222371Y-137230858D01*
X170222378Y-137230863D01*
X170314792Y-137269141D01*
X170356291Y-137286330D01*
X170482667Y-137302968D01*
X170574663Y-137334197D01*
X170647708Y-137398256D01*
X170690678Y-137485392D01*
X170697031Y-137517334D01*
X170713669Y-137643705D01*
X170713671Y-137643714D01*
X170769136Y-137777621D01*
X170769141Y-137777628D01*
X170857374Y-137892616D01*
X170857383Y-137892625D01*
X170972371Y-137980858D01*
X170972378Y-137980863D01*
X171085265Y-138027621D01*
X171106291Y-138036330D01*
X171250000Y-138055250D01*
X171393709Y-138036330D01*
X171393714Y-138036328D01*
X171527621Y-137980863D01*
X171527622Y-137980862D01*
X171527625Y-137980861D01*
X171642621Y-137892621D01*
X171730861Y-137777625D01*
X171742304Y-137750000D01*
X171786328Y-137643714D01*
X171786328Y-137643713D01*
X171786330Y-137643709D01*
X171805250Y-137500000D01*
X171786330Y-137356291D01*
X171769597Y-137315893D01*
X171769452Y-137315542D01*
X171750500Y-137220258D01*
X171750500Y-136184107D01*
X171716393Y-136056818D01*
X171716392Y-136056814D01*
X171650500Y-135942686D01*
X171650499Y-135942685D01*
X171650498Y-135942683D01*
X171557314Y-135849499D01*
X171557314Y-135849500D01*
X168773430Y-133065616D01*
X168719454Y-132984834D01*
X168700500Y-132889546D01*
X168700500Y-129374996D01*
X169754508Y-129374996D01*
X169754508Y-129375003D01*
X169774352Y-129500297D01*
X169774355Y-129500306D01*
X169824496Y-129598714D01*
X169831950Y-129613342D01*
X169921658Y-129703050D01*
X170034696Y-129760646D01*
X170034701Y-129760646D01*
X170034702Y-129760647D01*
X170159997Y-129780492D01*
X170160000Y-129780492D01*
X170160001Y-129780492D01*
X170206760Y-129773086D01*
X170230840Y-129769272D01*
X170327920Y-129773086D01*
X170416151Y-129813760D01*
X170482100Y-129885103D01*
X170515727Y-129976253D01*
X170515728Y-130054156D01*
X170504508Y-130124999D01*
X170515728Y-130195843D01*
X170511913Y-130292923D01*
X170471237Y-130381153D01*
X170399894Y-130447101D01*
X170308743Y-130480728D01*
X170230843Y-130480728D01*
X170160000Y-130469508D01*
X170159997Y-130469508D01*
X170034702Y-130489352D01*
X170034693Y-130489355D01*
X169921660Y-130546948D01*
X169831948Y-130636660D01*
X169774355Y-130749693D01*
X169774352Y-130749702D01*
X169754508Y-130874996D01*
X169754508Y-130875003D01*
X169774352Y-131000297D01*
X169774355Y-131000306D01*
X169831223Y-131111917D01*
X169831950Y-131113342D01*
X169921658Y-131203050D01*
X170034696Y-131260646D01*
X170034701Y-131260646D01*
X170034702Y-131260647D01*
X170159997Y-131280492D01*
X170160000Y-131280492D01*
X170160001Y-131280492D01*
X170206760Y-131273086D01*
X170230840Y-131269272D01*
X170327920Y-131273086D01*
X170416151Y-131313760D01*
X170482100Y-131385103D01*
X170515727Y-131476253D01*
X170515728Y-131554156D01*
X170504508Y-131625000D01*
X170504508Y-131625003D01*
X170524352Y-131750297D01*
X170524355Y-131750306D01*
X170575809Y-131851291D01*
X170581950Y-131863342D01*
X170671658Y-131953050D01*
X170784696Y-132010646D01*
X170784701Y-132010646D01*
X170784702Y-132010647D01*
X170909997Y-132030492D01*
X170910000Y-132030492D01*
X170910003Y-132030492D01*
X171011973Y-132014341D01*
X171035304Y-132010646D01*
X171148342Y-131953050D01*
X171238050Y-131863342D01*
X171295646Y-131750304D01*
X171304480Y-131694526D01*
X171315492Y-131625003D01*
X171315492Y-131624998D01*
X171304272Y-131554159D01*
X171308086Y-131457079D01*
X171348760Y-131368848D01*
X171420103Y-131302899D01*
X171511253Y-131269272D01*
X171589159Y-131269272D01*
X171659998Y-131280492D01*
X171660000Y-131280492D01*
X171660001Y-131280492D01*
X171706760Y-131273086D01*
X171730840Y-131269272D01*
X171827920Y-131273086D01*
X171916151Y-131313760D01*
X171982100Y-131385103D01*
X172015727Y-131476253D01*
X172015728Y-131554156D01*
X172004508Y-131625000D01*
X172004508Y-131625003D01*
X172024352Y-131750297D01*
X172024355Y-131750306D01*
X172075809Y-131851291D01*
X172081950Y-131863342D01*
X172171658Y-131953050D01*
X172284696Y-132010646D01*
X172284701Y-132010646D01*
X172284702Y-132010647D01*
X172409997Y-132030492D01*
X172410000Y-132030492D01*
X172410003Y-132030492D01*
X172511973Y-132014341D01*
X172535304Y-132010646D01*
X172648342Y-131953050D01*
X172738050Y-131863342D01*
X172795646Y-131750304D01*
X172804480Y-131694526D01*
X172815492Y-131625003D01*
X172815492Y-131624998D01*
X172804272Y-131554159D01*
X172808086Y-131457079D01*
X172848760Y-131368848D01*
X172920103Y-131302899D01*
X173011253Y-131269272D01*
X173089159Y-131269272D01*
X173159998Y-131280492D01*
X173160000Y-131280492D01*
X173160003Y-131280492D01*
X173280985Y-131261330D01*
X173285304Y-131260646D01*
X173398342Y-131203050D01*
X173488050Y-131113342D01*
X173545646Y-131000304D01*
X173551943Y-130960546D01*
X173565492Y-130875003D01*
X173565492Y-130874996D01*
X173545647Y-130749702D01*
X173545646Y-130749701D01*
X173545646Y-130749696D01*
X173488050Y-130636658D01*
X173398342Y-130546950D01*
X173398339Y-130546948D01*
X173285306Y-130489355D01*
X173285305Y-130489354D01*
X173285304Y-130489354D01*
X173285302Y-130489353D01*
X173285297Y-130489352D01*
X173160003Y-130469508D01*
X173160000Y-130469508D01*
X173089156Y-130480728D01*
X172992076Y-130476913D01*
X172903846Y-130436237D01*
X172837897Y-130364893D01*
X172804271Y-130273743D01*
X172804272Y-130195840D01*
X172815492Y-130125001D01*
X172815492Y-130124998D01*
X172804272Y-130054159D01*
X172808086Y-129957079D01*
X172848760Y-129868848D01*
X172920103Y-129802899D01*
X173011253Y-129769272D01*
X173089159Y-129769272D01*
X173159998Y-129780492D01*
X173160000Y-129780492D01*
X173160003Y-129780492D01*
X173261973Y-129764341D01*
X173285304Y-129760646D01*
X173398342Y-129703050D01*
X173488050Y-129613342D01*
X173545646Y-129500304D01*
X173565492Y-129375000D01*
X173565492Y-129374996D01*
X173545647Y-129249702D01*
X173545646Y-129249701D01*
X173545646Y-129249696D01*
X173488050Y-129136658D01*
X173398342Y-129046950D01*
X173398339Y-129046948D01*
X173285306Y-128989355D01*
X173285305Y-128989354D01*
X173285304Y-128989354D01*
X173285302Y-128989353D01*
X173285297Y-128989352D01*
X173160003Y-128969508D01*
X173160000Y-128969508D01*
X173089156Y-128980728D01*
X172992076Y-128976913D01*
X172903846Y-128936237D01*
X172837897Y-128864893D01*
X172804271Y-128773743D01*
X172804272Y-128695840D01*
X172815492Y-128625001D01*
X172815492Y-128624996D01*
X172795647Y-128499702D01*
X172795646Y-128499701D01*
X172795646Y-128499696D01*
X172738050Y-128386658D01*
X172648342Y-128296950D01*
X172648339Y-128296948D01*
X172535306Y-128239355D01*
X172535305Y-128239354D01*
X172535304Y-128239354D01*
X172535302Y-128239353D01*
X172535297Y-128239352D01*
X172410003Y-128219508D01*
X172409997Y-128219508D01*
X172284702Y-128239352D01*
X172284693Y-128239355D01*
X172171660Y-128296948D01*
X172081948Y-128386660D01*
X172024355Y-128499693D01*
X172024352Y-128499702D01*
X172004508Y-128624996D01*
X172004508Y-128624999D01*
X172015728Y-128695843D01*
X172011913Y-128792923D01*
X171971237Y-128881153D01*
X171899894Y-128947101D01*
X171808743Y-128980728D01*
X171730843Y-128980728D01*
X171660000Y-128969508D01*
X171589156Y-128980728D01*
X171492076Y-128976913D01*
X171403846Y-128936237D01*
X171337897Y-128864893D01*
X171304271Y-128773743D01*
X171304272Y-128695840D01*
X171315492Y-128625001D01*
X171315492Y-128624996D01*
X171295647Y-128499702D01*
X171295646Y-128499701D01*
X171295646Y-128499696D01*
X171238050Y-128386658D01*
X171148342Y-128296950D01*
X171148339Y-128296948D01*
X171035306Y-128239355D01*
X171035305Y-128239354D01*
X171035304Y-128239354D01*
X171035302Y-128239353D01*
X171035297Y-128239352D01*
X170910003Y-128219508D01*
X170909997Y-128219508D01*
X170784702Y-128239352D01*
X170784693Y-128239355D01*
X170671660Y-128296948D01*
X170581948Y-128386660D01*
X170524355Y-128499693D01*
X170524352Y-128499702D01*
X170504508Y-128624996D01*
X170504508Y-128624999D01*
X170515728Y-128695843D01*
X170511913Y-128792923D01*
X170471237Y-128881153D01*
X170399894Y-128947101D01*
X170308743Y-128980728D01*
X170230843Y-128980728D01*
X170160000Y-128969508D01*
X170159997Y-128969508D01*
X170034702Y-128989352D01*
X170034693Y-128989355D01*
X169921660Y-129046948D01*
X169831948Y-129136660D01*
X169774355Y-129249693D01*
X169774352Y-129249702D01*
X169754508Y-129374996D01*
X168700500Y-129374996D01*
X168700500Y-118850403D01*
X168719454Y-118755115D01*
X168773427Y-118674336D01*
X170600500Y-116847264D01*
X170666392Y-116733136D01*
X170700500Y-116605843D01*
X170700500Y-116474058D01*
X170700500Y-109746767D01*
X170719454Y-109651479D01*
X170773430Y-109570697D01*
X170854212Y-109516721D01*
X170949500Y-109497767D01*
X171044788Y-109516721D01*
X171050779Y-109519295D01*
X171054806Y-109521088D01*
X171054809Y-109521090D01*
X171135046Y-109556814D01*
X171224850Y-109596798D01*
X171224853Y-109596798D01*
X171224856Y-109596800D01*
X171406928Y-109635500D01*
X171593067Y-109635500D01*
X171593068Y-109635500D01*
X171775140Y-109596800D01*
X171945187Y-109521090D01*
X172095777Y-109411680D01*
X172220329Y-109273351D01*
X172313399Y-109112149D01*
X172370919Y-108935120D01*
X172390376Y-108750000D01*
X172370919Y-108564880D01*
X172313399Y-108387851D01*
X172220329Y-108226649D01*
X172095777Y-108088320D01*
X171945187Y-107978910D01*
X171843983Y-107933851D01*
X171775141Y-107903200D01*
X171775136Y-107903199D01*
X171593068Y-107864500D01*
X171406928Y-107864500D01*
X171224859Y-107903199D01*
X171224854Y-107903200D01*
X171092248Y-107962240D01*
X171054809Y-107978910D01*
X171054808Y-107978910D01*
X171050778Y-107980705D01*
X170956019Y-108002147D01*
X170860267Y-107985694D01*
X170778100Y-107933851D01*
X170722027Y-107854510D01*
X170700585Y-107759751D01*
X170700500Y-107753232D01*
X170700500Y-107560453D01*
X170719454Y-107465165D01*
X170773427Y-107384386D01*
X173882500Y-104275314D01*
X173948392Y-104161186D01*
X173982500Y-104033892D01*
X173982500Y-103902107D01*
X173982500Y-103140312D01*
X174001454Y-103045024D01*
X174055430Y-102964242D01*
X174100419Y-102928608D01*
X174140412Y-102903845D01*
X174174272Y-102882880D01*
X174326857Y-102743780D01*
X174451285Y-102579011D01*
X174543318Y-102394184D01*
X174599822Y-102195592D01*
X174618873Y-101990000D01*
X174599822Y-101784408D01*
X174543318Y-101585816D01*
X174542814Y-101584804D01*
X174451288Y-101400995D01*
X174451286Y-101400991D01*
X174451285Y-101400989D01*
X174451282Y-101400986D01*
X174451281Y-101400983D01*
X174326856Y-101236218D01*
X174174273Y-101097120D01*
X173998730Y-100988429D01*
X173998729Y-100988428D01*
X173998725Y-100988426D01*
X173806194Y-100913839D01*
X173806193Y-100913838D01*
X173806191Y-100913838D01*
X173603240Y-100875900D01*
X173603237Y-100875900D01*
X173396763Y-100875900D01*
X173396760Y-100875900D01*
X173193809Y-100913838D01*
X173193807Y-100913838D01*
X173001277Y-100988425D01*
X173001269Y-100988429D01*
X172825726Y-101097120D01*
X172673143Y-101236218D01*
X172548718Y-101400983D01*
X172548714Y-101400991D01*
X172452895Y-101593420D01*
X172393454Y-101670269D01*
X172309129Y-101718522D01*
X172212757Y-101730832D01*
X172119010Y-101705325D01*
X172042161Y-101645884D01*
X172007105Y-101593420D01*
X171956686Y-101492166D01*
X171911285Y-101400989D01*
X171911282Y-101400985D01*
X171911281Y-101400983D01*
X171786856Y-101236218D01*
X171634273Y-101097120D01*
X171458730Y-100988429D01*
X171458729Y-100988428D01*
X171458725Y-100988426D01*
X171266194Y-100913839D01*
X171266193Y-100913838D01*
X171266191Y-100913838D01*
X171063240Y-100875900D01*
X171063237Y-100875900D01*
X170856763Y-100875900D01*
X170856760Y-100875900D01*
X170653809Y-100913838D01*
X170653807Y-100913838D01*
X170461277Y-100988425D01*
X170461269Y-100988429D01*
X170285726Y-101097120D01*
X170133143Y-101236218D01*
X170008718Y-101400983D01*
X170008714Y-101400991D01*
X169912895Y-101593420D01*
X169853454Y-101670269D01*
X169769129Y-101718522D01*
X169672757Y-101730832D01*
X169579010Y-101705325D01*
X169502161Y-101645884D01*
X169467105Y-101593420D01*
X169416686Y-101492166D01*
X169371285Y-101400989D01*
X169371282Y-101400985D01*
X169371281Y-101400983D01*
X169246856Y-101236218D01*
X169094273Y-101097120D01*
X168918730Y-100988429D01*
X168918729Y-100988428D01*
X168918725Y-100988426D01*
X168726194Y-100913839D01*
X168726193Y-100913838D01*
X168726191Y-100913838D01*
X168523240Y-100875900D01*
X168523237Y-100875900D01*
X168316763Y-100875900D01*
X168316760Y-100875900D01*
X168113809Y-100913838D01*
X168113807Y-100913838D01*
X167921277Y-100988425D01*
X167921269Y-100988429D01*
X167745726Y-101097120D01*
X167593143Y-101236218D01*
X167468718Y-101400983D01*
X167468714Y-101400991D01*
X167372895Y-101593420D01*
X167313454Y-101670269D01*
X167229129Y-101718522D01*
X167132757Y-101730832D01*
X167039010Y-101705325D01*
X166962161Y-101645884D01*
X166927105Y-101593420D01*
X166876686Y-101492166D01*
X166831285Y-101400989D01*
X166831282Y-101400985D01*
X166831281Y-101400983D01*
X166706856Y-101236218D01*
X166554273Y-101097120D01*
X166378730Y-100988429D01*
X166378729Y-100988428D01*
X166378725Y-100988426D01*
X166186194Y-100913839D01*
X166186193Y-100913838D01*
X166186191Y-100913838D01*
X165983240Y-100875900D01*
X165983237Y-100875900D01*
X165776763Y-100875900D01*
X165776760Y-100875900D01*
X165573809Y-100913838D01*
X165573807Y-100913838D01*
X165381277Y-100988425D01*
X165381269Y-100988429D01*
X165205726Y-101097120D01*
X165053143Y-101236218D01*
X164928718Y-101400983D01*
X164928714Y-101400991D01*
X164832895Y-101593420D01*
X164773454Y-101670269D01*
X164689129Y-101718522D01*
X164592757Y-101730832D01*
X164499010Y-101705325D01*
X164422161Y-101645884D01*
X164387105Y-101593420D01*
X164336686Y-101492166D01*
X164291285Y-101400989D01*
X164291282Y-101400985D01*
X164291281Y-101400983D01*
X164166856Y-101236218D01*
X164014273Y-101097120D01*
X163838730Y-100988429D01*
X163838729Y-100988428D01*
X163838725Y-100988426D01*
X163646194Y-100913839D01*
X163646193Y-100913838D01*
X163646191Y-100913838D01*
X163443240Y-100875900D01*
X163443237Y-100875900D01*
X163236763Y-100875900D01*
X163236760Y-100875900D01*
X163033809Y-100913838D01*
X163033807Y-100913838D01*
X162841277Y-100988425D01*
X162841269Y-100988429D01*
X162665726Y-101097120D01*
X162513143Y-101236218D01*
X162388718Y-101400983D01*
X162388714Y-101400991D01*
X162292895Y-101593420D01*
X162233454Y-101670269D01*
X162149129Y-101718522D01*
X162052757Y-101730832D01*
X161959010Y-101705325D01*
X161882161Y-101645884D01*
X161847105Y-101593420D01*
X161796686Y-101492166D01*
X161751285Y-101400989D01*
X161751282Y-101400985D01*
X161751281Y-101400983D01*
X161626856Y-101236218D01*
X161474273Y-101097120D01*
X161298730Y-100988429D01*
X161298729Y-100988428D01*
X161298725Y-100988426D01*
X161106194Y-100913839D01*
X161106193Y-100913838D01*
X161106191Y-100913838D01*
X160903240Y-100875900D01*
X160903237Y-100875900D01*
X160696763Y-100875900D01*
X160696760Y-100875900D01*
X160493809Y-100913838D01*
X160493807Y-100913838D01*
X160301277Y-100988425D01*
X160301269Y-100988429D01*
X160125726Y-101097120D01*
X159973143Y-101236218D01*
X159848718Y-101400983D01*
X159848714Y-101400991D01*
X159752895Y-101593420D01*
X159693454Y-101670269D01*
X159609129Y-101718522D01*
X159512757Y-101730832D01*
X159419010Y-101705325D01*
X159342161Y-101645884D01*
X159307105Y-101593420D01*
X159256686Y-101492166D01*
X159211285Y-101400989D01*
X159211282Y-101400985D01*
X159211281Y-101400983D01*
X159086856Y-101236218D01*
X158934273Y-101097120D01*
X158758730Y-100988429D01*
X158758729Y-100988428D01*
X158758725Y-100988426D01*
X158566194Y-100913839D01*
X158566193Y-100913838D01*
X158566191Y-100913838D01*
X158363240Y-100875900D01*
X158363237Y-100875900D01*
X158156763Y-100875900D01*
X158156760Y-100875900D01*
X157953809Y-100913838D01*
X157953807Y-100913838D01*
X157761277Y-100988425D01*
X157761269Y-100988429D01*
X157585726Y-101097120D01*
X157433143Y-101236218D01*
X157308718Y-101400983D01*
X157308714Y-101400991D01*
X157212895Y-101593420D01*
X157153454Y-101670269D01*
X157069129Y-101718522D01*
X156972757Y-101730832D01*
X156879010Y-101705325D01*
X156802161Y-101645884D01*
X156767105Y-101593420D01*
X156716686Y-101492166D01*
X156671285Y-101400989D01*
X156671282Y-101400985D01*
X156671281Y-101400983D01*
X156546856Y-101236218D01*
X156394273Y-101097120D01*
X156218730Y-100988429D01*
X156218729Y-100988428D01*
X156218725Y-100988426D01*
X156026194Y-100913839D01*
X156026193Y-100913838D01*
X156026191Y-100913838D01*
X155823240Y-100875900D01*
X155823237Y-100875900D01*
X155616763Y-100875900D01*
X155616760Y-100875900D01*
X155413809Y-100913838D01*
X155413807Y-100913838D01*
X155221277Y-100988425D01*
X155221269Y-100988429D01*
X155045726Y-101097120D01*
X154893143Y-101236218D01*
X154768718Y-101400983D01*
X154768711Y-101400995D01*
X154676684Y-101585809D01*
X154676682Y-101585815D01*
X154676682Y-101585816D01*
X154674519Y-101593420D01*
X154620177Y-101784412D01*
X154601127Y-101990000D01*
X154620177Y-102195587D01*
X154620177Y-102195589D01*
X154620178Y-102195592D01*
X154676682Y-102394184D01*
X154676684Y-102394190D01*
X154768711Y-102579004D01*
X154768718Y-102579016D01*
X154893143Y-102743781D01*
X155045726Y-102882879D01*
X155079612Y-102903860D01*
X155221275Y-102991574D01*
X155221283Y-102991577D01*
X155314822Y-103027815D01*
X155396828Y-103079911D01*
X155452656Y-103159424D01*
X155473806Y-103254249D01*
X155457057Y-103349950D01*
X155404961Y-103431956D01*
X155325448Y-103487784D01*
X155314822Y-103492185D01*
X155221283Y-103528422D01*
X155221269Y-103528429D01*
X155045726Y-103637120D01*
X154893143Y-103776218D01*
X154768718Y-103940983D01*
X154768711Y-103940995D01*
X154676684Y-104125809D01*
X154676682Y-104125815D01*
X154676682Y-104125816D01*
X154672947Y-104138945D01*
X154620177Y-104324412D01*
X154601127Y-104530000D01*
X154620177Y-104735587D01*
X154620177Y-104735589D01*
X154620178Y-104735592D01*
X154664095Y-104889945D01*
X154676684Y-104934190D01*
X154768711Y-105119004D01*
X154768718Y-105119016D01*
X154893143Y-105283781D01*
X155045726Y-105422879D01*
X155105582Y-105459940D01*
X155221275Y-105531574D01*
X155413806Y-105606161D01*
X155515284Y-105625130D01*
X155616761Y-105644100D01*
X155616763Y-105644100D01*
X155823238Y-105644100D01*
X155863828Y-105636512D01*
X156026194Y-105606161D01*
X156218725Y-105531574D01*
X156348720Y-105451084D01*
X156439709Y-105417038D01*
X156536806Y-105420404D01*
X156625224Y-105460670D01*
X156691502Y-105531708D01*
X156720311Y-105598336D01*
X156721487Y-105602727D01*
X156721489Y-105602731D01*
X156721490Y-105602734D01*
X156744779Y-105643071D01*
X156770924Y-105688357D01*
X157218393Y-106135826D01*
X157272369Y-106216608D01*
X157291323Y-106311896D01*
X157272369Y-106407184D01*
X157218393Y-106487966D01*
X157137611Y-106541942D01*
X157042323Y-106560896D01*
X154195073Y-106560896D01*
X154099785Y-106541942D01*
X154019003Y-106487966D01*
X150955916Y-103424879D01*
X150901940Y-103344097D01*
X150882986Y-103248809D01*
X150901940Y-103153521D01*
X150955916Y-103072739D01*
X151036698Y-103018763D01*
X151131986Y-102999809D01*
X151221932Y-103016622D01*
X151349806Y-103066161D01*
X151425524Y-103080315D01*
X151552761Y-103104100D01*
X151552763Y-103104100D01*
X151759238Y-103104100D01*
X151832194Y-103090462D01*
X151962194Y-103066161D01*
X152154725Y-102991574D01*
X152330272Y-102882880D01*
X152482857Y-102743780D01*
X152607285Y-102579011D01*
X152699318Y-102394184D01*
X152755822Y-102195592D01*
X152774873Y-101990000D01*
X152755822Y-101784408D01*
X152699318Y-101585816D01*
X152698814Y-101584804D01*
X152607288Y-101400995D01*
X152607286Y-101400991D01*
X152607285Y-101400989D01*
X152607282Y-101400986D01*
X152607281Y-101400983D01*
X152482856Y-101236218D01*
X152330273Y-101097120D01*
X152154730Y-100988429D01*
X152154729Y-100988428D01*
X152154725Y-100988426D01*
X151962194Y-100913839D01*
X151962193Y-100913838D01*
X151962191Y-100913838D01*
X151759240Y-100875900D01*
X151759237Y-100875900D01*
X151552763Y-100875900D01*
X151552760Y-100875900D01*
X151349809Y-100913838D01*
X151349807Y-100913838D01*
X151157277Y-100988425D01*
X151157269Y-100988429D01*
X150981726Y-101097120D01*
X150829143Y-101236218D01*
X150704718Y-101400983D01*
X150704714Y-101400991D01*
X150608895Y-101593420D01*
X150549454Y-101670269D01*
X150465129Y-101718522D01*
X150368757Y-101730832D01*
X150275010Y-101705325D01*
X150198161Y-101645884D01*
X150163105Y-101593420D01*
X150112686Y-101492166D01*
X150067285Y-101400989D01*
X150067282Y-101400985D01*
X150067281Y-101400983D01*
X149942856Y-101236218D01*
X149790273Y-101097120D01*
X149614730Y-100988429D01*
X149614729Y-100988428D01*
X149614725Y-100988426D01*
X149422194Y-100913839D01*
X149422193Y-100913838D01*
X149422191Y-100913838D01*
X149219240Y-100875900D01*
X149219237Y-100875900D01*
X149012763Y-100875900D01*
X149012760Y-100875900D01*
X148809809Y-100913838D01*
X148809807Y-100913838D01*
X148617277Y-100988425D01*
X148617269Y-100988429D01*
X148441726Y-101097120D01*
X148289143Y-101236218D01*
X148164718Y-101400983D01*
X148164714Y-101400991D01*
X148068895Y-101593420D01*
X148009454Y-101670269D01*
X147925129Y-101718522D01*
X147828757Y-101730832D01*
X147735010Y-101705325D01*
X147658161Y-101645884D01*
X147623105Y-101593420D01*
X147572686Y-101492166D01*
X147527285Y-101400989D01*
X147527282Y-101400985D01*
X147527281Y-101400983D01*
X147402856Y-101236218D01*
X147250273Y-101097120D01*
X147074730Y-100988429D01*
X147074729Y-100988428D01*
X147074725Y-100988426D01*
X146882194Y-100913839D01*
X146882193Y-100913838D01*
X146882191Y-100913838D01*
X146679240Y-100875900D01*
X146679237Y-100875900D01*
X146472763Y-100875900D01*
X146472760Y-100875900D01*
X146269809Y-100913838D01*
X146269807Y-100913838D01*
X146077277Y-100988425D01*
X146077269Y-100988429D01*
X145901726Y-101097120D01*
X145749143Y-101236218D01*
X145624718Y-101400983D01*
X145624714Y-101400991D01*
X145528895Y-101593420D01*
X145469454Y-101670269D01*
X145385129Y-101718522D01*
X145288757Y-101730832D01*
X145195010Y-101705325D01*
X145118161Y-101645884D01*
X145083105Y-101593420D01*
X145032686Y-101492166D01*
X144987285Y-101400989D01*
X144987282Y-101400985D01*
X144987281Y-101400983D01*
X144862856Y-101236218D01*
X144710273Y-101097120D01*
X144534730Y-100988429D01*
X144534729Y-100988428D01*
X144534725Y-100988426D01*
X144342194Y-100913839D01*
X144342193Y-100913838D01*
X144342191Y-100913838D01*
X144139240Y-100875900D01*
X144139237Y-100875900D01*
X143932763Y-100875900D01*
X143932760Y-100875900D01*
X143729809Y-100913838D01*
X143729807Y-100913838D01*
X143537277Y-100988425D01*
X143537269Y-100988429D01*
X143361726Y-101097120D01*
X143209143Y-101236218D01*
X143084718Y-101400983D01*
X143084714Y-101400991D01*
X142988895Y-101593420D01*
X142929454Y-101670269D01*
X142845129Y-101718522D01*
X142748757Y-101730832D01*
X142655010Y-101705325D01*
X142578161Y-101645884D01*
X142543105Y-101593420D01*
X142492686Y-101492166D01*
X142447285Y-101400989D01*
X142447282Y-101400985D01*
X142447281Y-101400983D01*
X142322856Y-101236218D01*
X142170273Y-101097120D01*
X141994730Y-100988429D01*
X141994729Y-100988428D01*
X141994725Y-100988426D01*
X141802194Y-100913839D01*
X141802193Y-100913838D01*
X141802191Y-100913838D01*
X141599240Y-100875900D01*
X141599237Y-100875900D01*
X141392763Y-100875900D01*
X141392760Y-100875900D01*
X141189809Y-100913838D01*
X141189807Y-100913838D01*
X140997277Y-100988425D01*
X140997269Y-100988429D01*
X140821726Y-101097120D01*
X140669143Y-101236218D01*
X140544718Y-101400983D01*
X140544714Y-101400991D01*
X140448895Y-101593420D01*
X140389454Y-101670269D01*
X140305129Y-101718522D01*
X140208757Y-101730832D01*
X140115010Y-101705325D01*
X140038161Y-101645884D01*
X140003105Y-101593420D01*
X139952686Y-101492166D01*
X139907285Y-101400989D01*
X139907282Y-101400985D01*
X139907281Y-101400983D01*
X139782856Y-101236218D01*
X139630273Y-101097120D01*
X139454730Y-100988429D01*
X139454729Y-100988428D01*
X139454725Y-100988426D01*
X139262194Y-100913839D01*
X139262193Y-100913838D01*
X139262191Y-100913838D01*
X139059240Y-100875900D01*
X139059237Y-100875900D01*
X138852763Y-100875900D01*
X138852760Y-100875900D01*
X138649809Y-100913838D01*
X138649807Y-100913838D01*
X138457277Y-100988425D01*
X138457269Y-100988429D01*
X138281726Y-101097120D01*
X138129143Y-101236218D01*
X138004718Y-101400983D01*
X138004713Y-101400991D01*
X137951495Y-101507868D01*
X137892054Y-101584718D01*
X137807729Y-101632970D01*
X137711357Y-101645280D01*
X137617610Y-101619773D01*
X137540760Y-101560332D01*
X137492508Y-101476007D01*
X137479600Y-101396878D01*
X137479600Y-101106704D01*
X137467995Y-101048362D01*
X137423793Y-100982210D01*
X137423789Y-100982206D01*
X137357637Y-100938004D01*
X137299295Y-100926400D01*
X136841001Y-100926400D01*
X136841000Y-100926401D01*
X136841000Y-101710119D01*
X136822502Y-101678080D01*
X136727920Y-101583498D01*
X136612081Y-101516619D01*
X136482880Y-101482000D01*
X136349120Y-101482000D01*
X136219919Y-101516619D01*
X136104080Y-101583498D01*
X136009498Y-101678080D01*
X135991000Y-101710119D01*
X135991000Y-100926401D01*
X135990999Y-100926400D01*
X135532705Y-100926400D01*
X135474362Y-100938004D01*
X135408210Y-100982206D01*
X135408206Y-100982210D01*
X135364004Y-101048362D01*
X135352400Y-101106704D01*
X135352400Y-101396878D01*
X135333446Y-101492166D01*
X135279470Y-101572948D01*
X135198688Y-101626924D01*
X135103400Y-101645878D01*
X135008112Y-101626924D01*
X134927330Y-101572948D01*
X134880505Y-101507868D01*
X134827286Y-101400991D01*
X134827281Y-101400983D01*
X134702856Y-101236218D01*
X134550273Y-101097120D01*
X134374730Y-100988429D01*
X134374729Y-100988428D01*
X134374725Y-100988426D01*
X134182194Y-100913839D01*
X134182193Y-100913838D01*
X134182191Y-100913838D01*
X133979240Y-100875900D01*
X133979237Y-100875900D01*
X133772763Y-100875900D01*
X133772760Y-100875900D01*
X133569809Y-100913838D01*
X133569807Y-100913838D01*
X133377277Y-100988425D01*
X133377269Y-100988429D01*
X133201726Y-101097120D01*
X133049143Y-101236218D01*
X132924718Y-101400983D01*
X132924714Y-101400991D01*
X132828895Y-101593420D01*
X132769454Y-101670269D01*
X132685129Y-101718522D01*
X132588757Y-101730832D01*
X132495010Y-101705325D01*
X132418161Y-101645884D01*
X132383105Y-101593420D01*
X132332686Y-101492166D01*
X132287285Y-101400989D01*
X132287282Y-101400985D01*
X132287281Y-101400983D01*
X132162856Y-101236218D01*
X132010273Y-101097120D01*
X131834730Y-100988429D01*
X131834729Y-100988428D01*
X131834725Y-100988426D01*
X131642194Y-100913839D01*
X131642193Y-100913838D01*
X131642191Y-100913838D01*
X131439240Y-100875900D01*
X131439237Y-100875900D01*
X131232763Y-100875900D01*
X131232760Y-100875900D01*
X131029809Y-100913838D01*
X131029807Y-100913838D01*
X130837277Y-100988425D01*
X130837269Y-100988429D01*
X130661726Y-101097120D01*
X130509143Y-101236218D01*
X130384718Y-101400983D01*
X130384714Y-101400991D01*
X130288895Y-101593420D01*
X130229454Y-101670269D01*
X130145129Y-101718522D01*
X130048757Y-101730832D01*
X129955010Y-101705325D01*
X129878161Y-101645884D01*
X129843105Y-101593420D01*
X129792686Y-101492166D01*
X129747285Y-101400989D01*
X129747282Y-101400985D01*
X129747281Y-101400983D01*
X129622856Y-101236218D01*
X129470273Y-101097120D01*
X129294730Y-100988429D01*
X129294729Y-100988428D01*
X129294725Y-100988426D01*
X129102194Y-100913839D01*
X129102193Y-100913838D01*
X129102191Y-100913838D01*
X128899240Y-100875900D01*
X128899237Y-100875900D01*
X128692763Y-100875900D01*
X128692760Y-100875900D01*
X128489809Y-100913838D01*
X128489807Y-100913838D01*
X128297277Y-100988425D01*
X128297269Y-100988429D01*
X128121726Y-101097120D01*
X127969143Y-101236218D01*
X127844718Y-101400983D01*
X127844711Y-101400995D01*
X127752684Y-101585809D01*
X127752682Y-101585815D01*
X127752682Y-101585816D01*
X127750519Y-101593420D01*
X127696177Y-101784412D01*
X127677127Y-101990000D01*
X127696177Y-102195587D01*
X127696177Y-102195589D01*
X127696178Y-102195592D01*
X127752682Y-102394184D01*
X127752684Y-102394190D01*
X127844711Y-102579004D01*
X127844718Y-102579016D01*
X127969143Y-102743781D01*
X128121726Y-102882879D01*
X128155612Y-102903860D01*
X128297275Y-102991574D01*
X128489806Y-103066161D01*
X128565524Y-103080315D01*
X128692761Y-103104100D01*
X128692763Y-103104100D01*
X128899238Y-103104100D01*
X128925009Y-103099282D01*
X129032472Y-103079194D01*
X129129617Y-103080315D01*
X129218942Y-103118529D01*
X129286843Y-103188016D01*
X129322984Y-103278199D01*
X129321863Y-103375347D01*
X129283649Y-103464672D01*
X129254294Y-103500023D01*
X128969533Y-103784784D01*
X128969529Y-103784790D01*
X128928958Y-103855061D01*
X128928955Y-103855067D01*
X128923385Y-103864712D01*
X128899500Y-103953853D01*
X128899500Y-106767323D01*
X128880546Y-106862611D01*
X128826570Y-106943393D01*
X128745788Y-106997369D01*
X128650500Y-107016323D01*
X128555212Y-106997369D01*
X128474430Y-106943393D01*
X127505005Y-105973968D01*
X127419381Y-105924533D01*
X127371630Y-105911739D01*
X127371630Y-105911738D01*
X127371627Y-105911738D01*
X127323880Y-105898944D01*
X127323879Y-105898944D01*
X118697368Y-105898944D01*
X118602080Y-105879990D01*
X118521298Y-105826014D01*
X118467322Y-105745232D01*
X118448368Y-105649944D01*
X118467322Y-105554656D01*
X118483319Y-105516036D01*
X118503277Y-105364443D01*
X118483319Y-105212850D01*
X118483317Y-105212846D01*
X118483317Y-105212843D01*
X118424808Y-105071589D01*
X118420396Y-105063947D01*
X118389165Y-104971949D01*
X118395517Y-104875002D01*
X118420396Y-104814941D01*
X118424804Y-104807305D01*
X118424804Y-104807304D01*
X118424807Y-104807301D01*
X118483319Y-104666038D01*
X118503277Y-104514445D01*
X118483319Y-104362852D01*
X118483317Y-104362848D01*
X118483317Y-104362845D01*
X118424810Y-104221596D01*
X118424805Y-104221587D01*
X118405454Y-104196368D01*
X118362484Y-104109233D01*
X118356130Y-104012286D01*
X118377845Y-103948316D01*
X118374450Y-103946910D01*
X118434119Y-103802854D01*
X118452341Y-103664443D01*
X118444452Y-103604528D01*
X118183495Y-103865485D01*
X118102714Y-103919461D01*
X118007426Y-103938415D01*
X117974927Y-103936285D01*
X117917568Y-103928734D01*
X117917563Y-103928734D01*
X117860202Y-103936285D01*
X117763255Y-103929930D01*
X117676120Y-103886958D01*
X117651634Y-103865485D01*
X117626662Y-103840513D01*
X117572686Y-103759731D01*
X117553732Y-103664443D01*
X117561772Y-103624025D01*
X117714366Y-103624025D01*
X117714366Y-103704863D01*
X117745301Y-103779548D01*
X117802462Y-103836709D01*
X117877147Y-103867644D01*
X117957985Y-103867644D01*
X118032670Y-103836709D01*
X118089831Y-103779548D01*
X118120766Y-103704863D01*
X118120766Y-103624025D01*
X118089831Y-103549340D01*
X118032670Y-103492179D01*
X117957985Y-103461244D01*
X117877147Y-103461244D01*
X117802462Y-103492179D01*
X117745301Y-103549340D01*
X117714366Y-103624025D01*
X117561772Y-103624025D01*
X117572686Y-103569155D01*
X117626662Y-103488373D01*
X118004213Y-103110821D01*
X118022391Y-103042977D01*
X118081535Y-102965898D01*
X118107378Y-102946067D01*
X118170570Y-102903843D01*
X118276266Y-102798147D01*
X118315490Y-102739444D01*
X118250228Y-102617345D01*
X118222026Y-102524374D01*
X118229311Y-102435522D01*
X118239767Y-102396502D01*
X118242165Y-102387551D01*
X118242165Y-102241337D01*
X118242164Y-102241335D01*
X118229311Y-102193364D01*
X118222957Y-102096417D01*
X118250229Y-102011541D01*
X118315491Y-101889444D01*
X118276266Y-101830740D01*
X118170568Y-101725042D01*
X118046292Y-101642004D01*
X118046287Y-101642001D01*
X117908201Y-101584804D01*
X117761598Y-101555644D01*
X117362566Y-101555644D01*
X117362565Y-101555645D01*
X117362565Y-101564944D01*
X117343611Y-101660232D01*
X117289635Y-101741014D01*
X117208853Y-101794990D01*
X117113565Y-101813944D01*
X116761565Y-101813944D01*
X116666277Y-101794990D01*
X116585495Y-101741014D01*
X116531519Y-101660232D01*
X116512565Y-101564944D01*
X116512565Y-101555645D01*
X116512564Y-101555644D01*
X116113532Y-101555644D01*
X115966928Y-101584804D01*
X115828842Y-101642001D01*
X115828837Y-101642004D01*
X115704561Y-101725042D01*
X115598863Y-101830740D01*
X115559638Y-101889444D01*
X115624901Y-102011542D01*
X115653103Y-102104514D01*
X115645819Y-102193360D01*
X115632965Y-102241335D01*
X115632965Y-102387556D01*
X115645818Y-102435526D01*
X115652171Y-102532473D01*
X115624901Y-102617345D01*
X115559638Y-102739443D01*
X115598863Y-102798147D01*
X115704561Y-102903845D01*
X115828837Y-102986883D01*
X115828842Y-102986886D01*
X115978232Y-103048765D01*
X115977000Y-103051737D01*
X116042770Y-103086873D01*
X116104422Y-103161960D01*
X116132646Y-103254925D01*
X116123146Y-103351615D01*
X116110093Y-103381735D01*
X116110682Y-103381979D01*
X116051012Y-103526033D01*
X116032791Y-103664443D01*
X116051013Y-103802856D01*
X116055236Y-103818617D01*
X116052527Y-103819342D01*
X116066571Y-103889951D01*
X116047615Y-103985239D01*
X115993636Y-104066019D01*
X115912853Y-104119993D01*
X115817571Y-104138945D01*
X115686119Y-104138945D01*
X115590615Y-104164534D01*
X115504995Y-104213967D01*
X115504994Y-104213968D01*
X115107216Y-104611747D01*
X115037302Y-104681661D01*
X114987868Y-104767284D01*
X114962278Y-104862785D01*
X114962278Y-107976768D01*
X114943324Y-108072056D01*
X114889348Y-108152838D01*
X114615616Y-108426570D01*
X114534834Y-108480546D01*
X114439546Y-108499500D01*
X112184107Y-108499500D01*
X112056817Y-108533607D01*
X112056816Y-108533607D01*
X112056814Y-108533608D01*
X111962595Y-108588005D01*
X111942684Y-108599501D01*
X111099502Y-109442683D01*
X111099501Y-109442683D01*
X111033606Y-109556818D01*
X110999500Y-109684107D01*
X110500500Y-109684107D01*
X110500500Y-101889459D01*
X112530239Y-101889459D01*
X112595502Y-102011557D01*
X112623704Y-102104529D01*
X112616420Y-102193375D01*
X112603566Y-102241350D01*
X112603566Y-102387571D01*
X112616419Y-102435541D01*
X112622772Y-102532488D01*
X112595502Y-102617360D01*
X112530239Y-102739458D01*
X112569464Y-102798162D01*
X112675162Y-102903860D01*
X112799438Y-102986898D01*
X112799443Y-102986901D01*
X112937529Y-103044098D01*
X113084133Y-103073259D01*
X113127565Y-103073259D01*
X113131424Y-103069399D01*
X113146520Y-102993511D01*
X113200496Y-102912729D01*
X113281278Y-102858753D01*
X113312118Y-102848284D01*
X113344041Y-102839730D01*
X113388970Y-102827693D01*
X113389510Y-102829710D01*
X113463674Y-102814959D01*
X113641458Y-102814959D01*
X113715621Y-102829710D01*
X113716162Y-102827693D01*
X113761090Y-102839730D01*
X113793010Y-102848283D01*
X113880145Y-102891252D01*
X113944205Y-102964296D01*
X113975435Y-103056295D01*
X113976475Y-103072167D01*
X113977567Y-103073259D01*
X114020999Y-103073259D01*
X114167602Y-103044098D01*
X114305688Y-102986901D01*
X114305693Y-102986898D01*
X114429969Y-102903860D01*
X114535667Y-102798162D01*
X114574891Y-102739459D01*
X114509629Y-102617360D01*
X114481427Y-102524389D01*
X114488712Y-102435537D01*
X114499172Y-102396502D01*
X114501566Y-102387566D01*
X114501566Y-102241352D01*
X114501565Y-102241350D01*
X114488712Y-102193379D01*
X114482358Y-102096432D01*
X114509630Y-102011556D01*
X114574892Y-101889459D01*
X114535667Y-101830755D01*
X114429969Y-101725057D01*
X114305693Y-101642019D01*
X114305688Y-101642016D01*
X114167602Y-101584819D01*
X114020999Y-101555659D01*
X113977567Y-101555659D01*
X113973706Y-101559519D01*
X113958612Y-101635406D01*
X113904636Y-101716188D01*
X113823854Y-101770164D01*
X113793013Y-101780633D01*
X113731928Y-101797001D01*
X113731926Y-101797001D01*
X113716165Y-101801225D01*
X113715624Y-101799207D01*
X113641458Y-101813959D01*
X113463674Y-101813959D01*
X113389507Y-101799207D01*
X113388967Y-101801225D01*
X113373205Y-101797001D01*
X113373204Y-101797001D01*
X113312119Y-101780633D01*
X113224985Y-101737663D01*
X113160926Y-101664618D01*
X113129696Y-101572619D01*
X113128656Y-101556750D01*
X113127565Y-101555659D01*
X113084133Y-101555659D01*
X112937529Y-101584819D01*
X112799443Y-101642016D01*
X112799438Y-101642019D01*
X112675162Y-101725057D01*
X112569464Y-101830755D01*
X112530239Y-101889459D01*
X110500500Y-101889459D01*
X110500500Y-100289500D01*
X110519454Y-100194212D01*
X110573430Y-100113430D01*
X110654212Y-100059454D01*
X110749500Y-100040500D01*
X124007329Y-100040500D01*
X124102617Y-100059454D01*
G37*
%TD.AperFunction*%
%TA.AperFunction,NonConductor*%
G36*
X145416989Y-102274674D02*
G01*
X145493839Y-102334114D01*
X145528895Y-102386580D01*
X145624711Y-102579004D01*
X145624718Y-102579016D01*
X145749143Y-102743781D01*
X145901724Y-102882877D01*
X145901726Y-102882878D01*
X145901728Y-102882880D01*
X145935588Y-102903845D01*
X145951659Y-102913796D01*
X146022697Y-102980074D01*
X146062963Y-103068492D01*
X146066329Y-103165589D01*
X146032281Y-103256582D01*
X145966003Y-103327620D01*
X145877585Y-103367886D01*
X145820577Y-103374500D01*
X145008677Y-103374500D01*
X144913389Y-103355546D01*
X144832607Y-103301570D01*
X144739641Y-103208604D01*
X144685665Y-103127822D01*
X144666711Y-103032534D01*
X144685665Y-102937246D01*
X144739641Y-102856464D01*
X144747940Y-102848540D01*
X144862857Y-102743780D01*
X144987285Y-102579011D01*
X145032686Y-102487833D01*
X145083105Y-102386580D01*
X145142545Y-102309730D01*
X145226870Y-102261477D01*
X145323242Y-102249167D01*
X145416989Y-102274674D01*
G37*
%TD.AperFunction*%
%TA.AperFunction,NonConductor*%
G36*
X142876989Y-102274674D02*
G01*
X142953839Y-102334114D01*
X142988895Y-102386580D01*
X143084711Y-102579004D01*
X143084718Y-102579016D01*
X143209143Y-102743781D01*
X143361724Y-102882877D01*
X143361726Y-102882878D01*
X143361728Y-102882880D01*
X143395588Y-102903845D01*
X143411659Y-102913796D01*
X143482697Y-102980074D01*
X143522963Y-103068492D01*
X143526329Y-103165589D01*
X143492281Y-103256582D01*
X143426003Y-103327620D01*
X143337585Y-103367886D01*
X143280577Y-103374500D01*
X142258678Y-103374500D01*
X142163390Y-103355546D01*
X142082608Y-103301570D01*
X142079833Y-103298795D01*
X142025857Y-103218013D01*
X142006903Y-103122725D01*
X142025857Y-103027437D01*
X142079833Y-102946655D01*
X142124817Y-102911024D01*
X142170272Y-102882880D01*
X142322857Y-102743780D01*
X142447285Y-102579011D01*
X142492686Y-102487833D01*
X142543105Y-102386580D01*
X142602545Y-102309730D01*
X142686870Y-102261477D01*
X142783242Y-102249167D01*
X142876989Y-102274674D01*
G37*
%TD.AperFunction*%
%TA.AperFunction,NonConductor*%
G36*
X140336989Y-102274674D02*
G01*
X140413839Y-102334114D01*
X140448895Y-102386580D01*
X140544711Y-102579004D01*
X140544718Y-102579016D01*
X140669143Y-102743781D01*
X140821724Y-102882877D01*
X140821726Y-102882878D01*
X140821728Y-102882880D01*
X140855588Y-102903845D01*
X140871659Y-102913796D01*
X140942697Y-102980074D01*
X140982963Y-103068492D01*
X140986329Y-103165589D01*
X140952281Y-103256582D01*
X140886003Y-103327620D01*
X140797585Y-103367886D01*
X140740577Y-103374500D01*
X139711423Y-103374500D01*
X139616135Y-103355546D01*
X139535353Y-103301570D01*
X139481377Y-103220788D01*
X139462423Y-103125500D01*
X139481377Y-103030212D01*
X139535353Y-102949430D01*
X139580341Y-102913796D01*
X139596412Y-102903845D01*
X139630272Y-102882880D01*
X139782857Y-102743780D01*
X139907285Y-102579011D01*
X139952686Y-102487833D01*
X140003105Y-102386580D01*
X140062545Y-102309730D01*
X140146870Y-102261477D01*
X140243242Y-102249167D01*
X140336989Y-102274674D01*
G37*
%TD.AperFunction*%
%TA.AperFunction,NonConductor*%
G36*
X147956989Y-102274674D02*
G01*
X148033839Y-102334114D01*
X148068895Y-102386580D01*
X148164711Y-102579004D01*
X148164718Y-102579016D01*
X148289143Y-102743781D01*
X148441726Y-102882879D01*
X148475612Y-102903860D01*
X148617275Y-102991574D01*
X148809806Y-103066161D01*
X148885524Y-103080315D01*
X149012761Y-103104100D01*
X149012763Y-103104100D01*
X149219238Y-103104100D01*
X149388322Y-103072493D01*
X149485471Y-103073615D01*
X149574795Y-103111829D01*
X149610146Y-103141183D01*
X149918393Y-103449430D01*
X149972369Y-103530212D01*
X149991323Y-103625500D01*
X149972369Y-103720788D01*
X149918393Y-103801570D01*
X149837611Y-103855546D01*
X149742323Y-103874500D01*
X147508677Y-103874500D01*
X147413389Y-103855546D01*
X147332607Y-103801570D01*
X147024430Y-103493393D01*
X146970454Y-103412611D01*
X146951500Y-103317323D01*
X146951500Y-103206564D01*
X146970454Y-103111276D01*
X147024430Y-103030494D01*
X147069418Y-102994860D01*
X147094501Y-102979329D01*
X147250272Y-102882880D01*
X147402857Y-102743780D01*
X147527285Y-102579011D01*
X147572686Y-102487833D01*
X147623105Y-102386580D01*
X147682545Y-102309730D01*
X147766870Y-102261477D01*
X147863242Y-102249167D01*
X147956989Y-102274674D01*
G37*
%TD.AperFunction*%
%TA.AperFunction,NonConductor*%
G36*
X172340989Y-102274674D02*
G01*
X172417839Y-102334114D01*
X172452895Y-102386580D01*
X172548711Y-102579004D01*
X172548718Y-102579016D01*
X172673143Y-102743781D01*
X172825725Y-102882878D01*
X172825727Y-102882879D01*
X172825728Y-102882880D01*
X172863579Y-102906316D01*
X172934617Y-102972591D01*
X172974885Y-103061008D01*
X172981500Y-103118021D01*
X172981500Y-103657546D01*
X172962546Y-103752834D01*
X172908570Y-103833616D01*
X171867570Y-104874616D01*
X171786788Y-104928592D01*
X171691500Y-104947546D01*
X171596212Y-104928592D01*
X171515430Y-104874616D01*
X171461454Y-104793834D01*
X171442500Y-104698546D01*
X171442500Y-103140312D01*
X171461454Y-103045024D01*
X171515430Y-102964242D01*
X171560419Y-102928608D01*
X171600412Y-102903845D01*
X171634272Y-102882880D01*
X171786857Y-102743780D01*
X171911285Y-102579011D01*
X171956686Y-102487833D01*
X172007105Y-102386580D01*
X172066545Y-102309730D01*
X172150870Y-102261477D01*
X172247242Y-102249167D01*
X172340989Y-102274674D01*
G37*
%TD.AperFunction*%
%TA.AperFunction,NonConductor*%
G36*
X169800989Y-102274674D02*
G01*
X169877839Y-102334114D01*
X169912895Y-102386580D01*
X170008711Y-102579004D01*
X170008718Y-102579016D01*
X170133143Y-102743781D01*
X170285725Y-102882878D01*
X170285727Y-102882879D01*
X170285728Y-102882880D01*
X170323579Y-102906316D01*
X170394617Y-102972591D01*
X170434885Y-103061008D01*
X170441500Y-103118021D01*
X170441500Y-104747546D01*
X170422546Y-104842834D01*
X170368570Y-104923616D01*
X169550570Y-105741616D01*
X169469788Y-105795592D01*
X169374500Y-105814546D01*
X169279212Y-105795592D01*
X169198430Y-105741616D01*
X169144454Y-105660834D01*
X169125500Y-105565546D01*
X169125500Y-103950567D01*
X169125500Y-103950565D01*
X169125221Y-103949525D01*
X169110594Y-103894937D01*
X169099910Y-103855062D01*
X169099909Y-103855061D01*
X169099910Y-103855061D01*
X169069026Y-103801570D01*
X169050475Y-103769438D01*
X168980562Y-103699525D01*
X168868430Y-103587393D01*
X168814454Y-103506611D01*
X168795500Y-103411323D01*
X168795500Y-103206564D01*
X168814454Y-103111276D01*
X168868430Y-103030494D01*
X168913418Y-102994860D01*
X168938501Y-102979329D01*
X169094272Y-102882880D01*
X169246857Y-102743780D01*
X169371285Y-102579011D01*
X169416686Y-102487833D01*
X169467105Y-102386580D01*
X169526545Y-102309730D01*
X169610870Y-102261477D01*
X169707242Y-102249167D01*
X169800989Y-102274674D01*
G37*
%TD.AperFunction*%
%TA.AperFunction,NonConductor*%
G36*
X160168388Y-105453114D02*
G01*
X160204171Y-105471450D01*
X160301275Y-105531574D01*
X160301277Y-105531575D01*
X160306583Y-105534860D01*
X160377620Y-105601139D01*
X160417886Y-105689556D01*
X160424500Y-105746564D01*
X160424500Y-106292323D01*
X160405546Y-106387611D01*
X160351570Y-106468393D01*
X160270788Y-106522369D01*
X160175500Y-106541323D01*
X160080212Y-106522369D01*
X159999430Y-106468393D01*
X159897030Y-106365993D01*
X159843054Y-106285211D01*
X159824100Y-106189923D01*
X159824100Y-105683160D01*
X159843054Y-105587872D01*
X159897030Y-105507090D01*
X159977812Y-105453114D01*
X160073100Y-105434160D01*
X160168388Y-105453114D01*
G37*
%TD.AperFunction*%
%TA.AperFunction,NonConductor*%
G36*
X166682509Y-105429258D02*
G01*
X166770926Y-105469525D01*
X166837204Y-105540562D01*
X166871252Y-105631556D01*
X166874500Y-105671644D01*
X166874500Y-106992323D01*
X166855546Y-107087611D01*
X166801570Y-107168393D01*
X166720788Y-107222369D01*
X166625500Y-107241323D01*
X166530212Y-107222369D01*
X166449430Y-107168393D01*
X166328430Y-107047393D01*
X166274454Y-106966611D01*
X166255500Y-106871323D01*
X166255500Y-105746564D01*
X166274454Y-105651276D01*
X166328430Y-105570494D01*
X166373418Y-105534860D01*
X166494418Y-105459940D01*
X166585412Y-105425892D01*
X166682509Y-105429258D01*
G37*
%TD.AperFunction*%
%TA.AperFunction,NonConductor*%
G36*
X161583908Y-105440774D02*
G01*
X161672325Y-105481040D01*
X161738604Y-105552077D01*
X161772652Y-105643071D01*
X161775900Y-105683160D01*
X161775900Y-107007327D01*
X161756946Y-107102615D01*
X161702970Y-107183397D01*
X161622188Y-107237373D01*
X161526900Y-107256327D01*
X161431612Y-107237373D01*
X161350830Y-107183397D01*
X161248430Y-107080997D01*
X161194454Y-107000215D01*
X161175500Y-106904927D01*
X161175500Y-105746564D01*
X161194454Y-105651276D01*
X161248430Y-105570494D01*
X161293417Y-105534860D01*
X161298722Y-105531575D01*
X161298725Y-105531574D01*
X161395822Y-105471454D01*
X161486811Y-105437408D01*
X161583908Y-105440774D01*
G37*
%TD.AperFunction*%
%TA.AperFunction,NonConductor*%
G36*
X164123908Y-105440774D02*
G01*
X164212325Y-105481040D01*
X164278604Y-105552077D01*
X164312652Y-105643071D01*
X164315900Y-105683160D01*
X164315900Y-108274535D01*
X164296946Y-108369823D01*
X164242970Y-108450605D01*
X164162188Y-108504581D01*
X164066900Y-108523535D01*
X163971612Y-108504581D01*
X163890830Y-108450605D01*
X163788430Y-108348205D01*
X163734454Y-108267423D01*
X163715500Y-108172135D01*
X163715500Y-105746564D01*
X163734454Y-105651276D01*
X163788430Y-105570494D01*
X163833417Y-105534860D01*
X163838722Y-105531575D01*
X163838725Y-105531574D01*
X163935822Y-105471454D01*
X164026811Y-105437408D01*
X164123908Y-105440774D01*
G37*
%TD.AperFunction*%
%TA.AperFunction,NonConductor*%
G36*
X165411188Y-107171903D02*
G01*
X165491970Y-107225879D01*
X165531538Y-107277446D01*
X165561415Y-107329195D01*
X165579524Y-107360561D01*
X166351570Y-108132607D01*
X166405546Y-108213389D01*
X166424500Y-108308677D01*
X166424500Y-110996739D01*
X166405546Y-111092027D01*
X166351570Y-111172809D01*
X166270788Y-111226785D01*
X166175500Y-111245739D01*
X166080212Y-111226785D01*
X165999430Y-111172809D01*
X165878430Y-111051809D01*
X165824454Y-110971027D01*
X165805500Y-110875739D01*
X165805500Y-109834979D01*
X165783494Y-109752855D01*
X165779910Y-109739478D01*
X165730475Y-109653854D01*
X165660562Y-109583941D01*
X165139830Y-109063209D01*
X165085854Y-108982427D01*
X165066900Y-108887139D01*
X165066900Y-107401949D01*
X165085854Y-107306661D01*
X165139830Y-107225879D01*
X165220612Y-107171903D01*
X165315900Y-107152949D01*
X165411188Y-107171903D01*
G37*
%TD.AperFunction*%
%TA.AperFunction,NonConductor*%
G36*
X167969788Y-103744120D02*
G01*
X168050570Y-103798096D01*
X168090140Y-103849666D01*
X168119522Y-103900558D01*
X168119526Y-103900563D01*
X168301570Y-104082607D01*
X168355546Y-104163389D01*
X168374500Y-104258677D01*
X168374500Y-111673947D01*
X168355546Y-111769235D01*
X168301570Y-111850017D01*
X168220788Y-111903993D01*
X168125500Y-111922947D01*
X168030212Y-111903993D01*
X167949430Y-111850017D01*
X167698430Y-111599017D01*
X167644454Y-111518235D01*
X167625500Y-111422947D01*
X167625500Y-103974166D01*
X167644454Y-103878878D01*
X167698430Y-103798096D01*
X167779212Y-103744120D01*
X167874500Y-103725166D01*
X167969788Y-103744120D01*
G37*
%TD.AperFunction*%
%TA.AperFunction,NonConductor*%
G36*
X132716989Y-102274674D02*
G01*
X132793839Y-102334114D01*
X132828895Y-102386580D01*
X132924711Y-102579004D01*
X132924718Y-102579016D01*
X133049143Y-102743781D01*
X133201726Y-102882879D01*
X133235612Y-102903860D01*
X133377275Y-102991574D01*
X133569806Y-103066161D01*
X133645524Y-103080315D01*
X133772761Y-103104100D01*
X133772763Y-103104100D01*
X133979238Y-103104100D01*
X134052194Y-103090462D01*
X134182194Y-103066161D01*
X134374725Y-102991574D01*
X134550272Y-102882880D01*
X134702857Y-102743780D01*
X134827285Y-102579011D01*
X134867624Y-102498000D01*
X134880505Y-102472132D01*
X134939945Y-102395282D01*
X135024270Y-102347029D01*
X135120642Y-102334719D01*
X135214389Y-102360226D01*
X135291239Y-102419666D01*
X135339492Y-102503991D01*
X135352400Y-102583121D01*
X135352400Y-102873295D01*
X135364004Y-102931637D01*
X135408206Y-102997789D01*
X135408210Y-102997793D01*
X135474362Y-103041995D01*
X135532705Y-103053600D01*
X135990999Y-103053600D01*
X135991000Y-103053599D01*
X135991000Y-102269880D01*
X136009498Y-102301920D01*
X136104080Y-102396502D01*
X136219919Y-102463381D01*
X136349120Y-102498000D01*
X136482880Y-102498000D01*
X136612081Y-102463381D01*
X136727920Y-102396502D01*
X136822502Y-102301920D01*
X136841000Y-102269880D01*
X136841000Y-103053599D01*
X136841001Y-103053600D01*
X137299295Y-103053600D01*
X137357637Y-103041995D01*
X137423789Y-102997793D01*
X137423793Y-102997789D01*
X137467995Y-102931637D01*
X137479600Y-102873295D01*
X137479600Y-102583121D01*
X137498554Y-102487833D01*
X137552530Y-102407051D01*
X137633312Y-102353075D01*
X137728600Y-102334121D01*
X137823888Y-102353075D01*
X137904670Y-102407051D01*
X137951495Y-102472132D01*
X138004711Y-102579004D01*
X138004718Y-102579016D01*
X138129143Y-102743781D01*
X138281724Y-102882877D01*
X138281726Y-102882878D01*
X138281728Y-102882880D01*
X138415807Y-102965898D01*
X138462582Y-102994860D01*
X138533619Y-103061138D01*
X138573886Y-103149555D01*
X138580500Y-103206564D01*
X138580500Y-103505437D01*
X138586659Y-103528423D01*
X138602461Y-103587393D01*
X138606090Y-103600938D01*
X138636280Y-103653229D01*
X138647919Y-103673387D01*
X138647919Y-103673388D01*
X138655523Y-103686559D01*
X138655525Y-103686562D01*
X138655526Y-103686563D01*
X139019437Y-104050475D01*
X139019438Y-104050476D01*
X139019440Y-104050477D01*
X139105060Y-104099910D01*
X139105062Y-104099910D01*
X139105063Y-104099911D01*
X139200564Y-104125500D01*
X139200565Y-104125500D01*
X141104927Y-104125500D01*
X141200215Y-104144454D01*
X141280997Y-104198430D01*
X141513129Y-104430562D01*
X141583042Y-104500475D01*
X141668666Y-104549910D01*
X141714951Y-104562312D01*
X141764168Y-104575500D01*
X141764169Y-104575500D01*
X143668531Y-104575500D01*
X143763819Y-104594454D01*
X143844601Y-104648430D01*
X144076733Y-104880562D01*
X144146646Y-104950475D01*
X144232270Y-104999910D01*
X144280021Y-105012705D01*
X144327772Y-105025500D01*
X144327773Y-105025500D01*
X145482135Y-105025500D01*
X145577423Y-105044454D01*
X145658205Y-105098430D01*
X146510250Y-105950475D01*
X146595875Y-105999911D01*
X146691376Y-106025500D01*
X146691377Y-106025500D01*
X149845739Y-106025500D01*
X149941027Y-106044454D01*
X150021809Y-106098430D01*
X152890337Y-108966958D01*
X152960250Y-109036871D01*
X153045874Y-109086306D01*
X153083471Y-109096380D01*
X153141376Y-109111896D01*
X153141377Y-109111896D01*
X156909343Y-109111896D01*
X157004631Y-109130850D01*
X157085413Y-109184826D01*
X158851570Y-110950983D01*
X158905546Y-111031765D01*
X158924500Y-111127053D01*
X158924500Y-115696170D01*
X158905546Y-115791458D01*
X158851570Y-115872239D01*
X158672241Y-116051569D01*
X158591460Y-116105546D01*
X158496172Y-116124500D01*
X150528275Y-116124500D01*
X150429403Y-116124500D01*
X150381652Y-116137295D01*
X150381650Y-116137295D01*
X150333904Y-116150089D01*
X150333901Y-116150090D01*
X150248277Y-116199524D01*
X150248276Y-116199526D01*
X149755854Y-116691948D01*
X149747319Y-116703071D01*
X149725851Y-116727550D01*
X148079869Y-118373532D01*
X147999087Y-118427508D01*
X147936303Y-118444331D01*
X147848513Y-118455889D01*
X147848505Y-118455891D01*
X147714598Y-118511356D01*
X147714591Y-118511361D01*
X147599603Y-118599594D01*
X147599594Y-118599603D01*
X147511361Y-118714591D01*
X147511356Y-118714598D01*
X147455891Y-118848505D01*
X147455891Y-118848507D01*
X147455890Y-118848509D01*
X147455890Y-118848511D01*
X147436970Y-118992220D01*
X147455890Y-119135929D01*
X147455891Y-119135931D01*
X147474233Y-119180214D01*
X147493186Y-119275502D01*
X147474231Y-119370790D01*
X147420254Y-119451571D01*
X147339472Y-119505547D01*
X147244186Y-119524500D01*
X132373321Y-119524500D01*
X132278033Y-119505546D01*
X132197251Y-119451570D01*
X130673430Y-117927748D01*
X130619454Y-117846966D01*
X130600500Y-117751678D01*
X130600500Y-111332535D01*
X130576614Y-111243393D01*
X130576614Y-111243392D01*
X130560402Y-111215312D01*
X130530470Y-111163468D01*
X130113404Y-110746402D01*
X129673430Y-110306427D01*
X129619454Y-110225646D01*
X129600500Y-110130358D01*
X129600500Y-104248322D01*
X129619454Y-104153034D01*
X129673430Y-104072252D01*
X129822252Y-103923430D01*
X129903034Y-103869454D01*
X129998322Y-103850500D01*
X131046144Y-103850500D01*
X131135288Y-103826614D01*
X131155512Y-103814938D01*
X131176442Y-103802854D01*
X131215212Y-103780470D01*
X131616470Y-103379212D01*
X131662614Y-103299288D01*
X131686500Y-103210143D01*
X131686500Y-103210139D01*
X131688630Y-103193965D01*
X131691514Y-103194344D01*
X131705454Y-103124267D01*
X131759430Y-103043485D01*
X131824522Y-102996654D01*
X131834720Y-102991575D01*
X131834725Y-102991574D01*
X132010272Y-102882880D01*
X132162857Y-102743780D01*
X132287285Y-102579011D01*
X132332686Y-102487833D01*
X132383105Y-102386580D01*
X132442545Y-102309730D01*
X132526870Y-102261477D01*
X132623242Y-102249167D01*
X132716989Y-102274674D01*
G37*
%TD.AperFunction*%
%TA.AperFunction,NonConductor*%
G36*
X165844673Y-115931329D02*
G01*
X165871755Y-115949424D01*
X165912723Y-115980860D01*
X165946476Y-116006760D01*
X165946479Y-116006762D01*
X166063543Y-116055250D01*
X166080392Y-116062229D01*
X166224101Y-116081149D01*
X166367810Y-116062229D01*
X166367815Y-116062227D01*
X166501722Y-116006762D01*
X166501722Y-116006761D01*
X166501726Y-116006760D01*
X166513778Y-115997511D01*
X166600909Y-115954542D01*
X166697856Y-115948187D01*
X166789856Y-115979415D01*
X166816940Y-115997512D01*
X166828995Y-116006762D01*
X166829175Y-116006900D01*
X166829179Y-116006903D01*
X166963087Y-116062368D01*
X166963092Y-116062370D01*
X167106801Y-116081290D01*
X167250510Y-116062370D01*
X167250515Y-116062368D01*
X167384422Y-116006903D01*
X167384424Y-116006901D01*
X167384426Y-116006901D01*
X167384427Y-116006899D01*
X167398561Y-115998740D01*
X167399863Y-116000995D01*
X167465323Y-115968709D01*
X167562269Y-115962348D01*
X167625072Y-115979174D01*
X167763057Y-116036328D01*
X167763062Y-116036330D01*
X167906771Y-116055250D01*
X168050480Y-116036330D01*
X168050485Y-116036328D01*
X168184392Y-115980863D01*
X168184394Y-115980861D01*
X168184396Y-115980861D01*
X168184397Y-115980859D01*
X168198531Y-115972700D01*
X168200002Y-115975248D01*
X168263912Y-115943723D01*
X168360858Y-115937358D01*
X168452861Y-115968577D01*
X168464068Y-115976065D01*
X168472371Y-115980858D01*
X168472375Y-115980861D01*
X168500499Y-115992510D01*
X168544536Y-116010751D01*
X168625317Y-116064727D01*
X168679294Y-116145508D01*
X168698248Y-116240797D01*
X168679294Y-116336085D01*
X168625318Y-116416866D01*
X168625318Y-116416867D01*
X167192686Y-117849500D01*
X167192685Y-117849499D01*
X167099502Y-117942683D01*
X167099501Y-117942683D01*
X167033606Y-118056818D01*
X166999500Y-118184107D01*
X166999500Y-127222674D01*
X166980546Y-127317962D01*
X166926570Y-127398744D01*
X166845788Y-127452720D01*
X166750500Y-127471674D01*
X166655212Y-127452720D01*
X166574430Y-127398744D01*
X166520454Y-127317962D01*
X166520454Y-127317961D01*
X166480863Y-127222378D01*
X166480861Y-127222375D01*
X166426955Y-127152124D01*
X166383985Y-127064988D01*
X166375500Y-127000542D01*
X166375500Y-120200568D01*
X166375499Y-120200562D01*
X166368499Y-120174441D01*
X166368499Y-120174434D01*
X166368498Y-120174435D01*
X166349910Y-120105063D01*
X166349910Y-120105062D01*
X166300475Y-120019438D01*
X166230562Y-119949525D01*
X162753083Y-116472046D01*
X162699107Y-116391264D01*
X162680153Y-116295976D01*
X162699107Y-116200688D01*
X162753083Y-116119906D01*
X162833865Y-116065930D01*
X162896645Y-116049107D01*
X162993700Y-116036330D01*
X162993705Y-116036328D01*
X163142694Y-115974616D01*
X163143286Y-115976046D01*
X163217484Y-115950858D01*
X163314431Y-115957210D01*
X163357168Y-115974911D01*
X163357291Y-115974616D01*
X163506280Y-116036328D01*
X163506285Y-116036330D01*
X163649994Y-116055250D01*
X163793703Y-116036330D01*
X163793708Y-116036328D01*
X163942697Y-115974616D01*
X163943289Y-115976046D01*
X164017487Y-115950858D01*
X164114434Y-115957210D01*
X164157171Y-115974911D01*
X164157294Y-115974616D01*
X164306283Y-116036328D01*
X164306288Y-116036330D01*
X164449997Y-116055250D01*
X164593706Y-116036330D01*
X164593711Y-116036328D01*
X164742700Y-115974616D01*
X164743292Y-115976046D01*
X164817490Y-115950858D01*
X164914437Y-115957210D01*
X164957174Y-115974911D01*
X164957297Y-115974616D01*
X165106286Y-116036328D01*
X165106291Y-116036330D01*
X165250000Y-116055250D01*
X165393709Y-116036330D01*
X165393714Y-116036328D01*
X165527621Y-115980863D01*
X165527621Y-115980862D01*
X165527625Y-115980861D01*
X165568592Y-115949425D01*
X165655726Y-115906455D01*
X165752673Y-115900100D01*
X165844673Y-115931329D01*
G37*
%TD.AperFunction*%
%TA.AperFunction,NonConductor*%
G36*
X126803411Y-139659650D02*
G01*
X126884193Y-139713626D01*
X126938169Y-139794408D01*
X126957123Y-139889696D01*
X126954992Y-139922200D01*
X126946750Y-139984799D01*
X126915520Y-140076797D01*
X126875951Y-140128365D01*
X118878365Y-148125951D01*
X118797583Y-148179927D01*
X118734799Y-148196750D01*
X118672201Y-148204992D01*
X118575254Y-148198639D01*
X118488118Y-148155670D01*
X118424058Y-148082626D01*
X118392828Y-147990627D01*
X118399181Y-147893680D01*
X118442150Y-147806544D01*
X118463613Y-147782068D01*
X126532056Y-139713623D01*
X126612835Y-139659650D01*
X126708123Y-139640696D01*
X126803411Y-139659650D01*
G37*
%TD.AperFunction*%
%TA.AperFunction,NonConductor*%
G36*
X167951188Y-145509031D02*
G01*
X168031970Y-145563007D01*
X168639793Y-146170830D01*
X168693769Y-146251612D01*
X168712723Y-146346900D01*
X168693769Y-146442188D01*
X168639793Y-146522970D01*
X168559011Y-146576946D01*
X168463723Y-146595900D01*
X168316760Y-146595900D01*
X168113809Y-146633838D01*
X168113807Y-146633838D01*
X167945849Y-146698906D01*
X167850148Y-146715654D01*
X167755323Y-146694504D01*
X167675810Y-146638676D01*
X167623714Y-146556669D01*
X167606900Y-146466720D01*
X167606900Y-145739077D01*
X167625854Y-145643789D01*
X167679830Y-145563007D01*
X167760612Y-145509031D01*
X167855900Y-145490077D01*
X167951188Y-145509031D01*
G37*
%TD.AperFunction*%
%TA.AperFunction,NonConductor*%
G36*
X163999388Y-145499031D02*
G01*
X164080170Y-145553007D01*
X164134146Y-145633789D01*
X164153100Y-145729077D01*
X164153100Y-146466720D01*
X164134146Y-146562008D01*
X164080170Y-146642790D01*
X163999388Y-146696766D01*
X163904100Y-146715720D01*
X163814151Y-146698906D01*
X163708571Y-146658004D01*
X163646194Y-146633839D01*
X163646193Y-146633838D01*
X163646191Y-146633838D01*
X163443240Y-146595900D01*
X163443237Y-146595900D01*
X163286277Y-146595900D01*
X163190989Y-146576946D01*
X163110207Y-146522970D01*
X163056231Y-146442188D01*
X163037277Y-146346900D01*
X163056231Y-146251612D01*
X163110207Y-146170830D01*
X163728030Y-145553007D01*
X163808812Y-145499031D01*
X163904100Y-145480077D01*
X163999388Y-145499031D01*
G37*
%TD.AperFunction*%
%TA.AperFunction,NonConductor*%
G36*
X165248388Y-143556231D02*
G01*
X165329170Y-143610207D01*
X166782970Y-145064007D01*
X166836946Y-145144789D01*
X166855900Y-145240077D01*
X166855900Y-146556839D01*
X166836946Y-146652127D01*
X166782970Y-146732909D01*
X166702188Y-146786885D01*
X166606900Y-146805839D01*
X166511612Y-146786885D01*
X166475820Y-146768544D01*
X166378727Y-146708427D01*
X166378722Y-146708425D01*
X166362680Y-146702210D01*
X166186194Y-146633839D01*
X166186193Y-146633838D01*
X166186191Y-146633838D01*
X165983240Y-146595900D01*
X165983237Y-146595900D01*
X165776763Y-146595900D01*
X165776760Y-146595900D01*
X165573809Y-146633838D01*
X165573807Y-146633838D01*
X165381277Y-146708425D01*
X165381272Y-146708427D01*
X165284180Y-146768544D01*
X165193186Y-146802591D01*
X165096090Y-146799225D01*
X165007672Y-146758957D01*
X164941395Y-146687919D01*
X164907348Y-146596925D01*
X164904100Y-146556839D01*
X164904100Y-143786277D01*
X164923054Y-143690989D01*
X164977030Y-143610207D01*
X165057812Y-143556231D01*
X165153100Y-143537277D01*
X165248388Y-143556231D01*
G37*
%TD.AperFunction*%
%TA.AperFunction,NonConductor*%
G36*
X154587888Y-148073075D02*
G01*
X154668670Y-148127051D01*
X154715495Y-148192132D01*
X154768711Y-148299004D01*
X154768718Y-148299016D01*
X154893143Y-148463781D01*
X155045726Y-148602879D01*
X155109985Y-148642666D01*
X155221275Y-148711574D01*
X155221283Y-148711577D01*
X155314822Y-148747815D01*
X155396828Y-148799911D01*
X155452656Y-148879424D01*
X155473806Y-148974249D01*
X155457057Y-149069950D01*
X155404961Y-149151956D01*
X155325448Y-149207784D01*
X155314822Y-149212185D01*
X155221283Y-149248422D01*
X155221269Y-149248429D01*
X155045726Y-149357120D01*
X154893143Y-149496218D01*
X154768718Y-149660983D01*
X154768713Y-149660991D01*
X154715495Y-149767868D01*
X154656054Y-149844718D01*
X154571729Y-149892970D01*
X154475357Y-149905280D01*
X154381610Y-149879773D01*
X154304760Y-149820332D01*
X154256508Y-149736007D01*
X154243600Y-149656878D01*
X154243600Y-149366704D01*
X154231995Y-149308362D01*
X154187793Y-149242210D01*
X154187789Y-149242206D01*
X154105221Y-149187036D01*
X154036522Y-149118337D01*
X153999342Y-149028578D01*
X153999342Y-148931423D01*
X154036522Y-148841663D01*
X154105221Y-148772964D01*
X154187789Y-148717793D01*
X154187793Y-148717789D01*
X154231995Y-148651637D01*
X154243600Y-148593295D01*
X154243600Y-148303121D01*
X154262554Y-148207833D01*
X154316530Y-148127051D01*
X154397312Y-148073075D01*
X154492600Y-148054121D01*
X154587888Y-148073075D01*
G37*
%TD.AperFunction*%
%TA.AperFunction,NonConductor*%
G36*
X149438389Y-148080226D02*
G01*
X149515239Y-148139666D01*
X149563492Y-148223991D01*
X149576400Y-148303121D01*
X149576400Y-148593295D01*
X149588004Y-148651637D01*
X149632206Y-148717789D01*
X149632211Y-148717794D01*
X149714779Y-148772965D01*
X149783478Y-148841664D01*
X149820657Y-148931424D01*
X149820656Y-149028579D01*
X149783476Y-149118338D01*
X149714779Y-149187035D01*
X149632211Y-149242205D01*
X149632206Y-149242210D01*
X149588004Y-149308362D01*
X149576400Y-149366704D01*
X149576400Y-149656878D01*
X149557446Y-149752166D01*
X149503470Y-149832948D01*
X149422688Y-149886924D01*
X149327400Y-149905878D01*
X149232112Y-149886924D01*
X149151330Y-149832948D01*
X149104505Y-149767868D01*
X149051286Y-149660991D01*
X149051281Y-149660983D01*
X148926856Y-149496218D01*
X148774273Y-149357120D01*
X148598730Y-149248429D01*
X148598729Y-149248428D01*
X148598725Y-149248426D01*
X148505176Y-149212185D01*
X148423171Y-149160090D01*
X148367343Y-149080576D01*
X148346193Y-148985752D01*
X148362941Y-148890051D01*
X148415037Y-148808044D01*
X148494551Y-148752216D01*
X148505176Y-148747815D01*
X148598725Y-148711574D01*
X148774272Y-148602880D01*
X148926857Y-148463780D01*
X149051285Y-148299011D01*
X149093780Y-148213670D01*
X149104505Y-148192132D01*
X149163945Y-148115282D01*
X149248270Y-148067029D01*
X149344642Y-148054719D01*
X149438389Y-148080226D01*
G37*
%TD.AperFunction*%
%TA.AperFunction,NonConductor*%
G36*
X146940989Y-147994674D02*
G01*
X147017839Y-148054114D01*
X147052895Y-148106580D01*
X147148711Y-148299004D01*
X147148718Y-148299016D01*
X147273143Y-148463781D01*
X147425726Y-148602879D01*
X147489985Y-148642666D01*
X147601275Y-148711574D01*
X147601283Y-148711577D01*
X147694822Y-148747815D01*
X147776828Y-148799911D01*
X147832656Y-148879424D01*
X147853806Y-148974249D01*
X147837057Y-149069950D01*
X147784961Y-149151956D01*
X147705448Y-149207784D01*
X147694822Y-149212185D01*
X147601283Y-149248422D01*
X147601269Y-149248429D01*
X147425726Y-149357120D01*
X147273143Y-149496218D01*
X147148718Y-149660983D01*
X147148714Y-149660991D01*
X147052895Y-149853420D01*
X146993454Y-149930269D01*
X146909129Y-149978522D01*
X146812757Y-149990832D01*
X146719010Y-149965325D01*
X146642161Y-149905884D01*
X146607105Y-149853420D01*
X146556686Y-149752166D01*
X146511285Y-149660989D01*
X146511282Y-149660985D01*
X146511281Y-149660983D01*
X146386856Y-149496218D01*
X146234273Y-149357120D01*
X146160417Y-149311390D01*
X146089380Y-149245112D01*
X146049114Y-149156694D01*
X146042500Y-149099687D01*
X146042500Y-148860312D01*
X146061454Y-148765024D01*
X146115430Y-148684242D01*
X146160419Y-148648608D01*
X146203986Y-148621632D01*
X146234272Y-148602880D01*
X146386857Y-148463780D01*
X146511285Y-148299011D01*
X146563201Y-148194750D01*
X146607105Y-148106580D01*
X146666545Y-148029730D01*
X146750870Y-147981477D01*
X146847242Y-147969167D01*
X146940989Y-147994674D01*
G37*
%TD.AperFunction*%
%TA.AperFunction,NonConductor*%
G36*
X144400989Y-147994674D02*
G01*
X144477839Y-148054114D01*
X144512895Y-148106580D01*
X144608711Y-148299004D01*
X144608718Y-148299016D01*
X144733143Y-148463781D01*
X144885725Y-148602878D01*
X144885727Y-148602879D01*
X144885728Y-148602880D01*
X144923579Y-148626316D01*
X144994617Y-148692591D01*
X145034885Y-148781008D01*
X145041500Y-148838021D01*
X145041500Y-149121977D01*
X145022546Y-149217265D01*
X144968570Y-149298047D01*
X144923585Y-149333679D01*
X144885725Y-149357121D01*
X144733143Y-149496218D01*
X144608718Y-149660983D01*
X144608714Y-149660991D01*
X144512895Y-149853420D01*
X144453454Y-149930269D01*
X144369129Y-149978522D01*
X144272757Y-149990832D01*
X144179010Y-149965325D01*
X144102161Y-149905884D01*
X144067105Y-149853420D01*
X144016686Y-149752166D01*
X143971285Y-149660989D01*
X143971282Y-149660985D01*
X143971281Y-149660983D01*
X143846856Y-149496218D01*
X143694273Y-149357120D01*
X143518730Y-149248429D01*
X143518729Y-149248428D01*
X143518725Y-149248426D01*
X143425176Y-149212185D01*
X143343171Y-149160090D01*
X143287343Y-149080576D01*
X143266193Y-148985752D01*
X143282941Y-148890051D01*
X143335037Y-148808044D01*
X143414551Y-148752216D01*
X143425176Y-148747815D01*
X143518725Y-148711574D01*
X143694272Y-148602880D01*
X143846857Y-148463780D01*
X143971285Y-148299011D01*
X144023201Y-148194750D01*
X144067105Y-148106580D01*
X144126545Y-148029730D01*
X144210870Y-147981477D01*
X144307242Y-147969167D01*
X144400989Y-147994674D01*
G37*
%TD.AperFunction*%
%TA.AperFunction,NonConductor*%
G36*
X141860989Y-147994674D02*
G01*
X141937839Y-148054114D01*
X141972895Y-148106580D01*
X142068711Y-148299004D01*
X142068718Y-148299016D01*
X142193143Y-148463781D01*
X142345726Y-148602879D01*
X142409985Y-148642666D01*
X142521275Y-148711574D01*
X142521283Y-148711577D01*
X142614822Y-148747815D01*
X142696828Y-148799911D01*
X142752656Y-148879424D01*
X142773806Y-148974249D01*
X142757057Y-149069950D01*
X142704961Y-149151956D01*
X142625448Y-149207784D01*
X142614822Y-149212185D01*
X142521283Y-149248422D01*
X142521269Y-149248429D01*
X142345726Y-149357120D01*
X142193143Y-149496218D01*
X142068718Y-149660983D01*
X142068714Y-149660991D01*
X141972895Y-149853420D01*
X141913454Y-149930269D01*
X141829129Y-149978522D01*
X141732757Y-149990832D01*
X141639010Y-149965325D01*
X141562161Y-149905884D01*
X141527105Y-149853420D01*
X141476686Y-149752166D01*
X141431285Y-149660989D01*
X141431282Y-149660985D01*
X141431281Y-149660983D01*
X141306856Y-149496218D01*
X141154273Y-149357120D01*
X140978730Y-149248429D01*
X140978729Y-149248428D01*
X140978725Y-149248426D01*
X140885176Y-149212185D01*
X140803171Y-149160090D01*
X140747343Y-149080576D01*
X140726193Y-148985752D01*
X140742941Y-148890051D01*
X140795037Y-148808044D01*
X140874551Y-148752216D01*
X140885176Y-148747815D01*
X140978725Y-148711574D01*
X141154272Y-148602880D01*
X141306857Y-148463780D01*
X141431285Y-148299011D01*
X141483201Y-148194750D01*
X141527105Y-148106580D01*
X141586545Y-148029730D01*
X141670870Y-147981477D01*
X141767242Y-147969167D01*
X141860989Y-147994674D01*
G37*
%TD.AperFunction*%
%TA.AperFunction,NonConductor*%
G36*
X139320989Y-147994674D02*
G01*
X139397839Y-148054114D01*
X139432895Y-148106580D01*
X139528711Y-148299004D01*
X139528718Y-148299016D01*
X139653143Y-148463781D01*
X139805726Y-148602879D01*
X139869985Y-148642666D01*
X139981275Y-148711574D01*
X139981283Y-148711577D01*
X140074822Y-148747815D01*
X140156828Y-148799911D01*
X140212656Y-148879424D01*
X140233806Y-148974249D01*
X140217057Y-149069950D01*
X140164961Y-149151956D01*
X140085448Y-149207784D01*
X140074822Y-149212185D01*
X139981283Y-149248422D01*
X139981269Y-149248429D01*
X139805726Y-149357120D01*
X139653143Y-149496218D01*
X139528718Y-149660983D01*
X139528714Y-149660991D01*
X139432895Y-149853420D01*
X139373454Y-149930269D01*
X139289129Y-149978522D01*
X139192757Y-149990832D01*
X139099010Y-149965325D01*
X139022161Y-149905884D01*
X138987105Y-149853420D01*
X138936686Y-149752166D01*
X138891285Y-149660989D01*
X138891282Y-149660985D01*
X138891281Y-149660983D01*
X138766856Y-149496218D01*
X138614273Y-149357120D01*
X138438730Y-149248429D01*
X138438729Y-149248428D01*
X138438725Y-149248426D01*
X138345176Y-149212185D01*
X138263171Y-149160090D01*
X138207343Y-149080576D01*
X138186193Y-148985752D01*
X138202941Y-148890051D01*
X138255037Y-148808044D01*
X138334551Y-148752216D01*
X138345176Y-148747815D01*
X138438725Y-148711574D01*
X138614272Y-148602880D01*
X138766857Y-148463780D01*
X138891285Y-148299011D01*
X138943201Y-148194750D01*
X138987105Y-148106580D01*
X139046545Y-148029730D01*
X139130870Y-147981477D01*
X139227242Y-147969167D01*
X139320989Y-147994674D01*
G37*
%TD.AperFunction*%
M02*
