%TF.GenerationSoftware,KiCad,Pcbnew,8.0.5*%
%TF.CreationDate,2024-10-15T22:54:43-04:00*%
%TF.ProjectId,ESP32-Uno-Board-v2,45535033-322d-4556-9e6f-2d426f617264,rev?*%
%TF.SameCoordinates,Original*%
%TF.FileFunction,Soldermask,Bot*%
%TF.FilePolarity,Negative*%
%FSLAX46Y46*%
G04 Gerber Fmt 4.6, Leading zero omitted, Abs format (unit mm)*
G04 Created by KiCad (PCBNEW 8.0.5) date 2024-10-15 22:54:43*
%MOMM*%
%LPD*%
G01*
G04 APERTURE LIST*
%ADD10C,3.200000*%
%ADD11O,1.727200X1.727200*%
%ADD12R,1.727200X1.727200*%
%ADD13C,1.270000*%
%ADD14R,1.700000X1.700000*%
%ADD15O,1.700000X1.700000*%
%ADD16R,2.600000X2.600000*%
%ADD17C,2.600000*%
%ADD18C,0.660400*%
%ADD19O,1.905000X1.117600*%
%ADD20O,2.616200X1.117600*%
G04 APERTURE END LIST*
D10*
%TO.C,A2*%
X123970000Y-150250000D03*
X125240000Y-101990000D03*
X176040000Y-117230000D03*
X176040000Y-145170000D03*
D11*
X145560000Y-147710000D03*
X145560000Y-150250000D03*
X148100000Y-147710000D03*
X148100000Y-150250000D03*
X160800000Y-150250000D03*
X163340000Y-150250000D03*
X165880000Y-150250000D03*
X168420000Y-150250000D03*
X170960000Y-150250000D03*
X173500000Y-150250000D03*
X133876000Y-101990000D03*
X137940000Y-150250000D03*
X173500000Y-101990000D03*
X170960000Y-101990000D03*
X168420000Y-101990000D03*
X165880000Y-101990000D03*
X163340000Y-101990000D03*
X160800000Y-101990000D03*
X158260000Y-101990000D03*
X155720000Y-101990000D03*
X151656000Y-101990000D03*
X149116000Y-101990000D03*
X146576000Y-101990000D03*
X144036000Y-101990000D03*
X141496000Y-101990000D03*
X138956000Y-101990000D03*
X165880000Y-104530000D03*
X163340000Y-104530000D03*
X160800000Y-104530000D03*
X158260000Y-104530000D03*
X155720000Y-104530000D03*
X170960000Y-147710000D03*
X168420000Y-147710000D03*
X165880000Y-147710000D03*
X163340000Y-147710000D03*
X160800000Y-147710000D03*
D12*
X136416000Y-101990000D03*
X150640000Y-150250000D03*
X153180000Y-150250000D03*
X150640000Y-147710000D03*
X153180000Y-147710000D03*
D11*
X140480000Y-150250000D03*
X143020000Y-147710000D03*
X140480000Y-147710000D03*
X137940000Y-147710000D03*
X143020000Y-150250000D03*
X128796000Y-101990000D03*
X131336000Y-101990000D03*
X155720000Y-147710000D03*
X155720000Y-150250000D03*
%TD*%
D13*
%TO.C,BTN2*%
X171499998Y-108750000D03*
X174250000Y-108750000D03*
%TD*%
%TO.C,SW4*%
X132000000Y-148499998D03*
X132000000Y-151250000D03*
%TD*%
D14*
%TO.C,SW1*%
X113750000Y-132080000D03*
D15*
X113750000Y-129540000D03*
X113750000Y-127000000D03*
%TD*%
D16*
%TO.C,J2*%
X123200000Y-118310000D03*
D17*
X117200000Y-118310000D03*
X120200000Y-123010000D03*
%TD*%
D18*
%TO.C,J1*%
X117917566Y-103664444D03*
X117917566Y-104514445D03*
X117917566Y-105364443D03*
X117917566Y-106214444D03*
X117917566Y-107064445D03*
X117917566Y-107914446D03*
X117917566Y-108764444D03*
X117917566Y-109614445D03*
X116567566Y-109614445D03*
X116567566Y-108764444D03*
X116567566Y-107914446D03*
X116567566Y-107064445D03*
X116567566Y-106214444D03*
X116567566Y-105364443D03*
X116567566Y-104514445D03*
X116567566Y-103664444D03*
D19*
X113552566Y-102314459D03*
X113552566Y-110964429D03*
D20*
X116937565Y-102314444D03*
X116937566Y-110964429D03*
%TD*%
M02*
