%TF.GenerationSoftware,KiCad,Pcbnew,8.0.4*%
%TF.CreationDate,2024-08-01T01:15:24-04:00*%
%TF.ProjectId,555_toggle-switch_v2,3535355f-746f-4676-976c-652d73776974,rev?*%
%TF.SameCoordinates,Original*%
%TF.FileFunction,Soldermask,Top*%
%TF.FilePolarity,Negative*%
%FSLAX46Y46*%
G04 Gerber Fmt 4.6, Leading zero omitted, Abs format (unit mm)*
G04 Created by KiCad (PCBNEW 8.0.4) date 2024-08-01 01:15:24*
%MOMM*%
%LPD*%
G01*
G04 APERTURE LIST*
G04 Aperture macros list*
%AMRoundRect*
0 Rectangle with rounded corners*
0 $1 Rounding radius*
0 $2 $3 $4 $5 $6 $7 $8 $9 X,Y pos of 4 corners*
0 Add a 4 corners polygon primitive as box body*
4,1,4,$2,$3,$4,$5,$6,$7,$8,$9,$2,$3,0*
0 Add four circle primitives for the rounded corners*
1,1,$1+$1,$2,$3*
1,1,$1+$1,$4,$5*
1,1,$1+$1,$6,$7*
1,1,$1+$1,$8,$9*
0 Add four rect primitives between the rounded corners*
20,1,$1+$1,$2,$3,$4,$5,0*
20,1,$1+$1,$4,$5,$6,$7,0*
20,1,$1+$1,$6,$7,$8,$9,0*
20,1,$1+$1,$8,$9,$2,$3,0*%
G04 Aperture macros list end*
%ADD10C,0.010000*%
%ADD11RoundRect,0.375000X0.625000X0.375000X-0.625000X0.375000X-0.625000X-0.375000X0.625000X-0.375000X0*%
%ADD12RoundRect,0.500000X0.500000X1.400000X-0.500000X1.400000X-0.500000X-1.400000X0.500000X-1.400000X0*%
%ADD13R,1.600000X1.600000*%
%ADD14C,1.600000*%
%ADD15O,1.600000X1.600000*%
%ADD16C,1.400000*%
%ADD17O,1.400000X1.400000*%
%ADD18RoundRect,0.250000X-0.400000X-0.625000X0.400000X-0.625000X0.400000X0.625000X-0.400000X0.625000X0*%
%ADD19R,1.700000X1.700000*%
%ADD20O,1.700000X1.700000*%
%ADD21O,1.252400X1.852400*%
%ADD22R,1.041400X1.117600*%
%ADD23RoundRect,0.250000X-0.625000X0.400000X-0.625000X-0.400000X0.625000X-0.400000X0.625000X0.400000X0*%
%ADD24C,2.000000*%
G04 APERTURE END LIST*
D10*
%TO.C,USB*%
X122318500Y-120983500D02*
X121391500Y-120983500D01*
X121391500Y-119656500D01*
X122318500Y-119656500D01*
X122318500Y-120983500D01*
G36*
X122318500Y-120983500D02*
G01*
X121391500Y-120983500D01*
X121391500Y-119656500D01*
X122318500Y-119656500D01*
X122318500Y-120983500D01*
G37*
X123528500Y-120983500D02*
X122641500Y-120983500D01*
X122641500Y-119656500D01*
X123528500Y-119656500D01*
X123528500Y-120983500D01*
G36*
X123528500Y-120983500D02*
G01*
X122641500Y-120983500D01*
X122641500Y-119656500D01*
X123528500Y-119656500D01*
X123528500Y-120983500D01*
G37*
X124518500Y-120983500D02*
X123691500Y-120983500D01*
X123691500Y-119656500D01*
X124518500Y-119656500D01*
X124518500Y-120983500D01*
G36*
X124518500Y-120983500D02*
G01*
X123691500Y-120983500D01*
X123691500Y-119656500D01*
X124518500Y-119656500D01*
X124518500Y-120983500D01*
G37*
X125518500Y-120983500D02*
X124691500Y-120983500D01*
X124691500Y-119656500D01*
X125518500Y-119656500D01*
X125518500Y-120983500D01*
G36*
X125518500Y-120983500D02*
G01*
X124691500Y-120983500D01*
X124691500Y-119656500D01*
X125518500Y-119656500D01*
X125518500Y-120983500D01*
G37*
X126568500Y-120983500D02*
X125681500Y-120983500D01*
X125681500Y-119656500D01*
X126568500Y-119656500D01*
X126568500Y-120983500D01*
G36*
X126568500Y-120983500D02*
G01*
X125681500Y-120983500D01*
X125681500Y-119656500D01*
X126568500Y-119656500D01*
X126568500Y-120983500D01*
G37*
X127818500Y-120983500D02*
X126891500Y-120983500D01*
X126891500Y-119656500D01*
X127818500Y-119656500D01*
X127818500Y-120983500D01*
G36*
X127818500Y-120983500D02*
G01*
X126891500Y-120983500D01*
X126891500Y-119656500D01*
X127818500Y-119656500D01*
X127818500Y-120983500D01*
G37*
%TD*%
D11*
%TO.C,U2*%
X119150000Y-117300000D03*
X119150000Y-115000000D03*
D12*
X112850000Y-115000000D03*
D11*
X119150000Y-112700000D03*
%TD*%
D13*
%TO.C,C2*%
X117400000Y-95105113D03*
D14*
X117400000Y-92605113D03*
%TD*%
D13*
%TO.C,U1*%
X121850000Y-93980000D03*
D15*
X121850000Y-96520000D03*
X121850000Y-99060000D03*
X121850000Y-101600000D03*
X129470000Y-101600000D03*
X129470000Y-99060000D03*
X129470000Y-96520000D03*
X129470000Y-93980000D03*
%TD*%
D16*
%TO.C,R4*%
X137500000Y-99680000D03*
D17*
X137500000Y-102220000D03*
%TD*%
D18*
%TO.C,R5*%
X136000000Y-117400000D03*
X132900000Y-117400000D03*
%TD*%
D19*
%TO.C,J1*%
X113400000Y-100075000D03*
D20*
X113400000Y-97535000D03*
%TD*%
D21*
%TO.C,USB*%
X120285000Y-124200000D03*
X128925000Y-124200000D03*
X120285000Y-120400000D03*
X128925000Y-120400000D03*
%TD*%
D22*
%TO.C,LED1*%
X126000000Y-117200400D03*
X124499998Y-117200400D03*
X124499998Y-114000000D03*
X126000000Y-114000000D03*
%TD*%
D23*
%TO.C,R8*%
X117525000Y-120170000D03*
X117525000Y-123270000D03*
%TD*%
D19*
%TO.C,SW2*%
X113400000Y-104260000D03*
D20*
X113400000Y-106800000D03*
X113400000Y-109340000D03*
%TD*%
D18*
%TO.C,R6*%
X136000000Y-114600000D03*
X132900000Y-114600000D03*
%TD*%
D23*
%TO.C,R9*%
X131525000Y-120170000D03*
X131525000Y-123270000D03*
%TD*%
D16*
%TO.C,R1*%
X133700000Y-99680000D03*
D17*
X133700000Y-102220000D03*
%TD*%
D16*
%TO.C,R2*%
X133800000Y-93980000D03*
D17*
X133800000Y-96520000D03*
%TD*%
D20*
%TO.C,J3*%
X126915000Y-89700000D03*
D19*
X124375000Y-89700000D03*
%TD*%
%TO.C,SW3*%
X136775000Y-106700000D03*
D20*
X134235000Y-106700000D03*
%TD*%
D16*
%TO.C,R3*%
X118000000Y-101600000D03*
D17*
X118000000Y-104140000D03*
%TD*%
D24*
%TO.C,SW1*%
X122400000Y-106700000D03*
X128900000Y-106700000D03*
X122400000Y-111200000D03*
X128900000Y-111200000D03*
%TD*%
M02*
