%TF.GenerationSoftware,KiCad,Pcbnew,8.0.4*%
%TF.CreationDate,2024-08-01T02:14:53-04:00*%
%TF.ProjectId,esp32-c3-wroom-socket,65737033-322d-4633-932d-77726f6f6d2d,rev?*%
%TF.SameCoordinates,Original*%
%TF.FileFunction,Legend,Bot*%
%TF.FilePolarity,Positive*%
%FSLAX46Y46*%
G04 Gerber Fmt 4.6, Leading zero omitted, Abs format (unit mm)*
G04 Created by KiCad (PCBNEW 8.0.4) date 2024-08-01 02:14:53*
%MOMM*%
%LPD*%
G01*
G04 APERTURE LIST*
%ADD10C,0.100000*%
%ADD11C,0.150000*%
%ADD12C,0.120000*%
%ADD13C,0.508000*%
%ADD14C,0.000000*%
%ADD15C,0.152400*%
G04 APERTURE END LIST*
D10*
X154639285Y-72452447D02*
X154514285Y-71452447D01*
X154561904Y-71833399D02*
X154460713Y-71785780D01*
X154460713Y-71785780D02*
X154270237Y-71785780D01*
X154270237Y-71785780D02*
X154180951Y-71833399D01*
X154180951Y-71833399D02*
X154139285Y-71881018D01*
X154139285Y-71881018D02*
X154103570Y-71976256D01*
X154103570Y-71976256D02*
X154139285Y-72261970D01*
X154139285Y-72261970D02*
X154198808Y-72357208D01*
X154198808Y-72357208D02*
X154252380Y-72404828D01*
X154252380Y-72404828D02*
X154353570Y-72452447D01*
X154353570Y-72452447D02*
X154544047Y-72452447D01*
X154544047Y-72452447D02*
X154633332Y-72404828D01*
X153746427Y-71785780D02*
X153591666Y-72452447D01*
X153270237Y-71785780D02*
X153591666Y-72452447D01*
X153591666Y-72452447D02*
X153716666Y-72690542D01*
X153716666Y-72690542D02*
X153770237Y-72738161D01*
X153770237Y-72738161D02*
X153871427Y-72785780D01*
X152960713Y-72357208D02*
X152919046Y-72404828D01*
X152919046Y-72404828D02*
X152972618Y-72452447D01*
X152972618Y-72452447D02*
X153014284Y-72404828D01*
X153014284Y-72404828D02*
X152960713Y-72357208D01*
X152960713Y-72357208D02*
X152972618Y-72452447D01*
X152895237Y-71833399D02*
X152853570Y-71881018D01*
X152853570Y-71881018D02*
X152907141Y-71928637D01*
X152907141Y-71928637D02*
X152948808Y-71881018D01*
X152948808Y-71881018D02*
X152895237Y-71833399D01*
X152895237Y-71833399D02*
X152907141Y-71928637D01*
X158317857Y-73776676D02*
X157841667Y-73776676D01*
X158448810Y-74062391D02*
X157990476Y-73062391D01*
X157990476Y-73062391D02*
X157782143Y-74062391D01*
X157305953Y-74062391D02*
X157395238Y-74014772D01*
X157395238Y-74014772D02*
X157430953Y-73919533D01*
X157430953Y-73919533D02*
X157323810Y-73062391D01*
X156538095Y-74014772D02*
X156639285Y-74062391D01*
X156639285Y-74062391D02*
X156829762Y-74062391D01*
X156829762Y-74062391D02*
X156919047Y-74014772D01*
X156919047Y-74014772D02*
X156954762Y-73919533D01*
X156954762Y-73919533D02*
X156907143Y-73538581D01*
X156907143Y-73538581D02*
X156847619Y-73443343D01*
X156847619Y-73443343D02*
X156746428Y-73395724D01*
X156746428Y-73395724D02*
X156555952Y-73395724D01*
X156555952Y-73395724D02*
X156466666Y-73443343D01*
X156466666Y-73443343D02*
X156430952Y-73538581D01*
X156430952Y-73538581D02*
X156442857Y-73633819D01*
X156442857Y-73633819D02*
X156930952Y-73729057D01*
X156163095Y-74062391D02*
X155555952Y-73395724D01*
X156079761Y-73395724D02*
X155639285Y-74062391D01*
X154829761Y-74062391D02*
X154764285Y-73538581D01*
X154764285Y-73538581D02*
X154799999Y-73443343D01*
X154799999Y-73443343D02*
X154889285Y-73395724D01*
X154889285Y-73395724D02*
X155079761Y-73395724D01*
X155079761Y-73395724D02*
X155180952Y-73443343D01*
X154823809Y-74014772D02*
X154924999Y-74062391D01*
X154924999Y-74062391D02*
X155163095Y-74062391D01*
X155163095Y-74062391D02*
X155252380Y-74014772D01*
X155252380Y-74014772D02*
X155288095Y-73919533D01*
X155288095Y-73919533D02*
X155276190Y-73824295D01*
X155276190Y-73824295D02*
X155216666Y-73729057D01*
X155216666Y-73729057D02*
X155115476Y-73681438D01*
X155115476Y-73681438D02*
X154877380Y-73681438D01*
X154877380Y-73681438D02*
X154776190Y-73633819D01*
X154270237Y-73395724D02*
X154353571Y-74062391D01*
X154282142Y-73490962D02*
X154228571Y-73443343D01*
X154228571Y-73443343D02*
X154127380Y-73395724D01*
X154127380Y-73395724D02*
X153984523Y-73395724D01*
X153984523Y-73395724D02*
X153895237Y-73443343D01*
X153895237Y-73443343D02*
X153859523Y-73538581D01*
X153859523Y-73538581D02*
X153924999Y-74062391D01*
X153020237Y-74062391D02*
X152895237Y-73062391D01*
X153014285Y-74014772D02*
X153115475Y-74062391D01*
X153115475Y-74062391D02*
X153305952Y-74062391D01*
X153305952Y-74062391D02*
X153395237Y-74014772D01*
X153395237Y-74014772D02*
X153436904Y-73967152D01*
X153436904Y-73967152D02*
X153472618Y-73871914D01*
X153472618Y-73871914D02*
X153436904Y-73586200D01*
X153436904Y-73586200D02*
X153377380Y-73490962D01*
X153377380Y-73490962D02*
X153323809Y-73443343D01*
X153323809Y-73443343D02*
X153222618Y-73395724D01*
X153222618Y-73395724D02*
X153032142Y-73395724D01*
X153032142Y-73395724D02*
X152942856Y-73443343D01*
X152157142Y-74014772D02*
X152258332Y-74062391D01*
X152258332Y-74062391D02*
X152448809Y-74062391D01*
X152448809Y-74062391D02*
X152538094Y-74014772D01*
X152538094Y-74014772D02*
X152573809Y-73919533D01*
X152573809Y-73919533D02*
X152526190Y-73538581D01*
X152526190Y-73538581D02*
X152466666Y-73443343D01*
X152466666Y-73443343D02*
X152365475Y-73395724D01*
X152365475Y-73395724D02*
X152174999Y-73395724D01*
X152174999Y-73395724D02*
X152085713Y-73443343D01*
X152085713Y-73443343D02*
X152049999Y-73538581D01*
X152049999Y-73538581D02*
X152061904Y-73633819D01*
X152061904Y-73633819D02*
X152549999Y-73729057D01*
X151686904Y-74062391D02*
X151603570Y-73395724D01*
X151627380Y-73586200D02*
X151567856Y-73490962D01*
X151567856Y-73490962D02*
X151514285Y-73443343D01*
X151514285Y-73443343D02*
X151413094Y-73395724D01*
X151413094Y-73395724D02*
X151317856Y-73395724D01*
X149907141Y-73538581D02*
X149770236Y-73586200D01*
X149770236Y-73586200D02*
X149728570Y-73633819D01*
X149728570Y-73633819D02*
X149692855Y-73729057D01*
X149692855Y-73729057D02*
X149710713Y-73871914D01*
X149710713Y-73871914D02*
X149770236Y-73967152D01*
X149770236Y-73967152D02*
X149823808Y-74014772D01*
X149823808Y-74014772D02*
X149924998Y-74062391D01*
X149924998Y-74062391D02*
X150305951Y-74062391D01*
X150305951Y-74062391D02*
X150180951Y-73062391D01*
X150180951Y-73062391D02*
X149847617Y-73062391D01*
X149847617Y-73062391D02*
X149758332Y-73110010D01*
X149758332Y-73110010D02*
X149716665Y-73157629D01*
X149716665Y-73157629D02*
X149680951Y-73252867D01*
X149680951Y-73252867D02*
X149692855Y-73348105D01*
X149692855Y-73348105D02*
X149752379Y-73443343D01*
X149752379Y-73443343D02*
X149805951Y-73490962D01*
X149805951Y-73490962D02*
X149907141Y-73538581D01*
X149907141Y-73538581D02*
X150240474Y-73538581D01*
X149294046Y-73967152D02*
X149252379Y-74014772D01*
X149252379Y-74014772D02*
X149305951Y-74062391D01*
X149305951Y-74062391D02*
X149347617Y-74014772D01*
X149347617Y-74014772D02*
X149294046Y-73967152D01*
X149294046Y-73967152D02*
X149305951Y-74062391D01*
X165719925Y-61449942D02*
X165434211Y-61449942D01*
X165777068Y-61621371D02*
X165577068Y-61021371D01*
X165577068Y-61021371D02*
X165377068Y-61621371D01*
X164919925Y-61221371D02*
X164919925Y-61621371D01*
X165177067Y-61221371D02*
X165177067Y-61535657D01*
X165177067Y-61535657D02*
X165148496Y-61592800D01*
X165148496Y-61592800D02*
X165091353Y-61621371D01*
X165091353Y-61621371D02*
X165005639Y-61621371D01*
X165005639Y-61621371D02*
X164948496Y-61592800D01*
X164948496Y-61592800D02*
X164919925Y-61564228D01*
X164377068Y-61221371D02*
X164377068Y-61707085D01*
X164377068Y-61707085D02*
X164405639Y-61764228D01*
X164405639Y-61764228D02*
X164434210Y-61792800D01*
X164434210Y-61792800D02*
X164491353Y-61821371D01*
X164491353Y-61821371D02*
X164577068Y-61821371D01*
X164577068Y-61821371D02*
X164634210Y-61792800D01*
X164377068Y-61592800D02*
X164434210Y-61621371D01*
X164434210Y-61621371D02*
X164548496Y-61621371D01*
X164548496Y-61621371D02*
X164605639Y-61592800D01*
X164605639Y-61592800D02*
X164634210Y-61564228D01*
X164634210Y-61564228D02*
X164662782Y-61507085D01*
X164662782Y-61507085D02*
X164662782Y-61335657D01*
X164662782Y-61335657D02*
X164634210Y-61278514D01*
X164634210Y-61278514D02*
X164605639Y-61249942D01*
X164605639Y-61249942D02*
X164548496Y-61221371D01*
X164548496Y-61221371D02*
X164434210Y-61221371D01*
X164434210Y-61221371D02*
X164377068Y-61249942D01*
X163662782Y-61078514D02*
X163634210Y-61049942D01*
X163634210Y-61049942D02*
X163577068Y-61021371D01*
X163577068Y-61021371D02*
X163434210Y-61021371D01*
X163434210Y-61021371D02*
X163377068Y-61049942D01*
X163377068Y-61049942D02*
X163348496Y-61078514D01*
X163348496Y-61078514D02*
X163319925Y-61135657D01*
X163319925Y-61135657D02*
X163319925Y-61192800D01*
X163319925Y-61192800D02*
X163348496Y-61278514D01*
X163348496Y-61278514D02*
X163691353Y-61621371D01*
X163691353Y-61621371D02*
X163319925Y-61621371D01*
X162948496Y-61021371D02*
X162891353Y-61021371D01*
X162891353Y-61021371D02*
X162834210Y-61049942D01*
X162834210Y-61049942D02*
X162805639Y-61078514D01*
X162805639Y-61078514D02*
X162777067Y-61135657D01*
X162777067Y-61135657D02*
X162748496Y-61249942D01*
X162748496Y-61249942D02*
X162748496Y-61392800D01*
X162748496Y-61392800D02*
X162777067Y-61507085D01*
X162777067Y-61507085D02*
X162805639Y-61564228D01*
X162805639Y-61564228D02*
X162834210Y-61592800D01*
X162834210Y-61592800D02*
X162891353Y-61621371D01*
X162891353Y-61621371D02*
X162948496Y-61621371D01*
X162948496Y-61621371D02*
X163005639Y-61592800D01*
X163005639Y-61592800D02*
X163034210Y-61564228D01*
X163034210Y-61564228D02*
X163062781Y-61507085D01*
X163062781Y-61507085D02*
X163091353Y-61392800D01*
X163091353Y-61392800D02*
X163091353Y-61249942D01*
X163091353Y-61249942D02*
X163062781Y-61135657D01*
X163062781Y-61135657D02*
X163034210Y-61078514D01*
X163034210Y-61078514D02*
X163005639Y-61049942D01*
X163005639Y-61049942D02*
X162948496Y-61021371D01*
X162519924Y-61078514D02*
X162491352Y-61049942D01*
X162491352Y-61049942D02*
X162434210Y-61021371D01*
X162434210Y-61021371D02*
X162291352Y-61021371D01*
X162291352Y-61021371D02*
X162234210Y-61049942D01*
X162234210Y-61049942D02*
X162205638Y-61078514D01*
X162205638Y-61078514D02*
X162177067Y-61135657D01*
X162177067Y-61135657D02*
X162177067Y-61192800D01*
X162177067Y-61192800D02*
X162205638Y-61278514D01*
X162205638Y-61278514D02*
X162548495Y-61621371D01*
X162548495Y-61621371D02*
X162177067Y-61621371D01*
X161662781Y-61221371D02*
X161662781Y-61621371D01*
X161805638Y-60992800D02*
X161948495Y-61421371D01*
X161948495Y-61421371D02*
X161577066Y-61421371D01*
D11*
X146734819Y-70057142D02*
X146258628Y-69723809D01*
X146734819Y-69485714D02*
X145734819Y-69485714D01*
X145734819Y-69485714D02*
X145734819Y-69866666D01*
X145734819Y-69866666D02*
X145782438Y-69961904D01*
X145782438Y-69961904D02*
X145830057Y-70009523D01*
X145830057Y-70009523D02*
X145925295Y-70057142D01*
X145925295Y-70057142D02*
X146068152Y-70057142D01*
X146068152Y-70057142D02*
X146163390Y-70009523D01*
X146163390Y-70009523D02*
X146211009Y-69961904D01*
X146211009Y-69961904D02*
X146258628Y-69866666D01*
X146258628Y-69866666D02*
X146258628Y-69485714D01*
X146734819Y-71009523D02*
X146734819Y-70438095D01*
X146734819Y-70723809D02*
X145734819Y-70723809D01*
X145734819Y-70723809D02*
X145877676Y-70628571D01*
X145877676Y-70628571D02*
X145972914Y-70533333D01*
X145972914Y-70533333D02*
X146020533Y-70438095D01*
X145734819Y-71628571D02*
X145734819Y-71723809D01*
X145734819Y-71723809D02*
X145782438Y-71819047D01*
X145782438Y-71819047D02*
X145830057Y-71866666D01*
X145830057Y-71866666D02*
X145925295Y-71914285D01*
X145925295Y-71914285D02*
X146115771Y-71961904D01*
X146115771Y-71961904D02*
X146353866Y-71961904D01*
X146353866Y-71961904D02*
X146544342Y-71914285D01*
X146544342Y-71914285D02*
X146639580Y-71866666D01*
X146639580Y-71866666D02*
X146687200Y-71819047D01*
X146687200Y-71819047D02*
X146734819Y-71723809D01*
X146734819Y-71723809D02*
X146734819Y-71628571D01*
X146734819Y-71628571D02*
X146687200Y-71533333D01*
X146687200Y-71533333D02*
X146639580Y-71485714D01*
X146639580Y-71485714D02*
X146544342Y-71438095D01*
X146544342Y-71438095D02*
X146353866Y-71390476D01*
X146353866Y-71390476D02*
X146115771Y-71390476D01*
X146115771Y-71390476D02*
X145925295Y-71438095D01*
X145925295Y-71438095D02*
X145830057Y-71485714D01*
X145830057Y-71485714D02*
X145782438Y-71533333D01*
X145782438Y-71533333D02*
X145734819Y-71628571D01*
X151466666Y-81874819D02*
X151799999Y-81398628D01*
X152038094Y-81874819D02*
X152038094Y-80874819D01*
X152038094Y-80874819D02*
X151657142Y-80874819D01*
X151657142Y-80874819D02*
X151561904Y-80922438D01*
X151561904Y-80922438D02*
X151514285Y-80970057D01*
X151514285Y-80970057D02*
X151466666Y-81065295D01*
X151466666Y-81065295D02*
X151466666Y-81208152D01*
X151466666Y-81208152D02*
X151514285Y-81303390D01*
X151514285Y-81303390D02*
X151561904Y-81351009D01*
X151561904Y-81351009D02*
X151657142Y-81398628D01*
X151657142Y-81398628D02*
X152038094Y-81398628D01*
X150990475Y-81874819D02*
X150799999Y-81874819D01*
X150799999Y-81874819D02*
X150704761Y-81827200D01*
X150704761Y-81827200D02*
X150657142Y-81779580D01*
X150657142Y-81779580D02*
X150561904Y-81636723D01*
X150561904Y-81636723D02*
X150514285Y-81446247D01*
X150514285Y-81446247D02*
X150514285Y-81065295D01*
X150514285Y-81065295D02*
X150561904Y-80970057D01*
X150561904Y-80970057D02*
X150609523Y-80922438D01*
X150609523Y-80922438D02*
X150704761Y-80874819D01*
X150704761Y-80874819D02*
X150895237Y-80874819D01*
X150895237Y-80874819D02*
X150990475Y-80922438D01*
X150990475Y-80922438D02*
X151038094Y-80970057D01*
X151038094Y-80970057D02*
X151085713Y-81065295D01*
X151085713Y-81065295D02*
X151085713Y-81303390D01*
X151085713Y-81303390D02*
X151038094Y-81398628D01*
X151038094Y-81398628D02*
X150990475Y-81446247D01*
X150990475Y-81446247D02*
X150895237Y-81493866D01*
X150895237Y-81493866D02*
X150704761Y-81493866D01*
X150704761Y-81493866D02*
X150609523Y-81446247D01*
X150609523Y-81446247D02*
X150561904Y-81398628D01*
X150561904Y-81398628D02*
X150514285Y-81303390D01*
D12*
%TO.C,R10*%
X147190000Y-71427064D02*
X147190000Y-69972936D01*
X149010000Y-71427064D02*
X149010000Y-69972936D01*
%TO.C,R9*%
X152027064Y-80510000D02*
X150572936Y-80510000D01*
X152027064Y-78690000D02*
X150572936Y-78690000D01*
D13*
%TO.C,J4*%
X146723615Y-75435000D02*
G75*
G02*
X145961615Y-75435000I-381000J0D01*
G01*
X145961615Y-75435000D02*
G75*
G02*
X146723615Y-75435000I381000J0D01*
G01*
D12*
%TO.C,R8*%
X151590000Y-65727064D02*
X151590000Y-64272936D01*
X153410000Y-65727064D02*
X153410000Y-64272936D01*
D14*
%TO.C,G\u002A\u002A\u002A*%
G36*
X163691247Y-69073085D02*
G01*
X163663457Y-69100875D01*
X163635668Y-69073085D01*
X163663457Y-69045295D01*
X163691247Y-69073085D01*
G37*
G36*
X162088365Y-63121532D02*
G01*
X162130550Y-63264989D01*
X162167936Y-63396924D01*
X162265538Y-63682968D01*
X162380896Y-63966344D01*
X162502066Y-64220962D01*
X162617104Y-64420731D01*
X162714064Y-64539562D01*
X162763752Y-64589844D01*
X162801969Y-64663831D01*
X162801944Y-64664428D01*
X162749213Y-64687686D01*
X162614775Y-64699999D01*
X162427166Y-64698710D01*
X162336701Y-64694544D01*
X162173902Y-64681578D01*
X162084399Y-64655487D01*
X162041095Y-64604172D01*
X162016893Y-64515536D01*
X161999208Y-64381419D01*
X161986502Y-64170222D01*
X161980421Y-63919739D01*
X161980882Y-63660025D01*
X161987804Y-63421134D01*
X162001102Y-63233121D01*
X162020697Y-63126039D01*
X162027120Y-63110808D01*
X162057260Y-63074403D01*
X162088365Y-63121532D01*
G37*
G36*
X159487436Y-67280532D02*
G01*
X159592451Y-67364967D01*
X159786742Y-67511382D01*
X160101259Y-67643037D01*
X160483217Y-67701370D01*
X160938630Y-67687136D01*
X161473511Y-67601089D01*
X161477163Y-67600319D01*
X161814951Y-67534994D01*
X162072034Y-67501933D01*
X162273801Y-67500998D01*
X162445640Y-67532054D01*
X162612939Y-67594963D01*
X162803297Y-67710752D01*
X163000145Y-67933593D01*
X163106573Y-68214052D01*
X163115304Y-68402684D01*
X163034665Y-68663229D01*
X162844045Y-68919408D01*
X162833468Y-68930304D01*
X162712174Y-69041384D01*
X162651943Y-69069709D01*
X162659302Y-69017364D01*
X162740780Y-68886433D01*
X162781739Y-68824177D01*
X162884459Y-68570239D01*
X162888805Y-68325532D01*
X162797239Y-68108267D01*
X162612229Y-67936658D01*
X162542632Y-67897000D01*
X162340280Y-67820434D01*
X162105925Y-67792046D01*
X161816275Y-67810602D01*
X161448040Y-67874864D01*
X161320446Y-67900025D01*
X161046282Y-67945689D01*
X160797037Y-67977155D01*
X160614341Y-67988735D01*
X160487325Y-67981187D01*
X160149965Y-67897470D01*
X159837879Y-67735483D01*
X159589830Y-67513219D01*
X159554216Y-67468794D01*
X159468130Y-67343105D01*
X159445933Y-67276798D01*
X159487436Y-67280532D01*
G37*
G36*
X154724104Y-68238716D02*
G01*
X154873697Y-68269041D01*
X155207893Y-68351328D01*
X155558767Y-68459144D01*
X155939428Y-68597764D01*
X156362984Y-68772463D01*
X156842542Y-68988515D01*
X157391212Y-69251193D01*
X158022101Y-69565774D01*
X158275783Y-69693769D01*
X158832057Y-69970373D01*
X159308967Y-70199444D01*
X159719301Y-70385280D01*
X160075843Y-70532183D01*
X160391382Y-70644451D01*
X160678702Y-70726385D01*
X160950591Y-70782285D01*
X161219835Y-70816451D01*
X161499220Y-70833182D01*
X161801532Y-70836780D01*
X161908736Y-70835703D01*
X162268882Y-70820103D01*
X162563761Y-70783348D01*
X162828960Y-70721444D01*
X162853715Y-70714340D01*
X163040991Y-70664298D01*
X163178362Y-70633932D01*
X163237610Y-70629586D01*
X163212187Y-70660974D01*
X163106823Y-70724819D01*
X162943316Y-70808932D01*
X162745100Y-70902307D01*
X162535610Y-70993936D01*
X162338283Y-71072815D01*
X162176552Y-71127934D01*
X162036305Y-71164944D01*
X161767108Y-71223955D01*
X161512913Y-71267752D01*
X161293123Y-71288182D01*
X160916347Y-71295041D01*
X160495636Y-71277783D01*
X160068371Y-71238227D01*
X159671928Y-71178191D01*
X159489195Y-71140673D01*
X159145133Y-71054062D01*
X158769864Y-70938501D01*
X158346623Y-70788235D01*
X157858645Y-70597514D01*
X157289164Y-70360583D01*
X156455216Y-70019804D01*
X155529391Y-69677410D01*
X154666340Y-69398797D01*
X153873638Y-69186382D01*
X153158862Y-69042582D01*
X153129417Y-69038004D01*
X152834975Y-69005592D01*
X152492481Y-68986237D01*
X152133620Y-68979979D01*
X151790075Y-68986858D01*
X151493529Y-69006915D01*
X151275667Y-69040189D01*
X151177967Y-69061789D01*
X151045044Y-69084490D01*
X150984473Y-69084838D01*
X150999846Y-69056656D01*
X151093720Y-68988432D01*
X151251225Y-68894268D01*
X151451442Y-68785444D01*
X151673452Y-68673239D01*
X151896336Y-68568934D01*
X152099173Y-68483806D01*
X152583682Y-68325058D01*
X153293185Y-68188445D01*
X154010902Y-68159268D01*
X154724104Y-68238716D01*
G37*
G36*
X165218438Y-66269316D02*
G01*
X165277088Y-66349193D01*
X165360917Y-66496488D01*
X165462597Y-66703696D01*
X165508590Y-66808211D01*
X165675479Y-67333748D01*
X165737052Y-67848952D01*
X165698180Y-68344134D01*
X165563735Y-68809605D01*
X165338587Y-69235675D01*
X165027607Y-69612655D01*
X164635668Y-69930855D01*
X164167640Y-70180586D01*
X163628395Y-70352158D01*
X163556358Y-70367087D01*
X163065643Y-70409580D01*
X162510479Y-70364085D01*
X161892990Y-70231273D01*
X161215301Y-70011815D01*
X160479537Y-69706384D01*
X159687822Y-69315648D01*
X158842279Y-68840280D01*
X158638935Y-68721188D01*
X158173265Y-68464384D01*
X157752925Y-68259732D01*
X157349045Y-68093823D01*
X156932757Y-67953246D01*
X156770701Y-67905361D01*
X156585579Y-67859200D01*
X156405403Y-67829039D01*
X156201157Y-67811561D01*
X155943820Y-67803448D01*
X155604376Y-67801384D01*
X155484717Y-67801544D01*
X155167053Y-67805567D01*
X154926666Y-67816920D01*
X154737820Y-67838179D01*
X154574775Y-67871920D01*
X154411795Y-67920718D01*
X154407899Y-67922016D01*
X154226043Y-67978799D01*
X154091226Y-68013924D01*
X154032379Y-68019833D01*
X154037578Y-67994296D01*
X154113795Y-67919577D01*
X154255178Y-67813170D01*
X154442085Y-67688021D01*
X154654874Y-67557079D01*
X154873904Y-67433288D01*
X155079535Y-67329596D01*
X155314227Y-67226555D01*
X155712094Y-67088125D01*
X156090455Y-67012070D01*
X156488804Y-66988840D01*
X156563816Y-66989454D01*
X156911845Y-67011209D01*
X157248121Y-67068755D01*
X157588470Y-67168411D01*
X157948716Y-67316499D01*
X158344687Y-67519341D01*
X158792206Y-67783257D01*
X159307100Y-68114570D01*
X159408562Y-68181562D01*
X160092584Y-68617437D01*
X160707923Y-68979024D01*
X161263179Y-69270210D01*
X161766953Y-69494884D01*
X162227847Y-69656931D01*
X162654460Y-69760239D01*
X163055393Y-69808697D01*
X163356923Y-69817210D01*
X163627801Y-69799081D01*
X163863615Y-69748878D01*
X164036850Y-69688488D01*
X164427243Y-69473404D01*
X164774123Y-69169435D01*
X165063375Y-68790507D01*
X165280883Y-68350547D01*
X165339992Y-68127906D01*
X165380174Y-67806159D01*
X165392183Y-67445850D01*
X165376378Y-67083528D01*
X165333118Y-66755744D01*
X165262759Y-66499049D01*
X165205998Y-66341838D01*
X165192299Y-66264362D01*
X165218438Y-66269316D01*
G37*
G36*
X164719832Y-65849453D02*
G01*
X164832980Y-66011272D01*
X164995433Y-66301567D01*
X165100141Y-66571271D01*
X165153395Y-66833409D01*
X165161483Y-67101007D01*
X165130695Y-67387090D01*
X165111949Y-67491655D01*
X164970071Y-67963170D01*
X164747032Y-68361132D01*
X164444627Y-68682948D01*
X164064656Y-68926023D01*
X163929383Y-68989262D01*
X163813486Y-69033402D01*
X163792900Y-69020809D01*
X163867550Y-68951199D01*
X164037359Y-68824292D01*
X164125407Y-68757561D01*
X164444345Y-68435159D01*
X164674371Y-68058169D01*
X164812178Y-67640542D01*
X164854463Y-67196231D01*
X164797920Y-66739187D01*
X164639244Y-66283364D01*
X164626013Y-66255301D01*
X164541939Y-66087100D01*
X164477076Y-65973980D01*
X164444537Y-65939125D01*
X164440164Y-65963340D01*
X164449992Y-66070873D01*
X164478753Y-66229832D01*
X164507717Y-66467873D01*
X164471345Y-66757135D01*
X164436699Y-66869043D01*
X164363382Y-67044565D01*
X164277644Y-67208472D01*
X164196230Y-67329792D01*
X164135886Y-67377554D01*
X164126307Y-67354700D01*
X164119631Y-67248953D01*
X164123420Y-67086139D01*
X164138743Y-66794311D01*
X163996300Y-67081503D01*
X163919604Y-67211160D01*
X163801289Y-67372230D01*
X163668361Y-67528161D01*
X163540535Y-67657561D01*
X163437530Y-67739037D01*
X163379060Y-67751197D01*
X163378233Y-67691861D01*
X163411793Y-67576519D01*
X163415666Y-67565845D01*
X163453411Y-67399881D01*
X163468928Y-67214080D01*
X163468928Y-67001918D01*
X163253147Y-67217698D01*
X163223600Y-67246704D01*
X163080480Y-67369581D01*
X162977618Y-67428735D01*
X162927839Y-67419252D01*
X162943968Y-67336214D01*
X162957293Y-67304120D01*
X163011815Y-67075764D01*
X162998395Y-66868274D01*
X162918459Y-66716270D01*
X162860706Y-66667522D01*
X162720301Y-66611640D01*
X162541961Y-66621353D01*
X162310174Y-66698883D01*
X162009428Y-66846452D01*
X161611080Y-67043456D01*
X161129533Y-67233031D01*
X160686755Y-67352234D01*
X160300875Y-67395241D01*
X160218890Y-67394599D01*
X159920776Y-67358269D01*
X159684103Y-67258726D01*
X159477670Y-67084182D01*
X159349214Y-66946643D01*
X159702354Y-66924157D01*
X159844295Y-66910712D01*
X160041716Y-66866120D01*
X160212351Y-66780871D01*
X160375655Y-66640442D01*
X160551081Y-66430308D01*
X160758084Y-66135944D01*
X160758406Y-66135468D01*
X161190153Y-66135468D01*
X161191998Y-66167819D01*
X161219109Y-66204805D01*
X161289426Y-66166722D01*
X161416748Y-66048258D01*
X161444391Y-66019879D01*
X161549487Y-65887200D01*
X161560998Y-65849453D01*
X164358206Y-65849453D01*
X164385996Y-65877243D01*
X164413786Y-65849453D01*
X164385996Y-65821663D01*
X164358206Y-65849453D01*
X161560998Y-65849453D01*
X161576553Y-65798442D01*
X161520979Y-65766083D01*
X161509007Y-65767727D01*
X161420597Y-65822659D01*
X161315279Y-65927612D01*
X161227111Y-66044558D01*
X161190153Y-66135468D01*
X160758406Y-66135468D01*
X160794980Y-66081458D01*
X161094532Y-65671499D01*
X161382371Y-65333918D01*
X161648899Y-65079096D01*
X161884521Y-64917412D01*
X161902294Y-64908578D01*
X162173323Y-64822444D01*
X162540174Y-64776958D01*
X162596100Y-64773320D01*
X162784682Y-64755907D01*
X162912375Y-64735813D01*
X162954092Y-64716691D01*
X162847130Y-64501646D01*
X162780237Y-64292024D01*
X162754225Y-64061485D01*
X162760134Y-63766104D01*
X162764038Y-63704353D01*
X162787756Y-63465369D01*
X162820533Y-63259615D01*
X162856503Y-63126039D01*
X162926773Y-62959300D01*
X163003359Y-63284723D01*
X163051728Y-63457991D01*
X163245024Y-63914732D01*
X163533172Y-64385081D01*
X163908104Y-64855029D01*
X163936262Y-64886583D01*
X164309684Y-65316805D01*
X164606493Y-65687360D01*
X164684164Y-65798442D01*
X164719832Y-65849453D01*
G37*
D15*
%TO.C,LED1*%
X157487373Y-57876801D02*
X155932627Y-57876801D01*
X157487373Y-60823201D02*
X155932627Y-60823201D01*
D12*
%TO.C,R7*%
X147190000Y-65727064D02*
X147190000Y-64272936D01*
X149010000Y-65727064D02*
X149010000Y-64272936D01*
%TO.C,U2*%
X159490000Y-78910000D02*
X159490000Y-75150000D01*
X160750000Y-78910000D02*
X159490000Y-78910000D01*
X165050000Y-78910000D02*
X166310000Y-78910000D01*
X166310000Y-78910000D02*
X166310000Y-75150000D01*
X159590000Y-73870000D02*
X159260000Y-74110000D01*
X159260000Y-73630000D01*
X159590000Y-73870000D01*
G36*
X159590000Y-73870000D02*
G01*
X159260000Y-74110000D01*
X159260000Y-73630000D01*
X159590000Y-73870000D01*
G37*
%TO.C,R1*%
X147872936Y-59490000D02*
X149327064Y-59490000D01*
X147872936Y-61310000D02*
X149327064Y-61310000D01*
%TO.C,R4*%
X163072936Y-58390000D02*
X164527064Y-58390000D01*
X163072936Y-60210000D02*
X164527064Y-60210000D01*
%TD*%
M02*
