%TF.GenerationSoftware,KiCad,Pcbnew,8.0.4*%
%TF.CreationDate,2024-08-01T02:14:53-04:00*%
%TF.ProjectId,esp32-c3-wroom-socket,65737033-322d-4633-932d-77726f6f6d2d,rev?*%
%TF.SameCoordinates,Original*%
%TF.FileFunction,Soldermask,Top*%
%TF.FilePolarity,Negative*%
%FSLAX46Y46*%
G04 Gerber Fmt 4.6, Leading zero omitted, Abs format (unit mm)*
G04 Created by KiCad (PCBNEW 8.0.4) date 2024-08-01 02:14:53*
%MOMM*%
%LPD*%
G01*
G04 APERTURE LIST*
G04 Aperture macros list*
%AMRoundRect*
0 Rectangle with rounded corners*
0 $1 Rounding radius*
0 $2 $3 $4 $5 $6 $7 $8 $9 X,Y pos of 4 corners*
0 Add a 4 corners polygon primitive as box body*
4,1,4,$2,$3,$4,$5,$6,$7,$8,$9,$2,$3,0*
0 Add four circle primitives for the rounded corners*
1,1,$1+$1,$2,$3*
1,1,$1+$1,$4,$5*
1,1,$1+$1,$6,$7*
1,1,$1+$1,$8,$9*
0 Add four rect primitives between the rounded corners*
20,1,$1+$1,$2,$3,$4,$5,0*
20,1,$1+$1,$4,$5,$6,$7,0*
20,1,$1+$1,$6,$7,$8,$9,0*
20,1,$1+$1,$8,$9,$2,$3,0*%
%AMOutline5P*
0 Free polygon, 5 corners , with rotation*
0 The origin of the aperture is its center*
0 number of corners: always 5*
0 $1 to $10 corner X, Y*
0 $11 Rotation angle, in degrees counterclockwise*
0 create outline with 5 corners*
4,1,5,$1,$2,$3,$4,$5,$6,$7,$8,$9,$10,$1,$2,$11*%
%AMOutline6P*
0 Free polygon, 6 corners , with rotation*
0 The origin of the aperture is its center*
0 number of corners: always 6*
0 $1 to $12 corner X, Y*
0 $13 Rotation angle, in degrees counterclockwise*
0 create outline with 6 corners*
4,1,6,$1,$2,$3,$4,$5,$6,$7,$8,$9,$10,$11,$12,$1,$2,$13*%
%AMOutline7P*
0 Free polygon, 7 corners , with rotation*
0 The origin of the aperture is its center*
0 number of corners: always 7*
0 $1 to $14 corner X, Y*
0 $15 Rotation angle, in degrees counterclockwise*
0 create outline with 7 corners*
4,1,7,$1,$2,$3,$4,$5,$6,$7,$8,$9,$10,$11,$12,$13,$14,$1,$2,$15*%
%AMOutline8P*
0 Free polygon, 8 corners , with rotation*
0 The origin of the aperture is its center*
0 number of corners: always 8*
0 $1 to $16 corner X, Y*
0 $17 Rotation angle, in degrees counterclockwise*
0 create outline with 8 corners*
4,1,8,$1,$2,$3,$4,$5,$6,$7,$8,$9,$10,$11,$12,$13,$14,$15,$16,$1,$2,$17*%
G04 Aperture macros list end*
%ADD10RoundRect,0.102000X-0.350000X-0.350000X0.350000X-0.350000X0.350000X0.350000X-0.350000X0.350000X0*%
%ADD11RoundRect,0.102000X-0.750000X-0.450000X0.750000X-0.450000X0.750000X0.450000X-0.750000X0.450000X0*%
%ADD12R,2.250000X2.250000*%
%ADD13O,2.250000X2.250000*%
%ADD14C,0.660400*%
%ADD15O,1.117600X1.905000*%
%ADD16O,1.117600X2.616200*%
%ADD17R,1.700000X1.700000*%
%ADD18C,1.700000*%
%ADD19Outline6P,-0.850000X0.340000X-0.340000X0.850000X0.850000X0.850000X0.850000X-0.340000X0.340000X-0.850000X-0.850000X-0.850000X0.000000*%
G04 APERTURE END LIST*
D10*
%TO.C,U1*%
X159000000Y-65500000D03*
X157900000Y-65500000D03*
X156800000Y-65500000D03*
X159000000Y-64400000D03*
X157900000Y-64400000D03*
X156800000Y-64400000D03*
X159000000Y-63300000D03*
X157900000Y-63300000D03*
X156800000Y-63300000D03*
D11*
X165690000Y-58200000D03*
X165690000Y-59700000D03*
X165690000Y-61200000D03*
X165690000Y-62700000D03*
X165690000Y-64200000D03*
X165690000Y-65700000D03*
X165690000Y-67200000D03*
X165690000Y-68700000D03*
X165690000Y-70200000D03*
X148190000Y-70200000D03*
X148190000Y-68700000D03*
X148190000Y-67200000D03*
X148190000Y-65700000D03*
X148190000Y-64200000D03*
X148190000Y-62700000D03*
X148190000Y-61200000D03*
X148190000Y-59700000D03*
X148190000Y-58200000D03*
%TD*%
D12*
%TO.C,SW1*%
X160100000Y-80000000D03*
D13*
X160100000Y-73500000D03*
%TD*%
D14*
%TO.C,J4*%
X148600015Y-75435000D03*
X149450016Y-75435000D03*
X150300014Y-75435000D03*
X151150015Y-75435000D03*
X152000016Y-75435000D03*
X152850017Y-75435000D03*
X153700015Y-75435000D03*
X154550016Y-75435000D03*
X154550016Y-76785000D03*
X153700015Y-76785000D03*
X152850017Y-76785000D03*
X152000016Y-76785000D03*
X151150015Y-76785000D03*
X150300014Y-76785000D03*
X149450016Y-76785000D03*
X148600015Y-76785000D03*
D15*
X147250030Y-79800000D03*
X155900000Y-79800000D03*
D16*
X147250015Y-76415001D03*
X155900000Y-76415000D03*
%TD*%
D17*
%TO.C,J2*%
X144010000Y-59480000D03*
D18*
X144010000Y-62020000D03*
X144010000Y-64560000D03*
X144010000Y-67100000D03*
X144010000Y-69640000D03*
X144010000Y-72180000D03*
X144010000Y-74720000D03*
X144010000Y-77260000D03*
D19*
X144010000Y-79800000D03*
D18*
X169410000Y-79800000D03*
X169410000Y-77260000D03*
X169410000Y-74720000D03*
X169410000Y-72180000D03*
X169410000Y-69640000D03*
X169410000Y-67100000D03*
X169410000Y-64560000D03*
X169410000Y-62020000D03*
X169410000Y-59480000D03*
%TD*%
D12*
%TO.C,SW2*%
X164900000Y-80000000D03*
D13*
X164900000Y-73500000D03*
%TD*%
M02*
