G04 #@! TF.GenerationSoftware,KiCad,Pcbnew,8.0.4*
G04 #@! TF.CreationDate,2024-08-17T23:15:17-04:00*
G04 #@! TF.ProjectId,PCIexpress_x4_low,50434965-7870-4726-9573-735f78345f6c,rev?*
G04 #@! TF.SameCoordinates,Original*
G04 #@! TF.FileFunction,Soldermask,Bot*
G04 #@! TF.FilePolarity,Negative*
%FSLAX46Y46*%
G04 Gerber Fmt 4.6, Leading zero omitted, Abs format (unit mm)*
G04 Created by KiCad (PCBNEW 8.0.4) date 2024-08-17 23:15:17*
%MOMM*%
%LPD*%
G01*
G04 APERTURE LIST*
G04 APERTURE END LIST*
G36*
X143899854Y-188528075D02*
G01*
X143916572Y-188531629D01*
X143921249Y-188535027D01*
X143936717Y-188540053D01*
X143946276Y-188553210D01*
X143950956Y-188556610D01*
X143959504Y-188571416D01*
X143974861Y-188592553D01*
X143980000Y-188625000D01*
X143980000Y-194125000D01*
X143971922Y-194149860D01*
X143968370Y-194166572D01*
X143964973Y-194171246D01*
X143959947Y-194186717D01*
X143946787Y-194196277D01*
X143943389Y-194200956D01*
X143928586Y-194209501D01*
X143907447Y-194224861D01*
X143875000Y-194230000D01*
X143865163Y-194230000D01*
X109388139Y-194230000D01*
X109375000Y-194230000D01*
X109350141Y-194221922D01*
X109333427Y-194218370D01*
X109328751Y-194214972D01*
X109313283Y-194209947D01*
X109303723Y-194196789D01*
X109299043Y-194193389D01*
X109290493Y-194178580D01*
X109275139Y-194157447D01*
X109270000Y-194125000D01*
X109270000Y-188625000D01*
X109278075Y-188600147D01*
X109281629Y-188583427D01*
X109285027Y-188578748D01*
X109290053Y-188563283D01*
X109303208Y-188553724D01*
X109306610Y-188549043D01*
X109321423Y-188540490D01*
X109342553Y-188525139D01*
X109375000Y-188520000D01*
X143875000Y-188520000D01*
X143899854Y-188528075D01*
G37*
G36*
X105824056Y-186125000D02*
G01*
X105825000Y-186125000D01*
X105825000Y-186125406D01*
X105827890Y-186128742D01*
X105830000Y-186138437D01*
X105830000Y-189607026D01*
X105825000Y-189624053D01*
X105825000Y-189625000D01*
X105824593Y-189625000D01*
X105821257Y-189627890D01*
X105811562Y-189630000D01*
X97842973Y-189630000D01*
X97825946Y-189625000D01*
X97825000Y-189625000D01*
X97825000Y-189624594D01*
X97822109Y-189621257D01*
X97820000Y-189611562D01*
X97820000Y-186142973D01*
X97825000Y-186125942D01*
X97825000Y-186125000D01*
X97825405Y-186125000D01*
X97828742Y-186122109D01*
X97838438Y-186120000D01*
X105807027Y-186120000D01*
X105824056Y-186125000D01*
G37*
G36*
X127169694Y-183431646D02*
G01*
X127214126Y-183438684D01*
X127219923Y-183441637D01*
X127234479Y-183444533D01*
X127262973Y-183463572D01*
X127288887Y-183476776D01*
X127301278Y-183489167D01*
X127321992Y-183503008D01*
X127335832Y-183523721D01*
X127348223Y-183536112D01*
X127361425Y-183562023D01*
X127380467Y-183590521D01*
X127383362Y-183605078D01*
X127386315Y-183610873D01*
X127393349Y-183655284D01*
X127401000Y-183693750D01*
X127401000Y-184131250D01*
X127393348Y-184169718D01*
X127386315Y-184214126D01*
X127383362Y-184219919D01*
X127380467Y-184234479D01*
X127361423Y-184262979D01*
X127348223Y-184288887D01*
X127335834Y-184301275D01*
X127321992Y-184321992D01*
X127301275Y-184335834D01*
X127288887Y-184348223D01*
X127262979Y-184361423D01*
X127234479Y-184380467D01*
X127219919Y-184383362D01*
X127214126Y-184386315D01*
X127169718Y-184393348D01*
X127131250Y-184401000D01*
X126618750Y-184401000D01*
X126580284Y-184393349D01*
X126535873Y-184386315D01*
X126530078Y-184383362D01*
X126515521Y-184380467D01*
X126487023Y-184361425D01*
X126461112Y-184348223D01*
X126448721Y-184335832D01*
X126428008Y-184321992D01*
X126414167Y-184301278D01*
X126401776Y-184288887D01*
X126388572Y-184262973D01*
X126369533Y-184234479D01*
X126366637Y-184219923D01*
X126363684Y-184214126D01*
X126356646Y-184169694D01*
X126349000Y-184131250D01*
X126349000Y-183693750D01*
X126356646Y-183655309D01*
X126363684Y-183610873D01*
X126366638Y-183605075D01*
X126369533Y-183590521D01*
X126388570Y-183562029D01*
X126401776Y-183536112D01*
X126414169Y-183523718D01*
X126428008Y-183503008D01*
X126448718Y-183489169D01*
X126461112Y-183476776D01*
X126487029Y-183463570D01*
X126515521Y-183444533D01*
X126530075Y-183441638D01*
X126535873Y-183438684D01*
X126580309Y-183431646D01*
X126618750Y-183424000D01*
X127131250Y-183424000D01*
X127169694Y-183431646D01*
G37*
G36*
X128669694Y-183431646D02*
G01*
X128714126Y-183438684D01*
X128719923Y-183441637D01*
X128734479Y-183444533D01*
X128762973Y-183463572D01*
X128788887Y-183476776D01*
X128801278Y-183489167D01*
X128821992Y-183503008D01*
X128835832Y-183523721D01*
X128848223Y-183536112D01*
X128861425Y-183562023D01*
X128880467Y-183590521D01*
X128883362Y-183605078D01*
X128886315Y-183610873D01*
X128893349Y-183655284D01*
X128901000Y-183693750D01*
X128901000Y-184131250D01*
X128893348Y-184169718D01*
X128886315Y-184214126D01*
X128883362Y-184219919D01*
X128880467Y-184234479D01*
X128861423Y-184262979D01*
X128848223Y-184288887D01*
X128835834Y-184301275D01*
X128821992Y-184321992D01*
X128801275Y-184335834D01*
X128788887Y-184348223D01*
X128762979Y-184361423D01*
X128734479Y-184380467D01*
X128719919Y-184383362D01*
X128714126Y-184386315D01*
X128669718Y-184393348D01*
X128631250Y-184401000D01*
X128118750Y-184401000D01*
X128080284Y-184393349D01*
X128035873Y-184386315D01*
X128030078Y-184383362D01*
X128015521Y-184380467D01*
X127987023Y-184361425D01*
X127961112Y-184348223D01*
X127948721Y-184335832D01*
X127928008Y-184321992D01*
X127914167Y-184301278D01*
X127901776Y-184288887D01*
X127888572Y-184262973D01*
X127869533Y-184234479D01*
X127866637Y-184219923D01*
X127863684Y-184214126D01*
X127856646Y-184169694D01*
X127849000Y-184131250D01*
X127849000Y-183693750D01*
X127856646Y-183655309D01*
X127863684Y-183610873D01*
X127866638Y-183605075D01*
X127869533Y-183590521D01*
X127888570Y-183562029D01*
X127901776Y-183536112D01*
X127914169Y-183523718D01*
X127928008Y-183503008D01*
X127948718Y-183489169D01*
X127961112Y-183476776D01*
X127987029Y-183463570D01*
X128015521Y-183444533D01*
X128030075Y-183441638D01*
X128035873Y-183438684D01*
X128080309Y-183431646D01*
X128118750Y-183424000D01*
X128631250Y-183424000D01*
X128669694Y-183431646D01*
G37*
G36*
X132169694Y-183431646D02*
G01*
X132214126Y-183438684D01*
X132219923Y-183441637D01*
X132234479Y-183444533D01*
X132262973Y-183463572D01*
X132288887Y-183476776D01*
X132301278Y-183489167D01*
X132321992Y-183503008D01*
X132335832Y-183523721D01*
X132348223Y-183536112D01*
X132361425Y-183562023D01*
X132380467Y-183590521D01*
X132383362Y-183605078D01*
X132386315Y-183610873D01*
X132393349Y-183655284D01*
X132401000Y-183693750D01*
X132401000Y-184131250D01*
X132393348Y-184169718D01*
X132386315Y-184214126D01*
X132383362Y-184219919D01*
X132380467Y-184234479D01*
X132361423Y-184262979D01*
X132348223Y-184288887D01*
X132335834Y-184301275D01*
X132321992Y-184321992D01*
X132301275Y-184335834D01*
X132288887Y-184348223D01*
X132262979Y-184361423D01*
X132234479Y-184380467D01*
X132219919Y-184383362D01*
X132214126Y-184386315D01*
X132169718Y-184393348D01*
X132131250Y-184401000D01*
X131618750Y-184401000D01*
X131580284Y-184393349D01*
X131535873Y-184386315D01*
X131530078Y-184383362D01*
X131515521Y-184380467D01*
X131487023Y-184361425D01*
X131461112Y-184348223D01*
X131448721Y-184335832D01*
X131428008Y-184321992D01*
X131414167Y-184301278D01*
X131401776Y-184288887D01*
X131388572Y-184262973D01*
X131369533Y-184234479D01*
X131366637Y-184219923D01*
X131363684Y-184214126D01*
X131356646Y-184169694D01*
X131349000Y-184131250D01*
X131349000Y-183693750D01*
X131356646Y-183655309D01*
X131363684Y-183610873D01*
X131366638Y-183605075D01*
X131369533Y-183590521D01*
X131388570Y-183562029D01*
X131401776Y-183536112D01*
X131414169Y-183523718D01*
X131428008Y-183503008D01*
X131448718Y-183489169D01*
X131461112Y-183476776D01*
X131487029Y-183463570D01*
X131515521Y-183444533D01*
X131530075Y-183441638D01*
X131535873Y-183438684D01*
X131580309Y-183431646D01*
X131618750Y-183424000D01*
X132131250Y-183424000D01*
X132169694Y-183431646D01*
G37*
G36*
X133669694Y-183431646D02*
G01*
X133714126Y-183438684D01*
X133719923Y-183441637D01*
X133734479Y-183444533D01*
X133762973Y-183463572D01*
X133788887Y-183476776D01*
X133801278Y-183489167D01*
X133821992Y-183503008D01*
X133835832Y-183523721D01*
X133848223Y-183536112D01*
X133861425Y-183562023D01*
X133880467Y-183590521D01*
X133883362Y-183605078D01*
X133886315Y-183610873D01*
X133893349Y-183655284D01*
X133901000Y-183693750D01*
X133901000Y-184131250D01*
X133893348Y-184169718D01*
X133886315Y-184214126D01*
X133883362Y-184219919D01*
X133880467Y-184234479D01*
X133861423Y-184262979D01*
X133848223Y-184288887D01*
X133835834Y-184301275D01*
X133821992Y-184321992D01*
X133801275Y-184335834D01*
X133788887Y-184348223D01*
X133762979Y-184361423D01*
X133734479Y-184380467D01*
X133719919Y-184383362D01*
X133714126Y-184386315D01*
X133669718Y-184393348D01*
X133631250Y-184401000D01*
X133118750Y-184401000D01*
X133080284Y-184393349D01*
X133035873Y-184386315D01*
X133030078Y-184383362D01*
X133015521Y-184380467D01*
X132987023Y-184361425D01*
X132961112Y-184348223D01*
X132948721Y-184335832D01*
X132928008Y-184321992D01*
X132914167Y-184301278D01*
X132901776Y-184288887D01*
X132888572Y-184262973D01*
X132869533Y-184234479D01*
X132866637Y-184219923D01*
X132863684Y-184214126D01*
X132856646Y-184169694D01*
X132849000Y-184131250D01*
X132849000Y-183693750D01*
X132856646Y-183655309D01*
X132863684Y-183610873D01*
X132866638Y-183605075D01*
X132869533Y-183590521D01*
X132888570Y-183562029D01*
X132901776Y-183536112D01*
X132914169Y-183523718D01*
X132928008Y-183503008D01*
X132948718Y-183489169D01*
X132961112Y-183476776D01*
X132987029Y-183463570D01*
X133015521Y-183444533D01*
X133030075Y-183441638D01*
X133035873Y-183438684D01*
X133080309Y-183431646D01*
X133118750Y-183424000D01*
X133631250Y-183424000D01*
X133669694Y-183431646D01*
G37*
G36*
X136169694Y-183431646D02*
G01*
X136214126Y-183438684D01*
X136219923Y-183441637D01*
X136234479Y-183444533D01*
X136262973Y-183463572D01*
X136288887Y-183476776D01*
X136301278Y-183489167D01*
X136321992Y-183503008D01*
X136335832Y-183523721D01*
X136348223Y-183536112D01*
X136361425Y-183562023D01*
X136380467Y-183590521D01*
X136383362Y-183605078D01*
X136386315Y-183610873D01*
X136393349Y-183655284D01*
X136401000Y-183693750D01*
X136401000Y-184131250D01*
X136393348Y-184169718D01*
X136386315Y-184214126D01*
X136383362Y-184219919D01*
X136380467Y-184234479D01*
X136361423Y-184262979D01*
X136348223Y-184288887D01*
X136335834Y-184301275D01*
X136321992Y-184321992D01*
X136301275Y-184335834D01*
X136288887Y-184348223D01*
X136262979Y-184361423D01*
X136234479Y-184380467D01*
X136219919Y-184383362D01*
X136214126Y-184386315D01*
X136169718Y-184393348D01*
X136131250Y-184401000D01*
X135618750Y-184401000D01*
X135580284Y-184393349D01*
X135535873Y-184386315D01*
X135530078Y-184383362D01*
X135515521Y-184380467D01*
X135487023Y-184361425D01*
X135461112Y-184348223D01*
X135448721Y-184335832D01*
X135428008Y-184321992D01*
X135414167Y-184301278D01*
X135401776Y-184288887D01*
X135388572Y-184262973D01*
X135369533Y-184234479D01*
X135366637Y-184219923D01*
X135363684Y-184214126D01*
X135356646Y-184169694D01*
X135349000Y-184131250D01*
X135349000Y-183693750D01*
X135356646Y-183655309D01*
X135363684Y-183610873D01*
X135366638Y-183605075D01*
X135369533Y-183590521D01*
X135388570Y-183562029D01*
X135401776Y-183536112D01*
X135414169Y-183523718D01*
X135428008Y-183503008D01*
X135448718Y-183489169D01*
X135461112Y-183476776D01*
X135487029Y-183463570D01*
X135515521Y-183444533D01*
X135530075Y-183441638D01*
X135535873Y-183438684D01*
X135580309Y-183431646D01*
X135618750Y-183424000D01*
X136131250Y-183424000D01*
X136169694Y-183431646D01*
G37*
G36*
X137669694Y-183431646D02*
G01*
X137714126Y-183438684D01*
X137719923Y-183441637D01*
X137734479Y-183444533D01*
X137762973Y-183463572D01*
X137788887Y-183476776D01*
X137801278Y-183489167D01*
X137821992Y-183503008D01*
X137835832Y-183523721D01*
X137848223Y-183536112D01*
X137861425Y-183562023D01*
X137880467Y-183590521D01*
X137883362Y-183605078D01*
X137886315Y-183610873D01*
X137893349Y-183655284D01*
X137901000Y-183693750D01*
X137901000Y-184131250D01*
X137893348Y-184169718D01*
X137886315Y-184214126D01*
X137883362Y-184219919D01*
X137880467Y-184234479D01*
X137861423Y-184262979D01*
X137848223Y-184288887D01*
X137835834Y-184301275D01*
X137821992Y-184321992D01*
X137801275Y-184335834D01*
X137788887Y-184348223D01*
X137762979Y-184361423D01*
X137734479Y-184380467D01*
X137719919Y-184383362D01*
X137714126Y-184386315D01*
X137669718Y-184393348D01*
X137631250Y-184401000D01*
X137118750Y-184401000D01*
X137080284Y-184393349D01*
X137035873Y-184386315D01*
X137030078Y-184383362D01*
X137015521Y-184380467D01*
X136987023Y-184361425D01*
X136961112Y-184348223D01*
X136948721Y-184335832D01*
X136928008Y-184321992D01*
X136914167Y-184301278D01*
X136901776Y-184288887D01*
X136888572Y-184262973D01*
X136869533Y-184234479D01*
X136866637Y-184219923D01*
X136863684Y-184214126D01*
X136856646Y-184169694D01*
X136849000Y-184131250D01*
X136849000Y-183693750D01*
X136856646Y-183655309D01*
X136863684Y-183610873D01*
X136866638Y-183605075D01*
X136869533Y-183590521D01*
X136888570Y-183562029D01*
X136901776Y-183536112D01*
X136914169Y-183523718D01*
X136928008Y-183503008D01*
X136948718Y-183489169D01*
X136961112Y-183476776D01*
X136987029Y-183463570D01*
X137015521Y-183444533D01*
X137030075Y-183441638D01*
X137035873Y-183438684D01*
X137080309Y-183431646D01*
X137118750Y-183424000D01*
X137631250Y-183424000D01*
X137669694Y-183431646D01*
G37*
G36*
X140169694Y-183431646D02*
G01*
X140214126Y-183438684D01*
X140219923Y-183441637D01*
X140234479Y-183444533D01*
X140262973Y-183463572D01*
X140288887Y-183476776D01*
X140301278Y-183489167D01*
X140321992Y-183503008D01*
X140335832Y-183523721D01*
X140348223Y-183536112D01*
X140361425Y-183562023D01*
X140380467Y-183590521D01*
X140383362Y-183605078D01*
X140386315Y-183610873D01*
X140393349Y-183655284D01*
X140401000Y-183693750D01*
X140401000Y-184131250D01*
X140393348Y-184169718D01*
X140386315Y-184214126D01*
X140383362Y-184219919D01*
X140380467Y-184234479D01*
X140361423Y-184262979D01*
X140348223Y-184288887D01*
X140335834Y-184301275D01*
X140321992Y-184321992D01*
X140301275Y-184335834D01*
X140288887Y-184348223D01*
X140262979Y-184361423D01*
X140234479Y-184380467D01*
X140219919Y-184383362D01*
X140214126Y-184386315D01*
X140169718Y-184393348D01*
X140131250Y-184401000D01*
X139618750Y-184401000D01*
X139580284Y-184393349D01*
X139535873Y-184386315D01*
X139530078Y-184383362D01*
X139515521Y-184380467D01*
X139487023Y-184361425D01*
X139461112Y-184348223D01*
X139448721Y-184335832D01*
X139428008Y-184321992D01*
X139414167Y-184301278D01*
X139401776Y-184288887D01*
X139388572Y-184262973D01*
X139369533Y-184234479D01*
X139366637Y-184219923D01*
X139363684Y-184214126D01*
X139356646Y-184169694D01*
X139349000Y-184131250D01*
X139349000Y-183693750D01*
X139356646Y-183655309D01*
X139363684Y-183610873D01*
X139366638Y-183605075D01*
X139369533Y-183590521D01*
X139388570Y-183562029D01*
X139401776Y-183536112D01*
X139414169Y-183523718D01*
X139428008Y-183503008D01*
X139448718Y-183489169D01*
X139461112Y-183476776D01*
X139487029Y-183463570D01*
X139515521Y-183444533D01*
X139530075Y-183441638D01*
X139535873Y-183438684D01*
X139580309Y-183431646D01*
X139618750Y-183424000D01*
X140131250Y-183424000D01*
X140169694Y-183431646D01*
G37*
G36*
X141669694Y-183431646D02*
G01*
X141714126Y-183438684D01*
X141719923Y-183441637D01*
X141734479Y-183444533D01*
X141762973Y-183463572D01*
X141788887Y-183476776D01*
X141801278Y-183489167D01*
X141821992Y-183503008D01*
X141835832Y-183523721D01*
X141848223Y-183536112D01*
X141861425Y-183562023D01*
X141880467Y-183590521D01*
X141883362Y-183605078D01*
X141886315Y-183610873D01*
X141893349Y-183655284D01*
X141901000Y-183693750D01*
X141901000Y-184131250D01*
X141893348Y-184169718D01*
X141886315Y-184214126D01*
X141883362Y-184219919D01*
X141880467Y-184234479D01*
X141861423Y-184262979D01*
X141848223Y-184288887D01*
X141835834Y-184301275D01*
X141821992Y-184321992D01*
X141801275Y-184335834D01*
X141788887Y-184348223D01*
X141762979Y-184361423D01*
X141734479Y-184380467D01*
X141719919Y-184383362D01*
X141714126Y-184386315D01*
X141669718Y-184393348D01*
X141631250Y-184401000D01*
X141118750Y-184401000D01*
X141080284Y-184393349D01*
X141035873Y-184386315D01*
X141030078Y-184383362D01*
X141015521Y-184380467D01*
X140987023Y-184361425D01*
X140961112Y-184348223D01*
X140948721Y-184335832D01*
X140928008Y-184321992D01*
X140914167Y-184301278D01*
X140901776Y-184288887D01*
X140888572Y-184262973D01*
X140869533Y-184234479D01*
X140866637Y-184219923D01*
X140863684Y-184214126D01*
X140856646Y-184169694D01*
X140849000Y-184131250D01*
X140849000Y-183693750D01*
X140856646Y-183655309D01*
X140863684Y-183610873D01*
X140866638Y-183605075D01*
X140869533Y-183590521D01*
X140888570Y-183562029D01*
X140901776Y-183536112D01*
X140914169Y-183523718D01*
X140928008Y-183503008D01*
X140948718Y-183489169D01*
X140961112Y-183476776D01*
X140987029Y-183463570D01*
X141015521Y-183444533D01*
X141030075Y-183441638D01*
X141035873Y-183438684D01*
X141080309Y-183431646D01*
X141118750Y-183424000D01*
X141631250Y-183424000D01*
X141669694Y-183431646D01*
G37*
G36*
X127169694Y-181856646D02*
G01*
X127214126Y-181863684D01*
X127219923Y-181866637D01*
X127234479Y-181869533D01*
X127262973Y-181888572D01*
X127288887Y-181901776D01*
X127301278Y-181914167D01*
X127321992Y-181928008D01*
X127335832Y-181948721D01*
X127348223Y-181961112D01*
X127361425Y-181987023D01*
X127380467Y-182015521D01*
X127383362Y-182030078D01*
X127386315Y-182035873D01*
X127393349Y-182080284D01*
X127401000Y-182118750D01*
X127401000Y-182556250D01*
X127393348Y-182594718D01*
X127386315Y-182639126D01*
X127383362Y-182644919D01*
X127380467Y-182659479D01*
X127361423Y-182687979D01*
X127348223Y-182713887D01*
X127335834Y-182726275D01*
X127321992Y-182746992D01*
X127301275Y-182760834D01*
X127288887Y-182773223D01*
X127262979Y-182786423D01*
X127234479Y-182805467D01*
X127219919Y-182808362D01*
X127214126Y-182811315D01*
X127169718Y-182818348D01*
X127131250Y-182826000D01*
X126618750Y-182826000D01*
X126580284Y-182818349D01*
X126535873Y-182811315D01*
X126530078Y-182808362D01*
X126515521Y-182805467D01*
X126487023Y-182786425D01*
X126461112Y-182773223D01*
X126448721Y-182760832D01*
X126428008Y-182746992D01*
X126414167Y-182726278D01*
X126401776Y-182713887D01*
X126388572Y-182687973D01*
X126369533Y-182659479D01*
X126366637Y-182644923D01*
X126363684Y-182639126D01*
X126356646Y-182594694D01*
X126349000Y-182556250D01*
X126349000Y-182118750D01*
X126356646Y-182080309D01*
X126363684Y-182035873D01*
X126366638Y-182030075D01*
X126369533Y-182015521D01*
X126388570Y-181987029D01*
X126401776Y-181961112D01*
X126414169Y-181948718D01*
X126428008Y-181928008D01*
X126448718Y-181914169D01*
X126461112Y-181901776D01*
X126487029Y-181888570D01*
X126515521Y-181869533D01*
X126530075Y-181866638D01*
X126535873Y-181863684D01*
X126580309Y-181856646D01*
X126618750Y-181849000D01*
X127131250Y-181849000D01*
X127169694Y-181856646D01*
G37*
G36*
X128669694Y-181856646D02*
G01*
X128714126Y-181863684D01*
X128719923Y-181866637D01*
X128734479Y-181869533D01*
X128762973Y-181888572D01*
X128788887Y-181901776D01*
X128801278Y-181914167D01*
X128821992Y-181928008D01*
X128835832Y-181948721D01*
X128848223Y-181961112D01*
X128861425Y-181987023D01*
X128880467Y-182015521D01*
X128883362Y-182030078D01*
X128886315Y-182035873D01*
X128893349Y-182080284D01*
X128901000Y-182118750D01*
X128901000Y-182556250D01*
X128893348Y-182594718D01*
X128886315Y-182639126D01*
X128883362Y-182644919D01*
X128880467Y-182659479D01*
X128861423Y-182687979D01*
X128848223Y-182713887D01*
X128835834Y-182726275D01*
X128821992Y-182746992D01*
X128801275Y-182760834D01*
X128788887Y-182773223D01*
X128762979Y-182786423D01*
X128734479Y-182805467D01*
X128719919Y-182808362D01*
X128714126Y-182811315D01*
X128669718Y-182818348D01*
X128631250Y-182826000D01*
X128118750Y-182826000D01*
X128080284Y-182818349D01*
X128035873Y-182811315D01*
X128030078Y-182808362D01*
X128015521Y-182805467D01*
X127987023Y-182786425D01*
X127961112Y-182773223D01*
X127948721Y-182760832D01*
X127928008Y-182746992D01*
X127914167Y-182726278D01*
X127901776Y-182713887D01*
X127888572Y-182687973D01*
X127869533Y-182659479D01*
X127866637Y-182644923D01*
X127863684Y-182639126D01*
X127856646Y-182594694D01*
X127849000Y-182556250D01*
X127849000Y-182118750D01*
X127856646Y-182080309D01*
X127863684Y-182035873D01*
X127866638Y-182030075D01*
X127869533Y-182015521D01*
X127888570Y-181987029D01*
X127901776Y-181961112D01*
X127914169Y-181948718D01*
X127928008Y-181928008D01*
X127948718Y-181914169D01*
X127961112Y-181901776D01*
X127987029Y-181888570D01*
X128015521Y-181869533D01*
X128030075Y-181866638D01*
X128035873Y-181863684D01*
X128080309Y-181856646D01*
X128118750Y-181849000D01*
X128631250Y-181849000D01*
X128669694Y-181856646D01*
G37*
G36*
X132169694Y-181856646D02*
G01*
X132214126Y-181863684D01*
X132219923Y-181866637D01*
X132234479Y-181869533D01*
X132262973Y-181888572D01*
X132288887Y-181901776D01*
X132301278Y-181914167D01*
X132321992Y-181928008D01*
X132335832Y-181948721D01*
X132348223Y-181961112D01*
X132361425Y-181987023D01*
X132380467Y-182015521D01*
X132383362Y-182030078D01*
X132386315Y-182035873D01*
X132393349Y-182080284D01*
X132401000Y-182118750D01*
X132401000Y-182556250D01*
X132393348Y-182594718D01*
X132386315Y-182639126D01*
X132383362Y-182644919D01*
X132380467Y-182659479D01*
X132361423Y-182687979D01*
X132348223Y-182713887D01*
X132335834Y-182726275D01*
X132321992Y-182746992D01*
X132301275Y-182760834D01*
X132288887Y-182773223D01*
X132262979Y-182786423D01*
X132234479Y-182805467D01*
X132219919Y-182808362D01*
X132214126Y-182811315D01*
X132169718Y-182818348D01*
X132131250Y-182826000D01*
X131618750Y-182826000D01*
X131580284Y-182818349D01*
X131535873Y-182811315D01*
X131530078Y-182808362D01*
X131515521Y-182805467D01*
X131487023Y-182786425D01*
X131461112Y-182773223D01*
X131448721Y-182760832D01*
X131428008Y-182746992D01*
X131414167Y-182726278D01*
X131401776Y-182713887D01*
X131388572Y-182687973D01*
X131369533Y-182659479D01*
X131366637Y-182644923D01*
X131363684Y-182639126D01*
X131356646Y-182594694D01*
X131349000Y-182556250D01*
X131349000Y-182118750D01*
X131356646Y-182080309D01*
X131363684Y-182035873D01*
X131366638Y-182030075D01*
X131369533Y-182015521D01*
X131388570Y-181987029D01*
X131401776Y-181961112D01*
X131414169Y-181948718D01*
X131428008Y-181928008D01*
X131448718Y-181914169D01*
X131461112Y-181901776D01*
X131487029Y-181888570D01*
X131515521Y-181869533D01*
X131530075Y-181866638D01*
X131535873Y-181863684D01*
X131580309Y-181856646D01*
X131618750Y-181849000D01*
X132131250Y-181849000D01*
X132169694Y-181856646D01*
G37*
G36*
X133669694Y-181856646D02*
G01*
X133714126Y-181863684D01*
X133719923Y-181866637D01*
X133734479Y-181869533D01*
X133762973Y-181888572D01*
X133788887Y-181901776D01*
X133801278Y-181914167D01*
X133821992Y-181928008D01*
X133835832Y-181948721D01*
X133848223Y-181961112D01*
X133861425Y-181987023D01*
X133880467Y-182015521D01*
X133883362Y-182030078D01*
X133886315Y-182035873D01*
X133893349Y-182080284D01*
X133901000Y-182118750D01*
X133901000Y-182556250D01*
X133893348Y-182594718D01*
X133886315Y-182639126D01*
X133883362Y-182644919D01*
X133880467Y-182659479D01*
X133861423Y-182687979D01*
X133848223Y-182713887D01*
X133835834Y-182726275D01*
X133821992Y-182746992D01*
X133801275Y-182760834D01*
X133788887Y-182773223D01*
X133762979Y-182786423D01*
X133734479Y-182805467D01*
X133719919Y-182808362D01*
X133714126Y-182811315D01*
X133669718Y-182818348D01*
X133631250Y-182826000D01*
X133118750Y-182826000D01*
X133080284Y-182818349D01*
X133035873Y-182811315D01*
X133030078Y-182808362D01*
X133015521Y-182805467D01*
X132987023Y-182786425D01*
X132961112Y-182773223D01*
X132948721Y-182760832D01*
X132928008Y-182746992D01*
X132914167Y-182726278D01*
X132901776Y-182713887D01*
X132888572Y-182687973D01*
X132869533Y-182659479D01*
X132866637Y-182644923D01*
X132863684Y-182639126D01*
X132856646Y-182594694D01*
X132849000Y-182556250D01*
X132849000Y-182118750D01*
X132856646Y-182080309D01*
X132863684Y-182035873D01*
X132866638Y-182030075D01*
X132869533Y-182015521D01*
X132888570Y-181987029D01*
X132901776Y-181961112D01*
X132914169Y-181948718D01*
X132928008Y-181928008D01*
X132948718Y-181914169D01*
X132961112Y-181901776D01*
X132987029Y-181888570D01*
X133015521Y-181869533D01*
X133030075Y-181866638D01*
X133035873Y-181863684D01*
X133080309Y-181856646D01*
X133118750Y-181849000D01*
X133631250Y-181849000D01*
X133669694Y-181856646D01*
G37*
G36*
X136169694Y-181856646D02*
G01*
X136214126Y-181863684D01*
X136219923Y-181866637D01*
X136234479Y-181869533D01*
X136262973Y-181888572D01*
X136288887Y-181901776D01*
X136301278Y-181914167D01*
X136321992Y-181928008D01*
X136335832Y-181948721D01*
X136348223Y-181961112D01*
X136361425Y-181987023D01*
X136380467Y-182015521D01*
X136383362Y-182030078D01*
X136386315Y-182035873D01*
X136393349Y-182080284D01*
X136401000Y-182118750D01*
X136401000Y-182556250D01*
X136393348Y-182594718D01*
X136386315Y-182639126D01*
X136383362Y-182644919D01*
X136380467Y-182659479D01*
X136361423Y-182687979D01*
X136348223Y-182713887D01*
X136335834Y-182726275D01*
X136321992Y-182746992D01*
X136301275Y-182760834D01*
X136288887Y-182773223D01*
X136262979Y-182786423D01*
X136234479Y-182805467D01*
X136219919Y-182808362D01*
X136214126Y-182811315D01*
X136169718Y-182818348D01*
X136131250Y-182826000D01*
X135618750Y-182826000D01*
X135580284Y-182818349D01*
X135535873Y-182811315D01*
X135530078Y-182808362D01*
X135515521Y-182805467D01*
X135487023Y-182786425D01*
X135461112Y-182773223D01*
X135448721Y-182760832D01*
X135428008Y-182746992D01*
X135414167Y-182726278D01*
X135401776Y-182713887D01*
X135388572Y-182687973D01*
X135369533Y-182659479D01*
X135366637Y-182644923D01*
X135363684Y-182639126D01*
X135356646Y-182594694D01*
X135349000Y-182556250D01*
X135349000Y-182118750D01*
X135356646Y-182080309D01*
X135363684Y-182035873D01*
X135366638Y-182030075D01*
X135369533Y-182015521D01*
X135388570Y-181987029D01*
X135401776Y-181961112D01*
X135414169Y-181948718D01*
X135428008Y-181928008D01*
X135448718Y-181914169D01*
X135461112Y-181901776D01*
X135487029Y-181888570D01*
X135515521Y-181869533D01*
X135530075Y-181866638D01*
X135535873Y-181863684D01*
X135580309Y-181856646D01*
X135618750Y-181849000D01*
X136131250Y-181849000D01*
X136169694Y-181856646D01*
G37*
G36*
X137669694Y-181856646D02*
G01*
X137714126Y-181863684D01*
X137719923Y-181866637D01*
X137734479Y-181869533D01*
X137762973Y-181888572D01*
X137788887Y-181901776D01*
X137801278Y-181914167D01*
X137821992Y-181928008D01*
X137835832Y-181948721D01*
X137848223Y-181961112D01*
X137861425Y-181987023D01*
X137880467Y-182015521D01*
X137883362Y-182030078D01*
X137886315Y-182035873D01*
X137893349Y-182080284D01*
X137901000Y-182118750D01*
X137901000Y-182556250D01*
X137893348Y-182594718D01*
X137886315Y-182639126D01*
X137883362Y-182644919D01*
X137880467Y-182659479D01*
X137861423Y-182687979D01*
X137848223Y-182713887D01*
X137835834Y-182726275D01*
X137821992Y-182746992D01*
X137801275Y-182760834D01*
X137788887Y-182773223D01*
X137762979Y-182786423D01*
X137734479Y-182805467D01*
X137719919Y-182808362D01*
X137714126Y-182811315D01*
X137669718Y-182818348D01*
X137631250Y-182826000D01*
X137118750Y-182826000D01*
X137080284Y-182818349D01*
X137035873Y-182811315D01*
X137030078Y-182808362D01*
X137015521Y-182805467D01*
X136987023Y-182786425D01*
X136961112Y-182773223D01*
X136948721Y-182760832D01*
X136928008Y-182746992D01*
X136914167Y-182726278D01*
X136901776Y-182713887D01*
X136888572Y-182687973D01*
X136869533Y-182659479D01*
X136866637Y-182644923D01*
X136863684Y-182639126D01*
X136856646Y-182594694D01*
X136849000Y-182556250D01*
X136849000Y-182118750D01*
X136856646Y-182080309D01*
X136863684Y-182035873D01*
X136866638Y-182030075D01*
X136869533Y-182015521D01*
X136888570Y-181987029D01*
X136901776Y-181961112D01*
X136914169Y-181948718D01*
X136928008Y-181928008D01*
X136948718Y-181914169D01*
X136961112Y-181901776D01*
X136987029Y-181888570D01*
X137015521Y-181869533D01*
X137030075Y-181866638D01*
X137035873Y-181863684D01*
X137080309Y-181856646D01*
X137118750Y-181849000D01*
X137631250Y-181849000D01*
X137669694Y-181856646D01*
G37*
G36*
X140169694Y-181856646D02*
G01*
X140214126Y-181863684D01*
X140219923Y-181866637D01*
X140234479Y-181869533D01*
X140262973Y-181888572D01*
X140288887Y-181901776D01*
X140301278Y-181914167D01*
X140321992Y-181928008D01*
X140335832Y-181948721D01*
X140348223Y-181961112D01*
X140361425Y-181987023D01*
X140380467Y-182015521D01*
X140383362Y-182030078D01*
X140386315Y-182035873D01*
X140393349Y-182080284D01*
X140401000Y-182118750D01*
X140401000Y-182556250D01*
X140393348Y-182594718D01*
X140386315Y-182639126D01*
X140383362Y-182644919D01*
X140380467Y-182659479D01*
X140361423Y-182687979D01*
X140348223Y-182713887D01*
X140335834Y-182726275D01*
X140321992Y-182746992D01*
X140301275Y-182760834D01*
X140288887Y-182773223D01*
X140262979Y-182786423D01*
X140234479Y-182805467D01*
X140219919Y-182808362D01*
X140214126Y-182811315D01*
X140169718Y-182818348D01*
X140131250Y-182826000D01*
X139618750Y-182826000D01*
X139580284Y-182818349D01*
X139535873Y-182811315D01*
X139530078Y-182808362D01*
X139515521Y-182805467D01*
X139487023Y-182786425D01*
X139461112Y-182773223D01*
X139448721Y-182760832D01*
X139428008Y-182746992D01*
X139414167Y-182726278D01*
X139401776Y-182713887D01*
X139388572Y-182687973D01*
X139369533Y-182659479D01*
X139366637Y-182644923D01*
X139363684Y-182639126D01*
X139356646Y-182594694D01*
X139349000Y-182556250D01*
X139349000Y-182118750D01*
X139356646Y-182080309D01*
X139363684Y-182035873D01*
X139366638Y-182030075D01*
X139369533Y-182015521D01*
X139388570Y-181987029D01*
X139401776Y-181961112D01*
X139414169Y-181948718D01*
X139428008Y-181928008D01*
X139448718Y-181914169D01*
X139461112Y-181901776D01*
X139487029Y-181888570D01*
X139515521Y-181869533D01*
X139530075Y-181866638D01*
X139535873Y-181863684D01*
X139580309Y-181856646D01*
X139618750Y-181849000D01*
X140131250Y-181849000D01*
X140169694Y-181856646D01*
G37*
G36*
X141669694Y-181856646D02*
G01*
X141714126Y-181863684D01*
X141719923Y-181866637D01*
X141734479Y-181869533D01*
X141762973Y-181888572D01*
X141788887Y-181901776D01*
X141801278Y-181914167D01*
X141821992Y-181928008D01*
X141835832Y-181948721D01*
X141848223Y-181961112D01*
X141861425Y-181987023D01*
X141880467Y-182015521D01*
X141883362Y-182030078D01*
X141886315Y-182035873D01*
X141893349Y-182080284D01*
X141901000Y-182118750D01*
X141901000Y-182556250D01*
X141893348Y-182594718D01*
X141886315Y-182639126D01*
X141883362Y-182644919D01*
X141880467Y-182659479D01*
X141861423Y-182687979D01*
X141848223Y-182713887D01*
X141835834Y-182726275D01*
X141821992Y-182746992D01*
X141801275Y-182760834D01*
X141788887Y-182773223D01*
X141762979Y-182786423D01*
X141734479Y-182805467D01*
X141719919Y-182808362D01*
X141714126Y-182811315D01*
X141669718Y-182818348D01*
X141631250Y-182826000D01*
X141118750Y-182826000D01*
X141080284Y-182818349D01*
X141035873Y-182811315D01*
X141030078Y-182808362D01*
X141015521Y-182805467D01*
X140987023Y-182786425D01*
X140961112Y-182773223D01*
X140948721Y-182760832D01*
X140928008Y-182746992D01*
X140914167Y-182726278D01*
X140901776Y-182713887D01*
X140888572Y-182687973D01*
X140869533Y-182659479D01*
X140866637Y-182644923D01*
X140863684Y-182639126D01*
X140856646Y-182594694D01*
X140849000Y-182556250D01*
X140849000Y-182118750D01*
X140856646Y-182080309D01*
X140863684Y-182035873D01*
X140866638Y-182030075D01*
X140869533Y-182015521D01*
X140888570Y-181987029D01*
X140901776Y-181961112D01*
X140914169Y-181948718D01*
X140928008Y-181928008D01*
X140948718Y-181914169D01*
X140961112Y-181901776D01*
X140987029Y-181888570D01*
X141015521Y-181869533D01*
X141030075Y-181866638D01*
X141035873Y-181863684D01*
X141080309Y-181856646D01*
X141118750Y-181849000D01*
X141631250Y-181849000D01*
X141669694Y-181856646D01*
G37*
M02*
