G04 #@! TF.GenerationSoftware,KiCad,Pcbnew,8.0.4*
G04 #@! TF.CreationDate,2024-08-17T23:21:43-04:00*
G04 #@! TF.ProjectId,PCIexpress_x4_low,50434965-7870-4726-9573-735f78345f6c,rev?*
G04 #@! TF.SameCoordinates,Original*
G04 #@! TF.FileFunction,Copper,L2,Bot*
G04 #@! TF.FilePolarity,Positive*
%FSLAX46Y46*%
G04 Gerber Fmt 4.6, Leading zero omitted, Abs format (unit mm)*
G04 Created by KiCad (PCBNEW 8.0.4) date 2024-08-17 23:21:43*
%MOMM*%
%LPD*%
G01*
G04 APERTURE LIST*
G04 Aperture macros list*
%AMRoundRect*
0 Rectangle with rounded corners*
0 $1 Rounding radius*
0 $2 $3 $4 $5 $6 $7 $8 $9 X,Y pos of 4 corners*
0 Add a 4 corners polygon primitive as box body*
4,1,4,$2,$3,$4,$5,$6,$7,$8,$9,$2,$3,0*
0 Add four circle primitives for the rounded corners*
1,1,$1+$1,$2,$3*
1,1,$1+$1,$4,$5*
1,1,$1+$1,$6,$7*
1,1,$1+$1,$8,$9*
0 Add four rect primitives between the rounded corners*
20,1,$1+$1,$2,$3,$4,$5,0*
20,1,$1+$1,$4,$5,$6,$7,0*
20,1,$1+$1,$6,$7,$8,$9,0*
20,1,$1+$1,$8,$9,$2,$3,0*%
G04 Aperture macros list end*
G04 #@! TA.AperFunction,ComponentPad*
%ADD10C,0.400000*%
G04 #@! TD*
G04 #@! TA.AperFunction,ConnectorPad*
%ADD11R,0.700000X3.200000*%
G04 #@! TD*
G04 #@! TA.AperFunction,ConnectorPad*
%ADD12R,0.700000X4.200000*%
G04 #@! TD*
G04 #@! TA.AperFunction,SMDPad,CuDef*
%ADD13RoundRect,0.218750X-0.256250X0.218750X-0.256250X-0.218750X0.256250X-0.218750X0.256250X0.218750X0*%
G04 #@! TD*
G04 #@! TA.AperFunction,SMDPad,CuDef*
%ADD14RoundRect,0.218750X0.256250X-0.218750X0.256250X0.218750X-0.256250X0.218750X-0.256250X-0.218750X0*%
G04 #@! TD*
G04 #@! TA.AperFunction,ViaPad*
%ADD15C,0.550000*%
G04 #@! TD*
G04 #@! TA.AperFunction,Conductor*
%ADD16C,0.200000*%
G04 #@! TD*
G04 APERTURE END LIST*
D10*
X145725000Y-145385000D03*
X145725000Y-144285000D03*
X146275000Y-145935000D03*
X146275000Y-144835000D03*
X146275000Y-143735000D03*
X146825000Y-145385000D03*
X146825000Y-144285000D03*
X147375000Y-145935000D03*
X147375000Y-144835000D03*
X147375000Y-143735000D03*
X147925000Y-145385000D03*
X147925000Y-144285000D03*
D11*
X110125000Y-190125000D03*
D12*
X111125000Y-190625000D03*
X112125000Y-190625000D03*
X113125000Y-190625000D03*
X114125000Y-190625000D03*
X115125000Y-190625000D03*
X116125000Y-190625000D03*
X117125000Y-190625000D03*
X118125000Y-190625000D03*
X119125000Y-190625000D03*
X120125000Y-190625000D03*
X123125000Y-190625000D03*
X124125000Y-190625000D03*
X125125000Y-190625000D03*
X126125000Y-190625000D03*
X127125000Y-190625000D03*
X128125000Y-190625000D03*
X129125000Y-190625000D03*
X130125000Y-190625000D03*
X131125000Y-190625000D03*
X132125000Y-190625000D03*
X133125000Y-190625000D03*
X134125000Y-190625000D03*
X135125000Y-190625000D03*
X136125000Y-190625000D03*
X137125000Y-190625000D03*
X138125000Y-190625000D03*
X139125000Y-190625000D03*
X140125000Y-190625000D03*
X141125000Y-190625000D03*
X142125000Y-190625000D03*
X143125000Y-190625000D03*
D13*
X126875000Y-182337500D03*
X126875000Y-183912500D03*
D14*
X128375000Y-183912500D03*
X128375000Y-182337500D03*
D13*
X131875000Y-182337500D03*
X131875000Y-183912500D03*
D14*
X133375000Y-183912500D03*
X133375000Y-182337500D03*
D13*
X135875000Y-182337500D03*
X135875000Y-183912500D03*
D14*
X137375000Y-183912500D03*
X137375000Y-182337500D03*
D13*
X139875000Y-182337500D03*
X139875000Y-183912500D03*
D14*
X141375000Y-183912500D03*
X141375000Y-182337500D03*
D15*
X124125000Y-185500000D03*
X143125000Y-185500000D03*
X135625000Y-185500000D03*
X139625000Y-185500000D03*
X133625000Y-185500000D03*
X129125000Y-185500000D03*
X126625000Y-185500000D03*
X131625000Y-185500000D03*
X137625000Y-185500000D03*
X131625000Y-186500000D03*
X143125000Y-186500000D03*
X135625000Y-186500000D03*
X133625000Y-187500000D03*
X133625000Y-186500000D03*
X129125000Y-187500000D03*
X113125000Y-188000000D03*
X137625000Y-186500000D03*
X126625000Y-186500000D03*
X131625000Y-187500000D03*
X124125000Y-187500000D03*
X124125000Y-186500000D03*
X137625000Y-187500000D03*
X139625000Y-186500000D03*
X135625000Y-187500000D03*
X126625000Y-187500000D03*
X129125000Y-186500000D03*
X139625000Y-187500000D03*
X143125000Y-187500000D03*
X111125000Y-188000000D03*
X112125000Y-188000000D03*
D16*
X127425000Y-188075000D02*
X127125000Y-188375000D01*
X126875000Y-183912500D02*
X126875000Y-184500000D01*
X126875000Y-184500000D02*
X127425000Y-185050000D01*
X127125000Y-188375000D02*
X127125000Y-190625000D01*
X127425000Y-185050000D02*
X127425000Y-188075000D01*
X128375000Y-183912500D02*
X128375000Y-184500000D01*
X128375000Y-184500000D02*
X127825000Y-185050000D01*
X127825000Y-185050000D02*
X127825000Y-188075000D01*
X127825000Y-188075000D02*
X128125000Y-188375000D01*
X128125000Y-188375000D02*
X128125000Y-190625000D01*
X132425000Y-188075000D02*
X132125000Y-188375000D01*
X132425000Y-185050000D02*
X132425000Y-188075000D01*
X131875000Y-184500000D02*
X132425000Y-185050000D01*
X132125000Y-188375000D02*
X132125000Y-190625000D01*
X131875000Y-183912500D02*
X131875000Y-184500000D01*
X133125000Y-188375000D02*
X133125000Y-190625000D01*
X132825000Y-185050000D02*
X132825000Y-188075000D01*
X133375000Y-184500000D02*
X132825000Y-185050000D01*
X133375000Y-183912500D02*
X133375000Y-184500000D01*
X132825000Y-188075000D02*
X133125000Y-188375000D01*
X136425000Y-188075000D02*
X136125000Y-188375000D01*
X136425000Y-185050000D02*
X136425000Y-188075000D01*
X135875000Y-184500000D02*
X136425000Y-185050000D01*
X136125000Y-188375000D02*
X136125000Y-190625000D01*
X135875000Y-183912500D02*
X135875000Y-184500000D01*
X137125000Y-188375000D02*
X137125000Y-190625000D01*
X136825000Y-185050000D02*
X136825000Y-188075000D01*
X137375000Y-184500000D02*
X136825000Y-185050000D01*
X137375000Y-183912500D02*
X137375000Y-184500000D01*
X136825000Y-188075000D02*
X137125000Y-188375000D01*
X140125000Y-188375000D02*
X140125000Y-190625000D01*
X139875000Y-184500000D02*
X140425000Y-185050000D01*
X139875000Y-183912500D02*
X139875000Y-184500000D01*
X140425000Y-188075000D02*
X140125000Y-188375000D01*
X140425000Y-185050000D02*
X140425000Y-188075000D01*
X141375000Y-183912500D02*
X141375000Y-184500000D01*
X140825000Y-188075000D02*
X141125000Y-188375000D01*
X141375000Y-184500000D02*
X140825000Y-185050000D01*
X141125000Y-188375000D02*
X141125000Y-190625000D01*
X140825000Y-185050000D02*
X140825000Y-188075000D01*
G04 #@! TA.AperFunction,Conductor*
G36*
X112568039Y-187519685D02*
G01*
X112613794Y-187572489D01*
X112625000Y-187624000D01*
X112625000Y-188402000D01*
X112605315Y-188469039D01*
X112552511Y-188514794D01*
X112501000Y-188526000D01*
X110749000Y-188526000D01*
X110681961Y-188506315D01*
X110636206Y-188453511D01*
X110625000Y-188402000D01*
X110625000Y-187624000D01*
X110644685Y-187556961D01*
X110697489Y-187511206D01*
X110749000Y-187500000D01*
X112501000Y-187500000D01*
X112568039Y-187519685D01*
G37*
G04 #@! TD.AperFunction*
G04 #@! TA.AperFunction,Conductor*
G36*
X149227702Y-125300618D02*
G01*
X149241221Y-125301208D01*
X149648810Y-125319003D01*
X149659547Y-125319943D01*
X150074771Y-125374608D01*
X150085397Y-125376481D01*
X150494286Y-125467130D01*
X150504698Y-125469919D01*
X150904132Y-125595861D01*
X150914267Y-125599550D01*
X151301191Y-125759819D01*
X151310982Y-125764385D01*
X151682442Y-125957755D01*
X151691810Y-125963163D01*
X152045014Y-126188179D01*
X152053875Y-126194384D01*
X152386115Y-126449320D01*
X152394402Y-126456274D01*
X152703155Y-126739195D01*
X152710804Y-126746844D01*
X152993725Y-127055597D01*
X153000679Y-127063884D01*
X153255615Y-127396124D01*
X153261820Y-127404985D01*
X153486836Y-127758189D01*
X153492244Y-127767557D01*
X153685611Y-128139010D01*
X153690183Y-128148814D01*
X153850443Y-128535717D01*
X153854142Y-128545880D01*
X153926553Y-128775538D01*
X153980074Y-128945282D01*
X153982874Y-128955732D01*
X154073515Y-129364589D01*
X154075393Y-129375242D01*
X154130054Y-129790432D01*
X154130997Y-129801208D01*
X154147661Y-130182891D01*
X154149382Y-130222297D01*
X154149500Y-130227706D01*
X154149500Y-134799138D01*
X154129815Y-134866177D01*
X154125000Y-134872152D01*
X154125000Y-152884825D01*
X154146666Y-152924504D01*
X154149500Y-152950862D01*
X154149500Y-180972857D01*
X154129815Y-181039896D01*
X154077011Y-181085651D01*
X154028896Y-181096810D01*
X146632462Y-181299453D01*
X146629066Y-181299500D01*
X143759982Y-181299500D01*
X143732231Y-181310995D01*
X143710995Y-181332231D01*
X143699500Y-181359982D01*
X143699500Y-188335498D01*
X143679815Y-188402537D01*
X143627011Y-188448292D01*
X143557853Y-188458236D01*
X143521623Y-188444353D01*
X143521165Y-188445461D01*
X143509882Y-188440787D01*
X143509877Y-188440786D01*
X143483803Y-188435600D01*
X143483802Y-188435600D01*
X142766198Y-188435600D01*
X142766189Y-188435601D01*
X142740119Y-188440786D01*
X142710547Y-188460546D01*
X142704302Y-188469893D01*
X142650689Y-188514697D01*
X142601201Y-188525000D01*
X141779126Y-188525000D01*
X141712087Y-188505315D01*
X141666332Y-188452511D01*
X141664566Y-188448456D01*
X141663867Y-188446768D01*
X141619552Y-188380447D01*
X141553230Y-188336132D01*
X141491198Y-188323793D01*
X141429287Y-188291408D01*
X141408003Y-188264175D01*
X141365464Y-188190495D01*
X141365458Y-188190487D01*
X141161819Y-187986848D01*
X141128334Y-187925525D01*
X141125500Y-187899167D01*
X141125500Y-185225833D01*
X141145185Y-185158794D01*
X141161819Y-185138152D01*
X141286487Y-185013484D01*
X141615460Y-184684511D01*
X141655021Y-184615989D01*
X141655024Y-184615977D01*
X141656826Y-184611629D01*
X141700664Y-184557223D01*
X141751997Y-184536601D01*
X141762420Y-184534951D01*
X141880751Y-184474658D01*
X141974658Y-184380751D01*
X142034951Y-184262420D01*
X142034951Y-184262418D01*
X142034952Y-184262417D01*
X142050500Y-184164251D01*
X142050500Y-183660748D01*
X142034952Y-183562582D01*
X142034951Y-183562580D01*
X141974658Y-183444249D01*
X141974654Y-183444245D01*
X141974653Y-183444243D01*
X141880756Y-183350346D01*
X141880753Y-183350344D01*
X141880751Y-183350342D01*
X141762420Y-183290049D01*
X141762419Y-183290048D01*
X141762416Y-183290047D01*
X141762417Y-183290047D01*
X141664251Y-183274500D01*
X141664246Y-183274500D01*
X141085754Y-183274500D01*
X141085749Y-183274500D01*
X140987582Y-183290047D01*
X140918761Y-183325114D01*
X140869249Y-183350342D01*
X140869248Y-183350343D01*
X140869243Y-183350346D01*
X140775346Y-183444243D01*
X140775343Y-183444248D01*
X140775342Y-183444249D01*
X140735485Y-183522473D01*
X140687510Y-183573269D01*
X140619689Y-183590064D01*
X140553554Y-183567526D01*
X140514515Y-183522473D01*
X140474658Y-183444249D01*
X140474654Y-183444245D01*
X140474653Y-183444243D01*
X140380756Y-183350346D01*
X140380753Y-183350344D01*
X140380751Y-183350342D01*
X140262420Y-183290049D01*
X140262419Y-183290048D01*
X140262416Y-183290047D01*
X140262417Y-183290047D01*
X140164251Y-183274500D01*
X140164246Y-183274500D01*
X139585754Y-183274500D01*
X139585749Y-183274500D01*
X139487582Y-183290047D01*
X139418761Y-183325114D01*
X139369249Y-183350342D01*
X139369248Y-183350343D01*
X139369243Y-183350346D01*
X139275346Y-183444243D01*
X139275343Y-183444248D01*
X139275342Y-183444249D01*
X139255244Y-183483692D01*
X139215047Y-183562582D01*
X139199500Y-183660748D01*
X139199500Y-184164251D01*
X139215047Y-184262417D01*
X139223886Y-184279764D01*
X139275342Y-184380751D01*
X139275344Y-184380753D01*
X139275346Y-184380756D01*
X139369243Y-184474653D01*
X139369245Y-184474654D01*
X139369249Y-184474658D01*
X139487580Y-184534951D01*
X139498002Y-184536601D01*
X139561137Y-184566527D01*
X139593169Y-184611620D01*
X139594979Y-184615991D01*
X139634535Y-184684504D01*
X139634541Y-184684512D01*
X140088181Y-185138152D01*
X140121666Y-185199475D01*
X140124500Y-185225833D01*
X140124500Y-187899167D01*
X140104815Y-187966206D01*
X140088181Y-187986848D01*
X139884541Y-188190487D01*
X139884537Y-188190492D01*
X139841996Y-188264176D01*
X139791429Y-188312392D01*
X139758801Y-188323793D01*
X139696770Y-188336132D01*
X139696769Y-188336132D01*
X139630447Y-188380447D01*
X139586132Y-188446768D01*
X139585434Y-188448456D01*
X139582926Y-188451567D01*
X139579348Y-188456923D01*
X139578868Y-188456602D01*
X139541591Y-188502858D01*
X139475296Y-188524921D01*
X139470874Y-188525000D01*
X137779126Y-188525000D01*
X137712087Y-188505315D01*
X137666332Y-188452511D01*
X137664566Y-188448456D01*
X137663867Y-188446768D01*
X137619552Y-188380447D01*
X137553230Y-188336132D01*
X137491198Y-188323793D01*
X137429287Y-188291408D01*
X137408003Y-188264175D01*
X137365464Y-188190495D01*
X137365458Y-188190487D01*
X137161819Y-187986848D01*
X137128334Y-187925525D01*
X137125500Y-187899167D01*
X137125500Y-185225833D01*
X137145185Y-185158794D01*
X137161819Y-185138152D01*
X137286487Y-185013484D01*
X137615460Y-184684511D01*
X137655021Y-184615989D01*
X137655024Y-184615977D01*
X137656826Y-184611629D01*
X137700664Y-184557223D01*
X137751997Y-184536601D01*
X137762420Y-184534951D01*
X137880751Y-184474658D01*
X137974658Y-184380751D01*
X138034951Y-184262420D01*
X138034951Y-184262418D01*
X138034952Y-184262417D01*
X138050500Y-184164251D01*
X138050500Y-183660748D01*
X138034952Y-183562582D01*
X138034951Y-183562580D01*
X137974658Y-183444249D01*
X137974654Y-183444245D01*
X137974653Y-183444243D01*
X137880756Y-183350346D01*
X137880753Y-183350344D01*
X137880751Y-183350342D01*
X137762420Y-183290049D01*
X137762419Y-183290048D01*
X137762416Y-183290047D01*
X137762417Y-183290047D01*
X137664251Y-183274500D01*
X137664246Y-183274500D01*
X137085754Y-183274500D01*
X137085749Y-183274500D01*
X136987582Y-183290047D01*
X136918761Y-183325114D01*
X136869249Y-183350342D01*
X136869248Y-183350343D01*
X136869243Y-183350346D01*
X136775346Y-183444243D01*
X136775343Y-183444248D01*
X136775342Y-183444249D01*
X136735485Y-183522473D01*
X136687510Y-183573269D01*
X136619689Y-183590064D01*
X136553554Y-183567526D01*
X136514515Y-183522473D01*
X136474658Y-183444249D01*
X136474654Y-183444245D01*
X136474653Y-183444243D01*
X136380756Y-183350346D01*
X136380753Y-183350344D01*
X136380751Y-183350342D01*
X136262420Y-183290049D01*
X136262419Y-183290048D01*
X136262416Y-183290047D01*
X136262417Y-183290047D01*
X136164251Y-183274500D01*
X136164246Y-183274500D01*
X135585754Y-183274500D01*
X135585749Y-183274500D01*
X135487582Y-183290047D01*
X135418761Y-183325114D01*
X135369249Y-183350342D01*
X135369248Y-183350343D01*
X135369243Y-183350346D01*
X135275346Y-183444243D01*
X135275343Y-183444248D01*
X135275342Y-183444249D01*
X135255244Y-183483692D01*
X135215047Y-183562582D01*
X135199500Y-183660748D01*
X135199500Y-184164251D01*
X135215047Y-184262417D01*
X135223886Y-184279764D01*
X135275342Y-184380751D01*
X135275344Y-184380753D01*
X135275346Y-184380756D01*
X135369243Y-184474653D01*
X135369245Y-184474654D01*
X135369249Y-184474658D01*
X135487580Y-184534951D01*
X135498002Y-184536601D01*
X135561137Y-184566527D01*
X135593169Y-184611620D01*
X135594979Y-184615991D01*
X135634535Y-184684504D01*
X135634541Y-184684512D01*
X136088181Y-185138152D01*
X136121666Y-185199475D01*
X136124500Y-185225833D01*
X136124500Y-187899167D01*
X136104815Y-187966206D01*
X136088181Y-187986848D01*
X135884541Y-188190487D01*
X135884537Y-188190492D01*
X135841996Y-188264176D01*
X135791429Y-188312392D01*
X135758801Y-188323793D01*
X135696770Y-188336132D01*
X135696769Y-188336132D01*
X135630447Y-188380447D01*
X135586132Y-188446768D01*
X135585434Y-188448456D01*
X135582926Y-188451567D01*
X135579348Y-188456923D01*
X135578868Y-188456602D01*
X135541591Y-188502858D01*
X135475296Y-188524921D01*
X135470874Y-188525000D01*
X133779126Y-188525000D01*
X133712087Y-188505315D01*
X133666332Y-188452511D01*
X133664566Y-188448456D01*
X133663867Y-188446768D01*
X133619552Y-188380447D01*
X133553230Y-188336132D01*
X133491198Y-188323793D01*
X133429287Y-188291408D01*
X133408003Y-188264175D01*
X133365464Y-188190495D01*
X133365458Y-188190487D01*
X133161819Y-187986848D01*
X133128334Y-187925525D01*
X133125500Y-187899167D01*
X133125500Y-185225833D01*
X133145185Y-185158794D01*
X133161819Y-185138152D01*
X133286487Y-185013484D01*
X133615460Y-184684511D01*
X133655021Y-184615989D01*
X133655024Y-184615977D01*
X133656826Y-184611629D01*
X133700664Y-184557223D01*
X133751997Y-184536601D01*
X133762420Y-184534951D01*
X133880751Y-184474658D01*
X133974658Y-184380751D01*
X134034951Y-184262420D01*
X134034951Y-184262418D01*
X134034952Y-184262417D01*
X134050500Y-184164251D01*
X134050500Y-183660748D01*
X134034952Y-183562582D01*
X134034951Y-183562580D01*
X133974658Y-183444249D01*
X133974654Y-183444245D01*
X133974653Y-183444243D01*
X133880756Y-183350346D01*
X133880753Y-183350344D01*
X133880751Y-183350342D01*
X133762420Y-183290049D01*
X133762419Y-183290048D01*
X133762416Y-183290047D01*
X133762417Y-183290047D01*
X133664251Y-183274500D01*
X133664246Y-183274500D01*
X133085754Y-183274500D01*
X133085749Y-183274500D01*
X132987582Y-183290047D01*
X132918761Y-183325114D01*
X132869249Y-183350342D01*
X132869248Y-183350343D01*
X132869243Y-183350346D01*
X132775346Y-183444243D01*
X132775343Y-183444248D01*
X132775342Y-183444249D01*
X132735485Y-183522473D01*
X132687510Y-183573269D01*
X132619689Y-183590064D01*
X132553554Y-183567526D01*
X132514515Y-183522473D01*
X132474658Y-183444249D01*
X132474654Y-183444245D01*
X132474653Y-183444243D01*
X132380756Y-183350346D01*
X132380753Y-183350344D01*
X132380751Y-183350342D01*
X132262420Y-183290049D01*
X132262419Y-183290048D01*
X132262416Y-183290047D01*
X132262417Y-183290047D01*
X132164251Y-183274500D01*
X132164246Y-183274500D01*
X131585754Y-183274500D01*
X131585749Y-183274500D01*
X131487582Y-183290047D01*
X131418761Y-183325114D01*
X131369249Y-183350342D01*
X131369248Y-183350343D01*
X131369243Y-183350346D01*
X131275346Y-183444243D01*
X131275343Y-183444248D01*
X131275342Y-183444249D01*
X131255244Y-183483692D01*
X131215047Y-183562582D01*
X131199500Y-183660748D01*
X131199500Y-184164251D01*
X131215047Y-184262417D01*
X131223886Y-184279764D01*
X131275342Y-184380751D01*
X131275344Y-184380753D01*
X131275346Y-184380756D01*
X131369243Y-184474653D01*
X131369245Y-184474654D01*
X131369249Y-184474658D01*
X131487580Y-184534951D01*
X131498002Y-184536601D01*
X131561137Y-184566527D01*
X131593169Y-184611620D01*
X131594979Y-184615991D01*
X131634535Y-184684504D01*
X131634541Y-184684512D01*
X132088181Y-185138152D01*
X132121666Y-185199475D01*
X132124500Y-185225833D01*
X132124500Y-187899167D01*
X132104815Y-187966206D01*
X132088181Y-187986848D01*
X131884541Y-188190487D01*
X131884537Y-188190492D01*
X131841996Y-188264176D01*
X131791429Y-188312392D01*
X131758801Y-188323793D01*
X131696770Y-188336132D01*
X131696769Y-188336132D01*
X131630447Y-188380447D01*
X131586132Y-188446768D01*
X131585434Y-188448456D01*
X131582926Y-188451567D01*
X131579348Y-188456923D01*
X131578868Y-188456602D01*
X131541591Y-188502858D01*
X131475296Y-188524921D01*
X131470874Y-188525000D01*
X130648799Y-188525000D01*
X130581760Y-188505315D01*
X130545698Y-188469893D01*
X130539452Y-188460545D01*
X130509882Y-188440787D01*
X130509877Y-188440786D01*
X130483803Y-188435600D01*
X130483802Y-188435600D01*
X129766198Y-188435600D01*
X129766189Y-188435601D01*
X129740119Y-188440786D01*
X129710547Y-188460546D01*
X129704302Y-188469893D01*
X129650689Y-188514697D01*
X129601201Y-188525000D01*
X128779126Y-188525000D01*
X128712087Y-188505315D01*
X128666332Y-188452511D01*
X128664566Y-188448456D01*
X128663867Y-188446768D01*
X128619552Y-188380447D01*
X128553230Y-188336132D01*
X128491198Y-188323793D01*
X128429287Y-188291408D01*
X128408003Y-188264175D01*
X128365464Y-188190495D01*
X128365458Y-188190487D01*
X128161819Y-187986848D01*
X128128334Y-187925525D01*
X128125500Y-187899167D01*
X128125500Y-185225833D01*
X128145185Y-185158794D01*
X128161819Y-185138152D01*
X128286487Y-185013484D01*
X128615460Y-184684511D01*
X128655021Y-184615989D01*
X128655024Y-184615977D01*
X128656826Y-184611629D01*
X128700664Y-184557223D01*
X128751997Y-184536601D01*
X128762420Y-184534951D01*
X128880751Y-184474658D01*
X128974658Y-184380751D01*
X129034951Y-184262420D01*
X129034951Y-184262418D01*
X129034952Y-184262417D01*
X129050500Y-184164251D01*
X129050500Y-183660748D01*
X129034952Y-183562582D01*
X129034951Y-183562580D01*
X128974658Y-183444249D01*
X128974654Y-183444245D01*
X128974653Y-183444243D01*
X128880756Y-183350346D01*
X128880753Y-183350344D01*
X128880751Y-183350342D01*
X128762420Y-183290049D01*
X128762419Y-183290048D01*
X128762416Y-183290047D01*
X128762417Y-183290047D01*
X128664251Y-183274500D01*
X128664246Y-183274500D01*
X128085754Y-183274500D01*
X128085749Y-183274500D01*
X127987582Y-183290047D01*
X127918761Y-183325114D01*
X127869249Y-183350342D01*
X127869248Y-183350343D01*
X127869243Y-183350346D01*
X127775346Y-183444243D01*
X127775343Y-183444248D01*
X127775342Y-183444249D01*
X127735485Y-183522473D01*
X127687510Y-183573269D01*
X127619689Y-183590064D01*
X127553554Y-183567526D01*
X127514515Y-183522473D01*
X127474658Y-183444249D01*
X127474654Y-183444245D01*
X127474653Y-183444243D01*
X127380756Y-183350346D01*
X127380753Y-183350344D01*
X127380751Y-183350342D01*
X127262420Y-183290049D01*
X127262419Y-183290048D01*
X127262416Y-183290047D01*
X127262417Y-183290047D01*
X127164251Y-183274500D01*
X127164246Y-183274500D01*
X126585754Y-183274500D01*
X126585749Y-183274500D01*
X126487582Y-183290047D01*
X126418761Y-183325114D01*
X126369249Y-183350342D01*
X126369248Y-183350343D01*
X126369243Y-183350346D01*
X126275346Y-183444243D01*
X126275343Y-183444248D01*
X126275342Y-183444249D01*
X126255244Y-183483692D01*
X126215047Y-183562582D01*
X126199500Y-183660748D01*
X126199500Y-184164251D01*
X126215047Y-184262417D01*
X126223886Y-184279764D01*
X126275342Y-184380751D01*
X126275344Y-184380753D01*
X126275346Y-184380756D01*
X126369243Y-184474653D01*
X126369245Y-184474654D01*
X126369249Y-184474658D01*
X126487580Y-184534951D01*
X126498002Y-184536601D01*
X126561137Y-184566527D01*
X126593169Y-184611620D01*
X126594979Y-184615991D01*
X126634535Y-184684504D01*
X126634541Y-184684512D01*
X127088181Y-185138152D01*
X127121666Y-185199475D01*
X127124500Y-185225833D01*
X127124500Y-187899167D01*
X127104815Y-187966206D01*
X127088181Y-187986848D01*
X126884541Y-188190487D01*
X126884537Y-188190492D01*
X126841996Y-188264176D01*
X126791429Y-188312392D01*
X126758801Y-188323793D01*
X126696770Y-188336132D01*
X126696769Y-188336132D01*
X126630447Y-188380447D01*
X126586132Y-188446768D01*
X126585434Y-188448456D01*
X126582926Y-188451567D01*
X126579348Y-188456923D01*
X126578868Y-188456602D01*
X126541591Y-188502858D01*
X126475296Y-188524921D01*
X126470874Y-188525000D01*
X125779126Y-188525000D01*
X125712087Y-188505315D01*
X125666332Y-188452511D01*
X125664566Y-188448456D01*
X125663867Y-188446768D01*
X125619552Y-188380447D01*
X125553230Y-188336132D01*
X125553229Y-188336131D01*
X125494752Y-188324500D01*
X125494748Y-188324500D01*
X124755252Y-188324500D01*
X124755247Y-188324500D01*
X124696770Y-188336131D01*
X124696768Y-188336132D01*
X124693887Y-188338058D01*
X124686655Y-188340322D01*
X124685487Y-188340806D01*
X124685443Y-188340701D01*
X124627209Y-188358933D01*
X124559829Y-188340446D01*
X124556113Y-188338058D01*
X124553231Y-188336132D01*
X124553229Y-188336131D01*
X124494752Y-188324500D01*
X124494748Y-188324500D01*
X123755252Y-188324500D01*
X123755247Y-188324500D01*
X123696770Y-188336131D01*
X123696769Y-188336132D01*
X123630447Y-188380447D01*
X123586132Y-188446768D01*
X123585434Y-188448456D01*
X123582926Y-188451567D01*
X123579348Y-188456923D01*
X123578868Y-188456602D01*
X123541591Y-188502858D01*
X123475296Y-188524921D01*
X123470874Y-188525000D01*
X122774500Y-188525000D01*
X122707461Y-188505315D01*
X122661706Y-188452511D01*
X122650500Y-188401000D01*
X122650500Y-186579975D01*
X122636371Y-186504394D01*
X122615577Y-186393156D01*
X122546922Y-186215937D01*
X122446872Y-186054351D01*
X122318834Y-185913900D01*
X122167169Y-185799367D01*
X122010767Y-185721488D01*
X121997041Y-185714653D01*
X121997042Y-185714653D01*
X121892142Y-185684807D01*
X121814242Y-185662643D01*
X121814239Y-185662642D01*
X121814241Y-185662642D01*
X121625001Y-185645107D01*
X121624999Y-185645107D01*
X121435760Y-185662642D01*
X121252957Y-185714653D01*
X121082830Y-185799367D01*
X120931164Y-185913901D01*
X120803129Y-186054349D01*
X120703077Y-186215938D01*
X120703075Y-186215942D01*
X120655383Y-186339052D01*
X120634423Y-186393156D01*
X120623704Y-186450500D01*
X120599500Y-186579975D01*
X120599500Y-188311600D01*
X120579815Y-188378639D01*
X120527011Y-188424394D01*
X120475500Y-188435600D01*
X119766198Y-188435600D01*
X119766189Y-188435601D01*
X119740119Y-188440786D01*
X119700393Y-188467332D01*
X119699310Y-188465712D01*
X119651358Y-188491897D01*
X119581666Y-188486913D01*
X119550085Y-188466616D01*
X119549608Y-188467332D01*
X119509882Y-188440787D01*
X119509877Y-188440786D01*
X119483803Y-188435600D01*
X119483802Y-188435600D01*
X118766198Y-188435600D01*
X118766189Y-188435601D01*
X118740119Y-188440786D01*
X118700393Y-188467332D01*
X118699310Y-188465712D01*
X118651358Y-188491897D01*
X118581666Y-188486913D01*
X118550085Y-188466616D01*
X118549608Y-188467332D01*
X118509882Y-188440787D01*
X118509877Y-188440786D01*
X118483803Y-188435600D01*
X118483802Y-188435600D01*
X117766198Y-188435600D01*
X117766189Y-188435601D01*
X117740119Y-188440786D01*
X117700393Y-188467332D01*
X117699310Y-188465712D01*
X117651358Y-188491897D01*
X117581666Y-188486913D01*
X117550085Y-188466616D01*
X117549608Y-188467332D01*
X117509882Y-188440787D01*
X117509877Y-188440786D01*
X117483803Y-188435600D01*
X117483802Y-188435600D01*
X116766198Y-188435600D01*
X116766189Y-188435601D01*
X116740119Y-188440786D01*
X116700393Y-188467332D01*
X116699310Y-188465712D01*
X116651358Y-188491897D01*
X116581666Y-188486913D01*
X116550085Y-188466616D01*
X116549608Y-188467332D01*
X116509882Y-188440787D01*
X116509877Y-188440786D01*
X116483803Y-188435600D01*
X116483802Y-188435600D01*
X115766198Y-188435600D01*
X115766189Y-188435601D01*
X115740119Y-188440786D01*
X115700393Y-188467332D01*
X115699310Y-188465712D01*
X115651358Y-188491897D01*
X115581666Y-188486913D01*
X115550085Y-188466616D01*
X115549608Y-188467332D01*
X115509882Y-188440787D01*
X115509877Y-188440786D01*
X115483803Y-188435600D01*
X115483802Y-188435600D01*
X114766198Y-188435600D01*
X114766189Y-188435601D01*
X114740119Y-188440786D01*
X114700393Y-188467332D01*
X114699310Y-188465712D01*
X114651358Y-188491897D01*
X114581666Y-188486913D01*
X114550085Y-188466616D01*
X114549608Y-188467332D01*
X114509882Y-188440787D01*
X114509877Y-188440786D01*
X114483803Y-188435600D01*
X114483802Y-188435600D01*
X113766198Y-188435600D01*
X113766189Y-188435601D01*
X113740119Y-188440786D01*
X113710547Y-188460546D01*
X113704302Y-188469893D01*
X113650689Y-188514697D01*
X113601201Y-188525000D01*
X112843400Y-188525000D01*
X112776361Y-188505315D01*
X112730606Y-188452511D01*
X112719400Y-188401000D01*
X112719400Y-187624006D01*
X112719400Y-187624000D01*
X112717242Y-187603933D01*
X112706036Y-187552422D01*
X112685137Y-187510670D01*
X112639382Y-187457866D01*
X112594635Y-187429109D01*
X112527596Y-187409424D01*
X112527589Y-187409422D01*
X112501001Y-187405600D01*
X112501000Y-187405600D01*
X110749000Y-187405600D01*
X110748995Y-187405600D01*
X110728933Y-187407757D01*
X110686626Y-187416961D01*
X110677422Y-187418964D01*
X110635670Y-187439863D01*
X110614894Y-187457866D01*
X110582865Y-187485619D01*
X110554110Y-187530363D01*
X110554109Y-187530365D01*
X110534424Y-187597403D01*
X110534422Y-187597410D01*
X110530600Y-187623998D01*
X110530600Y-188311600D01*
X110510915Y-188378639D01*
X110458111Y-188424394D01*
X110406600Y-188435600D01*
X109766198Y-188435600D01*
X109766189Y-188435601D01*
X109740119Y-188440786D01*
X109728831Y-188445462D01*
X109727986Y-188443423D01*
X109676704Y-188459477D01*
X109609325Y-188440988D01*
X109562639Y-188389005D01*
X109550500Y-188335497D01*
X109550500Y-183070001D01*
X109535374Y-182959952D01*
X109515097Y-182812428D01*
X109444951Y-182562074D01*
X109444949Y-182562069D01*
X109341373Y-182323610D01*
X109206279Y-182101458D01*
X109193498Y-182085748D01*
X126199500Y-182085748D01*
X126199500Y-182589251D01*
X126215047Y-182687417D01*
X126215049Y-182687420D01*
X126275342Y-182805751D01*
X126275344Y-182805753D01*
X126275346Y-182805756D01*
X126369243Y-182899653D01*
X126369245Y-182899654D01*
X126369249Y-182899658D01*
X126487580Y-182959951D01*
X126487581Y-182959951D01*
X126487583Y-182959952D01*
X126487582Y-182959952D01*
X126585749Y-182975500D01*
X126585754Y-182975500D01*
X127164251Y-182975500D01*
X127262417Y-182959952D01*
X127262418Y-182959951D01*
X127262420Y-182959951D01*
X127380751Y-182899658D01*
X127474658Y-182805751D01*
X127514516Y-182727524D01*
X127562490Y-182676730D01*
X127630311Y-182659935D01*
X127696445Y-182682472D01*
X127735482Y-182727523D01*
X127775342Y-182805751D01*
X127775344Y-182805753D01*
X127775346Y-182805756D01*
X127869243Y-182899653D01*
X127869245Y-182899654D01*
X127869249Y-182899658D01*
X127987580Y-182959951D01*
X127987581Y-182959951D01*
X127987583Y-182959952D01*
X127987582Y-182959952D01*
X128085749Y-182975500D01*
X128085754Y-182975500D01*
X128664251Y-182975500D01*
X128762417Y-182959952D01*
X128762418Y-182959951D01*
X128762420Y-182959951D01*
X128880751Y-182899658D01*
X128974658Y-182805751D01*
X129034951Y-182687420D01*
X129034951Y-182687418D01*
X129034952Y-182687417D01*
X129050500Y-182589251D01*
X129050500Y-182085748D01*
X131199500Y-182085748D01*
X131199500Y-182589251D01*
X131215047Y-182687417D01*
X131215049Y-182687420D01*
X131275342Y-182805751D01*
X131275344Y-182805753D01*
X131275346Y-182805756D01*
X131369243Y-182899653D01*
X131369245Y-182899654D01*
X131369249Y-182899658D01*
X131487580Y-182959951D01*
X131487581Y-182959951D01*
X131487583Y-182959952D01*
X131487582Y-182959952D01*
X131585749Y-182975500D01*
X131585754Y-182975500D01*
X132164251Y-182975500D01*
X132262417Y-182959952D01*
X132262418Y-182959951D01*
X132262420Y-182959951D01*
X132380751Y-182899658D01*
X132474658Y-182805751D01*
X132514516Y-182727524D01*
X132562490Y-182676730D01*
X132630311Y-182659935D01*
X132696445Y-182682472D01*
X132735482Y-182727523D01*
X132775342Y-182805751D01*
X132775344Y-182805753D01*
X132775346Y-182805756D01*
X132869243Y-182899653D01*
X132869245Y-182899654D01*
X132869249Y-182899658D01*
X132987580Y-182959951D01*
X132987581Y-182959951D01*
X132987583Y-182959952D01*
X132987582Y-182959952D01*
X133085749Y-182975500D01*
X133085754Y-182975500D01*
X133664251Y-182975500D01*
X133762417Y-182959952D01*
X133762418Y-182959951D01*
X133762420Y-182959951D01*
X133880751Y-182899658D01*
X133974658Y-182805751D01*
X134034951Y-182687420D01*
X134034951Y-182687418D01*
X134034952Y-182687417D01*
X134050500Y-182589251D01*
X134050500Y-182085748D01*
X135199500Y-182085748D01*
X135199500Y-182589251D01*
X135215047Y-182687417D01*
X135215049Y-182687420D01*
X135275342Y-182805751D01*
X135275344Y-182805753D01*
X135275346Y-182805756D01*
X135369243Y-182899653D01*
X135369245Y-182899654D01*
X135369249Y-182899658D01*
X135487580Y-182959951D01*
X135487581Y-182959951D01*
X135487583Y-182959952D01*
X135487582Y-182959952D01*
X135585749Y-182975500D01*
X135585754Y-182975500D01*
X136164251Y-182975500D01*
X136262417Y-182959952D01*
X136262418Y-182959951D01*
X136262420Y-182959951D01*
X136380751Y-182899658D01*
X136474658Y-182805751D01*
X136514516Y-182727524D01*
X136562490Y-182676730D01*
X136630311Y-182659935D01*
X136696445Y-182682472D01*
X136735482Y-182727523D01*
X136775342Y-182805751D01*
X136775344Y-182805753D01*
X136775346Y-182805756D01*
X136869243Y-182899653D01*
X136869245Y-182899654D01*
X136869249Y-182899658D01*
X136987580Y-182959951D01*
X136987581Y-182959951D01*
X136987583Y-182959952D01*
X136987582Y-182959952D01*
X137085749Y-182975500D01*
X137085754Y-182975500D01*
X137664251Y-182975500D01*
X137762417Y-182959952D01*
X137762418Y-182959951D01*
X137762420Y-182959951D01*
X137880751Y-182899658D01*
X137974658Y-182805751D01*
X138034951Y-182687420D01*
X138034951Y-182687418D01*
X138034952Y-182687417D01*
X138050500Y-182589251D01*
X138050500Y-182085748D01*
X139199500Y-182085748D01*
X139199500Y-182589251D01*
X139215047Y-182687417D01*
X139215049Y-182687420D01*
X139275342Y-182805751D01*
X139275344Y-182805753D01*
X139275346Y-182805756D01*
X139369243Y-182899653D01*
X139369245Y-182899654D01*
X139369249Y-182899658D01*
X139487580Y-182959951D01*
X139487581Y-182959951D01*
X139487583Y-182959952D01*
X139487582Y-182959952D01*
X139585749Y-182975500D01*
X139585754Y-182975500D01*
X140164251Y-182975500D01*
X140262417Y-182959952D01*
X140262418Y-182959951D01*
X140262420Y-182959951D01*
X140380751Y-182899658D01*
X140474658Y-182805751D01*
X140514516Y-182727524D01*
X140562490Y-182676730D01*
X140630311Y-182659935D01*
X140696445Y-182682472D01*
X140735482Y-182727523D01*
X140775342Y-182805751D01*
X140775344Y-182805753D01*
X140775346Y-182805756D01*
X140869243Y-182899653D01*
X140869245Y-182899654D01*
X140869249Y-182899658D01*
X140987580Y-182959951D01*
X140987581Y-182959951D01*
X140987583Y-182959952D01*
X140987582Y-182959952D01*
X141085749Y-182975500D01*
X141085754Y-182975500D01*
X141664251Y-182975500D01*
X141762417Y-182959952D01*
X141762418Y-182959951D01*
X141762420Y-182959951D01*
X141880751Y-182899658D01*
X141974658Y-182805751D01*
X142034951Y-182687420D01*
X142034951Y-182687418D01*
X142034952Y-182687417D01*
X142050500Y-182589251D01*
X142050500Y-182085748D01*
X142034952Y-181987582D01*
X142014515Y-181947473D01*
X141974658Y-181869249D01*
X141974654Y-181869245D01*
X141974653Y-181869243D01*
X141880756Y-181775346D01*
X141880753Y-181775344D01*
X141880751Y-181775342D01*
X141762420Y-181715049D01*
X141762419Y-181715048D01*
X141762416Y-181715047D01*
X141762417Y-181715047D01*
X141664251Y-181699500D01*
X141664246Y-181699500D01*
X141085754Y-181699500D01*
X141085749Y-181699500D01*
X140987582Y-181715047D01*
X140908692Y-181755244D01*
X140869249Y-181775342D01*
X140869248Y-181775343D01*
X140869243Y-181775346D01*
X140775346Y-181869243D01*
X140775343Y-181869248D01*
X140775342Y-181869249D01*
X140759786Y-181899780D01*
X140735485Y-181947473D01*
X140687510Y-181998269D01*
X140619689Y-182015064D01*
X140553554Y-181992526D01*
X140514515Y-181947473D01*
X140474658Y-181869249D01*
X140474654Y-181869245D01*
X140474653Y-181869243D01*
X140380756Y-181775346D01*
X140380753Y-181775344D01*
X140380751Y-181775342D01*
X140262420Y-181715049D01*
X140262419Y-181715048D01*
X140262416Y-181715047D01*
X140262417Y-181715047D01*
X140164251Y-181699500D01*
X140164246Y-181699500D01*
X139585754Y-181699500D01*
X139585749Y-181699500D01*
X139487582Y-181715047D01*
X139408692Y-181755244D01*
X139369249Y-181775342D01*
X139369248Y-181775343D01*
X139369243Y-181775346D01*
X139275346Y-181869243D01*
X139275343Y-181869248D01*
X139215047Y-181987582D01*
X139199500Y-182085748D01*
X138050500Y-182085748D01*
X138034952Y-181987582D01*
X138014515Y-181947473D01*
X137974658Y-181869249D01*
X137974654Y-181869245D01*
X137974653Y-181869243D01*
X137880756Y-181775346D01*
X137880753Y-181775344D01*
X137880751Y-181775342D01*
X137762420Y-181715049D01*
X137762419Y-181715048D01*
X137762416Y-181715047D01*
X137762417Y-181715047D01*
X137664251Y-181699500D01*
X137664246Y-181699500D01*
X137085754Y-181699500D01*
X137085749Y-181699500D01*
X136987582Y-181715047D01*
X136908692Y-181755244D01*
X136869249Y-181775342D01*
X136869248Y-181775343D01*
X136869243Y-181775346D01*
X136775346Y-181869243D01*
X136775343Y-181869248D01*
X136775342Y-181869249D01*
X136759786Y-181899780D01*
X136735485Y-181947473D01*
X136687510Y-181998269D01*
X136619689Y-182015064D01*
X136553554Y-181992526D01*
X136514515Y-181947473D01*
X136474658Y-181869249D01*
X136474654Y-181869245D01*
X136474653Y-181869243D01*
X136380756Y-181775346D01*
X136380753Y-181775344D01*
X136380751Y-181775342D01*
X136262420Y-181715049D01*
X136262419Y-181715048D01*
X136262416Y-181715047D01*
X136262417Y-181715047D01*
X136164251Y-181699500D01*
X136164246Y-181699500D01*
X135585754Y-181699500D01*
X135585749Y-181699500D01*
X135487582Y-181715047D01*
X135408692Y-181755244D01*
X135369249Y-181775342D01*
X135369248Y-181775343D01*
X135369243Y-181775346D01*
X135275346Y-181869243D01*
X135275343Y-181869248D01*
X135215047Y-181987582D01*
X135199500Y-182085748D01*
X134050500Y-182085748D01*
X134034952Y-181987582D01*
X134014515Y-181947473D01*
X133974658Y-181869249D01*
X133974654Y-181869245D01*
X133974653Y-181869243D01*
X133880756Y-181775346D01*
X133880753Y-181775344D01*
X133880751Y-181775342D01*
X133762420Y-181715049D01*
X133762419Y-181715048D01*
X133762416Y-181715047D01*
X133762417Y-181715047D01*
X133664251Y-181699500D01*
X133664246Y-181699500D01*
X133085754Y-181699500D01*
X133085749Y-181699500D01*
X132987582Y-181715047D01*
X132908692Y-181755244D01*
X132869249Y-181775342D01*
X132869248Y-181775343D01*
X132869243Y-181775346D01*
X132775346Y-181869243D01*
X132775343Y-181869248D01*
X132775342Y-181869249D01*
X132759786Y-181899780D01*
X132735485Y-181947473D01*
X132687510Y-181998269D01*
X132619689Y-182015064D01*
X132553554Y-181992526D01*
X132514515Y-181947473D01*
X132474658Y-181869249D01*
X132474654Y-181869245D01*
X132474653Y-181869243D01*
X132380756Y-181775346D01*
X132380753Y-181775344D01*
X132380751Y-181775342D01*
X132262420Y-181715049D01*
X132262419Y-181715048D01*
X132262416Y-181715047D01*
X132262417Y-181715047D01*
X132164251Y-181699500D01*
X132164246Y-181699500D01*
X131585754Y-181699500D01*
X131585749Y-181699500D01*
X131487582Y-181715047D01*
X131408692Y-181755244D01*
X131369249Y-181775342D01*
X131369248Y-181775343D01*
X131369243Y-181775346D01*
X131275346Y-181869243D01*
X131275343Y-181869248D01*
X131215047Y-181987582D01*
X131199500Y-182085748D01*
X129050500Y-182085748D01*
X129034952Y-181987582D01*
X129014515Y-181947473D01*
X128974658Y-181869249D01*
X128974654Y-181869245D01*
X128974653Y-181869243D01*
X128880756Y-181775346D01*
X128880753Y-181775344D01*
X128880751Y-181775342D01*
X128762420Y-181715049D01*
X128762419Y-181715048D01*
X128762416Y-181715047D01*
X128762417Y-181715047D01*
X128664251Y-181699500D01*
X128664246Y-181699500D01*
X128085754Y-181699500D01*
X128085749Y-181699500D01*
X127987582Y-181715047D01*
X127908692Y-181755244D01*
X127869249Y-181775342D01*
X127869248Y-181775343D01*
X127869243Y-181775346D01*
X127775346Y-181869243D01*
X127775343Y-181869248D01*
X127775342Y-181869249D01*
X127759786Y-181899780D01*
X127735485Y-181947473D01*
X127687510Y-181998269D01*
X127619689Y-182015064D01*
X127553554Y-181992526D01*
X127514515Y-181947473D01*
X127474658Y-181869249D01*
X127474654Y-181869245D01*
X127474653Y-181869243D01*
X127380756Y-181775346D01*
X127380753Y-181775344D01*
X127380751Y-181775342D01*
X127262420Y-181715049D01*
X127262419Y-181715048D01*
X127262416Y-181715047D01*
X127262417Y-181715047D01*
X127164251Y-181699500D01*
X127164246Y-181699500D01*
X126585754Y-181699500D01*
X126585749Y-181699500D01*
X126487582Y-181715047D01*
X126408692Y-181755244D01*
X126369249Y-181775342D01*
X126369248Y-181775343D01*
X126369243Y-181775346D01*
X126275346Y-181869243D01*
X126275343Y-181869248D01*
X126215047Y-181987582D01*
X126199500Y-182085748D01*
X109193498Y-182085748D01*
X109113632Y-181987580D01*
X109042199Y-181899777D01*
X108908962Y-181775342D01*
X108852190Y-181722320D01*
X108852187Y-181722317D01*
X108852185Y-181722316D01*
X108639777Y-181572381D01*
X108639778Y-181572381D01*
X108408927Y-181452765D01*
X108163952Y-181365700D01*
X108163950Y-181365699D01*
X107981580Y-181327803D01*
X107909389Y-181312802D01*
X107909387Y-181312801D01*
X107909383Y-181312801D01*
X107650000Y-181295059D01*
X107390616Y-181312801D01*
X107136049Y-181365699D01*
X107136047Y-181365700D01*
X106891072Y-181452765D01*
X106660222Y-181572381D01*
X106608914Y-181608599D01*
X106447815Y-181722316D01*
X106447812Y-181722317D01*
X106447810Y-181722320D01*
X106447809Y-181722320D01*
X106257798Y-181899780D01*
X106093720Y-182101458D01*
X105958626Y-182323610D01*
X105855050Y-182562069D01*
X105784904Y-182812422D01*
X105784903Y-182812428D01*
X105749500Y-183070001D01*
X105749500Y-185876000D01*
X105729815Y-185943039D01*
X105677011Y-185988794D01*
X105625500Y-186000000D01*
X98024500Y-186000000D01*
X97957461Y-185980315D01*
X97911706Y-185927511D01*
X97900500Y-185876000D01*
X97900500Y-181359983D01*
X97900500Y-181359982D01*
X97889006Y-181332233D01*
X97867767Y-181310994D01*
X97840018Y-181299500D01*
X79490018Y-181299500D01*
X79459982Y-181299500D01*
X79432231Y-181310995D01*
X79410995Y-181332231D01*
X79399500Y-181359982D01*
X79399500Y-189425500D01*
X79379815Y-189492539D01*
X79327011Y-189538294D01*
X79275500Y-189549500D01*
X66479067Y-189549500D01*
X66470957Y-189549235D01*
X66231906Y-189533567D01*
X66215825Y-189531449D01*
X65984872Y-189485509D01*
X65969210Y-189481312D01*
X65746220Y-189405617D01*
X65731238Y-189399412D01*
X65520039Y-189295260D01*
X65505993Y-189287150D01*
X65310197Y-189156324D01*
X65297328Y-189146450D01*
X65120283Y-188991185D01*
X65108814Y-188979716D01*
X64953549Y-188802671D01*
X64943675Y-188789802D01*
X64812849Y-188594006D01*
X64804739Y-188579960D01*
X64767897Y-188505252D01*
X64700584Y-188368754D01*
X64694384Y-188353787D01*
X64618683Y-188130779D01*
X64614492Y-188115136D01*
X64568548Y-187884165D01*
X64566433Y-187868102D01*
X64550765Y-187629042D01*
X64550500Y-187620933D01*
X64550500Y-184774995D01*
X70294802Y-184774995D01*
X70294802Y-184775004D01*
X70313567Y-185025419D01*
X70369445Y-185270235D01*
X70369448Y-185270247D01*
X70369450Y-185270252D01*
X70461194Y-185504011D01*
X70461193Y-185504011D01*
X70540796Y-185641885D01*
X70586755Y-185721489D01*
X70691619Y-185852984D01*
X70743331Y-185917829D01*
X70840886Y-186008346D01*
X70927414Y-186088632D01*
X71134901Y-186230094D01*
X71134906Y-186230096D01*
X71134907Y-186230097D01*
X71134908Y-186230098D01*
X71240050Y-186280731D01*
X71361151Y-186339050D01*
X71361152Y-186339050D01*
X71361155Y-186339052D01*
X71601121Y-186413072D01*
X71849439Y-186450500D01*
X71849440Y-186450500D01*
X72100560Y-186450500D01*
X72100561Y-186450500D01*
X72348879Y-186413072D01*
X72588845Y-186339052D01*
X72815099Y-186230094D01*
X73022586Y-186088632D01*
X73165447Y-185956076D01*
X73206668Y-185917829D01*
X73206668Y-185917827D01*
X73206672Y-185917825D01*
X73363245Y-185721489D01*
X73488806Y-185504011D01*
X73580552Y-185270247D01*
X73636432Y-185025421D01*
X73655198Y-184775000D01*
X73654512Y-184765848D01*
X73638878Y-184557223D01*
X73636432Y-184524579D01*
X73580552Y-184279753D01*
X73488806Y-184045989D01*
X73488805Y-184045988D01*
X73488806Y-184045988D01*
X73392349Y-183878921D01*
X73363245Y-183828511D01*
X73206672Y-183632175D01*
X73206671Y-183632174D01*
X73206668Y-183632170D01*
X73022586Y-183461368D01*
X72997477Y-183444249D01*
X72815099Y-183319906D01*
X72815095Y-183319904D01*
X72815092Y-183319902D01*
X72815091Y-183319901D01*
X72588847Y-183210949D01*
X72588849Y-183210949D01*
X72348887Y-183136930D01*
X72348883Y-183136929D01*
X72348879Y-183136928D01*
X72229432Y-183118924D01*
X72100566Y-183099500D01*
X72100561Y-183099500D01*
X71849439Y-183099500D01*
X71849433Y-183099500D01*
X71694792Y-183122809D01*
X71601121Y-183136928D01*
X71601118Y-183136929D01*
X71601112Y-183136930D01*
X71361151Y-183210949D01*
X71134908Y-183319901D01*
X71134907Y-183319902D01*
X70927413Y-183461368D01*
X70743331Y-183632170D01*
X70586755Y-183828511D01*
X70461194Y-184045988D01*
X70369450Y-184279747D01*
X70369445Y-184279764D01*
X70313567Y-184524580D01*
X70294802Y-184774995D01*
X64550500Y-184774995D01*
X64550500Y-146556726D01*
X145936114Y-146556726D01*
X145936114Y-146556727D01*
X146022094Y-146601853D01*
X146189033Y-146643000D01*
X146360967Y-146643000D01*
X146527903Y-146601854D01*
X146613884Y-146556726D01*
X147036114Y-146556726D01*
X147036114Y-146556727D01*
X147122094Y-146601853D01*
X147289033Y-146643000D01*
X147460967Y-146643000D01*
X147627903Y-146601854D01*
X147713884Y-146556726D01*
X147375001Y-146217843D01*
X147375000Y-146217843D01*
X147036114Y-146556726D01*
X146613884Y-146556726D01*
X146275001Y-146217843D01*
X146275000Y-146217843D01*
X145936114Y-146556726D01*
X64550500Y-146556726D01*
X64550500Y-146006726D01*
X145386114Y-146006726D01*
X145386114Y-146006727D01*
X145472095Y-146051854D01*
X145508201Y-146060753D01*
X145568582Y-146095909D01*
X145594469Y-146137178D01*
X145643493Y-146266440D01*
X145650526Y-146276629D01*
X145992157Y-145935000D01*
X145992157Y-145934999D01*
X145962321Y-145905163D01*
X146125000Y-145905163D01*
X146125000Y-145964837D01*
X146147836Y-146019968D01*
X146190032Y-146062164D01*
X146245163Y-146085000D01*
X146304837Y-146085000D01*
X146359968Y-146062164D01*
X146402164Y-146019968D01*
X146425000Y-145964837D01*
X146425000Y-145935000D01*
X146557843Y-145935000D01*
X146825000Y-146202157D01*
X147092157Y-145935000D01*
X147062320Y-145905163D01*
X147225000Y-145905163D01*
X147225000Y-145964837D01*
X147247836Y-146019968D01*
X147290032Y-146062164D01*
X147345163Y-146085000D01*
X147404837Y-146085000D01*
X147459968Y-146062164D01*
X147502164Y-146019968D01*
X147525000Y-145964837D01*
X147525000Y-145935000D01*
X147657843Y-145935000D01*
X147999472Y-146276629D01*
X147999474Y-146276629D01*
X148006504Y-146266445D01*
X148055529Y-146137179D01*
X148097707Y-146081476D01*
X148141798Y-146060753D01*
X148177902Y-146051854D01*
X148263884Y-146006726D01*
X147925000Y-145667843D01*
X147657843Y-145935000D01*
X147525000Y-145935000D01*
X147525000Y-145905163D01*
X147502164Y-145850032D01*
X147459968Y-145807836D01*
X147404837Y-145785000D01*
X147345163Y-145785000D01*
X147290032Y-145807836D01*
X147247836Y-145850032D01*
X147225000Y-145905163D01*
X147062320Y-145905163D01*
X146825000Y-145667843D01*
X146557843Y-145935000D01*
X146425000Y-145935000D01*
X146425000Y-145905163D01*
X146402164Y-145850032D01*
X146359968Y-145807836D01*
X146304837Y-145785000D01*
X146245163Y-145785000D01*
X146190032Y-145807836D01*
X146147836Y-145850032D01*
X146125000Y-145905163D01*
X145962321Y-145905163D01*
X145725001Y-145667843D01*
X145725000Y-145667843D01*
X145386114Y-146006726D01*
X64550500Y-146006726D01*
X64550500Y-145384999D01*
X145011800Y-145384999D01*
X145011800Y-145385000D01*
X145032523Y-145555679D01*
X145093493Y-145716440D01*
X145100526Y-145726629D01*
X145442157Y-145385000D01*
X145412320Y-145355163D01*
X145575000Y-145355163D01*
X145575000Y-145414837D01*
X145597836Y-145469968D01*
X145640032Y-145512164D01*
X145695163Y-145535000D01*
X145754837Y-145535000D01*
X145809968Y-145512164D01*
X145852164Y-145469968D01*
X145875000Y-145414837D01*
X145875000Y-145385000D01*
X146007843Y-145385000D01*
X146275000Y-145652157D01*
X146542157Y-145385000D01*
X146512320Y-145355163D01*
X146675000Y-145355163D01*
X146675000Y-145414837D01*
X146697836Y-145469968D01*
X146740032Y-145512164D01*
X146795163Y-145535000D01*
X146854837Y-145535000D01*
X146909968Y-145512164D01*
X146952164Y-145469968D01*
X146975000Y-145414837D01*
X146975000Y-145385000D01*
X147107843Y-145385000D01*
X147375000Y-145652157D01*
X147642157Y-145385000D01*
X147612320Y-145355163D01*
X147775000Y-145355163D01*
X147775000Y-145414837D01*
X147797836Y-145469968D01*
X147840032Y-145512164D01*
X147895163Y-145535000D01*
X147954837Y-145535000D01*
X148009968Y-145512164D01*
X148052164Y-145469968D01*
X148075000Y-145414837D01*
X148075000Y-145384999D01*
X148207843Y-145384999D01*
X148207843Y-145385000D01*
X148549472Y-145726629D01*
X148549474Y-145726629D01*
X148556504Y-145716446D01*
X148617476Y-145555679D01*
X148638200Y-145385000D01*
X148638200Y-145384999D01*
X148617475Y-145214319D01*
X148556507Y-145053558D01*
X148549473Y-145043369D01*
X148207843Y-145384999D01*
X148075000Y-145384999D01*
X148075000Y-145355163D01*
X148052164Y-145300032D01*
X148009968Y-145257836D01*
X147954837Y-145235000D01*
X147895163Y-145235000D01*
X147840032Y-145257836D01*
X147797836Y-145300032D01*
X147775000Y-145355163D01*
X147612320Y-145355163D01*
X147375000Y-145117843D01*
X147107843Y-145385000D01*
X146975000Y-145385000D01*
X146975000Y-145355163D01*
X146952164Y-145300032D01*
X146909968Y-145257836D01*
X146854837Y-145235000D01*
X146795163Y-145235000D01*
X146740032Y-145257836D01*
X146697836Y-145300032D01*
X146675000Y-145355163D01*
X146512320Y-145355163D01*
X146275000Y-145117843D01*
X146007843Y-145385000D01*
X145875000Y-145385000D01*
X145875000Y-145355163D01*
X145852164Y-145300032D01*
X145809968Y-145257836D01*
X145754837Y-145235000D01*
X145695163Y-145235000D01*
X145640032Y-145257836D01*
X145597836Y-145300032D01*
X145575000Y-145355163D01*
X145412320Y-145355163D01*
X145100525Y-145043368D01*
X145093492Y-145053559D01*
X145032524Y-145214319D01*
X145011800Y-145384999D01*
X64550500Y-145384999D01*
X64550500Y-144835000D01*
X145457843Y-144835000D01*
X145725000Y-145102157D01*
X145992157Y-144835000D01*
X145962320Y-144805163D01*
X146125000Y-144805163D01*
X146125000Y-144864837D01*
X146147836Y-144919968D01*
X146190032Y-144962164D01*
X146245163Y-144985000D01*
X146304837Y-144985000D01*
X146359968Y-144962164D01*
X146402164Y-144919968D01*
X146425000Y-144864837D01*
X146425000Y-144835000D01*
X146557843Y-144835000D01*
X146825000Y-145102157D01*
X147092157Y-144835000D01*
X147062320Y-144805163D01*
X147225000Y-144805163D01*
X147225000Y-144864837D01*
X147247836Y-144919968D01*
X147290032Y-144962164D01*
X147345163Y-144985000D01*
X147404837Y-144985000D01*
X147459968Y-144962164D01*
X147502164Y-144919968D01*
X147525000Y-144864837D01*
X147525000Y-144835000D01*
X147657843Y-144835000D01*
X147925000Y-145102157D01*
X148192157Y-144835000D01*
X147925000Y-144567843D01*
X147657843Y-144835000D01*
X147525000Y-144835000D01*
X147525000Y-144805163D01*
X147502164Y-144750032D01*
X147459968Y-144707836D01*
X147404837Y-144685000D01*
X147345163Y-144685000D01*
X147290032Y-144707836D01*
X147247836Y-144750032D01*
X147225000Y-144805163D01*
X147062320Y-144805163D01*
X146825000Y-144567843D01*
X146557843Y-144835000D01*
X146425000Y-144835000D01*
X146425000Y-144805163D01*
X146402164Y-144750032D01*
X146359968Y-144707836D01*
X146304837Y-144685000D01*
X146245163Y-144685000D01*
X146190032Y-144707836D01*
X146147836Y-144750032D01*
X146125000Y-144805163D01*
X145962320Y-144805163D01*
X145725000Y-144567843D01*
X145457843Y-144835000D01*
X64550500Y-144835000D01*
X64550500Y-144284999D01*
X145011800Y-144284999D01*
X145011800Y-144285000D01*
X145032523Y-144455679D01*
X145093493Y-144616440D01*
X145100526Y-144626629D01*
X145442157Y-144285000D01*
X145412320Y-144255163D01*
X145575000Y-144255163D01*
X145575000Y-144314837D01*
X145597836Y-144369968D01*
X145640032Y-144412164D01*
X145695163Y-144435000D01*
X145754837Y-144435000D01*
X145809968Y-144412164D01*
X145852164Y-144369968D01*
X145875000Y-144314837D01*
X145875000Y-144285000D01*
X146007843Y-144285000D01*
X146275000Y-144552157D01*
X146542157Y-144285000D01*
X146512320Y-144255163D01*
X146675000Y-144255163D01*
X146675000Y-144314837D01*
X146697836Y-144369968D01*
X146740032Y-144412164D01*
X146795163Y-144435000D01*
X146854837Y-144435000D01*
X146909968Y-144412164D01*
X146952164Y-144369968D01*
X146975000Y-144314837D01*
X146975000Y-144285000D01*
X147107843Y-144285000D01*
X147375000Y-144552157D01*
X147642157Y-144285000D01*
X147612320Y-144255163D01*
X147775000Y-144255163D01*
X147775000Y-144314837D01*
X147797836Y-144369968D01*
X147840032Y-144412164D01*
X147895163Y-144435000D01*
X147954837Y-144435000D01*
X148009968Y-144412164D01*
X148052164Y-144369968D01*
X148075000Y-144314837D01*
X148075000Y-144284999D01*
X148207843Y-144284999D01*
X148207843Y-144285000D01*
X148549472Y-144626629D01*
X148549474Y-144626629D01*
X148556504Y-144616446D01*
X148617476Y-144455679D01*
X148638200Y-144285000D01*
X148638200Y-144284999D01*
X148617475Y-144114319D01*
X148556507Y-143953558D01*
X148549473Y-143943369D01*
X148207843Y-144284999D01*
X148075000Y-144284999D01*
X148075000Y-144255163D01*
X148052164Y-144200032D01*
X148009968Y-144157836D01*
X147954837Y-144135000D01*
X147895163Y-144135000D01*
X147840032Y-144157836D01*
X147797836Y-144200032D01*
X147775000Y-144255163D01*
X147612320Y-144255163D01*
X147375000Y-144017843D01*
X147107843Y-144285000D01*
X146975000Y-144285000D01*
X146975000Y-144255163D01*
X146952164Y-144200032D01*
X146909968Y-144157836D01*
X146854837Y-144135000D01*
X146795163Y-144135000D01*
X146740032Y-144157836D01*
X146697836Y-144200032D01*
X146675000Y-144255163D01*
X146512320Y-144255163D01*
X146275000Y-144017843D01*
X146007843Y-144285000D01*
X145875000Y-144285000D01*
X145875000Y-144255163D01*
X145852164Y-144200032D01*
X145809968Y-144157836D01*
X145754837Y-144135000D01*
X145695163Y-144135000D01*
X145640032Y-144157836D01*
X145597836Y-144200032D01*
X145575000Y-144255163D01*
X145412320Y-144255163D01*
X145100525Y-143943368D01*
X145093492Y-143953559D01*
X145032524Y-144114319D01*
X145011800Y-144284999D01*
X64550500Y-144284999D01*
X64550500Y-143663272D01*
X145386115Y-143663272D01*
X145725000Y-144002157D01*
X145992157Y-143735000D01*
X145962320Y-143705163D01*
X146125000Y-143705163D01*
X146125000Y-143764837D01*
X146147836Y-143819968D01*
X146190032Y-143862164D01*
X146245163Y-143885000D01*
X146304837Y-143885000D01*
X146359968Y-143862164D01*
X146402164Y-143819968D01*
X146425000Y-143764837D01*
X146425000Y-143735000D01*
X146557843Y-143735000D01*
X146825000Y-144002157D01*
X147092157Y-143735000D01*
X147062320Y-143705163D01*
X147225000Y-143705163D01*
X147225000Y-143764837D01*
X147247836Y-143819968D01*
X147290032Y-143862164D01*
X147345163Y-143885000D01*
X147404837Y-143885000D01*
X147459968Y-143862164D01*
X147502164Y-143819968D01*
X147525000Y-143764837D01*
X147525000Y-143734999D01*
X147657843Y-143734999D01*
X147657843Y-143735000D01*
X147925000Y-144002157D01*
X147925001Y-144002157D01*
X148263884Y-143663272D01*
X148177900Y-143618144D01*
X148141793Y-143609244D01*
X148081413Y-143574087D01*
X148055529Y-143532819D01*
X148006506Y-143403558D01*
X147999473Y-143393369D01*
X147657843Y-143734999D01*
X147525000Y-143734999D01*
X147525000Y-143705163D01*
X147502164Y-143650032D01*
X147459968Y-143607836D01*
X147404837Y-143585000D01*
X147345163Y-143585000D01*
X147290032Y-143607836D01*
X147247836Y-143650032D01*
X147225000Y-143705163D01*
X147062320Y-143705163D01*
X146825000Y-143467843D01*
X146557843Y-143735000D01*
X146425000Y-143735000D01*
X146425000Y-143705163D01*
X146402164Y-143650032D01*
X146359968Y-143607836D01*
X146304837Y-143585000D01*
X146245163Y-143585000D01*
X146190032Y-143607836D01*
X146147836Y-143650032D01*
X146125000Y-143705163D01*
X145962320Y-143705163D01*
X145650525Y-143393368D01*
X145643493Y-143403558D01*
X145594470Y-143532820D01*
X145552292Y-143588522D01*
X145508207Y-143609244D01*
X145472098Y-143618145D01*
X145386115Y-143663272D01*
X64550500Y-143663272D01*
X64550500Y-143113272D01*
X145936115Y-143113272D01*
X146275000Y-143452157D01*
X146275001Y-143452157D01*
X146613883Y-143113272D01*
X147036115Y-143113272D01*
X147375000Y-143452157D01*
X147375001Y-143452157D01*
X147713884Y-143113271D01*
X147627902Y-143068145D01*
X147460967Y-143027000D01*
X147289033Y-143027000D01*
X147122097Y-143068145D01*
X147036115Y-143113272D01*
X146613883Y-143113272D01*
X146613884Y-143113271D01*
X146527902Y-143068145D01*
X146360967Y-143027000D01*
X146189033Y-143027000D01*
X146022097Y-143068145D01*
X145936115Y-143113272D01*
X64550500Y-143113272D01*
X64550500Y-130874995D01*
X70294802Y-130874995D01*
X70294802Y-130875004D01*
X70313567Y-131125419D01*
X70369445Y-131370235D01*
X70369448Y-131370247D01*
X70369450Y-131370252D01*
X70461194Y-131604011D01*
X70461193Y-131604011D01*
X70540796Y-131741885D01*
X70586755Y-131821489D01*
X70691619Y-131952984D01*
X70743331Y-132017829D01*
X70840886Y-132108346D01*
X70927414Y-132188632D01*
X71134901Y-132330094D01*
X71134906Y-132330096D01*
X71134907Y-132330097D01*
X71134908Y-132330098D01*
X71240050Y-132380731D01*
X71361151Y-132439050D01*
X71361152Y-132439050D01*
X71361155Y-132439052D01*
X71601121Y-132513072D01*
X71849439Y-132550500D01*
X71849440Y-132550500D01*
X72100560Y-132550500D01*
X72100561Y-132550500D01*
X72348879Y-132513072D01*
X72588845Y-132439052D01*
X72815099Y-132330094D01*
X73022586Y-132188632D01*
X73206672Y-132017825D01*
X73363245Y-131821489D01*
X73488806Y-131604011D01*
X73580552Y-131370247D01*
X73636432Y-131125421D01*
X73655198Y-130875000D01*
X73636432Y-130624579D01*
X73580552Y-130379753D01*
X73488806Y-130145989D01*
X73488805Y-130145988D01*
X73488806Y-130145988D01*
X73392349Y-129978921D01*
X73363245Y-129928511D01*
X73206672Y-129732175D01*
X73206671Y-129732174D01*
X73206668Y-129732170D01*
X73022586Y-129561368D01*
X72815099Y-129419906D01*
X72815095Y-129419904D01*
X72815092Y-129419902D01*
X72815091Y-129419901D01*
X72588847Y-129310949D01*
X72588849Y-129310949D01*
X72348887Y-129236930D01*
X72348883Y-129236929D01*
X72348879Y-129236928D01*
X72229432Y-129218924D01*
X72100566Y-129199500D01*
X72100561Y-129199500D01*
X71849439Y-129199500D01*
X71849433Y-129199500D01*
X71694792Y-129222809D01*
X71601121Y-129236928D01*
X71601118Y-129236929D01*
X71601112Y-129236930D01*
X71361151Y-129310949D01*
X71134908Y-129419901D01*
X71134907Y-129419902D01*
X70927413Y-129561368D01*
X70743331Y-129732170D01*
X70586755Y-129928511D01*
X70461194Y-130145988D01*
X70369450Y-130379747D01*
X70369445Y-130379764D01*
X70313567Y-130624580D01*
X70294802Y-130874995D01*
X64550500Y-130874995D01*
X64550500Y-127229066D01*
X64550765Y-127220957D01*
X64559416Y-127088965D01*
X64566433Y-126981895D01*
X64568548Y-126965836D01*
X64614493Y-126734859D01*
X64618682Y-126719224D01*
X64694386Y-126496206D01*
X64700581Y-126481251D01*
X64804742Y-126270033D01*
X64812849Y-126255993D01*
X64858161Y-126188179D01*
X64943678Y-126060192D01*
X64953540Y-126047339D01*
X65108819Y-125870277D01*
X65120277Y-125858819D01*
X65297339Y-125703540D01*
X65310192Y-125693678D01*
X65505993Y-125562849D01*
X65520033Y-125554742D01*
X65731251Y-125450581D01*
X65746206Y-125444386D01*
X65969224Y-125368682D01*
X65984859Y-125364493D01*
X66215836Y-125318548D01*
X66231895Y-125316433D01*
X66448904Y-125302210D01*
X66470958Y-125300765D01*
X66479067Y-125300500D01*
X66499531Y-125300500D01*
X149200469Y-125300500D01*
X149222294Y-125300500D01*
X149227702Y-125300618D01*
G37*
G04 #@! TD.AperFunction*
M02*
