G04 #@! TF.GenerationSoftware,KiCad,Pcbnew,8.0.4*
G04 #@! TF.CreationDate,2024-08-17T23:21:43-04:00*
G04 #@! TF.ProjectId,PCIexpress_x4_low,50434965-7870-4726-9573-735f78345f6c,rev?*
G04 #@! TF.SameCoordinates,Original*
G04 #@! TF.FileFunction,Legend,Top*
G04 #@! TF.FilePolarity,Positive*
%FSLAX46Y46*%
G04 Gerber Fmt 4.6, Leading zero omitted, Abs format (unit mm)*
G04 Created by KiCad (PCBNEW 8.0.4) date 2024-08-17 23:21:43*
%MOMM*%
%LPD*%
G01*
G04 APERTURE LIST*
%ADD10C,0.150000*%
%ADD11C,0.200000*%
%ADD12C,0.127000*%
%ADD13C,0.120000*%
G04 APERTURE END LIST*
D10*
X160664819Y-138061904D02*
X161474342Y-138061904D01*
X161474342Y-138061904D02*
X161569580Y-138014285D01*
X161569580Y-138014285D02*
X161617200Y-137966666D01*
X161617200Y-137966666D02*
X161664819Y-137871428D01*
X161664819Y-137871428D02*
X161664819Y-137680952D01*
X161664819Y-137680952D02*
X161617200Y-137585714D01*
X161617200Y-137585714D02*
X161569580Y-137538095D01*
X161569580Y-137538095D02*
X161474342Y-137490476D01*
X161474342Y-137490476D02*
X160664819Y-137490476D01*
X161664819Y-136490476D02*
X161664819Y-137061904D01*
X161664819Y-136776190D02*
X160664819Y-136776190D01*
X160664819Y-136776190D02*
X160807676Y-136871428D01*
X160807676Y-136871428D02*
X160902914Y-136966666D01*
X160902914Y-136966666D02*
X160950533Y-137061904D01*
X126958333Y-179704819D02*
X126625000Y-179228628D01*
X126386905Y-179704819D02*
X126386905Y-178704819D01*
X126386905Y-178704819D02*
X126767857Y-178704819D01*
X126767857Y-178704819D02*
X126863095Y-178752438D01*
X126863095Y-178752438D02*
X126910714Y-178800057D01*
X126910714Y-178800057D02*
X126958333Y-178895295D01*
X126958333Y-178895295D02*
X126958333Y-179038152D01*
X126958333Y-179038152D02*
X126910714Y-179133390D01*
X126910714Y-179133390D02*
X126863095Y-179181009D01*
X126863095Y-179181009D02*
X126767857Y-179228628D01*
X126767857Y-179228628D02*
X126386905Y-179228628D01*
X127910714Y-179704819D02*
X127339286Y-179704819D01*
X127625000Y-179704819D02*
X127625000Y-178704819D01*
X127625000Y-178704819D02*
X127529762Y-178847676D01*
X127529762Y-178847676D02*
X127434524Y-178942914D01*
X127434524Y-178942914D02*
X127339286Y-178990533D01*
X123958333Y-179704819D02*
X123625000Y-179228628D01*
X123386905Y-179704819D02*
X123386905Y-178704819D01*
X123386905Y-178704819D02*
X123767857Y-178704819D01*
X123767857Y-178704819D02*
X123863095Y-178752438D01*
X123863095Y-178752438D02*
X123910714Y-178800057D01*
X123910714Y-178800057D02*
X123958333Y-178895295D01*
X123958333Y-178895295D02*
X123958333Y-179038152D01*
X123958333Y-179038152D02*
X123910714Y-179133390D01*
X123910714Y-179133390D02*
X123863095Y-179181009D01*
X123863095Y-179181009D02*
X123767857Y-179228628D01*
X123767857Y-179228628D02*
X123386905Y-179228628D01*
X124339286Y-178800057D02*
X124386905Y-178752438D01*
X124386905Y-178752438D02*
X124482143Y-178704819D01*
X124482143Y-178704819D02*
X124720238Y-178704819D01*
X124720238Y-178704819D02*
X124815476Y-178752438D01*
X124815476Y-178752438D02*
X124863095Y-178800057D01*
X124863095Y-178800057D02*
X124910714Y-178895295D01*
X124910714Y-178895295D02*
X124910714Y-178990533D01*
X124910714Y-178990533D02*
X124863095Y-179133390D01*
X124863095Y-179133390D02*
X124291667Y-179704819D01*
X124291667Y-179704819D02*
X124910714Y-179704819D01*
X135958333Y-179704819D02*
X135625000Y-179228628D01*
X135386905Y-179704819D02*
X135386905Y-178704819D01*
X135386905Y-178704819D02*
X135767857Y-178704819D01*
X135767857Y-178704819D02*
X135863095Y-178752438D01*
X135863095Y-178752438D02*
X135910714Y-178800057D01*
X135910714Y-178800057D02*
X135958333Y-178895295D01*
X135958333Y-178895295D02*
X135958333Y-179038152D01*
X135958333Y-179038152D02*
X135910714Y-179133390D01*
X135910714Y-179133390D02*
X135863095Y-179181009D01*
X135863095Y-179181009D02*
X135767857Y-179228628D01*
X135767857Y-179228628D02*
X135386905Y-179228628D01*
X136863095Y-178704819D02*
X136386905Y-178704819D01*
X136386905Y-178704819D02*
X136339286Y-179181009D01*
X136339286Y-179181009D02*
X136386905Y-179133390D01*
X136386905Y-179133390D02*
X136482143Y-179085771D01*
X136482143Y-179085771D02*
X136720238Y-179085771D01*
X136720238Y-179085771D02*
X136815476Y-179133390D01*
X136815476Y-179133390D02*
X136863095Y-179181009D01*
X136863095Y-179181009D02*
X136910714Y-179276247D01*
X136910714Y-179276247D02*
X136910714Y-179514342D01*
X136910714Y-179514342D02*
X136863095Y-179609580D01*
X136863095Y-179609580D02*
X136815476Y-179657200D01*
X136815476Y-179657200D02*
X136720238Y-179704819D01*
X136720238Y-179704819D02*
X136482143Y-179704819D01*
X136482143Y-179704819D02*
X136386905Y-179657200D01*
X136386905Y-179657200D02*
X136339286Y-179609580D01*
X132958333Y-179704819D02*
X132625000Y-179228628D01*
X132386905Y-179704819D02*
X132386905Y-178704819D01*
X132386905Y-178704819D02*
X132767857Y-178704819D01*
X132767857Y-178704819D02*
X132863095Y-178752438D01*
X132863095Y-178752438D02*
X132910714Y-178800057D01*
X132910714Y-178800057D02*
X132958333Y-178895295D01*
X132958333Y-178895295D02*
X132958333Y-179038152D01*
X132958333Y-179038152D02*
X132910714Y-179133390D01*
X132910714Y-179133390D02*
X132863095Y-179181009D01*
X132863095Y-179181009D02*
X132767857Y-179228628D01*
X132767857Y-179228628D02*
X132386905Y-179228628D01*
X133815476Y-178704819D02*
X133625000Y-178704819D01*
X133625000Y-178704819D02*
X133529762Y-178752438D01*
X133529762Y-178752438D02*
X133482143Y-178800057D01*
X133482143Y-178800057D02*
X133386905Y-178942914D01*
X133386905Y-178942914D02*
X133339286Y-179133390D01*
X133339286Y-179133390D02*
X133339286Y-179514342D01*
X133339286Y-179514342D02*
X133386905Y-179609580D01*
X133386905Y-179609580D02*
X133434524Y-179657200D01*
X133434524Y-179657200D02*
X133529762Y-179704819D01*
X133529762Y-179704819D02*
X133720238Y-179704819D01*
X133720238Y-179704819D02*
X133815476Y-179657200D01*
X133815476Y-179657200D02*
X133863095Y-179609580D01*
X133863095Y-179609580D02*
X133910714Y-179514342D01*
X133910714Y-179514342D02*
X133910714Y-179276247D01*
X133910714Y-179276247D02*
X133863095Y-179181009D01*
X133863095Y-179181009D02*
X133815476Y-179133390D01*
X133815476Y-179133390D02*
X133720238Y-179085771D01*
X133720238Y-179085771D02*
X133529762Y-179085771D01*
X133529762Y-179085771D02*
X133434524Y-179133390D01*
X133434524Y-179133390D02*
X133386905Y-179181009D01*
X133386905Y-179181009D02*
X133339286Y-179276247D01*
X139958333Y-185829819D02*
X139625000Y-185353628D01*
X139386905Y-185829819D02*
X139386905Y-184829819D01*
X139386905Y-184829819D02*
X139767857Y-184829819D01*
X139767857Y-184829819D02*
X139863095Y-184877438D01*
X139863095Y-184877438D02*
X139910714Y-184925057D01*
X139910714Y-184925057D02*
X139958333Y-185020295D01*
X139958333Y-185020295D02*
X139958333Y-185163152D01*
X139958333Y-185163152D02*
X139910714Y-185258390D01*
X139910714Y-185258390D02*
X139863095Y-185306009D01*
X139863095Y-185306009D02*
X139767857Y-185353628D01*
X139767857Y-185353628D02*
X139386905Y-185353628D01*
X140291667Y-184829819D02*
X140958333Y-184829819D01*
X140958333Y-184829819D02*
X140529762Y-185829819D01*
X136958333Y-185829819D02*
X136625000Y-185353628D01*
X136386905Y-185829819D02*
X136386905Y-184829819D01*
X136386905Y-184829819D02*
X136767857Y-184829819D01*
X136767857Y-184829819D02*
X136863095Y-184877438D01*
X136863095Y-184877438D02*
X136910714Y-184925057D01*
X136910714Y-184925057D02*
X136958333Y-185020295D01*
X136958333Y-185020295D02*
X136958333Y-185163152D01*
X136958333Y-185163152D02*
X136910714Y-185258390D01*
X136910714Y-185258390D02*
X136863095Y-185306009D01*
X136863095Y-185306009D02*
X136767857Y-185353628D01*
X136767857Y-185353628D02*
X136386905Y-185353628D01*
X137529762Y-185258390D02*
X137434524Y-185210771D01*
X137434524Y-185210771D02*
X137386905Y-185163152D01*
X137386905Y-185163152D02*
X137339286Y-185067914D01*
X137339286Y-185067914D02*
X137339286Y-185020295D01*
X137339286Y-185020295D02*
X137386905Y-184925057D01*
X137386905Y-184925057D02*
X137434524Y-184877438D01*
X137434524Y-184877438D02*
X137529762Y-184829819D01*
X137529762Y-184829819D02*
X137720238Y-184829819D01*
X137720238Y-184829819D02*
X137815476Y-184877438D01*
X137815476Y-184877438D02*
X137863095Y-184925057D01*
X137863095Y-184925057D02*
X137910714Y-185020295D01*
X137910714Y-185020295D02*
X137910714Y-185067914D01*
X137910714Y-185067914D02*
X137863095Y-185163152D01*
X137863095Y-185163152D02*
X137815476Y-185210771D01*
X137815476Y-185210771D02*
X137720238Y-185258390D01*
X137720238Y-185258390D02*
X137529762Y-185258390D01*
X137529762Y-185258390D02*
X137434524Y-185306009D01*
X137434524Y-185306009D02*
X137386905Y-185353628D01*
X137386905Y-185353628D02*
X137339286Y-185448866D01*
X137339286Y-185448866D02*
X137339286Y-185639342D01*
X137339286Y-185639342D02*
X137386905Y-185734580D01*
X137386905Y-185734580D02*
X137434524Y-185782200D01*
X137434524Y-185782200D02*
X137529762Y-185829819D01*
X137529762Y-185829819D02*
X137720238Y-185829819D01*
X137720238Y-185829819D02*
X137815476Y-185782200D01*
X137815476Y-185782200D02*
X137863095Y-185734580D01*
X137863095Y-185734580D02*
X137910714Y-185639342D01*
X137910714Y-185639342D02*
X137910714Y-185448866D01*
X137910714Y-185448866D02*
X137863095Y-185353628D01*
X137863095Y-185353628D02*
X137815476Y-185306009D01*
X137815476Y-185306009D02*
X137720238Y-185258390D01*
X128958333Y-185829819D02*
X128625000Y-185353628D01*
X128386905Y-185829819D02*
X128386905Y-184829819D01*
X128386905Y-184829819D02*
X128767857Y-184829819D01*
X128767857Y-184829819D02*
X128863095Y-184877438D01*
X128863095Y-184877438D02*
X128910714Y-184925057D01*
X128910714Y-184925057D02*
X128958333Y-185020295D01*
X128958333Y-185020295D02*
X128958333Y-185163152D01*
X128958333Y-185163152D02*
X128910714Y-185258390D01*
X128910714Y-185258390D02*
X128863095Y-185306009D01*
X128863095Y-185306009D02*
X128767857Y-185353628D01*
X128767857Y-185353628D02*
X128386905Y-185353628D01*
X129815476Y-185163152D02*
X129815476Y-185829819D01*
X129577381Y-184782200D02*
X129339286Y-185496485D01*
X129339286Y-185496485D02*
X129958333Y-185496485D01*
X131958333Y-185829819D02*
X131625000Y-185353628D01*
X131386905Y-185829819D02*
X131386905Y-184829819D01*
X131386905Y-184829819D02*
X131767857Y-184829819D01*
X131767857Y-184829819D02*
X131863095Y-184877438D01*
X131863095Y-184877438D02*
X131910714Y-184925057D01*
X131910714Y-184925057D02*
X131958333Y-185020295D01*
X131958333Y-185020295D02*
X131958333Y-185163152D01*
X131958333Y-185163152D02*
X131910714Y-185258390D01*
X131910714Y-185258390D02*
X131863095Y-185306009D01*
X131863095Y-185306009D02*
X131767857Y-185353628D01*
X131767857Y-185353628D02*
X131386905Y-185353628D01*
X132291667Y-184829819D02*
X132910714Y-184829819D01*
X132910714Y-184829819D02*
X132577381Y-185210771D01*
X132577381Y-185210771D02*
X132720238Y-185210771D01*
X132720238Y-185210771D02*
X132815476Y-185258390D01*
X132815476Y-185258390D02*
X132863095Y-185306009D01*
X132863095Y-185306009D02*
X132910714Y-185401247D01*
X132910714Y-185401247D02*
X132910714Y-185639342D01*
X132910714Y-185639342D02*
X132863095Y-185734580D01*
X132863095Y-185734580D02*
X132815476Y-185782200D01*
X132815476Y-185782200D02*
X132720238Y-185829819D01*
X132720238Y-185829819D02*
X132434524Y-185829819D01*
X132434524Y-185829819D02*
X132339286Y-185782200D01*
X132339286Y-185782200D02*
X132291667Y-185734580D01*
D11*
X153125000Y-133375000D02*
G75*
G02*
X152925000Y-133375000I-100000J0D01*
G01*
X152925000Y-133375000D02*
G75*
G02*
X153125000Y-133375000I100000J0D01*
G01*
D12*
X140125000Y-152875000D02*
X140255000Y-152875000D01*
X153795000Y-152875000D02*
X160125000Y-152875000D01*
X160125000Y-152875000D02*
X160125000Y-134875000D01*
X140125000Y-134875000D02*
X140125000Y-152875000D01*
X140125000Y-134875000D02*
X140255000Y-134875000D01*
X160125000Y-134875000D02*
X153795000Y-134875000D01*
D13*
X126962221Y-180115000D02*
X127287779Y-180115000D01*
X126962221Y-181135000D02*
X127287779Y-181135000D01*
X124287779Y-181135000D02*
X123962221Y-181135000D01*
X124287779Y-180115000D02*
X123962221Y-180115000D01*
X135962221Y-181135000D02*
X136287779Y-181135000D01*
X135962221Y-180115000D02*
X136287779Y-180115000D01*
X133287779Y-180115000D02*
X132962221Y-180115000D01*
X133287779Y-181135000D02*
X132962221Y-181135000D01*
X139962221Y-184385000D02*
X140287779Y-184385000D01*
X139962221Y-183365000D02*
X140287779Y-183365000D01*
X137287779Y-184385000D02*
X136962221Y-184385000D01*
X137287779Y-183365000D02*
X136962221Y-183365000D01*
X129287779Y-183365000D02*
X128962221Y-183365000D01*
X129287779Y-184385000D02*
X128962221Y-184385000D01*
X131962221Y-183365000D02*
X132287779Y-183365000D01*
X131962221Y-184385000D02*
X132287779Y-184385000D01*
M02*
