%TF.GenerationSoftware,KiCad,Pcbnew,9.0.6*%
%TF.CreationDate,2026-02-26T21:09:44-05:00*%
%TF.ProjectId,Class AB Stereo Amp SMD,436c6173-7320-4414-9220-53746572656f,rev?*%
%TF.SameCoordinates,Original*%
%TF.FileFunction,Paste,Top*%
%TF.FilePolarity,Positive*%
%FSLAX46Y46*%
G04 Gerber Fmt 4.6, Leading zero omitted, Abs format (unit mm)*
G04 Created by KiCad (PCBNEW 9.0.6) date 2026-02-26 21:09:44*
%MOMM*%
%LPD*%
G01*
G04 APERTURE LIST*
G04 Aperture macros list*
%AMRoundRect*
0 Rectangle with rounded corners*
0 $1 Rounding radius*
0 $2 $3 $4 $5 $6 $7 $8 $9 X,Y pos of 4 corners*
0 Add a 4 corners polygon primitive as box body*
4,1,4,$2,$3,$4,$5,$6,$7,$8,$9,$2,$3,0*
0 Add four circle primitives for the rounded corners*
1,1,$1+$1,$2,$3*
1,1,$1+$1,$4,$5*
1,1,$1+$1,$6,$7*
1,1,$1+$1,$8,$9*
0 Add four rect primitives between the rounded corners*
20,1,$1+$1,$2,$3,$4,$5,0*
20,1,$1+$1,$4,$5,$6,$7,0*
20,1,$1+$1,$6,$7,$8,$9,0*
20,1,$1+$1,$8,$9,$2,$3,0*%
G04 Aperture macros list end*
%ADD10RoundRect,0.250000X-1.412500X-0.550000X1.412500X-0.550000X1.412500X0.550000X-1.412500X0.550000X0*%
%ADD11RoundRect,0.150000X0.825000X0.150000X-0.825000X0.150000X-0.825000X-0.150000X0.825000X-0.150000X0*%
%ADD12RoundRect,0.250000X-0.400000X-0.625000X0.400000X-0.625000X0.400000X0.625000X-0.400000X0.625000X0*%
%ADD13RoundRect,0.250000X0.650000X-0.412500X0.650000X0.412500X-0.650000X0.412500X-0.650000X-0.412500X0*%
%ADD14RoundRect,0.250000X0.625000X-0.400000X0.625000X0.400000X-0.625000X0.400000X-0.625000X-0.400000X0*%
%ADD15RoundRect,0.250000X-2.375000X2.025000X-2.375000X-2.025000X2.375000X-2.025000X2.375000X2.025000X0*%
%ADD16RoundRect,0.250000X-0.300000X2.050000X-0.300000X-2.050000X0.300000X-2.050000X0.300000X2.050000X0*%
%ADD17R,3.136250X1.925000*%
%ADD18RoundRect,0.249999X0.450001X1.425001X-0.450001X1.425001X-0.450001X-1.425001X0.450001X-1.425001X0*%
%ADD19RoundRect,0.225000X0.225000X0.375000X-0.225000X0.375000X-0.225000X-0.375000X0.225000X-0.375000X0*%
%ADD20RoundRect,0.250000X-0.550000X1.250000X-0.550000X-1.250000X0.550000X-1.250000X0.550000X1.250000X0*%
%ADD21RoundRect,0.250000X-0.625000X0.400000X-0.625000X-0.400000X0.625000X-0.400000X0.625000X0.400000X0*%
%ADD22RoundRect,0.225000X-0.375000X0.225000X-0.375000X-0.225000X0.375000X-0.225000X0.375000X0.225000X0*%
%ADD23RoundRect,0.249999X-1.425001X0.450001X-1.425001X-0.450001X1.425001X-0.450001X1.425001X0.450001X0*%
%ADD24RoundRect,0.250000X0.400000X0.625000X-0.400000X0.625000X-0.400000X-0.625000X0.400000X-0.625000X0*%
%ADD25RoundRect,0.249998X-4.550002X3.650002X-4.550002X-3.650002X4.550002X-3.650002X4.550002X3.650002X0*%
%ADD26RoundRect,0.249998X-3.650002X-4.550002X3.650002X-4.550002X3.650002X4.550002X-3.650002X4.550002X0*%
%ADD27RoundRect,0.249999X1.425001X-0.450001X1.425001X0.450001X-1.425001X0.450001X-1.425001X-0.450001X0*%
%ADD28RoundRect,0.250000X-0.650000X0.412500X-0.650000X-0.412500X0.650000X-0.412500X0.650000X0.412500X0*%
%ADD29RoundRect,0.250001X-0.624999X0.462499X-0.624999X-0.462499X0.624999X-0.462499X0.624999X0.462499X0*%
%ADD30RoundRect,0.150000X-0.825000X-0.150000X0.825000X-0.150000X0.825000X0.150000X-0.825000X0.150000X0*%
%ADD31RoundRect,0.250000X2.375000X-2.025000X2.375000X2.025000X-2.375000X2.025000X-2.375000X-2.025000X0*%
%ADD32RoundRect,0.250000X0.300000X-2.050000X0.300000X2.050000X-0.300000X2.050000X-0.300000X-2.050000X0*%
%ADD33RoundRect,0.225000X0.375000X-0.225000X0.375000X0.225000X-0.375000X0.225000X-0.375000X-0.225000X0*%
%ADD34RoundRect,0.250000X0.350000X-0.850000X0.350000X0.850000X-0.350000X0.850000X-0.350000X-0.850000X0*%
%ADD35RoundRect,0.250000X1.125000X-1.275000X1.125000X1.275000X-1.125000X1.275000X-1.125000X-1.275000X0*%
%ADD36RoundRect,0.249998X4.550002X-3.650002X4.550002X3.650002X-4.550002X3.650002X-4.550002X-3.650002X0*%
G04 APERTURE END LIST*
D10*
%TO.C,C9*%
X103925000Y-48500000D03*
X109000000Y-48500000D03*
%TD*%
D11*
%TO.C,U1*%
X84125000Y-117355000D03*
X84125000Y-116085000D03*
X84125000Y-114815000D03*
X84125000Y-113545000D03*
X79175000Y-113545000D03*
X79175000Y-114815000D03*
X79175000Y-116085000D03*
X79175000Y-117355000D03*
%TD*%
D12*
%TO.C,R20*%
X130900000Y-103950000D03*
X134000000Y-103950000D03*
%TD*%
D13*
%TO.C,C4*%
X95350000Y-101150000D03*
X95350000Y-98025000D03*
%TD*%
D14*
%TO.C,R11*%
X67600000Y-99975000D03*
X67600000Y-96875000D03*
%TD*%
D15*
%TO.C,Q2*%
X128250000Y-71200000D03*
X128250000Y-66350000D03*
X122700000Y-71200000D03*
X122700000Y-66350000D03*
D16*
X128015000Y-59625000D03*
X122935000Y-59625000D03*
D17*
X133500000Y-73750000D03*
X133500000Y-71250000D03*
X133500000Y-68750000D03*
X133500000Y-66250000D03*
X133500000Y-63750000D03*
X117500000Y-73750000D03*
X117500000Y-71250000D03*
X117500000Y-68750000D03*
X117500000Y-66250000D03*
X117500000Y-63750000D03*
%TD*%
D18*
%TO.C,R18*%
X147200000Y-35550000D03*
X141100000Y-35550000D03*
%TD*%
D12*
%TO.C,R13*%
X76150000Y-92650000D03*
X79250000Y-92650000D03*
%TD*%
D19*
%TO.C,D2*%
X122650000Y-51600000D03*
X119350000Y-51600000D03*
%TD*%
D15*
%TO.C,Q3*%
X128250000Y-122600000D03*
X128250000Y-117750000D03*
X122700000Y-122600000D03*
X122700000Y-117750000D03*
D16*
X128015000Y-111025000D03*
X122935000Y-111025000D03*
D17*
X133500000Y-125150000D03*
X133500000Y-122650000D03*
X133500000Y-120150000D03*
X133500000Y-117650000D03*
X133500000Y-115150000D03*
X117500000Y-125150000D03*
X117500000Y-122650000D03*
X117500000Y-120150000D03*
X117500000Y-117650000D03*
X117500000Y-115150000D03*
%TD*%
D20*
%TO.C,C2*%
X90200000Y-57400000D03*
X90200000Y-61800000D03*
%TD*%
D21*
%TO.C,R10*%
X95400000Y-91000000D03*
X95400000Y-94100000D03*
%TD*%
D10*
%TO.C,C12*%
X104325000Y-109500000D03*
X109400000Y-109500000D03*
%TD*%
D22*
%TO.C,D1*%
X113550000Y-50400000D03*
X113550000Y-53700000D03*
%TD*%
D21*
%TO.C,R1*%
X74800000Y-59400000D03*
X74800000Y-62500000D03*
%TD*%
D14*
%TO.C,R5*%
X88400000Y-111800000D03*
X88400000Y-108700000D03*
%TD*%
D21*
%TO.C,R8*%
X85950000Y-98075000D03*
X85950000Y-101175000D03*
%TD*%
D23*
%TO.C,R21*%
X138850000Y-99800000D03*
X138850000Y-105900000D03*
%TD*%
D24*
%TO.C,R2*%
X78800000Y-67000000D03*
X75700000Y-67000000D03*
%TD*%
D13*
%TO.C,C16*%
X88700000Y-87112500D03*
X88700000Y-83987500D03*
%TD*%
D12*
%TO.C,R15*%
X113500000Y-57750000D03*
X116600000Y-57750000D03*
%TD*%
D10*
%TO.C,C11*%
X104175000Y-100000000D03*
X109250000Y-100000000D03*
%TD*%
D21*
%TO.C,R14*%
X67650000Y-90987500D03*
X67650000Y-94087500D03*
%TD*%
%TO.C,R12*%
X71550000Y-96887500D03*
X71550000Y-99987500D03*
%TD*%
D13*
%TO.C,C7*%
X71600000Y-94125000D03*
X71600000Y-91000000D03*
%TD*%
D25*
%TO.C,C10*%
X152700000Y-43500000D03*
X152700000Y-56000000D03*
%TD*%
D14*
%TO.C,R7*%
X90650000Y-101162500D03*
X90650000Y-98062500D03*
%TD*%
D13*
%TO.C,C5*%
X84150000Y-94112500D03*
X84150000Y-90987500D03*
%TD*%
D19*
%TO.C,D3*%
X120350000Y-103900000D03*
X117050000Y-103900000D03*
%TD*%
%TO.C,D4*%
X127550000Y-103950000D03*
X124250000Y-103950000D03*
%TD*%
D26*
%TO.C,C1*%
X86350000Y-73400000D03*
X98850000Y-73400000D03*
%TD*%
D13*
%TO.C,C14*%
X84250000Y-87112500D03*
X84250000Y-83987500D03*
%TD*%
D27*
%TO.C,R17*%
X138900000Y-56350000D03*
X138900000Y-50250000D03*
%TD*%
D28*
%TO.C,C6*%
X67600000Y-103087500D03*
X67600000Y-106212500D03*
%TD*%
D29*
%TO.C,D6*%
X67000000Y-63912500D03*
X67000000Y-66887500D03*
%TD*%
D10*
%TO.C,C8*%
X103925000Y-57750000D03*
X109000000Y-57750000D03*
%TD*%
D30*
%TO.C,U3*%
X100250000Y-86860000D03*
X100250000Y-88130000D03*
X100250000Y-89400000D03*
X100250000Y-90670000D03*
X105200000Y-90670000D03*
X105200000Y-89400000D03*
X105200000Y-88130000D03*
X105200000Y-86860000D03*
%TD*%
D14*
%TO.C,R9*%
X90700000Y-94100000D03*
X90700000Y-91000000D03*
%TD*%
D31*
%TO.C,Q1*%
X122250000Y-35550000D03*
X122250000Y-40400000D03*
X127800000Y-35550000D03*
X127800000Y-40400000D03*
D32*
X122485000Y-47125000D03*
X127565000Y-47125000D03*
D17*
X117000000Y-33000000D03*
X117000000Y-35500000D03*
X117000000Y-38000000D03*
X117000000Y-40500000D03*
X117000000Y-43000000D03*
X133000000Y-33000000D03*
X133000000Y-35500000D03*
X133000000Y-38000000D03*
X133000000Y-40500000D03*
X133000000Y-43000000D03*
%TD*%
D12*
%TO.C,R19*%
X113950000Y-100000000D03*
X117050000Y-100000000D03*
%TD*%
D13*
%TO.C,C15*%
X93350000Y-87112500D03*
X93350000Y-83987500D03*
%TD*%
D33*
%TO.C,D5*%
X78750000Y-62650000D03*
X78750000Y-59350000D03*
%TD*%
D18*
%TO.C,R22*%
X147250000Y-123500000D03*
X141150000Y-123500000D03*
%TD*%
D12*
%TO.C,R4*%
X76150000Y-104650000D03*
X79250000Y-104650000D03*
%TD*%
D11*
%TO.C,U2*%
X81075000Y-100092500D03*
X81075000Y-98822500D03*
X81075000Y-97552500D03*
X81075000Y-96282500D03*
X76125000Y-96282500D03*
X76125000Y-97552500D03*
X76125000Y-98822500D03*
X76125000Y-100092500D03*
%TD*%
D31*
%TO.C,Q4*%
X122700000Y-86550000D03*
X122700000Y-91400000D03*
X128250000Y-86550000D03*
X128250000Y-91400000D03*
D32*
X122935000Y-98125000D03*
X128015000Y-98125000D03*
D17*
X117450000Y-84000000D03*
X117450000Y-86500000D03*
X117450000Y-89000000D03*
X117450000Y-91500000D03*
X117450000Y-94000000D03*
X133450000Y-84000000D03*
X133450000Y-86500000D03*
X133450000Y-89000000D03*
X133450000Y-91500000D03*
X133450000Y-94000000D03*
%TD*%
D12*
%TO.C,R16*%
X126950000Y-51600000D03*
X130050000Y-51600000D03*
%TD*%
D14*
%TO.C,R6*%
X88425000Y-117905000D03*
X88425000Y-114805000D03*
%TD*%
D12*
%TO.C,R3*%
X79250000Y-108700000D03*
X82350000Y-108700000D03*
%TD*%
D28*
%TO.C,C3*%
X96800000Y-57400000D03*
X96800000Y-60525000D03*
%TD*%
D34*
%TO.C,Q5*%
X78720000Y-56500000D03*
D35*
X79475000Y-51875000D03*
X82525000Y-51875000D03*
X79475000Y-48525000D03*
X82525000Y-48525000D03*
D34*
X83280000Y-56500000D03*
%TD*%
D36*
%TO.C,C13*%
X152700000Y-114615000D03*
X152700000Y-102115000D03*
%TD*%
M02*
