%TF.GenerationSoftware,KiCad,Pcbnew,8.0.4*%
%TF.CreationDate,2024-07-20T23:26:19-04:00*%
%TF.ProjectId,esp32-node-board-40x65_telemetry,65737033-322d-46e6-9f64-652d626f6172,rev?*%
%TF.SameCoordinates,Original*%
%TF.FileFunction,Legend,Top*%
%TF.FilePolarity,Positive*%
%FSLAX46Y46*%
G04 Gerber Fmt 4.6, Leading zero omitted, Abs format (unit mm)*
G04 Created by KiCad (PCBNEW 8.0.4) date 2024-07-20 23:26:19*
%MOMM*%
%LPD*%
G01*
G04 APERTURE LIST*
%ADD10C,0.750000*%
%ADD11C,0.250000*%
%ADD12C,0.125000*%
%ADD13C,0.200000*%
%ADD14C,0.100000*%
%ADD15C,0.150000*%
%ADD16C,0.160000*%
%ADD17C,0.120000*%
G04 APERTURE END LIST*
D10*
X145250000Y-42114210D02*
X145250000Y-78085782D01*
X81914218Y-40164218D02*
X143085790Y-40164218D01*
X145250000Y-78085782D02*
G75*
G02*
X143250000Y-80085800I-2000000J-18D01*
G01*
X79914218Y-42114210D02*
X79914218Y-78085782D01*
X81914218Y-80085782D02*
G75*
G02*
X79914218Y-78085782I-18J1999982D01*
G01*
X143250000Y-40250000D02*
G75*
G02*
X145250000Y-42250000I0J-2000000D01*
G01*
X79914218Y-42164218D02*
G75*
G02*
X81914218Y-40164218I1999982J18D01*
G01*
X81914214Y-80085782D02*
X143085786Y-80085782D01*
D11*
G36*
X131219145Y-126426353D02*
G01*
X131238077Y-126445286D01*
X131263428Y-126495987D01*
X131263428Y-126722431D01*
X130989619Y-126722431D01*
X130989619Y-126495987D01*
X131014969Y-126445285D01*
X131033902Y-126426353D01*
X131084604Y-126401003D01*
X131168444Y-126401003D01*
X131219145Y-126426353D01*
G37*
G36*
X131219145Y-124283496D02*
G01*
X131238077Y-124302429D01*
X131263428Y-124353130D01*
X131263428Y-124579574D01*
X130989619Y-124579574D01*
X130989619Y-124353130D01*
X131014969Y-124302428D01*
X131033902Y-124283496D01*
X131084604Y-124258146D01*
X131168444Y-124258146D01*
X131219145Y-124283496D01*
G37*
G36*
X132114590Y-127097431D02*
G01*
X130614619Y-127097431D01*
X130614619Y-126466479D01*
X130739619Y-126466479D01*
X130739619Y-126847431D01*
X130742021Y-126871817D01*
X130760685Y-126916877D01*
X130795173Y-126951365D01*
X130840233Y-126970029D01*
X130864619Y-126972431D01*
X131864619Y-126972431D01*
X131889005Y-126970029D01*
X131934065Y-126951365D01*
X131968553Y-126916877D01*
X131987217Y-126871817D01*
X131987217Y-126823045D01*
X131968553Y-126777985D01*
X131934065Y-126743497D01*
X131889005Y-126724833D01*
X131864619Y-126722431D01*
X131513428Y-126722431D01*
X131513428Y-126466479D01*
X131511026Y-126442093D01*
X131509307Y-126437943D01*
X131508989Y-126433463D01*
X131500231Y-126410577D01*
X131452612Y-126315339D01*
X131446005Y-126304844D01*
X131444742Y-126301794D01*
X131441923Y-126298359D01*
X131439558Y-126294602D01*
X131437066Y-126292440D01*
X131429197Y-126282852D01*
X131381578Y-126235234D01*
X131371992Y-126227367D01*
X131369829Y-126224873D01*
X131366067Y-126222504D01*
X131362636Y-126219689D01*
X131359589Y-126218427D01*
X131349091Y-126211818D01*
X131253854Y-126164200D01*
X131230968Y-126155442D01*
X131226486Y-126155123D01*
X131222338Y-126153405D01*
X131197952Y-126151003D01*
X131055095Y-126151003D01*
X131030709Y-126153405D01*
X131026559Y-126155123D01*
X131022079Y-126155442D01*
X130999193Y-126164200D01*
X130903955Y-126211819D01*
X130893460Y-126218425D01*
X130890410Y-126219689D01*
X130886975Y-126222507D01*
X130883218Y-126224873D01*
X130881056Y-126227364D01*
X130871468Y-126235234D01*
X130823850Y-126282853D01*
X130815983Y-126292438D01*
X130813489Y-126294602D01*
X130811120Y-126298363D01*
X130808305Y-126301795D01*
X130807043Y-126304841D01*
X130800434Y-126315340D01*
X130752816Y-126410577D01*
X130744058Y-126433463D01*
X130743739Y-126437944D01*
X130742021Y-126442093D01*
X130739619Y-126466479D01*
X130614619Y-126466479D01*
X130614619Y-125080854D01*
X130739707Y-125080854D01*
X130747426Y-125129011D01*
X130772988Y-125170550D01*
X130812500Y-125199143D01*
X130835666Y-125207128D01*
X131353759Y-125330483D01*
X131118125Y-125393319D01*
X131112413Y-125395460D01*
X131110012Y-125395780D01*
X131107160Y-125397430D01*
X131095182Y-125401923D01*
X131082082Y-125411949D01*
X131067802Y-125420217D01*
X131062881Y-125426646D01*
X131056452Y-125431567D01*
X131048184Y-125445847D01*
X131038158Y-125458947D01*
X131036071Y-125466769D01*
X131032015Y-125473777D01*
X131029841Y-125490131D01*
X131025591Y-125506072D01*
X131026657Y-125514098D01*
X131025591Y-125522124D01*
X131029841Y-125538064D01*
X131032015Y-125554419D01*
X131036071Y-125561426D01*
X131038158Y-125569249D01*
X131048184Y-125582348D01*
X131056452Y-125596629D01*
X131062881Y-125601549D01*
X131067802Y-125607979D01*
X131082082Y-125616246D01*
X131095182Y-125626273D01*
X131107160Y-125630765D01*
X131110012Y-125632416D01*
X131112413Y-125632735D01*
X131118125Y-125634877D01*
X131353759Y-125697712D01*
X130835666Y-125821068D01*
X130812500Y-125829053D01*
X130772988Y-125857646D01*
X130747426Y-125899185D01*
X130739707Y-125947342D01*
X130751003Y-125994788D01*
X130779596Y-126034300D01*
X130821135Y-126059862D01*
X130869292Y-126067581D01*
X130893572Y-126064270D01*
X131893572Y-125826175D01*
X131901939Y-125823290D01*
X131904941Y-125822892D01*
X131907654Y-125821320D01*
X131916738Y-125818190D01*
X131931443Y-125807548D01*
X131947150Y-125798455D01*
X131951049Y-125793360D01*
X131956250Y-125789597D01*
X131965764Y-125774135D01*
X131976794Y-125759726D01*
X131978447Y-125753525D01*
X131981812Y-125748058D01*
X131984684Y-125730136D01*
X131989361Y-125712600D01*
X131988515Y-125706236D01*
X131989531Y-125699901D01*
X131985329Y-125682252D01*
X131982938Y-125664253D01*
X131979720Y-125658696D01*
X131978235Y-125652455D01*
X131967594Y-125637750D01*
X131958500Y-125622043D01*
X131953405Y-125618143D01*
X131949642Y-125612943D01*
X131934180Y-125603428D01*
X131919771Y-125592399D01*
X131910775Y-125589025D01*
X131908103Y-125587381D01*
X131905110Y-125586901D01*
X131896827Y-125583795D01*
X131635462Y-125514098D01*
X131896827Y-125444401D01*
X131905110Y-125441294D01*
X131908103Y-125440815D01*
X131910775Y-125439170D01*
X131919771Y-125435797D01*
X131934180Y-125424767D01*
X131949642Y-125415253D01*
X131953405Y-125410052D01*
X131958500Y-125406153D01*
X131967594Y-125390445D01*
X131978235Y-125375741D01*
X131979720Y-125369499D01*
X131982938Y-125363943D01*
X131985329Y-125345943D01*
X131989531Y-125328295D01*
X131988515Y-125321959D01*
X131989361Y-125315596D01*
X131984684Y-125298059D01*
X131981812Y-125280138D01*
X131978447Y-125274670D01*
X131976794Y-125268470D01*
X131965764Y-125254060D01*
X131956250Y-125238599D01*
X131951049Y-125234835D01*
X131947150Y-125229741D01*
X131931443Y-125220647D01*
X131916738Y-125210006D01*
X131907654Y-125206875D01*
X131904941Y-125205304D01*
X131901939Y-125204905D01*
X131893572Y-125202021D01*
X130893572Y-124963926D01*
X130869292Y-124960615D01*
X130821135Y-124968334D01*
X130779596Y-124993896D01*
X130751003Y-125033408D01*
X130739707Y-125080854D01*
X130614619Y-125080854D01*
X130614619Y-124323622D01*
X130739619Y-124323622D01*
X130739619Y-124704574D01*
X130742021Y-124728960D01*
X130760685Y-124774020D01*
X130795173Y-124808508D01*
X130840233Y-124827172D01*
X130864619Y-124829574D01*
X131864619Y-124829574D01*
X131889005Y-124827172D01*
X131934065Y-124808508D01*
X131968553Y-124774020D01*
X131987217Y-124728960D01*
X131987217Y-124680188D01*
X131968553Y-124635128D01*
X131934065Y-124600640D01*
X131889005Y-124581976D01*
X131864619Y-124579574D01*
X131513428Y-124579574D01*
X131513428Y-124531561D01*
X131936302Y-124235550D01*
X131954902Y-124219598D01*
X131981114Y-124178467D01*
X131989590Y-124130436D01*
X131979040Y-124082818D01*
X131951071Y-124042863D01*
X131909941Y-124016651D01*
X131861909Y-124008175D01*
X131814292Y-124018725D01*
X131792936Y-124030742D01*
X131488347Y-124243953D01*
X131452612Y-124172482D01*
X131446005Y-124161987D01*
X131444742Y-124158937D01*
X131441923Y-124155502D01*
X131439558Y-124151745D01*
X131437066Y-124149583D01*
X131429197Y-124139995D01*
X131381578Y-124092377D01*
X131371992Y-124084510D01*
X131369829Y-124082016D01*
X131366067Y-124079647D01*
X131362636Y-124076832D01*
X131359589Y-124075570D01*
X131349091Y-124068961D01*
X131253854Y-124021343D01*
X131230968Y-124012585D01*
X131226486Y-124012266D01*
X131222338Y-124010548D01*
X131197952Y-124008146D01*
X131055095Y-124008146D01*
X131030709Y-124010548D01*
X131026559Y-124012266D01*
X131022079Y-124012585D01*
X130999193Y-124021343D01*
X130903955Y-124068962D01*
X130893460Y-124075568D01*
X130890410Y-124076832D01*
X130886975Y-124079650D01*
X130883218Y-124082016D01*
X130881056Y-124084507D01*
X130871468Y-124092377D01*
X130823850Y-124139996D01*
X130815983Y-124149581D01*
X130813489Y-124151745D01*
X130811120Y-124155506D01*
X130808305Y-124158938D01*
X130807043Y-124161984D01*
X130800434Y-124172483D01*
X130752816Y-124267720D01*
X130744058Y-124290606D01*
X130743739Y-124295087D01*
X130742021Y-124299236D01*
X130739619Y-124323622D01*
X130614619Y-124323622D01*
X130614619Y-123883146D01*
X132114590Y-123883146D01*
X132114590Y-127097431D01*
G37*
D12*
X107716666Y-41977190D02*
X107692857Y-42001000D01*
X107692857Y-42001000D02*
X107621428Y-42024809D01*
X107621428Y-42024809D02*
X107573809Y-42024809D01*
X107573809Y-42024809D02*
X107502381Y-42001000D01*
X107502381Y-42001000D02*
X107454762Y-41953380D01*
X107454762Y-41953380D02*
X107430952Y-41905761D01*
X107430952Y-41905761D02*
X107407143Y-41810523D01*
X107407143Y-41810523D02*
X107407143Y-41739095D01*
X107407143Y-41739095D02*
X107430952Y-41643857D01*
X107430952Y-41643857D02*
X107454762Y-41596238D01*
X107454762Y-41596238D02*
X107502381Y-41548619D01*
X107502381Y-41548619D02*
X107573809Y-41524809D01*
X107573809Y-41524809D02*
X107621428Y-41524809D01*
X107621428Y-41524809D02*
X107692857Y-41548619D01*
X107692857Y-41548619D02*
X107716666Y-41572428D01*
X107907143Y-41572428D02*
X107930952Y-41548619D01*
X107930952Y-41548619D02*
X107978571Y-41524809D01*
X107978571Y-41524809D02*
X108097619Y-41524809D01*
X108097619Y-41524809D02*
X108145238Y-41548619D01*
X108145238Y-41548619D02*
X108169047Y-41572428D01*
X108169047Y-41572428D02*
X108192857Y-41620047D01*
X108192857Y-41620047D02*
X108192857Y-41667666D01*
X108192857Y-41667666D02*
X108169047Y-41739095D01*
X108169047Y-41739095D02*
X107883333Y-42024809D01*
X107883333Y-42024809D02*
X108192857Y-42024809D01*
D13*
G36*
X100666314Y-55715779D02*
G01*
X100718174Y-55741709D01*
X100766197Y-55789731D01*
X100791695Y-55866225D01*
X100791695Y-55940475D01*
X100191695Y-55940475D01*
X100191695Y-55866225D01*
X100217192Y-55789732D01*
X100265216Y-55741708D01*
X100317074Y-55715779D01*
X100446862Y-55683332D01*
X100536528Y-55683332D01*
X100666314Y-55715779D01*
G37*
G36*
X101091695Y-56240475D02*
G01*
X99891695Y-56240475D01*
X99891695Y-55849999D01*
X99991695Y-55849999D01*
X99991695Y-56040475D01*
X99993616Y-56059984D01*
X100008548Y-56096032D01*
X100036138Y-56123622D01*
X100072186Y-56138554D01*
X100091695Y-56140475D01*
X100891695Y-56140475D01*
X100911204Y-56138554D01*
X100947252Y-56123622D01*
X100974842Y-56096032D01*
X100989774Y-56059984D01*
X100991695Y-56040475D01*
X100991695Y-55849999D01*
X100990722Y-55840125D01*
X100990910Y-55837492D01*
X100990122Y-55834029D01*
X100989774Y-55830490D01*
X100988762Y-55828047D01*
X100986563Y-55818377D01*
X100948468Y-55704090D01*
X100940477Y-55686190D01*
X100938122Y-55683474D01*
X100936747Y-55680155D01*
X100924310Y-55665002D01*
X100848119Y-55588812D01*
X100840452Y-55582519D01*
X100838721Y-55580523D01*
X100835713Y-55578629D01*
X100832966Y-55576375D01*
X100830524Y-55575363D01*
X100822130Y-55570080D01*
X100745940Y-55531985D01*
X100744515Y-55531439D01*
X100743934Y-55531009D01*
X100735742Y-55528082D01*
X100727632Y-55524979D01*
X100726911Y-55524927D01*
X100725473Y-55524414D01*
X100573092Y-55486318D01*
X100569710Y-55485817D01*
X100568347Y-55485253D01*
X100560998Y-55484529D01*
X100553700Y-55483450D01*
X100552241Y-55483667D01*
X100548838Y-55483332D01*
X100434552Y-55483332D01*
X100431148Y-55483667D01*
X100429690Y-55483450D01*
X100422391Y-55484529D01*
X100415043Y-55485253D01*
X100413679Y-55485817D01*
X100410298Y-55486318D01*
X100257917Y-55524414D01*
X100256478Y-55524927D01*
X100255759Y-55524979D01*
X100247656Y-55528079D01*
X100239456Y-55531009D01*
X100238874Y-55531439D01*
X100237450Y-55531985D01*
X100161259Y-55570080D01*
X100152862Y-55575365D01*
X100150423Y-55576376D01*
X100147676Y-55578629D01*
X100144669Y-55580523D01*
X100142938Y-55582517D01*
X100135269Y-55588812D01*
X100059079Y-55665002D01*
X100046643Y-55680156D01*
X100045268Y-55683474D01*
X100042913Y-55686190D01*
X100034922Y-55704090D01*
X99996827Y-55818376D01*
X99994627Y-55828047D01*
X99993616Y-55830490D01*
X99993267Y-55834028D01*
X99992480Y-55837492D01*
X99992667Y-55840125D01*
X99991695Y-55849999D01*
X99891695Y-55849999D01*
X99891695Y-54973809D01*
X99991695Y-54973809D01*
X99991695Y-55164285D01*
X99993616Y-55183794D01*
X99994991Y-55187114D01*
X99995246Y-55190698D01*
X100002252Y-55209006D01*
X100040347Y-55285196D01*
X100045631Y-55293592D01*
X100046642Y-55296031D01*
X100048895Y-55298776D01*
X100050790Y-55301787D01*
X100052786Y-55303518D01*
X100059078Y-55311185D01*
X100097173Y-55349281D01*
X100112326Y-55361717D01*
X100148375Y-55376649D01*
X100187393Y-55376650D01*
X100223441Y-55361719D01*
X100251031Y-55334129D01*
X100265963Y-55298081D01*
X100265964Y-55259063D01*
X100251033Y-55223015D01*
X100238596Y-55207861D01*
X100211975Y-55181239D01*
X100191695Y-55140678D01*
X100191695Y-54997415D01*
X100211975Y-54956854D01*
X100227120Y-54941708D01*
X100267683Y-54921428D01*
X100304039Y-54921428D01*
X100380532Y-54946925D01*
X100820984Y-55387377D01*
X100836138Y-55399813D01*
X100872186Y-55414745D01*
X100911204Y-55414745D01*
X100947252Y-55399813D01*
X100974842Y-55372223D01*
X100989774Y-55336175D01*
X100991695Y-55316666D01*
X100991695Y-54821428D01*
X100989774Y-54801919D01*
X100974842Y-54765871D01*
X100947252Y-54738281D01*
X100911204Y-54723349D01*
X100872186Y-54723349D01*
X100836138Y-54738281D01*
X100808548Y-54765871D01*
X100793616Y-54801919D01*
X100791695Y-54821428D01*
X100791695Y-55075244D01*
X100505263Y-54788812D01*
X100490109Y-54776376D01*
X100486790Y-54775001D01*
X100484075Y-54772646D01*
X100466175Y-54764655D01*
X100351889Y-54726560D01*
X100342217Y-54724360D01*
X100339775Y-54723349D01*
X100336236Y-54723000D01*
X100332773Y-54722213D01*
X100330139Y-54722400D01*
X100320266Y-54721428D01*
X100244076Y-54721428D01*
X100224567Y-54723349D01*
X100221246Y-54724724D01*
X100217664Y-54724979D01*
X100199355Y-54731985D01*
X100123164Y-54770080D01*
X100114768Y-54775364D01*
X100112327Y-54776376D01*
X100109579Y-54778631D01*
X100106574Y-54780523D01*
X100104843Y-54782518D01*
X100097174Y-54788813D01*
X100059079Y-54826907D01*
X100052784Y-54834576D01*
X100050790Y-54836307D01*
X100048896Y-54839314D01*
X100046643Y-54842061D01*
X100045632Y-54844500D01*
X100040347Y-54852897D01*
X100002252Y-54929088D01*
X99995246Y-54947397D01*
X99994991Y-54950979D01*
X99993616Y-54954300D01*
X99991695Y-54973809D01*
X99891695Y-54973809D01*
X99891695Y-54621428D01*
X101091695Y-54621428D01*
X101091695Y-56240475D01*
G37*
D14*
X79238095Y-131207419D02*
X79238095Y-130207419D01*
X79238095Y-130683609D02*
X79809523Y-130683609D01*
X79809523Y-131207419D02*
X79809523Y-130207419D01*
X80190476Y-130207419D02*
X80809523Y-130207419D01*
X80809523Y-130207419D02*
X80476190Y-130588371D01*
X80476190Y-130588371D02*
X80619047Y-130588371D01*
X80619047Y-130588371D02*
X80714285Y-130635990D01*
X80714285Y-130635990D02*
X80761904Y-130683609D01*
X80761904Y-130683609D02*
X80809523Y-130778847D01*
X80809523Y-130778847D02*
X80809523Y-131016942D01*
X80809523Y-131016942D02*
X80761904Y-131112180D01*
X80761904Y-131112180D02*
X80714285Y-131159800D01*
X80714285Y-131159800D02*
X80619047Y-131207419D01*
X80619047Y-131207419D02*
X80333333Y-131207419D01*
X80333333Y-131207419D02*
X80238095Y-131159800D01*
X80238095Y-131159800D02*
X80190476Y-131112180D01*
D12*
X87177190Y-50433333D02*
X87201000Y-50457142D01*
X87201000Y-50457142D02*
X87224809Y-50528571D01*
X87224809Y-50528571D02*
X87224809Y-50576190D01*
X87224809Y-50576190D02*
X87201000Y-50647618D01*
X87201000Y-50647618D02*
X87153380Y-50695237D01*
X87153380Y-50695237D02*
X87105761Y-50719047D01*
X87105761Y-50719047D02*
X87010523Y-50742856D01*
X87010523Y-50742856D02*
X86939095Y-50742856D01*
X86939095Y-50742856D02*
X86843857Y-50719047D01*
X86843857Y-50719047D02*
X86796238Y-50695237D01*
X86796238Y-50695237D02*
X86748619Y-50647618D01*
X86748619Y-50647618D02*
X86724809Y-50576190D01*
X86724809Y-50576190D02*
X86724809Y-50528571D01*
X86724809Y-50528571D02*
X86748619Y-50457142D01*
X86748619Y-50457142D02*
X86772428Y-50433333D01*
X86891476Y-50004761D02*
X87224809Y-50004761D01*
X86701000Y-50123809D02*
X87058142Y-50242856D01*
X87058142Y-50242856D02*
X87058142Y-49933333D01*
D15*
X33445333Y-86393319D02*
X33112000Y-85917128D01*
X32873905Y-86393319D02*
X32873905Y-85393319D01*
X32873905Y-85393319D02*
X33254857Y-85393319D01*
X33254857Y-85393319D02*
X33350095Y-85440938D01*
X33350095Y-85440938D02*
X33397714Y-85488557D01*
X33397714Y-85488557D02*
X33445333Y-85583795D01*
X33445333Y-85583795D02*
X33445333Y-85726652D01*
X33445333Y-85726652D02*
X33397714Y-85821890D01*
X33397714Y-85821890D02*
X33350095Y-85869509D01*
X33350095Y-85869509D02*
X33254857Y-85917128D01*
X33254857Y-85917128D02*
X32873905Y-85917128D01*
X33778667Y-85393319D02*
X34445333Y-85393319D01*
X34445333Y-85393319D02*
X34016762Y-86393319D01*
X31194819Y-146718094D02*
X30194819Y-146718094D01*
X30194819Y-146718094D02*
X30194819Y-146479999D01*
X30194819Y-146479999D02*
X30242438Y-146337142D01*
X30242438Y-146337142D02*
X30337676Y-146241904D01*
X30337676Y-146241904D02*
X30432914Y-146194285D01*
X30432914Y-146194285D02*
X30623390Y-146146666D01*
X30623390Y-146146666D02*
X30766247Y-146146666D01*
X30766247Y-146146666D02*
X30956723Y-146194285D01*
X30956723Y-146194285D02*
X31051961Y-146241904D01*
X31051961Y-146241904D02*
X31147200Y-146337142D01*
X31147200Y-146337142D02*
X31194819Y-146479999D01*
X31194819Y-146479999D02*
X31194819Y-146718094D01*
X30194819Y-145289523D02*
X30194819Y-145479999D01*
X30194819Y-145479999D02*
X30242438Y-145575237D01*
X30242438Y-145575237D02*
X30290057Y-145622856D01*
X30290057Y-145622856D02*
X30432914Y-145718094D01*
X30432914Y-145718094D02*
X30623390Y-145765713D01*
X30623390Y-145765713D02*
X31004342Y-145765713D01*
X31004342Y-145765713D02*
X31099580Y-145718094D01*
X31099580Y-145718094D02*
X31147200Y-145670475D01*
X31147200Y-145670475D02*
X31194819Y-145575237D01*
X31194819Y-145575237D02*
X31194819Y-145384761D01*
X31194819Y-145384761D02*
X31147200Y-145289523D01*
X31147200Y-145289523D02*
X31099580Y-145241904D01*
X31099580Y-145241904D02*
X31004342Y-145194285D01*
X31004342Y-145194285D02*
X30766247Y-145194285D01*
X30766247Y-145194285D02*
X30671009Y-145241904D01*
X30671009Y-145241904D02*
X30623390Y-145289523D01*
X30623390Y-145289523D02*
X30575771Y-145384761D01*
X30575771Y-145384761D02*
X30575771Y-145575237D01*
X30575771Y-145575237D02*
X30623390Y-145670475D01*
X30623390Y-145670475D02*
X30671009Y-145718094D01*
X30671009Y-145718094D02*
X30766247Y-145765713D01*
X163070476Y-107534819D02*
X163070476Y-108249104D01*
X163070476Y-108249104D02*
X163022857Y-108391961D01*
X163022857Y-108391961D02*
X162927619Y-108487200D01*
X162927619Y-108487200D02*
X162784762Y-108534819D01*
X162784762Y-108534819D02*
X162689524Y-108534819D01*
X163499048Y-107630057D02*
X163546667Y-107582438D01*
X163546667Y-107582438D02*
X163641905Y-107534819D01*
X163641905Y-107534819D02*
X163880000Y-107534819D01*
X163880000Y-107534819D02*
X163975238Y-107582438D01*
X163975238Y-107582438D02*
X164022857Y-107630057D01*
X164022857Y-107630057D02*
X164070476Y-107725295D01*
X164070476Y-107725295D02*
X164070476Y-107820533D01*
X164070476Y-107820533D02*
X164022857Y-107963390D01*
X164022857Y-107963390D02*
X163451429Y-108534819D01*
X163451429Y-108534819D02*
X164070476Y-108534819D01*
X164451429Y-107630057D02*
X164499048Y-107582438D01*
X164499048Y-107582438D02*
X164594286Y-107534819D01*
X164594286Y-107534819D02*
X164832381Y-107534819D01*
X164832381Y-107534819D02*
X164927619Y-107582438D01*
X164927619Y-107582438D02*
X164975238Y-107630057D01*
X164975238Y-107630057D02*
X165022857Y-107725295D01*
X165022857Y-107725295D02*
X165022857Y-107820533D01*
X165022857Y-107820533D02*
X164975238Y-107963390D01*
X164975238Y-107963390D02*
X164403810Y-108534819D01*
X164403810Y-108534819D02*
X165022857Y-108534819D01*
D14*
X38902476Y-101055419D02*
X38902476Y-101769704D01*
X38902476Y-101769704D02*
X38854857Y-101912561D01*
X38854857Y-101912561D02*
X38759619Y-102007800D01*
X38759619Y-102007800D02*
X38616762Y-102055419D01*
X38616762Y-102055419D02*
X38521524Y-102055419D01*
X39902476Y-102055419D02*
X39331048Y-102055419D01*
X39616762Y-102055419D02*
X39616762Y-101055419D01*
X39616762Y-101055419D02*
X39521524Y-101198276D01*
X39521524Y-101198276D02*
X39426286Y-101293514D01*
X39426286Y-101293514D02*
X39331048Y-101341133D01*
X40378667Y-102055419D02*
X40569143Y-102055419D01*
X40569143Y-102055419D02*
X40664381Y-102007800D01*
X40664381Y-102007800D02*
X40712000Y-101960180D01*
X40712000Y-101960180D02*
X40807238Y-101817323D01*
X40807238Y-101817323D02*
X40854857Y-101626847D01*
X40854857Y-101626847D02*
X40854857Y-101245895D01*
X40854857Y-101245895D02*
X40807238Y-101150657D01*
X40807238Y-101150657D02*
X40759619Y-101103038D01*
X40759619Y-101103038D02*
X40664381Y-101055419D01*
X40664381Y-101055419D02*
X40473905Y-101055419D01*
X40473905Y-101055419D02*
X40378667Y-101103038D01*
X40378667Y-101103038D02*
X40331048Y-101150657D01*
X40331048Y-101150657D02*
X40283429Y-101245895D01*
X40283429Y-101245895D02*
X40283429Y-101483990D01*
X40283429Y-101483990D02*
X40331048Y-101579228D01*
X40331048Y-101579228D02*
X40378667Y-101626847D01*
X40378667Y-101626847D02*
X40473905Y-101674466D01*
X40473905Y-101674466D02*
X40664381Y-101674466D01*
X40664381Y-101674466D02*
X40759619Y-101626847D01*
X40759619Y-101626847D02*
X40807238Y-101579228D01*
X40807238Y-101579228D02*
X40854857Y-101483990D01*
X44602476Y-90155419D02*
X44602476Y-90869704D01*
X44602476Y-90869704D02*
X44554857Y-91012561D01*
X44554857Y-91012561D02*
X44459619Y-91107800D01*
X44459619Y-91107800D02*
X44316762Y-91155419D01*
X44316762Y-91155419D02*
X44221524Y-91155419D01*
X45602476Y-91155419D02*
X45031048Y-91155419D01*
X45316762Y-91155419D02*
X45316762Y-90155419D01*
X45316762Y-90155419D02*
X45221524Y-90298276D01*
X45221524Y-90298276D02*
X45126286Y-90393514D01*
X45126286Y-90393514D02*
X45031048Y-90441133D01*
X46507238Y-90155419D02*
X46031048Y-90155419D01*
X46031048Y-90155419D02*
X45983429Y-90631609D01*
X45983429Y-90631609D02*
X46031048Y-90583990D01*
X46031048Y-90583990D02*
X46126286Y-90536371D01*
X46126286Y-90536371D02*
X46364381Y-90536371D01*
X46364381Y-90536371D02*
X46459619Y-90583990D01*
X46459619Y-90583990D02*
X46507238Y-90631609D01*
X46507238Y-90631609D02*
X46554857Y-90726847D01*
X46554857Y-90726847D02*
X46554857Y-90964942D01*
X46554857Y-90964942D02*
X46507238Y-91060180D01*
X46507238Y-91060180D02*
X46459619Y-91107800D01*
X46459619Y-91107800D02*
X46364381Y-91155419D01*
X46364381Y-91155419D02*
X46126286Y-91155419D01*
X46126286Y-91155419D02*
X46031048Y-91107800D01*
X46031048Y-91107800D02*
X45983429Y-91060180D01*
X206490476Y-67746919D02*
X206490476Y-68461204D01*
X206490476Y-68461204D02*
X206442857Y-68604061D01*
X206442857Y-68604061D02*
X206347619Y-68699300D01*
X206347619Y-68699300D02*
X206204762Y-68746919D01*
X206204762Y-68746919D02*
X206109524Y-68746919D01*
X207490476Y-68746919D02*
X206919048Y-68746919D01*
X207204762Y-68746919D02*
X207204762Y-67746919D01*
X207204762Y-67746919D02*
X207109524Y-67889776D01*
X207109524Y-67889776D02*
X207014286Y-67985014D01*
X207014286Y-67985014D02*
X206919048Y-68032633D01*
X207823810Y-67746919D02*
X208490476Y-67746919D01*
X208490476Y-67746919D02*
X208061905Y-68746919D01*
D15*
X134204819Y-137639523D02*
X134919104Y-137639523D01*
X134919104Y-137639523D02*
X135061961Y-137687142D01*
X135061961Y-137687142D02*
X135157200Y-137782380D01*
X135157200Y-137782380D02*
X135204819Y-137925237D01*
X135204819Y-137925237D02*
X135204819Y-138020475D01*
X134300057Y-137210951D02*
X134252438Y-137163332D01*
X134252438Y-137163332D02*
X134204819Y-137068094D01*
X134204819Y-137068094D02*
X134204819Y-136829999D01*
X134204819Y-136829999D02*
X134252438Y-136734761D01*
X134252438Y-136734761D02*
X134300057Y-136687142D01*
X134300057Y-136687142D02*
X134395295Y-136639523D01*
X134395295Y-136639523D02*
X134490533Y-136639523D01*
X134490533Y-136639523D02*
X134633390Y-136687142D01*
X134633390Y-136687142D02*
X135204819Y-137258570D01*
X135204819Y-137258570D02*
X135204819Y-136639523D01*
X134204819Y-135734761D02*
X134204819Y-136210951D01*
X134204819Y-136210951D02*
X134681009Y-136258570D01*
X134681009Y-136258570D02*
X134633390Y-136210951D01*
X134633390Y-136210951D02*
X134585771Y-136115713D01*
X134585771Y-136115713D02*
X134585771Y-135877618D01*
X134585771Y-135877618D02*
X134633390Y-135782380D01*
X134633390Y-135782380D02*
X134681009Y-135734761D01*
X134681009Y-135734761D02*
X134776247Y-135687142D01*
X134776247Y-135687142D02*
X135014342Y-135687142D01*
X135014342Y-135687142D02*
X135109580Y-135734761D01*
X135109580Y-135734761D02*
X135157200Y-135782380D01*
X135157200Y-135782380D02*
X135204819Y-135877618D01*
X135204819Y-135877618D02*
X135204819Y-136115713D01*
X135204819Y-136115713D02*
X135157200Y-136210951D01*
X135157200Y-136210951D02*
X135109580Y-136258570D01*
X109944819Y-65753333D02*
X110659104Y-65753333D01*
X110659104Y-65753333D02*
X110801961Y-65800952D01*
X110801961Y-65800952D02*
X110897200Y-65896190D01*
X110897200Y-65896190D02*
X110944819Y-66039047D01*
X110944819Y-66039047D02*
X110944819Y-66134285D01*
X110944819Y-64753333D02*
X110944819Y-65324761D01*
X110944819Y-65039047D02*
X109944819Y-65039047D01*
X109944819Y-65039047D02*
X110087676Y-65134285D01*
X110087676Y-65134285D02*
X110182914Y-65229523D01*
X110182914Y-65229523D02*
X110230533Y-65324761D01*
D14*
G36*
X122373314Y-76271131D02*
G01*
X122453020Y-76350837D01*
X122495788Y-76521907D01*
X122495788Y-76842930D01*
X122453020Y-77013999D01*
X122373312Y-77093708D01*
X122295890Y-77132419D01*
X122129021Y-77132419D01*
X122051598Y-77093707D01*
X121971889Y-77013998D01*
X121929122Y-76842930D01*
X121929122Y-76521907D01*
X121971889Y-76350837D01*
X122051595Y-76271131D01*
X122129021Y-76232419D01*
X122295890Y-76232419D01*
X122373314Y-76271131D01*
G37*
G36*
X123420933Y-76271131D02*
G01*
X123500639Y-76350837D01*
X123543407Y-76521907D01*
X123543407Y-76842930D01*
X123500639Y-77013999D01*
X123420931Y-77093708D01*
X123343509Y-77132419D01*
X123176640Y-77132419D01*
X123099217Y-77093707D01*
X123019508Y-77013998D01*
X122976741Y-76842930D01*
X122976741Y-76521907D01*
X123019508Y-76350837D01*
X123099214Y-76271131D01*
X123176640Y-76232419D01*
X123343509Y-76232419D01*
X123420933Y-76271131D01*
G37*
G36*
X128661636Y-76273739D02*
G01*
X128742789Y-76354892D01*
X128784326Y-76437966D01*
X128829121Y-76617145D01*
X128829121Y-76747692D01*
X128784326Y-76926870D01*
X128742789Y-77009944D01*
X128661635Y-77091098D01*
X128537675Y-77132419D01*
X128357693Y-77132419D01*
X128357693Y-76232419D01*
X128537675Y-76232419D01*
X128661636Y-76273739D01*
G37*
G36*
X121373313Y-76271130D02*
G01*
X121409457Y-76307275D01*
X121448169Y-76384698D01*
X121448169Y-76503948D01*
X121409457Y-76581371D01*
X121373313Y-76617516D01*
X121295890Y-76656228D01*
X120976741Y-76656228D01*
X120976741Y-76232419D01*
X121295890Y-76232419D01*
X121373313Y-76271130D01*
G37*
G36*
X116087599Y-76271130D02*
G01*
X116123743Y-76307275D01*
X116162455Y-76384698D01*
X116162455Y-76503948D01*
X116123743Y-76581371D01*
X116087599Y-76617516D01*
X116010176Y-76656228D01*
X115691027Y-76656228D01*
X115691027Y-76232419D01*
X116010176Y-76232419D01*
X116087599Y-76271130D01*
G37*
G36*
X129040232Y-77343530D02*
G01*
X113622773Y-77343530D01*
X113622773Y-76182419D01*
X113733884Y-76182419D01*
X113733884Y-77182419D01*
X113737690Y-77201553D01*
X113764750Y-77228613D01*
X113783884Y-77232419D01*
X114260074Y-77232419D01*
X114279208Y-77228613D01*
X114306268Y-77201553D01*
X114306268Y-77163285D01*
X114279208Y-77136225D01*
X114260074Y-77132419D01*
X113833884Y-77132419D01*
X113833884Y-76708609D01*
X114117217Y-76708609D01*
X114136351Y-76704803D01*
X114163411Y-76677743D01*
X114163411Y-76639475D01*
X114136351Y-76612415D01*
X114117217Y-76608609D01*
X113833884Y-76608609D01*
X113833884Y-76372895D01*
X114591027Y-76372895D01*
X114591027Y-76468133D01*
X114591515Y-76470589D01*
X114591153Y-76471678D01*
X114593269Y-76479405D01*
X114594833Y-76487267D01*
X114595644Y-76488078D01*
X114596306Y-76490494D01*
X114643924Y-76585731D01*
X114648839Y-76592064D01*
X114653291Y-76598726D01*
X114700909Y-76646345D01*
X114707575Y-76650799D01*
X114713904Y-76655711D01*
X114809142Y-76703330D01*
X114814423Y-76704776D01*
X114819376Y-76707116D01*
X115004528Y-76753404D01*
X115087599Y-76794939D01*
X115123743Y-76831084D01*
X115162455Y-76908507D01*
X115162455Y-76980138D01*
X115123743Y-77057561D01*
X115087597Y-77093708D01*
X115010176Y-77132419D01*
X114791997Y-77132419D01*
X114656838Y-77087366D01*
X114637483Y-77084926D01*
X114603254Y-77102040D01*
X114591153Y-77138344D01*
X114608267Y-77172573D01*
X114625216Y-77182234D01*
X114768072Y-77229853D01*
X114776022Y-77230855D01*
X114783884Y-77232419D01*
X115021979Y-77232419D01*
X115024435Y-77231930D01*
X115025524Y-77232293D01*
X115033251Y-77230176D01*
X115041113Y-77228613D01*
X115041924Y-77227801D01*
X115044340Y-77227140D01*
X115139577Y-77179522D01*
X115145904Y-77174611D01*
X115152573Y-77170155D01*
X115200192Y-77122535D01*
X115204645Y-77115869D01*
X115209557Y-77109541D01*
X115257176Y-77014303D01*
X115257837Y-77011887D01*
X115258649Y-77011076D01*
X115260212Y-77003214D01*
X115262329Y-76995487D01*
X115261966Y-76994398D01*
X115262455Y-76991942D01*
X115262455Y-76896704D01*
X115261966Y-76894247D01*
X115262329Y-76893159D01*
X115260212Y-76885431D01*
X115258649Y-76877570D01*
X115257837Y-76876758D01*
X115257176Y-76874343D01*
X115209557Y-76779105D01*
X115204645Y-76772776D01*
X115200191Y-76766110D01*
X115152572Y-76718492D01*
X115145910Y-76714040D01*
X115139577Y-76709125D01*
X115044340Y-76661507D01*
X115039058Y-76660060D01*
X115034106Y-76657721D01*
X114848955Y-76611433D01*
X114765883Y-76569897D01*
X114729738Y-76533753D01*
X114691027Y-76456330D01*
X114691027Y-76384698D01*
X114729738Y-76307274D01*
X114765883Y-76271130D01*
X114843307Y-76232419D01*
X115061485Y-76232419D01*
X115196643Y-76277472D01*
X115215999Y-76279912D01*
X115250227Y-76262798D01*
X115262329Y-76226494D01*
X115245214Y-76192265D01*
X115228266Y-76182604D01*
X115227711Y-76182419D01*
X115591027Y-76182419D01*
X115591027Y-77182419D01*
X115594833Y-77201553D01*
X115621893Y-77228613D01*
X115660161Y-77228613D01*
X115687221Y-77201553D01*
X115691027Y-77182419D01*
X115691027Y-76756228D01*
X116021979Y-76756228D01*
X116024435Y-76755739D01*
X116025524Y-76756102D01*
X116033251Y-76753985D01*
X116041113Y-76752422D01*
X116041924Y-76751610D01*
X116044340Y-76750949D01*
X116139577Y-76703331D01*
X116145910Y-76698415D01*
X116152572Y-76693964D01*
X116200191Y-76646346D01*
X116204645Y-76639679D01*
X116209557Y-76633351D01*
X116257176Y-76538113D01*
X116257837Y-76535697D01*
X116258649Y-76534886D01*
X116260212Y-76527024D01*
X116262329Y-76519297D01*
X116261966Y-76518208D01*
X116262455Y-76515752D01*
X116262455Y-76372895D01*
X116261966Y-76370438D01*
X116262329Y-76369350D01*
X116260212Y-76361622D01*
X116258649Y-76353761D01*
X116257837Y-76352949D01*
X116257176Y-76350534D01*
X116209557Y-76255296D01*
X116204645Y-76248967D01*
X116200191Y-76242301D01*
X116152572Y-76194683D01*
X116145910Y-76190231D01*
X116139577Y-76185316D01*
X116095515Y-76163285D01*
X116499595Y-76163285D01*
X116499595Y-76201553D01*
X116526655Y-76228613D01*
X116545789Y-76232419D01*
X117054648Y-76232419D01*
X116793874Y-76530446D01*
X116786779Y-76542766D01*
X116785309Y-76544237D01*
X116785309Y-76545320D01*
X116784139Y-76547352D01*
X116785309Y-76564906D01*
X116785309Y-76582505D01*
X116786565Y-76583761D01*
X116786684Y-76585536D01*
X116799928Y-76597124D01*
X116812369Y-76609565D01*
X116814669Y-76610022D01*
X116815484Y-76610735D01*
X116817556Y-76610596D01*
X116831503Y-76613371D01*
X116962557Y-76613371D01*
X117039980Y-76652082D01*
X117076124Y-76688227D01*
X117114836Y-76765650D01*
X117114836Y-76980138D01*
X117076124Y-77057561D01*
X117039978Y-77093708D01*
X116962557Y-77132419D01*
X116700450Y-77132419D01*
X116623027Y-77093708D01*
X116581145Y-77051825D01*
X116564924Y-77040986D01*
X116526655Y-77040986D01*
X116499595Y-77068045D01*
X116499595Y-77106314D01*
X116510433Y-77122535D01*
X116558052Y-77170155D01*
X116564718Y-77174609D01*
X116571047Y-77179521D01*
X116666285Y-77227140D01*
X116668700Y-77227801D01*
X116669512Y-77228613D01*
X116677373Y-77230176D01*
X116685101Y-77232293D01*
X116686189Y-77231930D01*
X116688646Y-77232419D01*
X116974360Y-77232419D01*
X116976816Y-77231930D01*
X116977905Y-77232293D01*
X116985632Y-77230176D01*
X116993494Y-77228613D01*
X116994305Y-77227801D01*
X116996721Y-77227140D01*
X117091958Y-77179522D01*
X117098285Y-77174611D01*
X117104954Y-77170155D01*
X117111824Y-77163285D01*
X117451976Y-77163285D01*
X117451976Y-77201553D01*
X117479036Y-77228613D01*
X117498170Y-77232419D01*
X118117217Y-77232419D01*
X118136351Y-77228613D01*
X118163411Y-77201553D01*
X118163411Y-77163285D01*
X118136351Y-77136225D01*
X118117217Y-77132419D01*
X117618880Y-77132419D01*
X117968966Y-76782332D01*
X118499595Y-76782332D01*
X118499595Y-76820600D01*
X118526655Y-76847660D01*
X118545789Y-76851466D01*
X119307694Y-76851466D01*
X119326828Y-76847660D01*
X119353888Y-76820600D01*
X119353888Y-76782332D01*
X119326828Y-76755272D01*
X119307694Y-76751466D01*
X118545789Y-76751466D01*
X118526655Y-76755272D01*
X118499595Y-76782332D01*
X117968966Y-76782332D01*
X118104953Y-76646345D01*
X118106343Y-76644263D01*
X118107371Y-76643750D01*
X118111341Y-76636784D01*
X118115792Y-76630124D01*
X118115792Y-76628976D01*
X118117032Y-76626801D01*
X118164651Y-76483945D01*
X118165653Y-76475994D01*
X118167217Y-76468133D01*
X118167217Y-76372895D01*
X118166728Y-76370438D01*
X118167091Y-76369350D01*
X118164974Y-76361622D01*
X118163411Y-76353761D01*
X118162599Y-76352949D01*
X118161938Y-76350534D01*
X118114319Y-76255296D01*
X118109407Y-76248967D01*
X118104953Y-76242301D01*
X118057334Y-76194683D01*
X118050672Y-76190231D01*
X118044339Y-76185316D01*
X118022717Y-76174505D01*
X119639276Y-76174505D01*
X119640006Y-76194000D01*
X119878101Y-77194000D01*
X119886235Y-77211732D01*
X119892604Y-77215651D01*
X119896351Y-77222123D01*
X119908296Y-77225308D01*
X119918827Y-77231789D01*
X119926102Y-77230056D01*
X119933326Y-77231983D01*
X119944024Y-77225789D01*
X119956054Y-77222925D01*
X119959973Y-77216555D01*
X119966445Y-77212809D01*
X119975053Y-77195302D01*
X120117217Y-76662186D01*
X120259381Y-77195302D01*
X120267989Y-77212810D01*
X120274461Y-77216557D01*
X120278380Y-77222925D01*
X120290406Y-77225788D01*
X120301108Y-77231984D01*
X120308333Y-77230057D01*
X120315607Y-77231789D01*
X120326136Y-77225308D01*
X120338083Y-77222123D01*
X120341829Y-77215651D01*
X120348199Y-77211732D01*
X120356333Y-77194000D01*
X120594429Y-76194000D01*
X120594863Y-76182419D01*
X120876741Y-76182419D01*
X120876741Y-77182419D01*
X120880547Y-77201553D01*
X120907607Y-77228613D01*
X120945875Y-77228613D01*
X120972935Y-77201553D01*
X120976741Y-77182419D01*
X120976741Y-76756228D01*
X121138803Y-76756228D01*
X121457207Y-77211092D01*
X121471298Y-77224585D01*
X121508984Y-77231235D01*
X121540335Y-77209290D01*
X121546985Y-77171604D01*
X121539131Y-77153746D01*
X121260869Y-76756228D01*
X121307693Y-76756228D01*
X121310149Y-76755739D01*
X121311238Y-76756102D01*
X121318965Y-76753985D01*
X121326827Y-76752422D01*
X121327638Y-76751610D01*
X121330054Y-76750949D01*
X121425291Y-76703331D01*
X121431624Y-76698415D01*
X121438286Y-76693964D01*
X121485905Y-76646346D01*
X121490359Y-76639679D01*
X121495271Y-76633351D01*
X121542890Y-76538113D01*
X121543551Y-76535697D01*
X121544363Y-76534886D01*
X121545926Y-76527024D01*
X121548043Y-76519297D01*
X121547680Y-76518208D01*
X121548169Y-76515752D01*
X121829122Y-76515752D01*
X121829122Y-76849085D01*
X121830317Y-76855094D01*
X121830615Y-76861212D01*
X121878234Y-77051688D01*
X121880547Y-77056584D01*
X121880547Y-77058695D01*
X121883951Y-77063790D01*
X121886567Y-77069327D01*
X121888375Y-77070412D01*
X121891385Y-77074916D01*
X121986624Y-77170155D01*
X121993283Y-77174605D01*
X121999618Y-77179521D01*
X122094856Y-77227140D01*
X122097271Y-77227801D01*
X122098083Y-77228613D01*
X122105944Y-77230176D01*
X122113672Y-77232293D01*
X122114760Y-77231930D01*
X122117217Y-77232419D01*
X122307693Y-77232419D01*
X122310149Y-77231930D01*
X122311238Y-77232293D01*
X122318965Y-77230176D01*
X122326827Y-77228613D01*
X122327638Y-77227801D01*
X122330054Y-77227140D01*
X122425291Y-77179522D01*
X122431618Y-77174611D01*
X122438287Y-77170155D01*
X122533525Y-77074916D01*
X122536534Y-77070412D01*
X122538343Y-77069327D01*
X122540958Y-77063790D01*
X122544363Y-77058695D01*
X122544363Y-77056584D01*
X122546676Y-77051688D01*
X122594295Y-76861212D01*
X122594592Y-76855094D01*
X122595788Y-76849085D01*
X122595788Y-76515752D01*
X122876741Y-76515752D01*
X122876741Y-76849085D01*
X122877936Y-76855094D01*
X122878234Y-76861212D01*
X122925853Y-77051688D01*
X122928166Y-77056584D01*
X122928166Y-77058695D01*
X122931570Y-77063790D01*
X122934186Y-77069327D01*
X122935994Y-77070412D01*
X122939004Y-77074916D01*
X123034243Y-77170155D01*
X123040902Y-77174605D01*
X123047237Y-77179521D01*
X123142475Y-77227140D01*
X123144890Y-77227801D01*
X123145702Y-77228613D01*
X123153563Y-77230176D01*
X123161291Y-77232293D01*
X123162379Y-77231930D01*
X123164836Y-77232419D01*
X123355312Y-77232419D01*
X123357768Y-77231930D01*
X123358857Y-77232293D01*
X123366584Y-77230176D01*
X123374446Y-77228613D01*
X123375257Y-77227801D01*
X123377673Y-77227140D01*
X123472910Y-77179522D01*
X123479237Y-77174611D01*
X123485906Y-77170155D01*
X123581144Y-77074916D01*
X123584153Y-77070412D01*
X123585962Y-77069327D01*
X123588577Y-77063790D01*
X123591982Y-77058695D01*
X123591982Y-77056584D01*
X123594295Y-77051688D01*
X123641914Y-76861212D01*
X123642211Y-76855094D01*
X123643407Y-76849085D01*
X123643407Y-76515752D01*
X123642211Y-76509742D01*
X123641914Y-76503625D01*
X123594295Y-76313149D01*
X123591982Y-76308252D01*
X123591982Y-76306142D01*
X123588578Y-76301048D01*
X123585962Y-76295510D01*
X123584151Y-76294423D01*
X123581143Y-76289921D01*
X123485905Y-76194683D01*
X123479243Y-76190231D01*
X123472910Y-76185316D01*
X123467116Y-76182419D01*
X123971979Y-76182419D01*
X123971979Y-77182419D01*
X123975785Y-77201553D01*
X124002845Y-77228613D01*
X124041113Y-77228613D01*
X124068173Y-77201553D01*
X124071979Y-77182419D01*
X124071979Y-76407796D01*
X124310003Y-76917849D01*
X124317625Y-76928238D01*
X124318438Y-76930473D01*
X124319695Y-76931059D01*
X124321543Y-76933578D01*
X124337615Y-76939422D01*
X124353116Y-76946656D01*
X124355312Y-76945857D01*
X124357508Y-76946656D01*
X124373008Y-76939422D01*
X124389081Y-76933578D01*
X124390928Y-76931059D01*
X124392186Y-76930473D01*
X124392998Y-76928237D01*
X124400621Y-76917848D01*
X124638645Y-76407796D01*
X124638645Y-77182419D01*
X124642451Y-77201553D01*
X124669511Y-77228613D01*
X124707779Y-77228613D01*
X124734839Y-77201553D01*
X124738645Y-77182419D01*
X124738645Y-76782332D01*
X125118642Y-76782332D01*
X125118642Y-76820600D01*
X125145702Y-76847660D01*
X125164836Y-76851466D01*
X125926741Y-76851466D01*
X125945875Y-76847660D01*
X125972935Y-76820600D01*
X125972935Y-76782332D01*
X125945875Y-76755272D01*
X125926741Y-76751466D01*
X125164836Y-76751466D01*
X125145702Y-76755272D01*
X125118642Y-76782332D01*
X124738645Y-76782332D01*
X124738645Y-76182419D01*
X124734839Y-76163285D01*
X126261499Y-76163285D01*
X126261499Y-76201553D01*
X126288559Y-76228613D01*
X126307693Y-76232419D01*
X126816552Y-76232419D01*
X126555778Y-76530446D01*
X126548683Y-76542766D01*
X126547213Y-76544237D01*
X126547213Y-76545320D01*
X126546043Y-76547352D01*
X126547213Y-76564906D01*
X126547213Y-76582505D01*
X126548469Y-76583761D01*
X126548588Y-76585536D01*
X126561832Y-76597124D01*
X126574273Y-76609565D01*
X126576573Y-76610022D01*
X126577388Y-76610735D01*
X126579460Y-76610596D01*
X126593407Y-76613371D01*
X126724461Y-76613371D01*
X126801884Y-76652082D01*
X126838028Y-76688227D01*
X126876740Y-76765650D01*
X126876740Y-76980138D01*
X126838028Y-77057561D01*
X126801882Y-77093708D01*
X126724461Y-77132419D01*
X126462354Y-77132419D01*
X126384931Y-77093708D01*
X126343049Y-77051825D01*
X126326828Y-77040986D01*
X126288559Y-77040986D01*
X126261499Y-77068045D01*
X126261499Y-77106314D01*
X126272337Y-77122535D01*
X126319956Y-77170155D01*
X126326622Y-77174609D01*
X126332951Y-77179521D01*
X126428189Y-77227140D01*
X126430604Y-77227801D01*
X126431416Y-77228613D01*
X126439277Y-77230176D01*
X126447005Y-77232293D01*
X126448093Y-77231930D01*
X126450550Y-77232419D01*
X126736264Y-77232419D01*
X126738720Y-77231930D01*
X126739809Y-77232293D01*
X126747536Y-77230176D01*
X126755398Y-77228613D01*
X126756209Y-77227801D01*
X126758625Y-77227140D01*
X126853862Y-77179522D01*
X126860189Y-77174611D01*
X126866858Y-77170155D01*
X126873728Y-77163285D01*
X127213880Y-77163285D01*
X127213880Y-77201553D01*
X127240940Y-77228613D01*
X127260074Y-77232419D01*
X127879121Y-77232419D01*
X127898255Y-77228613D01*
X127925315Y-77201553D01*
X127925315Y-77163285D01*
X127898255Y-77136225D01*
X127879121Y-77132419D01*
X127380784Y-77132419D01*
X127866857Y-76646345D01*
X127868247Y-76644263D01*
X127869275Y-76643750D01*
X127873245Y-76636784D01*
X127877696Y-76630124D01*
X127877696Y-76628976D01*
X127878936Y-76626801D01*
X127926555Y-76483945D01*
X127927557Y-76475994D01*
X127929121Y-76468133D01*
X127929121Y-76372895D01*
X127928632Y-76370438D01*
X127928995Y-76369350D01*
X127926878Y-76361622D01*
X127925315Y-76353761D01*
X127924503Y-76352949D01*
X127923842Y-76350534D01*
X127876223Y-76255296D01*
X127871311Y-76248967D01*
X127866857Y-76242301D01*
X127819238Y-76194683D01*
X127812576Y-76190231D01*
X127806243Y-76185316D01*
X127800449Y-76182419D01*
X128257693Y-76182419D01*
X128257693Y-77182419D01*
X128261499Y-77201553D01*
X128288559Y-77228613D01*
X128307693Y-77232419D01*
X128545788Y-77232419D01*
X128553650Y-77230855D01*
X128561599Y-77229853D01*
X128704456Y-77182234D01*
X128706631Y-77180994D01*
X128707780Y-77180994D01*
X128714450Y-77176536D01*
X128721404Y-77172573D01*
X128721916Y-77171547D01*
X128724001Y-77170155D01*
X128819239Y-77074916D01*
X128823692Y-77068250D01*
X128828604Y-77061922D01*
X128876223Y-76966684D01*
X128877669Y-76961402D01*
X128880009Y-76956450D01*
X128927628Y-76765974D01*
X128927925Y-76759856D01*
X128929121Y-76753847D01*
X128929121Y-76610990D01*
X128927925Y-76604980D01*
X128927628Y-76598863D01*
X128880009Y-76408387D01*
X128877669Y-76403434D01*
X128876223Y-76398153D01*
X128828604Y-76302915D01*
X128823688Y-76296580D01*
X128819238Y-76289921D01*
X128724000Y-76194683D01*
X128721917Y-76193291D01*
X128721404Y-76192265D01*
X128714443Y-76188297D01*
X128707779Y-76183844D01*
X128706631Y-76183844D01*
X128704456Y-76182604D01*
X128561599Y-76134985D01*
X128553650Y-76133982D01*
X128545788Y-76132419D01*
X128307693Y-76132419D01*
X128288559Y-76136225D01*
X128261499Y-76163285D01*
X128257693Y-76182419D01*
X127800449Y-76182419D01*
X127711006Y-76137698D01*
X127708590Y-76137036D01*
X127707779Y-76136225D01*
X127699917Y-76134661D01*
X127692190Y-76132545D01*
X127691101Y-76132907D01*
X127688645Y-76132419D01*
X127450550Y-76132419D01*
X127448093Y-76132907D01*
X127447005Y-76132545D01*
X127439277Y-76134661D01*
X127431416Y-76136225D01*
X127430604Y-76137036D01*
X127428189Y-76137698D01*
X127332951Y-76185317D01*
X127326622Y-76190228D01*
X127319956Y-76194683D01*
X127272338Y-76242302D01*
X127261499Y-76258523D01*
X127261499Y-76296791D01*
X127288559Y-76323851D01*
X127326827Y-76323851D01*
X127343048Y-76313012D01*
X127384930Y-76271130D01*
X127462354Y-76232419D01*
X127676842Y-76232419D01*
X127754265Y-76271130D01*
X127790409Y-76307275D01*
X127829121Y-76384698D01*
X127829121Y-76460020D01*
X127787800Y-76583981D01*
X127224719Y-77147064D01*
X127213880Y-77163285D01*
X126873728Y-77163285D01*
X126914477Y-77122535D01*
X126918930Y-77115869D01*
X126923842Y-77109541D01*
X126971461Y-77014303D01*
X126972122Y-77011887D01*
X126972934Y-77011076D01*
X126974497Y-77003214D01*
X126976614Y-76995487D01*
X126976251Y-76994398D01*
X126976740Y-76991942D01*
X126976740Y-76753847D01*
X126976251Y-76751390D01*
X126976614Y-76750302D01*
X126974497Y-76742574D01*
X126972934Y-76734713D01*
X126972122Y-76733901D01*
X126971461Y-76731486D01*
X126923842Y-76636248D01*
X126918930Y-76629919D01*
X126914476Y-76623253D01*
X126866857Y-76575635D01*
X126860195Y-76571183D01*
X126853862Y-76566268D01*
X126758625Y-76518650D01*
X126756209Y-76517988D01*
X126755398Y-76517177D01*
X126747536Y-76515613D01*
X126739809Y-76513497D01*
X126738720Y-76513859D01*
X126736264Y-76513371D01*
X126703595Y-76513371D01*
X126964369Y-76215344D01*
X126971463Y-76203023D01*
X126972934Y-76201553D01*
X126972934Y-76200469D01*
X126974104Y-76198438D01*
X126972934Y-76180883D01*
X126972934Y-76163285D01*
X126971677Y-76162028D01*
X126971559Y-76160254D01*
X126958314Y-76148665D01*
X126945874Y-76136225D01*
X126943573Y-76135767D01*
X126942759Y-76135055D01*
X126940686Y-76135193D01*
X126926740Y-76132419D01*
X126307693Y-76132419D01*
X126288559Y-76136225D01*
X126261499Y-76163285D01*
X124734839Y-76163285D01*
X124728556Y-76157002D01*
X124725519Y-76148650D01*
X124715553Y-76143999D01*
X124707779Y-76136225D01*
X124698894Y-76136225D01*
X124690841Y-76132467D01*
X124680506Y-76136225D01*
X124669511Y-76136225D01*
X124663228Y-76142507D01*
X124654876Y-76145545D01*
X124643336Y-76161274D01*
X124355311Y-76778469D01*
X124067288Y-76161275D01*
X124055748Y-76145545D01*
X124047395Y-76142507D01*
X124041113Y-76136225D01*
X124030118Y-76136225D01*
X124019783Y-76132467D01*
X124011730Y-76136225D01*
X124002845Y-76136225D01*
X123995070Y-76143999D01*
X123985105Y-76148650D01*
X123982067Y-76157002D01*
X123975785Y-76163285D01*
X123971979Y-76182419D01*
X123467116Y-76182419D01*
X123377673Y-76137698D01*
X123375257Y-76137036D01*
X123374446Y-76136225D01*
X123366584Y-76134661D01*
X123358857Y-76132545D01*
X123357768Y-76132907D01*
X123355312Y-76132419D01*
X123164836Y-76132419D01*
X123162379Y-76132907D01*
X123161291Y-76132545D01*
X123153563Y-76134661D01*
X123145702Y-76136225D01*
X123144890Y-76137036D01*
X123142475Y-76137698D01*
X123047237Y-76185317D01*
X123040902Y-76190232D01*
X123034243Y-76194683D01*
X122939005Y-76289921D01*
X122935996Y-76294423D01*
X122934186Y-76295510D01*
X122931569Y-76301048D01*
X122928166Y-76306142D01*
X122928166Y-76308252D01*
X122925853Y-76313149D01*
X122878234Y-76503625D01*
X122877936Y-76509742D01*
X122876741Y-76515752D01*
X122595788Y-76515752D01*
X122594592Y-76509742D01*
X122594295Y-76503625D01*
X122546676Y-76313149D01*
X122544363Y-76308252D01*
X122544363Y-76306142D01*
X122540959Y-76301048D01*
X122538343Y-76295510D01*
X122536532Y-76294423D01*
X122533524Y-76289921D01*
X122438286Y-76194683D01*
X122431624Y-76190231D01*
X122425291Y-76185316D01*
X122330054Y-76137698D01*
X122327638Y-76137036D01*
X122326827Y-76136225D01*
X122318965Y-76134661D01*
X122311238Y-76132545D01*
X122310149Y-76132907D01*
X122307693Y-76132419D01*
X122117217Y-76132419D01*
X122114760Y-76132907D01*
X122113672Y-76132545D01*
X122105944Y-76134661D01*
X122098083Y-76136225D01*
X122097271Y-76137036D01*
X122094856Y-76137698D01*
X121999618Y-76185317D01*
X121993283Y-76190232D01*
X121986624Y-76194683D01*
X121891386Y-76289921D01*
X121888377Y-76294423D01*
X121886567Y-76295510D01*
X121883950Y-76301048D01*
X121880547Y-76306142D01*
X121880547Y-76308252D01*
X121878234Y-76313149D01*
X121830615Y-76503625D01*
X121830317Y-76509742D01*
X121829122Y-76515752D01*
X121548169Y-76515752D01*
X121548169Y-76372895D01*
X121547680Y-76370438D01*
X121548043Y-76369350D01*
X121545926Y-76361622D01*
X121544363Y-76353761D01*
X121543551Y-76352949D01*
X121542890Y-76350534D01*
X121495271Y-76255296D01*
X121490359Y-76248967D01*
X121485905Y-76242301D01*
X121438286Y-76194683D01*
X121431624Y-76190231D01*
X121425291Y-76185316D01*
X121330054Y-76137698D01*
X121327638Y-76137036D01*
X121326827Y-76136225D01*
X121318965Y-76134661D01*
X121311238Y-76132545D01*
X121310149Y-76132907D01*
X121307693Y-76132419D01*
X120926741Y-76132419D01*
X120907607Y-76136225D01*
X120880547Y-76163285D01*
X120876741Y-76182419D01*
X120594863Y-76182419D01*
X120595159Y-76174505D01*
X120575102Y-76141913D01*
X120537875Y-76133049D01*
X120505283Y-76153106D01*
X120497149Y-76170838D01*
X120304948Y-76978075D01*
X120165529Y-76455250D01*
X120156921Y-76437743D01*
X120151022Y-76434327D01*
X120147607Y-76428429D01*
X120135047Y-76425079D01*
X120123802Y-76418569D01*
X120117218Y-76420324D01*
X120110632Y-76418568D01*
X120099382Y-76425080D01*
X120086827Y-76428429D01*
X120083412Y-76434326D01*
X120077513Y-76437742D01*
X120068905Y-76455250D01*
X119929485Y-76978075D01*
X119737286Y-76170838D01*
X119729152Y-76153106D01*
X119696560Y-76133049D01*
X119659333Y-76141913D01*
X119639276Y-76174505D01*
X118022717Y-76174505D01*
X117949102Y-76137698D01*
X117946686Y-76137036D01*
X117945875Y-76136225D01*
X117938013Y-76134661D01*
X117930286Y-76132545D01*
X117929197Y-76132907D01*
X117926741Y-76132419D01*
X117688646Y-76132419D01*
X117686189Y-76132907D01*
X117685101Y-76132545D01*
X117677373Y-76134661D01*
X117669512Y-76136225D01*
X117668700Y-76137036D01*
X117666285Y-76137698D01*
X117571047Y-76185317D01*
X117564718Y-76190228D01*
X117558052Y-76194683D01*
X117510434Y-76242302D01*
X117499595Y-76258523D01*
X117499595Y-76296791D01*
X117526655Y-76323851D01*
X117564923Y-76323851D01*
X117581144Y-76313012D01*
X117623026Y-76271130D01*
X117700450Y-76232419D01*
X117914938Y-76232419D01*
X117992361Y-76271130D01*
X118028505Y-76307275D01*
X118067217Y-76384698D01*
X118067217Y-76460020D01*
X118025896Y-76583981D01*
X117462815Y-77147064D01*
X117451976Y-77163285D01*
X117111824Y-77163285D01*
X117152573Y-77122535D01*
X117157026Y-77115869D01*
X117161938Y-77109541D01*
X117209557Y-77014303D01*
X117210218Y-77011887D01*
X117211030Y-77011076D01*
X117212593Y-77003214D01*
X117214710Y-76995487D01*
X117214347Y-76994398D01*
X117214836Y-76991942D01*
X117214836Y-76753847D01*
X117214347Y-76751390D01*
X117214710Y-76750302D01*
X117212593Y-76742574D01*
X117211030Y-76734713D01*
X117210218Y-76733901D01*
X117209557Y-76731486D01*
X117161938Y-76636248D01*
X117157026Y-76629919D01*
X117152572Y-76623253D01*
X117104953Y-76575635D01*
X117098291Y-76571183D01*
X117091958Y-76566268D01*
X116996721Y-76518650D01*
X116994305Y-76517988D01*
X116993494Y-76517177D01*
X116985632Y-76515613D01*
X116977905Y-76513497D01*
X116976816Y-76513859D01*
X116974360Y-76513371D01*
X116941691Y-76513371D01*
X117202465Y-76215344D01*
X117209559Y-76203023D01*
X117211030Y-76201553D01*
X117211030Y-76200469D01*
X117212200Y-76198438D01*
X117211030Y-76180883D01*
X117211030Y-76163285D01*
X117209773Y-76162028D01*
X117209655Y-76160254D01*
X117196410Y-76148665D01*
X117183970Y-76136225D01*
X117181669Y-76135767D01*
X117180855Y-76135055D01*
X117178782Y-76135193D01*
X117164836Y-76132419D01*
X116545789Y-76132419D01*
X116526655Y-76136225D01*
X116499595Y-76163285D01*
X116095515Y-76163285D01*
X116044340Y-76137698D01*
X116041924Y-76137036D01*
X116041113Y-76136225D01*
X116033251Y-76134661D01*
X116025524Y-76132545D01*
X116024435Y-76132907D01*
X116021979Y-76132419D01*
X115641027Y-76132419D01*
X115621893Y-76136225D01*
X115594833Y-76163285D01*
X115591027Y-76182419D01*
X115227711Y-76182419D01*
X115085409Y-76134985D01*
X115077460Y-76133982D01*
X115069598Y-76132419D01*
X114831503Y-76132419D01*
X114829046Y-76132907D01*
X114827958Y-76132545D01*
X114820230Y-76134661D01*
X114812369Y-76136225D01*
X114811557Y-76137036D01*
X114809142Y-76137698D01*
X114713904Y-76185317D01*
X114707575Y-76190228D01*
X114700909Y-76194683D01*
X114653291Y-76242302D01*
X114648839Y-76248963D01*
X114643924Y-76255297D01*
X114596306Y-76350534D01*
X114595644Y-76352949D01*
X114594833Y-76353761D01*
X114593269Y-76361622D01*
X114591153Y-76369350D01*
X114591515Y-76370438D01*
X114591027Y-76372895D01*
X113833884Y-76372895D01*
X113833884Y-76232419D01*
X114260074Y-76232419D01*
X114279208Y-76228613D01*
X114306268Y-76201553D01*
X114306268Y-76163285D01*
X114279208Y-76136225D01*
X114260074Y-76132419D01*
X113783884Y-76132419D01*
X113764750Y-76136225D01*
X113737690Y-76163285D01*
X113733884Y-76182419D01*
X113622773Y-76182419D01*
X113622773Y-76021308D01*
X129040232Y-76021308D01*
X129040232Y-77343530D01*
G37*
D12*
X93877190Y-56133333D02*
X93901000Y-56157142D01*
X93901000Y-56157142D02*
X93924809Y-56228571D01*
X93924809Y-56228571D02*
X93924809Y-56276190D01*
X93924809Y-56276190D02*
X93901000Y-56347618D01*
X93901000Y-56347618D02*
X93853380Y-56395237D01*
X93853380Y-56395237D02*
X93805761Y-56419047D01*
X93805761Y-56419047D02*
X93710523Y-56442856D01*
X93710523Y-56442856D02*
X93639095Y-56442856D01*
X93639095Y-56442856D02*
X93543857Y-56419047D01*
X93543857Y-56419047D02*
X93496238Y-56395237D01*
X93496238Y-56395237D02*
X93448619Y-56347618D01*
X93448619Y-56347618D02*
X93424809Y-56276190D01*
X93424809Y-56276190D02*
X93424809Y-56228571D01*
X93424809Y-56228571D02*
X93448619Y-56157142D01*
X93448619Y-56157142D02*
X93472428Y-56133333D01*
X93924809Y-55895237D02*
X93924809Y-55799999D01*
X93924809Y-55799999D02*
X93901000Y-55752380D01*
X93901000Y-55752380D02*
X93877190Y-55728571D01*
X93877190Y-55728571D02*
X93805761Y-55680952D01*
X93805761Y-55680952D02*
X93710523Y-55657142D01*
X93710523Y-55657142D02*
X93520047Y-55657142D01*
X93520047Y-55657142D02*
X93472428Y-55680952D01*
X93472428Y-55680952D02*
X93448619Y-55704761D01*
X93448619Y-55704761D02*
X93424809Y-55752380D01*
X93424809Y-55752380D02*
X93424809Y-55847618D01*
X93424809Y-55847618D02*
X93448619Y-55895237D01*
X93448619Y-55895237D02*
X93472428Y-55919047D01*
X93472428Y-55919047D02*
X93520047Y-55942856D01*
X93520047Y-55942856D02*
X93639095Y-55942856D01*
X93639095Y-55942856D02*
X93686714Y-55919047D01*
X93686714Y-55919047D02*
X93710523Y-55895237D01*
X93710523Y-55895237D02*
X93734333Y-55847618D01*
X93734333Y-55847618D02*
X93734333Y-55752380D01*
X93734333Y-55752380D02*
X93710523Y-55704761D01*
X93710523Y-55704761D02*
X93686714Y-55680952D01*
X93686714Y-55680952D02*
X93639095Y-55657142D01*
D15*
X132083333Y-97859580D02*
X132035714Y-97907200D01*
X132035714Y-97907200D02*
X131892857Y-97954819D01*
X131892857Y-97954819D02*
X131797619Y-97954819D01*
X131797619Y-97954819D02*
X131654762Y-97907200D01*
X131654762Y-97907200D02*
X131559524Y-97811961D01*
X131559524Y-97811961D02*
X131511905Y-97716723D01*
X131511905Y-97716723D02*
X131464286Y-97526247D01*
X131464286Y-97526247D02*
X131464286Y-97383390D01*
X131464286Y-97383390D02*
X131511905Y-97192914D01*
X131511905Y-97192914D02*
X131559524Y-97097676D01*
X131559524Y-97097676D02*
X131654762Y-97002438D01*
X131654762Y-97002438D02*
X131797619Y-96954819D01*
X131797619Y-96954819D02*
X131892857Y-96954819D01*
X131892857Y-96954819D02*
X132035714Y-97002438D01*
X132035714Y-97002438D02*
X132083333Y-97050057D01*
X132940476Y-96954819D02*
X132750000Y-96954819D01*
X132750000Y-96954819D02*
X132654762Y-97002438D01*
X132654762Y-97002438D02*
X132607143Y-97050057D01*
X132607143Y-97050057D02*
X132511905Y-97192914D01*
X132511905Y-97192914D02*
X132464286Y-97383390D01*
X132464286Y-97383390D02*
X132464286Y-97764342D01*
X132464286Y-97764342D02*
X132511905Y-97859580D01*
X132511905Y-97859580D02*
X132559524Y-97907200D01*
X132559524Y-97907200D02*
X132654762Y-97954819D01*
X132654762Y-97954819D02*
X132845238Y-97954819D01*
X132845238Y-97954819D02*
X132940476Y-97907200D01*
X132940476Y-97907200D02*
X132988095Y-97859580D01*
X132988095Y-97859580D02*
X133035714Y-97764342D01*
X133035714Y-97764342D02*
X133035714Y-97526247D01*
X133035714Y-97526247D02*
X132988095Y-97431009D01*
X132988095Y-97431009D02*
X132940476Y-97383390D01*
X132940476Y-97383390D02*
X132845238Y-97335771D01*
X132845238Y-97335771D02*
X132654762Y-97335771D01*
X132654762Y-97335771D02*
X132559524Y-97383390D01*
X132559524Y-97383390D02*
X132511905Y-97431009D01*
X132511905Y-97431009D02*
X132464286Y-97526247D01*
D14*
X91333333Y-60476109D02*
X91333333Y-60833252D01*
X91333333Y-60833252D02*
X91309524Y-60904680D01*
X91309524Y-60904680D02*
X91261905Y-60952300D01*
X91261905Y-60952300D02*
X91190476Y-60976109D01*
X91190476Y-60976109D02*
X91142857Y-60976109D01*
X91523809Y-60476109D02*
X91857142Y-60476109D01*
X91857142Y-60476109D02*
X91642857Y-60976109D01*
X85309523Y-110962580D02*
X85309523Y-110248295D01*
X85309523Y-110248295D02*
X85357142Y-110105438D01*
X85357142Y-110105438D02*
X85452380Y-110010200D01*
X85452380Y-110010200D02*
X85595237Y-109962580D01*
X85595237Y-109962580D02*
X85690475Y-109962580D01*
X84880951Y-110867342D02*
X84833332Y-110914961D01*
X84833332Y-110914961D02*
X84738094Y-110962580D01*
X84738094Y-110962580D02*
X84499999Y-110962580D01*
X84499999Y-110962580D02*
X84404761Y-110914961D01*
X84404761Y-110914961D02*
X84357142Y-110867342D01*
X84357142Y-110867342D02*
X84309523Y-110772104D01*
X84309523Y-110772104D02*
X84309523Y-110676866D01*
X84309523Y-110676866D02*
X84357142Y-110534009D01*
X84357142Y-110534009D02*
X84928570Y-109962580D01*
X84928570Y-109962580D02*
X84309523Y-109962580D01*
X83452380Y-110629247D02*
X83452380Y-109962580D01*
X83690475Y-111010200D02*
X83928570Y-110295914D01*
X83928570Y-110295914D02*
X83309523Y-110295914D01*
D13*
G36*
X84423808Y-93452780D02*
G01*
X84166463Y-93452780D01*
X84106853Y-93422975D01*
X84082185Y-93398306D01*
X84052380Y-93338696D01*
X84052380Y-93243054D01*
X84082185Y-93183444D01*
X84106853Y-93158775D01*
X84166463Y-93128971D01*
X84423808Y-93128971D01*
X84423808Y-93452780D01*
G37*
G36*
X85734919Y-93763891D02*
G01*
X83312697Y-93763891D01*
X83312697Y-92552780D01*
X83423808Y-92552780D01*
X83423808Y-93552780D01*
X83425729Y-93572289D01*
X83440661Y-93608337D01*
X83468251Y-93635927D01*
X83504299Y-93650859D01*
X83543317Y-93650859D01*
X83579365Y-93635927D01*
X83606955Y-93608337D01*
X83621887Y-93572289D01*
X83623808Y-93552780D01*
X83623808Y-93219447D01*
X83852380Y-93219447D01*
X83852380Y-93362304D01*
X83854301Y-93381813D01*
X83855676Y-93385133D01*
X83855931Y-93388717D01*
X83862937Y-93407025D01*
X83910556Y-93502263D01*
X83915841Y-93510659D01*
X83916852Y-93513099D01*
X83919105Y-93515845D01*
X83920999Y-93518853D01*
X83922993Y-93520582D01*
X83929288Y-93528253D01*
X83976907Y-93575871D01*
X83984573Y-93582163D01*
X83986306Y-93584161D01*
X83989314Y-93586054D01*
X83992060Y-93588308D01*
X83994500Y-93589318D01*
X84002897Y-93594604D01*
X84098134Y-93642223D01*
X84116443Y-93649229D01*
X84120026Y-93649483D01*
X84123347Y-93650859D01*
X84142856Y-93652780D01*
X84523808Y-93652780D01*
X84543317Y-93650859D01*
X84579365Y-93635927D01*
X84606955Y-93608337D01*
X84621887Y-93572289D01*
X84623808Y-93552780D01*
X84623808Y-92743257D01*
X84852380Y-92743257D01*
X84852380Y-92838495D01*
X84854301Y-92858004D01*
X84855676Y-92861324D01*
X84855931Y-92864908D01*
X84862937Y-92883216D01*
X84910556Y-92978454D01*
X84915841Y-92986850D01*
X84916852Y-92989290D01*
X84919105Y-92992036D01*
X84920999Y-92995044D01*
X84922993Y-92996773D01*
X84929288Y-93004444D01*
X84976907Y-93052062D01*
X84984573Y-93058354D01*
X84986306Y-93060352D01*
X84989314Y-93062245D01*
X84992060Y-93064499D01*
X84994500Y-93065509D01*
X85002897Y-93070795D01*
X85098134Y-93118414D01*
X85099562Y-93118960D01*
X85100142Y-93119390D01*
X85108318Y-93122311D01*
X85116443Y-93125420D01*
X85117163Y-93125471D01*
X85118602Y-93125985D01*
X85298427Y-93170941D01*
X85369334Y-93206395D01*
X85394003Y-93231063D01*
X85423808Y-93290673D01*
X85423808Y-93338697D01*
X85394003Y-93398306D01*
X85369334Y-93422974D01*
X85309725Y-93452780D01*
X85111463Y-93452780D01*
X84984003Y-93410293D01*
X84964887Y-93405946D01*
X84925967Y-93408712D01*
X84891068Y-93426162D01*
X84865503Y-93455638D01*
X84853165Y-93492654D01*
X84855931Y-93531574D01*
X84873381Y-93566473D01*
X84902857Y-93592038D01*
X84920757Y-93600029D01*
X85063614Y-93647648D01*
X85073286Y-93649847D01*
X85075728Y-93650859D01*
X85079265Y-93651207D01*
X85082729Y-93651995D01*
X85085363Y-93651807D01*
X85095237Y-93652780D01*
X85333332Y-93652780D01*
X85352841Y-93650859D01*
X85356161Y-93649483D01*
X85359745Y-93649229D01*
X85378053Y-93642223D01*
X85473291Y-93594604D01*
X85481687Y-93589318D01*
X85484127Y-93588308D01*
X85486873Y-93586054D01*
X85489881Y-93584161D01*
X85491610Y-93582166D01*
X85499281Y-93575872D01*
X85546899Y-93528253D01*
X85553191Y-93520586D01*
X85555189Y-93518854D01*
X85557082Y-93515845D01*
X85559336Y-93513100D01*
X85560346Y-93510659D01*
X85565632Y-93502263D01*
X85613251Y-93407026D01*
X85620257Y-93388717D01*
X85620511Y-93385133D01*
X85621887Y-93381813D01*
X85623808Y-93362304D01*
X85623808Y-93267066D01*
X85621887Y-93247557D01*
X85620511Y-93244236D01*
X85620257Y-93240653D01*
X85613251Y-93222344D01*
X85565632Y-93127107D01*
X85560346Y-93118710D01*
X85559336Y-93116270D01*
X85557082Y-93113524D01*
X85555189Y-93110516D01*
X85553191Y-93108783D01*
X85546899Y-93101117D01*
X85499281Y-93053498D01*
X85491610Y-93047203D01*
X85489881Y-93045209D01*
X85486873Y-93043315D01*
X85484127Y-93041062D01*
X85481687Y-93040051D01*
X85473291Y-93034766D01*
X85378053Y-92987147D01*
X85376626Y-92986601D01*
X85376046Y-92986171D01*
X85367869Y-92983249D01*
X85359745Y-92980141D01*
X85359022Y-92980089D01*
X85357585Y-92979576D01*
X85177760Y-92934619D01*
X85106853Y-92899166D01*
X85082185Y-92874497D01*
X85052380Y-92814887D01*
X85052380Y-92766864D01*
X85082185Y-92707254D01*
X85106854Y-92682584D01*
X85166462Y-92652780D01*
X85364724Y-92652780D01*
X85492185Y-92695268D01*
X85511300Y-92699615D01*
X85550220Y-92696849D01*
X85585119Y-92679400D01*
X85610684Y-92649924D01*
X85623023Y-92612908D01*
X85620257Y-92573988D01*
X85602808Y-92539089D01*
X85573332Y-92513524D01*
X85555432Y-92505532D01*
X85412574Y-92457912D01*
X85402901Y-92455712D01*
X85400460Y-92454701D01*
X85396922Y-92454352D01*
X85393459Y-92453565D01*
X85390824Y-92453752D01*
X85380951Y-92452780D01*
X85142856Y-92452780D01*
X85123347Y-92454701D01*
X85120026Y-92456076D01*
X85116443Y-92456331D01*
X85098134Y-92463338D01*
X85002896Y-92510958D01*
X84994503Y-92516241D01*
X84992060Y-92517253D01*
X84989310Y-92519509D01*
X84986306Y-92521401D01*
X84984576Y-92523395D01*
X84976907Y-92529690D01*
X84929288Y-92577308D01*
X84922993Y-92584978D01*
X84920999Y-92586708D01*
X84919105Y-92589715D01*
X84916852Y-92592462D01*
X84915841Y-92594901D01*
X84910556Y-92603298D01*
X84862937Y-92698536D01*
X84855931Y-92716844D01*
X84855676Y-92720427D01*
X84854301Y-92723748D01*
X84852380Y-92743257D01*
X84623808Y-92743257D01*
X84623808Y-92552780D01*
X84621887Y-92533271D01*
X84606955Y-92497223D01*
X84579365Y-92469633D01*
X84543317Y-92454701D01*
X84504299Y-92454701D01*
X84468251Y-92469633D01*
X84440661Y-92497223D01*
X84425729Y-92533271D01*
X84423808Y-92552780D01*
X84423808Y-92928971D01*
X84142856Y-92928971D01*
X84123347Y-92930892D01*
X84120026Y-92932267D01*
X84116443Y-92932522D01*
X84098134Y-92939528D01*
X84002897Y-92987147D01*
X83994500Y-92992432D01*
X83992060Y-92993443D01*
X83989314Y-92995696D01*
X83986306Y-92997590D01*
X83984573Y-92999587D01*
X83976907Y-93005880D01*
X83929288Y-93053498D01*
X83922993Y-93061168D01*
X83920999Y-93062898D01*
X83919105Y-93065905D01*
X83916852Y-93068652D01*
X83915841Y-93071091D01*
X83910556Y-93079488D01*
X83862937Y-93174726D01*
X83855931Y-93193034D01*
X83855676Y-93196617D01*
X83854301Y-93199938D01*
X83852380Y-93219447D01*
X83623808Y-93219447D01*
X83623808Y-92552780D01*
X83621887Y-92533271D01*
X83606955Y-92497223D01*
X83579365Y-92469633D01*
X83543317Y-92454701D01*
X83504299Y-92454701D01*
X83468251Y-92469633D01*
X83440661Y-92497223D01*
X83425729Y-92533271D01*
X83423808Y-92552780D01*
X83312697Y-92552780D01*
X83312697Y-92341669D01*
X85734919Y-92341669D01*
X85734919Y-93763891D01*
G37*
D14*
X83150475Y-108095104D02*
X82817142Y-107295104D01*
X82817142Y-107295104D02*
X82483809Y-108095104D01*
X81721904Y-107333200D02*
X81817142Y-107295104D01*
X81817142Y-107295104D02*
X82007618Y-107295104D01*
X82007618Y-107295104D02*
X82102856Y-107333200D01*
X82102856Y-107333200D02*
X82150475Y-107371295D01*
X82150475Y-107371295D02*
X82198094Y-107447485D01*
X82198094Y-107447485D02*
X82198094Y-107676057D01*
X82198094Y-107676057D02*
X82150475Y-107752247D01*
X82150475Y-107752247D02*
X82102856Y-107790342D01*
X82102856Y-107790342D02*
X82007618Y-107828438D01*
X82007618Y-107828438D02*
X81817142Y-107828438D01*
X81817142Y-107828438D02*
X81721904Y-107790342D01*
X80864761Y-107333200D02*
X80959999Y-107295104D01*
X80959999Y-107295104D02*
X81150475Y-107295104D01*
X81150475Y-107295104D02*
X81245713Y-107333200D01*
X81245713Y-107333200D02*
X81293332Y-107371295D01*
X81293332Y-107371295D02*
X81340951Y-107447485D01*
X81340951Y-107447485D02*
X81340951Y-107676057D01*
X81340951Y-107676057D02*
X81293332Y-107752247D01*
X81293332Y-107752247D02*
X81245713Y-107790342D01*
X81245713Y-107790342D02*
X81150475Y-107828438D01*
X81150475Y-107828438D02*
X80959999Y-107828438D01*
X80959999Y-107828438D02*
X80864761Y-107790342D01*
X82721904Y-105517009D02*
X82817142Y-105555104D01*
X82817142Y-105555104D02*
X82959999Y-105555104D01*
X82959999Y-105555104D02*
X83102856Y-105517009D01*
X83102856Y-105517009D02*
X83198094Y-105440819D01*
X83198094Y-105440819D02*
X83245713Y-105364628D01*
X83245713Y-105364628D02*
X83293332Y-105212247D01*
X83293332Y-105212247D02*
X83293332Y-105097961D01*
X83293332Y-105097961D02*
X83245713Y-104945580D01*
X83245713Y-104945580D02*
X83198094Y-104869390D01*
X83198094Y-104869390D02*
X83102856Y-104793200D01*
X83102856Y-104793200D02*
X82959999Y-104755104D01*
X82959999Y-104755104D02*
X82864761Y-104755104D01*
X82864761Y-104755104D02*
X82721904Y-104793200D01*
X82721904Y-104793200D02*
X82674285Y-104831295D01*
X82674285Y-104831295D02*
X82674285Y-105097961D01*
X82674285Y-105097961D02*
X82864761Y-105097961D01*
X82245713Y-104755104D02*
X82245713Y-105555104D01*
X82245713Y-105555104D02*
X81674285Y-104755104D01*
X81674285Y-104755104D02*
X81674285Y-105555104D01*
X81198094Y-104755104D02*
X81198094Y-105555104D01*
X81198094Y-105555104D02*
X80959999Y-105555104D01*
X80959999Y-105555104D02*
X80817142Y-105517009D01*
X80817142Y-105517009D02*
X80721904Y-105440819D01*
X80721904Y-105440819D02*
X80674285Y-105364628D01*
X80674285Y-105364628D02*
X80626666Y-105212247D01*
X80626666Y-105212247D02*
X80626666Y-105097961D01*
X80626666Y-105097961D02*
X80674285Y-104945580D01*
X80674285Y-104945580D02*
X80721904Y-104869390D01*
X80721904Y-104869390D02*
X80817142Y-104793200D01*
X80817142Y-104793200D02*
X80959999Y-104755104D01*
X80959999Y-104755104D02*
X81198094Y-104755104D01*
X82626666Y-97211295D02*
X82674285Y-97173200D01*
X82674285Y-97173200D02*
X82817142Y-97135104D01*
X82817142Y-97135104D02*
X82912380Y-97135104D01*
X82912380Y-97135104D02*
X83055237Y-97173200D01*
X83055237Y-97173200D02*
X83150475Y-97249390D01*
X83150475Y-97249390D02*
X83198094Y-97325580D01*
X83198094Y-97325580D02*
X83245713Y-97477961D01*
X83245713Y-97477961D02*
X83245713Y-97592247D01*
X83245713Y-97592247D02*
X83198094Y-97744628D01*
X83198094Y-97744628D02*
X83150475Y-97820819D01*
X83150475Y-97820819D02*
X83055237Y-97897009D01*
X83055237Y-97897009D02*
X82912380Y-97935104D01*
X82912380Y-97935104D02*
X82817142Y-97935104D01*
X82817142Y-97935104D02*
X82674285Y-97897009D01*
X82674285Y-97897009D02*
X82626666Y-97858914D01*
X82245713Y-97173200D02*
X82102856Y-97135104D01*
X82102856Y-97135104D02*
X81864761Y-97135104D01*
X81864761Y-97135104D02*
X81769523Y-97173200D01*
X81769523Y-97173200D02*
X81721904Y-97211295D01*
X81721904Y-97211295D02*
X81674285Y-97287485D01*
X81674285Y-97287485D02*
X81674285Y-97363676D01*
X81674285Y-97363676D02*
X81721904Y-97439866D01*
X81721904Y-97439866D02*
X81769523Y-97477961D01*
X81769523Y-97477961D02*
X81864761Y-97516057D01*
X81864761Y-97516057D02*
X82055237Y-97554152D01*
X82055237Y-97554152D02*
X82150475Y-97592247D01*
X82150475Y-97592247D02*
X82198094Y-97630342D01*
X82198094Y-97630342D02*
X82245713Y-97706533D01*
X82245713Y-97706533D02*
X82245713Y-97782723D01*
X82245713Y-97782723D02*
X82198094Y-97858914D01*
X82198094Y-97858914D02*
X82150475Y-97897009D01*
X82150475Y-97897009D02*
X82055237Y-97935104D01*
X82055237Y-97935104D02*
X81817142Y-97935104D01*
X81817142Y-97935104D02*
X81674285Y-97897009D01*
X80912380Y-97554152D02*
X80769523Y-97516057D01*
X80769523Y-97516057D02*
X80721904Y-97477961D01*
X80721904Y-97477961D02*
X80674285Y-97401771D01*
X80674285Y-97401771D02*
X80674285Y-97287485D01*
X80674285Y-97287485D02*
X80721904Y-97211295D01*
X80721904Y-97211295D02*
X80769523Y-97173200D01*
X80769523Y-97173200D02*
X80864761Y-97135104D01*
X80864761Y-97135104D02*
X81245713Y-97135104D01*
X81245713Y-97135104D02*
X81245713Y-97935104D01*
X81245713Y-97935104D02*
X80912380Y-97935104D01*
X80912380Y-97935104D02*
X80817142Y-97897009D01*
X80817142Y-97897009D02*
X80769523Y-97858914D01*
X80769523Y-97858914D02*
X80721904Y-97782723D01*
X80721904Y-97782723D02*
X80721904Y-97706533D01*
X80721904Y-97706533D02*
X80769523Y-97630342D01*
X80769523Y-97630342D02*
X80817142Y-97592247D01*
X80817142Y-97592247D02*
X80912380Y-97554152D01*
X80912380Y-97554152D02*
X81245713Y-97554152D01*
X83174285Y-99713200D02*
X83031428Y-99675104D01*
X83031428Y-99675104D02*
X82793333Y-99675104D01*
X82793333Y-99675104D02*
X82698095Y-99713200D01*
X82698095Y-99713200D02*
X82650476Y-99751295D01*
X82650476Y-99751295D02*
X82602857Y-99827485D01*
X82602857Y-99827485D02*
X82602857Y-99903676D01*
X82602857Y-99903676D02*
X82650476Y-99979866D01*
X82650476Y-99979866D02*
X82698095Y-100017961D01*
X82698095Y-100017961D02*
X82793333Y-100056057D01*
X82793333Y-100056057D02*
X82983809Y-100094152D01*
X82983809Y-100094152D02*
X83079047Y-100132247D01*
X83079047Y-100132247D02*
X83126666Y-100170342D01*
X83126666Y-100170342D02*
X83174285Y-100246533D01*
X83174285Y-100246533D02*
X83174285Y-100322723D01*
X83174285Y-100322723D02*
X83126666Y-100398914D01*
X83126666Y-100398914D02*
X83079047Y-100437009D01*
X83079047Y-100437009D02*
X82983809Y-100475104D01*
X82983809Y-100475104D02*
X82745714Y-100475104D01*
X82745714Y-100475104D02*
X82602857Y-100437009D01*
X82174285Y-99675104D02*
X82174285Y-100475104D01*
X82174285Y-100475104D02*
X81936190Y-100475104D01*
X81936190Y-100475104D02*
X81793333Y-100437009D01*
X81793333Y-100437009D02*
X81698095Y-100360819D01*
X81698095Y-100360819D02*
X81650476Y-100284628D01*
X81650476Y-100284628D02*
X81602857Y-100132247D01*
X81602857Y-100132247D02*
X81602857Y-100017961D01*
X81602857Y-100017961D02*
X81650476Y-99865580D01*
X81650476Y-99865580D02*
X81698095Y-99789390D01*
X81698095Y-99789390D02*
X81793333Y-99713200D01*
X81793333Y-99713200D02*
X81936190Y-99675104D01*
X81936190Y-99675104D02*
X82174285Y-99675104D01*
X81221904Y-99903676D02*
X80745714Y-99903676D01*
X81317142Y-99675104D02*
X80983809Y-100475104D01*
X80983809Y-100475104D02*
X80650476Y-99675104D01*
X83150475Y-102253200D02*
X83007618Y-102215104D01*
X83007618Y-102215104D02*
X82769523Y-102215104D01*
X82769523Y-102215104D02*
X82674285Y-102253200D01*
X82674285Y-102253200D02*
X82626666Y-102291295D01*
X82626666Y-102291295D02*
X82579047Y-102367485D01*
X82579047Y-102367485D02*
X82579047Y-102443676D01*
X82579047Y-102443676D02*
X82626666Y-102519866D01*
X82626666Y-102519866D02*
X82674285Y-102557961D01*
X82674285Y-102557961D02*
X82769523Y-102596057D01*
X82769523Y-102596057D02*
X82959999Y-102634152D01*
X82959999Y-102634152D02*
X83055237Y-102672247D01*
X83055237Y-102672247D02*
X83102856Y-102710342D01*
X83102856Y-102710342D02*
X83150475Y-102786533D01*
X83150475Y-102786533D02*
X83150475Y-102862723D01*
X83150475Y-102862723D02*
X83102856Y-102938914D01*
X83102856Y-102938914D02*
X83055237Y-102977009D01*
X83055237Y-102977009D02*
X82959999Y-103015104D01*
X82959999Y-103015104D02*
X82721904Y-103015104D01*
X82721904Y-103015104D02*
X82579047Y-102977009D01*
X81579047Y-102291295D02*
X81626666Y-102253200D01*
X81626666Y-102253200D02*
X81769523Y-102215104D01*
X81769523Y-102215104D02*
X81864761Y-102215104D01*
X81864761Y-102215104D02*
X82007618Y-102253200D01*
X82007618Y-102253200D02*
X82102856Y-102329390D01*
X82102856Y-102329390D02*
X82150475Y-102405580D01*
X82150475Y-102405580D02*
X82198094Y-102557961D01*
X82198094Y-102557961D02*
X82198094Y-102672247D01*
X82198094Y-102672247D02*
X82150475Y-102824628D01*
X82150475Y-102824628D02*
X82102856Y-102900819D01*
X82102856Y-102900819D02*
X82007618Y-102977009D01*
X82007618Y-102977009D02*
X81864761Y-103015104D01*
X81864761Y-103015104D02*
X81769523Y-103015104D01*
X81769523Y-103015104D02*
X81626666Y-102977009D01*
X81626666Y-102977009D02*
X81579047Y-102938914D01*
X80674285Y-102215104D02*
X81150475Y-102215104D01*
X81150475Y-102215104D02*
X81150475Y-103015104D01*
X83269523Y-94633200D02*
X83126666Y-94595104D01*
X83126666Y-94595104D02*
X82888571Y-94595104D01*
X82888571Y-94595104D02*
X82793333Y-94633200D01*
X82793333Y-94633200D02*
X82745714Y-94671295D01*
X82745714Y-94671295D02*
X82698095Y-94747485D01*
X82698095Y-94747485D02*
X82698095Y-94823676D01*
X82698095Y-94823676D02*
X82745714Y-94899866D01*
X82745714Y-94899866D02*
X82793333Y-94937961D01*
X82793333Y-94937961D02*
X82888571Y-94976057D01*
X82888571Y-94976057D02*
X83079047Y-95014152D01*
X83079047Y-95014152D02*
X83174285Y-95052247D01*
X83174285Y-95052247D02*
X83221904Y-95090342D01*
X83221904Y-95090342D02*
X83269523Y-95166533D01*
X83269523Y-95166533D02*
X83269523Y-95242723D01*
X83269523Y-95242723D02*
X83221904Y-95318914D01*
X83221904Y-95318914D02*
X83174285Y-95357009D01*
X83174285Y-95357009D02*
X83079047Y-95395104D01*
X83079047Y-95395104D02*
X82840952Y-95395104D01*
X82840952Y-95395104D02*
X82698095Y-95357009D01*
X82269523Y-94595104D02*
X82269523Y-95395104D01*
X82269523Y-95395104D02*
X82031428Y-95395104D01*
X82031428Y-95395104D02*
X81888571Y-95357009D01*
X81888571Y-95357009D02*
X81793333Y-95280819D01*
X81793333Y-95280819D02*
X81745714Y-95204628D01*
X81745714Y-95204628D02*
X81698095Y-95052247D01*
X81698095Y-95052247D02*
X81698095Y-94937961D01*
X81698095Y-94937961D02*
X81745714Y-94785580D01*
X81745714Y-94785580D02*
X81793333Y-94709390D01*
X81793333Y-94709390D02*
X81888571Y-94633200D01*
X81888571Y-94633200D02*
X82031428Y-94595104D01*
X82031428Y-94595104D02*
X82269523Y-94595104D01*
X81079047Y-95395104D02*
X80888571Y-95395104D01*
X80888571Y-95395104D02*
X80793333Y-95357009D01*
X80793333Y-95357009D02*
X80698095Y-95280819D01*
X80698095Y-95280819D02*
X80650476Y-95128438D01*
X80650476Y-95128438D02*
X80650476Y-94861771D01*
X80650476Y-94861771D02*
X80698095Y-94709390D01*
X80698095Y-94709390D02*
X80793333Y-94633200D01*
X80793333Y-94633200D02*
X80888571Y-94595104D01*
X80888571Y-94595104D02*
X81079047Y-94595104D01*
X81079047Y-94595104D02*
X81174285Y-94633200D01*
X81174285Y-94633200D02*
X81269523Y-94709390D01*
X81269523Y-94709390D02*
X81317142Y-94861771D01*
X81317142Y-94861771D02*
X81317142Y-95128438D01*
X81317142Y-95128438D02*
X81269523Y-95280819D01*
X81269523Y-95280819D02*
X81174285Y-95357009D01*
X81174285Y-95357009D02*
X81079047Y-95395104D01*
D12*
X97024809Y-45416666D02*
X97381952Y-45416666D01*
X97381952Y-45416666D02*
X97453380Y-45440475D01*
X97453380Y-45440475D02*
X97501000Y-45488094D01*
X97501000Y-45488094D02*
X97524809Y-45559523D01*
X97524809Y-45559523D02*
X97524809Y-45607142D01*
X97072428Y-45202380D02*
X97048619Y-45178571D01*
X97048619Y-45178571D02*
X97024809Y-45130952D01*
X97024809Y-45130952D02*
X97024809Y-45011904D01*
X97024809Y-45011904D02*
X97048619Y-44964285D01*
X97048619Y-44964285D02*
X97072428Y-44940476D01*
X97072428Y-44940476D02*
X97120047Y-44916666D01*
X97120047Y-44916666D02*
X97167666Y-44916666D01*
X97167666Y-44916666D02*
X97239095Y-44940476D01*
X97239095Y-44940476D02*
X97524809Y-45226190D01*
X97524809Y-45226190D02*
X97524809Y-44916666D01*
X113224809Y-76391666D02*
X113581952Y-76391666D01*
X113581952Y-76391666D02*
X113653380Y-76415475D01*
X113653380Y-76415475D02*
X113701000Y-76463094D01*
X113701000Y-76463094D02*
X113724809Y-76534523D01*
X113724809Y-76534523D02*
X113724809Y-76582142D01*
X113224809Y-75939285D02*
X113224809Y-76034523D01*
X113224809Y-76034523D02*
X113248619Y-76082142D01*
X113248619Y-76082142D02*
X113272428Y-76105952D01*
X113272428Y-76105952D02*
X113343857Y-76153571D01*
X113343857Y-76153571D02*
X113439095Y-76177380D01*
X113439095Y-76177380D02*
X113629571Y-76177380D01*
X113629571Y-76177380D02*
X113677190Y-76153571D01*
X113677190Y-76153571D02*
X113701000Y-76129761D01*
X113701000Y-76129761D02*
X113724809Y-76082142D01*
X113724809Y-76082142D02*
X113724809Y-75986904D01*
X113724809Y-75986904D02*
X113701000Y-75939285D01*
X113701000Y-75939285D02*
X113677190Y-75915476D01*
X113677190Y-75915476D02*
X113629571Y-75891666D01*
X113629571Y-75891666D02*
X113510523Y-75891666D01*
X113510523Y-75891666D02*
X113462904Y-75915476D01*
X113462904Y-75915476D02*
X113439095Y-75939285D01*
X113439095Y-75939285D02*
X113415285Y-75986904D01*
X113415285Y-75986904D02*
X113415285Y-76082142D01*
X113415285Y-76082142D02*
X113439095Y-76129761D01*
X113439095Y-76129761D02*
X113462904Y-76153571D01*
X113462904Y-76153571D02*
X113510523Y-76177380D01*
D15*
X117528095Y-69709819D02*
X117528095Y-70519342D01*
X117528095Y-70519342D02*
X117575714Y-70614580D01*
X117575714Y-70614580D02*
X117623333Y-70662200D01*
X117623333Y-70662200D02*
X117718571Y-70709819D01*
X117718571Y-70709819D02*
X117909047Y-70709819D01*
X117909047Y-70709819D02*
X118004285Y-70662200D01*
X118004285Y-70662200D02*
X118051904Y-70614580D01*
X118051904Y-70614580D02*
X118099523Y-70519342D01*
X118099523Y-70519342D02*
X118099523Y-69709819D01*
X118480476Y-69709819D02*
X119099523Y-69709819D01*
X119099523Y-69709819D02*
X118766190Y-70090771D01*
X118766190Y-70090771D02*
X118909047Y-70090771D01*
X118909047Y-70090771D02*
X119004285Y-70138390D01*
X119004285Y-70138390D02*
X119051904Y-70186009D01*
X119051904Y-70186009D02*
X119099523Y-70281247D01*
X119099523Y-70281247D02*
X119099523Y-70519342D01*
X119099523Y-70519342D02*
X119051904Y-70614580D01*
X119051904Y-70614580D02*
X119004285Y-70662200D01*
X119004285Y-70662200D02*
X118909047Y-70709819D01*
X118909047Y-70709819D02*
X118623333Y-70709819D01*
X118623333Y-70709819D02*
X118528095Y-70662200D01*
X118528095Y-70662200D02*
X118480476Y-70614580D01*
D12*
X124727190Y-66583333D02*
X124751000Y-66607142D01*
X124751000Y-66607142D02*
X124774809Y-66678571D01*
X124774809Y-66678571D02*
X124774809Y-66726190D01*
X124774809Y-66726190D02*
X124751000Y-66797618D01*
X124751000Y-66797618D02*
X124703380Y-66845237D01*
X124703380Y-66845237D02*
X124655761Y-66869047D01*
X124655761Y-66869047D02*
X124560523Y-66892856D01*
X124560523Y-66892856D02*
X124489095Y-66892856D01*
X124489095Y-66892856D02*
X124393857Y-66869047D01*
X124393857Y-66869047D02*
X124346238Y-66845237D01*
X124346238Y-66845237D02*
X124298619Y-66797618D01*
X124298619Y-66797618D02*
X124274809Y-66726190D01*
X124274809Y-66726190D02*
X124274809Y-66678571D01*
X124274809Y-66678571D02*
X124298619Y-66607142D01*
X124298619Y-66607142D02*
X124322428Y-66583333D01*
X124274809Y-66130952D02*
X124274809Y-66369047D01*
X124274809Y-66369047D02*
X124512904Y-66392856D01*
X124512904Y-66392856D02*
X124489095Y-66369047D01*
X124489095Y-66369047D02*
X124465285Y-66321428D01*
X124465285Y-66321428D02*
X124465285Y-66202380D01*
X124465285Y-66202380D02*
X124489095Y-66154761D01*
X124489095Y-66154761D02*
X124512904Y-66130952D01*
X124512904Y-66130952D02*
X124560523Y-66107142D01*
X124560523Y-66107142D02*
X124679571Y-66107142D01*
X124679571Y-66107142D02*
X124727190Y-66130952D01*
X124727190Y-66130952D02*
X124751000Y-66154761D01*
X124751000Y-66154761D02*
X124774809Y-66202380D01*
X124774809Y-66202380D02*
X124774809Y-66321428D01*
X124774809Y-66321428D02*
X124751000Y-66369047D01*
X124751000Y-66369047D02*
X124727190Y-66392856D01*
D14*
X139192580Y-109532976D02*
X138478295Y-109532976D01*
X138478295Y-109532976D02*
X138335438Y-109485357D01*
X138335438Y-109485357D02*
X138240200Y-109390119D01*
X138240200Y-109390119D02*
X138192580Y-109247262D01*
X138192580Y-109247262D02*
X138192580Y-109152024D01*
X139097342Y-109961548D02*
X139144961Y-110009167D01*
X139144961Y-110009167D02*
X139192580Y-110104405D01*
X139192580Y-110104405D02*
X139192580Y-110342500D01*
X139192580Y-110342500D02*
X139144961Y-110437738D01*
X139144961Y-110437738D02*
X139097342Y-110485357D01*
X139097342Y-110485357D02*
X139002104Y-110532976D01*
X139002104Y-110532976D02*
X138906866Y-110532976D01*
X138906866Y-110532976D02*
X138764009Y-110485357D01*
X138764009Y-110485357D02*
X138192580Y-109913929D01*
X138192580Y-109913929D02*
X138192580Y-110532976D01*
X138192580Y-111485357D02*
X138192580Y-110913929D01*
X138192580Y-111199643D02*
X139192580Y-111199643D01*
X139192580Y-111199643D02*
X139049723Y-111104405D01*
X139049723Y-111104405D02*
X138954485Y-111009167D01*
X138954485Y-111009167D02*
X138906866Y-110913929D01*
D12*
X98316666Y-42077190D02*
X98292857Y-42101000D01*
X98292857Y-42101000D02*
X98221428Y-42124809D01*
X98221428Y-42124809D02*
X98173809Y-42124809D01*
X98173809Y-42124809D02*
X98102381Y-42101000D01*
X98102381Y-42101000D02*
X98054762Y-42053380D01*
X98054762Y-42053380D02*
X98030952Y-42005761D01*
X98030952Y-42005761D02*
X98007143Y-41910523D01*
X98007143Y-41910523D02*
X98007143Y-41839095D01*
X98007143Y-41839095D02*
X98030952Y-41743857D01*
X98030952Y-41743857D02*
X98054762Y-41696238D01*
X98054762Y-41696238D02*
X98102381Y-41648619D01*
X98102381Y-41648619D02*
X98173809Y-41624809D01*
X98173809Y-41624809D02*
X98221428Y-41624809D01*
X98221428Y-41624809D02*
X98292857Y-41648619D01*
X98292857Y-41648619D02*
X98316666Y-41672428D01*
X98483333Y-41624809D02*
X98792857Y-41624809D01*
X98792857Y-41624809D02*
X98626190Y-41815285D01*
X98626190Y-41815285D02*
X98697619Y-41815285D01*
X98697619Y-41815285D02*
X98745238Y-41839095D01*
X98745238Y-41839095D02*
X98769047Y-41862904D01*
X98769047Y-41862904D02*
X98792857Y-41910523D01*
X98792857Y-41910523D02*
X98792857Y-42029571D01*
X98792857Y-42029571D02*
X98769047Y-42077190D01*
X98769047Y-42077190D02*
X98745238Y-42101000D01*
X98745238Y-42101000D02*
X98697619Y-42124809D01*
X98697619Y-42124809D02*
X98554762Y-42124809D01*
X98554762Y-42124809D02*
X98507143Y-42101000D01*
X98507143Y-42101000D02*
X98483333Y-42077190D01*
D14*
X87102580Y-87940476D02*
X86388295Y-87940476D01*
X86388295Y-87940476D02*
X86245438Y-87892857D01*
X86245438Y-87892857D02*
X86150200Y-87797619D01*
X86150200Y-87797619D02*
X86102580Y-87654762D01*
X86102580Y-87654762D02*
X86102580Y-87559524D01*
X87007342Y-88369048D02*
X87054961Y-88416667D01*
X87054961Y-88416667D02*
X87102580Y-88511905D01*
X87102580Y-88511905D02*
X87102580Y-88750000D01*
X87102580Y-88750000D02*
X87054961Y-88845238D01*
X87054961Y-88845238D02*
X87007342Y-88892857D01*
X87007342Y-88892857D02*
X86912104Y-88940476D01*
X86912104Y-88940476D02*
X86816866Y-88940476D01*
X86816866Y-88940476D02*
X86674009Y-88892857D01*
X86674009Y-88892857D02*
X86102580Y-88321429D01*
X86102580Y-88321429D02*
X86102580Y-88940476D01*
X87102580Y-89559524D02*
X87102580Y-89654762D01*
X87102580Y-89654762D02*
X87054961Y-89750000D01*
X87054961Y-89750000D02*
X87007342Y-89797619D01*
X87007342Y-89797619D02*
X86912104Y-89845238D01*
X86912104Y-89845238D02*
X86721628Y-89892857D01*
X86721628Y-89892857D02*
X86483533Y-89892857D01*
X86483533Y-89892857D02*
X86293057Y-89845238D01*
X86293057Y-89845238D02*
X86197819Y-89797619D01*
X86197819Y-89797619D02*
X86150200Y-89750000D01*
X86150200Y-89750000D02*
X86102580Y-89654762D01*
X86102580Y-89654762D02*
X86102580Y-89559524D01*
X86102580Y-89559524D02*
X86150200Y-89464286D01*
X86150200Y-89464286D02*
X86197819Y-89416667D01*
X86197819Y-89416667D02*
X86293057Y-89369048D01*
X86293057Y-89369048D02*
X86483533Y-89321429D01*
X86483533Y-89321429D02*
X86721628Y-89321429D01*
X86721628Y-89321429D02*
X86912104Y-89369048D01*
X86912104Y-89369048D02*
X87007342Y-89416667D01*
X87007342Y-89416667D02*
X87054961Y-89464286D01*
X87054961Y-89464286D02*
X87102580Y-89559524D01*
D13*
X135452780Y-100188095D02*
X134643257Y-100188095D01*
X134643257Y-100188095D02*
X134548019Y-100235714D01*
X134548019Y-100235714D02*
X134500400Y-100283333D01*
X134500400Y-100283333D02*
X134452780Y-100378571D01*
X134452780Y-100378571D02*
X134452780Y-100569047D01*
X134452780Y-100569047D02*
X134500400Y-100664285D01*
X134500400Y-100664285D02*
X134548019Y-100711904D01*
X134548019Y-100711904D02*
X134643257Y-100759523D01*
X134643257Y-100759523D02*
X135452780Y-100759523D01*
X134500400Y-101188095D02*
X134452780Y-101330952D01*
X134452780Y-101330952D02*
X134452780Y-101569047D01*
X134452780Y-101569047D02*
X134500400Y-101664285D01*
X134500400Y-101664285D02*
X134548019Y-101711904D01*
X134548019Y-101711904D02*
X134643257Y-101759523D01*
X134643257Y-101759523D02*
X134738495Y-101759523D01*
X134738495Y-101759523D02*
X134833733Y-101711904D01*
X134833733Y-101711904D02*
X134881352Y-101664285D01*
X134881352Y-101664285D02*
X134928971Y-101569047D01*
X134928971Y-101569047D02*
X134976590Y-101378571D01*
X134976590Y-101378571D02*
X135024209Y-101283333D01*
X135024209Y-101283333D02*
X135071828Y-101235714D01*
X135071828Y-101235714D02*
X135167066Y-101188095D01*
X135167066Y-101188095D02*
X135262304Y-101188095D01*
X135262304Y-101188095D02*
X135357542Y-101235714D01*
X135357542Y-101235714D02*
X135405161Y-101283333D01*
X135405161Y-101283333D02*
X135452780Y-101378571D01*
X135452780Y-101378571D02*
X135452780Y-101616666D01*
X135452780Y-101616666D02*
X135405161Y-101759523D01*
X134976590Y-102521428D02*
X134928971Y-102664285D01*
X134928971Y-102664285D02*
X134881352Y-102711904D01*
X134881352Y-102711904D02*
X134786114Y-102759523D01*
X134786114Y-102759523D02*
X134643257Y-102759523D01*
X134643257Y-102759523D02*
X134548019Y-102711904D01*
X134548019Y-102711904D02*
X134500400Y-102664285D01*
X134500400Y-102664285D02*
X134452780Y-102569047D01*
X134452780Y-102569047D02*
X134452780Y-102188095D01*
X134452780Y-102188095D02*
X135452780Y-102188095D01*
X135452780Y-102188095D02*
X135452780Y-102521428D01*
X135452780Y-102521428D02*
X135405161Y-102616666D01*
X135405161Y-102616666D02*
X135357542Y-102664285D01*
X135357542Y-102664285D02*
X135262304Y-102711904D01*
X135262304Y-102711904D02*
X135167066Y-102711904D01*
X135167066Y-102711904D02*
X135071828Y-102664285D01*
X135071828Y-102664285D02*
X135024209Y-102616666D01*
X135024209Y-102616666D02*
X134976590Y-102521428D01*
X134976590Y-102521428D02*
X134976590Y-102188095D01*
D12*
X96716666Y-58527190D02*
X96692857Y-58551000D01*
X96692857Y-58551000D02*
X96621428Y-58574809D01*
X96621428Y-58574809D02*
X96573809Y-58574809D01*
X96573809Y-58574809D02*
X96502381Y-58551000D01*
X96502381Y-58551000D02*
X96454762Y-58503380D01*
X96454762Y-58503380D02*
X96430952Y-58455761D01*
X96430952Y-58455761D02*
X96407143Y-58360523D01*
X96407143Y-58360523D02*
X96407143Y-58289095D01*
X96407143Y-58289095D02*
X96430952Y-58193857D01*
X96430952Y-58193857D02*
X96454762Y-58146238D01*
X96454762Y-58146238D02*
X96502381Y-58098619D01*
X96502381Y-58098619D02*
X96573809Y-58074809D01*
X96573809Y-58074809D02*
X96621428Y-58074809D01*
X96621428Y-58074809D02*
X96692857Y-58098619D01*
X96692857Y-58098619D02*
X96716666Y-58122428D01*
X97002381Y-58289095D02*
X96954762Y-58265285D01*
X96954762Y-58265285D02*
X96930952Y-58241476D01*
X96930952Y-58241476D02*
X96907143Y-58193857D01*
X96907143Y-58193857D02*
X96907143Y-58170047D01*
X96907143Y-58170047D02*
X96930952Y-58122428D01*
X96930952Y-58122428D02*
X96954762Y-58098619D01*
X96954762Y-58098619D02*
X97002381Y-58074809D01*
X97002381Y-58074809D02*
X97097619Y-58074809D01*
X97097619Y-58074809D02*
X97145238Y-58098619D01*
X97145238Y-58098619D02*
X97169047Y-58122428D01*
X97169047Y-58122428D02*
X97192857Y-58170047D01*
X97192857Y-58170047D02*
X97192857Y-58193857D01*
X97192857Y-58193857D02*
X97169047Y-58241476D01*
X97169047Y-58241476D02*
X97145238Y-58265285D01*
X97145238Y-58265285D02*
X97097619Y-58289095D01*
X97097619Y-58289095D02*
X97002381Y-58289095D01*
X97002381Y-58289095D02*
X96954762Y-58312904D01*
X96954762Y-58312904D02*
X96930952Y-58336714D01*
X96930952Y-58336714D02*
X96907143Y-58384333D01*
X96907143Y-58384333D02*
X96907143Y-58479571D01*
X96907143Y-58479571D02*
X96930952Y-58527190D01*
X96930952Y-58527190D02*
X96954762Y-58551000D01*
X96954762Y-58551000D02*
X97002381Y-58574809D01*
X97002381Y-58574809D02*
X97097619Y-58574809D01*
X97097619Y-58574809D02*
X97145238Y-58551000D01*
X97145238Y-58551000D02*
X97169047Y-58527190D01*
X97169047Y-58527190D02*
X97192857Y-58479571D01*
X97192857Y-58479571D02*
X97192857Y-58384333D01*
X97192857Y-58384333D02*
X97169047Y-58336714D01*
X97169047Y-58336714D02*
X97145238Y-58312904D01*
X97145238Y-58312904D02*
X97097619Y-58289095D01*
D14*
X101295238Y-53806109D02*
X101295238Y-54163252D01*
X101295238Y-54163252D02*
X101271429Y-54234680D01*
X101271429Y-54234680D02*
X101223810Y-54282300D01*
X101223810Y-54282300D02*
X101152381Y-54306109D01*
X101152381Y-54306109D02*
X101104762Y-54306109D01*
X101795238Y-54306109D02*
X101509524Y-54306109D01*
X101652381Y-54306109D02*
X101652381Y-53806109D01*
X101652381Y-53806109D02*
X101604762Y-53877538D01*
X101604762Y-53877538D02*
X101557143Y-53925157D01*
X101557143Y-53925157D02*
X101509524Y-53948966D01*
X102080952Y-54020395D02*
X102033333Y-53996585D01*
X102033333Y-53996585D02*
X102009523Y-53972776D01*
X102009523Y-53972776D02*
X101985714Y-53925157D01*
X101985714Y-53925157D02*
X101985714Y-53901347D01*
X101985714Y-53901347D02*
X102009523Y-53853728D01*
X102009523Y-53853728D02*
X102033333Y-53829919D01*
X102033333Y-53829919D02*
X102080952Y-53806109D01*
X102080952Y-53806109D02*
X102176190Y-53806109D01*
X102176190Y-53806109D02*
X102223809Y-53829919D01*
X102223809Y-53829919D02*
X102247618Y-53853728D01*
X102247618Y-53853728D02*
X102271428Y-53901347D01*
X102271428Y-53901347D02*
X102271428Y-53925157D01*
X102271428Y-53925157D02*
X102247618Y-53972776D01*
X102247618Y-53972776D02*
X102223809Y-53996585D01*
X102223809Y-53996585D02*
X102176190Y-54020395D01*
X102176190Y-54020395D02*
X102080952Y-54020395D01*
X102080952Y-54020395D02*
X102033333Y-54044204D01*
X102033333Y-54044204D02*
X102009523Y-54068014D01*
X102009523Y-54068014D02*
X101985714Y-54115633D01*
X101985714Y-54115633D02*
X101985714Y-54210871D01*
X101985714Y-54210871D02*
X102009523Y-54258490D01*
X102009523Y-54258490D02*
X102033333Y-54282300D01*
X102033333Y-54282300D02*
X102080952Y-54306109D01*
X102080952Y-54306109D02*
X102176190Y-54306109D01*
X102176190Y-54306109D02*
X102223809Y-54282300D01*
X102223809Y-54282300D02*
X102247618Y-54258490D01*
X102247618Y-54258490D02*
X102271428Y-54210871D01*
X102271428Y-54210871D02*
X102271428Y-54115633D01*
X102271428Y-54115633D02*
X102247618Y-54068014D01*
X102247618Y-54068014D02*
X102223809Y-54044204D01*
X102223809Y-54044204D02*
X102176190Y-54020395D01*
D12*
X101924809Y-54547619D02*
X101924809Y-54785714D01*
X101924809Y-54785714D02*
X101424809Y-54785714D01*
X101662904Y-54380952D02*
X101662904Y-54214285D01*
X101924809Y-54142857D02*
X101924809Y-54380952D01*
X101924809Y-54380952D02*
X101424809Y-54380952D01*
X101424809Y-54380952D02*
X101424809Y-54142857D01*
X101924809Y-53928571D02*
X101424809Y-53928571D01*
X101424809Y-53928571D02*
X101424809Y-53809523D01*
X101424809Y-53809523D02*
X101448619Y-53738095D01*
X101448619Y-53738095D02*
X101496238Y-53690476D01*
X101496238Y-53690476D02*
X101543857Y-53666666D01*
X101543857Y-53666666D02*
X101639095Y-53642857D01*
X101639095Y-53642857D02*
X101710523Y-53642857D01*
X101710523Y-53642857D02*
X101805761Y-53666666D01*
X101805761Y-53666666D02*
X101853380Y-53690476D01*
X101853380Y-53690476D02*
X101901000Y-53738095D01*
X101901000Y-53738095D02*
X101924809Y-53809523D01*
X101924809Y-53809523D02*
X101924809Y-53928571D01*
X101972428Y-53547619D02*
X101972428Y-53166666D01*
X101924809Y-53047619D02*
X101424809Y-53047619D01*
X101424809Y-53047619D02*
X101424809Y-52857143D01*
X101424809Y-52857143D02*
X101448619Y-52809524D01*
X101448619Y-52809524D02*
X101472428Y-52785714D01*
X101472428Y-52785714D02*
X101520047Y-52761905D01*
X101520047Y-52761905D02*
X101591476Y-52761905D01*
X101591476Y-52761905D02*
X101639095Y-52785714D01*
X101639095Y-52785714D02*
X101662904Y-52809524D01*
X101662904Y-52809524D02*
X101686714Y-52857143D01*
X101686714Y-52857143D02*
X101686714Y-53047619D01*
X101424809Y-52595238D02*
X101924809Y-52476190D01*
X101924809Y-52476190D02*
X101567666Y-52380952D01*
X101567666Y-52380952D02*
X101924809Y-52285714D01*
X101924809Y-52285714D02*
X101424809Y-52166667D01*
X101924809Y-51690476D02*
X101686714Y-51857142D01*
X101924809Y-51976190D02*
X101424809Y-51976190D01*
X101424809Y-51976190D02*
X101424809Y-51785714D01*
X101424809Y-51785714D02*
X101448619Y-51738095D01*
X101448619Y-51738095D02*
X101472428Y-51714285D01*
X101472428Y-51714285D02*
X101520047Y-51690476D01*
X101520047Y-51690476D02*
X101591476Y-51690476D01*
X101591476Y-51690476D02*
X101639095Y-51714285D01*
X101639095Y-51714285D02*
X101662904Y-51738095D01*
X101662904Y-51738095D02*
X101686714Y-51785714D01*
X101686714Y-51785714D02*
X101686714Y-51976190D01*
D14*
X93457419Y-84059523D02*
X94171704Y-84059523D01*
X94171704Y-84059523D02*
X94314561Y-84107142D01*
X94314561Y-84107142D02*
X94409800Y-84202380D01*
X94409800Y-84202380D02*
X94457419Y-84345237D01*
X94457419Y-84345237D02*
X94457419Y-84440475D01*
X93552657Y-83630951D02*
X93505038Y-83583332D01*
X93505038Y-83583332D02*
X93457419Y-83488094D01*
X93457419Y-83488094D02*
X93457419Y-83249999D01*
X93457419Y-83249999D02*
X93505038Y-83154761D01*
X93505038Y-83154761D02*
X93552657Y-83107142D01*
X93552657Y-83107142D02*
X93647895Y-83059523D01*
X93647895Y-83059523D02*
X93743133Y-83059523D01*
X93743133Y-83059523D02*
X93885990Y-83107142D01*
X93885990Y-83107142D02*
X94457419Y-83678570D01*
X94457419Y-83678570D02*
X94457419Y-83059523D01*
X93457419Y-82726189D02*
X93457419Y-82107142D01*
X93457419Y-82107142D02*
X93838371Y-82440475D01*
X93838371Y-82440475D02*
X93838371Y-82297618D01*
X93838371Y-82297618D02*
X93885990Y-82202380D01*
X93885990Y-82202380D02*
X93933609Y-82154761D01*
X93933609Y-82154761D02*
X94028847Y-82107142D01*
X94028847Y-82107142D02*
X94266942Y-82107142D01*
X94266942Y-82107142D02*
X94362180Y-82154761D01*
X94362180Y-82154761D02*
X94409800Y-82202380D01*
X94409800Y-82202380D02*
X94457419Y-82297618D01*
X94457419Y-82297618D02*
X94457419Y-82583332D01*
X94457419Y-82583332D02*
X94409800Y-82678570D01*
X94409800Y-82678570D02*
X94362180Y-82726189D01*
X96246800Y-86980475D02*
X96284895Y-86837618D01*
X96284895Y-86837618D02*
X96284895Y-86599523D01*
X96284895Y-86599523D02*
X96246800Y-86504285D01*
X96246800Y-86504285D02*
X96208704Y-86456666D01*
X96208704Y-86456666D02*
X96132514Y-86409047D01*
X96132514Y-86409047D02*
X96056323Y-86409047D01*
X96056323Y-86409047D02*
X95980133Y-86456666D01*
X95980133Y-86456666D02*
X95942038Y-86504285D01*
X95942038Y-86504285D02*
X95903942Y-86599523D01*
X95903942Y-86599523D02*
X95865847Y-86789999D01*
X95865847Y-86789999D02*
X95827752Y-86885237D01*
X95827752Y-86885237D02*
X95789657Y-86932856D01*
X95789657Y-86932856D02*
X95713466Y-86980475D01*
X95713466Y-86980475D02*
X95637276Y-86980475D01*
X95637276Y-86980475D02*
X95561085Y-86932856D01*
X95561085Y-86932856D02*
X95522990Y-86885237D01*
X95522990Y-86885237D02*
X95484895Y-86789999D01*
X95484895Y-86789999D02*
X95484895Y-86551904D01*
X95484895Y-86551904D02*
X95522990Y-86409047D01*
X96208704Y-85409047D02*
X96246800Y-85456666D01*
X96246800Y-85456666D02*
X96284895Y-85599523D01*
X96284895Y-85599523D02*
X96284895Y-85694761D01*
X96284895Y-85694761D02*
X96246800Y-85837618D01*
X96246800Y-85837618D02*
X96170609Y-85932856D01*
X96170609Y-85932856D02*
X96094419Y-85980475D01*
X96094419Y-85980475D02*
X95942038Y-86028094D01*
X95942038Y-86028094D02*
X95827752Y-86028094D01*
X95827752Y-86028094D02*
X95675371Y-85980475D01*
X95675371Y-85980475D02*
X95599180Y-85932856D01*
X95599180Y-85932856D02*
X95522990Y-85837618D01*
X95522990Y-85837618D02*
X95484895Y-85694761D01*
X95484895Y-85694761D02*
X95484895Y-85599523D01*
X95484895Y-85599523D02*
X95522990Y-85456666D01*
X95522990Y-85456666D02*
X95561085Y-85409047D01*
X96284895Y-84504285D02*
X96284895Y-84980475D01*
X96284895Y-84980475D02*
X95484895Y-84980475D01*
X103142990Y-86551904D02*
X103104895Y-86647142D01*
X103104895Y-86647142D02*
X103104895Y-86789999D01*
X103104895Y-86789999D02*
X103142990Y-86932856D01*
X103142990Y-86932856D02*
X103219180Y-87028094D01*
X103219180Y-87028094D02*
X103295371Y-87075713D01*
X103295371Y-87075713D02*
X103447752Y-87123332D01*
X103447752Y-87123332D02*
X103562038Y-87123332D01*
X103562038Y-87123332D02*
X103714419Y-87075713D01*
X103714419Y-87075713D02*
X103790609Y-87028094D01*
X103790609Y-87028094D02*
X103866800Y-86932856D01*
X103866800Y-86932856D02*
X103904895Y-86789999D01*
X103904895Y-86789999D02*
X103904895Y-86694761D01*
X103904895Y-86694761D02*
X103866800Y-86551904D01*
X103866800Y-86551904D02*
X103828704Y-86504285D01*
X103828704Y-86504285D02*
X103562038Y-86504285D01*
X103562038Y-86504285D02*
X103562038Y-86694761D01*
X103904895Y-86075713D02*
X103104895Y-86075713D01*
X103104895Y-86075713D02*
X103904895Y-85504285D01*
X103904895Y-85504285D02*
X103104895Y-85504285D01*
X103904895Y-85028094D02*
X103104895Y-85028094D01*
X103104895Y-85028094D02*
X103104895Y-84789999D01*
X103104895Y-84789999D02*
X103142990Y-84647142D01*
X103142990Y-84647142D02*
X103219180Y-84551904D01*
X103219180Y-84551904D02*
X103295371Y-84504285D01*
X103295371Y-84504285D02*
X103447752Y-84456666D01*
X103447752Y-84456666D02*
X103562038Y-84456666D01*
X103562038Y-84456666D02*
X103714419Y-84504285D01*
X103714419Y-84504285D02*
X103790609Y-84551904D01*
X103790609Y-84551904D02*
X103866800Y-84647142D01*
X103866800Y-84647142D02*
X103904895Y-84789999D01*
X103904895Y-84789999D02*
X103904895Y-85028094D01*
X100564895Y-86980475D02*
X101364895Y-86647142D01*
X101364895Y-86647142D02*
X100564895Y-86313809D01*
X101326800Y-85551904D02*
X101364895Y-85647142D01*
X101364895Y-85647142D02*
X101364895Y-85837618D01*
X101364895Y-85837618D02*
X101326800Y-85932856D01*
X101326800Y-85932856D02*
X101288704Y-85980475D01*
X101288704Y-85980475D02*
X101212514Y-86028094D01*
X101212514Y-86028094D02*
X100983942Y-86028094D01*
X100983942Y-86028094D02*
X100907752Y-85980475D01*
X100907752Y-85980475D02*
X100869657Y-85932856D01*
X100869657Y-85932856D02*
X100831561Y-85837618D01*
X100831561Y-85837618D02*
X100831561Y-85647142D01*
X100831561Y-85647142D02*
X100869657Y-85551904D01*
X101326800Y-84694761D02*
X101364895Y-84789999D01*
X101364895Y-84789999D02*
X101364895Y-84980475D01*
X101364895Y-84980475D02*
X101326800Y-85075713D01*
X101326800Y-85075713D02*
X101288704Y-85123332D01*
X101288704Y-85123332D02*
X101212514Y-85170951D01*
X101212514Y-85170951D02*
X100983942Y-85170951D01*
X100983942Y-85170951D02*
X100907752Y-85123332D01*
X100907752Y-85123332D02*
X100869657Y-85075713D01*
X100869657Y-85075713D02*
X100831561Y-84980475D01*
X100831561Y-84980475D02*
X100831561Y-84789999D01*
X100831561Y-84789999D02*
X100869657Y-84694761D01*
X98786800Y-87004285D02*
X98824895Y-86861428D01*
X98824895Y-86861428D02*
X98824895Y-86623333D01*
X98824895Y-86623333D02*
X98786800Y-86528095D01*
X98786800Y-86528095D02*
X98748704Y-86480476D01*
X98748704Y-86480476D02*
X98672514Y-86432857D01*
X98672514Y-86432857D02*
X98596323Y-86432857D01*
X98596323Y-86432857D02*
X98520133Y-86480476D01*
X98520133Y-86480476D02*
X98482038Y-86528095D01*
X98482038Y-86528095D02*
X98443942Y-86623333D01*
X98443942Y-86623333D02*
X98405847Y-86813809D01*
X98405847Y-86813809D02*
X98367752Y-86909047D01*
X98367752Y-86909047D02*
X98329657Y-86956666D01*
X98329657Y-86956666D02*
X98253466Y-87004285D01*
X98253466Y-87004285D02*
X98177276Y-87004285D01*
X98177276Y-87004285D02*
X98101085Y-86956666D01*
X98101085Y-86956666D02*
X98062990Y-86909047D01*
X98062990Y-86909047D02*
X98024895Y-86813809D01*
X98024895Y-86813809D02*
X98024895Y-86575714D01*
X98024895Y-86575714D02*
X98062990Y-86432857D01*
X98824895Y-86004285D02*
X98024895Y-86004285D01*
X98024895Y-86004285D02*
X98024895Y-85766190D01*
X98024895Y-85766190D02*
X98062990Y-85623333D01*
X98062990Y-85623333D02*
X98139180Y-85528095D01*
X98139180Y-85528095D02*
X98215371Y-85480476D01*
X98215371Y-85480476D02*
X98367752Y-85432857D01*
X98367752Y-85432857D02*
X98482038Y-85432857D01*
X98482038Y-85432857D02*
X98634419Y-85480476D01*
X98634419Y-85480476D02*
X98710609Y-85528095D01*
X98710609Y-85528095D02*
X98786800Y-85623333D01*
X98786800Y-85623333D02*
X98824895Y-85766190D01*
X98824895Y-85766190D02*
X98824895Y-86004285D01*
X98596323Y-85051904D02*
X98596323Y-84575714D01*
X98824895Y-85147142D02*
X98024895Y-84813809D01*
X98024895Y-84813809D02*
X98824895Y-84480476D01*
D13*
G36*
X107078330Y-84437300D02*
G01*
X105656108Y-84437300D01*
X105656108Y-84206680D01*
X105769140Y-84206680D01*
X105769140Y-84245698D01*
X105784072Y-84281746D01*
X105811662Y-84309336D01*
X105847710Y-84324268D01*
X105867219Y-84326189D01*
X106867219Y-84326189D01*
X106886728Y-84324268D01*
X106922776Y-84309336D01*
X106950366Y-84281746D01*
X106965298Y-84245698D01*
X106965298Y-84206680D01*
X106950366Y-84170632D01*
X106922776Y-84143042D01*
X106886728Y-84128110D01*
X106867219Y-84126189D01*
X105867219Y-84126189D01*
X105847710Y-84128110D01*
X105811662Y-84143042D01*
X105784072Y-84170632D01*
X105769140Y-84206680D01*
X105656108Y-84206680D01*
X105656108Y-83416666D01*
X105767219Y-83416666D01*
X105767219Y-83654761D01*
X105769140Y-83674270D01*
X105770515Y-83677590D01*
X105770770Y-83681174D01*
X105777776Y-83699482D01*
X105825395Y-83794720D01*
X105830680Y-83803116D01*
X105831691Y-83805556D01*
X105833944Y-83808302D01*
X105835838Y-83811310D01*
X105837832Y-83813039D01*
X105844127Y-83820710D01*
X105891746Y-83868328D01*
X105906899Y-83880765D01*
X105942948Y-83895696D01*
X105981966Y-83895696D01*
X106018014Y-83880765D01*
X106045604Y-83853175D01*
X106060535Y-83817127D01*
X106060535Y-83778109D01*
X106045604Y-83742060D01*
X106033167Y-83726907D01*
X105997024Y-83690763D01*
X105967219Y-83631153D01*
X105967219Y-83440273D01*
X105997024Y-83380663D01*
X106021692Y-83355994D01*
X106081302Y-83326190D01*
X106136706Y-83326190D01*
X106241770Y-83361211D01*
X106796508Y-83915948D01*
X106811662Y-83928384D01*
X106847710Y-83943316D01*
X106886728Y-83943316D01*
X106922776Y-83928384D01*
X106950366Y-83900794D01*
X106965298Y-83864746D01*
X106967219Y-83845237D01*
X106967219Y-83226190D01*
X106965298Y-83206681D01*
X106950366Y-83170633D01*
X106922776Y-83143043D01*
X106886728Y-83128111D01*
X106847710Y-83128111D01*
X106811662Y-83143043D01*
X106784072Y-83170633D01*
X106769140Y-83206681D01*
X106767219Y-83226190D01*
X106767219Y-83603815D01*
X106366501Y-83203098D01*
X106351347Y-83190662D01*
X106348028Y-83189287D01*
X106345313Y-83186932D01*
X106327412Y-83178941D01*
X106184556Y-83131322D01*
X106174884Y-83129122D01*
X106172442Y-83128111D01*
X106168903Y-83127762D01*
X106165440Y-83126975D01*
X106162806Y-83127162D01*
X106152933Y-83126190D01*
X106057695Y-83126190D01*
X106038186Y-83128111D01*
X106034865Y-83129486D01*
X106031282Y-83129741D01*
X106012973Y-83136747D01*
X105917736Y-83184366D01*
X105909339Y-83189651D01*
X105906899Y-83190662D01*
X105904153Y-83192915D01*
X105901145Y-83194809D01*
X105899412Y-83196806D01*
X105891746Y-83203099D01*
X105844127Y-83250717D01*
X105837832Y-83258387D01*
X105835838Y-83260117D01*
X105833944Y-83263124D01*
X105831691Y-83265871D01*
X105830680Y-83268310D01*
X105825395Y-83276707D01*
X105777776Y-83371945D01*
X105770770Y-83390253D01*
X105770515Y-83393836D01*
X105769140Y-83397157D01*
X105767219Y-83416666D01*
X105656108Y-83416666D01*
X105656108Y-82416666D01*
X105767219Y-82416666D01*
X105767219Y-82511904D01*
X105768191Y-82521777D01*
X105768004Y-82524411D01*
X105768791Y-82527874D01*
X105769140Y-82531413D01*
X105770151Y-82533855D01*
X105772351Y-82543527D01*
X105819970Y-82686383D01*
X105827961Y-82704284D01*
X105830316Y-82706999D01*
X105831691Y-82710318D01*
X105844127Y-82725472D01*
X105939365Y-82820710D01*
X105947031Y-82827001D01*
X105948764Y-82828999D01*
X105951775Y-82830894D01*
X105954519Y-82833146D01*
X105956956Y-82834155D01*
X105965355Y-82839442D01*
X106060592Y-82887061D01*
X106062020Y-82887607D01*
X106062600Y-82888037D01*
X106070776Y-82890958D01*
X106078901Y-82894067D01*
X106079621Y-82894118D01*
X106081060Y-82894632D01*
X106271536Y-82942251D01*
X106274917Y-82942751D01*
X106276281Y-82943316D01*
X106283631Y-82944039D01*
X106290929Y-82945119D01*
X106292387Y-82944901D01*
X106295790Y-82945237D01*
X106438647Y-82945237D01*
X106442049Y-82944901D01*
X106443508Y-82945119D01*
X106450805Y-82944039D01*
X106458156Y-82943316D01*
X106459519Y-82942751D01*
X106462901Y-82942251D01*
X106653376Y-82894632D01*
X106654813Y-82894118D01*
X106655536Y-82894067D01*
X106663660Y-82890958D01*
X106671837Y-82888037D01*
X106672417Y-82887606D01*
X106673844Y-82887061D01*
X106769082Y-82839442D01*
X106777474Y-82834159D01*
X106779918Y-82833147D01*
X106782667Y-82830890D01*
X106785672Y-82828999D01*
X106787401Y-82827004D01*
X106795071Y-82820710D01*
X106890311Y-82725472D01*
X106902747Y-82710319D01*
X106904122Y-82706999D01*
X106906477Y-82704284D01*
X106914468Y-82686384D01*
X106962087Y-82543527D01*
X106964286Y-82533854D01*
X106965298Y-82531413D01*
X106965646Y-82527875D01*
X106966434Y-82524412D01*
X106966246Y-82521777D01*
X106967219Y-82511904D01*
X106967219Y-82416666D01*
X106966246Y-82406792D01*
X106966434Y-82404158D01*
X106965646Y-82400694D01*
X106965298Y-82397157D01*
X106964286Y-82394715D01*
X106962087Y-82385043D01*
X106914468Y-82242186D01*
X106906477Y-82224286D01*
X106904122Y-82221570D01*
X106902747Y-82218251D01*
X106890310Y-82203097D01*
X106842690Y-82155479D01*
X106827537Y-82143042D01*
X106791488Y-82128111D01*
X106752470Y-82128112D01*
X106716422Y-82143043D01*
X106688832Y-82170633D01*
X106673901Y-82206682D01*
X106673902Y-82245700D01*
X106688833Y-82281748D01*
X106701270Y-82296901D01*
X106732197Y-82327827D01*
X106767219Y-82432892D01*
X106767219Y-82495677D01*
X106732197Y-82600742D01*
X106665127Y-82667812D01*
X106594218Y-82703266D01*
X106426337Y-82745237D01*
X106308099Y-82745237D01*
X106140218Y-82703266D01*
X106069313Y-82667814D01*
X106002240Y-82600741D01*
X105967219Y-82495677D01*
X105967219Y-82432893D01*
X106002240Y-82327827D01*
X106033167Y-82296901D01*
X106045604Y-82281748D01*
X106060535Y-82245699D01*
X106060535Y-82206681D01*
X106045604Y-82170633D01*
X106018014Y-82143043D01*
X105981966Y-82128112D01*
X105942948Y-82128112D01*
X105906899Y-82143043D01*
X105891746Y-82155480D01*
X105844127Y-82203098D01*
X105831691Y-82218252D01*
X105830316Y-82221570D01*
X105827961Y-82224286D01*
X105819970Y-82242187D01*
X105772351Y-82385043D01*
X105770151Y-82394714D01*
X105769140Y-82397157D01*
X105768791Y-82400695D01*
X105768004Y-82404159D01*
X105768191Y-82406792D01*
X105767219Y-82416666D01*
X105656108Y-82416666D01*
X105656108Y-82017000D01*
X107078330Y-82017000D01*
X107078330Y-84437300D01*
G37*
D12*
X102058333Y-70664809D02*
X102058333Y-71021952D01*
X102058333Y-71021952D02*
X102034524Y-71093380D01*
X102034524Y-71093380D02*
X101986905Y-71141000D01*
X101986905Y-71141000D02*
X101915476Y-71164809D01*
X101915476Y-71164809D02*
X101867857Y-71164809D01*
X102534523Y-70664809D02*
X102296428Y-70664809D01*
X102296428Y-70664809D02*
X102272619Y-70902904D01*
X102272619Y-70902904D02*
X102296428Y-70879095D01*
X102296428Y-70879095D02*
X102344047Y-70855285D01*
X102344047Y-70855285D02*
X102463095Y-70855285D01*
X102463095Y-70855285D02*
X102510714Y-70879095D01*
X102510714Y-70879095D02*
X102534523Y-70902904D01*
X102534523Y-70902904D02*
X102558333Y-70950523D01*
X102558333Y-70950523D02*
X102558333Y-71069571D01*
X102558333Y-71069571D02*
X102534523Y-71117190D01*
X102534523Y-71117190D02*
X102510714Y-71141000D01*
X102510714Y-71141000D02*
X102463095Y-71164809D01*
X102463095Y-71164809D02*
X102344047Y-71164809D01*
X102344047Y-71164809D02*
X102296428Y-71141000D01*
X102296428Y-71141000D02*
X102272619Y-71117190D01*
X127165238Y-51402309D02*
X127165238Y-51759452D01*
X127165238Y-51759452D02*
X127141429Y-51830880D01*
X127141429Y-51830880D02*
X127093810Y-51878500D01*
X127093810Y-51878500D02*
X127022381Y-51902309D01*
X127022381Y-51902309D02*
X126974762Y-51902309D01*
X127665238Y-51902309D02*
X127379524Y-51902309D01*
X127522381Y-51902309D02*
X127522381Y-51402309D01*
X127522381Y-51402309D02*
X127474762Y-51473738D01*
X127474762Y-51473738D02*
X127427143Y-51521357D01*
X127427143Y-51521357D02*
X127379524Y-51545166D01*
X128093809Y-51568976D02*
X128093809Y-51902309D01*
X127974761Y-51378500D02*
X127855714Y-51735642D01*
X127855714Y-51735642D02*
X128165237Y-51735642D01*
D14*
X143726109Y-52919046D02*
X143726109Y-52609522D01*
X143726109Y-52609522D02*
X143916585Y-52776189D01*
X143916585Y-52776189D02*
X143916585Y-52704760D01*
X143916585Y-52704760D02*
X143940395Y-52657141D01*
X143940395Y-52657141D02*
X143964204Y-52633332D01*
X143964204Y-52633332D02*
X144011823Y-52609522D01*
X144011823Y-52609522D02*
X144130871Y-52609522D01*
X144130871Y-52609522D02*
X144178490Y-52633332D01*
X144178490Y-52633332D02*
X144202300Y-52657141D01*
X144202300Y-52657141D02*
X144226109Y-52704760D01*
X144226109Y-52704760D02*
X144226109Y-52847617D01*
X144226109Y-52847617D02*
X144202300Y-52895236D01*
X144202300Y-52895236D02*
X144178490Y-52919046D01*
X143726109Y-52466665D02*
X144226109Y-52299999D01*
X144226109Y-52299999D02*
X143726109Y-52133332D01*
X143726109Y-52014285D02*
X143726109Y-51704761D01*
X143726109Y-51704761D02*
X143916585Y-51871428D01*
X143916585Y-51871428D02*
X143916585Y-51799999D01*
X143916585Y-51799999D02*
X143940395Y-51752380D01*
X143940395Y-51752380D02*
X143964204Y-51728571D01*
X143964204Y-51728571D02*
X144011823Y-51704761D01*
X144011823Y-51704761D02*
X144130871Y-51704761D01*
X144130871Y-51704761D02*
X144178490Y-51728571D01*
X144178490Y-51728571D02*
X144202300Y-51752380D01*
X144202300Y-51752380D02*
X144226109Y-51799999D01*
X144226109Y-51799999D02*
X144226109Y-51942856D01*
X144226109Y-51942856D02*
X144202300Y-51990475D01*
X144202300Y-51990475D02*
X144178490Y-52014285D01*
X143749919Y-50180952D02*
X143726109Y-50228571D01*
X143726109Y-50228571D02*
X143726109Y-50300000D01*
X143726109Y-50300000D02*
X143749919Y-50371428D01*
X143749919Y-50371428D02*
X143797538Y-50419047D01*
X143797538Y-50419047D02*
X143845157Y-50442857D01*
X143845157Y-50442857D02*
X143940395Y-50466666D01*
X143940395Y-50466666D02*
X144011823Y-50466666D01*
X144011823Y-50466666D02*
X144107061Y-50442857D01*
X144107061Y-50442857D02*
X144154680Y-50419047D01*
X144154680Y-50419047D02*
X144202300Y-50371428D01*
X144202300Y-50371428D02*
X144226109Y-50300000D01*
X144226109Y-50300000D02*
X144226109Y-50252381D01*
X144226109Y-50252381D02*
X144202300Y-50180952D01*
X144202300Y-50180952D02*
X144178490Y-50157143D01*
X144178490Y-50157143D02*
X144011823Y-50157143D01*
X144011823Y-50157143D02*
X144011823Y-50252381D01*
X144226109Y-49942857D02*
X143726109Y-49942857D01*
X143726109Y-49942857D02*
X144226109Y-49657143D01*
X144226109Y-49657143D02*
X143726109Y-49657143D01*
X144226109Y-49419047D02*
X143726109Y-49419047D01*
X143726109Y-49419047D02*
X143726109Y-49299999D01*
X143726109Y-49299999D02*
X143749919Y-49228571D01*
X143749919Y-49228571D02*
X143797538Y-49180952D01*
X143797538Y-49180952D02*
X143845157Y-49157142D01*
X143845157Y-49157142D02*
X143940395Y-49133333D01*
X143940395Y-49133333D02*
X144011823Y-49133333D01*
X144011823Y-49133333D02*
X144107061Y-49157142D01*
X144107061Y-49157142D02*
X144154680Y-49180952D01*
X144154680Y-49180952D02*
X144202300Y-49228571D01*
X144202300Y-49228571D02*
X144226109Y-49299999D01*
X144226109Y-49299999D02*
X144226109Y-49419047D01*
X149526109Y-54883333D02*
X149288014Y-55049999D01*
X149526109Y-55169047D02*
X149026109Y-55169047D01*
X149026109Y-55169047D02*
X149026109Y-54978571D01*
X149026109Y-54978571D02*
X149049919Y-54930952D01*
X149049919Y-54930952D02*
X149073728Y-54907142D01*
X149073728Y-54907142D02*
X149121347Y-54883333D01*
X149121347Y-54883333D02*
X149192776Y-54883333D01*
X149192776Y-54883333D02*
X149240395Y-54907142D01*
X149240395Y-54907142D02*
X149264204Y-54930952D01*
X149264204Y-54930952D02*
X149288014Y-54978571D01*
X149288014Y-54978571D02*
X149288014Y-55169047D01*
X149026109Y-54716666D02*
X149526109Y-54383333D01*
X149026109Y-54383333D02*
X149526109Y-54716666D01*
X149526109Y-54192857D02*
X149026109Y-54192857D01*
X149026109Y-54192857D02*
X149026109Y-54073809D01*
X149026109Y-54073809D02*
X149049919Y-54002381D01*
X149049919Y-54002381D02*
X149097538Y-53954762D01*
X149097538Y-53954762D02*
X149145157Y-53930952D01*
X149145157Y-53930952D02*
X149240395Y-53907143D01*
X149240395Y-53907143D02*
X149311823Y-53907143D01*
X149311823Y-53907143D02*
X149407061Y-53930952D01*
X149407061Y-53930952D02*
X149454680Y-53954762D01*
X149454680Y-53954762D02*
X149502300Y-54002381D01*
X149502300Y-54002381D02*
X149526109Y-54073809D01*
X149526109Y-54073809D02*
X149526109Y-54192857D01*
X149026109Y-53180951D02*
X149026109Y-52895237D01*
X149526109Y-53038094D02*
X149026109Y-53038094D01*
X149026109Y-52776190D02*
X149526109Y-52442857D01*
X149026109Y-52442857D02*
X149526109Y-52776190D01*
X149526109Y-52252381D02*
X149026109Y-52252381D01*
X149026109Y-52252381D02*
X149026109Y-52133333D01*
X149026109Y-52133333D02*
X149049919Y-52061905D01*
X149049919Y-52061905D02*
X149097538Y-52014286D01*
X149097538Y-52014286D02*
X149145157Y-51990476D01*
X149145157Y-51990476D02*
X149240395Y-51966667D01*
X149240395Y-51966667D02*
X149311823Y-51966667D01*
X149311823Y-51966667D02*
X149407061Y-51990476D01*
X149407061Y-51990476D02*
X149454680Y-52014286D01*
X149454680Y-52014286D02*
X149502300Y-52061905D01*
X149502300Y-52061905D02*
X149526109Y-52133333D01*
X149526109Y-52133333D02*
X149526109Y-52252381D01*
D13*
G36*
X139781123Y-62087446D02*
G01*
X139625922Y-62035713D01*
X139781123Y-61983979D01*
X139781123Y-62087446D01*
G37*
G36*
X139593314Y-61165517D02*
G01*
X139608461Y-61180663D01*
X139628742Y-61221225D01*
X139628742Y-61402380D01*
X139409695Y-61402380D01*
X139409695Y-61221225D01*
X139429975Y-61180664D01*
X139445121Y-61165517D01*
X139485684Y-61145237D01*
X139552755Y-61145237D01*
X139593314Y-61165517D01*
G37*
G36*
X140309695Y-63226189D02*
G01*
X139109695Y-63226189D01*
X139109695Y-62549537D01*
X139211616Y-62549537D01*
X139211616Y-62588555D01*
X139226548Y-62624603D01*
X139254138Y-62652193D01*
X139290186Y-62667125D01*
X139309695Y-62669046D01*
X139933707Y-62669046D01*
X139974267Y-62689327D01*
X139989414Y-62704473D01*
X140009695Y-62745034D01*
X140009695Y-62850201D01*
X139989414Y-62890762D01*
X139974268Y-62905908D01*
X139933707Y-62926189D01*
X139309695Y-62926189D01*
X139290186Y-62928110D01*
X139254138Y-62943042D01*
X139226548Y-62970632D01*
X139211616Y-63006680D01*
X139211616Y-63045698D01*
X139226548Y-63081746D01*
X139254138Y-63109336D01*
X139290186Y-63124268D01*
X139309695Y-63126189D01*
X139957314Y-63126189D01*
X139976823Y-63124268D01*
X139980143Y-63122892D01*
X139983727Y-63122638D01*
X140002035Y-63115632D01*
X140078225Y-63077537D01*
X140086621Y-63072252D01*
X140089060Y-63071242D01*
X140091805Y-63068988D01*
X140094816Y-63067094D01*
X140096547Y-63065097D01*
X140104214Y-63058806D01*
X140142310Y-63020711D01*
X140148606Y-63013039D01*
X140150600Y-63011310D01*
X140152491Y-63008304D01*
X140154746Y-63005558D01*
X140155756Y-63003117D01*
X140161043Y-62994720D01*
X140199138Y-62918529D01*
X140206144Y-62900220D01*
X140206398Y-62896637D01*
X140207774Y-62893317D01*
X140209695Y-62873808D01*
X140209695Y-62721427D01*
X140207774Y-62701918D01*
X140206398Y-62698597D01*
X140206144Y-62695014D01*
X140199138Y-62676706D01*
X140161043Y-62600516D01*
X140155756Y-62592116D01*
X140154746Y-62589678D01*
X140152493Y-62586933D01*
X140150600Y-62583925D01*
X140148603Y-62582193D01*
X140142310Y-62574525D01*
X140104214Y-62536430D01*
X140096544Y-62530136D01*
X140094816Y-62528143D01*
X140091810Y-62526250D01*
X140089060Y-62523994D01*
X140086617Y-62522982D01*
X140078226Y-62517700D01*
X140002036Y-62479604D01*
X139983728Y-62472597D01*
X139980142Y-62472342D01*
X139976823Y-62470967D01*
X139957314Y-62469046D01*
X139309695Y-62469046D01*
X139290186Y-62470967D01*
X139254138Y-62485899D01*
X139226548Y-62513489D01*
X139211616Y-62549537D01*
X139109695Y-62549537D01*
X139109695Y-62023206D01*
X139210480Y-62023206D01*
X139211368Y-62035713D01*
X139210480Y-62048220D01*
X139212739Y-62054998D01*
X139213246Y-62062126D01*
X139218852Y-62073337D01*
X139222818Y-62085236D01*
X139227502Y-62090636D01*
X139230696Y-62097024D01*
X139240165Y-62105237D01*
X139248383Y-62114712D01*
X139254772Y-62117906D01*
X139260172Y-62122590D01*
X139278072Y-62130581D01*
X140078072Y-62397248D01*
X140097187Y-62401595D01*
X140136107Y-62398829D01*
X140171006Y-62381379D01*
X140196571Y-62351903D01*
X140208910Y-62314887D01*
X140206144Y-62275967D01*
X140188694Y-62241068D01*
X140159218Y-62215503D01*
X140141318Y-62207512D01*
X139981123Y-62154113D01*
X139981123Y-61917313D01*
X140141318Y-61863915D01*
X140159218Y-61855924D01*
X140188695Y-61830359D01*
X140206144Y-61795460D01*
X140208910Y-61756540D01*
X140196572Y-61719524D01*
X140171007Y-61690048D01*
X140136108Y-61672598D01*
X140097188Y-61669832D01*
X140078072Y-61674179D01*
X139278072Y-61940845D01*
X139260172Y-61948836D01*
X139254771Y-61953520D01*
X139248384Y-61956714D01*
X139240170Y-61966183D01*
X139230696Y-61974401D01*
X139227501Y-61980790D01*
X139222818Y-61986190D01*
X139218852Y-61998087D01*
X139213246Y-62009300D01*
X139212739Y-62016427D01*
X139210480Y-62023206D01*
X139109695Y-62023206D01*
X139109695Y-61197618D01*
X139209695Y-61197618D01*
X139209695Y-61502380D01*
X139211616Y-61521889D01*
X139226548Y-61557937D01*
X139254138Y-61585527D01*
X139290186Y-61600459D01*
X139309695Y-61602380D01*
X140109695Y-61602380D01*
X140129204Y-61600459D01*
X140165252Y-61585527D01*
X140192842Y-61557937D01*
X140207774Y-61521889D01*
X140207774Y-61482871D01*
X140192842Y-61446823D01*
X140165252Y-61419233D01*
X140129204Y-61404301D01*
X140109695Y-61402380D01*
X139828742Y-61402380D01*
X139828742Y-61363969D01*
X140167041Y-61127160D01*
X140181922Y-61114399D01*
X140202890Y-61081494D01*
X140209671Y-61043070D01*
X140201232Y-61004975D01*
X140178857Y-60973010D01*
X140145952Y-60952041D01*
X140107527Y-60945261D01*
X140069433Y-60953700D01*
X140052349Y-60963314D01*
X139808678Y-61133883D01*
X139780090Y-61076707D01*
X139774804Y-61068310D01*
X139773794Y-61065870D01*
X139771540Y-61063124D01*
X139769647Y-61060116D01*
X139767649Y-61058383D01*
X139761357Y-61050717D01*
X139723263Y-61012622D01*
X139715596Y-61006330D01*
X139713864Y-61004333D01*
X139710852Y-61002437D01*
X139708109Y-61000186D01*
X139705672Y-60999176D01*
X139697274Y-60993890D01*
X139621083Y-60955795D01*
X139602774Y-60948788D01*
X139599190Y-60948533D01*
X139595870Y-60947158D01*
X139576361Y-60945237D01*
X139462076Y-60945237D01*
X139442567Y-60947158D01*
X139439247Y-60948533D01*
X139435662Y-60948788D01*
X139417354Y-60955795D01*
X139341163Y-60993891D01*
X139332767Y-60999175D01*
X139330327Y-61000186D01*
X139327581Y-61002439D01*
X139324573Y-61004333D01*
X139322840Y-61006330D01*
X139315174Y-61012623D01*
X139277079Y-61050717D01*
X139270787Y-61058383D01*
X139268790Y-61060116D01*
X139266894Y-61063127D01*
X139264643Y-61065871D01*
X139263633Y-61068308D01*
X139258347Y-61076707D01*
X139220252Y-61152897D01*
X139213246Y-61171205D01*
X139212991Y-61174788D01*
X139211616Y-61178109D01*
X139209695Y-61197618D01*
X139109695Y-61197618D01*
X139109695Y-60359523D01*
X139209695Y-60359523D01*
X139209695Y-60816666D01*
X139211616Y-60836175D01*
X139226548Y-60872223D01*
X139254138Y-60899813D01*
X139290186Y-60914745D01*
X139329204Y-60914745D01*
X139365252Y-60899813D01*
X139392842Y-60872223D01*
X139407774Y-60836175D01*
X139409695Y-60816666D01*
X139409695Y-60688095D01*
X140109695Y-60688095D01*
X140129204Y-60686174D01*
X140165252Y-60671242D01*
X140192842Y-60643652D01*
X140207774Y-60607604D01*
X140207774Y-60568586D01*
X140192842Y-60532538D01*
X140165252Y-60504948D01*
X140129204Y-60490016D01*
X140109695Y-60488095D01*
X139409695Y-60488095D01*
X139409695Y-60359523D01*
X139407774Y-60340014D01*
X139392842Y-60303966D01*
X139365252Y-60276376D01*
X139329204Y-60261444D01*
X139290186Y-60261444D01*
X139254138Y-60276376D01*
X139226548Y-60303966D01*
X139211616Y-60340014D01*
X139209695Y-60359523D01*
X139109695Y-60359523D01*
X139109695Y-60161444D01*
X140309695Y-60161444D01*
X140309695Y-63226189D01*
G37*
D15*
X143947200Y-95583332D02*
X143994819Y-95440475D01*
X143994819Y-95440475D02*
X143994819Y-95202380D01*
X143994819Y-95202380D02*
X143947200Y-95107142D01*
X143947200Y-95107142D02*
X143899580Y-95059523D01*
X143899580Y-95059523D02*
X143804342Y-95011904D01*
X143804342Y-95011904D02*
X143709104Y-95011904D01*
X143709104Y-95011904D02*
X143613866Y-95059523D01*
X143613866Y-95059523D02*
X143566247Y-95107142D01*
X143566247Y-95107142D02*
X143518628Y-95202380D01*
X143518628Y-95202380D02*
X143471009Y-95392856D01*
X143471009Y-95392856D02*
X143423390Y-95488094D01*
X143423390Y-95488094D02*
X143375771Y-95535713D01*
X143375771Y-95535713D02*
X143280533Y-95583332D01*
X143280533Y-95583332D02*
X143185295Y-95583332D01*
X143185295Y-95583332D02*
X143090057Y-95535713D01*
X143090057Y-95535713D02*
X143042438Y-95488094D01*
X143042438Y-95488094D02*
X142994819Y-95392856D01*
X142994819Y-95392856D02*
X142994819Y-95154761D01*
X142994819Y-95154761D02*
X143042438Y-95011904D01*
X142994819Y-94678570D02*
X143994819Y-94440475D01*
X143994819Y-94440475D02*
X143280533Y-94249999D01*
X143280533Y-94249999D02*
X143994819Y-94059523D01*
X143994819Y-94059523D02*
X142994819Y-93821428D01*
X143994819Y-92916666D02*
X143994819Y-93488094D01*
X143994819Y-93202380D02*
X142994819Y-93202380D01*
X142994819Y-93202380D02*
X143137676Y-93297618D01*
X143137676Y-93297618D02*
X143232914Y-93392856D01*
X143232914Y-93392856D02*
X143280533Y-93488094D01*
D14*
X131995238Y-74006109D02*
X131995238Y-74363252D01*
X131995238Y-74363252D02*
X131971429Y-74434680D01*
X131971429Y-74434680D02*
X131923810Y-74482300D01*
X131923810Y-74482300D02*
X131852381Y-74506109D01*
X131852381Y-74506109D02*
X131804762Y-74506109D01*
X132495238Y-74506109D02*
X132209524Y-74506109D01*
X132352381Y-74506109D02*
X132352381Y-74006109D01*
X132352381Y-74006109D02*
X132304762Y-74077538D01*
X132304762Y-74077538D02*
X132257143Y-74125157D01*
X132257143Y-74125157D02*
X132209524Y-74148966D01*
X132923809Y-74006109D02*
X132828571Y-74006109D01*
X132828571Y-74006109D02*
X132780952Y-74029919D01*
X132780952Y-74029919D02*
X132757142Y-74053728D01*
X132757142Y-74053728D02*
X132709523Y-74125157D01*
X132709523Y-74125157D02*
X132685714Y-74220395D01*
X132685714Y-74220395D02*
X132685714Y-74410871D01*
X132685714Y-74410871D02*
X132709523Y-74458490D01*
X132709523Y-74458490D02*
X132733333Y-74482300D01*
X132733333Y-74482300D02*
X132780952Y-74506109D01*
X132780952Y-74506109D02*
X132876190Y-74506109D01*
X132876190Y-74506109D02*
X132923809Y-74482300D01*
X132923809Y-74482300D02*
X132947618Y-74458490D01*
X132947618Y-74458490D02*
X132971428Y-74410871D01*
X132971428Y-74410871D02*
X132971428Y-74291823D01*
X132971428Y-74291823D02*
X132947618Y-74244204D01*
X132947618Y-74244204D02*
X132923809Y-74220395D01*
X132923809Y-74220395D02*
X132876190Y-74196585D01*
X132876190Y-74196585D02*
X132780952Y-74196585D01*
X132780952Y-74196585D02*
X132733333Y-74220395D01*
X132733333Y-74220395D02*
X132709523Y-74244204D01*
X132709523Y-74244204D02*
X132685714Y-74291823D01*
D12*
X87416666Y-41677190D02*
X87392857Y-41701000D01*
X87392857Y-41701000D02*
X87321428Y-41724809D01*
X87321428Y-41724809D02*
X87273809Y-41724809D01*
X87273809Y-41724809D02*
X87202381Y-41701000D01*
X87202381Y-41701000D02*
X87154762Y-41653380D01*
X87154762Y-41653380D02*
X87130952Y-41605761D01*
X87130952Y-41605761D02*
X87107143Y-41510523D01*
X87107143Y-41510523D02*
X87107143Y-41439095D01*
X87107143Y-41439095D02*
X87130952Y-41343857D01*
X87130952Y-41343857D02*
X87154762Y-41296238D01*
X87154762Y-41296238D02*
X87202381Y-41248619D01*
X87202381Y-41248619D02*
X87273809Y-41224809D01*
X87273809Y-41224809D02*
X87321428Y-41224809D01*
X87321428Y-41224809D02*
X87392857Y-41248619D01*
X87392857Y-41248619D02*
X87416666Y-41272428D01*
X87892857Y-41724809D02*
X87607143Y-41724809D01*
X87750000Y-41724809D02*
X87750000Y-41224809D01*
X87750000Y-41224809D02*
X87702381Y-41296238D01*
X87702381Y-41296238D02*
X87654762Y-41343857D01*
X87654762Y-41343857D02*
X87607143Y-41367666D01*
X100224809Y-66130952D02*
X100629571Y-66130952D01*
X100629571Y-66130952D02*
X100677190Y-66107142D01*
X100677190Y-66107142D02*
X100701000Y-66083333D01*
X100701000Y-66083333D02*
X100724809Y-66035714D01*
X100724809Y-66035714D02*
X100724809Y-65940476D01*
X100724809Y-65940476D02*
X100701000Y-65892857D01*
X100701000Y-65892857D02*
X100677190Y-65869047D01*
X100677190Y-65869047D02*
X100629571Y-65845238D01*
X100629571Y-65845238D02*
X100224809Y-65845238D01*
X100224809Y-65654761D02*
X100224809Y-65321428D01*
X100224809Y-65321428D02*
X100724809Y-65535713D01*
D13*
X91071428Y-71228409D02*
X91214285Y-71276028D01*
X91214285Y-71276028D02*
X91261904Y-71323647D01*
X91261904Y-71323647D02*
X91309523Y-71418885D01*
X91309523Y-71418885D02*
X91309523Y-71561742D01*
X91309523Y-71561742D02*
X91261904Y-71656980D01*
X91261904Y-71656980D02*
X91214285Y-71704600D01*
X91214285Y-71704600D02*
X91119047Y-71752219D01*
X91119047Y-71752219D02*
X90738095Y-71752219D01*
X90738095Y-71752219D02*
X90738095Y-70752219D01*
X90738095Y-70752219D02*
X91071428Y-70752219D01*
X91071428Y-70752219D02*
X91166666Y-70799838D01*
X91166666Y-70799838D02*
X91214285Y-70847457D01*
X91214285Y-70847457D02*
X91261904Y-70942695D01*
X91261904Y-70942695D02*
X91261904Y-71037933D01*
X91261904Y-71037933D02*
X91214285Y-71133171D01*
X91214285Y-71133171D02*
X91166666Y-71180790D01*
X91166666Y-71180790D02*
X91071428Y-71228409D01*
X91071428Y-71228409D02*
X90738095Y-71228409D01*
X91738095Y-71752219D02*
X91738095Y-70752219D01*
X91738095Y-70752219D02*
X92071428Y-71466504D01*
X92071428Y-71466504D02*
X92404761Y-70752219D01*
X92404761Y-70752219D02*
X92404761Y-71752219D01*
X92880952Y-71228409D02*
X93214285Y-71228409D01*
X93357142Y-71752219D02*
X92880952Y-71752219D01*
X92880952Y-71752219D02*
X92880952Y-70752219D01*
X92880952Y-70752219D02*
X93357142Y-70752219D01*
X94071428Y-72133171D02*
X94023809Y-72085552D01*
X94023809Y-72085552D02*
X93928571Y-71942695D01*
X93928571Y-71942695D02*
X93880952Y-71847457D01*
X93880952Y-71847457D02*
X93833333Y-71704600D01*
X93833333Y-71704600D02*
X93785714Y-71466504D01*
X93785714Y-71466504D02*
X93785714Y-71276028D01*
X93785714Y-71276028D02*
X93833333Y-71037933D01*
X93833333Y-71037933D02*
X93880952Y-70895076D01*
X93880952Y-70895076D02*
X93928571Y-70799838D01*
X93928571Y-70799838D02*
X94023809Y-70656980D01*
X94023809Y-70656980D02*
X94071428Y-70609361D01*
X94452381Y-71752219D02*
X94452381Y-70752219D01*
X94452381Y-70752219D02*
X94833333Y-70752219D01*
X94833333Y-70752219D02*
X94928571Y-70799838D01*
X94928571Y-70799838D02*
X94976190Y-70847457D01*
X94976190Y-70847457D02*
X95023809Y-70942695D01*
X95023809Y-70942695D02*
X95023809Y-71085552D01*
X95023809Y-71085552D02*
X94976190Y-71180790D01*
X94976190Y-71180790D02*
X94928571Y-71228409D01*
X94928571Y-71228409D02*
X94833333Y-71276028D01*
X94833333Y-71276028D02*
X94452381Y-71276028D01*
X95357143Y-72133171D02*
X95404762Y-72085552D01*
X95404762Y-72085552D02*
X95500000Y-71942695D01*
X95500000Y-71942695D02*
X95547619Y-71847457D01*
X95547619Y-71847457D02*
X95595238Y-71704600D01*
X95595238Y-71704600D02*
X95642857Y-71466504D01*
X95642857Y-71466504D02*
X95642857Y-71276028D01*
X95642857Y-71276028D02*
X95595238Y-71037933D01*
X95595238Y-71037933D02*
X95547619Y-70895076D01*
X95547619Y-70895076D02*
X95500000Y-70799838D01*
X95500000Y-70799838D02*
X95404762Y-70656980D01*
X95404762Y-70656980D02*
X95357143Y-70609361D01*
X96833334Y-70847457D02*
X96880953Y-70799838D01*
X96880953Y-70799838D02*
X96976191Y-70752219D01*
X96976191Y-70752219D02*
X97214286Y-70752219D01*
X97214286Y-70752219D02*
X97309524Y-70799838D01*
X97309524Y-70799838D02*
X97357143Y-70847457D01*
X97357143Y-70847457D02*
X97404762Y-70942695D01*
X97404762Y-70942695D02*
X97404762Y-71037933D01*
X97404762Y-71037933D02*
X97357143Y-71180790D01*
X97357143Y-71180790D02*
X96785715Y-71752219D01*
X96785715Y-71752219D02*
X97404762Y-71752219D01*
X97976191Y-71180790D02*
X97880953Y-71133171D01*
X97880953Y-71133171D02*
X97833334Y-71085552D01*
X97833334Y-71085552D02*
X97785715Y-70990314D01*
X97785715Y-70990314D02*
X97785715Y-70942695D01*
X97785715Y-70942695D02*
X97833334Y-70847457D01*
X97833334Y-70847457D02*
X97880953Y-70799838D01*
X97880953Y-70799838D02*
X97976191Y-70752219D01*
X97976191Y-70752219D02*
X98166667Y-70752219D01*
X98166667Y-70752219D02*
X98261905Y-70799838D01*
X98261905Y-70799838D02*
X98309524Y-70847457D01*
X98309524Y-70847457D02*
X98357143Y-70942695D01*
X98357143Y-70942695D02*
X98357143Y-70990314D01*
X98357143Y-70990314D02*
X98309524Y-71085552D01*
X98309524Y-71085552D02*
X98261905Y-71133171D01*
X98261905Y-71133171D02*
X98166667Y-71180790D01*
X98166667Y-71180790D02*
X97976191Y-71180790D01*
X97976191Y-71180790D02*
X97880953Y-71228409D01*
X97880953Y-71228409D02*
X97833334Y-71276028D01*
X97833334Y-71276028D02*
X97785715Y-71371266D01*
X97785715Y-71371266D02*
X97785715Y-71561742D01*
X97785715Y-71561742D02*
X97833334Y-71656980D01*
X97833334Y-71656980D02*
X97880953Y-71704600D01*
X97880953Y-71704600D02*
X97976191Y-71752219D01*
X97976191Y-71752219D02*
X98166667Y-71752219D01*
X98166667Y-71752219D02*
X98261905Y-71704600D01*
X98261905Y-71704600D02*
X98309524Y-71656980D01*
X98309524Y-71656980D02*
X98357143Y-71561742D01*
X98357143Y-71561742D02*
X98357143Y-71371266D01*
X98357143Y-71371266D02*
X98309524Y-71276028D01*
X98309524Y-71276028D02*
X98261905Y-71228409D01*
X98261905Y-71228409D02*
X98166667Y-71180790D01*
X98976191Y-70752219D02*
X99071429Y-70752219D01*
X99071429Y-70752219D02*
X99166667Y-70799838D01*
X99166667Y-70799838D02*
X99214286Y-70847457D01*
X99214286Y-70847457D02*
X99261905Y-70942695D01*
X99261905Y-70942695D02*
X99309524Y-71133171D01*
X99309524Y-71133171D02*
X99309524Y-71371266D01*
X99309524Y-71371266D02*
X99261905Y-71561742D01*
X99261905Y-71561742D02*
X99214286Y-71656980D01*
X99214286Y-71656980D02*
X99166667Y-71704600D01*
X99166667Y-71704600D02*
X99071429Y-71752219D01*
X99071429Y-71752219D02*
X98976191Y-71752219D01*
X98976191Y-71752219D02*
X98880953Y-71704600D01*
X98880953Y-71704600D02*
X98833334Y-71656980D01*
X98833334Y-71656980D02*
X98785715Y-71561742D01*
X98785715Y-71561742D02*
X98738096Y-71371266D01*
X98738096Y-71371266D02*
X98738096Y-71133171D01*
X98738096Y-71133171D02*
X98785715Y-70942695D01*
X98785715Y-70942695D02*
X98833334Y-70847457D01*
X98833334Y-70847457D02*
X98880953Y-70799838D01*
X98880953Y-70799838D02*
X98976191Y-70752219D01*
D15*
X131833333Y-111859580D02*
X131785714Y-111907200D01*
X131785714Y-111907200D02*
X131642857Y-111954819D01*
X131642857Y-111954819D02*
X131547619Y-111954819D01*
X131547619Y-111954819D02*
X131404762Y-111907200D01*
X131404762Y-111907200D02*
X131309524Y-111811961D01*
X131309524Y-111811961D02*
X131261905Y-111716723D01*
X131261905Y-111716723D02*
X131214286Y-111526247D01*
X131214286Y-111526247D02*
X131214286Y-111383390D01*
X131214286Y-111383390D02*
X131261905Y-111192914D01*
X131261905Y-111192914D02*
X131309524Y-111097676D01*
X131309524Y-111097676D02*
X131404762Y-111002438D01*
X131404762Y-111002438D02*
X131547619Y-110954819D01*
X131547619Y-110954819D02*
X131642857Y-110954819D01*
X131642857Y-110954819D02*
X131785714Y-111002438D01*
X131785714Y-111002438D02*
X131833333Y-111050057D01*
X132166667Y-110954819D02*
X132833333Y-110954819D01*
X132833333Y-110954819D02*
X132404762Y-111954819D01*
X86579819Y-53071904D02*
X87389342Y-53071904D01*
X87389342Y-53071904D02*
X87484580Y-53024285D01*
X87484580Y-53024285D02*
X87532200Y-52976666D01*
X87532200Y-52976666D02*
X87579819Y-52881428D01*
X87579819Y-52881428D02*
X87579819Y-52690952D01*
X87579819Y-52690952D02*
X87532200Y-52595714D01*
X87532200Y-52595714D02*
X87484580Y-52548095D01*
X87484580Y-52548095D02*
X87389342Y-52500476D01*
X87389342Y-52500476D02*
X86579819Y-52500476D01*
X86913152Y-51595714D02*
X87579819Y-51595714D01*
X86532200Y-51833809D02*
X87246485Y-52071904D01*
X87246485Y-52071904D02*
X87246485Y-51452857D01*
D13*
G36*
X142809695Y-62730951D02*
G01*
X141609695Y-62730951D01*
X141609695Y-62511442D01*
X141711616Y-62511442D01*
X141711616Y-62550460D01*
X141726548Y-62586508D01*
X141754138Y-62614098D01*
X141790186Y-62629030D01*
X141809695Y-62630951D01*
X142609695Y-62630951D01*
X142629204Y-62629030D01*
X142665252Y-62614098D01*
X142692842Y-62586508D01*
X142707774Y-62550460D01*
X142707774Y-62511442D01*
X142692842Y-62475394D01*
X142665252Y-62447804D01*
X142629204Y-62432872D01*
X142609695Y-62430951D01*
X141809695Y-62430951D01*
X141790186Y-62432872D01*
X141754138Y-62447804D01*
X141726548Y-62475394D01*
X141711616Y-62511442D01*
X141609695Y-62511442D01*
X141609695Y-61883333D01*
X141709695Y-61883333D01*
X141709695Y-62073809D01*
X141711616Y-62093318D01*
X141712991Y-62096638D01*
X141713246Y-62100222D01*
X141720252Y-62118530D01*
X141758347Y-62194720D01*
X141763631Y-62203116D01*
X141764642Y-62205555D01*
X141766895Y-62208300D01*
X141768790Y-62211311D01*
X141770786Y-62213042D01*
X141777078Y-62220709D01*
X141815173Y-62258805D01*
X141830326Y-62271241D01*
X141866375Y-62286173D01*
X141905393Y-62286174D01*
X141941441Y-62271243D01*
X141969031Y-62243653D01*
X141983963Y-62207605D01*
X141983964Y-62168587D01*
X141969033Y-62132539D01*
X141956596Y-62117385D01*
X141929975Y-62090763D01*
X141909695Y-62050202D01*
X141909695Y-61906939D01*
X141929975Y-61866378D01*
X141945120Y-61851232D01*
X141985683Y-61830952D01*
X142022039Y-61830952D01*
X142098532Y-61856449D01*
X142538984Y-62296901D01*
X142554138Y-62309337D01*
X142590186Y-62324269D01*
X142629204Y-62324269D01*
X142665252Y-62309337D01*
X142692842Y-62281747D01*
X142707774Y-62245699D01*
X142709695Y-62226190D01*
X142709695Y-61730952D01*
X142707774Y-61711443D01*
X142692842Y-61675395D01*
X142665252Y-61647805D01*
X142629204Y-61632873D01*
X142590186Y-61632873D01*
X142554138Y-61647805D01*
X142526548Y-61675395D01*
X142511616Y-61711443D01*
X142509695Y-61730952D01*
X142509695Y-61984768D01*
X142223263Y-61698336D01*
X142208109Y-61685900D01*
X142204790Y-61684525D01*
X142202075Y-61682170D01*
X142184175Y-61674179D01*
X142069889Y-61636084D01*
X142060217Y-61633884D01*
X142057775Y-61632873D01*
X142054236Y-61632524D01*
X142050773Y-61631737D01*
X142048139Y-61631924D01*
X142038266Y-61630952D01*
X141962076Y-61630952D01*
X141942567Y-61632873D01*
X141939246Y-61634248D01*
X141935664Y-61634503D01*
X141917355Y-61641509D01*
X141841164Y-61679604D01*
X141832768Y-61684888D01*
X141830327Y-61685900D01*
X141827579Y-61688155D01*
X141824574Y-61690047D01*
X141822843Y-61692042D01*
X141815174Y-61698337D01*
X141777079Y-61736431D01*
X141770784Y-61744100D01*
X141768790Y-61745831D01*
X141766896Y-61748838D01*
X141764643Y-61751585D01*
X141763632Y-61754024D01*
X141758347Y-61762421D01*
X141720252Y-61838612D01*
X141713246Y-61856921D01*
X141712991Y-61860503D01*
X141711616Y-61863824D01*
X141709695Y-61883333D01*
X141609695Y-61883333D01*
X141609695Y-61083332D01*
X141709695Y-61083332D01*
X141709695Y-61159523D01*
X141710667Y-61169396D01*
X141710480Y-61172030D01*
X141711267Y-61175493D01*
X141711616Y-61179032D01*
X141712627Y-61181474D01*
X141714827Y-61191146D01*
X141752922Y-61305432D01*
X141760913Y-61323332D01*
X141763268Y-61326047D01*
X141764643Y-61329366D01*
X141777079Y-61344520D01*
X141853269Y-61420710D01*
X141860938Y-61427004D01*
X141862669Y-61428999D01*
X141865676Y-61430892D01*
X141868423Y-61433146D01*
X141870862Y-61434156D01*
X141879259Y-61439442D01*
X141955450Y-61477537D01*
X141956874Y-61478082D01*
X141957456Y-61478513D01*
X141965656Y-61481442D01*
X141973759Y-61484543D01*
X141974478Y-61484594D01*
X141975917Y-61485108D01*
X142128298Y-61523204D01*
X142131679Y-61523704D01*
X142133043Y-61524269D01*
X142140391Y-61524992D01*
X142147690Y-61526072D01*
X142149148Y-61525854D01*
X142152552Y-61526190D01*
X142266838Y-61526190D01*
X142270241Y-61525854D01*
X142271700Y-61526072D01*
X142278998Y-61524992D01*
X142286347Y-61524269D01*
X142287710Y-61523704D01*
X142291092Y-61523204D01*
X142443473Y-61485108D01*
X142444911Y-61484594D01*
X142445632Y-61484543D01*
X142453742Y-61481439D01*
X142461934Y-61478513D01*
X142462515Y-61478082D01*
X142463940Y-61477537D01*
X142540130Y-61439442D01*
X142548524Y-61434158D01*
X142550966Y-61433147D01*
X142553713Y-61430892D01*
X142556721Y-61428999D01*
X142558452Y-61427002D01*
X142566119Y-61420710D01*
X142642310Y-61344520D01*
X142654747Y-61329367D01*
X142656122Y-61326047D01*
X142658477Y-61323332D01*
X142666468Y-61305432D01*
X142704563Y-61191145D01*
X142706762Y-61181474D01*
X142707774Y-61179032D01*
X142708122Y-61175492D01*
X142708910Y-61172030D01*
X142708722Y-61169396D01*
X142709695Y-61159523D01*
X142709695Y-61083332D01*
X142708722Y-61073458D01*
X142708910Y-61070825D01*
X142708122Y-61067361D01*
X142707774Y-61063823D01*
X142706762Y-61061380D01*
X142704563Y-61051709D01*
X142666468Y-60937424D01*
X142658477Y-60919524D01*
X142656121Y-60916808D01*
X142654747Y-60913490D01*
X142642311Y-60898336D01*
X142604215Y-60860240D01*
X142589061Y-60847804D01*
X142553013Y-60832872D01*
X142513995Y-60832872D01*
X142477947Y-60847804D01*
X142450357Y-60875394D01*
X142435425Y-60911442D01*
X142435425Y-60950460D01*
X142450357Y-60986508D01*
X142462793Y-61001662D01*
X142484197Y-61023066D01*
X142509695Y-61099559D01*
X142509695Y-61143296D01*
X142484197Y-61219790D01*
X142436174Y-61267812D01*
X142384314Y-61293742D01*
X142254528Y-61326190D01*
X142164862Y-61326190D01*
X142035074Y-61293742D01*
X141983216Y-61267813D01*
X141935192Y-61219789D01*
X141909695Y-61143296D01*
X141909695Y-61099559D01*
X141935192Y-61023065D01*
X141956596Y-61001661D01*
X141969033Y-60986507D01*
X141983964Y-60950459D01*
X141983963Y-60911441D01*
X141969031Y-60875393D01*
X141941441Y-60847803D01*
X141905393Y-60832872D01*
X141866375Y-60832873D01*
X141830326Y-60847805D01*
X141815173Y-60860241D01*
X141777078Y-60898337D01*
X141764642Y-60913491D01*
X141763267Y-60916809D01*
X141760913Y-60919524D01*
X141752922Y-60937424D01*
X141714827Y-61051709D01*
X141712627Y-61061380D01*
X141711616Y-61063823D01*
X141711267Y-61067361D01*
X141710480Y-61070825D01*
X141710667Y-61073458D01*
X141709695Y-61083332D01*
X141609695Y-61083332D01*
X141609695Y-60732872D01*
X142809695Y-60732872D01*
X142809695Y-62730951D01*
G37*
D14*
X152202300Y-53045237D02*
X152226109Y-52973809D01*
X152226109Y-52973809D02*
X152226109Y-52854761D01*
X152226109Y-52854761D02*
X152202300Y-52807142D01*
X152202300Y-52807142D02*
X152178490Y-52783333D01*
X152178490Y-52783333D02*
X152130871Y-52759523D01*
X152130871Y-52759523D02*
X152083252Y-52759523D01*
X152083252Y-52759523D02*
X152035633Y-52783333D01*
X152035633Y-52783333D02*
X152011823Y-52807142D01*
X152011823Y-52807142D02*
X151988014Y-52854761D01*
X151988014Y-52854761D02*
X151964204Y-52949999D01*
X151964204Y-52949999D02*
X151940395Y-52997618D01*
X151940395Y-52997618D02*
X151916585Y-53021428D01*
X151916585Y-53021428D02*
X151868966Y-53045237D01*
X151868966Y-53045237D02*
X151821347Y-53045237D01*
X151821347Y-53045237D02*
X151773728Y-53021428D01*
X151773728Y-53021428D02*
X151749919Y-52997618D01*
X151749919Y-52997618D02*
X151726109Y-52949999D01*
X151726109Y-52949999D02*
X151726109Y-52830952D01*
X151726109Y-52830952D02*
X151749919Y-52759523D01*
X152178490Y-52259524D02*
X152202300Y-52283333D01*
X152202300Y-52283333D02*
X152226109Y-52354762D01*
X152226109Y-52354762D02*
X152226109Y-52402381D01*
X152226109Y-52402381D02*
X152202300Y-52473809D01*
X152202300Y-52473809D02*
X152154680Y-52521428D01*
X152154680Y-52521428D02*
X152107061Y-52545238D01*
X152107061Y-52545238D02*
X152011823Y-52569047D01*
X152011823Y-52569047D02*
X151940395Y-52569047D01*
X151940395Y-52569047D02*
X151845157Y-52545238D01*
X151845157Y-52545238D02*
X151797538Y-52521428D01*
X151797538Y-52521428D02*
X151749919Y-52473809D01*
X151749919Y-52473809D02*
X151726109Y-52402381D01*
X151726109Y-52402381D02*
X151726109Y-52354762D01*
X151726109Y-52354762D02*
X151749919Y-52283333D01*
X151749919Y-52283333D02*
X151773728Y-52259524D01*
X152226109Y-51807143D02*
X152226109Y-52045238D01*
X152226109Y-52045238D02*
X151726109Y-52045238D01*
X150902300Y-53057141D02*
X150926109Y-52985713D01*
X150926109Y-52985713D02*
X150926109Y-52866665D01*
X150926109Y-52866665D02*
X150902300Y-52819046D01*
X150902300Y-52819046D02*
X150878490Y-52795237D01*
X150878490Y-52795237D02*
X150830871Y-52771427D01*
X150830871Y-52771427D02*
X150783252Y-52771427D01*
X150783252Y-52771427D02*
X150735633Y-52795237D01*
X150735633Y-52795237D02*
X150711823Y-52819046D01*
X150711823Y-52819046D02*
X150688014Y-52866665D01*
X150688014Y-52866665D02*
X150664204Y-52961903D01*
X150664204Y-52961903D02*
X150640395Y-53009522D01*
X150640395Y-53009522D02*
X150616585Y-53033332D01*
X150616585Y-53033332D02*
X150568966Y-53057141D01*
X150568966Y-53057141D02*
X150521347Y-53057141D01*
X150521347Y-53057141D02*
X150473728Y-53033332D01*
X150473728Y-53033332D02*
X150449919Y-53009522D01*
X150449919Y-53009522D02*
X150426109Y-52961903D01*
X150426109Y-52961903D02*
X150426109Y-52842856D01*
X150426109Y-52842856D02*
X150449919Y-52771427D01*
X150926109Y-52557142D02*
X150426109Y-52557142D01*
X150426109Y-52557142D02*
X150426109Y-52438094D01*
X150426109Y-52438094D02*
X150449919Y-52366666D01*
X150449919Y-52366666D02*
X150497538Y-52319047D01*
X150497538Y-52319047D02*
X150545157Y-52295237D01*
X150545157Y-52295237D02*
X150640395Y-52271428D01*
X150640395Y-52271428D02*
X150711823Y-52271428D01*
X150711823Y-52271428D02*
X150807061Y-52295237D01*
X150807061Y-52295237D02*
X150854680Y-52319047D01*
X150854680Y-52319047D02*
X150902300Y-52366666D01*
X150902300Y-52366666D02*
X150926109Y-52438094D01*
X150926109Y-52438094D02*
X150926109Y-52557142D01*
X150783252Y-52080951D02*
X150783252Y-51842856D01*
X150926109Y-52128570D02*
X150426109Y-51961904D01*
X150426109Y-51961904D02*
X150926109Y-51795237D01*
X137949919Y-50180952D02*
X137926109Y-50228571D01*
X137926109Y-50228571D02*
X137926109Y-50300000D01*
X137926109Y-50300000D02*
X137949919Y-50371428D01*
X137949919Y-50371428D02*
X137997538Y-50419047D01*
X137997538Y-50419047D02*
X138045157Y-50442857D01*
X138045157Y-50442857D02*
X138140395Y-50466666D01*
X138140395Y-50466666D02*
X138211823Y-50466666D01*
X138211823Y-50466666D02*
X138307061Y-50442857D01*
X138307061Y-50442857D02*
X138354680Y-50419047D01*
X138354680Y-50419047D02*
X138402300Y-50371428D01*
X138402300Y-50371428D02*
X138426109Y-50300000D01*
X138426109Y-50300000D02*
X138426109Y-50252381D01*
X138426109Y-50252381D02*
X138402300Y-50180952D01*
X138402300Y-50180952D02*
X138378490Y-50157143D01*
X138378490Y-50157143D02*
X138211823Y-50157143D01*
X138211823Y-50157143D02*
X138211823Y-50252381D01*
X138426109Y-49942857D02*
X137926109Y-49942857D01*
X137926109Y-49942857D02*
X138426109Y-49657143D01*
X138426109Y-49657143D02*
X137926109Y-49657143D01*
X138426109Y-49419047D02*
X137926109Y-49419047D01*
X137926109Y-49419047D02*
X137926109Y-49299999D01*
X137926109Y-49299999D02*
X137949919Y-49228571D01*
X137949919Y-49228571D02*
X137997538Y-49180952D01*
X137997538Y-49180952D02*
X138045157Y-49157142D01*
X138045157Y-49157142D02*
X138140395Y-49133333D01*
X138140395Y-49133333D02*
X138211823Y-49133333D01*
X138211823Y-49133333D02*
X138307061Y-49157142D01*
X138307061Y-49157142D02*
X138354680Y-49180952D01*
X138354680Y-49180952D02*
X138402300Y-49228571D01*
X138402300Y-49228571D02*
X138426109Y-49299999D01*
X138426109Y-49299999D02*
X138426109Y-49419047D01*
X137926109Y-53005236D02*
X138426109Y-52838570D01*
X138426109Y-52838570D02*
X137926109Y-52671903D01*
X138402300Y-52290951D02*
X138426109Y-52338570D01*
X138426109Y-52338570D02*
X138426109Y-52433808D01*
X138426109Y-52433808D02*
X138402300Y-52481427D01*
X138402300Y-52481427D02*
X138378490Y-52505237D01*
X138378490Y-52505237D02*
X138330871Y-52529046D01*
X138330871Y-52529046D02*
X138188014Y-52529046D01*
X138188014Y-52529046D02*
X138140395Y-52505237D01*
X138140395Y-52505237D02*
X138116585Y-52481427D01*
X138116585Y-52481427D02*
X138092776Y-52433808D01*
X138092776Y-52433808D02*
X138092776Y-52338570D01*
X138092776Y-52338570D02*
X138116585Y-52290951D01*
X138402300Y-51862380D02*
X138426109Y-51909999D01*
X138426109Y-51909999D02*
X138426109Y-52005237D01*
X138426109Y-52005237D02*
X138402300Y-52052856D01*
X138402300Y-52052856D02*
X138378490Y-52076666D01*
X138378490Y-52076666D02*
X138330871Y-52100475D01*
X138330871Y-52100475D02*
X138188014Y-52100475D01*
X138188014Y-52100475D02*
X138140395Y-52076666D01*
X138140395Y-52076666D02*
X138116585Y-52052856D01*
X138116585Y-52052856D02*
X138092776Y-52005237D01*
X138092776Y-52005237D02*
X138092776Y-51909999D01*
X138092776Y-51909999D02*
X138116585Y-51862380D01*
D15*
X32106819Y-124301594D02*
X31106819Y-124301594D01*
X31106819Y-124301594D02*
X31106819Y-124063499D01*
X31106819Y-124063499D02*
X31154438Y-123920642D01*
X31154438Y-123920642D02*
X31249676Y-123825404D01*
X31249676Y-123825404D02*
X31344914Y-123777785D01*
X31344914Y-123777785D02*
X31535390Y-123730166D01*
X31535390Y-123730166D02*
X31678247Y-123730166D01*
X31678247Y-123730166D02*
X31868723Y-123777785D01*
X31868723Y-123777785D02*
X31963961Y-123825404D01*
X31963961Y-123825404D02*
X32059200Y-123920642D01*
X32059200Y-123920642D02*
X32106819Y-124063499D01*
X32106819Y-124063499D02*
X32106819Y-124301594D01*
X31106819Y-122825404D02*
X31106819Y-123301594D01*
X31106819Y-123301594D02*
X31583009Y-123349213D01*
X31583009Y-123349213D02*
X31535390Y-123301594D01*
X31535390Y-123301594D02*
X31487771Y-123206356D01*
X31487771Y-123206356D02*
X31487771Y-122968261D01*
X31487771Y-122968261D02*
X31535390Y-122873023D01*
X31535390Y-122873023D02*
X31583009Y-122825404D01*
X31583009Y-122825404D02*
X31678247Y-122777785D01*
X31678247Y-122777785D02*
X31916342Y-122777785D01*
X31916342Y-122777785D02*
X32011580Y-122825404D01*
X32011580Y-122825404D02*
X32059200Y-122873023D01*
X32059200Y-122873023D02*
X32106819Y-122968261D01*
X32106819Y-122968261D02*
X32106819Y-123206356D01*
X32106819Y-123206356D02*
X32059200Y-123301594D01*
X32059200Y-123301594D02*
X32011580Y-123349213D01*
D16*
G36*
X100675375Y-50246908D02*
G01*
X100732100Y-50275271D01*
X100785757Y-50328927D01*
X100813775Y-50412981D01*
X100813775Y-50510475D01*
X100173775Y-50510475D01*
X100173775Y-50412981D01*
X100201792Y-50328928D01*
X100255449Y-50275271D01*
X100312173Y-50246908D01*
X100446479Y-50213332D01*
X100541071Y-50213332D01*
X100675375Y-50246908D01*
G37*
G36*
X101062664Y-50759364D02*
G01*
X99924885Y-50759364D01*
X99924885Y-50399999D01*
X100013775Y-50399999D01*
X100013775Y-50590475D01*
X100015312Y-50606082D01*
X100027257Y-50634921D01*
X100049329Y-50656993D01*
X100078168Y-50668938D01*
X100093775Y-50670475D01*
X100893775Y-50670475D01*
X100909382Y-50668938D01*
X100938221Y-50656993D01*
X100960293Y-50634921D01*
X100972238Y-50606082D01*
X100973775Y-50590475D01*
X100973775Y-50399999D01*
X100972997Y-50392101D01*
X100973147Y-50389993D01*
X100972516Y-50387220D01*
X100972238Y-50384392D01*
X100971429Y-50382440D01*
X100969670Y-50374701D01*
X100931575Y-50260415D01*
X100925181Y-50246095D01*
X100923297Y-50243922D01*
X100922197Y-50241267D01*
X100912248Y-50229144D01*
X100836057Y-50152954D01*
X100829923Y-50147920D01*
X100828538Y-50146323D01*
X100826130Y-50144807D01*
X100823934Y-50143005D01*
X100821982Y-50142196D01*
X100815266Y-50137969D01*
X100739076Y-50099874D01*
X100737934Y-50099437D01*
X100737470Y-50099093D01*
X100730921Y-50096753D01*
X100724429Y-50094269D01*
X100723852Y-50094228D01*
X100722702Y-50093817D01*
X100570321Y-50055721D01*
X100567615Y-50055320D01*
X100566525Y-50054869D01*
X100560651Y-50054290D01*
X100554807Y-50053426D01*
X100553638Y-50053599D01*
X100550918Y-50053332D01*
X100436632Y-50053332D01*
X100433911Y-50053599D01*
X100432743Y-50053426D01*
X100426898Y-50054290D01*
X100421025Y-50054869D01*
X100419934Y-50055320D01*
X100417229Y-50055721D01*
X100264848Y-50093817D01*
X100263697Y-50094228D01*
X100263121Y-50094269D01*
X100256628Y-50096753D01*
X100250080Y-50099093D01*
X100249615Y-50099437D01*
X100248474Y-50099874D01*
X100172283Y-50137969D01*
X100165568Y-50142195D01*
X100163614Y-50143005D01*
X100161414Y-50144809D01*
X100159011Y-50146323D01*
X100157626Y-50147918D01*
X100151492Y-50152954D01*
X100075301Y-50229144D01*
X100065352Y-50241267D01*
X100064251Y-50243924D01*
X100062369Y-50246095D01*
X100055975Y-50260415D01*
X100017880Y-50374701D01*
X100016120Y-50382440D01*
X100015312Y-50384392D01*
X100015033Y-50387220D01*
X100014403Y-50389993D01*
X100014552Y-50392101D01*
X100013775Y-50399999D01*
X99924885Y-50399999D01*
X99924885Y-49600082D01*
X100013774Y-49600082D01*
X100015312Y-49607771D01*
X100015312Y-49615606D01*
X100018342Y-49622921D01*
X100019896Y-49630691D01*
X100024258Y-49637204D01*
X100027257Y-49644445D01*
X100032857Y-49650045D01*
X100037265Y-49656627D01*
X100049266Y-49666454D01*
X100049329Y-49666517D01*
X100049356Y-49666528D01*
X100049399Y-49666563D01*
X100157093Y-49738359D01*
X100218502Y-49799769D01*
X100250792Y-49864348D01*
X100259146Y-49877620D01*
X100282727Y-49898072D01*
X100312340Y-49907943D01*
X100343476Y-49905730D01*
X100371395Y-49891771D01*
X100391847Y-49868190D01*
X100401718Y-49838577D01*
X100399505Y-49807441D01*
X100393900Y-49792794D01*
X100355805Y-49716603D01*
X100351576Y-49709884D01*
X100350768Y-49707934D01*
X100348966Y-49705739D01*
X100347451Y-49703331D01*
X100345853Y-49701945D01*
X100340819Y-49695811D01*
X100325007Y-49679999D01*
X100813775Y-49679999D01*
X100813775Y-49828571D01*
X100815312Y-49844178D01*
X100827257Y-49873017D01*
X100849329Y-49895089D01*
X100878168Y-49907034D01*
X100909382Y-49907034D01*
X100938221Y-49895089D01*
X100960293Y-49873017D01*
X100972238Y-49844178D01*
X100973775Y-49828571D01*
X100973775Y-49371428D01*
X100972238Y-49355821D01*
X100960293Y-49326982D01*
X100938221Y-49304910D01*
X100909382Y-49292965D01*
X100878168Y-49292965D01*
X100849329Y-49304910D01*
X100827257Y-49326982D01*
X100815312Y-49355821D01*
X100813775Y-49371428D01*
X100813775Y-49519999D01*
X100093775Y-49519999D01*
X100093722Y-49520004D01*
X100093692Y-49519998D01*
X100093601Y-49520016D01*
X100078168Y-49521536D01*
X100070852Y-49524566D01*
X100063083Y-49526120D01*
X100056569Y-49530482D01*
X100049329Y-49533481D01*
X100043728Y-49539081D01*
X100037147Y-49543489D01*
X100032799Y-49550010D01*
X100027257Y-49555553D01*
X100024225Y-49562871D01*
X100019833Y-49569461D01*
X100018311Y-49577150D01*
X100015312Y-49584392D01*
X100015312Y-49592309D01*
X100013774Y-49600082D01*
X99924885Y-49600082D01*
X99924885Y-49204076D01*
X101062664Y-49204076D01*
X101062664Y-50759364D01*
G37*
D17*
%TO.C,C2*%
X103919000Y-44570000D02*
X103919000Y-43830000D01*
X103959000Y-44737000D02*
X103959000Y-43663000D01*
X103999000Y-44864000D02*
X103999000Y-43536000D01*
X104039000Y-44968000D02*
X104039000Y-43432000D01*
X104079000Y-45059000D02*
X104079000Y-43341000D01*
X104119000Y-45140000D02*
X104119000Y-43260000D01*
X104159000Y-45213000D02*
X104159000Y-43187000D01*
X104199000Y-43360000D02*
X104199000Y-43120000D01*
X104199000Y-45280000D02*
X104199000Y-45040000D01*
X104239000Y-43360000D02*
X104239000Y-43058000D01*
X104239000Y-45342000D02*
X104239000Y-45040000D01*
X104279000Y-43360000D02*
X104279000Y-43000000D01*
X104279000Y-45400000D02*
X104279000Y-45040000D01*
X104319000Y-43360000D02*
X104319000Y-42946000D01*
X104319000Y-45454000D02*
X104319000Y-45040000D01*
X104359000Y-43360000D02*
X104359000Y-42896000D01*
X104359000Y-45504000D02*
X104359000Y-45040000D01*
X104399000Y-43360000D02*
X104399000Y-42849000D01*
X104399000Y-45551000D02*
X104399000Y-45040000D01*
X104439000Y-43360000D02*
X104439000Y-42804000D01*
X104439000Y-45596000D02*
X104439000Y-45040000D01*
X104479000Y-43360000D02*
X104479000Y-42762000D01*
X104479000Y-45638000D02*
X104479000Y-45040000D01*
X104519000Y-43360000D02*
X104519000Y-42722000D01*
X104519000Y-45678000D02*
X104519000Y-45040000D01*
X104559000Y-43360000D02*
X104559000Y-42684000D01*
X104559000Y-45716000D02*
X104559000Y-45040000D01*
X104599000Y-43360000D02*
X104599000Y-42648000D01*
X104599000Y-45752000D02*
X104599000Y-45040000D01*
X104639000Y-43360000D02*
X104639000Y-42613000D01*
X104639000Y-45787000D02*
X104639000Y-45040000D01*
X104679000Y-43360000D02*
X104679000Y-42581000D01*
X104679000Y-45819000D02*
X104679000Y-45040000D01*
X104719000Y-43360000D02*
X104719000Y-42550000D01*
X104719000Y-45850000D02*
X104719000Y-45040000D01*
X104759000Y-43360000D02*
X104759000Y-42520000D01*
X104759000Y-45880000D02*
X104759000Y-45040000D01*
X104799000Y-43360000D02*
X104799000Y-42492000D01*
X104799000Y-45908000D02*
X104799000Y-45040000D01*
X104839000Y-43360000D02*
X104839000Y-42465000D01*
X104839000Y-45935000D02*
X104839000Y-45040000D01*
X104879000Y-43360000D02*
X104879000Y-42440000D01*
X104879000Y-45960000D02*
X104879000Y-45040000D01*
X104919000Y-43360000D02*
X104919000Y-42415000D01*
X104919000Y-45985000D02*
X104919000Y-45040000D01*
X104959000Y-43360000D02*
X104959000Y-42392000D01*
X104959000Y-46008000D02*
X104959000Y-45040000D01*
X104999000Y-43360000D02*
X104999000Y-42370000D01*
X104999000Y-46030000D02*
X104999000Y-45040000D01*
X105039000Y-43360000D02*
X105039000Y-42349000D01*
X105039000Y-46051000D02*
X105039000Y-45040000D01*
X105079000Y-43360000D02*
X105079000Y-42330000D01*
X105079000Y-46070000D02*
X105079000Y-45040000D01*
X105119000Y-43360000D02*
X105119000Y-42311000D01*
X105119000Y-46089000D02*
X105119000Y-45040000D01*
X105159000Y-43360000D02*
X105159000Y-42293000D01*
X105159000Y-46107000D02*
X105159000Y-45040000D01*
X105199000Y-43360000D02*
X105199000Y-42276000D01*
X105199000Y-46124000D02*
X105199000Y-45040000D01*
X105239000Y-43360000D02*
X105239000Y-42260000D01*
X105239000Y-46140000D02*
X105239000Y-45040000D01*
X105279000Y-43360000D02*
X105279000Y-42246000D01*
X105279000Y-46154000D02*
X105279000Y-45040000D01*
X105320000Y-43360000D02*
X105320000Y-42232000D01*
X105320000Y-46168000D02*
X105320000Y-45040000D01*
X105360000Y-43360000D02*
X105360000Y-42218000D01*
X105360000Y-46182000D02*
X105360000Y-45040000D01*
X105400000Y-43360000D02*
X105400000Y-42206000D01*
X105400000Y-46194000D02*
X105400000Y-45040000D01*
X105440000Y-43360000D02*
X105440000Y-42195000D01*
X105440000Y-46205000D02*
X105440000Y-45040000D01*
X105480000Y-43360000D02*
X105480000Y-42184000D01*
X105480000Y-46216000D02*
X105480000Y-45040000D01*
X105520000Y-43360000D02*
X105520000Y-42175000D01*
X105520000Y-46225000D02*
X105520000Y-45040000D01*
X105560000Y-43360000D02*
X105560000Y-42166000D01*
X105560000Y-46234000D02*
X105560000Y-45040000D01*
X105600000Y-43360000D02*
X105600000Y-42158000D01*
X105600000Y-46242000D02*
X105600000Y-45040000D01*
X105640000Y-43360000D02*
X105640000Y-42150000D01*
X105640000Y-46250000D02*
X105640000Y-45040000D01*
X105680000Y-43360000D02*
X105680000Y-42144000D01*
X105680000Y-46256000D02*
X105680000Y-45040000D01*
X105720000Y-43360000D02*
X105720000Y-42138000D01*
X105720000Y-46262000D02*
X105720000Y-45040000D01*
X105760000Y-43360000D02*
X105760000Y-42133000D01*
X105760000Y-46267000D02*
X105760000Y-45040000D01*
X105800000Y-43360000D02*
X105800000Y-42129000D01*
X105800000Y-46271000D02*
X105800000Y-45040000D01*
X105840000Y-46274000D02*
X105840000Y-42126000D01*
X105880000Y-46277000D02*
X105880000Y-42123000D01*
X105920000Y-46279000D02*
X105920000Y-42121000D01*
X105960000Y-46280000D02*
X105960000Y-42120000D01*
X106000000Y-46280000D02*
X106000000Y-42120000D01*
X108069801Y-45595000D02*
X108069801Y-45195000D01*
X108269801Y-45395000D02*
X107869801Y-45395000D01*
X108120000Y-44200000D02*
G75*
G02*
X103880000Y-44200000I-2120000J0D01*
G01*
X103880000Y-44200000D02*
G75*
G02*
X108120000Y-44200000I2120000J0D01*
G01*
%TO.C,D2*%
X94540000Y-53865000D02*
X94540000Y-57035000D01*
X94540000Y-57035000D02*
X98600000Y-57035000D01*
X98600000Y-53865000D02*
X94540000Y-53865000D01*
%TO.C,C4*%
X88540000Y-48590000D02*
X88540000Y-49290000D01*
X88540000Y-52110000D02*
X88540000Y-51410000D01*
X91170563Y-48590000D02*
X88540000Y-48590000D01*
X91170563Y-52110000D02*
X88540000Y-52110000D01*
X91870563Y-49290000D02*
X91170563Y-48590000D01*
X91870563Y-51410000D02*
X91170563Y-52110000D01*
X92487500Y-51972500D02*
X92487500Y-51597500D01*
X92675000Y-51785000D02*
X92300000Y-51785000D01*
%TO.C,R7*%
X32884936Y-86848500D02*
X34339064Y-86848500D01*
X32884936Y-88668500D02*
X34339064Y-88668500D01*
%TO.C,D6*%
X33155000Y-148540000D02*
X36245000Y-148540000D01*
X33155170Y-148540000D02*
G75*
G02*
X34700462Y-142990000I1544830J2560000D01*
G01*
X34699538Y-142990000D02*
G75*
G02*
X36244830Y-148540000I462J-2990000D01*
G01*
X37200000Y-145980000D02*
G75*
G02*
X32200000Y-145980000I-2500000J0D01*
G01*
X32200000Y-145980000D02*
G75*
G02*
X37200000Y-145980000I2500000J0D01*
G01*
%TO.C,J22*%
X162550000Y-112120000D02*
X162550000Y-119800000D01*
X162550000Y-112120000D02*
X165210000Y-112120000D01*
X162550000Y-119800000D02*
X165210000Y-119800000D01*
X163880000Y-109520000D02*
X165210000Y-109520000D01*
X165210000Y-109520000D02*
X165210000Y-110850000D01*
X165210000Y-112120000D02*
X165210000Y-119800000D01*
D14*
%TO.C,J19*%
X38061000Y-98312000D02*
X38061000Y-97502000D01*
X39561000Y-96002000D02*
X39863000Y-96002000D01*
X39863000Y-99812000D02*
X39561000Y-99812000D01*
X41363000Y-97502000D02*
X41363000Y-98312000D01*
X38061000Y-97502000D02*
G75*
G02*
X39561000Y-96002000I1500001J-1D01*
G01*
X39561000Y-99812000D02*
G75*
G02*
X38061000Y-98312000I1J1500001D01*
G01*
X39863000Y-96002000D02*
G75*
G02*
X41363000Y-97502000I0J-1500000D01*
G01*
X41363000Y-98312000D02*
G75*
G02*
X39863000Y-99812000I-1500000J0D01*
G01*
%TO.C,J15*%
X43761000Y-87412000D02*
X43761000Y-86602000D01*
X45261000Y-85102000D02*
X45563000Y-85102000D01*
X45563000Y-88912000D02*
X45261000Y-88912000D01*
X47063000Y-86602000D02*
X47063000Y-87412000D01*
X43761000Y-86602000D02*
G75*
G02*
X45261000Y-85102000I1500001J-1D01*
G01*
X45261000Y-88912000D02*
G75*
G02*
X43761000Y-87412000I1J1500001D01*
G01*
X45563000Y-85102000D02*
G75*
G02*
X47063000Y-86602000I0J-1500000D01*
G01*
X47063000Y-87412000D02*
G75*
G02*
X45563000Y-88912000I-1500000J0D01*
G01*
%TO.C,J9*%
X81280000Y-58770000D02*
X81280000Y-68930000D01*
X81280000Y-58770000D02*
X88900000Y-58770000D01*
X81280000Y-68930000D02*
X88900000Y-68930000D01*
X83820000Y-63860000D02*
X88900000Y-63850000D01*
X86360000Y-58770000D02*
X81280000Y-58770000D01*
X86360000Y-68930000D02*
X86360000Y-58770000D01*
X88900000Y-68930000D02*
X88900000Y-58770000D01*
%TO.C,J17*%
X205649000Y-65003500D02*
X205649000Y-64193500D01*
X207149000Y-62693500D02*
X207451000Y-62693500D01*
X207451000Y-66503500D02*
X207149000Y-66503500D01*
X208951000Y-64193500D02*
X208951000Y-65003500D01*
X205649000Y-64193500D02*
G75*
G02*
X207149000Y-62693500I1500001J-1D01*
G01*
X207149000Y-66503500D02*
G75*
G02*
X205649000Y-65003500I1J1500001D01*
G01*
X207451000Y-62693500D02*
G75*
G02*
X208951000Y-64193500I0J-1500000D01*
G01*
X208951000Y-65003500D02*
G75*
G02*
X207451000Y-66503500I-1500000J0D01*
G01*
D17*
%TO.C,J25*%
X127800000Y-131480000D02*
X133800000Y-131480000D01*
X127800000Y-141780000D02*
X127800000Y-131480000D01*
X127900000Y-132830000D02*
X128910000Y-132830000D01*
X128910000Y-132830000D02*
X128910000Y-137910000D01*
X128910000Y-137910000D02*
X127900000Y-137910000D01*
X133750000Y-138580000D02*
X133750000Y-141780000D01*
X133750000Y-141780000D02*
X127800000Y-141780000D01*
X133800000Y-131480000D02*
X133800000Y-137230000D01*
%TO.C,J1*%
X111980000Y-41130000D02*
X111980000Y-47545000D01*
X111980000Y-41130000D02*
X130220000Y-41130000D01*
X111980000Y-47545000D02*
X111600000Y-47545000D01*
X111980000Y-66090000D02*
X111980000Y-66870000D01*
X111980000Y-66870000D02*
X112980000Y-66870000D01*
X130220000Y-41130000D02*
X130220000Y-47545000D01*
X130220000Y-66090000D02*
X130220000Y-66870000D01*
X130220000Y-66870000D02*
X129220000Y-66870000D01*
D14*
X103320000Y-79850000D02*
X138880000Y-79850000D01*
X138880000Y-26510000D01*
X103320000Y-26510000D01*
X103320000Y-79850000D01*
D17*
%TO.C,C9*%
X88640000Y-54290000D02*
X88640000Y-54990000D01*
X88640000Y-57810000D02*
X88640000Y-57110000D01*
X91270563Y-54290000D02*
X88640000Y-54290000D01*
X91270563Y-57810000D02*
X88640000Y-57810000D01*
X91970563Y-54990000D02*
X91270563Y-54290000D01*
X91970563Y-57110000D02*
X91270563Y-57810000D01*
X92587500Y-57672500D02*
X92587500Y-57297500D01*
X92775000Y-57485000D02*
X92400000Y-57485000D01*
%TO.C,C6*%
X130169000Y-94620000D02*
X130169000Y-93880000D01*
X130209000Y-94787000D02*
X130209000Y-93713000D01*
X130249000Y-94914000D02*
X130249000Y-93586000D01*
X130289000Y-95018000D02*
X130289000Y-93482000D01*
X130329000Y-95109000D02*
X130329000Y-93391000D01*
X130369000Y-95190000D02*
X130369000Y-93310000D01*
X130409000Y-95263000D02*
X130409000Y-93237000D01*
X130449000Y-93410000D02*
X130449000Y-93170000D01*
X130449000Y-95330000D02*
X130449000Y-95090000D01*
X130489000Y-93410000D02*
X130489000Y-93108000D01*
X130489000Y-95392000D02*
X130489000Y-95090000D01*
X130529000Y-93410000D02*
X130529000Y-93050000D01*
X130529000Y-95450000D02*
X130529000Y-95090000D01*
X130569000Y-93410000D02*
X130569000Y-92996000D01*
X130569000Y-95504000D02*
X130569000Y-95090000D01*
X130609000Y-93410000D02*
X130609000Y-92946000D01*
X130609000Y-95554000D02*
X130609000Y-95090000D01*
X130649000Y-93410000D02*
X130649000Y-92899000D01*
X130649000Y-95601000D02*
X130649000Y-95090000D01*
X130689000Y-93410000D02*
X130689000Y-92854000D01*
X130689000Y-95646000D02*
X130689000Y-95090000D01*
X130729000Y-93410000D02*
X130729000Y-92812000D01*
X130729000Y-95688000D02*
X130729000Y-95090000D01*
X130769000Y-93410000D02*
X130769000Y-92772000D01*
X130769000Y-95728000D02*
X130769000Y-95090000D01*
X130809000Y-93410000D02*
X130809000Y-92734000D01*
X130809000Y-95766000D02*
X130809000Y-95090000D01*
X130849000Y-93410000D02*
X130849000Y-92698000D01*
X130849000Y-95802000D02*
X130849000Y-95090000D01*
X130889000Y-93410000D02*
X130889000Y-92663000D01*
X130889000Y-95837000D02*
X130889000Y-95090000D01*
X130929000Y-93410000D02*
X130929000Y-92631000D01*
X130929000Y-95869000D02*
X130929000Y-95090000D01*
X130969000Y-93410000D02*
X130969000Y-92600000D01*
X130969000Y-95900000D02*
X130969000Y-95090000D01*
X131009000Y-93410000D02*
X131009000Y-92570000D01*
X131009000Y-95930000D02*
X131009000Y-95090000D01*
X131049000Y-93410000D02*
X131049000Y-92542000D01*
X131049000Y-95958000D02*
X131049000Y-95090000D01*
X131089000Y-93410000D02*
X131089000Y-92515000D01*
X131089000Y-95985000D02*
X131089000Y-95090000D01*
X131129000Y-93410000D02*
X131129000Y-92490000D01*
X131129000Y-96010000D02*
X131129000Y-95090000D01*
X131169000Y-93410000D02*
X131169000Y-92465000D01*
X131169000Y-96035000D02*
X131169000Y-95090000D01*
X131209000Y-93410000D02*
X131209000Y-92442000D01*
X131209000Y-96058000D02*
X131209000Y-95090000D01*
X131249000Y-93410000D02*
X131249000Y-92420000D01*
X131249000Y-96080000D02*
X131249000Y-95090000D01*
X131289000Y-93410000D02*
X131289000Y-92399000D01*
X131289000Y-96101000D02*
X131289000Y-95090000D01*
X131329000Y-93410000D02*
X131329000Y-92380000D01*
X131329000Y-96120000D02*
X131329000Y-95090000D01*
X131369000Y-93410000D02*
X131369000Y-92361000D01*
X131369000Y-96139000D02*
X131369000Y-95090000D01*
X131409000Y-93410000D02*
X131409000Y-92343000D01*
X131409000Y-96157000D02*
X131409000Y-95090000D01*
X131449000Y-93410000D02*
X131449000Y-92326000D01*
X131449000Y-96174000D02*
X131449000Y-95090000D01*
X131489000Y-93410000D02*
X131489000Y-92310000D01*
X131489000Y-96190000D02*
X131489000Y-95090000D01*
X131529000Y-93410000D02*
X131529000Y-92296000D01*
X131529000Y-96204000D02*
X131529000Y-95090000D01*
X131570000Y-93410000D02*
X131570000Y-92282000D01*
X131570000Y-96218000D02*
X131570000Y-95090000D01*
X131610000Y-93410000D02*
X131610000Y-92268000D01*
X131610000Y-96232000D02*
X131610000Y-95090000D01*
X131650000Y-93410000D02*
X131650000Y-92256000D01*
X131650000Y-96244000D02*
X131650000Y-95090000D01*
X131690000Y-93410000D02*
X131690000Y-92245000D01*
X131690000Y-96255000D02*
X131690000Y-95090000D01*
X131730000Y-93410000D02*
X131730000Y-92234000D01*
X131730000Y-96266000D02*
X131730000Y-95090000D01*
X131770000Y-93410000D02*
X131770000Y-92225000D01*
X131770000Y-96275000D02*
X131770000Y-95090000D01*
X131810000Y-93410000D02*
X131810000Y-92216000D01*
X131810000Y-96284000D02*
X131810000Y-95090000D01*
X131850000Y-93410000D02*
X131850000Y-92208000D01*
X131850000Y-96292000D02*
X131850000Y-95090000D01*
X131890000Y-93410000D02*
X131890000Y-92200000D01*
X131890000Y-96300000D02*
X131890000Y-95090000D01*
X131930000Y-93410000D02*
X131930000Y-92194000D01*
X131930000Y-96306000D02*
X131930000Y-95090000D01*
X131970000Y-93410000D02*
X131970000Y-92188000D01*
X131970000Y-96312000D02*
X131970000Y-95090000D01*
X132010000Y-93410000D02*
X132010000Y-92183000D01*
X132010000Y-96317000D02*
X132010000Y-95090000D01*
X132050000Y-93410000D02*
X132050000Y-92179000D01*
X132050000Y-96321000D02*
X132050000Y-95090000D01*
X132090000Y-96324000D02*
X132090000Y-92176000D01*
X132130000Y-96327000D02*
X132130000Y-92173000D01*
X132170000Y-96329000D02*
X132170000Y-92171000D01*
X132210000Y-96330000D02*
X132210000Y-92170000D01*
X132250000Y-96330000D02*
X132250000Y-92170000D01*
X134319801Y-95645000D02*
X134319801Y-95245000D01*
X134519801Y-95445000D02*
X134119801Y-95445000D01*
X134370000Y-94250000D02*
G75*
G02*
X130130000Y-94250000I-2120000J0D01*
G01*
X130130000Y-94250000D02*
G75*
G02*
X134370000Y-94250000I2120000J0D01*
G01*
D14*
%TO.C,J7*%
X92770000Y-62650000D02*
G75*
G02*
X90230000Y-62650000I-1270000J0D01*
G01*
X90230000Y-62650000D02*
G75*
G02*
X92770000Y-62650000I1270000J0D01*
G01*
D17*
%TO.C,J2*%
X93695000Y-44120000D02*
X93695000Y-46720000D01*
X93695000Y-44120000D02*
X96355000Y-44120000D01*
X93695000Y-46720000D02*
X96355000Y-46720000D01*
X95025000Y-41520000D02*
X96355000Y-41520000D01*
X96355000Y-41520000D02*
X96355000Y-42850000D01*
X96355000Y-44120000D02*
X96355000Y-46720000D01*
%TO.C,J6*%
X114870000Y-74895000D02*
X116200000Y-74895000D01*
X114870000Y-76225000D02*
X114870000Y-74895000D01*
X117470000Y-74895000D02*
X125150000Y-74895000D01*
X117470000Y-77555000D02*
X117470000Y-74895000D01*
X117470000Y-77555000D02*
X125150000Y-77555000D01*
X125150000Y-77555000D02*
X125150000Y-74895000D01*
%TO.C,U3*%
X115640000Y-48815000D02*
X115640000Y-69255000D01*
X115640000Y-69255000D02*
X117290000Y-69255000D01*
X119290000Y-69255000D02*
X120940000Y-69255000D01*
X120940000Y-48815000D02*
X115640000Y-48815000D01*
X120940000Y-69255000D02*
X120940000Y-48815000D01*
X117290000Y-69255000D02*
G75*
G02*
X119290000Y-69255000I1000000J0D01*
G01*
%TO.C,J10*%
X131590000Y-67920000D02*
X132920000Y-67920000D01*
X131590000Y-69250000D02*
X131590000Y-67920000D01*
X134190000Y-67920000D02*
X141870000Y-67920000D01*
X134190000Y-70580000D02*
X134190000Y-67920000D01*
X134190000Y-70580000D02*
X141870000Y-70580000D01*
X141870000Y-70580000D02*
X141870000Y-67920000D01*
%TO.C,C5*%
X126240000Y-64590000D02*
X126240000Y-65290000D01*
X126240000Y-68110000D02*
X126240000Y-67410000D01*
X128870563Y-64590000D02*
X126240000Y-64590000D01*
X128870563Y-68110000D02*
X126240000Y-68110000D01*
X129570563Y-65290000D02*
X128870563Y-64590000D01*
X129570563Y-67410000D02*
X128870563Y-68110000D01*
X130187500Y-67972500D02*
X130187500Y-67597500D01*
X130375000Y-67785000D02*
X130000000Y-67785000D01*
%TO.C,J21*%
X139710000Y-110840000D02*
X139710000Y-108240000D01*
X139710000Y-113440000D02*
X139710000Y-112110000D01*
X141040000Y-113440000D02*
X139710000Y-113440000D01*
X142370000Y-108240000D02*
X139710000Y-108240000D01*
X142370000Y-110840000D02*
X139710000Y-110840000D01*
X142370000Y-110840000D02*
X142370000Y-108240000D01*
%TO.C,C3*%
X98230199Y-43005000D02*
X98630199Y-43005000D01*
X98430199Y-42805000D02*
X98430199Y-43205000D01*
X100500000Y-42120000D02*
X100500000Y-46280000D01*
X100540000Y-42120000D02*
X100540000Y-46280000D01*
X100580000Y-42121000D02*
X100580000Y-46279000D01*
X100620000Y-42123000D02*
X100620000Y-46277000D01*
X100660000Y-42126000D02*
X100660000Y-46274000D01*
X100700000Y-42129000D02*
X100700000Y-43360000D01*
X100700000Y-45040000D02*
X100700000Y-46271000D01*
X100740000Y-42133000D02*
X100740000Y-43360000D01*
X100740000Y-45040000D02*
X100740000Y-46267000D01*
X100780000Y-42138000D02*
X100780000Y-43360000D01*
X100780000Y-45040000D02*
X100780000Y-46262000D01*
X100820000Y-42144000D02*
X100820000Y-43360000D01*
X100820000Y-45040000D02*
X100820000Y-46256000D01*
X100860000Y-42150000D02*
X100860000Y-43360000D01*
X100860000Y-45040000D02*
X100860000Y-46250000D01*
X100900000Y-42158000D02*
X100900000Y-43360000D01*
X100900000Y-45040000D02*
X100900000Y-46242000D01*
X100940000Y-42166000D02*
X100940000Y-43360000D01*
X100940000Y-45040000D02*
X100940000Y-46234000D01*
X100980000Y-42175000D02*
X100980000Y-43360000D01*
X100980000Y-45040000D02*
X100980000Y-46225000D01*
X101020000Y-42184000D02*
X101020000Y-43360000D01*
X101020000Y-45040000D02*
X101020000Y-46216000D01*
X101060000Y-42195000D02*
X101060000Y-43360000D01*
X101060000Y-45040000D02*
X101060000Y-46205000D01*
X101100000Y-42206000D02*
X101100000Y-43360000D01*
X101100000Y-45040000D02*
X101100000Y-46194000D01*
X101140000Y-42218000D02*
X101140000Y-43360000D01*
X101140000Y-45040000D02*
X101140000Y-46182000D01*
X101180000Y-42232000D02*
X101180000Y-43360000D01*
X101180000Y-45040000D02*
X101180000Y-46168000D01*
X101221000Y-42246000D02*
X101221000Y-43360000D01*
X101221000Y-45040000D02*
X101221000Y-46154000D01*
X101261000Y-42260000D02*
X101261000Y-43360000D01*
X101261000Y-45040000D02*
X101261000Y-46140000D01*
X101301000Y-42276000D02*
X101301000Y-43360000D01*
X101301000Y-45040000D02*
X101301000Y-46124000D01*
X101341000Y-42293000D02*
X101341000Y-43360000D01*
X101341000Y-45040000D02*
X101341000Y-46107000D01*
X101381000Y-42311000D02*
X101381000Y-43360000D01*
X101381000Y-45040000D02*
X101381000Y-46089000D01*
X101421000Y-42330000D02*
X101421000Y-43360000D01*
X101421000Y-45040000D02*
X101421000Y-46070000D01*
X101461000Y-42349000D02*
X101461000Y-43360000D01*
X101461000Y-45040000D02*
X101461000Y-46051000D01*
X101501000Y-42370000D02*
X101501000Y-43360000D01*
X101501000Y-45040000D02*
X101501000Y-46030000D01*
X101541000Y-42392000D02*
X101541000Y-43360000D01*
X101541000Y-45040000D02*
X101541000Y-46008000D01*
X101581000Y-42415000D02*
X101581000Y-43360000D01*
X101581000Y-45040000D02*
X101581000Y-45985000D01*
X101621000Y-42440000D02*
X101621000Y-43360000D01*
X101621000Y-45040000D02*
X101621000Y-45960000D01*
X101661000Y-42465000D02*
X101661000Y-43360000D01*
X101661000Y-45040000D02*
X101661000Y-45935000D01*
X101701000Y-42492000D02*
X101701000Y-43360000D01*
X101701000Y-45040000D02*
X101701000Y-45908000D01*
X101741000Y-42520000D02*
X101741000Y-43360000D01*
X101741000Y-45040000D02*
X101741000Y-45880000D01*
X101781000Y-42550000D02*
X101781000Y-43360000D01*
X101781000Y-45040000D02*
X101781000Y-45850000D01*
X101821000Y-42581000D02*
X101821000Y-43360000D01*
X101821000Y-45040000D02*
X101821000Y-45819000D01*
X101861000Y-42613000D02*
X101861000Y-43360000D01*
X101861000Y-45040000D02*
X101861000Y-45787000D01*
X101901000Y-42648000D02*
X101901000Y-43360000D01*
X101901000Y-45040000D02*
X101901000Y-45752000D01*
X101941000Y-42684000D02*
X101941000Y-43360000D01*
X101941000Y-45040000D02*
X101941000Y-45716000D01*
X101981000Y-42722000D02*
X101981000Y-43360000D01*
X101981000Y-45040000D02*
X101981000Y-45678000D01*
X102021000Y-42762000D02*
X102021000Y-43360000D01*
X102021000Y-45040000D02*
X102021000Y-45638000D01*
X102061000Y-42804000D02*
X102061000Y-43360000D01*
X102061000Y-45040000D02*
X102061000Y-45596000D01*
X102101000Y-42849000D02*
X102101000Y-43360000D01*
X102101000Y-45040000D02*
X102101000Y-45551000D01*
X102141000Y-42896000D02*
X102141000Y-43360000D01*
X102141000Y-45040000D02*
X102141000Y-45504000D01*
X102181000Y-42946000D02*
X102181000Y-43360000D01*
X102181000Y-45040000D02*
X102181000Y-45454000D01*
X102221000Y-43000000D02*
X102221000Y-43360000D01*
X102221000Y-45040000D02*
X102221000Y-45400000D01*
X102261000Y-43058000D02*
X102261000Y-43360000D01*
X102261000Y-45040000D02*
X102261000Y-45342000D01*
X102301000Y-43120000D02*
X102301000Y-43360000D01*
X102301000Y-45040000D02*
X102301000Y-45280000D01*
X102341000Y-43187000D02*
X102341000Y-45213000D01*
X102381000Y-43260000D02*
X102381000Y-45140000D01*
X102421000Y-43341000D02*
X102421000Y-45059000D01*
X102461000Y-43432000D02*
X102461000Y-44968000D01*
X102501000Y-43536000D02*
X102501000Y-44864000D01*
X102541000Y-43663000D02*
X102541000Y-44737000D01*
X102581000Y-43830000D02*
X102581000Y-44570000D01*
X102620000Y-44200000D02*
G75*
G02*
X98380000Y-44200000I-2120000J0D01*
G01*
X98380000Y-44200000D02*
G75*
G02*
X102620000Y-44200000I2120000J0D01*
G01*
%TO.C,J20*%
X87270000Y-87420000D02*
X87270000Y-90080000D01*
X87270000Y-112820000D02*
X87270000Y-115480000D01*
X133050000Y-87420000D02*
X87270000Y-87420000D01*
X133050000Y-87420000D02*
X133050000Y-90080000D01*
X133050000Y-90080000D02*
X87270000Y-90080000D01*
X135650000Y-88750000D02*
X135650000Y-90080000D01*
X135650000Y-90080000D02*
X134320000Y-90080000D01*
X135660000Y-112825000D02*
X87270000Y-112820000D01*
X135660000Y-112825000D02*
X135660000Y-115425000D01*
X135660000Y-115425000D02*
X87270000Y-115480000D01*
D14*
X136860000Y-86210000D02*
X86060000Y-86210000D01*
X86060000Y-91290000D01*
X136860000Y-91290000D01*
X136860000Y-86210000D01*
X136860000Y-96370000D02*
X134320000Y-96370000D01*
X134320000Y-106530000D01*
X136860000Y-106530000D01*
X136860000Y-96370000D01*
X136860000Y-111610000D02*
X86060000Y-111610000D01*
X86060000Y-116690000D01*
X136860000Y-116690000D01*
X136860000Y-111610000D01*
D17*
%TO.C,C8*%
X94425000Y-59615000D02*
X94800000Y-59615000D01*
X94612500Y-59427500D02*
X94612500Y-59802500D01*
X95229437Y-59990000D02*
X95929437Y-59290000D01*
X95229437Y-62110000D02*
X95929437Y-62810000D01*
X95929437Y-59290000D02*
X98560000Y-59290000D01*
X95929437Y-62810000D02*
X98560000Y-62810000D01*
X98560000Y-59290000D02*
X98560000Y-59990000D01*
X98560000Y-62810000D02*
X98560000Y-62110000D01*
D14*
%TO.C,J18*%
X102970000Y-56980000D02*
G75*
G02*
X100430000Y-56980000I-1270000J0D01*
G01*
X100430000Y-56980000D02*
G75*
G02*
X102970000Y-56980000I1270000J0D01*
G01*
D17*
%TO.C,J5*%
X100970000Y-67520000D02*
X100970000Y-64920000D01*
X100970000Y-70120000D02*
X100970000Y-68790000D01*
X102300000Y-70120000D02*
X100970000Y-70120000D01*
X103630000Y-64920000D02*
X100970000Y-64920000D01*
X103630000Y-67520000D02*
X100970000Y-67520000D01*
X103630000Y-67520000D02*
X103630000Y-64920000D01*
%TO.C,J14*%
X124900000Y-43210000D02*
X124900000Y-44480000D01*
X124900000Y-43210000D02*
X126230000Y-43210000D01*
X124900000Y-45750000D02*
X124900000Y-48350000D01*
X124900000Y-45750000D02*
X127560000Y-45750000D01*
X124900000Y-45810000D02*
X127560000Y-45810000D01*
X124900000Y-48290000D02*
X124900000Y-50890000D01*
X124900000Y-48290000D02*
X127560000Y-48290000D01*
X124900000Y-48350000D02*
X127560000Y-48350000D01*
X124900000Y-50890000D02*
X127560000Y-50890000D01*
X127440000Y-43210000D02*
X127440000Y-45810000D01*
X127440000Y-43210000D02*
X130100000Y-43210000D01*
X127440000Y-45750000D02*
X127440000Y-48350000D01*
X127440000Y-45750000D02*
X130100000Y-45750000D01*
X127440000Y-45810000D02*
X130100000Y-45810000D01*
X127440000Y-48290000D02*
X127440000Y-50890000D01*
X127440000Y-48290000D02*
X130100000Y-48290000D01*
X127440000Y-48350000D02*
X130100000Y-48350000D01*
X127440000Y-50890000D02*
X130100000Y-50890000D01*
X127560000Y-43210000D02*
X127560000Y-45810000D01*
X127560000Y-45750000D02*
X127560000Y-48350000D01*
X127560000Y-48290000D02*
X127560000Y-50890000D01*
X130100000Y-43210000D02*
X130100000Y-45810000D01*
X130100000Y-45750000D02*
X130100000Y-48350000D01*
X130100000Y-48290000D02*
X130100000Y-50890000D01*
%TO.C,SW1*%
X142360000Y-90140000D02*
X139640000Y-90140000D01*
X139640000Y-98110000D01*
X142360000Y-98110000D01*
X142360000Y-90140000D01*
D14*
%TO.C,J16*%
X133670000Y-76180000D02*
G75*
G02*
X131130000Y-76180000I-1270000J0D01*
G01*
X131130000Y-76180000D02*
G75*
G02*
X133670000Y-76180000I1270000J0D01*
G01*
D17*
%TO.C,C1*%
X88120000Y-43260000D02*
X92280000Y-43260000D01*
X88120000Y-43300000D02*
X92280000Y-43300000D01*
X88121000Y-43220000D02*
X92279000Y-43220000D01*
X88123000Y-43180000D02*
X92277000Y-43180000D01*
X88126000Y-43140000D02*
X92274000Y-43140000D01*
X88129000Y-43100000D02*
X89360000Y-43100000D01*
X88133000Y-43060000D02*
X89360000Y-43060000D01*
X88138000Y-43020000D02*
X89360000Y-43020000D01*
X88144000Y-42980000D02*
X89360000Y-42980000D01*
X88150000Y-42940000D02*
X89360000Y-42940000D01*
X88158000Y-42900000D02*
X89360000Y-42900000D01*
X88166000Y-42860000D02*
X89360000Y-42860000D01*
X88175000Y-42820000D02*
X89360000Y-42820000D01*
X88184000Y-42780000D02*
X89360000Y-42780000D01*
X88195000Y-42740000D02*
X89360000Y-42740000D01*
X88206000Y-42700000D02*
X89360000Y-42700000D01*
X88218000Y-42660000D02*
X89360000Y-42660000D01*
X88232000Y-42620000D02*
X89360000Y-42620000D01*
X88246000Y-42579000D02*
X89360000Y-42579000D01*
X88260000Y-42539000D02*
X89360000Y-42539000D01*
X88276000Y-42499000D02*
X89360000Y-42499000D01*
X88293000Y-42459000D02*
X89360000Y-42459000D01*
X88311000Y-42419000D02*
X89360000Y-42419000D01*
X88330000Y-42379000D02*
X89360000Y-42379000D01*
X88349000Y-42339000D02*
X89360000Y-42339000D01*
X88370000Y-42299000D02*
X89360000Y-42299000D01*
X88392000Y-42259000D02*
X89360000Y-42259000D01*
X88415000Y-42219000D02*
X89360000Y-42219000D01*
X88440000Y-42179000D02*
X89360000Y-42179000D01*
X88465000Y-42139000D02*
X89360000Y-42139000D01*
X88492000Y-42099000D02*
X89360000Y-42099000D01*
X88520000Y-42059000D02*
X89360000Y-42059000D01*
X88550000Y-42019000D02*
X89360000Y-42019000D01*
X88581000Y-41979000D02*
X89360000Y-41979000D01*
X88613000Y-41939000D02*
X89360000Y-41939000D01*
X88648000Y-41899000D02*
X89360000Y-41899000D01*
X88684000Y-41859000D02*
X89360000Y-41859000D01*
X88722000Y-41819000D02*
X89360000Y-41819000D01*
X88762000Y-41779000D02*
X89360000Y-41779000D01*
X88804000Y-41739000D02*
X89360000Y-41739000D01*
X88805000Y-45369801D02*
X89205000Y-45369801D01*
X88849000Y-41699000D02*
X89360000Y-41699000D01*
X88896000Y-41659000D02*
X89360000Y-41659000D01*
X88946000Y-41619000D02*
X89360000Y-41619000D01*
X89000000Y-41579000D02*
X89360000Y-41579000D01*
X89005000Y-45569801D02*
X89005000Y-45169801D01*
X89058000Y-41539000D02*
X89360000Y-41539000D01*
X89120000Y-41499000D02*
X89360000Y-41499000D01*
X89187000Y-41459000D02*
X91213000Y-41459000D01*
X89260000Y-41419000D02*
X91140000Y-41419000D01*
X89341000Y-41379000D02*
X91059000Y-41379000D01*
X89432000Y-41339000D02*
X90968000Y-41339000D01*
X89536000Y-41299000D02*
X90864000Y-41299000D01*
X89663000Y-41259000D02*
X90737000Y-41259000D01*
X89830000Y-41219000D02*
X90570000Y-41219000D01*
X91040000Y-41499000D02*
X91280000Y-41499000D01*
X91040000Y-41539000D02*
X91342000Y-41539000D01*
X91040000Y-41579000D02*
X91400000Y-41579000D01*
X91040000Y-41619000D02*
X91454000Y-41619000D01*
X91040000Y-41659000D02*
X91504000Y-41659000D01*
X91040000Y-41699000D02*
X91551000Y-41699000D01*
X91040000Y-41739000D02*
X91596000Y-41739000D01*
X91040000Y-41779000D02*
X91638000Y-41779000D01*
X91040000Y-41819000D02*
X91678000Y-41819000D01*
X91040000Y-41859000D02*
X91716000Y-41859000D01*
X91040000Y-41899000D02*
X91752000Y-41899000D01*
X91040000Y-41939000D02*
X91787000Y-41939000D01*
X91040000Y-41979000D02*
X91819000Y-41979000D01*
X91040000Y-42019000D02*
X91850000Y-42019000D01*
X91040000Y-42059000D02*
X91880000Y-42059000D01*
X91040000Y-42099000D02*
X91908000Y-42099000D01*
X91040000Y-42139000D02*
X91935000Y-42139000D01*
X91040000Y-42179000D02*
X91960000Y-42179000D01*
X91040000Y-42219000D02*
X91985000Y-42219000D01*
X91040000Y-42259000D02*
X92008000Y-42259000D01*
X91040000Y-42299000D02*
X92030000Y-42299000D01*
X91040000Y-42339000D02*
X92051000Y-42339000D01*
X91040000Y-42379000D02*
X92070000Y-42379000D01*
X91040000Y-42419000D02*
X92089000Y-42419000D01*
X91040000Y-42459000D02*
X92107000Y-42459000D01*
X91040000Y-42499000D02*
X92124000Y-42499000D01*
X91040000Y-42539000D02*
X92140000Y-42539000D01*
X91040000Y-42579000D02*
X92154000Y-42579000D01*
X91040000Y-42620000D02*
X92168000Y-42620000D01*
X91040000Y-42660000D02*
X92182000Y-42660000D01*
X91040000Y-42700000D02*
X92194000Y-42700000D01*
X91040000Y-42740000D02*
X92205000Y-42740000D01*
X91040000Y-42780000D02*
X92216000Y-42780000D01*
X91040000Y-42820000D02*
X92225000Y-42820000D01*
X91040000Y-42860000D02*
X92234000Y-42860000D01*
X91040000Y-42900000D02*
X92242000Y-42900000D01*
X91040000Y-42940000D02*
X92250000Y-42940000D01*
X91040000Y-42980000D02*
X92256000Y-42980000D01*
X91040000Y-43020000D02*
X92262000Y-43020000D01*
X91040000Y-43060000D02*
X92267000Y-43060000D01*
X91040000Y-43100000D02*
X92271000Y-43100000D01*
X92320000Y-43300000D02*
G75*
G02*
X88080000Y-43300000I-2120000J0D01*
G01*
X88080000Y-43300000D02*
G75*
G02*
X92320000Y-43300000I2120000J0D01*
G01*
%TO.C,U7*%
D14*
X90000000Y-78100000D02*
X100000000Y-78100000D01*
X100000000Y-65100000D01*
X90000000Y-65100000D01*
X90000000Y-78100000D01*
X93160147Y-66900000D02*
G75*
G02*
X90439853Y-66900000I-1360147J0D01*
G01*
X90439853Y-66900000D02*
G75*
G02*
X93160147Y-66900000I1360147J0D01*
G01*
D17*
%TO.C,C7*%
X129919000Y-108620000D02*
X129919000Y-107880000D01*
X129959000Y-108787000D02*
X129959000Y-107713000D01*
X129999000Y-108914000D02*
X129999000Y-107586000D01*
X130039000Y-109018000D02*
X130039000Y-107482000D01*
X130079000Y-109109000D02*
X130079000Y-107391000D01*
X130119000Y-109190000D02*
X130119000Y-107310000D01*
X130159000Y-109263000D02*
X130159000Y-107237000D01*
X130199000Y-107410000D02*
X130199000Y-107170000D01*
X130199000Y-109330000D02*
X130199000Y-109090000D01*
X130239000Y-107410000D02*
X130239000Y-107108000D01*
X130239000Y-109392000D02*
X130239000Y-109090000D01*
X130279000Y-107410000D02*
X130279000Y-107050000D01*
X130279000Y-109450000D02*
X130279000Y-109090000D01*
X130319000Y-107410000D02*
X130319000Y-106996000D01*
X130319000Y-109504000D02*
X130319000Y-109090000D01*
X130359000Y-107410000D02*
X130359000Y-106946000D01*
X130359000Y-109554000D02*
X130359000Y-109090000D01*
X130399000Y-107410000D02*
X130399000Y-106899000D01*
X130399000Y-109601000D02*
X130399000Y-109090000D01*
X130439000Y-107410000D02*
X130439000Y-106854000D01*
X130439000Y-109646000D02*
X130439000Y-109090000D01*
X130479000Y-107410000D02*
X130479000Y-106812000D01*
X130479000Y-109688000D02*
X130479000Y-109090000D01*
X130519000Y-107410000D02*
X130519000Y-106772000D01*
X130519000Y-109728000D02*
X130519000Y-109090000D01*
X130559000Y-107410000D02*
X130559000Y-106734000D01*
X130559000Y-109766000D02*
X130559000Y-109090000D01*
X130599000Y-107410000D02*
X130599000Y-106698000D01*
X130599000Y-109802000D02*
X130599000Y-109090000D01*
X130639000Y-107410000D02*
X130639000Y-106663000D01*
X130639000Y-109837000D02*
X130639000Y-109090000D01*
X130679000Y-107410000D02*
X130679000Y-106631000D01*
X130679000Y-109869000D02*
X130679000Y-109090000D01*
X130719000Y-107410000D02*
X130719000Y-106600000D01*
X130719000Y-109900000D02*
X130719000Y-109090000D01*
X130759000Y-107410000D02*
X130759000Y-106570000D01*
X130759000Y-109930000D02*
X130759000Y-109090000D01*
X130799000Y-107410000D02*
X130799000Y-106542000D01*
X130799000Y-109958000D02*
X130799000Y-109090000D01*
X130839000Y-107410000D02*
X130839000Y-106515000D01*
X130839000Y-109985000D02*
X130839000Y-109090000D01*
X130879000Y-107410000D02*
X130879000Y-106490000D01*
X130879000Y-110010000D02*
X130879000Y-109090000D01*
X130919000Y-107410000D02*
X130919000Y-106465000D01*
X130919000Y-110035000D02*
X130919000Y-109090000D01*
X130959000Y-107410000D02*
X130959000Y-106442000D01*
X130959000Y-110058000D02*
X130959000Y-109090000D01*
X130999000Y-107410000D02*
X130999000Y-106420000D01*
X130999000Y-110080000D02*
X130999000Y-109090000D01*
X131039000Y-107410000D02*
X131039000Y-106399000D01*
X131039000Y-110101000D02*
X131039000Y-109090000D01*
X131079000Y-107410000D02*
X131079000Y-106380000D01*
X131079000Y-110120000D02*
X131079000Y-109090000D01*
X131119000Y-107410000D02*
X131119000Y-106361000D01*
X131119000Y-110139000D02*
X131119000Y-109090000D01*
X131159000Y-107410000D02*
X131159000Y-106343000D01*
X131159000Y-110157000D02*
X131159000Y-109090000D01*
X131199000Y-107410000D02*
X131199000Y-106326000D01*
X131199000Y-110174000D02*
X131199000Y-109090000D01*
X131239000Y-107410000D02*
X131239000Y-106310000D01*
X131239000Y-110190000D02*
X131239000Y-109090000D01*
X131279000Y-107410000D02*
X131279000Y-106296000D01*
X131279000Y-110204000D02*
X131279000Y-109090000D01*
X131320000Y-107410000D02*
X131320000Y-106282000D01*
X131320000Y-110218000D02*
X131320000Y-109090000D01*
X131360000Y-107410000D02*
X131360000Y-106268000D01*
X131360000Y-110232000D02*
X131360000Y-109090000D01*
X131400000Y-107410000D02*
X131400000Y-106256000D01*
X131400000Y-110244000D02*
X131400000Y-109090000D01*
X131440000Y-107410000D02*
X131440000Y-106245000D01*
X131440000Y-110255000D02*
X131440000Y-109090000D01*
X131480000Y-107410000D02*
X131480000Y-106234000D01*
X131480000Y-110266000D02*
X131480000Y-109090000D01*
X131520000Y-107410000D02*
X131520000Y-106225000D01*
X131520000Y-110275000D02*
X131520000Y-109090000D01*
X131560000Y-107410000D02*
X131560000Y-106216000D01*
X131560000Y-110284000D02*
X131560000Y-109090000D01*
X131600000Y-107410000D02*
X131600000Y-106208000D01*
X131600000Y-110292000D02*
X131600000Y-109090000D01*
X131640000Y-107410000D02*
X131640000Y-106200000D01*
X131640000Y-110300000D02*
X131640000Y-109090000D01*
X131680000Y-107410000D02*
X131680000Y-106194000D01*
X131680000Y-110306000D02*
X131680000Y-109090000D01*
X131720000Y-107410000D02*
X131720000Y-106188000D01*
X131720000Y-110312000D02*
X131720000Y-109090000D01*
X131760000Y-107410000D02*
X131760000Y-106183000D01*
X131760000Y-110317000D02*
X131760000Y-109090000D01*
X131800000Y-107410000D02*
X131800000Y-106179000D01*
X131800000Y-110321000D02*
X131800000Y-109090000D01*
X131840000Y-110324000D02*
X131840000Y-106176000D01*
X131880000Y-110327000D02*
X131880000Y-106173000D01*
X131920000Y-110329000D02*
X131920000Y-106171000D01*
X131960000Y-110330000D02*
X131960000Y-106170000D01*
X132000000Y-110330000D02*
X132000000Y-106170000D01*
X134069801Y-109645000D02*
X134069801Y-109245000D01*
X134269801Y-109445000D02*
X133869801Y-109445000D01*
X134120000Y-108250000D02*
G75*
G02*
X129880000Y-108250000I-2120000J0D01*
G01*
X129880000Y-108250000D02*
G75*
G02*
X134120000Y-108250000I2120000J0D01*
G01*
%TO.C,U4*%
X81484000Y-47190000D02*
X81484000Y-57430000D01*
X84615000Y-47190000D02*
X84615000Y-57430000D01*
X86125000Y-47190000D02*
X81484000Y-47190000D01*
X86125000Y-47190000D02*
X86125000Y-57430000D01*
X86125000Y-50460000D02*
X84615000Y-50460000D01*
X86125000Y-54161000D02*
X84615000Y-54161000D01*
X86125000Y-57430000D02*
X81484000Y-57430000D01*
%TO.C,D5*%
X34067000Y-126123500D02*
X37157000Y-126123500D01*
X34067170Y-126123500D02*
G75*
G02*
X35612462Y-120573500I1544830J2560000D01*
G01*
X35611538Y-120573500D02*
G75*
G02*
X37156830Y-126123500I462J-2990000D01*
G01*
X38112000Y-123563500D02*
G75*
G02*
X33112000Y-123563500I-2500000J0D01*
G01*
X33112000Y-123563500D02*
G75*
G02*
X38112000Y-123563500I2500000J0D01*
G01*
%TO.C,D1*%
X94540000Y-48415000D02*
X94540000Y-51585000D01*
X94540000Y-51585000D02*
X98600000Y-51585000D01*
X98600000Y-48415000D02*
X94540000Y-48415000D01*
D14*
%TO.C,J8*%
X81280000Y-68930000D02*
X81280000Y-79090000D01*
X81280000Y-68930000D02*
X88900000Y-68930000D01*
X81280000Y-79090000D02*
X88900000Y-79090000D01*
X83820000Y-74020000D02*
X88900000Y-74010000D01*
X86360000Y-68930000D02*
X81280000Y-68930000D01*
X86360000Y-79090000D02*
X86360000Y-68930000D01*
X88900000Y-79090000D02*
X88900000Y-68930000D01*
%TD*%
M02*
