M48
; DRILL file {KiCad 8.0.1} date 2024-04-01T21:08:23-0400
; FORMAT={-:-/ absolute / inch / decimal}
; #@! TF.CreationDate,2024-04-01T21:08:23-04:00
; #@! TF.GenerationSoftware,Kicad,Pcbnew,8.0.1
; #@! TF.FileFunction,Plated,1,2,PTH
FMAT,2
INCH
; #@! TA.AperFunction,Plated,PTH,ComponentDrill
T1C0.0236
; #@! TA.AperFunction,Plated,PTH,ComponentDrill
T2C0.0300
; #@! TA.AperFunction,Plated,PTH,ComponentDrill
T3C0.0315
; #@! TA.AperFunction,Plated,PTH,ComponentDrill
T4C0.0354
; #@! TA.AperFunction,Plated,PTH,ComponentDrill
T5C0.0394
; #@! TA.AperFunction,Plated,PTH,ComponentDrill
T6C0.0433
%
G90
G05
T1
X3.5512Y-1.6654
X3.5512Y-1.7441
X3.9173Y-1.7402
X3.9961Y-1.7402
X4.1339Y-1.7402
X4.2126Y-1.7402
T2
X3.3Y-2.4138
X3.3Y-2.6138
X3.3Y-2.8138
X3.3Y-3.0138
X3.5913Y-3.0236
X3.6913Y-3.0236
X3.7913Y-3.0236
X3.8913Y-3.0236
X4.0969Y-1.9457
X4.0969Y-2.0457
X4.0969Y-2.1457
X4.0969Y-2.2457
X4.0969Y-2.3457
X4.0969Y-2.4457
X4.0969Y-2.5457
X4.0969Y-2.6457
X4.1969Y-1.9457
X4.1969Y-2.0457
X4.1969Y-2.1457
X4.1969Y-2.2457
X4.1969Y-2.3457
X4.1969Y-2.4457
X4.1969Y-2.5457
X4.1969Y-2.6457
X4.2969Y-2.8457
X4.3969Y-2.8457
X4.4969Y-2.8457
X4.5969Y-2.8457
X4.6969Y-2.8457
X4.7969Y-2.8457
X4.8969Y-2.8457
X4.9969Y-2.8457
X5.0969Y-2.8457
X5.1969Y-1.9457
X5.1969Y-2.0457
X5.1969Y-2.1457
X5.1969Y-2.2457
X5.1969Y-2.3457
X5.1969Y-2.4457
X5.1969Y-2.5457
X5.1969Y-2.8457
X5.2969Y-1.9457
X5.2969Y-2.0457
X5.2969Y-2.1457
X5.2969Y-2.2457
X5.2969Y-2.3457
X5.2969Y-2.4457
X5.2969Y-2.5457
X5.5Y-1.9594
X5.5Y-2.0594
X5.5Y-2.1594
X5.5Y-2.2594
X5.6Y-1.9594
X5.6Y-2.0594
X5.6Y-2.1594
X5.6Y-2.2594
T3
X4.3581Y-2.3622
X4.3581Y-2.6622
X4.3593Y-1.822
X4.3593Y-2.122
X4.4581Y-2.3622
X4.4581Y-2.6622
X4.4593Y-1.822
X4.4593Y-2.122
X4.5581Y-2.3622
X4.5581Y-2.6622
X4.5593Y-1.822
X4.5593Y-2.122
X4.6581Y-2.3622
X4.6581Y-2.6622
X4.6593Y-1.822
X4.6593Y-2.122
X4.7581Y-2.3622
X4.7581Y-2.6622
X4.7593Y-1.822
X4.7593Y-2.122
X4.8581Y-2.3622
X4.8581Y-2.6622
X4.8593Y-1.822
X4.8593Y-2.122
X4.9581Y-2.3622
X4.9581Y-2.6622
X4.9593Y-1.822
X4.9593Y-2.122
X5.0581Y-2.3622
X5.0581Y-2.6622
X5.0593Y-1.822
X5.0593Y-2.122
T4
X3.5913Y-4.2327
X3.5913Y-4.3327
X3.9913Y-4.2327
X3.9913Y-4.3327
T5
X3.6024Y-2.4705
X3.7411Y-1.687
X3.7411Y-1.787
X3.7598Y-2.4705
X3.9341Y-2.3445
X3.9341Y-2.4445
X4.1071Y-3.0236
X4.1535Y-2.8642
X4.1913Y-3.3327
X4.2071Y-3.0236
X4.3071Y-3.0236
X4.3913Y-3.3327
X4.4071Y-3.0236
X4.6756Y-3.0236
X4.7756Y-3.0236
X4.8756Y-3.0236
X4.9756Y-3.0236
X5.4709Y-2.589
X5.4709Y-2.689
X5.4709Y-2.789
X5.4913Y-3.3327
X5.5709Y-2.589
X5.5709Y-2.689
X5.5709Y-2.789
T6
X3.262Y-1.9594
X3.262Y-2.0594
X3.262Y-2.1594
X5.1634Y-4.1441
X5.1634Y-4.3213
X5.4193Y-4.1441
X5.4193Y-4.3213
M30
