%TF.GenerationSoftware,KiCad,Pcbnew,8.0.4*%
%TF.CreationDate,2024-07-20T23:26:20-04:00*%
%TF.ProjectId,esp32-node-board-40x65_telemetry,65737033-322d-46e6-9f64-652d626f6172,rev?*%
%TF.SameCoordinates,Original*%
%TF.FileFunction,Soldermask,Top*%
%TF.FilePolarity,Negative*%
%FSLAX46Y46*%
G04 Gerber Fmt 4.6, Leading zero omitted, Abs format (unit mm)*
G04 Created by KiCad (PCBNEW 8.0.4) date 2024-07-20 23:26:20*
%MOMM*%
%LPD*%
G01*
G04 APERTURE LIST*
G04 Aperture macros list*
%AMRoundRect*
0 Rectangle with rounded corners*
0 $1 Rounding radius*
0 $2 $3 $4 $5 $6 $7 $8 $9 X,Y pos of 4 corners*
0 Add a 4 corners polygon primitive as box body*
4,1,4,$2,$3,$4,$5,$6,$7,$8,$9,$2,$3,0*
0 Add four circle primitives for the rounded corners*
1,1,$1+$1,$2,$3*
1,1,$1+$1,$4,$5*
1,1,$1+$1,$6,$7*
1,1,$1+$1,$8,$9*
0 Add four rect primitives between the rounded corners*
20,1,$1+$1,$2,$3,$4,$5,0*
20,1,$1+$1,$4,$5,$6,$7,0*
20,1,$1+$1,$6,$7,$8,$9,0*
20,1,$1+$1,$8,$9,$2,$3,0*%
G04 Aperture macros list end*
%ADD10R,1.200000X1.200000*%
%ADD11C,1.200000*%
%ADD12RoundRect,0.250001X-0.462499X-1.074999X0.462499X-1.074999X0.462499X1.074999X-0.462499X1.074999X0*%
%ADD13C,5.000000*%
%ADD14R,2.200000X1.600000*%
%ADD15RoundRect,0.250000X-0.400000X-0.625000X0.400000X-0.625000X0.400000X0.625000X-0.400000X0.625000X0*%
%ADD16R,1.800000X1.800000*%
%ADD17C,1.800000*%
%ADD18R,1.700000X1.700000*%
%ADD19O,1.700000X1.700000*%
%ADD20O,3.000000X3.500000*%
%ADD21C,3.000000*%
%ADD22C,1.524000*%
%ADD23C,1.100000*%
%ADD24R,2.030000X1.730000*%
%ADD25O,2.030000X1.730000*%
%ADD26R,1.524000X1.524000*%
%ADD27R,1.600000X1.600000*%
%ADD28O,1.600000X1.600000*%
%ADD29R,1.500000X1.500000*%
%ADD30C,1.600000*%
%ADD31R,2.000000X1.905000*%
%ADD32O,2.000000X1.905000*%
G04 APERTURE END LIST*
D10*
%TO.C,C2*%
X107000000Y-44200000D03*
D11*
X105000000Y-44200000D03*
%TD*%
D12*
%TO.C,D2*%
X95512500Y-55450000D03*
X98487500Y-55450000D03*
%TD*%
D13*
%TO.C,H3*%
X83000000Y-84250000D03*
X83000000Y-118250000D03*
X142000000Y-118250000D03*
X142000000Y-84250000D03*
%TD*%
D14*
%TO.C,C4*%
X91800000Y-50350000D03*
X88800000Y-50350000D03*
%TD*%
D15*
%TO.C,R7*%
X32062000Y-87758500D03*
X35162000Y-87758500D03*
%TD*%
D16*
%TO.C,D6*%
X34700000Y-147250000D03*
D17*
X34700000Y-144710000D03*
%TD*%
D18*
%TO.C,J22*%
X163880000Y-110850000D03*
D19*
X163880000Y-113390000D03*
X163880000Y-115930000D03*
X163880000Y-118470000D03*
%TD*%
D20*
%TO.C,J19*%
X39712000Y-97958500D03*
%TD*%
%TO.C,J15*%
X45412000Y-87058500D03*
%TD*%
D21*
%TO.C,H1*%
X142000000Y-43500000D03*
%TD*%
%TO.C,H2*%
X83250000Y-43530000D03*
%TD*%
D22*
%TO.C,J9*%
X83820000Y-61310000D03*
X83820000Y-66390000D03*
%TD*%
D20*
%TO.C,J17*%
X207300000Y-64650000D03*
%TD*%
D23*
%TO.C,J25*%
X133360000Y-137910000D03*
D24*
X131200000Y-132830000D03*
D25*
X131200000Y-135370000D03*
X131200000Y-137910000D03*
X131200000Y-140450000D03*
%TD*%
D22*
%TO.C,J1*%
X105860000Y-67150000D03*
X108400000Y-67150000D03*
X105860000Y-49370000D03*
X108400000Y-49370000D03*
X105860000Y-51910000D03*
X108400000Y-51910000D03*
X105860000Y-54450000D03*
X108400000Y-54450000D03*
X105860000Y-56990000D03*
X108400000Y-56990000D03*
X105860000Y-59530000D03*
X108400000Y-59530000D03*
X105860000Y-62070000D03*
X108400000Y-62070000D03*
X105860000Y-64610000D03*
X108400000Y-64610000D03*
X110940000Y-72230000D03*
X113480000Y-72230000D03*
X116020000Y-72230000D03*
X118560000Y-72230000D03*
X121100000Y-72230000D03*
X123640000Y-72230000D03*
X126180000Y-72230000D03*
X128720000Y-72230000D03*
X131260000Y-72230000D03*
X133800000Y-72230000D03*
X136340000Y-64610000D03*
X133800000Y-64610000D03*
X136340000Y-62070000D03*
X133800000Y-62070000D03*
X136340000Y-59530000D03*
X133800000Y-59530000D03*
X136340000Y-56990000D03*
X133800000Y-56990000D03*
X136340000Y-54450000D03*
X133800000Y-54450000D03*
X136340000Y-51910000D03*
X133800000Y-51910000D03*
X136340000Y-49370000D03*
X133800000Y-49370000D03*
%TD*%
D14*
%TO.C,C9*%
X91900000Y-56050000D03*
X88900000Y-56050000D03*
%TD*%
D10*
%TO.C,C6*%
X133250000Y-94250000D03*
D11*
X131250000Y-94250000D03*
%TD*%
D19*
%TO.C,J7*%
X91500000Y-62620000D03*
%TD*%
D22*
%TO.C,J24*%
X84500000Y-97500000D03*
X84500000Y-105120000D03*
X84500000Y-102580000D03*
X84500000Y-100040000D03*
X84500000Y-94960000D03*
D26*
X84500000Y-107660000D03*
%TD*%
D18*
%TO.C,J2*%
X95025000Y-42850000D03*
D19*
X95025000Y-45390000D03*
%TD*%
D18*
%TO.C,J6*%
X116200000Y-76225000D03*
D19*
X118740000Y-76225000D03*
X121280000Y-76225000D03*
X123820000Y-76225000D03*
%TD*%
D27*
%TO.C,U3*%
X122100000Y-67925000D03*
D28*
X122100000Y-65385000D03*
X122100000Y-62845000D03*
X122100000Y-60305000D03*
X122100000Y-57765000D03*
X122100000Y-55225000D03*
X122100000Y-52685000D03*
X122100000Y-50145000D03*
X114480000Y-50145000D03*
X114480000Y-52685000D03*
X114480000Y-55225000D03*
X114480000Y-57765000D03*
X114480000Y-60305000D03*
X114480000Y-62845000D03*
X114480000Y-65385000D03*
X114480000Y-67925000D03*
%TD*%
D18*
%TO.C,J10*%
X132920000Y-69250000D03*
D19*
X135460000Y-69250000D03*
X138000000Y-69250000D03*
X140540000Y-69250000D03*
%TD*%
D14*
%TO.C,C5*%
X129500000Y-66350000D03*
X126500000Y-66350000D03*
%TD*%
D18*
%TO.C,J21*%
X141040000Y-112110000D03*
D19*
X141040000Y-109570000D03*
%TD*%
D10*
%TO.C,C3*%
X99500000Y-44200000D03*
D11*
X101500000Y-44200000D03*
%TD*%
D18*
%TO.C,J20*%
X134320000Y-88750000D03*
D19*
X131780000Y-88750000D03*
X129240000Y-88750000D03*
X126700000Y-88750000D03*
X124160000Y-88750000D03*
X121620000Y-88750000D03*
X119080000Y-88750000D03*
X116540000Y-88750000D03*
X114000000Y-88750000D03*
X111460000Y-88750000D03*
X108920000Y-88750000D03*
X106380000Y-88750000D03*
X103840000Y-88750000D03*
X101300000Y-88750000D03*
X98760000Y-88750000D03*
X96220000Y-88750000D03*
X93680000Y-88750000D03*
X91140000Y-88750000D03*
X88600000Y-88750000D03*
X88600000Y-114150000D03*
X91140000Y-114150000D03*
X93680000Y-114150000D03*
X96220000Y-114150000D03*
X98760000Y-114150000D03*
X101300000Y-114150000D03*
X103840000Y-114150000D03*
X106380000Y-114150000D03*
X108920000Y-114150000D03*
X111460000Y-114150000D03*
X114000000Y-114150000D03*
X116540000Y-114150000D03*
X119080000Y-114150000D03*
X121620000Y-114150000D03*
X124160000Y-114150000D03*
X126700000Y-114150000D03*
X129240000Y-114150000D03*
X131780000Y-114150000D03*
X134210000Y-114150000D03*
%TD*%
D14*
%TO.C,C8*%
X95300000Y-61050000D03*
X98300000Y-61050000D03*
%TD*%
D19*
%TO.C,J18*%
X101700000Y-56950000D03*
%TD*%
D22*
%TO.C,J23*%
X103540000Y-83250000D03*
X95920000Y-83250000D03*
X98460000Y-83250000D03*
X101000000Y-83250000D03*
%TD*%
D18*
%TO.C,J5*%
X102300000Y-68790000D03*
D19*
X102300000Y-66250000D03*
%TD*%
D18*
%TO.C,J14*%
X126230000Y-44480000D03*
D19*
X126230000Y-47020000D03*
X126230000Y-49560000D03*
X128770000Y-44480000D03*
X128770000Y-47020000D03*
X128770000Y-49560000D03*
%TD*%
D22*
%TO.C,J3*%
X139700000Y-52310000D03*
X139700000Y-49770000D03*
X139700000Y-57390000D03*
X139700000Y-54850000D03*
%TD*%
D29*
%TO.C,SW1*%
X141000000Y-94250000D03*
D30*
X141000000Y-91710000D03*
X141000000Y-96790000D03*
%TD*%
D19*
%TO.C,J16*%
X132400000Y-76150000D03*
%TD*%
D10*
%TO.C,C1*%
X90200000Y-44300000D03*
D11*
X90200000Y-42300000D03*
%TD*%
D26*
%TO.C,U7*%
X91220000Y-76800000D03*
D22*
X93760000Y-76800000D03*
X96300000Y-76800000D03*
X98840000Y-76800000D03*
%TD*%
D10*
%TO.C,C7*%
X133000000Y-108250000D03*
D11*
X131000000Y-108250000D03*
%TD*%
D31*
%TO.C,U4*%
X82855000Y-49770000D03*
D32*
X82855000Y-52310000D03*
X82855000Y-54850000D03*
%TD*%
D22*
%TO.C,J4*%
X142240000Y-49770000D03*
X142240000Y-57390000D03*
X142240000Y-54850000D03*
X142240000Y-52310000D03*
%TD*%
D16*
%TO.C,D5*%
X35612000Y-124833500D03*
D17*
X35612000Y-122293500D03*
%TD*%
D12*
%TO.C,D1*%
X95512500Y-50000000D03*
X98487500Y-50000000D03*
%TD*%
D21*
%TO.C,H4*%
X142250000Y-77000000D03*
%TD*%
D22*
%TO.C,J8*%
X83820000Y-71470000D03*
X83820000Y-76550000D03*
%TD*%
M02*
