%TF.GenerationSoftware,KiCad,Pcbnew,7.0.10*%
%TF.CreationDate,2024-01-16T02:40:29-05:00*%
%TF.ProjectId,esp32-wroom-adapter,65737033-322d-4777-926f-6f6d2d616461,v1.10*%
%TF.SameCoordinates,Original*%
%TF.FileFunction,Copper,L2,Bot*%
%TF.FilePolarity,Positive*%
%FSLAX46Y46*%
G04 Gerber Fmt 4.6, Leading zero omitted, Abs format (unit mm)*
G04 Created by KiCad (PCBNEW 7.0.10) date 2024-01-16 02:40:29*
%MOMM*%
%LPD*%
G01*
G04 APERTURE LIST*
%TA.AperFunction,ComponentPad*%
%ADD10C,1.524000*%
%TD*%
%TA.AperFunction,ComponentPad*%
%ADD11R,1.905000X2.000000*%
%TD*%
%TA.AperFunction,ComponentPad*%
%ADD12O,1.905000X2.000000*%
%TD*%
%TA.AperFunction,ComponentPad*%
%ADD13R,1.200000X1.200000*%
%TD*%
%TA.AperFunction,ComponentPad*%
%ADD14C,1.200000*%
%TD*%
%TA.AperFunction,ComponentPad*%
%ADD15R,1.700000X1.700000*%
%TD*%
%TA.AperFunction,ComponentPad*%
%ADD16O,1.700000X1.700000*%
%TD*%
%TA.AperFunction,ViaPad*%
%ADD17C,0.800000*%
%TD*%
%TA.AperFunction,Conductor*%
%ADD18C,0.250000*%
%TD*%
%TA.AperFunction,Conductor*%
%ADD19C,0.500000*%
%TD*%
G04 APERTURE END LIST*
D10*
%TO.P,J2,GND,GND*%
%TO.N,GND*%
X190500000Y-124460000D03*
X193040000Y-124460000D03*
X195580000Y-124460000D03*
%TO.P,J2,SCL,SCL*%
%TO.N,Net-(J5-IO22)*%
X190500000Y-132080000D03*
X193040000Y-132080000D03*
X195580000Y-132080000D03*
%TO.P,J2,SDA,SDA*%
%TO.N,Net-(J5-IO21)*%
X190500000Y-129540000D03*
X193040000Y-129540000D03*
X195580000Y-129540000D03*
%TO.P,J2,Vcc,VCC*%
%TO.N,+3V3*%
X190500000Y-127000000D03*
X193040000Y-127000000D03*
X195580000Y-127000000D03*
%TD*%
%TO.P,BRD_25x1,*%
%TO.N,*%
X139700000Y-73660000D03*
X139700000Y-76200000D03*
X139700000Y-78740000D03*
X139700000Y-83820000D03*
X139700000Y-86360000D03*
X139700000Y-88900000D03*
X139700000Y-91440000D03*
X139700000Y-96520000D03*
X139700000Y-99060000D03*
X139700000Y-101600000D03*
X139700000Y-104140000D03*
X139700000Y-109220000D03*
X139700000Y-111760000D03*
X139700000Y-114300000D03*
X139700000Y-116840000D03*
X139700000Y-121920000D03*
X139700000Y-124460000D03*
X139700000Y-127000000D03*
X139700000Y-129540000D03*
X142240000Y-73660000D03*
X142240000Y-76200000D03*
X142240000Y-78740000D03*
X142240000Y-83820000D03*
X142240000Y-86360000D03*
X142240000Y-88900000D03*
X142240000Y-91440000D03*
X142240000Y-96520000D03*
X142240000Y-99060000D03*
X142240000Y-101600000D03*
X142240000Y-104140000D03*
X142240000Y-109220000D03*
X142240000Y-111760000D03*
X142240000Y-114300000D03*
X142240000Y-116840000D03*
X142240000Y-121920000D03*
X142240000Y-124460000D03*
X142240000Y-127000000D03*
X142240000Y-129540000D03*
X144780000Y-73660000D03*
X144780000Y-76200000D03*
X144780000Y-78740000D03*
X144780000Y-83820000D03*
X144780000Y-86360000D03*
X144780000Y-88900000D03*
X144780000Y-91440000D03*
X144780000Y-96520000D03*
X144780000Y-99060000D03*
X144780000Y-101600000D03*
X144780000Y-104140000D03*
X144780000Y-109220000D03*
X144780000Y-111760000D03*
X144780000Y-114300000D03*
X144780000Y-116840000D03*
X144780000Y-121920000D03*
X144780000Y-124460000D03*
X144780000Y-127000000D03*
X144780000Y-129540000D03*
X147320000Y-73660000D03*
X147320000Y-76200000D03*
X147320000Y-78740000D03*
X147320000Y-83820000D03*
X147320000Y-86360000D03*
X147320000Y-88900000D03*
X147320000Y-91440000D03*
X147320000Y-96520000D03*
X147320000Y-99060000D03*
X147320000Y-101600000D03*
X147320000Y-104140000D03*
X147320000Y-109220000D03*
X147320000Y-111760000D03*
X147320000Y-114300000D03*
X147320000Y-116840000D03*
X147320000Y-121920000D03*
X147320000Y-124460000D03*
X147320000Y-127000000D03*
X147320000Y-129540000D03*
X149860000Y-73660000D03*
X149860000Y-76200000D03*
X149860000Y-78740000D03*
X149860000Y-83820000D03*
X149860000Y-86360000D03*
X149860000Y-88900000D03*
X149860000Y-91440000D03*
X149860000Y-96520000D03*
X149860000Y-99060000D03*
X149860000Y-101600000D03*
X149860000Y-104140000D03*
X149860000Y-109220000D03*
X149860000Y-111760000D03*
X149860000Y-114300000D03*
X149860000Y-116840000D03*
X149860000Y-121920000D03*
X149860000Y-124460000D03*
X149860000Y-127000000D03*
X149860000Y-129540000D03*
X157480000Y-96520000D03*
X157480000Y-99060000D03*
X157480000Y-101600000D03*
X157480000Y-104140000D03*
X157480000Y-109220000D03*
X157480000Y-111760000D03*
X157480000Y-114300000D03*
X157480000Y-116840000D03*
X157480000Y-121920000D03*
X157480000Y-124460000D03*
X157480000Y-127000000D03*
X157480000Y-129540000D03*
X160020000Y-96520000D03*
X160020000Y-99060000D03*
X160020000Y-101600000D03*
X160020000Y-104140000D03*
X160020000Y-109220000D03*
X160020000Y-111760000D03*
X160020000Y-114300000D03*
X160020000Y-116840000D03*
X160020000Y-121920000D03*
X160020000Y-124460000D03*
X160020000Y-127000000D03*
X160020000Y-129540000D03*
X162560000Y-96520000D03*
X162560000Y-99060000D03*
X162560000Y-101600000D03*
X162560000Y-104140000D03*
X162560000Y-109220000D03*
X162560000Y-111760000D03*
X162560000Y-114300000D03*
X162560000Y-116840000D03*
X162560000Y-121920000D03*
X162560000Y-124460000D03*
X162560000Y-127000000D03*
X162560000Y-129540000D03*
X165100000Y-96520000D03*
X165100000Y-99060000D03*
X165100000Y-101600000D03*
X165100000Y-104140000D03*
X165100000Y-109220000D03*
X165100000Y-111760000D03*
X165100000Y-114300000D03*
X165100000Y-116840000D03*
X165100000Y-121920000D03*
X165100000Y-124460000D03*
X165100000Y-127000000D03*
X165100000Y-129540000D03*
X167640000Y-96520000D03*
X167640000Y-99060000D03*
X167640000Y-101600000D03*
X167640000Y-104140000D03*
X167640000Y-109220000D03*
X167640000Y-111760000D03*
X167640000Y-114300000D03*
X167640000Y-116840000D03*
X167640000Y-121920000D03*
X167640000Y-124460000D03*
X167640000Y-127000000D03*
X167640000Y-129540000D03*
%TO.P,BRD_25x1,1,P*%
%TO.N,unconnected-(BRD_25x1-P-Pad1)*%
X157480000Y-71120000D03*
X160020000Y-71120000D03*
X162560000Y-71120000D03*
X165100000Y-71120000D03*
X167640000Y-71120000D03*
%TO.P,BRD_25x1,2,P*%
%TO.N,unconnected-(BRD_25x1-P-Pad2)*%
X157480000Y-73660000D03*
X160020000Y-73660000D03*
X162560000Y-73660000D03*
X165100000Y-73660000D03*
X167640000Y-73660000D03*
%TO.P,BRD_25x1,3,P*%
%TO.N,unconnected-(BRD_25x1-P-Pad3)*%
X157480000Y-76200000D03*
X160020000Y-76200000D03*
X162560000Y-76200000D03*
X165100000Y-76200000D03*
X167640000Y-76200000D03*
%TO.P,BRD_25x1,3V3,3V3*%
%TO.N,+3V3*%
X157480000Y-66040000D03*
X160020000Y-66040000D03*
X162560000Y-66040000D03*
X165100000Y-66040000D03*
X167640000Y-66040000D03*
%TO.P,BRD_25x1,4,P*%
%TO.N,unconnected-(BRD_25x1-P-Pad4)*%
X157480000Y-78740000D03*
X160020000Y-78740000D03*
X162560000Y-78740000D03*
X165100000Y-78740000D03*
X167640000Y-78740000D03*
%TO.P,BRD_25x1,5,P*%
%TO.N,unconnected-(BRD_25x1-P-Pad5)*%
X157480000Y-81280000D03*
X160020000Y-81280000D03*
X162560000Y-81280000D03*
X165100000Y-81280000D03*
X167640000Y-81280000D03*
%TO.P,BRD_25x1,5V,5V*%
%TO.N,+5V*%
X139700000Y-66040000D03*
X142240000Y-66040000D03*
X144780000Y-66040000D03*
X147320000Y-66040000D03*
X149860000Y-66040000D03*
%TO.P,BRD_25x1,6,P*%
%TO.N,unconnected-(BRD_25x1-P-Pad6)*%
X157480000Y-83820000D03*
X160020000Y-83820000D03*
X162560000Y-83820000D03*
X165100000Y-83820000D03*
X167640000Y-83820000D03*
%TO.P,BRD_25x1,7,P*%
%TO.N,unconnected-(BRD_25x1-P-Pad7)*%
X157480000Y-86360000D03*
X160020000Y-86360000D03*
X162560000Y-86360000D03*
X165100000Y-86360000D03*
X167640000Y-86360000D03*
%TO.P,BRD_25x1,8,P*%
%TO.N,unconnected-(BRD_25x1-P-Pad8)*%
X157480000Y-88900000D03*
X160020000Y-88900000D03*
X162560000Y-88900000D03*
X165100000Y-88900000D03*
X167640000Y-88900000D03*
%TO.P,BRD_25x1,9,P*%
%TO.N,unconnected-(BRD_25x1-P-Pad9)*%
X157480000Y-91440000D03*
X160020000Y-91440000D03*
X162560000Y-91440000D03*
X165100000Y-91440000D03*
X167640000Y-91440000D03*
%TO.P,BRD_25x1,10,P*%
%TO.N,unconnected-(BRD_25x1-P-Pad10)*%
X157480000Y-93980000D03*
X160020000Y-93980000D03*
X162560000Y-93980000D03*
X165100000Y-93980000D03*
X167640000Y-93980000D03*
%TO.P,BRD_25x1,15,P*%
%TO.N,unconnected-(BRD_25x1-P-Pad15)*%
X157480000Y-106680000D03*
X160020000Y-106680000D03*
X162560000Y-106680000D03*
X165100000Y-106680000D03*
X167640000Y-106680000D03*
%TO.P,BRD_25x1,20,P*%
%TO.N,unconnected-(BRD_25x1-P-Pad20)*%
X157480000Y-119380000D03*
X160020000Y-119380000D03*
X162560000Y-119380000D03*
X165100000Y-119380000D03*
X167640000Y-119380000D03*
%TO.P,BRD_25x1,25,P*%
%TO.N,unconnected-(BRD_25x1-P-Pad25)*%
X157480000Y-132080000D03*
X160020000Y-132080000D03*
X162560000Y-132080000D03*
X165100000Y-132080000D03*
X167640000Y-132080000D03*
%TO.P,BRD_25x1,26,P*%
%TO.N,unconnected-(BRD_25x1-P-Pad26)*%
X139700000Y-71120000D03*
X142240000Y-71120000D03*
X144780000Y-71120000D03*
X147320000Y-71120000D03*
X149860000Y-71120000D03*
%TO.P,BRD_25x1,30,P*%
%TO.N,unconnected-(BRD_25x1-P-Pad30)*%
X139700000Y-81280000D03*
X142240000Y-81280000D03*
X144780000Y-81280000D03*
X147320000Y-81280000D03*
X149860000Y-81280000D03*
%TO.P,BRD_25x1,35,P*%
%TO.N,unconnected-(BRD_25x1-P-Pad35)*%
X139700000Y-93980000D03*
X142240000Y-93980000D03*
X144780000Y-93980000D03*
X147320000Y-93980000D03*
X149860000Y-93980000D03*
%TO.P,BRD_25x1,40,P*%
%TO.N,unconnected-(BRD_25x1-P-Pad40)*%
X139700000Y-106680000D03*
X142240000Y-106680000D03*
X144780000Y-106680000D03*
X147320000Y-106680000D03*
X149860000Y-106680000D03*
%TO.P,BRD_25x1,45,P*%
%TO.N,unconnected-(BRD_25x1-P-Pad45)*%
X139700000Y-119380000D03*
X142240000Y-119380000D03*
X144780000Y-119380000D03*
X147320000Y-119380000D03*
X149860000Y-119380000D03*
%TO.P,BRD_25x1,50,P*%
%TO.N,unconnected-(BRD_25x1-P-Pad50)*%
X139700000Y-132080000D03*
X142240000Y-132080000D03*
X144780000Y-132080000D03*
X147320000Y-132080000D03*
X149860000Y-132080000D03*
%TO.P,BRD_25x1,GND,GND*%
%TO.N,GND*%
X137160000Y-71120000D03*
X137160000Y-73660000D03*
X137160000Y-76200000D03*
X137160000Y-78740000D03*
X137160000Y-81280000D03*
X137160000Y-83820000D03*
X137160000Y-86360000D03*
X137160000Y-88900000D03*
X137160000Y-91440000D03*
X137160000Y-93980000D03*
X137160000Y-96520000D03*
X137160000Y-99060000D03*
X137160000Y-101600000D03*
X137160000Y-104140000D03*
X137160000Y-106680000D03*
X137160000Y-109220000D03*
X137160000Y-111760000D03*
X137160000Y-114300000D03*
X137160000Y-116840000D03*
X137160000Y-119380000D03*
X137160000Y-121920000D03*
X137160000Y-124460000D03*
X137160000Y-127000000D03*
X137160000Y-129540000D03*
X137160000Y-132080000D03*
X139700000Y-63500000D03*
X142240000Y-63500000D03*
X144780000Y-63500000D03*
X147320000Y-63500000D03*
X149860000Y-63500000D03*
X157480000Y-63500000D03*
X160020000Y-63500000D03*
X162560000Y-63500000D03*
X165100000Y-63500000D03*
X167640000Y-63500000D03*
X172720000Y-71120000D03*
X172720000Y-73660000D03*
X172720000Y-76200000D03*
X172720000Y-78740000D03*
X172720000Y-81280000D03*
X172720000Y-83820000D03*
X172720000Y-86360000D03*
X172720000Y-88900000D03*
X172720000Y-91440000D03*
X172720000Y-93980000D03*
X172720000Y-96520000D03*
X172720000Y-99060000D03*
X172720000Y-101600000D03*
X172720000Y-104140000D03*
X172720000Y-106680000D03*
X172720000Y-109220000D03*
X172720000Y-111760000D03*
X172720000Y-114300000D03*
X172720000Y-116840000D03*
X172720000Y-119380000D03*
X172720000Y-121920000D03*
X172720000Y-124460000D03*
X172720000Y-127000000D03*
X172720000Y-129540000D03*
X172720000Y-132080000D03*
%TO.P,BRD_25x1,VCC,Vcc*%
%TO.N,unconnected-(BRD_25x1-Vcc-PadVCC)*%
X134620000Y-71120000D03*
X134620000Y-73660000D03*
X134620000Y-76200000D03*
X134620000Y-78740000D03*
X134620000Y-81280000D03*
X134620000Y-83820000D03*
X134620000Y-86360000D03*
X134620000Y-88900000D03*
X134620000Y-91440000D03*
X134620000Y-93980000D03*
X134620000Y-96520000D03*
X134620000Y-99060000D03*
X134620000Y-101600000D03*
X134620000Y-104140000D03*
X134620000Y-106680000D03*
X134620000Y-109220000D03*
X134620000Y-111760000D03*
X134620000Y-114300000D03*
X134620000Y-116840000D03*
X134620000Y-119380000D03*
X134620000Y-121920000D03*
X134620000Y-124460000D03*
X134620000Y-127000000D03*
X134620000Y-129540000D03*
X134620000Y-132080000D03*
X170180000Y-71120000D03*
X170180000Y-73660000D03*
X170180000Y-76200000D03*
X170180000Y-78740000D03*
X170180000Y-81280000D03*
X170180000Y-83820000D03*
X170180000Y-86360000D03*
X170180000Y-88900000D03*
X170180000Y-91440000D03*
X170180000Y-93980000D03*
X170180000Y-96520000D03*
X170180000Y-99060000D03*
X170180000Y-101600000D03*
X170180000Y-104140000D03*
X170180000Y-106680000D03*
X170180000Y-109220000D03*
X170180000Y-111760000D03*
X170180000Y-114300000D03*
X170180000Y-116840000D03*
X170180000Y-119380000D03*
X170180000Y-121920000D03*
X170180000Y-124460000D03*
X170180000Y-127000000D03*
X170180000Y-129540000D03*
X170180000Y-132080000D03*
%TD*%
D11*
%TO.P,U2,1,VI*%
%TO.N,Net-(J1-Pin_1)*%
X147320000Y-55880000D03*
D12*
%TO.P,U2,2,GND*%
%TO.N,GND*%
X149860000Y-55880000D03*
%TO.P,U2,3,VO*%
%TO.N,+5V*%
X152400000Y-55880000D03*
%TD*%
D10*
%TO.P,J3,GND,GND*%
%TO.N,GND*%
X180340000Y-124460000D03*
X182880000Y-124460000D03*
X185420000Y-124460000D03*
%TO.P,J3,SCL,SCL*%
%TO.N,Net-(J5-IO22)*%
X180340000Y-132080000D03*
X182880000Y-132080000D03*
X185420000Y-132080000D03*
%TO.P,J3,SDA,SDA*%
%TO.N,Net-(J5-IO21)*%
X180340000Y-129540000D03*
X182880000Y-129540000D03*
X185420000Y-129540000D03*
%TO.P,J3,Vcc,VCC*%
%TO.N,+3V3*%
X180340000Y-127000000D03*
X182880000Y-127000000D03*
X185420000Y-127000000D03*
%TD*%
%TO.P,J4,BUSY,BUSY*%
%TO.N,Net-(J5-IO4)*%
X223520000Y-109220000D03*
%TO.P,J4,CLK,CLK*%
%TO.N,Net-(J5-IO18)*%
X223520000Y-99060000D03*
%TO.P,J4,CS,CS*%
%TO.N,Net-(J5-IO5)*%
X223520000Y-101600000D03*
%TO.P,J4,DC,DC*%
%TO.N,Net-(J5-IO17)*%
X223520000Y-104140000D03*
%TO.P,J4,DIN,DIN*%
%TO.N,Net-(J5-IO23)*%
X223520000Y-96520000D03*
%TO.P,J4,GND,GND*%
%TO.N,GND*%
X223520000Y-93980000D03*
%TO.P,J4,RST,RST*%
%TO.N,Net-(J5-IO16)*%
X223520000Y-106680000D03*
%TO.P,J4,Vcc,Vcc*%
%TO.N,+3V3*%
X223520000Y-91440000D03*
%TD*%
%TO.P,J6,3V3,3V3*%
%TO.N,+3V3*%
X220980000Y-55880000D03*
%TO.P,J6,GND,GND*%
%TO.N,GND*%
X220980000Y-53340000D03*
%TO.P,J6,RXD,RXD*%
%TO.N,Net-(U1-RXD0{slash}IO3)*%
X220980000Y-60960000D03*
%TO.P,J6,TXD,TXD*%
%TO.N,Net-(U1-TXD0{slash}IO1)*%
X220980000Y-58420000D03*
%TD*%
D11*
%TO.P,U3,1,VI*%
%TO.N,Net-(J1-Pin_1)*%
X147320000Y-48260000D03*
D12*
%TO.P,U3,2,GND*%
%TO.N,GND*%
X149860000Y-48260000D03*
%TO.P,U3,3,VO*%
%TO.N,+3V3*%
X152400000Y-48260000D03*
%TD*%
D13*
%TO.P,C3,1*%
%TO.N,Net-(J1-Pin_1)*%
X139700000Y-50260000D03*
D14*
%TO.P,C3,2*%
%TO.N,GND*%
X139700000Y-48260000D03*
%TD*%
D13*
%TO.P,C2,1*%
%TO.N,+5V*%
X160020000Y-55340000D03*
D14*
%TO.P,C2,2*%
%TO.N,GND*%
X160020000Y-53340000D03*
%TD*%
D10*
%TO.P,J5,6,IO34*%
%TO.N,Net-(J5-IO34)*%
X195580000Y-101600000D03*
%TO.P,J5,7,IO35*%
%TO.N,Net-(J5-IO35)*%
X182880000Y-106680000D03*
%TO.P,J5,8,IO32*%
%TO.N,Net-(J5-IO32)*%
X193040000Y-101600000D03*
%TO.P,J5,9,IO33*%
%TO.N,Net-(J5-IO33)*%
X185420000Y-101600000D03*
%TO.P,J5,10,IO25*%
%TO.N,Net-(J5-IO25)*%
X190500000Y-106680000D03*
%TO.P,J5,11,IO26*%
%TO.N,Net-(J5-IO26)*%
X182880000Y-101600000D03*
%TO.P,J5,12,IO27*%
%TO.N,Net-(J5-IO27)*%
X190500000Y-101600000D03*
%TO.P,J5,13,IO14*%
%TO.N,Net-(J5-IO14)*%
X185420000Y-106680000D03*
%TO.P,J5,14,IO12*%
%TO.N,Net-(J5-IO12)*%
X187960000Y-101600000D03*
%TO.P,J5,16,IO13*%
%TO.N,Net-(J5-IO13)*%
X187960000Y-106680000D03*
%TO.P,J5,17,SD2*%
%TO.N,Net-(J5-SD2)*%
X195580000Y-111760000D03*
%TO.P,J5,18,SD3*%
%TO.N,Net-(J5-SD3)*%
X200660000Y-111760000D03*
%TO.P,J5,19,CMD*%
%TO.N,Net-(J5-CMD)*%
X205740000Y-111760000D03*
%TO.P,J5,20,CLK*%
%TO.N,Net-(J5-CLK)*%
X210820000Y-111760000D03*
%TO.P,J5,21,SD0*%
%TO.N,Net-(J5-SD0)*%
X185420000Y-111760000D03*
%TO.P,J5,22,SD1*%
%TO.N,Net-(J5-SD1)*%
X190500000Y-111760000D03*
%TO.P,J5,23,IO15*%
%TO.N,Net-(J5-IO15)*%
X193040000Y-106680000D03*
%TO.P,J5,24,IO2*%
%TO.N,Net-(J5-IO2)*%
X213360000Y-106680000D03*
%TO.P,J5,25,IO0*%
%TO.N,Net-(J5-IO0)*%
X210820000Y-101600000D03*
%TO.P,J5,26,IO4*%
%TO.N,Net-(J5-IO4)*%
X203200000Y-101600000D03*
%TO.P,J5,27,IO16*%
%TO.N,Net-(J5-IO16)*%
X208280000Y-101600000D03*
%TO.P,J5,28,IO17*%
%TO.N,Net-(J5-IO17)*%
X200660000Y-101600000D03*
%TO.P,J5,29,IO5*%
%TO.N,Net-(J5-IO5)*%
X205740000Y-101600000D03*
%TO.P,J5,30,IO18*%
%TO.N,Net-(J5-IO18)*%
X198120000Y-101600000D03*
%TO.P,J5,31,IO19*%
%TO.N,Net-(J5-IO19)*%
X213360000Y-101600000D03*
%TO.P,J5,33,IO21*%
%TO.N,Net-(J5-IO21)*%
X215900000Y-101600000D03*
%TO.P,J5,36,IO22*%
%TO.N,Net-(J5-IO22)*%
X195580000Y-106680000D03*
%TO.P,J5,37,IO23*%
%TO.N,Net-(J5-IO23)*%
X215900000Y-106680000D03*
%TD*%
D15*
%TO.P,J1,1,Pin_1*%
%TO.N,Net-(J1-Pin_1)*%
X134620000Y-50800000D03*
D16*
%TO.P,J1,2,Pin_2*%
%TO.N,GND*%
X134620000Y-48260000D03*
%TD*%
D13*
%TO.P,C1,1*%
%TO.N,+3V3*%
X160020000Y-45720000D03*
D14*
%TO.P,C1,2*%
%TO.N,GND*%
X160020000Y-47720000D03*
%TD*%
D10*
%TO.P,J7,4,SENSOR_VP*%
%TO.N,Net-(J7-SENSOR_VP)*%
X177800000Y-55880000D03*
%TO.P,J7,5,SENSOR_VN*%
%TO.N,Net-(J7-SENSOR_VN)*%
X177800000Y-58420000D03*
%TD*%
%TO.P,U1,*%
%TO.N,*%
X185420000Y-71120000D03*
X185420000Y-73660000D03*
X185420000Y-76200000D03*
X185420000Y-78740000D03*
X187960000Y-71120000D03*
X187960000Y-73660000D03*
X187960000Y-76200000D03*
X187960000Y-78740000D03*
X190500000Y-76200000D03*
X193040000Y-76200000D03*
X195580000Y-76200000D03*
X198120000Y-76200000D03*
X200660000Y-76200000D03*
X203200000Y-76200000D03*
X205740000Y-76200000D03*
X208280000Y-76200000D03*
X210820000Y-76200000D03*
X213360000Y-71120000D03*
X213360000Y-73660000D03*
X213360000Y-76200000D03*
X213360000Y-78740000D03*
X215900000Y-71120000D03*
X215900000Y-73660000D03*
X215900000Y-76200000D03*
%TO.P,U1,1,GND*%
%TO.N,GND*%
X185420000Y-53340000D03*
%TO.P,U1,2,VDD*%
%TO.N,+3V3*%
X187960000Y-53340000D03*
%TO.P,U1,3,EN*%
%TO.N,Net-(J5-EN)*%
X185420000Y-55880000D03*
%TO.P,U1,4,SENSOR_VP*%
%TO.N,Net-(J7-SENSOR_VP)*%
X187960000Y-55880000D03*
%TO.P,U1,5,SENSOR_VN*%
%TO.N,Net-(J7-SENSOR_VN)*%
X185420000Y-58420000D03*
%TO.P,U1,6,IO34*%
%TO.N,Net-(J5-IO34)*%
X187960000Y-58420000D03*
%TO.P,U1,7,IO35*%
%TO.N,Net-(J5-IO35)*%
X185420000Y-60960000D03*
%TO.P,U1,8,IO32*%
%TO.N,Net-(J5-IO32)*%
X187960000Y-60960000D03*
%TO.P,U1,9,IO33*%
%TO.N,Net-(J5-IO33)*%
X185420000Y-63500000D03*
%TO.P,U1,10,IO25*%
%TO.N,Net-(J5-IO25)*%
X187960000Y-63500000D03*
%TO.P,U1,11,IO26*%
%TO.N,Net-(J5-IO26)*%
X185420000Y-66040000D03*
%TO.P,U1,12,IO27*%
%TO.N,Net-(J5-IO27)*%
X187960000Y-66040000D03*
%TO.P,U1,13,IO14*%
%TO.N,Net-(J5-IO14)*%
X185420000Y-68580000D03*
%TO.P,U1,14,IO12*%
%TO.N,Net-(J5-IO12)*%
X187960000Y-68580000D03*
%TO.P,U1,25,IO0*%
%TO.N,Net-(J5-IO0)*%
X215900000Y-68580000D03*
%TO.P,U1,26,IO4*%
%TO.N,Net-(J5-IO4)*%
X213360000Y-68580000D03*
%TO.P,U1,27,IO16*%
%TO.N,Net-(J5-IO16)*%
X215900000Y-66040000D03*
%TO.P,U1,28,IO17*%
%TO.N,Net-(J5-IO17)*%
X213360000Y-66040000D03*
%TO.P,U1,29,IO5*%
%TO.N,Net-(J5-IO5)*%
X215900000Y-63500000D03*
%TO.P,U1,30,IO18*%
%TO.N,Net-(J5-IO18)*%
X213360000Y-63500000D03*
%TO.P,U1,31,IO19*%
%TO.N,Net-(J5-IO19)*%
X215900000Y-60960000D03*
%TO.P,U1,32,NC*%
%TO.N,unconnected-(U1-NC-Pad32)*%
X213360000Y-60960000D03*
%TO.P,U1,33,IO21*%
%TO.N,Net-(J5-IO21)*%
X215900000Y-58420000D03*
%TO.P,U1,34,RXD0/IO3*%
%TO.N,Net-(U1-RXD0{slash}IO3)*%
X213360000Y-58420000D03*
%TO.P,U1,35,TXD0/IO1*%
%TO.N,Net-(U1-TXD0{slash}IO1)*%
X215900000Y-55880000D03*
%TO.P,U1,36,IO22*%
%TO.N,Net-(J5-IO22)*%
X213360000Y-55880000D03*
%TO.P,U1,37,IO23*%
%TO.N,Net-(J5-IO23)*%
X215900000Y-53340000D03*
%TO.P,U1,38,GND*%
%TO.N,GND*%
X213360000Y-53340000D03*
%TO.P,U1,41*%
%TO.N,N/C*%
X190500000Y-78740000D03*
X193040000Y-78740000D03*
X195580000Y-78740000D03*
X198120000Y-78740000D03*
X200660000Y-78740000D03*
X203200000Y-78740000D03*
X205740000Y-78740000D03*
X208280000Y-78740000D03*
X210820000Y-78740000D03*
%TD*%
D17*
%TO.N,Net-(J5-IO18)*%
X206827000Y-86360000D03*
%TO.N,Net-(J5-IO5)*%
X220980000Y-68580000D03*
%TO.N,Net-(J5-IO17)*%
X208280000Y-88900000D03*
%TO.N,Net-(J5-IO23)*%
X220980000Y-66040000D03*
%TD*%
D18*
%TO.N,Net-(J5-IO22)*%
X187960000Y-111760000D02*
X187960000Y-132080000D01*
X193040000Y-109220000D02*
X190500000Y-109220000D01*
X195580000Y-106680000D02*
X193040000Y-109220000D01*
X180340000Y-132080000D02*
X187960000Y-132080000D01*
X190500000Y-109220000D02*
X187960000Y-111760000D01*
X187960000Y-132080000D02*
X195580000Y-132080000D01*
%TO.N,Net-(J5-IO21)*%
X215900000Y-101600000D02*
X208280000Y-109220000D01*
X205740000Y-129540000D02*
X195580000Y-129540000D01*
X208280000Y-109220000D02*
X208280000Y-127000000D01*
X208280000Y-127000000D02*
X205740000Y-129540000D01*
%TO.N,Net-(J5-IO18)*%
X219527000Y-99060000D02*
X223520000Y-99060000D01*
X206827000Y-86360000D02*
X219527000Y-99060000D01*
%TO.N,Net-(J5-IO5)*%
X220980000Y-68580000D02*
X215900000Y-63500000D01*
%TO.N,Net-(J5-IO17)*%
X208280000Y-91440000D02*
X220980000Y-104140000D01*
X208280000Y-88900000D02*
X208280000Y-91440000D01*
X220980000Y-104140000D02*
X223520000Y-104140000D01*
%TO.N,Net-(J5-IO23)*%
X215900000Y-106680000D02*
X216987000Y-107767000D01*
X220980000Y-66040000D02*
X216987000Y-62047000D01*
X216987000Y-62047000D02*
X216987000Y-54427000D01*
X223970251Y-107767000D02*
X224607000Y-107130251D01*
X216987000Y-54427000D02*
X215900000Y-53340000D01*
X216987000Y-107767000D02*
X223970251Y-107767000D01*
X224607000Y-97607000D02*
X223520000Y-96520000D01*
X224607000Y-107130251D02*
X224607000Y-97607000D01*
D19*
%TO.N,GND*%
X160020000Y-53340000D02*
X160020000Y-47720000D01*
X137160000Y-66040000D02*
X137160000Y-71120000D01*
X213360000Y-53340000D02*
X211680000Y-51660000D01*
X149860000Y-63500000D02*
X139700000Y-63500000D01*
X176940000Y-51660000D02*
X187100000Y-51660000D01*
X139700000Y-48260000D02*
X139700000Y-45720000D01*
X149860000Y-53340000D02*
X137160000Y-53340000D01*
X185420000Y-53340000D02*
X187100000Y-51660000D01*
X172720000Y-55880000D02*
X176940000Y-51660000D01*
D18*
X219300000Y-51660000D02*
X218440000Y-51660000D01*
D19*
X137160000Y-53340000D02*
X137160000Y-63500000D01*
X149860000Y-45720000D02*
X149860000Y-48260000D01*
X149860000Y-48260000D02*
X149860000Y-55880000D01*
X218440000Y-51660000D02*
X221840000Y-51660000D01*
X170180000Y-53340000D02*
X172720000Y-55880000D01*
X137160000Y-132080000D02*
X137160000Y-134620000D01*
X172720000Y-63500000D02*
X157480000Y-63500000D01*
X221840000Y-51660000D02*
X225610000Y-55430000D01*
X172720000Y-134620000D02*
X172720000Y-132080000D01*
X225610000Y-55430000D02*
X225610000Y-91890000D01*
X139700000Y-63500000D02*
X137160000Y-63500000D01*
X172720000Y-71120000D02*
X172720000Y-66040000D01*
X149860000Y-50800000D02*
X149860000Y-48260000D01*
X160020000Y-53340000D02*
X170180000Y-53340000D01*
X149860000Y-48260000D02*
X149860000Y-53340000D01*
X172720000Y-55880000D02*
X172720000Y-71120000D01*
D18*
X220980000Y-53340000D02*
X219300000Y-51660000D01*
D19*
X134620000Y-48260000D02*
X139700000Y-48260000D01*
X172720000Y-132080000D02*
X172720000Y-71120000D01*
X172720000Y-63500000D02*
X172720000Y-55880000D01*
X225610000Y-91890000D02*
X223520000Y-93980000D01*
D18*
X211680000Y-51660000D02*
X210820000Y-51660000D01*
D19*
X139700000Y-45720000D02*
X149860000Y-45720000D01*
X137160000Y-134620000D02*
X172720000Y-134620000D01*
X187100000Y-51660000D02*
X210820000Y-51660000D01*
X137160000Y-63500000D02*
X137160000Y-66040000D01*
X137160000Y-71120000D02*
X137160000Y-132080000D01*
X210820000Y-51660000D02*
X218440000Y-51660000D01*
X172720000Y-66040000D02*
X172720000Y-63500000D01*
D18*
%TO.N,unconnected-(BRD_25x1-P-Pad1)*%
X157480000Y-71120000D02*
X167640000Y-71120000D01*
%TO.N,unconnected-(BRD_25x1-P-Pad2)*%
X167640000Y-73660000D02*
X157480000Y-73660000D01*
%TO.N,unconnected-(BRD_25x1-P-Pad3)*%
X157480000Y-76200000D02*
X167640000Y-76200000D01*
%TO.N,unconnected-(BRD_25x1-P-Pad4)*%
X157480000Y-78740000D02*
X167640000Y-78740000D01*
%TO.N,unconnected-(BRD_25x1-P-Pad5)*%
X157480000Y-81280000D02*
X167640000Y-81280000D01*
%TO.N,unconnected-(BRD_25x1-P-Pad6)*%
X157480000Y-83820000D02*
X167640000Y-83820000D01*
%TO.N,unconnected-(BRD_25x1-P-Pad7)*%
X157480000Y-86360000D02*
X167640000Y-86360000D01*
%TO.N,unconnected-(BRD_25x1-P-Pad8)*%
X157480000Y-88900000D02*
X167640000Y-88900000D01*
%TO.N,unconnected-(BRD_25x1-P-Pad9)*%
X157480000Y-91440000D02*
X167640000Y-91440000D01*
%TO.N,unconnected-(BRD_25x1-P-Pad10)*%
X157480000Y-93980000D02*
X167640000Y-93980000D01*
%TO.N,unconnected-(BRD_25x1-P-Pad15)*%
X157480000Y-106680000D02*
X167640000Y-106680000D01*
%TO.N,unconnected-(BRD_25x1-P-Pad20)*%
X157480000Y-119380000D02*
X167640000Y-119380000D01*
%TO.N,unconnected-(BRD_25x1-P-Pad25)*%
X157480000Y-132080000D02*
X167640000Y-132080000D01*
%TO.N,unconnected-(BRD_25x1-P-Pad26)*%
X139700000Y-71120000D02*
X149860000Y-71120000D01*
%TO.N,unconnected-(BRD_25x1-P-Pad30)*%
X139700000Y-81280000D02*
X149860000Y-81280000D01*
%TO.N,unconnected-(BRD_25x1-P-Pad35)*%
X149860000Y-93980000D02*
X139700000Y-93980000D01*
%TO.N,unconnected-(BRD_25x1-P-Pad40)*%
X139700000Y-106680000D02*
X149860000Y-106680000D01*
%TO.N,unconnected-(BRD_25x1-P-Pad45)*%
X139700000Y-119380000D02*
X149860000Y-119380000D01*
%TO.N,unconnected-(BRD_25x1-P-Pad50)*%
X139700000Y-132080000D02*
X149860000Y-132080000D01*
%TD*%
M02*
