%TF.GenerationSoftware,KiCad,Pcbnew,9.0.6*%
%TF.CreationDate,2026-02-23T21:26:52-05:00*%
%TF.ProjectId,Class AB Stereo Amp SMD,436c6173-7320-4414-9220-53746572656f,rev?*%
%TF.SameCoordinates,Original*%
%TF.FileFunction,Copper,L2,Bot*%
%TF.FilePolarity,Positive*%
%FSLAX46Y46*%
G04 Gerber Fmt 4.6, Leading zero omitted, Abs format (unit mm)*
G04 Created by KiCad (PCBNEW 9.0.6) date 2026-02-23 21:26:52*
%MOMM*%
%LPD*%
G01*
G04 APERTURE LIST*
G04 Aperture macros list*
%AMFreePoly0*
4,1,6,1.000000,0.000000,0.500000,-0.750000,-0.500000,-0.750000,-0.500000,0.750000,0.500000,0.750000,1.000000,0.000000,1.000000,0.000000,$1*%
%AMFreePoly1*
4,1,6,0.500000,-0.750000,-0.650000,-0.750000,-0.150000,0.000000,-0.650000,0.750000,0.500000,0.750000,0.500000,-0.750000,0.500000,-0.750000,$1*%
G04 Aperture macros list end*
%TA.AperFunction,ComponentPad*%
%ADD10R,2.600000X2.600000*%
%TD*%
%TA.AperFunction,ComponentPad*%
%ADD11C,2.600000*%
%TD*%
%TA.AperFunction,ComponentPad*%
%ADD12C,1.950000*%
%TD*%
%TA.AperFunction,ComponentPad*%
%ADD13C,2.000000*%
%TD*%
%TA.AperFunction,ComponentPad*%
%ADD14R,1.980000X3.960000*%
%TD*%
%TA.AperFunction,ComponentPad*%
%ADD15O,1.980000X3.960000*%
%TD*%
%TA.AperFunction,ComponentPad*%
%ADD16O,2.200000X1.200000*%
%TD*%
%TA.AperFunction,ComponentPad*%
%ADD17O,1.200000X2.200000*%
%TD*%
%TA.AperFunction,ComponentPad*%
%ADD18C,1.700000*%
%TD*%
%TA.AperFunction,ComponentPad*%
%ADD19R,1.700000X1.700000*%
%TD*%
%TA.AperFunction,ComponentPad*%
%ADD20O,1.700000X1.700000*%
%TD*%
%TA.AperFunction,ComponentPad*%
%ADD21C,2.200000*%
%TD*%
%TA.AperFunction,SMDPad,CuDef*%
%ADD22FreePoly0,270.000000*%
%TD*%
%TA.AperFunction,SMDPad,CuDef*%
%ADD23FreePoly1,270.000000*%
%TD*%
%TA.AperFunction,ViaPad*%
%ADD24C,0.762000*%
%TD*%
%TA.AperFunction,ViaPad*%
%ADD25C,1.270000*%
%TD*%
%TA.AperFunction,Conductor*%
%ADD26C,0.304800*%
%TD*%
%TA.AperFunction,Conductor*%
%ADD27C,1.400000*%
%TD*%
G04 APERTURE END LIST*
D10*
%TO.P,J2,1*%
%TO.N,/VIN1*%
X118250000Y-64150000D03*
D11*
%TO.P,J2,2*%
%TO.N,GND*%
X118250000Y-58150000D03*
%TO.P,J2,3*%
X113550000Y-61150000D03*
%TD*%
D12*
%TO.P,J7,1,Pin_1*%
%TO.N,ROUT*%
X189275000Y-90590000D03*
X194355000Y-90590000D03*
%TD*%
D13*
%TO.P,TP6,1,1*%
%TO.N,RIN1*%
X122900000Y-126250000D03*
%TD*%
%TO.P,TP4,1,1*%
%TO.N,LIN0*%
X108600000Y-108300000D03*
%TD*%
%TO.P,TP9,1,1*%
%TO.N,LIN2*%
X137900000Y-115450000D03*
%TD*%
%TO.P,TP8,1,1*%
%TO.N,RIN2*%
X143450000Y-85800000D03*
%TD*%
%TO.P,RV1,1,1*%
%TO.N,VCC_DIV_2*%
X108000000Y-138100000D03*
%TO.P,RV1,2,2*%
%TO.N,Net-(U3B-+)*%
X108000000Y-135600000D03*
%TO.P,RV1,3,3*%
%TO.N,Net-(JP1-B)*%
X108000000Y-133100000D03*
%TO.P,RV1,4,4*%
%TO.N,VCC_DIV_2*%
X105500000Y-138100000D03*
%TO.P,RV1,5,5*%
%TO.N,Net-(U3A-+)*%
X105500000Y-135600000D03*
%TO.P,RV1,6,6*%
%TO.N,Net-(JP2-B)*%
X105500000Y-133100000D03*
%TD*%
D14*
%TO.P,J1,1,Pin_1*%
%TO.N,GND*%
X138900000Y-56550000D03*
D15*
%TO.P,J1,2,Pin_2*%
%TO.N,/VIN1*%
X133900000Y-56550000D03*
%TD*%
D12*
%TO.P,J8,1,Pin_1*%
%TO.N,GND*%
X189150000Y-104650000D03*
X194230000Y-104650000D03*
%TD*%
D16*
%TO.P,J3,R*%
%TO.N,RIN0*%
X109500000Y-95200000D03*
D17*
%TO.P,J3,S*%
%TO.N,GND*%
X104500000Y-100200000D03*
D16*
%TO.P,J3,T*%
%TO.N,LIN0*%
X109500000Y-105200000D03*
%TD*%
D12*
%TO.P,J9,1,Pin_1*%
%TO.N,GND*%
X189245000Y-95840000D03*
X194325000Y-95840000D03*
%TD*%
D13*
%TO.P,SW1,*%
%TO.N,*%
X108582500Y-67042500D03*
X102582500Y-67042500D03*
X108582500Y-79042500D03*
X102582500Y-79042500D03*
D18*
%TO.P,SW1,1,A*%
%TO.N,/VIN1*%
X106832500Y-69042500D03*
%TO.P,SW1,2,B*%
%TO.N,/VIN2*%
X106832500Y-73042500D03*
%TO.P,SW1,3,C*%
%TO.N,unconnected-(SW1-C-Pad3)*%
X106832500Y-77042500D03*
%TD*%
D13*
%TO.P,TP10,1,1*%
%TO.N,ROUT*%
X196000000Y-83500000D03*
%TD*%
%TO.P,TP11,1,1*%
%TO.N,LOUT*%
X196000000Y-116500000D03*
%TD*%
D19*
%TO.P,J5,1,Pin_1*%
%TO.N,GND*%
X137167500Y-65725000D03*
D20*
%TO.P,J5,2,Pin_2*%
%TO.N,Net-(D5-K)*%
X134627500Y-65725000D03*
%TD*%
D12*
%TO.P,J10,1,Pin_1*%
%TO.N,LOUT*%
X189200000Y-109890000D03*
X194280000Y-109890000D03*
%TD*%
D13*
%TO.P,TP5,1,1*%
%TO.N,VCC_DIV_2*%
X111950000Y-144400000D03*
%TD*%
%TO.P,TP1,1,1*%
%TO.N,Net-(D5-K)*%
X131750000Y-78950000D03*
%TD*%
%TO.P,TP7,1,1*%
%TO.N,LIN1*%
X108550000Y-124650000D03*
%TD*%
D21*
%TO.P,J6,1,IN1*%
%TO.N,RIN0*%
X133200000Y-137882500D03*
%TO.P,J6,2,IN2*%
%TO.N,LIN0*%
X141200000Y-139132500D03*
%TO.P,J6,3,EXT*%
%TO.N,GND*%
X137200000Y-142382500D03*
%TD*%
D13*
%TO.P,TP2,1,1*%
%TO.N,GND*%
X190200000Y-53400000D03*
%TD*%
%TO.P,TP3,1,1*%
%TO.N,RIN0*%
X108600000Y-92050000D03*
%TD*%
D22*
%TO.P,JP1,1,A*%
%TO.N,RIN1*%
X111400000Y-127250000D03*
D23*
%TO.P,JP1,2,B*%
%TO.N,Net-(JP1-B)*%
X111400000Y-128700000D03*
%TD*%
D22*
%TO.P,JP2,1,A*%
%TO.N,LIN1*%
X106800000Y-127250000D03*
D23*
%TO.P,JP2,2,B*%
%TO.N,Net-(JP2-B)*%
X106800000Y-128700000D03*
%TD*%
D24*
%TO.N,GND*%
X168840000Y-140800000D03*
X165000000Y-51000000D03*
X130000000Y-55000000D03*
X158000000Y-51000000D03*
X157400000Y-148200000D03*
X168800000Y-58800000D03*
X165000000Y-60000000D03*
X152500000Y-60000000D03*
X177000000Y-51000000D03*
X145800000Y-58850000D03*
X162500000Y-148100000D03*
X150000000Y-140000000D03*
D25*
X114950000Y-52000000D03*
D24*
X158500000Y-60000000D03*
X165000000Y-139500000D03*
X150000000Y-65000000D03*
X162000000Y-139500000D03*
X162000000Y-64000000D03*
X142500000Y-55000000D03*
X181000000Y-51000000D03*
X150000000Y-60000000D03*
X158500000Y-55000000D03*
X158500000Y-139500000D03*
X197500000Y-122500000D03*
X155000000Y-140800000D03*
X187000000Y-51000000D03*
X190000000Y-147500000D03*
D25*
X103900000Y-72933334D03*
D24*
X158500000Y-142000000D03*
X150000000Y-51000000D03*
X172500000Y-147500000D03*
X172500000Y-127500000D03*
X180000000Y-135000000D03*
X162000000Y-144500000D03*
X158500000Y-144500000D03*
X172000000Y-51000000D03*
X162025000Y-142075000D03*
X180000000Y-130000000D03*
X173800000Y-136000000D03*
D25*
X103900000Y-75066667D03*
D24*
X165000000Y-144500000D03*
X165000000Y-142000000D03*
X145000000Y-65000000D03*
X197500000Y-137500000D03*
D25*
X117083333Y-52000000D03*
D24*
X197500000Y-132500000D03*
X150000000Y-145000000D03*
X162025000Y-57575000D03*
X162000000Y-55000000D03*
X158500000Y-57500000D03*
X165000000Y-57500000D03*
X162000000Y-131700000D03*
X150000000Y-135000000D03*
X162000000Y-60000000D03*
X197500000Y-127500000D03*
D25*
X119216667Y-52000000D03*
D24*
X172500000Y-142500000D03*
X180000000Y-125000000D03*
X155200000Y-58800000D03*
D25*
X103900000Y-70800000D03*
X121350000Y-52000000D03*
D24*
X165000000Y-55000000D03*
X142500000Y-72500000D03*
X197500000Y-142500000D03*
X150000000Y-55000000D03*
%TO.N,VCC*%
X174000000Y-90000000D03*
X159000000Y-109000000D03*
X162000000Y-91500000D03*
X155000000Y-110500000D03*
X165000000Y-106500000D03*
X152000000Y-105500000D03*
X152000000Y-85000000D03*
X159000000Y-89000000D03*
X172000000Y-95000000D03*
X152000000Y-115500000D03*
X166250000Y-121500000D03*
X159000000Y-91500000D03*
X150000000Y-105500000D03*
X172000000Y-90000000D03*
X174000000Y-105500000D03*
X162000000Y-89000000D03*
X174000000Y-115500000D03*
X152000000Y-110500000D03*
X165000000Y-111500000D03*
X165000000Y-109000000D03*
X174000000Y-95000000D03*
X161250000Y-121250000D03*
X174000000Y-110500000D03*
X159000000Y-106500000D03*
X150000000Y-85000000D03*
X159000000Y-111500000D03*
X172000000Y-85000000D03*
X162000000Y-111500000D03*
X165000000Y-89000000D03*
X150000000Y-110500000D03*
X150000000Y-95000000D03*
X172000000Y-110500000D03*
X162000000Y-106500000D03*
X172000000Y-115500000D03*
X169000000Y-110600000D03*
X152000000Y-90000000D03*
X150000000Y-115500000D03*
X165000000Y-91500000D03*
X159000000Y-94000000D03*
X162000000Y-94000000D03*
X152000000Y-95000000D03*
X174000000Y-85000000D03*
X150000000Y-90000000D03*
X172000000Y-105500000D03*
X162000000Y-109000000D03*
X165000000Y-94000000D03*
%TO.N,RIN0*%
X116550000Y-100200000D03*
%TO.N,RIN2*%
X145500000Y-105500000D03*
%TO.N,Net-(D1-A)*%
X156650000Y-78800000D03*
X162550000Y-81700000D03*
%TO.N,Net-(D4-K)*%
X166200000Y-129950000D03*
X150700000Y-130500000D03*
X166200000Y-124950000D03*
%TO.N,Net-(U3A-+)*%
X135050000Y-110450000D03*
%TO.N,Net-(U3B-+)*%
X141600000Y-116800000D03*
%TD*%
D26*
%TO.N,RIN0*%
X134600000Y-145100000D02*
X136250000Y-146750000D01*
X144950000Y-110350000D02*
X134800000Y-100200000D01*
X136250000Y-146750000D02*
X145088599Y-146750000D01*
X145088599Y-146750000D02*
X146700000Y-145138599D01*
X134800000Y-100200000D02*
X116550000Y-100200000D01*
X146700000Y-138300000D02*
X144950000Y-136550000D01*
X133200000Y-137882500D02*
X134600000Y-139282500D01*
X111500000Y-95200000D02*
X109500000Y-95200000D01*
X116500000Y-100200000D02*
X116550000Y-100200000D01*
X111500000Y-95200000D02*
X116500000Y-100200000D01*
X146700000Y-145138599D02*
X146700000Y-138300000D01*
X134600000Y-139282500D02*
X134600000Y-145100000D01*
X144950000Y-136550000D02*
X144950000Y-110350000D01*
%TO.N,LIN0*%
X135500000Y-105200000D02*
X109500000Y-105200000D01*
X141200000Y-139132500D02*
X142600000Y-137732500D01*
X142600000Y-112300000D02*
X135500000Y-105200000D01*
X142600000Y-137732500D02*
X142600000Y-112300000D01*
%TO.N,RIN2*%
X145500000Y-105500000D02*
X143450000Y-103450000D01*
X143450000Y-103450000D02*
X143450000Y-85800000D01*
%TO.N,Net-(D1-A)*%
X162550000Y-80100000D02*
X161250000Y-78800000D01*
X161250000Y-78800000D02*
X156650000Y-78800000D01*
X162550000Y-81700000D02*
X162550000Y-80100000D01*
%TO.N,Net-(D4-K)*%
X151250000Y-129950000D02*
X150700000Y-130500000D01*
X166200000Y-129950000D02*
X166200000Y-124950000D01*
X166200000Y-129950000D02*
X151250000Y-129950000D01*
D27*
%TO.N,/VIN1*%
X125850000Y-56550000D02*
X118250000Y-64150000D01*
X133900000Y-56550000D02*
X125850000Y-56550000D01*
X113357500Y-69042500D02*
X118250000Y-64150000D01*
X106832500Y-69042500D02*
X113357500Y-69042500D01*
D26*
%TO.N,RIN1*%
X111400000Y-127250000D02*
X121900000Y-127250000D01*
X121900000Y-127250000D02*
X122900000Y-126250000D01*
%TO.N,LIN1*%
X106800000Y-127250000D02*
X108550000Y-125500000D01*
X108550000Y-125500000D02*
X108550000Y-124650000D01*
%TO.N,Net-(U3A-+)*%
X101850000Y-134300000D02*
X103150000Y-135600000D01*
X135050000Y-110450000D02*
X105500000Y-110450000D01*
X105500000Y-135600000D02*
X103150000Y-135600000D01*
X105500000Y-110450000D02*
X101850000Y-114100000D01*
X101850000Y-114100000D02*
X101850000Y-134300000D01*
%TO.N,Net-(U3B-+)*%
X141600000Y-116800000D02*
X122800000Y-135600000D01*
X108150000Y-135750000D02*
X108000000Y-135600000D01*
X122800000Y-135600000D02*
X108000000Y-135600000D01*
%TO.N,Net-(JP1-B)*%
X108000000Y-133100000D02*
X110400000Y-133100000D01*
X110400000Y-133100000D02*
X111400000Y-132100000D01*
X111400000Y-132100000D02*
X111400000Y-128700000D01*
%TO.N,Net-(JP2-B)*%
X106812500Y-128712500D02*
X106800000Y-128700000D01*
X106812500Y-131787500D02*
X106812500Y-128712500D01*
X105500000Y-133100000D02*
X106812500Y-131787500D01*
%TD*%
%TA.AperFunction,Conductor*%
%TO.N,VCC*%
G36*
X182937539Y-76525185D02*
G01*
X182983294Y-76577989D01*
X182994500Y-76629500D01*
X182994500Y-122870500D01*
X182974815Y-122937539D01*
X182922011Y-122983294D01*
X182870500Y-122994500D01*
X147629500Y-122994500D01*
X147562461Y-122974815D01*
X147516706Y-122922011D01*
X147505500Y-122870500D01*
X147505500Y-78886822D01*
X155768499Y-78886822D01*
X155802374Y-79057118D01*
X155802377Y-79057128D01*
X155868821Y-79217540D01*
X155868828Y-79217553D01*
X155965293Y-79361922D01*
X155965296Y-79361926D01*
X156088073Y-79484703D01*
X156088077Y-79484706D01*
X156232446Y-79581171D01*
X156232459Y-79581178D01*
X156392871Y-79647622D01*
X156392876Y-79647624D01*
X156392880Y-79647624D01*
X156392881Y-79647625D01*
X156563177Y-79681500D01*
X156563180Y-79681500D01*
X156736822Y-79681500D01*
X156851394Y-79658709D01*
X156907124Y-79647624D01*
X157067547Y-79581175D01*
X157211923Y-79484706D01*
X157211928Y-79484700D01*
X157216382Y-79481047D01*
X157280692Y-79453734D01*
X157295047Y-79452900D01*
X160928197Y-79452900D01*
X160995236Y-79472585D01*
X161015878Y-79489219D01*
X161860781Y-80334121D01*
X161894266Y-80395444D01*
X161897100Y-80421802D01*
X161897100Y-81054952D01*
X161877415Y-81121991D01*
X161868957Y-81133612D01*
X161865296Y-81138073D01*
X161768828Y-81282446D01*
X161768821Y-81282459D01*
X161702377Y-81442871D01*
X161702374Y-81442881D01*
X161668500Y-81613177D01*
X161668500Y-81613180D01*
X161668500Y-81786820D01*
X161668500Y-81786822D01*
X161668499Y-81786822D01*
X161702374Y-81957118D01*
X161702377Y-81957128D01*
X161768821Y-82117540D01*
X161768828Y-82117553D01*
X161865293Y-82261922D01*
X161865296Y-82261926D01*
X161988073Y-82384703D01*
X161988077Y-82384706D01*
X162132446Y-82481171D01*
X162132459Y-82481178D01*
X162292871Y-82547622D01*
X162292876Y-82547624D01*
X162292880Y-82547624D01*
X162292881Y-82547625D01*
X162463177Y-82581500D01*
X162463180Y-82581500D01*
X162636822Y-82581500D01*
X162751394Y-82558709D01*
X162807124Y-82547624D01*
X162967547Y-82481175D01*
X163111923Y-82384706D01*
X163234706Y-82261923D01*
X163331175Y-82117547D01*
X163397624Y-81957124D01*
X163431500Y-81786820D01*
X163431500Y-81613180D01*
X163431500Y-81613177D01*
X163397625Y-81442881D01*
X163397624Y-81442880D01*
X163397624Y-81442876D01*
X163397622Y-81442871D01*
X163331178Y-81282459D01*
X163331171Y-81282446D01*
X163234703Y-81138073D01*
X163231043Y-81133612D01*
X163203733Y-81069300D01*
X163202900Y-81054952D01*
X163202900Y-80035692D01*
X163177810Y-79909561D01*
X163177809Y-79909560D01*
X163177809Y-79909556D01*
X163157423Y-79860340D01*
X163132844Y-79801001D01*
X163128596Y-79790744D01*
X163128595Y-79790743D01*
X163128593Y-79790737D01*
X163057141Y-79683801D01*
X163057139Y-79683798D01*
X163057138Y-79683797D01*
X161666205Y-78292863D01*
X161666204Y-78292862D01*
X161666200Y-78292859D01*
X161559264Y-78221408D01*
X161485990Y-78191057D01*
X161440444Y-78172191D01*
X161440438Y-78172189D01*
X161314307Y-78147100D01*
X161314305Y-78147100D01*
X157295047Y-78147100D01*
X157228008Y-78127415D01*
X157216382Y-78118953D01*
X157211923Y-78115294D01*
X157067553Y-78018828D01*
X157067540Y-78018821D01*
X156907128Y-77952377D01*
X156907118Y-77952374D01*
X156736822Y-77918500D01*
X156736820Y-77918500D01*
X156563180Y-77918500D01*
X156563178Y-77918500D01*
X156392881Y-77952374D01*
X156392871Y-77952377D01*
X156232459Y-78018821D01*
X156232446Y-78018828D01*
X156088077Y-78115293D01*
X156088073Y-78115296D01*
X155965296Y-78238073D01*
X155965293Y-78238077D01*
X155868828Y-78382446D01*
X155868821Y-78382459D01*
X155802377Y-78542871D01*
X155802374Y-78542881D01*
X155768500Y-78713177D01*
X155768500Y-78713180D01*
X155768500Y-78886820D01*
X155768500Y-78886822D01*
X155768499Y-78886822D01*
X147505500Y-78886822D01*
X147505500Y-76629500D01*
X147525185Y-76562461D01*
X147577989Y-76516706D01*
X147629500Y-76505500D01*
X182870500Y-76505500D01*
X182937539Y-76525185D01*
G37*
%TD.AperFunction*%
%TD*%
%TA.AperFunction,Conductor*%
%TO.N,GND*%
G36*
X195002562Y-50000605D02*
G01*
X195370277Y-50015814D01*
X195375906Y-50016177D01*
X195459956Y-50023530D01*
X195464429Y-50024004D01*
X195787028Y-50064216D01*
X195793169Y-50065140D01*
X195871766Y-50078999D01*
X195875594Y-50079737D01*
X196199008Y-50147549D01*
X196205622Y-50149128D01*
X196274576Y-50167604D01*
X196277787Y-50168512D01*
X196603169Y-50265383D01*
X196610157Y-50267692D01*
X196664056Y-50287310D01*
X196666678Y-50288299D01*
X196996425Y-50416967D01*
X197003729Y-50420089D01*
X197034837Y-50434595D01*
X197036641Y-50435458D01*
X197374902Y-50600823D01*
X197383883Y-50605683D01*
X197730070Y-50811966D01*
X197738638Y-50817564D01*
X198066593Y-51051719D01*
X198074668Y-51058005D01*
X198382155Y-51318433D01*
X198389695Y-51325374D01*
X198674625Y-51610304D01*
X198681566Y-51617844D01*
X198941989Y-51925325D01*
X198948282Y-51933410D01*
X199104742Y-52152545D01*
X199182431Y-52261355D01*
X199188037Y-52269935D01*
X199394309Y-52616105D01*
X199399186Y-52625119D01*
X199564467Y-52963206D01*
X199565450Y-52965262D01*
X199579902Y-52996255D01*
X199583036Y-53003584D01*
X199711691Y-53333300D01*
X199712696Y-53335964D01*
X199732299Y-53389822D01*
X199734622Y-53396851D01*
X199831475Y-53722173D01*
X199832405Y-53725462D01*
X199850867Y-53794364D01*
X199852453Y-53801010D01*
X199920250Y-54124350D01*
X199921005Y-54128265D01*
X199934854Y-54206807D01*
X199935786Y-54213001D01*
X199975990Y-54535538D01*
X199976470Y-54540069D01*
X199983819Y-54624067D01*
X199984185Y-54629749D01*
X199999394Y-54997437D01*
X199999500Y-55002562D01*
X199999500Y-144997437D01*
X199999394Y-145002562D01*
X199984185Y-145370249D01*
X199983819Y-145375930D01*
X199983819Y-145375931D01*
X199976470Y-145459929D01*
X199975990Y-145464460D01*
X199935786Y-145786997D01*
X199934854Y-145793191D01*
X199921005Y-145871733D01*
X199920250Y-145875648D01*
X199852453Y-146198988D01*
X199850867Y-146205634D01*
X199832405Y-146274536D01*
X199831475Y-146277825D01*
X199734622Y-146603147D01*
X199732299Y-146610176D01*
X199712696Y-146664034D01*
X199711691Y-146666698D01*
X199583036Y-146996414D01*
X199579903Y-147003741D01*
X199579902Y-147003743D01*
X199565471Y-147034691D01*
X199564489Y-147036747D01*
X199399182Y-147374889D01*
X199394304Y-147383903D01*
X199188037Y-147730064D01*
X199182431Y-147738644D01*
X198948284Y-148066587D01*
X198941989Y-148074674D01*
X198681566Y-148382155D01*
X198674625Y-148389695D01*
X198389695Y-148674625D01*
X198382155Y-148681566D01*
X198074674Y-148941989D01*
X198066587Y-148948284D01*
X197738644Y-149182431D01*
X197730064Y-149188037D01*
X197383903Y-149394304D01*
X197374889Y-149399182D01*
X197036747Y-149564489D01*
X197034691Y-149565471D01*
X197003743Y-149579902D01*
X196996414Y-149583036D01*
X196666698Y-149711691D01*
X196664034Y-149712696D01*
X196610176Y-149732299D01*
X196603147Y-149734622D01*
X196277825Y-149831475D01*
X196274536Y-149832405D01*
X196205634Y-149850867D01*
X196198988Y-149852453D01*
X195875648Y-149920250D01*
X195871733Y-149921005D01*
X195793191Y-149934854D01*
X195786997Y-149935786D01*
X195464460Y-149975990D01*
X195459929Y-149976470D01*
X195375931Y-149983819D01*
X195370249Y-149984185D01*
X195002563Y-149999394D01*
X194997438Y-149999500D01*
X139414810Y-149999500D01*
X139413090Y-149999488D01*
X102842377Y-149492201D01*
X102831137Y-149489518D01*
X102823228Y-149490444D01*
X102789637Y-149479614D01*
X102625110Y-149399182D01*
X102616096Y-149394304D01*
X102269935Y-149188037D01*
X102261355Y-149182431D01*
X101933412Y-148948284D01*
X101925325Y-148941989D01*
X101617844Y-148681566D01*
X101610304Y-148674625D01*
X101325374Y-148389695D01*
X101318433Y-148382155D01*
X101058010Y-148074674D01*
X101051715Y-148066587D01*
X100938599Y-147908159D01*
X100817564Y-147738638D01*
X100811962Y-147730064D01*
X100605683Y-147383883D01*
X100600817Y-147374889D01*
X100435458Y-147036641D01*
X100434595Y-147034837D01*
X100420089Y-147003729D01*
X100416962Y-146996414D01*
X100360026Y-146850500D01*
X100288299Y-146666679D01*
X100287302Y-146664034D01*
X100287008Y-146663226D01*
X100267692Y-146610157D01*
X100265383Y-146603169D01*
X100168512Y-146277787D01*
X100167604Y-146274576D01*
X100149128Y-146205622D01*
X100147549Y-146199008D01*
X100079737Y-145875594D01*
X100078999Y-145871766D01*
X100065140Y-145793169D01*
X100064216Y-145787028D01*
X100024004Y-145464429D01*
X100023530Y-145459956D01*
X100016177Y-145375906D01*
X100015814Y-145370277D01*
X100000606Y-145002562D01*
X100000500Y-144997438D01*
X100000500Y-144878711D01*
X103149500Y-144878711D01*
X103149500Y-145121288D01*
X103171769Y-145290445D01*
X103181162Y-145361789D01*
X103193883Y-145409264D01*
X103243947Y-145596104D01*
X103336773Y-145820205D01*
X103336776Y-145820212D01*
X103458064Y-146030289D01*
X103458066Y-146030292D01*
X103458067Y-146030293D01*
X103605733Y-146222736D01*
X103605739Y-146222743D01*
X103777256Y-146394260D01*
X103777262Y-146394265D01*
X103969711Y-146541936D01*
X104179788Y-146663224D01*
X104403900Y-146756054D01*
X104638211Y-146818838D01*
X104818586Y-146842584D01*
X104878711Y-146850500D01*
X104878712Y-146850500D01*
X105121289Y-146850500D01*
X105169388Y-146844167D01*
X105361789Y-146818838D01*
X105596100Y-146756054D01*
X105820212Y-146663224D01*
X106030289Y-146541936D01*
X106222738Y-146394265D01*
X106394265Y-146222738D01*
X106541936Y-146030289D01*
X106663224Y-145820212D01*
X106756054Y-145596100D01*
X106818838Y-145361789D01*
X106850500Y-145121288D01*
X106850500Y-144878712D01*
X106848810Y-144865878D01*
X106818838Y-144638214D01*
X106818838Y-144638211D01*
X106756054Y-144403900D01*
X106705521Y-144281902D01*
X110449500Y-144281902D01*
X110449500Y-144518097D01*
X110486446Y-144751368D01*
X110559433Y-144975996D01*
X110633464Y-145121288D01*
X110666657Y-145186433D01*
X110805483Y-145377510D01*
X110972490Y-145544517D01*
X111163567Y-145683343D01*
X111262991Y-145734002D01*
X111374003Y-145790566D01*
X111374005Y-145790566D01*
X111374008Y-145790568D01*
X111465221Y-145820205D01*
X111598631Y-145863553D01*
X111831903Y-145900500D01*
X111831908Y-145900500D01*
X112068097Y-145900500D01*
X112301368Y-145863553D01*
X112525992Y-145790568D01*
X112736433Y-145683343D01*
X112927510Y-145544517D01*
X113094517Y-145377510D01*
X113233343Y-145186433D01*
X113340568Y-144975992D01*
X113413553Y-144751368D01*
X113431475Y-144638214D01*
X113450500Y-144518097D01*
X113450500Y-144281902D01*
X113413553Y-144048631D01*
X113340566Y-143824003D01*
X113265536Y-143676750D01*
X113233343Y-143613567D01*
X113094517Y-143422490D01*
X112927510Y-143255483D01*
X112736433Y-143116657D01*
X112525996Y-143009433D01*
X112301368Y-142936446D01*
X112068097Y-142899500D01*
X112068092Y-142899500D01*
X111831908Y-142899500D01*
X111831903Y-142899500D01*
X111598631Y-142936446D01*
X111374003Y-143009433D01*
X111163566Y-143116657D01*
X111074785Y-143181161D01*
X110972490Y-143255483D01*
X110972488Y-143255485D01*
X110972487Y-143255485D01*
X110805485Y-143422487D01*
X110805485Y-143422488D01*
X110805483Y-143422490D01*
X110769574Y-143471914D01*
X110666657Y-143613566D01*
X110559433Y-143824003D01*
X110486446Y-144048631D01*
X110449500Y-144281902D01*
X106705521Y-144281902D01*
X106663226Y-144179794D01*
X106663226Y-144179793D01*
X106663224Y-144179788D01*
X106541936Y-143969711D01*
X106461803Y-143865280D01*
X106394266Y-143777263D01*
X106394260Y-143777256D01*
X106222743Y-143605739D01*
X106222736Y-143605733D01*
X106030293Y-143458067D01*
X106030292Y-143458066D01*
X106030289Y-143458064D01*
X105820212Y-143336776D01*
X105787432Y-143323198D01*
X105596104Y-143243947D01*
X105361785Y-143181161D01*
X105121289Y-143149500D01*
X105121288Y-143149500D01*
X104878712Y-143149500D01*
X104878711Y-143149500D01*
X104638214Y-143181161D01*
X104403895Y-143243947D01*
X104179794Y-143336773D01*
X104179785Y-143336777D01*
X103969706Y-143458067D01*
X103777263Y-143605733D01*
X103777256Y-143605739D01*
X103605739Y-143777256D01*
X103605733Y-143777263D01*
X103458067Y-143969706D01*
X103336777Y-144179785D01*
X103336773Y-144179794D01*
X103243947Y-144403895D01*
X103181161Y-144638214D01*
X103149500Y-144878711D01*
X100000500Y-144878711D01*
X100000500Y-141045889D01*
X128849500Y-141045889D01*
X128849500Y-142719111D01*
X128876598Y-142890201D01*
X128930127Y-143054945D01*
X129008768Y-143209288D01*
X129110586Y-143349428D01*
X129233072Y-143471914D01*
X129373212Y-143573732D01*
X129527555Y-143652373D01*
X129692299Y-143705902D01*
X129863389Y-143733000D01*
X129863390Y-143733000D01*
X130036610Y-143733000D01*
X130036611Y-143733000D01*
X130207701Y-143705902D01*
X130372445Y-143652373D01*
X130526788Y-143573732D01*
X130666928Y-143471914D01*
X130789414Y-143349428D01*
X130891232Y-143209288D01*
X130969873Y-143054945D01*
X131023402Y-142890201D01*
X131050500Y-142719111D01*
X131050500Y-141045889D01*
X131023402Y-140874799D01*
X130969873Y-140710055D01*
X130891232Y-140555712D01*
X130789414Y-140415572D01*
X130666928Y-140293086D01*
X130526788Y-140191268D01*
X130372445Y-140112627D01*
X130207701Y-140059098D01*
X130207699Y-140059097D01*
X130207698Y-140059097D01*
X130076271Y-140038281D01*
X130036611Y-140032000D01*
X129863389Y-140032000D01*
X129823728Y-140038281D01*
X129692302Y-140059097D01*
X129527552Y-140112628D01*
X129373211Y-140191268D01*
X129293256Y-140249359D01*
X129233072Y-140293086D01*
X129233070Y-140293088D01*
X129233069Y-140293088D01*
X129110588Y-140415569D01*
X129110588Y-140415570D01*
X129110586Y-140415572D01*
X129066859Y-140475756D01*
X129008768Y-140555711D01*
X128930128Y-140710052D01*
X128876597Y-140874802D01*
X128872651Y-140899719D01*
X128849500Y-141045889D01*
X100000500Y-141045889D01*
X100000500Y-114035692D01*
X101197100Y-114035692D01*
X101197100Y-134364307D01*
X101203203Y-134394988D01*
X101215237Y-134455483D01*
X101222191Y-134490444D01*
X101271408Y-134609264D01*
X101313504Y-134672266D01*
X101342862Y-134716204D01*
X101342863Y-134716205D01*
X102733797Y-136107138D01*
X102733798Y-136107139D01*
X102733801Y-136107141D01*
X102840737Y-136178593D01*
X102910340Y-136207423D01*
X102959556Y-136227809D01*
X102959560Y-136227809D01*
X102959561Y-136227810D01*
X103085692Y-136252900D01*
X103085695Y-136252900D01*
X104072631Y-136252900D01*
X104139670Y-136272585D01*
X104183116Y-136320605D01*
X104216657Y-136386433D01*
X104355483Y-136577510D01*
X104355485Y-136577512D01*
X104522490Y-136744517D01*
X104529603Y-136749685D01*
X104572266Y-136805017D01*
X104578242Y-136874630D01*
X104545634Y-136936424D01*
X104529603Y-136950315D01*
X104522490Y-136955482D01*
X104355485Y-137122487D01*
X104355485Y-137122488D01*
X104355483Y-137122490D01*
X104338668Y-137145634D01*
X104216657Y-137313566D01*
X104109433Y-137524003D01*
X104036446Y-137748631D01*
X103999500Y-137981902D01*
X103999500Y-138218097D01*
X104036446Y-138451368D01*
X104109433Y-138675996D01*
X104151073Y-138757718D01*
X104216657Y-138886433D01*
X104355483Y-139077510D01*
X104522490Y-139244517D01*
X104713567Y-139383343D01*
X104810695Y-139432832D01*
X104924003Y-139490566D01*
X104924005Y-139490566D01*
X104924008Y-139490568D01*
X105004194Y-139516622D01*
X105148631Y-139563553D01*
X105381903Y-139600500D01*
X105381908Y-139600500D01*
X105618097Y-139600500D01*
X105851368Y-139563553D01*
X105884028Y-139552941D01*
X106075992Y-139490568D01*
X106286433Y-139383343D01*
X106477510Y-139244517D01*
X106644517Y-139077510D01*
X106649682Y-139070401D01*
X106705012Y-139027735D01*
X106774625Y-139021756D01*
X106836420Y-139054362D01*
X106850318Y-139070401D01*
X106855483Y-139077510D01*
X107022490Y-139244517D01*
X107213567Y-139383343D01*
X107310695Y-139432832D01*
X107424003Y-139490566D01*
X107424005Y-139490566D01*
X107424008Y-139490568D01*
X107504194Y-139516622D01*
X107648631Y-139563553D01*
X107881903Y-139600500D01*
X107881908Y-139600500D01*
X108118097Y-139600500D01*
X108351368Y-139563553D01*
X108384028Y-139552941D01*
X108575992Y-139490568D01*
X108786433Y-139383343D01*
X108977510Y-139244517D01*
X109144517Y-139077510D01*
X109283343Y-138886433D01*
X109390568Y-138675992D01*
X109463553Y-138451368D01*
X109474304Y-138383491D01*
X109500500Y-138218097D01*
X109500500Y-137981902D01*
X109463553Y-137748631D01*
X109420345Y-137615651D01*
X109390568Y-137524008D01*
X109390566Y-137524005D01*
X109390566Y-137524003D01*
X109283342Y-137313566D01*
X109250324Y-137268121D01*
X109144517Y-137122490D01*
X108977510Y-136955483D01*
X108970401Y-136950318D01*
X108927735Y-136894988D01*
X108921756Y-136825375D01*
X108954362Y-136763580D01*
X108970401Y-136749682D01*
X108970500Y-136749609D01*
X108977510Y-136744517D01*
X109144517Y-136577510D01*
X109283343Y-136386433D01*
X109316884Y-136320605D01*
X109364859Y-136269809D01*
X109427369Y-136252900D01*
X122864307Y-136252900D01*
X122949165Y-136236019D01*
X122990444Y-136227809D01*
X123109264Y-136178592D01*
X123113155Y-136175992D01*
X123216200Y-136107141D01*
X141605554Y-117717785D01*
X141622616Y-117708469D01*
X141636727Y-117695091D01*
X141659206Y-117688489D01*
X141666875Y-117684302D01*
X141670112Y-117683643D01*
X141681404Y-117681500D01*
X141686820Y-117681500D01*
X141799430Y-117659100D01*
X141799979Y-117658996D01*
X141834209Y-117662362D01*
X141868500Y-117665431D01*
X141868948Y-117665779D01*
X141869513Y-117665835D01*
X141896531Y-117687206D01*
X141923677Y-117708294D01*
X141923865Y-117708827D01*
X141924312Y-117709181D01*
X141935496Y-117741798D01*
X141946922Y-117774183D01*
X141946949Y-117775194D01*
X141946976Y-117775273D01*
X141946953Y-117775363D01*
X141947100Y-117780821D01*
X141947100Y-137410696D01*
X141927415Y-137477735D01*
X141910781Y-137498378D01*
X141826991Y-137582167D01*
X141765667Y-137615651D01*
X141700993Y-137612416D01*
X141574787Y-137571410D01*
X141574788Y-137571410D01*
X141388167Y-137541852D01*
X141325962Y-137532000D01*
X141074038Y-137532000D01*
X140949626Y-137551705D01*
X140825214Y-137571410D01*
X140585616Y-137649260D01*
X140361151Y-137763632D01*
X140157350Y-137911701D01*
X140157345Y-137911705D01*
X139979205Y-138089845D01*
X139979201Y-138089850D01*
X139831132Y-138293651D01*
X139716760Y-138518116D01*
X139638910Y-138757714D01*
X139618523Y-138886433D01*
X139599500Y-139006538D01*
X139599500Y-139258462D01*
X139628822Y-139443590D01*
X139638910Y-139507285D01*
X139716760Y-139746883D01*
X139831132Y-139971348D01*
X139979201Y-140175149D01*
X139979205Y-140175154D01*
X140157345Y-140353294D01*
X140157350Y-140353298D01*
X140335117Y-140482452D01*
X140361155Y-140501370D01*
X140504184Y-140574247D01*
X140585616Y-140615739D01*
X140585618Y-140615739D01*
X140585621Y-140615741D01*
X140825215Y-140693590D01*
X141074038Y-140733000D01*
X141074039Y-140733000D01*
X141325961Y-140733000D01*
X141325962Y-140733000D01*
X141574785Y-140693590D01*
X141814379Y-140615741D01*
X142038845Y-140501370D01*
X142242656Y-140353293D01*
X142420793Y-140175156D01*
X142568870Y-139971345D01*
X142683241Y-139746879D01*
X142761090Y-139507285D01*
X142800500Y-139258462D01*
X142800500Y-139006538D01*
X142761090Y-138757715D01*
X142720081Y-138631505D01*
X142718087Y-138561666D01*
X142750332Y-138505508D01*
X143107136Y-138148705D01*
X143107137Y-138148704D01*
X143107137Y-138148703D01*
X143107141Y-138148700D01*
X143178592Y-138041764D01*
X143227809Y-137922944D01*
X143235595Y-137883801D01*
X143252900Y-137796805D01*
X143252900Y-112235695D01*
X143252900Y-112235692D01*
X143227810Y-112109561D01*
X143227809Y-112109560D01*
X143227809Y-112109556D01*
X143178592Y-111990736D01*
X143145017Y-111940487D01*
X143107140Y-111883800D01*
X143107138Y-111883797D01*
X143107137Y-111883796D01*
X135916205Y-104692863D01*
X135916204Y-104692862D01*
X135863786Y-104657838D01*
X135809264Y-104621408D01*
X135802243Y-104618500D01*
X135690444Y-104572191D01*
X135690438Y-104572189D01*
X135564307Y-104547100D01*
X135564305Y-104547100D01*
X110949114Y-104547100D01*
X110882075Y-104527415D01*
X110848797Y-104495987D01*
X110839414Y-104483072D01*
X110716928Y-104360586D01*
X110576788Y-104258768D01*
X110422445Y-104180127D01*
X110257701Y-104126598D01*
X110257699Y-104126597D01*
X110257698Y-104126597D01*
X110126271Y-104105781D01*
X110086611Y-104099500D01*
X108913389Y-104099500D01*
X108873728Y-104105781D01*
X108742302Y-104126597D01*
X108577552Y-104180128D01*
X108423211Y-104258768D01*
X108343256Y-104316859D01*
X108283072Y-104360586D01*
X108283070Y-104360588D01*
X108283069Y-104360588D01*
X108160588Y-104483069D01*
X108160588Y-104483070D01*
X108160586Y-104483072D01*
X108128369Y-104527415D01*
X108058768Y-104623211D01*
X107980128Y-104777552D01*
X107926597Y-104942302D01*
X107899500Y-105113389D01*
X107899500Y-105286610D01*
X107919546Y-105413180D01*
X107926598Y-105457701D01*
X107980127Y-105622445D01*
X108058768Y-105776788D01*
X108160586Y-105916928D01*
X108283072Y-106039414D01*
X108423212Y-106141232D01*
X108577555Y-106219873D01*
X108742299Y-106273402D01*
X108913389Y-106300500D01*
X108913390Y-106300500D01*
X110086610Y-106300500D01*
X110086611Y-106300500D01*
X110257701Y-106273402D01*
X110422445Y-106219873D01*
X110576788Y-106141232D01*
X110716928Y-106039414D01*
X110839414Y-105916928D01*
X110848797Y-105904013D01*
X110904126Y-105861349D01*
X110949114Y-105852900D01*
X135178197Y-105852900D01*
X135245236Y-105872585D01*
X135265878Y-105889219D01*
X141910781Y-112534121D01*
X141944266Y-112595444D01*
X141947100Y-112621802D01*
X141947100Y-115819178D01*
X141927415Y-115886217D01*
X141874611Y-115931972D01*
X141805453Y-115941916D01*
X141798909Y-115940795D01*
X141686824Y-115918500D01*
X141686820Y-115918500D01*
X141513180Y-115918500D01*
X141513178Y-115918500D01*
X141342881Y-115952374D01*
X141342871Y-115952377D01*
X141182459Y-116018821D01*
X141182446Y-116018828D01*
X141038077Y-116115293D01*
X141038073Y-116115296D01*
X140915296Y-116238073D01*
X140915293Y-116238077D01*
X140818828Y-116382446D01*
X140818821Y-116382459D01*
X140752377Y-116542871D01*
X140752374Y-116542881D01*
X140718498Y-116713183D01*
X140717933Y-116718925D01*
X140691769Y-116783711D01*
X140682212Y-116794446D01*
X122565878Y-134910781D01*
X122504555Y-134944266D01*
X122478197Y-134947100D01*
X109427369Y-134947100D01*
X109360330Y-134927415D01*
X109316884Y-134879395D01*
X109283342Y-134813566D01*
X109144517Y-134622490D01*
X108977510Y-134455483D01*
X108970401Y-134450318D01*
X108927735Y-134394988D01*
X108921756Y-134325375D01*
X108954362Y-134263580D01*
X108970401Y-134249682D01*
X108970500Y-134249609D01*
X108977510Y-134244517D01*
X109144517Y-134077510D01*
X109283343Y-133886433D01*
X109316884Y-133820605D01*
X109364859Y-133769809D01*
X109427369Y-133752900D01*
X110464307Y-133752900D01*
X110549165Y-133736019D01*
X110590444Y-133727809D01*
X110709264Y-133678592D01*
X110715637Y-133674333D01*
X110718846Y-133672190D01*
X110767522Y-133639666D01*
X110816200Y-133607141D01*
X111907141Y-132516199D01*
X111978593Y-132409263D01*
X112027809Y-132290443D01*
X112052900Y-132164305D01*
X112052900Y-132035695D01*
X112052900Y-129827892D01*
X112072585Y-129760853D01*
X112125389Y-129715098D01*
X112168052Y-129704208D01*
X112221940Y-129700355D01*
X112359992Y-129659819D01*
X112481032Y-129582031D01*
X112575254Y-129473294D01*
X112635024Y-129342416D01*
X112655500Y-129200000D01*
X112655500Y-128050000D01*
X112655499Y-128049997D01*
X112655499Y-128049978D01*
X112654444Y-128036785D01*
X112668721Y-127968389D01*
X112717710Y-127918571D01*
X112778049Y-127902900D01*
X121964307Y-127902900D01*
X122049165Y-127886019D01*
X122090444Y-127877809D01*
X122209264Y-127828592D01*
X122231818Y-127813522D01*
X122316200Y-127757141D01*
X122357913Y-127715427D01*
X122364098Y-127710635D01*
X122389624Y-127700627D01*
X122413688Y-127687487D01*
X122422073Y-127687906D01*
X122429148Y-127685133D01*
X122449975Y-127689302D01*
X122478369Y-127690723D01*
X122548624Y-127713551D01*
X122548627Y-127713551D01*
X122548632Y-127713553D01*
X122656673Y-127730664D01*
X122781903Y-127750500D01*
X122781908Y-127750500D01*
X123018097Y-127750500D01*
X123251368Y-127713553D01*
X123321631Y-127690723D01*
X123475992Y-127640568D01*
X123686433Y-127533343D01*
X123877510Y-127394517D01*
X124044517Y-127227510D01*
X124183343Y-127036433D01*
X124290568Y-126825992D01*
X124363553Y-126601368D01*
X124367500Y-126576447D01*
X124400500Y-126368097D01*
X124400500Y-126131902D01*
X124363553Y-125898631D01*
X124308742Y-125729941D01*
X124290568Y-125674008D01*
X124290566Y-125674005D01*
X124290566Y-125674003D01*
X124234002Y-125562991D01*
X124183343Y-125463567D01*
X124044517Y-125272490D01*
X123877510Y-125105483D01*
X123686433Y-124966657D01*
X123475996Y-124859433D01*
X123251368Y-124786446D01*
X123018097Y-124749500D01*
X123018092Y-124749500D01*
X122781908Y-124749500D01*
X122781903Y-124749500D01*
X122548631Y-124786446D01*
X122324003Y-124859433D01*
X122113566Y-124966657D01*
X122016996Y-125036820D01*
X121922490Y-125105483D01*
X121922488Y-125105485D01*
X121922487Y-125105485D01*
X121755485Y-125272487D01*
X121755485Y-125272488D01*
X121755483Y-125272490D01*
X121695862Y-125354550D01*
X121616657Y-125463566D01*
X121509433Y-125674003D01*
X121436446Y-125898631D01*
X121399500Y-126131902D01*
X121399500Y-126368096D01*
X121413059Y-126453701D01*
X121404105Y-126522995D01*
X121359109Y-126576447D01*
X121292357Y-126597087D01*
X121290586Y-126597100D01*
X112714219Y-126597100D01*
X112647180Y-126577415D01*
X112609904Y-126540140D01*
X112532032Y-126418969D01*
X112532028Y-126418965D01*
X112423299Y-126324750D01*
X112423297Y-126324748D01*
X112423294Y-126324746D01*
X112423290Y-126324744D01*
X112292419Y-126264976D01*
X112292414Y-126264975D01*
X112150000Y-126244500D01*
X110650000Y-126244500D01*
X110649997Y-126244500D01*
X110578059Y-126249644D01*
X110440005Y-126290182D01*
X110318969Y-126367967D01*
X110318965Y-126367971D01*
X110224750Y-126476700D01*
X110224744Y-126476709D01*
X110164976Y-126607580D01*
X110164975Y-126607585D01*
X110144500Y-126749999D01*
X110144500Y-127750015D01*
X110148507Y-127813522D01*
X110148506Y-127813522D01*
X110161339Y-127860107D01*
X110164530Y-127910683D01*
X110144500Y-128049999D01*
X110144500Y-129200002D01*
X110149644Y-129271940D01*
X110190182Y-129409994D01*
X110267967Y-129531030D01*
X110267971Y-129531034D01*
X110376700Y-129625249D01*
X110376706Y-129625254D01*
X110417174Y-129643735D01*
X110507580Y-129685023D01*
X110507583Y-129685023D01*
X110507584Y-129685024D01*
X110640747Y-129704169D01*
X110704302Y-129733193D01*
X110742077Y-129791971D01*
X110747100Y-129826907D01*
X110747100Y-131778197D01*
X110727415Y-131845236D01*
X110710781Y-131865878D01*
X110165878Y-132410781D01*
X110104555Y-132444266D01*
X110078197Y-132447100D01*
X109427369Y-132447100D01*
X109360330Y-132427415D01*
X109316884Y-132379395D01*
X109283342Y-132313566D01*
X109266537Y-132290436D01*
X109144517Y-132122490D01*
X108977510Y-131955483D01*
X108786433Y-131816657D01*
X108575996Y-131709433D01*
X108351368Y-131636446D01*
X108118097Y-131599500D01*
X108118092Y-131599500D01*
X107881908Y-131599500D01*
X107881903Y-131599500D01*
X107648628Y-131636447D01*
X107648627Y-131636447D01*
X107627714Y-131643242D01*
X107557872Y-131645235D01*
X107498041Y-131609152D01*
X107467215Y-131546450D01*
X107465400Y-131525310D01*
X107465400Y-129826998D01*
X107485085Y-129759959D01*
X107537889Y-129714204D01*
X107580553Y-129703314D01*
X107621940Y-129700355D01*
X107759992Y-129659819D01*
X107881032Y-129582031D01*
X107975254Y-129473294D01*
X108035024Y-129342416D01*
X108055500Y-129200000D01*
X108055500Y-128050000D01*
X108055499Y-128049997D01*
X108055499Y-128049978D01*
X108049076Y-127969668D01*
X108049075Y-127969665D01*
X108049075Y-127969662D01*
X108040212Y-127941254D01*
X108035848Y-127886682D01*
X108044200Y-127828592D01*
X108055500Y-127750000D01*
X108055500Y-126969202D01*
X108075185Y-126902163D01*
X108091819Y-126881521D01*
X108450345Y-126522995D01*
X108823474Y-126149865D01*
X108884795Y-126116382D01*
X108891741Y-126115077D01*
X108901368Y-126113553D01*
X109125992Y-126040568D01*
X109336433Y-125933343D01*
X109527510Y-125794517D01*
X109694517Y-125627510D01*
X109833343Y-125436433D01*
X109940568Y-125225992D01*
X110013553Y-125001368D01*
X110035440Y-124863180D01*
X110050500Y-124768097D01*
X110050500Y-124531902D01*
X110013553Y-124298631D01*
X109971375Y-124168821D01*
X109940568Y-124074008D01*
X109940566Y-124074005D01*
X109940566Y-124074003D01*
X109833342Y-123863566D01*
X109694517Y-123672490D01*
X109527510Y-123505483D01*
X109336433Y-123366657D01*
X109125996Y-123259433D01*
X108901368Y-123186446D01*
X108668097Y-123149500D01*
X108668092Y-123149500D01*
X108431908Y-123149500D01*
X108431903Y-123149500D01*
X108198631Y-123186446D01*
X107974003Y-123259433D01*
X107763566Y-123366657D01*
X107654550Y-123445862D01*
X107572490Y-123505483D01*
X107572488Y-123505485D01*
X107572487Y-123505485D01*
X107405485Y-123672487D01*
X107405485Y-123672488D01*
X107405483Y-123672490D01*
X107345862Y-123754550D01*
X107266657Y-123863566D01*
X107159433Y-124074003D01*
X107086446Y-124298631D01*
X107049500Y-124531902D01*
X107049500Y-124768097D01*
X107086446Y-125001368D01*
X107159433Y-125225996D01*
X107231554Y-125367540D01*
X107266657Y-125436433D01*
X107344612Y-125543729D01*
X107382648Y-125596080D01*
X107406128Y-125661887D01*
X107390303Y-125729941D01*
X107370011Y-125756647D01*
X106918478Y-126208181D01*
X106857155Y-126241666D01*
X106830797Y-126244500D01*
X106049997Y-126244500D01*
X105978059Y-126249644D01*
X105840005Y-126290182D01*
X105718969Y-126367967D01*
X105718965Y-126367971D01*
X105624750Y-126476700D01*
X105624744Y-126476709D01*
X105564976Y-126607580D01*
X105564975Y-126607585D01*
X105544500Y-126749999D01*
X105544500Y-127750015D01*
X105548507Y-127813522D01*
X105548506Y-127813522D01*
X105561339Y-127860107D01*
X105564530Y-127910683D01*
X105544500Y-128049999D01*
X105544500Y-129200002D01*
X105549644Y-129271940D01*
X105590182Y-129409994D01*
X105667967Y-129531030D01*
X105667971Y-129531034D01*
X105776700Y-129625249D01*
X105776706Y-129625254D01*
X105817174Y-129643735D01*
X105907580Y-129685023D01*
X105907583Y-129685023D01*
X105907584Y-129685024D01*
X106050000Y-129705500D01*
X106050005Y-129705500D01*
X106053246Y-129705966D01*
X106116802Y-129734990D01*
X106154577Y-129793768D01*
X106159600Y-129828704D01*
X106159600Y-131465695D01*
X106150955Y-131495132D01*
X106144432Y-131525123D01*
X106140676Y-131530139D01*
X106139915Y-131532734D01*
X106123281Y-131553377D01*
X106047630Y-131629027D01*
X105986306Y-131662511D01*
X105921632Y-131659276D01*
X105851370Y-131636447D01*
X105851371Y-131636447D01*
X105618097Y-131599500D01*
X105618092Y-131599500D01*
X105381908Y-131599500D01*
X105381903Y-131599500D01*
X105148631Y-131636446D01*
X104924003Y-131709433D01*
X104713566Y-131816657D01*
X104645820Y-131865878D01*
X104522490Y-131955483D01*
X104522488Y-131955485D01*
X104522487Y-131955485D01*
X104355485Y-132122487D01*
X104355485Y-132122488D01*
X104355483Y-132122490D01*
X104325103Y-132164305D01*
X104216657Y-132313566D01*
X104109433Y-132524003D01*
X104036446Y-132748631D01*
X103999500Y-132981902D01*
X103999500Y-133218097D01*
X104036446Y-133451368D01*
X104109433Y-133675996D01*
X104157234Y-133769809D01*
X104216657Y-133886433D01*
X104355483Y-134077510D01*
X104355485Y-134077512D01*
X104522490Y-134244517D01*
X104529603Y-134249685D01*
X104572266Y-134305017D01*
X104578242Y-134374630D01*
X104545634Y-134436424D01*
X104529603Y-134450315D01*
X104522490Y-134455482D01*
X104522490Y-134455483D01*
X104355485Y-134622487D01*
X104355485Y-134622488D01*
X104355483Y-134622490D01*
X104338668Y-134645634D01*
X104216657Y-134813566D01*
X104183116Y-134879395D01*
X104135141Y-134930191D01*
X104072631Y-134947100D01*
X103471802Y-134947100D01*
X103404763Y-134927415D01*
X103384121Y-134910781D01*
X102539219Y-134065878D01*
X102505734Y-134004555D01*
X102502900Y-133978197D01*
X102502900Y-115331902D01*
X136399500Y-115331902D01*
X136399500Y-115568097D01*
X136436446Y-115801368D01*
X136509433Y-116025996D01*
X136571920Y-116148632D01*
X136616657Y-116236433D01*
X136755483Y-116427510D01*
X136922490Y-116594517D01*
X137113567Y-116733343D01*
X137212420Y-116783711D01*
X137324003Y-116840566D01*
X137324005Y-116840566D01*
X137324008Y-116840568D01*
X137444412Y-116879689D01*
X137548631Y-116913553D01*
X137781903Y-116950500D01*
X137781908Y-116950500D01*
X138018097Y-116950500D01*
X138251368Y-116913553D01*
X138475992Y-116840568D01*
X138686433Y-116733343D01*
X138877510Y-116594517D01*
X139044517Y-116427510D01*
X139183343Y-116236433D01*
X139290568Y-116025992D01*
X139363553Y-115801368D01*
X139370561Y-115757124D01*
X139400500Y-115568097D01*
X139400500Y-115331902D01*
X139363553Y-115098631D01*
X139290566Y-114874003D01*
X139183342Y-114663566D01*
X139175212Y-114652376D01*
X139044517Y-114472490D01*
X138877510Y-114305483D01*
X138686433Y-114166657D01*
X138475996Y-114059433D01*
X138251368Y-113986446D01*
X138018097Y-113949500D01*
X138018092Y-113949500D01*
X137781908Y-113949500D01*
X137781903Y-113949500D01*
X137548631Y-113986446D01*
X137324003Y-114059433D01*
X137113566Y-114166657D01*
X137004550Y-114245862D01*
X136922490Y-114305483D01*
X136922488Y-114305485D01*
X136922487Y-114305485D01*
X136755485Y-114472487D01*
X136755485Y-114472488D01*
X136755483Y-114472490D01*
X136695862Y-114554550D01*
X136616657Y-114663566D01*
X136509433Y-114874003D01*
X136436446Y-115098631D01*
X136399500Y-115331902D01*
X102502900Y-115331902D01*
X102502900Y-114421802D01*
X102522585Y-114354763D01*
X102539219Y-114334121D01*
X105734121Y-111139219D01*
X105795444Y-111105734D01*
X105821802Y-111102900D01*
X134404953Y-111102900D01*
X134471992Y-111122585D01*
X134483618Y-111131047D01*
X134488074Y-111134703D01*
X134488077Y-111134706D01*
X134513901Y-111151961D01*
X134632446Y-111231171D01*
X134632459Y-111231178D01*
X134753164Y-111281175D01*
X134792876Y-111297624D01*
X134792880Y-111297624D01*
X134792881Y-111297625D01*
X134963177Y-111331500D01*
X134963180Y-111331500D01*
X135136822Y-111331500D01*
X135251394Y-111308709D01*
X135307124Y-111297624D01*
X135467547Y-111231175D01*
X135611923Y-111134706D01*
X135734706Y-111011923D01*
X135831175Y-110867547D01*
X135897624Y-110707124D01*
X135931500Y-110536820D01*
X135931500Y-110363180D01*
X135931500Y-110363177D01*
X135897625Y-110192881D01*
X135897624Y-110192880D01*
X135897624Y-110192876D01*
X135883825Y-110159561D01*
X135831178Y-110032459D01*
X135831171Y-110032446D01*
X135734706Y-109888077D01*
X135734703Y-109888073D01*
X135611926Y-109765296D01*
X135611922Y-109765293D01*
X135467553Y-109668828D01*
X135467540Y-109668821D01*
X135307128Y-109602377D01*
X135307118Y-109602374D01*
X135136822Y-109568500D01*
X135136820Y-109568500D01*
X134963180Y-109568500D01*
X134963178Y-109568500D01*
X134792881Y-109602374D01*
X134792871Y-109602377D01*
X134632459Y-109668821D01*
X134632446Y-109668828D01*
X134488076Y-109765294D01*
X134483618Y-109768953D01*
X134419308Y-109796266D01*
X134404953Y-109797100D01*
X109473855Y-109797100D01*
X109406816Y-109777415D01*
X109361061Y-109724611D01*
X109351117Y-109655453D01*
X109380142Y-109591897D01*
X109400969Y-109572782D01*
X109415915Y-109561923D01*
X109577510Y-109444517D01*
X109744517Y-109277510D01*
X109883343Y-109086433D01*
X109990568Y-108875992D01*
X110063553Y-108651368D01*
X110097335Y-108438077D01*
X110100500Y-108418097D01*
X110100500Y-108181902D01*
X110063553Y-107948631D01*
X109990566Y-107724003D01*
X109883342Y-107513566D01*
X109744517Y-107322490D01*
X109577510Y-107155483D01*
X109386433Y-107016657D01*
X109175996Y-106909433D01*
X108951368Y-106836446D01*
X108718097Y-106799500D01*
X108718092Y-106799500D01*
X108481908Y-106799500D01*
X108481903Y-106799500D01*
X108248631Y-106836446D01*
X108024003Y-106909433D01*
X107813566Y-107016657D01*
X107704550Y-107095862D01*
X107622490Y-107155483D01*
X107622488Y-107155485D01*
X107622487Y-107155485D01*
X107455485Y-107322487D01*
X107455485Y-107322488D01*
X107455483Y-107322490D01*
X107437222Y-107347624D01*
X107316657Y-107513566D01*
X107209433Y-107724003D01*
X107136446Y-107948631D01*
X107099500Y-108181902D01*
X107099500Y-108418097D01*
X107136446Y-108651368D01*
X107209433Y-108875996D01*
X107316657Y-109086433D01*
X107455483Y-109277510D01*
X107622490Y-109444517D01*
X107760084Y-109544485D01*
X107799031Y-109572782D01*
X107841696Y-109628112D01*
X107847675Y-109697726D01*
X107815069Y-109759521D01*
X107754230Y-109793878D01*
X107726145Y-109797100D01*
X105435693Y-109797100D01*
X105309557Y-109822190D01*
X105309553Y-109822191D01*
X105260340Y-109842575D01*
X105260340Y-109842576D01*
X105242160Y-109850106D01*
X105190739Y-109871405D01*
X105190730Y-109871410D01*
X105083801Y-109942858D01*
X105083797Y-109942861D01*
X101342863Y-113683794D01*
X101342862Y-113683795D01*
X101271407Y-113790737D01*
X101222191Y-113909555D01*
X101222189Y-113909561D01*
X101197100Y-114035692D01*
X100000500Y-114035692D01*
X100000500Y-105116228D01*
X101149500Y-105116228D01*
X101149500Y-105283771D01*
X101182182Y-105448074D01*
X101182184Y-105448082D01*
X101246295Y-105602860D01*
X101339373Y-105742162D01*
X101457837Y-105860626D01*
X101543015Y-105917540D01*
X101597137Y-105953703D01*
X101751918Y-106017816D01*
X101916228Y-106050499D01*
X101916232Y-106050500D01*
X101916233Y-106050500D01*
X102083768Y-106050500D01*
X102083769Y-106050499D01*
X102248082Y-106017816D01*
X102402863Y-105953703D01*
X102542162Y-105860626D01*
X102660626Y-105742162D01*
X102753703Y-105602863D01*
X102817816Y-105448082D01*
X102850500Y-105283767D01*
X102850500Y-105116233D01*
X102850499Y-105116228D01*
X103649500Y-105116228D01*
X103649500Y-105283771D01*
X103682182Y-105448074D01*
X103682184Y-105448082D01*
X103746295Y-105602860D01*
X103839373Y-105742162D01*
X103957837Y-105860626D01*
X104043015Y-105917540D01*
X104097137Y-105953703D01*
X104251918Y-106017816D01*
X104416228Y-106050499D01*
X104416232Y-106050500D01*
X104416233Y-106050500D01*
X104583768Y-106050500D01*
X104583769Y-106050499D01*
X104748082Y-106017816D01*
X104902863Y-105953703D01*
X105042162Y-105860626D01*
X105160626Y-105742162D01*
X105253703Y-105602863D01*
X105317816Y-105448082D01*
X105350500Y-105283767D01*
X105350500Y-105116233D01*
X105317816Y-104951918D01*
X105253703Y-104797137D01*
X105222537Y-104750494D01*
X105160626Y-104657837D01*
X105042162Y-104539373D01*
X104902860Y-104446295D01*
X104748082Y-104382184D01*
X104748074Y-104382182D01*
X104583771Y-104349500D01*
X104583767Y-104349500D01*
X104416233Y-104349500D01*
X104416228Y-104349500D01*
X104251925Y-104382182D01*
X104251917Y-104382184D01*
X104097139Y-104446295D01*
X103957837Y-104539373D01*
X103839373Y-104657837D01*
X103746295Y-104797139D01*
X103682184Y-104951917D01*
X103682182Y-104951925D01*
X103649500Y-105116228D01*
X102850499Y-105116228D01*
X102817816Y-104951918D01*
X102753703Y-104797137D01*
X102722537Y-104750494D01*
X102660626Y-104657837D01*
X102542162Y-104539373D01*
X102402860Y-104446295D01*
X102248082Y-104382184D01*
X102248074Y-104382182D01*
X102083771Y-104349500D01*
X102083767Y-104349500D01*
X101916233Y-104349500D01*
X101916228Y-104349500D01*
X101751925Y-104382182D01*
X101751917Y-104382184D01*
X101597139Y-104446295D01*
X101457837Y-104539373D01*
X101339373Y-104657837D01*
X101246295Y-104797139D01*
X101182184Y-104951917D01*
X101182182Y-104951925D01*
X101149500Y-105116228D01*
X100000500Y-105116228D01*
X100000500Y-100786571D01*
X103400000Y-100786571D01*
X103427085Y-100957584D01*
X103480591Y-101122257D01*
X103559195Y-101276524D01*
X103660967Y-101416602D01*
X103783397Y-101539032D01*
X103923475Y-101640804D01*
X104077744Y-101719408D01*
X104242415Y-101772914D01*
X104242414Y-101772914D01*
X104249999Y-101774115D01*
X104750000Y-101774115D01*
X104757584Y-101772914D01*
X104922255Y-101719408D01*
X105076524Y-101640804D01*
X105216602Y-101539032D01*
X105339032Y-101416602D01*
X105440804Y-101276524D01*
X105519408Y-101122257D01*
X105572914Y-100957584D01*
X105600000Y-100786571D01*
X105600000Y-100450000D01*
X104750000Y-100450000D01*
X104750000Y-101774115D01*
X104249999Y-101774115D01*
X104250000Y-101774114D01*
X104250000Y-100450000D01*
X103400000Y-100450000D01*
X103400000Y-100786571D01*
X100000500Y-100786571D01*
X100000500Y-99613428D01*
X103400000Y-99613428D01*
X103400000Y-99950000D01*
X104250000Y-99950000D01*
X104250000Y-99660218D01*
X104300000Y-99660218D01*
X104300000Y-100739782D01*
X104330448Y-100813291D01*
X104386709Y-100869552D01*
X104460218Y-100900000D01*
X104539782Y-100900000D01*
X104613291Y-100869552D01*
X104669552Y-100813291D01*
X104700000Y-100739782D01*
X104700000Y-100116228D01*
X108649500Y-100116228D01*
X108649500Y-100283771D01*
X108682182Y-100448074D01*
X108682184Y-100448082D01*
X108746295Y-100602860D01*
X108839373Y-100742162D01*
X108957837Y-100860626D01*
X108993876Y-100884706D01*
X109097137Y-100953703D01*
X109251918Y-101017816D01*
X109401764Y-101047622D01*
X109416228Y-101050499D01*
X109416232Y-101050500D01*
X109416233Y-101050500D01*
X109583768Y-101050500D01*
X109583769Y-101050499D01*
X109748082Y-101017816D01*
X109902863Y-100953703D01*
X110042162Y-100860626D01*
X110160626Y-100742162D01*
X110253703Y-100602863D01*
X110317816Y-100448082D01*
X110350500Y-100283767D01*
X110350500Y-100116233D01*
X110317816Y-99951918D01*
X110253703Y-99797137D01*
X110184029Y-99692863D01*
X110160626Y-99657837D01*
X110042162Y-99539373D01*
X109902860Y-99446295D01*
X109748082Y-99382184D01*
X109748074Y-99382182D01*
X109583771Y-99349500D01*
X109583767Y-99349500D01*
X109416233Y-99349500D01*
X109416228Y-99349500D01*
X109251925Y-99382182D01*
X109251917Y-99382184D01*
X109097139Y-99446295D01*
X108957837Y-99539373D01*
X108839373Y-99657837D01*
X108746295Y-99797139D01*
X108682184Y-99951917D01*
X108682182Y-99951925D01*
X108649500Y-100116228D01*
X104700000Y-100116228D01*
X104700000Y-99950000D01*
X104750000Y-99950000D01*
X105600000Y-99950000D01*
X105600000Y-99613428D01*
X105572914Y-99442415D01*
X105519408Y-99277742D01*
X105440804Y-99123475D01*
X105339032Y-98983397D01*
X105216602Y-98860967D01*
X105076524Y-98759195D01*
X104922257Y-98680591D01*
X104757589Y-98627087D01*
X104757581Y-98627085D01*
X104750000Y-98625884D01*
X104750000Y-99950000D01*
X104700000Y-99950000D01*
X104700000Y-99660218D01*
X104669552Y-99586709D01*
X104613291Y-99530448D01*
X104539782Y-99500000D01*
X104460218Y-99500000D01*
X104386709Y-99530448D01*
X104330448Y-99586709D01*
X104300000Y-99660218D01*
X104250000Y-99660218D01*
X104250000Y-98625884D01*
X104249999Y-98625884D01*
X104242418Y-98627085D01*
X104242410Y-98627087D01*
X104077742Y-98680591D01*
X103923475Y-98759195D01*
X103783397Y-98860967D01*
X103660967Y-98983397D01*
X103559195Y-99123475D01*
X103480591Y-99277742D01*
X103427085Y-99442415D01*
X103400000Y-99613428D01*
X100000500Y-99613428D01*
X100000500Y-95116228D01*
X101149500Y-95116228D01*
X101149500Y-95283771D01*
X101182182Y-95448074D01*
X101182184Y-95448082D01*
X101246295Y-95602860D01*
X101339373Y-95742162D01*
X101457837Y-95860626D01*
X101550494Y-95922537D01*
X101597137Y-95953703D01*
X101597138Y-95953703D01*
X101597139Y-95953704D01*
X101632201Y-95968227D01*
X101751918Y-96017816D01*
X101916228Y-96050499D01*
X101916232Y-96050500D01*
X101916233Y-96050500D01*
X102083768Y-96050500D01*
X102083769Y-96050499D01*
X102248082Y-96017816D01*
X102402863Y-95953703D01*
X102542162Y-95860626D01*
X102660626Y-95742162D01*
X102753703Y-95602863D01*
X102817816Y-95448082D01*
X102850500Y-95283767D01*
X102850500Y-95116233D01*
X102850499Y-95116228D01*
X103649500Y-95116228D01*
X103649500Y-95283771D01*
X103682182Y-95448074D01*
X103682184Y-95448082D01*
X103746295Y-95602860D01*
X103839373Y-95742162D01*
X103957837Y-95860626D01*
X104050494Y-95922537D01*
X104097137Y-95953703D01*
X104097138Y-95953703D01*
X104097139Y-95953704D01*
X104132201Y-95968227D01*
X104251918Y-96017816D01*
X104416228Y-96050499D01*
X104416232Y-96050500D01*
X104416233Y-96050500D01*
X104583768Y-96050500D01*
X104583769Y-96050499D01*
X104748082Y-96017816D01*
X104902863Y-95953703D01*
X105042162Y-95860626D01*
X105160626Y-95742162D01*
X105253703Y-95602863D01*
X105317816Y-95448082D01*
X105350500Y-95283767D01*
X105350500Y-95116233D01*
X105349934Y-95113389D01*
X107899500Y-95113389D01*
X107899500Y-95286611D01*
X107926598Y-95457701D01*
X107980127Y-95622445D01*
X108058768Y-95776788D01*
X108160586Y-95916928D01*
X108283072Y-96039414D01*
X108423212Y-96141232D01*
X108577555Y-96219873D01*
X108742299Y-96273402D01*
X108913389Y-96300500D01*
X108913390Y-96300500D01*
X110086610Y-96300500D01*
X110086611Y-96300500D01*
X110257701Y-96273402D01*
X110422445Y-96219873D01*
X110576788Y-96141232D01*
X110716928Y-96039414D01*
X110839414Y-95916928D01*
X110848797Y-95904013D01*
X110853128Y-95900673D01*
X110855401Y-95895697D01*
X110880500Y-95879566D01*
X110904126Y-95861349D01*
X110910797Y-95860096D01*
X110914179Y-95857923D01*
X110949114Y-95852900D01*
X111178197Y-95852900D01*
X111245236Y-95872585D01*
X111265878Y-95889219D01*
X115643148Y-100266488D01*
X115676633Y-100327811D01*
X115677084Y-100329977D01*
X115702374Y-100457118D01*
X115702377Y-100457128D01*
X115768821Y-100617540D01*
X115768828Y-100617553D01*
X115865293Y-100761922D01*
X115865296Y-100761926D01*
X115988073Y-100884703D01*
X115988077Y-100884706D01*
X116132446Y-100981171D01*
X116132459Y-100981178D01*
X116292871Y-101047622D01*
X116292876Y-101047624D01*
X116292880Y-101047624D01*
X116292881Y-101047625D01*
X116463177Y-101081500D01*
X116463180Y-101081500D01*
X116636822Y-101081500D01*
X116751394Y-101058709D01*
X116807124Y-101047624D01*
X116967547Y-100981175D01*
X117111923Y-100884706D01*
X117111928Y-100884700D01*
X117116382Y-100881047D01*
X117180692Y-100853734D01*
X117195047Y-100852900D01*
X134478197Y-100852900D01*
X134545236Y-100872585D01*
X134565878Y-100889219D01*
X144260781Y-110584121D01*
X144294266Y-110645444D01*
X144297100Y-110671802D01*
X144297100Y-136614307D01*
X144314245Y-136700497D01*
X144314245Y-136700498D01*
X144322189Y-136740438D01*
X144322190Y-136740442D01*
X144322191Y-136740444D01*
X144371408Y-136859264D01*
X144435700Y-136955485D01*
X144442862Y-136966204D01*
X144442863Y-136966205D01*
X146010781Y-138534121D01*
X146044266Y-138595444D01*
X146047100Y-138621802D01*
X146047100Y-144816796D01*
X146027415Y-144883835D01*
X146010781Y-144904477D01*
X144854477Y-146060781D01*
X144793154Y-146094266D01*
X144766796Y-146097100D01*
X136571802Y-146097100D01*
X136504763Y-146077415D01*
X136484121Y-146060781D01*
X135289219Y-144865878D01*
X135255734Y-144804555D01*
X135252900Y-144778197D01*
X135252900Y-142256571D01*
X135600000Y-142256571D01*
X135600000Y-142508428D01*
X135639397Y-142757169D01*
X135717219Y-142996684D01*
X135831557Y-143221083D01*
X135905748Y-143323197D01*
X135905748Y-143323198D01*
X136635387Y-142593559D01*
X136640889Y-142614091D01*
X136719881Y-142750908D01*
X136831592Y-142862619D01*
X136968409Y-142941611D01*
X136988940Y-142947112D01*
X136259300Y-143676750D01*
X136361416Y-143750942D01*
X136585815Y-143865280D01*
X136825330Y-143943102D01*
X137074072Y-143982500D01*
X137325928Y-143982500D01*
X137574669Y-143943102D01*
X137814184Y-143865280D01*
X138038575Y-143750946D01*
X138038581Y-143750942D01*
X138140697Y-143676750D01*
X138140698Y-143676750D01*
X137411059Y-142947112D01*
X137431591Y-142941611D01*
X137568408Y-142862619D01*
X137680119Y-142750908D01*
X137759111Y-142614091D01*
X137764612Y-142593560D01*
X138494250Y-143323198D01*
X138494250Y-143323197D01*
X138568442Y-143221081D01*
X138568446Y-143221075D01*
X138682780Y-142996684D01*
X138760602Y-142757169D01*
X138800000Y-142508428D01*
X138800000Y-142256571D01*
X138760602Y-142007830D01*
X138682780Y-141768315D01*
X138568442Y-141543916D01*
X138494250Y-141441801D01*
X138494250Y-141441800D01*
X137764612Y-142171439D01*
X137759111Y-142150909D01*
X137680119Y-142014092D01*
X137568408Y-141902381D01*
X137431591Y-141823389D01*
X137411058Y-141817887D01*
X138140698Y-141088248D01*
X138082396Y-141045889D01*
X143349500Y-141045889D01*
X143349500Y-142719111D01*
X143376598Y-142890201D01*
X143430127Y-143054945D01*
X143508768Y-143209288D01*
X143610586Y-143349428D01*
X143733072Y-143471914D01*
X143873212Y-143573732D01*
X144027555Y-143652373D01*
X144192299Y-143705902D01*
X144363389Y-143733000D01*
X144363390Y-143733000D01*
X144536610Y-143733000D01*
X144536611Y-143733000D01*
X144707701Y-143705902D01*
X144872445Y-143652373D01*
X145026788Y-143573732D01*
X145166928Y-143471914D01*
X145289414Y-143349428D01*
X145391232Y-143209288D01*
X145469873Y-143054945D01*
X145523402Y-142890201D01*
X145550500Y-142719111D01*
X145550500Y-141045889D01*
X145523402Y-140874799D01*
X145469873Y-140710055D01*
X145391232Y-140555712D01*
X145289414Y-140415572D01*
X145166928Y-140293086D01*
X145026788Y-140191268D01*
X144872445Y-140112627D01*
X144707701Y-140059098D01*
X144707699Y-140059097D01*
X144707698Y-140059097D01*
X144576271Y-140038281D01*
X144536611Y-140032000D01*
X144363389Y-140032000D01*
X144323728Y-140038281D01*
X144192302Y-140059097D01*
X144027552Y-140112628D01*
X143873211Y-140191268D01*
X143793256Y-140249359D01*
X143733072Y-140293086D01*
X143733070Y-140293088D01*
X143733069Y-140293088D01*
X143610588Y-140415569D01*
X143610588Y-140415570D01*
X143610586Y-140415572D01*
X143566859Y-140475756D01*
X143508768Y-140555711D01*
X143430128Y-140710052D01*
X143376597Y-140874802D01*
X143372651Y-140899719D01*
X143349500Y-141045889D01*
X138082396Y-141045889D01*
X138038583Y-141014057D01*
X137814184Y-140899719D01*
X137574669Y-140821897D01*
X137325928Y-140782500D01*
X137074072Y-140782500D01*
X136825330Y-140821897D01*
X136585815Y-140899719D01*
X136361413Y-141014059D01*
X136259301Y-141088247D01*
X136259300Y-141088248D01*
X136988940Y-141817887D01*
X136968409Y-141823389D01*
X136831592Y-141902381D01*
X136719881Y-142014092D01*
X136640889Y-142150909D01*
X136635387Y-142171440D01*
X135905748Y-141441800D01*
X135905747Y-141441801D01*
X135831559Y-141543913D01*
X135717219Y-141768315D01*
X135639397Y-142007830D01*
X135600000Y-142256571D01*
X135252900Y-142256571D01*
X135252900Y-139218192D01*
X135227810Y-139092061D01*
X135227809Y-139092060D01*
X135227809Y-139092056D01*
X135178592Y-138973236D01*
X135178591Y-138973234D01*
X135167010Y-138955901D01*
X135167010Y-138955900D01*
X135107142Y-138866301D01*
X135107136Y-138866294D01*
X134750332Y-138509491D01*
X134716847Y-138448168D01*
X134720081Y-138383494D01*
X134761090Y-138257285D01*
X134800500Y-138008462D01*
X134800500Y-137756538D01*
X134761090Y-137507715D01*
X134683241Y-137268121D01*
X134683239Y-137268118D01*
X134683239Y-137268116D01*
X134620831Y-137145634D01*
X134568870Y-137043655D01*
X134549952Y-137017617D01*
X134420798Y-136839850D01*
X134420794Y-136839845D01*
X134242654Y-136661705D01*
X134242649Y-136661701D01*
X134038848Y-136513632D01*
X134038847Y-136513631D01*
X134038845Y-136513630D01*
X133968747Y-136477913D01*
X133814383Y-136399260D01*
X133574785Y-136321410D01*
X133569702Y-136320605D01*
X133325962Y-136282000D01*
X133074038Y-136282000D01*
X132949626Y-136301705D01*
X132825214Y-136321410D01*
X132585616Y-136399260D01*
X132361151Y-136513632D01*
X132157350Y-136661701D01*
X132157345Y-136661705D01*
X131979205Y-136839845D01*
X131979201Y-136839850D01*
X131831132Y-137043651D01*
X131716760Y-137268116D01*
X131638910Y-137507714D01*
X131628822Y-137571410D01*
X131599500Y-137756538D01*
X131599500Y-138008462D01*
X131632702Y-138218092D01*
X131638910Y-138257285D01*
X131716760Y-138496883D01*
X131831132Y-138721348D01*
X131979201Y-138925149D01*
X131979205Y-138925154D01*
X132157345Y-139103294D01*
X132157350Y-139103298D01*
X132315489Y-139218192D01*
X132361155Y-139251370D01*
X132504184Y-139324247D01*
X132585616Y-139365739D01*
X132585618Y-139365739D01*
X132585621Y-139365741D01*
X132825215Y-139443590D01*
X133074038Y-139483000D01*
X133074039Y-139483000D01*
X133325961Y-139483000D01*
X133325962Y-139483000D01*
X133574785Y-139443590D01*
X133700993Y-139402581D01*
X133716204Y-139402147D01*
X133730464Y-139396829D01*
X133750419Y-139401170D01*
X133770833Y-139400587D01*
X133784919Y-139408675D01*
X133798737Y-139411681D01*
X133826991Y-139432832D01*
X133910781Y-139516622D01*
X133944266Y-139577945D01*
X133947100Y-139604303D01*
X133947100Y-145164307D01*
X133971431Y-145286622D01*
X133971431Y-145286626D01*
X133971432Y-145286626D01*
X133971433Y-145286632D01*
X133971805Y-145288507D01*
X133972191Y-145290445D01*
X134007601Y-145375931D01*
X134021408Y-145409264D01*
X134047199Y-145447863D01*
X134092862Y-145516204D01*
X134092863Y-145516205D01*
X135833796Y-147257137D01*
X135833797Y-147257138D01*
X135833800Y-147257140D01*
X135940736Y-147328592D01*
X136059556Y-147377809D01*
X136059560Y-147377809D01*
X136059561Y-147377810D01*
X136185692Y-147402900D01*
X136185695Y-147402900D01*
X145152906Y-147402900D01*
X145248427Y-147383899D01*
X145279043Y-147377809D01*
X145397863Y-147328592D01*
X145504799Y-147257141D01*
X147207140Y-145554799D01*
X147278592Y-145447863D01*
X147327809Y-145329043D01*
X147336245Y-145286632D01*
X147352900Y-145202904D01*
X147352900Y-144878711D01*
X193149500Y-144878711D01*
X193149500Y-145121288D01*
X193171769Y-145290445D01*
X193181162Y-145361789D01*
X193193883Y-145409264D01*
X193243947Y-145596104D01*
X193336773Y-145820205D01*
X193336776Y-145820212D01*
X193458064Y-146030289D01*
X193458066Y-146030292D01*
X193458067Y-146030293D01*
X193605733Y-146222736D01*
X193605739Y-146222743D01*
X193777256Y-146394260D01*
X193777262Y-146394265D01*
X193969711Y-146541936D01*
X194179788Y-146663224D01*
X194403900Y-146756054D01*
X194638211Y-146818838D01*
X194818586Y-146842584D01*
X194878711Y-146850500D01*
X194878712Y-146850500D01*
X195121289Y-146850500D01*
X195169388Y-146844167D01*
X195361789Y-146818838D01*
X195596100Y-146756054D01*
X195820212Y-146663224D01*
X196030289Y-146541936D01*
X196222738Y-146394265D01*
X196394265Y-146222738D01*
X196541936Y-146030289D01*
X196663224Y-145820212D01*
X196756054Y-145596100D01*
X196818838Y-145361789D01*
X196850500Y-145121288D01*
X196850500Y-144878712D01*
X196848810Y-144865878D01*
X196818838Y-144638214D01*
X196818838Y-144638211D01*
X196756054Y-144403900D01*
X196663224Y-144179788D01*
X196541936Y-143969711D01*
X196461803Y-143865280D01*
X196394266Y-143777263D01*
X196394260Y-143777256D01*
X196222743Y-143605739D01*
X196222736Y-143605733D01*
X196030293Y-143458067D01*
X196030292Y-143458066D01*
X196030289Y-143458064D01*
X195820212Y-143336776D01*
X195787432Y-143323198D01*
X195596104Y-143243947D01*
X195361785Y-143181161D01*
X195121289Y-143149500D01*
X195121288Y-143149500D01*
X194878712Y-143149500D01*
X194878711Y-143149500D01*
X194638214Y-143181161D01*
X194403895Y-143243947D01*
X194179794Y-143336773D01*
X194179785Y-143336777D01*
X193969706Y-143458067D01*
X193777263Y-143605733D01*
X193777256Y-143605739D01*
X193605739Y-143777256D01*
X193605733Y-143777263D01*
X193458067Y-143969706D01*
X193336777Y-144179785D01*
X193336773Y-144179794D01*
X193243947Y-144403895D01*
X193181161Y-144638214D01*
X193149500Y-144878711D01*
X147352900Y-144878711D01*
X147352900Y-138235695D01*
X147352900Y-138235692D01*
X147327810Y-138109561D01*
X147327809Y-138109560D01*
X147327809Y-138109556D01*
X147278592Y-137990736D01*
X147278591Y-137990734D01*
X147264143Y-137969110D01*
X147264143Y-137969109D01*
X147207143Y-137883803D01*
X147207138Y-137883797D01*
X145639219Y-136315878D01*
X145605734Y-136254555D01*
X145602900Y-136228197D01*
X145602900Y-130586822D01*
X149818499Y-130586822D01*
X149852374Y-130757118D01*
X149852377Y-130757128D01*
X149918821Y-130917540D01*
X149918828Y-130917553D01*
X150015293Y-131061922D01*
X150015296Y-131061926D01*
X150138073Y-131184703D01*
X150138077Y-131184706D01*
X150282446Y-131281171D01*
X150282459Y-131281178D01*
X150442871Y-131347622D01*
X150442876Y-131347624D01*
X150442880Y-131347624D01*
X150442881Y-131347625D01*
X150613177Y-131381500D01*
X150613180Y-131381500D01*
X150786822Y-131381500D01*
X150901394Y-131358709D01*
X150957124Y-131347624D01*
X151117547Y-131281175D01*
X151261923Y-131184706D01*
X151384706Y-131061923D01*
X151481175Y-130917547D01*
X151547624Y-130757124D01*
X151558448Y-130702709D01*
X151590832Y-130640798D01*
X151651548Y-130606224D01*
X151680065Y-130602900D01*
X165554953Y-130602900D01*
X165621992Y-130622585D01*
X165633618Y-130631047D01*
X165638074Y-130634703D01*
X165638077Y-130634706D01*
X165685550Y-130666426D01*
X165782446Y-130731171D01*
X165782459Y-130731178D01*
X165845109Y-130757128D01*
X165942876Y-130797624D01*
X165942880Y-130797624D01*
X165942881Y-130797625D01*
X166113177Y-130831500D01*
X166113180Y-130831500D01*
X166286822Y-130831500D01*
X166401394Y-130808709D01*
X166457124Y-130797624D01*
X166617547Y-130731175D01*
X166761923Y-130634706D01*
X166884706Y-130511923D01*
X166981175Y-130367547D01*
X167047624Y-130207124D01*
X167072423Y-130082453D01*
X167081500Y-130036822D01*
X167081500Y-129863177D01*
X167047625Y-129692881D01*
X167047624Y-129692880D01*
X167047624Y-129692876D01*
X167044371Y-129685023D01*
X166981178Y-129532459D01*
X166981171Y-129532446D01*
X166884703Y-129388073D01*
X166881043Y-129383612D01*
X166853733Y-129319300D01*
X166852900Y-129304952D01*
X166852900Y-125595047D01*
X166872585Y-125528008D01*
X166881047Y-125516382D01*
X166884700Y-125511928D01*
X166884706Y-125511923D01*
X166981175Y-125367547D01*
X167047624Y-125207124D01*
X167081500Y-125036820D01*
X167081500Y-124863180D01*
X167081500Y-124863177D01*
X167047625Y-124692881D01*
X167047624Y-124692880D01*
X167047624Y-124692876D01*
X167047622Y-124692871D01*
X166981178Y-124532459D01*
X166981171Y-124532446D01*
X166884706Y-124388077D01*
X166884703Y-124388073D01*
X166761926Y-124265296D01*
X166761922Y-124265293D01*
X166617553Y-124168828D01*
X166617540Y-124168821D01*
X166457128Y-124102377D01*
X166457118Y-124102374D01*
X166286822Y-124068500D01*
X166286820Y-124068500D01*
X166113180Y-124068500D01*
X166113178Y-124068500D01*
X165942881Y-124102374D01*
X165942871Y-124102377D01*
X165782459Y-124168821D01*
X165782446Y-124168828D01*
X165638077Y-124265293D01*
X165638073Y-124265296D01*
X165515296Y-124388073D01*
X165515293Y-124388077D01*
X165418828Y-124532446D01*
X165418821Y-124532459D01*
X165352377Y-124692871D01*
X165352374Y-124692881D01*
X165318500Y-124863177D01*
X165318500Y-124863180D01*
X165318500Y-125036820D01*
X165318500Y-125036822D01*
X165318499Y-125036822D01*
X165352374Y-125207118D01*
X165352377Y-125207128D01*
X165418821Y-125367540D01*
X165418828Y-125367553D01*
X165515294Y-125511923D01*
X165518953Y-125516382D01*
X165546266Y-125580692D01*
X165547100Y-125595047D01*
X165547100Y-129173100D01*
X165527415Y-129240139D01*
X165474611Y-129285894D01*
X165423100Y-129297100D01*
X151185693Y-129297100D01*
X151059561Y-129322189D01*
X151059555Y-129322191D01*
X150940737Y-129371407D01*
X150833797Y-129442861D01*
X150833796Y-129442862D01*
X150694447Y-129582212D01*
X150633124Y-129615697D01*
X150618925Y-129617933D01*
X150613184Y-129618498D01*
X150442881Y-129652374D01*
X150442871Y-129652377D01*
X150282459Y-129718821D01*
X150282446Y-129718828D01*
X150138077Y-129815293D01*
X150138073Y-129815296D01*
X150015296Y-129938073D01*
X150015293Y-129938077D01*
X149918828Y-130082446D01*
X149918821Y-130082459D01*
X149852377Y-130242871D01*
X149852374Y-130242881D01*
X149818500Y-130413177D01*
X149818500Y-130413180D01*
X149818500Y-130586820D01*
X149818500Y-130586822D01*
X149818499Y-130586822D01*
X145602900Y-130586822D01*
X145602900Y-123500000D01*
X147000000Y-123500000D01*
X183500000Y-123500000D01*
X183500000Y-116381902D01*
X194499500Y-116381902D01*
X194499500Y-116618097D01*
X194536446Y-116851368D01*
X194609433Y-117075996D01*
X194716657Y-117286433D01*
X194855483Y-117477510D01*
X195022490Y-117644517D01*
X195213567Y-117783343D01*
X195312991Y-117834002D01*
X195424003Y-117890566D01*
X195424005Y-117890566D01*
X195424008Y-117890568D01*
X195544412Y-117929689D01*
X195648631Y-117963553D01*
X195881903Y-118000500D01*
X195881908Y-118000500D01*
X196118097Y-118000500D01*
X196351368Y-117963553D01*
X196575992Y-117890568D01*
X196786433Y-117783343D01*
X196977510Y-117644517D01*
X197144517Y-117477510D01*
X197283343Y-117286433D01*
X197390568Y-117075992D01*
X197463553Y-116851368D01*
X197465264Y-116840566D01*
X197500500Y-116618097D01*
X197500500Y-116381902D01*
X197463553Y-116148631D01*
X197411895Y-115989645D01*
X197390568Y-115924008D01*
X197390566Y-115924005D01*
X197390566Y-115924003D01*
X197283342Y-115713566D01*
X197144517Y-115522490D01*
X196977510Y-115355483D01*
X196786433Y-115216657D01*
X196575996Y-115109433D01*
X196351368Y-115036446D01*
X196118097Y-114999500D01*
X196118092Y-114999500D01*
X195881908Y-114999500D01*
X195881903Y-114999500D01*
X195648631Y-115036446D01*
X195424003Y-115109433D01*
X195213566Y-115216657D01*
X195104550Y-115295862D01*
X195022490Y-115355483D01*
X195022488Y-115355485D01*
X195022487Y-115355485D01*
X194855485Y-115522487D01*
X194855485Y-115522488D01*
X194855483Y-115522490D01*
X194808744Y-115586820D01*
X194716657Y-115713566D01*
X194609433Y-115924003D01*
X194536446Y-116148631D01*
X194499500Y-116381902D01*
X183500000Y-116381902D01*
X183500000Y-109773870D01*
X187724500Y-109773870D01*
X187724500Y-110006129D01*
X187760831Y-110235514D01*
X187832601Y-110456400D01*
X187915196Y-110618500D01*
X187938039Y-110663331D01*
X188074551Y-110851224D01*
X188238776Y-111015449D01*
X188426669Y-111151961D01*
X188524436Y-111201776D01*
X188633599Y-111257398D01*
X188633601Y-111257398D01*
X188633604Y-111257400D01*
X188854486Y-111329169D01*
X188971009Y-111347624D01*
X189083871Y-111365500D01*
X189083876Y-111365500D01*
X189316129Y-111365500D01*
X189428991Y-111347624D01*
X189545514Y-111329169D01*
X189766396Y-111257400D01*
X189973331Y-111151961D01*
X190161224Y-111015449D01*
X190325449Y-110851224D01*
X190461961Y-110663331D01*
X190567400Y-110456396D01*
X190639169Y-110235514D01*
X190670018Y-110040737D01*
X190675500Y-110006129D01*
X190675500Y-109773870D01*
X192804500Y-109773870D01*
X192804500Y-110006129D01*
X192840831Y-110235514D01*
X192912601Y-110456400D01*
X192995196Y-110618500D01*
X193018039Y-110663331D01*
X193154551Y-110851224D01*
X193318776Y-111015449D01*
X193506669Y-111151961D01*
X193604436Y-111201776D01*
X193713599Y-111257398D01*
X193713601Y-111257398D01*
X193713604Y-111257400D01*
X193934486Y-111329169D01*
X194051009Y-111347624D01*
X194163871Y-111365500D01*
X194163876Y-111365500D01*
X194396129Y-111365500D01*
X194508991Y-111347624D01*
X194625514Y-111329169D01*
X194846396Y-111257400D01*
X195053331Y-111151961D01*
X195241224Y-111015449D01*
X195405449Y-110851224D01*
X195541961Y-110663331D01*
X195647400Y-110456396D01*
X195719169Y-110235514D01*
X195750018Y-110040737D01*
X195755500Y-110006129D01*
X195755500Y-109773870D01*
X195730891Y-109618500D01*
X195719169Y-109544486D01*
X195647400Y-109323604D01*
X195647398Y-109323601D01*
X195647398Y-109323599D01*
X195541960Y-109116668D01*
X195519993Y-109086433D01*
X195405449Y-108928776D01*
X195241224Y-108764551D01*
X195053331Y-108628039D01*
X194846400Y-108522601D01*
X194625514Y-108450831D01*
X194396129Y-108414500D01*
X194396124Y-108414500D01*
X194163876Y-108414500D01*
X194163871Y-108414500D01*
X193934485Y-108450831D01*
X193713599Y-108522601D01*
X193506668Y-108628039D01*
X193318773Y-108764553D01*
X193154553Y-108928773D01*
X193018039Y-109116668D01*
X192912601Y-109323599D01*
X192840831Y-109544485D01*
X192804500Y-109773870D01*
X190675500Y-109773870D01*
X190650891Y-109618500D01*
X190639169Y-109544486D01*
X190567400Y-109323604D01*
X190567398Y-109323601D01*
X190567398Y-109323599D01*
X190461960Y-109116668D01*
X190439993Y-109086433D01*
X190325449Y-108928776D01*
X190161224Y-108764551D01*
X189973331Y-108628039D01*
X189766400Y-108522601D01*
X189545514Y-108450831D01*
X189316129Y-108414500D01*
X189316124Y-108414500D01*
X189083876Y-108414500D01*
X189083871Y-108414500D01*
X188854485Y-108450831D01*
X188633599Y-108522601D01*
X188426668Y-108628039D01*
X188238773Y-108764553D01*
X188074553Y-108928773D01*
X187938039Y-109116668D01*
X187832601Y-109323599D01*
X187760831Y-109544485D01*
X187724500Y-109773870D01*
X183500000Y-109773870D01*
X183500000Y-104533909D01*
X187675000Y-104533909D01*
X187675000Y-104766090D01*
X187711318Y-104995393D01*
X187783065Y-105216205D01*
X187888465Y-105423064D01*
X187945238Y-105501207D01*
X188548958Y-104897487D01*
X188573978Y-104957890D01*
X188645112Y-105064351D01*
X188735649Y-105154888D01*
X188842110Y-105226022D01*
X188902510Y-105251041D01*
X188298791Y-105854759D01*
X188298791Y-105854760D01*
X188376935Y-105911534D01*
X188583794Y-106016934D01*
X188804606Y-106088681D01*
X189033910Y-106125000D01*
X189266090Y-106125000D01*
X189495393Y-106088681D01*
X189716205Y-106016934D01*
X189923071Y-105911530D01*
X190001207Y-105854762D01*
X190001208Y-105854760D01*
X189397488Y-105251041D01*
X189457890Y-105226022D01*
X189564351Y-105154888D01*
X189654888Y-105064351D01*
X189726022Y-104957890D01*
X189751041Y-104897489D01*
X190354760Y-105501208D01*
X190354762Y-105501207D01*
X190411530Y-105423071D01*
X190516934Y-105216205D01*
X190588681Y-104995393D01*
X190625000Y-104766090D01*
X190625000Y-104533909D01*
X192755000Y-104533909D01*
X192755000Y-104766090D01*
X192791318Y-104995393D01*
X192863065Y-105216205D01*
X192968465Y-105423064D01*
X193025238Y-105501207D01*
X193628958Y-104897487D01*
X193653978Y-104957890D01*
X193725112Y-105064351D01*
X193815649Y-105154888D01*
X193922110Y-105226022D01*
X193982510Y-105251041D01*
X193378791Y-105854759D01*
X193378791Y-105854760D01*
X193456935Y-105911534D01*
X193663794Y-106016934D01*
X193884606Y-106088681D01*
X194113910Y-106125000D01*
X194346090Y-106125000D01*
X194575393Y-106088681D01*
X194796205Y-106016934D01*
X195003071Y-105911530D01*
X195081207Y-105854762D01*
X195081208Y-105854760D01*
X194477488Y-105251041D01*
X194537890Y-105226022D01*
X194644351Y-105154888D01*
X194734888Y-105064351D01*
X194806022Y-104957890D01*
X194831041Y-104897489D01*
X195434760Y-105501208D01*
X195434762Y-105501207D01*
X195491530Y-105423071D01*
X195596934Y-105216205D01*
X195668681Y-104995393D01*
X195705000Y-104766090D01*
X195705000Y-104533909D01*
X195668681Y-104304606D01*
X195596934Y-104083794D01*
X195491534Y-103876935D01*
X195434760Y-103798791D01*
X195434759Y-103798791D01*
X194831041Y-104402510D01*
X194806022Y-104342110D01*
X194734888Y-104235649D01*
X194644351Y-104145112D01*
X194537890Y-104073978D01*
X194477487Y-104048957D01*
X195081207Y-103445238D01*
X195003064Y-103388465D01*
X194796205Y-103283065D01*
X194575393Y-103211318D01*
X194346090Y-103175000D01*
X194113910Y-103175000D01*
X193884606Y-103211318D01*
X193663794Y-103283065D01*
X193456925Y-103388470D01*
X193378791Y-103445237D01*
X193378791Y-103445238D01*
X193982511Y-104048958D01*
X193922110Y-104073978D01*
X193815649Y-104145112D01*
X193725112Y-104235649D01*
X193653978Y-104342110D01*
X193628958Y-104402511D01*
X193025238Y-103798791D01*
X193025237Y-103798791D01*
X192968470Y-103876925D01*
X192863065Y-104083794D01*
X192791318Y-104304606D01*
X192755000Y-104533909D01*
X190625000Y-104533909D01*
X190588681Y-104304606D01*
X190516934Y-104083794D01*
X190411534Y-103876935D01*
X190354760Y-103798791D01*
X190354759Y-103798791D01*
X189751041Y-104402510D01*
X189726022Y-104342110D01*
X189654888Y-104235649D01*
X189564351Y-104145112D01*
X189457890Y-104073978D01*
X189397487Y-104048957D01*
X190001207Y-103445238D01*
X189923064Y-103388465D01*
X189716205Y-103283065D01*
X189495393Y-103211318D01*
X189266090Y-103175000D01*
X189033910Y-103175000D01*
X188804606Y-103211318D01*
X188583794Y-103283065D01*
X188376925Y-103388470D01*
X188298791Y-103445237D01*
X188298791Y-103445238D01*
X188902511Y-104048958D01*
X188842110Y-104073978D01*
X188735649Y-104145112D01*
X188645112Y-104235649D01*
X188573978Y-104342110D01*
X188548958Y-104402511D01*
X187945238Y-103798791D01*
X187945237Y-103798791D01*
X187888470Y-103876925D01*
X187783065Y-104083794D01*
X187711318Y-104304606D01*
X187675000Y-104533909D01*
X183500000Y-104533909D01*
X183500000Y-95723909D01*
X187770000Y-95723909D01*
X187770000Y-95956090D01*
X187806318Y-96185393D01*
X187878065Y-96406205D01*
X187983465Y-96613064D01*
X188040238Y-96691207D01*
X188643958Y-96087487D01*
X188668978Y-96147890D01*
X188740112Y-96254351D01*
X188830649Y-96344888D01*
X188937110Y-96416022D01*
X188997510Y-96441041D01*
X188393791Y-97044759D01*
X188393791Y-97044760D01*
X188471935Y-97101534D01*
X188678794Y-97206934D01*
X188899606Y-97278681D01*
X189128910Y-97315000D01*
X189361090Y-97315000D01*
X189590393Y-97278681D01*
X189811205Y-97206934D01*
X190018071Y-97101530D01*
X190096207Y-97044762D01*
X190096208Y-97044760D01*
X189492488Y-96441041D01*
X189552890Y-96416022D01*
X189659351Y-96344888D01*
X189749888Y-96254351D01*
X189821022Y-96147890D01*
X189846041Y-96087489D01*
X190449760Y-96691208D01*
X190449762Y-96691207D01*
X190506530Y-96613071D01*
X190611934Y-96406205D01*
X190683681Y-96185393D01*
X190720000Y-95956090D01*
X190720000Y-95723909D01*
X192850000Y-95723909D01*
X192850000Y-95956090D01*
X192886318Y-96185393D01*
X192958065Y-96406205D01*
X193063465Y-96613064D01*
X193120238Y-96691207D01*
X193723958Y-96087487D01*
X193748978Y-96147890D01*
X193820112Y-96254351D01*
X193910649Y-96344888D01*
X194017110Y-96416022D01*
X194077510Y-96441041D01*
X193473791Y-97044759D01*
X193473791Y-97044760D01*
X193551935Y-97101534D01*
X193758794Y-97206934D01*
X193979606Y-97278681D01*
X194208910Y-97315000D01*
X194441090Y-97315000D01*
X194670393Y-97278681D01*
X194891205Y-97206934D01*
X195098071Y-97101530D01*
X195176207Y-97044762D01*
X195176208Y-97044760D01*
X194572488Y-96441041D01*
X194632890Y-96416022D01*
X194739351Y-96344888D01*
X194829888Y-96254351D01*
X194901022Y-96147890D01*
X194926041Y-96087489D01*
X195529760Y-96691208D01*
X195529762Y-96691207D01*
X195586530Y-96613071D01*
X195691934Y-96406205D01*
X195763681Y-96185393D01*
X195800000Y-95956090D01*
X195800000Y-95723909D01*
X195763681Y-95494606D01*
X195691934Y-95273794D01*
X195586534Y-95066935D01*
X195529760Y-94988791D01*
X195529759Y-94988791D01*
X194926041Y-95592510D01*
X194901022Y-95532110D01*
X194829888Y-95425649D01*
X194739351Y-95335112D01*
X194632890Y-95263978D01*
X194572487Y-95238957D01*
X195176207Y-94635238D01*
X195098064Y-94578465D01*
X194891205Y-94473065D01*
X194670393Y-94401318D01*
X194441090Y-94365000D01*
X194208910Y-94365000D01*
X193979606Y-94401318D01*
X193758794Y-94473065D01*
X193551925Y-94578470D01*
X193473791Y-94635237D01*
X193473791Y-94635238D01*
X194077511Y-95238958D01*
X194017110Y-95263978D01*
X193910649Y-95335112D01*
X193820112Y-95425649D01*
X193748978Y-95532110D01*
X193723958Y-95592511D01*
X193120238Y-94988791D01*
X193120237Y-94988791D01*
X193063470Y-95066925D01*
X192958065Y-95273794D01*
X192886318Y-95494606D01*
X192850000Y-95723909D01*
X190720000Y-95723909D01*
X190683681Y-95494606D01*
X190611934Y-95273794D01*
X190506534Y-95066935D01*
X190449760Y-94988791D01*
X190449759Y-94988791D01*
X189846041Y-95592510D01*
X189821022Y-95532110D01*
X189749888Y-95425649D01*
X189659351Y-95335112D01*
X189552890Y-95263978D01*
X189492487Y-95238957D01*
X190096207Y-94635238D01*
X190018064Y-94578465D01*
X189811205Y-94473065D01*
X189590393Y-94401318D01*
X189361090Y-94365000D01*
X189128910Y-94365000D01*
X188899606Y-94401318D01*
X188678794Y-94473065D01*
X188471925Y-94578470D01*
X188393791Y-94635237D01*
X188393791Y-94635238D01*
X188997511Y-95238958D01*
X188937110Y-95263978D01*
X188830649Y-95335112D01*
X188740112Y-95425649D01*
X188668978Y-95532110D01*
X188643958Y-95592511D01*
X188040238Y-94988791D01*
X188040237Y-94988791D01*
X187983470Y-95066925D01*
X187878065Y-95273794D01*
X187806318Y-95494606D01*
X187770000Y-95723909D01*
X183500000Y-95723909D01*
X183500000Y-90473870D01*
X187799500Y-90473870D01*
X187799500Y-90706129D01*
X187835831Y-90935514D01*
X187907601Y-91156400D01*
X188013039Y-91363331D01*
X188149551Y-91551224D01*
X188313776Y-91715449D01*
X188501669Y-91851961D01*
X188599436Y-91901776D01*
X188708599Y-91957398D01*
X188708601Y-91957398D01*
X188708604Y-91957400D01*
X188929486Y-92029169D01*
X189047668Y-92047886D01*
X189158871Y-92065500D01*
X189158876Y-92065500D01*
X189391129Y-92065500D01*
X189492502Y-92049443D01*
X189620514Y-92029169D01*
X189841396Y-91957400D01*
X190048331Y-91851961D01*
X190236224Y-91715449D01*
X190400449Y-91551224D01*
X190536961Y-91363331D01*
X190642400Y-91156396D01*
X190714169Y-90935514D01*
X190734443Y-90807502D01*
X190750500Y-90706129D01*
X190750500Y-90473870D01*
X192879500Y-90473870D01*
X192879500Y-90706129D01*
X192915831Y-90935514D01*
X192987601Y-91156400D01*
X193093039Y-91363331D01*
X193229551Y-91551224D01*
X193393776Y-91715449D01*
X193581669Y-91851961D01*
X193679436Y-91901776D01*
X193788599Y-91957398D01*
X193788601Y-91957398D01*
X193788604Y-91957400D01*
X194009486Y-92029169D01*
X194127668Y-92047886D01*
X194238871Y-92065500D01*
X194238876Y-92065500D01*
X194471129Y-92065500D01*
X194572502Y-92049443D01*
X194700514Y-92029169D01*
X194921396Y-91957400D01*
X195128331Y-91851961D01*
X195316224Y-91715449D01*
X195480449Y-91551224D01*
X195616961Y-91363331D01*
X195722400Y-91156396D01*
X195794169Y-90935514D01*
X195814443Y-90807502D01*
X195830500Y-90706129D01*
X195830500Y-90473870D01*
X195811232Y-90352222D01*
X195794169Y-90244486D01*
X195722400Y-90023604D01*
X195722398Y-90023601D01*
X195722398Y-90023599D01*
X195616960Y-89816668D01*
X195521084Y-89684706D01*
X195480449Y-89628776D01*
X195316224Y-89464551D01*
X195128331Y-89328039D01*
X195103318Y-89315294D01*
X194921400Y-89222601D01*
X194700514Y-89150831D01*
X194471129Y-89114500D01*
X194471124Y-89114500D01*
X194238876Y-89114500D01*
X194238871Y-89114500D01*
X194009485Y-89150831D01*
X193788599Y-89222601D01*
X193581668Y-89328039D01*
X193393773Y-89464553D01*
X193229553Y-89628773D01*
X193093039Y-89816668D01*
X192987601Y-90023599D01*
X192915831Y-90244485D01*
X192879500Y-90473870D01*
X190750500Y-90473870D01*
X190731232Y-90352222D01*
X190714169Y-90244486D01*
X190642400Y-90023604D01*
X190642398Y-90023601D01*
X190642398Y-90023599D01*
X190536960Y-89816668D01*
X190441084Y-89684706D01*
X190400449Y-89628776D01*
X190236224Y-89464551D01*
X190048331Y-89328039D01*
X190023318Y-89315294D01*
X189841400Y-89222601D01*
X189620514Y-89150831D01*
X189391129Y-89114500D01*
X189391124Y-89114500D01*
X189158876Y-89114500D01*
X189158871Y-89114500D01*
X188929485Y-89150831D01*
X188708599Y-89222601D01*
X188501668Y-89328039D01*
X188313773Y-89464553D01*
X188149553Y-89628773D01*
X188013039Y-89816668D01*
X187907601Y-90023599D01*
X187835831Y-90244485D01*
X187799500Y-90473870D01*
X183500000Y-90473870D01*
X183500000Y-83381902D01*
X194499500Y-83381902D01*
X194499500Y-83618097D01*
X194536446Y-83851368D01*
X194609433Y-84075996D01*
X194682209Y-84218825D01*
X194716657Y-84286433D01*
X194855483Y-84477510D01*
X195022490Y-84644517D01*
X195213567Y-84783343D01*
X195312991Y-84834002D01*
X195424003Y-84890566D01*
X195424005Y-84890566D01*
X195424008Y-84890568D01*
X195544412Y-84929689D01*
X195648631Y-84963553D01*
X195881903Y-85000500D01*
X195881908Y-85000500D01*
X196118097Y-85000500D01*
X196351368Y-84963553D01*
X196575992Y-84890568D01*
X196786433Y-84783343D01*
X196977510Y-84644517D01*
X197144517Y-84477510D01*
X197283343Y-84286433D01*
X197390568Y-84075992D01*
X197463553Y-83851368D01*
X197500500Y-83618097D01*
X197500500Y-83381902D01*
X197463553Y-83148631D01*
X197390566Y-82924003D01*
X197283342Y-82713566D01*
X197144517Y-82522490D01*
X196977510Y-82355483D01*
X196786433Y-82216657D01*
X196575996Y-82109433D01*
X196351368Y-82036446D01*
X196118097Y-81999500D01*
X196118092Y-81999500D01*
X195881908Y-81999500D01*
X195881903Y-81999500D01*
X195648631Y-82036446D01*
X195424003Y-82109433D01*
X195213566Y-82216657D01*
X195104550Y-82295862D01*
X195022490Y-82355483D01*
X195022488Y-82355485D01*
X195022487Y-82355485D01*
X194855485Y-82522487D01*
X194855485Y-82522488D01*
X194855483Y-82522490D01*
X194837222Y-82547624D01*
X194716657Y-82713566D01*
X194609433Y-82924003D01*
X194536446Y-83148631D01*
X194499500Y-83381902D01*
X183500000Y-83381902D01*
X183500000Y-76000000D01*
X147000000Y-76000000D01*
X147000000Y-123500000D01*
X145602900Y-123500000D01*
X145602900Y-110285692D01*
X145577810Y-110159561D01*
X145577809Y-110159560D01*
X145577809Y-110159556D01*
X145528592Y-110040736D01*
X145528589Y-110040731D01*
X145523958Y-110033800D01*
X145523957Y-110033799D01*
X145457139Y-109933798D01*
X145457136Y-109933795D01*
X135216205Y-99692863D01*
X135216204Y-99692862D01*
X135163786Y-99657838D01*
X135109264Y-99621408D01*
X135025493Y-99586709D01*
X134990444Y-99572191D01*
X134990438Y-99572189D01*
X134864307Y-99547100D01*
X134864305Y-99547100D01*
X117195047Y-99547100D01*
X117128008Y-99527415D01*
X117116382Y-99518953D01*
X117111923Y-99515294D01*
X116967553Y-99418828D01*
X116967540Y-99418821D01*
X116807128Y-99352377D01*
X116807118Y-99352374D01*
X116636822Y-99318500D01*
X116636820Y-99318500D01*
X116593202Y-99318500D01*
X116526163Y-99298815D01*
X116505521Y-99282181D01*
X111916205Y-94692863D01*
X111916204Y-94692862D01*
X111916200Y-94692859D01*
X111809264Y-94621408D01*
X111690444Y-94572191D01*
X111690438Y-94572189D01*
X111564307Y-94547100D01*
X111564305Y-94547100D01*
X110949114Y-94547100D01*
X110882075Y-94527415D01*
X110848797Y-94495987D01*
X110839414Y-94483072D01*
X110716928Y-94360586D01*
X110576788Y-94258768D01*
X110422445Y-94180127D01*
X110257701Y-94126598D01*
X110257699Y-94126597D01*
X110257698Y-94126597D01*
X110126271Y-94105781D01*
X110086611Y-94099500D01*
X108913389Y-94099500D01*
X108873728Y-94105781D01*
X108742302Y-94126597D01*
X108577552Y-94180128D01*
X108423211Y-94258768D01*
X108345411Y-94315294D01*
X108283072Y-94360586D01*
X108283070Y-94360588D01*
X108283069Y-94360588D01*
X108160588Y-94483069D01*
X108160588Y-94483070D01*
X108160586Y-94483072D01*
X108128369Y-94527415D01*
X108058768Y-94623211D01*
X107980128Y-94777552D01*
X107926597Y-94942302D01*
X107903708Y-95086820D01*
X107899500Y-95113389D01*
X105349934Y-95113389D01*
X105317816Y-94951918D01*
X105253703Y-94797137D01*
X105184029Y-94692863D01*
X105160626Y-94657837D01*
X105042162Y-94539373D01*
X104902860Y-94446295D01*
X104748082Y-94382184D01*
X104748074Y-94382182D01*
X104583771Y-94349500D01*
X104583767Y-94349500D01*
X104416233Y-94349500D01*
X104416228Y-94349500D01*
X104251925Y-94382182D01*
X104251917Y-94382184D01*
X104097139Y-94446295D01*
X103957837Y-94539373D01*
X103839373Y-94657837D01*
X103746295Y-94797139D01*
X103682184Y-94951917D01*
X103682182Y-94951925D01*
X103649500Y-95116228D01*
X102850499Y-95116228D01*
X102817816Y-94951918D01*
X102753703Y-94797137D01*
X102684029Y-94692863D01*
X102660626Y-94657837D01*
X102542162Y-94539373D01*
X102402860Y-94446295D01*
X102248082Y-94382184D01*
X102248074Y-94382182D01*
X102083771Y-94349500D01*
X102083767Y-94349500D01*
X101916233Y-94349500D01*
X101916228Y-94349500D01*
X101751925Y-94382182D01*
X101751917Y-94382184D01*
X101597139Y-94446295D01*
X101457837Y-94539373D01*
X101339373Y-94657837D01*
X101246295Y-94797139D01*
X101182184Y-94951917D01*
X101182182Y-94951925D01*
X101149500Y-95116228D01*
X100000500Y-95116228D01*
X100000500Y-91931902D01*
X107099500Y-91931902D01*
X107099500Y-92168097D01*
X107136446Y-92401368D01*
X107209433Y-92625996D01*
X107316657Y-92836433D01*
X107455483Y-93027510D01*
X107622490Y-93194517D01*
X107813567Y-93333343D01*
X107912991Y-93384002D01*
X108024003Y-93440566D01*
X108024005Y-93440566D01*
X108024008Y-93440568D01*
X108144412Y-93479689D01*
X108248631Y-93513553D01*
X108481903Y-93550500D01*
X108481908Y-93550500D01*
X108718097Y-93550500D01*
X108951368Y-93513553D01*
X109175992Y-93440568D01*
X109386433Y-93333343D01*
X109577510Y-93194517D01*
X109744517Y-93027510D01*
X109883343Y-92836433D01*
X109990568Y-92625992D01*
X110063553Y-92401368D01*
X110097869Y-92184706D01*
X110100500Y-92168097D01*
X110100500Y-91931902D01*
X110063553Y-91698631D01*
X109990566Y-91474003D01*
X109883342Y-91263566D01*
X109868310Y-91242876D01*
X109744517Y-91072490D01*
X109577510Y-90905483D01*
X109386433Y-90766657D01*
X109175996Y-90659433D01*
X108951368Y-90586446D01*
X108718097Y-90549500D01*
X108718092Y-90549500D01*
X108481908Y-90549500D01*
X108481903Y-90549500D01*
X108248631Y-90586446D01*
X108024003Y-90659433D01*
X107813566Y-90766657D01*
X107746624Y-90815294D01*
X107622490Y-90905483D01*
X107622488Y-90905485D01*
X107622487Y-90905485D01*
X107455485Y-91072487D01*
X107455485Y-91072488D01*
X107455483Y-91072490D01*
X107395862Y-91154550D01*
X107316657Y-91263566D01*
X107209433Y-91474003D01*
X107136446Y-91698631D01*
X107099500Y-91931902D01*
X100000500Y-91931902D01*
X100000500Y-85681902D01*
X141949500Y-85681902D01*
X141949500Y-85918097D01*
X141986446Y-86151368D01*
X142059433Y-86375996D01*
X142166657Y-86586433D01*
X142305483Y-86777510D01*
X142472490Y-86944517D01*
X142615797Y-87048636D01*
X142663568Y-87083344D01*
X142704201Y-87104047D01*
X142729394Y-87116883D01*
X142780190Y-87164856D01*
X142797100Y-87227368D01*
X142797100Y-103514305D01*
X142797100Y-103514307D01*
X142797099Y-103514307D01*
X142822189Y-103640438D01*
X142822191Y-103640444D01*
X142871407Y-103759262D01*
X142942862Y-103866204D01*
X142942863Y-103866205D01*
X144582212Y-105505552D01*
X144615697Y-105566875D01*
X144617933Y-105581075D01*
X144618498Y-105586815D01*
X144652374Y-105757118D01*
X144652377Y-105757128D01*
X144718821Y-105917540D01*
X144718828Y-105917553D01*
X144815293Y-106061922D01*
X144815296Y-106061926D01*
X144938073Y-106184703D01*
X144938077Y-106184706D01*
X145082446Y-106281171D01*
X145082459Y-106281178D01*
X145242871Y-106347622D01*
X145242876Y-106347624D01*
X145242880Y-106347624D01*
X145242881Y-106347625D01*
X145413177Y-106381500D01*
X145413180Y-106381500D01*
X145586822Y-106381500D01*
X145701394Y-106358709D01*
X145757124Y-106347624D01*
X145917547Y-106281175D01*
X146061923Y-106184706D01*
X146184706Y-106061923D01*
X146281175Y-105917547D01*
X146347624Y-105757124D01*
X146368460Y-105652376D01*
X146381500Y-105586822D01*
X146381500Y-105413177D01*
X146347625Y-105242881D01*
X146347624Y-105242880D01*
X146347624Y-105242876D01*
X146336577Y-105216205D01*
X146281178Y-105082459D01*
X146281171Y-105082446D01*
X146184706Y-104938077D01*
X146184703Y-104938073D01*
X146061926Y-104815296D01*
X146061922Y-104815293D01*
X145917553Y-104718828D01*
X145917540Y-104718821D01*
X145757128Y-104652377D01*
X145757118Y-104652374D01*
X145586815Y-104618498D01*
X145581075Y-104617933D01*
X145516288Y-104591770D01*
X145505552Y-104582212D01*
X144139219Y-103215878D01*
X144105734Y-103154555D01*
X144102900Y-103128197D01*
X144102900Y-87227368D01*
X144122585Y-87160329D01*
X144170605Y-87116883D01*
X144236433Y-87083343D01*
X144427510Y-86944517D01*
X144594517Y-86777510D01*
X144733343Y-86586433D01*
X144840568Y-86375992D01*
X144913553Y-86151368D01*
X144950500Y-85918097D01*
X144950500Y-85681902D01*
X144913553Y-85448631D01*
X144840566Y-85224003D01*
X144733342Y-85013566D01*
X144723849Y-85000500D01*
X144594517Y-84822490D01*
X144427510Y-84655483D01*
X144236433Y-84516657D01*
X144159603Y-84477510D01*
X144025996Y-84409433D01*
X143801368Y-84336446D01*
X143568097Y-84299500D01*
X143568092Y-84299500D01*
X143331908Y-84299500D01*
X143331903Y-84299500D01*
X143098631Y-84336446D01*
X142874003Y-84409433D01*
X142663566Y-84516657D01*
X142573007Y-84582453D01*
X142472490Y-84655483D01*
X142472488Y-84655485D01*
X142472487Y-84655485D01*
X142305485Y-84822487D01*
X142305485Y-84822488D01*
X142305483Y-84822490D01*
X142256023Y-84890566D01*
X142166657Y-85013566D01*
X142059433Y-85224003D01*
X141986446Y-85448631D01*
X141949500Y-85681902D01*
X100000500Y-85681902D01*
X100000500Y-78924402D01*
X101082000Y-78924402D01*
X101082000Y-79160597D01*
X101118946Y-79393868D01*
X101191933Y-79618496D01*
X101279695Y-79790737D01*
X101299157Y-79828933D01*
X101437983Y-80020010D01*
X101604990Y-80187017D01*
X101796067Y-80325843D01*
X101883594Y-80370440D01*
X102006503Y-80433066D01*
X102006505Y-80433066D01*
X102006508Y-80433068D01*
X102126912Y-80472189D01*
X102231131Y-80506053D01*
X102464403Y-80543000D01*
X102464408Y-80543000D01*
X102700597Y-80543000D01*
X102933868Y-80506053D01*
X103158492Y-80433068D01*
X103368933Y-80325843D01*
X103560010Y-80187017D01*
X103727017Y-80020010D01*
X103865843Y-79828933D01*
X103973068Y-79618492D01*
X104046053Y-79393868D01*
X104051113Y-79361923D01*
X104083000Y-79160597D01*
X104083000Y-78924402D01*
X104046053Y-78691131D01*
X104012189Y-78586912D01*
X103973068Y-78466508D01*
X103973066Y-78466505D01*
X103973066Y-78466503D01*
X103865842Y-78256066D01*
X103852772Y-78238077D01*
X103727017Y-78064990D01*
X103560010Y-77897983D01*
X103368933Y-77759157D01*
X103158496Y-77651933D01*
X102933868Y-77578946D01*
X102700597Y-77542000D01*
X102700592Y-77542000D01*
X102464408Y-77542000D01*
X102464403Y-77542000D01*
X102231131Y-77578946D01*
X102006503Y-77651933D01*
X101796066Y-77759157D01*
X101732305Y-77805483D01*
X101604990Y-77897983D01*
X101604988Y-77897985D01*
X101604987Y-77897985D01*
X101437985Y-78064987D01*
X101437985Y-78064988D01*
X101437983Y-78064990D01*
X101401435Y-78115294D01*
X101299157Y-78256066D01*
X101191933Y-78466503D01*
X101118946Y-78691131D01*
X101082000Y-78924402D01*
X100000500Y-78924402D01*
X100000500Y-76936213D01*
X105482000Y-76936213D01*
X105482000Y-77148786D01*
X105515253Y-77358739D01*
X105515253Y-77358741D01*
X105515254Y-77358743D01*
X105580462Y-77559433D01*
X105580944Y-77560914D01*
X105677451Y-77750320D01*
X105802390Y-77922286D01*
X105952713Y-78072609D01*
X106124679Y-78197548D01*
X106124681Y-78197549D01*
X106124684Y-78197551D01*
X106314088Y-78294057D01*
X106516257Y-78359746D01*
X106726213Y-78393000D01*
X106726214Y-78393000D01*
X106938785Y-78393000D01*
X106938787Y-78393000D01*
X107030989Y-78378396D01*
X107100280Y-78387350D01*
X107153732Y-78432346D01*
X107174372Y-78499097D01*
X107168316Y-78539187D01*
X107118947Y-78691127D01*
X107118947Y-78691130D01*
X107082000Y-78924402D01*
X107082000Y-79160597D01*
X107118946Y-79393868D01*
X107191933Y-79618496D01*
X107279695Y-79790737D01*
X107299157Y-79828933D01*
X107437983Y-80020010D01*
X107604990Y-80187017D01*
X107796067Y-80325843D01*
X107883594Y-80370440D01*
X108006503Y-80433066D01*
X108006505Y-80433066D01*
X108006508Y-80433068D01*
X108126912Y-80472189D01*
X108231131Y-80506053D01*
X108464403Y-80543000D01*
X108464408Y-80543000D01*
X108700597Y-80543000D01*
X108933868Y-80506053D01*
X109158492Y-80433068D01*
X109368933Y-80325843D01*
X109560010Y-80187017D01*
X109727017Y-80020010D01*
X109865843Y-79828933D01*
X109973068Y-79618492D01*
X110046053Y-79393868D01*
X110051113Y-79361923D01*
X110083000Y-79160597D01*
X110083000Y-78924402D01*
X110070651Y-78846434D01*
X110068349Y-78831902D01*
X130249500Y-78831902D01*
X130249500Y-79068097D01*
X130286446Y-79301368D01*
X130359433Y-79525996D01*
X130466657Y-79736433D01*
X130605483Y-79927510D01*
X130772490Y-80094517D01*
X130963567Y-80233343D01*
X131062991Y-80284002D01*
X131174003Y-80340566D01*
X131174005Y-80340566D01*
X131174008Y-80340568D01*
X131294412Y-80379689D01*
X131398631Y-80413553D01*
X131631903Y-80450500D01*
X131631908Y-80450500D01*
X131868097Y-80450500D01*
X132101368Y-80413553D01*
X132325992Y-80340568D01*
X132536433Y-80233343D01*
X132727510Y-80094517D01*
X132894517Y-79927510D01*
X133033343Y-79736433D01*
X133140568Y-79525992D01*
X133213553Y-79301368D01*
X133235850Y-79160592D01*
X133250500Y-79068097D01*
X133250500Y-78831902D01*
X133213553Y-78598631D01*
X133170623Y-78466508D01*
X133140568Y-78374008D01*
X133140566Y-78374005D01*
X133140566Y-78374003D01*
X133062814Y-78221408D01*
X133033343Y-78163567D01*
X132894517Y-77972490D01*
X132727510Y-77805483D01*
X132536433Y-77666657D01*
X132507534Y-77651932D01*
X132325996Y-77559433D01*
X132101368Y-77486446D01*
X131868097Y-77449500D01*
X131868092Y-77449500D01*
X131631908Y-77449500D01*
X131631903Y-77449500D01*
X131398631Y-77486446D01*
X131174003Y-77559433D01*
X130963566Y-77666657D01*
X130854550Y-77745862D01*
X130772490Y-77805483D01*
X130772488Y-77805485D01*
X130772487Y-77805485D01*
X130605485Y-77972487D01*
X130605485Y-77972488D01*
X130605483Y-77972490D01*
X130571819Y-78018825D01*
X130466657Y-78163566D01*
X130359433Y-78374003D01*
X130286446Y-78598631D01*
X130249500Y-78831902D01*
X110068349Y-78831902D01*
X110046053Y-78691131D01*
X110012189Y-78586912D01*
X109973068Y-78466508D01*
X109973066Y-78466505D01*
X109973066Y-78466503D01*
X109865842Y-78256066D01*
X109852772Y-78238077D01*
X109727017Y-78064990D01*
X109560010Y-77897983D01*
X109368933Y-77759157D01*
X109158496Y-77651933D01*
X108933868Y-77578946D01*
X108700597Y-77542000D01*
X108700592Y-77542000D01*
X108464408Y-77542000D01*
X108464403Y-77542000D01*
X108269757Y-77572829D01*
X108200464Y-77563874D01*
X108147012Y-77518878D01*
X108126372Y-77452127D01*
X108132428Y-77412041D01*
X108149746Y-77358743D01*
X108183000Y-77148787D01*
X108183000Y-76936213D01*
X108149746Y-76726257D01*
X108084057Y-76524088D01*
X107987551Y-76334684D01*
X107987549Y-76334681D01*
X107987548Y-76334679D01*
X107862609Y-76162713D01*
X107712286Y-76012390D01*
X107540320Y-75887451D01*
X107350914Y-75790944D01*
X107350913Y-75790943D01*
X107350912Y-75790943D01*
X107148743Y-75725254D01*
X107148741Y-75725253D01*
X107148740Y-75725253D01*
X106987457Y-75699708D01*
X106938787Y-75692000D01*
X106726213Y-75692000D01*
X106677542Y-75699708D01*
X106516260Y-75725253D01*
X106314085Y-75790944D01*
X106124679Y-75887451D01*
X105952713Y-76012390D01*
X105802390Y-76162713D01*
X105677451Y-76334679D01*
X105580944Y-76524085D01*
X105515253Y-76726260D01*
X105482000Y-76936213D01*
X100000500Y-76936213D01*
X100000500Y-72936213D01*
X105482000Y-72936213D01*
X105482000Y-73148786D01*
X105515253Y-73358739D01*
X105580944Y-73560914D01*
X105677451Y-73750320D01*
X105802390Y-73922286D01*
X105952713Y-74072609D01*
X106124679Y-74197548D01*
X106124681Y-74197549D01*
X106124684Y-74197551D01*
X106314088Y-74294057D01*
X106516257Y-74359746D01*
X106726213Y-74393000D01*
X106726214Y-74393000D01*
X106938786Y-74393000D01*
X106938787Y-74393000D01*
X107148743Y-74359746D01*
X107350912Y-74294057D01*
X107540316Y-74197551D01*
X107562289Y-74181586D01*
X107712286Y-74072609D01*
X107712288Y-74072606D01*
X107712292Y-74072604D01*
X107862604Y-73922292D01*
X107862606Y-73922288D01*
X107862609Y-73922286D01*
X107987548Y-73750320D01*
X107987547Y-73750320D01*
X107987551Y-73750316D01*
X108084057Y-73560912D01*
X108149746Y-73358743D01*
X108183000Y-73148787D01*
X108183000Y-72936213D01*
X108149746Y-72726257D01*
X108084057Y-72524088D01*
X107987551Y-72334684D01*
X107987549Y-72334681D01*
X107987548Y-72334679D01*
X107862609Y-72162713D01*
X107712286Y-72012390D01*
X107540320Y-71887451D01*
X107350914Y-71790944D01*
X107350913Y-71790943D01*
X107350912Y-71790943D01*
X107148743Y-71725254D01*
X107148741Y-71725253D01*
X107148740Y-71725253D01*
X106987457Y-71699708D01*
X106938787Y-71692000D01*
X106726213Y-71692000D01*
X106677542Y-71699708D01*
X106516260Y-71725253D01*
X106314085Y-71790944D01*
X106124679Y-71887451D01*
X105952713Y-72012390D01*
X105802390Y-72162713D01*
X105677451Y-72334679D01*
X105580944Y-72524085D01*
X105515253Y-72726260D01*
X105482000Y-72936213D01*
X100000500Y-72936213D01*
X100000500Y-68936213D01*
X105482000Y-68936213D01*
X105482000Y-69148786D01*
X105515253Y-69358739D01*
X105580944Y-69560914D01*
X105677451Y-69750320D01*
X105802390Y-69922286D01*
X105952713Y-70072609D01*
X106124679Y-70197548D01*
X106124681Y-70197549D01*
X106124684Y-70197551D01*
X106314088Y-70294057D01*
X106516257Y-70359746D01*
X106726213Y-70393000D01*
X106726214Y-70393000D01*
X106938786Y-70393000D01*
X106938787Y-70393000D01*
X107148743Y-70359746D01*
X107350912Y-70294057D01*
X107424592Y-70256514D01*
X107480887Y-70243000D01*
X113451986Y-70243000D01*
X113638618Y-70213440D01*
X113818332Y-70155047D01*
X113986699Y-70069260D01*
X114139574Y-69958190D01*
X118110944Y-65986817D01*
X118172267Y-65953333D01*
X118198625Y-65950499D01*
X119597871Y-65950499D01*
X119597872Y-65950499D01*
X119657483Y-65944091D01*
X119792331Y-65893796D01*
X119907546Y-65807546D01*
X119993796Y-65692331D01*
X120021254Y-65618713D01*
X133277000Y-65618713D01*
X133277000Y-65831286D01*
X133294866Y-65944091D01*
X133310254Y-66041243D01*
X133317969Y-66064988D01*
X133375944Y-66243414D01*
X133472451Y-66432820D01*
X133597390Y-66604786D01*
X133747713Y-66755109D01*
X133919679Y-66880048D01*
X133919681Y-66880049D01*
X133919684Y-66880051D01*
X134109088Y-66976557D01*
X134311257Y-67042246D01*
X134521213Y-67075500D01*
X134521214Y-67075500D01*
X134733786Y-67075500D01*
X134733787Y-67075500D01*
X134943743Y-67042246D01*
X135145912Y-66976557D01*
X135335316Y-66880051D01*
X135421978Y-66817088D01*
X135507284Y-66755110D01*
X135507284Y-66755109D01*
X135507292Y-66755104D01*
X135621217Y-66641178D01*
X135682536Y-66607696D01*
X135752228Y-66612680D01*
X135808162Y-66654551D01*
X135825077Y-66685528D01*
X135874146Y-66817088D01*
X135874149Y-66817093D01*
X135960309Y-66932187D01*
X135960312Y-66932190D01*
X136075406Y-67018350D01*
X136075413Y-67018354D01*
X136210120Y-67068596D01*
X136210127Y-67068598D01*
X136269655Y-67074999D01*
X136269672Y-67075000D01*
X136917500Y-67075000D01*
X136917500Y-66158012D01*
X136974507Y-66190925D01*
X137101674Y-66225000D01*
X137233326Y-66225000D01*
X137360493Y-66190925D01*
X137417500Y-66158012D01*
X137417500Y-67075000D01*
X138065328Y-67075000D01*
X138065344Y-67074999D01*
X138124872Y-67068598D01*
X138124879Y-67068596D01*
X138259586Y-67018354D01*
X138259593Y-67018350D01*
X138374687Y-66932190D01*
X138374690Y-66932187D01*
X138460850Y-66817093D01*
X138460854Y-66817086D01*
X138511096Y-66682379D01*
X138511098Y-66682372D01*
X138517499Y-66622844D01*
X138517500Y-66622827D01*
X138517500Y-65975000D01*
X137600512Y-65975000D01*
X137633425Y-65917993D01*
X137667500Y-65790826D01*
X137667500Y-65659174D01*
X137633425Y-65532007D01*
X137600512Y-65475000D01*
X138517500Y-65475000D01*
X138517500Y-64827172D01*
X138517499Y-64827155D01*
X138511098Y-64767627D01*
X138511096Y-64767620D01*
X138460854Y-64632913D01*
X138460850Y-64632906D01*
X138374690Y-64517812D01*
X138374687Y-64517809D01*
X138259593Y-64431649D01*
X138259586Y-64431645D01*
X138124879Y-64381403D01*
X138124872Y-64381401D01*
X138065344Y-64375000D01*
X137417500Y-64375000D01*
X137417500Y-65291988D01*
X137360493Y-65259075D01*
X137233326Y-65225000D01*
X137101674Y-65225000D01*
X136974507Y-65259075D01*
X136917500Y-65291988D01*
X136917500Y-64375000D01*
X136269655Y-64375000D01*
X136210127Y-64381401D01*
X136210120Y-64381403D01*
X136075413Y-64431645D01*
X136075406Y-64431649D01*
X135960312Y-64517809D01*
X135960309Y-64517812D01*
X135874149Y-64632906D01*
X135874146Y-64632912D01*
X135825077Y-64764471D01*
X135783205Y-64820404D01*
X135717741Y-64844821D01*
X135649468Y-64829969D01*
X135621214Y-64808818D01*
X135507286Y-64694890D01*
X135335320Y-64569951D01*
X135145914Y-64473444D01*
X135145913Y-64473443D01*
X135145912Y-64473443D01*
X134943743Y-64407754D01*
X134943741Y-64407753D01*
X134943740Y-64407753D01*
X134782457Y-64382208D01*
X134733787Y-64374500D01*
X134521213Y-64374500D01*
X134472542Y-64382208D01*
X134311260Y-64407753D01*
X134109085Y-64473444D01*
X133919679Y-64569951D01*
X133747713Y-64694890D01*
X133597390Y-64845213D01*
X133472451Y-65017179D01*
X133375944Y-65206585D01*
X133310253Y-65408760D01*
X133277000Y-65618713D01*
X120021254Y-65618713D01*
X120044091Y-65557483D01*
X120050500Y-65497873D01*
X120050499Y-64098624D01*
X120070184Y-64031586D01*
X120086813Y-64010949D01*
X126310945Y-57786819D01*
X126372268Y-57753334D01*
X126398626Y-57750500D01*
X132318355Y-57750500D01*
X132385394Y-57770185D01*
X132431149Y-57822989D01*
X132440828Y-57855103D01*
X132446200Y-57889026D01*
X132518697Y-58112150D01*
X132571954Y-58216672D01*
X132598092Y-58267971D01*
X132625212Y-58321195D01*
X132763104Y-58510989D01*
X132763108Y-58510994D01*
X132929005Y-58676891D01*
X132929010Y-58676895D01*
X133059088Y-58771401D01*
X133118808Y-58814790D01*
X133327847Y-58921301D01*
X133327849Y-58921302D01*
X133409461Y-58947819D01*
X133550974Y-58993799D01*
X133782695Y-59030500D01*
X133782696Y-59030500D01*
X134017304Y-59030500D01*
X134017305Y-59030500D01*
X134249026Y-58993799D01*
X134472153Y-58921301D01*
X134681192Y-58814790D01*
X134870996Y-58676890D01*
X135036890Y-58510996D01*
X135174790Y-58321192D01*
X135281301Y-58112153D01*
X135353799Y-57889026D01*
X135390500Y-57657305D01*
X135390500Y-55442695D01*
X135353799Y-55210974D01*
X135285250Y-55000000D01*
X135281302Y-54987849D01*
X135281301Y-54987847D01*
X135174790Y-54778808D01*
X135162156Y-54761419D01*
X135038878Y-54591739D01*
X135038876Y-54591737D01*
X135036891Y-54589005D01*
X134970041Y-54522155D01*
X137410000Y-54522155D01*
X137410000Y-56300000D01*
X138289175Y-56300000D01*
X138265364Y-56357485D01*
X138240000Y-56484996D01*
X138240000Y-56615004D01*
X138265364Y-56742515D01*
X138289175Y-56800000D01*
X137410000Y-56800000D01*
X137410000Y-58577844D01*
X137416401Y-58637372D01*
X137416403Y-58637379D01*
X137466645Y-58772086D01*
X137466649Y-58772093D01*
X137552809Y-58887187D01*
X137552812Y-58887190D01*
X137667906Y-58973350D01*
X137667913Y-58973354D01*
X137802620Y-59023596D01*
X137802627Y-59023598D01*
X137862155Y-59029999D01*
X137862172Y-59030000D01*
X138650000Y-59030000D01*
X138650000Y-57160824D01*
X138707485Y-57184636D01*
X138834996Y-57210000D01*
X138965004Y-57210000D01*
X139092515Y-57184636D01*
X139150000Y-57160824D01*
X139150000Y-59030000D01*
X139937828Y-59030000D01*
X139937844Y-59029999D01*
X139997372Y-59023598D01*
X139997379Y-59023596D01*
X140132086Y-58973354D01*
X140132093Y-58973350D01*
X140247187Y-58887190D01*
X140247190Y-58887187D01*
X140333350Y-58772093D01*
X140333354Y-58772086D01*
X140383596Y-58637379D01*
X140383598Y-58637372D01*
X140389999Y-58577844D01*
X140390000Y-58577827D01*
X140390000Y-56800000D01*
X139510825Y-56800000D01*
X139534636Y-56742515D01*
X139560000Y-56615004D01*
X139560000Y-56484996D01*
X139534636Y-56357485D01*
X139510825Y-56300000D01*
X140390000Y-56300000D01*
X140390000Y-54522172D01*
X140389999Y-54522155D01*
X140383598Y-54462627D01*
X140383596Y-54462620D01*
X140333354Y-54327913D01*
X140333350Y-54327906D01*
X140247190Y-54212812D01*
X140247187Y-54212809D01*
X140132093Y-54126649D01*
X140132086Y-54126645D01*
X139997379Y-54076403D01*
X139997372Y-54076401D01*
X139937844Y-54070000D01*
X139150000Y-54070000D01*
X139150000Y-55939175D01*
X139092515Y-55915364D01*
X138965004Y-55890000D01*
X138834996Y-55890000D01*
X138707485Y-55915364D01*
X138650000Y-55939175D01*
X138650000Y-54070000D01*
X137862155Y-54070000D01*
X137802627Y-54076401D01*
X137802620Y-54076403D01*
X137667913Y-54126645D01*
X137667906Y-54126649D01*
X137552812Y-54212809D01*
X137552809Y-54212812D01*
X137466649Y-54327906D01*
X137466645Y-54327913D01*
X137416403Y-54462620D01*
X137416401Y-54462627D01*
X137410000Y-54522155D01*
X134970041Y-54522155D01*
X134870994Y-54423108D01*
X134870989Y-54423104D01*
X134681195Y-54285212D01*
X134681194Y-54285211D01*
X134681192Y-54285210D01*
X134576672Y-54231954D01*
X134472150Y-54178697D01*
X134249027Y-54106201D01*
X134133165Y-54087850D01*
X134017305Y-54069500D01*
X133782695Y-54069500D01*
X133705454Y-54081733D01*
X133550972Y-54106201D01*
X133327849Y-54178697D01*
X133118804Y-54285212D01*
X132929010Y-54423104D01*
X132929005Y-54423108D01*
X132763108Y-54589005D01*
X132763104Y-54589010D01*
X132625212Y-54778804D01*
X132518697Y-54987849D01*
X132446200Y-55210973D01*
X132440828Y-55244897D01*
X132410899Y-55308032D01*
X132351588Y-55344964D01*
X132318355Y-55349500D01*
X125755513Y-55349500D01*
X125568885Y-55379059D01*
X125389165Y-55437454D01*
X125220800Y-55523240D01*
X125067923Y-55634312D01*
X118389053Y-62313181D01*
X118327730Y-62346666D01*
X118301372Y-62349500D01*
X116902129Y-62349500D01*
X116902123Y-62349501D01*
X116842516Y-62355908D01*
X116707671Y-62406202D01*
X116707664Y-62406206D01*
X116592455Y-62492452D01*
X116592452Y-62492455D01*
X116506206Y-62607664D01*
X116506202Y-62607671D01*
X116455908Y-62742517D01*
X116449501Y-62802116D01*
X116449500Y-62802135D01*
X116449500Y-64201374D01*
X116429815Y-64268413D01*
X116413181Y-64289055D01*
X112896555Y-67805681D01*
X112835232Y-67839166D01*
X112808874Y-67842000D01*
X110061535Y-67842000D01*
X109994496Y-67822315D01*
X109948741Y-67769511D01*
X109938797Y-67700353D01*
X109951050Y-67661705D01*
X109973066Y-67618496D01*
X109973066Y-67618495D01*
X109973068Y-67618492D01*
X110046053Y-67393868D01*
X110083000Y-67160597D01*
X110083000Y-66924402D01*
X110046053Y-66691131D01*
X109973066Y-66466503D01*
X109865842Y-66256066D01*
X109856650Y-66243414D01*
X109727017Y-66064990D01*
X109560010Y-65897983D01*
X109368933Y-65759157D01*
X109158496Y-65651933D01*
X108933868Y-65578946D01*
X108700597Y-65542000D01*
X108700592Y-65542000D01*
X108464408Y-65542000D01*
X108464403Y-65542000D01*
X108231131Y-65578946D01*
X108006503Y-65651933D01*
X107796066Y-65759157D01*
X107752478Y-65790826D01*
X107604990Y-65897983D01*
X107604988Y-65897985D01*
X107604987Y-65897985D01*
X107437985Y-66064987D01*
X107437985Y-66064988D01*
X107437983Y-66064990D01*
X107394311Y-66125099D01*
X107299157Y-66256066D01*
X107191933Y-66466503D01*
X107118946Y-66691131D01*
X107082000Y-66924402D01*
X107082000Y-67160597D01*
X107118947Y-67393869D01*
X107118947Y-67393872D01*
X107168316Y-67545812D01*
X107170311Y-67615653D01*
X107134231Y-67675486D01*
X107071530Y-67706314D01*
X107030987Y-67706603D01*
X106986258Y-67699518D01*
X106938787Y-67692000D01*
X106726213Y-67692000D01*
X106677542Y-67699708D01*
X106516260Y-67725253D01*
X106314085Y-67790944D01*
X106124679Y-67887451D01*
X105952713Y-68012390D01*
X105802390Y-68162713D01*
X105677451Y-68334679D01*
X105580944Y-68524085D01*
X105515253Y-68726260D01*
X105482000Y-68936213D01*
X100000500Y-68936213D01*
X100000500Y-66924402D01*
X101082000Y-66924402D01*
X101082000Y-67160597D01*
X101118946Y-67393868D01*
X101191933Y-67618496D01*
X101295785Y-67822315D01*
X101299157Y-67828933D01*
X101437983Y-68020010D01*
X101604990Y-68187017D01*
X101796067Y-68325843D01*
X101895491Y-68376502D01*
X102006503Y-68433066D01*
X102006505Y-68433066D01*
X102006508Y-68433068D01*
X102126912Y-68472189D01*
X102231131Y-68506053D01*
X102464403Y-68543000D01*
X102464408Y-68543000D01*
X102700597Y-68543000D01*
X102933868Y-68506053D01*
X103158492Y-68433068D01*
X103368933Y-68325843D01*
X103560010Y-68187017D01*
X103727017Y-68020010D01*
X103865843Y-67828933D01*
X103973068Y-67618492D01*
X104046053Y-67393868D01*
X104083000Y-67160597D01*
X104083000Y-66924402D01*
X104046053Y-66691131D01*
X103973066Y-66466503D01*
X103865842Y-66256066D01*
X103856650Y-66243414D01*
X103727017Y-66064990D01*
X103560010Y-65897983D01*
X103368933Y-65759157D01*
X103158496Y-65651933D01*
X102933868Y-65578946D01*
X102700597Y-65542000D01*
X102700592Y-65542000D01*
X102464408Y-65542000D01*
X102464403Y-65542000D01*
X102231131Y-65578946D01*
X102006503Y-65651933D01*
X101796066Y-65759157D01*
X101752478Y-65790826D01*
X101604990Y-65897983D01*
X101604988Y-65897985D01*
X101604987Y-65897985D01*
X101437985Y-66064987D01*
X101437985Y-66064988D01*
X101437983Y-66064990D01*
X101394311Y-66125099D01*
X101299157Y-66256066D01*
X101191933Y-66466503D01*
X101118946Y-66691131D01*
X101082000Y-66924402D01*
X100000500Y-66924402D01*
X100000500Y-61032014D01*
X111750000Y-61032014D01*
X111750000Y-61267985D01*
X111780799Y-61501914D01*
X111841870Y-61729837D01*
X111932160Y-61947819D01*
X111932165Y-61947828D01*
X112050144Y-62152171D01*
X112050145Y-62152172D01*
X112112721Y-62233723D01*
X112834152Y-61512292D01*
X112841049Y-61528942D01*
X112928599Y-61659970D01*
X113040030Y-61771401D01*
X113171058Y-61858951D01*
X113187706Y-61865846D01*
X112466275Y-62587277D01*
X112547827Y-62649854D01*
X112547828Y-62649855D01*
X112752171Y-62767834D01*
X112752180Y-62767839D01*
X112970163Y-62858129D01*
X112970161Y-62858129D01*
X113198085Y-62919200D01*
X113432014Y-62949999D01*
X113432029Y-62950000D01*
X113667971Y-62950000D01*
X113667985Y-62949999D01*
X113901914Y-62919200D01*
X114129837Y-62858129D01*
X114347819Y-62767839D01*
X114347828Y-62767834D01*
X114552181Y-62649850D01*
X114633723Y-62587279D01*
X114633723Y-62587276D01*
X113912293Y-61865847D01*
X113928942Y-61858951D01*
X114059970Y-61771401D01*
X114171401Y-61659970D01*
X114258951Y-61528942D01*
X114265847Y-61512293D01*
X114987276Y-62233723D01*
X114987279Y-62233723D01*
X115049850Y-62152181D01*
X115167834Y-61947828D01*
X115167839Y-61947819D01*
X115258129Y-61729837D01*
X115319200Y-61501914D01*
X115349999Y-61267985D01*
X115350000Y-61267971D01*
X115350000Y-61032028D01*
X115349999Y-61032014D01*
X115319200Y-60798085D01*
X115258129Y-60570162D01*
X115167839Y-60352180D01*
X115167834Y-60352171D01*
X115049855Y-60147828D01*
X115049854Y-60147827D01*
X114987277Y-60066275D01*
X114265846Y-60787705D01*
X114258951Y-60771058D01*
X114171401Y-60640030D01*
X114059970Y-60528599D01*
X113928942Y-60441049D01*
X113912293Y-60434152D01*
X114633723Y-59712721D01*
X114552172Y-59650145D01*
X114552165Y-59650140D01*
X114546228Y-59646712D01*
X114546227Y-59646712D01*
X114347828Y-59532165D01*
X114347819Y-59532160D01*
X114129836Y-59441870D01*
X114129838Y-59441870D01*
X113901914Y-59380799D01*
X113667985Y-59350000D01*
X113432014Y-59350000D01*
X113198085Y-59380799D01*
X112970162Y-59441870D01*
X112752180Y-59532160D01*
X112752171Y-59532165D01*
X112547828Y-59650144D01*
X112547818Y-59650150D01*
X112466275Y-59712720D01*
X112466275Y-59712721D01*
X113187706Y-60434152D01*
X113171058Y-60441049D01*
X113040030Y-60528599D01*
X112928599Y-60640030D01*
X112841049Y-60771058D01*
X112834152Y-60787706D01*
X112112721Y-60066275D01*
X112112720Y-60066275D01*
X112050150Y-60147818D01*
X112050144Y-60147828D01*
X111932165Y-60352171D01*
X111932160Y-60352180D01*
X111841870Y-60570162D01*
X111780799Y-60798085D01*
X111750000Y-61032014D01*
X100000500Y-61032014D01*
X100000500Y-58032014D01*
X116450000Y-58032014D01*
X116450000Y-58267985D01*
X116480799Y-58501914D01*
X116541870Y-58729837D01*
X116632160Y-58947819D01*
X116632165Y-58947828D01*
X116750144Y-59152171D01*
X116750145Y-59152172D01*
X116812721Y-59233723D01*
X117534152Y-58512292D01*
X117541049Y-58528942D01*
X117628599Y-58659970D01*
X117740030Y-58771401D01*
X117871058Y-58858951D01*
X117887706Y-58865846D01*
X117166275Y-59587277D01*
X117247827Y-59649854D01*
X117247828Y-59649855D01*
X117452171Y-59767834D01*
X117452180Y-59767839D01*
X117670163Y-59858129D01*
X117670161Y-59858129D01*
X117898085Y-59919200D01*
X118132014Y-59949999D01*
X118132029Y-59950000D01*
X118367971Y-59950000D01*
X118367985Y-59949999D01*
X118601914Y-59919200D01*
X118829837Y-59858129D01*
X119047819Y-59767839D01*
X119047828Y-59767834D01*
X119252181Y-59649850D01*
X119333723Y-59587279D01*
X119333723Y-59587276D01*
X118612293Y-58865847D01*
X118628942Y-58858951D01*
X118759970Y-58771401D01*
X118871401Y-58659970D01*
X118958951Y-58528942D01*
X118965846Y-58512293D01*
X119687276Y-59233723D01*
X119687279Y-59233723D01*
X119749850Y-59152181D01*
X119867834Y-58947828D01*
X119867839Y-58947819D01*
X119958129Y-58729837D01*
X120019200Y-58501914D01*
X120049999Y-58267985D01*
X120050000Y-58267971D01*
X120050000Y-58032028D01*
X120049999Y-58032014D01*
X120019200Y-57798085D01*
X119958129Y-57570162D01*
X119867839Y-57352180D01*
X119867834Y-57352171D01*
X119749855Y-57147828D01*
X119749854Y-57147827D01*
X119687277Y-57066275D01*
X118965846Y-57787705D01*
X118958951Y-57771058D01*
X118871401Y-57640030D01*
X118759970Y-57528599D01*
X118628942Y-57441049D01*
X118612293Y-57434152D01*
X119333723Y-56712721D01*
X119252172Y-56650145D01*
X119252171Y-56650144D01*
X119047828Y-56532165D01*
X119047819Y-56532160D01*
X118829836Y-56441870D01*
X118829838Y-56441870D01*
X118601914Y-56380799D01*
X118367985Y-56350000D01*
X118132014Y-56350000D01*
X117898085Y-56380799D01*
X117670162Y-56441870D01*
X117452180Y-56532160D01*
X117452171Y-56532165D01*
X117247828Y-56650144D01*
X117247818Y-56650150D01*
X117166275Y-56712720D01*
X117166275Y-56712721D01*
X117887706Y-57434152D01*
X117871058Y-57441049D01*
X117740030Y-57528599D01*
X117628599Y-57640030D01*
X117541049Y-57771058D01*
X117534153Y-57787706D01*
X116812721Y-57066275D01*
X116812720Y-57066275D01*
X116750150Y-57147818D01*
X116750144Y-57147828D01*
X116632165Y-57352171D01*
X116632160Y-57352180D01*
X116541870Y-57570162D01*
X116480799Y-57798085D01*
X116450000Y-58032014D01*
X100000500Y-58032014D01*
X100000500Y-55002561D01*
X100000606Y-54997437D01*
X100004636Y-54900000D01*
X100005517Y-54878711D01*
X103149500Y-54878711D01*
X103149500Y-55121288D01*
X103181161Y-55361785D01*
X103243947Y-55596104D01*
X103336773Y-55820205D01*
X103336776Y-55820212D01*
X103458064Y-56030289D01*
X103458066Y-56030292D01*
X103458067Y-56030293D01*
X103605733Y-56222736D01*
X103605739Y-56222743D01*
X103777256Y-56394260D01*
X103777262Y-56394265D01*
X103969711Y-56541936D01*
X104179788Y-56663224D01*
X104403900Y-56756054D01*
X104638211Y-56818838D01*
X104818586Y-56842584D01*
X104878711Y-56850500D01*
X104878712Y-56850500D01*
X105121289Y-56850500D01*
X105169388Y-56844167D01*
X105361789Y-56818838D01*
X105596100Y-56756054D01*
X105820212Y-56663224D01*
X106030289Y-56541936D01*
X106222738Y-56394265D01*
X106394265Y-56222738D01*
X106541936Y-56030289D01*
X106663224Y-55820212D01*
X106756054Y-55596100D01*
X106818838Y-55361789D01*
X106850500Y-55121288D01*
X106850500Y-54878712D01*
X106818838Y-54638211D01*
X106756054Y-54403900D01*
X106663224Y-54179788D01*
X106541936Y-53969711D01*
X106462298Y-53865925D01*
X106394266Y-53777263D01*
X106394260Y-53777256D01*
X106222743Y-53605739D01*
X106222736Y-53605733D01*
X106030293Y-53458067D01*
X106030292Y-53458066D01*
X106030289Y-53458064D01*
X105820212Y-53336776D01*
X105818252Y-53335964D01*
X105687844Y-53281947D01*
X188700000Y-53281947D01*
X188700000Y-53518052D01*
X188736934Y-53751247D01*
X188809897Y-53975802D01*
X188917087Y-54186174D01*
X188977338Y-54269104D01*
X188977340Y-54269105D01*
X189717037Y-53529408D01*
X189734075Y-53592993D01*
X189799901Y-53707007D01*
X189892993Y-53800099D01*
X190007007Y-53865925D01*
X190070590Y-53882962D01*
X189330893Y-54622658D01*
X189413828Y-54682914D01*
X189624197Y-54790102D01*
X189848752Y-54863065D01*
X189848751Y-54863065D01*
X190081948Y-54900000D01*
X190318052Y-54900000D01*
X190452463Y-54878711D01*
X193149500Y-54878711D01*
X193149500Y-55121288D01*
X193181161Y-55361785D01*
X193243947Y-55596104D01*
X193336773Y-55820205D01*
X193336776Y-55820212D01*
X193458064Y-56030289D01*
X193458066Y-56030292D01*
X193458067Y-56030293D01*
X193605733Y-56222736D01*
X193605739Y-56222743D01*
X193777256Y-56394260D01*
X193777262Y-56394265D01*
X193969711Y-56541936D01*
X194179788Y-56663224D01*
X194403900Y-56756054D01*
X194638211Y-56818838D01*
X194818586Y-56842584D01*
X194878711Y-56850500D01*
X194878712Y-56850500D01*
X195121289Y-56850500D01*
X195169388Y-56844167D01*
X195361789Y-56818838D01*
X195596100Y-56756054D01*
X195820212Y-56663224D01*
X196030289Y-56541936D01*
X196222738Y-56394265D01*
X196394265Y-56222738D01*
X196541936Y-56030289D01*
X196663224Y-55820212D01*
X196756054Y-55596100D01*
X196818838Y-55361789D01*
X196850500Y-55121288D01*
X196850500Y-54878712D01*
X196818838Y-54638211D01*
X196756054Y-54403900D01*
X196663224Y-54179788D01*
X196541936Y-53969711D01*
X196462298Y-53865925D01*
X196394266Y-53777263D01*
X196394260Y-53777256D01*
X196222743Y-53605739D01*
X196222736Y-53605733D01*
X196030293Y-53458067D01*
X196030292Y-53458066D01*
X196030289Y-53458064D01*
X195820212Y-53336776D01*
X195818252Y-53335964D01*
X195596104Y-53243947D01*
X195361785Y-53181161D01*
X195121289Y-53149500D01*
X195121288Y-53149500D01*
X194878712Y-53149500D01*
X194878711Y-53149500D01*
X194638214Y-53181161D01*
X194403895Y-53243947D01*
X194179794Y-53336773D01*
X194179785Y-53336777D01*
X193969706Y-53458067D01*
X193777263Y-53605733D01*
X193777256Y-53605739D01*
X193605739Y-53777256D01*
X193605733Y-53777263D01*
X193458067Y-53969706D01*
X193336777Y-54179785D01*
X193336773Y-54179794D01*
X193243947Y-54403895D01*
X193181161Y-54638214D01*
X193149500Y-54878711D01*
X190452463Y-54878711D01*
X190551247Y-54863065D01*
X190775805Y-54790101D01*
X190826701Y-54764169D01*
X190826703Y-54764168D01*
X190986163Y-54682918D01*
X190986169Y-54682914D01*
X191069104Y-54622658D01*
X191069105Y-54622658D01*
X190329408Y-53882962D01*
X190392993Y-53865925D01*
X190507007Y-53800099D01*
X190600099Y-53707007D01*
X190665925Y-53592993D01*
X190682962Y-53529409D01*
X191422658Y-54269105D01*
X191422658Y-54269104D01*
X191482914Y-54186169D01*
X191482918Y-54186163D01*
X191590102Y-53975802D01*
X191663065Y-53751247D01*
X191700000Y-53518052D01*
X191700000Y-53281947D01*
X191663065Y-53048752D01*
X191590102Y-52824197D01*
X191482914Y-52613828D01*
X191422658Y-52530894D01*
X191422658Y-52530893D01*
X190682962Y-53270590D01*
X190665925Y-53207007D01*
X190600099Y-53092993D01*
X190507007Y-52999901D01*
X190392993Y-52934075D01*
X190329409Y-52917037D01*
X191069105Y-52177340D01*
X191069104Y-52177338D01*
X190986174Y-52117087D01*
X190775802Y-52009897D01*
X190551247Y-51936934D01*
X190551248Y-51936934D01*
X190318052Y-51900000D01*
X190081948Y-51900000D01*
X189848752Y-51936934D01*
X189624197Y-52009897D01*
X189413830Y-52117084D01*
X189330894Y-52177340D01*
X190070591Y-52917037D01*
X190007007Y-52934075D01*
X189892993Y-52999901D01*
X189799901Y-53092993D01*
X189734075Y-53207007D01*
X189717037Y-53270590D01*
X188977340Y-52530894D01*
X188917084Y-52613830D01*
X188809897Y-52824197D01*
X188736934Y-53048752D01*
X188700000Y-53281947D01*
X105687844Y-53281947D01*
X105596104Y-53243947D01*
X105361785Y-53181161D01*
X105121289Y-53149500D01*
X105121288Y-53149500D01*
X104878712Y-53149500D01*
X104878711Y-53149500D01*
X104638214Y-53181161D01*
X104403895Y-53243947D01*
X104179794Y-53336773D01*
X104179785Y-53336777D01*
X103969706Y-53458067D01*
X103777263Y-53605733D01*
X103777256Y-53605739D01*
X103605739Y-53777256D01*
X103605733Y-53777263D01*
X103458067Y-53969706D01*
X103336777Y-54179785D01*
X103336773Y-54179794D01*
X103243947Y-54403895D01*
X103181161Y-54638214D01*
X103149500Y-54878711D01*
X100005517Y-54878711D01*
X100015815Y-54629716D01*
X100016177Y-54624098D01*
X100023531Y-54540031D01*
X100024003Y-54535582D01*
X100064218Y-54212959D01*
X100065138Y-54206842D01*
X100079003Y-54128210D01*
X100079732Y-54124428D01*
X100147553Y-53800974D01*
X100149123Y-53794394D01*
X100167614Y-53725385D01*
X100168500Y-53722251D01*
X100265389Y-53396810D01*
X100267685Y-53389862D01*
X100287331Y-53335886D01*
X100288276Y-53333380D01*
X100416976Y-53003551D01*
X100420079Y-52996292D01*
X100434634Y-52965080D01*
X100435415Y-52963445D01*
X100600823Y-52625097D01*
X100605690Y-52616105D01*
X100811973Y-52269918D01*
X100817556Y-52261372D01*
X101051728Y-51933394D01*
X101057996Y-51925342D01*
X101318443Y-51617832D01*
X101325362Y-51610316D01*
X101610316Y-51325362D01*
X101617832Y-51318443D01*
X101925342Y-51057996D01*
X101933394Y-51051728D01*
X102261372Y-50817556D01*
X102269918Y-50811973D01*
X102616116Y-50605683D01*
X102625097Y-50600823D01*
X102963445Y-50435415D01*
X102965080Y-50434634D01*
X102996292Y-50420079D01*
X103003551Y-50416976D01*
X103333380Y-50288276D01*
X103335886Y-50287331D01*
X103389862Y-50267685D01*
X103396810Y-50265389D01*
X103722251Y-50168500D01*
X103725385Y-50167614D01*
X103794394Y-50149123D01*
X103800974Y-50147553D01*
X104124428Y-50079732D01*
X104128210Y-50079003D01*
X104206842Y-50065138D01*
X104212959Y-50064218D01*
X104535582Y-50024003D01*
X104540031Y-50023531D01*
X104624098Y-50016177D01*
X104629716Y-50015815D01*
X104997437Y-50000605D01*
X105002561Y-50000500D01*
X194997439Y-50000500D01*
X195002562Y-50000605D01*
G37*
%TD.AperFunction*%
%TD*%
M02*
