%TF.GenerationSoftware,KiCad,Pcbnew,9.0.6*%
%TF.CreationDate,2026-02-23T21:25:52-05:00*%
%TF.ProjectId,Class AB Stereo Amp SMD,436c6173-7320-4414-9220-53746572656f,rev?*%
%TF.SameCoordinates,Original*%
%TF.FileFunction,Paste,Top*%
%TF.FilePolarity,Positive*%
%FSLAX46Y46*%
G04 Gerber Fmt 4.6, Leading zero omitted, Abs format (unit mm)*
G04 Created by KiCad (PCBNEW 9.0.6) date 2026-02-23 21:25:52*
%MOMM*%
%LPD*%
G01*
G04 APERTURE LIST*
G04 Aperture macros list*
%AMRoundRect*
0 Rectangle with rounded corners*
0 $1 Rounding radius*
0 $2 $3 $4 $5 $6 $7 $8 $9 X,Y pos of 4 corners*
0 Add a 4 corners polygon primitive as box body*
4,1,4,$2,$3,$4,$5,$6,$7,$8,$9,$2,$3,0*
0 Add four circle primitives for the rounded corners*
1,1,$1+$1,$2,$3*
1,1,$1+$1,$4,$5*
1,1,$1+$1,$6,$7*
1,1,$1+$1,$8,$9*
0 Add four rect primitives between the rounded corners*
20,1,$1+$1,$2,$3,$4,$5,0*
20,1,$1+$1,$4,$5,$6,$7,0*
20,1,$1+$1,$6,$7,$8,$9,0*
20,1,$1+$1,$8,$9,$2,$3,0*%
G04 Aperture macros list end*
%ADD10RoundRect,0.250000X-1.412500X-0.550000X1.412500X-0.550000X1.412500X0.550000X-1.412500X0.550000X0*%
%ADD11RoundRect,0.150000X0.825000X0.150000X-0.825000X0.150000X-0.825000X-0.150000X0.825000X-0.150000X0*%
%ADD12RoundRect,0.250000X-0.400000X-0.625000X0.400000X-0.625000X0.400000X0.625000X-0.400000X0.625000X0*%
%ADD13RoundRect,0.250000X0.650000X-0.412500X0.650000X0.412500X-0.650000X0.412500X-0.650000X-0.412500X0*%
%ADD14RoundRect,0.250000X0.625000X-0.400000X0.625000X0.400000X-0.625000X0.400000X-0.625000X-0.400000X0*%
%ADD15RoundRect,0.249999X0.450001X1.425001X-0.450001X1.425001X-0.450001X-1.425001X0.450001X-1.425001X0*%
%ADD16RoundRect,0.225000X0.225000X0.375000X-0.225000X0.375000X-0.225000X-0.375000X0.225000X-0.375000X0*%
%ADD17R,1.850000X13.700000*%
%ADD18RoundRect,0.250000X0.550000X-1.250000X0.550000X1.250000X-0.550000X1.250000X-0.550000X-1.250000X0*%
%ADD19RoundRect,0.250000X-0.625000X0.400000X-0.625000X-0.400000X0.625000X-0.400000X0.625000X0.400000X0*%
%ADD20RoundRect,0.250000X-0.300000X2.050000X-0.300000X-2.050000X0.300000X-2.050000X0.300000X2.050000X0*%
%ADD21RoundRect,0.250000X-2.375000X2.025000X-2.375000X-2.025000X2.375000X-2.025000X2.375000X2.025000X0*%
%ADD22RoundRect,0.225000X-0.375000X0.225000X-0.375000X-0.225000X0.375000X-0.225000X0.375000X0.225000X0*%
%ADD23RoundRect,0.249999X-1.425001X0.450001X-1.425001X-0.450001X1.425001X-0.450001X1.425001X0.450001X0*%
%ADD24RoundRect,0.249998X-4.550002X3.650002X-4.550002X-3.650002X4.550002X-3.650002X4.550002X3.650002X0*%
%ADD25RoundRect,0.249998X3.650002X4.550002X-3.650002X4.550002X-3.650002X-4.550002X3.650002X-4.550002X0*%
%ADD26RoundRect,0.249999X1.425001X-0.450001X1.425001X0.450001X-1.425001X0.450001X-1.425001X-0.450001X0*%
%ADD27RoundRect,0.250000X-0.650000X0.412500X-0.650000X-0.412500X0.650000X-0.412500X0.650000X0.412500X0*%
%ADD28RoundRect,0.250001X0.624999X-0.462499X0.624999X0.462499X-0.624999X0.462499X-0.624999X-0.462499X0*%
%ADD29RoundRect,0.150000X-0.825000X-0.150000X0.825000X-0.150000X0.825000X0.150000X-0.825000X0.150000X0*%
%ADD30RoundRect,0.250000X0.300000X-2.050000X0.300000X2.050000X-0.300000X2.050000X-0.300000X-2.050000X0*%
%ADD31RoundRect,0.250000X2.375000X-2.025000X2.375000X2.025000X-2.375000X2.025000X-2.375000X-2.025000X0*%
%ADD32RoundRect,0.250000X-0.412500X-0.650000X0.412500X-0.650000X0.412500X0.650000X-0.412500X0.650000X0*%
%ADD33RoundRect,0.250000X0.850000X0.350000X-0.850000X0.350000X-0.850000X-0.350000X0.850000X-0.350000X0*%
%ADD34RoundRect,0.250000X1.275000X1.125000X-1.275000X1.125000X-1.275000X-1.125000X1.275000X-1.125000X0*%
%ADD35RoundRect,0.249998X4.550002X-3.650002X4.550002X3.650002X-4.550002X3.650002X-4.550002X-3.650002X0*%
G04 APERTURE END LIST*
D10*
%TO.C,C9*%
X140925000Y-69500000D03*
X146000000Y-69500000D03*
%TD*%
D11*
%TO.C,U1*%
X121125000Y-138355000D03*
X121125000Y-137085000D03*
X121125000Y-135815000D03*
X121125000Y-134545000D03*
X116175000Y-134545000D03*
X116175000Y-135815000D03*
X116175000Y-137085000D03*
X116175000Y-138355000D03*
%TD*%
D12*
%TO.C,R20*%
X167900000Y-124950000D03*
X171000000Y-124950000D03*
%TD*%
D13*
%TO.C,C4*%
X132350000Y-122150000D03*
X132350000Y-119025000D03*
%TD*%
D14*
%TO.C,R11*%
X104600000Y-120975000D03*
X104600000Y-117875000D03*
%TD*%
D15*
%TO.C,R18*%
X184200000Y-56550000D03*
X178100000Y-56550000D03*
%TD*%
D12*
%TO.C,R13*%
X113150000Y-113650000D03*
X116250000Y-113650000D03*
%TD*%
D16*
%TO.C,D2*%
X159450000Y-72600000D03*
X156150000Y-72600000D03*
%TD*%
D17*
%TO.C,HS3*%
X155110000Y-58800000D03*
X168950000Y-58800000D03*
%TD*%
D18*
%TO.C,C2*%
X128300000Y-70450000D03*
X128300000Y-66050000D03*
%TD*%
D17*
%TO.C,HS4*%
X155000000Y-140850000D03*
X168840000Y-140850000D03*
%TD*%
D19*
%TO.C,R10*%
X132400000Y-112000000D03*
X132400000Y-115100000D03*
%TD*%
D20*
%TO.C,Q2*%
X164580000Y-82250000D03*
D21*
X164815000Y-88975000D03*
X159265000Y-88975000D03*
X164815000Y-93825000D03*
X159265000Y-93825000D03*
D20*
X159500000Y-82250000D03*
%TD*%
D10*
%TO.C,C12*%
X141325000Y-130500000D03*
X146400000Y-130500000D03*
%TD*%
D22*
%TO.C,D1*%
X150550000Y-71400000D03*
X150550000Y-74700000D03*
%TD*%
D12*
%TO.C,R1*%
X121700000Y-79800000D03*
X124800000Y-79800000D03*
%TD*%
D14*
%TO.C,R5*%
X125400000Y-132800000D03*
X125400000Y-129700000D03*
%TD*%
D19*
%TO.C,R8*%
X122950000Y-119075000D03*
X122950000Y-122175000D03*
%TD*%
D23*
%TO.C,R21*%
X175850000Y-120800000D03*
X175850000Y-126900000D03*
%TD*%
D19*
%TO.C,R2*%
X110800000Y-54150000D03*
X110800000Y-57250000D03*
%TD*%
D20*
%TO.C,Q3*%
X164415000Y-133000000D03*
D21*
X164650000Y-139725000D03*
X159100000Y-139725000D03*
X164650000Y-144575000D03*
X159100000Y-144575000D03*
D20*
X159335000Y-133000000D03*
%TD*%
D13*
%TO.C,C16*%
X125700000Y-108112500D03*
X125700000Y-104987500D03*
%TD*%
D12*
%TO.C,R15*%
X150500000Y-78750000D03*
X153600000Y-78750000D03*
%TD*%
D10*
%TO.C,C11*%
X141175000Y-121000000D03*
X146250000Y-121000000D03*
%TD*%
D19*
%TO.C,R14*%
X104650000Y-111987500D03*
X104650000Y-115087500D03*
%TD*%
%TO.C,R12*%
X108550000Y-117887500D03*
X108550000Y-120987500D03*
%TD*%
D13*
%TO.C,C7*%
X108600000Y-115125000D03*
X108600000Y-112000000D03*
%TD*%
D24*
%TO.C,C10*%
X189700000Y-64500000D03*
X189700000Y-77000000D03*
%TD*%
D14*
%TO.C,R7*%
X127650000Y-122162500D03*
X127650000Y-119062500D03*
%TD*%
D13*
%TO.C,C5*%
X121150000Y-115112500D03*
X121150000Y-111987500D03*
%TD*%
D16*
%TO.C,D3*%
X157350000Y-124900000D03*
X154050000Y-124900000D03*
%TD*%
%TO.C,D4*%
X164550000Y-124950000D03*
X161250000Y-124950000D03*
%TD*%
D25*
%TO.C,C1*%
X135850000Y-90900000D03*
X123350000Y-90900000D03*
%TD*%
D13*
%TO.C,C14*%
X121250000Y-108112500D03*
X121250000Y-104987500D03*
%TD*%
D26*
%TO.C,R17*%
X175850000Y-77800000D03*
X175850000Y-71700000D03*
%TD*%
D27*
%TO.C,C6*%
X104600000Y-124087500D03*
X104600000Y-127212500D03*
%TD*%
D28*
%TO.C,D6*%
X106650000Y-63837500D03*
X106650000Y-60862500D03*
%TD*%
D10*
%TO.C,C8*%
X140925000Y-78750000D03*
X146000000Y-78750000D03*
%TD*%
D29*
%TO.C,U3*%
X137250000Y-107860000D03*
X137250000Y-109130000D03*
X137250000Y-110400000D03*
X137250000Y-111670000D03*
X142200000Y-111670000D03*
X142200000Y-110400000D03*
X142200000Y-109130000D03*
X142200000Y-107860000D03*
%TD*%
D14*
%TO.C,R9*%
X127700000Y-115100000D03*
X127700000Y-112000000D03*
%TD*%
D12*
%TO.C,R19*%
X150950000Y-121000000D03*
X154050000Y-121000000D03*
%TD*%
D13*
%TO.C,C15*%
X130350000Y-108112500D03*
X130350000Y-104987500D03*
%TD*%
D16*
%TO.C,D5*%
X131750000Y-75000000D03*
X128450000Y-75000000D03*
%TD*%
D15*
%TO.C,R22*%
X184250000Y-144500000D03*
X178150000Y-144500000D03*
%TD*%
D12*
%TO.C,R4*%
X113150000Y-125650000D03*
X116250000Y-125650000D03*
%TD*%
D11*
%TO.C,U2*%
X118075000Y-121092500D03*
X118075000Y-119822500D03*
X118075000Y-118552500D03*
X118075000Y-117282500D03*
X113125000Y-117282500D03*
X113125000Y-118552500D03*
X113125000Y-119822500D03*
X113125000Y-121092500D03*
%TD*%
D17*
%TO.C,HS1*%
X155110000Y-90150000D03*
X168950000Y-90150000D03*
%TD*%
%TO.C,HS2*%
X155055000Y-110500000D03*
X168895000Y-110500000D03*
%TD*%
D12*
%TO.C,R16*%
X163500000Y-72600000D03*
X166600000Y-72600000D03*
%TD*%
D14*
%TO.C,R6*%
X125425000Y-138905000D03*
X125425000Y-135805000D03*
%TD*%
D30*
%TO.C,Q1*%
X159485000Y-66725000D03*
D31*
X159250000Y-60000000D03*
X164800000Y-60000000D03*
X159250000Y-55150000D03*
X164800000Y-55150000D03*
D30*
X164565000Y-66725000D03*
%TD*%
D12*
%TO.C,R3*%
X116250000Y-129700000D03*
X119350000Y-129700000D03*
%TD*%
D30*
%TO.C,Q4*%
X159435000Y-117725000D03*
D31*
X159200000Y-111000000D03*
X164750000Y-111000000D03*
X159200000Y-106150000D03*
X164750000Y-106150000D03*
D30*
X164515000Y-117725000D03*
%TD*%
D32*
%TO.C,C3*%
X133737500Y-70400000D03*
X136862500Y-70400000D03*
%TD*%
D33*
%TO.C,Q5*%
X121700000Y-75007500D03*
D34*
X117075000Y-74252500D03*
X117075000Y-71202500D03*
X113725000Y-74252500D03*
X113725000Y-71202500D03*
D33*
X121700000Y-70447500D03*
%TD*%
D35*
%TO.C,C13*%
X189700000Y-135615000D03*
X189700000Y-123115000D03*
%TD*%
M02*
