M48
; DRILL file {KiCad 9.0.6} date 2026-02-23T21:25:46-0500
; FORMAT={-:-/ absolute / metric / decimal}
; #@! TF.CreationDate,2026-02-23T21:25:46-05:00
; #@! TF.GenerationSoftware,Kicad,Pcbnew,9.0.6
; #@! TF.FileFunction,Plated,1,2,PTH
FMAT,2
METRIC
; #@! TA.AperFunction,Plated,PTH,ViaDrill
T1C0.381
; #@! TA.AperFunction,Plated,PTH,ComponentDrill
T2C0.400
; #@! TA.AperFunction,Plated,PTH,ViaDrill
T3C0.635
; #@! TA.AperFunction,Plated,PTH,ComponentDrill
T4C0.900
; #@! TA.AperFunction,Plated,PTH,ComponentDrill
T5C1.000
; #@! TA.AperFunction,Plated,PTH,ComponentDrill
T6C1.200
; #@! TA.AperFunction,Plated,PTH,ComponentDrill
T7C1.300
; #@! TA.AperFunction,Plated,PTH,ComponentDrill
T8C1.320
; #@! TA.AperFunction,Plated,PTH,ComponentDrill
T9C1.600
%
G90
G05
T1
X116.55Y-100.2
X130.0Y-55.0
X135.05Y-110.45
X141.6Y-116.8
X142.5Y-55.0
X142.5Y-72.5
X145.0Y-65.0
X145.5Y-105.5
X145.8Y-58.85
X150.0Y-51.0
X150.0Y-55.0
X150.0Y-60.0
X150.0Y-65.0
X150.0Y-85.0
X150.0Y-90.0
X150.0Y-95.0
X150.0Y-105.5
X150.0Y-110.5
X150.0Y-115.5
X150.0Y-135.0
X150.0Y-140.0
X150.0Y-145.0
X150.7Y-130.5
X152.0Y-85.0
X152.0Y-90.0
X152.0Y-95.0
X152.0Y-105.5
X152.0Y-110.5
X152.0Y-115.5
X152.5Y-60.0
X155.0Y-110.5
X155.0Y-140.8
X155.2Y-58.8
X156.65Y-78.8
X157.4Y-148.2
X158.0Y-51.0
X158.5Y-55.0
X158.5Y-57.5
X158.5Y-60.0
X158.5Y-139.5
X158.5Y-142.0
X158.5Y-144.5
X159.0Y-89.0
X159.0Y-91.5
X159.0Y-94.0
X159.0Y-106.5
X159.0Y-109.0
X159.0Y-111.5
X161.25Y-121.25
X162.0Y-55.0
X162.0Y-60.0
X162.0Y-64.0
X162.0Y-89.0
X162.0Y-91.5
X162.0Y-94.0
X162.0Y-106.5
X162.0Y-109.0
X162.0Y-111.5
X162.0Y-131.7
X162.0Y-139.5
X162.0Y-144.5
X162.025Y-57.575
X162.025Y-142.075
X162.5Y-148.1
X162.55Y-81.7
X165.0Y-51.0
X165.0Y-55.0
X165.0Y-57.5
X165.0Y-60.0
X165.0Y-89.0
X165.0Y-91.5
X165.0Y-94.0
X165.0Y-106.5
X165.0Y-109.0
X165.0Y-111.5
X165.0Y-139.5
X165.0Y-142.0
X165.0Y-144.5
X166.2Y-124.95
X166.2Y-129.95
X166.25Y-121.5
X168.8Y-58.8
X168.84Y-140.8
X169.0Y-110.6
X172.0Y-51.0
X172.0Y-85.0
X172.0Y-90.0
X172.0Y-95.0
X172.0Y-105.5
X172.0Y-110.5
X172.0Y-115.5
X172.5Y-127.5
X172.5Y-142.5
X172.5Y-147.5
X173.8Y-136.0
X174.0Y-85.0
X174.0Y-90.0
X174.0Y-95.0
X174.0Y-105.5
X174.0Y-110.5
X174.0Y-115.5
X177.0Y-51.0
X180.0Y-125.0
X180.0Y-130.0
X180.0Y-135.0
X181.0Y-51.0
X187.0Y-51.0
X190.0Y-147.5
X197.5Y-122.5
X197.5Y-127.5
X197.5Y-132.5
X197.5Y-137.5
X197.5Y-142.5
T3
X103.9Y-70.8
X103.9Y-72.933
X103.9Y-75.067
X114.95Y-52.0
X117.083Y-52.0
X119.217Y-52.0
X121.35Y-52.0
T4
X106.832Y-69.043
X106.832Y-73.042
X106.832Y-77.042
T5
X108.55Y-124.65
X108.6Y-92.05
X108.6Y-108.3
X111.95Y-144.4
X122.9Y-126.25
X131.75Y-78.95
X134.627Y-65.725
X137.167Y-65.725
X137.9Y-115.45
X143.45Y-85.8
X190.2Y-53.4
X196.0Y-83.5
X196.0Y-116.5
T6
X102.582Y-67.043
X102.582Y-79.042
X105.5Y-133.1
X105.5Y-135.6
X105.5Y-138.1
X108.0Y-133.1
X108.0Y-135.6
X108.0Y-138.1
X108.582Y-67.043
X108.582Y-79.042
X133.2Y-137.882
X137.2Y-142.382
X141.2Y-139.132
T7
X189.15Y-104.65
X189.2Y-109.89
X189.245Y-95.84
X189.275Y-90.59
X194.23Y-104.65
X194.28Y-109.89
X194.325Y-95.84
X194.355Y-90.59
T8
X133.9Y-56.55
X138.9Y-56.55
T9
X113.55Y-61.15
X118.25Y-58.15
X118.25Y-64.15
T2
G00X104.5Y-99.7
M15
G01X104.5Y-100.7
M16
G05
G00X110.0Y-95.2
M15
G01X109.0Y-95.2
M16
G05
G00X109.0Y-105.2
M15
G01X110.0Y-105.2
M16
G05
M30
