%TF.GenerationSoftware,KiCad,Pcbnew,8.0.4*%
%TF.CreationDate,2024-07-30T10:55:48-04:00*%
%TF.ProjectId,esp32-c3-wroom-socket,65737033-322d-4633-932d-77726f6f6d2d,rev?*%
%TF.SameCoordinates,Original*%
%TF.FileFunction,Copper,L4,Bot*%
%TF.FilePolarity,Positive*%
%FSLAX46Y46*%
G04 Gerber Fmt 4.6, Leading zero omitted, Abs format (unit mm)*
G04 Created by KiCad (PCBNEW 8.0.4) date 2024-07-30 10:55:48*
%MOMM*%
%LPD*%
G01*
G04 APERTURE LIST*
G04 Aperture macros list*
%AMRoundRect*
0 Rectangle with rounded corners*
0 $1 Rounding radius*
0 $2 $3 $4 $5 $6 $7 $8 $9 X,Y pos of 4 corners*
0 Add a 4 corners polygon primitive as box body*
4,1,4,$2,$3,$4,$5,$6,$7,$8,$9,$2,$3,0*
0 Add four circle primitives for the rounded corners*
1,1,$1+$1,$2,$3*
1,1,$1+$1,$4,$5*
1,1,$1+$1,$6,$7*
1,1,$1+$1,$8,$9*
0 Add four rect primitives between the rounded corners*
20,1,$1+$1,$2,$3,$4,$5,0*
20,1,$1+$1,$4,$5,$6,$7,0*
20,1,$1+$1,$6,$7,$8,$9,0*
20,1,$1+$1,$8,$9,$2,$3,0*%
%AMOutline5P*
0 Free polygon, 5 corners , with rotation*
0 The origin of the aperture is its center*
0 number of corners: always 5*
0 $1 to $10 corner X, Y*
0 $11 Rotation angle, in degrees counterclockwise*
0 create outline with 5 corners*
4,1,5,$1,$2,$3,$4,$5,$6,$7,$8,$9,$10,$1,$2,$11*%
%AMOutline6P*
0 Free polygon, 6 corners , with rotation*
0 The origin of the aperture is its center*
0 number of corners: always 6*
0 $1 to $12 corner X, Y*
0 $13 Rotation angle, in degrees counterclockwise*
0 create outline with 6 corners*
4,1,6,$1,$2,$3,$4,$5,$6,$7,$8,$9,$10,$11,$12,$1,$2,$13*%
%AMOutline7P*
0 Free polygon, 7 corners , with rotation*
0 The origin of the aperture is its center*
0 number of corners: always 7*
0 $1 to $14 corner X, Y*
0 $15 Rotation angle, in degrees counterclockwise*
0 create outline with 7 corners*
4,1,7,$1,$2,$3,$4,$5,$6,$7,$8,$9,$10,$11,$12,$13,$14,$1,$2,$15*%
%AMOutline8P*
0 Free polygon, 8 corners , with rotation*
0 The origin of the aperture is its center*
0 number of corners: always 8*
0 $1 to $16 corner X, Y*
0 $17 Rotation angle, in degrees counterclockwise*
0 create outline with 8 corners*
4,1,8,$1,$2,$3,$4,$5,$6,$7,$8,$9,$10,$11,$12,$13,$14,$15,$16,$1,$2,$17*%
G04 Aperture macros list end*
%TA.AperFunction,ComponentPad*%
%ADD10C,0.400000*%
%TD*%
%TA.AperFunction,ComponentPad*%
%ADD11C,0.609600*%
%TD*%
%TA.AperFunction,ComponentPad*%
%ADD12O,0.914400X1.905000*%
%TD*%
%TA.AperFunction,ComponentPad*%
%ADD13R,1.700000X1.700000*%
%TD*%
%TA.AperFunction,ComponentPad*%
%ADD14C,1.700000*%
%TD*%
%TA.AperFunction,ComponentPad*%
%ADD15Outline6P,-0.850000X0.340000X-0.340000X0.850000X0.850000X0.850000X0.850000X-0.340000X0.340000X-0.850000X-0.850000X-0.850000X0.000000*%
%TD*%
%TA.AperFunction,SMDPad,CuDef*%
%ADD16RoundRect,0.375000X-0.375000X0.625000X-0.375000X-0.625000X0.375000X-0.625000X0.375000X0.625000X0*%
%TD*%
%TA.AperFunction,SMDPad,CuDef*%
%ADD17RoundRect,0.500000X-1.400000X0.500000X-1.400000X-0.500000X1.400000X-0.500000X1.400000X0.500000X0*%
%TD*%
%TA.AperFunction,SMDPad,CuDef*%
%ADD18RoundRect,0.250000X0.400000X0.625000X-0.400000X0.625000X-0.400000X-0.625000X0.400000X-0.625000X0*%
%TD*%
%TA.AperFunction,SMDPad,CuDef*%
%ADD19RoundRect,0.250000X-0.625000X0.400000X-0.625000X-0.400000X0.625000X-0.400000X0.625000X0.400000X0*%
%TD*%
%TA.AperFunction,ViaPad*%
%ADD20C,0.600000*%
%TD*%
%TA.AperFunction,Conductor*%
%ADD21C,0.250000*%
%TD*%
%TA.AperFunction,Conductor*%
%ADD22C,0.200000*%
%TD*%
%TA.AperFunction,Conductor*%
%ADD23C,0.500000*%
%TD*%
G04 APERTURE END LIST*
D10*
%TO.P,U1,39,GND__21*%
%TO.N,GND*%
X158450000Y-65500000D03*
%TO.P,U1,38,GND__20*%
X157350000Y-65500000D03*
%TO.P,U1,37,GND__19*%
X159000000Y-64950000D03*
%TO.P,U1,36,GND__18*%
X157900000Y-64950000D03*
%TO.P,U1,35,GND__17*%
X156800000Y-64950000D03*
%TO.P,U1,34,GND__16*%
X158450000Y-64400000D03*
%TO.P,U1,33,GND__15*%
X157350000Y-64400000D03*
%TO.P,U1,32,GND__14*%
X159000000Y-63850000D03*
%TO.P,U1,31,GND__13*%
X157900000Y-63850000D03*
%TO.P,U1,30,GND__12*%
X156800000Y-63850000D03*
%TO.P,U1,29,GND__11*%
X158450000Y-63300000D03*
%TO.P,U1,28,GND__10*%
X157350000Y-63300000D03*
%TD*%
D11*
%TO.P,J3,A1,GND*%
%TO.N,GND*%
X150419999Y-79799999D03*
%TO.P,J3,A4,VBUS*%
%TO.N,VBUS*%
X150419999Y-78899998D03*
%TO.P,J3,A5,CC1*%
%TO.N,Net-(J3-CC1)*%
X150419999Y-78000000D03*
%TO.P,J3,A6,DP1*%
%TO.N,USB_D+*%
X150419999Y-77099999D03*
%TO.P,J3,A7,DN1*%
%TO.N,USB_D-*%
X150419999Y-76199999D03*
%TO.P,J3,A9,VBUS*%
%TO.N,VBUS*%
X150419999Y-75300000D03*
%TO.P,J3,A12,GND*%
%TO.N,GND*%
X150419999Y-74400000D03*
%TO.P,J3,B1,GND*%
X151200000Y-74850000D03*
%TO.P,J3,B4,VBUS*%
%TO.N,VBUS*%
X151200000Y-75750000D03*
%TO.P,J3,B5,CC2*%
%TO.N,Net-(J3-CC2)*%
X151200000Y-76650000D03*
%TO.P,J3,B6,DP2*%
%TO.N,USB_D+*%
X151200000Y-77550000D03*
%TO.P,J3,B7,DN2*%
%TO.N,USB_D-*%
X151200000Y-78450000D03*
%TO.P,J3,B9,VBUS*%
%TO.N,VBUS*%
X151200000Y-79350000D03*
%TO.P,J3,B12,GND*%
%TO.N,GND*%
X151200000Y-80250000D03*
D12*
%TO.P,J3,S_1*%
%TO.N,N/C*%
X149379999Y-79749999D03*
%TO.P,J3,S_2*%
X152239999Y-79749999D03*
%TO.P,J3,S_3*%
X149379999Y-74950000D03*
%TO.P,J3,S_4*%
X152239999Y-74950000D03*
%TD*%
D13*
%TO.P,J2,1*%
%TO.N,3V3*%
X144010000Y-59480000D03*
D14*
%TO.P,J2,2*%
%TO.N,EN*%
X144010000Y-62020000D03*
%TO.P,J2,3*%
%TO.N,GPIO4*%
X144010000Y-64560000D03*
%TO.P,J2,4*%
%TO.N,GPIO5*%
X144010000Y-67100000D03*
%TO.P,J2,5*%
%TO.N,GPIO6*%
X144010000Y-69640000D03*
%TO.P,J2,6*%
%TO.N,GPIO7*%
X144010000Y-72180000D03*
%TO.P,J2,7*%
%TO.N,GPIO8*%
X144010000Y-74720000D03*
%TO.P,J2,8*%
%TO.N,GPIO9*%
X144010000Y-77260000D03*
D15*
%TO.P,J2,9*%
%TO.N,GND*%
X144010000Y-79800000D03*
D14*
%TO.P,J2,10*%
%TO.N,GPIO10*%
X169410000Y-79800000D03*
%TO.P,J2,11*%
%TO.N,UART-RX*%
X169410000Y-77260000D03*
%TO.P,J2,12*%
%TO.N,UART-TX*%
X169410000Y-74720000D03*
%TO.P,J2,13*%
%TO.N,USB_D-*%
X169410000Y-72180000D03*
%TO.P,J2,14*%
%TO.N,USB_D+*%
X169410000Y-69640000D03*
%TO.P,J2,15*%
%TO.N,GPIO3*%
X169410000Y-67100000D03*
%TO.P,J2,16*%
%TO.N,GPIO2*%
X169410000Y-64560000D03*
%TO.P,J2,17*%
%TO.N,GPIO1*%
X169410000Y-62020000D03*
%TO.P,J2,18*%
%TO.N,GPIO0*%
X169410000Y-59480000D03*
%TD*%
D16*
%TO.P,U2,1,VI*%
%TO.N,VBUS*%
X149400000Y-64200000D03*
%TO.P,U2,2,GND*%
%TO.N,GND*%
X151700000Y-64200000D03*
D17*
X151700000Y-70500000D03*
D16*
%TO.P,U2,3,VO*%
%TO.N,3V3*%
X154000000Y-64200000D03*
%TD*%
D18*
%TO.P,R1,1*%
%TO.N,3V3*%
X151450000Y-61400000D03*
%TO.P,R1,2*%
%TO.N,EN*%
X148350000Y-61400000D03*
%TD*%
D19*
%TO.P,R5,1*%
%TO.N,Net-(J3-CC1)*%
X147000000Y-77650000D03*
%TO.P,R5,2*%
%TO.N,GND*%
X147000000Y-80750000D03*
%TD*%
%TO.P,R6,1*%
%TO.N,GND*%
X155200000Y-73850000D03*
%TO.P,R6,2*%
%TO.N,Net-(J3-CC2)*%
X155200000Y-76950000D03*
%TD*%
D20*
%TO.N,GND*%
X151200000Y-68200000D03*
X153400000Y-58000000D03*
X156200000Y-71200000D03*
X152000000Y-68200000D03*
X156200000Y-69600000D03*
X154200000Y-58000000D03*
X154000000Y-81200000D03*
X152600000Y-58000000D03*
X154000000Y-80000000D03*
X156200000Y-70400000D03*
X156200000Y-68800000D03*
X152800000Y-68200000D03*
X155000000Y-58000000D03*
X150400000Y-68200000D03*
%TO.N,VBUS*%
X147400000Y-74400000D03*
%TO.N,USB_D-*%
X163800000Y-66800000D03*
%TD*%
D21*
%TO.N,GND*%
X150870000Y-80250000D02*
X151200000Y-80250000D01*
%TO.N,VBUS*%
X148200000Y-64200000D02*
X149400000Y-64200000D01*
X147400000Y-65000000D02*
X148200000Y-64200000D01*
X147400000Y-74400000D02*
X147400000Y-65000000D01*
D22*
%TO.N,USB_D+*%
X150749999Y-77099999D02*
X151200000Y-77550000D01*
X165920000Y-71780000D02*
X168060000Y-69640000D01*
X153000000Y-78200000D02*
X156400000Y-78200000D01*
X156400000Y-78200000D02*
X156700000Y-77900000D01*
X156700000Y-72700000D02*
X157620000Y-71780000D01*
X151200000Y-77550000D02*
X152350000Y-77550000D01*
X157620000Y-71780000D02*
X165920000Y-71780000D01*
X156700000Y-77900000D02*
X156700000Y-72700000D01*
X152350000Y-77550000D02*
X153000000Y-78200000D01*
X150419999Y-77099999D02*
X150749999Y-77099999D01*
X168060000Y-69640000D02*
X169410000Y-69640000D01*
%TO.N,USB_D-*%
X157125000Y-78076041D02*
X157125000Y-72840686D01*
D21*
X148504799Y-76504799D02*
X150115199Y-76504799D01*
X148200000Y-67600000D02*
X148200000Y-76200000D01*
X148200000Y-76200000D02*
X148504799Y-76504799D01*
D22*
X151200000Y-78450000D02*
X152648959Y-78450000D01*
X156576041Y-78625000D02*
X157125000Y-78076041D01*
X157785686Y-72180000D02*
X169410000Y-72180000D01*
D21*
X163800000Y-66800000D02*
X149000000Y-66800000D01*
D22*
X152823959Y-78625000D02*
X156576041Y-78625000D01*
D21*
X150115199Y-76504799D02*
X150419999Y-76199999D01*
D22*
X152648959Y-78450000D02*
X152823959Y-78625000D01*
X157125000Y-72840686D02*
X157785686Y-72180000D01*
D21*
X149000000Y-66800000D02*
X148200000Y-67600000D01*
%TO.N,EN*%
X148350000Y-61400000D02*
X146520000Y-61400000D01*
X144010000Y-62020000D02*
X145900000Y-62020000D01*
X146520000Y-61400000D02*
X145900000Y-62020000D01*
D23*
%TO.N,3V3*%
X154000000Y-61800000D02*
X154000000Y-64200000D01*
X151450000Y-61400000D02*
X153600000Y-61400000D01*
X150680000Y-59480000D02*
X151450000Y-60250000D01*
X153600000Y-61400000D02*
X154000000Y-61800000D01*
X144010000Y-59480000D02*
X150680000Y-59480000D01*
X151450000Y-60250000D02*
X151450000Y-61400000D01*
D22*
%TO.N,Net-(J3-CC2)*%
X153350000Y-76950000D02*
X155200000Y-76950000D01*
X151200000Y-76650000D02*
X153050000Y-76650000D01*
X153050000Y-76650000D02*
X153350000Y-76950000D01*
%TO.N,Net-(J3-CC1)*%
X150419999Y-78000000D02*
X149200000Y-78000000D01*
X149200000Y-78000000D02*
X148850000Y-77650000D01*
X148850000Y-77650000D02*
X147000000Y-77650000D01*
%TD*%
M02*
