%TF.GenerationSoftware,KiCad,Pcbnew,8.0.4*%
%TF.CreationDate,2024-07-30T10:21:49-04:00*%
%TF.ProjectId,esp32-c3-wroom-socket,65737033-322d-4633-932d-77726f6f6d2d,rev?*%
%TF.SameCoordinates,Original*%
%TF.FileFunction,Legend,Top*%
%TF.FilePolarity,Positive*%
%FSLAX46Y46*%
G04 Gerber Fmt 4.6, Leading zero omitted, Abs format (unit mm)*
G04 Created by KiCad (PCBNEW 8.0.4) date 2024-07-30 10:21:49*
%MOMM*%
%LPD*%
G01*
G04 APERTURE LIST*
%ADD10C,0.150000*%
%ADD11C,0.127000*%
%ADD12C,0.200000*%
%ADD13C,0.152400*%
%ADD14C,0.120000*%
%ADD15C,0.500000*%
%ADD16C,0.250000*%
G04 APERTURE END LIST*
D10*
X149603095Y-49469819D02*
X149603095Y-50279342D01*
X149603095Y-50279342D02*
X149650714Y-50374580D01*
X149650714Y-50374580D02*
X149698333Y-50422200D01*
X149698333Y-50422200D02*
X149793571Y-50469819D01*
X149793571Y-50469819D02*
X149984047Y-50469819D01*
X149984047Y-50469819D02*
X150079285Y-50422200D01*
X150079285Y-50422200D02*
X150126904Y-50374580D01*
X150126904Y-50374580D02*
X150174523Y-50279342D01*
X150174523Y-50279342D02*
X150174523Y-49469819D01*
X151174523Y-50469819D02*
X150603095Y-50469819D01*
X150888809Y-50469819D02*
X150888809Y-49469819D01*
X150888809Y-49469819D02*
X150793571Y-49612676D01*
X150793571Y-49612676D02*
X150698333Y-49707914D01*
X150698333Y-49707914D02*
X150603095Y-49755533D01*
X156880952Y-74854819D02*
X156404762Y-74854819D01*
X156404762Y-74854819D02*
X156404762Y-73854819D01*
X157214286Y-74331009D02*
X157547619Y-74331009D01*
X157690476Y-74854819D02*
X157214286Y-74854819D01*
X157214286Y-74854819D02*
X157214286Y-73854819D01*
X157214286Y-73854819D02*
X157690476Y-73854819D01*
X158119048Y-74854819D02*
X158119048Y-73854819D01*
X158119048Y-73854819D02*
X158357143Y-73854819D01*
X158357143Y-73854819D02*
X158500000Y-73902438D01*
X158500000Y-73902438D02*
X158595238Y-73997676D01*
X158595238Y-73997676D02*
X158642857Y-74092914D01*
X158642857Y-74092914D02*
X158690476Y-74283390D01*
X158690476Y-74283390D02*
X158690476Y-74426247D01*
X158690476Y-74426247D02*
X158642857Y-74616723D01*
X158642857Y-74616723D02*
X158595238Y-74711961D01*
X158595238Y-74711961D02*
X158500000Y-74807200D01*
X158500000Y-74807200D02*
X158357143Y-74854819D01*
X158357143Y-74854819D02*
X158119048Y-74854819D01*
X159642857Y-74854819D02*
X159071429Y-74854819D01*
X159357143Y-74854819D02*
X159357143Y-73854819D01*
X159357143Y-73854819D02*
X159261905Y-73997676D01*
X159261905Y-73997676D02*
X159166667Y-74092914D01*
X159166667Y-74092914D02*
X159071429Y-74140533D01*
X155764800Y-72050719D02*
X155764800Y-72288814D01*
X155526705Y-72193576D02*
X155764800Y-72288814D01*
X155764800Y-72288814D02*
X156002895Y-72193576D01*
X155621943Y-72479290D02*
X155764800Y-72288814D01*
X155764800Y-72288814D02*
X155907657Y-72479290D01*
X155764800Y-72050719D02*
X155764800Y-72288814D01*
X155526705Y-72193576D02*
X155764800Y-72288814D01*
X155764800Y-72288814D02*
X156002895Y-72193576D01*
X155621943Y-72479290D02*
X155764800Y-72288814D01*
X155764800Y-72288814D02*
X155907657Y-72479290D01*
X150476665Y-76554818D02*
X150476665Y-77269103D01*
X150476665Y-77269103D02*
X150429046Y-77411960D01*
X150429046Y-77411960D02*
X150333808Y-77507199D01*
X150333808Y-77507199D02*
X150190951Y-77554818D01*
X150190951Y-77554818D02*
X150095713Y-77554818D01*
X150857618Y-76554818D02*
X151476665Y-76554818D01*
X151476665Y-76554818D02*
X151143332Y-76935770D01*
X151143332Y-76935770D02*
X151286189Y-76935770D01*
X151286189Y-76935770D02*
X151381427Y-76983389D01*
X151381427Y-76983389D02*
X151429046Y-77031008D01*
X151429046Y-77031008D02*
X151476665Y-77126246D01*
X151476665Y-77126246D02*
X151476665Y-77364341D01*
X151476665Y-77364341D02*
X151429046Y-77459579D01*
X151429046Y-77459579D02*
X151381427Y-77507199D01*
X151381427Y-77507199D02*
X151286189Y-77554818D01*
X151286189Y-77554818D02*
X151000475Y-77554818D01*
X151000475Y-77554818D02*
X150905237Y-77507199D01*
X150905237Y-77507199D02*
X150857618Y-77459579D01*
X159866667Y-84007200D02*
X160009524Y-84054819D01*
X160009524Y-84054819D02*
X160247619Y-84054819D01*
X160247619Y-84054819D02*
X160342857Y-84007200D01*
X160342857Y-84007200D02*
X160390476Y-83959580D01*
X160390476Y-83959580D02*
X160438095Y-83864342D01*
X160438095Y-83864342D02*
X160438095Y-83769104D01*
X160438095Y-83769104D02*
X160390476Y-83673866D01*
X160390476Y-83673866D02*
X160342857Y-83626247D01*
X160342857Y-83626247D02*
X160247619Y-83578628D01*
X160247619Y-83578628D02*
X160057143Y-83531009D01*
X160057143Y-83531009D02*
X159961905Y-83483390D01*
X159961905Y-83483390D02*
X159914286Y-83435771D01*
X159914286Y-83435771D02*
X159866667Y-83340533D01*
X159866667Y-83340533D02*
X159866667Y-83245295D01*
X159866667Y-83245295D02*
X159914286Y-83150057D01*
X159914286Y-83150057D02*
X159961905Y-83102438D01*
X159961905Y-83102438D02*
X160057143Y-83054819D01*
X160057143Y-83054819D02*
X160295238Y-83054819D01*
X160295238Y-83054819D02*
X160438095Y-83102438D01*
X160771429Y-83054819D02*
X161009524Y-84054819D01*
X161009524Y-84054819D02*
X161200000Y-83340533D01*
X161200000Y-83340533D02*
X161390476Y-84054819D01*
X161390476Y-84054819D02*
X161628572Y-83054819D01*
X162533333Y-84054819D02*
X161961905Y-84054819D01*
X162247619Y-84054819D02*
X162247619Y-83054819D01*
X162247619Y-83054819D02*
X162152381Y-83197676D01*
X162152381Y-83197676D02*
X162057143Y-83292914D01*
X162057143Y-83292914D02*
X161961905Y-83340533D01*
X163833333Y-77274819D02*
X163500000Y-76798628D01*
X163261905Y-77274819D02*
X163261905Y-76274819D01*
X163261905Y-76274819D02*
X163642857Y-76274819D01*
X163642857Y-76274819D02*
X163738095Y-76322438D01*
X163738095Y-76322438D02*
X163785714Y-76370057D01*
X163785714Y-76370057D02*
X163833333Y-76465295D01*
X163833333Y-76465295D02*
X163833333Y-76608152D01*
X163833333Y-76608152D02*
X163785714Y-76703390D01*
X163785714Y-76703390D02*
X163738095Y-76751009D01*
X163738095Y-76751009D02*
X163642857Y-76798628D01*
X163642857Y-76798628D02*
X163261905Y-76798628D01*
X164690476Y-76608152D02*
X164690476Y-77274819D01*
X164452381Y-76227200D02*
X164214286Y-76941485D01*
X164214286Y-76941485D02*
X164833333Y-76941485D01*
D11*
%TO.C,U1*%
X147940000Y-51100000D02*
X147940000Y-57430000D01*
X147940000Y-71100000D02*
X147940000Y-70970000D01*
X147940000Y-71100000D02*
X165940000Y-71100000D01*
X165940000Y-51100000D02*
X147940000Y-51100000D01*
X165940000Y-57430000D02*
X165940000Y-51100000D01*
X165940000Y-71100000D02*
X165940000Y-70970000D01*
D12*
X146540000Y-58200000D02*
G75*
G02*
X146340000Y-58200000I-100000J0D01*
G01*
X146340000Y-58200000D02*
G75*
G02*
X146540000Y-58200000I100000J0D01*
G01*
D13*
%TO.C,LED1*%
X157222627Y-72926800D02*
X158777373Y-72926800D01*
X157222627Y-75873200D02*
X158777373Y-75873200D01*
%TO.C,J3*%
X149108199Y-73172999D02*
X149108199Y-73712992D01*
X149108199Y-76187007D02*
X149108199Y-78512992D01*
X149108199Y-80987006D02*
X149108199Y-87981199D01*
X149108199Y-87981199D02*
X152511799Y-87981199D01*
X152511799Y-73172999D02*
X149108199Y-73172999D01*
X152511799Y-73712992D02*
X152511799Y-73172999D01*
X152511799Y-78512992D02*
X152511799Y-76187007D01*
X152511799Y-87981199D02*
X152511799Y-80987006D01*
D14*
%TO.C,SW1*%
X158140000Y-77790000D02*
X164260000Y-77790000D01*
X158140000Y-81410000D02*
X158140000Y-77790000D01*
X164260000Y-77790000D02*
X164260000Y-81410000D01*
X164260000Y-81410000D02*
X158140000Y-81410000D01*
D15*
%TO.C,J2*%
X141470000Y-59480000D02*
X141470000Y-79800000D01*
D16*
X144010000Y-56940000D02*
X169410000Y-56940000D01*
D15*
X144010000Y-82340000D02*
X169410000Y-82340000D01*
X171950000Y-59480000D02*
X171950000Y-79800000D01*
X141470000Y-59480000D02*
G75*
G02*
X144010000Y-56940000I2540001J-1D01*
G01*
X144010000Y-82340000D02*
G75*
G02*
X141470000Y-79800000I1J2540001D01*
G01*
X169410000Y-56940000D02*
G75*
G02*
X171950000Y-59480000I0J-2540000D01*
G01*
X171950000Y-79800000D02*
G75*
G02*
X169410000Y-82340000I-2540000J0D01*
G01*
D14*
%TO.C,R4*%
X164727064Y-74090000D02*
X163272936Y-74090000D01*
X164727064Y-75910000D02*
X163272936Y-75910000D01*
%TD*%
M02*
