%TF.GenerationSoftware,KiCad,Pcbnew,8.0.4*%
%TF.CreationDate,2024-07-30T10:55:48-04:00*%
%TF.ProjectId,esp32-c3-wroom-socket,65737033-322d-4633-932d-77726f6f6d2d,rev?*%
%TF.SameCoordinates,Original*%
%TF.FileFunction,Copper,L3,Inr*%
%TF.FilePolarity,Positive*%
%FSLAX46Y46*%
G04 Gerber Fmt 4.6, Leading zero omitted, Abs format (unit mm)*
G04 Created by KiCad (PCBNEW 8.0.4) date 2024-07-30 10:55:48*
%MOMM*%
%LPD*%
G01*
G04 APERTURE LIST*
G04 Aperture macros list*
%AMOutline5P*
0 Free polygon, 5 corners , with rotation*
0 The origin of the aperture is its center*
0 number of corners: always 5*
0 $1 to $10 corner X, Y*
0 $11 Rotation angle, in degrees counterclockwise*
0 create outline with 5 corners*
4,1,5,$1,$2,$3,$4,$5,$6,$7,$8,$9,$10,$1,$2,$11*%
%AMOutline6P*
0 Free polygon, 6 corners , with rotation*
0 The origin of the aperture is its center*
0 number of corners: always 6*
0 $1 to $12 corner X, Y*
0 $13 Rotation angle, in degrees counterclockwise*
0 create outline with 6 corners*
4,1,6,$1,$2,$3,$4,$5,$6,$7,$8,$9,$10,$11,$12,$1,$2,$13*%
%AMOutline7P*
0 Free polygon, 7 corners , with rotation*
0 The origin of the aperture is its center*
0 number of corners: always 7*
0 $1 to $14 corner X, Y*
0 $15 Rotation angle, in degrees counterclockwise*
0 create outline with 7 corners*
4,1,7,$1,$2,$3,$4,$5,$6,$7,$8,$9,$10,$11,$12,$13,$14,$1,$2,$15*%
%AMOutline8P*
0 Free polygon, 8 corners , with rotation*
0 The origin of the aperture is its center*
0 number of corners: always 8*
0 $1 to $16 corner X, Y*
0 $17 Rotation angle, in degrees counterclockwise*
0 create outline with 8 corners*
4,1,8,$1,$2,$3,$4,$5,$6,$7,$8,$9,$10,$11,$12,$13,$14,$15,$16,$1,$2,$17*%
G04 Aperture macros list end*
%TA.AperFunction,ComponentPad*%
%ADD10C,0.400000*%
%TD*%
%TA.AperFunction,ComponentPad*%
%ADD11C,0.609600*%
%TD*%
%TA.AperFunction,ComponentPad*%
%ADD12O,0.914400X1.905000*%
%TD*%
%TA.AperFunction,ComponentPad*%
%ADD13R,1.700000X1.700000*%
%TD*%
%TA.AperFunction,ComponentPad*%
%ADD14C,1.700000*%
%TD*%
%TA.AperFunction,ComponentPad*%
%ADD15Outline6P,-0.850000X0.340000X-0.340000X0.850000X0.850000X0.850000X0.850000X-0.340000X0.340000X-0.850000X-0.850000X-0.850000X0.000000*%
%TD*%
%TA.AperFunction,ViaPad*%
%ADD16C,0.600000*%
%TD*%
G04 APERTURE END LIST*
D10*
%TO.N,GND*%
%TO.C,U1*%
X158450000Y-65500000D03*
X157350000Y-65500000D03*
X159000000Y-64950000D03*
X157900000Y-64950000D03*
X156800000Y-64950000D03*
X158450000Y-64400000D03*
X157350000Y-64400000D03*
X159000000Y-63850000D03*
X157900000Y-63850000D03*
X156800000Y-63850000D03*
X158450000Y-63300000D03*
X157350000Y-63300000D03*
%TD*%
D11*
%TO.N,GND*%
%TO.C,J3*%
X150419999Y-79799999D03*
%TO.N,VBUS*%
X150419999Y-78899998D03*
%TO.N,Net-(J3-CC1)*%
X150419999Y-78000000D03*
%TO.N,USB_D+*%
X150419999Y-77099999D03*
%TO.N,USB_D-*%
X150419999Y-76199999D03*
%TO.N,VBUS*%
X150419999Y-75300000D03*
%TO.N,GND*%
X150419999Y-74400000D03*
X151200000Y-74850000D03*
%TO.N,VBUS*%
X151200000Y-75750000D03*
%TO.N,Net-(J3-CC2)*%
X151200000Y-76650000D03*
%TO.N,USB_D+*%
X151200000Y-77550000D03*
%TO.N,USB_D-*%
X151200000Y-78450000D03*
%TO.N,VBUS*%
X151200000Y-79350000D03*
%TO.N,GND*%
X151200000Y-80250000D03*
D12*
%TO.N,N/C*%
X149379999Y-79749999D03*
X152239999Y-79749999D03*
X149379999Y-74950000D03*
X152239999Y-74950000D03*
%TD*%
D13*
%TO.N,3V3*%
%TO.C,J2*%
X144010000Y-59480000D03*
D14*
%TO.N,EN*%
X144010000Y-62020000D03*
%TO.N,GPIO4*%
X144010000Y-64560000D03*
%TO.N,GPIO5*%
X144010000Y-67100000D03*
%TO.N,GPIO6*%
X144010000Y-69640000D03*
%TO.N,GPIO7*%
X144010000Y-72180000D03*
%TO.N,GPIO8*%
X144010000Y-74720000D03*
%TO.N,GPIO9*%
X144010000Y-77260000D03*
D15*
%TO.N,GND*%
X144010000Y-79800000D03*
D14*
%TO.N,GPIO10*%
X169410000Y-79800000D03*
%TO.N,UART-RX*%
X169410000Y-77260000D03*
%TO.N,UART-TX*%
X169410000Y-74720000D03*
%TO.N,USB_D-*%
X169410000Y-72180000D03*
%TO.N,USB_D+*%
X169410000Y-69640000D03*
%TO.N,GPIO3*%
X169410000Y-67100000D03*
%TO.N,GPIO2*%
X169410000Y-64560000D03*
%TO.N,GPIO1*%
X169410000Y-62020000D03*
%TO.N,GPIO0*%
X169410000Y-59480000D03*
%TD*%
D16*
%TO.N,GND*%
X151200000Y-68200000D03*
X153400000Y-58000000D03*
X156200000Y-71200000D03*
X152000000Y-68200000D03*
X156200000Y-69600000D03*
X154200000Y-58000000D03*
X154000000Y-81200000D03*
X152600000Y-58000000D03*
X154000000Y-80000000D03*
X156200000Y-70400000D03*
X156200000Y-68800000D03*
X152800000Y-68200000D03*
X155000000Y-58000000D03*
X150400000Y-68200000D03*
%TO.N,VBUS*%
X147400000Y-74400000D03*
%TO.N,USB_D-*%
X163800000Y-66800000D03*
%TD*%
%TA.AperFunction,Conductor*%
%TO.N,3V3*%
G36*
X151848826Y-57460185D02*
G01*
X151894581Y-57512989D01*
X151904525Y-57582147D01*
X151886781Y-57630471D01*
X151874212Y-57650474D01*
X151814631Y-57820745D01*
X151814630Y-57820750D01*
X151794435Y-57999996D01*
X151794435Y-58000003D01*
X151814630Y-58179249D01*
X151814631Y-58179254D01*
X151874211Y-58349523D01*
X151898950Y-58388894D01*
X151970184Y-58502262D01*
X152097738Y-58629816D01*
X152183959Y-58683992D01*
X152248254Y-58724392D01*
X152250478Y-58725789D01*
X152420739Y-58785366D01*
X152420745Y-58785368D01*
X152420750Y-58785369D01*
X152599996Y-58805565D01*
X152600000Y-58805565D01*
X152600004Y-58805565D01*
X152779249Y-58785369D01*
X152779251Y-58785368D01*
X152779255Y-58785368D01*
X152779258Y-58785366D01*
X152779262Y-58785366D01*
X152956095Y-58723489D01*
X152956846Y-58725637D01*
X153015128Y-58716035D01*
X153043588Y-58724392D01*
X153043905Y-58723489D01*
X153220737Y-58785366D01*
X153220743Y-58785367D01*
X153220745Y-58785368D01*
X153220746Y-58785368D01*
X153220750Y-58785369D01*
X153399996Y-58805565D01*
X153400000Y-58805565D01*
X153400004Y-58805565D01*
X153579249Y-58785369D01*
X153579251Y-58785368D01*
X153579255Y-58785368D01*
X153579258Y-58785366D01*
X153579262Y-58785366D01*
X153756095Y-58723489D01*
X153756846Y-58725637D01*
X153815128Y-58716035D01*
X153843588Y-58724392D01*
X153843905Y-58723489D01*
X154020737Y-58785366D01*
X154020743Y-58785367D01*
X154020745Y-58785368D01*
X154020746Y-58785368D01*
X154020750Y-58785369D01*
X154199996Y-58805565D01*
X154200000Y-58805565D01*
X154200004Y-58805565D01*
X154379249Y-58785369D01*
X154379251Y-58785368D01*
X154379255Y-58785368D01*
X154379258Y-58785366D01*
X154379262Y-58785366D01*
X154556095Y-58723489D01*
X154556846Y-58725637D01*
X154615128Y-58716035D01*
X154643588Y-58724392D01*
X154643905Y-58723489D01*
X154820737Y-58785366D01*
X154820743Y-58785367D01*
X154820745Y-58785368D01*
X154820746Y-58785368D01*
X154820750Y-58785369D01*
X154999996Y-58805565D01*
X155000000Y-58805565D01*
X155000004Y-58805565D01*
X155179249Y-58785369D01*
X155179252Y-58785368D01*
X155179255Y-58785368D01*
X155349522Y-58725789D01*
X155502262Y-58629816D01*
X155629816Y-58502262D01*
X155725789Y-58349522D01*
X155785368Y-58179255D01*
X155789235Y-58144936D01*
X155805565Y-58000003D01*
X155805565Y-57999996D01*
X155785369Y-57820750D01*
X155785368Y-57820745D01*
X155725789Y-57650478D01*
X155725787Y-57650475D01*
X155725787Y-57650474D01*
X155713219Y-57630471D01*
X155694219Y-57563234D01*
X155714587Y-57496399D01*
X155767856Y-57451186D01*
X155818213Y-57440500D01*
X169344108Y-57440500D01*
X169405933Y-57440500D01*
X169414042Y-57440765D01*
X169436774Y-57442254D01*
X169668114Y-57457417D01*
X169684172Y-57459532D01*
X169929888Y-57508408D01*
X169945554Y-57512606D01*
X170094700Y-57563234D01*
X170182788Y-57593136D01*
X170197765Y-57599339D01*
X170260895Y-57630471D01*
X170422460Y-57710146D01*
X170436508Y-57718256D01*
X170644815Y-57857443D01*
X170657679Y-57867314D01*
X170846033Y-58032497D01*
X170857502Y-58043966D01*
X171022685Y-58232320D01*
X171032559Y-58245188D01*
X171171743Y-58453492D01*
X171179853Y-58467539D01*
X171290657Y-58692227D01*
X171296864Y-58707213D01*
X171377393Y-58944445D01*
X171381591Y-58960111D01*
X171430465Y-59205813D01*
X171432583Y-59221895D01*
X171449235Y-59475956D01*
X171449500Y-59484066D01*
X171449500Y-79795933D01*
X171449235Y-79804043D01*
X171432583Y-80058104D01*
X171430465Y-80074186D01*
X171381591Y-80319888D01*
X171377393Y-80335554D01*
X171296864Y-80572786D01*
X171290657Y-80587772D01*
X171179853Y-80812460D01*
X171171743Y-80826507D01*
X171032559Y-81034811D01*
X171022685Y-81047679D01*
X170857502Y-81236033D01*
X170846033Y-81247502D01*
X170657679Y-81412685D01*
X170644811Y-81422559D01*
X170436507Y-81561743D01*
X170422460Y-81569853D01*
X170197772Y-81680657D01*
X170182786Y-81686864D01*
X169945554Y-81767393D01*
X169929888Y-81771591D01*
X169684186Y-81820465D01*
X169668104Y-81822583D01*
X169414043Y-81839235D01*
X169405933Y-81839500D01*
X154767945Y-81839500D01*
X154700906Y-81819815D01*
X154655151Y-81767011D01*
X154645207Y-81697853D01*
X154662951Y-81649528D01*
X154725788Y-81549523D01*
X154725789Y-81549522D01*
X154785368Y-81379255D01*
X154805227Y-81202999D01*
X154805565Y-81200003D01*
X154805565Y-81199996D01*
X154785369Y-81020750D01*
X154785368Y-81020745D01*
X154725788Y-80850476D01*
X154655472Y-80738569D01*
X154629816Y-80697738D01*
X154619759Y-80687681D01*
X154586274Y-80626358D01*
X154591258Y-80556666D01*
X154619759Y-80512319D01*
X154623333Y-80508745D01*
X154629816Y-80502262D01*
X154725789Y-80349522D01*
X154785368Y-80179255D01*
X154785369Y-80179249D01*
X154805565Y-80000003D01*
X154805565Y-79999996D01*
X154785369Y-79820750D01*
X154785368Y-79820745D01*
X154725788Y-79650476D01*
X154629815Y-79497737D01*
X154502262Y-79370184D01*
X154349523Y-79274211D01*
X154179254Y-79214631D01*
X154179249Y-79214630D01*
X154000004Y-79194435D01*
X153999996Y-79194435D01*
X153820750Y-79214630D01*
X153820745Y-79214631D01*
X153650476Y-79274211D01*
X153497737Y-79370184D01*
X153409380Y-79458542D01*
X153348057Y-79492027D01*
X153278365Y-79487043D01*
X153222432Y-79445171D01*
X153198015Y-79379707D01*
X153197699Y-79370861D01*
X153197699Y-79160371D01*
X153197698Y-79160369D01*
X153192667Y-79135077D01*
X153160895Y-78975348D01*
X153130567Y-78902129D01*
X153088705Y-78801064D01*
X153088698Y-78801051D01*
X152983893Y-78644201D01*
X152983890Y-78644197D01*
X152850500Y-78510807D01*
X152850496Y-78510804D01*
X152693646Y-78405999D01*
X152693633Y-78405992D01*
X152519354Y-78333804D01*
X152519342Y-78333801D01*
X152334327Y-78296999D01*
X152334324Y-78296999D01*
X152145674Y-78296999D01*
X152114796Y-78303141D01*
X152045205Y-78296912D01*
X151990028Y-78254049D01*
X151973565Y-78222480D01*
X151930142Y-78098382D01*
X151909778Y-78065973D01*
X151890777Y-77998737D01*
X151909778Y-77934027D01*
X151930142Y-77901618D01*
X151990077Y-77730332D01*
X151990078Y-77730330D01*
X151990829Y-77723664D01*
X152010396Y-77550003D01*
X152010396Y-77549996D01*
X151990079Y-77369675D01*
X151990077Y-77369667D01*
X151930142Y-77198381D01*
X151909778Y-77165973D01*
X151890777Y-77098737D01*
X151909778Y-77034027D01*
X151930142Y-77001618D01*
X151990077Y-76830332D01*
X151990078Y-76830330D01*
X151990079Y-76830324D01*
X152010396Y-76650003D01*
X152010396Y-76649997D01*
X152002963Y-76584029D01*
X151997823Y-76538412D01*
X152009877Y-76469592D01*
X152057226Y-76418213D01*
X152124836Y-76400588D01*
X152145236Y-76402912D01*
X152145674Y-76403000D01*
X152334326Y-76403000D01*
X152334327Y-76402999D01*
X152519350Y-76366196D01*
X152693640Y-76294003D01*
X152850497Y-76189194D01*
X152983893Y-76055798D01*
X153088702Y-75898941D01*
X153160895Y-75724651D01*
X153197699Y-75539625D01*
X153197699Y-74360375D01*
X153197699Y-74360372D01*
X153197698Y-74360370D01*
X153183349Y-74288234D01*
X153160895Y-74175349D01*
X153160893Y-74175344D01*
X153088705Y-74001065D01*
X153088698Y-74001052D01*
X152983893Y-73844202D01*
X152983890Y-73844198D01*
X152850500Y-73710808D01*
X152850496Y-73710805D01*
X152693646Y-73606000D01*
X152693633Y-73605993D01*
X152519354Y-73533805D01*
X152519342Y-73533802D01*
X152334327Y-73497000D01*
X152334324Y-73497000D01*
X152145674Y-73497000D01*
X152145671Y-73497000D01*
X151960655Y-73533802D01*
X151960643Y-73533805D01*
X151786364Y-73605993D01*
X151786351Y-73606000D01*
X151629501Y-73710805D01*
X151629497Y-73710808D01*
X151496107Y-73844198D01*
X151496104Y-73844202D01*
X151395902Y-73994166D01*
X151342290Y-74038971D01*
X151278916Y-74048495D01*
X151199745Y-74039574D01*
X151135331Y-74012507D01*
X151108635Y-73982326D01*
X151103411Y-73974013D01*
X151053592Y-73894726D01*
X150925273Y-73766407D01*
X150925267Y-73766402D01*
X150771624Y-73669861D01*
X150771621Y-73669859D01*
X150600328Y-73609921D01*
X150600323Y-73609920D01*
X150420003Y-73589604D01*
X150419995Y-73589604D01*
X150239674Y-73609920D01*
X150239669Y-73609921D01*
X150068376Y-73669859D01*
X150064698Y-73672171D01*
X149997460Y-73691167D01*
X149930626Y-73670796D01*
X149929841Y-73670276D01*
X149833646Y-73606000D01*
X149833633Y-73605993D01*
X149659354Y-73533805D01*
X149659342Y-73533802D01*
X149474327Y-73497000D01*
X149474324Y-73497000D01*
X149285674Y-73497000D01*
X149285671Y-73497000D01*
X149100655Y-73533802D01*
X149100643Y-73533805D01*
X148926364Y-73605993D01*
X148926351Y-73606000D01*
X148769501Y-73710805D01*
X148769497Y-73710808D01*
X148636107Y-73844198D01*
X148636104Y-73844202D01*
X148531299Y-74001052D01*
X148531292Y-74001065D01*
X148459104Y-74175344D01*
X148459101Y-74175354D01*
X148436648Y-74288234D01*
X148404263Y-74350145D01*
X148343547Y-74384719D01*
X148273778Y-74380979D01*
X148217106Y-74340112D01*
X148191811Y-74277925D01*
X148185369Y-74220750D01*
X148185368Y-74220745D01*
X148169483Y-74175349D01*
X148125789Y-74050478D01*
X148120569Y-74042171D01*
X148029815Y-73897737D01*
X147902262Y-73770184D01*
X147749523Y-73674211D01*
X147579254Y-73614631D01*
X147579249Y-73614630D01*
X147400004Y-73594435D01*
X147399996Y-73594435D01*
X147220750Y-73614630D01*
X147220745Y-73614631D01*
X147050476Y-73674211D01*
X146897737Y-73770184D01*
X146770184Y-73897737D01*
X146674211Y-74050476D01*
X146614631Y-74220745D01*
X146614630Y-74220750D01*
X146594435Y-74399996D01*
X146594435Y-74400003D01*
X146614630Y-74579249D01*
X146614631Y-74579254D01*
X146674211Y-74749523D01*
X146770184Y-74902262D01*
X146897738Y-75029816D01*
X147050478Y-75125789D01*
X147215850Y-75183655D01*
X147220745Y-75185368D01*
X147220750Y-75185369D01*
X147399996Y-75205565D01*
X147400000Y-75205565D01*
X147400004Y-75205565D01*
X147579249Y-75185369D01*
X147579252Y-75185368D01*
X147579255Y-75185368D01*
X147749522Y-75125789D01*
X147902262Y-75029816D01*
X148029816Y-74902262D01*
X148125789Y-74749522D01*
X148181257Y-74591004D01*
X148221979Y-74534227D01*
X148286932Y-74508480D01*
X148355493Y-74521936D01*
X148405896Y-74570323D01*
X148422299Y-74631958D01*
X148422299Y-75539629D01*
X148459101Y-75724643D01*
X148459104Y-75724655D01*
X148531292Y-75898934D01*
X148531299Y-75898947D01*
X148636104Y-76055797D01*
X148636107Y-76055801D01*
X148769497Y-76189191D01*
X148769501Y-76189194D01*
X148926351Y-76293999D01*
X148926364Y-76294006D01*
X149092722Y-76362913D01*
X149100648Y-76366196D01*
X149273548Y-76400588D01*
X149285669Y-76402999D01*
X149285672Y-76403000D01*
X149285674Y-76403000D01*
X149474324Y-76403000D01*
X149521558Y-76393604D01*
X149591147Y-76399830D01*
X149646325Y-76442692D01*
X149662791Y-76474266D01*
X149689857Y-76551618D01*
X149710222Y-76584029D01*
X149729221Y-76651266D01*
X149710222Y-76715969D01*
X149689857Y-76748379D01*
X149629920Y-76919669D01*
X149629919Y-76919674D01*
X149609603Y-77099995D01*
X149609603Y-77100002D01*
X149629919Y-77280323D01*
X149629921Y-77280331D01*
X149689857Y-77451619D01*
X149710221Y-77484028D01*
X149729221Y-77551264D01*
X149710222Y-77615969D01*
X149689858Y-77648378D01*
X149629920Y-77819670D01*
X149629919Y-77819675D01*
X149609603Y-77999996D01*
X149609603Y-78000004D01*
X149627937Y-78162732D01*
X149615882Y-78231554D01*
X149568533Y-78282933D01*
X149500922Y-78300557D01*
X149480525Y-78298232D01*
X149474326Y-78296999D01*
X149474324Y-78296999D01*
X149285674Y-78296999D01*
X149285671Y-78296999D01*
X149100655Y-78333801D01*
X149100643Y-78333804D01*
X148926364Y-78405992D01*
X148926351Y-78405999D01*
X148769501Y-78510804D01*
X148769497Y-78510807D01*
X148636107Y-78644197D01*
X148636104Y-78644201D01*
X148531299Y-78801051D01*
X148531292Y-78801064D01*
X148459104Y-78975343D01*
X148459101Y-78975355D01*
X148422299Y-79160369D01*
X148422299Y-80339628D01*
X148459101Y-80524642D01*
X148459104Y-80524654D01*
X148531292Y-80698933D01*
X148531299Y-80698946D01*
X148636104Y-80855796D01*
X148636107Y-80855800D01*
X148769497Y-80989190D01*
X148769501Y-80989193D01*
X148926351Y-81093998D01*
X148926364Y-81094005D01*
X149100643Y-81166193D01*
X149100648Y-81166195D01*
X149270577Y-81199996D01*
X149285669Y-81202998D01*
X149285672Y-81202999D01*
X149285674Y-81202999D01*
X149474326Y-81202999D01*
X149474327Y-81202998D01*
X149659350Y-81166195D01*
X149833640Y-81094002D01*
X149990497Y-80989193D01*
X150123893Y-80855797D01*
X150228702Y-80698940D01*
X150236561Y-80679965D01*
X150280396Y-80625565D01*
X150346689Y-80603497D01*
X150364996Y-80604197D01*
X150419999Y-80610395D01*
X150420001Y-80610394D01*
X150420252Y-80610423D01*
X150484666Y-80637490D01*
X150511361Y-80667669D01*
X150530341Y-80697876D01*
X150566406Y-80755273D01*
X150694725Y-80883592D01*
X150694731Y-80883597D01*
X150848374Y-80980138D01*
X150848377Y-80980140D01*
X150848381Y-80980141D01*
X150848382Y-80980142D01*
X150999096Y-81032879D01*
X151019670Y-81040078D01*
X151019675Y-81040079D01*
X151199996Y-81060396D01*
X151200000Y-81060396D01*
X151200004Y-81060396D01*
X151380324Y-81040079D01*
X151380327Y-81040078D01*
X151380330Y-81040078D01*
X151535442Y-80985801D01*
X151605221Y-80982241D01*
X151645288Y-80999742D01*
X151786351Y-81093998D01*
X151786364Y-81094005D01*
X151960643Y-81166193D01*
X151960648Y-81166195D01*
X152130577Y-81199996D01*
X152145669Y-81202998D01*
X152145672Y-81202999D01*
X152145674Y-81202999D01*
X152334326Y-81202999D01*
X152334327Y-81202998D01*
X152519350Y-81166195D01*
X152693640Y-81094002D01*
X152850497Y-80989193D01*
X152983893Y-80855797D01*
X153046615Y-80761926D01*
X153100227Y-80717122D01*
X153169552Y-80708415D01*
X153232579Y-80738569D01*
X153269299Y-80798012D01*
X153268052Y-80867871D01*
X153266759Y-80871772D01*
X153214632Y-81020742D01*
X153214630Y-81020750D01*
X153194435Y-81199996D01*
X153194435Y-81200003D01*
X153214630Y-81379249D01*
X153214631Y-81379254D01*
X153274211Y-81549523D01*
X153337049Y-81649528D01*
X153356049Y-81716764D01*
X153335681Y-81783600D01*
X153282414Y-81828814D01*
X153232055Y-81839500D01*
X144014067Y-81839500D01*
X144005957Y-81839235D01*
X143751895Y-81822583D01*
X143735814Y-81820465D01*
X143700770Y-81813494D01*
X143490111Y-81771591D01*
X143474445Y-81767393D01*
X143237213Y-81686864D01*
X143222227Y-81680657D01*
X142997539Y-81569853D01*
X142983492Y-81561743D01*
X142775188Y-81422559D01*
X142762320Y-81412685D01*
X142724199Y-81379254D01*
X142573966Y-81247502D01*
X142562497Y-81236033D01*
X142437941Y-81094005D01*
X142397311Y-81047675D01*
X142387440Y-81034811D01*
X142386149Y-81032879D01*
X142264273Y-80850478D01*
X142248256Y-80826507D01*
X142240146Y-80812460D01*
X142211945Y-80755274D01*
X142129339Y-80587765D01*
X142123135Y-80572786D01*
X142106796Y-80524654D01*
X142099195Y-80502262D01*
X142042606Y-80335554D01*
X142038408Y-80319888D01*
X142027224Y-80263663D01*
X141989532Y-80074172D01*
X141987417Y-80058114D01*
X141970765Y-79804042D01*
X141970500Y-79795933D01*
X141970500Y-62019999D01*
X142654341Y-62019999D01*
X142654341Y-62020000D01*
X142674936Y-62255403D01*
X142674938Y-62255413D01*
X142736094Y-62483655D01*
X142736096Y-62483659D01*
X142736097Y-62483663D01*
X142790113Y-62599500D01*
X142835965Y-62697830D01*
X142835967Y-62697834D01*
X142971501Y-62891395D01*
X142971506Y-62891402D01*
X143138597Y-63058493D01*
X143138603Y-63058498D01*
X143324158Y-63188425D01*
X143367783Y-63243002D01*
X143374977Y-63312500D01*
X143343454Y-63374855D01*
X143324158Y-63391575D01*
X143138597Y-63521505D01*
X142971505Y-63688597D01*
X142835965Y-63882169D01*
X142835964Y-63882171D01*
X142736098Y-64096335D01*
X142736094Y-64096344D01*
X142674938Y-64324586D01*
X142674936Y-64324596D01*
X142654341Y-64559999D01*
X142654341Y-64560000D01*
X142674936Y-64795403D01*
X142674938Y-64795413D01*
X142736094Y-65023655D01*
X142736096Y-65023659D01*
X142736097Y-65023663D01*
X142780494Y-65118872D01*
X142835965Y-65237830D01*
X142835967Y-65237834D01*
X142944281Y-65392521D01*
X142962070Y-65417927D01*
X142971501Y-65431395D01*
X142971506Y-65431402D01*
X143138597Y-65598493D01*
X143138603Y-65598498D01*
X143324158Y-65728425D01*
X143367783Y-65783002D01*
X143374977Y-65852500D01*
X143343454Y-65914855D01*
X143324158Y-65931575D01*
X143138597Y-66061505D01*
X142971505Y-66228597D01*
X142835965Y-66422169D01*
X142835964Y-66422171D01*
X142736098Y-66636335D01*
X142736094Y-66636344D01*
X142674938Y-66864586D01*
X142674936Y-66864596D01*
X142654341Y-67099999D01*
X142654341Y-67100000D01*
X142674936Y-67335403D01*
X142674938Y-67335413D01*
X142736094Y-67563655D01*
X142736096Y-67563659D01*
X142736097Y-67563663D01*
X142835965Y-67777830D01*
X142835967Y-67777834D01*
X142971501Y-67971395D01*
X142971506Y-67971402D01*
X143138597Y-68138493D01*
X143138603Y-68138498D01*
X143324158Y-68268425D01*
X143367783Y-68323002D01*
X143374977Y-68392500D01*
X143343454Y-68454855D01*
X143324158Y-68471575D01*
X143138597Y-68601505D01*
X142971505Y-68768597D01*
X142835965Y-68962169D01*
X142835964Y-68962171D01*
X142736098Y-69176335D01*
X142736094Y-69176344D01*
X142674938Y-69404586D01*
X142674936Y-69404596D01*
X142654341Y-69639999D01*
X142654341Y-69640000D01*
X142674936Y-69875403D01*
X142674938Y-69875413D01*
X142736094Y-70103655D01*
X142736096Y-70103659D01*
X142736097Y-70103663D01*
X142790696Y-70220750D01*
X142835965Y-70317830D01*
X142835967Y-70317834D01*
X142971501Y-70511395D01*
X142971506Y-70511402D01*
X143138597Y-70678493D01*
X143138603Y-70678498D01*
X143324158Y-70808425D01*
X143367783Y-70863002D01*
X143374977Y-70932500D01*
X143343454Y-70994855D01*
X143324158Y-71011575D01*
X143138597Y-71141505D01*
X142971505Y-71308597D01*
X142835965Y-71502169D01*
X142835964Y-71502171D01*
X142736098Y-71716335D01*
X142736094Y-71716344D01*
X142674938Y-71944586D01*
X142674936Y-71944596D01*
X142654341Y-72179999D01*
X142654341Y-72180000D01*
X142674936Y-72415403D01*
X142674938Y-72415413D01*
X142736094Y-72643655D01*
X142736096Y-72643659D01*
X142736097Y-72643663D01*
X142835965Y-72857830D01*
X142835967Y-72857834D01*
X142971501Y-73051395D01*
X142971506Y-73051402D01*
X143138597Y-73218493D01*
X143138603Y-73218498D01*
X143324158Y-73348425D01*
X143367783Y-73403002D01*
X143374977Y-73472500D01*
X143343454Y-73534855D01*
X143324158Y-73551575D01*
X143138597Y-73681505D01*
X142971505Y-73848597D01*
X142835965Y-74042169D01*
X142835964Y-74042171D01*
X142736098Y-74256335D01*
X142736094Y-74256344D01*
X142674938Y-74484586D01*
X142674936Y-74484596D01*
X142654341Y-74719999D01*
X142654341Y-74720000D01*
X142674936Y-74955403D01*
X142674938Y-74955413D01*
X142736094Y-75183655D01*
X142736096Y-75183659D01*
X142736097Y-75183663D01*
X142835965Y-75397830D01*
X142835967Y-75397834D01*
X142971501Y-75591395D01*
X142971506Y-75591402D01*
X143138597Y-75758493D01*
X143138603Y-75758498D01*
X143324158Y-75888425D01*
X143367783Y-75943002D01*
X143374977Y-76012500D01*
X143343454Y-76074855D01*
X143324158Y-76091575D01*
X143138597Y-76221505D01*
X142971505Y-76388597D01*
X142835965Y-76582169D01*
X142835964Y-76582171D01*
X142736098Y-76796335D01*
X142736094Y-76796344D01*
X142674938Y-77024586D01*
X142674936Y-77024596D01*
X142654341Y-77259999D01*
X142654341Y-77260000D01*
X142674936Y-77495403D01*
X142674938Y-77495413D01*
X142736094Y-77723655D01*
X142736096Y-77723659D01*
X142736097Y-77723663D01*
X142819079Y-77901618D01*
X142835965Y-77937830D01*
X142835967Y-77937834D01*
X142925692Y-78065973D01*
X142971505Y-78131401D01*
X143138599Y-78298495D01*
X143292130Y-78405999D01*
X143296978Y-78409393D01*
X143340603Y-78463970D01*
X143347797Y-78533468D01*
X143316274Y-78595823D01*
X143313536Y-78598649D01*
X142777117Y-79135067D01*
X142777108Y-79135077D01*
X142725135Y-79201984D01*
X142670060Y-79334949D01*
X142670060Y-79334950D01*
X142659500Y-79419019D01*
X142659500Y-80697870D01*
X142659501Y-80697876D01*
X142665908Y-80757483D01*
X142716202Y-80892328D01*
X142716206Y-80892335D01*
X142802452Y-81007544D01*
X142802455Y-81007547D01*
X142917664Y-81093793D01*
X142917671Y-81093797D01*
X143052517Y-81144091D01*
X143052516Y-81144091D01*
X143059444Y-81144835D01*
X143112127Y-81150500D01*
X144390975Y-81150499D01*
X144475050Y-81139940D01*
X144608016Y-81084863D01*
X144674935Y-81032879D01*
X145242884Y-80464931D01*
X145294864Y-80398016D01*
X145349940Y-80265049D01*
X145360500Y-80180977D01*
X145360499Y-78902128D01*
X145354091Y-78842517D01*
X145338625Y-78801051D01*
X145303797Y-78707671D01*
X145303793Y-78707664D01*
X145217547Y-78592455D01*
X145217544Y-78592452D01*
X145102335Y-78506206D01*
X145102328Y-78506202D01*
X144970917Y-78457189D01*
X144914983Y-78415318D01*
X144890566Y-78349853D01*
X144905418Y-78281580D01*
X144926563Y-78253332D01*
X145048495Y-78131401D01*
X145184035Y-77937830D01*
X145283903Y-77723663D01*
X145345063Y-77495408D01*
X145365659Y-77260000D01*
X145345063Y-77024592D01*
X145283903Y-76796337D01*
X145184035Y-76582171D01*
X145153397Y-76538414D01*
X145048494Y-76388597D01*
X144881402Y-76221506D01*
X144881396Y-76221501D01*
X144695842Y-76091575D01*
X144652217Y-76036998D01*
X144645023Y-75967500D01*
X144676546Y-75905145D01*
X144695842Y-75888425D01*
X144718026Y-75872891D01*
X144881401Y-75758495D01*
X145048495Y-75591401D01*
X145184035Y-75397830D01*
X145283903Y-75183663D01*
X145345063Y-74955408D01*
X145365659Y-74720000D01*
X145345063Y-74484592D01*
X145283903Y-74256337D01*
X145184035Y-74042171D01*
X145181795Y-74038971D01*
X145048494Y-73848597D01*
X144881402Y-73681506D01*
X144881396Y-73681501D01*
X144695842Y-73551575D01*
X144652217Y-73496998D01*
X144645023Y-73427500D01*
X144676546Y-73365145D01*
X144695842Y-73348425D01*
X144718026Y-73332891D01*
X144881401Y-73218495D01*
X145048495Y-73051401D01*
X145184035Y-72857830D01*
X145283903Y-72643663D01*
X145345063Y-72415408D01*
X145365659Y-72180000D01*
X145345063Y-71944592D01*
X145283903Y-71716337D01*
X145184035Y-71502171D01*
X145097965Y-71379249D01*
X145048494Y-71308597D01*
X144881402Y-71141506D01*
X144881396Y-71141501D01*
X144695842Y-71011575D01*
X144652217Y-70956998D01*
X144645023Y-70887500D01*
X144676546Y-70825145D01*
X144695842Y-70808425D01*
X144769507Y-70756844D01*
X144881401Y-70678495D01*
X145048495Y-70511401D01*
X145184035Y-70317830D01*
X145283903Y-70103663D01*
X145345063Y-69875408D01*
X145365659Y-69640000D01*
X145345063Y-69404592D01*
X145283903Y-69176337D01*
X145184035Y-68962171D01*
X145158561Y-68925789D01*
X145048494Y-68768597D01*
X144881402Y-68601506D01*
X144881396Y-68601501D01*
X144695842Y-68471575D01*
X144652217Y-68416998D01*
X144645023Y-68347500D01*
X144676546Y-68285145D01*
X144695842Y-68268425D01*
X144718026Y-68252891D01*
X144793568Y-68199996D01*
X149594435Y-68199996D01*
X149594435Y-68200003D01*
X149614630Y-68379249D01*
X149614631Y-68379254D01*
X149674211Y-68549523D01*
X149770184Y-68702262D01*
X149897738Y-68829816D01*
X149988080Y-68886582D01*
X150048254Y-68924392D01*
X150050478Y-68925789D01*
X150154446Y-68962169D01*
X150220745Y-68985368D01*
X150220750Y-68985369D01*
X150399996Y-69005565D01*
X150400000Y-69005565D01*
X150400004Y-69005565D01*
X150579249Y-68985369D01*
X150579251Y-68985368D01*
X150579255Y-68985368D01*
X150579258Y-68985366D01*
X150579262Y-68985366D01*
X150756095Y-68923489D01*
X150756846Y-68925637D01*
X150815128Y-68916035D01*
X150843588Y-68924392D01*
X150843905Y-68923489D01*
X151020737Y-68985366D01*
X151020743Y-68985367D01*
X151020745Y-68985368D01*
X151020746Y-68985368D01*
X151020750Y-68985369D01*
X151199996Y-69005565D01*
X151200000Y-69005565D01*
X151200004Y-69005565D01*
X151379249Y-68985369D01*
X151379251Y-68985368D01*
X151379255Y-68985368D01*
X151379258Y-68985366D01*
X151379262Y-68985366D01*
X151556095Y-68923489D01*
X151556846Y-68925637D01*
X151615128Y-68916035D01*
X151643588Y-68924392D01*
X151643905Y-68923489D01*
X151820737Y-68985366D01*
X151820743Y-68985367D01*
X151820745Y-68985368D01*
X151820746Y-68985368D01*
X151820750Y-68985369D01*
X151999996Y-69005565D01*
X152000000Y-69005565D01*
X152000004Y-69005565D01*
X152179249Y-68985369D01*
X152179251Y-68985368D01*
X152179255Y-68985368D01*
X152179258Y-68985366D01*
X152179262Y-68985366D01*
X152356095Y-68923489D01*
X152356846Y-68925637D01*
X152415128Y-68916035D01*
X152443588Y-68924392D01*
X152443905Y-68923489D01*
X152620737Y-68985366D01*
X152620743Y-68985367D01*
X152620745Y-68985368D01*
X152620746Y-68985368D01*
X152620750Y-68985369D01*
X152799996Y-69005565D01*
X152800000Y-69005565D01*
X152800004Y-69005565D01*
X152979249Y-68985369D01*
X152979252Y-68985368D01*
X152979255Y-68985368D01*
X153149522Y-68925789D01*
X153302262Y-68829816D01*
X153332082Y-68799996D01*
X155394435Y-68799996D01*
X155394435Y-68800003D01*
X155414630Y-68979249D01*
X155414633Y-68979262D01*
X155476510Y-69156094D01*
X155474364Y-69156844D01*
X155483962Y-69215144D01*
X155475609Y-69243590D01*
X155476510Y-69243906D01*
X155414633Y-69420737D01*
X155414630Y-69420750D01*
X155394435Y-69599996D01*
X155394435Y-69600003D01*
X155414630Y-69779249D01*
X155414633Y-69779262D01*
X155476510Y-69956094D01*
X155474364Y-69956844D01*
X155483962Y-70015144D01*
X155475609Y-70043590D01*
X155476510Y-70043906D01*
X155414633Y-70220737D01*
X155414630Y-70220750D01*
X155394435Y-70399996D01*
X155394435Y-70400003D01*
X155414630Y-70579249D01*
X155414633Y-70579262D01*
X155476510Y-70756094D01*
X155474364Y-70756844D01*
X155483962Y-70815144D01*
X155475609Y-70843590D01*
X155476510Y-70843906D01*
X155414633Y-71020737D01*
X155414630Y-71020750D01*
X155394435Y-71199996D01*
X155394435Y-71200003D01*
X155414630Y-71379249D01*
X155414631Y-71379254D01*
X155474211Y-71549523D01*
X155570184Y-71702262D01*
X155697738Y-71829816D01*
X155850478Y-71925789D01*
X156020745Y-71985368D01*
X156020750Y-71985369D01*
X156199996Y-72005565D01*
X156200000Y-72005565D01*
X156200004Y-72005565D01*
X156379249Y-71985369D01*
X156379252Y-71985368D01*
X156379255Y-71985368D01*
X156549522Y-71925789D01*
X156702262Y-71829816D01*
X156829816Y-71702262D01*
X156925789Y-71549522D01*
X156985368Y-71379255D01*
X156993329Y-71308599D01*
X157005565Y-71200003D01*
X157005565Y-71199996D01*
X156985369Y-71020750D01*
X156985366Y-71020737D01*
X156923489Y-70843905D01*
X156925637Y-70843153D01*
X156916035Y-70784872D01*
X156924392Y-70756411D01*
X156923489Y-70756095D01*
X156985366Y-70579262D01*
X156985369Y-70579249D01*
X157005565Y-70400003D01*
X157005565Y-70399996D01*
X156985369Y-70220750D01*
X156985366Y-70220737D01*
X156923489Y-70043905D01*
X156925637Y-70043153D01*
X156916035Y-69984872D01*
X156924392Y-69956411D01*
X156923489Y-69956095D01*
X156985366Y-69779262D01*
X156985369Y-69779249D01*
X157005565Y-69600003D01*
X157005565Y-69599996D01*
X156985369Y-69420750D01*
X156985366Y-69420737D01*
X156923489Y-69243905D01*
X156925637Y-69243153D01*
X156916035Y-69184872D01*
X156924392Y-69156411D01*
X156923489Y-69156095D01*
X156985366Y-68979262D01*
X156985369Y-68979249D01*
X157005565Y-68800003D01*
X157005565Y-68799996D01*
X156985369Y-68620750D01*
X156985368Y-68620745D01*
X156931208Y-68465965D01*
X156925789Y-68450478D01*
X156829816Y-68297738D01*
X156702262Y-68170184D01*
X156651834Y-68138498D01*
X156549523Y-68074211D01*
X156379254Y-68014631D01*
X156379249Y-68014630D01*
X156200004Y-67994435D01*
X156199996Y-67994435D01*
X156020750Y-68014630D01*
X156020745Y-68014631D01*
X155850476Y-68074211D01*
X155697737Y-68170184D01*
X155570184Y-68297737D01*
X155474211Y-68450476D01*
X155414631Y-68620745D01*
X155414630Y-68620750D01*
X155394435Y-68799996D01*
X153332082Y-68799996D01*
X153429816Y-68702262D01*
X153525789Y-68549522D01*
X153585368Y-68379255D01*
X153595972Y-68285145D01*
X153605565Y-68200003D01*
X153605565Y-68199996D01*
X153585369Y-68020750D01*
X153585368Y-68020745D01*
X153525788Y-67850476D01*
X153429815Y-67697737D01*
X153302262Y-67570184D01*
X153149523Y-67474211D01*
X152979254Y-67414631D01*
X152979249Y-67414630D01*
X152800004Y-67394435D01*
X152799996Y-67394435D01*
X152620750Y-67414630D01*
X152620737Y-67414633D01*
X152443906Y-67476510D01*
X152443155Y-67474364D01*
X152384856Y-67483962D01*
X152356409Y-67475609D01*
X152356094Y-67476510D01*
X152179262Y-67414633D01*
X152179249Y-67414630D01*
X152000004Y-67394435D01*
X151999996Y-67394435D01*
X151820750Y-67414630D01*
X151820737Y-67414633D01*
X151643906Y-67476510D01*
X151643155Y-67474364D01*
X151584856Y-67483962D01*
X151556409Y-67475609D01*
X151556094Y-67476510D01*
X151379262Y-67414633D01*
X151379249Y-67414630D01*
X151200004Y-67394435D01*
X151199996Y-67394435D01*
X151020750Y-67414630D01*
X151020737Y-67414633D01*
X150843906Y-67476510D01*
X150843155Y-67474364D01*
X150784856Y-67483962D01*
X150756409Y-67475609D01*
X150756094Y-67476510D01*
X150579262Y-67414633D01*
X150579249Y-67414630D01*
X150400004Y-67394435D01*
X150399996Y-67394435D01*
X150220750Y-67414630D01*
X150220745Y-67414631D01*
X150050476Y-67474211D01*
X149897737Y-67570184D01*
X149770184Y-67697737D01*
X149674211Y-67850476D01*
X149614631Y-68020745D01*
X149614630Y-68020750D01*
X149594435Y-68199996D01*
X144793568Y-68199996D01*
X144881401Y-68138495D01*
X145048495Y-67971401D01*
X145184035Y-67777830D01*
X145283903Y-67563663D01*
X145345063Y-67335408D01*
X145365659Y-67100000D01*
X145345063Y-66864592D01*
X145327755Y-66799996D01*
X162994435Y-66799996D01*
X162994435Y-66800003D01*
X163014630Y-66979249D01*
X163014631Y-66979254D01*
X163074211Y-67149523D01*
X163170184Y-67302262D01*
X163297738Y-67429816D01*
X163450478Y-67525789D01*
X163558693Y-67563655D01*
X163620745Y-67585368D01*
X163620750Y-67585369D01*
X163799996Y-67605565D01*
X163800000Y-67605565D01*
X163800004Y-67605565D01*
X163979249Y-67585369D01*
X163979252Y-67585368D01*
X163979255Y-67585368D01*
X164149522Y-67525789D01*
X164302262Y-67429816D01*
X164429816Y-67302262D01*
X164525789Y-67149522D01*
X164585368Y-66979255D01*
X164598287Y-66864596D01*
X164605565Y-66800003D01*
X164605565Y-66799996D01*
X164585369Y-66620750D01*
X164585368Y-66620745D01*
X164525788Y-66450476D01*
X164429815Y-66297737D01*
X164302262Y-66170184D01*
X164149523Y-66074211D01*
X163979254Y-66014631D01*
X163979249Y-66014630D01*
X163800004Y-65994435D01*
X163799996Y-65994435D01*
X163620750Y-66014630D01*
X163620745Y-66014631D01*
X163450476Y-66074211D01*
X163297737Y-66170184D01*
X163170184Y-66297737D01*
X163074211Y-66450476D01*
X163014631Y-66620745D01*
X163014630Y-66620750D01*
X162994435Y-66799996D01*
X145327755Y-66799996D01*
X145283903Y-66636337D01*
X145184035Y-66422171D01*
X145096907Y-66297738D01*
X145048494Y-66228597D01*
X144881402Y-66061506D01*
X144881396Y-66061501D01*
X144695842Y-65931575D01*
X144652217Y-65876998D01*
X144645023Y-65807500D01*
X144676546Y-65745145D01*
X144695842Y-65728425D01*
X144821930Y-65640137D01*
X144881401Y-65598495D01*
X145048495Y-65431401D01*
X145184035Y-65237830D01*
X145283903Y-65023663D01*
X145345063Y-64795408D01*
X145365659Y-64560000D01*
X145345063Y-64324592D01*
X145283903Y-64096337D01*
X145184035Y-63882171D01*
X145161509Y-63850000D01*
X156094355Y-63850000D01*
X156114859Y-64018869D01*
X156114860Y-64018874D01*
X156175182Y-64177931D01*
X156276078Y-64324102D01*
X156275002Y-64324844D01*
X156301400Y-64381010D01*
X156292214Y-64450274D01*
X156275848Y-64475739D01*
X156276078Y-64475898D01*
X156175182Y-64622068D01*
X156114860Y-64781125D01*
X156114859Y-64781130D01*
X156094355Y-64950000D01*
X156114859Y-65118869D01*
X156114860Y-65118874D01*
X156175182Y-65277931D01*
X156237475Y-65368177D01*
X156271817Y-65417929D01*
X156399148Y-65530734D01*
X156399150Y-65530735D01*
X156549775Y-65609790D01*
X156549774Y-65609790D01*
X156588818Y-65619413D01*
X156649199Y-65654569D01*
X156675086Y-65695838D01*
X156725183Y-65827932D01*
X156759051Y-65876998D01*
X156821817Y-65967929D01*
X156882227Y-66021447D01*
X156949150Y-66080736D01*
X157099773Y-66159789D01*
X157099775Y-66159790D01*
X157264944Y-66200500D01*
X157435056Y-66200500D01*
X157600225Y-66159790D01*
X157750852Y-66080734D01*
X157817775Y-66021445D01*
X157881005Y-65991725D01*
X157950269Y-66000908D01*
X157982222Y-66021443D01*
X158049148Y-66080734D01*
X158199775Y-66159790D01*
X158364944Y-66200500D01*
X158535056Y-66200500D01*
X158700225Y-66159790D01*
X158779692Y-66118081D01*
X158850849Y-66080736D01*
X158850850Y-66080734D01*
X158850852Y-66080734D01*
X158978183Y-65967929D01*
X159074818Y-65827930D01*
X159124913Y-65695838D01*
X159167089Y-65640137D01*
X159211181Y-65619413D01*
X159213074Y-65618946D01*
X159250225Y-65609790D01*
X159400852Y-65530734D01*
X159528183Y-65417929D01*
X159624818Y-65277930D01*
X159685140Y-65118872D01*
X159705645Y-64950000D01*
X159685140Y-64781128D01*
X159624818Y-64622070D01*
X159528183Y-64482071D01*
X159528182Y-64482070D01*
X159523922Y-64475898D01*
X159524998Y-64475154D01*
X159498601Y-64419002D01*
X159507779Y-64349738D01*
X159524152Y-64324261D01*
X159523922Y-64324102D01*
X159624817Y-64177931D01*
X159624816Y-64177931D01*
X159624818Y-64177930D01*
X159685140Y-64018872D01*
X159705645Y-63850000D01*
X159685140Y-63681128D01*
X159624818Y-63522070D01*
X159624425Y-63521501D01*
X159534743Y-63391575D01*
X159528183Y-63382071D01*
X159400852Y-63269266D01*
X159400850Y-63269265D01*
X159400849Y-63269264D01*
X159250224Y-63190209D01*
X159250225Y-63190209D01*
X159211179Y-63180586D01*
X159150798Y-63145430D01*
X159124912Y-63104159D01*
X159107594Y-63058495D01*
X159074818Y-62972070D01*
X158978183Y-62832071D01*
X158850852Y-62719266D01*
X158850849Y-62719263D01*
X158700226Y-62640210D01*
X158535056Y-62599500D01*
X158364944Y-62599500D01*
X158199773Y-62640210D01*
X158049150Y-62719263D01*
X157982227Y-62778553D01*
X157918994Y-62808274D01*
X157849730Y-62799090D01*
X157817773Y-62778553D01*
X157750849Y-62719263D01*
X157600226Y-62640210D01*
X157435056Y-62599500D01*
X157264944Y-62599500D01*
X157099773Y-62640210D01*
X156949150Y-62719263D01*
X156821816Y-62832072D01*
X156725182Y-62972068D01*
X156725182Y-62972069D01*
X156675087Y-63104160D01*
X156632909Y-63159863D01*
X156588821Y-63180586D01*
X156549772Y-63190210D01*
X156399150Y-63269263D01*
X156271816Y-63382072D01*
X156175182Y-63522068D01*
X156114860Y-63681125D01*
X156114859Y-63681130D01*
X156094355Y-63850000D01*
X145161509Y-63850000D01*
X145048495Y-63688599D01*
X145048494Y-63688597D01*
X144881402Y-63521506D01*
X144881396Y-63521501D01*
X144695842Y-63391575D01*
X144652217Y-63336998D01*
X144645023Y-63267500D01*
X144676546Y-63205145D01*
X144695842Y-63188425D01*
X144777670Y-63131128D01*
X144881401Y-63058495D01*
X145048495Y-62891401D01*
X145184035Y-62697830D01*
X145283903Y-62483663D01*
X145345063Y-62255408D01*
X145365659Y-62020000D01*
X145345063Y-61784592D01*
X145283903Y-61556337D01*
X145184035Y-61342171D01*
X145048495Y-61148599D01*
X144926179Y-61026283D01*
X144892696Y-60964963D01*
X144897680Y-60895271D01*
X144939551Y-60839337D01*
X144970529Y-60822422D01*
X145102086Y-60773354D01*
X145102093Y-60773350D01*
X145217187Y-60687190D01*
X145217190Y-60687187D01*
X145303350Y-60572093D01*
X145303354Y-60572086D01*
X145353596Y-60437379D01*
X145353598Y-60437372D01*
X145359999Y-60377844D01*
X145360000Y-60377827D01*
X145360000Y-59730000D01*
X144443012Y-59730000D01*
X144475925Y-59672993D01*
X144510000Y-59545826D01*
X144510000Y-59479999D01*
X168054341Y-59479999D01*
X168054341Y-59480000D01*
X168074936Y-59715403D01*
X168074938Y-59715413D01*
X168136094Y-59943655D01*
X168136096Y-59943659D01*
X168136097Y-59943663D01*
X168235965Y-60157830D01*
X168235967Y-60157834D01*
X168371501Y-60351395D01*
X168371506Y-60351402D01*
X168538597Y-60518493D01*
X168538603Y-60518498D01*
X168724158Y-60648425D01*
X168767783Y-60703002D01*
X168774977Y-60772500D01*
X168743454Y-60834855D01*
X168724158Y-60851575D01*
X168538597Y-60981505D01*
X168371505Y-61148597D01*
X168235965Y-61342169D01*
X168235964Y-61342171D01*
X168136098Y-61556335D01*
X168136094Y-61556344D01*
X168074938Y-61784586D01*
X168074936Y-61784596D01*
X168054341Y-62019999D01*
X168054341Y-62020000D01*
X168074936Y-62255403D01*
X168074938Y-62255413D01*
X168136094Y-62483655D01*
X168136096Y-62483659D01*
X168136097Y-62483663D01*
X168190113Y-62599500D01*
X168235965Y-62697830D01*
X168235967Y-62697834D01*
X168371501Y-62891395D01*
X168371506Y-62891402D01*
X168538597Y-63058493D01*
X168538603Y-63058498D01*
X168724158Y-63188425D01*
X168767783Y-63243002D01*
X168774977Y-63312500D01*
X168743454Y-63374855D01*
X168724158Y-63391575D01*
X168538597Y-63521505D01*
X168371505Y-63688597D01*
X168235965Y-63882169D01*
X168235964Y-63882171D01*
X168136098Y-64096335D01*
X168136094Y-64096344D01*
X168074938Y-64324586D01*
X168074936Y-64324596D01*
X168054341Y-64559999D01*
X168054341Y-64560000D01*
X168074936Y-64795403D01*
X168074938Y-64795413D01*
X168136094Y-65023655D01*
X168136096Y-65023659D01*
X168136097Y-65023663D01*
X168180494Y-65118872D01*
X168235965Y-65237830D01*
X168235967Y-65237834D01*
X168344281Y-65392521D01*
X168362070Y-65417927D01*
X168371501Y-65431395D01*
X168371506Y-65431402D01*
X168538597Y-65598493D01*
X168538603Y-65598498D01*
X168724158Y-65728425D01*
X168767783Y-65783002D01*
X168774977Y-65852500D01*
X168743454Y-65914855D01*
X168724158Y-65931575D01*
X168538597Y-66061505D01*
X168371505Y-66228597D01*
X168235965Y-66422169D01*
X168235964Y-66422171D01*
X168136098Y-66636335D01*
X168136094Y-66636344D01*
X168074938Y-66864586D01*
X168074936Y-66864596D01*
X168054341Y-67099999D01*
X168054341Y-67100000D01*
X168074936Y-67335403D01*
X168074938Y-67335413D01*
X168136094Y-67563655D01*
X168136096Y-67563659D01*
X168136097Y-67563663D01*
X168235965Y-67777830D01*
X168235967Y-67777834D01*
X168371501Y-67971395D01*
X168371506Y-67971402D01*
X168538597Y-68138493D01*
X168538603Y-68138498D01*
X168724158Y-68268425D01*
X168767783Y-68323002D01*
X168774977Y-68392500D01*
X168743454Y-68454855D01*
X168724158Y-68471575D01*
X168538597Y-68601505D01*
X168371505Y-68768597D01*
X168235965Y-68962169D01*
X168235964Y-68962171D01*
X168136098Y-69176335D01*
X168136094Y-69176344D01*
X168074938Y-69404586D01*
X168074936Y-69404596D01*
X168054341Y-69639999D01*
X168054341Y-69640000D01*
X168074936Y-69875403D01*
X168074938Y-69875413D01*
X168136094Y-70103655D01*
X168136096Y-70103659D01*
X168136097Y-70103663D01*
X168190696Y-70220750D01*
X168235965Y-70317830D01*
X168235967Y-70317834D01*
X168371501Y-70511395D01*
X168371506Y-70511402D01*
X168538597Y-70678493D01*
X168538603Y-70678498D01*
X168724158Y-70808425D01*
X168767783Y-70863002D01*
X168774977Y-70932500D01*
X168743454Y-70994855D01*
X168724158Y-71011575D01*
X168538597Y-71141505D01*
X168371505Y-71308597D01*
X168235965Y-71502169D01*
X168235964Y-71502171D01*
X168136098Y-71716335D01*
X168136094Y-71716344D01*
X168074938Y-71944586D01*
X168074936Y-71944596D01*
X168054341Y-72179999D01*
X168054341Y-72180000D01*
X168074936Y-72415403D01*
X168074938Y-72415413D01*
X168136094Y-72643655D01*
X168136096Y-72643659D01*
X168136097Y-72643663D01*
X168235965Y-72857830D01*
X168235967Y-72857834D01*
X168371501Y-73051395D01*
X168371506Y-73051402D01*
X168538597Y-73218493D01*
X168538603Y-73218498D01*
X168724158Y-73348425D01*
X168767783Y-73403002D01*
X168774977Y-73472500D01*
X168743454Y-73534855D01*
X168724158Y-73551575D01*
X168538597Y-73681505D01*
X168371505Y-73848597D01*
X168235965Y-74042169D01*
X168235964Y-74042171D01*
X168136098Y-74256335D01*
X168136094Y-74256344D01*
X168074938Y-74484586D01*
X168074936Y-74484596D01*
X168054341Y-74719999D01*
X168054341Y-74720000D01*
X168074936Y-74955403D01*
X168074938Y-74955413D01*
X168136094Y-75183655D01*
X168136096Y-75183659D01*
X168136097Y-75183663D01*
X168235965Y-75397830D01*
X168235967Y-75397834D01*
X168371501Y-75591395D01*
X168371506Y-75591402D01*
X168538597Y-75758493D01*
X168538603Y-75758498D01*
X168724158Y-75888425D01*
X168767783Y-75943002D01*
X168774977Y-76012500D01*
X168743454Y-76074855D01*
X168724158Y-76091575D01*
X168538597Y-76221505D01*
X168371505Y-76388597D01*
X168235965Y-76582169D01*
X168235964Y-76582171D01*
X168136098Y-76796335D01*
X168136094Y-76796344D01*
X168074938Y-77024586D01*
X168074936Y-77024596D01*
X168054341Y-77259999D01*
X168054341Y-77260000D01*
X168074936Y-77495403D01*
X168074938Y-77495413D01*
X168136094Y-77723655D01*
X168136096Y-77723659D01*
X168136097Y-77723663D01*
X168219079Y-77901618D01*
X168235965Y-77937830D01*
X168235967Y-77937834D01*
X168325692Y-78065973D01*
X168371501Y-78131396D01*
X168371506Y-78131402D01*
X168538597Y-78298493D01*
X168538603Y-78298498D01*
X168724158Y-78428425D01*
X168767783Y-78483002D01*
X168774977Y-78552500D01*
X168743454Y-78614855D01*
X168724158Y-78631575D01*
X168538597Y-78761505D01*
X168371505Y-78928597D01*
X168235965Y-79122169D01*
X168235964Y-79122171D01*
X168136098Y-79336335D01*
X168136094Y-79336344D01*
X168074938Y-79564586D01*
X168074936Y-79564596D01*
X168054341Y-79799999D01*
X168054341Y-79800000D01*
X168074936Y-80035403D01*
X168074938Y-80035413D01*
X168136094Y-80263655D01*
X168136096Y-80263659D01*
X168136097Y-80263663D01*
X168198747Y-80398015D01*
X168235965Y-80477830D01*
X168235967Y-80477834D01*
X168344281Y-80632521D01*
X168371505Y-80671401D01*
X168538599Y-80838495D01*
X168635384Y-80906265D01*
X168732165Y-80974032D01*
X168732167Y-80974033D01*
X168732170Y-80974035D01*
X168946337Y-81073903D01*
X169174592Y-81135063D01*
X169351034Y-81150500D01*
X169409999Y-81155659D01*
X169410000Y-81155659D01*
X169410001Y-81155659D01*
X169468966Y-81150500D01*
X169645408Y-81135063D01*
X169873663Y-81073903D01*
X170087830Y-80974035D01*
X170281401Y-80838495D01*
X170448495Y-80671401D01*
X170584035Y-80477830D01*
X170683903Y-80263663D01*
X170745063Y-80035408D01*
X170765659Y-79800000D01*
X170745063Y-79564592D01*
X170683903Y-79336337D01*
X170584035Y-79122171D01*
X170481226Y-78975343D01*
X170448494Y-78928597D01*
X170281402Y-78761506D01*
X170281396Y-78761501D01*
X170095842Y-78631575D01*
X170052217Y-78576998D01*
X170045023Y-78507500D01*
X170076546Y-78445145D01*
X170095842Y-78428425D01*
X170123022Y-78409393D01*
X170281401Y-78298495D01*
X170448495Y-78131401D01*
X170584035Y-77937830D01*
X170683903Y-77723663D01*
X170745063Y-77495408D01*
X170765659Y-77260000D01*
X170745063Y-77024592D01*
X170683903Y-76796337D01*
X170584035Y-76582171D01*
X170553397Y-76538414D01*
X170448494Y-76388597D01*
X170281402Y-76221506D01*
X170281396Y-76221501D01*
X170095842Y-76091575D01*
X170052217Y-76036998D01*
X170045023Y-75967500D01*
X170076546Y-75905145D01*
X170095842Y-75888425D01*
X170118026Y-75872891D01*
X170281401Y-75758495D01*
X170448495Y-75591401D01*
X170584035Y-75397830D01*
X170683903Y-75183663D01*
X170745063Y-74955408D01*
X170765659Y-74720000D01*
X170745063Y-74484592D01*
X170683903Y-74256337D01*
X170584035Y-74042171D01*
X170581795Y-74038971D01*
X170448494Y-73848597D01*
X170281402Y-73681506D01*
X170281396Y-73681501D01*
X170095842Y-73551575D01*
X170052217Y-73496998D01*
X170045023Y-73427500D01*
X170076546Y-73365145D01*
X170095842Y-73348425D01*
X170118026Y-73332891D01*
X170281401Y-73218495D01*
X170448495Y-73051401D01*
X170584035Y-72857830D01*
X170683903Y-72643663D01*
X170745063Y-72415408D01*
X170765659Y-72180000D01*
X170745063Y-71944592D01*
X170683903Y-71716337D01*
X170584035Y-71502171D01*
X170497965Y-71379249D01*
X170448494Y-71308597D01*
X170281402Y-71141506D01*
X170281396Y-71141501D01*
X170095842Y-71011575D01*
X170052217Y-70956998D01*
X170045023Y-70887500D01*
X170076546Y-70825145D01*
X170095842Y-70808425D01*
X170169507Y-70756844D01*
X170281401Y-70678495D01*
X170448495Y-70511401D01*
X170584035Y-70317830D01*
X170683903Y-70103663D01*
X170745063Y-69875408D01*
X170765659Y-69640000D01*
X170745063Y-69404592D01*
X170683903Y-69176337D01*
X170584035Y-68962171D01*
X170558561Y-68925789D01*
X170448494Y-68768597D01*
X170281402Y-68601506D01*
X170281396Y-68601501D01*
X170095842Y-68471575D01*
X170052217Y-68416998D01*
X170045023Y-68347500D01*
X170076546Y-68285145D01*
X170095842Y-68268425D01*
X170118026Y-68252891D01*
X170281401Y-68138495D01*
X170448495Y-67971401D01*
X170584035Y-67777830D01*
X170683903Y-67563663D01*
X170745063Y-67335408D01*
X170765659Y-67100000D01*
X170745063Y-66864592D01*
X170683903Y-66636337D01*
X170584035Y-66422171D01*
X170496907Y-66297738D01*
X170448494Y-66228597D01*
X170281402Y-66061506D01*
X170281396Y-66061501D01*
X170095842Y-65931575D01*
X170052217Y-65876998D01*
X170045023Y-65807500D01*
X170076546Y-65745145D01*
X170095842Y-65728425D01*
X170221930Y-65640137D01*
X170281401Y-65598495D01*
X170448495Y-65431401D01*
X170584035Y-65237830D01*
X170683903Y-65023663D01*
X170745063Y-64795408D01*
X170765659Y-64560000D01*
X170745063Y-64324592D01*
X170683903Y-64096337D01*
X170584035Y-63882171D01*
X170448495Y-63688599D01*
X170448494Y-63688597D01*
X170281402Y-63521506D01*
X170281396Y-63521501D01*
X170095842Y-63391575D01*
X170052217Y-63336998D01*
X170045023Y-63267500D01*
X170076546Y-63205145D01*
X170095842Y-63188425D01*
X170177670Y-63131128D01*
X170281401Y-63058495D01*
X170448495Y-62891401D01*
X170584035Y-62697830D01*
X170683903Y-62483663D01*
X170745063Y-62255408D01*
X170765659Y-62020000D01*
X170745063Y-61784592D01*
X170683903Y-61556337D01*
X170584035Y-61342171D01*
X170448495Y-61148599D01*
X170448494Y-61148597D01*
X170281402Y-60981506D01*
X170281396Y-60981501D01*
X170095842Y-60851575D01*
X170052217Y-60796998D01*
X170045023Y-60727500D01*
X170076546Y-60665145D01*
X170095842Y-60648425D01*
X170204865Y-60572086D01*
X170281401Y-60518495D01*
X170448495Y-60351401D01*
X170584035Y-60157830D01*
X170683903Y-59943663D01*
X170745063Y-59715408D01*
X170765659Y-59480000D01*
X170745063Y-59244592D01*
X170683903Y-59016337D01*
X170584035Y-58802171D01*
X170580265Y-58796786D01*
X170448494Y-58608597D01*
X170281402Y-58441506D01*
X170281395Y-58441501D01*
X170087834Y-58305967D01*
X170087830Y-58305965D01*
X170016727Y-58272809D01*
X169873663Y-58206097D01*
X169873659Y-58206096D01*
X169873655Y-58206094D01*
X169645413Y-58144938D01*
X169645403Y-58144936D01*
X169410001Y-58124341D01*
X169409999Y-58124341D01*
X169174596Y-58144936D01*
X169174586Y-58144938D01*
X168946344Y-58206094D01*
X168946335Y-58206098D01*
X168732171Y-58305964D01*
X168732169Y-58305965D01*
X168538597Y-58441505D01*
X168371505Y-58608597D01*
X168235965Y-58802169D01*
X168235964Y-58802171D01*
X168136098Y-59016335D01*
X168136094Y-59016344D01*
X168074938Y-59244586D01*
X168074936Y-59244596D01*
X168054341Y-59479999D01*
X144510000Y-59479999D01*
X144510000Y-59414174D01*
X144475925Y-59287007D01*
X144443012Y-59230000D01*
X145360000Y-59230000D01*
X145360000Y-58582172D01*
X145359999Y-58582155D01*
X145353598Y-58522627D01*
X145353596Y-58522620D01*
X145303354Y-58387913D01*
X145303350Y-58387906D01*
X145217190Y-58272812D01*
X145217187Y-58272809D01*
X145102093Y-58186649D01*
X145102086Y-58186645D01*
X144967379Y-58136403D01*
X144967372Y-58136401D01*
X144907844Y-58130000D01*
X144260000Y-58130000D01*
X144260000Y-59046988D01*
X144202993Y-59014075D01*
X144075826Y-58980000D01*
X143944174Y-58980000D01*
X143817007Y-59014075D01*
X143760000Y-59046988D01*
X143760000Y-58130000D01*
X143112155Y-58130000D01*
X143052627Y-58136401D01*
X143052620Y-58136403D01*
X142917913Y-58186645D01*
X142917906Y-58186649D01*
X142802812Y-58272809D01*
X142802809Y-58272812D01*
X142716649Y-58387906D01*
X142716645Y-58387913D01*
X142666403Y-58522620D01*
X142666401Y-58522627D01*
X142660000Y-58582155D01*
X142660000Y-59230000D01*
X143576988Y-59230000D01*
X143544075Y-59287007D01*
X143510000Y-59414174D01*
X143510000Y-59545826D01*
X143544075Y-59672993D01*
X143576988Y-59730000D01*
X142660000Y-59730000D01*
X142660000Y-60377844D01*
X142666401Y-60437372D01*
X142666403Y-60437379D01*
X142716645Y-60572086D01*
X142716649Y-60572093D01*
X142802809Y-60687187D01*
X142802812Y-60687190D01*
X142917906Y-60773350D01*
X142917913Y-60773354D01*
X143049470Y-60822421D01*
X143105403Y-60864292D01*
X143129821Y-60929756D01*
X143114970Y-60998029D01*
X143093819Y-61026284D01*
X142971503Y-61148600D01*
X142835965Y-61342169D01*
X142835964Y-61342171D01*
X142736098Y-61556335D01*
X142736094Y-61556344D01*
X142674938Y-61784586D01*
X142674936Y-61784596D01*
X142654341Y-62019999D01*
X141970500Y-62019999D01*
X141970500Y-59484066D01*
X141970765Y-59475957D01*
X141974819Y-59414108D01*
X141987417Y-59221883D01*
X141989531Y-59205829D01*
X142038409Y-58960107D01*
X142042606Y-58944445D01*
X142089749Y-58805565D01*
X142123138Y-58707205D01*
X142129336Y-58692239D01*
X142240149Y-58467533D01*
X142248252Y-58453498D01*
X142387448Y-58245176D01*
X142397305Y-58232331D01*
X142562502Y-58043960D01*
X142573960Y-58032502D01*
X142762331Y-57867305D01*
X142775176Y-57857448D01*
X142983498Y-57718252D01*
X142997533Y-57710149D01*
X143222239Y-57599336D01*
X143237205Y-57593138D01*
X143404945Y-57536197D01*
X143474445Y-57512606D01*
X143490107Y-57508409D01*
X143735829Y-57459531D01*
X143751883Y-57457417D01*
X143984848Y-57442148D01*
X144005958Y-57440765D01*
X144014067Y-57440500D01*
X144075892Y-57440500D01*
X151781787Y-57440500D01*
X151848826Y-57460185D01*
G37*
%TD.AperFunction*%
%TD*%
M02*
