%TF.GenerationSoftware,KiCad,Pcbnew,8.0.4*%
%TF.CreationDate,2024-07-30T18:13:19-04:00*%
%TF.ProjectId,esp32-c3-wroom-socket,65737033-322d-4633-932d-77726f6f6d2d,rev?*%
%TF.SameCoordinates,Original*%
%TF.FileFunction,Soldermask,Bot*%
%TF.FilePolarity,Negative*%
%FSLAX46Y46*%
G04 Gerber Fmt 4.6, Leading zero omitted, Abs format (unit mm)*
G04 Created by KiCad (PCBNEW 8.0.4) date 2024-07-30 18:13:19*
%MOMM*%
%LPD*%
G01*
G04 APERTURE LIST*
G04 Aperture macros list*
%AMRoundRect*
0 Rectangle with rounded corners*
0 $1 Rounding radius*
0 $2 $3 $4 $5 $6 $7 $8 $9 X,Y pos of 4 corners*
0 Add a 4 corners polygon primitive as box body*
4,1,4,$2,$3,$4,$5,$6,$7,$8,$9,$2,$3,0*
0 Add four circle primitives for the rounded corners*
1,1,$1+$1,$2,$3*
1,1,$1+$1,$4,$5*
1,1,$1+$1,$6,$7*
1,1,$1+$1,$8,$9*
0 Add four rect primitives between the rounded corners*
20,1,$1+$1,$2,$3,$4,$5,0*
20,1,$1+$1,$4,$5,$6,$7,0*
20,1,$1+$1,$6,$7,$8,$9,0*
20,1,$1+$1,$8,$9,$2,$3,0*%
%AMOutline5P*
0 Free polygon, 5 corners , with rotation*
0 The origin of the aperture is its center*
0 number of corners: always 5*
0 $1 to $10 corner X, Y*
0 $11 Rotation angle, in degrees counterclockwise*
0 create outline with 5 corners*
4,1,5,$1,$2,$3,$4,$5,$6,$7,$8,$9,$10,$1,$2,$11*%
%AMOutline6P*
0 Free polygon, 6 corners , with rotation*
0 The origin of the aperture is its center*
0 number of corners: always 6*
0 $1 to $12 corner X, Y*
0 $13 Rotation angle, in degrees counterclockwise*
0 create outline with 6 corners*
4,1,6,$1,$2,$3,$4,$5,$6,$7,$8,$9,$10,$11,$12,$1,$2,$13*%
%AMOutline7P*
0 Free polygon, 7 corners , with rotation*
0 The origin of the aperture is its center*
0 number of corners: always 7*
0 $1 to $14 corner X, Y*
0 $15 Rotation angle, in degrees counterclockwise*
0 create outline with 7 corners*
4,1,7,$1,$2,$3,$4,$5,$6,$7,$8,$9,$10,$11,$12,$13,$14,$1,$2,$15*%
%AMOutline8P*
0 Free polygon, 8 corners , with rotation*
0 The origin of the aperture is its center*
0 number of corners: always 8*
0 $1 to $16 corner X, Y*
0 $17 Rotation angle, in degrees counterclockwise*
0 create outline with 8 corners*
4,1,8,$1,$2,$3,$4,$5,$6,$7,$8,$9,$10,$11,$12,$13,$14,$15,$16,$1,$2,$17*%
G04 Aperture macros list end*
%ADD10C,0.660400*%
%ADD11O,1.117600X1.905000*%
%ADD12O,1.117600X2.616200*%
%ADD13R,1.700000X1.700000*%
%ADD14C,1.700000*%
%ADD15Outline6P,-0.850000X0.340000X-0.340000X0.850000X0.850000X0.850000X0.850000X-0.340000X0.340000X-0.850000X-0.850000X-0.850000X0.000000*%
%ADD16RoundRect,0.375000X-0.625000X-0.375000X0.625000X-0.375000X0.625000X0.375000X-0.625000X0.375000X0*%
%ADD17RoundRect,0.500000X-0.500000X-1.400000X0.500000X-1.400000X0.500000X1.400000X-0.500000X1.400000X0*%
%ADD18RoundRect,0.250000X-0.625000X0.400000X-0.625000X-0.400000X0.625000X-0.400000X0.625000X0.400000X0*%
%ADD19RoundRect,0.250000X0.400000X0.625000X-0.400000X0.625000X-0.400000X-0.625000X0.400000X-0.625000X0*%
G04 APERTURE END LIST*
D10*
%TO.C,J1*%
X154150000Y-75200000D03*
X155000001Y-75200000D03*
X155849999Y-75200000D03*
X156700000Y-75200000D03*
X157550001Y-75200000D03*
X158400002Y-75200000D03*
X159250000Y-75200000D03*
X160100001Y-75200000D03*
X160100001Y-76550000D03*
X159250000Y-76550000D03*
X158400002Y-76550000D03*
X157550001Y-76550000D03*
X156700000Y-76550000D03*
X155849999Y-76550000D03*
X155000001Y-76550000D03*
X154150000Y-76550000D03*
D11*
X152800015Y-79565000D03*
X161449985Y-79565000D03*
D12*
X152800000Y-76180001D03*
X161449985Y-76180000D03*
%TD*%
D13*
%TO.C,J2*%
X144010000Y-59480000D03*
D14*
X144010000Y-62020000D03*
X144010000Y-64560000D03*
X144010000Y-67100000D03*
X144010000Y-69640000D03*
X144010000Y-72180000D03*
X144010000Y-74720000D03*
X144010000Y-77260000D03*
D15*
X144010000Y-79800000D03*
D14*
X169410000Y-79800000D03*
X169410000Y-77260000D03*
X169410000Y-74720000D03*
X169410000Y-72180000D03*
X169410000Y-69640000D03*
X169410000Y-67100000D03*
X169410000Y-64560000D03*
X169410000Y-62020000D03*
X169410000Y-59480000D03*
%TD*%
D16*
%TO.C,U2*%
X148550000Y-71100000D03*
X148550000Y-68800000D03*
D17*
X154850000Y-68800000D03*
D16*
X148550000Y-66500000D03*
%TD*%
D18*
%TO.C,R2*%
X165000000Y-74950000D03*
X165000000Y-78050000D03*
%TD*%
D19*
%TO.C,R3*%
X162750000Y-69500000D03*
X159650000Y-69500000D03*
%TD*%
D18*
%TO.C,R4*%
X149000000Y-75250000D03*
X149000000Y-78350000D03*
%TD*%
M02*
