%TF.GenerationSoftware,KiCad,Pcbnew,8.0.7*%
%TF.CreationDate,2025-01-07T23:02:54-05:00*%
%TF.ProjectId,Class AB Stereo Amp SMD,436c6173-7320-4414-9220-53746572656f,rev?*%
%TF.SameCoordinates,Original*%
%TF.FileFunction,Soldermask,Top*%
%TF.FilePolarity,Negative*%
%FSLAX46Y46*%
G04 Gerber Fmt 4.6, Leading zero omitted, Abs format (unit mm)*
G04 Created by KiCad (PCBNEW 8.0.7) date 2025-01-07 23:02:54*
%MOMM*%
%LPD*%
G01*
G04 APERTURE LIST*
G04 Aperture macros list*
%AMRoundRect*
0 Rectangle with rounded corners*
0 $1 Rounding radius*
0 $2 $3 $4 $5 $6 $7 $8 $9 X,Y pos of 4 corners*
0 Add a 4 corners polygon primitive as box body*
4,1,4,$2,$3,$4,$5,$6,$7,$8,$9,$2,$3,0*
0 Add four circle primitives for the rounded corners*
1,1,$1+$1,$2,$3*
1,1,$1+$1,$4,$5*
1,1,$1+$1,$6,$7*
1,1,$1+$1,$8,$9*
0 Add four rect primitives between the rounded corners*
20,1,$1+$1,$2,$3,$4,$5,0*
20,1,$1+$1,$4,$5,$6,$7,0*
20,1,$1+$1,$6,$7,$8,$9,0*
20,1,$1+$1,$8,$9,$2,$3,0*%
G04 Aperture macros list end*
%ADD10R,2.600000X2.600000*%
%ADD11C,2.600000*%
%ADD12C,2.000000*%
%ADD13RoundRect,0.250000X-1.412500X-0.550000X1.412500X-0.550000X1.412500X0.550000X-1.412500X0.550000X0*%
%ADD14RoundRect,0.250000X-0.625000X0.400000X-0.625000X-0.400000X0.625000X-0.400000X0.625000X0.400000X0*%
%ADD15RoundRect,0.250000X-0.412500X-0.650000X0.412500X-0.650000X0.412500X0.650000X-0.412500X0.650000X0*%
%ADD16RoundRect,0.249999X0.450001X1.425001X-0.450001X1.425001X-0.450001X-1.425001X0.450001X-1.425001X0*%
%ADD17RoundRect,0.225000X0.225000X0.375000X-0.225000X0.375000X-0.225000X-0.375000X0.225000X-0.375000X0*%
%ADD18R,1.980000X3.960000*%
%ADD19O,1.980000X3.960000*%
%ADD20R,1.850000X13.700000*%
%ADD21RoundRect,0.250000X0.550000X-1.250000X0.550000X1.250000X-0.550000X1.250000X-0.550000X-1.250000X0*%
%ADD22C,1.200000*%
%ADD23O,2.200000X1.200000*%
%ADD24O,1.200000X2.200000*%
%ADD25RoundRect,0.250000X-0.400000X-0.625000X0.400000X-0.625000X0.400000X0.625000X-0.400000X0.625000X0*%
%ADD26RoundRect,0.150000X0.150000X-0.825000X0.150000X0.825000X-0.150000X0.825000X-0.150000X-0.825000X0*%
%ADD27RoundRect,0.250000X-0.300000X2.050000X-0.300000X-2.050000X0.300000X-2.050000X0.300000X2.050000X0*%
%ADD28RoundRect,0.250002X-5.149998X4.449998X-5.149998X-4.449998X5.149998X-4.449998X5.149998X4.449998X0*%
%ADD29RoundRect,0.250000X0.400000X0.625000X-0.400000X0.625000X-0.400000X-0.625000X0.400000X-0.625000X0*%
%ADD30C,3.200000*%
%ADD31C,1.700000*%
%ADD32R,3.960000X1.980000*%
%ADD33O,3.960000X1.980000*%
%ADD34RoundRect,0.150000X-0.825000X-0.150000X0.825000X-0.150000X0.825000X0.150000X-0.825000X0.150000X0*%
%ADD35RoundRect,0.249999X-0.450001X-1.425001X0.450001X-1.425001X0.450001X1.425001X-0.450001X1.425001X0*%
%ADD36RoundRect,0.250000X0.625000X-0.400000X0.625000X0.400000X-0.625000X0.400000X-0.625000X-0.400000X0*%
%ADD37RoundRect,0.250000X0.650000X-0.412500X0.650000X0.412500X-0.650000X0.412500X-0.650000X-0.412500X0*%
%ADD38RoundRect,0.250000X0.412500X0.650000X-0.412500X0.650000X-0.412500X-0.650000X0.412500X-0.650000X0*%
%ADD39RoundRect,0.249998X-4.550002X3.650002X-4.550002X-3.650002X4.550002X-3.650002X4.550002X3.650002X0*%
%ADD40RoundRect,0.249998X3.650002X4.550002X-3.650002X4.550002X-3.650002X-4.550002X3.650002X-4.550002X0*%
%ADD41RoundRect,0.250000X-0.650000X0.412500X-0.650000X-0.412500X0.650000X-0.412500X0.650000X0.412500X0*%
%ADD42RoundRect,0.250001X0.624999X-0.462499X0.624999X0.462499X-0.624999X0.462499X-0.624999X-0.462499X0*%
%ADD43RoundRect,0.225000X-0.225000X-0.375000X0.225000X-0.375000X0.225000X0.375000X-0.225000X0.375000X0*%
%ADD44O,3.200000X1.700000*%
%ADD45C,2.200000*%
%ADD46RoundRect,0.250000X0.300000X-2.050000X0.300000X2.050000X-0.300000X2.050000X-0.300000X-2.050000X0*%
%ADD47RoundRect,0.250002X5.149998X-4.449998X5.149998X4.449998X-5.149998X4.449998X-5.149998X-4.449998X0*%
%ADD48RoundRect,0.250000X0.850000X0.350000X-0.850000X0.350000X-0.850000X-0.350000X0.850000X-0.350000X0*%
%ADD49RoundRect,0.249997X2.950003X2.650003X-2.950003X2.650003X-2.950003X-2.650003X2.950003X-2.650003X0*%
%ADD50RoundRect,0.249998X4.550002X-3.650002X4.550002X3.650002X-4.550002X3.650002X-4.550002X-3.650002X0*%
G04 APERTURE END LIST*
D10*
%TO.C,J2*%
X117500000Y-64500000D03*
D11*
X117500000Y-58500000D03*
X112800000Y-61500000D03*
%TD*%
D12*
%TO.C,TP6*%
X130600000Y-135700000D03*
%TD*%
D13*
%TO.C,C9*%
X140925000Y-69500000D03*
X146000000Y-69500000D03*
%TD*%
D12*
%TO.C,TP4*%
X106250000Y-139000000D03*
%TD*%
%TO.C,TP9*%
X143400000Y-113600000D03*
%TD*%
D14*
%TO.C,R20*%
X171800000Y-122200000D03*
X171800000Y-125300000D03*
%TD*%
D15*
%TO.C,C4*%
X117625000Y-113500000D03*
X120750000Y-113500000D03*
%TD*%
D14*
%TO.C,R11*%
X133000000Y-109650000D03*
X133000000Y-112750000D03*
%TD*%
D16*
%TO.C,R18*%
X186300000Y-55500000D03*
X180200000Y-55500000D03*
%TD*%
D12*
%TO.C,TP8*%
X143400000Y-86500000D03*
%TD*%
D14*
%TO.C,R13*%
X130750000Y-127950000D03*
X130750000Y-131050000D03*
%TD*%
D12*
%TO.C,RV1*%
X131000000Y-141250000D03*
X128500000Y-141250000D03*
X126000000Y-141250000D03*
X131000000Y-143750000D03*
X128500000Y-143750000D03*
X126000000Y-143750000D03*
%TD*%
D17*
%TO.C,D2*%
X167450000Y-74000000D03*
X164150000Y-74000000D03*
%TD*%
D18*
%TO.C,J1*%
X132765000Y-57000000D03*
D19*
X127765000Y-57000000D03*
%TD*%
D20*
%TO.C,HS3*%
X155110000Y-58800000D03*
X168950000Y-58800000D03*
%TD*%
D21*
%TO.C,C2*%
X140000000Y-59000000D03*
X140000000Y-54600000D03*
%TD*%
D20*
%TO.C,HS4*%
X155000000Y-140850000D03*
X168840000Y-140850000D03*
%TD*%
D22*
%TO.C,J3*%
X107000000Y-104850000D03*
X104500000Y-104850000D03*
X112000000Y-109850000D03*
X107000000Y-114850000D03*
X104500000Y-114850000D03*
D23*
X112000000Y-104850000D03*
D24*
X107000000Y-109850000D03*
D23*
X112000000Y-114850000D03*
%TD*%
D25*
%TO.C,R10*%
X117650000Y-128000000D03*
X120750000Y-128000000D03*
%TD*%
D26*
%TO.C,U3*%
X141260000Y-144700000D03*
X142530000Y-144700000D03*
X143800000Y-144700000D03*
X145070000Y-144700000D03*
X145070000Y-139750000D03*
X143800000Y-139750000D03*
X142530000Y-139750000D03*
X141260000Y-139750000D03*
%TD*%
D27*
%TO.C,Q2*%
X164580000Y-82250000D03*
D28*
X162040000Y-91400000D03*
D27*
X159500000Y-82250000D03*
%TD*%
D13*
%TO.C,C12*%
X141325000Y-130500000D03*
X146400000Y-130500000D03*
%TD*%
D17*
%TO.C,D1*%
X160200000Y-74000000D03*
X156900000Y-74000000D03*
%TD*%
D29*
%TO.C,R1*%
X117550000Y-81000000D03*
X114450000Y-81000000D03*
%TD*%
D30*
%TO.C,H2*%
X195000000Y-55000000D03*
%TD*%
D25*
%TO.C,R5*%
X116200000Y-137750000D03*
X119300000Y-137750000D03*
%TD*%
D12*
%TO.C,SW1*%
X108582500Y-67042500D03*
X102582500Y-67042500D03*
X108582500Y-79042500D03*
X102582500Y-79042500D03*
D31*
X106832500Y-69042500D03*
X106832500Y-73042500D03*
X106832500Y-77042500D03*
%TD*%
D14*
%TO.C,R8*%
X123250000Y-105750000D03*
X123250000Y-108850000D03*
%TD*%
D32*
%TO.C,J4*%
X193250000Y-92500000D03*
D33*
X193250000Y-97500000D03*
X193250000Y-102500000D03*
X193250000Y-107500000D03*
%TD*%
D34*
%TO.C,U1*%
X115275000Y-140845000D03*
X115275000Y-142115000D03*
X115275000Y-143385000D03*
X115275000Y-144655000D03*
X120225000Y-144655000D03*
X120225000Y-143385000D03*
X120225000Y-142115000D03*
X120225000Y-140845000D03*
%TD*%
D30*
%TO.C,H1*%
X105000000Y-55000000D03*
%TD*%
D35*
%TO.C,R21*%
X181400000Y-140250000D03*
X187500000Y-140250000D03*
%TD*%
D36*
%TO.C,R2*%
X103750000Y-63100000D03*
X103750000Y-60000000D03*
%TD*%
D12*
%TO.C,TP10*%
X182000000Y-88600000D03*
%TD*%
%TO.C,TP11*%
X182200000Y-112200000D03*
%TD*%
D27*
%TO.C,Q3*%
X164415000Y-133000000D03*
D28*
X161875000Y-142150000D03*
D27*
X159335000Y-133000000D03*
%TD*%
D37*
%TO.C,C16*%
X129250000Y-112625000D03*
X129250000Y-109500000D03*
%TD*%
D36*
%TO.C,R15*%
X151850000Y-77550000D03*
X151850000Y-74450000D03*
%TD*%
D13*
%TO.C,C11*%
X141175000Y-121000000D03*
X146250000Y-121000000D03*
%TD*%
D14*
%TO.C,R14*%
X133500000Y-119450000D03*
X133500000Y-122550000D03*
%TD*%
D29*
%TO.C,R12*%
X136300000Y-116000000D03*
X133200000Y-116000000D03*
%TD*%
D38*
%TO.C,C7*%
X120750000Y-123000000D03*
X117625000Y-123000000D03*
%TD*%
D39*
%TO.C,C10*%
X190500000Y-69750000D03*
X190500000Y-82250000D03*
%TD*%
D36*
%TO.C,R7*%
X119200000Y-108800000D03*
X119200000Y-105700000D03*
%TD*%
D38*
%TO.C,C5*%
X120750000Y-118250000D03*
X117625000Y-118250000D03*
%TD*%
D17*
%TO.C,D3*%
X159750000Y-125000000D03*
X156450000Y-125000000D03*
%TD*%
D30*
%TO.C,H3*%
X105000000Y-145000000D03*
%TD*%
D17*
%TO.C,D4*%
X167150000Y-125000000D03*
X163850000Y-125000000D03*
%TD*%
D40*
%TO.C,C1*%
X117500000Y-92000000D03*
X105000000Y-92000000D03*
%TD*%
D41*
%TO.C,C14*%
X137500000Y-139937500D03*
X137500000Y-143062500D03*
%TD*%
D35*
%TO.C,R17*%
X180250000Y-61000000D03*
X186350000Y-61000000D03*
%TD*%
D38*
%TO.C,C6*%
X132125000Y-105750000D03*
X129000000Y-105750000D03*
%TD*%
D42*
%TO.C,D6*%
X108000000Y-62975000D03*
X108000000Y-60000000D03*
%TD*%
D12*
%TO.C,TP5*%
X122750000Y-135500000D03*
%TD*%
D13*
%TO.C,C8*%
X140925000Y-78750000D03*
X146000000Y-78750000D03*
%TD*%
D14*
%TO.C,R9*%
X125000000Y-127950000D03*
X125000000Y-131050000D03*
%TD*%
%TO.C,R19*%
X151200000Y-121950000D03*
X151200000Y-125050000D03*
%TD*%
D38*
%TO.C,C15*%
X120750000Y-132500000D03*
X117625000Y-132500000D03*
%TD*%
D43*
%TO.C,D5*%
X114200000Y-78000000D03*
X117500000Y-78000000D03*
%TD*%
D12*
%TO.C,TP1*%
X178000000Y-80000000D03*
%TD*%
%TO.C,TP7*%
X135700000Y-147400000D03*
%TD*%
D16*
%TO.C,R22*%
X187500000Y-145140000D03*
X181400000Y-145140000D03*
%TD*%
D14*
%TO.C,R4*%
X110750000Y-144500000D03*
X110750000Y-147600000D03*
%TD*%
D44*
%TO.C,J6*%
X108317500Y-134000000D03*
X108317500Y-119500000D03*
D45*
X112317500Y-122750000D03*
X111067500Y-130750000D03*
X107817500Y-126750000D03*
%TD*%
D30*
%TO.C,H4*%
X195000000Y-145000000D03*
%TD*%
D34*
%TO.C,U2*%
X124775000Y-116345000D03*
X124775000Y-117615000D03*
X124775000Y-118885000D03*
X124775000Y-120155000D03*
X129725000Y-120155000D03*
X129725000Y-118885000D03*
X129725000Y-117615000D03*
X129725000Y-116345000D03*
%TD*%
D20*
%TO.C,HS1*%
X155110000Y-90150000D03*
X168950000Y-90150000D03*
%TD*%
D12*
%TO.C,TP2*%
X178000000Y-73500000D03*
%TD*%
D20*
%TO.C,HS2*%
X155055000Y-110500000D03*
X168895000Y-110500000D03*
%TD*%
D36*
%TO.C,R16*%
X170800000Y-74000000D03*
X170800000Y-70900000D03*
%TD*%
%TO.C,R6*%
X110750000Y-141500000D03*
X110750000Y-138400000D03*
%TD*%
D12*
%TO.C,TP3*%
X102250000Y-139000000D03*
%TD*%
D46*
%TO.C,Q1*%
X159485000Y-66725000D03*
D47*
X162025000Y-57575000D03*
D46*
X164565000Y-66725000D03*
%TD*%
D25*
%TO.C,R3*%
X116250000Y-148250000D03*
X119350000Y-148250000D03*
%TD*%
D46*
%TO.C,Q4*%
X159435000Y-117725000D03*
D47*
X161975000Y-108575000D03*
D46*
X164515000Y-117725000D03*
%TD*%
D37*
%TO.C,C3*%
X146000000Y-58500000D03*
X146000000Y-55375000D03*
%TD*%
D48*
%TO.C,Q5*%
X123275000Y-73805000D03*
D49*
X116975000Y-71525000D03*
D48*
X123275000Y-69245000D03*
%TD*%
D50*
%TO.C,C13*%
X190750000Y-130500000D03*
X190750000Y-118000000D03*
%TD*%
M02*
