%TF.GenerationSoftware,KiCad,Pcbnew,8.0.7*%
%TF.CreationDate,2025-01-07T23:02:54-05:00*%
%TF.ProjectId,Class AB Stereo Amp SMD,436c6173-7320-4414-9220-53746572656f,rev?*%
%TF.SameCoordinates,Original*%
%TF.FileFunction,Copper,L2,Bot*%
%TF.FilePolarity,Positive*%
%FSLAX46Y46*%
G04 Gerber Fmt 4.6, Leading zero omitted, Abs format (unit mm)*
G04 Created by KiCad (PCBNEW 8.0.7) date 2025-01-07 23:02:54*
%MOMM*%
%LPD*%
G01*
G04 APERTURE LIST*
%TA.AperFunction,ComponentPad*%
%ADD10R,2.600000X2.600000*%
%TD*%
%TA.AperFunction,ComponentPad*%
%ADD11C,2.600000*%
%TD*%
%TA.AperFunction,ComponentPad*%
%ADD12C,2.000000*%
%TD*%
%TA.AperFunction,ComponentPad*%
%ADD13R,1.980000X3.960000*%
%TD*%
%TA.AperFunction,ComponentPad*%
%ADD14O,1.980000X3.960000*%
%TD*%
%TA.AperFunction,ComponentPad*%
%ADD15O,2.200000X1.200000*%
%TD*%
%TA.AperFunction,ComponentPad*%
%ADD16O,1.200000X2.200000*%
%TD*%
%TA.AperFunction,ComponentPad*%
%ADD17C,1.700000*%
%TD*%
%TA.AperFunction,ComponentPad*%
%ADD18R,3.960000X1.980000*%
%TD*%
%TA.AperFunction,ComponentPad*%
%ADD19O,3.960000X1.980000*%
%TD*%
%TA.AperFunction,ComponentPad*%
%ADD20C,2.200000*%
%TD*%
%TA.AperFunction,ViaPad*%
%ADD21C,0.762000*%
%TD*%
%TA.AperFunction,Conductor*%
%ADD22C,0.304800*%
%TD*%
G04 APERTURE END LIST*
D10*
%TO.P,J2,1*%
%TO.N,/VIN1*%
X117500000Y-64500000D03*
D11*
%TO.P,J2,2*%
%TO.N,GND*%
X117500000Y-58500000D03*
%TO.P,J2,3*%
X112800000Y-61500000D03*
%TD*%
D12*
%TO.P,TP6,1,1*%
%TO.N,RIN1*%
X130600000Y-135700000D03*
%TD*%
%TO.P,TP4,1,1*%
%TO.N,LIN0*%
X106250000Y-139000000D03*
%TD*%
%TO.P,TP9,1,1*%
%TO.N,LIN2*%
X143400000Y-113600000D03*
%TD*%
%TO.P,TP8,1,1*%
%TO.N,RIN2*%
X143400000Y-86500000D03*
%TD*%
%TO.P,RV1,1,1*%
%TO.N,RIN1*%
X131000000Y-141250000D03*
%TO.P,RV1,2,2*%
%TO.N,Net-(U3A-+)*%
X128500000Y-141250000D03*
%TO.P,RV1,3,3*%
%TO.N,VCC_DIV_2*%
X126000000Y-141250000D03*
%TO.P,RV1,4,4*%
%TO.N,LIN1*%
X131000000Y-143750000D03*
%TO.P,RV1,5,5*%
%TO.N,Net-(U3B-+)*%
X128500000Y-143750000D03*
%TO.P,RV1,6,6*%
%TO.N,VCC_DIV_2*%
X126000000Y-143750000D03*
%TD*%
D13*
%TO.P,J1,1,Pin_1*%
%TO.N,GND*%
X132765000Y-57000000D03*
D14*
%TO.P,J1,2,Pin_2*%
%TO.N,/VIN1*%
X127765000Y-57000000D03*
%TD*%
D15*
%TO.P,J3,R*%
%TO.N,RIN0*%
X112000000Y-104850000D03*
D16*
%TO.P,J3,S*%
%TO.N,GND*%
X107000000Y-109850000D03*
D15*
%TO.P,J3,T*%
%TO.N,LIN0*%
X112000000Y-114850000D03*
%TD*%
D12*
%TO.P,SW1,*%
%TO.N,*%
X108582500Y-67042500D03*
X102582500Y-67042500D03*
X108582500Y-79042500D03*
X102582500Y-79042500D03*
D17*
%TO.P,SW1,1,A*%
%TO.N,unconnected-(SW1-A-Pad1)*%
X106832500Y-69042500D03*
%TO.P,SW1,2,B*%
%TO.N,/VIN1*%
X106832500Y-73042500D03*
%TO.P,SW1,3,C*%
%TO.N,/VIN2*%
X106832500Y-77042500D03*
%TD*%
D18*
%TO.P,J4,1,Pin_1*%
%TO.N,ROUT*%
X193250000Y-92500000D03*
D19*
%TO.P,J4,2,Pin_2*%
%TO.N,GND*%
X193250000Y-97500000D03*
%TO.P,J4,3,Pin_3*%
X193250000Y-102500000D03*
%TO.P,J4,4,Pin_4*%
%TO.N,LOUT*%
X193250000Y-107500000D03*
%TD*%
D12*
%TO.P,TP10,1,1*%
%TO.N,ROUT*%
X182000000Y-88600000D03*
%TD*%
%TO.P,TP11,1,1*%
%TO.N,LOUT*%
X182200000Y-112200000D03*
%TD*%
%TO.P,TP5,1,1*%
%TO.N,VCC_DIV_2*%
X122750000Y-135500000D03*
%TD*%
%TO.P,TP1,1,1*%
%TO.N,VCC*%
X178000000Y-80000000D03*
%TD*%
%TO.P,TP7,1,1*%
%TO.N,LIN1*%
X135700000Y-147400000D03*
%TD*%
D20*
%TO.P,J6,1,IN1*%
%TO.N,RIN0*%
X112317500Y-122750000D03*
%TO.P,J6,2,IN2*%
%TO.N,LIN0*%
X111067500Y-130750000D03*
%TO.P,J6,3,EXT*%
%TO.N,GND*%
X107817500Y-126750000D03*
%TD*%
D12*
%TO.P,TP2,1,1*%
%TO.N,GND*%
X178000000Y-73500000D03*
%TD*%
%TO.P,TP3,1,1*%
%TO.N,RIN0*%
X102250000Y-139000000D03*
%TD*%
D21*
%TO.N,GND*%
X168840000Y-140800000D03*
X125500000Y-124000000D03*
X165000000Y-51000000D03*
X150000000Y-72500000D03*
X135000000Y-87500000D03*
X119300000Y-115775000D03*
X130000000Y-55000000D03*
X132000000Y-124500000D03*
X158000000Y-51000000D03*
X128500000Y-103000000D03*
X157400000Y-148200000D03*
X144000000Y-142000000D03*
X116500000Y-120500000D03*
X197500000Y-117500000D03*
X168800000Y-58800000D03*
X177000000Y-59000000D03*
X123500000Y-124000000D03*
X122000000Y-121000000D03*
X134000000Y-124500000D03*
X142500000Y-97500000D03*
X134000000Y-127500000D03*
X128500000Y-127500000D03*
X137500000Y-97500000D03*
X152500000Y-60000000D03*
X146500000Y-143000000D03*
X107500000Y-122500000D03*
X190000000Y-55000000D03*
X107500000Y-107500000D03*
X177000000Y-51000000D03*
X140000000Y-65000000D03*
X197500000Y-72500000D03*
X155000000Y-127500000D03*
X102500000Y-55000000D03*
X162500000Y-148100000D03*
X125500000Y-126000000D03*
X132500000Y-145500000D03*
X192500000Y-60000000D03*
X127500000Y-82500000D03*
X135000000Y-77500000D03*
X122500000Y-100000000D03*
X135500000Y-103000000D03*
X150000000Y-140000000D03*
X122000000Y-138250000D03*
X115000000Y-55000000D03*
X132000000Y-103000000D03*
X159055000Y-138375000D03*
X161830000Y-140800000D03*
X115000000Y-60000000D03*
X164800000Y-60000000D03*
X130000000Y-72500000D03*
X150000000Y-65000000D03*
X190000000Y-142500000D03*
X120000000Y-60000000D03*
X102500000Y-107500000D03*
X162000000Y-64000000D03*
X144500000Y-137500000D03*
X142500000Y-55000000D03*
X125000000Y-55000000D03*
X120000000Y-55000000D03*
X102500000Y-127500000D03*
X193000000Y-51000000D03*
X181000000Y-51000000D03*
X107500000Y-82500000D03*
X197500000Y-95000000D03*
X130000000Y-77500000D03*
X150000000Y-60000000D03*
X135000000Y-92500000D03*
X140500000Y-137500000D03*
X155000000Y-72500000D03*
X197500000Y-65000000D03*
X150000000Y-127500000D03*
X185000000Y-65000000D03*
X197500000Y-87500000D03*
X112500000Y-100000000D03*
X197500000Y-122500000D03*
X155000000Y-140800000D03*
X112500000Y-107500000D03*
X187000000Y-51000000D03*
X145500000Y-147500000D03*
X135000000Y-65000000D03*
X197500000Y-100000000D03*
X128250000Y-107600000D03*
X190000000Y-147500000D03*
X180000000Y-65000000D03*
X136500000Y-111000000D03*
X142500000Y-92500000D03*
X150000000Y-51000000D03*
X172500000Y-147500000D03*
X190000000Y-95000000D03*
X130000000Y-97500000D03*
X172500000Y-127500000D03*
X102500000Y-122500000D03*
X180000000Y-135000000D03*
X127500000Y-87500000D03*
X138000000Y-148000000D03*
X139500000Y-144000000D03*
X172000000Y-51000000D03*
X107750000Y-148250000D03*
X197500000Y-105000000D03*
X135000000Y-72500000D03*
X180000000Y-130000000D03*
X173800000Y-136000000D03*
X145000000Y-82500000D03*
X102500000Y-82500000D03*
X102500000Y-132500000D03*
X102500000Y-100000000D03*
X131500000Y-121000000D03*
X120225000Y-110875000D03*
X145000000Y-65000000D03*
X135000000Y-82500000D03*
X197500000Y-137500000D03*
X197500000Y-112500000D03*
X197500000Y-77500000D03*
X197500000Y-132500000D03*
X131075000Y-111150000D03*
X174000000Y-60000000D03*
X107750000Y-141500000D03*
X150000000Y-145000000D03*
X162025000Y-57575000D03*
X172000000Y-55000000D03*
X162000000Y-131700000D03*
X150000000Y-135000000D03*
X125000000Y-60000000D03*
X182500000Y-60000000D03*
X130000000Y-60000000D03*
X121500000Y-125000000D03*
X190000000Y-100000000D03*
X197500000Y-127500000D03*
X172500000Y-142500000D03*
X180000000Y-125000000D03*
X155200000Y-58800000D03*
X142500000Y-105000000D03*
X164605000Y-138375000D03*
X123000000Y-126500000D03*
X105000000Y-65000000D03*
X182500000Y-72500000D03*
X116500000Y-125500000D03*
X125800000Y-66400000D03*
X159250000Y-60000000D03*
X124750000Y-146500000D03*
X142500000Y-110000000D03*
X190000000Y-105000000D03*
X142500000Y-72500000D03*
X197500000Y-60000000D03*
X197500000Y-142500000D03*
X102500000Y-72500000D03*
X150000000Y-55000000D03*
X134650000Y-107075000D03*
%TO.N,VCC*%
X148700000Y-98700000D03*
X149600000Y-107500000D03*
X155200000Y-90150000D03*
X180000000Y-120000000D03*
X155000000Y-110500000D03*
X148800000Y-103200000D03*
X152500000Y-110500000D03*
X150000000Y-85000000D03*
X150600000Y-109400000D03*
X149800000Y-95000000D03*
X175000000Y-115000000D03*
X180000000Y-95000000D03*
X155000000Y-100000000D03*
X150000000Y-120000000D03*
X175000000Y-105000000D03*
X175000000Y-80000000D03*
X180000000Y-105000000D03*
X159265000Y-88975000D03*
X182500000Y-77500000D03*
X180000000Y-110000000D03*
X134000000Y-131000000D03*
X166250000Y-121500000D03*
X170000000Y-100000000D03*
X180000000Y-100000000D03*
X170000000Y-80000000D03*
X150000000Y-115000000D03*
X147800000Y-102200000D03*
X172500000Y-82500000D03*
X152500000Y-90150000D03*
X161250000Y-121250000D03*
X165000000Y-100000000D03*
X150000000Y-80000000D03*
X161975000Y-108575000D03*
X169000000Y-90200000D03*
X175000000Y-95000000D03*
X152500000Y-82500000D03*
X149600000Y-105000000D03*
X136900000Y-131000000D03*
X180000000Y-115000000D03*
X169000000Y-110600000D03*
X162040000Y-91400000D03*
X149700000Y-97500000D03*
X180000000Y-85000000D03*
X159185000Y-112775000D03*
X162000000Y-93600000D03*
X149800000Y-92500000D03*
X175000000Y-110000000D03*
X175000000Y-85000000D03*
X155000000Y-80000000D03*
X164735000Y-112775000D03*
X155000000Y-120000000D03*
X160000000Y-100000000D03*
X150000000Y-100000000D03*
X150700000Y-90700000D03*
X175000000Y-100000000D03*
X175000000Y-90000000D03*
X164815000Y-88975000D03*
X180000000Y-90000000D03*
X162000000Y-110350000D03*
%TO.N,RIN2*%
X140500000Y-142300000D03*
%TO.N,Net-(D4-K)*%
X168800000Y-130700000D03*
X169500000Y-124300000D03*
%TO.N,RIN1*%
X126800000Y-121100000D03*
%TO.N,Net-(U2B--)*%
X128000000Y-114900000D03*
X130700000Y-114600000D03*
%TO.N,Net-(U3A-+)*%
X139100000Y-146400000D03*
X134000000Y-140900000D03*
%TO.N,VCC_DIV_2*%
X114400000Y-139100000D03*
%TD*%
D22*
%TO.N,VCC*%
X136900000Y-131000000D02*
X134000000Y-131000000D01*
%TO.N,RIN2*%
X140500000Y-142300000D02*
X139400000Y-141200000D01*
X140800000Y-86500000D02*
X143400000Y-86500000D01*
X139400000Y-141200000D02*
X139400000Y-87900000D01*
X139400000Y-87900000D02*
X140800000Y-86500000D01*
%TO.N,Net-(D4-K)*%
X169500000Y-124300000D02*
X169500000Y-130000000D01*
X169500000Y-130000000D02*
X168800000Y-130700000D01*
%TO.N,RIN1*%
X130600000Y-133800000D02*
X126800000Y-130000000D01*
X126800000Y-130000000D02*
X126800000Y-121100000D01*
X130600000Y-135700000D02*
X130600000Y-133800000D01*
%TO.N,Net-(U2B--)*%
X130700000Y-114600000D02*
X128300000Y-114600000D01*
X128300000Y-114600000D02*
X128000000Y-114900000D01*
%TO.N,Net-(U3A-+)*%
X135800000Y-145600000D02*
X136800000Y-145600000D01*
X134000000Y-140900000D02*
X134000000Y-143800000D01*
X134000000Y-143800000D02*
X135500000Y-145300000D01*
X135500000Y-145300000D02*
X135800000Y-145600000D01*
X136800000Y-145600000D02*
X138300000Y-145600000D01*
X138300000Y-145600000D02*
X139100000Y-146400000D01*
%TO.N,VCC_DIV_2*%
X114700000Y-136100000D02*
X114400000Y-136400000D01*
X115300000Y-135500000D02*
X114700000Y-136100000D01*
X122750000Y-135500000D02*
X115300000Y-135500000D01*
X114400000Y-136400000D02*
X114400000Y-139100000D01*
%TD*%
%TA.AperFunction,Conductor*%
%TO.N,VCC*%
G36*
X182937539Y-76525185D02*
G01*
X182983294Y-76577989D01*
X182994500Y-76629500D01*
X182994500Y-87223962D01*
X182974815Y-87291001D01*
X182922011Y-87336756D01*
X182852853Y-87346700D01*
X182811483Y-87333017D01*
X182604816Y-87221175D01*
X182604813Y-87221174D01*
X182604810Y-87221172D01*
X182604804Y-87221170D01*
X182604802Y-87221169D01*
X182369616Y-87140429D01*
X182124335Y-87099500D01*
X181875665Y-87099500D01*
X181630383Y-87140429D01*
X181395197Y-87221169D01*
X181395188Y-87221172D01*
X181176493Y-87339524D01*
X181011609Y-87467859D01*
X180980256Y-87492262D01*
X180969452Y-87503997D01*
X180811833Y-87675217D01*
X180675826Y-87883393D01*
X180575936Y-88111118D01*
X180514892Y-88352175D01*
X180514890Y-88352187D01*
X180494357Y-88599994D01*
X180494357Y-88600005D01*
X180514890Y-88847812D01*
X180514892Y-88847824D01*
X180575936Y-89088881D01*
X180675826Y-89316606D01*
X180811833Y-89524782D01*
X180811836Y-89524785D01*
X180980256Y-89707738D01*
X181176491Y-89860474D01*
X181395190Y-89978828D01*
X181630386Y-90059571D01*
X181875665Y-90100500D01*
X182124335Y-90100500D01*
X182369614Y-90059571D01*
X182604810Y-89978828D01*
X182811484Y-89866981D01*
X182879811Y-89852387D01*
X182945183Y-89877050D01*
X182986844Y-89933140D01*
X182994500Y-89976037D01*
X182994500Y-110715727D01*
X182974815Y-110782766D01*
X182922011Y-110828521D01*
X182852853Y-110838465D01*
X182811490Y-110824786D01*
X182804817Y-110821175D01*
X182804811Y-110821172D01*
X182804810Y-110821172D01*
X182804806Y-110821170D01*
X182804802Y-110821169D01*
X182569616Y-110740429D01*
X182324335Y-110699500D01*
X182075665Y-110699500D01*
X181830383Y-110740429D01*
X181595197Y-110821169D01*
X181595188Y-110821172D01*
X181376493Y-110939524D01*
X181180257Y-111092261D01*
X181011833Y-111275217D01*
X180875826Y-111483393D01*
X180775936Y-111711118D01*
X180714892Y-111952175D01*
X180714890Y-111952187D01*
X180694357Y-112199994D01*
X180694357Y-112200005D01*
X180714890Y-112447812D01*
X180714892Y-112447824D01*
X180775936Y-112688881D01*
X180875826Y-112916606D01*
X181011833Y-113124782D01*
X181011836Y-113124785D01*
X181180256Y-113307738D01*
X181376491Y-113460474D01*
X181595190Y-113578828D01*
X181830386Y-113659571D01*
X182075665Y-113700500D01*
X182324335Y-113700500D01*
X182569614Y-113659571D01*
X182804810Y-113578828D01*
X182804817Y-113578824D01*
X182804820Y-113578823D01*
X182811482Y-113575218D01*
X182879810Y-113560622D01*
X182945183Y-113585285D01*
X182986844Y-113641375D01*
X182994500Y-113684272D01*
X182994500Y-122870500D01*
X182974815Y-122937539D01*
X182922011Y-122983294D01*
X182870500Y-122994500D01*
X170244362Y-122994500D01*
X170241501Y-122994513D01*
X170239595Y-122994522D01*
X170237184Y-122994544D01*
X170232393Y-122994613D01*
X170232379Y-122994614D01*
X170090380Y-123017797D01*
X170090372Y-123017799D01*
X170028519Y-123037246D01*
X170024733Y-123038270D01*
X169894008Y-123101005D01*
X169894007Y-123101005D01*
X169787087Y-123197277D01*
X169742346Y-123250941D01*
X169742343Y-123250945D01*
X169675438Y-123359542D01*
X169623515Y-123406294D01*
X169569866Y-123418500D01*
X169431952Y-123418500D01*
X169364913Y-123398815D01*
X169327637Y-123361540D01*
X169250467Y-123241462D01*
X169250458Y-123241451D01*
X169204714Y-123188659D01*
X169204710Y-123188656D01*
X169204708Y-123188653D01*
X169095974Y-123094433D01*
X169095971Y-123094431D01*
X169095969Y-123094430D01*
X168965103Y-123034664D01*
X168965098Y-123034662D01*
X168965097Y-123034662D01*
X168898058Y-123014977D01*
X168898060Y-123014977D01*
X168898055Y-123014976D01*
X168850582Y-123008150D01*
X168755638Y-122994500D01*
X168755636Y-122994500D01*
X147629500Y-122994500D01*
X147562461Y-122974815D01*
X147516706Y-122922011D01*
X147505500Y-122870500D01*
X147505500Y-102608715D01*
X147505499Y-102608706D01*
X147494451Y-102503604D01*
X147494448Y-102503589D01*
X147477864Y-102425582D01*
X147474051Y-102414565D01*
X147473043Y-102410500D01*
X147473041Y-102410484D01*
X147434215Y-102290993D01*
X147428827Y-102265643D01*
X147423290Y-102212959D01*
X147423290Y-102187039D01*
X147428828Y-102134350D01*
X147434218Y-102108997D01*
X147462623Y-102021579D01*
X147462625Y-102021573D01*
X147471033Y-101995696D01*
X147471037Y-101995679D01*
X147471627Y-101993866D01*
X147471636Y-101993834D01*
X147473019Y-101989584D01*
X147473027Y-101989550D01*
X147473636Y-101987424D01*
X147473676Y-101987435D01*
X147474465Y-101984596D01*
X147475297Y-101981906D01*
X147476306Y-101977418D01*
X147477316Y-101972248D01*
X147490341Y-101919722D01*
X147490341Y-101919712D01*
X147491242Y-101913134D01*
X147491724Y-101913199D01*
X147492810Y-101904120D01*
X147494458Y-101896367D01*
X147494459Y-101896356D01*
X147505500Y-101791284D01*
X147505500Y-79999994D01*
X176494859Y-79999994D01*
X176494859Y-80000005D01*
X176515385Y-80247729D01*
X176515387Y-80247738D01*
X176576412Y-80488717D01*
X176676267Y-80716367D01*
X176776562Y-80869881D01*
X177517037Y-80129408D01*
X177534075Y-80192993D01*
X177599901Y-80307007D01*
X177692993Y-80400099D01*
X177807007Y-80465925D01*
X177870591Y-80482962D01*
X177129943Y-81223609D01*
X177176768Y-81260055D01*
X177176771Y-81260057D01*
X177395385Y-81378364D01*
X177395396Y-81378369D01*
X177630506Y-81459083D01*
X177875707Y-81500000D01*
X178124293Y-81500000D01*
X178369493Y-81459083D01*
X178604603Y-81378369D01*
X178604614Y-81378364D01*
X178823230Y-81260056D01*
X178823236Y-81260051D01*
X178870055Y-81223610D01*
X178870056Y-81223609D01*
X178129408Y-80482962D01*
X178192993Y-80465925D01*
X178307007Y-80400099D01*
X178400099Y-80307007D01*
X178465925Y-80192993D01*
X178482962Y-80129408D01*
X179223435Y-80869882D01*
X179323733Y-80716364D01*
X179423587Y-80488717D01*
X179484612Y-80247738D01*
X179484614Y-80247729D01*
X179505141Y-80000005D01*
X179505141Y-79999994D01*
X179484614Y-79752270D01*
X179484612Y-79752261D01*
X179423587Y-79511282D01*
X179323732Y-79283632D01*
X179223435Y-79130116D01*
X178482962Y-79870590D01*
X178465925Y-79807007D01*
X178400099Y-79692993D01*
X178307007Y-79599901D01*
X178192993Y-79534075D01*
X178129409Y-79517037D01*
X178870055Y-78776389D01*
X178870055Y-78776388D01*
X178823236Y-78739947D01*
X178823231Y-78739944D01*
X178604614Y-78621635D01*
X178604603Y-78621630D01*
X178369493Y-78540916D01*
X178124293Y-78500000D01*
X177875707Y-78500000D01*
X177630506Y-78540916D01*
X177395396Y-78621630D01*
X177395385Y-78621635D01*
X177176770Y-78739943D01*
X177129943Y-78776389D01*
X177870591Y-79517037D01*
X177807007Y-79534075D01*
X177692993Y-79599901D01*
X177599901Y-79692993D01*
X177534075Y-79807007D01*
X177517037Y-79870591D01*
X176776563Y-79130117D01*
X176676267Y-79283633D01*
X176676265Y-79283637D01*
X176576412Y-79511282D01*
X176515387Y-79752261D01*
X176515385Y-79752270D01*
X176494859Y-79999994D01*
X147505500Y-79999994D01*
X147505500Y-76629500D01*
X147525185Y-76562461D01*
X147577989Y-76516706D01*
X147629500Y-76505500D01*
X182870500Y-76505500D01*
X182937539Y-76525185D01*
G37*
%TD.AperFunction*%
%TD*%
%TA.AperFunction,Conductor*%
%TO.N,GND*%
G36*
X195000641Y-50000006D02*
G01*
X195213481Y-50002328D01*
X195222915Y-50002792D01*
X195647552Y-50039943D01*
X195658270Y-50041354D01*
X196077393Y-50115256D01*
X196087921Y-50117590D01*
X196499033Y-50227747D01*
X196509322Y-50230992D01*
X196909255Y-50376555D01*
X196919221Y-50380683D01*
X197304942Y-50560547D01*
X197314528Y-50565538D01*
X197683088Y-50778326D01*
X197692207Y-50784135D01*
X198040820Y-51028237D01*
X198049402Y-51034822D01*
X198375420Y-51308383D01*
X198383395Y-51315692D01*
X198684307Y-51616604D01*
X198691616Y-51624579D01*
X198965177Y-51950597D01*
X198971762Y-51959179D01*
X199215864Y-52307792D01*
X199221676Y-52316916D01*
X199434459Y-52685467D01*
X199439454Y-52695062D01*
X199619310Y-53080764D01*
X199623448Y-53090756D01*
X199679206Y-53243947D01*
X199769003Y-53490664D01*
X199772256Y-53500980D01*
X199882405Y-53912061D01*
X199884746Y-53922623D01*
X199958644Y-54341725D01*
X199960056Y-54352450D01*
X199997206Y-54777073D01*
X199997671Y-54786527D01*
X199999993Y-54999357D01*
X200000000Y-55000710D01*
X200000000Y-144999289D01*
X199999993Y-145000642D01*
X199997671Y-145213472D01*
X199997206Y-145222926D01*
X199960056Y-145647549D01*
X199958644Y-145658274D01*
X199884746Y-146077376D01*
X199882405Y-146087938D01*
X199772256Y-146499019D01*
X199769003Y-146509335D01*
X199623450Y-146909240D01*
X199619310Y-146919235D01*
X199439454Y-147304937D01*
X199434459Y-147314532D01*
X199221676Y-147683083D01*
X199215864Y-147692207D01*
X198971762Y-148040820D01*
X198965177Y-148049402D01*
X198691616Y-148375420D01*
X198684307Y-148383395D01*
X198383395Y-148684307D01*
X198375420Y-148691616D01*
X198049402Y-148965177D01*
X198040820Y-148971762D01*
X197692207Y-149215864D01*
X197683083Y-149221676D01*
X197314532Y-149434459D01*
X197304937Y-149439454D01*
X196919235Y-149619310D01*
X196909240Y-149623450D01*
X196509335Y-149769003D01*
X196499019Y-149772256D01*
X196087938Y-149882405D01*
X196077376Y-149884746D01*
X195658274Y-149958644D01*
X195647549Y-149960056D01*
X195222926Y-149997206D01*
X195213472Y-149997671D01*
X195005455Y-149999940D01*
X195000640Y-149999993D01*
X194999290Y-150000000D01*
X105000710Y-150000000D01*
X104999359Y-149999993D01*
X104994454Y-149999939D01*
X104786527Y-149997671D01*
X104777073Y-149997206D01*
X104352450Y-149960056D01*
X104341725Y-149958644D01*
X103922623Y-149884746D01*
X103912061Y-149882405D01*
X103500980Y-149772256D01*
X103490664Y-149769003D01*
X103090759Y-149623450D01*
X103080764Y-149619310D01*
X102695062Y-149439454D01*
X102685467Y-149434459D01*
X102316916Y-149221676D01*
X102307792Y-149215864D01*
X101959179Y-148971762D01*
X101950597Y-148965177D01*
X101624579Y-148691616D01*
X101616604Y-148684307D01*
X101315692Y-148383395D01*
X101308383Y-148375420D01*
X101034822Y-148049402D01*
X101028237Y-148040820D01*
X100784135Y-147692207D01*
X100778323Y-147683083D01*
X100757966Y-147647824D01*
X100565538Y-147314528D01*
X100560545Y-147304937D01*
X100496507Y-147167607D01*
X100380683Y-146919221D01*
X100376555Y-146909255D01*
X100230992Y-146509322D01*
X100227747Y-146499033D01*
X100117590Y-146087921D01*
X100115256Y-146077393D01*
X100041354Y-145658270D01*
X100039943Y-145647549D01*
X100028476Y-145516479D01*
X100002792Y-145222915D01*
X100002328Y-145213471D01*
X100002285Y-145209570D01*
X100000007Y-145000641D01*
X100000000Y-144999289D01*
X100000000Y-144878711D01*
X103149500Y-144878711D01*
X103149500Y-145121288D01*
X103181161Y-145361785D01*
X103243947Y-145596104D01*
X103293693Y-145716200D01*
X103336776Y-145820212D01*
X103458064Y-146030289D01*
X103458066Y-146030292D01*
X103458067Y-146030293D01*
X103605733Y-146222736D01*
X103605739Y-146222743D01*
X103777256Y-146394260D01*
X103777263Y-146394266D01*
X103838596Y-146441328D01*
X103969711Y-146541936D01*
X104179788Y-146663224D01*
X104403900Y-146756054D01*
X104638211Y-146818838D01*
X104818586Y-146842584D01*
X104878711Y-146850500D01*
X104878712Y-146850500D01*
X105121289Y-146850500D01*
X105169388Y-146844167D01*
X105361789Y-146818838D01*
X105596100Y-146756054D01*
X105820212Y-146663224D01*
X106030289Y-146541936D01*
X106222738Y-146394265D01*
X106394265Y-146222738D01*
X106541936Y-146030289D01*
X106663224Y-145820212D01*
X106756054Y-145596100D01*
X106818838Y-145361789D01*
X106850500Y-145121288D01*
X106850500Y-144878712D01*
X106818838Y-144638211D01*
X106756054Y-144403900D01*
X106663224Y-144179788D01*
X106541936Y-143969711D01*
X106394265Y-143777262D01*
X106394260Y-143777256D01*
X106222743Y-143605739D01*
X106222736Y-143605733D01*
X106030293Y-143458067D01*
X106030292Y-143458066D01*
X106030289Y-143458064D01*
X105820212Y-143336776D01*
X105820205Y-143336773D01*
X105596104Y-143243947D01*
X105363050Y-143181500D01*
X105361789Y-143181162D01*
X105361788Y-143181161D01*
X105361785Y-143181161D01*
X105121289Y-143149500D01*
X105121288Y-143149500D01*
X104878712Y-143149500D01*
X104878711Y-143149500D01*
X104638214Y-143181161D01*
X104403895Y-143243947D01*
X104179794Y-143336773D01*
X104179785Y-143336777D01*
X103969706Y-143458067D01*
X103777263Y-143605733D01*
X103777256Y-143605739D01*
X103605739Y-143777256D01*
X103605733Y-143777263D01*
X103458067Y-143969706D01*
X103336777Y-144179785D01*
X103336773Y-144179794D01*
X103243947Y-144403895D01*
X103181161Y-144638214D01*
X103149500Y-144878711D01*
X100000000Y-144878711D01*
X100000000Y-141249994D01*
X124494357Y-141249994D01*
X124494357Y-141250005D01*
X124514890Y-141497812D01*
X124514892Y-141497824D01*
X124575936Y-141738881D01*
X124675826Y-141966606D01*
X124811833Y-142174782D01*
X124811836Y-142174785D01*
X124980256Y-142357738D01*
X125037312Y-142402147D01*
X125078125Y-142458857D01*
X125081800Y-142528630D01*
X125047169Y-142589313D01*
X125037317Y-142597848D01*
X124997283Y-142629008D01*
X124980257Y-142642261D01*
X124811833Y-142825217D01*
X124675826Y-143033393D01*
X124575936Y-143261118D01*
X124514892Y-143502175D01*
X124514890Y-143502187D01*
X124494357Y-143749994D01*
X124494357Y-143750005D01*
X124514890Y-143997812D01*
X124514892Y-143997824D01*
X124575936Y-144238881D01*
X124675826Y-144466606D01*
X124811833Y-144674782D01*
X124811836Y-144674785D01*
X124980256Y-144857738D01*
X125176491Y-145010474D01*
X125196695Y-145021408D01*
X125328732Y-145092863D01*
X125395190Y-145128828D01*
X125630386Y-145209571D01*
X125875665Y-145250500D01*
X126124335Y-145250500D01*
X126369614Y-145209571D01*
X126604810Y-145128828D01*
X126823509Y-145010474D01*
X127019744Y-144857738D01*
X127158772Y-144706712D01*
X127218657Y-144670724D01*
X127288495Y-144672824D01*
X127341226Y-144706711D01*
X127480256Y-144857738D01*
X127676491Y-145010474D01*
X127696695Y-145021408D01*
X127828732Y-145092863D01*
X127895190Y-145128828D01*
X128130386Y-145209571D01*
X128375665Y-145250500D01*
X128624335Y-145250500D01*
X128869614Y-145209571D01*
X129104810Y-145128828D01*
X129323509Y-145010474D01*
X129519744Y-144857738D01*
X129658772Y-144706712D01*
X129718657Y-144670724D01*
X129788495Y-144672824D01*
X129841226Y-144706711D01*
X129980256Y-144857738D01*
X130176491Y-145010474D01*
X130196695Y-145021408D01*
X130328732Y-145092863D01*
X130395190Y-145128828D01*
X130630386Y-145209571D01*
X130875665Y-145250500D01*
X131124335Y-145250500D01*
X131369614Y-145209571D01*
X131604810Y-145128828D01*
X131823509Y-145010474D01*
X132019744Y-144857738D01*
X132188164Y-144674785D01*
X132324173Y-144466607D01*
X132424063Y-144238881D01*
X132485108Y-143997821D01*
X132485109Y-143997812D01*
X132505643Y-143750005D01*
X132505643Y-143749994D01*
X132485109Y-143502187D01*
X132485107Y-143502175D01*
X132424063Y-143261118D01*
X132324173Y-143033393D01*
X132188166Y-142825217D01*
X132158769Y-142793284D01*
X132019744Y-142642262D01*
X131962685Y-142597851D01*
X131921874Y-142541143D01*
X131918199Y-142471370D01*
X131952830Y-142410687D01*
X131962675Y-142402156D01*
X132019744Y-142357738D01*
X132188164Y-142174785D01*
X132324173Y-141966607D01*
X132424063Y-141738881D01*
X132485108Y-141497821D01*
X132485569Y-141492262D01*
X132505643Y-141250005D01*
X132505643Y-141249994D01*
X132485109Y-141002187D01*
X132485107Y-141002175D01*
X132459233Y-140900000D01*
X133113644Y-140900000D01*
X133133013Y-141084286D01*
X133133014Y-141084288D01*
X133190274Y-141260514D01*
X133263343Y-141387074D01*
X133282923Y-141420987D01*
X133315249Y-141456888D01*
X133345479Y-141519879D01*
X133347100Y-141539861D01*
X133347100Y-143864305D01*
X133347100Y-143864307D01*
X133347099Y-143864307D01*
X133368066Y-143969706D01*
X133368067Y-143969711D01*
X133372191Y-143990444D01*
X133421407Y-144109262D01*
X133492862Y-144216204D01*
X133492863Y-144216205D01*
X134988518Y-145711858D01*
X134988528Y-145711869D01*
X134992858Y-145716199D01*
X134992859Y-145716200D01*
X135109086Y-145832427D01*
X135142571Y-145893749D01*
X135137587Y-145963441D01*
X135095716Y-146019375D01*
X135080423Y-146029163D01*
X134876493Y-146139524D01*
X134680257Y-146292261D01*
X134511833Y-146475217D01*
X134375826Y-146683393D01*
X134275936Y-146911118D01*
X134214892Y-147152175D01*
X134214890Y-147152187D01*
X134194357Y-147399994D01*
X134194357Y-147400005D01*
X134214890Y-147647812D01*
X134214892Y-147647824D01*
X134275936Y-147888881D01*
X134375826Y-148116606D01*
X134511833Y-148324782D01*
X134511836Y-148324785D01*
X134680256Y-148507738D01*
X134876491Y-148660474D01*
X135095190Y-148778828D01*
X135330386Y-148859571D01*
X135575665Y-148900500D01*
X135824335Y-148900500D01*
X136069614Y-148859571D01*
X136304810Y-148778828D01*
X136523509Y-148660474D01*
X136719744Y-148507738D01*
X136888164Y-148324785D01*
X137024173Y-148116607D01*
X137124063Y-147888881D01*
X137185108Y-147647821D01*
X137205643Y-147400000D01*
X137192631Y-147242973D01*
X137185109Y-147152187D01*
X137185107Y-147152175D01*
X137124063Y-146911118D01*
X137024173Y-146683393D01*
X136888163Y-146475213D01*
X136874971Y-146460883D01*
X136844048Y-146398229D01*
X136851908Y-146328803D01*
X136896055Y-146274647D01*
X136962472Y-146252956D01*
X136966200Y-146252900D01*
X137978197Y-146252900D01*
X138045236Y-146272585D01*
X138065878Y-146289219D01*
X138186937Y-146410278D01*
X138220422Y-146471601D01*
X138222576Y-146484994D01*
X138233013Y-146584284D01*
X138233014Y-146584286D01*
X138233014Y-146584288D01*
X138290274Y-146760514D01*
X138363343Y-146887074D01*
X138382923Y-146920987D01*
X138426112Y-146968954D01*
X138506906Y-147058686D01*
X138506909Y-147058688D01*
X138506912Y-147058691D01*
X138635582Y-147152175D01*
X138656822Y-147167607D01*
X138826095Y-147242973D01*
X138826098Y-147242973D01*
X138826101Y-147242975D01*
X139007351Y-147281500D01*
X139192649Y-147281500D01*
X139373899Y-147242975D01*
X139373902Y-147242973D01*
X139373904Y-147242973D01*
X139430922Y-147217586D01*
X139543178Y-147167607D01*
X139693088Y-147058691D01*
X139817077Y-146920987D01*
X139909726Y-146760513D01*
X139966987Y-146584284D01*
X139986356Y-146400000D01*
X139966987Y-146215716D01*
X139909726Y-146039487D01*
X139903765Y-146029163D01*
X139865821Y-145963441D01*
X139817077Y-145879013D01*
X139764134Y-145820214D01*
X139693093Y-145741313D01*
X139693090Y-145741311D01*
X139693089Y-145741310D01*
X139693088Y-145741309D01*
X139578795Y-145658270D01*
X139543177Y-145632392D01*
X139373904Y-145557026D01*
X139373896Y-145557024D01*
X139192649Y-145518500D01*
X139186181Y-145517820D01*
X139186321Y-145516479D01*
X139126164Y-145498815D01*
X139105522Y-145482181D01*
X138716205Y-145092863D01*
X138716204Y-145092862D01*
X138716200Y-145092859D01*
X138609264Y-145021408D01*
X138582869Y-145010475D01*
X138490444Y-144972191D01*
X138490438Y-144972189D01*
X138364307Y-144947100D01*
X138364305Y-144947100D01*
X136864305Y-144947100D01*
X136121803Y-144947100D01*
X136054764Y-144927415D01*
X136034126Y-144910785D01*
X136002052Y-144878711D01*
X193149500Y-144878711D01*
X193149500Y-145121288D01*
X193181161Y-145361785D01*
X193243947Y-145596104D01*
X193293693Y-145716200D01*
X193336776Y-145820212D01*
X193458064Y-146030289D01*
X193458066Y-146030292D01*
X193458067Y-146030293D01*
X193605733Y-146222736D01*
X193605739Y-146222743D01*
X193777256Y-146394260D01*
X193777263Y-146394266D01*
X193838596Y-146441328D01*
X193969711Y-146541936D01*
X194179788Y-146663224D01*
X194403900Y-146756054D01*
X194638211Y-146818838D01*
X194818586Y-146842584D01*
X194878711Y-146850500D01*
X194878712Y-146850500D01*
X195121289Y-146850500D01*
X195169388Y-146844167D01*
X195361789Y-146818838D01*
X195596100Y-146756054D01*
X195820212Y-146663224D01*
X196030289Y-146541936D01*
X196222738Y-146394265D01*
X196394265Y-146222738D01*
X196541936Y-146030289D01*
X196663224Y-145820212D01*
X196756054Y-145596100D01*
X196818838Y-145361789D01*
X196850500Y-145121288D01*
X196850500Y-144878712D01*
X196818838Y-144638211D01*
X196756054Y-144403900D01*
X196663224Y-144179788D01*
X196541936Y-143969711D01*
X196394265Y-143777262D01*
X196394260Y-143777256D01*
X196222743Y-143605739D01*
X196222736Y-143605733D01*
X196030293Y-143458067D01*
X196030292Y-143458066D01*
X196030289Y-143458064D01*
X195820212Y-143336776D01*
X195820205Y-143336773D01*
X195596104Y-143243947D01*
X195363050Y-143181500D01*
X195361789Y-143181162D01*
X195361788Y-143181161D01*
X195361785Y-143181161D01*
X195121289Y-143149500D01*
X195121288Y-143149500D01*
X194878712Y-143149500D01*
X194878711Y-143149500D01*
X194638214Y-143181161D01*
X194403895Y-143243947D01*
X194179794Y-143336773D01*
X194179785Y-143336777D01*
X193969706Y-143458067D01*
X193777263Y-143605733D01*
X193777256Y-143605739D01*
X193605739Y-143777256D01*
X193605733Y-143777263D01*
X193458067Y-143969706D01*
X193336777Y-144179785D01*
X193336773Y-144179794D01*
X193243947Y-144403895D01*
X193181161Y-144638214D01*
X193149500Y-144878711D01*
X136002052Y-144878711D01*
X135916200Y-144792859D01*
X135916199Y-144792858D01*
X135911869Y-144788528D01*
X135911858Y-144788518D01*
X134689219Y-143565878D01*
X134655734Y-143504555D01*
X134652900Y-143478197D01*
X134652900Y-141539861D01*
X134672585Y-141472822D01*
X134684751Y-141456888D01*
X134717077Y-141420987D01*
X134809726Y-141260513D01*
X134866987Y-141084284D01*
X134886356Y-140900000D01*
X134866987Y-140715716D01*
X134809726Y-140539487D01*
X134717077Y-140379013D01*
X134668514Y-140325078D01*
X134593093Y-140241313D01*
X134593090Y-140241311D01*
X134593089Y-140241310D01*
X134593088Y-140241309D01*
X134443178Y-140132393D01*
X134443177Y-140132392D01*
X134273904Y-140057026D01*
X134273896Y-140057024D01*
X134092649Y-140018500D01*
X133907351Y-140018500D01*
X133726103Y-140057024D01*
X133726095Y-140057026D01*
X133556822Y-140132392D01*
X133406909Y-140241311D01*
X133406906Y-140241313D01*
X133282922Y-140379014D01*
X133190274Y-140539485D01*
X133133014Y-140715711D01*
X133133013Y-140715713D01*
X133113644Y-140900000D01*
X132459233Y-140900000D01*
X132424063Y-140761118D01*
X132324173Y-140533393D01*
X132188166Y-140325217D01*
X132158769Y-140293284D01*
X132019744Y-140142262D01*
X131823509Y-139989526D01*
X131823507Y-139989525D01*
X131823506Y-139989524D01*
X131604811Y-139871172D01*
X131604802Y-139871169D01*
X131369616Y-139790429D01*
X131124335Y-139749500D01*
X130875665Y-139749500D01*
X130630383Y-139790429D01*
X130395197Y-139871169D01*
X130395188Y-139871172D01*
X130176493Y-139989524D01*
X129980255Y-140142262D01*
X129980252Y-140142265D01*
X129841229Y-140293284D01*
X129781342Y-140329275D01*
X129711504Y-140327174D01*
X129658771Y-140293284D01*
X129519747Y-140142265D01*
X129519744Y-140142262D01*
X129410233Y-140057026D01*
X129323509Y-139989526D01*
X129323507Y-139989525D01*
X129323506Y-139989524D01*
X129104811Y-139871172D01*
X129104802Y-139871169D01*
X128869616Y-139790429D01*
X128624335Y-139749500D01*
X128375665Y-139749500D01*
X128130383Y-139790429D01*
X127895197Y-139871169D01*
X127895188Y-139871172D01*
X127676493Y-139989524D01*
X127480255Y-140142262D01*
X127480252Y-140142265D01*
X127341229Y-140293284D01*
X127281342Y-140329275D01*
X127211504Y-140327174D01*
X127158771Y-140293284D01*
X127019747Y-140142265D01*
X127019744Y-140142262D01*
X126910233Y-140057026D01*
X126823509Y-139989526D01*
X126823507Y-139989525D01*
X126823506Y-139989524D01*
X126604811Y-139871172D01*
X126604802Y-139871169D01*
X126369616Y-139790429D01*
X126124335Y-139749500D01*
X125875665Y-139749500D01*
X125630383Y-139790429D01*
X125395197Y-139871169D01*
X125395188Y-139871172D01*
X125176493Y-139989524D01*
X124980257Y-140142261D01*
X124811833Y-140325217D01*
X124675826Y-140533393D01*
X124575936Y-140761118D01*
X124514892Y-141002175D01*
X124514890Y-141002187D01*
X124494357Y-141249994D01*
X100000000Y-141249994D01*
X100000000Y-138999994D01*
X100744357Y-138999994D01*
X100744357Y-139000005D01*
X100764890Y-139247812D01*
X100764892Y-139247824D01*
X100825936Y-139488881D01*
X100925826Y-139716606D01*
X101061833Y-139924782D01*
X101061836Y-139924785D01*
X101230256Y-140107738D01*
X101426491Y-140260474D01*
X101645190Y-140378828D01*
X101880386Y-140459571D01*
X102125665Y-140500500D01*
X102374335Y-140500500D01*
X102619614Y-140459571D01*
X102854810Y-140378828D01*
X103073509Y-140260474D01*
X103269744Y-140107738D01*
X103438164Y-139924785D01*
X103574173Y-139716607D01*
X103674063Y-139488881D01*
X103735108Y-139247821D01*
X103755643Y-139000000D01*
X103755643Y-138999994D01*
X104744357Y-138999994D01*
X104744357Y-139000005D01*
X104764890Y-139247812D01*
X104764892Y-139247824D01*
X104825936Y-139488881D01*
X104925826Y-139716606D01*
X105061833Y-139924782D01*
X105061836Y-139924785D01*
X105230256Y-140107738D01*
X105426491Y-140260474D01*
X105645190Y-140378828D01*
X105880386Y-140459571D01*
X106125665Y-140500500D01*
X106374335Y-140500500D01*
X106619614Y-140459571D01*
X106854810Y-140378828D01*
X107073509Y-140260474D01*
X107269744Y-140107738D01*
X107438164Y-139924785D01*
X107574173Y-139716607D01*
X107674063Y-139488881D01*
X107735108Y-139247821D01*
X107747357Y-139100000D01*
X113513644Y-139100000D01*
X113533013Y-139284286D01*
X113533014Y-139284288D01*
X113590274Y-139460514D01*
X113606652Y-139488881D01*
X113682923Y-139620987D01*
X113726112Y-139668954D01*
X113806906Y-139758686D01*
X113806909Y-139758688D01*
X113806912Y-139758691D01*
X113850596Y-139790429D01*
X113956822Y-139867607D01*
X114126095Y-139942973D01*
X114126098Y-139942973D01*
X114126101Y-139942975D01*
X114307351Y-139981500D01*
X114492649Y-139981500D01*
X114673899Y-139942975D01*
X114673902Y-139942973D01*
X114673904Y-139942973D01*
X114730922Y-139917586D01*
X114843178Y-139867607D01*
X114993088Y-139758691D01*
X115117077Y-139620987D01*
X115209726Y-139460513D01*
X115266987Y-139284284D01*
X115286356Y-139100000D01*
X115266987Y-138915716D01*
X115209726Y-138739487D01*
X115117077Y-138579013D01*
X115117073Y-138579007D01*
X115084750Y-138543109D01*
X115054520Y-138480117D01*
X115052900Y-138460137D01*
X115052900Y-136721802D01*
X115072585Y-136654763D01*
X115089216Y-136634123D01*
X115105989Y-136617350D01*
X115105992Y-136617348D01*
X115116198Y-136607141D01*
X115116200Y-136607141D01*
X115534121Y-136189218D01*
X115595444Y-136155734D01*
X115621802Y-136152900D01*
X121317463Y-136152900D01*
X121384502Y-136172585D01*
X121421978Y-136212995D01*
X121423022Y-136212314D01*
X121561833Y-136424782D01*
X121561836Y-136424785D01*
X121730256Y-136607738D01*
X121926491Y-136760474D01*
X122145190Y-136878828D01*
X122380386Y-136959571D01*
X122625665Y-137000500D01*
X122874335Y-137000500D01*
X123119614Y-136959571D01*
X123354810Y-136878828D01*
X123573509Y-136760474D01*
X123769744Y-136607738D01*
X123938164Y-136424785D01*
X124074173Y-136216607D01*
X124174063Y-135988881D01*
X124235108Y-135747821D01*
X124255643Y-135500000D01*
X124251681Y-135452187D01*
X124235109Y-135252187D01*
X124235107Y-135252175D01*
X124174063Y-135011118D01*
X124074173Y-134783393D01*
X123938166Y-134575217D01*
X123916557Y-134551744D01*
X123769744Y-134392262D01*
X123573509Y-134239526D01*
X123573507Y-134239525D01*
X123573506Y-134239524D01*
X123354811Y-134121172D01*
X123354802Y-134121169D01*
X123119616Y-134040429D01*
X122874335Y-133999500D01*
X122625665Y-133999500D01*
X122380383Y-134040429D01*
X122145197Y-134121169D01*
X122145188Y-134121172D01*
X121926493Y-134239524D01*
X121730257Y-134392261D01*
X121561833Y-134575217D01*
X121423022Y-134787686D01*
X121421785Y-134786878D01*
X121377316Y-134831698D01*
X121317463Y-134847100D01*
X115235693Y-134847100D01*
X115109561Y-134872189D01*
X115109555Y-134872191D01*
X114990737Y-134921407D01*
X114883797Y-134992861D01*
X113892856Y-135983802D01*
X113868073Y-136020895D01*
X113858185Y-136035695D01*
X113843453Y-136057741D01*
X113821407Y-136090736D01*
X113772191Y-136209555D01*
X113772189Y-136209561D01*
X113747100Y-136335692D01*
X113747100Y-138460137D01*
X113727415Y-138527176D01*
X113715250Y-138543109D01*
X113682926Y-138579007D01*
X113682921Y-138579014D01*
X113590274Y-138739485D01*
X113533014Y-138915711D01*
X113533013Y-138915713D01*
X113513644Y-139100000D01*
X107747357Y-139100000D01*
X107755643Y-139000000D01*
X107735108Y-138752179D01*
X107731893Y-138739485D01*
X107674063Y-138511118D01*
X107574173Y-138283393D01*
X107438166Y-138075217D01*
X107416557Y-138051744D01*
X107269744Y-137892262D01*
X107073509Y-137739526D01*
X107073507Y-137739525D01*
X107073506Y-137739524D01*
X106854811Y-137621172D01*
X106854802Y-137621169D01*
X106619616Y-137540429D01*
X106374335Y-137499500D01*
X106125665Y-137499500D01*
X105880383Y-137540429D01*
X105645197Y-137621169D01*
X105645188Y-137621172D01*
X105426493Y-137739524D01*
X105230257Y-137892261D01*
X105061833Y-138075217D01*
X104925826Y-138283393D01*
X104825936Y-138511118D01*
X104764892Y-138752175D01*
X104764890Y-138752187D01*
X104744357Y-138999994D01*
X103755643Y-138999994D01*
X103735108Y-138752179D01*
X103731893Y-138739485D01*
X103674063Y-138511118D01*
X103574173Y-138283393D01*
X103438166Y-138075217D01*
X103416557Y-138051744D01*
X103269744Y-137892262D01*
X103073509Y-137739526D01*
X103073507Y-137739525D01*
X103073506Y-137739524D01*
X102854811Y-137621172D01*
X102854802Y-137621169D01*
X102619616Y-137540429D01*
X102374335Y-137499500D01*
X102125665Y-137499500D01*
X101880383Y-137540429D01*
X101645197Y-137621169D01*
X101645188Y-137621172D01*
X101426493Y-137739524D01*
X101230257Y-137892261D01*
X101061833Y-138075217D01*
X100925826Y-138283393D01*
X100825936Y-138511118D01*
X100764892Y-138752175D01*
X100764890Y-138752187D01*
X100744357Y-138999994D01*
X100000000Y-138999994D01*
X100000000Y-133913389D01*
X106467000Y-133913389D01*
X106467000Y-134086611D01*
X106494098Y-134257701D01*
X106547627Y-134422445D01*
X106626268Y-134576788D01*
X106728086Y-134716928D01*
X106850572Y-134839414D01*
X106990712Y-134941232D01*
X107145055Y-135019873D01*
X107309799Y-135073402D01*
X107480889Y-135100500D01*
X107480890Y-135100500D01*
X109154110Y-135100500D01*
X109154111Y-135100500D01*
X109325201Y-135073402D01*
X109489945Y-135019873D01*
X109644288Y-134941232D01*
X109784428Y-134839414D01*
X109906914Y-134716928D01*
X110008732Y-134576788D01*
X110087373Y-134422445D01*
X110140902Y-134257701D01*
X110168000Y-134086611D01*
X110168000Y-133913389D01*
X110140902Y-133742299D01*
X110087373Y-133577555D01*
X110008732Y-133423212D01*
X109906914Y-133283072D01*
X109784428Y-133160586D01*
X109644288Y-133058768D01*
X109489945Y-132980127D01*
X109325201Y-132926598D01*
X109325199Y-132926597D01*
X109325198Y-132926597D01*
X109193771Y-132905781D01*
X109154111Y-132899500D01*
X107480889Y-132899500D01*
X107441228Y-132905781D01*
X107309802Y-132926597D01*
X107145052Y-132980128D01*
X106990711Y-133058768D01*
X106910756Y-133116859D01*
X106850572Y-133160586D01*
X106850570Y-133160588D01*
X106850569Y-133160588D01*
X106728088Y-133283069D01*
X106728088Y-133283070D01*
X106728086Y-133283072D01*
X106684359Y-133343256D01*
X106626268Y-133423211D01*
X106547628Y-133577552D01*
X106547627Y-133577554D01*
X106547627Y-133577555D01*
X106537229Y-133609556D01*
X106494097Y-133742302D01*
X106467000Y-133913389D01*
X100000000Y-133913389D01*
X100000000Y-130750000D01*
X109462051Y-130750000D01*
X109481817Y-131001151D01*
X109540626Y-131246110D01*
X109637033Y-131478859D01*
X109768660Y-131693653D01*
X109768661Y-131693656D01*
X109768664Y-131693659D01*
X109932276Y-131885224D01*
X110080566Y-132011875D01*
X110123843Y-132048838D01*
X110123846Y-132048839D01*
X110338640Y-132180466D01*
X110571389Y-132276873D01*
X110816352Y-132335683D01*
X111067500Y-132355449D01*
X111318648Y-132335683D01*
X111563611Y-132276873D01*
X111796359Y-132180466D01*
X112011159Y-132048836D01*
X112202724Y-131885224D01*
X112366336Y-131693659D01*
X112497966Y-131478859D01*
X112594373Y-131246111D01*
X112653183Y-131001148D01*
X112672949Y-130750000D01*
X112653183Y-130498852D01*
X112594373Y-130253889D01*
X112563359Y-130179014D01*
X112497966Y-130021140D01*
X112366339Y-129806346D01*
X112366338Y-129806343D01*
X112329375Y-129763066D01*
X112202724Y-129614776D01*
X112076071Y-129506604D01*
X112011156Y-129451161D01*
X112011153Y-129451160D01*
X111796359Y-129319533D01*
X111563610Y-129223126D01*
X111318651Y-129164317D01*
X111067500Y-129144551D01*
X110816348Y-129164317D01*
X110571389Y-129223126D01*
X110338640Y-129319533D01*
X110123846Y-129451160D01*
X110123843Y-129451161D01*
X109932276Y-129614776D01*
X109768661Y-129806343D01*
X109768660Y-129806346D01*
X109637033Y-130021140D01*
X109540626Y-130253889D01*
X109481817Y-130498848D01*
X109462051Y-130750000D01*
X100000000Y-130750000D01*
X100000000Y-126750000D01*
X106212552Y-126750000D01*
X106232312Y-127001072D01*
X106291103Y-127245956D01*
X106387480Y-127478631D01*
X106519068Y-127693362D01*
X106519766Y-127694179D01*
X107252887Y-126961058D01*
X107258389Y-126981591D01*
X107337381Y-127118408D01*
X107449092Y-127230119D01*
X107585909Y-127309111D01*
X107606440Y-127314612D01*
X106873319Y-128047732D01*
X106873319Y-128047733D01*
X106874134Y-128048429D01*
X107088868Y-128180019D01*
X107321543Y-128276396D01*
X107566427Y-128335187D01*
X107817500Y-128354947D01*
X108068572Y-128335187D01*
X108313456Y-128276396D01*
X108546131Y-128180019D01*
X108760861Y-128048432D01*
X108760863Y-128048430D01*
X108761680Y-128047732D01*
X108028559Y-127314612D01*
X108049091Y-127309111D01*
X108185908Y-127230119D01*
X108297619Y-127118408D01*
X108376611Y-126981591D01*
X108382112Y-126961060D01*
X109115232Y-127694180D01*
X109115930Y-127693363D01*
X109115932Y-127693361D01*
X109247519Y-127478631D01*
X109343896Y-127245956D01*
X109402687Y-127001072D01*
X109422447Y-126750000D01*
X109402687Y-126498927D01*
X109343896Y-126254043D01*
X109247519Y-126021368D01*
X109115929Y-125806634D01*
X109115233Y-125805819D01*
X109115232Y-125805819D01*
X108382112Y-126538939D01*
X108376611Y-126518409D01*
X108297619Y-126381592D01*
X108185908Y-126269881D01*
X108049091Y-126190889D01*
X108028557Y-126185387D01*
X108761679Y-125452266D01*
X108760862Y-125451568D01*
X108546131Y-125319980D01*
X108313456Y-125223603D01*
X108068572Y-125164812D01*
X107817500Y-125145052D01*
X107566427Y-125164812D01*
X107321543Y-125223603D01*
X107088868Y-125319980D01*
X106874137Y-125451567D01*
X106873318Y-125452266D01*
X107606440Y-126185387D01*
X107585909Y-126190889D01*
X107449092Y-126269881D01*
X107337381Y-126381592D01*
X107258389Y-126518409D01*
X107252887Y-126538940D01*
X106519766Y-125805818D01*
X106519067Y-125806637D01*
X106387480Y-126021368D01*
X106291103Y-126254043D01*
X106232312Y-126498927D01*
X106212552Y-126750000D01*
X100000000Y-126750000D01*
X100000000Y-122750000D01*
X110712051Y-122750000D01*
X110731817Y-123001151D01*
X110790626Y-123246110D01*
X110887033Y-123478859D01*
X111018660Y-123693653D01*
X111018661Y-123693656D01*
X111074104Y-123758571D01*
X111182276Y-123885224D01*
X111245810Y-123939487D01*
X111373843Y-124048838D01*
X111373846Y-124048839D01*
X111588640Y-124180466D01*
X111821389Y-124276873D01*
X112066352Y-124335683D01*
X112317500Y-124355449D01*
X112568648Y-124335683D01*
X112813611Y-124276873D01*
X113046359Y-124180466D01*
X113261159Y-124048836D01*
X113452724Y-123885224D01*
X113616336Y-123693659D01*
X113747966Y-123478859D01*
X113844373Y-123246111D01*
X113903183Y-123001148D01*
X113922949Y-122750000D01*
X113903183Y-122498852D01*
X113844373Y-122253889D01*
X113747966Y-122021141D01*
X113747966Y-122021140D01*
X113616339Y-121806346D01*
X113616338Y-121806343D01*
X113512089Y-121684284D01*
X113452724Y-121614776D01*
X113318339Y-121500000D01*
X113261156Y-121451161D01*
X113261153Y-121451160D01*
X113046359Y-121319533D01*
X112813610Y-121223126D01*
X112568651Y-121164317D01*
X112317500Y-121144551D01*
X112066348Y-121164317D01*
X111821389Y-121223126D01*
X111588640Y-121319533D01*
X111373846Y-121451160D01*
X111373843Y-121451161D01*
X111182276Y-121614776D01*
X111018661Y-121806343D01*
X111018660Y-121806346D01*
X110887033Y-122021140D01*
X110790626Y-122253889D01*
X110731817Y-122498848D01*
X110712051Y-122750000D01*
X100000000Y-122750000D01*
X100000000Y-121100000D01*
X125913644Y-121100000D01*
X125933013Y-121284286D01*
X125933014Y-121284288D01*
X125990274Y-121460514D01*
X126063343Y-121587074D01*
X126082923Y-121620987D01*
X126115249Y-121656888D01*
X126145479Y-121719879D01*
X126147100Y-121739861D01*
X126147100Y-130064305D01*
X126147100Y-130064307D01*
X126147099Y-130064307D01*
X126157880Y-130118500D01*
X126168763Y-130173212D01*
X126172191Y-130190444D01*
X126221408Y-130309264D01*
X126242821Y-130341311D01*
X126292862Y-130416204D01*
X126292863Y-130416205D01*
X129910781Y-134034121D01*
X129944266Y-134095444D01*
X129947100Y-134121802D01*
X129947100Y-134273308D01*
X129927415Y-134340347D01*
X129882118Y-134382362D01*
X129776501Y-134439519D01*
X129776494Y-134439523D01*
X129580257Y-134592261D01*
X129411833Y-134775217D01*
X129275826Y-134983393D01*
X129175936Y-135211118D01*
X129114892Y-135452175D01*
X129114890Y-135452187D01*
X129094357Y-135699994D01*
X129094357Y-135700005D01*
X129114890Y-135947812D01*
X129114892Y-135947824D01*
X129175936Y-136188881D01*
X129275826Y-136416606D01*
X129411833Y-136624782D01*
X129411836Y-136624785D01*
X129580256Y-136807738D01*
X129776491Y-136960474D01*
X129995190Y-137078828D01*
X130230386Y-137159571D01*
X130475665Y-137200500D01*
X130724335Y-137200500D01*
X130969614Y-137159571D01*
X131204810Y-137078828D01*
X131423509Y-136960474D01*
X131619744Y-136807738D01*
X131788164Y-136624785D01*
X131924173Y-136416607D01*
X132024063Y-136188881D01*
X132085108Y-135947821D01*
X132085109Y-135947812D01*
X132105643Y-135700005D01*
X132105643Y-135699994D01*
X132085109Y-135452187D01*
X132085107Y-135452175D01*
X132024063Y-135211118D01*
X131924173Y-134983393D01*
X131788166Y-134775217D01*
X131734507Y-134716928D01*
X131619744Y-134592262D01*
X131423509Y-134439526D01*
X131423508Y-134439525D01*
X131423505Y-134439523D01*
X131423498Y-134439519D01*
X131317882Y-134382362D01*
X131268292Y-134333143D01*
X131252900Y-134273308D01*
X131252900Y-133735692D01*
X131227810Y-133609561D01*
X131227809Y-133609560D01*
X131227809Y-133609556D01*
X131207423Y-133560340D01*
X131178593Y-133490737D01*
X131107141Y-133383801D01*
X131107139Y-133383798D01*
X128723341Y-131000000D01*
X133113644Y-131000000D01*
X133133013Y-131184286D01*
X133133014Y-131184288D01*
X133190274Y-131360514D01*
X133252104Y-131467607D01*
X133282923Y-131520987D01*
X133302721Y-131542975D01*
X133406906Y-131658686D01*
X133406909Y-131658688D01*
X133406912Y-131658691D01*
X133556822Y-131767607D01*
X133726095Y-131842973D01*
X133726098Y-131842973D01*
X133726101Y-131842975D01*
X133907351Y-131881500D01*
X134092649Y-131881500D01*
X134273899Y-131842975D01*
X134273902Y-131842973D01*
X134273904Y-131842973D01*
X134330922Y-131817586D01*
X134443178Y-131767607D01*
X134568464Y-131676581D01*
X134634269Y-131653102D01*
X134641348Y-131652900D01*
X136258652Y-131652900D01*
X136325691Y-131672585D01*
X136331518Y-131676568D01*
X136456822Y-131767607D01*
X136626095Y-131842973D01*
X136626098Y-131842973D01*
X136626101Y-131842975D01*
X136807351Y-131881500D01*
X136992649Y-131881500D01*
X137173899Y-131842975D01*
X137173902Y-131842973D01*
X137173904Y-131842973D01*
X137230922Y-131817586D01*
X137343178Y-131767607D01*
X137493088Y-131658691D01*
X137498121Y-131653102D01*
X137519951Y-131628855D01*
X137617077Y-131520987D01*
X137709726Y-131360513D01*
X137766987Y-131184284D01*
X137786356Y-131000000D01*
X137766987Y-130815716D01*
X137709726Y-130639487D01*
X137617077Y-130479013D01*
X137560520Y-130416200D01*
X137493093Y-130341313D01*
X137493090Y-130341311D01*
X137493089Y-130341310D01*
X137493088Y-130341309D01*
X137343178Y-130232393D01*
X137343177Y-130232392D01*
X137173904Y-130157026D01*
X137173896Y-130157024D01*
X136992649Y-130118500D01*
X136807351Y-130118500D01*
X136626103Y-130157024D01*
X136626095Y-130157026D01*
X136456822Y-130232392D01*
X136427235Y-130253889D01*
X136331535Y-130323418D01*
X136265731Y-130346898D01*
X136258652Y-130347100D01*
X134641348Y-130347100D01*
X134574309Y-130327415D01*
X134568481Y-130323431D01*
X134443178Y-130232393D01*
X134443177Y-130232392D01*
X134273904Y-130157026D01*
X134273896Y-130157024D01*
X134092649Y-130118500D01*
X133907351Y-130118500D01*
X133726103Y-130157024D01*
X133726095Y-130157026D01*
X133556822Y-130232392D01*
X133406909Y-130341311D01*
X133406906Y-130341313D01*
X133282922Y-130479014D01*
X133190274Y-130639485D01*
X133133014Y-130815711D01*
X133133013Y-130815713D01*
X133113644Y-131000000D01*
X128723341Y-131000000D01*
X127489219Y-129765878D01*
X127455734Y-129704555D01*
X127452900Y-129678197D01*
X127452900Y-121739861D01*
X127472585Y-121672822D01*
X127484751Y-121656888D01*
X127517077Y-121620987D01*
X127609726Y-121460513D01*
X127666987Y-121284284D01*
X127686356Y-121100000D01*
X127666987Y-120915716D01*
X127609726Y-120739487D01*
X127517077Y-120579013D01*
X127463825Y-120519871D01*
X127393093Y-120441313D01*
X127393090Y-120441311D01*
X127393089Y-120441310D01*
X127393088Y-120441309D01*
X127252842Y-120339414D01*
X127243177Y-120332392D01*
X127073904Y-120257026D01*
X127073896Y-120257024D01*
X126892649Y-120218500D01*
X126707351Y-120218500D01*
X126526103Y-120257024D01*
X126526095Y-120257026D01*
X126356822Y-120332392D01*
X126206909Y-120441311D01*
X126206906Y-120441313D01*
X126082922Y-120579014D01*
X125990274Y-120739485D01*
X125933014Y-120915711D01*
X125933013Y-120915713D01*
X125913644Y-121100000D01*
X100000000Y-121100000D01*
X100000000Y-119413389D01*
X106467000Y-119413389D01*
X106467000Y-119586611D01*
X106494098Y-119757701D01*
X106547627Y-119922445D01*
X106626268Y-120076788D01*
X106728086Y-120216928D01*
X106850572Y-120339414D01*
X106990712Y-120441232D01*
X107145055Y-120519873D01*
X107309799Y-120573402D01*
X107480889Y-120600500D01*
X107480890Y-120600500D01*
X109154110Y-120600500D01*
X109154111Y-120600500D01*
X109325201Y-120573402D01*
X109489945Y-120519873D01*
X109644288Y-120441232D01*
X109784428Y-120339414D01*
X109906914Y-120216928D01*
X110008732Y-120076788D01*
X110087373Y-119922445D01*
X110140902Y-119757701D01*
X110168000Y-119586611D01*
X110168000Y-119413389D01*
X110140902Y-119242299D01*
X110087373Y-119077555D01*
X110008732Y-118923212D01*
X109906914Y-118783072D01*
X109784428Y-118660586D01*
X109644288Y-118558768D01*
X109489945Y-118480127D01*
X109325201Y-118426598D01*
X109325199Y-118426597D01*
X109325198Y-118426597D01*
X109193771Y-118405781D01*
X109154111Y-118399500D01*
X107480889Y-118399500D01*
X107441228Y-118405781D01*
X107309802Y-118426597D01*
X107145052Y-118480128D01*
X106990711Y-118558768D01*
X106910756Y-118616859D01*
X106850572Y-118660586D01*
X106850570Y-118660588D01*
X106850569Y-118660588D01*
X106728088Y-118783069D01*
X106728088Y-118783070D01*
X106728086Y-118783072D01*
X106684359Y-118843256D01*
X106626268Y-118923211D01*
X106547628Y-119077552D01*
X106494097Y-119242302D01*
X106478416Y-119341309D01*
X106467000Y-119413389D01*
X100000000Y-119413389D01*
X100000000Y-114766228D01*
X103649500Y-114766228D01*
X103649500Y-114933771D01*
X103682182Y-115098074D01*
X103682184Y-115098082D01*
X103746295Y-115252860D01*
X103839373Y-115392162D01*
X103957837Y-115510626D01*
X104050494Y-115572537D01*
X104097137Y-115603703D01*
X104251918Y-115667816D01*
X104416228Y-115700499D01*
X104416232Y-115700500D01*
X104416233Y-115700500D01*
X104583768Y-115700500D01*
X104583769Y-115700499D01*
X104748082Y-115667816D01*
X104902863Y-115603703D01*
X105042162Y-115510626D01*
X105160626Y-115392162D01*
X105253703Y-115252863D01*
X105317816Y-115098082D01*
X105350500Y-114933767D01*
X105350500Y-114766233D01*
X105350499Y-114766228D01*
X106149500Y-114766228D01*
X106149500Y-114933771D01*
X106182182Y-115098074D01*
X106182184Y-115098082D01*
X106246295Y-115252860D01*
X106339373Y-115392162D01*
X106457837Y-115510626D01*
X106550494Y-115572537D01*
X106597137Y-115603703D01*
X106751918Y-115667816D01*
X106916228Y-115700499D01*
X106916232Y-115700500D01*
X106916233Y-115700500D01*
X107083768Y-115700500D01*
X107083769Y-115700499D01*
X107248082Y-115667816D01*
X107402863Y-115603703D01*
X107542162Y-115510626D01*
X107660626Y-115392162D01*
X107753703Y-115252863D01*
X107817816Y-115098082D01*
X107850500Y-114933767D01*
X107850500Y-114766233D01*
X107849934Y-114763389D01*
X110399500Y-114763389D01*
X110399500Y-114936610D01*
X110422889Y-115084288D01*
X110426598Y-115107701D01*
X110480127Y-115272445D01*
X110558768Y-115426788D01*
X110660586Y-115566928D01*
X110783072Y-115689414D01*
X110923212Y-115791232D01*
X111077555Y-115869873D01*
X111242299Y-115923402D01*
X111413389Y-115950500D01*
X111413390Y-115950500D01*
X112586610Y-115950500D01*
X112586611Y-115950500D01*
X112757701Y-115923402D01*
X112922445Y-115869873D01*
X113076788Y-115791232D01*
X113216928Y-115689414D01*
X113339414Y-115566928D01*
X113441232Y-115426788D01*
X113519873Y-115272445D01*
X113573402Y-115107701D01*
X113600500Y-114936611D01*
X113600500Y-114900000D01*
X127113644Y-114900000D01*
X127133013Y-115084286D01*
X127133014Y-115084288D01*
X127190274Y-115260514D01*
X127252104Y-115367607D01*
X127282923Y-115420987D01*
X127302721Y-115442975D01*
X127406906Y-115558686D01*
X127406909Y-115558688D01*
X127406912Y-115558691D01*
X127544550Y-115658691D01*
X127556822Y-115667607D01*
X127726095Y-115742973D01*
X127726098Y-115742973D01*
X127726101Y-115742975D01*
X127907351Y-115781500D01*
X128092649Y-115781500D01*
X128273899Y-115742975D01*
X128273902Y-115742973D01*
X128273904Y-115742973D01*
X128369301Y-115700499D01*
X128443178Y-115667607D01*
X128593088Y-115558691D01*
X128717077Y-115420987D01*
X128778326Y-115314900D01*
X128828892Y-115266685D01*
X128885713Y-115252900D01*
X130058652Y-115252900D01*
X130125691Y-115272585D01*
X130131518Y-115276568D01*
X130247058Y-115360513D01*
X130256822Y-115367607D01*
X130426095Y-115442973D01*
X130426098Y-115442973D01*
X130426101Y-115442975D01*
X130607351Y-115481500D01*
X130792649Y-115481500D01*
X130973899Y-115442975D01*
X130973902Y-115442973D01*
X130973904Y-115442973D01*
X131030922Y-115417586D01*
X131143178Y-115367607D01*
X131293088Y-115258691D01*
X131298303Y-115252900D01*
X131319951Y-115228855D01*
X131417077Y-115120987D01*
X131509726Y-114960513D01*
X131566987Y-114784284D01*
X131586356Y-114600000D01*
X131566987Y-114415716D01*
X131509726Y-114239487D01*
X131417077Y-114079013D01*
X131354092Y-114009061D01*
X131293093Y-113941313D01*
X131293090Y-113941311D01*
X131293089Y-113941310D01*
X131293088Y-113941309D01*
X131164413Y-113847821D01*
X131143177Y-113832392D01*
X130973904Y-113757026D01*
X130973896Y-113757024D01*
X130792649Y-113718500D01*
X130607351Y-113718500D01*
X130426103Y-113757024D01*
X130426095Y-113757026D01*
X130256822Y-113832392D01*
X130188654Y-113881919D01*
X130131535Y-113923418D01*
X130065731Y-113946898D01*
X130058652Y-113947100D01*
X128235693Y-113947100D01*
X128109561Y-113972189D01*
X128109555Y-113972191D01*
X128020545Y-114009061D01*
X127973092Y-114018500D01*
X127907351Y-114018500D01*
X127726103Y-114057024D01*
X127726095Y-114057026D01*
X127556822Y-114132392D01*
X127406909Y-114241311D01*
X127406906Y-114241313D01*
X127282922Y-114379014D01*
X127190274Y-114539485D01*
X127133014Y-114715711D01*
X127133013Y-114715713D01*
X127113644Y-114900000D01*
X113600500Y-114900000D01*
X113600500Y-114763389D01*
X113573402Y-114592299D01*
X113519873Y-114427555D01*
X113441232Y-114273212D01*
X113339414Y-114133072D01*
X113216928Y-114010586D01*
X113076788Y-113908768D01*
X112922445Y-113830127D01*
X112757701Y-113776598D01*
X112757699Y-113776597D01*
X112757698Y-113776597D01*
X112626271Y-113755781D01*
X112586611Y-113749500D01*
X111413389Y-113749500D01*
X111373728Y-113755781D01*
X111242302Y-113776597D01*
X111077552Y-113830128D01*
X110923211Y-113908768D01*
X110843256Y-113966859D01*
X110783072Y-114010586D01*
X110783070Y-114010588D01*
X110783069Y-114010588D01*
X110660588Y-114133069D01*
X110660588Y-114133070D01*
X110660586Y-114133072D01*
X110643183Y-114157025D01*
X110558768Y-114273211D01*
X110480128Y-114427552D01*
X110426597Y-114592302D01*
X110399500Y-114763389D01*
X107849934Y-114763389D01*
X107817816Y-114601918D01*
X107753703Y-114447137D01*
X107722537Y-114400494D01*
X107660626Y-114307837D01*
X107542162Y-114189373D01*
X107402860Y-114096295D01*
X107248082Y-114032184D01*
X107248074Y-114032182D01*
X107083771Y-113999500D01*
X107083767Y-113999500D01*
X106916233Y-113999500D01*
X106916228Y-113999500D01*
X106751925Y-114032182D01*
X106751917Y-114032184D01*
X106597139Y-114096295D01*
X106457837Y-114189373D01*
X106339373Y-114307837D01*
X106246295Y-114447139D01*
X106182184Y-114601917D01*
X106182182Y-114601925D01*
X106149500Y-114766228D01*
X105350499Y-114766228D01*
X105317816Y-114601918D01*
X105253703Y-114447137D01*
X105222537Y-114400494D01*
X105160626Y-114307837D01*
X105042162Y-114189373D01*
X104902860Y-114096295D01*
X104748082Y-114032184D01*
X104748074Y-114032182D01*
X104583771Y-113999500D01*
X104583767Y-113999500D01*
X104416233Y-113999500D01*
X104416228Y-113999500D01*
X104251925Y-114032182D01*
X104251917Y-114032184D01*
X104097139Y-114096295D01*
X103957837Y-114189373D01*
X103839373Y-114307837D01*
X103746295Y-114447139D01*
X103682184Y-114601917D01*
X103682182Y-114601925D01*
X103649500Y-114766228D01*
X100000000Y-114766228D01*
X100000000Y-110436571D01*
X105900000Y-110436571D01*
X105927085Y-110607584D01*
X105980591Y-110772257D01*
X106059195Y-110926524D01*
X106160967Y-111066602D01*
X106283397Y-111189032D01*
X106423475Y-111290804D01*
X106577744Y-111369408D01*
X106742415Y-111422914D01*
X106742414Y-111422914D01*
X106749999Y-111424115D01*
X107250000Y-111424115D01*
X107257584Y-111422914D01*
X107422255Y-111369408D01*
X107576524Y-111290804D01*
X107716602Y-111189032D01*
X107839032Y-111066602D01*
X107940804Y-110926524D01*
X108019408Y-110772257D01*
X108072914Y-110607584D01*
X108100000Y-110436571D01*
X108100000Y-110100000D01*
X107250000Y-110100000D01*
X107250000Y-111424115D01*
X106749999Y-111424115D01*
X106750000Y-111424114D01*
X106750000Y-110100000D01*
X105900000Y-110100000D01*
X105900000Y-110436571D01*
X100000000Y-110436571D01*
X100000000Y-109263428D01*
X105900000Y-109263428D01*
X105900000Y-109600000D01*
X106750000Y-109600000D01*
X106750000Y-109310218D01*
X106800000Y-109310218D01*
X106800000Y-110389782D01*
X106830448Y-110463291D01*
X106886709Y-110519552D01*
X106960218Y-110550000D01*
X107039782Y-110550000D01*
X107113291Y-110519552D01*
X107169552Y-110463291D01*
X107200000Y-110389782D01*
X107200000Y-109766228D01*
X111149500Y-109766228D01*
X111149500Y-109933771D01*
X111182182Y-110098074D01*
X111182184Y-110098082D01*
X111246295Y-110252860D01*
X111339373Y-110392162D01*
X111457837Y-110510626D01*
X111516765Y-110550000D01*
X111597137Y-110603703D01*
X111751918Y-110667816D01*
X111911206Y-110699500D01*
X111916228Y-110700499D01*
X111916232Y-110700500D01*
X111916233Y-110700500D01*
X112083768Y-110700500D01*
X112083769Y-110700499D01*
X112248082Y-110667816D01*
X112402863Y-110603703D01*
X112542162Y-110510626D01*
X112660626Y-110392162D01*
X112753703Y-110252863D01*
X112817816Y-110098082D01*
X112850500Y-109933767D01*
X112850500Y-109766233D01*
X112817816Y-109601918D01*
X112753703Y-109447137D01*
X112682991Y-109341309D01*
X112660626Y-109307837D01*
X112542162Y-109189373D01*
X112402860Y-109096295D01*
X112248082Y-109032184D01*
X112248074Y-109032182D01*
X112083771Y-108999500D01*
X112083767Y-108999500D01*
X111916233Y-108999500D01*
X111916228Y-108999500D01*
X111751925Y-109032182D01*
X111751917Y-109032184D01*
X111597139Y-109096295D01*
X111457837Y-109189373D01*
X111339373Y-109307837D01*
X111246295Y-109447139D01*
X111182184Y-109601917D01*
X111182182Y-109601925D01*
X111149500Y-109766228D01*
X107200000Y-109766228D01*
X107200000Y-109600000D01*
X107250000Y-109600000D01*
X108100000Y-109600000D01*
X108100000Y-109263428D01*
X108072914Y-109092415D01*
X108019408Y-108927742D01*
X107940804Y-108773475D01*
X107839032Y-108633397D01*
X107716602Y-108510967D01*
X107576524Y-108409195D01*
X107422257Y-108330591D01*
X107257589Y-108277087D01*
X107257581Y-108277085D01*
X107250000Y-108275884D01*
X107250000Y-109600000D01*
X107200000Y-109600000D01*
X107200000Y-109310218D01*
X107169552Y-109236709D01*
X107113291Y-109180448D01*
X107039782Y-109150000D01*
X106960218Y-109150000D01*
X106886709Y-109180448D01*
X106830448Y-109236709D01*
X106800000Y-109310218D01*
X106750000Y-109310218D01*
X106750000Y-108275884D01*
X106749999Y-108275884D01*
X106742418Y-108277085D01*
X106742410Y-108277087D01*
X106577742Y-108330591D01*
X106423475Y-108409195D01*
X106283397Y-108510967D01*
X106160967Y-108633397D01*
X106059195Y-108773475D01*
X105980591Y-108927742D01*
X105927085Y-109092415D01*
X105900000Y-109263428D01*
X100000000Y-109263428D01*
X100000000Y-104766228D01*
X103649500Y-104766228D01*
X103649500Y-104933771D01*
X103682182Y-105098074D01*
X103682184Y-105098082D01*
X103746295Y-105252860D01*
X103839373Y-105392162D01*
X103957837Y-105510626D01*
X104050494Y-105572537D01*
X104097137Y-105603703D01*
X104251918Y-105667816D01*
X104416228Y-105700499D01*
X104416232Y-105700500D01*
X104416233Y-105700500D01*
X104583768Y-105700500D01*
X104583769Y-105700499D01*
X104748082Y-105667816D01*
X104902863Y-105603703D01*
X105042162Y-105510626D01*
X105160626Y-105392162D01*
X105253703Y-105252863D01*
X105317816Y-105098082D01*
X105350500Y-104933767D01*
X105350500Y-104766233D01*
X105350499Y-104766228D01*
X106149500Y-104766228D01*
X106149500Y-104933771D01*
X106182182Y-105098074D01*
X106182184Y-105098082D01*
X106246295Y-105252860D01*
X106339373Y-105392162D01*
X106457837Y-105510626D01*
X106550494Y-105572537D01*
X106597137Y-105603703D01*
X106751918Y-105667816D01*
X106916228Y-105700499D01*
X106916232Y-105700500D01*
X106916233Y-105700500D01*
X107083768Y-105700500D01*
X107083769Y-105700499D01*
X107248082Y-105667816D01*
X107402863Y-105603703D01*
X107542162Y-105510626D01*
X107660626Y-105392162D01*
X107753703Y-105252863D01*
X107817816Y-105098082D01*
X107850500Y-104933767D01*
X107850500Y-104766233D01*
X107849934Y-104763389D01*
X110399500Y-104763389D01*
X110399500Y-104936611D01*
X110426598Y-105107701D01*
X110480127Y-105272445D01*
X110558768Y-105426788D01*
X110660586Y-105566928D01*
X110783072Y-105689414D01*
X110923212Y-105791232D01*
X111077555Y-105869873D01*
X111242299Y-105923402D01*
X111413389Y-105950500D01*
X111413390Y-105950500D01*
X112586610Y-105950500D01*
X112586611Y-105950500D01*
X112757701Y-105923402D01*
X112922445Y-105869873D01*
X113076788Y-105791232D01*
X113216928Y-105689414D01*
X113339414Y-105566928D01*
X113441232Y-105426788D01*
X113519873Y-105272445D01*
X113573402Y-105107701D01*
X113600500Y-104936611D01*
X113600500Y-104763389D01*
X113573402Y-104592299D01*
X113519873Y-104427555D01*
X113441232Y-104273212D01*
X113339414Y-104133072D01*
X113216928Y-104010586D01*
X113076788Y-103908768D01*
X113021966Y-103880835D01*
X112922447Y-103830128D01*
X112922446Y-103830127D01*
X112922445Y-103830127D01*
X112757701Y-103776598D01*
X112757699Y-103776597D01*
X112757698Y-103776597D01*
X112626271Y-103755781D01*
X112586611Y-103749500D01*
X111413389Y-103749500D01*
X111373728Y-103755781D01*
X111242302Y-103776597D01*
X111077552Y-103830128D01*
X110923211Y-103908768D01*
X110861905Y-103953310D01*
X110783072Y-104010586D01*
X110783070Y-104010588D01*
X110783069Y-104010588D01*
X110660588Y-104133069D01*
X110660588Y-104133070D01*
X110660586Y-104133072D01*
X110643183Y-104157025D01*
X110558768Y-104273211D01*
X110480128Y-104427552D01*
X110426597Y-104592302D01*
X110425074Y-104601918D01*
X110399500Y-104763389D01*
X107849934Y-104763389D01*
X107817816Y-104601918D01*
X107753703Y-104447137D01*
X107682991Y-104341309D01*
X107660626Y-104307837D01*
X107542162Y-104189373D01*
X107402860Y-104096295D01*
X107248082Y-104032184D01*
X107248074Y-104032182D01*
X107083771Y-103999500D01*
X107083767Y-103999500D01*
X106916233Y-103999500D01*
X106916228Y-103999500D01*
X106751925Y-104032182D01*
X106751917Y-104032184D01*
X106597139Y-104096295D01*
X106457837Y-104189373D01*
X106339373Y-104307837D01*
X106246295Y-104447139D01*
X106182184Y-104601917D01*
X106182182Y-104601925D01*
X106149500Y-104766228D01*
X105350499Y-104766228D01*
X105317816Y-104601918D01*
X105253703Y-104447137D01*
X105182991Y-104341309D01*
X105160626Y-104307837D01*
X105042162Y-104189373D01*
X104902860Y-104096295D01*
X104748082Y-104032184D01*
X104748074Y-104032182D01*
X104583771Y-103999500D01*
X104583767Y-103999500D01*
X104416233Y-103999500D01*
X104416228Y-103999500D01*
X104251925Y-104032182D01*
X104251917Y-104032184D01*
X104097139Y-104096295D01*
X103957837Y-104189373D01*
X103839373Y-104307837D01*
X103746295Y-104447139D01*
X103682184Y-104601917D01*
X103682182Y-104601925D01*
X103649500Y-104766228D01*
X100000000Y-104766228D01*
X100000000Y-87835692D01*
X138747100Y-87835692D01*
X138747100Y-87835695D01*
X138747100Y-141264305D01*
X138761483Y-141336611D01*
X138770061Y-141379737D01*
X138772191Y-141390445D01*
X138816664Y-141497812D01*
X138821408Y-141509264D01*
X138836862Y-141532393D01*
X138892862Y-141616204D01*
X138892863Y-141616205D01*
X139586937Y-142310278D01*
X139620422Y-142371601D01*
X139622576Y-142384994D01*
X139633013Y-142484284D01*
X139633014Y-142484286D01*
X139633014Y-142484288D01*
X139690274Y-142660514D01*
X139763343Y-142787074D01*
X139782923Y-142820987D01*
X139786732Y-142825217D01*
X139906906Y-142958686D01*
X139906909Y-142958688D01*
X139906912Y-142958691D01*
X140056822Y-143067607D01*
X140226095Y-143142973D01*
X140226098Y-143142973D01*
X140226101Y-143142975D01*
X140407351Y-143181500D01*
X140592649Y-143181500D01*
X140773899Y-143142975D01*
X140773902Y-143142973D01*
X140773904Y-143142973D01*
X140830922Y-143117586D01*
X140943178Y-143067607D01*
X141093088Y-142958691D01*
X141217077Y-142820987D01*
X141309726Y-142660513D01*
X141366987Y-142484284D01*
X141386356Y-142300000D01*
X141366987Y-142115716D01*
X141309726Y-141939487D01*
X141217077Y-141779013D01*
X141168514Y-141725078D01*
X141093093Y-141641313D01*
X141093090Y-141641311D01*
X141093089Y-141641310D01*
X141093088Y-141641309D01*
X140943178Y-141532393D01*
X140943177Y-141532392D01*
X140773904Y-141457026D01*
X140773896Y-141457024D01*
X140592649Y-141418500D01*
X140586181Y-141417820D01*
X140586321Y-141416479D01*
X140526163Y-141398815D01*
X140505521Y-141382181D01*
X140089219Y-140965878D01*
X140055734Y-140904555D01*
X140052900Y-140878197D01*
X140052900Y-113599994D01*
X141894357Y-113599994D01*
X141894357Y-113600005D01*
X141914890Y-113847812D01*
X141914892Y-113847824D01*
X141975936Y-114088881D01*
X142075826Y-114316606D01*
X142211833Y-114524782D01*
X142211836Y-114524785D01*
X142380256Y-114707738D01*
X142576491Y-114860474D01*
X142795190Y-114978828D01*
X143030386Y-115059571D01*
X143275665Y-115100500D01*
X143524335Y-115100500D01*
X143769614Y-115059571D01*
X144004810Y-114978828D01*
X144223509Y-114860474D01*
X144419744Y-114707738D01*
X144588164Y-114524785D01*
X144724173Y-114316607D01*
X144824063Y-114088881D01*
X144885108Y-113847821D01*
X144885109Y-113847812D01*
X144905643Y-113600005D01*
X144905643Y-113599994D01*
X144885109Y-113352187D01*
X144885107Y-113352175D01*
X144824063Y-113111118D01*
X144724173Y-112883393D01*
X144588166Y-112675217D01*
X144510377Y-112590716D01*
X144419744Y-112492262D01*
X144223509Y-112339526D01*
X144223507Y-112339525D01*
X144223506Y-112339524D01*
X144004811Y-112221172D01*
X144004802Y-112221169D01*
X143769616Y-112140429D01*
X143524335Y-112099500D01*
X143275665Y-112099500D01*
X143030383Y-112140429D01*
X142795197Y-112221169D01*
X142795188Y-112221172D01*
X142576493Y-112339524D01*
X142380257Y-112492261D01*
X142211833Y-112675217D01*
X142075826Y-112883393D01*
X141975936Y-113111118D01*
X141914892Y-113352175D01*
X141914890Y-113352187D01*
X141894357Y-113599994D01*
X140052900Y-113599994D01*
X140052900Y-102200000D01*
X146913644Y-102200000D01*
X146933013Y-102384286D01*
X146933014Y-102384288D01*
X146992282Y-102566694D01*
X146991145Y-102567063D01*
X147000000Y-102608715D01*
X147000000Y-123500000D01*
X168755638Y-123500000D01*
X168822677Y-123519685D01*
X168868432Y-123572489D01*
X168878376Y-123641647D01*
X168849351Y-123705203D01*
X168847789Y-123706971D01*
X168782921Y-123779014D01*
X168690274Y-123939485D01*
X168633014Y-124115711D01*
X168633013Y-124115713D01*
X168613644Y-124300000D01*
X168633013Y-124484286D01*
X168633014Y-124484288D01*
X168690274Y-124660514D01*
X168763343Y-124787074D01*
X168782923Y-124820987D01*
X168815249Y-124856888D01*
X168845479Y-124919879D01*
X168847100Y-124939861D01*
X168847100Y-129678196D01*
X168827415Y-129745235D01*
X168810784Y-129765875D01*
X168794481Y-129782179D01*
X168733159Y-129815665D01*
X168713811Y-129817745D01*
X168713819Y-129817820D01*
X168707350Y-129818500D01*
X168526103Y-129857024D01*
X168526095Y-129857026D01*
X168356822Y-129932392D01*
X168206909Y-130041311D01*
X168206906Y-130041313D01*
X168082922Y-130179014D01*
X167990274Y-130339485D01*
X167933014Y-130515711D01*
X167933013Y-130515713D01*
X167913644Y-130700000D01*
X167933013Y-130884286D01*
X167933014Y-130884288D01*
X167990274Y-131060514D01*
X168061733Y-131184284D01*
X168082923Y-131220987D01*
X168105544Y-131246110D01*
X168206906Y-131358686D01*
X168206909Y-131358688D01*
X168206912Y-131358691D01*
X168356822Y-131467607D01*
X168526095Y-131542973D01*
X168526098Y-131542973D01*
X168526101Y-131542975D01*
X168707351Y-131581500D01*
X168892649Y-131581500D01*
X169073899Y-131542975D01*
X169073902Y-131542973D01*
X169073904Y-131542973D01*
X169130922Y-131517586D01*
X169243178Y-131467607D01*
X169393088Y-131358691D01*
X169517077Y-131220987D01*
X169609726Y-131060513D01*
X169666987Y-130884284D01*
X169677422Y-130784994D01*
X169704005Y-130720383D01*
X169713043Y-130710296D01*
X170007140Y-130416200D01*
X170078592Y-130309264D01*
X170127809Y-130190444D01*
X170131237Y-130173212D01*
X170152900Y-130064305D01*
X170152900Y-124939861D01*
X170172585Y-124872822D01*
X170184751Y-124856888D01*
X170217077Y-124820987D01*
X170309726Y-124660513D01*
X170366987Y-124484284D01*
X170386356Y-124300000D01*
X170366987Y-124115716D01*
X170309726Y-123939487D01*
X170309725Y-123939485D01*
X170217078Y-123779014D01*
X170152211Y-123706971D01*
X170121982Y-123643980D01*
X170130608Y-123574644D01*
X170175349Y-123520979D01*
X170242002Y-123500022D01*
X170244362Y-123500000D01*
X183500000Y-123500000D01*
X183500000Y-112990522D01*
X183519685Y-112923483D01*
X183520194Y-112922697D01*
X183524173Y-112916607D01*
X183624063Y-112688881D01*
X183685108Y-112447821D01*
X183694082Y-112339524D01*
X183705643Y-112200005D01*
X183705643Y-112199994D01*
X183685109Y-111952187D01*
X183685107Y-111952175D01*
X183624063Y-111711118D01*
X183524173Y-111483392D01*
X183520189Y-111477294D01*
X183500003Y-111410404D01*
X183500000Y-111409476D01*
X183500000Y-107382695D01*
X190769500Y-107382695D01*
X190769500Y-107617304D01*
X190806201Y-107849027D01*
X190878697Y-108072150D01*
X190878699Y-108072153D01*
X190983118Y-108277087D01*
X190985212Y-108281195D01*
X191123104Y-108470989D01*
X191123108Y-108470994D01*
X191289005Y-108636891D01*
X191289010Y-108636895D01*
X191432725Y-108741309D01*
X191478808Y-108774790D01*
X191683357Y-108879013D01*
X191687849Y-108881302D01*
X191799410Y-108917550D01*
X191910974Y-108953799D01*
X192142695Y-108990500D01*
X192142696Y-108990500D01*
X194357304Y-108990500D01*
X194357305Y-108990500D01*
X194589026Y-108953799D01*
X194812153Y-108881301D01*
X195021192Y-108774790D01*
X195210996Y-108636890D01*
X195376890Y-108470996D01*
X195514790Y-108281192D01*
X195621301Y-108072153D01*
X195693799Y-107849026D01*
X195730500Y-107617305D01*
X195730500Y-107382695D01*
X195693799Y-107150974D01*
X195621301Y-106927847D01*
X195514790Y-106718808D01*
X195469902Y-106657025D01*
X195376895Y-106529010D01*
X195376891Y-106529005D01*
X195210994Y-106363108D01*
X195210989Y-106363104D01*
X195021195Y-106225212D01*
X195021194Y-106225211D01*
X195021192Y-106225210D01*
X194916672Y-106171954D01*
X194812150Y-106118697D01*
X194589027Y-106046201D01*
X194473165Y-106027850D01*
X194357305Y-106009500D01*
X192142695Y-106009500D01*
X192065454Y-106021733D01*
X191910972Y-106046201D01*
X191687849Y-106118697D01*
X191478804Y-106225212D01*
X191289010Y-106363104D01*
X191289005Y-106363108D01*
X191123108Y-106529005D01*
X191123104Y-106529010D01*
X190985212Y-106718804D01*
X190878697Y-106927849D01*
X190806201Y-107150972D01*
X190769500Y-107382695D01*
X183500000Y-107382695D01*
X183500000Y-102250000D01*
X190791023Y-102250000D01*
X192639175Y-102250000D01*
X192615364Y-102307485D01*
X192590000Y-102434996D01*
X192590000Y-102565004D01*
X192615364Y-102692515D01*
X192639175Y-102750000D01*
X190791023Y-102750000D01*
X190806688Y-102848905D01*
X190806688Y-102848906D01*
X190879164Y-103071963D01*
X190985638Y-103280930D01*
X191123494Y-103470672D01*
X191289327Y-103636505D01*
X191479069Y-103774361D01*
X191688034Y-103880835D01*
X191911090Y-103953310D01*
X192142735Y-103990000D01*
X193000000Y-103990000D01*
X193000000Y-103110824D01*
X193057485Y-103134636D01*
X193184996Y-103160000D01*
X193315004Y-103160000D01*
X193442515Y-103134636D01*
X193500000Y-103110824D01*
X193500000Y-103990000D01*
X194357265Y-103990000D01*
X194588909Y-103953310D01*
X194811965Y-103880835D01*
X195020930Y-103774361D01*
X195210672Y-103636505D01*
X195376505Y-103470672D01*
X195514361Y-103280930D01*
X195620835Y-103071963D01*
X195693311Y-102848906D01*
X195693311Y-102848905D01*
X195708977Y-102750000D01*
X193860825Y-102750000D01*
X193884636Y-102692515D01*
X193910000Y-102565004D01*
X193910000Y-102434996D01*
X193884636Y-102307485D01*
X193860825Y-102250000D01*
X195708977Y-102250000D01*
X195693311Y-102151094D01*
X195693311Y-102151093D01*
X195620835Y-101928036D01*
X195514361Y-101719069D01*
X195376505Y-101529327D01*
X195210672Y-101363494D01*
X195020930Y-101225638D01*
X194811965Y-101119164D01*
X194588909Y-101046689D01*
X194357265Y-101010000D01*
X193500000Y-101010000D01*
X193500000Y-101889175D01*
X193442515Y-101865364D01*
X193315004Y-101840000D01*
X193184996Y-101840000D01*
X193057485Y-101865364D01*
X193000000Y-101889175D01*
X193000000Y-101010000D01*
X192142735Y-101010000D01*
X191911090Y-101046689D01*
X191688034Y-101119164D01*
X191479069Y-101225638D01*
X191289327Y-101363494D01*
X191123494Y-101529327D01*
X190985638Y-101719069D01*
X190879164Y-101928036D01*
X190806688Y-102151093D01*
X190806688Y-102151094D01*
X190791023Y-102250000D01*
X183500000Y-102250000D01*
X183500000Y-97250000D01*
X190791023Y-97250000D01*
X192639175Y-97250000D01*
X192615364Y-97307485D01*
X192590000Y-97434996D01*
X192590000Y-97565004D01*
X192615364Y-97692515D01*
X192639175Y-97750000D01*
X190791023Y-97750000D01*
X190806688Y-97848905D01*
X190806688Y-97848906D01*
X190879164Y-98071963D01*
X190985638Y-98280930D01*
X191123494Y-98470672D01*
X191289327Y-98636505D01*
X191479069Y-98774361D01*
X191688034Y-98880835D01*
X191911090Y-98953310D01*
X192142735Y-98990000D01*
X193000000Y-98990000D01*
X193000000Y-98110824D01*
X193057485Y-98134636D01*
X193184996Y-98160000D01*
X193315004Y-98160000D01*
X193442515Y-98134636D01*
X193500000Y-98110824D01*
X193500000Y-98990000D01*
X194357265Y-98990000D01*
X194588909Y-98953310D01*
X194811965Y-98880835D01*
X195020930Y-98774361D01*
X195210672Y-98636505D01*
X195376505Y-98470672D01*
X195514361Y-98280930D01*
X195620835Y-98071963D01*
X195693311Y-97848906D01*
X195693311Y-97848905D01*
X195708977Y-97750000D01*
X193860825Y-97750000D01*
X193884636Y-97692515D01*
X193910000Y-97565004D01*
X193910000Y-97434996D01*
X193884636Y-97307485D01*
X193860825Y-97250000D01*
X195708977Y-97250000D01*
X195693311Y-97151094D01*
X195693311Y-97151093D01*
X195620835Y-96928036D01*
X195514361Y-96719069D01*
X195376505Y-96529327D01*
X195210672Y-96363494D01*
X195020930Y-96225638D01*
X194811965Y-96119164D01*
X194588909Y-96046689D01*
X194357265Y-96010000D01*
X193500000Y-96010000D01*
X193500000Y-96889175D01*
X193442515Y-96865364D01*
X193315004Y-96840000D01*
X193184996Y-96840000D01*
X193057485Y-96865364D01*
X193000000Y-96889175D01*
X193000000Y-96010000D01*
X192142735Y-96010000D01*
X191911090Y-96046689D01*
X191688034Y-96119164D01*
X191479069Y-96225638D01*
X191289327Y-96363494D01*
X191123494Y-96529327D01*
X190985638Y-96719069D01*
X190879164Y-96928036D01*
X190806688Y-97151093D01*
X190806688Y-97151094D01*
X190791023Y-97250000D01*
X183500000Y-97250000D01*
X183500000Y-91462135D01*
X190769500Y-91462135D01*
X190769500Y-93537870D01*
X190769501Y-93537876D01*
X190775908Y-93597483D01*
X190826202Y-93732328D01*
X190826206Y-93732335D01*
X190912452Y-93847544D01*
X190912455Y-93847547D01*
X191027664Y-93933793D01*
X191027671Y-93933797D01*
X191162517Y-93984091D01*
X191162516Y-93984091D01*
X191169444Y-93984835D01*
X191222127Y-93990500D01*
X195277872Y-93990499D01*
X195337483Y-93984091D01*
X195472331Y-93933796D01*
X195587546Y-93847546D01*
X195673796Y-93732331D01*
X195724091Y-93597483D01*
X195730500Y-93537873D01*
X195730499Y-91462128D01*
X195724091Y-91402517D01*
X195723152Y-91400000D01*
X195673797Y-91267671D01*
X195673793Y-91267664D01*
X195587547Y-91152455D01*
X195587544Y-91152452D01*
X195472335Y-91066206D01*
X195472328Y-91066202D01*
X195337482Y-91015908D01*
X195337483Y-91015908D01*
X195277883Y-91009501D01*
X195277881Y-91009500D01*
X195277873Y-91009500D01*
X195277864Y-91009500D01*
X191222129Y-91009500D01*
X191222123Y-91009501D01*
X191162516Y-91015908D01*
X191027671Y-91066202D01*
X191027664Y-91066206D01*
X190912455Y-91152452D01*
X190912452Y-91152455D01*
X190826206Y-91267664D01*
X190826202Y-91267671D01*
X190775908Y-91402517D01*
X190769501Y-91462116D01*
X190769501Y-91462123D01*
X190769500Y-91462135D01*
X183500000Y-91462135D01*
X183500000Y-88673223D01*
X183500424Y-88662982D01*
X183505643Y-88600004D01*
X183505643Y-88599995D01*
X183500424Y-88537016D01*
X183500000Y-88526775D01*
X183500000Y-76000000D01*
X147000000Y-76000000D01*
X147000000Y-101791284D01*
X146991148Y-101832939D01*
X146992282Y-101833308D01*
X146990274Y-101839485D01*
X146990274Y-101839487D01*
X146981866Y-101865364D01*
X146933013Y-102015714D01*
X146913644Y-102200000D01*
X140052900Y-102200000D01*
X140052900Y-88221803D01*
X140072585Y-88154764D01*
X140089219Y-88134122D01*
X141034122Y-87189219D01*
X141095445Y-87155734D01*
X141121803Y-87152900D01*
X141967463Y-87152900D01*
X142034502Y-87172585D01*
X142071978Y-87212995D01*
X142073022Y-87212314D01*
X142211833Y-87424782D01*
X142211836Y-87424785D01*
X142380256Y-87607738D01*
X142576491Y-87760474D01*
X142795190Y-87878828D01*
X143030386Y-87959571D01*
X143275665Y-88000500D01*
X143524335Y-88000500D01*
X143769614Y-87959571D01*
X144004810Y-87878828D01*
X144223509Y-87760474D01*
X144419744Y-87607738D01*
X144588164Y-87424785D01*
X144724173Y-87216607D01*
X144824063Y-86988881D01*
X144885108Y-86747821D01*
X144905643Y-86500000D01*
X144885108Y-86252179D01*
X144824063Y-86011119D01*
X144816053Y-85992859D01*
X144724173Y-85783393D01*
X144588166Y-85575217D01*
X144566557Y-85551744D01*
X144419744Y-85392262D01*
X144223509Y-85239526D01*
X144223507Y-85239525D01*
X144223506Y-85239524D01*
X144004811Y-85121172D01*
X144004802Y-85121169D01*
X143769616Y-85040429D01*
X143524335Y-84999500D01*
X143275665Y-84999500D01*
X143030383Y-85040429D01*
X142795197Y-85121169D01*
X142795188Y-85121172D01*
X142576493Y-85239524D01*
X142380257Y-85392261D01*
X142211833Y-85575217D01*
X142073022Y-85787686D01*
X142071785Y-85786878D01*
X142027316Y-85831698D01*
X141967463Y-85847100D01*
X140735693Y-85847100D01*
X140609561Y-85872189D01*
X140609555Y-85872191D01*
X140490737Y-85921407D01*
X140383795Y-85992862D01*
X138892862Y-87483795D01*
X138821407Y-87590737D01*
X138772191Y-87709555D01*
X138772189Y-87709561D01*
X138747100Y-87835692D01*
X100000000Y-87835692D01*
X100000000Y-79042494D01*
X101076857Y-79042494D01*
X101076857Y-79042505D01*
X101097390Y-79290312D01*
X101097392Y-79290324D01*
X101158436Y-79531381D01*
X101258326Y-79759106D01*
X101394333Y-79967282D01*
X101394336Y-79967285D01*
X101562756Y-80150238D01*
X101758991Y-80302974D01*
X101977690Y-80421328D01*
X102212886Y-80502071D01*
X102458165Y-80543000D01*
X102706835Y-80543000D01*
X102952114Y-80502071D01*
X103187310Y-80421328D01*
X103406009Y-80302974D01*
X103602244Y-80150238D01*
X103770664Y-79967285D01*
X103906673Y-79759107D01*
X104006563Y-79531381D01*
X104067608Y-79290321D01*
X104072408Y-79232393D01*
X104088143Y-79042505D01*
X104088143Y-79042494D01*
X104067609Y-78794687D01*
X104067607Y-78794675D01*
X104006563Y-78553618D01*
X103906673Y-78325893D01*
X103770666Y-78117717D01*
X103736859Y-78080993D01*
X103602244Y-77934762D01*
X103406009Y-77782026D01*
X103406007Y-77782025D01*
X103406006Y-77782024D01*
X103187311Y-77663672D01*
X103187302Y-77663669D01*
X102952116Y-77582929D01*
X102706835Y-77542000D01*
X102458165Y-77542000D01*
X102212883Y-77582929D01*
X101977697Y-77663669D01*
X101977688Y-77663672D01*
X101758993Y-77782024D01*
X101562757Y-77934761D01*
X101394333Y-78117717D01*
X101258326Y-78325893D01*
X101158436Y-78553618D01*
X101097392Y-78794675D01*
X101097390Y-78794687D01*
X101076857Y-79042494D01*
X100000000Y-79042494D01*
X100000000Y-77042499D01*
X105476841Y-77042499D01*
X105476841Y-77042500D01*
X105497436Y-77277903D01*
X105497438Y-77277913D01*
X105558594Y-77506155D01*
X105558596Y-77506159D01*
X105558597Y-77506163D01*
X105658465Y-77720330D01*
X105658467Y-77720334D01*
X105701665Y-77782026D01*
X105794005Y-77913901D01*
X105961099Y-78080995D01*
X106057884Y-78148765D01*
X106154665Y-78216532D01*
X106154667Y-78216533D01*
X106154670Y-78216535D01*
X106368837Y-78316403D01*
X106368843Y-78316404D01*
X106368844Y-78316405D01*
X106406994Y-78326627D01*
X106597092Y-78377563D01*
X106785418Y-78394039D01*
X106832499Y-78398159D01*
X106832500Y-78398159D01*
X106832501Y-78398159D01*
X106849363Y-78396683D01*
X107033965Y-78380532D01*
X107102462Y-78394298D01*
X107152645Y-78442913D01*
X107168579Y-78510942D01*
X107159588Y-78548600D01*
X107160100Y-78548776D01*
X107158436Y-78553620D01*
X107097392Y-78794675D01*
X107097390Y-78794687D01*
X107076857Y-79042494D01*
X107076857Y-79042505D01*
X107097390Y-79290312D01*
X107097392Y-79290324D01*
X107158436Y-79531381D01*
X107258326Y-79759106D01*
X107394333Y-79967282D01*
X107394336Y-79967285D01*
X107562756Y-80150238D01*
X107758991Y-80302974D01*
X107977690Y-80421328D01*
X108212886Y-80502071D01*
X108458165Y-80543000D01*
X108706835Y-80543000D01*
X108952114Y-80502071D01*
X109187310Y-80421328D01*
X109406009Y-80302974D01*
X109602244Y-80150238D01*
X109770664Y-79967285D01*
X109906673Y-79759107D01*
X110006563Y-79531381D01*
X110067608Y-79290321D01*
X110072408Y-79232393D01*
X110088143Y-79042505D01*
X110088143Y-79042494D01*
X110067609Y-78794687D01*
X110067607Y-78794675D01*
X110006563Y-78553618D01*
X109906673Y-78325893D01*
X109770666Y-78117717D01*
X109736859Y-78080993D01*
X109602244Y-77934762D01*
X109406009Y-77782026D01*
X109406007Y-77782025D01*
X109406006Y-77782024D01*
X109187311Y-77663672D01*
X109187302Y-77663669D01*
X108952116Y-77582929D01*
X108706835Y-77542000D01*
X108458165Y-77542000D01*
X108269940Y-77573408D01*
X108200575Y-77565026D01*
X108146753Y-77520473D01*
X108125563Y-77453894D01*
X108129756Y-77419006D01*
X108157432Y-77315716D01*
X108167563Y-77277908D01*
X108188159Y-77042500D01*
X108167563Y-76807092D01*
X108106403Y-76578837D01*
X108006535Y-76364671D01*
X107870995Y-76171099D01*
X107870994Y-76171097D01*
X107703902Y-76004006D01*
X107703895Y-76004001D01*
X107510334Y-75868467D01*
X107510330Y-75868465D01*
X107510328Y-75868464D01*
X107296163Y-75768597D01*
X107296159Y-75768596D01*
X107296155Y-75768594D01*
X107067913Y-75707438D01*
X107067903Y-75707436D01*
X106832501Y-75686841D01*
X106832499Y-75686841D01*
X106597096Y-75707436D01*
X106597086Y-75707438D01*
X106368844Y-75768594D01*
X106368835Y-75768598D01*
X106154671Y-75868464D01*
X106154669Y-75868465D01*
X105961097Y-76004005D01*
X105794005Y-76171097D01*
X105658465Y-76364669D01*
X105658464Y-76364671D01*
X105558598Y-76578835D01*
X105558594Y-76578844D01*
X105497438Y-76807086D01*
X105497436Y-76807096D01*
X105476841Y-77042499D01*
X100000000Y-77042499D01*
X100000000Y-73042499D01*
X105476841Y-73042499D01*
X105476841Y-73042500D01*
X105497436Y-73277903D01*
X105497438Y-73277913D01*
X105558594Y-73506155D01*
X105558596Y-73506159D01*
X105558597Y-73506163D01*
X105645718Y-73692993D01*
X105658465Y-73720330D01*
X105658467Y-73720334D01*
X105766781Y-73875021D01*
X105794005Y-73913901D01*
X105961099Y-74080995D01*
X106057884Y-74148765D01*
X106154665Y-74216532D01*
X106154667Y-74216533D01*
X106154670Y-74216535D01*
X106368837Y-74316403D01*
X106597092Y-74377563D01*
X106785418Y-74394039D01*
X106832499Y-74398159D01*
X106832500Y-74398159D01*
X106832501Y-74398159D01*
X106871734Y-74394726D01*
X107067908Y-74377563D01*
X107296163Y-74316403D01*
X107510330Y-74216535D01*
X107703901Y-74080995D01*
X107870995Y-73913901D01*
X108006535Y-73720330D01*
X108106403Y-73506163D01*
X108108056Y-73499994D01*
X176494859Y-73499994D01*
X176494859Y-73500005D01*
X176515385Y-73747729D01*
X176515387Y-73747738D01*
X176576412Y-73988717D01*
X176676267Y-74216367D01*
X176776562Y-74369881D01*
X177517037Y-73629408D01*
X177534075Y-73692993D01*
X177599901Y-73807007D01*
X177692993Y-73900099D01*
X177807007Y-73965925D01*
X177870591Y-73982962D01*
X177129943Y-74723609D01*
X177176768Y-74760055D01*
X177176771Y-74760057D01*
X177395385Y-74878364D01*
X177395396Y-74878369D01*
X177630506Y-74959083D01*
X177875707Y-75000000D01*
X178124293Y-75000000D01*
X178369493Y-74959083D01*
X178604603Y-74878369D01*
X178604614Y-74878364D01*
X178823230Y-74760056D01*
X178823236Y-74760051D01*
X178870055Y-74723610D01*
X178870056Y-74723609D01*
X178129408Y-73982962D01*
X178192993Y-73965925D01*
X178307007Y-73900099D01*
X178400099Y-73807007D01*
X178465925Y-73692993D01*
X178482962Y-73629408D01*
X179223435Y-74369882D01*
X179323733Y-74216364D01*
X179423587Y-73988717D01*
X179484612Y-73747738D01*
X179484614Y-73747729D01*
X179505141Y-73500005D01*
X179505141Y-73499994D01*
X179484614Y-73252270D01*
X179484612Y-73252261D01*
X179423587Y-73011282D01*
X179323732Y-72783632D01*
X179223435Y-72630116D01*
X178482962Y-73370590D01*
X178465925Y-73307007D01*
X178400099Y-73192993D01*
X178307007Y-73099901D01*
X178192993Y-73034075D01*
X178129409Y-73017037D01*
X178870055Y-72276389D01*
X178870055Y-72276388D01*
X178823236Y-72239947D01*
X178823231Y-72239944D01*
X178604614Y-72121635D01*
X178604603Y-72121630D01*
X178369493Y-72040916D01*
X178124293Y-72000000D01*
X177875707Y-72000000D01*
X177630506Y-72040916D01*
X177395396Y-72121630D01*
X177395385Y-72121635D01*
X177176770Y-72239943D01*
X177129943Y-72276389D01*
X177870591Y-73017037D01*
X177807007Y-73034075D01*
X177692993Y-73099901D01*
X177599901Y-73192993D01*
X177534075Y-73307007D01*
X177517037Y-73370591D01*
X176776563Y-72630117D01*
X176676267Y-72783633D01*
X176676265Y-72783637D01*
X176576412Y-73011282D01*
X176515387Y-73252261D01*
X176515385Y-73252270D01*
X176494859Y-73499994D01*
X108108056Y-73499994D01*
X108167563Y-73277908D01*
X108188159Y-73042500D01*
X108167563Y-72807092D01*
X108106403Y-72578837D01*
X108006535Y-72364671D01*
X107870995Y-72171099D01*
X107870994Y-72171097D01*
X107703902Y-72004006D01*
X107703895Y-72004001D01*
X107510334Y-71868467D01*
X107510330Y-71868465D01*
X107510328Y-71868464D01*
X107296163Y-71768597D01*
X107296159Y-71768596D01*
X107296155Y-71768594D01*
X107067913Y-71707438D01*
X107067903Y-71707436D01*
X106832501Y-71686841D01*
X106832499Y-71686841D01*
X106597096Y-71707436D01*
X106597086Y-71707438D01*
X106368844Y-71768594D01*
X106368835Y-71768598D01*
X106154671Y-71868464D01*
X106154669Y-71868465D01*
X105961097Y-72004005D01*
X105794005Y-72171097D01*
X105658465Y-72364669D01*
X105658464Y-72364671D01*
X105558598Y-72578835D01*
X105558594Y-72578844D01*
X105497438Y-72807086D01*
X105497436Y-72807096D01*
X105476841Y-73042499D01*
X100000000Y-73042499D01*
X100000000Y-69042499D01*
X105476841Y-69042499D01*
X105476841Y-69042500D01*
X105497436Y-69277903D01*
X105497438Y-69277913D01*
X105558594Y-69506155D01*
X105558596Y-69506159D01*
X105558597Y-69506163D01*
X105658465Y-69720330D01*
X105658467Y-69720334D01*
X105766781Y-69875021D01*
X105794005Y-69913901D01*
X105961099Y-70080995D01*
X106057884Y-70148765D01*
X106154665Y-70216532D01*
X106154667Y-70216533D01*
X106154670Y-70216535D01*
X106368837Y-70316403D01*
X106597092Y-70377563D01*
X106785418Y-70394039D01*
X106832499Y-70398159D01*
X106832500Y-70398159D01*
X106832501Y-70398159D01*
X106871734Y-70394726D01*
X107067908Y-70377563D01*
X107296163Y-70316403D01*
X107510330Y-70216535D01*
X107703901Y-70080995D01*
X107870995Y-69913901D01*
X108006535Y-69720330D01*
X108106403Y-69506163D01*
X108167563Y-69277908D01*
X108188159Y-69042500D01*
X108167563Y-68807092D01*
X108129756Y-68665992D01*
X108131419Y-68596143D01*
X108170582Y-68538281D01*
X108234810Y-68510777D01*
X108269936Y-68511590D01*
X108458165Y-68543000D01*
X108458166Y-68543000D01*
X108706835Y-68543000D01*
X108952114Y-68502071D01*
X109187310Y-68421328D01*
X109406009Y-68302974D01*
X109602244Y-68150238D01*
X109770664Y-67967285D01*
X109906673Y-67759107D01*
X110006563Y-67531381D01*
X110067608Y-67290321D01*
X110088143Y-67042500D01*
X110067608Y-66794679D01*
X110006563Y-66553619D01*
X109906673Y-66325893D01*
X109853035Y-66243793D01*
X109770666Y-66117717D01*
X109701265Y-66042328D01*
X109602244Y-65934762D01*
X109406009Y-65782026D01*
X109406007Y-65782025D01*
X109406006Y-65782024D01*
X109187311Y-65663672D01*
X109187302Y-65663669D01*
X108952116Y-65582929D01*
X108706835Y-65542000D01*
X108458165Y-65542000D01*
X108212883Y-65582929D01*
X107977697Y-65663669D01*
X107977688Y-65663672D01*
X107758993Y-65782024D01*
X107562757Y-65934761D01*
X107394333Y-66117717D01*
X107258326Y-66325893D01*
X107158436Y-66553618D01*
X107097392Y-66794675D01*
X107097390Y-66794687D01*
X107076857Y-67042494D01*
X107076857Y-67042505D01*
X107097390Y-67290312D01*
X107097392Y-67290324D01*
X107158436Y-67531379D01*
X107160100Y-67536224D01*
X107159031Y-67536590D01*
X107167226Y-67600446D01*
X107137240Y-67663554D01*
X107077895Y-67700433D01*
X107033962Y-67704467D01*
X106832501Y-67686841D01*
X106832499Y-67686841D01*
X106597096Y-67707436D01*
X106597086Y-67707438D01*
X106368844Y-67768594D01*
X106368835Y-67768598D01*
X106154671Y-67868464D01*
X106154669Y-67868465D01*
X105961097Y-68004005D01*
X105794005Y-68171097D01*
X105658465Y-68364669D01*
X105658464Y-68364671D01*
X105558598Y-68578835D01*
X105558594Y-68578844D01*
X105497438Y-68807086D01*
X105497436Y-68807096D01*
X105476841Y-69042499D01*
X100000000Y-69042499D01*
X100000000Y-67042494D01*
X101076857Y-67042494D01*
X101076857Y-67042505D01*
X101097390Y-67290312D01*
X101097392Y-67290324D01*
X101158436Y-67531381D01*
X101258326Y-67759106D01*
X101394333Y-67967282D01*
X101394336Y-67967285D01*
X101562756Y-68150238D01*
X101758991Y-68302974D01*
X101977690Y-68421328D01*
X102212886Y-68502071D01*
X102458165Y-68543000D01*
X102706835Y-68543000D01*
X102952114Y-68502071D01*
X103187310Y-68421328D01*
X103406009Y-68302974D01*
X103602244Y-68150238D01*
X103770664Y-67967285D01*
X103906673Y-67759107D01*
X104006563Y-67531381D01*
X104067608Y-67290321D01*
X104088143Y-67042500D01*
X104067608Y-66794679D01*
X104006563Y-66553619D01*
X103906673Y-66325893D01*
X103853035Y-66243793D01*
X103770666Y-66117717D01*
X103701265Y-66042328D01*
X103602244Y-65934762D01*
X103406009Y-65782026D01*
X103406007Y-65782025D01*
X103406006Y-65782024D01*
X103187311Y-65663672D01*
X103187302Y-65663669D01*
X102952116Y-65582929D01*
X102706835Y-65542000D01*
X102458165Y-65542000D01*
X102212883Y-65582929D01*
X101977697Y-65663669D01*
X101977688Y-65663672D01*
X101758993Y-65782024D01*
X101562757Y-65934761D01*
X101394333Y-66117717D01*
X101258326Y-66325893D01*
X101158436Y-66553618D01*
X101097392Y-66794675D01*
X101097390Y-66794687D01*
X101076857Y-67042494D01*
X100000000Y-67042494D01*
X100000000Y-61499995D01*
X110994953Y-61499995D01*
X110994953Y-61500004D01*
X111015113Y-61769026D01*
X111015113Y-61769028D01*
X111075142Y-62032033D01*
X111075148Y-62032052D01*
X111173709Y-62283181D01*
X111173708Y-62283181D01*
X111308600Y-62516818D01*
X111362294Y-62584150D01*
X111362295Y-62584150D01*
X112084152Y-61862292D01*
X112091049Y-61878942D01*
X112178599Y-62009970D01*
X112290030Y-62121401D01*
X112421058Y-62208951D01*
X112437706Y-62215846D01*
X111714848Y-62938703D01*
X111897476Y-63063216D01*
X111897485Y-63063221D01*
X112140539Y-63180269D01*
X112140537Y-63180269D01*
X112398337Y-63259790D01*
X112398343Y-63259792D01*
X112665101Y-63299999D01*
X112665110Y-63300000D01*
X112934890Y-63300000D01*
X112934898Y-63299999D01*
X113201656Y-63259792D01*
X113201662Y-63259790D01*
X113459461Y-63180269D01*
X113517882Y-63152135D01*
X115699500Y-63152135D01*
X115699500Y-65847870D01*
X115699501Y-65847876D01*
X115705908Y-65907483D01*
X115756202Y-66042328D01*
X115756206Y-66042335D01*
X115842452Y-66157544D01*
X115842455Y-66157547D01*
X115957664Y-66243793D01*
X115957671Y-66243797D01*
X116092517Y-66294091D01*
X116092516Y-66294091D01*
X116099444Y-66294835D01*
X116152127Y-66300500D01*
X118847872Y-66300499D01*
X118907483Y-66294091D01*
X119042331Y-66243796D01*
X119157546Y-66157546D01*
X119243796Y-66042331D01*
X119294091Y-65907483D01*
X119300500Y-65847873D01*
X119300499Y-63152128D01*
X119294091Y-63092517D01*
X119283164Y-63063221D01*
X119243797Y-62957671D01*
X119243793Y-62957664D01*
X119157547Y-62842455D01*
X119157544Y-62842452D01*
X119042335Y-62756206D01*
X119042328Y-62756202D01*
X118907482Y-62705908D01*
X118907483Y-62705908D01*
X118847883Y-62699501D01*
X118847881Y-62699500D01*
X118847873Y-62699500D01*
X118847864Y-62699500D01*
X116152129Y-62699500D01*
X116152123Y-62699501D01*
X116092516Y-62705908D01*
X115957671Y-62756202D01*
X115957664Y-62756206D01*
X115842455Y-62842452D01*
X115842452Y-62842455D01*
X115756206Y-62957664D01*
X115756202Y-62957671D01*
X115705908Y-63092517D01*
X115699501Y-63152116D01*
X115699501Y-63152123D01*
X115699500Y-63152135D01*
X113517882Y-63152135D01*
X113702516Y-63063221D01*
X113702517Y-63063220D01*
X113885150Y-62938703D01*
X113162293Y-62215847D01*
X113178942Y-62208951D01*
X113309970Y-62121401D01*
X113421401Y-62009970D01*
X113508951Y-61878942D01*
X113515847Y-61862293D01*
X114237703Y-62584150D01*
X114237704Y-62584149D01*
X114291400Y-62516818D01*
X114426290Y-62283181D01*
X114524851Y-62032052D01*
X114524857Y-62032033D01*
X114584886Y-61769028D01*
X114584886Y-61769026D01*
X114605047Y-61500004D01*
X114605047Y-61499995D01*
X114584886Y-61230973D01*
X114584886Y-61230971D01*
X114524857Y-60967966D01*
X114524851Y-60967947D01*
X114426290Y-60716818D01*
X114426291Y-60716818D01*
X114291400Y-60483182D01*
X114291393Y-60483171D01*
X114237704Y-60415849D01*
X114237703Y-60415848D01*
X113515846Y-61137705D01*
X113508951Y-61121058D01*
X113421401Y-60990030D01*
X113309970Y-60878599D01*
X113178942Y-60791049D01*
X113162293Y-60784152D01*
X113885150Y-60061295D01*
X113702524Y-59936783D01*
X113702516Y-59936778D01*
X113459460Y-59819730D01*
X113459462Y-59819730D01*
X113201662Y-59740209D01*
X113201656Y-59740207D01*
X112934898Y-59700000D01*
X112665101Y-59700000D01*
X112398343Y-59740207D01*
X112398337Y-59740209D01*
X112140538Y-59819730D01*
X111897482Y-59936780D01*
X111897469Y-59936787D01*
X111714848Y-60061294D01*
X112437706Y-60784152D01*
X112421058Y-60791049D01*
X112290030Y-60878599D01*
X112178599Y-60990030D01*
X112091049Y-61121058D01*
X112084152Y-61137706D01*
X111362294Y-60415848D01*
X111308602Y-60483177D01*
X111173709Y-60716818D01*
X111075148Y-60967947D01*
X111075142Y-60967966D01*
X111015113Y-61230971D01*
X111015113Y-61230973D01*
X110994953Y-61499995D01*
X100000000Y-61499995D01*
X100000000Y-58499995D01*
X115694953Y-58499995D01*
X115694953Y-58500004D01*
X115715113Y-58769026D01*
X115715113Y-58769028D01*
X115775142Y-59032033D01*
X115775148Y-59032052D01*
X115873709Y-59283181D01*
X115873708Y-59283181D01*
X116008600Y-59516818D01*
X116062294Y-59584150D01*
X116062295Y-59584150D01*
X116784152Y-58862292D01*
X116791049Y-58878942D01*
X116878599Y-59009970D01*
X116990030Y-59121401D01*
X117121058Y-59208951D01*
X117137706Y-59215846D01*
X116414848Y-59938703D01*
X116597476Y-60063216D01*
X116597485Y-60063221D01*
X116840539Y-60180269D01*
X116840537Y-60180269D01*
X117098337Y-60259790D01*
X117098343Y-60259792D01*
X117365101Y-60299999D01*
X117365110Y-60300000D01*
X117634890Y-60300000D01*
X117634898Y-60299999D01*
X117901656Y-60259792D01*
X117901662Y-60259790D01*
X118159461Y-60180269D01*
X118402516Y-60063221D01*
X118402517Y-60063220D01*
X118585150Y-59938703D01*
X117862293Y-59215847D01*
X117878942Y-59208951D01*
X118009970Y-59121401D01*
X118121401Y-59009970D01*
X118208951Y-58878942D01*
X118215847Y-58862293D01*
X118937703Y-59584150D01*
X118937704Y-59584149D01*
X118991400Y-59516818D01*
X119126290Y-59283181D01*
X119224851Y-59032052D01*
X119224857Y-59032033D01*
X119284886Y-58769028D01*
X119284886Y-58769026D01*
X119305047Y-58500004D01*
X119305047Y-58499995D01*
X119284886Y-58230973D01*
X119284886Y-58230971D01*
X119224857Y-57967966D01*
X119224851Y-57967947D01*
X119126290Y-57716818D01*
X119126291Y-57716818D01*
X118991400Y-57483182D01*
X118991393Y-57483171D01*
X118937704Y-57415849D01*
X118937703Y-57415848D01*
X118215846Y-58137705D01*
X118208951Y-58121058D01*
X118121401Y-57990030D01*
X118009970Y-57878599D01*
X117878942Y-57791049D01*
X117862293Y-57784152D01*
X118585150Y-57061295D01*
X118402524Y-56936783D01*
X118402516Y-56936778D01*
X118159460Y-56819730D01*
X118159462Y-56819730D01*
X117901662Y-56740209D01*
X117901656Y-56740207D01*
X117634898Y-56700000D01*
X117365101Y-56700000D01*
X117098343Y-56740207D01*
X117098337Y-56740209D01*
X116840538Y-56819730D01*
X116597482Y-56936780D01*
X116597469Y-56936787D01*
X116414848Y-57061294D01*
X117137706Y-57784152D01*
X117121058Y-57791049D01*
X116990030Y-57878599D01*
X116878599Y-57990030D01*
X116791049Y-58121058D01*
X116784152Y-58137706D01*
X116062294Y-57415848D01*
X116008602Y-57483177D01*
X115873709Y-57716818D01*
X115775148Y-57967947D01*
X115775142Y-57967966D01*
X115715113Y-58230971D01*
X115715113Y-58230973D01*
X115694953Y-58499995D01*
X100000000Y-58499995D01*
X100000000Y-55000710D01*
X100000007Y-54999358D01*
X100000007Y-54999357D01*
X100001323Y-54878711D01*
X103149500Y-54878711D01*
X103149500Y-55121288D01*
X103181161Y-55361785D01*
X103243947Y-55596104D01*
X103336773Y-55820205D01*
X103336776Y-55820212D01*
X103458064Y-56030289D01*
X103458066Y-56030292D01*
X103458067Y-56030293D01*
X103605733Y-56222736D01*
X103605739Y-56222743D01*
X103777256Y-56394260D01*
X103777263Y-56394266D01*
X103890321Y-56481018D01*
X103969711Y-56541936D01*
X104179788Y-56663224D01*
X104403900Y-56756054D01*
X104638211Y-56818838D01*
X104818586Y-56842584D01*
X104878711Y-56850500D01*
X104878712Y-56850500D01*
X105121289Y-56850500D01*
X105169388Y-56844167D01*
X105361789Y-56818838D01*
X105596100Y-56756054D01*
X105820212Y-56663224D01*
X106030289Y-56541936D01*
X106222738Y-56394265D01*
X106394265Y-56222738D01*
X106541936Y-56030289D01*
X106621376Y-55892695D01*
X126274500Y-55892695D01*
X126274500Y-58107304D01*
X126311201Y-58339027D01*
X126383697Y-58562150D01*
X126436954Y-58666672D01*
X126489107Y-58769028D01*
X126490212Y-58771195D01*
X126628104Y-58960989D01*
X126628108Y-58960994D01*
X126794005Y-59126891D01*
X126794010Y-59126895D01*
X126906952Y-59208951D01*
X126983808Y-59264790D01*
X127125895Y-59337187D01*
X127192849Y-59371302D01*
X127304410Y-59407550D01*
X127415974Y-59443799D01*
X127647695Y-59480500D01*
X127647696Y-59480500D01*
X127882304Y-59480500D01*
X127882305Y-59480500D01*
X128114026Y-59443799D01*
X128337153Y-59371301D01*
X128546192Y-59264790D01*
X128735996Y-59126890D01*
X128901890Y-58960996D01*
X129039790Y-58771192D01*
X129146301Y-58562153D01*
X129218799Y-58339026D01*
X129255500Y-58107305D01*
X129255500Y-55892695D01*
X129218799Y-55660974D01*
X129146301Y-55437847D01*
X129039790Y-55228808D01*
X128961673Y-55121288D01*
X128901895Y-55039010D01*
X128901891Y-55039005D01*
X128835041Y-54972155D01*
X131275000Y-54972155D01*
X131275000Y-56750000D01*
X132154175Y-56750000D01*
X132130364Y-56807485D01*
X132105000Y-56934996D01*
X132105000Y-57065004D01*
X132130364Y-57192515D01*
X132154175Y-57250000D01*
X131275000Y-57250000D01*
X131275000Y-59027844D01*
X131281401Y-59087372D01*
X131281403Y-59087379D01*
X131331645Y-59222086D01*
X131331649Y-59222093D01*
X131417809Y-59337187D01*
X131417812Y-59337190D01*
X131532906Y-59423350D01*
X131532913Y-59423354D01*
X131667620Y-59473596D01*
X131667627Y-59473598D01*
X131727155Y-59479999D01*
X131727172Y-59480000D01*
X132515000Y-59480000D01*
X132515000Y-57610824D01*
X132572485Y-57634636D01*
X132699996Y-57660000D01*
X132830004Y-57660000D01*
X132957515Y-57634636D01*
X133015000Y-57610824D01*
X133015000Y-59480000D01*
X133802828Y-59480000D01*
X133802844Y-59479999D01*
X133862372Y-59473598D01*
X133862379Y-59473596D01*
X133997086Y-59423354D01*
X133997093Y-59423350D01*
X134112187Y-59337190D01*
X134112190Y-59337187D01*
X134198350Y-59222093D01*
X134198354Y-59222086D01*
X134248596Y-59087379D01*
X134248598Y-59087372D01*
X134254999Y-59027844D01*
X134255000Y-59027827D01*
X134255000Y-57250000D01*
X133375825Y-57250000D01*
X133399636Y-57192515D01*
X133425000Y-57065004D01*
X133425000Y-56934996D01*
X133399636Y-56807485D01*
X133375825Y-56750000D01*
X134255000Y-56750000D01*
X134255000Y-54972172D01*
X134254999Y-54972155D01*
X134248598Y-54912627D01*
X134248596Y-54912620D01*
X134235949Y-54878711D01*
X193149500Y-54878711D01*
X193149500Y-55121288D01*
X193181161Y-55361785D01*
X193243947Y-55596104D01*
X193336773Y-55820205D01*
X193336776Y-55820212D01*
X193458064Y-56030289D01*
X193458066Y-56030292D01*
X193458067Y-56030293D01*
X193605733Y-56222736D01*
X193605739Y-56222743D01*
X193777256Y-56394260D01*
X193777263Y-56394266D01*
X193890321Y-56481018D01*
X193969711Y-56541936D01*
X194179788Y-56663224D01*
X194403900Y-56756054D01*
X194638211Y-56818838D01*
X194818586Y-56842584D01*
X194878711Y-56850500D01*
X194878712Y-56850500D01*
X195121289Y-56850500D01*
X195169388Y-56844167D01*
X195361789Y-56818838D01*
X195596100Y-56756054D01*
X195820212Y-56663224D01*
X196030289Y-56541936D01*
X196222738Y-56394265D01*
X196394265Y-56222738D01*
X196541936Y-56030289D01*
X196663224Y-55820212D01*
X196756054Y-55596100D01*
X196818838Y-55361789D01*
X196850500Y-55121288D01*
X196850500Y-54878712D01*
X196849762Y-54873110D01*
X196838364Y-54786527D01*
X196818838Y-54638211D01*
X196756054Y-54403900D01*
X196663224Y-54179788D01*
X196541936Y-53969711D01*
X196394265Y-53777262D01*
X196394260Y-53777256D01*
X196222743Y-53605739D01*
X196222736Y-53605733D01*
X196030293Y-53458067D01*
X196030292Y-53458066D01*
X196030289Y-53458064D01*
X195820212Y-53336776D01*
X195820205Y-53336773D01*
X195596104Y-53243947D01*
X195361785Y-53181161D01*
X195121289Y-53149500D01*
X195121288Y-53149500D01*
X194878712Y-53149500D01*
X194878711Y-53149500D01*
X194638214Y-53181161D01*
X194403895Y-53243947D01*
X194179794Y-53336773D01*
X194179785Y-53336777D01*
X193969706Y-53458067D01*
X193777263Y-53605733D01*
X193777256Y-53605739D01*
X193605739Y-53777256D01*
X193605733Y-53777263D01*
X193458067Y-53969706D01*
X193336777Y-54179785D01*
X193336773Y-54179794D01*
X193243947Y-54403895D01*
X193181161Y-54638214D01*
X193149500Y-54878711D01*
X134235949Y-54878711D01*
X134198354Y-54777913D01*
X134198350Y-54777906D01*
X134112190Y-54662812D01*
X134112187Y-54662809D01*
X133997093Y-54576649D01*
X133997086Y-54576645D01*
X133862379Y-54526403D01*
X133862372Y-54526401D01*
X133802844Y-54520000D01*
X133015000Y-54520000D01*
X133015000Y-56389175D01*
X132957515Y-56365364D01*
X132830004Y-56340000D01*
X132699996Y-56340000D01*
X132572485Y-56365364D01*
X132515000Y-56389175D01*
X132515000Y-54520000D01*
X131727155Y-54520000D01*
X131667627Y-54526401D01*
X131667620Y-54526403D01*
X131532913Y-54576645D01*
X131532906Y-54576649D01*
X131417812Y-54662809D01*
X131417809Y-54662812D01*
X131331649Y-54777906D01*
X131331645Y-54777913D01*
X131281403Y-54912620D01*
X131281401Y-54912627D01*
X131275000Y-54972155D01*
X128835041Y-54972155D01*
X128735994Y-54873108D01*
X128735989Y-54873104D01*
X128546195Y-54735212D01*
X128546194Y-54735211D01*
X128546192Y-54735210D01*
X128441672Y-54681954D01*
X128337150Y-54628697D01*
X128114027Y-54556201D01*
X127998165Y-54537850D01*
X127882305Y-54519500D01*
X127647695Y-54519500D01*
X127570454Y-54531733D01*
X127415972Y-54556201D01*
X127192849Y-54628697D01*
X126983804Y-54735212D01*
X126794010Y-54873104D01*
X126794005Y-54873108D01*
X126628108Y-55039005D01*
X126628104Y-55039010D01*
X126490212Y-55228804D01*
X126383697Y-55437849D01*
X126311201Y-55660972D01*
X126274500Y-55892695D01*
X106621376Y-55892695D01*
X106663224Y-55820212D01*
X106756054Y-55596100D01*
X106818838Y-55361789D01*
X106850500Y-55121288D01*
X106850500Y-54878712D01*
X106849762Y-54873110D01*
X106838364Y-54786527D01*
X106818838Y-54638211D01*
X106756054Y-54403900D01*
X106663224Y-54179788D01*
X106541936Y-53969711D01*
X106394265Y-53777262D01*
X106394260Y-53777256D01*
X106222743Y-53605739D01*
X106222736Y-53605733D01*
X106030293Y-53458067D01*
X106030292Y-53458066D01*
X106030289Y-53458064D01*
X105820212Y-53336776D01*
X105820205Y-53336773D01*
X105596104Y-53243947D01*
X105361785Y-53181161D01*
X105121289Y-53149500D01*
X105121288Y-53149500D01*
X104878712Y-53149500D01*
X104878711Y-53149500D01*
X104638214Y-53181161D01*
X104403895Y-53243947D01*
X104179794Y-53336773D01*
X104179785Y-53336777D01*
X103969706Y-53458067D01*
X103777263Y-53605733D01*
X103777256Y-53605739D01*
X103605739Y-53777256D01*
X103605733Y-53777263D01*
X103458067Y-53969706D01*
X103336777Y-54179785D01*
X103336773Y-54179794D01*
X103243947Y-54403895D01*
X103181161Y-54638214D01*
X103149500Y-54878711D01*
X100001323Y-54878711D01*
X100002328Y-54786517D01*
X100002793Y-54777073D01*
X100006456Y-54735212D01*
X100039943Y-54352444D01*
X100041355Y-54341725D01*
X100115257Y-53922602D01*
X100117589Y-53912083D01*
X100227749Y-53500959D01*
X100230989Y-53490683D01*
X100376558Y-53090736D01*
X100380679Y-53080786D01*
X100560552Y-52695047D01*
X100565532Y-52685480D01*
X100778332Y-52316900D01*
X100784125Y-52307806D01*
X101028246Y-51959165D01*
X101034812Y-51950609D01*
X101308394Y-51624566D01*
X101315681Y-51616615D01*
X101616615Y-51315681D01*
X101624566Y-51308394D01*
X101950609Y-51034812D01*
X101959165Y-51028246D01*
X102307806Y-50784125D01*
X102316900Y-50778332D01*
X102685480Y-50565532D01*
X102695047Y-50560552D01*
X103080786Y-50380679D01*
X103090736Y-50376558D01*
X103490683Y-50230989D01*
X103500959Y-50227749D01*
X103912083Y-50117589D01*
X103922602Y-50115257D01*
X104341732Y-50041353D01*
X104352444Y-50039943D01*
X104777085Y-50002792D01*
X104786517Y-50002328D01*
X104999358Y-50000006D01*
X105000710Y-50000000D01*
X194999290Y-50000000D01*
X195000641Y-50000006D01*
G37*
%TD.AperFunction*%
%TD*%
M02*
