M48
; DRILL file {KiCad 9.0.6} date 2026-02-23T09:06:42-0500
; FORMAT={-:-/ absolute / metric / decimal}
; #@! TF.CreationDate,2026-02-23T09:06:42-05:00
; #@! TF.GenerationSoftware,Kicad,Pcbnew,9.0.6
; #@! TF.FileFunction,Plated,1,2,PTH
FMAT,2
METRIC
; #@! TA.AperFunction,Plated,PTH,ViaDrill
T1C0.381
; #@! TA.AperFunction,Plated,PTH,ComponentDrill
T2C0.400
; #@! TA.AperFunction,Plated,PTH,ViaDrill
T3C0.635
; #@! TA.AperFunction,Plated,PTH,ComponentDrill
T4C0.900
; #@! TA.AperFunction,Plated,PTH,ComponentDrill
T5C1.000
; #@! TA.AperFunction,Plated,PTH,ComponentDrill
T6C1.200
; #@! TA.AperFunction,Plated,PTH,ComponentDrill
T7C1.300
; #@! TA.AperFunction,Plated,PTH,ComponentDrill
T8C1.320
; #@! TA.AperFunction,Plated,PTH,ComponentDrill
T9C1.600
%
G90
G05
T1
X116.55Y-100.2
X130.0Y-55.0
X135.05Y-110.45
X141.6Y-116.8
X142.5Y-55.0
X142.5Y-72.5
X145.0Y-65.0
X145.5Y-105.5
X145.8Y-58.85
X147.8Y-102.2
X148.7Y-98.7
X148.8Y-103.2
X149.6Y-105.0
X149.6Y-107.5
X149.7Y-97.5
X149.8Y-92.5
X149.8Y-95.0
X150.0Y-51.0
X150.0Y-55.0
X150.0Y-60.0
X150.0Y-65.0
X150.0Y-85.0
X150.0Y-115.0
X150.0Y-135.0
X150.0Y-140.0
X150.0Y-145.0
X150.6Y-109.4
X150.7Y-90.7
X150.7Y-130.5
X152.5Y-60.0
X152.5Y-90.15
X152.5Y-110.5
X155.0Y-110.5
X155.0Y-140.8
X155.2Y-58.8
X155.2Y-90.15
X156.65Y-78.8
X157.4Y-148.2
X158.0Y-51.0
X159.055Y-138.375
X159.185Y-112.775
X159.25Y-60.0
X159.265Y-88.975
X161.25Y-121.25
X161.83Y-140.8
X161.975Y-108.575
X162.0Y-64.0
X162.0Y-93.6
X162.0Y-110.35
X162.0Y-131.7
X162.025Y-57.575
X162.04Y-91.4
X162.5Y-148.1
X162.55Y-81.7
X164.605Y-138.375
X164.735Y-112.775
X164.8Y-60.0
X164.815Y-88.975
X165.0Y-51.0
X166.2Y-124.95
X166.2Y-129.95
X166.25Y-121.5
X168.8Y-58.8
X168.84Y-140.8
X169.0Y-90.2
X169.0Y-110.6
X170.0Y-80.0
X172.0Y-51.0
X172.5Y-82.5
X172.5Y-127.5
X172.5Y-142.5
X172.5Y-147.5
X173.8Y-136.0
X175.0Y-80.0
X175.0Y-85.0
X175.0Y-90.0
X175.0Y-95.0
X175.0Y-105.0
X175.0Y-110.0
X175.0Y-115.0
X177.0Y-51.0
X180.0Y-85.0
X180.0Y-90.0
X180.0Y-95.0
X180.0Y-105.0
X180.0Y-110.0
X180.0Y-115.0
X180.0Y-120.0
X180.0Y-125.0
X180.0Y-130.0
X180.0Y-135.0
X181.0Y-51.0
X187.0Y-51.0
X190.0Y-147.5
X197.5Y-122.5
X197.5Y-127.5
X197.5Y-132.5
X197.5Y-137.5
X197.5Y-142.5
T3
X103.9Y-70.8
X103.9Y-72.933
X103.9Y-75.067
X114.95Y-52.0
X117.083Y-52.0
X119.217Y-52.0
X121.35Y-52.0
X150.423Y-100.65
X152.669Y-100.65
X154.915Y-100.65
X157.162Y-100.65
X159.408Y-100.65
X161.654Y-100.65
X163.9Y-100.65
X166.146Y-100.65
X168.392Y-100.7
X170.638Y-100.7
X172.885Y-100.7
X175.131Y-100.7
X177.377Y-100.7
X179.623Y-100.7
T4
X106.832Y-69.043
X106.832Y-73.042
X106.832Y-77.042
T5
X108.55Y-124.65
X108.6Y-92.05
X108.6Y-108.3
X111.95Y-144.4
X122.9Y-126.25
X131.75Y-78.95
X134.627Y-65.725
X137.167Y-65.725
X137.9Y-115.45
X143.45Y-85.8
X190.2Y-53.4
X196.75Y-118.55
X197.45Y-81.9
T6
X102.582Y-67.043
X102.582Y-79.042
X106.812Y-133.1
X106.812Y-135.6
X106.812Y-138.1
X108.582Y-67.043
X108.582Y-79.042
X109.312Y-133.1
X109.312Y-135.6
X109.312Y-138.1
X133.2Y-137.882
X137.2Y-142.382
X141.2Y-139.132
T7
X189.82Y-108.16
X189.87Y-92.25
X189.87Y-113.4
X189.9Y-87.0
X194.9Y-108.16
X194.95Y-92.25
X194.95Y-113.4
X194.98Y-87.0
T8
X133.9Y-56.55
X138.9Y-56.55
T9
X113.55Y-61.15
X118.25Y-58.15
X118.25Y-64.15
T2
G00X106.5Y-99.7
M15
G01X106.5Y-100.7
M16
G05
G00X112.0Y-95.2
M15
G01X111.0Y-95.2
M16
G05
G00X111.0Y-105.2
M15
G01X112.0Y-105.2
M16
G05
M30
