%TF.GenerationSoftware,KiCad,Pcbnew,8.0.4*%
%TF.CreationDate,2024-08-01T01:15:24-04:00*%
%TF.ProjectId,555_toggle-switch_v2,3535355f-746f-4676-976c-652d73776974,rev?*%
%TF.SameCoordinates,Original*%
%TF.FileFunction,Legend,Bot*%
%TF.FilePolarity,Positive*%
%FSLAX46Y46*%
G04 Gerber Fmt 4.6, Leading zero omitted, Abs format (unit mm)*
G04 Created by KiCad (PCBNEW 8.0.4) date 2024-08-01 01:15:24*
%MOMM*%
%LPD*%
G01*
G04 APERTURE LIST*
%ADD10C,0.200000*%
%ADD11C,0.000000*%
G04 APERTURE END LIST*
D10*
X125182126Y-101083332D02*
X126432126Y-101083332D01*
X126432126Y-101083332D02*
X125182126Y-100369047D01*
X125182126Y-100369047D02*
X126432126Y-100369047D01*
X125836888Y-99773808D02*
X125836888Y-99357142D01*
X125182126Y-99178570D02*
X125182126Y-99773808D01*
X125182126Y-99773808D02*
X126432126Y-99773808D01*
X126432126Y-99773808D02*
X126432126Y-99178570D01*
X126432126Y-98047618D02*
X126432126Y-98642856D01*
X126432126Y-98642856D02*
X125836888Y-98702380D01*
X125836888Y-98702380D02*
X125896411Y-98642856D01*
X125896411Y-98642856D02*
X125955935Y-98523809D01*
X125955935Y-98523809D02*
X125955935Y-98226190D01*
X125955935Y-98226190D02*
X125896411Y-98107142D01*
X125896411Y-98107142D02*
X125836888Y-98047618D01*
X125836888Y-98047618D02*
X125717840Y-97988095D01*
X125717840Y-97988095D02*
X125420221Y-97988095D01*
X125420221Y-97988095D02*
X125301173Y-98047618D01*
X125301173Y-98047618D02*
X125241650Y-98107142D01*
X125241650Y-98107142D02*
X125182126Y-98226190D01*
X125182126Y-98226190D02*
X125182126Y-98523809D01*
X125182126Y-98523809D02*
X125241650Y-98642856D01*
X125241650Y-98642856D02*
X125301173Y-98702380D01*
X126432126Y-96857142D02*
X126432126Y-97452380D01*
X126432126Y-97452380D02*
X125836888Y-97511904D01*
X125836888Y-97511904D02*
X125896411Y-97452380D01*
X125896411Y-97452380D02*
X125955935Y-97333333D01*
X125955935Y-97333333D02*
X125955935Y-97035714D01*
X125955935Y-97035714D02*
X125896411Y-96916666D01*
X125896411Y-96916666D02*
X125836888Y-96857142D01*
X125836888Y-96857142D02*
X125717840Y-96797619D01*
X125717840Y-96797619D02*
X125420221Y-96797619D01*
X125420221Y-96797619D02*
X125301173Y-96857142D01*
X125301173Y-96857142D02*
X125241650Y-96916666D01*
X125241650Y-96916666D02*
X125182126Y-97035714D01*
X125182126Y-97035714D02*
X125182126Y-97333333D01*
X125182126Y-97333333D02*
X125241650Y-97452380D01*
X125241650Y-97452380D02*
X125301173Y-97511904D01*
X126432126Y-95666666D02*
X126432126Y-96261904D01*
X126432126Y-96261904D02*
X125836888Y-96321428D01*
X125836888Y-96321428D02*
X125896411Y-96261904D01*
X125896411Y-96261904D02*
X125955935Y-96142857D01*
X125955935Y-96142857D02*
X125955935Y-95845238D01*
X125955935Y-95845238D02*
X125896411Y-95726190D01*
X125896411Y-95726190D02*
X125836888Y-95666666D01*
X125836888Y-95666666D02*
X125717840Y-95607143D01*
X125717840Y-95607143D02*
X125420221Y-95607143D01*
X125420221Y-95607143D02*
X125301173Y-95666666D01*
X125301173Y-95666666D02*
X125241650Y-95726190D01*
X125241650Y-95726190D02*
X125182126Y-95845238D01*
X125182126Y-95845238D02*
X125182126Y-96142857D01*
X125182126Y-96142857D02*
X125241650Y-96261904D01*
X125241650Y-96261904D02*
X125301173Y-96321428D01*
X125182126Y-95071428D02*
X126432126Y-95071428D01*
X126432126Y-95071428D02*
X126432126Y-94773809D01*
X126432126Y-94773809D02*
X126372602Y-94595238D01*
X126372602Y-94595238D02*
X126253554Y-94476190D01*
X126253554Y-94476190D02*
X126134507Y-94416667D01*
X126134507Y-94416667D02*
X125896411Y-94357143D01*
X125896411Y-94357143D02*
X125717840Y-94357143D01*
X125717840Y-94357143D02*
X125479745Y-94416667D01*
X125479745Y-94416667D02*
X125360697Y-94476190D01*
X125360697Y-94476190D02*
X125241650Y-94595238D01*
X125241650Y-94595238D02*
X125182126Y-94773809D01*
X125182126Y-94773809D02*
X125182126Y-95071428D01*
G36*
X131848907Y-105072695D02*
G01*
X119316042Y-105072695D01*
X119316042Y-104020314D01*
X119482709Y-104020314D01*
X119482709Y-104806028D01*
X119484630Y-104825537D01*
X119499562Y-104861585D01*
X119527152Y-104889175D01*
X119563200Y-104904107D01*
X119602218Y-104904107D01*
X119638266Y-104889175D01*
X119665856Y-104861585D01*
X119680788Y-104825537D01*
X119682709Y-104806028D01*
X119682709Y-104043920D01*
X119728672Y-103951992D01*
X119820601Y-103906028D01*
X119987672Y-103906028D01*
X120094903Y-103959644D01*
X120125566Y-103990306D01*
X120125566Y-104806028D01*
X120127487Y-104825537D01*
X120142419Y-104861585D01*
X120170009Y-104889175D01*
X120206057Y-104904107D01*
X120245075Y-104904107D01*
X120281123Y-104889175D01*
X120308713Y-104861585D01*
X120323645Y-104825537D01*
X120325566Y-104806028D01*
X120325566Y-103864950D01*
X120769208Y-103864950D01*
X120771974Y-103903870D01*
X120789423Y-103938769D01*
X120818900Y-103964333D01*
X120855916Y-103976672D01*
X120894836Y-103973906D01*
X120913145Y-103966900D01*
X121034887Y-103906028D01*
X121273386Y-103906028D01*
X121380617Y-103959644D01*
X121429094Y-104008120D01*
X121482708Y-104115348D01*
X121482708Y-104496707D01*
X121429094Y-104603934D01*
X121380614Y-104652414D01*
X121273387Y-104706028D01*
X121034887Y-104706028D01*
X120913144Y-104645157D01*
X120894836Y-104638151D01*
X120855915Y-104635385D01*
X120818900Y-104647724D01*
X120789423Y-104673289D01*
X120771974Y-104708187D01*
X120769208Y-104747108D01*
X120781547Y-104784123D01*
X120807112Y-104813600D01*
X120823702Y-104824043D01*
X120966559Y-104895471D01*
X120984868Y-104902477D01*
X120988450Y-104902731D01*
X120991771Y-104904107D01*
X121011280Y-104906028D01*
X121296994Y-104906028D01*
X121316503Y-104904107D01*
X121319823Y-104902731D01*
X121323407Y-104902477D01*
X121341715Y-104895471D01*
X121484572Y-104824043D01*
X121492970Y-104818756D01*
X121495408Y-104817747D01*
X121498151Y-104815495D01*
X121501163Y-104813600D01*
X121502895Y-104811602D01*
X121510562Y-104805311D01*
X121581991Y-104733882D01*
X121588285Y-104726211D01*
X121590280Y-104724482D01*
X121592173Y-104721474D01*
X121594427Y-104718728D01*
X121595437Y-104716288D01*
X121600723Y-104707892D01*
X121672151Y-104565035D01*
X121679157Y-104546726D01*
X121679411Y-104543143D01*
X121680787Y-104539823D01*
X121682708Y-104520314D01*
X121682708Y-104091742D01*
X121680787Y-104072233D01*
X121679411Y-104068912D01*
X121679157Y-104065330D01*
X121672151Y-104047021D01*
X121600723Y-103904164D01*
X121595438Y-103895768D01*
X121594427Y-103893327D01*
X121592171Y-103890579D01*
X121590280Y-103887574D01*
X121588285Y-103885843D01*
X121581990Y-103878174D01*
X121510561Y-103806746D01*
X121502894Y-103800453D01*
X121501163Y-103798457D01*
X121498155Y-103796563D01*
X121495408Y-103794309D01*
X121492966Y-103793297D01*
X121484572Y-103788014D01*
X121481582Y-103786519D01*
X121913201Y-103786519D01*
X121913201Y-103825537D01*
X121928133Y-103861585D01*
X121955723Y-103889175D01*
X121991771Y-103904107D01*
X122011280Y-103906028D01*
X122268423Y-103906028D01*
X122268423Y-104568135D01*
X122222458Y-104660064D01*
X122130530Y-104706028D01*
X122011280Y-104706028D01*
X121991771Y-104707949D01*
X121955723Y-104722881D01*
X121928133Y-104750471D01*
X121913201Y-104786519D01*
X121913201Y-104825537D01*
X121928133Y-104861585D01*
X121955723Y-104889175D01*
X121991771Y-104904107D01*
X122011280Y-104906028D01*
X122154137Y-104906028D01*
X122173646Y-104904107D01*
X122176966Y-104902731D01*
X122180550Y-104902477D01*
X122198858Y-104895471D01*
X122341715Y-104824043D01*
X122344978Y-104821988D01*
X122346517Y-104821476D01*
X122348432Y-104819814D01*
X122358306Y-104813600D01*
X122366521Y-104804127D01*
X122375994Y-104795912D01*
X122382208Y-104786038D01*
X122383870Y-104784123D01*
X122384382Y-104782584D01*
X122386437Y-104779321D01*
X122457866Y-104636463D01*
X122464872Y-104618155D01*
X122465126Y-104614571D01*
X122466502Y-104611251D01*
X122468423Y-104591742D01*
X122468423Y-103906028D01*
X122582708Y-103906028D01*
X122602217Y-103904107D01*
X122638265Y-103889175D01*
X122665855Y-103861585D01*
X122680787Y-103825537D01*
X122680787Y-103806028D01*
X122982709Y-103806028D01*
X122982709Y-104806028D01*
X122984630Y-104825537D01*
X122999562Y-104861585D01*
X123027152Y-104889175D01*
X123063200Y-104904107D01*
X123102218Y-104904107D01*
X123138266Y-104889175D01*
X123165856Y-104861585D01*
X123180788Y-104825537D01*
X123182709Y-104806028D01*
X123182709Y-103814214D01*
X123554473Y-103814214D01*
X123557986Y-103833500D01*
X123843700Y-104833500D01*
X123850906Y-104851731D01*
X123854876Y-104856732D01*
X123857389Y-104862595D01*
X123866900Y-104871877D01*
X123875167Y-104882290D01*
X123880744Y-104885388D01*
X123885313Y-104889847D01*
X123897657Y-104894785D01*
X123909275Y-104901239D01*
X123915613Y-104901967D01*
X123921540Y-104904338D01*
X123934831Y-104904175D01*
X123948038Y-104905693D01*
X123954177Y-104903938D01*
X123960555Y-104903861D01*
X123972765Y-104898628D01*
X123985555Y-104894974D01*
X123990556Y-104891003D01*
X123996419Y-104888491D01*
X124005698Y-104878982D01*
X124016114Y-104870714D01*
X124019214Y-104865133D01*
X124023671Y-104860567D01*
X124032700Y-104843167D01*
X124225566Y-104361000D01*
X124418433Y-104843167D01*
X124427463Y-104860568D01*
X124431920Y-104865135D01*
X124435019Y-104870713D01*
X124445428Y-104878977D01*
X124454714Y-104888492D01*
X124460579Y-104891005D01*
X124465578Y-104894974D01*
X124478360Y-104898626D01*
X124490578Y-104903862D01*
X124496958Y-104903939D01*
X124503095Y-104905693D01*
X124516299Y-104904175D01*
X124529593Y-104904338D01*
X124535519Y-104901967D01*
X124541858Y-104901239D01*
X124553475Y-104894785D01*
X124565820Y-104889847D01*
X124570388Y-104885388D01*
X124575966Y-104882290D01*
X124584230Y-104871880D01*
X124593745Y-104862595D01*
X124596258Y-104856729D01*
X124600227Y-104851731D01*
X124607433Y-104833500D01*
X124737731Y-104377457D01*
X125196994Y-104377457D01*
X125196994Y-104520314D01*
X125198915Y-104539823D01*
X125200290Y-104543143D01*
X125200545Y-104546727D01*
X125207551Y-104565036D01*
X125278980Y-104707892D01*
X125284266Y-104716290D01*
X125285276Y-104718728D01*
X125287527Y-104721471D01*
X125289423Y-104724483D01*
X125291420Y-104726215D01*
X125297712Y-104733882D01*
X125369141Y-104805311D01*
X125376811Y-104811605D01*
X125378541Y-104813600D01*
X125381548Y-104815493D01*
X125384295Y-104817747D01*
X125386734Y-104818757D01*
X125395131Y-104824043D01*
X125537988Y-104895471D01*
X125556297Y-104902477D01*
X125559879Y-104902731D01*
X125563200Y-104904107D01*
X125582709Y-104906028D01*
X125939852Y-104906028D01*
X125949725Y-104905055D01*
X125952359Y-104905243D01*
X125955822Y-104904455D01*
X125959361Y-104904107D01*
X125961803Y-104903095D01*
X125971475Y-104900896D01*
X126185760Y-104829468D01*
X126203660Y-104821477D01*
X126233136Y-104795912D01*
X126250586Y-104761013D01*
X126253352Y-104722093D01*
X126241014Y-104685077D01*
X126215449Y-104655601D01*
X126180550Y-104638151D01*
X126141630Y-104635385D01*
X126122514Y-104639732D01*
X125923625Y-104706028D01*
X125606316Y-104706028D01*
X125499088Y-104652414D01*
X125450608Y-104603934D01*
X125396994Y-104496705D01*
X125396994Y-104401065D01*
X125450608Y-104293836D01*
X125499088Y-104245356D01*
X125617614Y-104186092D01*
X125709300Y-104163171D01*
X127768422Y-104163171D01*
X127768422Y-104520314D01*
X127770343Y-104539823D01*
X127771718Y-104543143D01*
X127771973Y-104546727D01*
X127778979Y-104565036D01*
X127850408Y-104707892D01*
X127855694Y-104716290D01*
X127856704Y-104718728D01*
X127858955Y-104721471D01*
X127860851Y-104724483D01*
X127862848Y-104726215D01*
X127869140Y-104733882D01*
X127940569Y-104805311D01*
X127948239Y-104811605D01*
X127949969Y-104813600D01*
X127952976Y-104815493D01*
X127955723Y-104817747D01*
X127958162Y-104818757D01*
X127966559Y-104824043D01*
X128109416Y-104895471D01*
X128127725Y-104902477D01*
X128131307Y-104902731D01*
X128134628Y-104904107D01*
X128154137Y-104906028D01*
X128511280Y-104906028D01*
X128530789Y-104904107D01*
X128534109Y-104902731D01*
X128537693Y-104902477D01*
X128556001Y-104895471D01*
X128698858Y-104824043D01*
X128707254Y-104818757D01*
X128709695Y-104817747D01*
X128712440Y-104815493D01*
X128715449Y-104813600D01*
X128717181Y-104811602D01*
X128724848Y-104805310D01*
X128796276Y-104733881D01*
X128808713Y-104718728D01*
X128823644Y-104682679D01*
X128823643Y-104643661D01*
X128808712Y-104607613D01*
X128781122Y-104580023D01*
X128745073Y-104565092D01*
X128706055Y-104565093D01*
X128670007Y-104580024D01*
X128654854Y-104592461D01*
X128594901Y-104652414D01*
X128487673Y-104706028D01*
X128177744Y-104706028D01*
X128070516Y-104652414D01*
X128022036Y-104603934D01*
X127968422Y-104496705D01*
X127968422Y-104186779D01*
X127980226Y-104163171D01*
X129196993Y-104163171D01*
X129196993Y-104520314D01*
X129198914Y-104539823D01*
X129200289Y-104543143D01*
X129200544Y-104546727D01*
X129207550Y-104565036D01*
X129278979Y-104707892D01*
X129284265Y-104716290D01*
X129285275Y-104718728D01*
X129287526Y-104721471D01*
X129289422Y-104724483D01*
X129291419Y-104726215D01*
X129297711Y-104733882D01*
X129369140Y-104805311D01*
X129376810Y-104811605D01*
X129378540Y-104813600D01*
X129381547Y-104815493D01*
X129384294Y-104817747D01*
X129386733Y-104818757D01*
X129395130Y-104824043D01*
X129537987Y-104895471D01*
X129556296Y-104902477D01*
X129559878Y-104902731D01*
X129563199Y-104904107D01*
X129582708Y-104906028D01*
X129939851Y-104906028D01*
X129959360Y-104904107D01*
X129962680Y-104902731D01*
X129966264Y-104902477D01*
X129984572Y-104895471D01*
X130127429Y-104824043D01*
X130135825Y-104818757D01*
X130138266Y-104817747D01*
X130141011Y-104815493D01*
X130144020Y-104813600D01*
X130145752Y-104811602D01*
X130153419Y-104805310D01*
X130224847Y-104733881D01*
X130237284Y-104718728D01*
X130252215Y-104682679D01*
X130252214Y-104643661D01*
X130237283Y-104607613D01*
X130209693Y-104580023D01*
X130173644Y-104565092D01*
X130134626Y-104565093D01*
X130098578Y-104580024D01*
X130083425Y-104592461D01*
X130023472Y-104652414D01*
X129916244Y-104706028D01*
X129606315Y-104706028D01*
X129499087Y-104652414D01*
X129450607Y-104603934D01*
X129396993Y-104496705D01*
X129396993Y-104186779D01*
X129408797Y-104163171D01*
X130625564Y-104163171D01*
X130625564Y-104520314D01*
X130627485Y-104539823D01*
X130628860Y-104543143D01*
X130629115Y-104546727D01*
X130636121Y-104565036D01*
X130707550Y-104707892D01*
X130712836Y-104716290D01*
X130713846Y-104718728D01*
X130716097Y-104721471D01*
X130717993Y-104724483D01*
X130719990Y-104726215D01*
X130726282Y-104733882D01*
X130797711Y-104805311D01*
X130805381Y-104811605D01*
X130807111Y-104813600D01*
X130810118Y-104815493D01*
X130812865Y-104817747D01*
X130815304Y-104818757D01*
X130823701Y-104824043D01*
X130966558Y-104895471D01*
X130984867Y-104902477D01*
X130988449Y-104902731D01*
X130991770Y-104904107D01*
X131011279Y-104906028D01*
X131368422Y-104906028D01*
X131387931Y-104904107D01*
X131391251Y-104902731D01*
X131394835Y-104902477D01*
X131413143Y-104895471D01*
X131556000Y-104824043D01*
X131564396Y-104818757D01*
X131566837Y-104817747D01*
X131569582Y-104815493D01*
X131572591Y-104813600D01*
X131574323Y-104811602D01*
X131581990Y-104805310D01*
X131653418Y-104733881D01*
X131665855Y-104718728D01*
X131680786Y-104682679D01*
X131680785Y-104643661D01*
X131665854Y-104607613D01*
X131638264Y-104580023D01*
X131602215Y-104565092D01*
X131563197Y-104565093D01*
X131527149Y-104580024D01*
X131511996Y-104592461D01*
X131452043Y-104652414D01*
X131344815Y-104706028D01*
X131034886Y-104706028D01*
X130927658Y-104652414D01*
X130879178Y-104603934D01*
X130825564Y-104496705D01*
X130825564Y-104186779D01*
X130879178Y-104079550D01*
X130927658Y-104031070D01*
X131034886Y-103977457D01*
X131344815Y-103977457D01*
X131452043Y-104031070D01*
X131511996Y-104091024D01*
X131527149Y-104103461D01*
X131531803Y-104105389D01*
X131535699Y-104108576D01*
X131549690Y-104112797D01*
X131563197Y-104118392D01*
X131568232Y-104118392D01*
X131573054Y-104119847D01*
X131587599Y-104118392D01*
X131602215Y-104118393D01*
X131606867Y-104116465D01*
X131611878Y-104115965D01*
X131624755Y-104109057D01*
X131638264Y-104103462D01*
X131641826Y-104099899D01*
X131646262Y-104097520D01*
X131655511Y-104086214D01*
X131665854Y-104075872D01*
X131667782Y-104071215D01*
X131670969Y-104067321D01*
X131675189Y-104053332D01*
X131680785Y-104039824D01*
X131680785Y-104034788D01*
X131682240Y-104029967D01*
X131682211Y-104010363D01*
X131610783Y-103296078D01*
X131609358Y-103288969D01*
X131609358Y-103286519D01*
X131608406Y-103284221D01*
X131606930Y-103276857D01*
X131600020Y-103263976D01*
X131594426Y-103250471D01*
X131590865Y-103246910D01*
X131588485Y-103242473D01*
X131577172Y-103233217D01*
X131566836Y-103222881D01*
X131562183Y-103220953D01*
X131558287Y-103217766D01*
X131544297Y-103213545D01*
X131530788Y-103207949D01*
X131523310Y-103207212D01*
X131520932Y-103206495D01*
X131518495Y-103206738D01*
X131511279Y-103206028D01*
X130796993Y-103206028D01*
X130777484Y-103207949D01*
X130741436Y-103222881D01*
X130713846Y-103250471D01*
X130698914Y-103286519D01*
X130698914Y-103325537D01*
X130713846Y-103361585D01*
X130741436Y-103389175D01*
X130777484Y-103404107D01*
X130796993Y-103406028D01*
X131420780Y-103406028D01*
X131461390Y-103812137D01*
X131413143Y-103788014D01*
X131394835Y-103781008D01*
X131391251Y-103780753D01*
X131387931Y-103779378D01*
X131368422Y-103777457D01*
X131011279Y-103777457D01*
X130991770Y-103779378D01*
X130988449Y-103780753D01*
X130984867Y-103781008D01*
X130966558Y-103788014D01*
X130823701Y-103859442D01*
X130815304Y-103864727D01*
X130812865Y-103865738D01*
X130810118Y-103867991D01*
X130807111Y-103869885D01*
X130805381Y-103871879D01*
X130797711Y-103878174D01*
X130726282Y-103949603D01*
X130719990Y-103957269D01*
X130717993Y-103959002D01*
X130716097Y-103962013D01*
X130713846Y-103964757D01*
X130712836Y-103967194D01*
X130707550Y-103975593D01*
X130636121Y-104118449D01*
X130629115Y-104136758D01*
X130628860Y-104140341D01*
X130627485Y-104143662D01*
X130625564Y-104163171D01*
X129408797Y-104163171D01*
X129450607Y-104079550D01*
X129499087Y-104031070D01*
X129606315Y-103977457D01*
X129916244Y-103977457D01*
X130023472Y-104031070D01*
X130083425Y-104091024D01*
X130098578Y-104103461D01*
X130103232Y-104105389D01*
X130107128Y-104108576D01*
X130121119Y-104112797D01*
X130134626Y-104118392D01*
X130139661Y-104118392D01*
X130144483Y-104119847D01*
X130159028Y-104118392D01*
X130173644Y-104118393D01*
X130178296Y-104116465D01*
X130183307Y-104115965D01*
X130196184Y-104109057D01*
X130209693Y-104103462D01*
X130213255Y-104099899D01*
X130217691Y-104097520D01*
X130226940Y-104086214D01*
X130237283Y-104075872D01*
X130239211Y-104071215D01*
X130242398Y-104067321D01*
X130246618Y-104053332D01*
X130252214Y-104039824D01*
X130252214Y-104034788D01*
X130253669Y-104029967D01*
X130253640Y-104010363D01*
X130182212Y-103296078D01*
X130180787Y-103288969D01*
X130180787Y-103286519D01*
X130179835Y-103284221D01*
X130178359Y-103276857D01*
X130171449Y-103263976D01*
X130165855Y-103250471D01*
X130162294Y-103246910D01*
X130159914Y-103242473D01*
X130148601Y-103233217D01*
X130138265Y-103222881D01*
X130133612Y-103220953D01*
X130129716Y-103217766D01*
X130115726Y-103213545D01*
X130102217Y-103207949D01*
X130094739Y-103207212D01*
X130092361Y-103206495D01*
X130089924Y-103206738D01*
X130082708Y-103206028D01*
X129368422Y-103206028D01*
X129348913Y-103207949D01*
X129312865Y-103222881D01*
X129285275Y-103250471D01*
X129270343Y-103286519D01*
X129270343Y-103325537D01*
X129285275Y-103361585D01*
X129312865Y-103389175D01*
X129348913Y-103404107D01*
X129368422Y-103406028D01*
X129992209Y-103406028D01*
X130032819Y-103812137D01*
X129984572Y-103788014D01*
X129966264Y-103781008D01*
X129962680Y-103780753D01*
X129959360Y-103779378D01*
X129939851Y-103777457D01*
X129582708Y-103777457D01*
X129563199Y-103779378D01*
X129559878Y-103780753D01*
X129556296Y-103781008D01*
X129537987Y-103788014D01*
X129395130Y-103859442D01*
X129386733Y-103864727D01*
X129384294Y-103865738D01*
X129381547Y-103867991D01*
X129378540Y-103869885D01*
X129376810Y-103871879D01*
X129369140Y-103878174D01*
X129297711Y-103949603D01*
X129291419Y-103957269D01*
X129289422Y-103959002D01*
X129287526Y-103962013D01*
X129285275Y-103964757D01*
X129284265Y-103967194D01*
X129278979Y-103975593D01*
X129207550Y-104118449D01*
X129200544Y-104136758D01*
X129200289Y-104140341D01*
X129198914Y-104143662D01*
X129196993Y-104163171D01*
X127980226Y-104163171D01*
X128022036Y-104079550D01*
X128070516Y-104031070D01*
X128177744Y-103977457D01*
X128487673Y-103977457D01*
X128594901Y-104031070D01*
X128654854Y-104091024D01*
X128670007Y-104103461D01*
X128674661Y-104105389D01*
X128678557Y-104108576D01*
X128692548Y-104112797D01*
X128706055Y-104118392D01*
X128711090Y-104118392D01*
X128715912Y-104119847D01*
X128730457Y-104118392D01*
X128745073Y-104118393D01*
X128749725Y-104116465D01*
X128754736Y-104115965D01*
X128767613Y-104109057D01*
X128781122Y-104103462D01*
X128784684Y-104099899D01*
X128789120Y-104097520D01*
X128798369Y-104086214D01*
X128808712Y-104075872D01*
X128810640Y-104071215D01*
X128813827Y-104067321D01*
X128818047Y-104053332D01*
X128823643Y-104039824D01*
X128823643Y-104034788D01*
X128825098Y-104029967D01*
X128825069Y-104010363D01*
X128753641Y-103296078D01*
X128752216Y-103288969D01*
X128752216Y-103286519D01*
X128751264Y-103284221D01*
X128749788Y-103276857D01*
X128742878Y-103263976D01*
X128737284Y-103250471D01*
X128733723Y-103246910D01*
X128731343Y-103242473D01*
X128720030Y-103233217D01*
X128709694Y-103222881D01*
X128705041Y-103220953D01*
X128701145Y-103217766D01*
X128687155Y-103213545D01*
X128673646Y-103207949D01*
X128666168Y-103207212D01*
X128663790Y-103206495D01*
X128661353Y-103206738D01*
X128654137Y-103206028D01*
X127939851Y-103206028D01*
X127920342Y-103207949D01*
X127884294Y-103222881D01*
X127856704Y-103250471D01*
X127841772Y-103286519D01*
X127841772Y-103325537D01*
X127856704Y-103361585D01*
X127884294Y-103389175D01*
X127920342Y-103404107D01*
X127939851Y-103406028D01*
X128563638Y-103406028D01*
X128604248Y-103812137D01*
X128556001Y-103788014D01*
X128537693Y-103781008D01*
X128534109Y-103780753D01*
X128530789Y-103779378D01*
X128511280Y-103777457D01*
X128154137Y-103777457D01*
X128134628Y-103779378D01*
X128131307Y-103780753D01*
X128127725Y-103781008D01*
X128109416Y-103788014D01*
X127966559Y-103859442D01*
X127958162Y-103864727D01*
X127955723Y-103865738D01*
X127952976Y-103867991D01*
X127949969Y-103869885D01*
X127948239Y-103871879D01*
X127940569Y-103878174D01*
X127869140Y-103949603D01*
X127862848Y-103957269D01*
X127860851Y-103959002D01*
X127858955Y-103962013D01*
X127856704Y-103964757D01*
X127855694Y-103967194D01*
X127850408Y-103975593D01*
X127778979Y-104118449D01*
X127771973Y-104136758D01*
X127771718Y-104140341D01*
X127770343Y-104143662D01*
X127768422Y-104163171D01*
X125709300Y-104163171D01*
X125892676Y-104117328D01*
X125894113Y-104116814D01*
X125894836Y-104116763D01*
X125902977Y-104113648D01*
X125911137Y-104110733D01*
X125911716Y-104110303D01*
X125913145Y-104109757D01*
X126056001Y-104038328D01*
X126064395Y-104033044D01*
X126066837Y-104032033D01*
X126069584Y-104029778D01*
X126072592Y-104027885D01*
X126074323Y-104025888D01*
X126081990Y-104019596D01*
X126153419Y-103948168D01*
X126159714Y-103940498D01*
X126161709Y-103938768D01*
X126163600Y-103935762D01*
X126165856Y-103933015D01*
X126166867Y-103930573D01*
X126172152Y-103922178D01*
X126243580Y-103779321D01*
X126250586Y-103761012D01*
X126250840Y-103757429D01*
X126252216Y-103754109D01*
X126254137Y-103734600D01*
X126254137Y-103591742D01*
X126252216Y-103572233D01*
X126250840Y-103568912D01*
X126250586Y-103565330D01*
X126243580Y-103547021D01*
X126172152Y-103404164D01*
X126166867Y-103395768D01*
X126165856Y-103393327D01*
X126163600Y-103390579D01*
X126161709Y-103387574D01*
X126159714Y-103385843D01*
X126153419Y-103378174D01*
X126081990Y-103306746D01*
X126074323Y-103300453D01*
X126072592Y-103298457D01*
X126069584Y-103296563D01*
X126066837Y-103294309D01*
X126064395Y-103293297D01*
X126056001Y-103288014D01*
X125913145Y-103216585D01*
X125894836Y-103209579D01*
X125891252Y-103209324D01*
X125887932Y-103207949D01*
X125868423Y-103206028D01*
X125511280Y-103206028D01*
X125501406Y-103207000D01*
X125498772Y-103206813D01*
X125495308Y-103207600D01*
X125491771Y-103207949D01*
X125489329Y-103208960D01*
X125479657Y-103211160D01*
X125265371Y-103282589D01*
X125247471Y-103290580D01*
X125217995Y-103316146D01*
X125200545Y-103351045D01*
X125197779Y-103389965D01*
X125210117Y-103426980D01*
X125235683Y-103456456D01*
X125270582Y-103473906D01*
X125309502Y-103476672D01*
X125328617Y-103472325D01*
X125527507Y-103406028D01*
X125844815Y-103406028D01*
X125952046Y-103459644D01*
X126000523Y-103508120D01*
X126054137Y-103615348D01*
X126054137Y-103710993D01*
X126000523Y-103818221D01*
X125952046Y-103866697D01*
X125833516Y-103925963D01*
X125558456Y-103994728D01*
X125557018Y-103995241D01*
X125556296Y-103995293D01*
X125548165Y-103998404D01*
X125539995Y-104001323D01*
X125539415Y-104001752D01*
X125537987Y-104002299D01*
X125395130Y-104073728D01*
X125386731Y-104079014D01*
X125384295Y-104080024D01*
X125381551Y-104082275D01*
X125378540Y-104084171D01*
X125376807Y-104086168D01*
X125369141Y-104092460D01*
X125297712Y-104163889D01*
X125291420Y-104171555D01*
X125289423Y-104173288D01*
X125287527Y-104176299D01*
X125285276Y-104179043D01*
X125284266Y-104181480D01*
X125278980Y-104189879D01*
X125207551Y-104332735D01*
X125200545Y-104351044D01*
X125200290Y-104354627D01*
X125198915Y-104357948D01*
X125196994Y-104377457D01*
X124737731Y-104377457D01*
X124893148Y-103833500D01*
X124896660Y-103814214D01*
X124892206Y-103775450D01*
X124873257Y-103741342D01*
X124842698Y-103717082D01*
X124805181Y-103706363D01*
X124766418Y-103710817D01*
X124732310Y-103729766D01*
X124708049Y-103760325D01*
X124700843Y-103778556D01*
X124495490Y-104497292D01*
X124318414Y-104054603D01*
X124309385Y-104037203D01*
X124308516Y-104036312D01*
X124308029Y-104035176D01*
X124294943Y-104022405D01*
X124282133Y-104009279D01*
X124280992Y-104008790D01*
X124280105Y-104007924D01*
X124263091Y-104001118D01*
X124246269Y-103993909D01*
X124245030Y-103993893D01*
X124243878Y-103993433D01*
X124225587Y-103993656D01*
X124207254Y-103993432D01*
X124206099Y-103993893D01*
X124204862Y-103993909D01*
X124188067Y-104001106D01*
X124171027Y-104007923D01*
X124170137Y-104008791D01*
X124168999Y-104009279D01*
X124156208Y-104022384D01*
X124143103Y-104035175D01*
X124142615Y-104036313D01*
X124141747Y-104037203D01*
X124132718Y-104054603D01*
X123955643Y-104497290D01*
X123750290Y-103778556D01*
X123743084Y-103760325D01*
X123718823Y-103729766D01*
X123684715Y-103710817D01*
X123645952Y-103706363D01*
X123608435Y-103717082D01*
X123577876Y-103741343D01*
X123558927Y-103775451D01*
X123554473Y-103814214D01*
X123182709Y-103814214D01*
X123182709Y-103806028D01*
X123180788Y-103786519D01*
X123165856Y-103750471D01*
X123138266Y-103722881D01*
X123102218Y-103707949D01*
X123063200Y-103707949D01*
X123027152Y-103722881D01*
X122999562Y-103750471D01*
X122984630Y-103786519D01*
X122982709Y-103806028D01*
X122680787Y-103806028D01*
X122680787Y-103786519D01*
X122665855Y-103750471D01*
X122638265Y-103722881D01*
X122602217Y-103707949D01*
X122582708Y-103706028D01*
X122468423Y-103706028D01*
X122468423Y-103357948D01*
X122913201Y-103357948D01*
X122913201Y-103396966D01*
X122914829Y-103400896D01*
X122928133Y-103433015D01*
X122940570Y-103448168D01*
X123011999Y-103519596D01*
X123027152Y-103532033D01*
X123052642Y-103542590D01*
X123063200Y-103546964D01*
X123063201Y-103546964D01*
X123102218Y-103546964D01*
X123128240Y-103536185D01*
X123138267Y-103532032D01*
X123138271Y-103532027D01*
X123153420Y-103519596D01*
X123224847Y-103448168D01*
X123237284Y-103433015D01*
X123249234Y-103404164D01*
X123252215Y-103396967D01*
X123252216Y-103357949D01*
X123237285Y-103321900D01*
X123224848Y-103306747D01*
X123153420Y-103235318D01*
X123138267Y-103222881D01*
X123123067Y-103216585D01*
X123102218Y-103207949D01*
X123063200Y-103207949D01*
X123055448Y-103211160D01*
X123027152Y-103222880D01*
X123027146Y-103222885D01*
X123011998Y-103235317D01*
X122940569Y-103306746D01*
X122928137Y-103321894D01*
X122928132Y-103321900D01*
X122917574Y-103347390D01*
X122913201Y-103357948D01*
X122468423Y-103357948D01*
X122468423Y-103306028D01*
X122466502Y-103286519D01*
X122451570Y-103250471D01*
X122423980Y-103222881D01*
X122387932Y-103207949D01*
X122348914Y-103207949D01*
X122312866Y-103222881D01*
X122285276Y-103250471D01*
X122270344Y-103286519D01*
X122268423Y-103306028D01*
X122268423Y-103706028D01*
X122011280Y-103706028D01*
X121991771Y-103707949D01*
X121955723Y-103722881D01*
X121928133Y-103750471D01*
X121913201Y-103786519D01*
X121481582Y-103786519D01*
X121341716Y-103716585D01*
X121323407Y-103709579D01*
X121319823Y-103709324D01*
X121316503Y-103707949D01*
X121296994Y-103706028D01*
X121011280Y-103706028D01*
X120991771Y-103707949D01*
X120988450Y-103709324D01*
X120984867Y-103709579D01*
X120966558Y-103716585D01*
X120823701Y-103788014D01*
X120807111Y-103798457D01*
X120781547Y-103827934D01*
X120769208Y-103864950D01*
X120325566Y-103864950D01*
X120325566Y-103306028D01*
X120323645Y-103286519D01*
X120308713Y-103250471D01*
X120281123Y-103222881D01*
X120245075Y-103207949D01*
X120206057Y-103207949D01*
X120170009Y-103222881D01*
X120142419Y-103250471D01*
X120127487Y-103286519D01*
X120125566Y-103306028D01*
X120125566Y-103751367D01*
X120056002Y-103716585D01*
X120037693Y-103709579D01*
X120034109Y-103709324D01*
X120030789Y-103707949D01*
X120011280Y-103706028D01*
X119796994Y-103706028D01*
X119777485Y-103707949D01*
X119774164Y-103709324D01*
X119770581Y-103709579D01*
X119752272Y-103716585D01*
X119609415Y-103788014D01*
X119606150Y-103790068D01*
X119604614Y-103790581D01*
X119602699Y-103792240D01*
X119592825Y-103798457D01*
X119584609Y-103807929D01*
X119575137Y-103816145D01*
X119568922Y-103826018D01*
X119567261Y-103827934D01*
X119566748Y-103829472D01*
X119564694Y-103832736D01*
X119493266Y-103975593D01*
X119486260Y-103993901D01*
X119486005Y-103997484D01*
X119484630Y-104000805D01*
X119482709Y-104020314D01*
X119316042Y-104020314D01*
X119316042Y-103039361D01*
X131848907Y-103039361D01*
X131848907Y-105072695D01*
G37*
D11*
%TO.C,G\u002A\u002A\u002A*%
G36*
X126791247Y-116373085D02*
G01*
X126763457Y-116400875D01*
X126735668Y-116373085D01*
X126763457Y-116345295D01*
X126791247Y-116373085D01*
G37*
G36*
X125188365Y-110421532D02*
G01*
X125230550Y-110564989D01*
X125267936Y-110696924D01*
X125365538Y-110982968D01*
X125480896Y-111266344D01*
X125602066Y-111520962D01*
X125717104Y-111720731D01*
X125814064Y-111839562D01*
X125863752Y-111889844D01*
X125901969Y-111963831D01*
X125901944Y-111964428D01*
X125849213Y-111987686D01*
X125714775Y-111999999D01*
X125527166Y-111998710D01*
X125436701Y-111994544D01*
X125273902Y-111981578D01*
X125184399Y-111955487D01*
X125141095Y-111904172D01*
X125116893Y-111815536D01*
X125099208Y-111681419D01*
X125086502Y-111470222D01*
X125080421Y-111219739D01*
X125080882Y-110960025D01*
X125087804Y-110721134D01*
X125101102Y-110533121D01*
X125120697Y-110426039D01*
X125127120Y-110410808D01*
X125157260Y-110374403D01*
X125188365Y-110421532D01*
G37*
G36*
X122587436Y-114580532D02*
G01*
X122692451Y-114664967D01*
X122886742Y-114811382D01*
X123201259Y-114943037D01*
X123583217Y-115001370D01*
X124038630Y-114987136D01*
X124573511Y-114901089D01*
X124577163Y-114900319D01*
X124914951Y-114834994D01*
X125172034Y-114801933D01*
X125373801Y-114800998D01*
X125545640Y-114832054D01*
X125712939Y-114894963D01*
X125903297Y-115010752D01*
X126100145Y-115233593D01*
X126206573Y-115514052D01*
X126215304Y-115702684D01*
X126134665Y-115963229D01*
X125944045Y-116219408D01*
X125933468Y-116230304D01*
X125812174Y-116341384D01*
X125751943Y-116369709D01*
X125759302Y-116317364D01*
X125840780Y-116186433D01*
X125881739Y-116124177D01*
X125984459Y-115870239D01*
X125988805Y-115625532D01*
X125897239Y-115408267D01*
X125712229Y-115236658D01*
X125642632Y-115197000D01*
X125440280Y-115120434D01*
X125205925Y-115092046D01*
X124916275Y-115110602D01*
X124548040Y-115174864D01*
X124420446Y-115200025D01*
X124146282Y-115245689D01*
X123897037Y-115277155D01*
X123714341Y-115288735D01*
X123587325Y-115281187D01*
X123249965Y-115197470D01*
X122937879Y-115035483D01*
X122689830Y-114813219D01*
X122654216Y-114768794D01*
X122568130Y-114643105D01*
X122545933Y-114576798D01*
X122587436Y-114580532D01*
G37*
G36*
X117824104Y-115538716D02*
G01*
X117973697Y-115569041D01*
X118307893Y-115651328D01*
X118658767Y-115759144D01*
X119039428Y-115897764D01*
X119462984Y-116072463D01*
X119942542Y-116288515D01*
X120491212Y-116551193D01*
X121122101Y-116865774D01*
X121375783Y-116993769D01*
X121932057Y-117270373D01*
X122408967Y-117499444D01*
X122819301Y-117685280D01*
X123175843Y-117832183D01*
X123491382Y-117944451D01*
X123778702Y-118026385D01*
X124050591Y-118082285D01*
X124319835Y-118116451D01*
X124599220Y-118133182D01*
X124901532Y-118136780D01*
X125008736Y-118135703D01*
X125368882Y-118120103D01*
X125663761Y-118083348D01*
X125928960Y-118021444D01*
X125953715Y-118014340D01*
X126140991Y-117964298D01*
X126278362Y-117933932D01*
X126337610Y-117929586D01*
X126312187Y-117960974D01*
X126206823Y-118024819D01*
X126043316Y-118108932D01*
X125845100Y-118202307D01*
X125635610Y-118293936D01*
X125438283Y-118372815D01*
X125276552Y-118427934D01*
X125136305Y-118464944D01*
X124867108Y-118523955D01*
X124612913Y-118567752D01*
X124393123Y-118588182D01*
X124016347Y-118595041D01*
X123595636Y-118577783D01*
X123168371Y-118538227D01*
X122771928Y-118478191D01*
X122589195Y-118440673D01*
X122245133Y-118354062D01*
X121869864Y-118238501D01*
X121446623Y-118088235D01*
X120958645Y-117897514D01*
X120389164Y-117660583D01*
X119555216Y-117319804D01*
X118629391Y-116977410D01*
X117766340Y-116698797D01*
X116973638Y-116486382D01*
X116258862Y-116342582D01*
X116229417Y-116338004D01*
X115934975Y-116305592D01*
X115592481Y-116286237D01*
X115233620Y-116279979D01*
X114890075Y-116286858D01*
X114593529Y-116306915D01*
X114375667Y-116340189D01*
X114277967Y-116361789D01*
X114145044Y-116384490D01*
X114084473Y-116384838D01*
X114099846Y-116356656D01*
X114193720Y-116288432D01*
X114351225Y-116194268D01*
X114551442Y-116085444D01*
X114773452Y-115973239D01*
X114996336Y-115868934D01*
X115199173Y-115783806D01*
X115683682Y-115625058D01*
X116393185Y-115488445D01*
X117110902Y-115459268D01*
X117824104Y-115538716D01*
G37*
G36*
X128318438Y-113569316D02*
G01*
X128377088Y-113649193D01*
X128460917Y-113796488D01*
X128562597Y-114003696D01*
X128608590Y-114108211D01*
X128775479Y-114633748D01*
X128837052Y-115148952D01*
X128798180Y-115644134D01*
X128663735Y-116109605D01*
X128438587Y-116535675D01*
X128127607Y-116912655D01*
X127735668Y-117230855D01*
X127267640Y-117480586D01*
X126728395Y-117652158D01*
X126656358Y-117667087D01*
X126165643Y-117709580D01*
X125610479Y-117664085D01*
X124992990Y-117531273D01*
X124315301Y-117311815D01*
X123579537Y-117006384D01*
X122787822Y-116615648D01*
X121942279Y-116140280D01*
X121738935Y-116021188D01*
X121273265Y-115764384D01*
X120852925Y-115559732D01*
X120449045Y-115393823D01*
X120032757Y-115253246D01*
X119870701Y-115205361D01*
X119685579Y-115159200D01*
X119505403Y-115129039D01*
X119301157Y-115111561D01*
X119043820Y-115103448D01*
X118704376Y-115101384D01*
X118584717Y-115101544D01*
X118267053Y-115105567D01*
X118026666Y-115116920D01*
X117837820Y-115138179D01*
X117674775Y-115171920D01*
X117511795Y-115220718D01*
X117507899Y-115222016D01*
X117326043Y-115278799D01*
X117191226Y-115313924D01*
X117132379Y-115319833D01*
X117137578Y-115294296D01*
X117213795Y-115219577D01*
X117355178Y-115113170D01*
X117542085Y-114988021D01*
X117754874Y-114857079D01*
X117973904Y-114733288D01*
X118179535Y-114629596D01*
X118414227Y-114526555D01*
X118812094Y-114388125D01*
X119190455Y-114312070D01*
X119588804Y-114288840D01*
X119663816Y-114289454D01*
X120011845Y-114311209D01*
X120348121Y-114368755D01*
X120688470Y-114468411D01*
X121048716Y-114616499D01*
X121444687Y-114819341D01*
X121892206Y-115083257D01*
X122407100Y-115414570D01*
X122508562Y-115481562D01*
X123192584Y-115917437D01*
X123807923Y-116279024D01*
X124363179Y-116570210D01*
X124866953Y-116794884D01*
X125327847Y-116956931D01*
X125754460Y-117060239D01*
X126155393Y-117108697D01*
X126456923Y-117117210D01*
X126727801Y-117099081D01*
X126963615Y-117048878D01*
X127136850Y-116988488D01*
X127527243Y-116773404D01*
X127874123Y-116469435D01*
X128163375Y-116090507D01*
X128380883Y-115650547D01*
X128439992Y-115427906D01*
X128480174Y-115106159D01*
X128492183Y-114745850D01*
X128476378Y-114383528D01*
X128433118Y-114055744D01*
X128362759Y-113799049D01*
X128305998Y-113641838D01*
X128292299Y-113564362D01*
X128318438Y-113569316D01*
G37*
G36*
X127819832Y-113149453D02*
G01*
X127932980Y-113311272D01*
X128095433Y-113601567D01*
X128200141Y-113871271D01*
X128253395Y-114133409D01*
X128261483Y-114401007D01*
X128230695Y-114687090D01*
X128211949Y-114791655D01*
X128070071Y-115263170D01*
X127847032Y-115661132D01*
X127544627Y-115982948D01*
X127164656Y-116226023D01*
X127029383Y-116289262D01*
X126913486Y-116333402D01*
X126892900Y-116320809D01*
X126967550Y-116251199D01*
X127137359Y-116124292D01*
X127225407Y-116057561D01*
X127544345Y-115735159D01*
X127774371Y-115358169D01*
X127912178Y-114940542D01*
X127954463Y-114496231D01*
X127897920Y-114039187D01*
X127739244Y-113583364D01*
X127726013Y-113555301D01*
X127641939Y-113387100D01*
X127577076Y-113273980D01*
X127544537Y-113239125D01*
X127540164Y-113263340D01*
X127549992Y-113370873D01*
X127578753Y-113529832D01*
X127607717Y-113767873D01*
X127571345Y-114057135D01*
X127536699Y-114169043D01*
X127463382Y-114344565D01*
X127377644Y-114508472D01*
X127296230Y-114629792D01*
X127235886Y-114677554D01*
X127226307Y-114654700D01*
X127219631Y-114548953D01*
X127223420Y-114386139D01*
X127238743Y-114094311D01*
X127096300Y-114381503D01*
X127019604Y-114511160D01*
X126901289Y-114672230D01*
X126768361Y-114828161D01*
X126640535Y-114957561D01*
X126537530Y-115039037D01*
X126479060Y-115051197D01*
X126478233Y-114991861D01*
X126511793Y-114876519D01*
X126515666Y-114865845D01*
X126553411Y-114699881D01*
X126568928Y-114514080D01*
X126568928Y-114301918D01*
X126353147Y-114517698D01*
X126323600Y-114546704D01*
X126180480Y-114669581D01*
X126077618Y-114728735D01*
X126027839Y-114719252D01*
X126043968Y-114636214D01*
X126057293Y-114604120D01*
X126111815Y-114375764D01*
X126098395Y-114168274D01*
X126018459Y-114016270D01*
X125960706Y-113967522D01*
X125820301Y-113911640D01*
X125641961Y-113921353D01*
X125410174Y-113998883D01*
X125109428Y-114146452D01*
X124711080Y-114343456D01*
X124229533Y-114533031D01*
X123786755Y-114652234D01*
X123400875Y-114695241D01*
X123318890Y-114694599D01*
X123020776Y-114658269D01*
X122784103Y-114558726D01*
X122577670Y-114384182D01*
X122449214Y-114246643D01*
X122802354Y-114224157D01*
X122944295Y-114210712D01*
X123141716Y-114166120D01*
X123312351Y-114080871D01*
X123475655Y-113940442D01*
X123651081Y-113730308D01*
X123858084Y-113435944D01*
X123858406Y-113435468D01*
X124290153Y-113435468D01*
X124291998Y-113467819D01*
X124319109Y-113504805D01*
X124389426Y-113466722D01*
X124516748Y-113348258D01*
X124544391Y-113319879D01*
X124649487Y-113187200D01*
X124660998Y-113149453D01*
X127458206Y-113149453D01*
X127485996Y-113177243D01*
X127513786Y-113149453D01*
X127485996Y-113121663D01*
X127458206Y-113149453D01*
X124660998Y-113149453D01*
X124676553Y-113098442D01*
X124620979Y-113066083D01*
X124609007Y-113067727D01*
X124520597Y-113122659D01*
X124415279Y-113227612D01*
X124327111Y-113344558D01*
X124290153Y-113435468D01*
X123858406Y-113435468D01*
X123894980Y-113381458D01*
X124194532Y-112971499D01*
X124482371Y-112633918D01*
X124748899Y-112379096D01*
X124984521Y-112217412D01*
X125002294Y-112208578D01*
X125273323Y-112122444D01*
X125640174Y-112076958D01*
X125696100Y-112073320D01*
X125884682Y-112055907D01*
X126012375Y-112035813D01*
X126054092Y-112016691D01*
X125947130Y-111801646D01*
X125880237Y-111592024D01*
X125854225Y-111361485D01*
X125860134Y-111066104D01*
X125864038Y-111004353D01*
X125887756Y-110765369D01*
X125920533Y-110559615D01*
X125956503Y-110426039D01*
X126026773Y-110259300D01*
X126103359Y-110584723D01*
X126151728Y-110757991D01*
X126345024Y-111214732D01*
X126633172Y-111685081D01*
X127008104Y-112155029D01*
X127036262Y-112186583D01*
X127409684Y-112616805D01*
X127706493Y-112987360D01*
X127784164Y-113098442D01*
X127819832Y-113149453D01*
G37*
%TD*%
M02*
