G04 #@! TF.GenerationSoftware,KiCad,Pcbnew,8.0.4*
G04 #@! TF.CreationDate,2024-08-17T23:14:56-04:00*
G04 #@! TF.ProjectId,PCIexpress_x4_low,50434965-7870-4726-9573-735f78345f6c,rev?*
G04 #@! TF.SameCoordinates,Original*
G04 #@! TF.FileFunction,Paste,Top*
G04 #@! TF.FilePolarity,Positive*
%FSLAX46Y46*%
G04 Gerber Fmt 4.6, Leading zero omitted, Abs format (unit mm)*
G04 Created by KiCad (PCBNEW 8.0.4) date 2024-08-17 23:14:56*
%MOMM*%
%LPD*%
G01*
G04 APERTURE LIST*
G04 Aperture macros list*
%AMRoundRect*
0 Rectangle with rounded corners*
0 $1 Rounding radius*
0 $2 $3 $4 $5 $6 $7 $8 $9 X,Y pos of 4 corners*
0 Add a 4 corners polygon primitive as box body*
4,1,4,$2,$3,$4,$5,$6,$7,$8,$9,$2,$3,0*
0 Add four circle primitives for the rounded corners*
1,1,$1+$1,$2,$3*
1,1,$1+$1,$4,$5*
1,1,$1+$1,$6,$7*
1,1,$1+$1,$8,$9*
0 Add four rect primitives between the rounded corners*
20,1,$1+$1,$2,$3,$4,$5,0*
20,1,$1+$1,$4,$5,$6,$7,0*
20,1,$1+$1,$6,$7,$8,$9,0*
20,1,$1+$1,$8,$9,$2,$3,0*%
G04 Aperture macros list end*
%ADD10R,0.700000X0.700000*%
%ADD11R,0.900000X1.500000*%
%ADD12RoundRect,0.218750X-0.218750X-0.256250X0.218750X-0.256250X0.218750X0.256250X-0.218750X0.256250X0*%
%ADD13RoundRect,0.218750X0.218750X0.256250X-0.218750X0.256250X-0.218750X-0.256250X0.218750X-0.256250X0*%
G04 APERTURE END LIST*
D10*
X145725000Y-145935000D03*
X145725000Y-144835000D03*
X145725000Y-143735000D03*
X146825000Y-145935000D03*
X146825000Y-144835000D03*
X146825000Y-143735000D03*
X147925000Y-145935000D03*
X147925000Y-144835000D03*
X147925000Y-143735000D03*
D11*
X153025000Y-152625000D03*
X151525000Y-152625000D03*
X150025000Y-152625000D03*
X148525000Y-152625000D03*
X147025000Y-152625000D03*
X145525000Y-152625000D03*
X144025000Y-152625000D03*
X142525000Y-152625000D03*
X141025000Y-152625000D03*
X141025000Y-135125000D03*
X142525000Y-135125000D03*
X144025000Y-135125000D03*
X145525000Y-135125000D03*
X147025000Y-135125000D03*
X148525000Y-135125000D03*
X150025000Y-135125000D03*
X151525000Y-135125000D03*
X153025000Y-135125000D03*
D12*
X126337500Y-180625000D03*
X127912500Y-180625000D03*
D13*
X124912500Y-180625000D03*
X123337500Y-180625000D03*
D12*
X135337500Y-180625000D03*
X136912500Y-180625000D03*
D13*
X133912500Y-180625000D03*
X132337500Y-180625000D03*
D12*
X139337500Y-183875000D03*
X140912500Y-183875000D03*
D13*
X137912500Y-183875000D03*
X136337500Y-183875000D03*
X129912500Y-183875000D03*
X128337500Y-183875000D03*
D12*
X131337500Y-183875000D03*
X132912500Y-183875000D03*
M02*
