M48
; DRILL file {KiCad 8.0.4} date 2024-07-30T11:29:45-0400
; FORMAT={-:-/ absolute / inch / decimal}
; #@! TF.CreationDate,2024-07-30T11:29:45-04:00
; #@! TF.GenerationSoftware,Kicad,Pcbnew,8.0.4
; #@! TF.FileFunction,Plated,1,2,PTH
FMAT,2
INCH
; #@! TA.AperFunction,Plated,PTH,ViaDrill
T1C0.0157
; #@! TA.AperFunction,Plated,PTH,ComponentDrill
T2C0.0394
%
G90
G05
T1
X6.1004Y-3.7657
T2
X5.6976Y-3.2016
X5.6976Y-3.3016
X5.6976Y-3.4016
X5.6976Y-3.5016
X5.6976Y-3.6016
X5.6976Y-3.7016
X5.6976Y-3.8016
X5.7976Y-3.2016
X5.7976Y-3.3016
X5.7976Y-3.4016
X5.7976Y-3.5016
X5.7976Y-3.6016
X5.7976Y-3.7016
X5.7976Y-3.8016
X5.8976Y-4.0016
X5.9976Y-4.0016
X6.0976Y-4.0016
X6.1976Y-4.0016
X6.2976Y-4.0016
X6.3976Y-4.0016
X6.4976Y-4.0016
X6.5976Y-4.0016
X6.6976Y-4.0016
X6.7976Y-3.2016
X6.7976Y-3.3016
X6.7976Y-3.4016
X6.7976Y-3.5016
X6.7976Y-3.6016
X6.7976Y-3.7016
X6.7976Y-3.8016
X6.7976Y-3.9016
X6.7976Y-4.0016
X6.8976Y-3.2016
X6.8976Y-3.3016
X6.8976Y-3.4016
X6.8976Y-3.5016
X6.8976Y-3.6016
X6.8976Y-3.7016
X6.8976Y-3.8016
X6.8976Y-3.9016
M30
