%TF.GenerationSoftware,KiCad,Pcbnew,8.0.4*%
%TF.CreationDate,2024-08-06T00:37:43-04:00*%
%TF.ProjectId,ESP32-WROOM-Socket-Legacy-v2,45535033-322d-4575-924f-4f4d2d536f63,rev?*%
%TF.SameCoordinates,Original*%
%TF.FileFunction,Legend,Top*%
%TF.FilePolarity,Positive*%
%FSLAX46Y46*%
G04 Gerber Fmt 4.6, Leading zero omitted, Abs format (unit mm)*
G04 Created by KiCad (PCBNEW 8.0.4) date 2024-08-06 00:37:43*
%MOMM*%
%LPD*%
G01*
G04 APERTURE LIST*
%ADD10C,0.175000*%
%ADD11C,0.150000*%
%ADD12C,0.000000*%
%ADD13C,0.120000*%
%ADD14C,0.500000*%
G04 APERTURE END LIST*
D10*
G36*
X168850182Y-103926667D02*
G01*
X168912691Y-103970424D01*
X168945833Y-104063220D01*
X168945833Y-104266245D01*
X168912691Y-104359041D01*
X168850182Y-104402798D01*
X168780367Y-104427233D01*
X168619633Y-104427233D01*
X168549817Y-104402797D01*
X168487308Y-104359041D01*
X168454167Y-104266245D01*
X168454167Y-104063220D01*
X168487308Y-103970424D01*
X168549817Y-103926668D01*
X168619633Y-103902233D01*
X168780367Y-103902233D01*
X168850182Y-103926667D01*
G37*
G36*
X166850183Y-103926668D02*
G01*
X166875618Y-103944472D01*
X166898214Y-103976106D01*
X166898214Y-104020025D01*
X166875619Y-104051658D01*
X166850180Y-104069465D01*
X166780369Y-104093900D01*
X166501786Y-104093900D01*
X166501786Y-103902233D01*
X166780367Y-103902233D01*
X166850183Y-103926668D01*
G37*
G36*
X167850183Y-103926668D02*
G01*
X167875618Y-103944472D01*
X167898214Y-103976106D01*
X167898214Y-104020025D01*
X167875619Y-104051658D01*
X167850180Y-104069465D01*
X167780369Y-104093900D01*
X167501786Y-104093900D01*
X167501786Y-103902233D01*
X167780367Y-103902233D01*
X167850183Y-103926668D01*
G37*
G36*
X170208333Y-104689733D02*
G01*
X166239286Y-104689733D01*
X166239286Y-103814733D01*
X166326786Y-103814733D01*
X166326786Y-104514733D01*
X166328467Y-104531803D01*
X166341532Y-104563345D01*
X166365674Y-104587487D01*
X166397216Y-104600552D01*
X166431356Y-104600552D01*
X166462898Y-104587487D01*
X166487040Y-104563345D01*
X166500105Y-104531803D01*
X166501786Y-104514733D01*
X166501786Y-104268900D01*
X166795238Y-104268900D01*
X166805242Y-104267914D01*
X166807477Y-104268040D01*
X166809863Y-104267459D01*
X166812308Y-104267219D01*
X166814376Y-104266362D01*
X166824144Y-104263987D01*
X166919382Y-104230653D01*
X166923874Y-104228566D01*
X166925705Y-104228161D01*
X166930230Y-104225614D01*
X166934938Y-104223428D01*
X166936334Y-104222179D01*
X166940654Y-104219749D01*
X166988272Y-104186416D01*
X166996135Y-104179672D01*
X166998007Y-104178505D01*
X166999533Y-104176758D01*
X167001293Y-104175250D01*
X167002477Y-104173391D01*
X167009297Y-104165591D01*
X167056916Y-104098924D01*
X167057856Y-104097289D01*
X167058468Y-104096678D01*
X167059135Y-104095066D01*
X167065470Y-104084057D01*
X167067718Y-104074344D01*
X167071533Y-104065136D01*
X167072778Y-104052493D01*
X167073171Y-104050796D01*
X167073029Y-104049944D01*
X167073214Y-104048066D01*
X167073214Y-103948066D01*
X167073028Y-103946187D01*
X167073171Y-103945335D01*
X167072777Y-103943637D01*
X167071533Y-103930996D01*
X167067717Y-103921784D01*
X167065469Y-103912075D01*
X167059137Y-103901069D01*
X167058468Y-103899454D01*
X167057855Y-103898841D01*
X167056915Y-103897207D01*
X167009296Y-103830541D01*
X167002478Y-103822742D01*
X167001294Y-103820884D01*
X166999533Y-103819374D01*
X166998007Y-103817628D01*
X166996136Y-103816460D01*
X166994122Y-103814733D01*
X167326786Y-103814733D01*
X167326786Y-104514733D01*
X167328467Y-104531803D01*
X167341532Y-104563345D01*
X167365674Y-104587487D01*
X167397216Y-104600552D01*
X167431356Y-104600552D01*
X167462898Y-104587487D01*
X167487040Y-104563345D01*
X167500105Y-104531803D01*
X167501786Y-104514733D01*
X167501786Y-104268900D01*
X167616137Y-104268900D01*
X167923842Y-104576605D01*
X167937101Y-104587486D01*
X167968643Y-104600552D01*
X168002785Y-104600552D01*
X168034327Y-104587486D01*
X168058467Y-104563346D01*
X168071533Y-104531804D01*
X168071533Y-104497662D01*
X168058467Y-104466120D01*
X168047586Y-104452861D01*
X167849749Y-104255024D01*
X167919382Y-104230653D01*
X167923874Y-104228566D01*
X167925705Y-104228161D01*
X167930230Y-104225614D01*
X167934938Y-104223428D01*
X167936334Y-104222179D01*
X167940654Y-104219749D01*
X167988272Y-104186416D01*
X167996135Y-104179672D01*
X167998007Y-104178505D01*
X167999533Y-104176758D01*
X168001293Y-104175250D01*
X168002477Y-104173391D01*
X168009297Y-104165591D01*
X168056916Y-104098924D01*
X168057856Y-104097289D01*
X168058468Y-104096678D01*
X168059135Y-104095066D01*
X168065470Y-104084057D01*
X168067718Y-104074344D01*
X168071533Y-104065136D01*
X168072778Y-104052493D01*
X168073171Y-104050796D01*
X168073029Y-104049944D01*
X168073214Y-104048066D01*
X168279167Y-104048066D01*
X168279167Y-104281400D01*
X168280213Y-104292027D01*
X168280106Y-104294189D01*
X168280634Y-104296304D01*
X168280848Y-104298470D01*
X168281675Y-104300466D01*
X168284265Y-104310829D01*
X168331884Y-104444162D01*
X168332603Y-104445686D01*
X168332740Y-104446458D01*
X168333620Y-104447840D01*
X168339208Y-104459672D01*
X168345806Y-104466961D01*
X168351088Y-104475249D01*
X168361018Y-104483766D01*
X168362120Y-104484983D01*
X168362828Y-104485318D01*
X168364108Y-104486416D01*
X168459346Y-104553083D01*
X168463665Y-104555513D01*
X168465062Y-104556762D01*
X168469766Y-104558947D01*
X168474294Y-104561495D01*
X168476125Y-104561900D01*
X168480619Y-104563988D01*
X168575857Y-104597321D01*
X168585624Y-104599695D01*
X168587692Y-104600552D01*
X168590137Y-104600792D01*
X168592524Y-104601373D01*
X168594757Y-104601247D01*
X168604762Y-104602233D01*
X168795238Y-104602233D01*
X168805242Y-104601247D01*
X168807476Y-104601373D01*
X168809862Y-104600792D01*
X168812308Y-104600552D01*
X168814375Y-104599695D01*
X168824143Y-104597321D01*
X168919382Y-104563988D01*
X168923876Y-104561900D01*
X168925706Y-104561495D01*
X168930231Y-104558948D01*
X168934938Y-104556762D01*
X168936334Y-104555513D01*
X168940654Y-104553083D01*
X169035892Y-104486416D01*
X169037172Y-104485317D01*
X169037879Y-104484983D01*
X169038977Y-104483769D01*
X169048912Y-104475249D01*
X169054192Y-104466962D01*
X169060792Y-104459673D01*
X169066379Y-104447839D01*
X169067260Y-104446458D01*
X169067396Y-104445686D01*
X169068116Y-104444162D01*
X169115735Y-104310830D01*
X169118325Y-104300466D01*
X169119152Y-104298470D01*
X169119365Y-104296304D01*
X169119894Y-104294189D01*
X169119786Y-104292027D01*
X169120833Y-104281400D01*
X169120833Y-104114733D01*
X169326786Y-104114733D01*
X169326786Y-104214733D01*
X169327832Y-104225360D01*
X169327725Y-104227522D01*
X169328253Y-104229637D01*
X169328467Y-104231803D01*
X169329294Y-104233799D01*
X169331884Y-104244162D01*
X169379503Y-104377495D01*
X169381713Y-104382176D01*
X169382149Y-104384057D01*
X169384673Y-104388444D01*
X169386827Y-104393005D01*
X169388117Y-104394431D01*
X169390703Y-104398924D01*
X169438322Y-104465591D01*
X169445142Y-104473392D01*
X169446326Y-104475249D01*
X169448085Y-104476758D01*
X169449612Y-104478504D01*
X169451480Y-104479669D01*
X169459346Y-104486416D01*
X169554584Y-104553083D01*
X169567968Y-104560615D01*
X169568638Y-104561095D01*
X169569100Y-104561251D01*
X169569532Y-104561495D01*
X169570348Y-104561675D01*
X169584880Y-104566611D01*
X169727736Y-104599944D01*
X169729709Y-104600204D01*
X169730549Y-104600552D01*
X169737657Y-104601252D01*
X169744742Y-104602186D01*
X169745639Y-104602038D01*
X169747619Y-104602233D01*
X169842857Y-104602233D01*
X169844836Y-104602038D01*
X169845734Y-104602186D01*
X169852816Y-104601252D01*
X169859927Y-104600552D01*
X169860767Y-104600203D01*
X169862739Y-104599944D01*
X170005596Y-104566611D01*
X170020135Y-104561673D01*
X170020944Y-104561494D01*
X170021371Y-104561253D01*
X170021838Y-104561095D01*
X170022513Y-104560610D01*
X170035893Y-104553082D01*
X170083512Y-104519748D01*
X170096532Y-104508582D01*
X170100658Y-104502106D01*
X170106087Y-104496678D01*
X170109743Y-104487850D01*
X170114880Y-104479790D01*
X170116214Y-104472228D01*
X170119152Y-104465136D01*
X170120833Y-104448066D01*
X170120833Y-104214733D01*
X170119152Y-104197663D01*
X170106087Y-104166121D01*
X170081945Y-104141979D01*
X170050403Y-104128914D01*
X170033333Y-104127233D01*
X169842857Y-104127233D01*
X169825787Y-104128914D01*
X169794245Y-104141979D01*
X169770103Y-104166121D01*
X169757038Y-104197663D01*
X169757038Y-104231803D01*
X169770103Y-104263345D01*
X169794245Y-104287487D01*
X169825787Y-104300552D01*
X169842857Y-104302233D01*
X169945833Y-104302233D01*
X169945833Y-104400855D01*
X169832785Y-104427233D01*
X169757691Y-104427233D01*
X169641099Y-104400028D01*
X169572000Y-104351658D01*
X169540201Y-104307140D01*
X169501786Y-104199578D01*
X169501786Y-104129887D01*
X169540201Y-104022325D01*
X169572000Y-103977807D01*
X169641099Y-103929437D01*
X169757691Y-103902233D01*
X169875605Y-103902233D01*
X169956809Y-103930654D01*
X169973476Y-103934706D01*
X170007563Y-103932794D01*
X170038325Y-103917983D01*
X170061076Y-103892528D01*
X170072354Y-103860305D01*
X170070443Y-103826217D01*
X170055631Y-103795455D01*
X170030176Y-103772704D01*
X170014620Y-103765478D01*
X169919381Y-103732145D01*
X169909613Y-103729770D01*
X169907546Y-103728914D01*
X169905100Y-103728673D01*
X169902714Y-103728093D01*
X169900480Y-103728218D01*
X169890476Y-103727233D01*
X169747619Y-103727233D01*
X169745639Y-103727427D01*
X169744742Y-103727280D01*
X169737657Y-103728213D01*
X169730549Y-103728914D01*
X169729709Y-103729261D01*
X169727736Y-103729522D01*
X169584880Y-103762855D01*
X169570348Y-103767790D01*
X169569532Y-103767971D01*
X169569100Y-103768214D01*
X169568638Y-103768371D01*
X169567968Y-103768850D01*
X169554584Y-103776383D01*
X169459346Y-103843050D01*
X169451480Y-103849796D01*
X169449612Y-103850962D01*
X169448085Y-103852707D01*
X169446326Y-103854217D01*
X169445142Y-103856073D01*
X169438322Y-103863875D01*
X169390703Y-103930542D01*
X169388117Y-103935034D01*
X169386827Y-103936461D01*
X169384673Y-103941021D01*
X169382149Y-103945409D01*
X169381713Y-103947289D01*
X169379503Y-103951971D01*
X169331884Y-104085304D01*
X169329294Y-104095666D01*
X169328467Y-104097663D01*
X169328253Y-104099828D01*
X169327725Y-104101944D01*
X169327832Y-104104105D01*
X169326786Y-104114733D01*
X169120833Y-104114733D01*
X169120833Y-104048066D01*
X169119786Y-104037438D01*
X169119894Y-104035277D01*
X169119365Y-104033161D01*
X169119152Y-104030996D01*
X169118325Y-104028999D01*
X169115735Y-104018636D01*
X169068116Y-103885304D01*
X169067396Y-103883779D01*
X169067260Y-103883008D01*
X169066379Y-103881626D01*
X169060792Y-103869793D01*
X169054192Y-103862503D01*
X169048912Y-103854217D01*
X169038977Y-103845696D01*
X169037879Y-103844483D01*
X169037172Y-103844148D01*
X169035892Y-103843050D01*
X168940654Y-103776383D01*
X168936334Y-103773952D01*
X168934938Y-103772704D01*
X168930231Y-103770517D01*
X168925706Y-103767971D01*
X168923876Y-103767565D01*
X168919382Y-103765478D01*
X168824143Y-103732145D01*
X168814375Y-103729770D01*
X168812308Y-103728914D01*
X168809862Y-103728673D01*
X168807476Y-103728093D01*
X168805242Y-103728218D01*
X168795238Y-103727233D01*
X168604762Y-103727233D01*
X168594757Y-103728218D01*
X168592524Y-103728093D01*
X168590137Y-103728673D01*
X168587692Y-103728914D01*
X168585624Y-103729770D01*
X168575857Y-103732145D01*
X168480619Y-103765478D01*
X168476125Y-103767565D01*
X168474294Y-103767971D01*
X168469766Y-103770518D01*
X168465062Y-103772704D01*
X168463665Y-103773952D01*
X168459346Y-103776383D01*
X168364108Y-103843050D01*
X168362828Y-103844147D01*
X168362120Y-103844483D01*
X168361018Y-103845699D01*
X168351088Y-103854217D01*
X168345806Y-103862504D01*
X168339208Y-103869794D01*
X168333620Y-103881625D01*
X168332740Y-103883008D01*
X168332603Y-103883779D01*
X168331884Y-103885304D01*
X168284265Y-104018637D01*
X168281675Y-104028999D01*
X168280848Y-104030996D01*
X168280634Y-104033161D01*
X168280106Y-104035277D01*
X168280213Y-104037438D01*
X168279167Y-104048066D01*
X168073214Y-104048066D01*
X168073214Y-103948066D01*
X168073028Y-103946187D01*
X168073171Y-103945335D01*
X168072777Y-103943637D01*
X168071533Y-103930996D01*
X168067717Y-103921784D01*
X168065469Y-103912075D01*
X168059137Y-103901069D01*
X168058468Y-103899454D01*
X168057855Y-103898841D01*
X168056915Y-103897207D01*
X168009296Y-103830541D01*
X168002478Y-103822742D01*
X168001294Y-103820884D01*
X167999533Y-103819374D01*
X167998007Y-103817628D01*
X167996136Y-103816460D01*
X167988274Y-103809718D01*
X167940655Y-103776384D01*
X167936336Y-103773953D01*
X167934938Y-103772704D01*
X167930223Y-103770513D01*
X167925706Y-103767972D01*
X167923879Y-103767567D01*
X167919382Y-103765478D01*
X167824143Y-103732145D01*
X167814375Y-103729770D01*
X167812308Y-103728914D01*
X167809862Y-103728673D01*
X167807476Y-103728093D01*
X167805242Y-103728218D01*
X167795238Y-103727233D01*
X167414286Y-103727233D01*
X167397216Y-103728914D01*
X167365674Y-103741979D01*
X167341532Y-103766121D01*
X167328467Y-103797663D01*
X167326786Y-103814733D01*
X166994122Y-103814733D01*
X166988274Y-103809718D01*
X166940655Y-103776384D01*
X166936336Y-103773953D01*
X166934938Y-103772704D01*
X166930223Y-103770513D01*
X166925706Y-103767972D01*
X166923879Y-103767567D01*
X166919382Y-103765478D01*
X166824143Y-103732145D01*
X166814375Y-103729770D01*
X166812308Y-103728914D01*
X166809862Y-103728673D01*
X166807476Y-103728093D01*
X166805242Y-103728218D01*
X166795238Y-103727233D01*
X166414286Y-103727233D01*
X166397216Y-103728914D01*
X166365674Y-103741979D01*
X166341532Y-103766121D01*
X166328467Y-103797663D01*
X166326786Y-103814733D01*
X166239286Y-103814733D01*
X166239286Y-103639733D01*
X170208333Y-103639733D01*
X170208333Y-104689733D01*
G37*
D11*
X166696667Y-110107200D02*
X166839524Y-110154819D01*
X166839524Y-110154819D02*
X167077619Y-110154819D01*
X167077619Y-110154819D02*
X167172857Y-110107200D01*
X167172857Y-110107200D02*
X167220476Y-110059580D01*
X167220476Y-110059580D02*
X167268095Y-109964342D01*
X167268095Y-109964342D02*
X167268095Y-109869104D01*
X167268095Y-109869104D02*
X167220476Y-109773866D01*
X167220476Y-109773866D02*
X167172857Y-109726247D01*
X167172857Y-109726247D02*
X167077619Y-109678628D01*
X167077619Y-109678628D02*
X166887143Y-109631009D01*
X166887143Y-109631009D02*
X166791905Y-109583390D01*
X166791905Y-109583390D02*
X166744286Y-109535771D01*
X166744286Y-109535771D02*
X166696667Y-109440533D01*
X166696667Y-109440533D02*
X166696667Y-109345295D01*
X166696667Y-109345295D02*
X166744286Y-109250057D01*
X166744286Y-109250057D02*
X166791905Y-109202438D01*
X166791905Y-109202438D02*
X166887143Y-109154819D01*
X166887143Y-109154819D02*
X167125238Y-109154819D01*
X167125238Y-109154819D02*
X167268095Y-109202438D01*
X167601429Y-109154819D02*
X167839524Y-110154819D01*
X167839524Y-110154819D02*
X168030000Y-109440533D01*
X168030000Y-109440533D02*
X168220476Y-110154819D01*
X168220476Y-110154819D02*
X168458572Y-109154819D01*
X168791905Y-109250057D02*
X168839524Y-109202438D01*
X168839524Y-109202438D02*
X168934762Y-109154819D01*
X168934762Y-109154819D02*
X169172857Y-109154819D01*
X169172857Y-109154819D02*
X169268095Y-109202438D01*
X169268095Y-109202438D02*
X169315714Y-109250057D01*
X169315714Y-109250057D02*
X169363333Y-109345295D01*
X169363333Y-109345295D02*
X169363333Y-109440533D01*
X169363333Y-109440533D02*
X169315714Y-109583390D01*
X169315714Y-109583390D02*
X168744286Y-110154819D01*
X168744286Y-110154819D02*
X169363333Y-110154819D01*
D12*
%TO.C,G\u002A\u002A\u002A*%
G36*
X159931599Y-108680979D02*
G01*
X159984838Y-108683438D01*
X160024936Y-108688344D01*
X160055077Y-108696361D01*
X160078443Y-108708151D01*
X160098217Y-108724377D01*
X160104432Y-108730748D01*
X160122912Y-108755053D01*
X160134529Y-108777112D01*
X160140292Y-108789142D01*
X160149566Y-108795991D01*
X160167006Y-108798894D01*
X160197271Y-108799084D01*
X160215712Y-108798630D01*
X160288192Y-108796622D01*
X160326217Y-108906984D01*
X160348543Y-108970232D01*
X160366144Y-109016314D01*
X160379749Y-109046825D01*
X160390088Y-109063362D01*
X160397892Y-109067519D01*
X160399409Y-109066890D01*
X160405046Y-109056311D01*
X160415194Y-109030552D01*
X160428576Y-108993093D01*
X160443918Y-108947417D01*
X160449621Y-108929801D01*
X160492026Y-108797538D01*
X160549517Y-108797538D01*
X160581403Y-108798086D01*
X160597797Y-108800766D01*
X160602739Y-108807136D01*
X160600745Y-108817273D01*
X160592606Y-108840484D01*
X160578870Y-108877012D01*
X160560772Y-108923791D01*
X160539547Y-108977756D01*
X160516427Y-109035842D01*
X160492647Y-109094984D01*
X160469441Y-109152116D01*
X160448044Y-109204175D01*
X160429689Y-109248095D01*
X160415611Y-109280811D01*
X160407043Y-109299258D01*
X160405786Y-109301471D01*
X160376216Y-109330308D01*
X160334365Y-109350200D01*
X160285998Y-109359692D01*
X160236881Y-109357327D01*
X160211753Y-109350488D01*
X160187007Y-109340590D01*
X160171177Y-109332903D01*
X160169248Y-109331505D01*
X160170479Y-109320817D01*
X160179263Y-109300562D01*
X160192007Y-109277219D01*
X160205119Y-109257268D01*
X160215006Y-109247189D01*
X160216145Y-109246923D01*
X160227570Y-109253933D01*
X160229577Y-109256692D01*
X160242818Y-109263800D01*
X160263636Y-109266461D01*
X160290252Y-109258596D01*
X160313409Y-109239051D01*
X160327674Y-109213903D01*
X160328938Y-109193410D01*
X160323414Y-109177407D01*
X160310996Y-109145867D01*
X160292665Y-109101135D01*
X160269399Y-109045556D01*
X160242180Y-108981474D01*
X160211987Y-108911235D01*
X160186741Y-108853086D01*
X160171309Y-108823837D01*
X160159222Y-108813769D01*
X160150928Y-108822739D01*
X160146874Y-108850605D01*
X160146538Y-108865863D01*
X160141307Y-108920597D01*
X160124252Y-108964133D01*
X160100344Y-108995139D01*
X160074183Y-109016614D01*
X160040655Y-109032071D01*
X159996006Y-109042680D01*
X159936486Y-109049607D01*
X159921846Y-109050697D01*
X159838807Y-109056423D01*
X159835954Y-109132134D01*
X159833101Y-109207846D01*
X159770012Y-109207846D01*
X159706923Y-109207846D01*
X159706923Y-108944077D01*
X159706923Y-108888658D01*
X159835163Y-108888658D01*
X159835749Y-108920090D01*
X159837546Y-108938954D01*
X159838061Y-108940771D01*
X159850462Y-108948800D01*
X159876228Y-108953277D01*
X159909530Y-108954291D01*
X159944537Y-108951928D01*
X159975418Y-108946279D01*
X159994965Y-108938392D01*
X160020957Y-108910574D01*
X160033000Y-108873655D01*
X160029428Y-108833731D01*
X160026105Y-108824482D01*
X160006338Y-108795041D01*
X159975204Y-108777154D01*
X159930410Y-108769859D01*
X159896552Y-108770138D01*
X159838807Y-108773115D01*
X159835926Y-108850405D01*
X159835163Y-108888658D01*
X159706923Y-108888658D01*
X159706923Y-108680307D01*
X159862037Y-108680307D01*
X159931599Y-108680979D01*
G37*
G36*
X158231769Y-108943649D02*
G01*
X158231769Y-109207846D01*
X158178038Y-109207846D01*
X158124307Y-109207846D01*
X158124307Y-109040955D01*
X158123911Y-108975808D01*
X158122648Y-108928564D01*
X158120404Y-108897602D01*
X158117069Y-108881299D01*
X158112986Y-108877838D01*
X158105267Y-108887686D01*
X158091576Y-108912282D01*
X158073566Y-108948387D01*
X158052892Y-108992759D01*
X158042780Y-109015421D01*
X157983896Y-109149230D01*
X157942952Y-109149230D01*
X157902008Y-109149230D01*
X157845404Y-109019788D01*
X157820355Y-108962960D01*
X157801611Y-108921893D01*
X157787902Y-108894337D01*
X157777959Y-108878041D01*
X157770513Y-108870757D01*
X157764294Y-108870234D01*
X157761739Y-108871491D01*
X157758882Y-108882561D01*
X157756422Y-108909852D01*
X157754527Y-108950048D01*
X157753366Y-108999835D01*
X157753077Y-109042345D01*
X157753077Y-109207846D01*
X157701788Y-109207840D01*
X157650500Y-109207834D01*
X157652131Y-108946513D01*
X157653762Y-108685192D01*
X157724079Y-108685192D01*
X157794395Y-108685192D01*
X157864101Y-108835774D01*
X157887586Y-108885301D01*
X157908862Y-108927927D01*
X157926398Y-108960756D01*
X157938664Y-108980897D01*
X157943577Y-108985938D01*
X157950689Y-108977361D01*
X157964241Y-108953867D01*
X157982701Y-108918377D01*
X158004534Y-108873812D01*
X158022586Y-108835356D01*
X158091826Y-108685192D01*
X158161797Y-108682322D01*
X158231769Y-108679451D01*
X158231769Y-108943649D01*
G37*
G36*
X158446692Y-109002692D02*
G01*
X158446692Y-109207846D01*
X158388077Y-109207846D01*
X158329461Y-109207846D01*
X158329461Y-109002692D01*
X158329461Y-108797538D01*
X158388077Y-108797538D01*
X158446692Y-108797538D01*
X158446692Y-109002692D01*
G37*
G36*
X158735507Y-108800062D02*
G01*
X158776719Y-108807345D01*
X158817008Y-108821185D01*
X158851067Y-108839075D01*
X158873588Y-108858508D01*
X158878768Y-108867727D01*
X158873729Y-108879853D01*
X158856215Y-108896661D01*
X158843112Y-108906002D01*
X158803269Y-108931712D01*
X158781782Y-108912232D01*
X158748660Y-108894331D01*
X158710108Y-108891749D01*
X158672418Y-108904175D01*
X158652958Y-108918588D01*
X158627913Y-108954162D01*
X158617298Y-108995389D01*
X158620596Y-109037241D01*
X158637289Y-109074688D01*
X158666860Y-109102703D01*
X158672216Y-109105699D01*
X158705148Y-109117970D01*
X158734579Y-109115977D01*
X158767740Y-109099052D01*
X158771516Y-109096528D01*
X158805989Y-109073134D01*
X158846049Y-109097023D01*
X158869773Y-109111993D01*
X158879274Y-109122469D01*
X158877312Y-109133616D01*
X158871088Y-109143838D01*
X158844235Y-109169205D01*
X158803668Y-109188898D01*
X158754677Y-109201786D01*
X158702551Y-109206739D01*
X158652580Y-109202627D01*
X158627423Y-109195912D01*
X158573719Y-109168101D01*
X158535082Y-109127992D01*
X158511387Y-109075394D01*
X158502511Y-109010116D01*
X158502434Y-109002692D01*
X158509927Y-108935420D01*
X158532000Y-108880968D01*
X158568046Y-108839863D01*
X158617457Y-108812635D01*
X158679624Y-108799812D01*
X158735507Y-108800062D01*
G37*
G36*
X159026267Y-108798074D02*
G01*
X159043815Y-108800924D01*
X159050993Y-108807953D01*
X159052384Y-108821024D01*
X159052384Y-108821385D01*
X159056619Y-108844463D01*
X159067745Y-108850955D01*
X159083027Y-108839879D01*
X159103741Y-108823544D01*
X159133833Y-108808314D01*
X159163456Y-108798764D01*
X159174186Y-108797538D01*
X159183542Y-108802468D01*
X159188131Y-108819794D01*
X159189153Y-108846384D01*
X159188304Y-108875426D01*
X159184200Y-108889916D01*
X159174505Y-108894820D01*
X159166175Y-108895230D01*
X159138084Y-108902431D01*
X159106422Y-108920641D01*
X159078691Y-108944774D01*
X159064882Y-108963908D01*
X159058869Y-108986678D01*
X159054710Y-109025918D01*
X159052682Y-109078621D01*
X159052528Y-109097942D01*
X159052384Y-109207846D01*
X158993769Y-109207846D01*
X158935153Y-109207846D01*
X158935153Y-109002692D01*
X158935153Y-108797538D01*
X158993769Y-108797538D01*
X159026267Y-108798074D01*
G37*
G36*
X159473528Y-108802881D02*
G01*
X159503122Y-108805106D01*
X159524583Y-108810372D01*
X159543610Y-108819954D01*
X159561115Y-108831730D01*
X159603800Y-108870889D01*
X159630343Y-108917912D01*
X159642104Y-108975644D01*
X159642973Y-109002692D01*
X159635069Y-109068869D01*
X159612509Y-109122154D01*
X159575482Y-109162362D01*
X159524173Y-109189307D01*
X159458771Y-109202805D01*
X159439678Y-109204080D01*
X159399007Y-109203956D01*
X159361127Y-109200752D01*
X159335792Y-109195577D01*
X159291037Y-109171395D01*
X159251768Y-109133443D01*
X159223004Y-109087485D01*
X159211700Y-109053097D01*
X159209796Y-109029066D01*
X159326313Y-109029066D01*
X159329707Y-109049914D01*
X159340957Y-109067636D01*
X159357946Y-109085515D01*
X159394631Y-109112746D01*
X159430519Y-109120782D01*
X159464796Y-109109576D01*
X159485041Y-109092780D01*
X159515001Y-109050175D01*
X159526429Y-109005972D01*
X159519398Y-108962684D01*
X159493982Y-108922826D01*
X159479676Y-108909234D01*
X159454379Y-108891984D01*
X159430339Y-108887447D01*
X159414911Y-108889073D01*
X159374030Y-108903839D01*
X159346031Y-108932999D01*
X159330606Y-108976935D01*
X159328029Y-108996958D01*
X159326313Y-109029066D01*
X159209796Y-109029066D01*
X159206401Y-108986229D01*
X159217402Y-108926108D01*
X159243836Y-108874998D01*
X159284835Y-108835165D01*
X159298575Y-108826474D01*
X159322054Y-108814577D01*
X159345517Y-108807338D01*
X159374941Y-108803665D01*
X159416303Y-108802465D01*
X159430100Y-108802423D01*
X159473528Y-108802881D01*
G37*
G36*
X160803031Y-108756019D02*
G01*
X160805961Y-108812192D01*
X160857250Y-108815145D01*
X160908538Y-108818098D01*
X160908538Y-108856153D01*
X160908538Y-108894209D01*
X160857250Y-108897162D01*
X160805961Y-108900115D01*
X160803136Y-108991730D01*
X160803183Y-109046256D01*
X160807994Y-109083774D01*
X160818670Y-109106468D01*
X160836313Y-109116521D01*
X160862026Y-109116118D01*
X160865594Y-109115492D01*
X160887685Y-109113505D01*
X160898291Y-109121153D01*
X160902494Y-109133436D01*
X160909284Y-109157632D01*
X160913758Y-109171006D01*
X160911003Y-109185578D01*
X160893292Y-109196802D01*
X160864994Y-109204233D01*
X160830473Y-109207429D01*
X160794098Y-109205944D01*
X160760234Y-109199335D01*
X160736200Y-109189063D01*
X160713449Y-109173105D01*
X160698292Y-109158763D01*
X160697302Y-109157349D01*
X160693768Y-109143005D01*
X160690120Y-109113371D01*
X160686775Y-109072686D01*
X160684150Y-109025193D01*
X160684025Y-109022230D01*
X160678961Y-108900115D01*
X160652096Y-108897024D01*
X160634526Y-108892809D01*
X160626914Y-108881581D01*
X160625231Y-108857216D01*
X160625230Y-108856153D01*
X160626790Y-108831267D01*
X160634151Y-108819715D01*
X160651341Y-108815371D01*
X160652096Y-108815283D01*
X160667321Y-108812171D01*
X160675728Y-108804007D01*
X160679811Y-108785831D01*
X160681891Y-108756019D01*
X160684821Y-108699846D01*
X160742461Y-108699846D01*
X160800101Y-108699846D01*
X160803031Y-108756019D01*
G37*
G36*
X161094153Y-108742179D02*
G01*
X161094761Y-108784814D01*
X161096400Y-108819916D01*
X161098798Y-108843052D01*
X161100803Y-108849777D01*
X161111258Y-108847979D01*
X161129160Y-108835336D01*
X161135165Y-108829877D01*
X161155252Y-108814086D01*
X161178579Y-108805031D01*
X161212266Y-108800288D01*
X161224680Y-108799392D01*
X161279220Y-108800506D01*
X161319853Y-108812796D01*
X161349633Y-108837745D01*
X161368245Y-108869013D01*
X161375676Y-108888312D01*
X161380886Y-108910555D01*
X161384249Y-108939512D01*
X161386138Y-108978954D01*
X161386926Y-109032652D01*
X161387016Y-109058865D01*
X161387230Y-109207846D01*
X161329372Y-109207846D01*
X161271513Y-109207846D01*
X161268314Y-109075092D01*
X161266911Y-109021840D01*
X161265238Y-108984513D01*
X161262589Y-108959500D01*
X161258257Y-108943193D01*
X161251535Y-108931982D01*
X161241717Y-108922258D01*
X161237705Y-108918784D01*
X161202777Y-108898600D01*
X161167927Y-108897933D01*
X161133494Y-108916764D01*
X161124213Y-108925290D01*
X161094153Y-108955349D01*
X161094153Y-109081597D01*
X161094153Y-109207846D01*
X161035538Y-109207846D01*
X160976923Y-109207846D01*
X160976923Y-108924538D01*
X160976923Y-108641230D01*
X161035538Y-108641230D01*
X161094153Y-108641230D01*
X161094153Y-108742179D01*
G37*
G36*
X161695722Y-108799789D02*
G01*
X161754085Y-108813709D01*
X161801886Y-108838764D01*
X161808394Y-108843913D01*
X161843493Y-108885005D01*
X161865697Y-108935427D01*
X161875039Y-108990803D01*
X161871554Y-109046759D01*
X161855275Y-109098917D01*
X161826238Y-109142903D01*
X161805928Y-109161227D01*
X161748497Y-109192240D01*
X161684106Y-109207142D01*
X161617448Y-109205505D01*
X161553217Y-109186899D01*
X161548423Y-109184712D01*
X161504814Y-109160300D01*
X161475472Y-109132819D01*
X161455248Y-109096988D01*
X161450230Y-109083935D01*
X161437439Y-109024330D01*
X161438238Y-109006015D01*
X161559710Y-109006015D01*
X161564600Y-109045261D01*
X161575767Y-109071239D01*
X161607482Y-109102995D01*
X161644243Y-109117561D01*
X161682758Y-109114213D01*
X161709259Y-109100638D01*
X161739798Y-109067958D01*
X161754823Y-109027073D01*
X161753871Y-108982238D01*
X161736476Y-108937709D01*
X161728350Y-108925541D01*
X161698222Y-108899133D01*
X161662082Y-108888679D01*
X161624853Y-108893942D01*
X161591461Y-108914683D01*
X161576350Y-108932853D01*
X161563639Y-108965622D01*
X161559710Y-109006015D01*
X161438238Y-109006015D01*
X161440009Y-108965443D01*
X161456444Y-108910766D01*
X161485246Y-108863795D01*
X161524922Y-108828024D01*
X161568181Y-108808434D01*
X161632014Y-108797774D01*
X161695722Y-108799789D01*
G37*
G36*
X162025453Y-108798110D02*
G01*
X162043021Y-108801011D01*
X162050193Y-108808017D01*
X162051538Y-108820333D01*
X162054531Y-108843162D01*
X162064756Y-108849015D01*
X162084085Y-108838421D01*
X162092258Y-108831847D01*
X162127916Y-108811675D01*
X162172444Y-108800329D01*
X162219512Y-108798074D01*
X162262789Y-108805175D01*
X162295944Y-108821897D01*
X162297514Y-108823248D01*
X162314374Y-108841128D01*
X162326790Y-108862473D01*
X162335390Y-108890399D01*
X162340805Y-108928022D01*
X162343666Y-108978458D01*
X162344602Y-109044821D01*
X162344615Y-109056109D01*
X162344615Y-109207846D01*
X162286000Y-109207846D01*
X162227384Y-109207846D01*
X162227384Y-109077789D01*
X162227271Y-109025184D01*
X162226495Y-108988400D01*
X162224406Y-108963717D01*
X162220352Y-108947418D01*
X162213680Y-108935783D01*
X162203739Y-108925095D01*
X162199984Y-108921481D01*
X162167319Y-108899910D01*
X162133988Y-108897676D01*
X162099183Y-108914795D01*
X162088327Y-108923712D01*
X162056423Y-108952195D01*
X162053204Y-109080020D01*
X162049985Y-109207846D01*
X161992146Y-109207846D01*
X161934307Y-109207846D01*
X161934307Y-109002692D01*
X161934307Y-108797538D01*
X161992923Y-108797538D01*
X162025453Y-108798110D01*
G37*
G36*
X158420786Y-108617517D02*
G01*
X158439355Y-108635699D01*
X158446478Y-108668566D01*
X158446692Y-108677711D01*
X158441220Y-108707073D01*
X158423216Y-108723531D01*
X158390299Y-108729115D01*
X158386348Y-108729153D01*
X158357166Y-108725398D01*
X158338458Y-108711694D01*
X158333761Y-108705209D01*
X158323803Y-108673538D01*
X158331553Y-108639817D01*
X158341622Y-108624134D01*
X158357118Y-108616174D01*
X158382941Y-108612073D01*
X158388929Y-108611923D01*
X158420786Y-108617517D01*
G37*
G36*
X159924248Y-106059711D02*
G01*
X159926730Y-107229577D01*
X159995115Y-107229577D01*
X160063500Y-107229577D01*
X160065981Y-106059711D01*
X160068463Y-104889846D01*
X160776693Y-104889846D01*
X161484923Y-104889846D01*
X161484923Y-106379653D01*
X161484923Y-107869461D01*
X161167462Y-107869461D01*
X160850002Y-107869461D01*
X160849239Y-107510047D01*
X161095675Y-107510047D01*
X161095769Y-107554927D01*
X161096540Y-107589468D01*
X161097932Y-107609796D01*
X161098598Y-107612952D01*
X161106544Y-107619497D01*
X161126108Y-107623012D01*
X161160287Y-107623835D01*
X161189244Y-107623171D01*
X161274884Y-107620346D01*
X161277602Y-107480024D01*
X161278134Y-107415166D01*
X161276804Y-107368556D01*
X161273543Y-107338987D01*
X161268771Y-107325788D01*
X161256699Y-107318440D01*
X161233575Y-107314716D01*
X161195876Y-107314183D01*
X161178130Y-107314686D01*
X161099038Y-107317500D01*
X161096315Y-107458704D01*
X161095675Y-107510047D01*
X160849239Y-107510047D01*
X160847520Y-106699596D01*
X160845038Y-105529730D01*
X160776653Y-105529730D01*
X160708269Y-105529730D01*
X160705787Y-106699596D01*
X160703305Y-107869461D01*
X159995115Y-107869461D01*
X159286925Y-107869461D01*
X159284443Y-106699596D01*
X159281961Y-105529730D01*
X159213577Y-105529730D01*
X159145192Y-105529730D01*
X159142710Y-106699596D01*
X159140228Y-107869461D01*
X158822768Y-107869461D01*
X158505307Y-107869461D01*
X158505307Y-106379653D01*
X158505307Y-104889846D01*
X159213537Y-104889846D01*
X159921767Y-104889846D01*
X159924248Y-106059711D01*
G37*
D13*
%TO.C,D1*%
X148940000Y-104375000D02*
X155040000Y-104375000D01*
X148940000Y-105475000D02*
X148940000Y-104375000D01*
X155040000Y-109775000D02*
X150040000Y-109775000D01*
D14*
%TO.C,U1*%
X142360000Y-78254600D02*
X142360000Y-109840000D01*
D13*
X150840000Y-73080000D02*
X150840000Y-79495000D01*
X150840000Y-73080000D02*
X169080000Y-73080000D01*
X150840000Y-79495000D02*
X150460000Y-79495000D01*
X150840000Y-98040000D02*
X150840000Y-98820000D01*
X150840000Y-98820000D02*
X151840000Y-98820000D01*
X169080000Y-73080000D02*
X169080000Y-79495000D01*
X169080000Y-98040000D02*
X169080000Y-98820000D01*
X169080000Y-98820000D02*
X168080000Y-98820000D01*
D14*
X175845400Y-111540000D02*
X144260000Y-111540000D01*
X177460000Y-78140000D02*
X177460000Y-109725400D01*
X142360000Y-78254600D02*
G75*
G02*
X145432834Y-79512834I1800000J14600D01*
G01*
X144259999Y-111542630D02*
G75*
G02*
X142360000Y-109740000I1J1902630D01*
G01*
X174555841Y-79444159D02*
G75*
G02*
X177459999Y-78140000I1204159J1204159D01*
G01*
X177460000Y-109725400D02*
G75*
G02*
X175840748Y-111541944I-1700000J-114600D01*
G01*
D13*
%TO.C,SW2*%
X165100000Y-105610000D02*
X165100000Y-105150000D01*
X165100000Y-108850000D02*
X165100000Y-108390000D01*
X165100000Y-108850000D02*
X171300000Y-108850000D01*
X171300000Y-105150000D02*
X165100000Y-105150000D01*
X171300000Y-105610000D02*
X171300000Y-105150000D01*
X171300000Y-108390000D02*
X172300000Y-108390000D01*
X171300000Y-108850000D02*
X171300000Y-108390000D01*
X169700000Y-107550000D02*
X166850000Y-107550000D01*
X166850000Y-106500000D01*
X169700000Y-106500000D01*
X169700000Y-107550000D01*
%TD*%
M02*
