%TF.GenerationSoftware,KiCad,Pcbnew,7.0.10*%
%TF.CreationDate,2024-01-17T03:24:24-05:00*%
%TF.ProjectId,esp32-wroom-socket,65737033-322d-4777-926f-6f6d2d736f63,rev?*%
%TF.SameCoordinates,Original*%
%TF.FileFunction,Legend,Top*%
%TF.FilePolarity,Positive*%
%FSLAX46Y46*%
G04 Gerber Fmt 4.6, Leading zero omitted, Abs format (unit mm)*
G04 Created by KiCad (PCBNEW 7.0.10) date 2024-01-17 03:24:24*
%MOMM*%
%LPD*%
G01*
G04 APERTURE LIST*
%ADD10C,0.150000*%
%ADD11C,0.100000*%
%ADD12C,0.200000*%
%ADD13C,0.120000*%
G04 APERTURE END LIST*
D10*
X148864819Y-98091904D02*
X149674342Y-98091904D01*
X149674342Y-98091904D02*
X149769580Y-98044285D01*
X149769580Y-98044285D02*
X149817200Y-97996666D01*
X149817200Y-97996666D02*
X149864819Y-97901428D01*
X149864819Y-97901428D02*
X149864819Y-97710952D01*
X149864819Y-97710952D02*
X149817200Y-97615714D01*
X149817200Y-97615714D02*
X149769580Y-97568095D01*
X149769580Y-97568095D02*
X149674342Y-97520476D01*
X149674342Y-97520476D02*
X148864819Y-97520476D01*
X149864819Y-96520476D02*
X149864819Y-97091904D01*
X149864819Y-96806190D02*
X148864819Y-96806190D01*
X148864819Y-96806190D02*
X149007676Y-96901428D01*
X149007676Y-96901428D02*
X149102914Y-96996666D01*
X149102914Y-96996666D02*
X149150533Y-97091904D01*
D11*
G36*
X155007599Y-108181130D02*
G01*
X155043743Y-108217275D01*
X155082455Y-108294698D01*
X155082455Y-108413948D01*
X155043743Y-108491371D01*
X155007599Y-108527516D01*
X154930176Y-108566228D01*
X154611027Y-108566228D01*
X154611027Y-108142419D01*
X154930176Y-108142419D01*
X155007599Y-108181130D01*
G37*
G36*
X160293313Y-108181130D02*
G01*
X160329457Y-108217275D01*
X160368169Y-108294698D01*
X160368169Y-108413948D01*
X160329457Y-108491371D01*
X160293313Y-108527516D01*
X160215890Y-108566228D01*
X159896741Y-108566228D01*
X159896741Y-108142419D01*
X160215890Y-108142419D01*
X160293313Y-108181130D01*
G37*
G36*
X161293314Y-108181131D02*
G01*
X161373020Y-108260837D01*
X161415788Y-108431907D01*
X161415788Y-108752930D01*
X161373020Y-108923999D01*
X161293312Y-109003708D01*
X161215890Y-109042419D01*
X161049021Y-109042419D01*
X160971598Y-109003707D01*
X160891889Y-108923998D01*
X160849122Y-108752930D01*
X160849122Y-108431907D01*
X160891889Y-108260837D01*
X160971595Y-108181131D01*
X161049021Y-108142419D01*
X161215890Y-108142419D01*
X161293314Y-108181131D01*
G37*
G36*
X162340933Y-108181131D02*
G01*
X162420639Y-108260837D01*
X162463407Y-108431907D01*
X162463407Y-108752930D01*
X162420639Y-108923999D01*
X162340931Y-109003708D01*
X162263509Y-109042419D01*
X162096640Y-109042419D01*
X162019217Y-109003707D01*
X161939508Y-108923998D01*
X161896741Y-108752930D01*
X161896741Y-108431907D01*
X161939508Y-108260837D01*
X162019214Y-108181131D01*
X162096640Y-108142419D01*
X162263509Y-108142419D01*
X162340933Y-108181131D01*
G37*
G36*
X167581636Y-108183739D02*
G01*
X167662789Y-108264892D01*
X167704326Y-108347966D01*
X167749121Y-108527145D01*
X167749121Y-108657692D01*
X167704326Y-108836870D01*
X167662789Y-108919944D01*
X167581635Y-109001098D01*
X167457675Y-109042419D01*
X167277693Y-109042419D01*
X167277693Y-108142419D01*
X167457675Y-108142419D01*
X167581636Y-108183739D01*
G37*
G36*
X167991978Y-109285276D02*
G01*
X152511027Y-109285276D01*
X152511027Y-109092419D01*
X152653884Y-109092419D01*
X152668529Y-109127774D01*
X152703884Y-109142419D01*
X153180074Y-109142419D01*
X153215429Y-109127774D01*
X153230074Y-109092419D01*
X153215429Y-109057064D01*
X153180074Y-109042419D01*
X152753884Y-109042419D01*
X152753884Y-108618609D01*
X153037217Y-108618609D01*
X153072572Y-108603964D01*
X153087217Y-108568609D01*
X153072572Y-108533254D01*
X153037217Y-108518609D01*
X152753884Y-108518609D01*
X152753884Y-108378133D01*
X153511027Y-108378133D01*
X153515480Y-108388885D01*
X153516306Y-108400494D01*
X153563924Y-108495731D01*
X153570141Y-108501123D01*
X153573291Y-108508726D01*
X153620909Y-108556345D01*
X153628512Y-108559494D01*
X153633904Y-108565711D01*
X153729142Y-108613330D01*
X153734810Y-108613732D01*
X153739376Y-108617116D01*
X153924528Y-108663404D01*
X154007599Y-108704939D01*
X154043743Y-108741084D01*
X154082455Y-108818507D01*
X154082455Y-108890138D01*
X154043743Y-108967561D01*
X154007597Y-109003708D01*
X153930176Y-109042419D01*
X153711997Y-109042419D01*
X153576838Y-108997366D01*
X153538667Y-109000079D01*
X153513593Y-109028989D01*
X153516306Y-109067160D01*
X153545216Y-109092234D01*
X153688072Y-109139853D01*
X153696280Y-109139269D01*
X153703884Y-109142419D01*
X153941979Y-109142419D01*
X153952731Y-109137965D01*
X153964340Y-109137140D01*
X154053783Y-109092419D01*
X154511027Y-109092419D01*
X154525672Y-109127774D01*
X154561027Y-109142419D01*
X154596382Y-109127774D01*
X154611027Y-109092419D01*
X154611027Y-108997179D01*
X155415789Y-108997179D01*
X155430433Y-109032535D01*
X155478052Y-109080155D01*
X155485655Y-109083304D01*
X155491047Y-109089521D01*
X155586285Y-109137140D01*
X155597893Y-109137965D01*
X155608646Y-109142419D01*
X155894360Y-109142419D01*
X155905112Y-109137965D01*
X155916721Y-109137140D01*
X156006164Y-109092419D01*
X156368170Y-109092419D01*
X156382815Y-109127774D01*
X156418170Y-109142419D01*
X157037217Y-109142419D01*
X157072572Y-109127774D01*
X157087217Y-109092419D01*
X157072572Y-109057064D01*
X157037217Y-109042419D01*
X156538880Y-109042419D01*
X156869832Y-108711466D01*
X157415789Y-108711466D01*
X157430434Y-108746821D01*
X157465789Y-108761466D01*
X158227694Y-108761466D01*
X158263049Y-108746821D01*
X158277694Y-108711466D01*
X158263049Y-108676111D01*
X158227694Y-108661466D01*
X157465789Y-108661466D01*
X157430434Y-108676111D01*
X157415789Y-108711466D01*
X156869832Y-108711466D01*
X157024953Y-108556345D01*
X157029406Y-108545592D01*
X157037032Y-108536801D01*
X157084651Y-108393945D01*
X157084067Y-108385736D01*
X157087217Y-108378133D01*
X157087217Y-108282895D01*
X157082763Y-108272142D01*
X157081938Y-108260534D01*
X157034319Y-108165296D01*
X157028102Y-108159904D01*
X157024953Y-108152301D01*
X156977334Y-108104683D01*
X156975685Y-108104000D01*
X158560006Y-108104000D01*
X158798101Y-109104000D01*
X158802484Y-109110057D01*
X158803470Y-109117471D01*
X158813287Y-109124985D01*
X158820536Y-109135002D01*
X158827919Y-109136185D01*
X158833858Y-109140731D01*
X158846114Y-109139102D01*
X158858322Y-109141059D01*
X158864379Y-109136675D01*
X158871793Y-109135690D01*
X158879307Y-109125872D01*
X158889324Y-109118624D01*
X158890507Y-109111240D01*
X158895053Y-109105302D01*
X159037217Y-108572186D01*
X159179381Y-109105302D01*
X159183926Y-109111240D01*
X159185110Y-109118624D01*
X159195127Y-109125873D01*
X159202642Y-109135690D01*
X159210053Y-109136674D01*
X159216112Y-109141059D01*
X159228319Y-109139102D01*
X159240576Y-109140731D01*
X159246514Y-109136185D01*
X159253898Y-109135002D01*
X159261146Y-109124985D01*
X159270964Y-109117471D01*
X159271949Y-109110057D01*
X159276333Y-109104000D01*
X159279090Y-109092419D01*
X159796741Y-109092419D01*
X159811386Y-109127774D01*
X159846741Y-109142419D01*
X159882096Y-109127774D01*
X159896741Y-109092419D01*
X159896741Y-108666228D01*
X160058803Y-108666228D01*
X160377207Y-109121092D01*
X160409480Y-109141658D01*
X160446842Y-109133381D01*
X160467408Y-109101108D01*
X160459131Y-109063746D01*
X160245869Y-108759085D01*
X160749122Y-108759085D01*
X160751548Y-108764941D01*
X160750615Y-108771212D01*
X160798234Y-108961688D01*
X160806238Y-108972491D01*
X160811385Y-108984916D01*
X160906624Y-109080155D01*
X160914226Y-109083304D01*
X160919618Y-109089521D01*
X161014856Y-109137140D01*
X161026464Y-109137965D01*
X161037217Y-109142419D01*
X161227693Y-109142419D01*
X161238445Y-109137965D01*
X161250054Y-109137140D01*
X161345291Y-109089522D01*
X161350682Y-109083304D01*
X161358287Y-109080155D01*
X161453525Y-108984916D01*
X161458670Y-108972491D01*
X161466676Y-108961688D01*
X161514295Y-108771212D01*
X161513361Y-108764941D01*
X161515788Y-108759085D01*
X161796741Y-108759085D01*
X161799167Y-108764941D01*
X161798234Y-108771212D01*
X161845853Y-108961688D01*
X161853857Y-108972491D01*
X161859004Y-108984916D01*
X161954243Y-109080155D01*
X161961845Y-109083304D01*
X161967237Y-109089521D01*
X162062475Y-109137140D01*
X162074083Y-109137965D01*
X162084836Y-109142419D01*
X162275312Y-109142419D01*
X162286064Y-109137965D01*
X162297673Y-109137140D01*
X162387116Y-109092419D01*
X162891979Y-109092419D01*
X162906624Y-109127774D01*
X162941979Y-109142419D01*
X162977334Y-109127774D01*
X162991979Y-109092419D01*
X162991979Y-108317796D01*
X163230003Y-108827849D01*
X163242619Y-108839402D01*
X163254168Y-108852013D01*
X163256502Y-108852115D01*
X163258225Y-108853693D01*
X163275312Y-108852942D01*
X163292399Y-108853693D01*
X163294121Y-108852115D01*
X163296456Y-108852013D01*
X163308007Y-108839399D01*
X163320621Y-108827848D01*
X163558645Y-108317796D01*
X163558645Y-109092419D01*
X163573290Y-109127774D01*
X163608645Y-109142419D01*
X163644000Y-109127774D01*
X163658645Y-109092419D01*
X163658645Y-108997179D01*
X165177693Y-108997179D01*
X165192337Y-109032535D01*
X165239956Y-109080155D01*
X165247559Y-109083304D01*
X165252951Y-109089521D01*
X165348189Y-109137140D01*
X165359797Y-109137965D01*
X165370550Y-109142419D01*
X165656264Y-109142419D01*
X165667016Y-109137965D01*
X165678625Y-109137140D01*
X165768068Y-109092419D01*
X166130074Y-109092419D01*
X166144719Y-109127774D01*
X166180074Y-109142419D01*
X166799121Y-109142419D01*
X166834476Y-109127774D01*
X166849121Y-109092419D01*
X167177693Y-109092419D01*
X167192338Y-109127774D01*
X167227693Y-109142419D01*
X167465788Y-109142419D01*
X167473391Y-109139269D01*
X167481599Y-109139853D01*
X167624456Y-109092234D01*
X167633247Y-109084609D01*
X167644001Y-109080155D01*
X167739239Y-108984916D01*
X167742388Y-108977312D01*
X167748604Y-108971922D01*
X167796223Y-108876684D01*
X167796625Y-108871015D01*
X167800009Y-108866450D01*
X167847628Y-108675974D01*
X167846694Y-108669703D01*
X167849121Y-108663847D01*
X167849121Y-108520990D01*
X167846694Y-108515133D01*
X167847628Y-108508863D01*
X167800009Y-108318387D01*
X167796625Y-108313821D01*
X167796223Y-108308153D01*
X167748604Y-108212915D01*
X167742387Y-108207523D01*
X167739238Y-108199921D01*
X167644000Y-108104683D01*
X167633247Y-108100229D01*
X167624456Y-108092604D01*
X167481599Y-108044985D01*
X167473391Y-108045568D01*
X167465788Y-108042419D01*
X167227693Y-108042419D01*
X167192338Y-108057064D01*
X167177693Y-108092419D01*
X167177693Y-109092419D01*
X166849121Y-109092419D01*
X166834476Y-109057064D01*
X166799121Y-109042419D01*
X166300784Y-109042419D01*
X166786857Y-108556345D01*
X166791310Y-108545592D01*
X166798936Y-108536801D01*
X166846555Y-108393945D01*
X166845971Y-108385736D01*
X166849121Y-108378133D01*
X166849121Y-108282895D01*
X166844667Y-108272142D01*
X166843842Y-108260534D01*
X166796223Y-108165296D01*
X166790006Y-108159904D01*
X166786857Y-108152301D01*
X166739238Y-108104683D01*
X166731635Y-108101533D01*
X166726243Y-108095316D01*
X166631006Y-108047698D01*
X166619397Y-108046872D01*
X166608645Y-108042419D01*
X166370550Y-108042419D01*
X166359797Y-108046872D01*
X166348189Y-108047698D01*
X166252951Y-108095317D01*
X166247559Y-108101533D01*
X166239956Y-108104683D01*
X166192338Y-108152302D01*
X166177693Y-108187657D01*
X166192338Y-108223012D01*
X166227693Y-108237657D01*
X166263048Y-108223012D01*
X166304930Y-108181130D01*
X166382354Y-108142419D01*
X166596842Y-108142419D01*
X166674265Y-108181130D01*
X166710409Y-108217275D01*
X166749121Y-108294698D01*
X166749121Y-108370020D01*
X166707800Y-108493981D01*
X166144719Y-109057064D01*
X166130074Y-109092419D01*
X165768068Y-109092419D01*
X165773862Y-109089522D01*
X165779253Y-109083304D01*
X165786858Y-109080155D01*
X165834477Y-109032535D01*
X165837625Y-109024932D01*
X165843842Y-109019541D01*
X165891461Y-108924303D01*
X165892286Y-108912694D01*
X165896740Y-108901942D01*
X165896740Y-108663847D01*
X165892286Y-108653094D01*
X165891461Y-108641486D01*
X165843842Y-108546248D01*
X165837625Y-108540856D01*
X165834476Y-108533253D01*
X165786857Y-108485635D01*
X165779254Y-108482485D01*
X165773862Y-108476268D01*
X165678625Y-108428650D01*
X165667016Y-108427824D01*
X165656264Y-108423371D01*
X165623595Y-108423371D01*
X165884369Y-108125344D01*
X165890006Y-108108673D01*
X165896740Y-108092419D01*
X165896059Y-108090776D01*
X165896629Y-108089093D01*
X165888828Y-108073319D01*
X165882095Y-108057064D01*
X165880453Y-108056383D01*
X165879665Y-108054790D01*
X165862994Y-108049152D01*
X165846740Y-108042419D01*
X165227693Y-108042419D01*
X165192338Y-108057064D01*
X165177693Y-108092419D01*
X165192338Y-108127774D01*
X165227693Y-108142419D01*
X165736552Y-108142419D01*
X165475778Y-108440446D01*
X165470140Y-108457116D01*
X165463407Y-108473371D01*
X165464087Y-108475013D01*
X165463518Y-108476697D01*
X165471318Y-108492470D01*
X165478052Y-108508726D01*
X165479693Y-108509406D01*
X165480482Y-108511000D01*
X165497152Y-108516637D01*
X165513407Y-108523371D01*
X165644461Y-108523371D01*
X165721884Y-108562082D01*
X165758028Y-108598227D01*
X165796740Y-108675650D01*
X165796740Y-108890138D01*
X165758028Y-108967561D01*
X165721882Y-109003708D01*
X165644461Y-109042419D01*
X165382354Y-109042419D01*
X165304931Y-109003708D01*
X165263049Y-108961825D01*
X165227694Y-108947180D01*
X165192338Y-108961824D01*
X165177693Y-108997179D01*
X163658645Y-108997179D01*
X163658645Y-108711466D01*
X164034836Y-108711466D01*
X164049481Y-108746821D01*
X164084836Y-108761466D01*
X164846741Y-108761466D01*
X164882096Y-108746821D01*
X164896741Y-108711466D01*
X164882096Y-108676111D01*
X164846741Y-108661466D01*
X164084836Y-108661466D01*
X164049481Y-108676111D01*
X164034836Y-108711466D01*
X163658645Y-108711466D01*
X163658645Y-108092419D01*
X163655243Y-108084208D01*
X163655634Y-108075332D01*
X163648208Y-108067223D01*
X163644000Y-108057064D01*
X163635790Y-108053663D01*
X163629789Y-108047110D01*
X163618804Y-108046627D01*
X163608645Y-108042419D01*
X163600434Y-108045820D01*
X163591558Y-108045430D01*
X163583448Y-108052855D01*
X163573290Y-108057064D01*
X163569889Y-108065272D01*
X163563336Y-108071274D01*
X163275311Y-108688469D01*
X162987288Y-108071275D01*
X162980734Y-108065273D01*
X162977334Y-108057064D01*
X162967174Y-108052855D01*
X162959066Y-108045430D01*
X162950189Y-108045820D01*
X162941979Y-108042419D01*
X162931819Y-108046627D01*
X162920835Y-108047110D01*
X162914833Y-108053663D01*
X162906624Y-108057064D01*
X162902415Y-108067223D01*
X162894990Y-108075332D01*
X162895380Y-108084208D01*
X162891979Y-108092419D01*
X162891979Y-109092419D01*
X162387116Y-109092419D01*
X162392910Y-109089522D01*
X162398301Y-109083304D01*
X162405906Y-109080155D01*
X162501144Y-108984916D01*
X162506289Y-108972491D01*
X162514295Y-108961688D01*
X162561914Y-108771212D01*
X162560980Y-108764941D01*
X162563407Y-108759085D01*
X162563407Y-108425752D01*
X162560980Y-108419895D01*
X162561914Y-108413625D01*
X162514295Y-108223149D01*
X162506288Y-108212343D01*
X162501143Y-108199921D01*
X162405905Y-108104683D01*
X162398302Y-108101533D01*
X162392910Y-108095316D01*
X162297673Y-108047698D01*
X162286064Y-108046872D01*
X162275312Y-108042419D01*
X162084836Y-108042419D01*
X162074083Y-108046872D01*
X162062475Y-108047698D01*
X161967237Y-108095317D01*
X161961845Y-108101533D01*
X161954243Y-108104683D01*
X161859005Y-108199921D01*
X161853859Y-108212343D01*
X161845853Y-108223149D01*
X161798234Y-108413625D01*
X161799167Y-108419895D01*
X161796741Y-108425752D01*
X161796741Y-108759085D01*
X161515788Y-108759085D01*
X161515788Y-108425752D01*
X161513361Y-108419895D01*
X161514295Y-108413625D01*
X161466676Y-108223149D01*
X161458669Y-108212343D01*
X161453524Y-108199921D01*
X161358286Y-108104683D01*
X161350683Y-108101533D01*
X161345291Y-108095316D01*
X161250054Y-108047698D01*
X161238445Y-108046872D01*
X161227693Y-108042419D01*
X161037217Y-108042419D01*
X161026464Y-108046872D01*
X161014856Y-108047698D01*
X160919618Y-108095317D01*
X160914226Y-108101533D01*
X160906624Y-108104683D01*
X160811386Y-108199921D01*
X160806240Y-108212343D01*
X160798234Y-108223149D01*
X160750615Y-108413625D01*
X160751548Y-108419895D01*
X160749122Y-108425752D01*
X160749122Y-108759085D01*
X160245869Y-108759085D01*
X160180869Y-108666228D01*
X160227693Y-108666228D01*
X160238445Y-108661774D01*
X160250054Y-108660949D01*
X160345291Y-108613331D01*
X160350683Y-108607113D01*
X160358286Y-108603964D01*
X160405905Y-108556346D01*
X160409054Y-108548742D01*
X160415271Y-108543351D01*
X160462890Y-108448113D01*
X160463715Y-108436504D01*
X160468169Y-108425752D01*
X160468169Y-108282895D01*
X160463715Y-108272142D01*
X160462890Y-108260534D01*
X160415271Y-108165296D01*
X160409054Y-108159904D01*
X160405905Y-108152301D01*
X160358286Y-108104683D01*
X160350683Y-108101533D01*
X160345291Y-108095316D01*
X160250054Y-108047698D01*
X160238445Y-108046872D01*
X160227693Y-108042419D01*
X159846741Y-108042419D01*
X159811386Y-108057064D01*
X159796741Y-108092419D01*
X159796741Y-109092419D01*
X159279090Y-109092419D01*
X159514429Y-108104000D01*
X159508371Y-108066215D01*
X159477370Y-108043779D01*
X159439584Y-108049837D01*
X159417149Y-108080838D01*
X159224948Y-108888075D01*
X159085529Y-108365250D01*
X159081385Y-108359837D01*
X159080488Y-108353081D01*
X159070168Y-108345181D01*
X159062269Y-108334862D01*
X159055512Y-108333964D01*
X159050100Y-108329821D01*
X159037217Y-108331532D01*
X159024334Y-108329821D01*
X159018920Y-108333964D01*
X159012166Y-108334862D01*
X159004267Y-108345180D01*
X158993946Y-108353081D01*
X158993048Y-108359837D01*
X158988905Y-108365250D01*
X158849485Y-108888075D01*
X158657286Y-108080838D01*
X158634851Y-108049836D01*
X158597065Y-108043779D01*
X158566063Y-108066214D01*
X158560006Y-108104000D01*
X156975685Y-108104000D01*
X156969731Y-108101533D01*
X156964339Y-108095316D01*
X156869102Y-108047698D01*
X156857493Y-108046872D01*
X156846741Y-108042419D01*
X156608646Y-108042419D01*
X156597893Y-108046872D01*
X156586285Y-108047698D01*
X156491047Y-108095317D01*
X156485655Y-108101533D01*
X156478052Y-108104683D01*
X156430434Y-108152302D01*
X156415789Y-108187657D01*
X156430434Y-108223012D01*
X156465789Y-108237657D01*
X156501144Y-108223012D01*
X156543026Y-108181130D01*
X156620450Y-108142419D01*
X156834938Y-108142419D01*
X156912361Y-108181130D01*
X156948505Y-108217275D01*
X156987217Y-108294698D01*
X156987217Y-108370020D01*
X156945896Y-108493981D01*
X156382815Y-109057064D01*
X156368170Y-109092419D01*
X156006164Y-109092419D01*
X156011958Y-109089522D01*
X156017349Y-109083304D01*
X156024954Y-109080155D01*
X156072573Y-109032535D01*
X156075721Y-109024932D01*
X156081938Y-109019541D01*
X156129557Y-108924303D01*
X156130382Y-108912694D01*
X156134836Y-108901942D01*
X156134836Y-108663847D01*
X156130382Y-108653094D01*
X156129557Y-108641486D01*
X156081938Y-108546248D01*
X156075721Y-108540856D01*
X156072572Y-108533253D01*
X156024953Y-108485635D01*
X156017350Y-108482485D01*
X156011958Y-108476268D01*
X155916721Y-108428650D01*
X155905112Y-108427824D01*
X155894360Y-108423371D01*
X155861691Y-108423371D01*
X156122465Y-108125344D01*
X156128102Y-108108673D01*
X156134836Y-108092419D01*
X156134155Y-108090776D01*
X156134725Y-108089093D01*
X156126924Y-108073319D01*
X156120191Y-108057064D01*
X156118549Y-108056383D01*
X156117761Y-108054790D01*
X156101090Y-108049152D01*
X156084836Y-108042419D01*
X155465789Y-108042419D01*
X155430434Y-108057064D01*
X155415789Y-108092419D01*
X155430434Y-108127774D01*
X155465789Y-108142419D01*
X155974648Y-108142419D01*
X155713874Y-108440446D01*
X155708236Y-108457116D01*
X155701503Y-108473371D01*
X155702183Y-108475013D01*
X155701614Y-108476697D01*
X155709414Y-108492470D01*
X155716148Y-108508726D01*
X155717789Y-108509406D01*
X155718578Y-108511000D01*
X155735248Y-108516637D01*
X155751503Y-108523371D01*
X155882557Y-108523371D01*
X155959980Y-108562082D01*
X155996124Y-108598227D01*
X156034836Y-108675650D01*
X156034836Y-108890138D01*
X155996124Y-108967561D01*
X155959978Y-109003708D01*
X155882557Y-109042419D01*
X155620450Y-109042419D01*
X155543027Y-109003708D01*
X155501145Y-108961825D01*
X155465790Y-108947180D01*
X155430434Y-108961824D01*
X155415789Y-108997179D01*
X154611027Y-108997179D01*
X154611027Y-108666228D01*
X154941979Y-108666228D01*
X154952731Y-108661774D01*
X154964340Y-108660949D01*
X155059577Y-108613331D01*
X155064969Y-108607113D01*
X155072572Y-108603964D01*
X155120191Y-108556346D01*
X155123340Y-108548742D01*
X155129557Y-108543351D01*
X155177176Y-108448113D01*
X155178001Y-108436504D01*
X155182455Y-108425752D01*
X155182455Y-108282895D01*
X155178001Y-108272142D01*
X155177176Y-108260534D01*
X155129557Y-108165296D01*
X155123340Y-108159904D01*
X155120191Y-108152301D01*
X155072572Y-108104683D01*
X155064969Y-108101533D01*
X155059577Y-108095316D01*
X154964340Y-108047698D01*
X154952731Y-108046872D01*
X154941979Y-108042419D01*
X154561027Y-108042419D01*
X154525672Y-108057064D01*
X154511027Y-108092419D01*
X154511027Y-109092419D01*
X154053783Y-109092419D01*
X154059577Y-109089522D01*
X154064968Y-109083304D01*
X154072573Y-109080155D01*
X154120192Y-109032535D01*
X154123340Y-109024932D01*
X154129557Y-109019541D01*
X154177176Y-108924303D01*
X154178001Y-108912694D01*
X154182455Y-108901942D01*
X154182455Y-108806704D01*
X154178001Y-108795951D01*
X154177176Y-108784343D01*
X154129557Y-108689105D01*
X154123340Y-108683713D01*
X154120191Y-108676110D01*
X154072572Y-108628492D01*
X154064969Y-108625342D01*
X154059577Y-108619125D01*
X153964340Y-108571507D01*
X153958671Y-108571104D01*
X153954106Y-108567721D01*
X153768955Y-108521433D01*
X153685883Y-108479897D01*
X153649738Y-108443753D01*
X153611027Y-108366330D01*
X153611027Y-108294698D01*
X153649738Y-108217274D01*
X153685883Y-108181130D01*
X153763307Y-108142419D01*
X153981485Y-108142419D01*
X154116643Y-108187472D01*
X154154815Y-108184759D01*
X154179889Y-108155849D01*
X154177175Y-108117677D01*
X154148266Y-108092604D01*
X154005409Y-108044985D01*
X153997201Y-108045568D01*
X153989598Y-108042419D01*
X153751503Y-108042419D01*
X153740750Y-108046872D01*
X153729142Y-108047698D01*
X153633904Y-108095317D01*
X153628512Y-108101533D01*
X153620909Y-108104683D01*
X153573291Y-108152302D01*
X153570141Y-108159904D01*
X153563924Y-108165297D01*
X153516306Y-108260534D01*
X153515480Y-108272142D01*
X153511027Y-108282895D01*
X153511027Y-108378133D01*
X152753884Y-108378133D01*
X152753884Y-108142419D01*
X153180074Y-108142419D01*
X153215429Y-108127774D01*
X153230074Y-108092419D01*
X153215429Y-108057064D01*
X153180074Y-108042419D01*
X152703884Y-108042419D01*
X152668529Y-108057064D01*
X152653884Y-108092419D01*
X152653884Y-109092419D01*
X152511027Y-109092419D01*
X152511027Y-107899562D01*
X167991978Y-107899562D01*
X167991978Y-109285276D01*
G37*
D12*
G36*
X175506626Y-100597023D02*
G01*
X175570805Y-100661202D01*
X175608720Y-100812861D01*
X175608720Y-101121575D01*
X175570804Y-101273235D01*
X175506628Y-101337413D01*
X175447018Y-101367219D01*
X175303756Y-101367219D01*
X175244146Y-101337414D01*
X175179969Y-101273236D01*
X175142054Y-101121575D01*
X175142054Y-100812862D01*
X175179969Y-100661202D01*
X175244148Y-100597023D01*
X175303756Y-100567219D01*
X175447018Y-100567219D01*
X175506626Y-100597023D01*
G37*
G36*
X174506627Y-100597024D02*
G01*
X174531296Y-100621692D01*
X174561101Y-100681302D01*
X174561101Y-100776945D01*
X174531296Y-100836554D01*
X174506627Y-100861222D01*
X174447018Y-100891028D01*
X174189673Y-100891028D01*
X174189673Y-100567219D01*
X174447018Y-100567219D01*
X174506627Y-100597024D01*
G37*
G36*
X173506627Y-100597024D02*
G01*
X173531296Y-100621692D01*
X173561101Y-100681302D01*
X173561101Y-100776945D01*
X173531296Y-100836554D01*
X173506627Y-100861222D01*
X173447018Y-100891028D01*
X173189673Y-100891028D01*
X173189673Y-100567219D01*
X173447018Y-100567219D01*
X173506627Y-100597024D01*
G37*
G36*
X176951577Y-101710076D02*
G01*
X172846816Y-101710076D01*
X172846816Y-101467219D01*
X172989673Y-101467219D01*
X173008771Y-101525998D01*
X173058771Y-101562325D01*
X173120575Y-101562325D01*
X173170575Y-101525998D01*
X173189673Y-101467219D01*
X173989673Y-101467219D01*
X174008771Y-101525998D01*
X174058771Y-101562325D01*
X174120575Y-101562325D01*
X174170575Y-101525998D01*
X174189673Y-101467219D01*
X174189673Y-101091028D01*
X174275703Y-101091028D01*
X174579178Y-101524565D01*
X174628531Y-101561767D01*
X174690325Y-101562854D01*
X174740957Y-101527412D01*
X174761086Y-101468979D01*
X174743024Y-101409873D01*
X174549832Y-101133885D01*
X174942054Y-101133885D01*
X174945900Y-101145722D01*
X174945040Y-101158139D01*
X174992659Y-101348614D01*
X175006832Y-101371264D01*
X175018962Y-101395071D01*
X175114200Y-101490311D01*
X175128643Y-101497670D01*
X175140190Y-101509043D01*
X175235427Y-101556662D01*
X175258225Y-101560095D01*
X175280149Y-101567219D01*
X175470625Y-101567219D01*
X175492548Y-101560095D01*
X175515346Y-101556662D01*
X175610584Y-101509043D01*
X175622132Y-101497668D01*
X175636574Y-101490310D01*
X175731812Y-101395071D01*
X175743943Y-101371262D01*
X175758115Y-101348615D01*
X175805734Y-101158139D01*
X175804873Y-101145722D01*
X175808720Y-101133885D01*
X175808720Y-101038647D01*
X175989673Y-101038647D01*
X175993519Y-101050484D01*
X175992659Y-101062901D01*
X176040278Y-101253376D01*
X176046188Y-101262822D01*
X176047849Y-101273844D01*
X176095468Y-101369082D01*
X176106842Y-101380630D01*
X176114200Y-101395071D01*
X176209438Y-101490311D01*
X176229982Y-101500779D01*
X176248526Y-101514468D01*
X176391383Y-101562087D01*
X176407590Y-101562210D01*
X176423006Y-101567219D01*
X176518244Y-101567219D01*
X176533659Y-101562210D01*
X176549867Y-101562087D01*
X176692723Y-101514468D01*
X176711270Y-101500776D01*
X176731812Y-101490310D01*
X176779431Y-101442690D01*
X176783093Y-101435502D01*
X176789622Y-101430759D01*
X176796859Y-101408484D01*
X176807489Y-101387622D01*
X176806226Y-101379653D01*
X176808720Y-101371980D01*
X176808720Y-101038647D01*
X176803826Y-101023584D01*
X176803826Y-101007745D01*
X176794516Y-100994931D01*
X176789622Y-100979868D01*
X176776808Y-100970558D01*
X176767499Y-100957745D01*
X176752435Y-100952850D01*
X176739622Y-100943541D01*
X176723783Y-100943541D01*
X176708720Y-100938647D01*
X176518244Y-100938647D01*
X176459465Y-100957745D01*
X176423138Y-101007745D01*
X176423138Y-101069549D01*
X176459465Y-101119549D01*
X176518244Y-101138647D01*
X176608720Y-101138647D01*
X176608720Y-101330559D01*
X176607081Y-101332197D01*
X176502017Y-101367219D01*
X176439232Y-101367219D01*
X176334167Y-101332197D01*
X176267097Y-101265127D01*
X176231643Y-101194218D01*
X176189673Y-101026337D01*
X176189673Y-100908100D01*
X176231643Y-100740218D01*
X176267096Y-100669312D01*
X176334168Y-100602240D01*
X176439232Y-100567219D01*
X176542256Y-100567219D01*
X176616379Y-100604281D01*
X176677494Y-100613486D01*
X176732346Y-100585010D01*
X176759986Y-100529731D01*
X176749855Y-100468764D01*
X176705822Y-100425395D01*
X176610584Y-100377776D01*
X176587786Y-100374342D01*
X176565863Y-100367219D01*
X176423006Y-100367219D01*
X176407590Y-100372227D01*
X176391383Y-100372351D01*
X176248526Y-100419970D01*
X176229979Y-100433660D01*
X176209438Y-100444127D01*
X176114200Y-100539365D01*
X176106841Y-100553807D01*
X176095468Y-100565355D01*
X176047849Y-100660593D01*
X176046188Y-100671614D01*
X176040278Y-100681061D01*
X175992659Y-100871536D01*
X175993519Y-100883952D01*
X175989673Y-100895790D01*
X175989673Y-101038647D01*
X175808720Y-101038647D01*
X175808720Y-100800552D01*
X175804873Y-100788714D01*
X175805734Y-100776298D01*
X175758115Y-100585822D01*
X175743942Y-100563173D01*
X175731812Y-100539365D01*
X175636574Y-100444127D01*
X175622131Y-100436768D01*
X175610584Y-100425395D01*
X175515346Y-100377776D01*
X175492548Y-100374342D01*
X175470625Y-100367219D01*
X175280149Y-100367219D01*
X175258225Y-100374342D01*
X175235427Y-100377776D01*
X175140190Y-100425395D01*
X175128642Y-100436768D01*
X175114200Y-100444127D01*
X175018962Y-100539365D01*
X175006830Y-100563174D01*
X174992659Y-100585823D01*
X174945040Y-100776298D01*
X174945900Y-100788714D01*
X174942054Y-100800552D01*
X174942054Y-101133885D01*
X174549832Y-101133885D01*
X174512719Y-101080866D01*
X174515346Y-101080471D01*
X174610584Y-101032852D01*
X174622131Y-101021478D01*
X174636574Y-101014120D01*
X174684192Y-100966501D01*
X174691550Y-100952059D01*
X174702925Y-100940511D01*
X174750544Y-100845274D01*
X174753977Y-100822475D01*
X174761101Y-100800552D01*
X174761101Y-100657695D01*
X174753977Y-100635771D01*
X174750544Y-100612973D01*
X174702925Y-100517736D01*
X174691550Y-100506187D01*
X174684192Y-100491746D01*
X174636574Y-100444127D01*
X174622131Y-100436768D01*
X174610584Y-100425395D01*
X174515346Y-100377776D01*
X174492548Y-100374342D01*
X174470625Y-100367219D01*
X174089673Y-100367219D01*
X174074610Y-100372113D01*
X174058771Y-100372113D01*
X174045957Y-100381422D01*
X174030894Y-100386317D01*
X174021584Y-100399130D01*
X174008771Y-100408440D01*
X174003876Y-100423503D01*
X173994567Y-100436317D01*
X173994567Y-100452156D01*
X173989673Y-100467219D01*
X173989673Y-101467219D01*
X173189673Y-101467219D01*
X173189673Y-101091028D01*
X173470625Y-101091028D01*
X173492548Y-101083904D01*
X173515346Y-101080471D01*
X173610584Y-101032852D01*
X173622131Y-101021478D01*
X173636574Y-101014120D01*
X173684192Y-100966501D01*
X173691550Y-100952059D01*
X173702925Y-100940511D01*
X173750544Y-100845274D01*
X173753977Y-100822475D01*
X173761101Y-100800552D01*
X173761101Y-100657695D01*
X173753977Y-100635771D01*
X173750544Y-100612973D01*
X173702925Y-100517736D01*
X173691550Y-100506187D01*
X173684192Y-100491746D01*
X173636574Y-100444127D01*
X173622131Y-100436768D01*
X173610584Y-100425395D01*
X173515346Y-100377776D01*
X173492548Y-100374342D01*
X173470625Y-100367219D01*
X173089673Y-100367219D01*
X173074610Y-100372113D01*
X173058771Y-100372113D01*
X173045957Y-100381422D01*
X173030894Y-100386317D01*
X173021584Y-100399130D01*
X173008771Y-100408440D01*
X173003876Y-100423503D01*
X172994567Y-100436317D01*
X172994567Y-100452156D01*
X172989673Y-100467219D01*
X172989673Y-101467219D01*
X172846816Y-101467219D01*
X172846816Y-100224362D01*
X176951577Y-100224362D01*
X176951577Y-101710076D01*
G37*
D13*
%TO.C,U1*%
X150900000Y-73040000D02*
X150900000Y-79455000D01*
X150900000Y-73040000D02*
X169140000Y-73040000D01*
X150900000Y-79455000D02*
X150520000Y-79455000D01*
X150900000Y-98000000D02*
X150900000Y-98780000D01*
X150900000Y-98780000D02*
X151900000Y-98780000D01*
X169140000Y-73040000D02*
X169140000Y-79455000D01*
X169140000Y-98000000D02*
X169140000Y-98780000D01*
X169140000Y-98780000D02*
X168140000Y-98780000D01*
%TD*%
M02*
