%TF.GenerationSoftware,KiCad,Pcbnew,8.0.4*%
%TF.CreationDate,2024-07-28T04:47:57-04:00*%
%TF.ProjectId,esp32-c3-wroom-socket,65737033-322d-4633-932d-77726f6f6d2d,rev?*%
%TF.SameCoordinates,Original*%
%TF.FileFunction,Copper,L1,Top*%
%TF.FilePolarity,Positive*%
%FSLAX46Y46*%
G04 Gerber Fmt 4.6, Leading zero omitted, Abs format (unit mm)*
G04 Created by KiCad (PCBNEW 8.0.4) date 2024-07-28 04:47:57*
%MOMM*%
%LPD*%
G01*
G04 APERTURE LIST*
G04 Aperture macros list*
%AMOutline5P*
0 Free polygon, 5 corners , with rotation*
0 The origin of the aperture is its center*
0 number of corners: always 5*
0 $1 to $10 corner X, Y*
0 $11 Rotation angle, in degrees counterclockwise*
0 create outline with 5 corners*
4,1,5,$1,$2,$3,$4,$5,$6,$7,$8,$9,$10,$1,$2,$11*%
%AMOutline6P*
0 Free polygon, 6 corners , with rotation*
0 The origin of the aperture is its center*
0 number of corners: always 6*
0 $1 to $12 corner X, Y*
0 $13 Rotation angle, in degrees counterclockwise*
0 create outline with 6 corners*
4,1,6,$1,$2,$3,$4,$5,$6,$7,$8,$9,$10,$11,$12,$1,$2,$13*%
%AMOutline7P*
0 Free polygon, 7 corners , with rotation*
0 The origin of the aperture is its center*
0 number of corners: always 7*
0 $1 to $14 corner X, Y*
0 $15 Rotation angle, in degrees counterclockwise*
0 create outline with 7 corners*
4,1,7,$1,$2,$3,$4,$5,$6,$7,$8,$9,$10,$11,$12,$13,$14,$1,$2,$15*%
%AMOutline8P*
0 Free polygon, 8 corners , with rotation*
0 The origin of the aperture is its center*
0 number of corners: always 8*
0 $1 to $16 corner X, Y*
0 $17 Rotation angle, in degrees counterclockwise*
0 create outline with 8 corners*
4,1,8,$1,$2,$3,$4,$5,$6,$7,$8,$9,$10,$11,$12,$13,$14,$15,$16,$1,$2,$17*%
G04 Aperture macros list end*
%TA.AperFunction,ComponentPad*%
%ADD10R,1.700000X1.700000*%
%TD*%
%TA.AperFunction,SMDPad,CuDef*%
%ADD11R,1.500000X0.900000*%
%TD*%
%TA.AperFunction,ComponentPad*%
%ADD12C,1.700000*%
%TD*%
%TA.AperFunction,ComponentPad*%
%ADD13Outline6P,-0.850000X0.340000X-0.340000X0.850000X0.850000X0.850000X0.850000X-0.340000X0.340000X-0.850000X-0.850000X-0.850000X0.000000*%
%TD*%
%TA.AperFunction,SMDPad,CuDef*%
%ADD14R,0.700000X0.700000*%
%TD*%
%TA.AperFunction,ComponentPad*%
%ADD15C,0.400000*%
%TD*%
%TA.AperFunction,ComponentPad*%
%ADD16C,0.660400*%
%TD*%
%TA.AperFunction,ComponentPad*%
%ADD17O,1.117600X1.905000*%
%TD*%
%TA.AperFunction,ComponentPad*%
%ADD18O,1.117600X2.616200*%
%TD*%
%TA.AperFunction,Conductor*%
%ADD19C,0.500000*%
%TD*%
%TA.AperFunction,Conductor*%
%ADD20C,0.250000*%
%TD*%
%TA.AperFunction,Conductor*%
%ADD21C,0.200000*%
%TD*%
G04 APERTURE END LIST*
D10*
%TO.P,U1,1,3V3*%
%TO.N,+3V3*%
X112600000Y-59180000D03*
D11*
X116630000Y-57860000D03*
D12*
%TO.P,U1,2,EN*%
%TO.N,Net-(U1-EN)*%
X112600000Y-61720000D03*
D11*
X116630000Y-59360000D03*
D12*
%TO.P,U1,3,IO4*%
%TO.N,unconnected-(U1-IO4-Pad3)*%
X112600000Y-64260000D03*
D11*
X116630000Y-60860000D03*
D12*
%TO.P,U1,4,IO5*%
%TO.N,unconnected-(U1-IO5-Pad4)*%
X112600000Y-66800000D03*
D11*
X116630000Y-62360000D03*
D12*
%TO.P,U1,5,IO6*%
%TO.N,unconnected-(U1-IO6-Pad5)*%
X112600000Y-69340000D03*
D11*
X116630000Y-63860000D03*
D12*
%TO.P,U1,6,IO7*%
%TO.N,unconnected-(U1-IO7-Pad6)*%
X112600000Y-71880000D03*
D11*
X116630000Y-65360000D03*
D12*
%TO.P,U1,7,IO8*%
%TO.N,unconnected-(U1-IO8-Pad7)*%
X112600000Y-74420000D03*
D11*
X116630000Y-66860000D03*
D12*
%TO.P,U1,8,IO9*%
%TO.N,unconnected-(U1-IO9-Pad8)*%
X112600000Y-76960000D03*
D11*
X116630000Y-68360000D03*
D13*
%TO.P,U1,9,GND*%
%TO.N,GND*%
X112600000Y-79500000D03*
D11*
X116630000Y-69860000D03*
%TO.P,U1,10,IO10*%
%TO.N,unconnected-(U1-IO10-Pad10)*%
X134130000Y-69860000D03*
D12*
X138000000Y-79500000D03*
D11*
%TO.P,U1,11,RXD*%
%TO.N,unconnected-(U1-RXD-Pad11)*%
X134130000Y-68360000D03*
D12*
X138000000Y-76960000D03*
D11*
%TO.P,U1,12,TXD*%
%TO.N,unconnected-(U1-TXD-Pad12)*%
X134130000Y-66860000D03*
D12*
X138000000Y-74420000D03*
D11*
%TO.P,U1,13,IO18*%
%TO.N,/D-*%
X134130000Y-65360000D03*
D12*
X138000000Y-71880000D03*
D11*
%TO.P,U1,14,IO19*%
%TO.N,/D+*%
X134130000Y-63860000D03*
D12*
X138000000Y-69340000D03*
D11*
%TO.P,U1,15,IO3*%
%TO.N,unconnected-(U1-IO3-Pad15)*%
X134130000Y-62360000D03*
D12*
X138000000Y-66800000D03*
D11*
%TO.P,U1,16,IO2*%
%TO.N,unconnected-(U1-IO2-Pad16)*%
X134130000Y-60860000D03*
D12*
X138000000Y-64260000D03*
D11*
%TO.P,U1,17,IO1*%
%TO.N,unconnected-(U1-IO1-Pad17)*%
X134130000Y-59360000D03*
D12*
X138000000Y-61720000D03*
D11*
%TO.P,U1,18,IO0*%
%TO.N,unconnected-(U1-IO0-Pad18)*%
X134130000Y-57860000D03*
D12*
X138000000Y-59180000D03*
D14*
%TO.P,U1,19,GND__1*%
%TO.N,GND*%
X125240000Y-62960000D03*
%TO.P,U1,20,GND__2*%
X126340000Y-62960000D03*
%TO.P,U1,21,GND__3*%
X127440000Y-62960000D03*
%TO.P,U1,22,GND__4*%
X125240000Y-64060000D03*
%TO.P,U1,23,GND__5*%
X126340000Y-64060000D03*
%TO.P,U1,24,GND__6*%
X127440000Y-64060000D03*
%TO.P,U1,25,GND__7*%
X125240000Y-65160000D03*
%TO.P,U1,26,GND__8*%
X126340000Y-65160000D03*
%TO.P,U1,27,GND__9*%
X127440000Y-65160000D03*
D15*
%TO.P,U1,28,GND__10*%
X125790000Y-62960000D03*
%TO.P,U1,29,GND__11*%
X126890000Y-62960000D03*
%TO.P,U1,30,GND__12*%
X125240000Y-63510000D03*
%TO.P,U1,31,GND__13*%
X126340000Y-63510000D03*
%TO.P,U1,32,GND__14*%
X127440000Y-63510000D03*
%TO.P,U1,33,GND__15*%
X125790000Y-64060000D03*
%TO.P,U1,34,GND__16*%
X126890000Y-64060000D03*
%TO.P,U1,35,GND__17*%
X125240000Y-64610000D03*
%TO.P,U1,36,GND__18*%
X126340000Y-64610000D03*
%TO.P,U1,37,GND__19*%
X127440000Y-64610000D03*
%TO.P,U1,38,GND__20*%
X125790000Y-65160000D03*
%TO.P,U1,39,GND__21*%
X126890000Y-65160000D03*
%TD*%
D16*
%TO.P,J1,A1,GND*%
%TO.N,GND*%
X122314444Y-75232435D03*
%TO.P,J1,A4,VBUS*%
%TO.N,Net-(J1-VBUS-PadA4)*%
X123164445Y-75232435D03*
%TO.P,J1,A5,CC1*%
%TO.N,Net-(J1-CC1)*%
X124014443Y-75232435D03*
%TO.P,J1,A6,D+*%
%TO.N,/D+*%
X124864444Y-75232435D03*
%TO.P,J1,A7,D-*%
%TO.N,/D-*%
X125714445Y-75232435D03*
%TO.P,J1,A8,SBU1*%
%TO.N,unconnected-(J1-SBU1-PadA8)*%
X126564446Y-75232435D03*
%TO.P,J1,A9,VBUS*%
%TO.N,Net-(J1-VBUS-PadA4)*%
X127414444Y-75232435D03*
%TO.P,J1,A12,GND*%
%TO.N,GND*%
X128264445Y-75232435D03*
%TO.P,J1,B1,GND*%
X128264445Y-76582435D03*
%TO.P,J1,B4,VBUS*%
%TO.N,Net-(J1-VBUS-PadA4)*%
X127414444Y-76582435D03*
%TO.P,J1,B5,CC2*%
%TO.N,Net-(J1-CC2)*%
X126564446Y-76582435D03*
%TO.P,J1,B6,D+*%
%TO.N,/D+*%
X125714445Y-76582435D03*
%TO.P,J1,B7,D-*%
%TO.N,/D-*%
X124864444Y-76582435D03*
%TO.P,J1,B8,SBU2*%
%TO.N,unconnected-(J1-SBU2-PadB8)*%
X124014443Y-76582435D03*
%TO.P,J1,B9,VBUS*%
%TO.N,Net-(J1-VBUS-PadA4)*%
X123164445Y-76582435D03*
%TO.P,J1,B12,GND*%
%TO.N,GND*%
X122314444Y-76582435D03*
D17*
%TO.P,J1,S1,SHIELD*%
X120964459Y-79597435D03*
%TO.P,J1,S2,SHIELD*%
X129614429Y-79597435D03*
D18*
%TO.P,J1,S3,SHIELD*%
X120964444Y-76212436D03*
%TO.P,J1,S4,SHIELD*%
X129614429Y-76212435D03*
%TD*%
D19*
%TO.N,GND*%
X123386827Y-79000000D02*
X122314444Y-77927617D01*
X122314444Y-77927617D02*
X122314444Y-76582435D01*
X127213172Y-79000000D02*
X123386827Y-79000000D01*
X128264445Y-77948727D02*
X127213172Y-79000000D01*
X128264445Y-76582435D02*
X128264445Y-77948727D01*
D20*
%TO.N,Net-(J1-VBUS-PadA4)*%
X123500000Y-78300000D02*
X123164445Y-77964445D01*
X127100000Y-78300000D02*
X123500000Y-78300000D01*
X127414444Y-77985556D02*
X127100000Y-78300000D01*
X127414444Y-76582435D02*
X127414444Y-77985556D01*
X123164445Y-77964445D02*
X123164445Y-76582435D01*
D19*
%TO.N,GND*%
X122314444Y-76582435D02*
X122314444Y-75232435D01*
X128264445Y-76582435D02*
X128264445Y-75232435D01*
D21*
%TO.N,/D+*%
X125714445Y-76014445D02*
X125714445Y-76582435D01*
X125600000Y-75900000D02*
X125714445Y-76014445D01*
X125000000Y-75900000D02*
X125600000Y-75900000D01*
X124864444Y-75764444D02*
X125000000Y-75900000D01*
X124864444Y-75232435D02*
X124864444Y-75764444D01*
D20*
%TO.N,unconnected-(U1-IO5-Pad4)*%
X114550000Y-62650000D02*
X114840000Y-62360000D01*
X112600000Y-66800000D02*
X114100000Y-65300000D01*
X114840000Y-62360000D02*
X116630000Y-62360000D01*
X114550000Y-62986396D02*
X114550000Y-62650000D01*
X114100000Y-63436396D02*
X114550000Y-62986396D01*
X114100000Y-65300000D02*
X114100000Y-63436396D01*
%TO.N,unconnected-(U1-IO3-Pad15)*%
X134130000Y-62360000D02*
X135823604Y-62360000D01*
X135823604Y-62360000D02*
X136600000Y-63136396D01*
X138000000Y-66500000D02*
X138000000Y-66800000D01*
X136600000Y-63136396D02*
X136600000Y-65100000D01*
X136600000Y-65100000D02*
X138000000Y-66500000D01*
%TO.N,unconnected-(U1-IO2-Pad16)*%
X136160000Y-60860000D02*
X136600000Y-61300000D01*
X134130000Y-60860000D02*
X136160000Y-60860000D01*
X137100000Y-63000000D02*
X137100000Y-63360000D01*
X136600000Y-62500000D02*
X137100000Y-63000000D01*
X136600000Y-61300000D02*
X136600000Y-62500000D01*
X137100000Y-63360000D02*
X138000000Y-64260000D01*
%TO.N,unconnected-(U1-IO1-Pad17)*%
X134130000Y-59360000D02*
X135650000Y-59360000D01*
X138000000Y-61710000D02*
X138000000Y-61720000D01*
X135650000Y-59360000D02*
X138000000Y-61710000D01*
%TO.N,unconnected-(U1-IO0-Pad18)*%
X136680000Y-57860000D02*
X138000000Y-59180000D01*
X134130000Y-57860000D02*
X136680000Y-57860000D01*
%TO.N,unconnected-(U1-IO6-Pad5)*%
X114000000Y-67940000D02*
X114000000Y-66036396D01*
X114550000Y-65486396D02*
X114550000Y-64350000D01*
X112600000Y-69340000D02*
X114000000Y-67940000D01*
X115040000Y-63860000D02*
X116630000Y-63860000D01*
X114000000Y-66036396D02*
X114550000Y-65486396D01*
X114550000Y-64350000D02*
X115040000Y-63860000D01*
%TO.N,unconnected-(U1-IO9-Pad8)*%
X116630000Y-68360000D02*
X115540000Y-68360000D01*
X114900000Y-69000000D02*
X114900000Y-70852792D01*
X114550000Y-73106396D02*
X114200000Y-73456396D01*
X114200000Y-75360000D02*
X112600000Y-76960000D01*
X114550000Y-71202792D02*
X114550000Y-73106396D01*
X114900000Y-70852792D02*
X114550000Y-71202792D01*
X115540000Y-68360000D02*
X114900000Y-69000000D01*
X114200000Y-73456396D02*
X114200000Y-75360000D01*
%TO.N,unconnected-(U1-IO7-Pad6)*%
X114000000Y-68576396D02*
X114000000Y-70480000D01*
X114500000Y-68076396D02*
X114000000Y-68576396D01*
X115340000Y-65360000D02*
X114500000Y-66200000D01*
X114000000Y-70480000D02*
X112600000Y-71880000D01*
X116630000Y-65360000D02*
X115340000Y-65360000D01*
X114500000Y-66200000D02*
X114500000Y-68076396D01*
%TO.N,/D+*%
X136150000Y-64250000D02*
X136150000Y-65286396D01*
X136600000Y-67940000D02*
X138000000Y-69340000D01*
X136150000Y-65286396D02*
X136600000Y-65736396D01*
X134130000Y-63860000D02*
X135760000Y-63860000D01*
X135760000Y-63860000D02*
X136150000Y-64250000D01*
X136600000Y-65736396D02*
X136600000Y-67940000D01*
D19*
%TO.N,+3V3*%
X113740000Y-57860000D02*
X116630000Y-57860000D01*
X112600000Y-59000000D02*
X113740000Y-57860000D01*
D21*
X112600000Y-59180000D02*
X112600000Y-59000000D01*
D20*
%TO.N,unconnected-(U1-IO10-Pad10)*%
X136600000Y-76196396D02*
X136600000Y-78100000D01*
X134130000Y-69860000D02*
X135250000Y-70980000D01*
X136150000Y-75746396D02*
X136600000Y-76196396D01*
X135250000Y-70980000D02*
X135250000Y-71039188D01*
X135700000Y-73392792D02*
X136150000Y-73842792D01*
X136150000Y-73842792D02*
X136150000Y-75746396D01*
X135700000Y-71489188D02*
X135700000Y-73392792D01*
X135250000Y-71039188D02*
X135700000Y-71489188D01*
X136600000Y-78100000D02*
X138000000Y-79500000D01*
%TO.N,Net-(U1-EN)*%
X114960000Y-59360000D02*
X116630000Y-59360000D01*
X112600000Y-61720000D02*
X114960000Y-59360000D01*
%TO.N,unconnected-(U1-IO8-Pad7)*%
X116630000Y-66860000D02*
X115340000Y-66860000D01*
X114450000Y-68762792D02*
X114450000Y-70666396D01*
X115340000Y-66860000D02*
X114950000Y-67250000D01*
X114450000Y-70666396D02*
X114100000Y-71016396D01*
X114100000Y-72920000D02*
X112600000Y-74420000D01*
X114100000Y-71016396D02*
X114100000Y-72920000D01*
X114950000Y-68262792D02*
X114450000Y-68762792D01*
X114950000Y-67250000D02*
X114950000Y-68262792D01*
%TO.N,unconnected-(U1-RXD-Pad11)*%
X134130000Y-68360000D02*
X134960000Y-68360000D01*
X136150000Y-71302792D02*
X136150000Y-73206396D01*
X136600000Y-73656396D02*
X136600000Y-75560000D01*
X135700000Y-70852792D02*
X136150000Y-71302792D01*
X136600000Y-75560000D02*
X138000000Y-76960000D01*
X134960000Y-68360000D02*
X135700000Y-69100000D01*
X135700000Y-69100000D02*
X135700000Y-70852792D01*
X136150000Y-73206396D02*
X136600000Y-73656396D01*
%TO.N,unconnected-(U1-IO4-Pad3)*%
X115140000Y-60860000D02*
X116630000Y-60860000D01*
X112640000Y-64260000D02*
X114100000Y-62800000D01*
X114100000Y-62800000D02*
X114100000Y-61900000D01*
X114100000Y-61900000D02*
X115140000Y-60860000D01*
X112600000Y-64260000D02*
X112640000Y-64260000D01*
%TO.N,unconnected-(U1-TXD-Pad12)*%
X134130000Y-66860000D02*
X135060000Y-66860000D01*
X135060000Y-66860000D02*
X135650000Y-67450000D01*
X135650000Y-68350000D02*
X136150000Y-68850000D01*
X136600000Y-73020000D02*
X138000000Y-74420000D01*
X135650000Y-67450000D02*
X135650000Y-68350000D01*
X136150000Y-68850000D02*
X136150000Y-70666396D01*
X136600000Y-71116396D02*
X136600000Y-73020000D01*
X136150000Y-70666396D02*
X136600000Y-71116396D01*
%TO.N,/D-*%
X136600000Y-70480000D02*
X138000000Y-71880000D01*
X136600000Y-68600000D02*
X136600000Y-70480000D01*
X136100000Y-68100000D02*
X136600000Y-68600000D01*
X134130000Y-65360000D02*
X135460000Y-65360000D01*
X136100000Y-66000000D02*
X136100000Y-68100000D01*
X135460000Y-65360000D02*
X136100000Y-66000000D01*
%TD*%
%TA.AperFunction,Conductor*%
%TO.N,GND*%
G36*
X121917107Y-75847392D02*
G01*
X121961455Y-75875893D01*
X122329718Y-76244156D01*
X122363203Y-76305479D01*
X122359969Y-76370152D01*
X122356762Y-76380021D01*
X122354863Y-76379235D01*
X122274025Y-76379235D01*
X122199340Y-76410170D01*
X122142179Y-76467331D01*
X122111244Y-76542016D01*
X122111244Y-76622854D01*
X122142179Y-76697539D01*
X122199340Y-76754700D01*
X122244360Y-76773347D01*
X122207780Y-76782592D01*
X122141538Y-76760370D01*
X122124819Y-76746363D01*
X121840892Y-76462436D01*
X121588944Y-76462436D01*
X121521905Y-76442751D01*
X121476150Y-76389947D01*
X121464944Y-76338436D01*
X121464944Y-76086436D01*
X121484629Y-76019397D01*
X121537433Y-75973642D01*
X121588944Y-75962436D01*
X121699550Y-75962436D01*
X121786092Y-75875893D01*
X121847415Y-75842408D01*
X121917107Y-75847392D01*
G37*
%TD.AperFunction*%
%TA.AperFunction,Conductor*%
G36*
X128748447Y-75847392D02*
G01*
X128792795Y-75875893D01*
X128879337Y-75962435D01*
X128989929Y-75962435D01*
X129056968Y-75982120D01*
X129102723Y-76034924D01*
X129113929Y-76086435D01*
X129113929Y-76338435D01*
X129094244Y-76405474D01*
X129041440Y-76451229D01*
X128989929Y-76462435D01*
X128737997Y-76462435D01*
X128454069Y-76746363D01*
X128392746Y-76779848D01*
X128329717Y-76775340D01*
X128379549Y-76754700D01*
X128436710Y-76697539D01*
X128467645Y-76622854D01*
X128467645Y-76542016D01*
X128436710Y-76467331D01*
X128379549Y-76410170D01*
X128304864Y-76379235D01*
X128224026Y-76379235D01*
X128222125Y-76380022D01*
X128218918Y-76370151D01*
X128216923Y-76300315D01*
X128249169Y-76244155D01*
X128530070Y-75963256D01*
X128617432Y-75875893D01*
X128678755Y-75842408D01*
X128748447Y-75847392D01*
G37*
%TD.AperFunction*%
%TA.AperFunction,Conductor*%
G36*
X113165809Y-57160185D02*
G01*
X113211564Y-57212989D01*
X113221508Y-57282147D01*
X113192483Y-57345703D01*
X113186451Y-57352181D01*
X112745450Y-57793181D01*
X112684127Y-57826666D01*
X112657769Y-57829500D01*
X111702129Y-57829500D01*
X111702123Y-57829501D01*
X111642516Y-57835908D01*
X111507671Y-57886202D01*
X111507664Y-57886206D01*
X111392455Y-57972452D01*
X111392452Y-57972455D01*
X111306206Y-58087664D01*
X111306202Y-58087671D01*
X111255908Y-58222517D01*
X111249501Y-58282116D01*
X111249500Y-58282135D01*
X111249500Y-60077870D01*
X111249501Y-60077876D01*
X111255908Y-60137483D01*
X111306202Y-60272328D01*
X111306206Y-60272335D01*
X111392452Y-60387544D01*
X111392455Y-60387547D01*
X111507664Y-60473793D01*
X111507671Y-60473797D01*
X111639081Y-60522810D01*
X111695015Y-60564681D01*
X111719432Y-60630145D01*
X111704580Y-60698418D01*
X111683430Y-60726673D01*
X111561503Y-60848600D01*
X111425965Y-61042169D01*
X111425964Y-61042171D01*
X111326098Y-61256335D01*
X111326094Y-61256344D01*
X111264938Y-61484586D01*
X111264936Y-61484596D01*
X111244341Y-61719999D01*
X111244341Y-61720000D01*
X111264936Y-61955403D01*
X111264938Y-61955413D01*
X111326094Y-62183655D01*
X111326096Y-62183659D01*
X111326097Y-62183663D01*
X111425965Y-62397830D01*
X111425967Y-62397834D01*
X111561501Y-62591395D01*
X111561506Y-62591402D01*
X111728597Y-62758493D01*
X111728603Y-62758498D01*
X111914158Y-62888425D01*
X111957783Y-62943002D01*
X111964977Y-63012500D01*
X111933454Y-63074855D01*
X111914158Y-63091575D01*
X111728597Y-63221505D01*
X111561505Y-63388597D01*
X111425965Y-63582169D01*
X111425964Y-63582171D01*
X111326098Y-63796335D01*
X111326094Y-63796344D01*
X111264938Y-64024586D01*
X111264936Y-64024596D01*
X111244341Y-64259999D01*
X111244341Y-64260000D01*
X111264936Y-64495403D01*
X111264938Y-64495413D01*
X111326094Y-64723655D01*
X111326096Y-64723659D01*
X111326097Y-64723663D01*
X111390665Y-64862129D01*
X111425965Y-64937830D01*
X111425967Y-64937834D01*
X111561501Y-65131395D01*
X111561506Y-65131402D01*
X111728597Y-65298493D01*
X111728603Y-65298498D01*
X111914158Y-65428425D01*
X111957783Y-65483002D01*
X111964977Y-65552500D01*
X111933454Y-65614855D01*
X111914158Y-65631575D01*
X111728597Y-65761505D01*
X111561505Y-65928597D01*
X111425965Y-66122169D01*
X111425964Y-66122171D01*
X111326098Y-66336335D01*
X111326094Y-66336344D01*
X111264938Y-66564586D01*
X111264936Y-66564596D01*
X111244341Y-66799999D01*
X111244341Y-66800000D01*
X111264936Y-67035403D01*
X111264938Y-67035413D01*
X111326094Y-67263655D01*
X111326096Y-67263659D01*
X111326097Y-67263663D01*
X111370033Y-67357883D01*
X111425965Y-67477830D01*
X111425967Y-67477834D01*
X111524710Y-67618853D01*
X111552621Y-67658714D01*
X111561501Y-67671395D01*
X111561506Y-67671402D01*
X111728597Y-67838493D01*
X111728603Y-67838498D01*
X111914158Y-67968425D01*
X111957783Y-68023002D01*
X111964977Y-68092500D01*
X111933454Y-68154855D01*
X111914158Y-68171575D01*
X111728597Y-68301505D01*
X111561505Y-68468597D01*
X111425965Y-68662169D01*
X111425964Y-68662171D01*
X111326098Y-68876335D01*
X111326094Y-68876344D01*
X111264938Y-69104586D01*
X111264936Y-69104596D01*
X111244341Y-69339999D01*
X111244341Y-69340000D01*
X111264936Y-69575403D01*
X111264938Y-69575413D01*
X111326094Y-69803655D01*
X111326096Y-69803659D01*
X111326097Y-69803663D01*
X111425965Y-70017830D01*
X111425967Y-70017834D01*
X111561501Y-70211395D01*
X111561506Y-70211402D01*
X111728597Y-70378493D01*
X111728603Y-70378498D01*
X111914158Y-70508425D01*
X111957783Y-70563002D01*
X111964977Y-70632500D01*
X111933454Y-70694855D01*
X111914158Y-70711575D01*
X111728597Y-70841505D01*
X111561505Y-71008597D01*
X111425965Y-71202169D01*
X111425964Y-71202171D01*
X111326098Y-71416335D01*
X111326094Y-71416344D01*
X111264938Y-71644586D01*
X111264936Y-71644596D01*
X111244341Y-71879999D01*
X111244341Y-71880000D01*
X111264936Y-72115403D01*
X111264938Y-72115413D01*
X111326094Y-72343655D01*
X111326096Y-72343659D01*
X111326097Y-72343663D01*
X111425965Y-72557830D01*
X111425967Y-72557834D01*
X111561501Y-72751395D01*
X111561506Y-72751402D01*
X111728597Y-72918493D01*
X111728603Y-72918498D01*
X111914158Y-73048425D01*
X111957783Y-73103002D01*
X111964977Y-73172500D01*
X111933454Y-73234855D01*
X111914158Y-73251575D01*
X111728597Y-73381505D01*
X111561505Y-73548597D01*
X111425965Y-73742169D01*
X111425964Y-73742171D01*
X111326098Y-73956335D01*
X111326094Y-73956344D01*
X111264938Y-74184586D01*
X111264936Y-74184596D01*
X111244341Y-74419999D01*
X111244341Y-74420000D01*
X111264936Y-74655403D01*
X111264938Y-74655413D01*
X111326094Y-74883655D01*
X111326096Y-74883659D01*
X111326097Y-74883663D01*
X111408404Y-75060170D01*
X111425965Y-75097830D01*
X111425967Y-75097834D01*
X111520218Y-75232437D01*
X111561505Y-75291401D01*
X111728599Y-75458495D01*
X111728601Y-75458496D01*
X111728603Y-75458498D01*
X111914158Y-75588425D01*
X111957783Y-75643002D01*
X111964977Y-75712500D01*
X111933454Y-75774855D01*
X111914158Y-75791575D01*
X111728597Y-75921505D01*
X111561505Y-76088597D01*
X111425965Y-76282169D01*
X111425964Y-76282171D01*
X111326098Y-76496335D01*
X111326094Y-76496344D01*
X111264938Y-76724586D01*
X111264936Y-76724596D01*
X111244341Y-76959999D01*
X111244341Y-76960000D01*
X111264936Y-77195403D01*
X111264938Y-77195413D01*
X111326094Y-77423655D01*
X111326096Y-77423659D01*
X111326097Y-77423663D01*
X111369638Y-77517036D01*
X111425965Y-77637830D01*
X111425967Y-77637834D01*
X111528424Y-77784157D01*
X111561505Y-77831401D01*
X111728599Y-77998495D01*
X111855223Y-78087158D01*
X111887395Y-78109685D01*
X111931019Y-78164262D01*
X111938212Y-78233761D01*
X111906690Y-78296115D01*
X111903952Y-78298941D01*
X111367504Y-78835389D01*
X111367492Y-78835403D01*
X111315570Y-78902241D01*
X111315570Y-78902242D01*
X111260549Y-79035075D01*
X111250000Y-79119058D01*
X111250000Y-79250000D01*
X112166988Y-79250000D01*
X112134075Y-79307007D01*
X112100000Y-79434174D01*
X112100000Y-79565826D01*
X112134075Y-79692993D01*
X112166988Y-79750000D01*
X111250000Y-79750000D01*
X111250000Y-80397844D01*
X111256401Y-80457372D01*
X111256403Y-80457379D01*
X111306645Y-80592086D01*
X111306649Y-80592093D01*
X111392809Y-80707187D01*
X111392812Y-80707190D01*
X111507906Y-80793350D01*
X111507913Y-80793354D01*
X111642620Y-80843596D01*
X111642627Y-80843598D01*
X111702155Y-80849999D01*
X111702172Y-80850000D01*
X112350000Y-80850000D01*
X112350000Y-79933012D01*
X112407007Y-79965925D01*
X112534174Y-80000000D01*
X112665826Y-80000000D01*
X112792993Y-79965925D01*
X112850000Y-79933012D01*
X112850000Y-80850000D01*
X112980942Y-80850000D01*
X112980943Y-80849999D01*
X113064925Y-80839450D01*
X113197758Y-80784429D01*
X113264596Y-80732507D01*
X113264609Y-80732496D01*
X113832496Y-80164609D01*
X113832507Y-80164596D01*
X113884429Y-80097758D01*
X113884429Y-80097757D01*
X113939450Y-79964924D01*
X113949999Y-79880941D01*
X113950000Y-79880935D01*
X113950000Y-79750000D01*
X113033012Y-79750000D01*
X113065925Y-79692993D01*
X113100000Y-79565826D01*
X113100000Y-79434174D01*
X113065925Y-79307007D01*
X113033012Y-79250000D01*
X113950000Y-79250000D01*
X113950000Y-78602172D01*
X113949999Y-78602155D01*
X113943598Y-78542627D01*
X113943596Y-78542620D01*
X113893354Y-78407913D01*
X113893350Y-78407906D01*
X113807190Y-78292812D01*
X113807187Y-78292809D01*
X113692093Y-78206649D01*
X113692088Y-78206646D01*
X113560528Y-78157577D01*
X113504595Y-78115705D01*
X113480178Y-78050241D01*
X113495030Y-77981968D01*
X113516175Y-77953720D01*
X113638495Y-77831401D01*
X113774035Y-77637830D01*
X113873903Y-77423663D01*
X113935063Y-77195408D01*
X113955659Y-76960000D01*
X113935063Y-76724592D01*
X113908143Y-76624125D01*
X113909806Y-76554277D01*
X113940237Y-76504352D01*
X114106154Y-76338436D01*
X114685858Y-75758733D01*
X114754312Y-75656285D01*
X114780097Y-75594035D01*
X114789681Y-75570897D01*
X114789681Y-75570896D01*
X114801463Y-75542452D01*
X114813959Y-75479627D01*
X114818163Y-75458496D01*
X114818163Y-75458494D01*
X114825501Y-75421606D01*
X114825501Y-75358848D01*
X119905644Y-75358848D01*
X119905644Y-75962436D01*
X120339944Y-75962436D01*
X120406983Y-75982121D01*
X120452738Y-76034925D01*
X120463944Y-76086436D01*
X120463944Y-76338436D01*
X120444259Y-76405475D01*
X120391455Y-76451230D01*
X120339944Y-76462436D01*
X119905644Y-76462436D01*
X119905644Y-77066023D01*
X119946331Y-77270569D01*
X119946333Y-77270577D01*
X120026146Y-77463264D01*
X120142021Y-77636684D01*
X120289495Y-77784158D01*
X120462915Y-77900032D01*
X120627431Y-77968177D01*
X120681834Y-78012018D01*
X120703899Y-78078312D01*
X120686620Y-78146011D01*
X120635483Y-78193622D01*
X120627431Y-78197299D01*
X120462931Y-78265437D01*
X120289510Y-78381312D01*
X120142036Y-78528786D01*
X120026161Y-78702206D01*
X119946348Y-78894893D01*
X119946346Y-78894901D01*
X119905659Y-79099447D01*
X119905659Y-79347435D01*
X120334888Y-79347435D01*
X120401927Y-79367120D01*
X120440962Y-79412169D01*
X120442935Y-79411031D01*
X120447343Y-79418665D01*
X120447679Y-79419921D01*
X120447682Y-79419924D01*
X120449453Y-79423992D01*
X120450116Y-79425593D01*
X120449291Y-79425934D01*
X120463959Y-79480670D01*
X120463959Y-79714199D01*
X120449295Y-79768928D01*
X120450119Y-79769269D01*
X120449457Y-79770868D01*
X120448436Y-79772135D01*
X120447348Y-79776195D01*
X120447001Y-79776797D01*
X120447000Y-79776798D01*
X120442939Y-79783834D01*
X120440258Y-79782286D01*
X120405626Y-79825279D01*
X120339336Y-79847355D01*
X120334888Y-79847435D01*
X119905659Y-79847435D01*
X119905659Y-80095422D01*
X119946346Y-80299968D01*
X119946348Y-80299976D01*
X120026161Y-80492663D01*
X120142036Y-80666083D01*
X120289510Y-80813557D01*
X120462930Y-80929432D01*
X120655617Y-81009245D01*
X120655625Y-81009247D01*
X120714458Y-81020950D01*
X120714459Y-81020950D01*
X120714459Y-80660636D01*
X120734144Y-80593597D01*
X120786948Y-80547842D01*
X120856106Y-80537898D01*
X120870533Y-80540856D01*
X120891352Y-80546435D01*
X120891356Y-80546435D01*
X121037562Y-80546435D01*
X121037566Y-80546435D01*
X121058368Y-80540861D01*
X121128214Y-80542524D01*
X121186077Y-80581686D01*
X121213582Y-80645914D01*
X121214459Y-80660636D01*
X121214459Y-81020950D01*
X121273292Y-81009247D01*
X121273300Y-81009245D01*
X121465987Y-80929432D01*
X121639407Y-80813557D01*
X121786881Y-80666083D01*
X121902756Y-80492663D01*
X121982569Y-80299976D01*
X121982571Y-80299968D01*
X122023258Y-80095422D01*
X122023259Y-80095419D01*
X122023259Y-79847435D01*
X121594030Y-79847435D01*
X121526991Y-79827750D01*
X121487951Y-79782695D01*
X121485979Y-79783834D01*
X121481917Y-79776798D01*
X121481917Y-79776797D01*
X121481569Y-79776195D01*
X121481232Y-79774938D01*
X121479461Y-79770868D01*
X121478799Y-79769269D01*
X121479622Y-79768928D01*
X121464959Y-79714199D01*
X121464959Y-79480670D01*
X121479626Y-79425934D01*
X121478802Y-79425593D01*
X121479465Y-79423992D01*
X121480487Y-79422722D01*
X121481575Y-79418665D01*
X121485983Y-79411031D01*
X121488661Y-79412577D01*
X121523302Y-79369585D01*
X121589594Y-79347514D01*
X121594030Y-79347435D01*
X122023259Y-79347435D01*
X122023259Y-79099451D01*
X122023258Y-79099447D01*
X121982571Y-78894901D01*
X121982569Y-78894893D01*
X121902756Y-78702206D01*
X121786881Y-78528786D01*
X121639407Y-78381312D01*
X121465987Y-78265437D01*
X121301471Y-78197293D01*
X121247068Y-78153452D01*
X121225003Y-78087158D01*
X121242282Y-78019458D01*
X121293420Y-77971848D01*
X121301472Y-77968171D01*
X121465970Y-77900034D01*
X121639392Y-77784158D01*
X121786866Y-77636684D01*
X121902737Y-77463269D01*
X121902741Y-77463261D01*
X121908842Y-77448533D01*
X121952681Y-77394129D01*
X122018975Y-77372062D01*
X122049831Y-77376394D01*
X122050128Y-77375000D01*
X122227186Y-77412635D01*
X122401696Y-77412635D01*
X122401962Y-77412607D01*
X122402115Y-77412635D01*
X122408201Y-77412635D01*
X122408201Y-77413746D01*
X122470694Y-77425164D01*
X122521726Y-77472887D01*
X122538945Y-77535925D01*
X122538945Y-78026055D01*
X122562980Y-78146888D01*
X122562983Y-78146900D01*
X122571727Y-78168010D01*
X122610130Y-78260726D01*
X122610132Y-78260729D01*
X122610133Y-78260731D01*
X122621003Y-78276998D01*
X122633074Y-78295063D01*
X122633075Y-78295065D01*
X122678585Y-78363176D01*
X122678586Y-78363177D01*
X122678587Y-78363178D01*
X122765712Y-78450303D01*
X122765713Y-78450303D01*
X122772780Y-78457370D01*
X122772779Y-78457370D01*
X122772782Y-78457372D01*
X123014141Y-78698732D01*
X123014142Y-78698733D01*
X123101267Y-78785858D01*
X123155613Y-78822171D01*
X123203714Y-78854311D01*
X123317548Y-78901463D01*
X123438388Y-78925499D01*
X123438392Y-78925500D01*
X123438393Y-78925500D01*
X127161607Y-78925500D01*
X127222029Y-78913481D01*
X127282452Y-78901463D01*
X127282455Y-78901461D01*
X127282458Y-78901461D01*
X127315787Y-78887654D01*
X127315786Y-78887654D01*
X127315792Y-78887652D01*
X127396286Y-78854312D01*
X127447509Y-78820084D01*
X127498733Y-78785858D01*
X127585858Y-78698733D01*
X127585859Y-78698731D01*
X127592925Y-78691665D01*
X127592928Y-78691661D01*
X127813173Y-78471416D01*
X127813177Y-78471414D01*
X127900302Y-78384289D01*
X127959920Y-78295065D01*
X127959921Y-78295064D01*
X127965849Y-78286190D01*
X127968756Y-78281841D01*
X128015907Y-78168007D01*
X128020615Y-78144341D01*
X128039944Y-78047162D01*
X128039944Y-77535925D01*
X128059629Y-77468886D01*
X128112433Y-77423131D01*
X128170688Y-77413625D01*
X128170688Y-77412635D01*
X128176755Y-77412635D01*
X128176927Y-77412607D01*
X128177193Y-77412635D01*
X128351703Y-77412635D01*
X128528761Y-77375000D01*
X128529339Y-77377719D01*
X128586938Y-77376047D01*
X128646787Y-77412100D01*
X128670030Y-77448533D01*
X128676131Y-77463261D01*
X128792006Y-77636683D01*
X128939480Y-77784157D01*
X129112900Y-77900032D01*
X129277409Y-77968174D01*
X129331812Y-78012015D01*
X129353877Y-78078309D01*
X129336598Y-78146009D01*
X129285460Y-78193619D01*
X129277409Y-78197296D01*
X129112900Y-78265437D01*
X128939480Y-78381312D01*
X128792006Y-78528786D01*
X128676131Y-78702206D01*
X128596318Y-78894893D01*
X128596316Y-78894901D01*
X128555629Y-79099447D01*
X128555629Y-79347435D01*
X128984858Y-79347435D01*
X129051897Y-79367120D01*
X129090932Y-79412169D01*
X129092905Y-79411031D01*
X129097313Y-79418665D01*
X129097649Y-79419921D01*
X129097652Y-79419924D01*
X129099423Y-79423992D01*
X129100086Y-79425593D01*
X129099261Y-79425934D01*
X129113929Y-79480670D01*
X129113929Y-79714199D01*
X129099265Y-79768928D01*
X129100089Y-79769269D01*
X129099427Y-79770868D01*
X129098406Y-79772135D01*
X129097318Y-79776195D01*
X129096971Y-79776797D01*
X129096970Y-79776798D01*
X129092909Y-79783834D01*
X129090228Y-79782286D01*
X129055596Y-79825279D01*
X128989306Y-79847355D01*
X128984858Y-79847435D01*
X128555629Y-79847435D01*
X128555629Y-80095422D01*
X128596316Y-80299968D01*
X128596318Y-80299976D01*
X128676131Y-80492663D01*
X128792006Y-80666083D01*
X128939480Y-80813557D01*
X129112900Y-80929432D01*
X129305587Y-81009245D01*
X129305595Y-81009247D01*
X129364428Y-81020950D01*
X129364429Y-81020950D01*
X129364429Y-80660636D01*
X129384114Y-80593597D01*
X129436918Y-80547842D01*
X129506076Y-80537898D01*
X129520503Y-80540856D01*
X129541322Y-80546435D01*
X129541326Y-80546435D01*
X129687532Y-80546435D01*
X129687536Y-80546435D01*
X129708338Y-80540861D01*
X129778184Y-80542524D01*
X129836047Y-80581686D01*
X129863552Y-80645914D01*
X129864429Y-80660636D01*
X129864429Y-81020950D01*
X129923262Y-81009247D01*
X129923270Y-81009245D01*
X130115957Y-80929432D01*
X130289377Y-80813557D01*
X130436851Y-80666083D01*
X130552726Y-80492663D01*
X130632539Y-80299976D01*
X130632541Y-80299968D01*
X130673228Y-80095422D01*
X130673229Y-80095419D01*
X130673229Y-79847435D01*
X130244000Y-79847435D01*
X130176961Y-79827750D01*
X130137921Y-79782695D01*
X130135949Y-79783834D01*
X130131887Y-79776798D01*
X130131887Y-79776797D01*
X130131539Y-79776195D01*
X130131202Y-79774938D01*
X130129431Y-79770868D01*
X130128769Y-79769269D01*
X130129592Y-79768928D01*
X130114929Y-79714199D01*
X130114929Y-79480670D01*
X130129596Y-79425934D01*
X130128772Y-79425593D01*
X130129435Y-79423992D01*
X130130457Y-79422722D01*
X130131545Y-79418665D01*
X130135953Y-79411031D01*
X130138631Y-79412577D01*
X130173272Y-79369585D01*
X130239564Y-79347514D01*
X130244000Y-79347435D01*
X130673229Y-79347435D01*
X130673229Y-79099451D01*
X130673228Y-79099447D01*
X130632541Y-78894901D01*
X130632539Y-78894893D01*
X130552726Y-78702206D01*
X130436851Y-78528786D01*
X130289377Y-78381312D01*
X130115957Y-78265438D01*
X129951448Y-78197296D01*
X129897045Y-78153455D01*
X129874980Y-78087161D01*
X129892259Y-78019461D01*
X129943397Y-77971851D01*
X129951448Y-77968174D01*
X130115957Y-77900031D01*
X130289377Y-77784157D01*
X130436851Y-77636683D01*
X130552726Y-77463263D01*
X130632539Y-77270576D01*
X130632541Y-77270568D01*
X130673228Y-77066022D01*
X130673229Y-77066019D01*
X130673229Y-76462435D01*
X130238929Y-76462435D01*
X130171890Y-76442750D01*
X130126135Y-76389946D01*
X130114929Y-76338435D01*
X130114929Y-76086435D01*
X130134614Y-76019396D01*
X130187418Y-75973641D01*
X130238929Y-75962435D01*
X130673229Y-75962435D01*
X130673229Y-75358851D01*
X130673228Y-75358847D01*
X130632541Y-75154301D01*
X130632539Y-75154293D01*
X130552726Y-74961606D01*
X130436851Y-74788186D01*
X130289377Y-74640712D01*
X130115957Y-74524837D01*
X129923268Y-74445023D01*
X129923264Y-74445022D01*
X129864429Y-74433318D01*
X129864429Y-74793633D01*
X129844744Y-74860672D01*
X129791940Y-74906427D01*
X129722782Y-74916371D01*
X129708341Y-74913409D01*
X129687536Y-74907835D01*
X129541322Y-74907835D01*
X129520519Y-74913408D01*
X129450670Y-74911744D01*
X129392808Y-74872580D01*
X129365306Y-74808351D01*
X129364429Y-74793633D01*
X129364429Y-74433319D01*
X129364428Y-74433318D01*
X129305593Y-74445022D01*
X129305589Y-74445023D01*
X129112897Y-74524839D01*
X129112896Y-74524839D01*
X128939491Y-74640705D01*
X128939482Y-74640712D01*
X128923547Y-74656645D01*
X128970986Y-74704085D01*
X129004470Y-74765409D01*
X128999486Y-74835100D01*
X128970985Y-74879447D01*
X128454069Y-75396363D01*
X128392746Y-75429848D01*
X128329717Y-75425340D01*
X128379549Y-75404700D01*
X128436710Y-75347539D01*
X128467645Y-75272854D01*
X128467645Y-75192016D01*
X128436710Y-75117331D01*
X128379549Y-75060170D01*
X128304864Y-75029235D01*
X128224026Y-75029235D01*
X128222125Y-75030022D01*
X128218918Y-75020151D01*
X128216923Y-74950315D01*
X128249169Y-74894156D01*
X128648615Y-74494711D01*
X128522401Y-74438518D01*
X128351703Y-74402235D01*
X128177187Y-74402235D01*
X128006488Y-74438518D01*
X128006484Y-74438519D01*
X127890492Y-74490161D01*
X127821242Y-74499445D01*
X127789622Y-74490160D01*
X127672563Y-74438041D01*
X127672557Y-74438039D01*
X127538058Y-74409451D01*
X127501754Y-74401735D01*
X127327134Y-74401735D01*
X127290830Y-74409451D01*
X127156331Y-74438039D01*
X127082243Y-74471025D01*
X127039879Y-74489887D01*
X126970631Y-74499171D01*
X126939011Y-74489887D01*
X126822560Y-74438040D01*
X126822558Y-74438039D01*
X126822559Y-74438039D01*
X126688060Y-74409451D01*
X126651756Y-74401735D01*
X126477136Y-74401735D01*
X126447195Y-74408098D01*
X126306332Y-74438039D01*
X126306330Y-74438040D01*
X126189880Y-74489887D01*
X126120630Y-74499171D01*
X126089010Y-74489887D01*
X125972560Y-74438040D01*
X125972558Y-74438039D01*
X125838059Y-74409451D01*
X125801755Y-74401735D01*
X125627135Y-74401735D01*
X125597194Y-74408098D01*
X125456331Y-74438039D01*
X125456329Y-74438040D01*
X125339879Y-74489887D01*
X125270629Y-74499171D01*
X125239009Y-74489887D01*
X125122559Y-74438040D01*
X125122557Y-74438039D01*
X124988058Y-74409451D01*
X124951754Y-74401735D01*
X124777134Y-74401735D01*
X124747193Y-74408098D01*
X124606330Y-74438039D01*
X124606328Y-74438040D01*
X124489878Y-74489887D01*
X124420628Y-74499171D01*
X124389008Y-74489887D01*
X124272558Y-74438040D01*
X124272556Y-74438039D01*
X124138057Y-74409451D01*
X124101753Y-74401735D01*
X123927133Y-74401735D01*
X123890829Y-74409451D01*
X123756330Y-74438039D01*
X123682242Y-74471025D01*
X123639878Y-74489887D01*
X123570630Y-74499171D01*
X123539010Y-74489887D01*
X123422559Y-74438040D01*
X123422557Y-74438039D01*
X123422558Y-74438039D01*
X123288059Y-74409451D01*
X123251755Y-74401735D01*
X123077135Y-74401735D01*
X123047194Y-74408098D01*
X122906331Y-74438039D01*
X122906329Y-74438040D01*
X122789264Y-74490161D01*
X122720014Y-74499445D01*
X122688394Y-74490161D01*
X122572400Y-74438518D01*
X122401702Y-74402235D01*
X122227186Y-74402235D01*
X122056487Y-74438518D01*
X121930272Y-74494711D01*
X122329718Y-74894156D01*
X122363203Y-74955479D01*
X122359969Y-75020152D01*
X122356762Y-75030021D01*
X122354863Y-75029235D01*
X122274025Y-75029235D01*
X122199340Y-75060170D01*
X122142179Y-75117331D01*
X122111244Y-75192016D01*
X122111244Y-75272854D01*
X122142179Y-75347539D01*
X122199340Y-75404700D01*
X122244360Y-75423347D01*
X122207780Y-75432592D01*
X122141538Y-75410370D01*
X122124819Y-75396363D01*
X121607902Y-74879446D01*
X121574417Y-74818123D01*
X121579401Y-74748431D01*
X121607902Y-74704084D01*
X121655332Y-74656654D01*
X121655332Y-74656653D01*
X121639392Y-74640713D01*
X121465972Y-74524838D01*
X121273283Y-74445024D01*
X121273279Y-74445023D01*
X121214444Y-74433319D01*
X121214444Y-74793634D01*
X121194759Y-74860673D01*
X121141955Y-74906428D01*
X121072797Y-74916372D01*
X121058356Y-74913410D01*
X121037551Y-74907836D01*
X120891337Y-74907836D01*
X120870534Y-74913409D01*
X120800685Y-74911745D01*
X120742823Y-74872581D01*
X120715321Y-74808352D01*
X120714444Y-74793634D01*
X120714444Y-74433320D01*
X120714443Y-74433319D01*
X120655608Y-74445023D01*
X120655604Y-74445024D01*
X120462915Y-74524838D01*
X120289495Y-74640713D01*
X120142021Y-74788187D01*
X120026146Y-74961607D01*
X119946333Y-75154294D01*
X119946331Y-75154302D01*
X119905644Y-75358848D01*
X114825501Y-75358848D01*
X114825501Y-75293283D01*
X114825500Y-75293257D01*
X114825500Y-73766848D01*
X114845185Y-73699809D01*
X114861815Y-73679170D01*
X114948729Y-73592256D01*
X114948733Y-73592254D01*
X115035858Y-73505129D01*
X115104311Y-73402682D01*
X115104312Y-73402681D01*
X115151463Y-73288847D01*
X115162203Y-73234855D01*
X115167080Y-73210339D01*
X115174605Y-73172500D01*
X115175500Y-73168002D01*
X115175500Y-71513244D01*
X115195185Y-71446205D01*
X115211815Y-71425566D01*
X115298729Y-71338652D01*
X115298733Y-71338650D01*
X115385858Y-71251525D01*
X115418836Y-71202169D01*
X115437254Y-71174605D01*
X115437256Y-71174602D01*
X115454311Y-71149079D01*
X115454311Y-71149078D01*
X115454312Y-71149077D01*
X115489084Y-71065129D01*
X115501463Y-71035244D01*
X115525500Y-70914398D01*
X115525500Y-70890019D01*
X115545185Y-70822980D01*
X115597989Y-70777225D01*
X115667147Y-70767281D01*
X115692834Y-70773838D01*
X115772616Y-70803595D01*
X115772627Y-70803598D01*
X115832155Y-70809999D01*
X115832172Y-70810000D01*
X116380000Y-70810000D01*
X116880000Y-70810000D01*
X117427828Y-70810000D01*
X117427844Y-70809999D01*
X117487372Y-70803598D01*
X117487379Y-70803596D01*
X117622086Y-70753354D01*
X117622093Y-70753350D01*
X117737187Y-70667190D01*
X117737190Y-70667187D01*
X117823350Y-70552093D01*
X117823354Y-70552086D01*
X117873596Y-70417379D01*
X117873598Y-70417372D01*
X117879999Y-70357844D01*
X117880000Y-70357827D01*
X117880000Y-70110000D01*
X116880000Y-70110000D01*
X116880000Y-70810000D01*
X116380000Y-70810000D01*
X116380000Y-69734000D01*
X116399685Y-69666961D01*
X116452489Y-69621206D01*
X116504000Y-69610000D01*
X117880000Y-69610000D01*
X117880000Y-69362172D01*
X117879999Y-69362155D01*
X117873598Y-69302627D01*
X117873597Y-69302623D01*
X117820253Y-69159602D01*
X117822067Y-69158925D01*
X117809616Y-69101674D01*
X117821570Y-69060966D01*
X117820696Y-69060640D01*
X117823794Y-69052333D01*
X117823796Y-69052331D01*
X117874091Y-68917483D01*
X117880500Y-68857873D01*
X117880499Y-67862128D01*
X117874091Y-67802517D01*
X117823796Y-67667669D01*
X117823794Y-67667666D01*
X117820696Y-67659360D01*
X117822426Y-67658714D01*
X117809902Y-67601163D01*
X117821691Y-67561011D01*
X117820696Y-67560640D01*
X117823794Y-67552333D01*
X117823796Y-67552331D01*
X117874091Y-67417483D01*
X117880500Y-67357873D01*
X117880499Y-66362128D01*
X117874091Y-66302517D01*
X117823796Y-66167669D01*
X117823794Y-66167666D01*
X117820696Y-66159360D01*
X117822426Y-66158714D01*
X117809902Y-66101163D01*
X117821691Y-66061011D01*
X117820696Y-66060640D01*
X117823794Y-66052333D01*
X117823796Y-66052331D01*
X117874091Y-65917483D01*
X117880500Y-65857873D01*
X117880500Y-65557844D01*
X124390000Y-65557844D01*
X124396401Y-65617372D01*
X124396403Y-65617379D01*
X124446645Y-65752086D01*
X124446649Y-65752093D01*
X124532809Y-65867187D01*
X124532812Y-65867190D01*
X124647906Y-65953350D01*
X124647913Y-65953354D01*
X124782620Y-66003596D01*
X124782627Y-66003598D01*
X124842155Y-66009999D01*
X124842172Y-66010000D01*
X124990000Y-66010000D01*
X124990000Y-65410000D01*
X125490000Y-65410000D01*
X125490000Y-66010000D01*
X125637828Y-66010000D01*
X125637844Y-66009999D01*
X125697377Y-66003597D01*
X125697378Y-66003597D01*
X125746665Y-65985214D01*
X125816356Y-65980228D01*
X125833335Y-65985214D01*
X125882621Y-66003597D01*
X125942155Y-66009999D01*
X125942172Y-66010000D01*
X126090000Y-66010000D01*
X126090000Y-65410000D01*
X126590000Y-65410000D01*
X126590000Y-66010000D01*
X126737828Y-66010000D01*
X126737844Y-66009999D01*
X126797377Y-66003597D01*
X126797378Y-66003597D01*
X126846665Y-65985214D01*
X126916356Y-65980228D01*
X126933335Y-65985214D01*
X126982621Y-66003597D01*
X127042155Y-66009999D01*
X127042172Y-66010000D01*
X127190000Y-66010000D01*
X127690000Y-66010000D01*
X127837828Y-66010000D01*
X127837844Y-66009999D01*
X127897372Y-66003598D01*
X127897379Y-66003596D01*
X128032086Y-65953354D01*
X128032093Y-65953350D01*
X128147187Y-65867190D01*
X128147190Y-65867187D01*
X128233350Y-65752093D01*
X128233354Y-65752086D01*
X128283596Y-65617379D01*
X128283598Y-65617372D01*
X128289999Y-65557844D01*
X128290000Y-65557827D01*
X128290000Y-65410000D01*
X127690000Y-65410000D01*
X127690000Y-66010000D01*
X127190000Y-66010000D01*
X127190000Y-65410000D01*
X126898178Y-65410000D01*
X126898178Y-65408170D01*
X126881822Y-65409928D01*
X126881822Y-65410000D01*
X126881154Y-65410000D01*
X126867978Y-65411416D01*
X126863156Y-65410000D01*
X126590000Y-65410000D01*
X126090000Y-65410000D01*
X125798178Y-65410000D01*
X125798178Y-65408170D01*
X125781822Y-65409928D01*
X125781822Y-65410000D01*
X125781154Y-65410000D01*
X125767978Y-65411416D01*
X125763156Y-65410000D01*
X125490000Y-65410000D01*
X124990000Y-65410000D01*
X124390000Y-65410000D01*
X124390000Y-65557844D01*
X117880500Y-65557844D01*
X117880499Y-65130163D01*
X125640000Y-65130163D01*
X125640000Y-65189837D01*
X125662836Y-65244968D01*
X125705032Y-65287164D01*
X125760163Y-65310000D01*
X125819837Y-65310000D01*
X125874968Y-65287164D01*
X125917164Y-65244968D01*
X125940000Y-65189837D01*
X125940000Y-65130163D01*
X126740000Y-65130163D01*
X126740000Y-65189837D01*
X126762836Y-65244968D01*
X126805032Y-65287164D01*
X126860163Y-65310000D01*
X126919837Y-65310000D01*
X126974968Y-65287164D01*
X127017164Y-65244968D01*
X127040000Y-65189837D01*
X127040000Y-65130163D01*
X127017164Y-65075032D01*
X126974968Y-65032836D01*
X126919837Y-65010000D01*
X126860163Y-65010000D01*
X126805032Y-65032836D01*
X126762836Y-65075032D01*
X126740000Y-65130163D01*
X125940000Y-65130163D01*
X125917164Y-65075032D01*
X125874968Y-65032836D01*
X125819837Y-65010000D01*
X125760163Y-65010000D01*
X125705032Y-65032836D01*
X125662836Y-65075032D01*
X125640000Y-65130163D01*
X117880499Y-65130163D01*
X117880499Y-64862128D01*
X117874091Y-64802517D01*
X117823796Y-64667669D01*
X117823794Y-64667666D01*
X117820696Y-64659360D01*
X117822426Y-64658714D01*
X117809902Y-64601163D01*
X117821691Y-64561011D01*
X117820696Y-64560640D01*
X117823794Y-64552333D01*
X117823796Y-64552331D01*
X117859037Y-64457844D01*
X124390000Y-64457844D01*
X124396401Y-64517372D01*
X124396403Y-64517380D01*
X124414786Y-64566667D01*
X124419770Y-64636359D01*
X124414786Y-64653333D01*
X124396403Y-64702619D01*
X124396401Y-64702627D01*
X124390000Y-64762155D01*
X124390000Y-64910000D01*
X124990000Y-64910000D01*
X124990000Y-64618178D01*
X124991828Y-64618178D01*
X124990069Y-64601822D01*
X124990000Y-64601822D01*
X124990000Y-64601181D01*
X124988581Y-64587991D01*
X124990000Y-64583158D01*
X124990000Y-64580163D01*
X125090000Y-64580163D01*
X125090000Y-64639837D01*
X125112836Y-64694968D01*
X125155032Y-64737164D01*
X125210163Y-64760000D01*
X125269837Y-64760000D01*
X125324968Y-64737164D01*
X125367164Y-64694968D01*
X125390000Y-64639837D01*
X125390000Y-64610000D01*
X125522843Y-64610000D01*
X125790000Y-64877157D01*
X126057157Y-64610000D01*
X126027320Y-64580163D01*
X126190000Y-64580163D01*
X126190000Y-64639837D01*
X126212836Y-64694968D01*
X126255032Y-64737164D01*
X126310163Y-64760000D01*
X126369837Y-64760000D01*
X126424968Y-64737164D01*
X126467164Y-64694968D01*
X126490000Y-64639837D01*
X126490000Y-64610000D01*
X126622843Y-64610000D01*
X126890000Y-64877157D01*
X127157157Y-64610000D01*
X127127320Y-64580163D01*
X127290000Y-64580163D01*
X127290000Y-64639837D01*
X127312836Y-64694968D01*
X127355032Y-64737164D01*
X127410163Y-64760000D01*
X127469837Y-64760000D01*
X127524968Y-64737164D01*
X127567164Y-64694968D01*
X127590000Y-64639837D01*
X127590000Y-64601822D01*
X127688170Y-64601822D01*
X127689928Y-64618178D01*
X127690000Y-64618178D01*
X127690000Y-64618846D01*
X127691416Y-64632022D01*
X127690000Y-64636844D01*
X127690000Y-64910000D01*
X128290000Y-64910000D01*
X128290000Y-64762172D01*
X128289999Y-64762155D01*
X128283597Y-64702622D01*
X128283597Y-64702621D01*
X128265214Y-64653335D01*
X128260228Y-64583644D01*
X128265214Y-64566665D01*
X128283597Y-64517378D01*
X128283597Y-64517377D01*
X128289999Y-64457844D01*
X128290000Y-64457827D01*
X128290000Y-64310000D01*
X127690000Y-64310000D01*
X127690000Y-64601822D01*
X127688170Y-64601822D01*
X127590000Y-64601822D01*
X127590000Y-64580163D01*
X127567164Y-64525032D01*
X127524968Y-64482836D01*
X127469837Y-64460000D01*
X127410163Y-64460000D01*
X127355032Y-64482836D01*
X127312836Y-64525032D01*
X127290000Y-64580163D01*
X127127320Y-64580163D01*
X126890000Y-64342843D01*
X126622843Y-64610000D01*
X126490000Y-64610000D01*
X126490000Y-64580163D01*
X126467164Y-64525032D01*
X126424968Y-64482836D01*
X126369837Y-64460000D01*
X126310163Y-64460000D01*
X126255032Y-64482836D01*
X126212836Y-64525032D01*
X126190000Y-64580163D01*
X126027320Y-64580163D01*
X125790000Y-64342843D01*
X125522843Y-64610000D01*
X125390000Y-64610000D01*
X125390000Y-64580163D01*
X125367164Y-64525032D01*
X125324968Y-64482836D01*
X125269837Y-64460000D01*
X125210163Y-64460000D01*
X125155032Y-64482836D01*
X125112836Y-64525032D01*
X125090000Y-64580163D01*
X124990000Y-64580163D01*
X124990000Y-64310000D01*
X124390000Y-64310000D01*
X124390000Y-64457844D01*
X117859037Y-64457844D01*
X117874091Y-64417483D01*
X117880500Y-64357873D01*
X117880500Y-64030163D01*
X125640000Y-64030163D01*
X125640000Y-64089837D01*
X125662836Y-64144968D01*
X125705032Y-64187164D01*
X125760163Y-64210000D01*
X125819837Y-64210000D01*
X125874968Y-64187164D01*
X125917164Y-64144968D01*
X125940000Y-64089837D01*
X125940000Y-64030163D01*
X126740000Y-64030163D01*
X126740000Y-64089837D01*
X126762836Y-64144968D01*
X126805032Y-64187164D01*
X126860163Y-64210000D01*
X126919837Y-64210000D01*
X126974968Y-64187164D01*
X127017164Y-64144968D01*
X127040000Y-64089837D01*
X127040000Y-64030163D01*
X127017164Y-63975032D01*
X126974968Y-63932836D01*
X126919837Y-63910000D01*
X126860163Y-63910000D01*
X126805032Y-63932836D01*
X126762836Y-63975032D01*
X126740000Y-64030163D01*
X125940000Y-64030163D01*
X125917164Y-63975032D01*
X125874968Y-63932836D01*
X125819837Y-63910000D01*
X125760163Y-63910000D01*
X125705032Y-63932836D01*
X125662836Y-63975032D01*
X125640000Y-64030163D01*
X117880500Y-64030163D01*
X117880499Y-63362128D01*
X117880038Y-63357844D01*
X124390000Y-63357844D01*
X124396401Y-63417372D01*
X124396403Y-63417380D01*
X124414786Y-63466667D01*
X124419770Y-63536359D01*
X124414786Y-63553333D01*
X124396403Y-63602619D01*
X124396401Y-63602627D01*
X124390000Y-63662155D01*
X124390000Y-63810000D01*
X124990000Y-63810000D01*
X124990000Y-63518178D01*
X124991828Y-63518178D01*
X124990069Y-63501822D01*
X124990000Y-63501822D01*
X124990000Y-63501181D01*
X124988581Y-63487991D01*
X124990000Y-63483158D01*
X124990000Y-63480163D01*
X125090000Y-63480163D01*
X125090000Y-63539837D01*
X125112836Y-63594968D01*
X125155032Y-63637164D01*
X125210163Y-63660000D01*
X125269837Y-63660000D01*
X125324968Y-63637164D01*
X125367164Y-63594968D01*
X125390000Y-63539837D01*
X125390000Y-63510000D01*
X125522843Y-63510000D01*
X125790000Y-63777157D01*
X126057157Y-63510000D01*
X126027320Y-63480163D01*
X126190000Y-63480163D01*
X126190000Y-63539837D01*
X126212836Y-63594968D01*
X126255032Y-63637164D01*
X126310163Y-63660000D01*
X126369837Y-63660000D01*
X126424968Y-63637164D01*
X126467164Y-63594968D01*
X126490000Y-63539837D01*
X126490000Y-63510000D01*
X126622843Y-63510000D01*
X126890000Y-63777157D01*
X127157157Y-63510000D01*
X127127320Y-63480163D01*
X127290000Y-63480163D01*
X127290000Y-63539837D01*
X127312836Y-63594968D01*
X127355032Y-63637164D01*
X127410163Y-63660000D01*
X127469837Y-63660000D01*
X127524968Y-63637164D01*
X127567164Y-63594968D01*
X127590000Y-63539837D01*
X127590000Y-63501822D01*
X127688170Y-63501822D01*
X127689928Y-63518178D01*
X127690000Y-63518178D01*
X127690000Y-63518846D01*
X127691416Y-63532022D01*
X127690000Y-63536844D01*
X127690000Y-63810000D01*
X128290000Y-63810000D01*
X128290000Y-63662172D01*
X128289999Y-63662155D01*
X128283597Y-63602622D01*
X128283597Y-63602621D01*
X128265214Y-63553335D01*
X128260228Y-63483644D01*
X128265214Y-63466665D01*
X128283597Y-63417378D01*
X128283597Y-63417377D01*
X128289999Y-63357844D01*
X128290000Y-63357827D01*
X128290000Y-63210000D01*
X127690000Y-63210000D01*
X127690000Y-63501822D01*
X127688170Y-63501822D01*
X127590000Y-63501822D01*
X127590000Y-63480163D01*
X127567164Y-63425032D01*
X127524968Y-63382836D01*
X127469837Y-63360000D01*
X127410163Y-63360000D01*
X127355032Y-63382836D01*
X127312836Y-63425032D01*
X127290000Y-63480163D01*
X127127320Y-63480163D01*
X126890000Y-63242843D01*
X126622843Y-63510000D01*
X126490000Y-63510000D01*
X126490000Y-63480163D01*
X126467164Y-63425032D01*
X126424968Y-63382836D01*
X126369837Y-63360000D01*
X126310163Y-63360000D01*
X126255032Y-63382836D01*
X126212836Y-63425032D01*
X126190000Y-63480163D01*
X126027320Y-63480163D01*
X125790000Y-63242843D01*
X125522843Y-63510000D01*
X125390000Y-63510000D01*
X125390000Y-63480163D01*
X125367164Y-63425032D01*
X125324968Y-63382836D01*
X125269837Y-63360000D01*
X125210163Y-63360000D01*
X125155032Y-63382836D01*
X125112836Y-63425032D01*
X125090000Y-63480163D01*
X124990000Y-63480163D01*
X124990000Y-63210000D01*
X124390000Y-63210000D01*
X124390000Y-63357844D01*
X117880038Y-63357844D01*
X117874091Y-63302517D01*
X117823796Y-63167669D01*
X117823794Y-63167666D01*
X117820696Y-63159360D01*
X117822426Y-63158714D01*
X117809902Y-63101163D01*
X117821691Y-63061011D01*
X117820696Y-63060640D01*
X117823794Y-63052333D01*
X117823796Y-63052331D01*
X117869362Y-62930163D01*
X125640000Y-62930163D01*
X125640000Y-62989837D01*
X125662836Y-63044968D01*
X125705032Y-63087164D01*
X125760163Y-63110000D01*
X125819837Y-63110000D01*
X125874968Y-63087164D01*
X125917164Y-63044968D01*
X125940000Y-62989837D01*
X125940000Y-62930163D01*
X126740000Y-62930163D01*
X126740000Y-62989837D01*
X126762836Y-63044968D01*
X126805032Y-63087164D01*
X126860163Y-63110000D01*
X126919837Y-63110000D01*
X126974968Y-63087164D01*
X127017164Y-63044968D01*
X127040000Y-62989837D01*
X127040000Y-62930163D01*
X127017164Y-62875032D01*
X126974968Y-62832836D01*
X126919837Y-62810000D01*
X126860163Y-62810000D01*
X126805032Y-62832836D01*
X126762836Y-62875032D01*
X126740000Y-62930163D01*
X125940000Y-62930163D01*
X125917164Y-62875032D01*
X125874968Y-62832836D01*
X125819837Y-62810000D01*
X125760163Y-62810000D01*
X125705032Y-62832836D01*
X125662836Y-62875032D01*
X125640000Y-62930163D01*
X117869362Y-62930163D01*
X117874091Y-62917483D01*
X117880500Y-62857873D01*
X117880500Y-62562155D01*
X124390000Y-62562155D01*
X124390000Y-62710000D01*
X124990000Y-62710000D01*
X125490000Y-62710000D01*
X125781822Y-62710000D01*
X125781822Y-62711828D01*
X125798178Y-62710068D01*
X125798178Y-62710000D01*
X125798818Y-62710000D01*
X125812009Y-62708581D01*
X125816842Y-62710000D01*
X126090000Y-62710000D01*
X126590000Y-62710000D01*
X126881822Y-62710000D01*
X126881822Y-62711828D01*
X126898178Y-62710068D01*
X126898178Y-62710000D01*
X126898818Y-62710000D01*
X126912009Y-62708581D01*
X126916842Y-62710000D01*
X127190000Y-62710000D01*
X127690000Y-62710000D01*
X128290000Y-62710000D01*
X128290000Y-62562172D01*
X128289999Y-62562155D01*
X128283598Y-62502627D01*
X128283596Y-62502620D01*
X128233354Y-62367913D01*
X128233350Y-62367906D01*
X128147190Y-62252812D01*
X128147187Y-62252809D01*
X128032093Y-62166649D01*
X128032086Y-62166645D01*
X127897379Y-62116403D01*
X127897372Y-62116401D01*
X127837844Y-62110000D01*
X127690000Y-62110000D01*
X127690000Y-62710000D01*
X127190000Y-62710000D01*
X127190000Y-62110000D01*
X127042155Y-62110000D01*
X126982627Y-62116401D01*
X126982619Y-62116403D01*
X126933333Y-62134786D01*
X126863641Y-62139770D01*
X126846667Y-62134786D01*
X126797380Y-62116403D01*
X126797372Y-62116401D01*
X126737844Y-62110000D01*
X126590000Y-62110000D01*
X126590000Y-62710000D01*
X126090000Y-62710000D01*
X126090000Y-62110000D01*
X125942155Y-62110000D01*
X125882627Y-62116401D01*
X125882619Y-62116403D01*
X125833333Y-62134786D01*
X125763641Y-62139770D01*
X125746667Y-62134786D01*
X125697380Y-62116403D01*
X125697372Y-62116401D01*
X125637844Y-62110000D01*
X125490000Y-62110000D01*
X125490000Y-62710000D01*
X124990000Y-62710000D01*
X124990000Y-62110000D01*
X124842155Y-62110000D01*
X124782627Y-62116401D01*
X124782620Y-62116403D01*
X124647913Y-62166645D01*
X124647906Y-62166649D01*
X124532812Y-62252809D01*
X124532809Y-62252812D01*
X124446649Y-62367906D01*
X124446645Y-62367913D01*
X124396403Y-62502620D01*
X124396401Y-62502627D01*
X124390000Y-62562155D01*
X117880500Y-62562155D01*
X117880499Y-61862128D01*
X117874091Y-61802517D01*
X117823796Y-61667669D01*
X117823794Y-61667666D01*
X117820696Y-61659360D01*
X117822426Y-61658714D01*
X117809902Y-61601163D01*
X117821691Y-61561011D01*
X117820696Y-61560640D01*
X117823794Y-61552333D01*
X117823796Y-61552331D01*
X117874091Y-61417483D01*
X117880500Y-61357873D01*
X117880499Y-60362128D01*
X117874091Y-60302517D01*
X117823796Y-60167669D01*
X117823794Y-60167666D01*
X117820696Y-60159360D01*
X117822426Y-60158714D01*
X117809902Y-60101163D01*
X117821691Y-60061011D01*
X117820696Y-60060640D01*
X117823794Y-60052333D01*
X117823796Y-60052331D01*
X117874091Y-59917483D01*
X117880500Y-59857873D01*
X117880499Y-58862128D01*
X117874091Y-58802517D01*
X117823796Y-58667669D01*
X117823794Y-58667666D01*
X117820696Y-58659360D01*
X117822426Y-58658714D01*
X117809902Y-58601163D01*
X117821691Y-58561011D01*
X117820696Y-58560640D01*
X117823794Y-58552333D01*
X117823796Y-58552331D01*
X117874091Y-58417483D01*
X117880500Y-58357873D01*
X117880499Y-57362128D01*
X117874091Y-57302517D01*
X117874090Y-57302515D01*
X117874090Y-57302512D01*
X117872308Y-57294969D01*
X117875106Y-57294307D01*
X117871090Y-57238139D01*
X117904577Y-57176816D01*
X117965901Y-57143333D01*
X117992256Y-57140500D01*
X132767744Y-57140500D01*
X132834783Y-57160185D01*
X132880538Y-57212989D01*
X132890482Y-57282147D01*
X132887238Y-57294857D01*
X132887693Y-57294965D01*
X132885908Y-57302516D01*
X132881094Y-57347301D01*
X132879501Y-57362123D01*
X132879500Y-57362135D01*
X132879500Y-58357870D01*
X132879501Y-58357876D01*
X132885908Y-58417483D01*
X132939303Y-58560641D01*
X132937575Y-58561285D01*
X132950095Y-58618853D01*
X132938310Y-58658988D01*
X132939303Y-58659359D01*
X132885908Y-58802517D01*
X132882136Y-58837605D01*
X132879501Y-58862123D01*
X132879500Y-58862135D01*
X132879500Y-59857870D01*
X132879501Y-59857876D01*
X132885908Y-59917483D01*
X132939303Y-60060641D01*
X132937575Y-60061285D01*
X132950095Y-60118853D01*
X132938310Y-60158988D01*
X132939303Y-60159359D01*
X132885908Y-60302517D01*
X132880973Y-60348425D01*
X132879501Y-60362123D01*
X132879500Y-60362135D01*
X132879500Y-61357870D01*
X132879501Y-61357876D01*
X132885908Y-61417483D01*
X132939303Y-61560641D01*
X132937575Y-61561285D01*
X132950095Y-61618853D01*
X132938310Y-61658988D01*
X132939303Y-61659359D01*
X132885908Y-61802517D01*
X132879501Y-61862116D01*
X132879501Y-61862123D01*
X132879500Y-61862135D01*
X132879500Y-62857870D01*
X132879501Y-62857876D01*
X132885908Y-62917483D01*
X132939303Y-63060641D01*
X132937575Y-63061285D01*
X132950095Y-63118853D01*
X132938310Y-63158988D01*
X132939303Y-63159359D01*
X132885908Y-63302517D01*
X132879501Y-63362116D01*
X132879501Y-63362123D01*
X132879500Y-63362135D01*
X132879500Y-64357870D01*
X132879501Y-64357876D01*
X132885908Y-64417483D01*
X132939303Y-64560641D01*
X132937575Y-64561285D01*
X132950095Y-64618853D01*
X132938310Y-64658988D01*
X132939303Y-64659359D01*
X132885908Y-64802517D01*
X132879501Y-64862116D01*
X132879501Y-64862123D01*
X132879500Y-64862135D01*
X132879500Y-65857870D01*
X132879501Y-65857876D01*
X132885908Y-65917483D01*
X132939303Y-66060641D01*
X132937575Y-66061285D01*
X132950095Y-66118853D01*
X132938310Y-66158988D01*
X132939303Y-66159359D01*
X132885908Y-66302517D01*
X132882272Y-66336344D01*
X132879501Y-66362123D01*
X132879500Y-66362135D01*
X132879500Y-67357870D01*
X132879501Y-67357876D01*
X132885908Y-67417483D01*
X132939303Y-67560641D01*
X132937575Y-67561285D01*
X132950095Y-67618853D01*
X132938310Y-67658988D01*
X132939303Y-67659359D01*
X132885908Y-67802517D01*
X132882040Y-67838498D01*
X132879501Y-67862123D01*
X132879500Y-67862135D01*
X132879500Y-68857870D01*
X132879501Y-68857876D01*
X132885908Y-68917483D01*
X132939303Y-69060641D01*
X132937575Y-69061285D01*
X132950095Y-69118853D01*
X132938310Y-69158988D01*
X132939303Y-69159359D01*
X132885908Y-69302517D01*
X132879501Y-69362116D01*
X132879500Y-69362135D01*
X132879500Y-70357870D01*
X132879501Y-70357876D01*
X132885908Y-70417483D01*
X132936202Y-70552328D01*
X132936206Y-70552335D01*
X133022452Y-70667544D01*
X133022455Y-70667547D01*
X133137664Y-70753793D01*
X133137671Y-70753797D01*
X133272517Y-70804091D01*
X133272516Y-70804091D01*
X133279444Y-70804835D01*
X133332127Y-70810500D01*
X134144547Y-70810499D01*
X134211586Y-70830183D01*
X134232228Y-70846818D01*
X134660430Y-71275020D01*
X134687310Y-71315249D01*
X134695685Y-71335469D01*
X134695687Y-71335473D01*
X134715016Y-71364399D01*
X134715017Y-71364401D01*
X134764141Y-71437920D01*
X134764144Y-71437924D01*
X134855586Y-71529366D01*
X134855608Y-71529386D01*
X135038181Y-71711959D01*
X135071666Y-71773282D01*
X135074500Y-71799640D01*
X135074500Y-73454396D01*
X135098344Y-73574276D01*
X135098537Y-73575243D01*
X135098537Y-73575244D01*
X135145685Y-73689073D01*
X135145687Y-73689077D01*
X135165016Y-73718003D01*
X135165017Y-73718005D01*
X135214141Y-73791524D01*
X135214144Y-73791528D01*
X135305586Y-73882970D01*
X135305608Y-73882990D01*
X135488181Y-74065563D01*
X135521666Y-74126886D01*
X135524500Y-74153244D01*
X135524500Y-75808006D01*
X135548535Y-75928840D01*
X135548539Y-75928854D01*
X135559703Y-75955806D01*
X135595685Y-76042677D01*
X135595690Y-76042686D01*
X135626370Y-76088600D01*
X135626371Y-76088601D01*
X135664141Y-76145129D01*
X135755586Y-76236574D01*
X135755608Y-76236594D01*
X135938181Y-76419167D01*
X135971666Y-76480490D01*
X135974500Y-76506848D01*
X135974500Y-78161608D01*
X135975773Y-78168007D01*
X135998403Y-78281780D01*
X135998538Y-78282455D01*
X136045685Y-78396280D01*
X136045687Y-78396283D01*
X136045688Y-78396286D01*
X136053452Y-78407906D01*
X136079914Y-78447507D01*
X136079915Y-78447509D01*
X136114141Y-78498733D01*
X136205586Y-78590178D01*
X136205608Y-78590198D01*
X136659762Y-79044352D01*
X136693247Y-79105675D01*
X136691856Y-79164126D01*
X136664938Y-79264586D01*
X136664936Y-79264596D01*
X136644341Y-79499999D01*
X136644341Y-79500000D01*
X136664936Y-79735403D01*
X136664938Y-79735413D01*
X136726094Y-79963655D01*
X136726096Y-79963659D01*
X136726097Y-79963663D01*
X136788626Y-80097757D01*
X136825965Y-80177830D01*
X136825967Y-80177834D01*
X136933984Y-80332097D01*
X136961505Y-80371401D01*
X137128599Y-80538495D01*
X137190282Y-80581686D01*
X137322165Y-80674032D01*
X137322167Y-80674033D01*
X137322170Y-80674035D01*
X137536337Y-80773903D01*
X137764592Y-80835063D01*
X137935319Y-80850000D01*
X137999999Y-80855659D01*
X138000000Y-80855659D01*
X138000001Y-80855659D01*
X138064681Y-80850000D01*
X138235408Y-80835063D01*
X138463663Y-80773903D01*
X138677830Y-80674035D01*
X138871401Y-80538495D01*
X139038495Y-80371401D01*
X139174035Y-80177830D01*
X139273903Y-79963663D01*
X139335063Y-79735408D01*
X139355659Y-79500000D01*
X139335063Y-79264592D01*
X139273903Y-79036337D01*
X139174035Y-78822171D01*
X139172575Y-78820085D01*
X139038494Y-78628597D01*
X138871402Y-78461506D01*
X138871396Y-78461501D01*
X138685842Y-78331575D01*
X138642217Y-78276998D01*
X138635023Y-78207500D01*
X138666546Y-78145145D01*
X138685842Y-78128425D01*
X138744777Y-78087158D01*
X138871401Y-77998495D01*
X139038495Y-77831401D01*
X139174035Y-77637830D01*
X139273903Y-77423663D01*
X139335063Y-77195408D01*
X139355659Y-76960000D01*
X139335063Y-76724592D01*
X139273903Y-76496337D01*
X139174035Y-76282171D01*
X139139085Y-76232256D01*
X139038494Y-76088597D01*
X138871402Y-75921506D01*
X138871396Y-75921501D01*
X138685842Y-75791575D01*
X138642217Y-75736998D01*
X138635023Y-75667500D01*
X138666546Y-75605145D01*
X138685842Y-75588425D01*
X138751498Y-75542452D01*
X138871401Y-75458495D01*
X139038495Y-75291401D01*
X139174035Y-75097830D01*
X139273903Y-74883663D01*
X139335063Y-74655408D01*
X139355659Y-74420000D01*
X139335063Y-74184592D01*
X139273903Y-73956337D01*
X139174035Y-73742171D01*
X139157113Y-73718003D01*
X139038494Y-73548597D01*
X138871402Y-73381506D01*
X138871396Y-73381501D01*
X138685842Y-73251575D01*
X138642217Y-73196998D01*
X138635023Y-73127500D01*
X138666546Y-73065145D01*
X138685842Y-73048425D01*
X138708026Y-73032891D01*
X138871401Y-72918495D01*
X139038495Y-72751401D01*
X139174035Y-72557830D01*
X139273903Y-72343663D01*
X139335063Y-72115408D01*
X139355659Y-71880000D01*
X139335063Y-71644592D01*
X139273903Y-71416337D01*
X139174035Y-71202171D01*
X139154734Y-71174605D01*
X139038494Y-71008597D01*
X138871402Y-70841506D01*
X138871396Y-70841501D01*
X138685842Y-70711575D01*
X138642217Y-70656998D01*
X138635023Y-70587500D01*
X138666546Y-70525145D01*
X138685842Y-70508425D01*
X138815720Y-70417483D01*
X138871401Y-70378495D01*
X139038495Y-70211401D01*
X139174035Y-70017830D01*
X139273903Y-69803663D01*
X139335063Y-69575408D01*
X139355659Y-69340000D01*
X139335063Y-69104592D01*
X139273903Y-68876337D01*
X139174035Y-68662171D01*
X139038495Y-68468599D01*
X139038494Y-68468597D01*
X138871402Y-68301506D01*
X138871396Y-68301501D01*
X138685842Y-68171575D01*
X138642217Y-68116998D01*
X138635023Y-68047500D01*
X138666546Y-67985145D01*
X138685842Y-67968425D01*
X138708026Y-67952891D01*
X138871401Y-67838495D01*
X139038495Y-67671401D01*
X139174035Y-67477830D01*
X139273903Y-67263663D01*
X139335063Y-67035408D01*
X139355659Y-66800000D01*
X139335063Y-66564592D01*
X139284033Y-66374142D01*
X139273905Y-66336344D01*
X139273904Y-66336343D01*
X139273903Y-66336337D01*
X139174035Y-66122171D01*
X139163597Y-66107263D01*
X139038494Y-65928597D01*
X138871402Y-65761506D01*
X138871396Y-65761501D01*
X138685842Y-65631575D01*
X138642217Y-65576998D01*
X138635023Y-65507500D01*
X138666546Y-65445145D01*
X138685842Y-65428425D01*
X138710133Y-65411416D01*
X138871401Y-65298495D01*
X139038495Y-65131401D01*
X139174035Y-64937830D01*
X139273903Y-64723663D01*
X139335063Y-64495408D01*
X139355659Y-64260000D01*
X139335063Y-64024592D01*
X139273903Y-63796337D01*
X139174035Y-63582171D01*
X139141958Y-63536359D01*
X139038494Y-63388597D01*
X138871402Y-63221506D01*
X138871396Y-63221501D01*
X138685842Y-63091575D01*
X138642217Y-63036998D01*
X138635023Y-62967500D01*
X138666546Y-62905145D01*
X138685842Y-62888425D01*
X138797844Y-62810000D01*
X138871401Y-62758495D01*
X139038495Y-62591401D01*
X139174035Y-62397830D01*
X139273903Y-62183663D01*
X139335063Y-61955408D01*
X139355659Y-61720000D01*
X139335063Y-61484592D01*
X139273903Y-61256337D01*
X139174035Y-61042171D01*
X139038495Y-60848599D01*
X139038494Y-60848597D01*
X138871402Y-60681506D01*
X138871396Y-60681501D01*
X138685842Y-60551575D01*
X138642217Y-60496998D01*
X138635023Y-60427500D01*
X138666546Y-60365145D01*
X138685842Y-60348425D01*
X138751405Y-60302517D01*
X138871401Y-60218495D01*
X139038495Y-60051401D01*
X139174035Y-59857830D01*
X139273903Y-59643663D01*
X139335063Y-59415408D01*
X139355659Y-59180000D01*
X139335063Y-58944592D01*
X139273903Y-58716337D01*
X139174035Y-58502171D01*
X139102157Y-58399517D01*
X139038494Y-58308597D01*
X138871402Y-58141506D01*
X138871395Y-58141501D01*
X138677834Y-58005967D01*
X138677830Y-58005965D01*
X138463663Y-57906097D01*
X138463659Y-57906096D01*
X138463655Y-57906094D01*
X138235413Y-57844938D01*
X138235403Y-57844936D01*
X138000001Y-57824341D01*
X137999999Y-57824341D01*
X137764596Y-57844936D01*
X137764586Y-57844938D01*
X137664126Y-57871856D01*
X137594276Y-57870193D01*
X137544352Y-57839762D01*
X137170198Y-57465608D01*
X137170178Y-57465586D01*
X137078736Y-57374144D01*
X137068945Y-57367602D01*
X137024141Y-57313989D01*
X137015434Y-57244664D01*
X137045589Y-57181637D01*
X137105033Y-57144918D01*
X137137837Y-57140500D01*
X137934108Y-57140500D01*
X137995933Y-57140500D01*
X138004042Y-57140765D01*
X138026774Y-57142254D01*
X138258114Y-57157417D01*
X138274172Y-57159532D01*
X138519888Y-57208408D01*
X138535554Y-57212606D01*
X138670863Y-57258537D01*
X138772788Y-57293136D01*
X138787765Y-57299339D01*
X138915079Y-57362123D01*
X139012460Y-57410146D01*
X139026508Y-57418256D01*
X139234815Y-57557443D01*
X139247679Y-57567314D01*
X139436033Y-57732497D01*
X139447502Y-57743966D01*
X139612685Y-57932320D01*
X139622558Y-57945186D01*
X139640778Y-57972455D01*
X139761743Y-58153492D01*
X139769853Y-58167539D01*
X139880657Y-58392227D01*
X139886864Y-58407213D01*
X139967393Y-58644445D01*
X139971591Y-58660111D01*
X140020465Y-58905813D01*
X140022583Y-58921895D01*
X140039235Y-59175956D01*
X140039500Y-59184066D01*
X140039500Y-79495933D01*
X140039235Y-79504043D01*
X140022583Y-79758104D01*
X140020465Y-79774186D01*
X139971591Y-80019888D01*
X139967393Y-80035554D01*
X139886864Y-80272786D01*
X139880657Y-80287772D01*
X139769853Y-80512460D01*
X139761743Y-80526507D01*
X139622559Y-80734811D01*
X139612685Y-80747679D01*
X139447502Y-80936033D01*
X139436033Y-80947502D01*
X139247679Y-81112685D01*
X139234811Y-81122559D01*
X139026507Y-81261743D01*
X139012460Y-81269853D01*
X138787772Y-81380657D01*
X138772786Y-81386864D01*
X138535554Y-81467393D01*
X138519888Y-81471591D01*
X138274186Y-81520465D01*
X138258104Y-81522583D01*
X138004043Y-81539235D01*
X137995933Y-81539500D01*
X112604067Y-81539500D01*
X112595957Y-81539235D01*
X112341895Y-81522583D01*
X112325814Y-81520465D01*
X112290770Y-81513494D01*
X112080111Y-81471591D01*
X112064445Y-81467393D01*
X111827213Y-81386864D01*
X111812227Y-81380657D01*
X111587539Y-81269853D01*
X111573492Y-81261743D01*
X111365188Y-81122559D01*
X111352320Y-81112685D01*
X111347974Y-81108874D01*
X111163966Y-80947502D01*
X111152497Y-80936033D01*
X111071433Y-80843598D01*
X110987311Y-80747675D01*
X110977440Y-80734811D01*
X110975893Y-80732496D01*
X110838256Y-80526507D01*
X110830146Y-80512460D01*
X110760584Y-80371402D01*
X110719339Y-80287765D01*
X110713135Y-80272786D01*
X110632606Y-80035554D01*
X110628408Y-80019888D01*
X110617224Y-79963663D01*
X110579532Y-79774172D01*
X110577417Y-79758114D01*
X110560765Y-79504042D01*
X110560500Y-79495933D01*
X110560500Y-59184066D01*
X110560765Y-59175957D01*
X110564819Y-59114108D01*
X110577417Y-58921883D01*
X110579531Y-58905829D01*
X110628409Y-58660107D01*
X110632606Y-58644445D01*
X110660928Y-58561011D01*
X110713138Y-58407205D01*
X110719336Y-58392239D01*
X110830149Y-58167533D01*
X110838252Y-58153498D01*
X110977448Y-57945176D01*
X110987305Y-57932331D01*
X111152502Y-57743960D01*
X111163960Y-57732502D01*
X111352331Y-57567305D01*
X111365176Y-57557448D01*
X111573498Y-57418252D01*
X111587533Y-57410149D01*
X111812239Y-57299336D01*
X111827205Y-57293138D01*
X112031259Y-57223871D01*
X112064445Y-57212606D01*
X112080107Y-57208409D01*
X112325829Y-57159531D01*
X112341883Y-57157417D01*
X112574848Y-57142148D01*
X112595958Y-57140765D01*
X112604067Y-57140500D01*
X112665892Y-57140500D01*
X113098770Y-57140500D01*
X113165809Y-57160185D01*
G37*
%TD.AperFunction*%
%TD*%
M02*
