M48
; DRILL file {KiCad 8.0.4} date 2024-07-28T04:47:55-0400
; FORMAT={-:-/ absolute / inch / decimal}
; #@! TF.CreationDate,2024-07-28T04:47:55-04:00
; #@! TF.GenerationSoftware,Kicad,Pcbnew,8.0.4
; #@! TF.FileFunction,Plated,1,2,PTH
FMAT,2
INCH
; #@! TA.AperFunction,Plated,PTH,ComponentDrill
T1C0.0010
; #@! TA.AperFunction,Plated,PTH,ComponentDrill
T2C0.0118
; #@! TA.AperFunction,Plated,PTH,ComponentDrill
T3C0.0160
; #@! TA.AperFunction,Plated,PTH,ComponentDrill
T4C0.0394
%
G90
G05
T1
X4.7624Y-3.0005
X4.7624Y-3.1338
X5.1029Y-3.0005
X5.1029Y-3.1338
T2
X4.9307Y-2.5004
X4.9307Y-2.5437
X4.9524Y-2.4787
X4.9524Y-2.522
X4.9524Y-2.5654
X4.974Y-2.5004
X4.974Y-2.5437
X4.9957Y-2.4787
X4.9957Y-2.522
X4.9957Y-2.5654
X5.0173Y-2.5004
X5.0173Y-2.5437
T3
X4.8155Y-2.9619
X4.8155Y-3.0151
X4.849Y-2.9619
X4.849Y-3.0151
X4.8825Y-2.9619
X4.8825Y-3.0151
X4.9159Y-2.9619
X4.9159Y-3.0151
X4.9494Y-2.9619
X4.9494Y-3.0151
X4.9829Y-2.9619
X4.9829Y-3.0151
X5.0163Y-2.9619
X5.0163Y-3.0151
X5.0498Y-2.9619
X5.0498Y-3.0151
T4
X4.4331Y-2.3299
X4.4331Y-2.4299
X4.4331Y-2.5299
X4.4331Y-2.6299
X4.4331Y-2.7299
X4.4331Y-2.8299
X4.4331Y-2.9299
X4.4331Y-3.0299
X4.4331Y-3.1299
X5.4331Y-2.3299
X5.4331Y-2.4299
X5.4331Y-2.5299
X5.4331Y-2.6299
X5.4331Y-2.7299
X5.4331Y-2.8299
X5.4331Y-2.9299
X5.4331Y-3.0299
X5.4331Y-3.1299
M30
