%TF.GenerationSoftware,KiCad,Pcbnew,8.0.4*%
%TF.CreationDate,2024-07-23T01:00:19-04:00*%
%TF.ProjectId,esp32-wroom-table-lights,65737033-322d-4777-926f-6f6d2d746162,rev?*%
%TF.SameCoordinates,Original*%
%TF.FileFunction,Copper,L2,Bot*%
%TF.FilePolarity,Positive*%
%FSLAX46Y46*%
G04 Gerber Fmt 4.6, Leading zero omitted, Abs format (unit mm)*
G04 Created by KiCad (PCBNEW 8.0.4) date 2024-07-23 01:00:19*
%MOMM*%
%LPD*%
G01*
G04 APERTURE LIST*
G04 Aperture macros list*
%AMHorizOval*
0 Thick line with rounded ends*
0 $1 width*
0 $2 $3 position (X,Y) of the first rounded end (center of the circle)*
0 $4 $5 position (X,Y) of the second rounded end (center of the circle)*
0 Add line between two ends*
20,1,$1,$2,$3,$4,$5,0*
0 Add two circle primitives to create the rounded ends*
1,1,$1,$2,$3*
1,1,$1,$4,$5*%
%AMRotRect*
0 Rectangle, with rotation*
0 The origin of the aperture is its center*
0 $1 length*
0 $2 width*
0 $3 Rotation angle, in degrees counterclockwise*
0 Add horizontal line*
21,1,$1,$2,0,0,$3*%
%AMOutline5P*
0 Free polygon, 5 corners , with rotation*
0 The origin of the aperture is its center*
0 number of corners: always 5*
0 $1 to $10 corner X, Y*
0 $11 Rotation angle, in degrees counterclockwise*
0 create outline with 5 corners*
4,1,5,$1,$2,$3,$4,$5,$6,$7,$8,$9,$10,$1,$2,$11*%
%AMOutline6P*
0 Free polygon, 6 corners , with rotation*
0 The origin of the aperture is its center*
0 number of corners: always 6*
0 $1 to $12 corner X, Y*
0 $13 Rotation angle, in degrees counterclockwise*
0 create outline with 6 corners*
4,1,6,$1,$2,$3,$4,$5,$6,$7,$8,$9,$10,$11,$12,$1,$2,$13*%
%AMOutline7P*
0 Free polygon, 7 corners , with rotation*
0 The origin of the aperture is its center*
0 number of corners: always 7*
0 $1 to $14 corner X, Y*
0 $15 Rotation angle, in degrees counterclockwise*
0 create outline with 7 corners*
4,1,7,$1,$2,$3,$4,$5,$6,$7,$8,$9,$10,$11,$12,$13,$14,$1,$2,$15*%
%AMOutline8P*
0 Free polygon, 8 corners , with rotation*
0 The origin of the aperture is its center*
0 number of corners: always 8*
0 $1 to $16 corner X, Y*
0 $17 Rotation angle, in degrees counterclockwise*
0 create outline with 8 corners*
4,1,8,$1,$2,$3,$4,$5,$6,$7,$8,$9,$10,$11,$12,$13,$14,$15,$16,$1,$2,$17*%
G04 Aperture macros list end*
%TA.AperFunction,ComponentPad*%
%ADD10O,1.700000X1.700000*%
%TD*%
%TA.AperFunction,ComponentPad*%
%ADD11R,1.700000X1.700000*%
%TD*%
%TA.AperFunction,ComponentPad*%
%ADD12C,1.524000*%
%TD*%
%TA.AperFunction,ComponentPad*%
%ADD13RotRect,1.524000X1.524000X225.000000*%
%TD*%
%TA.AperFunction,ComponentPad*%
%ADD14HorizOval,1.700000X0.000000X0.000000X0.000000X0.000000X0*%
%TD*%
%TA.AperFunction,ComponentPad*%
%ADD15RotRect,1.700000X1.700000X135.000000*%
%TD*%
%TA.AperFunction,ComponentPad*%
%ADD16Outline5P,-0.850000X0.425000X-0.425000X0.850000X0.850000X0.850000X0.850000X-0.850000X-0.850000X-0.850000X135.000000*%
%TD*%
%TA.AperFunction,ViaPad*%
%ADD17C,0.600000*%
%TD*%
%TA.AperFunction,Conductor*%
%ADD18C,0.500000*%
%TD*%
%TA.AperFunction,Conductor*%
%ADD19C,0.250000*%
%TD*%
G04 APERTURE END LIST*
D10*
%TO.P,D4,2,KB*%
%TO.N,Net-(D4-AB)*%
X105475000Y-76127500D03*
D11*
%TO.P,D4,1,AB*%
X105475000Y-78667500D03*
%TD*%
D12*
%TO.P,J2,Vcc,VCC*%
%TO.N,+3V3*%
X82796051Y-119046051D03*
%TO.P,J2,SDA,SDA*%
%TO.N,/SDA*%
X81000000Y-117250000D03*
%TO.P,J2,SCL,SCL*%
%TO.N,/SCK*%
X79203949Y-115453949D03*
D13*
%TO.P,J2,GND,GND*%
%TO.N,GND*%
X84592102Y-120842102D03*
%TD*%
D14*
%TO.P,U1,16,5V*%
%TO.N,+5V*%
X96085539Y-115511846D03*
D15*
%TO.P,U1,15,GND*%
%TO.N,GND*%
X97881590Y-113715795D03*
D14*
%TO.P,U1,14,3V3*%
%TO.N,Net-(D2-A)*%
X99677641Y-111919744D03*
%TO.P,U1,13,GPIO4_D2*%
%TO.N,unconnected-(U1-GPIO4_D2-Pad13)*%
X101473693Y-110123693D03*
%TO.P,U1,12,GPIO3_D1*%
%TO.N,GPIO3*%
X103269744Y-108327642D03*
%TO.P,U1,11,GPIO2_D0*%
%TO.N,GPIO2*%
X105065795Y-106531590D03*
%TO.P,U1,10,GPIO1_ADC1*%
%TO.N,unconnected-(U1-GPIO1_ADC1-Pad10)*%
X106861846Y-104735539D03*
%TO.P,U1,9,GPIO0_ADC0*%
%TO.N,ADC0*%
X108657897Y-102939488D03*
%TO.P,U1,8,GPIO21_Tx*%
%TO.N,unconnected-(U1-GPIO21_Tx-Pad8)*%
X119434205Y-113715795D03*
%TO.P,U1,7,GPIO20_Rx*%
%TO.N,unconnected-(U1-GPIO20_Rx-Pad7)*%
X117638154Y-115511846D03*
%TO.P,U1,6,GPIO_MOSI*%
%TO.N,unconnected-(U1-GPIO_MOSI-Pad6)*%
X115842102Y-117307898D03*
%TO.P,U1,5,GPIO9_MISO*%
%TO.N,unconnected-(U1-GPIO9_MISO-Pad5)*%
X114046051Y-119103949D03*
%TO.P,U1,4,GPIO8_SCK*%
%TO.N,/SCK*%
X112250000Y-120900000D03*
%TO.P,U1,3,GPIO7_SCL*%
%TO.N,unconnected-(U1-GPIO7_SCL-Pad3)*%
X110453949Y-122696051D03*
%TO.P,U1,2,GPIO6_SDA*%
%TO.N,/SDA*%
X108657897Y-124492103D03*
D16*
%TO.P,U1,1,GPIO5*%
%TO.N,GPIO5*%
X106861846Y-126288154D03*
%TD*%
D15*
%TO.P,J1,1,Pin_1*%
%TO.N,GND*%
X78248439Y-88916206D03*
D14*
%TO.P,J1,2,Pin_2*%
%TO.N,/Power Supply/VDC*%
X80044491Y-87120155D03*
%TD*%
D17*
%TO.N,Net-(D4-AB)*%
X105475000Y-85900000D03*
%TO.N,+3V3*%
X113000000Y-102550000D03*
%TD*%
D18*
%TO.N,+3V3*%
X89400000Y-116650000D02*
X85192102Y-116650000D01*
X91050000Y-118300000D02*
X89400000Y-116650000D01*
X98450000Y-118300000D02*
X91050000Y-118300000D01*
X113000000Y-102550000D02*
X113000000Y-103750000D01*
X113000000Y-103750000D02*
X98450000Y-118300000D01*
X85192102Y-116650000D02*
X82796051Y-119046051D01*
D19*
%TO.N,Net-(D4-AB)*%
X105475000Y-85900000D02*
X105475000Y-78667500D01*
%TD*%
%TA.AperFunction,Conductor*%
%TO.N,GND*%
G36*
X101411980Y-56320317D02*
G01*
X101415642Y-56320427D01*
X102724616Y-56379779D01*
X102728237Y-56379998D01*
X104034843Y-56478860D01*
X104038466Y-56479190D01*
X105341453Y-56617465D01*
X105345145Y-56617914D01*
X106643291Y-56795472D01*
X106646924Y-56796024D01*
X107883570Y-57003395D01*
X107939185Y-57012721D01*
X107942869Y-57013397D01*
X109227883Y-57269002D01*
X109231545Y-57269788D01*
X110508272Y-57564092D01*
X110511909Y-57564988D01*
X110739164Y-57624656D01*
X111779246Y-57897740D01*
X111782754Y-57898719D01*
X113039470Y-58269599D01*
X113042961Y-58270687D01*
X114287900Y-58679354D01*
X114291401Y-58680562D01*
X115523425Y-59126641D01*
X115526817Y-59127928D01*
X116744855Y-59611034D01*
X116748222Y-59612429D01*
X117951052Y-60132078D01*
X117954430Y-60133598D01*
X119141014Y-60689339D01*
X119144318Y-60690947D01*
X120313591Y-61282279D01*
X120316816Y-61283971D01*
X121467716Y-61910360D01*
X121470899Y-61912155D01*
X122602357Y-62573021D01*
X122605509Y-62574927D01*
X123332183Y-63029342D01*
X123716419Y-63269619D01*
X123719565Y-63271653D01*
X124808967Y-63999567D01*
X124812049Y-64001695D01*
X125878984Y-64762192D01*
X125882001Y-64764411D01*
X126925462Y-65556772D01*
X126928404Y-65559077D01*
X127947503Y-66382629D01*
X127950364Y-66385014D01*
X128944080Y-67238934D01*
X128946884Y-67241418D01*
X129374205Y-67631668D01*
X129914401Y-68125001D01*
X129917059Y-68127503D01*
X130857514Y-69039970D01*
X130860029Y-69042485D01*
X131772494Y-69982938D01*
X131775014Y-69985615D01*
X132658581Y-70953115D01*
X132661065Y-70955919D01*
X133514985Y-71949635D01*
X133517383Y-71952512D01*
X134340917Y-72971588D01*
X134343227Y-72974537D01*
X135135588Y-74017998D01*
X135137807Y-74021015D01*
X135898304Y-75087950D01*
X135900432Y-75091032D01*
X136628346Y-76180434D01*
X136630380Y-76183580D01*
X137325056Y-77294463D01*
X137326990Y-77297661D01*
X137882231Y-78248282D01*
X137987821Y-78429060D01*
X137989651Y-78432305D01*
X138606340Y-79565383D01*
X138616004Y-79583138D01*
X138617733Y-79586433D01*
X139074587Y-80489796D01*
X139209036Y-80755649D01*
X139210676Y-80759017D01*
X139766392Y-81945551D01*
X139767929Y-81948966D01*
X140188469Y-82922389D01*
X140287550Y-83151730D01*
X140288978Y-83155177D01*
X140688269Y-84161895D01*
X140772050Y-84373127D01*
X140773378Y-84376629D01*
X141219430Y-85608578D01*
X141220652Y-85612119D01*
X141629299Y-86856996D01*
X141630412Y-86860571D01*
X141964187Y-87991556D01*
X142001266Y-88117195D01*
X142002272Y-88120803D01*
X142335011Y-89388090D01*
X142335907Y-89391727D01*
X142630211Y-90668454D01*
X142630997Y-90672116D01*
X142886602Y-91957130D01*
X142887278Y-91960814D01*
X143103969Y-93253040D01*
X143104532Y-93256743D01*
X143282083Y-94554841D01*
X143282535Y-94558559D01*
X143420804Y-95861479D01*
X143421143Y-95865209D01*
X143519997Y-97171703D01*
X143520223Y-97175442D01*
X143579570Y-98484316D01*
X143579683Y-98488060D01*
X143599471Y-99798127D01*
X143599471Y-99801873D01*
X143579683Y-101111939D01*
X143579570Y-101115683D01*
X143520223Y-102424557D01*
X143519997Y-102428296D01*
X143421143Y-103734790D01*
X143420804Y-103738520D01*
X143282535Y-105041440D01*
X143282083Y-105045158D01*
X143104532Y-106343256D01*
X143103969Y-106346959D01*
X142887278Y-107639185D01*
X142886602Y-107642869D01*
X142630997Y-108927883D01*
X142630211Y-108931545D01*
X142335907Y-110208272D01*
X142335011Y-110211909D01*
X142002272Y-111479196D01*
X142001266Y-111482804D01*
X141630413Y-112739427D01*
X141629299Y-112743003D01*
X141220652Y-113987880D01*
X141219430Y-113991421D01*
X140773378Y-115223370D01*
X140772050Y-115226872D01*
X140288984Y-116444808D01*
X140287550Y-116448269D01*
X139767929Y-117651033D01*
X139766392Y-117654448D01*
X139210676Y-118840982D01*
X139209036Y-118844350D01*
X138617744Y-120013545D01*
X138616004Y-120016861D01*
X137989661Y-121167676D01*
X137987821Y-121170939D01*
X137326994Y-122302331D01*
X137325056Y-122305536D01*
X136630380Y-123416419D01*
X136628346Y-123419565D01*
X135900432Y-124508967D01*
X135898304Y-124512049D01*
X135137807Y-125578984D01*
X135135588Y-125582001D01*
X134343227Y-126625462D01*
X134340917Y-126628411D01*
X133517383Y-127647487D01*
X133514985Y-127650364D01*
X132661065Y-128644080D01*
X132658581Y-128646884D01*
X131775014Y-129614384D01*
X131772463Y-129617093D01*
X130860062Y-130557480D01*
X130857480Y-130560062D01*
X129917093Y-131472463D01*
X129914384Y-131475014D01*
X128946884Y-132358581D01*
X128944080Y-132361065D01*
X127950364Y-133214985D01*
X127947487Y-133217383D01*
X126928411Y-134040917D01*
X126925462Y-134043227D01*
X125882001Y-134835588D01*
X125878984Y-134837807D01*
X124812049Y-135598304D01*
X124808967Y-135600432D01*
X123719565Y-136328346D01*
X123716419Y-136330380D01*
X122605536Y-137025056D01*
X122602331Y-137026994D01*
X121470939Y-137687821D01*
X121467676Y-137689661D01*
X120316861Y-138316004D01*
X120313545Y-138317744D01*
X119144350Y-138909036D01*
X119140982Y-138910676D01*
X117954448Y-139466392D01*
X117951033Y-139467929D01*
X116748269Y-139987550D01*
X116744808Y-139988984D01*
X115526872Y-140472050D01*
X115523370Y-140473378D01*
X114291421Y-140919430D01*
X114287880Y-140920652D01*
X113043003Y-141329299D01*
X113039427Y-141330413D01*
X111782804Y-141701266D01*
X111779196Y-141702272D01*
X110511909Y-142035011D01*
X110508272Y-142035907D01*
X109231545Y-142330211D01*
X109227883Y-142330997D01*
X107942869Y-142586602D01*
X107939185Y-142587278D01*
X106646959Y-142803969D01*
X106643256Y-142804532D01*
X105345158Y-142982083D01*
X105341440Y-142982535D01*
X104038520Y-143120804D01*
X104034790Y-143121143D01*
X102728296Y-143219997D01*
X102724557Y-143220223D01*
X101415683Y-143279570D01*
X101411939Y-143279683D01*
X100101873Y-143299471D01*
X100098127Y-143299471D01*
X98788060Y-143279683D01*
X98784316Y-143279570D01*
X97475442Y-143220223D01*
X97471703Y-143219997D01*
X96165209Y-143121143D01*
X96161479Y-143120804D01*
X94858559Y-142982535D01*
X94854841Y-142982083D01*
X93556743Y-142804532D01*
X93553040Y-142803969D01*
X92260814Y-142587278D01*
X92257130Y-142586602D01*
X90972116Y-142330997D01*
X90968454Y-142330211D01*
X89691727Y-142035907D01*
X89688090Y-142035011D01*
X88420803Y-141702272D01*
X88417195Y-141701266D01*
X88402255Y-141696857D01*
X87160571Y-141330412D01*
X87156996Y-141329299D01*
X85912119Y-140920652D01*
X85908578Y-140919430D01*
X85292603Y-140696404D01*
X84676611Y-140473371D01*
X84673146Y-140472057D01*
X83455177Y-139988978D01*
X83451744Y-139987556D01*
X82248966Y-139467929D01*
X82245551Y-139466392D01*
X81059017Y-138910676D01*
X81055649Y-138909036D01*
X79886433Y-138317733D01*
X79883158Y-138316015D01*
X78732305Y-137689651D01*
X78729078Y-137687831D01*
X77597661Y-137026990D01*
X77594463Y-137025056D01*
X76483580Y-136330380D01*
X76480434Y-136328346D01*
X75391032Y-135600432D01*
X75387950Y-135598304D01*
X74321015Y-134837807D01*
X74317998Y-134835588D01*
X73274537Y-134043227D01*
X73271588Y-134040917D01*
X72252512Y-133217383D01*
X72249635Y-133214985D01*
X71255919Y-132361065D01*
X71253115Y-132358581D01*
X70285615Y-131475014D01*
X70282938Y-131472494D01*
X69342485Y-130560029D01*
X69339970Y-130557514D01*
X68427503Y-129617059D01*
X68425001Y-129614401D01*
X67938676Y-129081879D01*
X67541418Y-128646884D01*
X67538934Y-128644080D01*
X66719258Y-127690214D01*
X66685001Y-127650348D01*
X66682616Y-127647487D01*
X66664104Y-127624580D01*
X65859077Y-126628404D01*
X65856772Y-126625462D01*
X65843678Y-126608219D01*
X65064411Y-125582001D01*
X65062192Y-125578984D01*
X64895998Y-125345823D01*
X96658079Y-125345823D01*
X96658079Y-125588400D01*
X96689512Y-125827166D01*
X96689741Y-125828901D01*
X96694795Y-125847761D01*
X96752526Y-126063216D01*
X96845352Y-126287317D01*
X96845355Y-126287324D01*
X96966643Y-126497401D01*
X96966645Y-126497404D01*
X96966646Y-126497405D01*
X97114312Y-126689848D01*
X97114318Y-126689855D01*
X97285835Y-126861372D01*
X97285841Y-126861377D01*
X97478290Y-127009048D01*
X97688367Y-127130336D01*
X97912479Y-127223166D01*
X98146790Y-127285950D01*
X98327165Y-127309696D01*
X98387290Y-127317612D01*
X98387291Y-127317612D01*
X98629868Y-127317612D01*
X98677967Y-127311279D01*
X98870368Y-127285950D01*
X99104679Y-127223166D01*
X99328791Y-127130336D01*
X99538868Y-127009048D01*
X99731317Y-126861377D01*
X99902844Y-126689850D01*
X100050515Y-126497401D01*
X100171324Y-126288154D01*
X105154118Y-126288154D01*
X105174598Y-126430609D01*
X105174599Y-126430613D01*
X105234385Y-126561524D01*
X105234386Y-126561525D01*
X105234387Y-126561527D01*
X105272006Y-126608210D01*
X105272009Y-126608213D01*
X105272014Y-126608219D01*
X106236384Y-127572587D01*
X106236394Y-127572596D01*
X106303310Y-127624580D01*
X106365560Y-127650364D01*
X106436276Y-127679655D01*
X106520353Y-127690215D01*
X107203345Y-127690216D01*
X107287417Y-127679655D01*
X107420383Y-127624578D01*
X107487298Y-127572597D01*
X108451684Y-126608210D01*
X108489305Y-126561527D01*
X108549093Y-126430611D01*
X108569574Y-126288154D01*
X108549093Y-126145697D01*
X108491248Y-126019035D01*
X108481304Y-125949877D01*
X108510329Y-125886321D01*
X108569107Y-125848546D01*
X108614846Y-125843995D01*
X108657897Y-125847762D01*
X108893305Y-125827166D01*
X109121560Y-125766006D01*
X109335727Y-125666138D01*
X109529298Y-125530598D01*
X109696392Y-125363504D01*
X109831932Y-125169933D01*
X109931800Y-124955766D01*
X109992960Y-124727511D01*
X110013556Y-124492103D01*
X109992960Y-124256695D01*
X109965979Y-124155999D01*
X109967642Y-124086152D01*
X110006804Y-124028289D01*
X110071033Y-124000785D01*
X110117844Y-124004132D01*
X110218541Y-124031114D01*
X110406867Y-124047590D01*
X110453948Y-124051710D01*
X110453949Y-124051710D01*
X110453950Y-124051710D01*
X110493183Y-124048277D01*
X110689357Y-124031114D01*
X110917612Y-123969954D01*
X111131779Y-123870086D01*
X111325350Y-123734546D01*
X111492444Y-123567452D01*
X111627984Y-123373881D01*
X111727852Y-123159714D01*
X111789012Y-122931459D01*
X111809608Y-122696051D01*
X111789012Y-122460643D01*
X111762032Y-122359951D01*
X111763695Y-122290101D01*
X111802858Y-122232239D01*
X111867086Y-122204735D01*
X111913900Y-122208083D01*
X112014592Y-122235063D01*
X112202918Y-122251539D01*
X112249999Y-122255659D01*
X112250000Y-122255659D01*
X112250001Y-122255659D01*
X112289234Y-122252226D01*
X112485408Y-122235063D01*
X112713663Y-122173903D01*
X112927830Y-122074035D01*
X113121401Y-121938495D01*
X113288495Y-121771401D01*
X113424035Y-121577830D01*
X113523903Y-121363663D01*
X113585063Y-121135408D01*
X113605659Y-120900000D01*
X113585063Y-120664592D01*
X113558083Y-120563900D01*
X113559746Y-120494050D01*
X113598909Y-120436188D01*
X113663137Y-120408684D01*
X113709951Y-120412032D01*
X113810643Y-120439012D01*
X113998969Y-120455488D01*
X114046050Y-120459608D01*
X114046051Y-120459608D01*
X114046052Y-120459608D01*
X114085285Y-120456175D01*
X114281459Y-120439012D01*
X114509714Y-120377852D01*
X114723881Y-120277984D01*
X114917452Y-120142444D01*
X115084546Y-119975350D01*
X115220086Y-119781779D01*
X115319954Y-119567612D01*
X115381114Y-119339357D01*
X115401710Y-119103949D01*
X115381114Y-118868541D01*
X115354134Y-118767849D01*
X115355797Y-118697999D01*
X115394960Y-118640137D01*
X115459188Y-118612633D01*
X115506002Y-118615981D01*
X115606694Y-118642961D01*
X115795020Y-118659437D01*
X115842101Y-118663557D01*
X115842102Y-118663557D01*
X115842103Y-118663557D01*
X115881336Y-118660124D01*
X116077510Y-118642961D01*
X116305765Y-118581801D01*
X116519932Y-118481933D01*
X116713503Y-118346393D01*
X116880597Y-118179299D01*
X117016137Y-117985728D01*
X117116005Y-117771561D01*
X117177165Y-117543306D01*
X117197761Y-117307898D01*
X117177165Y-117072490D01*
X117150184Y-116971794D01*
X117151847Y-116901947D01*
X117191009Y-116844084D01*
X117255238Y-116816580D01*
X117302049Y-116819927D01*
X117402746Y-116846909D01*
X117591072Y-116863385D01*
X117638153Y-116867505D01*
X117638154Y-116867505D01*
X117638155Y-116867505D01*
X117677388Y-116864072D01*
X117873562Y-116846909D01*
X118101817Y-116785749D01*
X118315984Y-116685881D01*
X118509555Y-116550341D01*
X118676649Y-116383247D01*
X118812189Y-116189676D01*
X118912057Y-115975509D01*
X118973217Y-115747254D01*
X118993813Y-115511846D01*
X118973217Y-115276438D01*
X118946237Y-115175746D01*
X118947900Y-115105896D01*
X118987063Y-115048034D01*
X119051291Y-115020530D01*
X119098105Y-115023878D01*
X119198797Y-115050858D01*
X119387123Y-115067334D01*
X119434204Y-115071454D01*
X119434205Y-115071454D01*
X119434206Y-115071454D01*
X119473439Y-115068021D01*
X119669613Y-115050858D01*
X119897868Y-114989698D01*
X120112035Y-114889830D01*
X120305606Y-114754290D01*
X120472700Y-114587196D01*
X120608240Y-114393625D01*
X120708108Y-114179458D01*
X120769268Y-113951203D01*
X120789864Y-113715795D01*
X120769268Y-113480387D01*
X120708108Y-113252132D01*
X120608240Y-113037966D01*
X120552414Y-112958237D01*
X120472699Y-112844392D01*
X120305607Y-112677301D01*
X120305600Y-112677296D01*
X120112039Y-112541762D01*
X120112035Y-112541760D01*
X120112033Y-112541759D01*
X119897868Y-112441892D01*
X119897864Y-112441891D01*
X119897860Y-112441889D01*
X119669618Y-112380733D01*
X119669608Y-112380731D01*
X119434206Y-112360136D01*
X119434204Y-112360136D01*
X119198801Y-112380731D01*
X119198791Y-112380733D01*
X118970549Y-112441889D01*
X118970540Y-112441893D01*
X118756376Y-112541759D01*
X118756374Y-112541760D01*
X118562802Y-112677300D01*
X118395710Y-112844392D01*
X118260170Y-113037964D01*
X118260169Y-113037966D01*
X118160303Y-113252130D01*
X118160299Y-113252139D01*
X118099143Y-113480381D01*
X118099141Y-113480391D01*
X118078546Y-113715794D01*
X118078546Y-113715795D01*
X118099141Y-113951198D01*
X118099144Y-113951211D01*
X118126121Y-114051895D01*
X118124458Y-114121745D01*
X118085295Y-114179607D01*
X118021066Y-114207110D01*
X117974254Y-114203762D01*
X117873570Y-114176785D01*
X117873566Y-114176784D01*
X117873562Y-114176783D01*
X117873560Y-114176782D01*
X117873557Y-114176782D01*
X117638155Y-114156187D01*
X117638153Y-114156187D01*
X117402750Y-114176782D01*
X117402740Y-114176784D01*
X117174498Y-114237940D01*
X117174489Y-114237944D01*
X116960325Y-114337810D01*
X116960323Y-114337811D01*
X116766751Y-114473351D01*
X116599659Y-114640443D01*
X116464119Y-114834015D01*
X116464118Y-114834017D01*
X116391524Y-114989696D01*
X116364321Y-115048034D01*
X116364252Y-115048181D01*
X116364248Y-115048190D01*
X116303092Y-115276432D01*
X116303090Y-115276442D01*
X116282495Y-115511845D01*
X116282495Y-115511846D01*
X116303090Y-115747249D01*
X116303092Y-115747259D01*
X116330071Y-115847947D01*
X116328408Y-115917797D01*
X116289245Y-115975659D01*
X116225016Y-116003163D01*
X116178203Y-115999815D01*
X116077515Y-115972836D01*
X116077505Y-115972834D01*
X115842103Y-115952239D01*
X115842101Y-115952239D01*
X115606698Y-115972834D01*
X115606688Y-115972836D01*
X115378446Y-116033992D01*
X115378437Y-116033996D01*
X115164273Y-116133862D01*
X115164271Y-116133863D01*
X114970699Y-116269403D01*
X114803607Y-116436495D01*
X114668067Y-116630067D01*
X114668066Y-116630069D01*
X114568200Y-116844233D01*
X114568196Y-116844242D01*
X114507040Y-117072484D01*
X114507038Y-117072494D01*
X114486443Y-117307897D01*
X114486443Y-117307898D01*
X114507038Y-117543301D01*
X114507041Y-117543314D01*
X114534018Y-117643998D01*
X114532355Y-117713848D01*
X114493192Y-117771710D01*
X114428963Y-117799213D01*
X114382151Y-117795865D01*
X114281467Y-117768888D01*
X114281463Y-117768887D01*
X114281459Y-117768886D01*
X114281457Y-117768885D01*
X114281454Y-117768885D01*
X114046052Y-117748290D01*
X114046050Y-117748290D01*
X113810647Y-117768885D01*
X113810637Y-117768887D01*
X113582395Y-117830043D01*
X113582386Y-117830047D01*
X113368222Y-117929913D01*
X113368220Y-117929914D01*
X113174648Y-118065454D01*
X113007556Y-118232546D01*
X112872016Y-118426118D01*
X112872015Y-118426120D01*
X112799693Y-118581215D01*
X112772218Y-118640137D01*
X112772149Y-118640284D01*
X112772145Y-118640293D01*
X112710989Y-118868535D01*
X112710987Y-118868545D01*
X112690392Y-119103948D01*
X112690392Y-119103949D01*
X112710987Y-119339352D01*
X112710990Y-119339365D01*
X112737967Y-119440049D01*
X112736304Y-119509899D01*
X112697141Y-119567761D01*
X112632912Y-119595264D01*
X112586100Y-119591916D01*
X112485416Y-119564939D01*
X112485412Y-119564938D01*
X112485408Y-119564937D01*
X112485406Y-119564936D01*
X112485403Y-119564936D01*
X112250001Y-119544341D01*
X112249999Y-119544341D01*
X112014596Y-119564936D01*
X112014586Y-119564938D01*
X111786344Y-119626094D01*
X111786335Y-119626098D01*
X111572171Y-119725964D01*
X111572169Y-119725965D01*
X111378597Y-119861505D01*
X111211505Y-120028597D01*
X111075965Y-120222169D01*
X111075964Y-120222171D01*
X110988992Y-120408684D01*
X110976167Y-120436188D01*
X110976098Y-120436335D01*
X110976094Y-120436344D01*
X110914938Y-120664586D01*
X110914936Y-120664596D01*
X110894341Y-120899999D01*
X110894341Y-120900000D01*
X110914936Y-121135403D01*
X110914939Y-121135416D01*
X110941916Y-121236100D01*
X110940253Y-121305950D01*
X110901090Y-121363812D01*
X110836861Y-121391315D01*
X110790049Y-121387967D01*
X110689365Y-121360990D01*
X110689361Y-121360989D01*
X110689357Y-121360988D01*
X110689355Y-121360987D01*
X110689352Y-121360987D01*
X110453950Y-121340392D01*
X110453948Y-121340392D01*
X110218545Y-121360987D01*
X110218535Y-121360989D01*
X109990293Y-121422145D01*
X109990284Y-121422149D01*
X109776120Y-121522015D01*
X109776118Y-121522016D01*
X109582546Y-121657556D01*
X109415454Y-121824648D01*
X109279914Y-122018220D01*
X109279913Y-122018222D01*
X109207319Y-122173901D01*
X109180116Y-122232239D01*
X109180047Y-122232386D01*
X109180043Y-122232395D01*
X109118887Y-122460637D01*
X109118885Y-122460647D01*
X109098290Y-122696050D01*
X109098290Y-122696051D01*
X109118885Y-122931454D01*
X109118887Y-122931464D01*
X109145866Y-123032152D01*
X109144203Y-123102002D01*
X109105040Y-123159864D01*
X109040811Y-123187368D01*
X108993998Y-123184020D01*
X108893310Y-123157041D01*
X108893300Y-123157039D01*
X108657898Y-123136444D01*
X108657896Y-123136444D01*
X108422493Y-123157039D01*
X108422483Y-123157041D01*
X108194241Y-123218197D01*
X108194232Y-123218201D01*
X107980068Y-123318067D01*
X107980066Y-123318068D01*
X107786494Y-123453608D01*
X107619402Y-123620700D01*
X107483862Y-123814272D01*
X107483861Y-123814274D01*
X107383995Y-124028438D01*
X107383991Y-124028447D01*
X107322835Y-124256689D01*
X107322833Y-124256699D01*
X107302238Y-124492102D01*
X107302238Y-124492104D01*
X107306004Y-124535150D01*
X107292237Y-124603650D01*
X107243622Y-124653833D01*
X107175594Y-124669766D01*
X107130964Y-124658751D01*
X107004306Y-124600907D01*
X107004301Y-124600906D01*
X106861846Y-124580426D01*
X106719390Y-124600906D01*
X106719386Y-124600907D01*
X106588475Y-124660693D01*
X106541780Y-124698322D01*
X105272011Y-125968094D01*
X105272002Y-125968104D01*
X105234386Y-126014780D01*
X105174599Y-126145694D01*
X105174598Y-126145698D01*
X105154118Y-126288154D01*
X100171324Y-126288154D01*
X100171803Y-126287324D01*
X100264633Y-126063212D01*
X100327417Y-125828901D01*
X100359079Y-125588400D01*
X100359079Y-125345824D01*
X100327417Y-125105323D01*
X100264633Y-124871012D01*
X100171803Y-124646900D01*
X100050515Y-124436823D01*
X99902844Y-124244374D01*
X99902839Y-124244368D01*
X99731322Y-124072851D01*
X99731315Y-124072845D01*
X99538872Y-123925179D01*
X99538871Y-123925178D01*
X99538868Y-123925176D01*
X99328791Y-123803888D01*
X99221757Y-123759553D01*
X99104683Y-123711059D01*
X98870364Y-123648273D01*
X98629868Y-123616612D01*
X98629867Y-123616612D01*
X98387291Y-123616612D01*
X98387290Y-123616612D01*
X98146793Y-123648273D01*
X97912474Y-123711059D01*
X97688373Y-123803885D01*
X97688364Y-123803889D01*
X97506430Y-123908929D01*
X97489244Y-123918852D01*
X97478285Y-123925179D01*
X97285842Y-124072845D01*
X97285835Y-124072851D01*
X97114318Y-124244368D01*
X97114312Y-124244375D01*
X96966646Y-124436818D01*
X96845356Y-124646897D01*
X96845352Y-124646906D01*
X96752526Y-124871007D01*
X96689740Y-125105326D01*
X96658079Y-125345823D01*
X64895998Y-125345823D01*
X64301695Y-124512049D01*
X64299567Y-124508967D01*
X64131002Y-124256692D01*
X63724471Y-123648274D01*
X63571653Y-123419565D01*
X63569619Y-123416419D01*
X63266353Y-122931454D01*
X62874927Y-122305509D01*
X62873021Y-122302357D01*
X62212155Y-121170899D01*
X62210360Y-121167716D01*
X61583971Y-120016816D01*
X61582279Y-120013591D01*
X60990947Y-118844318D01*
X60989339Y-118841014D01*
X60433598Y-117654430D01*
X60432070Y-117651033D01*
X60429031Y-117643998D01*
X59912429Y-116448222D01*
X59911034Y-116444855D01*
X59518013Y-115453946D01*
X77936626Y-115453946D01*
X77936626Y-115453951D01*
X77955878Y-115674011D01*
X77955879Y-115674019D01*
X78013053Y-115887394D01*
X78013054Y-115887395D01*
X78013055Y-115887399D01*
X78081412Y-116033992D01*
X78106415Y-116087611D01*
X78106417Y-116087615D01*
X78233119Y-116268564D01*
X78233124Y-116268570D01*
X78389327Y-116424773D01*
X78389333Y-116424778D01*
X78570282Y-116551480D01*
X78570284Y-116551481D01*
X78570287Y-116551483D01*
X78770499Y-116644843D01*
X78983881Y-116702019D01*
X79135653Y-116715297D01*
X79203947Y-116721272D01*
X79203949Y-116721272D01*
X79203951Y-116721272D01*
X79272245Y-116715297D01*
X79424017Y-116702019D01*
X79637399Y-116644843D01*
X79650366Y-116638796D01*
X79719439Y-116628303D01*
X79783224Y-116656821D01*
X79821465Y-116715297D01*
X79822022Y-116785164D01*
X79815154Y-116803579D01*
X79809107Y-116816547D01*
X79809104Y-116816554D01*
X79751930Y-117029929D01*
X79751929Y-117029937D01*
X79732677Y-117249997D01*
X79732677Y-117250002D01*
X79751929Y-117470062D01*
X79751930Y-117470070D01*
X79809104Y-117683445D01*
X79809105Y-117683446D01*
X79809106Y-117683450D01*
X79863087Y-117799213D01*
X79902466Y-117883662D01*
X79902468Y-117883666D01*
X80029170Y-118064615D01*
X80029175Y-118064621D01*
X80185378Y-118220824D01*
X80185384Y-118220829D01*
X80366333Y-118347531D01*
X80366335Y-118347532D01*
X80366338Y-118347534D01*
X80566550Y-118440894D01*
X80779932Y-118498070D01*
X80931704Y-118511348D01*
X80999998Y-118517323D01*
X81000000Y-118517323D01*
X81000002Y-118517323D01*
X81068296Y-118511348D01*
X81220068Y-118498070D01*
X81433450Y-118440894D01*
X81446417Y-118434847D01*
X81515490Y-118424354D01*
X81579275Y-118452872D01*
X81617516Y-118511348D01*
X81618073Y-118581215D01*
X81611205Y-118599630D01*
X81605158Y-118612598D01*
X81605155Y-118612605D01*
X81547981Y-118825980D01*
X81547980Y-118825988D01*
X81528728Y-119046048D01*
X81528728Y-119046053D01*
X81547980Y-119266113D01*
X81547981Y-119266121D01*
X81605155Y-119479496D01*
X81605156Y-119479498D01*
X81605157Y-119479501D01*
X81646240Y-119567604D01*
X81698517Y-119679713D01*
X81698519Y-119679717D01*
X81825221Y-119860666D01*
X81825226Y-119860672D01*
X81981429Y-120016875D01*
X81981435Y-120016880D01*
X82162384Y-120143582D01*
X82162386Y-120143583D01*
X82162389Y-120143585D01*
X82362601Y-120236945D01*
X82575983Y-120294121D01*
X82733174Y-120307873D01*
X82796049Y-120313374D01*
X82796051Y-120313374D01*
X82796053Y-120313374D01*
X82851068Y-120308560D01*
X83016119Y-120294121D01*
X83032503Y-120289731D01*
X83102353Y-120291392D01*
X83160216Y-120330554D01*
X83187721Y-120394782D01*
X83176135Y-120463685D01*
X83152281Y-120497185D01*
X83127094Y-120522372D01*
X83089519Y-120569000D01*
X83089514Y-120569007D01*
X83029792Y-120699780D01*
X83029790Y-120699788D01*
X83009330Y-120842102D01*
X83029790Y-120984415D01*
X83029792Y-120984423D01*
X83089514Y-121115196D01*
X83089519Y-121115203D01*
X83127096Y-121161834D01*
X83522956Y-121557694D01*
X84211102Y-120869548D01*
X84211102Y-120892262D01*
X84237066Y-120989163D01*
X84287226Y-121076042D01*
X84358162Y-121146978D01*
X84445041Y-121197138D01*
X84541942Y-121223102D01*
X84564655Y-121223102D01*
X83876509Y-121911246D01*
X83876509Y-121911247D01*
X84272369Y-122307107D01*
X84319000Y-122344684D01*
X84319007Y-122344689D01*
X84449780Y-122404411D01*
X84449788Y-122404413D01*
X84592102Y-122424873D01*
X84734415Y-122404413D01*
X84734423Y-122404411D01*
X84865196Y-122344689D01*
X84865203Y-122344684D01*
X84911834Y-122307107D01*
X85307694Y-121911247D01*
X85307694Y-121911246D01*
X84619549Y-121223102D01*
X84642262Y-121223102D01*
X84739163Y-121197138D01*
X84826042Y-121146978D01*
X84896978Y-121076042D01*
X84947138Y-120989163D01*
X84973102Y-120892262D01*
X84973102Y-120869549D01*
X85661246Y-121557694D01*
X85661247Y-121557694D01*
X86057107Y-121161834D01*
X86094684Y-121115203D01*
X86094689Y-121115196D01*
X86154411Y-120984423D01*
X86154413Y-120984415D01*
X86174873Y-120842102D01*
X86154413Y-120699788D01*
X86154411Y-120699780D01*
X86094689Y-120569007D01*
X86094684Y-120569000D01*
X86057107Y-120522369D01*
X85661247Y-120126509D01*
X85661246Y-120126509D01*
X84973102Y-120814653D01*
X84973102Y-120791942D01*
X84947138Y-120695041D01*
X84896978Y-120608162D01*
X84826042Y-120537226D01*
X84739163Y-120487066D01*
X84642262Y-120461102D01*
X84619549Y-120461102D01*
X85307694Y-119772956D01*
X85307694Y-119772955D01*
X84911838Y-119377100D01*
X84911834Y-119377096D01*
X84865203Y-119339519D01*
X84865196Y-119339514D01*
X84734423Y-119279792D01*
X84734415Y-119279790D01*
X84592102Y-119259330D01*
X84449788Y-119279790D01*
X84449780Y-119279792D01*
X84319007Y-119339514D01*
X84319000Y-119339519D01*
X84272372Y-119377094D01*
X84247185Y-119402281D01*
X84185861Y-119435765D01*
X84116169Y-119430779D01*
X84060237Y-119388907D01*
X84035821Y-119323442D01*
X84039731Y-119282503D01*
X84040458Y-119279790D01*
X84044121Y-119266119D01*
X84063374Y-119046051D01*
X84051844Y-118914264D01*
X84065610Y-118845766D01*
X84087688Y-118815780D01*
X85466651Y-117436819D01*
X85527974Y-117403334D01*
X85554332Y-117400500D01*
X89037770Y-117400500D01*
X89104809Y-117420185D01*
X89125451Y-117436819D01*
X90467048Y-118778415D01*
X90467049Y-118778416D01*
X90529615Y-118840982D01*
X90571585Y-118882952D01*
X90694498Y-118965080D01*
X90694511Y-118965087D01*
X90831082Y-119021656D01*
X90831087Y-119021658D01*
X90831091Y-119021658D01*
X90831092Y-119021659D01*
X90976079Y-119050500D01*
X90976082Y-119050500D01*
X98523920Y-119050500D01*
X98621462Y-119031096D01*
X98668913Y-119021658D01*
X98805495Y-118965084D01*
X98854729Y-118932186D01*
X98928416Y-118882952D01*
X108782656Y-109028711D01*
X122099500Y-109028711D01*
X122099500Y-109271288D01*
X122131161Y-109511785D01*
X122193947Y-109746104D01*
X122252838Y-109888279D01*
X122286776Y-109970212D01*
X122408064Y-110180289D01*
X122408066Y-110180292D01*
X122408067Y-110180293D01*
X122555733Y-110372736D01*
X122555739Y-110372743D01*
X122727256Y-110544260D01*
X122727263Y-110544266D01*
X122783409Y-110587348D01*
X122919711Y-110691936D01*
X123129788Y-110813224D01*
X123353900Y-110906054D01*
X123588211Y-110968838D01*
X123768586Y-110992584D01*
X123828711Y-111000500D01*
X123828712Y-111000500D01*
X124071289Y-111000500D01*
X124119388Y-110994167D01*
X124311789Y-110968838D01*
X124546100Y-110906054D01*
X124770212Y-110813224D01*
X124980289Y-110691936D01*
X125172738Y-110544265D01*
X125344265Y-110372738D01*
X125491936Y-110180289D01*
X125613224Y-109970212D01*
X125706054Y-109746100D01*
X125768838Y-109511789D01*
X125800500Y-109271288D01*
X125800500Y-109028712D01*
X125797440Y-109005472D01*
X125792584Y-108968586D01*
X125768838Y-108788211D01*
X125706054Y-108553900D01*
X125613224Y-108329788D01*
X125491936Y-108119711D01*
X125344265Y-107927262D01*
X125344260Y-107927256D01*
X125172743Y-107755739D01*
X125172736Y-107755733D01*
X124980293Y-107608067D01*
X124980292Y-107608066D01*
X124980289Y-107608064D01*
X124770212Y-107486776D01*
X124696494Y-107456241D01*
X124546104Y-107393947D01*
X124357614Y-107343441D01*
X124311789Y-107331162D01*
X124311788Y-107331161D01*
X124311785Y-107331161D01*
X124071289Y-107299500D01*
X124071288Y-107299500D01*
X123828712Y-107299500D01*
X123828711Y-107299500D01*
X123588214Y-107331161D01*
X123353895Y-107393947D01*
X123129794Y-107486773D01*
X123129785Y-107486777D01*
X122919706Y-107608067D01*
X122727263Y-107755733D01*
X122727256Y-107755739D01*
X122555739Y-107927256D01*
X122555733Y-107927263D01*
X122408067Y-108119706D01*
X122286777Y-108329785D01*
X122286773Y-108329794D01*
X122193947Y-108553895D01*
X122131161Y-108788214D01*
X122099500Y-109028711D01*
X108782656Y-109028711D01*
X113582951Y-104228416D01*
X113665084Y-104105495D01*
X113721658Y-103968913D01*
X113750500Y-103823918D01*
X113750500Y-103676083D01*
X113750500Y-102849972D01*
X113757458Y-102809017D01*
X113780616Y-102742836D01*
X113785368Y-102729255D01*
X113788205Y-102704080D01*
X113805565Y-102550003D01*
X113805565Y-102549996D01*
X113785369Y-102370750D01*
X113785368Y-102370745D01*
X113725788Y-102200476D01*
X113629815Y-102047737D01*
X113502262Y-101920184D01*
X113349523Y-101824211D01*
X113179254Y-101764631D01*
X113179249Y-101764630D01*
X113000004Y-101744435D01*
X112999996Y-101744435D01*
X112820750Y-101764630D01*
X112820745Y-101764631D01*
X112650476Y-101824211D01*
X112497737Y-101920184D01*
X112370184Y-102047737D01*
X112274211Y-102200476D01*
X112214631Y-102370745D01*
X112214630Y-102370750D01*
X112194435Y-102549996D01*
X112194435Y-102550003D01*
X112214630Y-102729249D01*
X112214631Y-102729254D01*
X112242542Y-102809017D01*
X112249500Y-102849972D01*
X112249500Y-103387770D01*
X112229815Y-103454809D01*
X112213181Y-103475451D01*
X98175451Y-117513181D01*
X98114128Y-117546666D01*
X98087770Y-117549500D01*
X91412229Y-117549500D01*
X91345190Y-117529815D01*
X91324548Y-117513181D01*
X89878421Y-116067052D01*
X89878420Y-116067051D01*
X89866529Y-116059106D01*
X89780958Y-116001930D01*
X89755495Y-115984916D01*
X89755493Y-115984915D01*
X89755490Y-115984913D01*
X89618917Y-115928343D01*
X89618907Y-115928340D01*
X89473920Y-115899500D01*
X89473918Y-115899500D01*
X85118184Y-115899500D01*
X85118182Y-115899500D01*
X84973194Y-115928340D01*
X84973184Y-115928343D01*
X84836611Y-115984913D01*
X84811144Y-116001930D01*
X84713681Y-116067051D01*
X83026323Y-117754409D01*
X82965000Y-117787894D01*
X82927836Y-117790256D01*
X82796054Y-117778728D01*
X82796049Y-117778728D01*
X82575988Y-117797980D01*
X82575980Y-117797981D01*
X82362605Y-117855155D01*
X82362598Y-117855158D01*
X82349630Y-117861205D01*
X82280552Y-117871694D01*
X82216769Y-117843172D01*
X82178531Y-117784694D01*
X82177980Y-117714827D01*
X82184842Y-117696426D01*
X82190894Y-117683450D01*
X82248070Y-117470068D01*
X82267323Y-117250000D01*
X82248070Y-117029932D01*
X82190894Y-116816550D01*
X82097534Y-116616339D01*
X81970826Y-116435380D01*
X81814620Y-116279174D01*
X81814616Y-116279171D01*
X81814615Y-116279170D01*
X81633666Y-116152468D01*
X81633662Y-116152466D01*
X81433450Y-116059106D01*
X81433447Y-116059105D01*
X81433445Y-116059104D01*
X81220070Y-116001930D01*
X81220062Y-116001929D01*
X81000002Y-115982677D01*
X80999998Y-115982677D01*
X80779937Y-116001929D01*
X80779929Y-116001930D01*
X80566554Y-116059104D01*
X80566547Y-116059107D01*
X80553579Y-116065154D01*
X80484501Y-116075643D01*
X80420718Y-116047121D01*
X80382480Y-115988643D01*
X80381929Y-115918776D01*
X80388791Y-115900375D01*
X80394843Y-115887399D01*
X80452019Y-115674017D01*
X80466207Y-115511845D01*
X94729880Y-115511845D01*
X94729880Y-115511846D01*
X94750475Y-115747249D01*
X94750477Y-115747259D01*
X94811633Y-115975501D01*
X94811635Y-115975505D01*
X94811636Y-115975509D01*
X94885478Y-116133863D01*
X94911504Y-116189676D01*
X94911506Y-116189680D01*
X94966746Y-116268570D01*
X95047044Y-116383247D01*
X95214138Y-116550341D01*
X95308391Y-116616338D01*
X95407704Y-116685878D01*
X95407706Y-116685879D01*
X95407709Y-116685881D01*
X95621876Y-116785749D01*
X95850131Y-116846909D01*
X96038457Y-116863385D01*
X96085538Y-116867505D01*
X96085539Y-116867505D01*
X96085540Y-116867505D01*
X96124773Y-116864072D01*
X96320947Y-116846909D01*
X96549202Y-116785749D01*
X96763369Y-116685881D01*
X96956940Y-116550341D01*
X97124034Y-116383247D01*
X97259574Y-116189676D01*
X97359442Y-115975509D01*
X97420602Y-115747254D01*
X97441198Y-115511846D01*
X97437381Y-115468224D01*
X97451147Y-115399727D01*
X97499761Y-115349543D01*
X97567789Y-115333609D01*
X97612421Y-115344624D01*
X97739272Y-115402556D01*
X97739276Y-115402557D01*
X97881590Y-115423017D01*
X98023903Y-115402557D01*
X98023908Y-115402556D01*
X98154687Y-115342830D01*
X98201322Y-115305250D01*
X98659407Y-114847165D01*
X98659407Y-114847164D01*
X98010999Y-114198757D01*
X98074583Y-114181720D01*
X98188597Y-114115894D01*
X98281689Y-114022802D01*
X98347515Y-113908788D01*
X98364552Y-113845204D01*
X99012959Y-114493612D01*
X99012960Y-114493612D01*
X99471045Y-114035527D01*
X99508625Y-113988892D01*
X99568351Y-113858113D01*
X99568352Y-113858108D01*
X99588812Y-113715795D01*
X99568352Y-113573481D01*
X99568351Y-113573477D01*
X99510419Y-113446626D01*
X99500475Y-113377468D01*
X99529499Y-113313912D01*
X99588277Y-113276137D01*
X99634018Y-113271586D01*
X99677641Y-113275403D01*
X99913049Y-113254807D01*
X100141304Y-113193647D01*
X100355471Y-113093779D01*
X100549042Y-112958239D01*
X100716136Y-112791145D01*
X100851676Y-112597574D01*
X100951544Y-112383407D01*
X101012704Y-112155152D01*
X101033300Y-111919744D01*
X101012704Y-111684336D01*
X100985724Y-111583643D01*
X100987387Y-111513793D01*
X101026550Y-111455931D01*
X101090779Y-111428427D01*
X101137587Y-111431774D01*
X101238285Y-111458756D01*
X101426611Y-111475232D01*
X101473692Y-111479352D01*
X101473693Y-111479352D01*
X101473694Y-111479352D01*
X101512927Y-111475919D01*
X101709101Y-111458756D01*
X101937356Y-111397596D01*
X102151523Y-111297728D01*
X102345094Y-111162188D01*
X102512188Y-110995094D01*
X102647728Y-110801523D01*
X102747596Y-110587356D01*
X102808756Y-110359101D01*
X102829352Y-110123693D01*
X102808756Y-109888285D01*
X102781776Y-109787593D01*
X102783439Y-109717743D01*
X102822602Y-109659881D01*
X102886830Y-109632377D01*
X102933644Y-109635725D01*
X103034336Y-109662705D01*
X103222662Y-109679181D01*
X103269743Y-109683301D01*
X103269744Y-109683301D01*
X103269745Y-109683301D01*
X103308978Y-109679868D01*
X103505152Y-109662705D01*
X103733407Y-109601545D01*
X103947574Y-109501677D01*
X104141145Y-109366137D01*
X104308239Y-109199043D01*
X104443779Y-109005472D01*
X104543647Y-108791305D01*
X104604807Y-108563050D01*
X104625403Y-108327642D01*
X104604807Y-108092234D01*
X104577826Y-107991538D01*
X104579489Y-107921692D01*
X104618651Y-107863829D01*
X104682880Y-107836325D01*
X104729694Y-107839673D01*
X104771652Y-107850915D01*
X104830387Y-107866653D01*
X105018713Y-107883129D01*
X105065794Y-107887249D01*
X105065795Y-107887249D01*
X105065796Y-107887249D01*
X105105029Y-107883816D01*
X105301203Y-107866653D01*
X105529458Y-107805493D01*
X105743625Y-107705625D01*
X105937196Y-107570085D01*
X106104290Y-107402991D01*
X106239830Y-107209420D01*
X106339698Y-106995253D01*
X106400858Y-106766998D01*
X106421454Y-106531590D01*
X106400858Y-106296182D01*
X106373878Y-106195490D01*
X106375541Y-106125640D01*
X106414704Y-106067778D01*
X106478932Y-106040274D01*
X106525746Y-106043622D01*
X106626438Y-106070602D01*
X106814764Y-106087078D01*
X106861845Y-106091198D01*
X106861846Y-106091198D01*
X106861847Y-106091198D01*
X106901080Y-106087765D01*
X107097254Y-106070602D01*
X107325509Y-106009442D01*
X107539676Y-105909574D01*
X107733247Y-105774034D01*
X107900341Y-105606940D01*
X108035881Y-105413369D01*
X108135749Y-105199202D01*
X108196909Y-104970947D01*
X108217505Y-104735539D01*
X108196909Y-104500131D01*
X108169929Y-104399439D01*
X108171592Y-104329589D01*
X108210755Y-104271727D01*
X108274983Y-104244223D01*
X108321797Y-104247571D01*
X108422489Y-104274551D01*
X108610815Y-104291027D01*
X108657896Y-104295147D01*
X108657897Y-104295147D01*
X108657898Y-104295147D01*
X108697131Y-104291714D01*
X108893305Y-104274551D01*
X109121560Y-104213391D01*
X109335727Y-104113523D01*
X109529298Y-103977983D01*
X109696392Y-103810889D01*
X109831932Y-103617318D01*
X109931800Y-103403151D01*
X109992960Y-103174896D01*
X110013556Y-102939488D01*
X109992960Y-102704080D01*
X109931800Y-102475825D01*
X109831932Y-102261659D01*
X109789092Y-102200476D01*
X109696391Y-102068085D01*
X109529299Y-101900994D01*
X109529292Y-101900989D01*
X109335731Y-101765455D01*
X109335727Y-101765453D01*
X109290654Y-101744435D01*
X109121560Y-101665585D01*
X109121556Y-101665584D01*
X109121552Y-101665582D01*
X108893310Y-101604426D01*
X108893300Y-101604424D01*
X108657898Y-101583829D01*
X108657896Y-101583829D01*
X108422493Y-101604424D01*
X108422483Y-101604426D01*
X108194241Y-101665582D01*
X108194232Y-101665586D01*
X107980068Y-101765452D01*
X107980066Y-101765453D01*
X107786494Y-101900993D01*
X107619402Y-102068085D01*
X107483862Y-102261657D01*
X107483861Y-102261659D01*
X107383995Y-102475823D01*
X107383991Y-102475832D01*
X107322835Y-102704074D01*
X107322833Y-102704084D01*
X107302238Y-102939487D01*
X107302238Y-102939488D01*
X107322833Y-103174891D01*
X107322836Y-103174904D01*
X107349813Y-103275588D01*
X107348150Y-103345438D01*
X107308987Y-103403300D01*
X107244758Y-103430803D01*
X107197946Y-103427455D01*
X107097262Y-103400478D01*
X107097258Y-103400477D01*
X107097254Y-103400476D01*
X107097252Y-103400475D01*
X107097249Y-103400475D01*
X106861847Y-103379880D01*
X106861845Y-103379880D01*
X106626442Y-103400475D01*
X106626432Y-103400477D01*
X106398190Y-103461633D01*
X106398181Y-103461637D01*
X106184017Y-103561503D01*
X106184015Y-103561504D01*
X105990443Y-103697044D01*
X105823351Y-103864136D01*
X105687811Y-104057708D01*
X105687810Y-104057710D01*
X105617339Y-104208836D01*
X105588013Y-104271727D01*
X105587944Y-104271874D01*
X105587940Y-104271883D01*
X105526784Y-104500125D01*
X105526782Y-104500135D01*
X105506187Y-104735538D01*
X105506187Y-104735539D01*
X105526782Y-104970942D01*
X105526785Y-104970955D01*
X105553762Y-105071639D01*
X105552099Y-105141489D01*
X105512936Y-105199351D01*
X105448707Y-105226854D01*
X105401895Y-105223506D01*
X105301211Y-105196529D01*
X105301207Y-105196528D01*
X105301203Y-105196527D01*
X105301201Y-105196526D01*
X105301198Y-105196526D01*
X105065796Y-105175931D01*
X105065794Y-105175931D01*
X104830391Y-105196526D01*
X104830381Y-105196528D01*
X104602139Y-105257684D01*
X104602130Y-105257688D01*
X104387966Y-105357554D01*
X104387964Y-105357555D01*
X104194392Y-105493095D01*
X104027300Y-105660187D01*
X103891760Y-105853759D01*
X103891759Y-105853761D01*
X103819165Y-106009440D01*
X103791962Y-106067778D01*
X103791893Y-106067925D01*
X103791889Y-106067934D01*
X103730733Y-106296176D01*
X103730731Y-106296186D01*
X103710136Y-106531589D01*
X103710136Y-106531590D01*
X103730731Y-106766993D01*
X103730733Y-106767003D01*
X103757712Y-106867690D01*
X103756049Y-106937540D01*
X103716886Y-106995402D01*
X103652658Y-107022906D01*
X103605845Y-107019558D01*
X103505160Y-106992581D01*
X103505156Y-106992580D01*
X103505152Y-106992579D01*
X103505150Y-106992578D01*
X103505147Y-106992578D01*
X103269745Y-106971983D01*
X103269743Y-106971983D01*
X103034340Y-106992578D01*
X103034330Y-106992580D01*
X102806088Y-107053736D01*
X102806079Y-107053740D01*
X102591915Y-107153606D01*
X102591913Y-107153607D01*
X102398341Y-107289147D01*
X102231249Y-107456239D01*
X102095709Y-107649811D01*
X102095708Y-107649813D01*
X101995842Y-107863977D01*
X101995838Y-107863986D01*
X101934682Y-108092228D01*
X101934680Y-108092238D01*
X101914085Y-108327641D01*
X101914085Y-108327642D01*
X101934680Y-108563045D01*
X101934683Y-108563058D01*
X101961660Y-108663742D01*
X101959997Y-108733592D01*
X101920834Y-108791454D01*
X101856605Y-108818957D01*
X101809793Y-108815609D01*
X101709109Y-108788632D01*
X101709105Y-108788631D01*
X101709101Y-108788630D01*
X101709099Y-108788629D01*
X101709096Y-108788629D01*
X101473694Y-108768034D01*
X101473692Y-108768034D01*
X101238289Y-108788629D01*
X101238279Y-108788631D01*
X101010037Y-108849787D01*
X101010028Y-108849791D01*
X100795864Y-108949657D01*
X100795862Y-108949658D01*
X100602290Y-109085198D01*
X100435198Y-109252290D01*
X100299658Y-109445862D01*
X100299657Y-109445864D01*
X100227063Y-109601543D01*
X100199860Y-109659881D01*
X100199791Y-109660028D01*
X100199787Y-109660037D01*
X100138631Y-109888279D01*
X100138629Y-109888289D01*
X100118034Y-110123692D01*
X100118034Y-110123693D01*
X100138629Y-110359096D01*
X100138632Y-110359109D01*
X100165609Y-110459794D01*
X100163946Y-110529644D01*
X100124782Y-110587506D01*
X100060554Y-110615009D01*
X100013741Y-110611661D01*
X99913054Y-110584682D01*
X99913044Y-110584680D01*
X99677642Y-110564085D01*
X99677640Y-110564085D01*
X99442237Y-110584680D01*
X99442227Y-110584682D01*
X99213985Y-110645838D01*
X99213976Y-110645842D01*
X98999812Y-110745708D01*
X98999810Y-110745709D01*
X98806238Y-110881249D01*
X98639146Y-111048341D01*
X98503606Y-111241913D01*
X98503605Y-111241915D01*
X98403739Y-111456079D01*
X98403735Y-111456088D01*
X98342579Y-111684330D01*
X98342577Y-111684340D01*
X98321982Y-111919743D01*
X98321982Y-111919746D01*
X98325798Y-111963364D01*
X98312031Y-112031864D01*
X98263416Y-112082047D01*
X98195387Y-112097980D01*
X98150758Y-112086965D01*
X98023907Y-112029033D01*
X98023903Y-112029032D01*
X97881590Y-112008572D01*
X97739276Y-112029032D01*
X97739271Y-112029033D01*
X97608492Y-112088759D01*
X97561852Y-112126343D01*
X97103772Y-112584423D01*
X97103772Y-112584424D01*
X97752180Y-113232832D01*
X97688597Y-113249870D01*
X97574583Y-113315696D01*
X97481491Y-113408788D01*
X97415665Y-113522802D01*
X97398627Y-113586385D01*
X96750219Y-112937977D01*
X96750218Y-112937977D01*
X96292138Y-113396057D01*
X96254554Y-113442697D01*
X96194828Y-113573476D01*
X96194827Y-113573481D01*
X96174367Y-113715795D01*
X96194827Y-113858108D01*
X96194828Y-113858112D01*
X96252760Y-113984963D01*
X96262704Y-114054122D01*
X96233679Y-114117677D01*
X96174901Y-114155452D01*
X96129159Y-114160003D01*
X96085541Y-114156187D01*
X96085538Y-114156187D01*
X95850135Y-114176782D01*
X95850125Y-114176784D01*
X95621883Y-114237940D01*
X95621874Y-114237944D01*
X95407710Y-114337810D01*
X95407708Y-114337811D01*
X95214136Y-114473351D01*
X95047044Y-114640443D01*
X94911504Y-114834015D01*
X94911503Y-114834017D01*
X94838909Y-114989696D01*
X94811706Y-115048034D01*
X94811637Y-115048181D01*
X94811633Y-115048190D01*
X94750477Y-115276432D01*
X94750475Y-115276442D01*
X94729880Y-115511845D01*
X80466207Y-115511845D01*
X80471272Y-115453949D01*
X80452019Y-115233881D01*
X80394843Y-115020499D01*
X80301483Y-114820288D01*
X80238129Y-114729808D01*
X80174776Y-114639330D01*
X80122636Y-114587190D01*
X80018569Y-114483123D01*
X80018565Y-114483120D01*
X80018564Y-114483119D01*
X79837615Y-114356417D01*
X79837611Y-114356415D01*
X79797712Y-114337810D01*
X79637399Y-114263055D01*
X79637396Y-114263054D01*
X79637394Y-114263053D01*
X79424019Y-114205879D01*
X79424011Y-114205878D01*
X79203951Y-114186626D01*
X79203947Y-114186626D01*
X78983886Y-114205878D01*
X78983878Y-114205879D01*
X78770503Y-114263053D01*
X78770497Y-114263056D01*
X78570289Y-114356414D01*
X78570287Y-114356415D01*
X78389326Y-114483124D01*
X78233124Y-114639326D01*
X78106415Y-114820287D01*
X78106414Y-114820289D01*
X78013056Y-115020497D01*
X78013053Y-115020503D01*
X77955879Y-115233878D01*
X77955878Y-115233886D01*
X77936626Y-115453946D01*
X59518013Y-115453946D01*
X59427928Y-115226817D01*
X59426641Y-115223425D01*
X58980562Y-113991401D01*
X58979347Y-113987880D01*
X58570687Y-112742961D01*
X58569599Y-112739470D01*
X58198719Y-111482754D01*
X58197740Y-111479246D01*
X57864988Y-110211909D01*
X57864092Y-110208272D01*
X57569788Y-108931545D01*
X57569002Y-108927883D01*
X57313397Y-107642869D01*
X57312721Y-107639185D01*
X57287163Y-107486773D01*
X57096024Y-106346924D01*
X57095472Y-106343291D01*
X57074759Y-106191859D01*
X73277751Y-106191859D01*
X73277751Y-106434436D01*
X73309412Y-106674933D01*
X73372198Y-106909252D01*
X73465024Y-107133353D01*
X73465027Y-107133360D01*
X73586315Y-107343437D01*
X73586317Y-107343440D01*
X73586318Y-107343441D01*
X73733984Y-107535884D01*
X73733990Y-107535891D01*
X73905507Y-107707408D01*
X73905514Y-107707414D01*
X73968493Y-107755739D01*
X74097962Y-107855084D01*
X74308039Y-107976372D01*
X74532151Y-108069202D01*
X74766462Y-108131986D01*
X74946837Y-108155732D01*
X75006962Y-108163648D01*
X75006963Y-108163648D01*
X75249540Y-108163648D01*
X75297639Y-108157315D01*
X75490040Y-108131986D01*
X75724351Y-108069202D01*
X75948463Y-107976372D01*
X76158540Y-107855084D01*
X76350989Y-107707413D01*
X76522516Y-107535886D01*
X76670187Y-107343437D01*
X76791475Y-107133360D01*
X76884305Y-106909248D01*
X76947089Y-106674937D01*
X76978751Y-106434436D01*
X76978751Y-106191860D01*
X76947089Y-105951359D01*
X76884305Y-105717048D01*
X76791475Y-105492936D01*
X76670187Y-105282859D01*
X76603942Y-105196527D01*
X76522517Y-105090411D01*
X76522511Y-105090404D01*
X76350994Y-104918887D01*
X76350987Y-104918881D01*
X76158544Y-104771215D01*
X76158543Y-104771214D01*
X76158540Y-104771212D01*
X75948463Y-104649924D01*
X75948456Y-104649921D01*
X75724355Y-104557095D01*
X75511764Y-104500131D01*
X75490040Y-104494310D01*
X75490039Y-104494309D01*
X75490036Y-104494309D01*
X75249540Y-104462648D01*
X75249539Y-104462648D01*
X75006963Y-104462648D01*
X75006962Y-104462648D01*
X74766465Y-104494309D01*
X74532146Y-104557095D01*
X74308045Y-104649921D01*
X74308036Y-104649925D01*
X74097957Y-104771215D01*
X73905514Y-104918881D01*
X73905507Y-104918887D01*
X73733990Y-105090404D01*
X73733984Y-105090411D01*
X73586318Y-105282854D01*
X73465028Y-105492933D01*
X73465024Y-105492942D01*
X73372198Y-105717043D01*
X73309412Y-105951362D01*
X73277751Y-106191859D01*
X57074759Y-106191859D01*
X56917914Y-105045145D01*
X56917464Y-105041440D01*
X56909983Y-104970942D01*
X56779190Y-103738466D01*
X56778860Y-103734843D01*
X56679998Y-102428237D01*
X56679779Y-102424616D01*
X56620427Y-101115642D01*
X56620317Y-101111980D01*
X56600528Y-99801853D01*
X56600528Y-99799996D01*
X95093348Y-99799996D01*
X95093348Y-99800003D01*
X95113502Y-100248783D01*
X95113503Y-100248792D01*
X95173807Y-100693973D01*
X95273771Y-101131948D01*
X95273773Y-101131954D01*
X95412598Y-101559211D01*
X95566885Y-101920184D01*
X95589163Y-101972307D01*
X95802047Y-102367910D01*
X96049528Y-102742830D01*
X96049529Y-102742831D01*
X96329631Y-103094068D01*
X96329634Y-103094071D01*
X96640085Y-103418777D01*
X96640100Y-103418791D01*
X96978387Y-103714344D01*
X96978396Y-103714351D01*
X96978404Y-103714358D01*
X96978414Y-103714365D01*
X96978415Y-103714366D01*
X97341846Y-103978415D01*
X97341850Y-103978417D01*
X97341851Y-103978418D01*
X97474560Y-104057708D01*
X97727507Y-104208836D01*
X97727513Y-104208839D01*
X97858101Y-104271727D01*
X98132260Y-104403756D01*
X98132263Y-104403757D01*
X98132265Y-104403758D01*
X98552845Y-104561604D01*
X98552849Y-104561605D01*
X98552859Y-104561609D01*
X98985915Y-104681125D01*
X99427941Y-104761341D01*
X99875377Y-104801611D01*
X99875384Y-104801611D01*
X100324616Y-104801611D01*
X100324623Y-104801611D01*
X100772059Y-104761341D01*
X101214085Y-104681125D01*
X101647141Y-104561609D01*
X102067740Y-104403756D01*
X102472495Y-104208835D01*
X102858149Y-103978418D01*
X103221596Y-103714358D01*
X103559910Y-103418782D01*
X103870367Y-103094070D01*
X104150467Y-102742836D01*
X104397954Y-102367908D01*
X104610838Y-101972305D01*
X104787402Y-101559211D01*
X104926227Y-101131954D01*
X105026193Y-100693972D01*
X105086497Y-100248793D01*
X105106652Y-99800000D01*
X105086497Y-99351207D01*
X105026193Y-98906028D01*
X104926227Y-98468046D01*
X104787402Y-98040789D01*
X104610838Y-97627695D01*
X104397954Y-97232092D01*
X104360560Y-97175442D01*
X104150471Y-96857169D01*
X104150470Y-96857168D01*
X103870368Y-96505931D01*
X103870365Y-96505928D01*
X103559914Y-96181222D01*
X103559899Y-96181208D01*
X103221612Y-95885655D01*
X103221600Y-95885646D01*
X103221596Y-95885642D01*
X103208683Y-95876260D01*
X102858153Y-95621584D01*
X102472492Y-95391163D01*
X102472486Y-95391160D01*
X102067747Y-95196247D01*
X102067734Y-95196241D01*
X101647154Y-95038395D01*
X101647129Y-95038387D01*
X101214091Y-94918876D01*
X100772065Y-94838660D01*
X100772064Y-94838659D01*
X100772059Y-94838659D01*
X100324623Y-94798389D01*
X99875377Y-94798389D01*
X99427941Y-94838659D01*
X99427936Y-94838659D01*
X99427934Y-94838660D01*
X98985908Y-94918876D01*
X98552870Y-95038387D01*
X98552845Y-95038395D01*
X98132265Y-95196241D01*
X98132252Y-95196247D01*
X97727513Y-95391160D01*
X97727507Y-95391163D01*
X97341846Y-95621584D01*
X96978415Y-95885633D01*
X96978387Y-95885655D01*
X96640100Y-96181208D01*
X96640085Y-96181222D01*
X96329634Y-96505928D01*
X96329631Y-96505931D01*
X96049529Y-96857168D01*
X96049528Y-96857169D01*
X95802047Y-97232089D01*
X95589163Y-97627692D01*
X95412595Y-98040797D01*
X95273771Y-98468051D01*
X95173807Y-98906026D01*
X95113503Y-99351207D01*
X95113502Y-99351216D01*
X95093348Y-99799996D01*
X56600528Y-99799996D01*
X56600528Y-99798127D01*
X56606423Y-99407872D01*
X56620317Y-98488017D01*
X56620427Y-98484359D01*
X56679779Y-97175379D01*
X56679998Y-97171766D01*
X56778861Y-95865150D01*
X56779189Y-95861539D01*
X56917466Y-94558538D01*
X56917916Y-94554841D01*
X57095473Y-93256698D01*
X57096023Y-93253084D01*
X57312722Y-91960804D01*
X57313397Y-91957130D01*
X57569002Y-90672116D01*
X57569788Y-90668454D01*
X57584884Y-90602968D01*
X57864093Y-89391721D01*
X57864988Y-89388090D01*
X57951519Y-89058524D01*
X57988886Y-88916206D01*
X76541216Y-88916206D01*
X76561676Y-89058519D01*
X76561677Y-89058524D01*
X76621403Y-89189303D01*
X76658983Y-89235938D01*
X77117068Y-89694023D01*
X77765476Y-89045615D01*
X77782514Y-89109199D01*
X77848340Y-89223213D01*
X77941432Y-89316305D01*
X78055446Y-89382131D01*
X78119029Y-89399168D01*
X77470621Y-90047575D01*
X77470621Y-90047576D01*
X77928706Y-90505661D01*
X77975341Y-90543241D01*
X78106120Y-90602967D01*
X78106125Y-90602968D01*
X78248439Y-90623428D01*
X78390752Y-90602968D01*
X78390757Y-90602967D01*
X78521536Y-90543241D01*
X78568171Y-90505661D01*
X79026256Y-90047576D01*
X79026256Y-90047575D01*
X78377848Y-89399168D01*
X78441432Y-89382131D01*
X78555446Y-89316305D01*
X78648538Y-89223213D01*
X78714364Y-89109199D01*
X78731401Y-89045615D01*
X79379808Y-89694023D01*
X79379809Y-89694023D01*
X79837894Y-89235938D01*
X79875474Y-89189303D01*
X79935200Y-89058524D01*
X79935201Y-89058519D01*
X79955661Y-88916206D01*
X79935201Y-88773892D01*
X79935200Y-88773888D01*
X79877268Y-88647037D01*
X79867324Y-88577879D01*
X79896348Y-88514323D01*
X79955126Y-88476548D01*
X80000867Y-88471997D01*
X80044491Y-88475814D01*
X80279899Y-88455218D01*
X80508154Y-88394058D01*
X80722321Y-88294190D01*
X80915892Y-88158650D01*
X81082986Y-87991556D01*
X81218526Y-87797985D01*
X81318394Y-87583818D01*
X81379554Y-87355563D01*
X81400150Y-87120155D01*
X81379554Y-86884747D01*
X81331543Y-86705565D01*
X81318396Y-86656499D01*
X81318395Y-86656498D01*
X81318394Y-86656492D01*
X81218526Y-86442326D01*
X81083525Y-86249523D01*
X81082985Y-86248752D01*
X80915893Y-86081661D01*
X80915886Y-86081656D01*
X80912448Y-86079249D01*
X80877012Y-86054436D01*
X80722325Y-85946122D01*
X80722321Y-85946120D01*
X80623423Y-85900003D01*
X80508154Y-85846252D01*
X80508150Y-85846251D01*
X80508146Y-85846249D01*
X80279904Y-85785093D01*
X80279894Y-85785091D01*
X80044492Y-85764496D01*
X80044490Y-85764496D01*
X79809087Y-85785091D01*
X79809077Y-85785093D01*
X79580835Y-85846249D01*
X79580826Y-85846253D01*
X79366662Y-85946119D01*
X79366660Y-85946120D01*
X79173088Y-86081660D01*
X79005996Y-86248752D01*
X78870456Y-86442324D01*
X78870455Y-86442326D01*
X78770589Y-86656490D01*
X78770585Y-86656499D01*
X78709429Y-86884741D01*
X78709427Y-86884751D01*
X78688832Y-87120154D01*
X78688832Y-87120157D01*
X78692648Y-87163775D01*
X78678881Y-87232275D01*
X78630266Y-87282458D01*
X78562237Y-87298391D01*
X78517608Y-87287376D01*
X78390757Y-87229444D01*
X78390752Y-87229443D01*
X78248439Y-87208983D01*
X78106125Y-87229443D01*
X78106120Y-87229444D01*
X77975341Y-87289170D01*
X77928701Y-87326754D01*
X77470621Y-87784834D01*
X77470621Y-87784835D01*
X78119029Y-88433243D01*
X78055446Y-88450281D01*
X77941432Y-88516107D01*
X77848340Y-88609199D01*
X77782514Y-88723213D01*
X77765476Y-88786796D01*
X77117068Y-88138388D01*
X77117067Y-88138388D01*
X76658987Y-88596468D01*
X76621403Y-88643108D01*
X76561677Y-88773887D01*
X76561676Y-88773892D01*
X76541216Y-88916206D01*
X57988886Y-88916206D01*
X58197745Y-88120736D01*
X58198714Y-88117262D01*
X58569605Y-86860510D01*
X58570680Y-86857057D01*
X58979360Y-85612078D01*
X58980554Y-85608618D01*
X59426649Y-84376552D01*
X59427919Y-84373203D01*
X59911043Y-83155121D01*
X59912419Y-83151801D01*
X60432089Y-81948922D01*
X60433587Y-81945594D01*
X60989351Y-80758958D01*
X60990934Y-80755707D01*
X61582293Y-79586381D01*
X61583957Y-79583210D01*
X62210376Y-78432254D01*
X62212139Y-78429128D01*
X62441207Y-78036945D01*
X84269335Y-78036945D01*
X84269335Y-78279522D01*
X84300996Y-78520019D01*
X84363782Y-78754338D01*
X84416335Y-78881211D01*
X84456611Y-78978446D01*
X84577899Y-79188523D01*
X84577901Y-79188526D01*
X84577902Y-79188527D01*
X84725568Y-79380970D01*
X84725574Y-79380977D01*
X84897091Y-79552494D01*
X84897098Y-79552500D01*
X84941348Y-79586454D01*
X85089546Y-79700170D01*
X85299623Y-79821458D01*
X85523735Y-79914288D01*
X85758046Y-79977072D01*
X85938421Y-80000818D01*
X85998546Y-80008734D01*
X85998547Y-80008734D01*
X86241124Y-80008734D01*
X86289223Y-80002401D01*
X86481624Y-79977072D01*
X86715935Y-79914288D01*
X86940047Y-79821458D01*
X87150124Y-79700170D01*
X87342573Y-79552499D01*
X87514100Y-79380972D01*
X87661771Y-79188523D01*
X87783059Y-78978446D01*
X87875889Y-78754334D01*
X87938673Y-78520023D01*
X87970335Y-78279522D01*
X87970335Y-78036946D01*
X87938673Y-77796445D01*
X87875889Y-77562134D01*
X87783059Y-77338022D01*
X87661771Y-77127945D01*
X87562752Y-76998901D01*
X87514101Y-76935497D01*
X87514095Y-76935490D01*
X87342578Y-76763973D01*
X87342571Y-76763967D01*
X87150128Y-76616301D01*
X87150127Y-76616300D01*
X87150124Y-76616298D01*
X86940047Y-76495010D01*
X86940040Y-76495007D01*
X86715939Y-76402181D01*
X86569371Y-76362908D01*
X86481624Y-76339396D01*
X86481623Y-76339395D01*
X86481620Y-76339395D01*
X86241124Y-76307734D01*
X86241123Y-76307734D01*
X85998547Y-76307734D01*
X85998546Y-76307734D01*
X85758049Y-76339395D01*
X85523730Y-76402181D01*
X85299629Y-76495007D01*
X85299620Y-76495011D01*
X85089541Y-76616301D01*
X84897098Y-76763967D01*
X84897091Y-76763973D01*
X84725574Y-76935490D01*
X84725568Y-76935497D01*
X84577902Y-77127940D01*
X84456612Y-77338019D01*
X84456608Y-77338028D01*
X84363782Y-77562129D01*
X84300996Y-77796448D01*
X84269335Y-78036945D01*
X62441207Y-78036945D01*
X62873038Y-77297613D01*
X62874908Y-77294519D01*
X63569629Y-76183563D01*
X63571653Y-76180434D01*
X63607023Y-76127499D01*
X104119341Y-76127499D01*
X104119341Y-76127500D01*
X104139936Y-76362903D01*
X104139938Y-76362913D01*
X104201094Y-76591155D01*
X104201096Y-76591159D01*
X104201097Y-76591163D01*
X104281677Y-76763967D01*
X104300965Y-76805330D01*
X104300967Y-76805334D01*
X104392104Y-76935490D01*
X104436501Y-76998896D01*
X104436506Y-76998902D01*
X104558430Y-77120826D01*
X104591915Y-77182149D01*
X104586931Y-77251841D01*
X104545059Y-77307774D01*
X104514083Y-77324689D01*
X104382669Y-77373703D01*
X104382664Y-77373706D01*
X104267455Y-77459952D01*
X104267452Y-77459955D01*
X104181206Y-77575164D01*
X104181202Y-77575171D01*
X104130908Y-77710017D01*
X104124501Y-77769616D01*
X104124501Y-77769623D01*
X104124500Y-77769635D01*
X104124500Y-79565370D01*
X104124501Y-79565376D01*
X104130908Y-79624983D01*
X104181202Y-79759828D01*
X104181206Y-79759835D01*
X104267452Y-79875044D01*
X104267455Y-79875047D01*
X104382664Y-79961293D01*
X104382671Y-79961297D01*
X104424967Y-79977072D01*
X104517517Y-80011591D01*
X104577127Y-80018000D01*
X104725500Y-80017999D01*
X104792539Y-80037683D01*
X104838294Y-80090487D01*
X104849500Y-80141999D01*
X104849500Y-85355145D01*
X104830494Y-85421117D01*
X104749211Y-85550476D01*
X104689631Y-85720745D01*
X104689630Y-85720750D01*
X104669435Y-85899996D01*
X104669435Y-85900003D01*
X104689630Y-86079249D01*
X104689631Y-86079254D01*
X104749211Y-86249523D01*
X104845184Y-86402262D01*
X104972738Y-86529816D01*
X105125478Y-86625789D01*
X105285488Y-86681779D01*
X105295745Y-86685368D01*
X105295750Y-86685369D01*
X105474996Y-86705565D01*
X105475000Y-86705565D01*
X105475004Y-86705565D01*
X105654249Y-86685369D01*
X105654252Y-86685368D01*
X105654255Y-86685368D01*
X105824522Y-86625789D01*
X105977262Y-86529816D01*
X106104816Y-86402262D01*
X106200789Y-86249522D01*
X106260368Y-86079255D01*
X106260369Y-86079249D01*
X106280565Y-85900003D01*
X106280565Y-85899996D01*
X106260369Y-85720750D01*
X106260368Y-85720745D01*
X106200788Y-85550476D01*
X106119506Y-85421117D01*
X106100500Y-85355145D01*
X106100500Y-80141999D01*
X106120185Y-80074960D01*
X106172989Y-80029205D01*
X106224500Y-80017999D01*
X106372871Y-80017999D01*
X106372872Y-80017999D01*
X106432483Y-80011591D01*
X106567331Y-79961296D01*
X106682546Y-79875046D01*
X106746050Y-79790216D01*
X114442835Y-79790216D01*
X114442835Y-80032793D01*
X114474496Y-80273290D01*
X114537282Y-80507609D01*
X114630108Y-80731710D01*
X114630111Y-80731717D01*
X114751399Y-80941794D01*
X114751401Y-80941797D01*
X114751402Y-80941798D01*
X114899068Y-81134241D01*
X114899074Y-81134248D01*
X115070591Y-81305765D01*
X115070597Y-81305770D01*
X115263046Y-81453441D01*
X115473123Y-81574729D01*
X115697235Y-81667559D01*
X115931546Y-81730343D01*
X116111921Y-81754089D01*
X116172046Y-81762005D01*
X116172047Y-81762005D01*
X116414624Y-81762005D01*
X116462723Y-81755672D01*
X116655124Y-81730343D01*
X116889435Y-81667559D01*
X117113547Y-81574729D01*
X117323624Y-81453441D01*
X117516073Y-81305770D01*
X117687600Y-81134243D01*
X117835271Y-80941794D01*
X117956559Y-80731717D01*
X118049389Y-80507605D01*
X118112173Y-80273294D01*
X118143835Y-80032793D01*
X118143835Y-79790217D01*
X118112173Y-79549716D01*
X118049389Y-79315405D01*
X117956559Y-79091293D01*
X117835271Y-78881216D01*
X117687600Y-78688767D01*
X117687595Y-78688761D01*
X117516078Y-78517244D01*
X117516071Y-78517238D01*
X117323628Y-78369572D01*
X117323627Y-78369571D01*
X117323624Y-78369569D01*
X117113547Y-78248281D01*
X117113540Y-78248278D01*
X116889439Y-78155452D01*
X116655120Y-78092666D01*
X116414624Y-78061005D01*
X116414623Y-78061005D01*
X116172047Y-78061005D01*
X116172046Y-78061005D01*
X115931549Y-78092666D01*
X115697230Y-78155452D01*
X115473129Y-78248278D01*
X115473120Y-78248282D01*
X115263041Y-78369572D01*
X115070598Y-78517238D01*
X115070591Y-78517244D01*
X114899074Y-78688761D01*
X114899068Y-78688768D01*
X114751402Y-78881211D01*
X114630112Y-79091290D01*
X114630108Y-79091299D01*
X114537282Y-79315400D01*
X114474496Y-79549719D01*
X114442835Y-79790216D01*
X106746050Y-79790216D01*
X106768796Y-79759831D01*
X106819091Y-79624983D01*
X106825500Y-79565373D01*
X106825499Y-77769628D01*
X106819091Y-77710017D01*
X106768796Y-77575169D01*
X106768795Y-77575168D01*
X106768793Y-77575164D01*
X106682547Y-77459955D01*
X106682544Y-77459952D01*
X106567335Y-77373706D01*
X106567328Y-77373702D01*
X106435917Y-77324689D01*
X106379983Y-77282818D01*
X106355566Y-77217353D01*
X106370418Y-77149080D01*
X106391563Y-77120832D01*
X106513495Y-76998901D01*
X106649035Y-76805330D01*
X106748903Y-76591163D01*
X106810063Y-76362908D01*
X106830659Y-76127500D01*
X106810063Y-75892092D01*
X106748903Y-75663837D01*
X106649035Y-75449671D01*
X106513495Y-75256099D01*
X106513494Y-75256097D01*
X106346402Y-75089006D01*
X106346395Y-75089001D01*
X106152834Y-74953467D01*
X106152830Y-74953465D01*
X106152828Y-74953464D01*
X105938663Y-74853597D01*
X105938659Y-74853596D01*
X105938655Y-74853594D01*
X105710413Y-74792438D01*
X105710403Y-74792436D01*
X105475001Y-74771841D01*
X105474999Y-74771841D01*
X105239596Y-74792436D01*
X105239586Y-74792438D01*
X105011344Y-74853594D01*
X105011335Y-74853598D01*
X104797171Y-74953464D01*
X104797169Y-74953465D01*
X104603597Y-75089005D01*
X104436505Y-75256097D01*
X104300965Y-75449669D01*
X104300964Y-75449671D01*
X104201098Y-75663835D01*
X104201094Y-75663844D01*
X104139938Y-75892086D01*
X104139936Y-75892096D01*
X104119341Y-76127499D01*
X63607023Y-76127499D01*
X64299597Y-75090988D01*
X64301695Y-75087950D01*
X65062192Y-74021015D01*
X65064388Y-74018028D01*
X65856803Y-72974496D01*
X65859051Y-72971626D01*
X66682656Y-71952463D01*
X66684973Y-71949683D01*
X67538940Y-70955911D01*
X67541418Y-70953115D01*
X68425032Y-69985564D01*
X68427471Y-69982973D01*
X69340002Y-69042452D01*
X69342452Y-69040002D01*
X70282973Y-68127471D01*
X70285564Y-68125032D01*
X71253122Y-67241411D01*
X71255919Y-67238934D01*
X72249683Y-66384973D01*
X72252463Y-66382656D01*
X73271626Y-65559051D01*
X73274496Y-65556803D01*
X74318028Y-64764388D01*
X74321015Y-64762192D01*
X75387950Y-64001695D01*
X75390988Y-63999597D01*
X76480450Y-63271642D01*
X76483563Y-63269629D01*
X77594519Y-62574908D01*
X77597613Y-62573038D01*
X78729128Y-61912139D01*
X78732254Y-61910376D01*
X79883210Y-61283957D01*
X79886381Y-61282293D01*
X81055707Y-60690934D01*
X81058958Y-60689351D01*
X82245594Y-60133587D01*
X82248922Y-60132089D01*
X83451801Y-59612419D01*
X83455121Y-59611043D01*
X84673203Y-59127919D01*
X84676552Y-59126649D01*
X85908618Y-58680554D01*
X85912078Y-58679360D01*
X87157057Y-58270680D01*
X87160510Y-58269605D01*
X88417262Y-57898714D01*
X88420736Y-57897745D01*
X89688095Y-57564986D01*
X89691727Y-57564092D01*
X90968468Y-57269784D01*
X90972103Y-57269004D01*
X92257141Y-57013394D01*
X92260804Y-57012722D01*
X93553084Y-56796023D01*
X93556698Y-56795473D01*
X94854862Y-56617913D01*
X94858538Y-56617466D01*
X96161539Y-56479189D01*
X96165150Y-56478861D01*
X97471766Y-56379998D01*
X97475379Y-56379779D01*
X98784359Y-56320427D01*
X98788017Y-56320317D01*
X100098146Y-56300528D01*
X100101854Y-56300528D01*
X101411980Y-56320317D01*
G37*
%TD.AperFunction*%
%TD*%
M02*
