%TF.GenerationSoftware,KiCad,Pcbnew,8.0.4*%
%TF.CreationDate,2024-07-23T01:00:19-04:00*%
%TF.ProjectId,esp32-wroom-table-lights,65737033-322d-4777-926f-6f6d2d746162,rev?*%
%TF.SameCoordinates,Original*%
%TF.FileFunction,Legend,Top*%
%TF.FilePolarity,Positive*%
%FSLAX46Y46*%
G04 Gerber Fmt 4.6, Leading zero omitted, Abs format (unit mm)*
G04 Created by KiCad (PCBNEW 8.0.4) date 2024-07-23 01:00:19*
%MOMM*%
%LPD*%
G01*
G04 APERTURE LIST*
%ADD10C,0.100000*%
%ADD11C,0.150000*%
%ADD12C,0.200000*%
%ADD13C,0.120000*%
%ADD14C,0.500000*%
G04 APERTURE END LIST*
D10*
X107423094Y-73600080D02*
X107423094Y-74600080D01*
X107423094Y-74600080D02*
X107184999Y-74600080D01*
X107184999Y-74600080D02*
X107042142Y-74552461D01*
X107042142Y-74552461D02*
X106946904Y-74457223D01*
X106946904Y-74457223D02*
X106899285Y-74361985D01*
X106899285Y-74361985D02*
X106851666Y-74171509D01*
X106851666Y-74171509D02*
X106851666Y-74028652D01*
X106851666Y-74028652D02*
X106899285Y-73838176D01*
X106899285Y-73838176D02*
X106946904Y-73742938D01*
X106946904Y-73742938D02*
X107042142Y-73647700D01*
X107042142Y-73647700D02*
X107184999Y-73600080D01*
X107184999Y-73600080D02*
X107423094Y-73600080D01*
X105994523Y-74266747D02*
X105994523Y-73600080D01*
X106232618Y-74647700D02*
X106470713Y-73933414D01*
X106470713Y-73933414D02*
X105851666Y-73933414D01*
D11*
X107947477Y-93866820D02*
X108048492Y-93294401D01*
X107543416Y-93462759D02*
X108250523Y-92755653D01*
X108250523Y-92755653D02*
X108519897Y-93025027D01*
X108519897Y-93025027D02*
X108553569Y-93126042D01*
X108553569Y-93126042D02*
X108553569Y-93193385D01*
X108553569Y-93193385D02*
X108519897Y-93294401D01*
X108519897Y-93294401D02*
X108418882Y-93395416D01*
X108418882Y-93395416D02*
X108317866Y-93429088D01*
X108317866Y-93429088D02*
X108250523Y-93429088D01*
X108250523Y-93429088D02*
X108149508Y-93395416D01*
X108149508Y-93395416D02*
X107880134Y-93126042D01*
X108856614Y-93496431D02*
X108923958Y-93496431D01*
X108923958Y-93496431D02*
X109024973Y-93530103D01*
X109024973Y-93530103D02*
X109193332Y-93698462D01*
X109193332Y-93698462D02*
X109227004Y-93799477D01*
X109227004Y-93799477D02*
X109227004Y-93866820D01*
X109227004Y-93866820D02*
X109193332Y-93967836D01*
X109193332Y-93967836D02*
X109125988Y-94035179D01*
X109125988Y-94035179D02*
X108991301Y-94102523D01*
X108991301Y-94102523D02*
X108183179Y-94102523D01*
X108183179Y-94102523D02*
X108620912Y-94540255D01*
X89887489Y-110081314D02*
X89180383Y-109374207D01*
X89180383Y-109374207D02*
X89348741Y-109205848D01*
X89348741Y-109205848D02*
X89483428Y-109138505D01*
X89483428Y-109138505D02*
X89618115Y-109138505D01*
X89618115Y-109138505D02*
X89719131Y-109172177D01*
X89719131Y-109172177D02*
X89887489Y-109273192D01*
X89887489Y-109273192D02*
X89988505Y-109374207D01*
X89988505Y-109374207D02*
X90089520Y-109542566D01*
X90089520Y-109542566D02*
X90123192Y-109643581D01*
X90123192Y-109643581D02*
X90123192Y-109778268D01*
X90123192Y-109778268D02*
X90055848Y-109912955D01*
X90055848Y-109912955D02*
X89887489Y-110081314D01*
X89921161Y-108768116D02*
X89921161Y-108700772D01*
X89921161Y-108700772D02*
X89954833Y-108599757D01*
X89954833Y-108599757D02*
X90123192Y-108431398D01*
X90123192Y-108431398D02*
X90224207Y-108397726D01*
X90224207Y-108397726D02*
X90291550Y-108397726D01*
X90291550Y-108397726D02*
X90392566Y-108431398D01*
X90392566Y-108431398D02*
X90459909Y-108498742D01*
X90459909Y-108498742D02*
X90527253Y-108633429D01*
X90527253Y-108633429D02*
X90527253Y-109441551D01*
X90527253Y-109441551D02*
X90964985Y-109003818D01*
X96795532Y-129861803D02*
X97003444Y-128883655D01*
X96904438Y-129349440D02*
X97463380Y-129468246D01*
X97354473Y-129980609D02*
X97562385Y-129002462D01*
X98332621Y-130188521D02*
X97773680Y-130069714D01*
X98053150Y-130129118D02*
X98261062Y-129150970D01*
X98261062Y-129150970D02*
X98138203Y-129270904D01*
X98138203Y-129270904D02*
X98025245Y-129344260D01*
X98025245Y-129344260D02*
X97922188Y-129371038D01*
X70419290Y-106041978D02*
X71413812Y-105937450D01*
X70940230Y-105987225D02*
X70999961Y-106555523D01*
X70479021Y-106610276D02*
X71473543Y-106505748D01*
X70583549Y-107604798D02*
X70523819Y-107036500D01*
X70553684Y-107320649D02*
X71548206Y-107216121D01*
X71548206Y-107216121D02*
X71396176Y-107136337D01*
X71396176Y-107136337D02*
X71291505Y-107051576D01*
X71291505Y-107051576D02*
X71234192Y-106961837D01*
X83900497Y-75046735D02*
X83493761Y-74133190D01*
X83687445Y-74568211D02*
X84209471Y-74335790D01*
X84422523Y-74814314D02*
X84015787Y-73900769D01*
X85336069Y-74407577D02*
X84814043Y-74639998D01*
X85075056Y-74523788D02*
X84668319Y-73610242D01*
X84668319Y-73610242D02*
X84639420Y-73779486D01*
X84639420Y-73779486D02*
X84591153Y-73905227D01*
X84591153Y-73905227D02*
X84523517Y-73987466D01*
X118566732Y-76839283D02*
X119309877Y-76170153D01*
X118955999Y-76488786D02*
X119338359Y-76913440D01*
X118949093Y-77263937D02*
X119692237Y-76594807D01*
X119618223Y-78007082D02*
X119235863Y-77582428D01*
X119427043Y-77794755D02*
X120170188Y-77125625D01*
X120170188Y-77125625D02*
X120000298Y-77150439D01*
X120000298Y-77150439D02*
X119865795Y-77143390D01*
X119865795Y-77143390D02*
X119766681Y-77104478D01*
X127600239Y-112137238D02*
X126734214Y-111637238D01*
X127146607Y-111875333D02*
X127432321Y-111380461D01*
X127885953Y-111642366D02*
X127019928Y-111142366D01*
X128385953Y-110776341D02*
X128100239Y-111271213D01*
X128243096Y-111023777D02*
X127377071Y-110523777D01*
X127377071Y-110523777D02*
X127453170Y-110677684D01*
X127453170Y-110677684D02*
X127488029Y-110807782D01*
X127488029Y-110807782D02*
X127481649Y-110914070D01*
D10*
X90953174Y-126731769D02*
X90448097Y-126226693D01*
X90448097Y-126226693D02*
X90380754Y-126092006D01*
X90380754Y-126092006D02*
X90380754Y-125957319D01*
X90380754Y-125957319D02*
X90448097Y-125822632D01*
X90448097Y-125822632D02*
X90515441Y-125755288D01*
X90582784Y-126967471D02*
X90582784Y-127034815D01*
X90582784Y-127034815D02*
X90549112Y-127135830D01*
X90549112Y-127135830D02*
X90380754Y-127304189D01*
X90380754Y-127304189D02*
X90279738Y-127337861D01*
X90279738Y-127337861D02*
X90212395Y-127337861D01*
X90212395Y-127337861D02*
X90111380Y-127304189D01*
X90111380Y-127304189D02*
X90044036Y-127236845D01*
X90044036Y-127236845D02*
X89976693Y-127102158D01*
X89976693Y-127102158D02*
X89976693Y-126294036D01*
X89976693Y-126294036D02*
X89538960Y-126731769D01*
D12*
G36*
X78627250Y-113483525D02*
G01*
X76915839Y-115194936D01*
X75910175Y-114189272D01*
X75929683Y-114169764D01*
X76110653Y-114169764D01*
X76110653Y-114208782D01*
X76125585Y-114244830D01*
X76138021Y-114259984D01*
X76845128Y-114967090D01*
X76860281Y-114979527D01*
X76896330Y-114994458D01*
X76935348Y-114994458D01*
X76971396Y-114979527D01*
X76998986Y-114951937D01*
X77013917Y-114915889D01*
X77013917Y-114876871D01*
X76998986Y-114840822D01*
X76986549Y-114825669D01*
X76279443Y-114118562D01*
X76264289Y-114106126D01*
X76228241Y-114091194D01*
X76189223Y-114091194D01*
X76153175Y-114106126D01*
X76125585Y-114133716D01*
X76110653Y-114169764D01*
X75929683Y-114169764D01*
X76213220Y-113886227D01*
X76479121Y-113886227D01*
X76479121Y-113953571D01*
X76481042Y-113973080D01*
X76495974Y-114009128D01*
X76523564Y-114036718D01*
X76559612Y-114051650D01*
X76598630Y-114051650D01*
X76634678Y-114036718D01*
X76662268Y-114009128D01*
X76677200Y-113973080D01*
X76679121Y-113953571D01*
X76679121Y-113902454D01*
X76700195Y-113839229D01*
X76835167Y-113704257D01*
X76898396Y-113683182D01*
X76933281Y-113683182D01*
X76996506Y-113704256D01*
X77035683Y-113743433D01*
X77085212Y-113842490D01*
X77085212Y-114627006D01*
X77087133Y-114646515D01*
X77102065Y-114682563D01*
X77129655Y-114710153D01*
X77165703Y-114725085D01*
X77204721Y-114725085D01*
X77240769Y-114710153D01*
X77255923Y-114697717D01*
X77693656Y-114259984D01*
X77706092Y-114244830D01*
X77721024Y-114208782D01*
X77721024Y-114169764D01*
X77706092Y-114133716D01*
X77678502Y-114106126D01*
X77642454Y-114091194D01*
X77603436Y-114091194D01*
X77567388Y-114106126D01*
X77552234Y-114118562D01*
X77285212Y-114385584D01*
X77285212Y-113818884D01*
X77283291Y-113799375D01*
X77281915Y-113796054D01*
X77281661Y-113792471D01*
X77274655Y-113774163D01*
X77207312Y-113639476D01*
X77202026Y-113631079D01*
X77201016Y-113628640D01*
X77198762Y-113625893D01*
X77196869Y-113622886D01*
X77194874Y-113621156D01*
X77188580Y-113613486D01*
X77121236Y-113546142D01*
X77106082Y-113533706D01*
X77102763Y-113532331D01*
X77100048Y-113529976D01*
X77082147Y-113521984D01*
X76981132Y-113488313D01*
X76971459Y-113486113D01*
X76969019Y-113485103D01*
X76965481Y-113484754D01*
X76962017Y-113483967D01*
X76959383Y-113484154D01*
X76949510Y-113483182D01*
X76882167Y-113483182D01*
X76872294Y-113484154D01*
X76869661Y-113483967D01*
X76866197Y-113484754D01*
X76862658Y-113485103D01*
X76860217Y-113486114D01*
X76850545Y-113488313D01*
X76749529Y-113521984D01*
X76731629Y-113529976D01*
X76728914Y-113532330D01*
X76725593Y-113533706D01*
X76710440Y-113546142D01*
X76542082Y-113714502D01*
X76529646Y-113729655D01*
X76528271Y-113732973D01*
X76525916Y-113735689D01*
X76517925Y-113753589D01*
X76484253Y-113854604D01*
X76482053Y-113864276D01*
X76481042Y-113866718D01*
X76480693Y-113870255D01*
X76479906Y-113873719D01*
X76480093Y-113876353D01*
X76479121Y-113886227D01*
X76213220Y-113886227D01*
X76987670Y-113111777D01*
X77253571Y-113111777D01*
X77253571Y-113246464D01*
X77254543Y-113256337D01*
X77254356Y-113258972D01*
X77255143Y-113262435D01*
X77255492Y-113265973D01*
X77256503Y-113268414D01*
X77258703Y-113278087D01*
X77292375Y-113379102D01*
X77292997Y-113380496D01*
X77293104Y-113381211D01*
X77296813Y-113389043D01*
X77300366Y-113397002D01*
X77300841Y-113397550D01*
X77301494Y-113398928D01*
X77402508Y-113567287D01*
X77404546Y-113570033D01*
X77405111Y-113571396D01*
X77409791Y-113577098D01*
X77414193Y-113583028D01*
X77415379Y-113583907D01*
X77417548Y-113586549D01*
X77518563Y-113687564D01*
X77521207Y-113689734D01*
X77522084Y-113690917D01*
X77528006Y-113695313D01*
X77533717Y-113700000D01*
X77535078Y-113700564D01*
X77537824Y-113702602D01*
X77706182Y-113803618D01*
X77707563Y-113804272D01*
X77708110Y-113804746D01*
X77716049Y-113808291D01*
X77723899Y-113812008D01*
X77724612Y-113812114D01*
X77726010Y-113812738D01*
X77827026Y-113846409D01*
X77836698Y-113848607D01*
X77839139Y-113849619D01*
X77842678Y-113849967D01*
X77846142Y-113850755D01*
X77848775Y-113850567D01*
X77858648Y-113851540D01*
X77993335Y-113851540D01*
X78012844Y-113849619D01*
X78016164Y-113848243D01*
X78019748Y-113847989D01*
X78038056Y-113840983D01*
X78172743Y-113773640D01*
X78181138Y-113768355D01*
X78183580Y-113767344D01*
X78186327Y-113765088D01*
X78189333Y-113763197D01*
X78191063Y-113761201D01*
X78198733Y-113754907D01*
X78266076Y-113687563D01*
X78272368Y-113679896D01*
X78274365Y-113678165D01*
X78276260Y-113675155D01*
X78278513Y-113672410D01*
X78279523Y-113669969D01*
X78284808Y-113661575D01*
X78352152Y-113526888D01*
X78359158Y-113508579D01*
X78359412Y-113504995D01*
X78360788Y-113501675D01*
X78362709Y-113482166D01*
X78362709Y-113414823D01*
X78360788Y-113395314D01*
X78345856Y-113359266D01*
X78318266Y-113331676D01*
X78282218Y-113316744D01*
X78243200Y-113316744D01*
X78207152Y-113331676D01*
X78179562Y-113359266D01*
X78164630Y-113395314D01*
X78162709Y-113414823D01*
X78162709Y-113458557D01*
X78113177Y-113557619D01*
X78068786Y-113602011D01*
X77969728Y-113651540D01*
X77874877Y-113651540D01*
X77799666Y-113626470D01*
X77651278Y-113537437D01*
X77567673Y-113453832D01*
X77478640Y-113305443D01*
X77453571Y-113230236D01*
X77453571Y-113135385D01*
X77503101Y-113036325D01*
X77547492Y-112991933D01*
X77646553Y-112942403D01*
X77690289Y-112942403D01*
X77709798Y-112940482D01*
X77745846Y-112925550D01*
X77773436Y-112897960D01*
X77788368Y-112861912D01*
X77788368Y-112822894D01*
X77773436Y-112786846D01*
X77745846Y-112759256D01*
X77709798Y-112744324D01*
X77690289Y-112742403D01*
X77622945Y-112742403D01*
X77603436Y-112744324D01*
X77600115Y-112745699D01*
X77596532Y-112745954D01*
X77578223Y-112752960D01*
X77443536Y-112820304D01*
X77435138Y-112825589D01*
X77432700Y-112826600D01*
X77429955Y-112828852D01*
X77426946Y-112830747D01*
X77425213Y-112832744D01*
X77417547Y-112839037D01*
X77350204Y-112906379D01*
X77343912Y-112914045D01*
X77341915Y-112915778D01*
X77340019Y-112918789D01*
X77337768Y-112921533D01*
X77336758Y-112923969D01*
X77331472Y-112932368D01*
X77264128Y-113067055D01*
X77257122Y-113085364D01*
X77256867Y-113088947D01*
X77255492Y-113092268D01*
X77253571Y-113111777D01*
X76987670Y-113111777D01*
X77621586Y-112477861D01*
X78627250Y-113483525D01*
G37*
D10*
X84116869Y-117217799D02*
X84554601Y-116780066D01*
X84554601Y-116780066D02*
X84534398Y-117231268D01*
X84534398Y-117231268D02*
X84635414Y-117130253D01*
X84635414Y-117130253D02*
X84729695Y-117089847D01*
X84729695Y-117089847D02*
X84790304Y-117083112D01*
X84790304Y-117083112D02*
X84877850Y-117103315D01*
X84877850Y-117103315D02*
X85012537Y-117238002D01*
X85012537Y-117238002D02*
X85032740Y-117325549D01*
X85032740Y-117325549D02*
X85026006Y-117386158D01*
X85026006Y-117386158D02*
X84985600Y-117480439D01*
X84985600Y-117480439D02*
X84783569Y-117682469D01*
X84783569Y-117682469D02*
X84689288Y-117722876D01*
X84689288Y-117722876D02*
X84628679Y-117729610D01*
X84756632Y-116578036D02*
X85558020Y-116908019D01*
X85558020Y-116908019D02*
X85228037Y-116106631D01*
X85396395Y-115938273D02*
X85834128Y-115500540D01*
X85834128Y-115500540D02*
X85813925Y-115951741D01*
X85813925Y-115951741D02*
X85914940Y-115850726D01*
X85914940Y-115850726D02*
X86009221Y-115810320D01*
X86009221Y-115810320D02*
X86069830Y-115803586D01*
X86069830Y-115803586D02*
X86157377Y-115823789D01*
X86157377Y-115823789D02*
X86292064Y-115958476D01*
X86292064Y-115958476D02*
X86312267Y-116046022D01*
X86312267Y-116046022D02*
X86305533Y-116106631D01*
X86305533Y-116106631D02*
X86265127Y-116200912D01*
X86265127Y-116200912D02*
X86063096Y-116402943D01*
X86063096Y-116402943D02*
X85968815Y-116443349D01*
X85968815Y-116443349D02*
X85908206Y-116450083D01*
X86280524Y-118608019D02*
X86186243Y-118648425D01*
X86186243Y-118648425D02*
X86085228Y-118749440D01*
X86085228Y-118749440D02*
X86011150Y-118877393D01*
X86011150Y-118877393D02*
X85997681Y-118998611D01*
X85997681Y-118998611D02*
X86017884Y-119086158D01*
X86017884Y-119086158D02*
X86091962Y-119227579D01*
X86091962Y-119227579D02*
X86172774Y-119308391D01*
X86172774Y-119308391D02*
X86314195Y-119382469D01*
X86314195Y-119382469D02*
X86401742Y-119402672D01*
X86401742Y-119402672D02*
X86522960Y-119389204D01*
X86522960Y-119389204D02*
X86650913Y-119315126D01*
X86650913Y-119315126D02*
X86718256Y-119247782D01*
X86718256Y-119247782D02*
X86792334Y-119119830D01*
X86792334Y-119119830D02*
X86799069Y-119059220D01*
X86799069Y-119059220D02*
X86610507Y-118870659D01*
X86610507Y-118870659D02*
X86475820Y-119005346D01*
X87155989Y-118810050D02*
X86590304Y-118244364D01*
X86590304Y-118244364D02*
X87560050Y-118405989D01*
X87560050Y-118405989D02*
X86994365Y-117840303D01*
X87896768Y-118069271D02*
X87331082Y-117503586D01*
X87331082Y-117503586D02*
X87499441Y-117335227D01*
X87499441Y-117335227D02*
X87627394Y-117261149D01*
X87627394Y-117261149D02*
X87748612Y-117247680D01*
X87748612Y-117247680D02*
X87836159Y-117267883D01*
X87836159Y-117267883D02*
X87977580Y-117341961D01*
X87977580Y-117341961D02*
X88058392Y-117422773D01*
X88058392Y-117422773D02*
X88132470Y-117564195D01*
X88132470Y-117564195D02*
X88152673Y-117651741D01*
X88152673Y-117651741D02*
X88139204Y-117772960D01*
X88139204Y-117772960D02*
X88065127Y-117900912D01*
X88065127Y-117900912D02*
X87896768Y-118069271D01*
X82772452Y-115939712D02*
X82900405Y-115865634D01*
X82900405Y-115865634D02*
X83068764Y-115697275D01*
X83068764Y-115697275D02*
X83109170Y-115602994D01*
X83109170Y-115602994D02*
X83115904Y-115542385D01*
X83115904Y-115542385D02*
X83095701Y-115454839D01*
X83095701Y-115454839D02*
X83041826Y-115400964D01*
X83041826Y-115400964D02*
X82954280Y-115380761D01*
X82954280Y-115380761D02*
X82893671Y-115387495D01*
X82893671Y-115387495D02*
X82799390Y-115427901D01*
X82799390Y-115427901D02*
X82637765Y-115535651D01*
X82637765Y-115535651D02*
X82543484Y-115576057D01*
X82543484Y-115576057D02*
X82482875Y-115582791D01*
X82482875Y-115582791D02*
X82395329Y-115562588D01*
X82395329Y-115562588D02*
X82341454Y-115508713D01*
X82341454Y-115508713D02*
X82321251Y-115421167D01*
X82321251Y-115421167D02*
X82327985Y-115360558D01*
X82327985Y-115360558D02*
X82368391Y-115266277D01*
X82368391Y-115266277D02*
X82536750Y-115097918D01*
X82536750Y-115097918D02*
X82664703Y-115023840D01*
X83506496Y-115259542D02*
X82940811Y-114693857D01*
X82940811Y-114693857D02*
X83109170Y-114525498D01*
X83109170Y-114525498D02*
X83237122Y-114451420D01*
X83237122Y-114451420D02*
X83358341Y-114437952D01*
X83358341Y-114437952D02*
X83445887Y-114458155D01*
X83445887Y-114458155D02*
X83587309Y-114532232D01*
X83587309Y-114532232D02*
X83668121Y-114613045D01*
X83668121Y-114613045D02*
X83742199Y-114754466D01*
X83742199Y-114754466D02*
X83762402Y-114842013D01*
X83762402Y-114842013D02*
X83748933Y-114963231D01*
X83748933Y-114963231D02*
X83674855Y-115091184D01*
X83674855Y-115091184D02*
X83506496Y-115259542D01*
X84018307Y-114424483D02*
X84355025Y-114087765D01*
X84112588Y-114653451D02*
X83782605Y-113852063D01*
X83782605Y-113852063D02*
X84583993Y-114182046D01*
X80989288Y-114122876D02*
X81117241Y-114048798D01*
X81117241Y-114048798D02*
X81285600Y-113880439D01*
X81285600Y-113880439D02*
X81326006Y-113786158D01*
X81326006Y-113786158D02*
X81332740Y-113725549D01*
X81332740Y-113725549D02*
X81312537Y-113638002D01*
X81312537Y-113638002D02*
X81258662Y-113584127D01*
X81258662Y-113584127D02*
X81171116Y-113563924D01*
X81171116Y-113563924D02*
X81110507Y-113570659D01*
X81110507Y-113570659D02*
X81016226Y-113611065D01*
X81016226Y-113611065D02*
X80854601Y-113718814D01*
X80854601Y-113718814D02*
X80760321Y-113759221D01*
X80760321Y-113759221D02*
X80699711Y-113765955D01*
X80699711Y-113765955D02*
X80612165Y-113745752D01*
X80612165Y-113745752D02*
X80558290Y-113691877D01*
X80558290Y-113691877D02*
X80538087Y-113604331D01*
X80538087Y-113604331D02*
X80544821Y-113543721D01*
X80544821Y-113543721D02*
X80585227Y-113449440D01*
X80585227Y-113449440D02*
X80753586Y-113281082D01*
X80753586Y-113281082D02*
X80881539Y-113207004D01*
X82073519Y-112984770D02*
X82066785Y-113045379D01*
X82066785Y-113045379D02*
X81992707Y-113173332D01*
X81992707Y-113173332D02*
X81925363Y-113240676D01*
X81925363Y-113240676D02*
X81797411Y-113314753D01*
X81797411Y-113314753D02*
X81676192Y-113328222D01*
X81676192Y-113328222D02*
X81588646Y-113308019D01*
X81588646Y-113308019D02*
X81447224Y-113233941D01*
X81447224Y-113233941D02*
X81366412Y-113153129D01*
X81366412Y-113153129D02*
X81292334Y-113011708D01*
X81292334Y-113011708D02*
X81272131Y-112924161D01*
X81272131Y-112924161D02*
X81285600Y-112802943D01*
X81285600Y-112802943D02*
X81359678Y-112674990D01*
X81359678Y-112674990D02*
X81427021Y-112607647D01*
X81427021Y-112607647D02*
X81554974Y-112533569D01*
X81554974Y-112533569D02*
X81615583Y-112526834D01*
X82767157Y-112398882D02*
X82430439Y-112735599D01*
X82430439Y-112735599D02*
X81864754Y-112169914D01*
D11*
X113079299Y-131694101D02*
X112615130Y-131344222D01*
X112535838Y-131870682D02*
X112226821Y-130919625D01*
X112226821Y-130919625D02*
X112589129Y-130801905D01*
X112589129Y-130801905D02*
X112694421Y-130817763D01*
X112694421Y-130817763D02*
X112754424Y-130848336D01*
X112754424Y-130848336D02*
X112829143Y-130924198D01*
X112829143Y-130924198D02*
X112873288Y-131060063D01*
X112873288Y-131060063D02*
X112857430Y-131165355D01*
X112857430Y-131165355D02*
X112826856Y-131225359D01*
X112826856Y-131225359D02*
X112750995Y-131300077D01*
X112750995Y-131300077D02*
X112388688Y-131417798D01*
X113985067Y-131399799D02*
X113441607Y-131576380D01*
X113713337Y-131488089D02*
X113404320Y-130537033D01*
X113404320Y-130537033D02*
X113357889Y-130702328D01*
X113357889Y-130702328D02*
X113296742Y-130822335D01*
X113296742Y-130822335D02*
X113220880Y-130897054D01*
X90888095Y-86806819D02*
X91459523Y-86806819D01*
X91173809Y-87806819D02*
X91173809Y-86806819D01*
X91792857Y-87806819D02*
X91792857Y-86806819D01*
X91792857Y-86806819D02*
X92173809Y-86806819D01*
X92173809Y-86806819D02*
X92269047Y-86854438D01*
X92269047Y-86854438D02*
X92316666Y-86902057D01*
X92316666Y-86902057D02*
X92364285Y-86997295D01*
X92364285Y-86997295D02*
X92364285Y-87140152D01*
X92364285Y-87140152D02*
X92316666Y-87235390D01*
X92316666Y-87235390D02*
X92269047Y-87283009D01*
X92269047Y-87283009D02*
X92173809Y-87330628D01*
X92173809Y-87330628D02*
X91792857Y-87330628D01*
X93221428Y-87140152D02*
X93221428Y-87806819D01*
X92983333Y-86759200D02*
X92745238Y-87473485D01*
X92745238Y-87473485D02*
X93364285Y-87473485D01*
X80427887Y-100686411D02*
X80360543Y-100686411D01*
X80360543Y-100686411D02*
X80225856Y-100619067D01*
X80225856Y-100619067D02*
X80158513Y-100551724D01*
X80158513Y-100551724D02*
X80091169Y-100417037D01*
X80091169Y-100417037D02*
X80091169Y-100282350D01*
X80091169Y-100282350D02*
X80124841Y-100181335D01*
X80124841Y-100181335D02*
X80225856Y-100012976D01*
X80225856Y-100012976D02*
X80326871Y-99911961D01*
X80326871Y-99911961D02*
X80495230Y-99810945D01*
X80495230Y-99810945D02*
X80596245Y-99777274D01*
X80596245Y-99777274D02*
X80730932Y-99777274D01*
X80730932Y-99777274D02*
X80865619Y-99844617D01*
X80865619Y-99844617D02*
X80932963Y-99911961D01*
X80932963Y-99911961D02*
X81000306Y-100046648D01*
X81000306Y-100046648D02*
X81000306Y-100113991D01*
X81303352Y-100282350D02*
X81774757Y-100753754D01*
X81774757Y-100753754D02*
X80764604Y-101157815D01*
X133490689Y-107965506D02*
X132934800Y-108135374D01*
X133314108Y-108508967D02*
X132363052Y-108199950D01*
X132363052Y-108199950D02*
X132480773Y-107837643D01*
X132480773Y-107837643D02*
X132555491Y-107761781D01*
X132555491Y-107761781D02*
X132615495Y-107731208D01*
X132615495Y-107731208D02*
X132720787Y-107715350D01*
X132720787Y-107715350D02*
X132856652Y-107759495D01*
X132856652Y-107759495D02*
X132932513Y-107834214D01*
X132932513Y-107834214D02*
X132963087Y-107894217D01*
X132963087Y-107894217D02*
X132978945Y-107999509D01*
X132978945Y-107999509D02*
X132861224Y-108361816D01*
X133784991Y-107059738D02*
X133608410Y-107603199D01*
X133696701Y-107331469D02*
X132745644Y-107022452D01*
X132745644Y-107022452D02*
X132852079Y-107157174D01*
X132852079Y-107157174D02*
X132913226Y-107277181D01*
X132913226Y-107277181D02*
X132929084Y-107382473D01*
X89025821Y-86688339D02*
X88767001Y-85722413D01*
X88767001Y-85722413D02*
X88996984Y-85660790D01*
X88996984Y-85660790D02*
X89147298Y-85669812D01*
X89147298Y-85669812D02*
X89263940Y-85737155D01*
X89263940Y-85737155D02*
X89334586Y-85816824D01*
X89334586Y-85816824D02*
X89429882Y-85988485D01*
X89429882Y-85988485D02*
X89466856Y-86126474D01*
X89466856Y-86126474D02*
X89470158Y-86322785D01*
X89470158Y-86322785D02*
X89448811Y-86427102D01*
X89448811Y-86427102D02*
X89381468Y-86543745D01*
X89381468Y-86543745D02*
X89255803Y-86626715D01*
X89255803Y-86626715D02*
X89025821Y-86688339D01*
X90497708Y-86293948D02*
X89945750Y-86441845D01*
X90221729Y-86367896D02*
X89962910Y-85401970D01*
X89962910Y-85401970D02*
X89907891Y-85564609D01*
X89907891Y-85564609D02*
X89840547Y-85681252D01*
X89840547Y-85681252D02*
X89760879Y-85751898D01*
X60511076Y-114746170D02*
X61462133Y-114437153D01*
X61462133Y-114437153D02*
X61535708Y-114663596D01*
X61535708Y-114663596D02*
X61534565Y-114814176D01*
X61534565Y-114814176D02*
X61473418Y-114934183D01*
X61473418Y-114934183D02*
X61397557Y-115008901D01*
X61397557Y-115008901D02*
X61231118Y-115113050D01*
X61231118Y-115113050D02*
X61095253Y-115157195D01*
X61095253Y-115157195D02*
X60899384Y-115170767D01*
X60899384Y-115170767D02*
X60794092Y-115154909D01*
X60794092Y-115154909D02*
X60674085Y-115093763D01*
X60674085Y-115093763D02*
X60584652Y-114972613D01*
X60584652Y-114972613D02*
X60511076Y-114746170D01*
X61741719Y-115297633D02*
X61933016Y-115886382D01*
X61933016Y-115886382D02*
X61467703Y-115687084D01*
X61467703Y-115687084D02*
X61511848Y-115822950D01*
X61511848Y-115822950D02*
X61495990Y-115928242D01*
X61495990Y-115928242D02*
X61465416Y-115988245D01*
X61465416Y-115988245D02*
X61389555Y-116062964D01*
X61389555Y-116062964D02*
X61163113Y-116136539D01*
X61163113Y-116136539D02*
X61057821Y-116120681D01*
X61057821Y-116120681D02*
X60997817Y-116090108D01*
X60997817Y-116090108D02*
X60923099Y-116014246D01*
X60923099Y-116014246D02*
X60834808Y-115742515D01*
X60834808Y-115742515D02*
X60850666Y-115637223D01*
X60850666Y-115637223D02*
X60881240Y-115577220D01*
X129328258Y-117915050D02*
X128747083Y-117904825D01*
X128992381Y-118377346D02*
X128183364Y-117789560D01*
X128183364Y-117789560D02*
X128407282Y-117481363D01*
X128407282Y-117481363D02*
X128501786Y-117432304D01*
X128501786Y-117432304D02*
X128568300Y-117421769D01*
X128568300Y-117421769D02*
X128673339Y-117439224D01*
X128673339Y-117439224D02*
X128788913Y-117523193D01*
X128788913Y-117523193D02*
X128837973Y-117617698D01*
X128837973Y-117617698D02*
X128848508Y-117684212D01*
X128848508Y-117684212D02*
X128831053Y-117789251D01*
X128831053Y-117789251D02*
X128607134Y-118097448D01*
X129888053Y-117144558D02*
X129552176Y-117606853D01*
X129720115Y-117375706D02*
X128911098Y-116787920D01*
X128911098Y-116787920D02*
X128970692Y-116948939D01*
X128970692Y-116948939D02*
X128991762Y-117081968D01*
X128991762Y-117081968D02*
X128974307Y-117187007D01*
X81884949Y-129128258D02*
X81895174Y-128547083D01*
X81422653Y-128792381D02*
X82010439Y-127983364D01*
X82010439Y-127983364D02*
X82318636Y-128207282D01*
X82318636Y-128207282D02*
X82367695Y-128301786D01*
X82367695Y-128301786D02*
X82378230Y-128368300D01*
X82378230Y-128368300D02*
X82360775Y-128473339D01*
X82360775Y-128473339D02*
X82276806Y-128588913D01*
X82276806Y-128588913D02*
X82182301Y-128637973D01*
X82182301Y-128637973D02*
X82115787Y-128648508D01*
X82115787Y-128648508D02*
X82010748Y-128631053D01*
X82010748Y-128631053D02*
X81702551Y-128407134D01*
X82655441Y-129688053D02*
X82193146Y-129352176D01*
X82424293Y-129520115D02*
X83012079Y-128711098D01*
X83012079Y-128711098D02*
X82851060Y-128770692D01*
X82851060Y-128770692D02*
X82718031Y-128791762D01*
X82718031Y-128791762D02*
X82612992Y-128774307D01*
X125359526Y-77770028D02*
X125548844Y-77220458D01*
X125023649Y-77307732D02*
X125832666Y-76719947D01*
X125832666Y-76719947D02*
X126056584Y-77028144D01*
X126056584Y-77028144D02*
X126074039Y-77133183D01*
X126074039Y-77133183D02*
X126063504Y-77199697D01*
X126063504Y-77199697D02*
X126014445Y-77294201D01*
X126014445Y-77294201D02*
X125898871Y-77378171D01*
X125898871Y-77378171D02*
X125793832Y-77395626D01*
X125793832Y-77395626D02*
X125727317Y-77385091D01*
X125727317Y-77385091D02*
X125632813Y-77336031D01*
X125632813Y-77336031D02*
X125408895Y-77027834D01*
X125919322Y-78540520D02*
X125583444Y-78078225D01*
X125751383Y-78309372D02*
X126560400Y-77721587D01*
X126560400Y-77721587D02*
X126388847Y-77728507D01*
X126388847Y-77728507D02*
X126255818Y-77707437D01*
X126255818Y-77707437D02*
X126161314Y-77658378D01*
X130925978Y-86684775D02*
X131275857Y-86220606D01*
X130749397Y-86141314D02*
X131700454Y-85832297D01*
X131700454Y-85832297D02*
X131818174Y-86194605D01*
X131818174Y-86194605D02*
X131802316Y-86299897D01*
X131802316Y-86299897D02*
X131771743Y-86359900D01*
X131771743Y-86359900D02*
X131695881Y-86434619D01*
X131695881Y-86434619D02*
X131560016Y-86478764D01*
X131560016Y-86478764D02*
X131454724Y-86462906D01*
X131454724Y-86462906D02*
X131394720Y-86432332D01*
X131394720Y-86432332D02*
X131320002Y-86356471D01*
X131320002Y-86356471D02*
X131202281Y-85994164D01*
X131220280Y-87590543D02*
X131043699Y-87047083D01*
X131131990Y-87318813D02*
X132083046Y-87009796D01*
X132083046Y-87009796D02*
X131917751Y-86963365D01*
X131917751Y-86963365D02*
X131797744Y-86902218D01*
X131797744Y-86902218D02*
X131723025Y-86826356D01*
X122294972Y-126091367D02*
X121745402Y-125902049D01*
X121832676Y-126427244D02*
X121244891Y-125618227D01*
X121244891Y-125618227D02*
X121553088Y-125394309D01*
X121553088Y-125394309D02*
X121658127Y-125376854D01*
X121658127Y-125376854D02*
X121724641Y-125387389D01*
X121724641Y-125387389D02*
X121819145Y-125436448D01*
X121819145Y-125436448D02*
X121903115Y-125552022D01*
X121903115Y-125552022D02*
X121920570Y-125657061D01*
X121920570Y-125657061D02*
X121910035Y-125723576D01*
X121910035Y-125723576D02*
X121860975Y-125818080D01*
X121860975Y-125818080D02*
X121552778Y-126041998D01*
X123065464Y-125531571D02*
X122603169Y-125867449D01*
X122834316Y-125699510D02*
X122246531Y-124890493D01*
X122246531Y-124890493D02*
X122253451Y-125062046D01*
X122253451Y-125062046D02*
X122232381Y-125195075D01*
X122232381Y-125195075D02*
X122183322Y-125289579D01*
X77970028Y-74440473D02*
X77420458Y-74251155D01*
X77507732Y-74776350D02*
X76919947Y-73967333D01*
X76919947Y-73967333D02*
X77228144Y-73743415D01*
X77228144Y-73743415D02*
X77333183Y-73725960D01*
X77333183Y-73725960D02*
X77399697Y-73736495D01*
X77399697Y-73736495D02*
X77494201Y-73785554D01*
X77494201Y-73785554D02*
X77578171Y-73901128D01*
X77578171Y-73901128D02*
X77595626Y-74006167D01*
X77595626Y-74006167D02*
X77585091Y-74072682D01*
X77585091Y-74072682D02*
X77536031Y-74167186D01*
X77536031Y-74167186D02*
X77227834Y-74391104D01*
X78740520Y-73880677D02*
X78278225Y-74216555D01*
X78509372Y-74048616D02*
X77921587Y-73239599D01*
X77921587Y-73239599D02*
X77928507Y-73411152D01*
X77928507Y-73411152D02*
X77907437Y-73544181D01*
X77907437Y-73544181D02*
X77858378Y-73638685D01*
X102583333Y-134174819D02*
X102250000Y-133698628D01*
X102011905Y-134174819D02*
X102011905Y-133174819D01*
X102011905Y-133174819D02*
X102392857Y-133174819D01*
X102392857Y-133174819D02*
X102488095Y-133222438D01*
X102488095Y-133222438D02*
X102535714Y-133270057D01*
X102535714Y-133270057D02*
X102583333Y-133365295D01*
X102583333Y-133365295D02*
X102583333Y-133508152D01*
X102583333Y-133508152D02*
X102535714Y-133603390D01*
X102535714Y-133603390D02*
X102488095Y-133651009D01*
X102488095Y-133651009D02*
X102392857Y-133698628D01*
X102392857Y-133698628D02*
X102011905Y-133698628D01*
X103535714Y-134174819D02*
X102964286Y-134174819D01*
X103250000Y-134174819D02*
X103250000Y-133174819D01*
X103250000Y-133174819D02*
X103154762Y-133317676D01*
X103154762Y-133317676D02*
X103059524Y-133412914D01*
X103059524Y-133412914D02*
X102964286Y-133460533D01*
X134374819Y-97216666D02*
X133898628Y-97549999D01*
X134374819Y-97788094D02*
X133374819Y-97788094D01*
X133374819Y-97788094D02*
X133374819Y-97407142D01*
X133374819Y-97407142D02*
X133422438Y-97311904D01*
X133422438Y-97311904D02*
X133470057Y-97264285D01*
X133470057Y-97264285D02*
X133565295Y-97216666D01*
X133565295Y-97216666D02*
X133708152Y-97216666D01*
X133708152Y-97216666D02*
X133803390Y-97264285D01*
X133803390Y-97264285D02*
X133851009Y-97311904D01*
X133851009Y-97311904D02*
X133898628Y-97407142D01*
X133898628Y-97407142D02*
X133898628Y-97788094D01*
X134374819Y-96264285D02*
X134374819Y-96835713D01*
X134374819Y-96549999D02*
X133374819Y-96549999D01*
X133374819Y-96549999D02*
X133517676Y-96645237D01*
X133517676Y-96645237D02*
X133612914Y-96740475D01*
X133612914Y-96740475D02*
X133660533Y-96835713D01*
X91834493Y-133290689D02*
X91664625Y-132734800D01*
X91291032Y-133114108D02*
X91600049Y-132163052D01*
X91600049Y-132163052D02*
X91962356Y-132280773D01*
X91962356Y-132280773D02*
X92038218Y-132355491D01*
X92038218Y-132355491D02*
X92068791Y-132415495D01*
X92068791Y-132415495D02*
X92084649Y-132520787D01*
X92084649Y-132520787D02*
X92040504Y-132656652D01*
X92040504Y-132656652D02*
X91965785Y-132732513D01*
X91965785Y-132732513D02*
X91905782Y-132763087D01*
X91905782Y-132763087D02*
X91800490Y-132778945D01*
X91800490Y-132778945D02*
X91438183Y-132661224D01*
X92740261Y-133584991D02*
X92196800Y-133408410D01*
X92468530Y-133496701D02*
X92777547Y-132545644D01*
X92777547Y-132545644D02*
X92642825Y-132652079D01*
X92642825Y-132652079D02*
X92522818Y-132713226D01*
X92522818Y-132713226D02*
X92417526Y-132729084D01*
X102011905Y-141974819D02*
X102011905Y-140974819D01*
X102011905Y-140974819D02*
X102250000Y-140974819D01*
X102250000Y-140974819D02*
X102392857Y-141022438D01*
X102392857Y-141022438D02*
X102488095Y-141117676D01*
X102488095Y-141117676D02*
X102535714Y-141212914D01*
X102535714Y-141212914D02*
X102583333Y-141403390D01*
X102583333Y-141403390D02*
X102583333Y-141546247D01*
X102583333Y-141546247D02*
X102535714Y-141736723D01*
X102535714Y-141736723D02*
X102488095Y-141831961D01*
X102488095Y-141831961D02*
X102392857Y-141927200D01*
X102392857Y-141927200D02*
X102250000Y-141974819D01*
X102250000Y-141974819D02*
X102011905Y-141974819D01*
X102916667Y-140974819D02*
X103535714Y-140974819D01*
X103535714Y-140974819D02*
X103202381Y-141355771D01*
X103202381Y-141355771D02*
X103345238Y-141355771D01*
X103345238Y-141355771D02*
X103440476Y-141403390D01*
X103440476Y-141403390D02*
X103488095Y-141451009D01*
X103488095Y-141451009D02*
X103535714Y-141546247D01*
X103535714Y-141546247D02*
X103535714Y-141784342D01*
X103535714Y-141784342D02*
X103488095Y-141879580D01*
X103488095Y-141879580D02*
X103440476Y-141927200D01*
X103440476Y-141927200D02*
X103345238Y-141974819D01*
X103345238Y-141974819D02*
X103059524Y-141974819D01*
X103059524Y-141974819D02*
X102964286Y-141927200D01*
X102964286Y-141927200D02*
X102916667Y-141879580D01*
X71211726Y-82489292D02*
X70630551Y-82479067D01*
X70875849Y-82951588D02*
X70066832Y-82363802D01*
X70066832Y-82363802D02*
X70290750Y-82055605D01*
X70290750Y-82055605D02*
X70385254Y-82006546D01*
X70385254Y-82006546D02*
X70451768Y-81996011D01*
X70451768Y-81996011D02*
X70556807Y-82013466D01*
X70556807Y-82013466D02*
X70672381Y-82097435D01*
X70672381Y-82097435D02*
X70721441Y-82191940D01*
X70721441Y-82191940D02*
X70731976Y-82258454D01*
X70731976Y-82258454D02*
X70714521Y-82363493D01*
X70714521Y-82363493D02*
X70490602Y-82671690D01*
X71771521Y-81718800D02*
X71435644Y-82181095D01*
X71603583Y-81949948D02*
X70794566Y-81362162D01*
X70794566Y-81362162D02*
X70854160Y-81523181D01*
X70854160Y-81523181D02*
X70875230Y-81656210D01*
X70875230Y-81656210D02*
X70857775Y-81761249D01*
X114877887Y-95586411D02*
X114810543Y-95586411D01*
X114810543Y-95586411D02*
X114675856Y-95519067D01*
X114675856Y-95519067D02*
X114608513Y-95451724D01*
X114608513Y-95451724D02*
X114541169Y-95317037D01*
X114541169Y-95317037D02*
X114541169Y-95182350D01*
X114541169Y-95182350D02*
X114574841Y-95081335D01*
X114574841Y-95081335D02*
X114675856Y-94912976D01*
X114675856Y-94912976D02*
X114776871Y-94811961D01*
X114776871Y-94811961D02*
X114945230Y-94710945D01*
X114945230Y-94710945D02*
X115046245Y-94677274D01*
X115046245Y-94677274D02*
X115180932Y-94677274D01*
X115180932Y-94677274D02*
X115315619Y-94744617D01*
X115315619Y-94744617D02*
X115382963Y-94811961D01*
X115382963Y-94811961D02*
X115450306Y-94946648D01*
X115450306Y-94946648D02*
X115450306Y-95013991D01*
X116157413Y-95586411D02*
X115820696Y-95249693D01*
X115820696Y-95249693D02*
X115450306Y-95552739D01*
X115450306Y-95552739D02*
X115517650Y-95552739D01*
X115517650Y-95552739D02*
X115618665Y-95586411D01*
X115618665Y-95586411D02*
X115787024Y-95754770D01*
X115787024Y-95754770D02*
X115820696Y-95855785D01*
X115820696Y-95855785D02*
X115820696Y-95923128D01*
X115820696Y-95923128D02*
X115787024Y-96024144D01*
X115787024Y-96024144D02*
X115618665Y-96192502D01*
X115618665Y-96192502D02*
X115517650Y-96226174D01*
X115517650Y-96226174D02*
X115450306Y-96226174D01*
X115450306Y-96226174D02*
X115349291Y-96192502D01*
X115349291Y-96192502D02*
X115180932Y-96024144D01*
X115180932Y-96024144D02*
X115147261Y-95923128D01*
X115147261Y-95923128D02*
X115147261Y-95855785D01*
D10*
X121031788Y-113195707D02*
X121604208Y-112623287D01*
X121604208Y-112623287D02*
X121637879Y-112522272D01*
X121637879Y-112522272D02*
X121637879Y-112454929D01*
X121637879Y-112454929D02*
X121604208Y-112353913D01*
X121604208Y-112353913D02*
X121469521Y-112219226D01*
X121469521Y-112219226D02*
X121368505Y-112185555D01*
X121368505Y-112185555D02*
X121301162Y-112185555D01*
X121301162Y-112185555D02*
X121200147Y-112219226D01*
X121200147Y-112219226D02*
X120627727Y-112791646D01*
X120627727Y-111377433D02*
X121031788Y-111781494D01*
X120829757Y-111579463D02*
X120122651Y-112286570D01*
X120122651Y-112286570D02*
X120291009Y-112252898D01*
X120291009Y-112252898D02*
X120425696Y-112252898D01*
X120425696Y-112252898D02*
X120526712Y-112286570D01*
D11*
X86884775Y-68874021D02*
X86420606Y-68524142D01*
X86341314Y-69050602D02*
X86032297Y-68099545D01*
X86032297Y-68099545D02*
X86394605Y-67981825D01*
X86394605Y-67981825D02*
X86499897Y-67997683D01*
X86499897Y-67997683D02*
X86559900Y-68028256D01*
X86559900Y-68028256D02*
X86634619Y-68104118D01*
X86634619Y-68104118D02*
X86678764Y-68239983D01*
X86678764Y-68239983D02*
X86662906Y-68345275D01*
X86662906Y-68345275D02*
X86632332Y-68405279D01*
X86632332Y-68405279D02*
X86556471Y-68479997D01*
X86556471Y-68479997D02*
X86194164Y-68597718D01*
X87790543Y-68579719D02*
X87247083Y-68756300D01*
X87518813Y-68668009D02*
X87209796Y-67716953D01*
X87209796Y-67716953D02*
X87163365Y-67882248D01*
X87163365Y-67882248D02*
X87102218Y-68002255D01*
X87102218Y-68002255D02*
X87026356Y-68076974D01*
X97083333Y-66334819D02*
X96750000Y-65858628D01*
X96511905Y-66334819D02*
X96511905Y-65334819D01*
X96511905Y-65334819D02*
X96892857Y-65334819D01*
X96892857Y-65334819D02*
X96988095Y-65382438D01*
X96988095Y-65382438D02*
X97035714Y-65430057D01*
X97035714Y-65430057D02*
X97083333Y-65525295D01*
X97083333Y-65525295D02*
X97083333Y-65668152D01*
X97083333Y-65668152D02*
X97035714Y-65763390D01*
X97035714Y-65763390D02*
X96988095Y-65811009D01*
X96988095Y-65811009D02*
X96892857Y-65858628D01*
X96892857Y-65858628D02*
X96511905Y-65858628D01*
X98035714Y-66334819D02*
X97464286Y-66334819D01*
X97750000Y-66334819D02*
X97750000Y-65334819D01*
X97750000Y-65334819D02*
X97654762Y-65477676D01*
X97654762Y-65477676D02*
X97559524Y-65572914D01*
X97559524Y-65572914D02*
X97464286Y-65620533D01*
X72923007Y-68466018D02*
X72335222Y-67657001D01*
X72335222Y-67657001D02*
X72527845Y-67517052D01*
X72527845Y-67517052D02*
X72671409Y-67471607D01*
X72671409Y-67471607D02*
X72804437Y-67492677D01*
X72804437Y-67492677D02*
X72898942Y-67541737D01*
X72898942Y-67541737D02*
X73049425Y-67667845D01*
X73049425Y-67667845D02*
X73133395Y-67783419D01*
X73133395Y-67783419D02*
X73206829Y-67965507D01*
X73206829Y-67965507D02*
X73224284Y-68070546D01*
X73224284Y-68070546D02*
X73203214Y-68203575D01*
X73203214Y-68203575D02*
X73115630Y-68326069D01*
X73115630Y-68326069D02*
X72923007Y-68466018D01*
X73067190Y-67125195D02*
X73568010Y-66761328D01*
X73568010Y-66761328D02*
X73522256Y-67265454D01*
X73522256Y-67265454D02*
X73637829Y-67181484D01*
X73637829Y-67181484D02*
X73742868Y-67164029D01*
X73742868Y-67164029D02*
X73809383Y-67174564D01*
X73809383Y-67174564D02*
X73903887Y-67223624D01*
X73903887Y-67223624D02*
X74043836Y-67416247D01*
X74043836Y-67416247D02*
X74061291Y-67521286D01*
X74061291Y-67521286D02*
X74050756Y-67587800D01*
X74050756Y-67587800D02*
X74001697Y-67682304D01*
X74001697Y-67682304D02*
X73770549Y-67850243D01*
X73770549Y-67850243D02*
X73665510Y-67867698D01*
X73665510Y-67867698D02*
X73598995Y-67857163D01*
D10*
X98695238Y-99133609D02*
X98838095Y-99181228D01*
X98838095Y-99181228D02*
X98885714Y-99228847D01*
X98885714Y-99228847D02*
X98933333Y-99324085D01*
X98933333Y-99324085D02*
X98933333Y-99466942D01*
X98933333Y-99466942D02*
X98885714Y-99562180D01*
X98885714Y-99562180D02*
X98838095Y-99609800D01*
X98838095Y-99609800D02*
X98742857Y-99657419D01*
X98742857Y-99657419D02*
X98361905Y-99657419D01*
X98361905Y-99657419D02*
X98361905Y-98657419D01*
X98361905Y-98657419D02*
X98695238Y-98657419D01*
X98695238Y-98657419D02*
X98790476Y-98705038D01*
X98790476Y-98705038D02*
X98838095Y-98752657D01*
X98838095Y-98752657D02*
X98885714Y-98847895D01*
X98885714Y-98847895D02*
X98885714Y-98943133D01*
X98885714Y-98943133D02*
X98838095Y-99038371D01*
X98838095Y-99038371D02*
X98790476Y-99085990D01*
X98790476Y-99085990D02*
X98695238Y-99133609D01*
X98695238Y-99133609D02*
X98361905Y-99133609D01*
X99933333Y-99657419D02*
X99600000Y-99181228D01*
X99361905Y-99657419D02*
X99361905Y-98657419D01*
X99361905Y-98657419D02*
X99742857Y-98657419D01*
X99742857Y-98657419D02*
X99838095Y-98705038D01*
X99838095Y-98705038D02*
X99885714Y-98752657D01*
X99885714Y-98752657D02*
X99933333Y-98847895D01*
X99933333Y-98847895D02*
X99933333Y-98990752D01*
X99933333Y-98990752D02*
X99885714Y-99085990D01*
X99885714Y-99085990D02*
X99838095Y-99133609D01*
X99838095Y-99133609D02*
X99742857Y-99181228D01*
X99742857Y-99181228D02*
X99361905Y-99181228D01*
X100361905Y-99657419D02*
X100361905Y-98657419D01*
X100361905Y-98657419D02*
X100600000Y-98657419D01*
X100600000Y-98657419D02*
X100742857Y-98705038D01*
X100742857Y-98705038D02*
X100838095Y-98800276D01*
X100838095Y-98800276D02*
X100885714Y-98895514D01*
X100885714Y-98895514D02*
X100933333Y-99085990D01*
X100933333Y-99085990D02*
X100933333Y-99228847D01*
X100933333Y-99228847D02*
X100885714Y-99419323D01*
X100885714Y-99419323D02*
X100838095Y-99514561D01*
X100838095Y-99514561D02*
X100742857Y-99609800D01*
X100742857Y-99609800D02*
X100600000Y-99657419D01*
X100600000Y-99657419D02*
X100361905Y-99657419D01*
X101885714Y-99657419D02*
X101314286Y-99657419D01*
X101600000Y-99657419D02*
X101600000Y-98657419D01*
X101600000Y-98657419D02*
X101504762Y-98800276D01*
X101504762Y-98800276D02*
X101409524Y-98895514D01*
X101409524Y-98895514D02*
X101314286Y-98943133D01*
D11*
X107567395Y-67071421D02*
X107397527Y-66515532D01*
X107023934Y-66894840D02*
X107332951Y-65943784D01*
X107332951Y-65943784D02*
X107695258Y-66061505D01*
X107695258Y-66061505D02*
X107771120Y-66136223D01*
X107771120Y-66136223D02*
X107801693Y-66196227D01*
X107801693Y-66196227D02*
X107817551Y-66301519D01*
X107817551Y-66301519D02*
X107773406Y-66437384D01*
X107773406Y-66437384D02*
X107698687Y-66513245D01*
X107698687Y-66513245D02*
X107638684Y-66543819D01*
X107638684Y-66543819D02*
X107533392Y-66559677D01*
X107533392Y-66559677D02*
X107171085Y-66441956D01*
X108473163Y-67365723D02*
X107929702Y-67189142D01*
X108201432Y-67277433D02*
X108510449Y-66326376D01*
X108510449Y-66326376D02*
X108375727Y-66432811D01*
X108375727Y-66432811D02*
X108255720Y-66493958D01*
X108255720Y-66493958D02*
X108150428Y-66509816D01*
X121433136Y-64365517D02*
X122020922Y-63556500D01*
X122020922Y-63556500D02*
X122213545Y-63696448D01*
X122213545Y-63696448D02*
X122301129Y-63818942D01*
X122301129Y-63818942D02*
X122322198Y-63951971D01*
X122322198Y-63951971D02*
X122304744Y-64057010D01*
X122304744Y-64057010D02*
X122231309Y-64239098D01*
X122231309Y-64239098D02*
X122147340Y-64354672D01*
X122147340Y-64354672D02*
X121996856Y-64480781D01*
X121996856Y-64480781D02*
X121902352Y-64529841D01*
X121902352Y-64529841D02*
X121769323Y-64550910D01*
X121769323Y-64550910D02*
X121625759Y-64505465D01*
X121625759Y-64505465D02*
X121433136Y-64365517D01*
X122752889Y-64088305D02*
X123253709Y-64452172D01*
X123253709Y-64452172D02*
X122760119Y-64564441D01*
X122760119Y-64564441D02*
X122875693Y-64648410D01*
X122875693Y-64648410D02*
X122924752Y-64742914D01*
X122924752Y-64742914D02*
X122935287Y-64809429D01*
X122935287Y-64809429D02*
X122917832Y-64914468D01*
X122917832Y-64914468D02*
X122777883Y-65107091D01*
X122777883Y-65107091D02*
X122683379Y-65156150D01*
X122683379Y-65156150D02*
X122616865Y-65166685D01*
X122616865Y-65166685D02*
X122511826Y-65149230D01*
X122511826Y-65149230D02*
X122280678Y-64981292D01*
X122280678Y-64981292D02*
X122231619Y-64886787D01*
X122231619Y-64886787D02*
X122221084Y-64820273D01*
X58734819Y-103288094D02*
X57734819Y-103288094D01*
X57734819Y-103288094D02*
X57734819Y-103049999D01*
X57734819Y-103049999D02*
X57782438Y-102907142D01*
X57782438Y-102907142D02*
X57877676Y-102811904D01*
X57877676Y-102811904D02*
X57972914Y-102764285D01*
X57972914Y-102764285D02*
X58163390Y-102716666D01*
X58163390Y-102716666D02*
X58306247Y-102716666D01*
X58306247Y-102716666D02*
X58496723Y-102764285D01*
X58496723Y-102764285D02*
X58591961Y-102811904D01*
X58591961Y-102811904D02*
X58687200Y-102907142D01*
X58687200Y-102907142D02*
X58734819Y-103049999D01*
X58734819Y-103049999D02*
X58734819Y-103288094D01*
X57734819Y-102383332D02*
X57734819Y-101764285D01*
X57734819Y-101764285D02*
X58115771Y-102097618D01*
X58115771Y-102097618D02*
X58115771Y-101954761D01*
X58115771Y-101954761D02*
X58163390Y-101859523D01*
X58163390Y-101859523D02*
X58211009Y-101811904D01*
X58211009Y-101811904D02*
X58306247Y-101764285D01*
X58306247Y-101764285D02*
X58544342Y-101764285D01*
X58544342Y-101764285D02*
X58639580Y-101811904D01*
X58639580Y-101811904D02*
X58687200Y-101859523D01*
X58687200Y-101859523D02*
X58734819Y-101954761D01*
X58734819Y-101954761D02*
X58734819Y-102240475D01*
X58734819Y-102240475D02*
X58687200Y-102335713D01*
X58687200Y-102335713D02*
X58639580Y-102383332D01*
X131333981Y-72723007D02*
X132142998Y-72135222D01*
X132142998Y-72135222D02*
X132282947Y-72327845D01*
X132282947Y-72327845D02*
X132328392Y-72471409D01*
X132328392Y-72471409D02*
X132307322Y-72604437D01*
X132307322Y-72604437D02*
X132258262Y-72698942D01*
X132258262Y-72698942D02*
X132132154Y-72849425D01*
X132132154Y-72849425D02*
X132016580Y-72933395D01*
X132016580Y-72933395D02*
X131834492Y-73006829D01*
X131834492Y-73006829D02*
X131729453Y-73024284D01*
X131729453Y-73024284D02*
X131596424Y-73003214D01*
X131596424Y-73003214D02*
X131473930Y-72915630D01*
X131473930Y-72915630D02*
X131333981Y-72723007D01*
X132674804Y-72867190D02*
X133038671Y-73368010D01*
X133038671Y-73368010D02*
X132534545Y-73322256D01*
X132534545Y-73322256D02*
X132618515Y-73437829D01*
X132618515Y-73437829D02*
X132635970Y-73542868D01*
X132635970Y-73542868D02*
X132625435Y-73609383D01*
X132625435Y-73609383D02*
X132576375Y-73703887D01*
X132576375Y-73703887D02*
X132383752Y-73843836D01*
X132383752Y-73843836D02*
X132278713Y-73861291D01*
X132278713Y-73861291D02*
X132212199Y-73850756D01*
X132212199Y-73850756D02*
X132117695Y-73801697D01*
X132117695Y-73801697D02*
X131949756Y-73570549D01*
X131949756Y-73570549D02*
X131932301Y-73465510D01*
X131932301Y-73465510D02*
X131942836Y-73398995D01*
X126417401Y-132737576D02*
X125829616Y-131928559D01*
X125829616Y-131928559D02*
X126022239Y-131788610D01*
X126022239Y-131788610D02*
X126165803Y-131743165D01*
X126165803Y-131743165D02*
X126298831Y-131764235D01*
X126298831Y-131764235D02*
X126393336Y-131813295D01*
X126393336Y-131813295D02*
X126543819Y-131939403D01*
X126543819Y-131939403D02*
X126627789Y-132054977D01*
X126627789Y-132054977D02*
X126701223Y-132237065D01*
X126701223Y-132237065D02*
X126718678Y-132342104D01*
X126718678Y-132342104D02*
X126697608Y-132475133D01*
X126697608Y-132475133D02*
X126610024Y-132597627D01*
X126610024Y-132597627D02*
X126417401Y-132737576D01*
X126561584Y-131396753D02*
X127062404Y-131032886D01*
X127062404Y-131032886D02*
X127016650Y-131537012D01*
X127016650Y-131537012D02*
X127132223Y-131453042D01*
X127132223Y-131453042D02*
X127237262Y-131435587D01*
X127237262Y-131435587D02*
X127303777Y-131446122D01*
X127303777Y-131446122D02*
X127398281Y-131495182D01*
X127398281Y-131495182D02*
X127538230Y-131687805D01*
X127538230Y-131687805D02*
X127555685Y-131792844D01*
X127555685Y-131792844D02*
X127545150Y-131859358D01*
X127545150Y-131859358D02*
X127496091Y-131953862D01*
X127496091Y-131953862D02*
X127264943Y-132121801D01*
X127264943Y-132121801D02*
X127159904Y-132139256D01*
X127159904Y-132139256D02*
X127093389Y-132128721D01*
X122677887Y-88086411D02*
X122610543Y-88086411D01*
X122610543Y-88086411D02*
X122475856Y-88019067D01*
X122475856Y-88019067D02*
X122408513Y-87951724D01*
X122408513Y-87951724D02*
X122341169Y-87817037D01*
X122341169Y-87817037D02*
X122341169Y-87682350D01*
X122341169Y-87682350D02*
X122374841Y-87581335D01*
X122374841Y-87581335D02*
X122475856Y-87412976D01*
X122475856Y-87412976D02*
X122576871Y-87311961D01*
X122576871Y-87311961D02*
X122745230Y-87210945D01*
X122745230Y-87210945D02*
X122846245Y-87177274D01*
X122846245Y-87177274D02*
X122980932Y-87177274D01*
X122980932Y-87177274D02*
X123115619Y-87244617D01*
X123115619Y-87244617D02*
X123182963Y-87311961D01*
X123182963Y-87311961D02*
X123250306Y-87446648D01*
X123250306Y-87446648D02*
X123250306Y-87513991D01*
X123519680Y-87783365D02*
X123587024Y-87783365D01*
X123587024Y-87783365D02*
X123688039Y-87817037D01*
X123688039Y-87817037D02*
X123856398Y-87985396D01*
X123856398Y-87985396D02*
X123890070Y-88086411D01*
X123890070Y-88086411D02*
X123890070Y-88153754D01*
X123890070Y-88153754D02*
X123856398Y-88254770D01*
X123856398Y-88254770D02*
X123789054Y-88322113D01*
X123789054Y-88322113D02*
X123654367Y-88389457D01*
X123654367Y-88389457D02*
X122846245Y-88389457D01*
X122846245Y-88389457D02*
X123283978Y-88827189D01*
X97888095Y-79006819D02*
X98459523Y-79006819D01*
X98173809Y-80006819D02*
X98173809Y-79006819D01*
X98792857Y-80006819D02*
X98792857Y-79006819D01*
X98792857Y-79006819D02*
X99173809Y-79006819D01*
X99173809Y-79006819D02*
X99269047Y-79054438D01*
X99269047Y-79054438D02*
X99316666Y-79102057D01*
X99316666Y-79102057D02*
X99364285Y-79197295D01*
X99364285Y-79197295D02*
X99364285Y-79340152D01*
X99364285Y-79340152D02*
X99316666Y-79435390D01*
X99316666Y-79435390D02*
X99269047Y-79483009D01*
X99269047Y-79483009D02*
X99173809Y-79530628D01*
X99173809Y-79530628D02*
X98792857Y-79530628D01*
X100316666Y-80006819D02*
X99745238Y-80006819D01*
X100030952Y-80006819D02*
X100030952Y-79006819D01*
X100030952Y-79006819D02*
X99935714Y-79149676D01*
X99935714Y-79149676D02*
X99840476Y-79244914D01*
X99840476Y-79244914D02*
X99745238Y-79292533D01*
X140732349Y-110919299D02*
X139781293Y-110610282D01*
X139781293Y-110610282D02*
X139854868Y-110383840D01*
X139854868Y-110383840D02*
X139944302Y-110262690D01*
X139944302Y-110262690D02*
X140064309Y-110201543D01*
X140064309Y-110201543D02*
X140169601Y-110185685D01*
X140169601Y-110185685D02*
X140365470Y-110199257D01*
X140365470Y-110199257D02*
X140501335Y-110243402D01*
X140501335Y-110243402D02*
X140667773Y-110347551D01*
X140667773Y-110347551D02*
X140743635Y-110422270D01*
X140743635Y-110422270D02*
X140804782Y-110542277D01*
X140804782Y-110542277D02*
X140805925Y-110692857D01*
X140805925Y-110692857D02*
X140732349Y-110919299D01*
X140060880Y-109749802D02*
X140252176Y-109161053D01*
X140252176Y-109161053D02*
X140511477Y-109595793D01*
X140511477Y-109595793D02*
X140555623Y-109459928D01*
X140555623Y-109459928D02*
X140630341Y-109384066D01*
X140630341Y-109384066D02*
X140690345Y-109353493D01*
X140690345Y-109353493D02*
X140795637Y-109337634D01*
X140795637Y-109337634D02*
X141022079Y-109411210D01*
X141022079Y-109411210D02*
X141097940Y-109485928D01*
X141097940Y-109485928D02*
X141128514Y-109545932D01*
X141128514Y-109545932D02*
X141144372Y-109651224D01*
X141144372Y-109651224D02*
X141056081Y-109922954D01*
X141056081Y-109922954D02*
X140981363Y-109998816D01*
X140981363Y-109998816D02*
X140921359Y-110029389D01*
X117310707Y-71011726D02*
X117320932Y-70430551D01*
X116848411Y-70675849D02*
X117436197Y-69866832D01*
X117436197Y-69866832D02*
X117744394Y-70090750D01*
X117744394Y-70090750D02*
X117793453Y-70185254D01*
X117793453Y-70185254D02*
X117803988Y-70251768D01*
X117803988Y-70251768D02*
X117786533Y-70356807D01*
X117786533Y-70356807D02*
X117702564Y-70472381D01*
X117702564Y-70472381D02*
X117608059Y-70521441D01*
X117608059Y-70521441D02*
X117541545Y-70531976D01*
X117541545Y-70531976D02*
X117436506Y-70514521D01*
X117436506Y-70514521D02*
X117128309Y-70290602D01*
X118081199Y-71571521D02*
X117618904Y-71235644D01*
X117850051Y-71403583D02*
X118437837Y-70594566D01*
X118437837Y-70594566D02*
X118276818Y-70654160D01*
X118276818Y-70654160D02*
X118143789Y-70675230D01*
X118143789Y-70675230D02*
X118038750Y-70657775D01*
X67271421Y-92232604D02*
X66715532Y-92402472D01*
X67094840Y-92776065D02*
X66143784Y-92467048D01*
X66143784Y-92467048D02*
X66261505Y-92104741D01*
X66261505Y-92104741D02*
X66336223Y-92028879D01*
X66336223Y-92028879D02*
X66396227Y-91998306D01*
X66396227Y-91998306D02*
X66501519Y-91982448D01*
X66501519Y-91982448D02*
X66637384Y-92026593D01*
X66637384Y-92026593D02*
X66713245Y-92101312D01*
X66713245Y-92101312D02*
X66743819Y-92161315D01*
X66743819Y-92161315D02*
X66759677Y-92266607D01*
X66759677Y-92266607D02*
X66641956Y-92628914D01*
X67565723Y-91326836D02*
X67389142Y-91870297D01*
X67477433Y-91598567D02*
X66526376Y-91289550D01*
X66526376Y-91289550D02*
X66632811Y-91424272D01*
X66632811Y-91424272D02*
X66693958Y-91544279D01*
X66693958Y-91544279D02*
X66709816Y-91649571D01*
X108814772Y-91007731D02*
X108242352Y-91580151D01*
X108242352Y-91580151D02*
X108208680Y-91681166D01*
X108208680Y-91681166D02*
X108208680Y-91748510D01*
X108208680Y-91748510D02*
X108242352Y-91849525D01*
X108242352Y-91849525D02*
X108377039Y-91984212D01*
X108377039Y-91984212D02*
X108478054Y-92017884D01*
X108478054Y-92017884D02*
X108545398Y-92017884D01*
X108545398Y-92017884D02*
X108646413Y-91984212D01*
X108646413Y-91984212D02*
X109218833Y-91411792D01*
X109454535Y-91782182D02*
X109521878Y-91782182D01*
X109521878Y-91782182D02*
X109622894Y-91815853D01*
X109622894Y-91815853D02*
X109791252Y-91984212D01*
X109791252Y-91984212D02*
X109824924Y-92085227D01*
X109824924Y-92085227D02*
X109824924Y-92152571D01*
X109824924Y-92152571D02*
X109791252Y-92253586D01*
X109791252Y-92253586D02*
X109723909Y-92320930D01*
X109723909Y-92320930D02*
X109589222Y-92388273D01*
X109589222Y-92388273D02*
X108781100Y-92388273D01*
X108781100Y-92388273D02*
X109218833Y-92826006D01*
X138167638Y-83730982D02*
X139118695Y-83421965D01*
X139118695Y-83421965D02*
X139192270Y-83648408D01*
X139192270Y-83648408D02*
X139191127Y-83798988D01*
X139191127Y-83798988D02*
X139129980Y-83918995D01*
X139129980Y-83918995D02*
X139054119Y-83993713D01*
X139054119Y-83993713D02*
X138887680Y-84097862D01*
X138887680Y-84097862D02*
X138751815Y-84142007D01*
X138751815Y-84142007D02*
X138555946Y-84155579D01*
X138555946Y-84155579D02*
X138450654Y-84139721D01*
X138450654Y-84139721D02*
X138330647Y-84078575D01*
X138330647Y-84078575D02*
X138241214Y-83957425D01*
X138241214Y-83957425D02*
X138167638Y-83730982D01*
X139398281Y-84282445D02*
X139589578Y-84871194D01*
X139589578Y-84871194D02*
X139124265Y-84671896D01*
X139124265Y-84671896D02*
X139168410Y-84807762D01*
X139168410Y-84807762D02*
X139152552Y-84913054D01*
X139152552Y-84913054D02*
X139121978Y-84973057D01*
X139121978Y-84973057D02*
X139046117Y-85047776D01*
X139046117Y-85047776D02*
X138819675Y-85121351D01*
X138819675Y-85121351D02*
X138714383Y-85105493D01*
X138714383Y-85105493D02*
X138654379Y-85074920D01*
X138654379Y-85074920D02*
X138579661Y-84999058D01*
X138579661Y-84999058D02*
X138491370Y-84727327D01*
X138491370Y-84727327D02*
X138507228Y-84622035D01*
X138507228Y-84622035D02*
X138537802Y-84562032D01*
X135302713Y-122962071D02*
X134493696Y-122374285D01*
X134493696Y-122374285D02*
X134633644Y-122181662D01*
X134633644Y-122181662D02*
X134756138Y-122094078D01*
X134756138Y-122094078D02*
X134889167Y-122073009D01*
X134889167Y-122073009D02*
X134994206Y-122090463D01*
X134994206Y-122090463D02*
X135176294Y-122163898D01*
X135176294Y-122163898D02*
X135291868Y-122247867D01*
X135291868Y-122247867D02*
X135417977Y-122398351D01*
X135417977Y-122398351D02*
X135467037Y-122492855D01*
X135467037Y-122492855D02*
X135488106Y-122625884D01*
X135488106Y-122625884D02*
X135442661Y-122769448D01*
X135442661Y-122769448D02*
X135302713Y-122962071D01*
X135025501Y-121642318D02*
X135389368Y-121141498D01*
X135389368Y-121141498D02*
X135501637Y-121635088D01*
X135501637Y-121635088D02*
X135585606Y-121519514D01*
X135585606Y-121519514D02*
X135680110Y-121470455D01*
X135680110Y-121470455D02*
X135746625Y-121459920D01*
X135746625Y-121459920D02*
X135851664Y-121477375D01*
X135851664Y-121477375D02*
X136044287Y-121617324D01*
X136044287Y-121617324D02*
X136093346Y-121711828D01*
X136093346Y-121711828D02*
X136103881Y-121778342D01*
X136103881Y-121778342D02*
X136086426Y-121883381D01*
X136086426Y-121883381D02*
X135918488Y-122114529D01*
X135918488Y-122114529D02*
X135823983Y-122163588D01*
X135823983Y-122163588D02*
X135757469Y-122174123D01*
X66534819Y-102716666D02*
X66058628Y-103049999D01*
X66534819Y-103288094D02*
X65534819Y-103288094D01*
X65534819Y-103288094D02*
X65534819Y-102907142D01*
X65534819Y-102907142D02*
X65582438Y-102811904D01*
X65582438Y-102811904D02*
X65630057Y-102764285D01*
X65630057Y-102764285D02*
X65725295Y-102716666D01*
X65725295Y-102716666D02*
X65868152Y-102716666D01*
X65868152Y-102716666D02*
X65963390Y-102764285D01*
X65963390Y-102764285D02*
X66011009Y-102811904D01*
X66011009Y-102811904D02*
X66058628Y-102907142D01*
X66058628Y-102907142D02*
X66058628Y-103288094D01*
X66534819Y-101764285D02*
X66534819Y-102335713D01*
X66534819Y-102049999D02*
X65534819Y-102049999D01*
X65534819Y-102049999D02*
X65677676Y-102145237D01*
X65677676Y-102145237D02*
X65772914Y-102240475D01*
X65772914Y-102240475D02*
X65820533Y-102335713D01*
X109434266Y-59476599D02*
X109743283Y-58525543D01*
X109743283Y-58525543D02*
X109969725Y-58599118D01*
X109969725Y-58599118D02*
X110090875Y-58688552D01*
X110090875Y-58688552D02*
X110152022Y-58808559D01*
X110152022Y-58808559D02*
X110167880Y-58913851D01*
X110167880Y-58913851D02*
X110154308Y-59109720D01*
X110154308Y-59109720D02*
X110110163Y-59245585D01*
X110110163Y-59245585D02*
X110006014Y-59412023D01*
X110006014Y-59412023D02*
X109931295Y-59487885D01*
X109931295Y-59487885D02*
X109811288Y-59549032D01*
X109811288Y-59549032D02*
X109660708Y-59550175D01*
X109660708Y-59550175D02*
X109434266Y-59476599D01*
X110603763Y-58805130D02*
X111192512Y-58996426D01*
X111192512Y-58996426D02*
X110757772Y-59255727D01*
X110757772Y-59255727D02*
X110893637Y-59299873D01*
X110893637Y-59299873D02*
X110969499Y-59374591D01*
X110969499Y-59374591D02*
X111000072Y-59434595D01*
X111000072Y-59434595D02*
X111015931Y-59539887D01*
X111015931Y-59539887D02*
X110942355Y-59766329D01*
X110942355Y-59766329D02*
X110867637Y-59842190D01*
X110867637Y-59842190D02*
X110807633Y-59872764D01*
X110807633Y-59872764D02*
X110702341Y-59888622D01*
X110702341Y-59888622D02*
X110430611Y-59800331D01*
X110430611Y-59800331D02*
X110354749Y-59725613D01*
X110354749Y-59725613D02*
X110324176Y-59665609D01*
X88955273Y-92363797D02*
X88887929Y-92363797D01*
X88887929Y-92363797D02*
X88753242Y-92296453D01*
X88753242Y-92296453D02*
X88685899Y-92229110D01*
X88685899Y-92229110D02*
X88618555Y-92094423D01*
X88618555Y-92094423D02*
X88618555Y-91959736D01*
X88618555Y-91959736D02*
X88652227Y-91858721D01*
X88652227Y-91858721D02*
X88753242Y-91690362D01*
X88753242Y-91690362D02*
X88854257Y-91589347D01*
X88854257Y-91589347D02*
X89022616Y-91488331D01*
X89022616Y-91488331D02*
X89123631Y-91454660D01*
X89123631Y-91454660D02*
X89258318Y-91454660D01*
X89258318Y-91454660D02*
X89393005Y-91522003D01*
X89393005Y-91522003D02*
X89460349Y-91589347D01*
X89460349Y-91589347D02*
X89527692Y-91724034D01*
X89527692Y-91724034D02*
X89527692Y-91791377D01*
X89830738Y-91959736D02*
X90268471Y-92397469D01*
X90268471Y-92397469D02*
X89763395Y-92431140D01*
X89763395Y-92431140D02*
X89864410Y-92532156D01*
X89864410Y-92532156D02*
X89898082Y-92633171D01*
X89898082Y-92633171D02*
X89898082Y-92700514D01*
X89898082Y-92700514D02*
X89864410Y-92801530D01*
X89864410Y-92801530D02*
X89696051Y-92969888D01*
X89696051Y-92969888D02*
X89595036Y-93003560D01*
X89595036Y-93003560D02*
X89527692Y-93003560D01*
X89527692Y-93003560D02*
X89426677Y-92969888D01*
X89426677Y-92969888D02*
X89224647Y-92767858D01*
X89224647Y-92767858D02*
X89190975Y-92666843D01*
X89190975Y-92666843D02*
X89190975Y-92599499D01*
X67062423Y-126217401D02*
X67871440Y-125629616D01*
X67871440Y-125629616D02*
X68011389Y-125822239D01*
X68011389Y-125822239D02*
X68056834Y-125965803D01*
X68056834Y-125965803D02*
X68035764Y-126098831D01*
X68035764Y-126098831D02*
X67986704Y-126193336D01*
X67986704Y-126193336D02*
X67860596Y-126343819D01*
X67860596Y-126343819D02*
X67745022Y-126427789D01*
X67745022Y-126427789D02*
X67562934Y-126501223D01*
X67562934Y-126501223D02*
X67457895Y-126518678D01*
X67457895Y-126518678D02*
X67324866Y-126497608D01*
X67324866Y-126497608D02*
X67202372Y-126410024D01*
X67202372Y-126410024D02*
X67062423Y-126217401D01*
X68403246Y-126361584D02*
X68767113Y-126862404D01*
X68767113Y-126862404D02*
X68262987Y-126816650D01*
X68262987Y-126816650D02*
X68346957Y-126932223D01*
X68346957Y-126932223D02*
X68364412Y-127037262D01*
X68364412Y-127037262D02*
X68353877Y-127103777D01*
X68353877Y-127103777D02*
X68304817Y-127198281D01*
X68304817Y-127198281D02*
X68112194Y-127338230D01*
X68112194Y-127338230D02*
X68007155Y-127355685D01*
X68007155Y-127355685D02*
X67940641Y-127345150D01*
X67940641Y-127345150D02*
X67846137Y-127296091D01*
X67846137Y-127296091D02*
X67678198Y-127064943D01*
X67678198Y-127064943D02*
X67660743Y-126959904D01*
X67660743Y-126959904D02*
X67671278Y-126893389D01*
X73708632Y-122094972D02*
X73897950Y-121545402D01*
X73372755Y-121632676D02*
X74181772Y-121044891D01*
X74181772Y-121044891D02*
X74405690Y-121353088D01*
X74405690Y-121353088D02*
X74423145Y-121458127D01*
X74423145Y-121458127D02*
X74412610Y-121524641D01*
X74412610Y-121524641D02*
X74363551Y-121619145D01*
X74363551Y-121619145D02*
X74247977Y-121703115D01*
X74247977Y-121703115D02*
X74142938Y-121720570D01*
X74142938Y-121720570D02*
X74076423Y-121710035D01*
X74076423Y-121710035D02*
X73981919Y-121660975D01*
X73981919Y-121660975D02*
X73758001Y-121352778D01*
X74268428Y-122865464D02*
X73932550Y-122403169D01*
X74100489Y-122634316D02*
X74909506Y-122046531D01*
X74909506Y-122046531D02*
X74737953Y-122053451D01*
X74737953Y-122053451D02*
X74604924Y-122032381D01*
X74604924Y-122032381D02*
X74510420Y-121983322D01*
X64565517Y-78366863D02*
X63756500Y-77779077D01*
X63756500Y-77779077D02*
X63896448Y-77586454D01*
X63896448Y-77586454D02*
X64018942Y-77498870D01*
X64018942Y-77498870D02*
X64151971Y-77477801D01*
X64151971Y-77477801D02*
X64257010Y-77495255D01*
X64257010Y-77495255D02*
X64439098Y-77568690D01*
X64439098Y-77568690D02*
X64554672Y-77652659D01*
X64554672Y-77652659D02*
X64680781Y-77803143D01*
X64680781Y-77803143D02*
X64729841Y-77897647D01*
X64729841Y-77897647D02*
X64750910Y-78030676D01*
X64750910Y-78030676D02*
X64705465Y-78174240D01*
X64705465Y-78174240D02*
X64565517Y-78366863D01*
X64288305Y-77047110D02*
X64652172Y-76546290D01*
X64652172Y-76546290D02*
X64764441Y-77039880D01*
X64764441Y-77039880D02*
X64848410Y-76924306D01*
X64848410Y-76924306D02*
X64942914Y-76875247D01*
X64942914Y-76875247D02*
X65009429Y-76864712D01*
X65009429Y-76864712D02*
X65114468Y-76882167D01*
X65114468Y-76882167D02*
X65307091Y-77022116D01*
X65307091Y-77022116D02*
X65356150Y-77116620D01*
X65356150Y-77116620D02*
X65366685Y-77183134D01*
X65366685Y-77183134D02*
X65349230Y-77288173D01*
X65349230Y-77288173D02*
X65181292Y-77519321D01*
X65181292Y-77519321D02*
X65086787Y-77568380D01*
X65086787Y-77568380D02*
X65020273Y-77578915D01*
X88880700Y-140532349D02*
X89189717Y-139581293D01*
X89189717Y-139581293D02*
X89416159Y-139654868D01*
X89416159Y-139654868D02*
X89537309Y-139744302D01*
X89537309Y-139744302D02*
X89598456Y-139864309D01*
X89598456Y-139864309D02*
X89614314Y-139969601D01*
X89614314Y-139969601D02*
X89600742Y-140165470D01*
X89600742Y-140165470D02*
X89556597Y-140301335D01*
X89556597Y-140301335D02*
X89452448Y-140467773D01*
X89452448Y-140467773D02*
X89377729Y-140543635D01*
X89377729Y-140543635D02*
X89257722Y-140604782D01*
X89257722Y-140604782D02*
X89107142Y-140605925D01*
X89107142Y-140605925D02*
X88880700Y-140532349D01*
X90050197Y-139860880D02*
X90638946Y-140052176D01*
X90638946Y-140052176D02*
X90204206Y-140311477D01*
X90204206Y-140311477D02*
X90340071Y-140355623D01*
X90340071Y-140355623D02*
X90415933Y-140430341D01*
X90415933Y-140430341D02*
X90446506Y-140490345D01*
X90446506Y-140490345D02*
X90462365Y-140595637D01*
X90462365Y-140595637D02*
X90388789Y-140822079D01*
X90388789Y-140822079D02*
X90314071Y-140897940D01*
X90314071Y-140897940D02*
X90254067Y-140928514D01*
X90254067Y-140928514D02*
X90148775Y-140944372D01*
X90148775Y-140944372D02*
X89877045Y-140856081D01*
X89877045Y-140856081D02*
X89801183Y-140781363D01*
X89801183Y-140781363D02*
X89770610Y-140721359D01*
X129538095Y-112706819D02*
X130109523Y-112706819D01*
X129823809Y-113706819D02*
X129823809Y-112706819D01*
X130442857Y-113706819D02*
X130442857Y-112706819D01*
X130442857Y-112706819D02*
X130823809Y-112706819D01*
X130823809Y-112706819D02*
X130919047Y-112754438D01*
X130919047Y-112754438D02*
X130966666Y-112802057D01*
X130966666Y-112802057D02*
X131014285Y-112897295D01*
X131014285Y-112897295D02*
X131014285Y-113040152D01*
X131014285Y-113040152D02*
X130966666Y-113135390D01*
X130966666Y-113135390D02*
X130919047Y-113183009D01*
X130919047Y-113183009D02*
X130823809Y-113230628D01*
X130823809Y-113230628D02*
X130442857Y-113230628D01*
X131395238Y-112802057D02*
X131442857Y-112754438D01*
X131442857Y-112754438D02*
X131538095Y-112706819D01*
X131538095Y-112706819D02*
X131776190Y-112706819D01*
X131776190Y-112706819D02*
X131871428Y-112754438D01*
X131871428Y-112754438D02*
X131919047Y-112802057D01*
X131919047Y-112802057D02*
X131966666Y-112897295D01*
X131966666Y-112897295D02*
X131966666Y-112992533D01*
X131966666Y-112992533D02*
X131919047Y-113135390D01*
X131919047Y-113135390D02*
X131347619Y-113706819D01*
X131347619Y-113706819D02*
X131966666Y-113706819D01*
X118777887Y-91786411D02*
X118710543Y-91786411D01*
X118710543Y-91786411D02*
X118575856Y-91719067D01*
X118575856Y-91719067D02*
X118508513Y-91651724D01*
X118508513Y-91651724D02*
X118441169Y-91517037D01*
X118441169Y-91517037D02*
X118441169Y-91382350D01*
X118441169Y-91382350D02*
X118474841Y-91281335D01*
X118474841Y-91281335D02*
X118575856Y-91112976D01*
X118575856Y-91112976D02*
X118676871Y-91011961D01*
X118676871Y-91011961D02*
X118845230Y-90910945D01*
X118845230Y-90910945D02*
X118946245Y-90877274D01*
X118946245Y-90877274D02*
X119080932Y-90877274D01*
X119080932Y-90877274D02*
X119215619Y-90944617D01*
X119215619Y-90944617D02*
X119282963Y-91011961D01*
X119282963Y-91011961D02*
X119350306Y-91146648D01*
X119350306Y-91146648D02*
X119350306Y-91213991D01*
X119788039Y-91988441D02*
X119316635Y-92459846D01*
X119889054Y-91550709D02*
X119215619Y-91887426D01*
X119215619Y-91887426D02*
X119653352Y-92325159D01*
X84805273Y-96313797D02*
X84737929Y-96313797D01*
X84737929Y-96313797D02*
X84603242Y-96246453D01*
X84603242Y-96246453D02*
X84535899Y-96179110D01*
X84535899Y-96179110D02*
X84468555Y-96044423D01*
X84468555Y-96044423D02*
X84468555Y-95909736D01*
X84468555Y-95909736D02*
X84502227Y-95808721D01*
X84502227Y-95808721D02*
X84603242Y-95640362D01*
X84603242Y-95640362D02*
X84704257Y-95539347D01*
X84704257Y-95539347D02*
X84872616Y-95438331D01*
X84872616Y-95438331D02*
X84973631Y-95404660D01*
X84973631Y-95404660D02*
X85108318Y-95404660D01*
X85108318Y-95404660D02*
X85243005Y-95472003D01*
X85243005Y-95472003D02*
X85310349Y-95539347D01*
X85310349Y-95539347D02*
X85377692Y-95674034D01*
X85377692Y-95674034D02*
X85377692Y-95741377D01*
X86051127Y-96280125D02*
X85916440Y-96145438D01*
X85916440Y-96145438D02*
X85815425Y-96111766D01*
X85815425Y-96111766D02*
X85748082Y-96111766D01*
X85748082Y-96111766D02*
X85579723Y-96145438D01*
X85579723Y-96145438D02*
X85411364Y-96246453D01*
X85411364Y-96246453D02*
X85141990Y-96515827D01*
X85141990Y-96515827D02*
X85108318Y-96616843D01*
X85108318Y-96616843D02*
X85108318Y-96684186D01*
X85108318Y-96684186D02*
X85141990Y-96785201D01*
X85141990Y-96785201D02*
X85276677Y-96919888D01*
X85276677Y-96919888D02*
X85377692Y-96953560D01*
X85377692Y-96953560D02*
X85445036Y-96953560D01*
X85445036Y-96953560D02*
X85546051Y-96919888D01*
X85546051Y-96919888D02*
X85714410Y-96751530D01*
X85714410Y-96751530D02*
X85748082Y-96650514D01*
X85748082Y-96650514D02*
X85748082Y-96583171D01*
X85748082Y-96583171D02*
X85714410Y-96482156D01*
X85714410Y-96482156D02*
X85579723Y-96347469D01*
X85579723Y-96347469D02*
X85478708Y-96313797D01*
X85478708Y-96313797D02*
X85411364Y-96313797D01*
X85411364Y-96313797D02*
X85310349Y-96347469D01*
X76439551Y-90253688D02*
X75934475Y-90758764D01*
X75934475Y-90758764D02*
X75799788Y-90826108D01*
X75799788Y-90826108D02*
X75665101Y-90826108D01*
X75665101Y-90826108D02*
X75530414Y-90758764D01*
X75530414Y-90758764D02*
X75463070Y-90691421D01*
X76439551Y-91667902D02*
X76035490Y-91263841D01*
X76237521Y-91465871D02*
X76944628Y-90758764D01*
X76944628Y-90758764D02*
X76776269Y-90792436D01*
X76776269Y-90792436D02*
X76641582Y-90792436D01*
X76641582Y-90792436D02*
X76540567Y-90758764D01*
X114946170Y-139288923D02*
X114637153Y-138337866D01*
X114637153Y-138337866D02*
X114863596Y-138264291D01*
X114863596Y-138264291D02*
X115014176Y-138265434D01*
X115014176Y-138265434D02*
X115134183Y-138326581D01*
X115134183Y-138326581D02*
X115208901Y-138402442D01*
X115208901Y-138402442D02*
X115313050Y-138568881D01*
X115313050Y-138568881D02*
X115357195Y-138704746D01*
X115357195Y-138704746D02*
X115370767Y-138900615D01*
X115370767Y-138900615D02*
X115354909Y-139005907D01*
X115354909Y-139005907D02*
X115293763Y-139125914D01*
X115293763Y-139125914D02*
X115172613Y-139215347D01*
X115172613Y-139215347D02*
X114946170Y-139288923D01*
X115497633Y-138058280D02*
X116086382Y-137866983D01*
X116086382Y-137866983D02*
X115887084Y-138332296D01*
X115887084Y-138332296D02*
X116022950Y-138288151D01*
X116022950Y-138288151D02*
X116128242Y-138304009D01*
X116128242Y-138304009D02*
X116188245Y-138334583D01*
X116188245Y-138334583D02*
X116262964Y-138410444D01*
X116262964Y-138410444D02*
X116336539Y-138636886D01*
X116336539Y-138636886D02*
X116320681Y-138742178D01*
X116320681Y-138742178D02*
X116290108Y-138802182D01*
X116290108Y-138802182D02*
X116214246Y-138876900D01*
X116214246Y-138876900D02*
X115942515Y-138965191D01*
X115942515Y-138965191D02*
X115837223Y-138949333D01*
X115837223Y-138949333D02*
X115777220Y-138918759D01*
X83930982Y-61632361D02*
X83621965Y-60681304D01*
X83621965Y-60681304D02*
X83848408Y-60607729D01*
X83848408Y-60607729D02*
X83998988Y-60608872D01*
X83998988Y-60608872D02*
X84118995Y-60670019D01*
X84118995Y-60670019D02*
X84193713Y-60745880D01*
X84193713Y-60745880D02*
X84297862Y-60912319D01*
X84297862Y-60912319D02*
X84342007Y-61048184D01*
X84342007Y-61048184D02*
X84355579Y-61244053D01*
X84355579Y-61244053D02*
X84339721Y-61349345D01*
X84339721Y-61349345D02*
X84278575Y-61469352D01*
X84278575Y-61469352D02*
X84157425Y-61558785D01*
X84157425Y-61558785D02*
X83930982Y-61632361D01*
X84482445Y-60401718D02*
X85071194Y-60210421D01*
X85071194Y-60210421D02*
X84871896Y-60675734D01*
X84871896Y-60675734D02*
X85007762Y-60631589D01*
X85007762Y-60631589D02*
X85113054Y-60647447D01*
X85113054Y-60647447D02*
X85173057Y-60678021D01*
X85173057Y-60678021D02*
X85247776Y-60753882D01*
X85247776Y-60753882D02*
X85321351Y-60980324D01*
X85321351Y-60980324D02*
X85305493Y-61085616D01*
X85305493Y-61085616D02*
X85274920Y-61145620D01*
X85274920Y-61145620D02*
X85199058Y-61220338D01*
X85199058Y-61220338D02*
X84927327Y-61308629D01*
X84927327Y-61308629D02*
X84822035Y-61292771D01*
X84822035Y-61292771D02*
X84762032Y-61262197D01*
X97983333Y-85109580D02*
X97935714Y-85157200D01*
X97935714Y-85157200D02*
X97792857Y-85204819D01*
X97792857Y-85204819D02*
X97697619Y-85204819D01*
X97697619Y-85204819D02*
X97554762Y-85157200D01*
X97554762Y-85157200D02*
X97459524Y-85061961D01*
X97459524Y-85061961D02*
X97411905Y-84966723D01*
X97411905Y-84966723D02*
X97364286Y-84776247D01*
X97364286Y-84776247D02*
X97364286Y-84633390D01*
X97364286Y-84633390D02*
X97411905Y-84442914D01*
X97411905Y-84442914D02*
X97459524Y-84347676D01*
X97459524Y-84347676D02*
X97554762Y-84252438D01*
X97554762Y-84252438D02*
X97697619Y-84204819D01*
X97697619Y-84204819D02*
X97792857Y-84204819D01*
X97792857Y-84204819D02*
X97935714Y-84252438D01*
X97935714Y-84252438D02*
X97983333Y-84300057D01*
X98935714Y-85204819D02*
X98364286Y-85204819D01*
X98650000Y-85204819D02*
X98650000Y-84204819D01*
X98650000Y-84204819D02*
X98554762Y-84347676D01*
X98554762Y-84347676D02*
X98459524Y-84442914D01*
X98459524Y-84442914D02*
X98364286Y-84490533D01*
X68105898Y-112879299D02*
X68455777Y-112415130D01*
X67929317Y-112335838D02*
X68880374Y-112026821D01*
X68880374Y-112026821D02*
X68998094Y-112389129D01*
X68998094Y-112389129D02*
X68982236Y-112494421D01*
X68982236Y-112494421D02*
X68951663Y-112554424D01*
X68951663Y-112554424D02*
X68875801Y-112629143D01*
X68875801Y-112629143D02*
X68739936Y-112673288D01*
X68739936Y-112673288D02*
X68634644Y-112657430D01*
X68634644Y-112657430D02*
X68574640Y-112626856D01*
X68574640Y-112626856D02*
X68499922Y-112550995D01*
X68499922Y-112550995D02*
X68382201Y-112188688D01*
X68400200Y-113785067D02*
X68223619Y-113241607D01*
X68311910Y-113513337D02*
X69262966Y-113204320D01*
X69262966Y-113204320D02*
X69097671Y-113157889D01*
X69097671Y-113157889D02*
X68977664Y-113096742D01*
X68977664Y-113096742D02*
X68902945Y-113020880D01*
X142174819Y-97788094D02*
X141174819Y-97788094D01*
X141174819Y-97788094D02*
X141174819Y-97549999D01*
X141174819Y-97549999D02*
X141222438Y-97407142D01*
X141222438Y-97407142D02*
X141317676Y-97311904D01*
X141317676Y-97311904D02*
X141412914Y-97264285D01*
X141412914Y-97264285D02*
X141603390Y-97216666D01*
X141603390Y-97216666D02*
X141746247Y-97216666D01*
X141746247Y-97216666D02*
X141936723Y-97264285D01*
X141936723Y-97264285D02*
X142031961Y-97311904D01*
X142031961Y-97311904D02*
X142127200Y-97407142D01*
X142127200Y-97407142D02*
X142174819Y-97549999D01*
X142174819Y-97549999D02*
X142174819Y-97788094D01*
X141174819Y-96883332D02*
X141174819Y-96264285D01*
X141174819Y-96264285D02*
X141555771Y-96597618D01*
X141555771Y-96597618D02*
X141555771Y-96454761D01*
X141555771Y-96454761D02*
X141603390Y-96359523D01*
X141603390Y-96359523D02*
X141651009Y-96311904D01*
X141651009Y-96311904D02*
X141746247Y-96264285D01*
X141746247Y-96264285D02*
X141984342Y-96264285D01*
X141984342Y-96264285D02*
X142079580Y-96311904D01*
X142079580Y-96311904D02*
X142127200Y-96359523D01*
X142127200Y-96359523D02*
X142174819Y-96454761D01*
X142174819Y-96454761D02*
X142174819Y-96740475D01*
X142174819Y-96740475D02*
X142127200Y-96835713D01*
X142127200Y-96835713D02*
X142079580Y-96883332D01*
X91706120Y-98471155D02*
X91133700Y-99043575D01*
X91133700Y-99043575D02*
X91100028Y-99144590D01*
X91100028Y-99144590D02*
X91100028Y-99211934D01*
X91100028Y-99211934D02*
X91133700Y-99312949D01*
X91133700Y-99312949D02*
X91268387Y-99447636D01*
X91268387Y-99447636D02*
X91369402Y-99481308D01*
X91369402Y-99481308D02*
X91436746Y-99481308D01*
X91436746Y-99481308D02*
X91537761Y-99447636D01*
X91537761Y-99447636D02*
X92110181Y-98875216D01*
X92379555Y-99144590D02*
X92817287Y-99582323D01*
X92817287Y-99582323D02*
X92312211Y-99615995D01*
X92312211Y-99615995D02*
X92413226Y-99717010D01*
X92413226Y-99717010D02*
X92446898Y-99818025D01*
X92446898Y-99818025D02*
X92446898Y-99885369D01*
X92446898Y-99885369D02*
X92413226Y-99986384D01*
X92413226Y-99986384D02*
X92244868Y-100154743D01*
X92244868Y-100154743D02*
X92143852Y-100188415D01*
X92143852Y-100188415D02*
X92076509Y-100188415D01*
X92076509Y-100188415D02*
X91975494Y-100154743D01*
X91975494Y-100154743D02*
X91773463Y-99952712D01*
X91773463Y-99952712D02*
X91739791Y-99851697D01*
X91739791Y-99851697D02*
X91739791Y-99784354D01*
X76837928Y-135102713D02*
X77425714Y-134293696D01*
X77425714Y-134293696D02*
X77618337Y-134433644D01*
X77618337Y-134433644D02*
X77705921Y-134556138D01*
X77705921Y-134556138D02*
X77726990Y-134689167D01*
X77726990Y-134689167D02*
X77709536Y-134794206D01*
X77709536Y-134794206D02*
X77636101Y-134976294D01*
X77636101Y-134976294D02*
X77552132Y-135091868D01*
X77552132Y-135091868D02*
X77401648Y-135217977D01*
X77401648Y-135217977D02*
X77307144Y-135267037D01*
X77307144Y-135267037D02*
X77174115Y-135288106D01*
X77174115Y-135288106D02*
X77030551Y-135242661D01*
X77030551Y-135242661D02*
X76837928Y-135102713D01*
X78157681Y-134825501D02*
X78658501Y-135189368D01*
X78658501Y-135189368D02*
X78164911Y-135301637D01*
X78164911Y-135301637D02*
X78280485Y-135385606D01*
X78280485Y-135385606D02*
X78329544Y-135480110D01*
X78329544Y-135480110D02*
X78340079Y-135546625D01*
X78340079Y-135546625D02*
X78322624Y-135651664D01*
X78322624Y-135651664D02*
X78182675Y-135844287D01*
X78182675Y-135844287D02*
X78088171Y-135893346D01*
X78088171Y-135893346D02*
X78021657Y-135903881D01*
X78021657Y-135903881D02*
X77916618Y-135886426D01*
X77916618Y-135886426D02*
X77685470Y-135718488D01*
X77685470Y-135718488D02*
X77636411Y-135623983D01*
X77636411Y-135623983D02*
X77625876Y-135557469D01*
X119188095Y-82756819D02*
X119759523Y-82756819D01*
X119473809Y-83756819D02*
X119473809Y-82756819D01*
X120092857Y-83756819D02*
X120092857Y-82756819D01*
X120092857Y-82756819D02*
X120473809Y-82756819D01*
X120473809Y-82756819D02*
X120569047Y-82804438D01*
X120569047Y-82804438D02*
X120616666Y-82852057D01*
X120616666Y-82852057D02*
X120664285Y-82947295D01*
X120664285Y-82947295D02*
X120664285Y-83090152D01*
X120664285Y-83090152D02*
X120616666Y-83185390D01*
X120616666Y-83185390D02*
X120569047Y-83233009D01*
X120569047Y-83233009D02*
X120473809Y-83280628D01*
X120473809Y-83280628D02*
X120092857Y-83280628D01*
X120997619Y-82756819D02*
X121616666Y-82756819D01*
X121616666Y-82756819D02*
X121283333Y-83137771D01*
X121283333Y-83137771D02*
X121426190Y-83137771D01*
X121426190Y-83137771D02*
X121521428Y-83185390D01*
X121521428Y-83185390D02*
X121569047Y-83233009D01*
X121569047Y-83233009D02*
X121616666Y-83328247D01*
X121616666Y-83328247D02*
X121616666Y-83566342D01*
X121616666Y-83566342D02*
X121569047Y-83661580D01*
X121569047Y-83661580D02*
X121521428Y-83709200D01*
X121521428Y-83709200D02*
X121426190Y-83756819D01*
X121426190Y-83756819D02*
X121140476Y-83756819D01*
X121140476Y-83756819D02*
X121045238Y-83709200D01*
X121045238Y-83709200D02*
X120997619Y-83661580D01*
X59676599Y-90365733D02*
X58725543Y-90056716D01*
X58725543Y-90056716D02*
X58799118Y-89830274D01*
X58799118Y-89830274D02*
X58888552Y-89709124D01*
X58888552Y-89709124D02*
X59008559Y-89647977D01*
X59008559Y-89647977D02*
X59113851Y-89632119D01*
X59113851Y-89632119D02*
X59309720Y-89645691D01*
X59309720Y-89645691D02*
X59445585Y-89689836D01*
X59445585Y-89689836D02*
X59612023Y-89793985D01*
X59612023Y-89793985D02*
X59687885Y-89868704D01*
X59687885Y-89868704D02*
X59749032Y-89988711D01*
X59749032Y-89988711D02*
X59750175Y-90139291D01*
X59750175Y-90139291D02*
X59676599Y-90365733D01*
X59005130Y-89196236D02*
X59196426Y-88607487D01*
X59196426Y-88607487D02*
X59455727Y-89042227D01*
X59455727Y-89042227D02*
X59499873Y-88906362D01*
X59499873Y-88906362D02*
X59574591Y-88830500D01*
X59574591Y-88830500D02*
X59634595Y-88799927D01*
X59634595Y-88799927D02*
X59739887Y-88784068D01*
X59739887Y-88784068D02*
X59966329Y-88857644D01*
X59966329Y-88857644D02*
X60042190Y-88932362D01*
X60042190Y-88932362D02*
X60072764Y-88992366D01*
X60072764Y-88992366D02*
X60088622Y-89097658D01*
X60088622Y-89097658D02*
X60000331Y-89369388D01*
X60000331Y-89369388D02*
X59925613Y-89445250D01*
X59925613Y-89445250D02*
X59865609Y-89475823D01*
X96511905Y-58534819D02*
X96511905Y-57534819D01*
X96511905Y-57534819D02*
X96750000Y-57534819D01*
X96750000Y-57534819D02*
X96892857Y-57582438D01*
X96892857Y-57582438D02*
X96988095Y-57677676D01*
X96988095Y-57677676D02*
X97035714Y-57772914D01*
X97035714Y-57772914D02*
X97083333Y-57963390D01*
X97083333Y-57963390D02*
X97083333Y-58106247D01*
X97083333Y-58106247D02*
X97035714Y-58296723D01*
X97035714Y-58296723D02*
X96988095Y-58391961D01*
X96988095Y-58391961D02*
X96892857Y-58487200D01*
X96892857Y-58487200D02*
X96750000Y-58534819D01*
X96750000Y-58534819D02*
X96511905Y-58534819D01*
X97416667Y-57534819D02*
X98035714Y-57534819D01*
X98035714Y-57534819D02*
X97702381Y-57915771D01*
X97702381Y-57915771D02*
X97845238Y-57915771D01*
X97845238Y-57915771D02*
X97940476Y-57963390D01*
X97940476Y-57963390D02*
X97988095Y-58011009D01*
X97988095Y-58011009D02*
X98035714Y-58106247D01*
X98035714Y-58106247D02*
X98035714Y-58344342D01*
X98035714Y-58344342D02*
X97988095Y-58439580D01*
X97988095Y-58439580D02*
X97940476Y-58487200D01*
X97940476Y-58487200D02*
X97845238Y-58534819D01*
X97845238Y-58534819D02*
X97559524Y-58534819D01*
X97559524Y-58534819D02*
X97464286Y-58487200D01*
X97464286Y-58487200D02*
X97416667Y-58439580D01*
D13*
%TO.C,D4*%
X104145000Y-77397500D02*
X104145000Y-74797500D01*
X104145000Y-79997500D02*
X104145000Y-78667500D01*
X105475000Y-79997500D02*
X104145000Y-79997500D01*
X106805000Y-74797500D02*
X104145000Y-74797500D01*
X106805000Y-77397500D02*
X104145000Y-77397500D01*
X106805000Y-77397500D02*
X106805000Y-74797500D01*
%TO.C,R2*%
X107229355Y-93792421D02*
X108257579Y-94820645D01*
X105942421Y-95079355D02*
X106970645Y-96107579D01*
%TO.C,D2*%
X88839753Y-111468718D02*
X91081282Y-113710247D01*
X91081282Y-113710247D02*
X93952135Y-110839394D01*
X91710607Y-108597864D02*
X88839753Y-111468718D01*
%TO.C,R1*%
X112945124Y-128388979D02*
X111562167Y-128838331D01*
X113507535Y-130119903D02*
X112124578Y-130569255D01*
%TO.C,TP4*%
X93100000Y-89000000D02*
G75*
G02*
X91200000Y-89000000I-950000J0D01*
G01*
X91200000Y-89000000D02*
G75*
G02*
X93100000Y-89000000I950000J0D01*
G01*
%TO.C,C7*%
X77450000Y-97560984D02*
X76955025Y-98055959D01*
X79310089Y-99421073D02*
X77450000Y-97560984D01*
X74960984Y-100050000D02*
X75455959Y-99555025D01*
X79310089Y-100411023D02*
X79310089Y-99421073D01*
X77811023Y-101910089D02*
X76821073Y-101910089D01*
X76821073Y-101910089D02*
X74960984Y-100050000D01*
X78114680Y-102744077D02*
X77849515Y-102478912D01*
X77849515Y-102744077D02*
X78114680Y-102478912D01*
%TO.C,R1*%
X130737925Y-106131356D02*
X130288573Y-107514313D01*
X132468849Y-106693767D02*
X132019497Y-108076724D01*
%TO.C,D1*%
X87898278Y-85810436D02*
X91819937Y-84759631D01*
X91232418Y-82566979D02*
X87310759Y-83617785D01*
X91819937Y-84759631D02*
X91232418Y-82566979D01*
%TO.C,D3*%
X63045027Y-118484184D02*
X61160022Y-112682740D01*
X64091188Y-118144266D02*
X63045027Y-118484184D01*
X66295727Y-111014048D02*
X67840812Y-115769330D01*
%TO.C,R1*%
X127277007Y-115320018D02*
X126422292Y-116496433D01*
X128749418Y-116389787D02*
X127894703Y-117566202D01*
X83410213Y-128549418D02*
X82233798Y-127694703D01*
X84479982Y-127077007D02*
X83303567Y-126222292D01*
X123189473Y-78653974D02*
X124044188Y-79830389D01*
X124661884Y-77584205D02*
X125516599Y-78760620D01*
X128588979Y-86854876D02*
X129038331Y-88237833D01*
X130319903Y-86292465D02*
X130769255Y-87675422D01*
X121146026Y-122989473D02*
X119969611Y-123844188D01*
X122215795Y-124461884D02*
X121039380Y-125316599D01*
X77784205Y-75138116D02*
X78960620Y-74283401D01*
X78853974Y-76610527D02*
X80030389Y-75755812D01*
X103477064Y-130990000D02*
X102022936Y-130990000D01*
X103477064Y-132810000D02*
X102022936Y-132810000D01*
X131190000Y-96322936D02*
X131190000Y-97777064D01*
X133010000Y-96322936D02*
X133010000Y-97777064D01*
X93106233Y-132268849D02*
X91723276Y-131819497D01*
X93668644Y-130537925D02*
X92285687Y-130088573D01*
%TO.C,D3*%
X100250000Y-135320000D02*
X105250000Y-135320000D01*
X106350000Y-139620000D02*
X106350000Y-140720000D01*
X106350000Y-140720000D02*
X100250000Y-140720000D01*
%TO.C,R1*%
X71250582Y-83210213D02*
X72105297Y-82033798D01*
X72722993Y-84279982D02*
X73577708Y-83103567D01*
%TO.C,C5*%
X115250000Y-101939016D02*
X115744975Y-101444041D01*
X113389911Y-100078927D02*
X115250000Y-101939016D01*
X117739016Y-99450000D02*
X117244041Y-99944975D01*
X113389911Y-99088977D02*
X113389911Y-100078927D01*
X114888977Y-97589911D02*
X115878927Y-97589911D01*
X115878927Y-97589911D02*
X117739016Y-99450000D01*
X114585320Y-96755923D02*
X114850485Y-97021088D01*
X114850485Y-96755923D02*
X114585320Y-97021088D01*
%TO.C,R1*%
X86492465Y-69480097D02*
X87875422Y-69030745D01*
X87054876Y-71211021D02*
X88437833Y-70761669D01*
X96522936Y-66790000D02*
X97977064Y-66790000D01*
X96522936Y-68610000D02*
X97977064Y-68610000D01*
%TO.C,D3*%
X70810570Y-70427461D02*
X75745573Y-66841971D01*
X71457133Y-71317380D02*
X70810570Y-70427461D01*
X78919614Y-71210663D02*
X74874529Y-74149589D01*
D14*
%TO.C,BRD1*%
X104592215Y-99800000D02*
G75*
G02*
X95607785Y-99800000I-4492215J0D01*
G01*
X95607785Y-99800000D02*
G75*
G02*
X104592215Y-99800000I4492215J0D01*
G01*
X144000114Y-99800000D02*
G75*
G02*
X56199886Y-99800000I-43900114J0D01*
G01*
X56199886Y-99800000D02*
G75*
G02*
X144000114Y-99800000I43900114J0D01*
G01*
D13*
%TO.C,R1*%
X106331356Y-69062075D02*
X107714313Y-69511427D01*
X106893767Y-67331151D02*
X108276724Y-67780503D01*
%TO.C,D3*%
X118268351Y-63852507D02*
X118914915Y-62962588D01*
X118914915Y-62962588D02*
X123849919Y-66548078D01*
X120675878Y-70916770D02*
X116630793Y-67977844D01*
X59080000Y-106150000D02*
X59080000Y-100050000D01*
X60180000Y-106150000D02*
X59080000Y-106150000D01*
X64480000Y-100050000D02*
X64480000Y-105050000D01*
X128482620Y-71257133D02*
X129372539Y-70610570D01*
X128589337Y-78719614D02*
X125650411Y-74674529D01*
X129372539Y-70610570D02*
X132958029Y-75545573D01*
X121080386Y-128389337D02*
X125125471Y-125450411D01*
X128542867Y-128282620D02*
X129189430Y-129172539D01*
X129189430Y-129172539D02*
X124254427Y-132758029D01*
%TO.C,C2*%
X122850000Y-94039016D02*
X123344975Y-93544041D01*
X120989911Y-92178927D02*
X122850000Y-94039016D01*
X125339016Y-91550000D02*
X124844041Y-92044975D01*
X120989911Y-91188977D02*
X120989911Y-92178927D01*
X122488977Y-89689911D02*
X123478927Y-89689911D01*
X123478927Y-89689911D02*
X125339016Y-91550000D01*
X122185320Y-88855923D02*
X122450485Y-89121088D01*
X122450485Y-88855923D02*
X122185320Y-89121088D01*
%TO.C,TP1*%
X100100000Y-81200000D02*
G75*
G02*
X98200000Y-81200000I-950000J0D01*
G01*
X98200000Y-81200000D02*
G75*
G02*
X100100000Y-81200000I950000J0D01*
G01*
%TO.C,D3*%
X133858782Y-110538519D02*
X135403867Y-105783237D01*
X139833329Y-106065848D02*
X140879491Y-106405766D01*
X140879491Y-106405766D02*
X138994487Y-112207211D01*
%TO.C,R1*%
X115520018Y-72522993D02*
X116696433Y-73377708D01*
X116589787Y-71050582D02*
X117766202Y-71905297D01*
X67531151Y-92906233D02*
X67980503Y-91523276D01*
X69262075Y-93468644D02*
X69711427Y-92085687D01*
%TO.C,U2*%
X111959081Y-93706819D02*
X111619670Y-93367407D01*
X112022721Y-93303768D01*
X111959081Y-93706819D01*
G36*
X111959081Y-93706819D02*
G01*
X111619670Y-93367407D01*
X112022721Y-93303768D01*
X111959081Y-93706819D01*
G37*
X111046913Y-92469382D02*
X108388192Y-89810660D01*
X108388192Y-89810660D02*
X109279146Y-88919706D01*
X115869382Y-87646913D02*
X113210660Y-84988192D01*
X113210660Y-84988192D02*
X112319706Y-85879146D01*
%TO.C,D3*%
X133704273Y-88585952D02*
X132159188Y-83830670D01*
X135908812Y-81455734D02*
X136954973Y-81115816D01*
X136954973Y-81115816D02*
X138839978Y-86917260D01*
X128883230Y-120475878D02*
X131822156Y-116430793D01*
X135947493Y-118068351D02*
X136837412Y-118714915D01*
X136837412Y-118714915D02*
X133251922Y-123649919D01*
%TO.C,R1*%
X66990000Y-103277064D02*
X66990000Y-101822936D01*
X68810000Y-103277064D02*
X68810000Y-101822936D01*
%TO.C,D3*%
X106265848Y-59966671D02*
X106605766Y-58920509D01*
X106605766Y-58920509D02*
X112407211Y-60805513D01*
X110738519Y-65941218D02*
X105983237Y-64396133D01*
%TO.C,C3*%
X86027386Y-89088370D02*
X85532411Y-89583345D01*
X87887475Y-90948459D02*
X86027386Y-89088370D01*
X83538370Y-91577386D02*
X84033345Y-91082411D01*
X87887475Y-91938409D02*
X87887475Y-90948459D01*
X86388409Y-93437475D02*
X85398459Y-93437475D01*
X85398459Y-93437475D02*
X83538370Y-91577386D01*
X86692066Y-94271463D02*
X86426901Y-94006298D01*
X86426901Y-94271463D02*
X86692066Y-94006298D01*
%TO.C,D3*%
X70627461Y-128989430D02*
X67041971Y-124054427D01*
X71410663Y-120880386D02*
X74349589Y-124925471D01*
X71517380Y-128342867D02*
X70627461Y-128989430D01*
%TO.C,R1*%
X75338116Y-122015795D02*
X74483401Y-120839380D01*
X76810527Y-120946026D02*
X75955812Y-119769611D01*
%TO.C,D3*%
X63162588Y-80885085D02*
X66748078Y-75950081D01*
X64052507Y-81531649D02*
X63162588Y-80885085D01*
X71116770Y-79124122D02*
X68177844Y-83169207D01*
X89261481Y-133658782D02*
X94016763Y-135203867D01*
X93394234Y-140679491D02*
X87592789Y-138794487D01*
X93734152Y-139633329D02*
X93394234Y-140679491D01*
%TO.C,TP2*%
X131750000Y-114900000D02*
G75*
G02*
X129850000Y-114900000I-950000J0D01*
G01*
X129850000Y-114900000D02*
G75*
G02*
X131750000Y-114900000I950000J0D01*
G01*
%TO.C,C4*%
X119050000Y-97989016D02*
X119544975Y-97494041D01*
X117189911Y-96128927D02*
X119050000Y-97989016D01*
X121539016Y-95500000D02*
X121044041Y-95994975D01*
X117189911Y-95138977D02*
X117189911Y-96128927D01*
X118688977Y-93639911D02*
X119678927Y-93639911D01*
X119678927Y-93639911D02*
X121539016Y-95500000D01*
X118385320Y-92805923D02*
X118650485Y-93071088D01*
X118650485Y-92805923D02*
X118385320Y-93071088D01*
%TO.C,C6*%
X81777386Y-93138370D02*
X81282411Y-93633345D01*
X83637475Y-94998459D02*
X81777386Y-93138370D01*
X79288370Y-95627386D02*
X79783345Y-95132411D01*
X83637475Y-95988409D02*
X83637475Y-94998459D01*
X82138409Y-97487475D02*
X81148459Y-97487475D01*
X81148459Y-97487475D02*
X79288370Y-95627386D01*
X82442066Y-98321463D02*
X82176901Y-98056298D01*
X82176901Y-98321463D02*
X82442066Y-98056298D01*
%TO.C,J1*%
X78206012Y-87077728D02*
X80044491Y-85239251D01*
X76367535Y-88916206D02*
X77307987Y-87975754D01*
X77307987Y-89856658D02*
X76367535Y-88916206D01*
X81925394Y-87120155D02*
X80044491Y-85239251D01*
X80086916Y-88958633D02*
X78206012Y-87077728D01*
X80086916Y-88958633D02*
X81925394Y-87120155D01*
%TO.C,D3*%
X111214048Y-133504273D02*
X115969330Y-131959188D01*
X118344266Y-135708812D02*
X118684184Y-136754973D01*
X118684184Y-136754973D02*
X112882740Y-138639978D01*
X81315816Y-62845027D02*
X87117260Y-60960022D01*
X81655734Y-63891188D02*
X81315816Y-62845027D01*
X88785952Y-66095727D02*
X84030670Y-67640812D01*
%TO.C,C1*%
X95775000Y-86015000D02*
X96150000Y-86015000D01*
X95962500Y-85827500D02*
X95962500Y-86202500D01*
X96579437Y-86390000D02*
X97279437Y-85690000D01*
X96579437Y-88510000D02*
X97279437Y-89210000D01*
X97279437Y-85690000D02*
X99910000Y-85690000D01*
X97279437Y-89210000D02*
X99910000Y-89210000D01*
X99910000Y-85690000D02*
X99910000Y-86390000D01*
X99910000Y-89210000D02*
X99910000Y-88510000D01*
%TO.C,R1*%
X69680097Y-113307535D02*
X69230745Y-111924578D01*
X71411021Y-112745124D02*
X70961669Y-111362167D01*
%TO.C,D3*%
X135520000Y-99550000D02*
X135520000Y-94550000D01*
X139820000Y-93450000D02*
X140920000Y-93450000D01*
X140920000Y-93450000D02*
X140920000Y-99550000D01*
%TO.C,U3*%
X89780473Y-98858004D02*
X92439194Y-101516726D01*
X92439194Y-101516726D02*
X91548240Y-102407680D01*
X84958004Y-103680473D02*
X87616726Y-106339194D01*
X87616726Y-106339194D02*
X88507680Y-105448240D01*
X89207716Y-97959979D02*
X88804665Y-98023618D01*
X88868305Y-97620567D01*
X89207716Y-97959979D01*
G36*
X89207716Y-97959979D02*
G01*
X88804665Y-98023618D01*
X88868305Y-97620567D01*
X89207716Y-97959979D01*
G37*
%TO.C,D3*%
X79324122Y-128683230D02*
X83369207Y-131622156D01*
X81085085Y-136637412D02*
X76150081Y-133051922D01*
X81731649Y-135747493D02*
X81085085Y-136637412D01*
%TO.C,TP3*%
X121400000Y-84950000D02*
G75*
G02*
X119500000Y-84950000I-950000J0D01*
G01*
X119500000Y-84950000D02*
G75*
G02*
X121400000Y-84950000I950000J0D01*
G01*
%TO.C,D3*%
X59120509Y-93194234D02*
X61005513Y-87392789D01*
X60166671Y-93534152D02*
X59120509Y-93194234D01*
X66141218Y-89061481D02*
X64596133Y-93816763D01*
X93650000Y-58880000D02*
X99750000Y-58880000D01*
X93650000Y-59980000D02*
X93650000Y-58880000D01*
X99750000Y-64280000D02*
X94750000Y-64280000D01*
%TD*%
M02*
