%TF.GenerationSoftware,KiCad,Pcbnew,8.0.1*%
%TF.CreationDate,2024-04-01T21:08:24-04:00*%
%TF.ProjectId,esp32-node-board-40x65,65737033-322d-46e6-9f64-652d626f6172,rev?*%
%TF.SameCoordinates,Original*%
%TF.FileFunction,Drillmap*%
%TF.FilePolarity,Positive*%
%FSLAX45Y45*%
G04 Gerber Fmt 4.5, Leading zero omitted, Abs format (unit mm)*
G04 Created by KiCad (PCBNEW 8.0.1) date 2024-04-01 21:08:24*
%MOMM*%
%LPD*%
G01*
G04 APERTURE LIST*
%ADD10C,0.100000*%
%ADD11C,0.150000*%
%ADD12C,0.200000*%
%ADD13C,0.110000*%
G04 APERTURE END LIST*
D10*
X11700000Y-8025000D02*
X14318579Y-8023579D01*
X11700000Y-8125000D02*
X11700000Y-8025000D01*
X14100000Y-8125000D02*
X11700000Y-8125000D01*
X8201421Y-8023579D02*
X11000000Y-8025000D01*
X11000000Y-8125000D02*
X11000000Y-8025000D01*
X8500000Y-8125000D02*
X11000000Y-8125000D01*
D11*
X14100000Y-11625000D02*
X8500000Y-11625000D01*
X8300000Y-8325000D02*
X8300000Y-11425000D01*
X14300000Y-8325000D02*
X14300000Y-11425000D01*
X8300000Y-11425000D02*
X8500000Y-11625000D01*
X14300000Y-11425000D02*
X14100000Y-11625000D01*
X8500000Y-8125000D02*
X8300000Y-8325000D01*
X14100000Y-8125000D02*
X14300000Y-8325000D01*
D10*
X8000000Y-4225000D02*
X8001421Y-7823579D01*
X14318579Y-4026421D02*
G75*
G02*
X14518579Y-4226421I1J-199999D01*
G01*
X8201421Y-8023579D02*
G75*
G02*
X8001421Y-7823579I-1J199999D01*
G01*
X14518579Y-4226421D02*
X14518579Y-7823579D01*
X8000000Y-4225000D02*
G75*
G02*
X8200000Y-4025000I200000J0D01*
G01*
X14518579Y-7823579D02*
G75*
G02*
X14318579Y-8023579I-199999J-1D01*
G01*
X14318579Y-4026421D02*
X8200000Y-4025000D01*
D12*
D10*
X8990000Y-4200000D02*
X9050000Y-4260000D01*
X9050000Y-4200000D02*
X8990000Y-4260000D01*
X8990000Y-4400000D02*
X9050000Y-4460000D01*
X9050000Y-4400000D02*
X8990000Y-4460000D01*
X9920000Y-4390000D02*
X9980000Y-4450000D01*
X9980000Y-4390000D02*
X9920000Y-4450000D01*
X10120000Y-4390000D02*
X10180000Y-4450000D01*
X10180000Y-4390000D02*
X10120000Y-4450000D01*
X10470000Y-4390000D02*
X10530000Y-4450000D01*
X10530000Y-4390000D02*
X10470000Y-4450000D01*
X10670000Y-4390000D02*
X10730000Y-4450000D01*
X10730000Y-4390000D02*
X10670000Y-4450000D01*
X8420100Y-6131000D02*
G75*
G02*
X8343900Y-6131000I-38100J0D01*
G01*
X8343900Y-6131000D02*
G75*
G02*
X8420100Y-6131000I38100J0D01*
G01*
X8420100Y-6639000D02*
G75*
G02*
X8343900Y-6639000I-38100J0D01*
G01*
X8343900Y-6639000D02*
G75*
G02*
X8420100Y-6639000I38100J0D01*
G01*
X8420100Y-7147000D02*
G75*
G02*
X8343900Y-7147000I-38100J0D01*
G01*
X8343900Y-7147000D02*
G75*
G02*
X8420100Y-7147000I38100J0D01*
G01*
X8420100Y-7655000D02*
G75*
G02*
X8343900Y-7655000I-38100J0D01*
G01*
X8343900Y-7655000D02*
G75*
G02*
X8420100Y-7655000I38100J0D01*
G01*
X9160100Y-7680000D02*
G75*
G02*
X9083900Y-7680000I-38100J0D01*
G01*
X9083900Y-7680000D02*
G75*
G02*
X9160100Y-7680000I38100J0D01*
G01*
X9414100Y-7680000D02*
G75*
G02*
X9337900Y-7680000I-38100J0D01*
G01*
X9337900Y-7680000D02*
G75*
G02*
X9414100Y-7680000I38100J0D01*
G01*
X9668100Y-7680000D02*
G75*
G02*
X9591900Y-7680000I-38100J0D01*
G01*
X9591900Y-7680000D02*
G75*
G02*
X9668100Y-7680000I38100J0D01*
G01*
X9922100Y-7680000D02*
G75*
G02*
X9845900Y-7680000I-38100J0D01*
G01*
X9845900Y-7680000D02*
G75*
G02*
X9922100Y-7680000I38100J0D01*
G01*
X10444100Y-4942000D02*
G75*
G02*
X10367900Y-4942000I-38100J0D01*
G01*
X10367900Y-4942000D02*
G75*
G02*
X10444100Y-4942000I38100J0D01*
G01*
X10444100Y-5196000D02*
G75*
G02*
X10367900Y-5196000I-38100J0D01*
G01*
X10367900Y-5196000D02*
G75*
G02*
X10444100Y-5196000I38100J0D01*
G01*
X10444100Y-5450000D02*
G75*
G02*
X10367900Y-5450000I-38100J0D01*
G01*
X10367900Y-5450000D02*
G75*
G02*
X10444100Y-5450000I38100J0D01*
G01*
X10444100Y-5704000D02*
G75*
G02*
X10367900Y-5704000I-38100J0D01*
G01*
X10367900Y-5704000D02*
G75*
G02*
X10444100Y-5704000I38100J0D01*
G01*
X10444100Y-5958000D02*
G75*
G02*
X10367900Y-5958000I-38100J0D01*
G01*
X10367900Y-5958000D02*
G75*
G02*
X10444100Y-5958000I38100J0D01*
G01*
X10444100Y-6212000D02*
G75*
G02*
X10367900Y-6212000I-38100J0D01*
G01*
X10367900Y-6212000D02*
G75*
G02*
X10444100Y-6212000I38100J0D01*
G01*
X10444100Y-6466000D02*
G75*
G02*
X10367900Y-6466000I-38100J0D01*
G01*
X10367900Y-6466000D02*
G75*
G02*
X10444100Y-6466000I38100J0D01*
G01*
X10444100Y-6720000D02*
G75*
G02*
X10367900Y-6720000I-38100J0D01*
G01*
X10367900Y-6720000D02*
G75*
G02*
X10444100Y-6720000I38100J0D01*
G01*
X10698100Y-4942000D02*
G75*
G02*
X10621900Y-4942000I-38100J0D01*
G01*
X10621900Y-4942000D02*
G75*
G02*
X10698100Y-4942000I38100J0D01*
G01*
X10698100Y-5196000D02*
G75*
G02*
X10621900Y-5196000I-38100J0D01*
G01*
X10621900Y-5196000D02*
G75*
G02*
X10698100Y-5196000I38100J0D01*
G01*
X10698100Y-5450000D02*
G75*
G02*
X10621900Y-5450000I-38100J0D01*
G01*
X10621900Y-5450000D02*
G75*
G02*
X10698100Y-5450000I38100J0D01*
G01*
X10698100Y-5704000D02*
G75*
G02*
X10621900Y-5704000I-38100J0D01*
G01*
X10621900Y-5704000D02*
G75*
G02*
X10698100Y-5704000I38100J0D01*
G01*
X10698100Y-5958000D02*
G75*
G02*
X10621900Y-5958000I-38100J0D01*
G01*
X10621900Y-5958000D02*
G75*
G02*
X10698100Y-5958000I38100J0D01*
G01*
X10698100Y-6212000D02*
G75*
G02*
X10621900Y-6212000I-38100J0D01*
G01*
X10621900Y-6212000D02*
G75*
G02*
X10698100Y-6212000I38100J0D01*
G01*
X10698100Y-6466000D02*
G75*
G02*
X10621900Y-6466000I-38100J0D01*
G01*
X10621900Y-6466000D02*
G75*
G02*
X10698100Y-6466000I38100J0D01*
G01*
X10698100Y-6720000D02*
G75*
G02*
X10621900Y-6720000I-38100J0D01*
G01*
X10621900Y-6720000D02*
G75*
G02*
X10698100Y-6720000I38100J0D01*
G01*
X10952100Y-7228000D02*
G75*
G02*
X10875900Y-7228000I-38100J0D01*
G01*
X10875900Y-7228000D02*
G75*
G02*
X10952100Y-7228000I38100J0D01*
G01*
X11206100Y-7228000D02*
G75*
G02*
X11129900Y-7228000I-38100J0D01*
G01*
X11129900Y-7228000D02*
G75*
G02*
X11206100Y-7228000I38100J0D01*
G01*
X11460100Y-7228000D02*
G75*
G02*
X11383900Y-7228000I-38100J0D01*
G01*
X11383900Y-7228000D02*
G75*
G02*
X11460100Y-7228000I38100J0D01*
G01*
X11714100Y-7228000D02*
G75*
G02*
X11637900Y-7228000I-38100J0D01*
G01*
X11637900Y-7228000D02*
G75*
G02*
X11714100Y-7228000I38100J0D01*
G01*
X11968100Y-7228000D02*
G75*
G02*
X11891900Y-7228000I-38100J0D01*
G01*
X11891900Y-7228000D02*
G75*
G02*
X11968100Y-7228000I38100J0D01*
G01*
X12222100Y-7228000D02*
G75*
G02*
X12145900Y-7228000I-38100J0D01*
G01*
X12145900Y-7228000D02*
G75*
G02*
X12222100Y-7228000I38100J0D01*
G01*
X12476100Y-7228000D02*
G75*
G02*
X12399900Y-7228000I-38100J0D01*
G01*
X12399900Y-7228000D02*
G75*
G02*
X12476100Y-7228000I38100J0D01*
G01*
X12730100Y-7228000D02*
G75*
G02*
X12653900Y-7228000I-38100J0D01*
G01*
X12653900Y-7228000D02*
G75*
G02*
X12730100Y-7228000I38100J0D01*
G01*
X12984100Y-7228000D02*
G75*
G02*
X12907900Y-7228000I-38100J0D01*
G01*
X12907900Y-7228000D02*
G75*
G02*
X12984100Y-7228000I38100J0D01*
G01*
X13238100Y-4942000D02*
G75*
G02*
X13161900Y-4942000I-38100J0D01*
G01*
X13161900Y-4942000D02*
G75*
G02*
X13238100Y-4942000I38100J0D01*
G01*
X13238100Y-5196000D02*
G75*
G02*
X13161900Y-5196000I-38100J0D01*
G01*
X13161900Y-5196000D02*
G75*
G02*
X13238100Y-5196000I38100J0D01*
G01*
X13238100Y-5450000D02*
G75*
G02*
X13161900Y-5450000I-38100J0D01*
G01*
X13161900Y-5450000D02*
G75*
G02*
X13238100Y-5450000I38100J0D01*
G01*
X13238100Y-5704000D02*
G75*
G02*
X13161900Y-5704000I-38100J0D01*
G01*
X13161900Y-5704000D02*
G75*
G02*
X13238100Y-5704000I38100J0D01*
G01*
X13238100Y-5958000D02*
G75*
G02*
X13161900Y-5958000I-38100J0D01*
G01*
X13161900Y-5958000D02*
G75*
G02*
X13238100Y-5958000I38100J0D01*
G01*
X13238100Y-6212000D02*
G75*
G02*
X13161900Y-6212000I-38100J0D01*
G01*
X13161900Y-6212000D02*
G75*
G02*
X13238100Y-6212000I38100J0D01*
G01*
X13238100Y-6466000D02*
G75*
G02*
X13161900Y-6466000I-38100J0D01*
G01*
X13161900Y-6466000D02*
G75*
G02*
X13238100Y-6466000I38100J0D01*
G01*
X13238100Y-7228000D02*
G75*
G02*
X13161900Y-7228000I-38100J0D01*
G01*
X13161900Y-7228000D02*
G75*
G02*
X13238100Y-7228000I38100J0D01*
G01*
X13492100Y-4942000D02*
G75*
G02*
X13415900Y-4942000I-38100J0D01*
G01*
X13415900Y-4942000D02*
G75*
G02*
X13492100Y-4942000I38100J0D01*
G01*
X13492100Y-5196000D02*
G75*
G02*
X13415900Y-5196000I-38100J0D01*
G01*
X13415900Y-5196000D02*
G75*
G02*
X13492100Y-5196000I38100J0D01*
G01*
X13492100Y-5450000D02*
G75*
G02*
X13415900Y-5450000I-38100J0D01*
G01*
X13415900Y-5450000D02*
G75*
G02*
X13492100Y-5450000I38100J0D01*
G01*
X13492100Y-5704000D02*
G75*
G02*
X13415900Y-5704000I-38100J0D01*
G01*
X13415900Y-5704000D02*
G75*
G02*
X13492100Y-5704000I38100J0D01*
G01*
X13492100Y-5958000D02*
G75*
G02*
X13415900Y-5958000I-38100J0D01*
G01*
X13415900Y-5958000D02*
G75*
G02*
X13492100Y-5958000I38100J0D01*
G01*
X13492100Y-6212000D02*
G75*
G02*
X13415900Y-6212000I-38100J0D01*
G01*
X13415900Y-6212000D02*
G75*
G02*
X13492100Y-6212000I38100J0D01*
G01*
X13492100Y-6466000D02*
G75*
G02*
X13415900Y-6466000I-38100J0D01*
G01*
X13415900Y-6466000D02*
G75*
G02*
X13492100Y-6466000I38100J0D01*
G01*
X14008100Y-4977000D02*
G75*
G02*
X13931900Y-4977000I-38100J0D01*
G01*
X13931900Y-4977000D02*
G75*
G02*
X14008100Y-4977000I38100J0D01*
G01*
X14008100Y-5231000D02*
G75*
G02*
X13931900Y-5231000I-38100J0D01*
G01*
X13931900Y-5231000D02*
G75*
G02*
X14008100Y-5231000I38100J0D01*
G01*
X14008100Y-5485000D02*
G75*
G02*
X13931900Y-5485000I-38100J0D01*
G01*
X13931900Y-5485000D02*
G75*
G02*
X14008100Y-5485000I38100J0D01*
G01*
X14008100Y-5739000D02*
G75*
G02*
X13931900Y-5739000I-38100J0D01*
G01*
X13931900Y-5739000D02*
G75*
G02*
X14008100Y-5739000I38100J0D01*
G01*
X14262100Y-4977000D02*
G75*
G02*
X14185900Y-4977000I-38100J0D01*
G01*
X14185900Y-4977000D02*
G75*
G02*
X14262100Y-4977000I38100J0D01*
G01*
X14262100Y-5231000D02*
G75*
G02*
X14185900Y-5231000I-38100J0D01*
G01*
X14185900Y-5231000D02*
G75*
G02*
X14262100Y-5231000I38100J0D01*
G01*
X14262100Y-5485000D02*
G75*
G02*
X14185900Y-5485000I-38100J0D01*
G01*
X14185900Y-5485000D02*
G75*
G02*
X14262100Y-5485000I38100J0D01*
G01*
X14262100Y-5739000D02*
G75*
G02*
X14185900Y-5739000I-38100J0D01*
G01*
X14185900Y-5739000D02*
G75*
G02*
X14262100Y-5739000I38100J0D01*
G01*
X11069500Y-5960000D02*
X11069500Y-6040000D01*
X11029500Y-6000000D02*
X11109500Y-6000000D01*
X11069500Y-6722000D02*
X11069500Y-6802000D01*
X11029500Y-6762000D02*
X11109500Y-6762000D01*
X11072500Y-4588000D02*
X11072500Y-4668000D01*
X11032500Y-4628000D02*
X11112500Y-4628000D01*
X11072500Y-5350000D02*
X11072500Y-5430000D01*
X11032500Y-5390000D02*
X11112500Y-5390000D01*
X11323500Y-5960000D02*
X11323500Y-6040000D01*
X11283500Y-6000000D02*
X11363500Y-6000000D01*
X11323500Y-6722000D02*
X11323500Y-6802000D01*
X11283500Y-6762000D02*
X11363500Y-6762000D01*
X11326500Y-4588000D02*
X11326500Y-4668000D01*
X11286500Y-4628000D02*
X11366500Y-4628000D01*
X11326500Y-5350000D02*
X11326500Y-5430000D01*
X11286500Y-5390000D02*
X11366500Y-5390000D01*
X11577500Y-5960000D02*
X11577500Y-6040000D01*
X11537500Y-6000000D02*
X11617500Y-6000000D01*
X11577500Y-6722000D02*
X11577500Y-6802000D01*
X11537500Y-6762000D02*
X11617500Y-6762000D01*
X11580500Y-4588000D02*
X11580500Y-4668000D01*
X11540500Y-4628000D02*
X11620500Y-4628000D01*
X11580500Y-5350000D02*
X11580500Y-5430000D01*
X11540500Y-5390000D02*
X11620500Y-5390000D01*
X11831500Y-5960000D02*
X11831500Y-6040000D01*
X11791500Y-6000000D02*
X11871500Y-6000000D01*
X11831500Y-6722000D02*
X11831500Y-6802000D01*
X11791500Y-6762000D02*
X11871500Y-6762000D01*
X11834500Y-4588000D02*
X11834500Y-4668000D01*
X11794500Y-4628000D02*
X11874500Y-4628000D01*
X11834500Y-5350000D02*
X11834500Y-5430000D01*
X11794500Y-5390000D02*
X11874500Y-5390000D01*
X12085500Y-5960000D02*
X12085500Y-6040000D01*
X12045500Y-6000000D02*
X12125500Y-6000000D01*
X12085500Y-6722000D02*
X12085500Y-6802000D01*
X12045500Y-6762000D02*
X12125500Y-6762000D01*
X12088500Y-4588000D02*
X12088500Y-4668000D01*
X12048500Y-4628000D02*
X12128500Y-4628000D01*
X12088500Y-5350000D02*
X12088500Y-5430000D01*
X12048500Y-5390000D02*
X12128500Y-5390000D01*
X12339500Y-5960000D02*
X12339500Y-6040000D01*
X12299500Y-6000000D02*
X12379500Y-6000000D01*
X12339500Y-6722000D02*
X12339500Y-6802000D01*
X12299500Y-6762000D02*
X12379500Y-6762000D01*
X12342500Y-4588000D02*
X12342500Y-4668000D01*
X12302500Y-4628000D02*
X12382500Y-4628000D01*
X12342500Y-5350000D02*
X12342500Y-5430000D01*
X12302500Y-5390000D02*
X12382500Y-5390000D01*
X12593500Y-5960000D02*
X12593500Y-6040000D01*
X12553500Y-6000000D02*
X12633500Y-6000000D01*
X12593500Y-6722000D02*
X12593500Y-6802000D01*
X12553500Y-6762000D02*
X12633500Y-6762000D01*
X12596500Y-4588000D02*
X12596500Y-4668000D01*
X12556500Y-4628000D02*
X12636500Y-4628000D01*
X12596500Y-5350000D02*
X12596500Y-5430000D01*
X12556500Y-5390000D02*
X12636500Y-5390000D01*
X12847500Y-5960000D02*
X12847500Y-6040000D01*
X12807500Y-6000000D02*
X12887500Y-6000000D01*
X12847500Y-6722000D02*
X12847500Y-6802000D01*
X12807500Y-6762000D02*
X12887500Y-6762000D01*
X12850500Y-4588000D02*
X12850500Y-4668000D01*
X12810500Y-4628000D02*
X12890500Y-4628000D01*
X12850500Y-5350000D02*
X12850500Y-5430000D01*
X12810500Y-5390000D02*
X12890500Y-5390000D01*
X9153820Y-10782820D02*
X9153820Y-10719180D01*
X9090180Y-10719180D01*
X9090180Y-10782820D01*
X9153820Y-10782820D01*
X9153820Y-11036820D02*
X9153820Y-10973180D01*
X9090180Y-10973180D01*
X9090180Y-11036820D01*
X9153820Y-11036820D01*
X10169820Y-10782820D02*
X10169820Y-10719180D01*
X10106180Y-10719180D01*
X10106180Y-10782820D01*
X10169820Y-10782820D01*
X10169820Y-11036820D02*
X10169820Y-10973180D01*
X10106180Y-10973180D01*
X10106180Y-11036820D01*
X10169820Y-11036820D01*
X9150000Y-6325000D02*
X9200000Y-6275000D01*
X9150000Y-6225000D01*
X9100000Y-6275000D01*
X9150000Y-6325000D01*
X9502500Y-4335000D02*
X9552500Y-4285000D01*
X9502500Y-4235000D01*
X9452500Y-4285000D01*
X9502500Y-4335000D01*
X9502500Y-4589000D02*
X9552500Y-4539000D01*
X9502500Y-4489000D01*
X9452500Y-4539000D01*
X9502500Y-4589000D01*
X9550000Y-6325000D02*
X9600000Y-6275000D01*
X9550000Y-6225000D01*
X9500000Y-6275000D01*
X9550000Y-6325000D01*
X9992500Y-6005000D02*
X10042500Y-5955000D01*
X9992500Y-5905000D01*
X9942500Y-5955000D01*
X9992500Y-6005000D01*
X9992500Y-6259000D02*
X10042500Y-6209000D01*
X9992500Y-6159000D01*
X9942500Y-6209000D01*
X9992500Y-6259000D01*
X10432000Y-7730000D02*
X10482000Y-7680000D01*
X10432000Y-7630000D01*
X10382000Y-7680000D01*
X10432000Y-7730000D01*
X10550000Y-7325000D02*
X10600000Y-7275000D01*
X10550000Y-7225000D01*
X10500000Y-7275000D01*
X10550000Y-7325000D01*
X10646000Y-8515000D02*
X10696000Y-8465000D01*
X10646000Y-8415000D01*
X10596000Y-8465000D01*
X10646000Y-8515000D01*
X10686000Y-7730000D02*
X10736000Y-7680000D01*
X10686000Y-7630000D01*
X10636000Y-7680000D01*
X10686000Y-7730000D01*
X10940000Y-7730000D02*
X10990000Y-7680000D01*
X10940000Y-7630000D01*
X10890000Y-7680000D01*
X10940000Y-7730000D01*
X11154000Y-8515000D02*
X11204000Y-8465000D01*
X11154000Y-8415000D01*
X11104000Y-8465000D01*
X11154000Y-8515000D01*
X11194000Y-7730000D02*
X11244000Y-7680000D01*
X11194000Y-7630000D01*
X11144000Y-7680000D01*
X11194000Y-7730000D01*
X11876000Y-7730000D02*
X11926000Y-7680000D01*
X11876000Y-7630000D01*
X11826000Y-7680000D01*
X11876000Y-7730000D01*
X12130000Y-7730000D02*
X12180000Y-7680000D01*
X12130000Y-7630000D01*
X12080000Y-7680000D01*
X12130000Y-7730000D01*
X12384000Y-7730000D02*
X12434000Y-7680000D01*
X12384000Y-7630000D01*
X12334000Y-7680000D01*
X12384000Y-7730000D01*
X12638000Y-7730000D02*
X12688000Y-7680000D01*
X12638000Y-7630000D01*
X12588000Y-7680000D01*
X12638000Y-7730000D01*
X13896000Y-6626000D02*
X13946000Y-6576000D01*
X13896000Y-6526000D01*
X13846000Y-6576000D01*
X13896000Y-6626000D01*
X13896000Y-6880000D02*
X13946000Y-6830000D01*
X13896000Y-6780000D01*
X13846000Y-6830000D01*
X13896000Y-6880000D01*
X13896000Y-7134000D02*
X13946000Y-7084000D01*
X13896000Y-7034000D01*
X13846000Y-7084000D01*
X13896000Y-7134000D01*
X13948000Y-8515000D02*
X13998000Y-8465000D01*
X13948000Y-8415000D01*
X13898000Y-8465000D01*
X13948000Y-8515000D01*
X14150000Y-6626000D02*
X14200000Y-6576000D01*
X14150000Y-6526000D01*
X14100000Y-6576000D01*
X14150000Y-6626000D01*
X14150000Y-6880000D02*
X14200000Y-6830000D01*
X14150000Y-6780000D01*
X14100000Y-6830000D01*
X14150000Y-6880000D01*
X14150000Y-7134000D02*
X14200000Y-7084000D01*
X14150000Y-7034000D01*
X14100000Y-7084000D01*
X14150000Y-7134000D01*
D13*
X8230500Y-4922000D02*
X8340500Y-5032000D01*
X8340500Y-4922000D02*
X8230500Y-5032000D01*
X8340500Y-4977000D02*
G75*
G02*
X8230500Y-4977000I-55000J0D01*
G01*
X8230500Y-4977000D02*
G75*
G02*
X8340500Y-4977000I55000J0D01*
G01*
X8230500Y-5176000D02*
X8340500Y-5286000D01*
X8340500Y-5176000D02*
X8230500Y-5286000D01*
X8340500Y-5231000D02*
G75*
G02*
X8230500Y-5231000I-55000J0D01*
G01*
X8230500Y-5231000D02*
G75*
G02*
X8340500Y-5231000I55000J0D01*
G01*
X8230500Y-5430000D02*
X8340500Y-5540000D01*
X8340500Y-5430000D02*
X8230500Y-5540000D01*
X8340500Y-5485000D02*
G75*
G02*
X8230500Y-5485000I-55000J0D01*
G01*
X8230500Y-5485000D02*
G75*
G02*
X8340500Y-5485000I55000J0D01*
G01*
X13060000Y-10471000D02*
X13170000Y-10581000D01*
X13170000Y-10471000D02*
X13060000Y-10581000D01*
X13170000Y-10526000D02*
G75*
G02*
X13060000Y-10526000I-55000J0D01*
G01*
X13060000Y-10526000D02*
G75*
G02*
X13170000Y-10526000I55000J0D01*
G01*
X13060000Y-10921000D02*
X13170000Y-11031000D01*
X13170000Y-10921000D02*
X13060000Y-11031000D01*
X13170000Y-10976000D02*
G75*
G02*
X13060000Y-10976000I-55000J0D01*
G01*
X13060000Y-10976000D02*
G75*
G02*
X13170000Y-10976000I55000J0D01*
G01*
X13710000Y-10471000D02*
X13820000Y-10581000D01*
X13820000Y-10471000D02*
X13710000Y-10581000D01*
X13820000Y-10526000D02*
G75*
G02*
X13710000Y-10526000I-55000J0D01*
G01*
X13710000Y-10526000D02*
G75*
G02*
X13820000Y-10526000I55000J0D01*
G01*
X13710000Y-10921000D02*
X13820000Y-11031000D01*
X13820000Y-10921000D02*
X13710000Y-11031000D01*
X13820000Y-10976000D02*
G75*
G02*
X13710000Y-10976000I-55000J0D01*
G01*
X13710000Y-10976000D02*
G75*
G02*
X13820000Y-10976000I55000J0D01*
G01*
D12*
X8255777Y-11943984D02*
X8255777Y-11743984D01*
X8255777Y-11743984D02*
X8303396Y-11743984D01*
X8303396Y-11743984D02*
X8331967Y-11753508D01*
X8331967Y-11753508D02*
X8351015Y-11772555D01*
X8351015Y-11772555D02*
X8360539Y-11791603D01*
X8360539Y-11791603D02*
X8370062Y-11829698D01*
X8370062Y-11829698D02*
X8370062Y-11858269D01*
X8370062Y-11858269D02*
X8360539Y-11896365D01*
X8360539Y-11896365D02*
X8351015Y-11915412D01*
X8351015Y-11915412D02*
X8331967Y-11934460D01*
X8331967Y-11934460D02*
X8303396Y-11943984D01*
X8303396Y-11943984D02*
X8255777Y-11943984D01*
X8455777Y-11943984D02*
X8455777Y-11810650D01*
X8455777Y-11848746D02*
X8465301Y-11829698D01*
X8465301Y-11829698D02*
X8474824Y-11820174D01*
X8474824Y-11820174D02*
X8493872Y-11810650D01*
X8493872Y-11810650D02*
X8512920Y-11810650D01*
X8579586Y-11943984D02*
X8579586Y-11810650D01*
X8579586Y-11743984D02*
X8570063Y-11753508D01*
X8570063Y-11753508D02*
X8579586Y-11763031D01*
X8579586Y-11763031D02*
X8589110Y-11753508D01*
X8589110Y-11753508D02*
X8579586Y-11743984D01*
X8579586Y-11743984D02*
X8579586Y-11763031D01*
X8703396Y-11943984D02*
X8684348Y-11934460D01*
X8684348Y-11934460D02*
X8674824Y-11915412D01*
X8674824Y-11915412D02*
X8674824Y-11743984D01*
X8808158Y-11943984D02*
X8789110Y-11934460D01*
X8789110Y-11934460D02*
X8779586Y-11915412D01*
X8779586Y-11915412D02*
X8779586Y-11743984D01*
X9036729Y-11943984D02*
X9036729Y-11743984D01*
X9036729Y-11743984D02*
X9103396Y-11886841D01*
X9103396Y-11886841D02*
X9170063Y-11743984D01*
X9170063Y-11743984D02*
X9170063Y-11943984D01*
X9351015Y-11943984D02*
X9351015Y-11839222D01*
X9351015Y-11839222D02*
X9341491Y-11820174D01*
X9341491Y-11820174D02*
X9322444Y-11810650D01*
X9322444Y-11810650D02*
X9284348Y-11810650D01*
X9284348Y-11810650D02*
X9265301Y-11820174D01*
X9351015Y-11934460D02*
X9331967Y-11943984D01*
X9331967Y-11943984D02*
X9284348Y-11943984D01*
X9284348Y-11943984D02*
X9265301Y-11934460D01*
X9265301Y-11934460D02*
X9255777Y-11915412D01*
X9255777Y-11915412D02*
X9255777Y-11896365D01*
X9255777Y-11896365D02*
X9265301Y-11877317D01*
X9265301Y-11877317D02*
X9284348Y-11867793D01*
X9284348Y-11867793D02*
X9331967Y-11867793D01*
X9331967Y-11867793D02*
X9351015Y-11858269D01*
X9446253Y-11810650D02*
X9446253Y-12010650D01*
X9446253Y-11820174D02*
X9465301Y-11810650D01*
X9465301Y-11810650D02*
X9503396Y-11810650D01*
X9503396Y-11810650D02*
X9522444Y-11820174D01*
X9522444Y-11820174D02*
X9531967Y-11829698D01*
X9531967Y-11829698D02*
X9541491Y-11848746D01*
X9541491Y-11848746D02*
X9541491Y-11905888D01*
X9541491Y-11905888D02*
X9531967Y-11924936D01*
X9531967Y-11924936D02*
X9522444Y-11934460D01*
X9522444Y-11934460D02*
X9503396Y-11943984D01*
X9503396Y-11943984D02*
X9465301Y-11943984D01*
X9465301Y-11943984D02*
X9446253Y-11934460D01*
X9627205Y-11924936D02*
X9636729Y-11934460D01*
X9636729Y-11934460D02*
X9627205Y-11943984D01*
X9627205Y-11943984D02*
X9617682Y-11934460D01*
X9617682Y-11934460D02*
X9627205Y-11924936D01*
X9627205Y-11924936D02*
X9627205Y-11943984D01*
X9627205Y-11820174D02*
X9636729Y-11829698D01*
X9636729Y-11829698D02*
X9627205Y-11839222D01*
X9627205Y-11839222D02*
X9617682Y-11829698D01*
X9617682Y-11829698D02*
X9627205Y-11820174D01*
X9627205Y-11820174D02*
X9627205Y-11839222D01*
D10*
X7935000Y-12242500D02*
X7995000Y-12302500D01*
X7995000Y-12242500D02*
X7935000Y-12302500D01*
D12*
X8293872Y-12163984D02*
X8312920Y-12163984D01*
X8312920Y-12163984D02*
X8331967Y-12173508D01*
X8331967Y-12173508D02*
X8341491Y-12183031D01*
X8341491Y-12183031D02*
X8351015Y-12202079D01*
X8351015Y-12202079D02*
X8360539Y-12240174D01*
X8360539Y-12240174D02*
X8360539Y-12287793D01*
X8360539Y-12287793D02*
X8351015Y-12325888D01*
X8351015Y-12325888D02*
X8341491Y-12344936D01*
X8341491Y-12344936D02*
X8331967Y-12354460D01*
X8331967Y-12354460D02*
X8312920Y-12363984D01*
X8312920Y-12363984D02*
X8293872Y-12363984D01*
X8293872Y-12363984D02*
X8274824Y-12354460D01*
X8274824Y-12354460D02*
X8265301Y-12344936D01*
X8265301Y-12344936D02*
X8255777Y-12325888D01*
X8255777Y-12325888D02*
X8246253Y-12287793D01*
X8246253Y-12287793D02*
X8246253Y-12240174D01*
X8246253Y-12240174D02*
X8255777Y-12202079D01*
X8255777Y-12202079D02*
X8265301Y-12183031D01*
X8265301Y-12183031D02*
X8274824Y-12173508D01*
X8274824Y-12173508D02*
X8293872Y-12163984D01*
X8446253Y-12344936D02*
X8455777Y-12354460D01*
X8455777Y-12354460D02*
X8446253Y-12363984D01*
X8446253Y-12363984D02*
X8436729Y-12354460D01*
X8436729Y-12354460D02*
X8446253Y-12344936D01*
X8446253Y-12344936D02*
X8446253Y-12363984D01*
X8627205Y-12163984D02*
X8589110Y-12163984D01*
X8589110Y-12163984D02*
X8570063Y-12173508D01*
X8570063Y-12173508D02*
X8560539Y-12183031D01*
X8560539Y-12183031D02*
X8541491Y-12211603D01*
X8541491Y-12211603D02*
X8531967Y-12249698D01*
X8531967Y-12249698D02*
X8531967Y-12325888D01*
X8531967Y-12325888D02*
X8541491Y-12344936D01*
X8541491Y-12344936D02*
X8551015Y-12354460D01*
X8551015Y-12354460D02*
X8570063Y-12363984D01*
X8570063Y-12363984D02*
X8608158Y-12363984D01*
X8608158Y-12363984D02*
X8627205Y-12354460D01*
X8627205Y-12354460D02*
X8636729Y-12344936D01*
X8636729Y-12344936D02*
X8646253Y-12325888D01*
X8646253Y-12325888D02*
X8646253Y-12278269D01*
X8646253Y-12278269D02*
X8636729Y-12259222D01*
X8636729Y-12259222D02*
X8627205Y-12249698D01*
X8627205Y-12249698D02*
X8608158Y-12240174D01*
X8608158Y-12240174D02*
X8570063Y-12240174D01*
X8570063Y-12240174D02*
X8551015Y-12249698D01*
X8551015Y-12249698D02*
X8541491Y-12259222D01*
X8541491Y-12259222D02*
X8531967Y-12278269D01*
X8770063Y-12163984D02*
X8789110Y-12163984D01*
X8789110Y-12163984D02*
X8808158Y-12173508D01*
X8808158Y-12173508D02*
X8817682Y-12183031D01*
X8817682Y-12183031D02*
X8827205Y-12202079D01*
X8827205Y-12202079D02*
X8836729Y-12240174D01*
X8836729Y-12240174D02*
X8836729Y-12287793D01*
X8836729Y-12287793D02*
X8827205Y-12325888D01*
X8827205Y-12325888D02*
X8817682Y-12344936D01*
X8817682Y-12344936D02*
X8808158Y-12354460D01*
X8808158Y-12354460D02*
X8789110Y-12363984D01*
X8789110Y-12363984D02*
X8770063Y-12363984D01*
X8770063Y-12363984D02*
X8751015Y-12354460D01*
X8751015Y-12354460D02*
X8741491Y-12344936D01*
X8741491Y-12344936D02*
X8731967Y-12325888D01*
X8731967Y-12325888D02*
X8722444Y-12287793D01*
X8722444Y-12287793D02*
X8722444Y-12240174D01*
X8722444Y-12240174D02*
X8731967Y-12202079D01*
X8731967Y-12202079D02*
X8741491Y-12183031D01*
X8741491Y-12183031D02*
X8751015Y-12173508D01*
X8751015Y-12173508D02*
X8770063Y-12163984D01*
X8960539Y-12163984D02*
X8979586Y-12163984D01*
X8979586Y-12163984D02*
X8998634Y-12173508D01*
X8998634Y-12173508D02*
X9008158Y-12183031D01*
X9008158Y-12183031D02*
X9017682Y-12202079D01*
X9017682Y-12202079D02*
X9027205Y-12240174D01*
X9027205Y-12240174D02*
X9027205Y-12287793D01*
X9027205Y-12287793D02*
X9017682Y-12325888D01*
X9017682Y-12325888D02*
X9008158Y-12344936D01*
X9008158Y-12344936D02*
X8998634Y-12354460D01*
X8998634Y-12354460D02*
X8979586Y-12363984D01*
X8979586Y-12363984D02*
X8960539Y-12363984D01*
X8960539Y-12363984D02*
X8941491Y-12354460D01*
X8941491Y-12354460D02*
X8931967Y-12344936D01*
X8931967Y-12344936D02*
X8922444Y-12325888D01*
X8922444Y-12325888D02*
X8912920Y-12287793D01*
X8912920Y-12287793D02*
X8912920Y-12240174D01*
X8912920Y-12240174D02*
X8922444Y-12202079D01*
X8922444Y-12202079D02*
X8931967Y-12183031D01*
X8931967Y-12183031D02*
X8941491Y-12173508D01*
X8941491Y-12173508D02*
X8960539Y-12163984D01*
X9112920Y-12363984D02*
X9112920Y-12230650D01*
X9112920Y-12249698D02*
X9122444Y-12240174D01*
X9122444Y-12240174D02*
X9141491Y-12230650D01*
X9141491Y-12230650D02*
X9170063Y-12230650D01*
X9170063Y-12230650D02*
X9189110Y-12240174D01*
X9189110Y-12240174D02*
X9198634Y-12259222D01*
X9198634Y-12259222D02*
X9198634Y-12363984D01*
X9198634Y-12259222D02*
X9208158Y-12240174D01*
X9208158Y-12240174D02*
X9227205Y-12230650D01*
X9227205Y-12230650D02*
X9255777Y-12230650D01*
X9255777Y-12230650D02*
X9274825Y-12240174D01*
X9274825Y-12240174D02*
X9284348Y-12259222D01*
X9284348Y-12259222D02*
X9284348Y-12363984D01*
X9379586Y-12363984D02*
X9379586Y-12230650D01*
X9379586Y-12249698D02*
X9389110Y-12240174D01*
X9389110Y-12240174D02*
X9408158Y-12230650D01*
X9408158Y-12230650D02*
X9436729Y-12230650D01*
X9436729Y-12230650D02*
X9455777Y-12240174D01*
X9455777Y-12240174D02*
X9465301Y-12259222D01*
X9465301Y-12259222D02*
X9465301Y-12363984D01*
X9465301Y-12259222D02*
X9474825Y-12240174D01*
X9474825Y-12240174D02*
X9493872Y-12230650D01*
X9493872Y-12230650D02*
X9522444Y-12230650D01*
X9522444Y-12230650D02*
X9541491Y-12240174D01*
X9541491Y-12240174D02*
X9551015Y-12259222D01*
X9551015Y-12259222D02*
X9551015Y-12363984D01*
X9941491Y-12154460D02*
X9770063Y-12411603D01*
X10198634Y-12163984D02*
X10217682Y-12163984D01*
X10217682Y-12163984D02*
X10236729Y-12173508D01*
X10236729Y-12173508D02*
X10246253Y-12183031D01*
X10246253Y-12183031D02*
X10255777Y-12202079D01*
X10255777Y-12202079D02*
X10265301Y-12240174D01*
X10265301Y-12240174D02*
X10265301Y-12287793D01*
X10265301Y-12287793D02*
X10255777Y-12325888D01*
X10255777Y-12325888D02*
X10246253Y-12344936D01*
X10246253Y-12344936D02*
X10236729Y-12354460D01*
X10236729Y-12354460D02*
X10217682Y-12363984D01*
X10217682Y-12363984D02*
X10198634Y-12363984D01*
X10198634Y-12363984D02*
X10179587Y-12354460D01*
X10179587Y-12354460D02*
X10170063Y-12344936D01*
X10170063Y-12344936D02*
X10160539Y-12325888D01*
X10160539Y-12325888D02*
X10151015Y-12287793D01*
X10151015Y-12287793D02*
X10151015Y-12240174D01*
X10151015Y-12240174D02*
X10160539Y-12202079D01*
X10160539Y-12202079D02*
X10170063Y-12183031D01*
X10170063Y-12183031D02*
X10179587Y-12173508D01*
X10179587Y-12173508D02*
X10198634Y-12163984D01*
X10351015Y-12344936D02*
X10360539Y-12354460D01*
X10360539Y-12354460D02*
X10351015Y-12363984D01*
X10351015Y-12363984D02*
X10341491Y-12354460D01*
X10341491Y-12354460D02*
X10351015Y-12344936D01*
X10351015Y-12344936D02*
X10351015Y-12363984D01*
X10484348Y-12163984D02*
X10503396Y-12163984D01*
X10503396Y-12163984D02*
X10522444Y-12173508D01*
X10522444Y-12173508D02*
X10531968Y-12183031D01*
X10531968Y-12183031D02*
X10541491Y-12202079D01*
X10541491Y-12202079D02*
X10551015Y-12240174D01*
X10551015Y-12240174D02*
X10551015Y-12287793D01*
X10551015Y-12287793D02*
X10541491Y-12325888D01*
X10541491Y-12325888D02*
X10531968Y-12344936D01*
X10531968Y-12344936D02*
X10522444Y-12354460D01*
X10522444Y-12354460D02*
X10503396Y-12363984D01*
X10503396Y-12363984D02*
X10484348Y-12363984D01*
X10484348Y-12363984D02*
X10465301Y-12354460D01*
X10465301Y-12354460D02*
X10455777Y-12344936D01*
X10455777Y-12344936D02*
X10446253Y-12325888D01*
X10446253Y-12325888D02*
X10436729Y-12287793D01*
X10436729Y-12287793D02*
X10436729Y-12240174D01*
X10436729Y-12240174D02*
X10446253Y-12202079D01*
X10446253Y-12202079D02*
X10455777Y-12183031D01*
X10455777Y-12183031D02*
X10465301Y-12173508D01*
X10465301Y-12173508D02*
X10484348Y-12163984D01*
X10627206Y-12183031D02*
X10636729Y-12173508D01*
X10636729Y-12173508D02*
X10655777Y-12163984D01*
X10655777Y-12163984D02*
X10703396Y-12163984D01*
X10703396Y-12163984D02*
X10722444Y-12173508D01*
X10722444Y-12173508D02*
X10731968Y-12183031D01*
X10731968Y-12183031D02*
X10741491Y-12202079D01*
X10741491Y-12202079D02*
X10741491Y-12221127D01*
X10741491Y-12221127D02*
X10731968Y-12249698D01*
X10731968Y-12249698D02*
X10617682Y-12363984D01*
X10617682Y-12363984D02*
X10741491Y-12363984D01*
X10808158Y-12163984D02*
X10931968Y-12163984D01*
X10931968Y-12163984D02*
X10865301Y-12240174D01*
X10865301Y-12240174D02*
X10893872Y-12240174D01*
X10893872Y-12240174D02*
X10912920Y-12249698D01*
X10912920Y-12249698D02*
X10922444Y-12259222D01*
X10922444Y-12259222D02*
X10931968Y-12278269D01*
X10931968Y-12278269D02*
X10931968Y-12325888D01*
X10931968Y-12325888D02*
X10922444Y-12344936D01*
X10922444Y-12344936D02*
X10912920Y-12354460D01*
X10912920Y-12354460D02*
X10893872Y-12363984D01*
X10893872Y-12363984D02*
X10836729Y-12363984D01*
X10836729Y-12363984D02*
X10817682Y-12354460D01*
X10817682Y-12354460D02*
X10808158Y-12344936D01*
X11103396Y-12163984D02*
X11065301Y-12163984D01*
X11065301Y-12163984D02*
X11046253Y-12173508D01*
X11046253Y-12173508D02*
X11036729Y-12183031D01*
X11036729Y-12183031D02*
X11017682Y-12211603D01*
X11017682Y-12211603D02*
X11008158Y-12249698D01*
X11008158Y-12249698D02*
X11008158Y-12325888D01*
X11008158Y-12325888D02*
X11017682Y-12344936D01*
X11017682Y-12344936D02*
X11027206Y-12354460D01*
X11027206Y-12354460D02*
X11046253Y-12363984D01*
X11046253Y-12363984D02*
X11084349Y-12363984D01*
X11084349Y-12363984D02*
X11103396Y-12354460D01*
X11103396Y-12354460D02*
X11112920Y-12344936D01*
X11112920Y-12344936D02*
X11122444Y-12325888D01*
X11122444Y-12325888D02*
X11122444Y-12278269D01*
X11122444Y-12278269D02*
X11112920Y-12259222D01*
X11112920Y-12259222D02*
X11103396Y-12249698D01*
X11103396Y-12249698D02*
X11084349Y-12240174D01*
X11084349Y-12240174D02*
X11046253Y-12240174D01*
X11046253Y-12240174D02*
X11027206Y-12249698D01*
X11027206Y-12249698D02*
X11017682Y-12259222D01*
X11017682Y-12259222D02*
X11008158Y-12278269D01*
X11198634Y-12163984D02*
X11198634Y-12202079D01*
X11274825Y-12163984D02*
X11274825Y-12202079D01*
X11570063Y-12440174D02*
X11560539Y-12430650D01*
X11560539Y-12430650D02*
X11541491Y-12402079D01*
X11541491Y-12402079D02*
X11531968Y-12383031D01*
X11531968Y-12383031D02*
X11522444Y-12354460D01*
X11522444Y-12354460D02*
X11512920Y-12306841D01*
X11512920Y-12306841D02*
X11512920Y-12268746D01*
X11512920Y-12268746D02*
X11522444Y-12221127D01*
X11522444Y-12221127D02*
X11531968Y-12192555D01*
X11531968Y-12192555D02*
X11541491Y-12173508D01*
X11541491Y-12173508D02*
X11560539Y-12144936D01*
X11560539Y-12144936D02*
X11570063Y-12135412D01*
X11731968Y-12163984D02*
X11693872Y-12163984D01*
X11693872Y-12163984D02*
X11674825Y-12173508D01*
X11674825Y-12173508D02*
X11665301Y-12183031D01*
X11665301Y-12183031D02*
X11646253Y-12211603D01*
X11646253Y-12211603D02*
X11636729Y-12249698D01*
X11636729Y-12249698D02*
X11636729Y-12325888D01*
X11636729Y-12325888D02*
X11646253Y-12344936D01*
X11646253Y-12344936D02*
X11655777Y-12354460D01*
X11655777Y-12354460D02*
X11674825Y-12363984D01*
X11674825Y-12363984D02*
X11712920Y-12363984D01*
X11712920Y-12363984D02*
X11731968Y-12354460D01*
X11731968Y-12354460D02*
X11741491Y-12344936D01*
X11741491Y-12344936D02*
X11751015Y-12325888D01*
X11751015Y-12325888D02*
X11751015Y-12278269D01*
X11751015Y-12278269D02*
X11741491Y-12259222D01*
X11741491Y-12259222D02*
X11731968Y-12249698D01*
X11731968Y-12249698D02*
X11712920Y-12240174D01*
X11712920Y-12240174D02*
X11674825Y-12240174D01*
X11674825Y-12240174D02*
X11655777Y-12249698D01*
X11655777Y-12249698D02*
X11646253Y-12259222D01*
X11646253Y-12259222D02*
X11636729Y-12278269D01*
X11989110Y-12363984D02*
X11989110Y-12163984D01*
X12074825Y-12363984D02*
X12074825Y-12259222D01*
X12074825Y-12259222D02*
X12065301Y-12240174D01*
X12065301Y-12240174D02*
X12046253Y-12230650D01*
X12046253Y-12230650D02*
X12017682Y-12230650D01*
X12017682Y-12230650D02*
X11998634Y-12240174D01*
X11998634Y-12240174D02*
X11989110Y-12249698D01*
X12198634Y-12363984D02*
X12179587Y-12354460D01*
X12179587Y-12354460D02*
X12170063Y-12344936D01*
X12170063Y-12344936D02*
X12160539Y-12325888D01*
X12160539Y-12325888D02*
X12160539Y-12268746D01*
X12160539Y-12268746D02*
X12170063Y-12249698D01*
X12170063Y-12249698D02*
X12179587Y-12240174D01*
X12179587Y-12240174D02*
X12198634Y-12230650D01*
X12198634Y-12230650D02*
X12227206Y-12230650D01*
X12227206Y-12230650D02*
X12246253Y-12240174D01*
X12246253Y-12240174D02*
X12255777Y-12249698D01*
X12255777Y-12249698D02*
X12265301Y-12268746D01*
X12265301Y-12268746D02*
X12265301Y-12325888D01*
X12265301Y-12325888D02*
X12255777Y-12344936D01*
X12255777Y-12344936D02*
X12246253Y-12354460D01*
X12246253Y-12354460D02*
X12227206Y-12363984D01*
X12227206Y-12363984D02*
X12198634Y-12363984D01*
X12379587Y-12363984D02*
X12360539Y-12354460D01*
X12360539Y-12354460D02*
X12351015Y-12335412D01*
X12351015Y-12335412D02*
X12351015Y-12163984D01*
X12531968Y-12354460D02*
X12512920Y-12363984D01*
X12512920Y-12363984D02*
X12474825Y-12363984D01*
X12474825Y-12363984D02*
X12455777Y-12354460D01*
X12455777Y-12354460D02*
X12446253Y-12335412D01*
X12446253Y-12335412D02*
X12446253Y-12259222D01*
X12446253Y-12259222D02*
X12455777Y-12240174D01*
X12455777Y-12240174D02*
X12474825Y-12230650D01*
X12474825Y-12230650D02*
X12512920Y-12230650D01*
X12512920Y-12230650D02*
X12531968Y-12240174D01*
X12531968Y-12240174D02*
X12541491Y-12259222D01*
X12541491Y-12259222D02*
X12541491Y-12278269D01*
X12541491Y-12278269D02*
X12446253Y-12297317D01*
X12617682Y-12354460D02*
X12636730Y-12363984D01*
X12636730Y-12363984D02*
X12674825Y-12363984D01*
X12674825Y-12363984D02*
X12693872Y-12354460D01*
X12693872Y-12354460D02*
X12703396Y-12335412D01*
X12703396Y-12335412D02*
X12703396Y-12325888D01*
X12703396Y-12325888D02*
X12693872Y-12306841D01*
X12693872Y-12306841D02*
X12674825Y-12297317D01*
X12674825Y-12297317D02*
X12646253Y-12297317D01*
X12646253Y-12297317D02*
X12627206Y-12287793D01*
X12627206Y-12287793D02*
X12617682Y-12268746D01*
X12617682Y-12268746D02*
X12617682Y-12259222D01*
X12617682Y-12259222D02*
X12627206Y-12240174D01*
X12627206Y-12240174D02*
X12646253Y-12230650D01*
X12646253Y-12230650D02*
X12674825Y-12230650D01*
X12674825Y-12230650D02*
X12693872Y-12240174D01*
X12770063Y-12440174D02*
X12779587Y-12430650D01*
X12779587Y-12430650D02*
X12798634Y-12402079D01*
X12798634Y-12402079D02*
X12808158Y-12383031D01*
X12808158Y-12383031D02*
X12817682Y-12354460D01*
X12817682Y-12354460D02*
X12827206Y-12306841D01*
X12827206Y-12306841D02*
X12827206Y-12268746D01*
X12827206Y-12268746D02*
X12817682Y-12221127D01*
X12817682Y-12221127D02*
X12808158Y-12192555D01*
X12808158Y-12192555D02*
X12798634Y-12173508D01*
X12798634Y-12173508D02*
X12779587Y-12144936D01*
X12779587Y-12144936D02*
X12770063Y-12135412D01*
D10*
X7995000Y-12536500D02*
G75*
G02*
X7918800Y-12536500I-38100J0D01*
G01*
X7918800Y-12536500D02*
G75*
G02*
X7995000Y-12536500I38100J0D01*
G01*
D12*
X8293872Y-12427984D02*
X8312920Y-12427984D01*
X8312920Y-12427984D02*
X8331967Y-12437508D01*
X8331967Y-12437508D02*
X8341491Y-12447031D01*
X8341491Y-12447031D02*
X8351015Y-12466079D01*
X8351015Y-12466079D02*
X8360539Y-12504174D01*
X8360539Y-12504174D02*
X8360539Y-12551793D01*
X8360539Y-12551793D02*
X8351015Y-12589888D01*
X8351015Y-12589888D02*
X8341491Y-12608936D01*
X8341491Y-12608936D02*
X8331967Y-12618460D01*
X8331967Y-12618460D02*
X8312920Y-12627984D01*
X8312920Y-12627984D02*
X8293872Y-12627984D01*
X8293872Y-12627984D02*
X8274824Y-12618460D01*
X8274824Y-12618460D02*
X8265301Y-12608936D01*
X8265301Y-12608936D02*
X8255777Y-12589888D01*
X8255777Y-12589888D02*
X8246253Y-12551793D01*
X8246253Y-12551793D02*
X8246253Y-12504174D01*
X8246253Y-12504174D02*
X8255777Y-12466079D01*
X8255777Y-12466079D02*
X8265301Y-12447031D01*
X8265301Y-12447031D02*
X8274824Y-12437508D01*
X8274824Y-12437508D02*
X8293872Y-12427984D01*
X8446253Y-12608936D02*
X8455777Y-12618460D01*
X8455777Y-12618460D02*
X8446253Y-12627984D01*
X8446253Y-12627984D02*
X8436729Y-12618460D01*
X8436729Y-12618460D02*
X8446253Y-12608936D01*
X8446253Y-12608936D02*
X8446253Y-12627984D01*
X8522444Y-12427984D02*
X8655777Y-12427984D01*
X8655777Y-12427984D02*
X8570063Y-12627984D01*
X8817682Y-12427984D02*
X8779586Y-12427984D01*
X8779586Y-12427984D02*
X8760539Y-12437508D01*
X8760539Y-12437508D02*
X8751015Y-12447031D01*
X8751015Y-12447031D02*
X8731967Y-12475603D01*
X8731967Y-12475603D02*
X8722444Y-12513698D01*
X8722444Y-12513698D02*
X8722444Y-12589888D01*
X8722444Y-12589888D02*
X8731967Y-12608936D01*
X8731967Y-12608936D02*
X8741491Y-12618460D01*
X8741491Y-12618460D02*
X8760539Y-12627984D01*
X8760539Y-12627984D02*
X8798634Y-12627984D01*
X8798634Y-12627984D02*
X8817682Y-12618460D01*
X8817682Y-12618460D02*
X8827205Y-12608936D01*
X8827205Y-12608936D02*
X8836729Y-12589888D01*
X8836729Y-12589888D02*
X8836729Y-12542269D01*
X8836729Y-12542269D02*
X8827205Y-12523222D01*
X8827205Y-12523222D02*
X8817682Y-12513698D01*
X8817682Y-12513698D02*
X8798634Y-12504174D01*
X8798634Y-12504174D02*
X8760539Y-12504174D01*
X8760539Y-12504174D02*
X8741491Y-12513698D01*
X8741491Y-12513698D02*
X8731967Y-12523222D01*
X8731967Y-12523222D02*
X8722444Y-12542269D01*
X8912920Y-12447031D02*
X8922444Y-12437508D01*
X8922444Y-12437508D02*
X8941491Y-12427984D01*
X8941491Y-12427984D02*
X8989110Y-12427984D01*
X8989110Y-12427984D02*
X9008158Y-12437508D01*
X9008158Y-12437508D02*
X9017682Y-12447031D01*
X9017682Y-12447031D02*
X9027205Y-12466079D01*
X9027205Y-12466079D02*
X9027205Y-12485127D01*
X9027205Y-12485127D02*
X9017682Y-12513698D01*
X9017682Y-12513698D02*
X8903396Y-12627984D01*
X8903396Y-12627984D02*
X9027205Y-12627984D01*
X9112920Y-12627984D02*
X9112920Y-12494650D01*
X9112920Y-12513698D02*
X9122444Y-12504174D01*
X9122444Y-12504174D02*
X9141491Y-12494650D01*
X9141491Y-12494650D02*
X9170063Y-12494650D01*
X9170063Y-12494650D02*
X9189110Y-12504174D01*
X9189110Y-12504174D02*
X9198634Y-12523222D01*
X9198634Y-12523222D02*
X9198634Y-12627984D01*
X9198634Y-12523222D02*
X9208158Y-12504174D01*
X9208158Y-12504174D02*
X9227205Y-12494650D01*
X9227205Y-12494650D02*
X9255777Y-12494650D01*
X9255777Y-12494650D02*
X9274825Y-12504174D01*
X9274825Y-12504174D02*
X9284348Y-12523222D01*
X9284348Y-12523222D02*
X9284348Y-12627984D01*
X9379586Y-12627984D02*
X9379586Y-12494650D01*
X9379586Y-12513698D02*
X9389110Y-12504174D01*
X9389110Y-12504174D02*
X9408158Y-12494650D01*
X9408158Y-12494650D02*
X9436729Y-12494650D01*
X9436729Y-12494650D02*
X9455777Y-12504174D01*
X9455777Y-12504174D02*
X9465301Y-12523222D01*
X9465301Y-12523222D02*
X9465301Y-12627984D01*
X9465301Y-12523222D02*
X9474825Y-12504174D01*
X9474825Y-12504174D02*
X9493872Y-12494650D01*
X9493872Y-12494650D02*
X9522444Y-12494650D01*
X9522444Y-12494650D02*
X9541491Y-12504174D01*
X9541491Y-12504174D02*
X9551015Y-12523222D01*
X9551015Y-12523222D02*
X9551015Y-12627984D01*
X9941491Y-12418460D02*
X9770063Y-12675603D01*
X10198634Y-12427984D02*
X10217682Y-12427984D01*
X10217682Y-12427984D02*
X10236729Y-12437508D01*
X10236729Y-12437508D02*
X10246253Y-12447031D01*
X10246253Y-12447031D02*
X10255777Y-12466079D01*
X10255777Y-12466079D02*
X10265301Y-12504174D01*
X10265301Y-12504174D02*
X10265301Y-12551793D01*
X10265301Y-12551793D02*
X10255777Y-12589888D01*
X10255777Y-12589888D02*
X10246253Y-12608936D01*
X10246253Y-12608936D02*
X10236729Y-12618460D01*
X10236729Y-12618460D02*
X10217682Y-12627984D01*
X10217682Y-12627984D02*
X10198634Y-12627984D01*
X10198634Y-12627984D02*
X10179587Y-12618460D01*
X10179587Y-12618460D02*
X10170063Y-12608936D01*
X10170063Y-12608936D02*
X10160539Y-12589888D01*
X10160539Y-12589888D02*
X10151015Y-12551793D01*
X10151015Y-12551793D02*
X10151015Y-12504174D01*
X10151015Y-12504174D02*
X10160539Y-12466079D01*
X10160539Y-12466079D02*
X10170063Y-12447031D01*
X10170063Y-12447031D02*
X10179587Y-12437508D01*
X10179587Y-12437508D02*
X10198634Y-12427984D01*
X10351015Y-12608936D02*
X10360539Y-12618460D01*
X10360539Y-12618460D02*
X10351015Y-12627984D01*
X10351015Y-12627984D02*
X10341491Y-12618460D01*
X10341491Y-12618460D02*
X10351015Y-12608936D01*
X10351015Y-12608936D02*
X10351015Y-12627984D01*
X10484348Y-12427984D02*
X10503396Y-12427984D01*
X10503396Y-12427984D02*
X10522444Y-12437508D01*
X10522444Y-12437508D02*
X10531968Y-12447031D01*
X10531968Y-12447031D02*
X10541491Y-12466079D01*
X10541491Y-12466079D02*
X10551015Y-12504174D01*
X10551015Y-12504174D02*
X10551015Y-12551793D01*
X10551015Y-12551793D02*
X10541491Y-12589888D01*
X10541491Y-12589888D02*
X10531968Y-12608936D01*
X10531968Y-12608936D02*
X10522444Y-12618460D01*
X10522444Y-12618460D02*
X10503396Y-12627984D01*
X10503396Y-12627984D02*
X10484348Y-12627984D01*
X10484348Y-12627984D02*
X10465301Y-12618460D01*
X10465301Y-12618460D02*
X10455777Y-12608936D01*
X10455777Y-12608936D02*
X10446253Y-12589888D01*
X10446253Y-12589888D02*
X10436729Y-12551793D01*
X10436729Y-12551793D02*
X10436729Y-12504174D01*
X10436729Y-12504174D02*
X10446253Y-12466079D01*
X10446253Y-12466079D02*
X10455777Y-12447031D01*
X10455777Y-12447031D02*
X10465301Y-12437508D01*
X10465301Y-12437508D02*
X10484348Y-12427984D01*
X10617682Y-12427984D02*
X10741491Y-12427984D01*
X10741491Y-12427984D02*
X10674825Y-12504174D01*
X10674825Y-12504174D02*
X10703396Y-12504174D01*
X10703396Y-12504174D02*
X10722444Y-12513698D01*
X10722444Y-12513698D02*
X10731968Y-12523222D01*
X10731968Y-12523222D02*
X10741491Y-12542269D01*
X10741491Y-12542269D02*
X10741491Y-12589888D01*
X10741491Y-12589888D02*
X10731968Y-12608936D01*
X10731968Y-12608936D02*
X10722444Y-12618460D01*
X10722444Y-12618460D02*
X10703396Y-12627984D01*
X10703396Y-12627984D02*
X10646253Y-12627984D01*
X10646253Y-12627984D02*
X10627206Y-12618460D01*
X10627206Y-12618460D02*
X10617682Y-12608936D01*
X10865301Y-12427984D02*
X10884349Y-12427984D01*
X10884349Y-12427984D02*
X10903396Y-12437508D01*
X10903396Y-12437508D02*
X10912920Y-12447031D01*
X10912920Y-12447031D02*
X10922444Y-12466079D01*
X10922444Y-12466079D02*
X10931968Y-12504174D01*
X10931968Y-12504174D02*
X10931968Y-12551793D01*
X10931968Y-12551793D02*
X10922444Y-12589888D01*
X10922444Y-12589888D02*
X10912920Y-12608936D01*
X10912920Y-12608936D02*
X10903396Y-12618460D01*
X10903396Y-12618460D02*
X10884349Y-12627984D01*
X10884349Y-12627984D02*
X10865301Y-12627984D01*
X10865301Y-12627984D02*
X10846253Y-12618460D01*
X10846253Y-12618460D02*
X10836729Y-12608936D01*
X10836729Y-12608936D02*
X10827206Y-12589888D01*
X10827206Y-12589888D02*
X10817682Y-12551793D01*
X10817682Y-12551793D02*
X10817682Y-12504174D01*
X10817682Y-12504174D02*
X10827206Y-12466079D01*
X10827206Y-12466079D02*
X10836729Y-12447031D01*
X10836729Y-12447031D02*
X10846253Y-12437508D01*
X10846253Y-12437508D02*
X10865301Y-12427984D01*
X11055777Y-12427984D02*
X11074825Y-12427984D01*
X11074825Y-12427984D02*
X11093872Y-12437508D01*
X11093872Y-12437508D02*
X11103396Y-12447031D01*
X11103396Y-12447031D02*
X11112920Y-12466079D01*
X11112920Y-12466079D02*
X11122444Y-12504174D01*
X11122444Y-12504174D02*
X11122444Y-12551793D01*
X11122444Y-12551793D02*
X11112920Y-12589888D01*
X11112920Y-12589888D02*
X11103396Y-12608936D01*
X11103396Y-12608936D02*
X11093872Y-12618460D01*
X11093872Y-12618460D02*
X11074825Y-12627984D01*
X11074825Y-12627984D02*
X11055777Y-12627984D01*
X11055777Y-12627984D02*
X11036729Y-12618460D01*
X11036729Y-12618460D02*
X11027206Y-12608936D01*
X11027206Y-12608936D02*
X11017682Y-12589888D01*
X11017682Y-12589888D02*
X11008158Y-12551793D01*
X11008158Y-12551793D02*
X11008158Y-12504174D01*
X11008158Y-12504174D02*
X11017682Y-12466079D01*
X11017682Y-12466079D02*
X11027206Y-12447031D01*
X11027206Y-12447031D02*
X11036729Y-12437508D01*
X11036729Y-12437508D02*
X11055777Y-12427984D01*
X11198634Y-12427984D02*
X11198634Y-12466079D01*
X11274825Y-12427984D02*
X11274825Y-12466079D01*
X11570063Y-12704174D02*
X11560539Y-12694650D01*
X11560539Y-12694650D02*
X11541491Y-12666079D01*
X11541491Y-12666079D02*
X11531968Y-12647031D01*
X11531968Y-12647031D02*
X11522444Y-12618460D01*
X11522444Y-12618460D02*
X11512920Y-12570841D01*
X11512920Y-12570841D02*
X11512920Y-12532746D01*
X11512920Y-12532746D02*
X11522444Y-12485127D01*
X11522444Y-12485127D02*
X11531968Y-12456555D01*
X11531968Y-12456555D02*
X11541491Y-12437508D01*
X11541491Y-12437508D02*
X11560539Y-12408936D01*
X11560539Y-12408936D02*
X11570063Y-12399412D01*
X11741491Y-12427984D02*
X11646253Y-12427984D01*
X11646253Y-12427984D02*
X11636729Y-12523222D01*
X11636729Y-12523222D02*
X11646253Y-12513698D01*
X11646253Y-12513698D02*
X11665301Y-12504174D01*
X11665301Y-12504174D02*
X11712920Y-12504174D01*
X11712920Y-12504174D02*
X11731968Y-12513698D01*
X11731968Y-12513698D02*
X11741491Y-12523222D01*
X11741491Y-12523222D02*
X11751015Y-12542269D01*
X11751015Y-12542269D02*
X11751015Y-12589888D01*
X11751015Y-12589888D02*
X11741491Y-12608936D01*
X11741491Y-12608936D02*
X11731968Y-12618460D01*
X11731968Y-12618460D02*
X11712920Y-12627984D01*
X11712920Y-12627984D02*
X11665301Y-12627984D01*
X11665301Y-12627984D02*
X11646253Y-12618460D01*
X11646253Y-12618460D02*
X11636729Y-12608936D01*
X11922444Y-12427984D02*
X11884348Y-12427984D01*
X11884348Y-12427984D02*
X11865301Y-12437508D01*
X11865301Y-12437508D02*
X11855777Y-12447031D01*
X11855777Y-12447031D02*
X11836729Y-12475603D01*
X11836729Y-12475603D02*
X11827206Y-12513698D01*
X11827206Y-12513698D02*
X11827206Y-12589888D01*
X11827206Y-12589888D02*
X11836729Y-12608936D01*
X11836729Y-12608936D02*
X11846253Y-12618460D01*
X11846253Y-12618460D02*
X11865301Y-12627984D01*
X11865301Y-12627984D02*
X11903396Y-12627984D01*
X11903396Y-12627984D02*
X11922444Y-12618460D01*
X11922444Y-12618460D02*
X11931968Y-12608936D01*
X11931968Y-12608936D02*
X11941491Y-12589888D01*
X11941491Y-12589888D02*
X11941491Y-12542269D01*
X11941491Y-12542269D02*
X11931968Y-12523222D01*
X11931968Y-12523222D02*
X11922444Y-12513698D01*
X11922444Y-12513698D02*
X11903396Y-12504174D01*
X11903396Y-12504174D02*
X11865301Y-12504174D01*
X11865301Y-12504174D02*
X11846253Y-12513698D01*
X11846253Y-12513698D02*
X11836729Y-12523222D01*
X11836729Y-12523222D02*
X11827206Y-12542269D01*
X12179587Y-12627984D02*
X12179587Y-12427984D01*
X12265301Y-12627984D02*
X12265301Y-12523222D01*
X12265301Y-12523222D02*
X12255777Y-12504174D01*
X12255777Y-12504174D02*
X12236730Y-12494650D01*
X12236730Y-12494650D02*
X12208158Y-12494650D01*
X12208158Y-12494650D02*
X12189110Y-12504174D01*
X12189110Y-12504174D02*
X12179587Y-12513698D01*
X12389110Y-12627984D02*
X12370063Y-12618460D01*
X12370063Y-12618460D02*
X12360539Y-12608936D01*
X12360539Y-12608936D02*
X12351015Y-12589888D01*
X12351015Y-12589888D02*
X12351015Y-12532746D01*
X12351015Y-12532746D02*
X12360539Y-12513698D01*
X12360539Y-12513698D02*
X12370063Y-12504174D01*
X12370063Y-12504174D02*
X12389110Y-12494650D01*
X12389110Y-12494650D02*
X12417682Y-12494650D01*
X12417682Y-12494650D02*
X12436730Y-12504174D01*
X12436730Y-12504174D02*
X12446253Y-12513698D01*
X12446253Y-12513698D02*
X12455777Y-12532746D01*
X12455777Y-12532746D02*
X12455777Y-12589888D01*
X12455777Y-12589888D02*
X12446253Y-12608936D01*
X12446253Y-12608936D02*
X12436730Y-12618460D01*
X12436730Y-12618460D02*
X12417682Y-12627984D01*
X12417682Y-12627984D02*
X12389110Y-12627984D01*
X12570063Y-12627984D02*
X12551015Y-12618460D01*
X12551015Y-12618460D02*
X12541491Y-12599412D01*
X12541491Y-12599412D02*
X12541491Y-12427984D01*
X12722444Y-12618460D02*
X12703396Y-12627984D01*
X12703396Y-12627984D02*
X12665301Y-12627984D01*
X12665301Y-12627984D02*
X12646253Y-12618460D01*
X12646253Y-12618460D02*
X12636730Y-12599412D01*
X12636730Y-12599412D02*
X12636730Y-12523222D01*
X12636730Y-12523222D02*
X12646253Y-12504174D01*
X12646253Y-12504174D02*
X12665301Y-12494650D01*
X12665301Y-12494650D02*
X12703396Y-12494650D01*
X12703396Y-12494650D02*
X12722444Y-12504174D01*
X12722444Y-12504174D02*
X12731968Y-12523222D01*
X12731968Y-12523222D02*
X12731968Y-12542269D01*
X12731968Y-12542269D02*
X12636730Y-12561317D01*
X12808158Y-12618460D02*
X12827206Y-12627984D01*
X12827206Y-12627984D02*
X12865301Y-12627984D01*
X12865301Y-12627984D02*
X12884349Y-12618460D01*
X12884349Y-12618460D02*
X12893872Y-12599412D01*
X12893872Y-12599412D02*
X12893872Y-12589888D01*
X12893872Y-12589888D02*
X12884349Y-12570841D01*
X12884349Y-12570841D02*
X12865301Y-12561317D01*
X12865301Y-12561317D02*
X12836730Y-12561317D01*
X12836730Y-12561317D02*
X12817682Y-12551793D01*
X12817682Y-12551793D02*
X12808158Y-12532746D01*
X12808158Y-12532746D02*
X12808158Y-12523222D01*
X12808158Y-12523222D02*
X12817682Y-12504174D01*
X12817682Y-12504174D02*
X12836730Y-12494650D01*
X12836730Y-12494650D02*
X12865301Y-12494650D01*
X12865301Y-12494650D02*
X12884349Y-12504174D01*
X12960539Y-12704174D02*
X12970063Y-12694650D01*
X12970063Y-12694650D02*
X12989111Y-12666079D01*
X12989111Y-12666079D02*
X12998634Y-12647031D01*
X12998634Y-12647031D02*
X13008158Y-12618460D01*
X13008158Y-12618460D02*
X13017682Y-12570841D01*
X13017682Y-12570841D02*
X13017682Y-12532746D01*
X13017682Y-12532746D02*
X13008158Y-12485127D01*
X13008158Y-12485127D02*
X12998634Y-12456555D01*
X12998634Y-12456555D02*
X12989111Y-12437508D01*
X12989111Y-12437508D02*
X12970063Y-12408936D01*
X12970063Y-12408936D02*
X12960539Y-12399412D01*
D10*
X7955000Y-12760500D02*
X7955000Y-12840500D01*
X7915000Y-12800500D02*
X7995000Y-12800500D01*
D12*
X8293872Y-12691984D02*
X8312920Y-12691984D01*
X8312920Y-12691984D02*
X8331967Y-12701508D01*
X8331967Y-12701508D02*
X8341491Y-12711031D01*
X8341491Y-12711031D02*
X8351015Y-12730079D01*
X8351015Y-12730079D02*
X8360539Y-12768174D01*
X8360539Y-12768174D02*
X8360539Y-12815793D01*
X8360539Y-12815793D02*
X8351015Y-12853888D01*
X8351015Y-12853888D02*
X8341491Y-12872936D01*
X8341491Y-12872936D02*
X8331967Y-12882460D01*
X8331967Y-12882460D02*
X8312920Y-12891984D01*
X8312920Y-12891984D02*
X8293872Y-12891984D01*
X8293872Y-12891984D02*
X8274824Y-12882460D01*
X8274824Y-12882460D02*
X8265301Y-12872936D01*
X8265301Y-12872936D02*
X8255777Y-12853888D01*
X8255777Y-12853888D02*
X8246253Y-12815793D01*
X8246253Y-12815793D02*
X8246253Y-12768174D01*
X8246253Y-12768174D02*
X8255777Y-12730079D01*
X8255777Y-12730079D02*
X8265301Y-12711031D01*
X8265301Y-12711031D02*
X8274824Y-12701508D01*
X8274824Y-12701508D02*
X8293872Y-12691984D01*
X8446253Y-12872936D02*
X8455777Y-12882460D01*
X8455777Y-12882460D02*
X8446253Y-12891984D01*
X8446253Y-12891984D02*
X8436729Y-12882460D01*
X8436729Y-12882460D02*
X8446253Y-12872936D01*
X8446253Y-12872936D02*
X8446253Y-12891984D01*
X8570063Y-12777698D02*
X8551015Y-12768174D01*
X8551015Y-12768174D02*
X8541491Y-12758650D01*
X8541491Y-12758650D02*
X8531967Y-12739603D01*
X8531967Y-12739603D02*
X8531967Y-12730079D01*
X8531967Y-12730079D02*
X8541491Y-12711031D01*
X8541491Y-12711031D02*
X8551015Y-12701508D01*
X8551015Y-12701508D02*
X8570063Y-12691984D01*
X8570063Y-12691984D02*
X8608158Y-12691984D01*
X8608158Y-12691984D02*
X8627205Y-12701508D01*
X8627205Y-12701508D02*
X8636729Y-12711031D01*
X8636729Y-12711031D02*
X8646253Y-12730079D01*
X8646253Y-12730079D02*
X8646253Y-12739603D01*
X8646253Y-12739603D02*
X8636729Y-12758650D01*
X8636729Y-12758650D02*
X8627205Y-12768174D01*
X8627205Y-12768174D02*
X8608158Y-12777698D01*
X8608158Y-12777698D02*
X8570063Y-12777698D01*
X8570063Y-12777698D02*
X8551015Y-12787222D01*
X8551015Y-12787222D02*
X8541491Y-12796746D01*
X8541491Y-12796746D02*
X8531967Y-12815793D01*
X8531967Y-12815793D02*
X8531967Y-12853888D01*
X8531967Y-12853888D02*
X8541491Y-12872936D01*
X8541491Y-12872936D02*
X8551015Y-12882460D01*
X8551015Y-12882460D02*
X8570063Y-12891984D01*
X8570063Y-12891984D02*
X8608158Y-12891984D01*
X8608158Y-12891984D02*
X8627205Y-12882460D01*
X8627205Y-12882460D02*
X8636729Y-12872936D01*
X8636729Y-12872936D02*
X8646253Y-12853888D01*
X8646253Y-12853888D02*
X8646253Y-12815793D01*
X8646253Y-12815793D02*
X8636729Y-12796746D01*
X8636729Y-12796746D02*
X8627205Y-12787222D01*
X8627205Y-12787222D02*
X8608158Y-12777698D01*
X8770063Y-12691984D02*
X8789110Y-12691984D01*
X8789110Y-12691984D02*
X8808158Y-12701508D01*
X8808158Y-12701508D02*
X8817682Y-12711031D01*
X8817682Y-12711031D02*
X8827205Y-12730079D01*
X8827205Y-12730079D02*
X8836729Y-12768174D01*
X8836729Y-12768174D02*
X8836729Y-12815793D01*
X8836729Y-12815793D02*
X8827205Y-12853888D01*
X8827205Y-12853888D02*
X8817682Y-12872936D01*
X8817682Y-12872936D02*
X8808158Y-12882460D01*
X8808158Y-12882460D02*
X8789110Y-12891984D01*
X8789110Y-12891984D02*
X8770063Y-12891984D01*
X8770063Y-12891984D02*
X8751015Y-12882460D01*
X8751015Y-12882460D02*
X8741491Y-12872936D01*
X8741491Y-12872936D02*
X8731967Y-12853888D01*
X8731967Y-12853888D02*
X8722444Y-12815793D01*
X8722444Y-12815793D02*
X8722444Y-12768174D01*
X8722444Y-12768174D02*
X8731967Y-12730079D01*
X8731967Y-12730079D02*
X8741491Y-12711031D01*
X8741491Y-12711031D02*
X8751015Y-12701508D01*
X8751015Y-12701508D02*
X8770063Y-12691984D01*
X8960539Y-12691984D02*
X8979586Y-12691984D01*
X8979586Y-12691984D02*
X8998634Y-12701508D01*
X8998634Y-12701508D02*
X9008158Y-12711031D01*
X9008158Y-12711031D02*
X9017682Y-12730079D01*
X9017682Y-12730079D02*
X9027205Y-12768174D01*
X9027205Y-12768174D02*
X9027205Y-12815793D01*
X9027205Y-12815793D02*
X9017682Y-12853888D01*
X9017682Y-12853888D02*
X9008158Y-12872936D01*
X9008158Y-12872936D02*
X8998634Y-12882460D01*
X8998634Y-12882460D02*
X8979586Y-12891984D01*
X8979586Y-12891984D02*
X8960539Y-12891984D01*
X8960539Y-12891984D02*
X8941491Y-12882460D01*
X8941491Y-12882460D02*
X8931967Y-12872936D01*
X8931967Y-12872936D02*
X8922444Y-12853888D01*
X8922444Y-12853888D02*
X8912920Y-12815793D01*
X8912920Y-12815793D02*
X8912920Y-12768174D01*
X8912920Y-12768174D02*
X8922444Y-12730079D01*
X8922444Y-12730079D02*
X8931967Y-12711031D01*
X8931967Y-12711031D02*
X8941491Y-12701508D01*
X8941491Y-12701508D02*
X8960539Y-12691984D01*
X9112920Y-12891984D02*
X9112920Y-12758650D01*
X9112920Y-12777698D02*
X9122444Y-12768174D01*
X9122444Y-12768174D02*
X9141491Y-12758650D01*
X9141491Y-12758650D02*
X9170063Y-12758650D01*
X9170063Y-12758650D02*
X9189110Y-12768174D01*
X9189110Y-12768174D02*
X9198634Y-12787222D01*
X9198634Y-12787222D02*
X9198634Y-12891984D01*
X9198634Y-12787222D02*
X9208158Y-12768174D01*
X9208158Y-12768174D02*
X9227205Y-12758650D01*
X9227205Y-12758650D02*
X9255777Y-12758650D01*
X9255777Y-12758650D02*
X9274825Y-12768174D01*
X9274825Y-12768174D02*
X9284348Y-12787222D01*
X9284348Y-12787222D02*
X9284348Y-12891984D01*
X9379586Y-12891984D02*
X9379586Y-12758650D01*
X9379586Y-12777698D02*
X9389110Y-12768174D01*
X9389110Y-12768174D02*
X9408158Y-12758650D01*
X9408158Y-12758650D02*
X9436729Y-12758650D01*
X9436729Y-12758650D02*
X9455777Y-12768174D01*
X9455777Y-12768174D02*
X9465301Y-12787222D01*
X9465301Y-12787222D02*
X9465301Y-12891984D01*
X9465301Y-12787222D02*
X9474825Y-12768174D01*
X9474825Y-12768174D02*
X9493872Y-12758650D01*
X9493872Y-12758650D02*
X9522444Y-12758650D01*
X9522444Y-12758650D02*
X9541491Y-12768174D01*
X9541491Y-12768174D02*
X9551015Y-12787222D01*
X9551015Y-12787222D02*
X9551015Y-12891984D01*
X9941491Y-12682460D02*
X9770063Y-12939603D01*
X10198634Y-12691984D02*
X10217682Y-12691984D01*
X10217682Y-12691984D02*
X10236729Y-12701508D01*
X10236729Y-12701508D02*
X10246253Y-12711031D01*
X10246253Y-12711031D02*
X10255777Y-12730079D01*
X10255777Y-12730079D02*
X10265301Y-12768174D01*
X10265301Y-12768174D02*
X10265301Y-12815793D01*
X10265301Y-12815793D02*
X10255777Y-12853888D01*
X10255777Y-12853888D02*
X10246253Y-12872936D01*
X10246253Y-12872936D02*
X10236729Y-12882460D01*
X10236729Y-12882460D02*
X10217682Y-12891984D01*
X10217682Y-12891984D02*
X10198634Y-12891984D01*
X10198634Y-12891984D02*
X10179587Y-12882460D01*
X10179587Y-12882460D02*
X10170063Y-12872936D01*
X10170063Y-12872936D02*
X10160539Y-12853888D01*
X10160539Y-12853888D02*
X10151015Y-12815793D01*
X10151015Y-12815793D02*
X10151015Y-12768174D01*
X10151015Y-12768174D02*
X10160539Y-12730079D01*
X10160539Y-12730079D02*
X10170063Y-12711031D01*
X10170063Y-12711031D02*
X10179587Y-12701508D01*
X10179587Y-12701508D02*
X10198634Y-12691984D01*
X10351015Y-12872936D02*
X10360539Y-12882460D01*
X10360539Y-12882460D02*
X10351015Y-12891984D01*
X10351015Y-12891984D02*
X10341491Y-12882460D01*
X10341491Y-12882460D02*
X10351015Y-12872936D01*
X10351015Y-12872936D02*
X10351015Y-12891984D01*
X10484348Y-12691984D02*
X10503396Y-12691984D01*
X10503396Y-12691984D02*
X10522444Y-12701508D01*
X10522444Y-12701508D02*
X10531968Y-12711031D01*
X10531968Y-12711031D02*
X10541491Y-12730079D01*
X10541491Y-12730079D02*
X10551015Y-12768174D01*
X10551015Y-12768174D02*
X10551015Y-12815793D01*
X10551015Y-12815793D02*
X10541491Y-12853888D01*
X10541491Y-12853888D02*
X10531968Y-12872936D01*
X10531968Y-12872936D02*
X10522444Y-12882460D01*
X10522444Y-12882460D02*
X10503396Y-12891984D01*
X10503396Y-12891984D02*
X10484348Y-12891984D01*
X10484348Y-12891984D02*
X10465301Y-12882460D01*
X10465301Y-12882460D02*
X10455777Y-12872936D01*
X10455777Y-12872936D02*
X10446253Y-12853888D01*
X10446253Y-12853888D02*
X10436729Y-12815793D01*
X10436729Y-12815793D02*
X10436729Y-12768174D01*
X10436729Y-12768174D02*
X10446253Y-12730079D01*
X10446253Y-12730079D02*
X10455777Y-12711031D01*
X10455777Y-12711031D02*
X10465301Y-12701508D01*
X10465301Y-12701508D02*
X10484348Y-12691984D01*
X10617682Y-12691984D02*
X10741491Y-12691984D01*
X10741491Y-12691984D02*
X10674825Y-12768174D01*
X10674825Y-12768174D02*
X10703396Y-12768174D01*
X10703396Y-12768174D02*
X10722444Y-12777698D01*
X10722444Y-12777698D02*
X10731968Y-12787222D01*
X10731968Y-12787222D02*
X10741491Y-12806269D01*
X10741491Y-12806269D02*
X10741491Y-12853888D01*
X10741491Y-12853888D02*
X10731968Y-12872936D01*
X10731968Y-12872936D02*
X10722444Y-12882460D01*
X10722444Y-12882460D02*
X10703396Y-12891984D01*
X10703396Y-12891984D02*
X10646253Y-12891984D01*
X10646253Y-12891984D02*
X10627206Y-12882460D01*
X10627206Y-12882460D02*
X10617682Y-12872936D01*
X10931968Y-12891984D02*
X10817682Y-12891984D01*
X10874825Y-12891984D02*
X10874825Y-12691984D01*
X10874825Y-12691984D02*
X10855777Y-12720555D01*
X10855777Y-12720555D02*
X10836729Y-12739603D01*
X10836729Y-12739603D02*
X10817682Y-12749127D01*
X11112920Y-12691984D02*
X11017682Y-12691984D01*
X11017682Y-12691984D02*
X11008158Y-12787222D01*
X11008158Y-12787222D02*
X11017682Y-12777698D01*
X11017682Y-12777698D02*
X11036729Y-12768174D01*
X11036729Y-12768174D02*
X11084349Y-12768174D01*
X11084349Y-12768174D02*
X11103396Y-12777698D01*
X11103396Y-12777698D02*
X11112920Y-12787222D01*
X11112920Y-12787222D02*
X11122444Y-12806269D01*
X11122444Y-12806269D02*
X11122444Y-12853888D01*
X11122444Y-12853888D02*
X11112920Y-12872936D01*
X11112920Y-12872936D02*
X11103396Y-12882460D01*
X11103396Y-12882460D02*
X11084349Y-12891984D01*
X11084349Y-12891984D02*
X11036729Y-12891984D01*
X11036729Y-12891984D02*
X11017682Y-12882460D01*
X11017682Y-12882460D02*
X11008158Y-12872936D01*
X11198634Y-12691984D02*
X11198634Y-12730079D01*
X11274825Y-12691984D02*
X11274825Y-12730079D01*
X11570063Y-12968174D02*
X11560539Y-12958650D01*
X11560539Y-12958650D02*
X11541491Y-12930079D01*
X11541491Y-12930079D02*
X11531968Y-12911031D01*
X11531968Y-12911031D02*
X11522444Y-12882460D01*
X11522444Y-12882460D02*
X11512920Y-12834841D01*
X11512920Y-12834841D02*
X11512920Y-12796746D01*
X11512920Y-12796746D02*
X11522444Y-12749127D01*
X11522444Y-12749127D02*
X11531968Y-12720555D01*
X11531968Y-12720555D02*
X11541491Y-12701508D01*
X11541491Y-12701508D02*
X11560539Y-12672936D01*
X11560539Y-12672936D02*
X11570063Y-12663412D01*
X11627206Y-12691984D02*
X11751015Y-12691984D01*
X11751015Y-12691984D02*
X11684348Y-12768174D01*
X11684348Y-12768174D02*
X11712920Y-12768174D01*
X11712920Y-12768174D02*
X11731968Y-12777698D01*
X11731968Y-12777698D02*
X11741491Y-12787222D01*
X11741491Y-12787222D02*
X11751015Y-12806269D01*
X11751015Y-12806269D02*
X11751015Y-12853888D01*
X11751015Y-12853888D02*
X11741491Y-12872936D01*
X11741491Y-12872936D02*
X11731968Y-12882460D01*
X11731968Y-12882460D02*
X11712920Y-12891984D01*
X11712920Y-12891984D02*
X11655777Y-12891984D01*
X11655777Y-12891984D02*
X11636729Y-12882460D01*
X11636729Y-12882460D02*
X11627206Y-12872936D01*
X11827206Y-12711031D02*
X11836729Y-12701508D01*
X11836729Y-12701508D02*
X11855777Y-12691984D01*
X11855777Y-12691984D02*
X11903396Y-12691984D01*
X11903396Y-12691984D02*
X11922444Y-12701508D01*
X11922444Y-12701508D02*
X11931968Y-12711031D01*
X11931968Y-12711031D02*
X11941491Y-12730079D01*
X11941491Y-12730079D02*
X11941491Y-12749127D01*
X11941491Y-12749127D02*
X11931968Y-12777698D01*
X11931968Y-12777698D02*
X11817682Y-12891984D01*
X11817682Y-12891984D02*
X11941491Y-12891984D01*
X12179587Y-12891984D02*
X12179587Y-12691984D01*
X12265301Y-12891984D02*
X12265301Y-12787222D01*
X12265301Y-12787222D02*
X12255777Y-12768174D01*
X12255777Y-12768174D02*
X12236730Y-12758650D01*
X12236730Y-12758650D02*
X12208158Y-12758650D01*
X12208158Y-12758650D02*
X12189110Y-12768174D01*
X12189110Y-12768174D02*
X12179587Y-12777698D01*
X12389110Y-12891984D02*
X12370063Y-12882460D01*
X12370063Y-12882460D02*
X12360539Y-12872936D01*
X12360539Y-12872936D02*
X12351015Y-12853888D01*
X12351015Y-12853888D02*
X12351015Y-12796746D01*
X12351015Y-12796746D02*
X12360539Y-12777698D01*
X12360539Y-12777698D02*
X12370063Y-12768174D01*
X12370063Y-12768174D02*
X12389110Y-12758650D01*
X12389110Y-12758650D02*
X12417682Y-12758650D01*
X12417682Y-12758650D02*
X12436730Y-12768174D01*
X12436730Y-12768174D02*
X12446253Y-12777698D01*
X12446253Y-12777698D02*
X12455777Y-12796746D01*
X12455777Y-12796746D02*
X12455777Y-12853888D01*
X12455777Y-12853888D02*
X12446253Y-12872936D01*
X12446253Y-12872936D02*
X12436730Y-12882460D01*
X12436730Y-12882460D02*
X12417682Y-12891984D01*
X12417682Y-12891984D02*
X12389110Y-12891984D01*
X12570063Y-12891984D02*
X12551015Y-12882460D01*
X12551015Y-12882460D02*
X12541491Y-12863412D01*
X12541491Y-12863412D02*
X12541491Y-12691984D01*
X12722444Y-12882460D02*
X12703396Y-12891984D01*
X12703396Y-12891984D02*
X12665301Y-12891984D01*
X12665301Y-12891984D02*
X12646253Y-12882460D01*
X12646253Y-12882460D02*
X12636730Y-12863412D01*
X12636730Y-12863412D02*
X12636730Y-12787222D01*
X12636730Y-12787222D02*
X12646253Y-12768174D01*
X12646253Y-12768174D02*
X12665301Y-12758650D01*
X12665301Y-12758650D02*
X12703396Y-12758650D01*
X12703396Y-12758650D02*
X12722444Y-12768174D01*
X12722444Y-12768174D02*
X12731968Y-12787222D01*
X12731968Y-12787222D02*
X12731968Y-12806269D01*
X12731968Y-12806269D02*
X12636730Y-12825317D01*
X12808158Y-12882460D02*
X12827206Y-12891984D01*
X12827206Y-12891984D02*
X12865301Y-12891984D01*
X12865301Y-12891984D02*
X12884349Y-12882460D01*
X12884349Y-12882460D02*
X12893872Y-12863412D01*
X12893872Y-12863412D02*
X12893872Y-12853888D01*
X12893872Y-12853888D02*
X12884349Y-12834841D01*
X12884349Y-12834841D02*
X12865301Y-12825317D01*
X12865301Y-12825317D02*
X12836730Y-12825317D01*
X12836730Y-12825317D02*
X12817682Y-12815793D01*
X12817682Y-12815793D02*
X12808158Y-12796746D01*
X12808158Y-12796746D02*
X12808158Y-12787222D01*
X12808158Y-12787222D02*
X12817682Y-12768174D01*
X12817682Y-12768174D02*
X12836730Y-12758650D01*
X12836730Y-12758650D02*
X12865301Y-12758650D01*
X12865301Y-12758650D02*
X12884349Y-12768174D01*
X12960539Y-12968174D02*
X12970063Y-12958650D01*
X12970063Y-12958650D02*
X12989111Y-12930079D01*
X12989111Y-12930079D02*
X12998634Y-12911031D01*
X12998634Y-12911031D02*
X13008158Y-12882460D01*
X13008158Y-12882460D02*
X13017682Y-12834841D01*
X13017682Y-12834841D02*
X13017682Y-12796746D01*
X13017682Y-12796746D02*
X13008158Y-12749127D01*
X13008158Y-12749127D02*
X12998634Y-12720555D01*
X12998634Y-12720555D02*
X12989111Y-12701508D01*
X12989111Y-12701508D02*
X12970063Y-12672936D01*
X12970063Y-12672936D02*
X12960539Y-12663412D01*
D10*
X7981820Y-13096320D02*
X7981820Y-13032680D01*
X7918180Y-13032680D01*
X7918180Y-13096320D01*
X7981820Y-13096320D01*
D12*
X8293872Y-12955984D02*
X8312920Y-12955984D01*
X8312920Y-12955984D02*
X8331967Y-12965508D01*
X8331967Y-12965508D02*
X8341491Y-12975031D01*
X8341491Y-12975031D02*
X8351015Y-12994079D01*
X8351015Y-12994079D02*
X8360539Y-13032174D01*
X8360539Y-13032174D02*
X8360539Y-13079793D01*
X8360539Y-13079793D02*
X8351015Y-13117888D01*
X8351015Y-13117888D02*
X8341491Y-13136936D01*
X8341491Y-13136936D02*
X8331967Y-13146460D01*
X8331967Y-13146460D02*
X8312920Y-13155984D01*
X8312920Y-13155984D02*
X8293872Y-13155984D01*
X8293872Y-13155984D02*
X8274824Y-13146460D01*
X8274824Y-13146460D02*
X8265301Y-13136936D01*
X8265301Y-13136936D02*
X8255777Y-13117888D01*
X8255777Y-13117888D02*
X8246253Y-13079793D01*
X8246253Y-13079793D02*
X8246253Y-13032174D01*
X8246253Y-13032174D02*
X8255777Y-12994079D01*
X8255777Y-12994079D02*
X8265301Y-12975031D01*
X8265301Y-12975031D02*
X8274824Y-12965508D01*
X8274824Y-12965508D02*
X8293872Y-12955984D01*
X8446253Y-13136936D02*
X8455777Y-13146460D01*
X8455777Y-13146460D02*
X8446253Y-13155984D01*
X8446253Y-13155984D02*
X8436729Y-13146460D01*
X8436729Y-13146460D02*
X8446253Y-13136936D01*
X8446253Y-13136936D02*
X8446253Y-13155984D01*
X8551015Y-13155984D02*
X8589110Y-13155984D01*
X8589110Y-13155984D02*
X8608158Y-13146460D01*
X8608158Y-13146460D02*
X8617682Y-13136936D01*
X8617682Y-13136936D02*
X8636729Y-13108365D01*
X8636729Y-13108365D02*
X8646253Y-13070269D01*
X8646253Y-13070269D02*
X8646253Y-12994079D01*
X8646253Y-12994079D02*
X8636729Y-12975031D01*
X8636729Y-12975031D02*
X8627205Y-12965508D01*
X8627205Y-12965508D02*
X8608158Y-12955984D01*
X8608158Y-12955984D02*
X8570063Y-12955984D01*
X8570063Y-12955984D02*
X8551015Y-12965508D01*
X8551015Y-12965508D02*
X8541491Y-12975031D01*
X8541491Y-12975031D02*
X8531967Y-12994079D01*
X8531967Y-12994079D02*
X8531967Y-13041698D01*
X8531967Y-13041698D02*
X8541491Y-13060746D01*
X8541491Y-13060746D02*
X8551015Y-13070269D01*
X8551015Y-13070269D02*
X8570063Y-13079793D01*
X8570063Y-13079793D02*
X8608158Y-13079793D01*
X8608158Y-13079793D02*
X8627205Y-13070269D01*
X8627205Y-13070269D02*
X8636729Y-13060746D01*
X8636729Y-13060746D02*
X8646253Y-13041698D01*
X8770063Y-12955984D02*
X8789110Y-12955984D01*
X8789110Y-12955984D02*
X8808158Y-12965508D01*
X8808158Y-12965508D02*
X8817682Y-12975031D01*
X8817682Y-12975031D02*
X8827205Y-12994079D01*
X8827205Y-12994079D02*
X8836729Y-13032174D01*
X8836729Y-13032174D02*
X8836729Y-13079793D01*
X8836729Y-13079793D02*
X8827205Y-13117888D01*
X8827205Y-13117888D02*
X8817682Y-13136936D01*
X8817682Y-13136936D02*
X8808158Y-13146460D01*
X8808158Y-13146460D02*
X8789110Y-13155984D01*
X8789110Y-13155984D02*
X8770063Y-13155984D01*
X8770063Y-13155984D02*
X8751015Y-13146460D01*
X8751015Y-13146460D02*
X8741491Y-13136936D01*
X8741491Y-13136936D02*
X8731967Y-13117888D01*
X8731967Y-13117888D02*
X8722444Y-13079793D01*
X8722444Y-13079793D02*
X8722444Y-13032174D01*
X8722444Y-13032174D02*
X8731967Y-12994079D01*
X8731967Y-12994079D02*
X8741491Y-12975031D01*
X8741491Y-12975031D02*
X8751015Y-12965508D01*
X8751015Y-12965508D02*
X8770063Y-12955984D01*
X8960539Y-12955984D02*
X8979586Y-12955984D01*
X8979586Y-12955984D02*
X8998634Y-12965508D01*
X8998634Y-12965508D02*
X9008158Y-12975031D01*
X9008158Y-12975031D02*
X9017682Y-12994079D01*
X9017682Y-12994079D02*
X9027205Y-13032174D01*
X9027205Y-13032174D02*
X9027205Y-13079793D01*
X9027205Y-13079793D02*
X9017682Y-13117888D01*
X9017682Y-13117888D02*
X9008158Y-13136936D01*
X9008158Y-13136936D02*
X8998634Y-13146460D01*
X8998634Y-13146460D02*
X8979586Y-13155984D01*
X8979586Y-13155984D02*
X8960539Y-13155984D01*
X8960539Y-13155984D02*
X8941491Y-13146460D01*
X8941491Y-13146460D02*
X8931967Y-13136936D01*
X8931967Y-13136936D02*
X8922444Y-13117888D01*
X8922444Y-13117888D02*
X8912920Y-13079793D01*
X8912920Y-13079793D02*
X8912920Y-13032174D01*
X8912920Y-13032174D02*
X8922444Y-12994079D01*
X8922444Y-12994079D02*
X8931967Y-12975031D01*
X8931967Y-12975031D02*
X8941491Y-12965508D01*
X8941491Y-12965508D02*
X8960539Y-12955984D01*
X9112920Y-13155984D02*
X9112920Y-13022650D01*
X9112920Y-13041698D02*
X9122444Y-13032174D01*
X9122444Y-13032174D02*
X9141491Y-13022650D01*
X9141491Y-13022650D02*
X9170063Y-13022650D01*
X9170063Y-13022650D02*
X9189110Y-13032174D01*
X9189110Y-13032174D02*
X9198634Y-13051222D01*
X9198634Y-13051222D02*
X9198634Y-13155984D01*
X9198634Y-13051222D02*
X9208158Y-13032174D01*
X9208158Y-13032174D02*
X9227205Y-13022650D01*
X9227205Y-13022650D02*
X9255777Y-13022650D01*
X9255777Y-13022650D02*
X9274825Y-13032174D01*
X9274825Y-13032174D02*
X9284348Y-13051222D01*
X9284348Y-13051222D02*
X9284348Y-13155984D01*
X9379586Y-13155984D02*
X9379586Y-13022650D01*
X9379586Y-13041698D02*
X9389110Y-13032174D01*
X9389110Y-13032174D02*
X9408158Y-13022650D01*
X9408158Y-13022650D02*
X9436729Y-13022650D01*
X9436729Y-13022650D02*
X9455777Y-13032174D01*
X9455777Y-13032174D02*
X9465301Y-13051222D01*
X9465301Y-13051222D02*
X9465301Y-13155984D01*
X9465301Y-13051222D02*
X9474825Y-13032174D01*
X9474825Y-13032174D02*
X9493872Y-13022650D01*
X9493872Y-13022650D02*
X9522444Y-13022650D01*
X9522444Y-13022650D02*
X9541491Y-13032174D01*
X9541491Y-13032174D02*
X9551015Y-13051222D01*
X9551015Y-13051222D02*
X9551015Y-13155984D01*
X9941491Y-12946460D02*
X9770063Y-13203603D01*
X10198634Y-12955984D02*
X10217682Y-12955984D01*
X10217682Y-12955984D02*
X10236729Y-12965508D01*
X10236729Y-12965508D02*
X10246253Y-12975031D01*
X10246253Y-12975031D02*
X10255777Y-12994079D01*
X10255777Y-12994079D02*
X10265301Y-13032174D01*
X10265301Y-13032174D02*
X10265301Y-13079793D01*
X10265301Y-13079793D02*
X10255777Y-13117888D01*
X10255777Y-13117888D02*
X10246253Y-13136936D01*
X10246253Y-13136936D02*
X10236729Y-13146460D01*
X10236729Y-13146460D02*
X10217682Y-13155984D01*
X10217682Y-13155984D02*
X10198634Y-13155984D01*
X10198634Y-13155984D02*
X10179587Y-13146460D01*
X10179587Y-13146460D02*
X10170063Y-13136936D01*
X10170063Y-13136936D02*
X10160539Y-13117888D01*
X10160539Y-13117888D02*
X10151015Y-13079793D01*
X10151015Y-13079793D02*
X10151015Y-13032174D01*
X10151015Y-13032174D02*
X10160539Y-12994079D01*
X10160539Y-12994079D02*
X10170063Y-12975031D01*
X10170063Y-12975031D02*
X10179587Y-12965508D01*
X10179587Y-12965508D02*
X10198634Y-12955984D01*
X10351015Y-13136936D02*
X10360539Y-13146460D01*
X10360539Y-13146460D02*
X10351015Y-13155984D01*
X10351015Y-13155984D02*
X10341491Y-13146460D01*
X10341491Y-13146460D02*
X10351015Y-13136936D01*
X10351015Y-13136936D02*
X10351015Y-13155984D01*
X10484348Y-12955984D02*
X10503396Y-12955984D01*
X10503396Y-12955984D02*
X10522444Y-12965508D01*
X10522444Y-12965508D02*
X10531968Y-12975031D01*
X10531968Y-12975031D02*
X10541491Y-12994079D01*
X10541491Y-12994079D02*
X10551015Y-13032174D01*
X10551015Y-13032174D02*
X10551015Y-13079793D01*
X10551015Y-13079793D02*
X10541491Y-13117888D01*
X10541491Y-13117888D02*
X10531968Y-13136936D01*
X10531968Y-13136936D02*
X10522444Y-13146460D01*
X10522444Y-13146460D02*
X10503396Y-13155984D01*
X10503396Y-13155984D02*
X10484348Y-13155984D01*
X10484348Y-13155984D02*
X10465301Y-13146460D01*
X10465301Y-13146460D02*
X10455777Y-13136936D01*
X10455777Y-13136936D02*
X10446253Y-13117888D01*
X10446253Y-13117888D02*
X10436729Y-13079793D01*
X10436729Y-13079793D02*
X10436729Y-13032174D01*
X10436729Y-13032174D02*
X10446253Y-12994079D01*
X10446253Y-12994079D02*
X10455777Y-12975031D01*
X10455777Y-12975031D02*
X10465301Y-12965508D01*
X10465301Y-12965508D02*
X10484348Y-12955984D01*
X10617682Y-12955984D02*
X10741491Y-12955984D01*
X10741491Y-12955984D02*
X10674825Y-13032174D01*
X10674825Y-13032174D02*
X10703396Y-13032174D01*
X10703396Y-13032174D02*
X10722444Y-13041698D01*
X10722444Y-13041698D02*
X10731968Y-13051222D01*
X10731968Y-13051222D02*
X10741491Y-13070269D01*
X10741491Y-13070269D02*
X10741491Y-13117888D01*
X10741491Y-13117888D02*
X10731968Y-13136936D01*
X10731968Y-13136936D02*
X10722444Y-13146460D01*
X10722444Y-13146460D02*
X10703396Y-13155984D01*
X10703396Y-13155984D02*
X10646253Y-13155984D01*
X10646253Y-13155984D02*
X10627206Y-13146460D01*
X10627206Y-13146460D02*
X10617682Y-13136936D01*
X10922444Y-12955984D02*
X10827206Y-12955984D01*
X10827206Y-12955984D02*
X10817682Y-13051222D01*
X10817682Y-13051222D02*
X10827206Y-13041698D01*
X10827206Y-13041698D02*
X10846253Y-13032174D01*
X10846253Y-13032174D02*
X10893872Y-13032174D01*
X10893872Y-13032174D02*
X10912920Y-13041698D01*
X10912920Y-13041698D02*
X10922444Y-13051222D01*
X10922444Y-13051222D02*
X10931968Y-13070269D01*
X10931968Y-13070269D02*
X10931968Y-13117888D01*
X10931968Y-13117888D02*
X10922444Y-13136936D01*
X10922444Y-13136936D02*
X10912920Y-13146460D01*
X10912920Y-13146460D02*
X10893872Y-13155984D01*
X10893872Y-13155984D02*
X10846253Y-13155984D01*
X10846253Y-13155984D02*
X10827206Y-13146460D01*
X10827206Y-13146460D02*
X10817682Y-13136936D01*
X11103396Y-13022650D02*
X11103396Y-13155984D01*
X11055777Y-12946460D02*
X11008158Y-13089317D01*
X11008158Y-13089317D02*
X11131968Y-13089317D01*
X11198634Y-12955984D02*
X11198634Y-12994079D01*
X11274825Y-12955984D02*
X11274825Y-12994079D01*
X11570063Y-13232174D02*
X11560539Y-13222650D01*
X11560539Y-13222650D02*
X11541491Y-13194079D01*
X11541491Y-13194079D02*
X11531968Y-13175031D01*
X11531968Y-13175031D02*
X11522444Y-13146460D01*
X11522444Y-13146460D02*
X11512920Y-13098841D01*
X11512920Y-13098841D02*
X11512920Y-13060746D01*
X11512920Y-13060746D02*
X11522444Y-13013127D01*
X11522444Y-13013127D02*
X11531968Y-12984555D01*
X11531968Y-12984555D02*
X11541491Y-12965508D01*
X11541491Y-12965508D02*
X11560539Y-12936936D01*
X11560539Y-12936936D02*
X11570063Y-12927412D01*
X11731968Y-13022650D02*
X11731968Y-13155984D01*
X11684348Y-12946460D02*
X11636729Y-13089317D01*
X11636729Y-13089317D02*
X11760539Y-13089317D01*
X11989110Y-13155984D02*
X11989110Y-12955984D01*
X12074825Y-13155984D02*
X12074825Y-13051222D01*
X12074825Y-13051222D02*
X12065301Y-13032174D01*
X12065301Y-13032174D02*
X12046253Y-13022650D01*
X12046253Y-13022650D02*
X12017682Y-13022650D01*
X12017682Y-13022650D02*
X11998634Y-13032174D01*
X11998634Y-13032174D02*
X11989110Y-13041698D01*
X12198634Y-13155984D02*
X12179587Y-13146460D01*
X12179587Y-13146460D02*
X12170063Y-13136936D01*
X12170063Y-13136936D02*
X12160539Y-13117888D01*
X12160539Y-13117888D02*
X12160539Y-13060746D01*
X12160539Y-13060746D02*
X12170063Y-13041698D01*
X12170063Y-13041698D02*
X12179587Y-13032174D01*
X12179587Y-13032174D02*
X12198634Y-13022650D01*
X12198634Y-13022650D02*
X12227206Y-13022650D01*
X12227206Y-13022650D02*
X12246253Y-13032174D01*
X12246253Y-13032174D02*
X12255777Y-13041698D01*
X12255777Y-13041698D02*
X12265301Y-13060746D01*
X12265301Y-13060746D02*
X12265301Y-13117888D01*
X12265301Y-13117888D02*
X12255777Y-13136936D01*
X12255777Y-13136936D02*
X12246253Y-13146460D01*
X12246253Y-13146460D02*
X12227206Y-13155984D01*
X12227206Y-13155984D02*
X12198634Y-13155984D01*
X12379587Y-13155984D02*
X12360539Y-13146460D01*
X12360539Y-13146460D02*
X12351015Y-13127412D01*
X12351015Y-13127412D02*
X12351015Y-12955984D01*
X12531968Y-13146460D02*
X12512920Y-13155984D01*
X12512920Y-13155984D02*
X12474825Y-13155984D01*
X12474825Y-13155984D02*
X12455777Y-13146460D01*
X12455777Y-13146460D02*
X12446253Y-13127412D01*
X12446253Y-13127412D02*
X12446253Y-13051222D01*
X12446253Y-13051222D02*
X12455777Y-13032174D01*
X12455777Y-13032174D02*
X12474825Y-13022650D01*
X12474825Y-13022650D02*
X12512920Y-13022650D01*
X12512920Y-13022650D02*
X12531968Y-13032174D01*
X12531968Y-13032174D02*
X12541491Y-13051222D01*
X12541491Y-13051222D02*
X12541491Y-13070269D01*
X12541491Y-13070269D02*
X12446253Y-13089317D01*
X12617682Y-13146460D02*
X12636730Y-13155984D01*
X12636730Y-13155984D02*
X12674825Y-13155984D01*
X12674825Y-13155984D02*
X12693872Y-13146460D01*
X12693872Y-13146460D02*
X12703396Y-13127412D01*
X12703396Y-13127412D02*
X12703396Y-13117888D01*
X12703396Y-13117888D02*
X12693872Y-13098841D01*
X12693872Y-13098841D02*
X12674825Y-13089317D01*
X12674825Y-13089317D02*
X12646253Y-13089317D01*
X12646253Y-13089317D02*
X12627206Y-13079793D01*
X12627206Y-13079793D02*
X12617682Y-13060746D01*
X12617682Y-13060746D02*
X12617682Y-13051222D01*
X12617682Y-13051222D02*
X12627206Y-13032174D01*
X12627206Y-13032174D02*
X12646253Y-13022650D01*
X12646253Y-13022650D02*
X12674825Y-13022650D01*
X12674825Y-13022650D02*
X12693872Y-13032174D01*
X12770063Y-13232174D02*
X12779587Y-13222650D01*
X12779587Y-13222650D02*
X12798634Y-13194079D01*
X12798634Y-13194079D02*
X12808158Y-13175031D01*
X12808158Y-13175031D02*
X12817682Y-13146460D01*
X12817682Y-13146460D02*
X12827206Y-13098841D01*
X12827206Y-13098841D02*
X12827206Y-13060746D01*
X12827206Y-13060746D02*
X12817682Y-13013127D01*
X12817682Y-13013127D02*
X12808158Y-12984555D01*
X12808158Y-12984555D02*
X12798634Y-12965508D01*
X12798634Y-12965508D02*
X12779587Y-12936936D01*
X12779587Y-12936936D02*
X12770063Y-12927412D01*
D10*
X7945000Y-13378500D02*
X7995000Y-13328500D01*
X7945000Y-13278500D01*
X7895000Y-13328500D01*
X7945000Y-13378500D01*
D12*
X8360539Y-13419984D02*
X8246253Y-13419984D01*
X8303396Y-13419984D02*
X8303396Y-13219984D01*
X8303396Y-13219984D02*
X8284348Y-13248555D01*
X8284348Y-13248555D02*
X8265301Y-13267603D01*
X8265301Y-13267603D02*
X8246253Y-13277127D01*
X8446253Y-13400936D02*
X8455777Y-13410460D01*
X8455777Y-13410460D02*
X8446253Y-13419984D01*
X8446253Y-13419984D02*
X8436729Y-13410460D01*
X8436729Y-13410460D02*
X8446253Y-13400936D01*
X8446253Y-13400936D02*
X8446253Y-13419984D01*
X8579586Y-13219984D02*
X8598634Y-13219984D01*
X8598634Y-13219984D02*
X8617682Y-13229508D01*
X8617682Y-13229508D02*
X8627205Y-13239031D01*
X8627205Y-13239031D02*
X8636729Y-13258079D01*
X8636729Y-13258079D02*
X8646253Y-13296174D01*
X8646253Y-13296174D02*
X8646253Y-13343793D01*
X8646253Y-13343793D02*
X8636729Y-13381888D01*
X8636729Y-13381888D02*
X8627205Y-13400936D01*
X8627205Y-13400936D02*
X8617682Y-13410460D01*
X8617682Y-13410460D02*
X8598634Y-13419984D01*
X8598634Y-13419984D02*
X8579586Y-13419984D01*
X8579586Y-13419984D02*
X8560539Y-13410460D01*
X8560539Y-13410460D02*
X8551015Y-13400936D01*
X8551015Y-13400936D02*
X8541491Y-13381888D01*
X8541491Y-13381888D02*
X8531967Y-13343793D01*
X8531967Y-13343793D02*
X8531967Y-13296174D01*
X8531967Y-13296174D02*
X8541491Y-13258079D01*
X8541491Y-13258079D02*
X8551015Y-13239031D01*
X8551015Y-13239031D02*
X8560539Y-13229508D01*
X8560539Y-13229508D02*
X8579586Y-13219984D01*
X8770063Y-13219984D02*
X8789110Y-13219984D01*
X8789110Y-13219984D02*
X8808158Y-13229508D01*
X8808158Y-13229508D02*
X8817682Y-13239031D01*
X8817682Y-13239031D02*
X8827205Y-13258079D01*
X8827205Y-13258079D02*
X8836729Y-13296174D01*
X8836729Y-13296174D02*
X8836729Y-13343793D01*
X8836729Y-13343793D02*
X8827205Y-13381888D01*
X8827205Y-13381888D02*
X8817682Y-13400936D01*
X8817682Y-13400936D02*
X8808158Y-13410460D01*
X8808158Y-13410460D02*
X8789110Y-13419984D01*
X8789110Y-13419984D02*
X8770063Y-13419984D01*
X8770063Y-13419984D02*
X8751015Y-13410460D01*
X8751015Y-13410460D02*
X8741491Y-13400936D01*
X8741491Y-13400936D02*
X8731967Y-13381888D01*
X8731967Y-13381888D02*
X8722444Y-13343793D01*
X8722444Y-13343793D02*
X8722444Y-13296174D01*
X8722444Y-13296174D02*
X8731967Y-13258079D01*
X8731967Y-13258079D02*
X8741491Y-13239031D01*
X8741491Y-13239031D02*
X8751015Y-13229508D01*
X8751015Y-13229508D02*
X8770063Y-13219984D01*
X8960539Y-13219984D02*
X8979586Y-13219984D01*
X8979586Y-13219984D02*
X8998634Y-13229508D01*
X8998634Y-13229508D02*
X9008158Y-13239031D01*
X9008158Y-13239031D02*
X9017682Y-13258079D01*
X9017682Y-13258079D02*
X9027205Y-13296174D01*
X9027205Y-13296174D02*
X9027205Y-13343793D01*
X9027205Y-13343793D02*
X9017682Y-13381888D01*
X9017682Y-13381888D02*
X9008158Y-13400936D01*
X9008158Y-13400936D02*
X8998634Y-13410460D01*
X8998634Y-13410460D02*
X8979586Y-13419984D01*
X8979586Y-13419984D02*
X8960539Y-13419984D01*
X8960539Y-13419984D02*
X8941491Y-13410460D01*
X8941491Y-13410460D02*
X8931967Y-13400936D01*
X8931967Y-13400936D02*
X8922444Y-13381888D01*
X8922444Y-13381888D02*
X8912920Y-13343793D01*
X8912920Y-13343793D02*
X8912920Y-13296174D01*
X8912920Y-13296174D02*
X8922444Y-13258079D01*
X8922444Y-13258079D02*
X8931967Y-13239031D01*
X8931967Y-13239031D02*
X8941491Y-13229508D01*
X8941491Y-13229508D02*
X8960539Y-13219984D01*
X9112920Y-13419984D02*
X9112920Y-13286650D01*
X9112920Y-13305698D02*
X9122444Y-13296174D01*
X9122444Y-13296174D02*
X9141491Y-13286650D01*
X9141491Y-13286650D02*
X9170063Y-13286650D01*
X9170063Y-13286650D02*
X9189110Y-13296174D01*
X9189110Y-13296174D02*
X9198634Y-13315222D01*
X9198634Y-13315222D02*
X9198634Y-13419984D01*
X9198634Y-13315222D02*
X9208158Y-13296174D01*
X9208158Y-13296174D02*
X9227205Y-13286650D01*
X9227205Y-13286650D02*
X9255777Y-13286650D01*
X9255777Y-13286650D02*
X9274825Y-13296174D01*
X9274825Y-13296174D02*
X9284348Y-13315222D01*
X9284348Y-13315222D02*
X9284348Y-13419984D01*
X9379586Y-13419984D02*
X9379586Y-13286650D01*
X9379586Y-13305698D02*
X9389110Y-13296174D01*
X9389110Y-13296174D02*
X9408158Y-13286650D01*
X9408158Y-13286650D02*
X9436729Y-13286650D01*
X9436729Y-13286650D02*
X9455777Y-13296174D01*
X9455777Y-13296174D02*
X9465301Y-13315222D01*
X9465301Y-13315222D02*
X9465301Y-13419984D01*
X9465301Y-13315222D02*
X9474825Y-13296174D01*
X9474825Y-13296174D02*
X9493872Y-13286650D01*
X9493872Y-13286650D02*
X9522444Y-13286650D01*
X9522444Y-13286650D02*
X9541491Y-13296174D01*
X9541491Y-13296174D02*
X9551015Y-13315222D01*
X9551015Y-13315222D02*
X9551015Y-13419984D01*
X9941491Y-13210460D02*
X9770063Y-13467603D01*
X10198634Y-13219984D02*
X10217682Y-13219984D01*
X10217682Y-13219984D02*
X10236729Y-13229508D01*
X10236729Y-13229508D02*
X10246253Y-13239031D01*
X10246253Y-13239031D02*
X10255777Y-13258079D01*
X10255777Y-13258079D02*
X10265301Y-13296174D01*
X10265301Y-13296174D02*
X10265301Y-13343793D01*
X10265301Y-13343793D02*
X10255777Y-13381888D01*
X10255777Y-13381888D02*
X10246253Y-13400936D01*
X10246253Y-13400936D02*
X10236729Y-13410460D01*
X10236729Y-13410460D02*
X10217682Y-13419984D01*
X10217682Y-13419984D02*
X10198634Y-13419984D01*
X10198634Y-13419984D02*
X10179587Y-13410460D01*
X10179587Y-13410460D02*
X10170063Y-13400936D01*
X10170063Y-13400936D02*
X10160539Y-13381888D01*
X10160539Y-13381888D02*
X10151015Y-13343793D01*
X10151015Y-13343793D02*
X10151015Y-13296174D01*
X10151015Y-13296174D02*
X10160539Y-13258079D01*
X10160539Y-13258079D02*
X10170063Y-13239031D01*
X10170063Y-13239031D02*
X10179587Y-13229508D01*
X10179587Y-13229508D02*
X10198634Y-13219984D01*
X10351015Y-13400936D02*
X10360539Y-13410460D01*
X10360539Y-13410460D02*
X10351015Y-13419984D01*
X10351015Y-13419984D02*
X10341491Y-13410460D01*
X10341491Y-13410460D02*
X10351015Y-13400936D01*
X10351015Y-13400936D02*
X10351015Y-13419984D01*
X10484348Y-13219984D02*
X10503396Y-13219984D01*
X10503396Y-13219984D02*
X10522444Y-13229508D01*
X10522444Y-13229508D02*
X10531968Y-13239031D01*
X10531968Y-13239031D02*
X10541491Y-13258079D01*
X10541491Y-13258079D02*
X10551015Y-13296174D01*
X10551015Y-13296174D02*
X10551015Y-13343793D01*
X10551015Y-13343793D02*
X10541491Y-13381888D01*
X10541491Y-13381888D02*
X10531968Y-13400936D01*
X10531968Y-13400936D02*
X10522444Y-13410460D01*
X10522444Y-13410460D02*
X10503396Y-13419984D01*
X10503396Y-13419984D02*
X10484348Y-13419984D01*
X10484348Y-13419984D02*
X10465301Y-13410460D01*
X10465301Y-13410460D02*
X10455777Y-13400936D01*
X10455777Y-13400936D02*
X10446253Y-13381888D01*
X10446253Y-13381888D02*
X10436729Y-13343793D01*
X10436729Y-13343793D02*
X10436729Y-13296174D01*
X10436729Y-13296174D02*
X10446253Y-13258079D01*
X10446253Y-13258079D02*
X10455777Y-13239031D01*
X10455777Y-13239031D02*
X10465301Y-13229508D01*
X10465301Y-13229508D02*
X10484348Y-13219984D01*
X10617682Y-13219984D02*
X10741491Y-13219984D01*
X10741491Y-13219984D02*
X10674825Y-13296174D01*
X10674825Y-13296174D02*
X10703396Y-13296174D01*
X10703396Y-13296174D02*
X10722444Y-13305698D01*
X10722444Y-13305698D02*
X10731968Y-13315222D01*
X10731968Y-13315222D02*
X10741491Y-13334269D01*
X10741491Y-13334269D02*
X10741491Y-13381888D01*
X10741491Y-13381888D02*
X10731968Y-13400936D01*
X10731968Y-13400936D02*
X10722444Y-13410460D01*
X10722444Y-13410460D02*
X10703396Y-13419984D01*
X10703396Y-13419984D02*
X10646253Y-13419984D01*
X10646253Y-13419984D02*
X10627206Y-13410460D01*
X10627206Y-13410460D02*
X10617682Y-13400936D01*
X10836729Y-13419984D02*
X10874825Y-13419984D01*
X10874825Y-13419984D02*
X10893872Y-13410460D01*
X10893872Y-13410460D02*
X10903396Y-13400936D01*
X10903396Y-13400936D02*
X10922444Y-13372365D01*
X10922444Y-13372365D02*
X10931968Y-13334269D01*
X10931968Y-13334269D02*
X10931968Y-13258079D01*
X10931968Y-13258079D02*
X10922444Y-13239031D01*
X10922444Y-13239031D02*
X10912920Y-13229508D01*
X10912920Y-13229508D02*
X10893872Y-13219984D01*
X10893872Y-13219984D02*
X10855777Y-13219984D01*
X10855777Y-13219984D02*
X10836729Y-13229508D01*
X10836729Y-13229508D02*
X10827206Y-13239031D01*
X10827206Y-13239031D02*
X10817682Y-13258079D01*
X10817682Y-13258079D02*
X10817682Y-13305698D01*
X10817682Y-13305698D02*
X10827206Y-13324746D01*
X10827206Y-13324746D02*
X10836729Y-13334269D01*
X10836729Y-13334269D02*
X10855777Y-13343793D01*
X10855777Y-13343793D02*
X10893872Y-13343793D01*
X10893872Y-13343793D02*
X10912920Y-13334269D01*
X10912920Y-13334269D02*
X10922444Y-13324746D01*
X10922444Y-13324746D02*
X10931968Y-13305698D01*
X11103396Y-13286650D02*
X11103396Y-13419984D01*
X11055777Y-13210460D02*
X11008158Y-13353317D01*
X11008158Y-13353317D02*
X11131968Y-13353317D01*
X11198634Y-13219984D02*
X11198634Y-13258079D01*
X11274825Y-13219984D02*
X11274825Y-13258079D01*
X11570063Y-13496174D02*
X11560539Y-13486650D01*
X11560539Y-13486650D02*
X11541491Y-13458079D01*
X11541491Y-13458079D02*
X11531968Y-13439031D01*
X11531968Y-13439031D02*
X11522444Y-13410460D01*
X11522444Y-13410460D02*
X11512920Y-13362841D01*
X11512920Y-13362841D02*
X11512920Y-13324746D01*
X11512920Y-13324746D02*
X11522444Y-13277127D01*
X11522444Y-13277127D02*
X11531968Y-13248555D01*
X11531968Y-13248555D02*
X11541491Y-13229508D01*
X11541491Y-13229508D02*
X11560539Y-13200936D01*
X11560539Y-13200936D02*
X11570063Y-13191412D01*
X11636729Y-13239031D02*
X11646253Y-13229508D01*
X11646253Y-13229508D02*
X11665301Y-13219984D01*
X11665301Y-13219984D02*
X11712920Y-13219984D01*
X11712920Y-13219984D02*
X11731968Y-13229508D01*
X11731968Y-13229508D02*
X11741491Y-13239031D01*
X11741491Y-13239031D02*
X11751015Y-13258079D01*
X11751015Y-13258079D02*
X11751015Y-13277127D01*
X11751015Y-13277127D02*
X11741491Y-13305698D01*
X11741491Y-13305698D02*
X11627206Y-13419984D01*
X11627206Y-13419984D02*
X11751015Y-13419984D01*
X11922444Y-13286650D02*
X11922444Y-13419984D01*
X11874825Y-13210460D02*
X11827206Y-13353317D01*
X11827206Y-13353317D02*
X11951015Y-13353317D01*
X12179587Y-13419984D02*
X12179587Y-13219984D01*
X12265301Y-13419984D02*
X12265301Y-13315222D01*
X12265301Y-13315222D02*
X12255777Y-13296174D01*
X12255777Y-13296174D02*
X12236730Y-13286650D01*
X12236730Y-13286650D02*
X12208158Y-13286650D01*
X12208158Y-13286650D02*
X12189110Y-13296174D01*
X12189110Y-13296174D02*
X12179587Y-13305698D01*
X12389110Y-13419984D02*
X12370063Y-13410460D01*
X12370063Y-13410460D02*
X12360539Y-13400936D01*
X12360539Y-13400936D02*
X12351015Y-13381888D01*
X12351015Y-13381888D02*
X12351015Y-13324746D01*
X12351015Y-13324746D02*
X12360539Y-13305698D01*
X12360539Y-13305698D02*
X12370063Y-13296174D01*
X12370063Y-13296174D02*
X12389110Y-13286650D01*
X12389110Y-13286650D02*
X12417682Y-13286650D01*
X12417682Y-13286650D02*
X12436730Y-13296174D01*
X12436730Y-13296174D02*
X12446253Y-13305698D01*
X12446253Y-13305698D02*
X12455777Y-13324746D01*
X12455777Y-13324746D02*
X12455777Y-13381888D01*
X12455777Y-13381888D02*
X12446253Y-13400936D01*
X12446253Y-13400936D02*
X12436730Y-13410460D01*
X12436730Y-13410460D02*
X12417682Y-13419984D01*
X12417682Y-13419984D02*
X12389110Y-13419984D01*
X12570063Y-13419984D02*
X12551015Y-13410460D01*
X12551015Y-13410460D02*
X12541491Y-13391412D01*
X12541491Y-13391412D02*
X12541491Y-13219984D01*
X12722444Y-13410460D02*
X12703396Y-13419984D01*
X12703396Y-13419984D02*
X12665301Y-13419984D01*
X12665301Y-13419984D02*
X12646253Y-13410460D01*
X12646253Y-13410460D02*
X12636730Y-13391412D01*
X12636730Y-13391412D02*
X12636730Y-13315222D01*
X12636730Y-13315222D02*
X12646253Y-13296174D01*
X12646253Y-13296174D02*
X12665301Y-13286650D01*
X12665301Y-13286650D02*
X12703396Y-13286650D01*
X12703396Y-13286650D02*
X12722444Y-13296174D01*
X12722444Y-13296174D02*
X12731968Y-13315222D01*
X12731968Y-13315222D02*
X12731968Y-13334269D01*
X12731968Y-13334269D02*
X12636730Y-13353317D01*
X12808158Y-13410460D02*
X12827206Y-13419984D01*
X12827206Y-13419984D02*
X12865301Y-13419984D01*
X12865301Y-13419984D02*
X12884349Y-13410460D01*
X12884349Y-13410460D02*
X12893872Y-13391412D01*
X12893872Y-13391412D02*
X12893872Y-13381888D01*
X12893872Y-13381888D02*
X12884349Y-13362841D01*
X12884349Y-13362841D02*
X12865301Y-13353317D01*
X12865301Y-13353317D02*
X12836730Y-13353317D01*
X12836730Y-13353317D02*
X12817682Y-13343793D01*
X12817682Y-13343793D02*
X12808158Y-13324746D01*
X12808158Y-13324746D02*
X12808158Y-13315222D01*
X12808158Y-13315222D02*
X12817682Y-13296174D01*
X12817682Y-13296174D02*
X12836730Y-13286650D01*
X12836730Y-13286650D02*
X12865301Y-13286650D01*
X12865301Y-13286650D02*
X12884349Y-13296174D01*
X12960539Y-13496174D02*
X12970063Y-13486650D01*
X12970063Y-13486650D02*
X12989111Y-13458079D01*
X12989111Y-13458079D02*
X12998634Y-13439031D01*
X12998634Y-13439031D02*
X13008158Y-13410460D01*
X13008158Y-13410460D02*
X13017682Y-13362841D01*
X13017682Y-13362841D02*
X13017682Y-13324746D01*
X13017682Y-13324746D02*
X13008158Y-13277127D01*
X13008158Y-13277127D02*
X12998634Y-13248555D01*
X12998634Y-13248555D02*
X12989111Y-13229508D01*
X12989111Y-13229508D02*
X12970063Y-13200936D01*
X12970063Y-13200936D02*
X12960539Y-13191412D01*
D13*
X7885000Y-13537500D02*
X7995000Y-13647500D01*
X7995000Y-13537500D02*
X7885000Y-13647500D01*
X7995000Y-13592500D02*
G75*
G02*
X7885000Y-13592500I-55000J0D01*
G01*
X7885000Y-13592500D02*
G75*
G02*
X7995000Y-13592500I55000J0D01*
G01*
D12*
X8360539Y-13683984D02*
X8246253Y-13683984D01*
X8303396Y-13683984D02*
X8303396Y-13483984D01*
X8303396Y-13483984D02*
X8284348Y-13512555D01*
X8284348Y-13512555D02*
X8265301Y-13531603D01*
X8265301Y-13531603D02*
X8246253Y-13541127D01*
X8446253Y-13664936D02*
X8455777Y-13674460D01*
X8455777Y-13674460D02*
X8446253Y-13683984D01*
X8446253Y-13683984D02*
X8436729Y-13674460D01*
X8436729Y-13674460D02*
X8446253Y-13664936D01*
X8446253Y-13664936D02*
X8446253Y-13683984D01*
X8646253Y-13683984D02*
X8531967Y-13683984D01*
X8589110Y-13683984D02*
X8589110Y-13483984D01*
X8589110Y-13483984D02*
X8570063Y-13512555D01*
X8570063Y-13512555D02*
X8551015Y-13531603D01*
X8551015Y-13531603D02*
X8531967Y-13541127D01*
X8770063Y-13483984D02*
X8789110Y-13483984D01*
X8789110Y-13483984D02*
X8808158Y-13493508D01*
X8808158Y-13493508D02*
X8817682Y-13503031D01*
X8817682Y-13503031D02*
X8827205Y-13522079D01*
X8827205Y-13522079D02*
X8836729Y-13560174D01*
X8836729Y-13560174D02*
X8836729Y-13607793D01*
X8836729Y-13607793D02*
X8827205Y-13645888D01*
X8827205Y-13645888D02*
X8817682Y-13664936D01*
X8817682Y-13664936D02*
X8808158Y-13674460D01*
X8808158Y-13674460D02*
X8789110Y-13683984D01*
X8789110Y-13683984D02*
X8770063Y-13683984D01*
X8770063Y-13683984D02*
X8751015Y-13674460D01*
X8751015Y-13674460D02*
X8741491Y-13664936D01*
X8741491Y-13664936D02*
X8731967Y-13645888D01*
X8731967Y-13645888D02*
X8722444Y-13607793D01*
X8722444Y-13607793D02*
X8722444Y-13560174D01*
X8722444Y-13560174D02*
X8731967Y-13522079D01*
X8731967Y-13522079D02*
X8741491Y-13503031D01*
X8741491Y-13503031D02*
X8751015Y-13493508D01*
X8751015Y-13493508D02*
X8770063Y-13483984D01*
X8960539Y-13483984D02*
X8979586Y-13483984D01*
X8979586Y-13483984D02*
X8998634Y-13493508D01*
X8998634Y-13493508D02*
X9008158Y-13503031D01*
X9008158Y-13503031D02*
X9017682Y-13522079D01*
X9017682Y-13522079D02*
X9027205Y-13560174D01*
X9027205Y-13560174D02*
X9027205Y-13607793D01*
X9027205Y-13607793D02*
X9017682Y-13645888D01*
X9017682Y-13645888D02*
X9008158Y-13664936D01*
X9008158Y-13664936D02*
X8998634Y-13674460D01*
X8998634Y-13674460D02*
X8979586Y-13683984D01*
X8979586Y-13683984D02*
X8960539Y-13683984D01*
X8960539Y-13683984D02*
X8941491Y-13674460D01*
X8941491Y-13674460D02*
X8931967Y-13664936D01*
X8931967Y-13664936D02*
X8922444Y-13645888D01*
X8922444Y-13645888D02*
X8912920Y-13607793D01*
X8912920Y-13607793D02*
X8912920Y-13560174D01*
X8912920Y-13560174D02*
X8922444Y-13522079D01*
X8922444Y-13522079D02*
X8931967Y-13503031D01*
X8931967Y-13503031D02*
X8941491Y-13493508D01*
X8941491Y-13493508D02*
X8960539Y-13483984D01*
X9112920Y-13683984D02*
X9112920Y-13550650D01*
X9112920Y-13569698D02*
X9122444Y-13560174D01*
X9122444Y-13560174D02*
X9141491Y-13550650D01*
X9141491Y-13550650D02*
X9170063Y-13550650D01*
X9170063Y-13550650D02*
X9189110Y-13560174D01*
X9189110Y-13560174D02*
X9198634Y-13579222D01*
X9198634Y-13579222D02*
X9198634Y-13683984D01*
X9198634Y-13579222D02*
X9208158Y-13560174D01*
X9208158Y-13560174D02*
X9227205Y-13550650D01*
X9227205Y-13550650D02*
X9255777Y-13550650D01*
X9255777Y-13550650D02*
X9274825Y-13560174D01*
X9274825Y-13560174D02*
X9284348Y-13579222D01*
X9284348Y-13579222D02*
X9284348Y-13683984D01*
X9379586Y-13683984D02*
X9379586Y-13550650D01*
X9379586Y-13569698D02*
X9389110Y-13560174D01*
X9389110Y-13560174D02*
X9408158Y-13550650D01*
X9408158Y-13550650D02*
X9436729Y-13550650D01*
X9436729Y-13550650D02*
X9455777Y-13560174D01*
X9455777Y-13560174D02*
X9465301Y-13579222D01*
X9465301Y-13579222D02*
X9465301Y-13683984D01*
X9465301Y-13579222D02*
X9474825Y-13560174D01*
X9474825Y-13560174D02*
X9493872Y-13550650D01*
X9493872Y-13550650D02*
X9522444Y-13550650D01*
X9522444Y-13550650D02*
X9541491Y-13560174D01*
X9541491Y-13560174D02*
X9551015Y-13579222D01*
X9551015Y-13579222D02*
X9551015Y-13683984D01*
X9941491Y-13474460D02*
X9770063Y-13731603D01*
X10198634Y-13483984D02*
X10217682Y-13483984D01*
X10217682Y-13483984D02*
X10236729Y-13493508D01*
X10236729Y-13493508D02*
X10246253Y-13503031D01*
X10246253Y-13503031D02*
X10255777Y-13522079D01*
X10255777Y-13522079D02*
X10265301Y-13560174D01*
X10265301Y-13560174D02*
X10265301Y-13607793D01*
X10265301Y-13607793D02*
X10255777Y-13645888D01*
X10255777Y-13645888D02*
X10246253Y-13664936D01*
X10246253Y-13664936D02*
X10236729Y-13674460D01*
X10236729Y-13674460D02*
X10217682Y-13683984D01*
X10217682Y-13683984D02*
X10198634Y-13683984D01*
X10198634Y-13683984D02*
X10179587Y-13674460D01*
X10179587Y-13674460D02*
X10170063Y-13664936D01*
X10170063Y-13664936D02*
X10160539Y-13645888D01*
X10160539Y-13645888D02*
X10151015Y-13607793D01*
X10151015Y-13607793D02*
X10151015Y-13560174D01*
X10151015Y-13560174D02*
X10160539Y-13522079D01*
X10160539Y-13522079D02*
X10170063Y-13503031D01*
X10170063Y-13503031D02*
X10179587Y-13493508D01*
X10179587Y-13493508D02*
X10198634Y-13483984D01*
X10351015Y-13664936D02*
X10360539Y-13674460D01*
X10360539Y-13674460D02*
X10351015Y-13683984D01*
X10351015Y-13683984D02*
X10341491Y-13674460D01*
X10341491Y-13674460D02*
X10351015Y-13664936D01*
X10351015Y-13664936D02*
X10351015Y-13683984D01*
X10484348Y-13483984D02*
X10503396Y-13483984D01*
X10503396Y-13483984D02*
X10522444Y-13493508D01*
X10522444Y-13493508D02*
X10531968Y-13503031D01*
X10531968Y-13503031D02*
X10541491Y-13522079D01*
X10541491Y-13522079D02*
X10551015Y-13560174D01*
X10551015Y-13560174D02*
X10551015Y-13607793D01*
X10551015Y-13607793D02*
X10541491Y-13645888D01*
X10541491Y-13645888D02*
X10531968Y-13664936D01*
X10531968Y-13664936D02*
X10522444Y-13674460D01*
X10522444Y-13674460D02*
X10503396Y-13683984D01*
X10503396Y-13683984D02*
X10484348Y-13683984D01*
X10484348Y-13683984D02*
X10465301Y-13674460D01*
X10465301Y-13674460D02*
X10455777Y-13664936D01*
X10455777Y-13664936D02*
X10446253Y-13645888D01*
X10446253Y-13645888D02*
X10436729Y-13607793D01*
X10436729Y-13607793D02*
X10436729Y-13560174D01*
X10436729Y-13560174D02*
X10446253Y-13522079D01*
X10446253Y-13522079D02*
X10455777Y-13503031D01*
X10455777Y-13503031D02*
X10465301Y-13493508D01*
X10465301Y-13493508D02*
X10484348Y-13483984D01*
X10722444Y-13550650D02*
X10722444Y-13683984D01*
X10674825Y-13474460D02*
X10627206Y-13617317D01*
X10627206Y-13617317D02*
X10751015Y-13617317D01*
X10808158Y-13483984D02*
X10931968Y-13483984D01*
X10931968Y-13483984D02*
X10865301Y-13560174D01*
X10865301Y-13560174D02*
X10893872Y-13560174D01*
X10893872Y-13560174D02*
X10912920Y-13569698D01*
X10912920Y-13569698D02*
X10922444Y-13579222D01*
X10922444Y-13579222D02*
X10931968Y-13598269D01*
X10931968Y-13598269D02*
X10931968Y-13645888D01*
X10931968Y-13645888D02*
X10922444Y-13664936D01*
X10922444Y-13664936D02*
X10912920Y-13674460D01*
X10912920Y-13674460D02*
X10893872Y-13683984D01*
X10893872Y-13683984D02*
X10836729Y-13683984D01*
X10836729Y-13683984D02*
X10817682Y-13674460D01*
X10817682Y-13674460D02*
X10808158Y-13664936D01*
X10998634Y-13483984D02*
X11122444Y-13483984D01*
X11122444Y-13483984D02*
X11055777Y-13560174D01*
X11055777Y-13560174D02*
X11084349Y-13560174D01*
X11084349Y-13560174D02*
X11103396Y-13569698D01*
X11103396Y-13569698D02*
X11112920Y-13579222D01*
X11112920Y-13579222D02*
X11122444Y-13598269D01*
X11122444Y-13598269D02*
X11122444Y-13645888D01*
X11122444Y-13645888D02*
X11112920Y-13664936D01*
X11112920Y-13664936D02*
X11103396Y-13674460D01*
X11103396Y-13674460D02*
X11084349Y-13683984D01*
X11084349Y-13683984D02*
X11027206Y-13683984D01*
X11027206Y-13683984D02*
X11008158Y-13674460D01*
X11008158Y-13674460D02*
X10998634Y-13664936D01*
X11198634Y-13483984D02*
X11198634Y-13522079D01*
X11274825Y-13483984D02*
X11274825Y-13522079D01*
X11570063Y-13760174D02*
X11560539Y-13750650D01*
X11560539Y-13750650D02*
X11541491Y-13722079D01*
X11541491Y-13722079D02*
X11531968Y-13703031D01*
X11531968Y-13703031D02*
X11522444Y-13674460D01*
X11522444Y-13674460D02*
X11512920Y-13626841D01*
X11512920Y-13626841D02*
X11512920Y-13588746D01*
X11512920Y-13588746D02*
X11522444Y-13541127D01*
X11522444Y-13541127D02*
X11531968Y-13512555D01*
X11531968Y-13512555D02*
X11541491Y-13493508D01*
X11541491Y-13493508D02*
X11560539Y-13464936D01*
X11560539Y-13464936D02*
X11570063Y-13455412D01*
X11627206Y-13483984D02*
X11760539Y-13483984D01*
X11760539Y-13483984D02*
X11674825Y-13683984D01*
X11989110Y-13683984D02*
X11989110Y-13483984D01*
X12074825Y-13683984D02*
X12074825Y-13579222D01*
X12074825Y-13579222D02*
X12065301Y-13560174D01*
X12065301Y-13560174D02*
X12046253Y-13550650D01*
X12046253Y-13550650D02*
X12017682Y-13550650D01*
X12017682Y-13550650D02*
X11998634Y-13560174D01*
X11998634Y-13560174D02*
X11989110Y-13569698D01*
X12198634Y-13683984D02*
X12179587Y-13674460D01*
X12179587Y-13674460D02*
X12170063Y-13664936D01*
X12170063Y-13664936D02*
X12160539Y-13645888D01*
X12160539Y-13645888D02*
X12160539Y-13588746D01*
X12160539Y-13588746D02*
X12170063Y-13569698D01*
X12170063Y-13569698D02*
X12179587Y-13560174D01*
X12179587Y-13560174D02*
X12198634Y-13550650D01*
X12198634Y-13550650D02*
X12227206Y-13550650D01*
X12227206Y-13550650D02*
X12246253Y-13560174D01*
X12246253Y-13560174D02*
X12255777Y-13569698D01*
X12255777Y-13569698D02*
X12265301Y-13588746D01*
X12265301Y-13588746D02*
X12265301Y-13645888D01*
X12265301Y-13645888D02*
X12255777Y-13664936D01*
X12255777Y-13664936D02*
X12246253Y-13674460D01*
X12246253Y-13674460D02*
X12227206Y-13683984D01*
X12227206Y-13683984D02*
X12198634Y-13683984D01*
X12379587Y-13683984D02*
X12360539Y-13674460D01*
X12360539Y-13674460D02*
X12351015Y-13655412D01*
X12351015Y-13655412D02*
X12351015Y-13483984D01*
X12531968Y-13674460D02*
X12512920Y-13683984D01*
X12512920Y-13683984D02*
X12474825Y-13683984D01*
X12474825Y-13683984D02*
X12455777Y-13674460D01*
X12455777Y-13674460D02*
X12446253Y-13655412D01*
X12446253Y-13655412D02*
X12446253Y-13579222D01*
X12446253Y-13579222D02*
X12455777Y-13560174D01*
X12455777Y-13560174D02*
X12474825Y-13550650D01*
X12474825Y-13550650D02*
X12512920Y-13550650D01*
X12512920Y-13550650D02*
X12531968Y-13560174D01*
X12531968Y-13560174D02*
X12541491Y-13579222D01*
X12541491Y-13579222D02*
X12541491Y-13598269D01*
X12541491Y-13598269D02*
X12446253Y-13617317D01*
X12617682Y-13674460D02*
X12636730Y-13683984D01*
X12636730Y-13683984D02*
X12674825Y-13683984D01*
X12674825Y-13683984D02*
X12693872Y-13674460D01*
X12693872Y-13674460D02*
X12703396Y-13655412D01*
X12703396Y-13655412D02*
X12703396Y-13645888D01*
X12703396Y-13645888D02*
X12693872Y-13626841D01*
X12693872Y-13626841D02*
X12674825Y-13617317D01*
X12674825Y-13617317D02*
X12646253Y-13617317D01*
X12646253Y-13617317D02*
X12627206Y-13607793D01*
X12627206Y-13607793D02*
X12617682Y-13588746D01*
X12617682Y-13588746D02*
X12617682Y-13579222D01*
X12617682Y-13579222D02*
X12627206Y-13560174D01*
X12627206Y-13560174D02*
X12646253Y-13550650D01*
X12646253Y-13550650D02*
X12674825Y-13550650D01*
X12674825Y-13550650D02*
X12693872Y-13560174D01*
X12770063Y-13760174D02*
X12779587Y-13750650D01*
X12779587Y-13750650D02*
X12798634Y-13722079D01*
X12798634Y-13722079D02*
X12808158Y-13703031D01*
X12808158Y-13703031D02*
X12817682Y-13674460D01*
X12817682Y-13674460D02*
X12827206Y-13626841D01*
X12827206Y-13626841D02*
X12827206Y-13588746D01*
X12827206Y-13588746D02*
X12817682Y-13541127D01*
X12817682Y-13541127D02*
X12808158Y-13512555D01*
X12808158Y-13512555D02*
X12798634Y-13493508D01*
X12798634Y-13493508D02*
X12779587Y-13464936D01*
X12779587Y-13464936D02*
X12770063Y-13455412D01*
M02*
