M48
; DRILL file {KiCad 8.0.4} date 2024-07-20T23:30:27-0400
; FORMAT={-:-/ absolute / inch / decimal}
; #@! TF.CreationDate,2024-07-20T23:30:27-04:00
; #@! TF.GenerationSoftware,Kicad,Pcbnew,8.0.4
; #@! TF.FileFunction,Plated,1,2,PTH
FMAT,2
INCH
; #@! TA.AperFunction,Plated,PTH,ViaDrill
T1C0.0157
; #@! TA.AperFunction,Plated,PTH,ComponentDrill
T2C0.0236
; #@! TA.AperFunction,Plated,PTH,ComponentDrill
T3C0.0300
; #@! TA.AperFunction,Plated,PTH,ComponentDrill
T4C0.0315
; #@! TA.AperFunction,Plated,PTH,ComponentDrill
T5C0.0394
; #@! TA.AperFunction,Plated,PTH,ComponentDrill
T6C0.0433
; #@! TA.AperFunction,Plated,PTH,ComponentDrill
T7C0.1181
%
G90
G05
T1
X3.5039Y-3.878
X3.5882Y-3.6713
X3.7559Y-2.0768
X4.0157Y-1.935
X4.2421Y-3.6319
X4.2421Y-3.7303
T2
X3.5512Y-1.6654
X3.5512Y-1.7441
X3.9173Y-1.7402
X3.9961Y-1.7402
X4.1339Y-1.7402
X4.2126Y-1.7402
X5.1575Y-4.2618
X5.1673Y-3.7106
X5.2362Y-4.2618
X5.2461Y-3.7106
T3
X3.3Y-2.4138
X3.3Y-2.6138
X3.3Y-2.8138
X3.3Y-3.0138
X3.3268Y-3.7386
X3.3268Y-3.8386
X3.3268Y-3.9386
X3.3268Y-4.0386
X3.3268Y-4.1386
X3.3268Y-4.2386
X3.5913Y-3.0236
X3.6913Y-3.0236
X3.7764Y-3.2776
X3.7913Y-3.0236
X3.8764Y-3.2776
X3.8913Y-3.0236
X3.9764Y-3.2776
X4.0764Y-3.2776
X4.1677Y-1.9437
X4.1677Y-2.0437
X4.1677Y-2.1437
X4.1677Y-2.2437
X4.1677Y-2.3437
X4.1677Y-2.4437
X4.1677Y-2.5437
X4.1677Y-2.6437
X4.2677Y-1.9437
X4.2677Y-2.0437
X4.2677Y-2.1437
X4.2677Y-2.2437
X4.2677Y-2.3437
X4.2677Y-2.4437
X4.2677Y-2.5437
X4.2677Y-2.6437
X4.3677Y-2.8437
X4.4677Y-2.8437
X4.5677Y-2.8437
X4.6677Y-2.8437
X4.7677Y-2.8437
X4.8677Y-2.8437
X4.9677Y-2.8437
X5.0677Y-2.8437
X5.1677Y-2.8437
X5.2677Y-1.9437
X5.2677Y-2.0437
X5.2677Y-2.1437
X5.2677Y-2.2437
X5.2677Y-2.3437
X5.2677Y-2.4437
X5.2677Y-2.5437
X5.2677Y-2.8437
X5.3677Y-1.9437
X5.3677Y-2.0437
X5.3677Y-2.1437
X5.3677Y-2.2437
X5.3677Y-2.3437
X5.3677Y-2.4437
X5.3677Y-2.5437
X5.5Y-1.9594
X5.5Y-2.0594
X5.5Y-2.1594
X5.5Y-2.2594
X5.6Y-1.9594
X5.6Y-2.0594
X5.6Y-2.1594
X5.6Y-2.2594
T4
X4.5071Y-1.9742
X4.5071Y-2.0742
X4.5071Y-2.1742
X4.5071Y-2.2742
X4.5071Y-2.3742
X4.5071Y-2.4742
X4.5071Y-2.5742
X4.5071Y-2.6742
X4.8071Y-1.9742
X4.8071Y-2.0742
X4.8071Y-2.1742
X4.8071Y-2.2742
X4.8071Y-2.3742
X4.8071Y-2.4742
X4.8071Y-2.5742
X4.8071Y-2.6742
X5.5512Y-3.6106
X5.5512Y-3.7106
X5.5512Y-3.8106
T5
X3.4882Y-3.4941
X3.4882Y-4.4941
X3.5882Y-3.4941
X3.5882Y-4.4941
X3.6024Y-2.4654
X3.6882Y-3.4941
X3.6882Y-4.4941
X3.7411Y-1.687
X3.7411Y-1.787
X3.7882Y-3.4941
X3.7882Y-4.4941
X3.8882Y-3.4941
X3.8882Y-4.4941
X3.9882Y-3.4941
X3.9882Y-4.4941
X4.0039Y-2.2421
X4.0276Y-2.6083
X4.0276Y-2.7083
X4.0882Y-3.4941
X4.0882Y-4.4941
X4.1882Y-3.4941
X4.1882Y-4.4941
X4.2882Y-3.4941
X4.2882Y-4.4941
X4.3882Y-3.4941
X4.3882Y-4.4941
X4.4882Y-3.4941
X4.4882Y-4.4941
X4.5748Y-3.001
X4.5882Y-3.4941
X4.5882Y-4.4941
X4.6748Y-3.001
X4.6882Y-3.4941
X4.6882Y-4.4941
X4.7748Y-3.001
X4.7882Y-3.4941
X4.7882Y-4.4941
X4.8748Y-3.001
X4.8882Y-3.4941
X4.8882Y-4.4941
X4.9697Y-1.7512
X4.9697Y-1.8512
X4.9697Y-1.9512
X4.9882Y-3.4941
X4.9882Y-4.4941
X5.0697Y-1.7512
X5.0697Y-1.8512
X5.0697Y-1.9512
X5.0882Y-3.4941
X5.0882Y-4.4941
X5.1882Y-3.4941
X5.1882Y-4.4941
X5.2126Y-2.998
X5.2331Y-2.7264
X5.2839Y-4.4941
X5.2882Y-3.4941
X5.3331Y-2.7264
X5.4331Y-2.7264
X5.5331Y-2.7264
X5.5528Y-4.3138
X5.5528Y-4.4138
T6
X3.262Y-1.9594
X3.262Y-2.0594
X3.262Y-2.1594
T7
X3.2677Y-3.3169
X3.2677Y-4.6555
X5.5906Y-3.3169
X5.5906Y-4.6555
M30
