%TF.GenerationSoftware,KiCad,Pcbnew,8.0.4*%
%TF.CreationDate,2024-07-25T22:39:38-04:00*%
%TF.ProjectId,esp32-node-board-40x65_telemetry,65737033-322d-46e6-9f64-652d626f6172,rev?*%
%TF.SameCoordinates,Original*%
%TF.FileFunction,Legend,Top*%
%TF.FilePolarity,Positive*%
%FSLAX46Y46*%
G04 Gerber Fmt 4.6, Leading zero omitted, Abs format (unit mm)*
G04 Created by KiCad (PCBNEW 8.0.4) date 2024-07-25 22:39:38*
%MOMM*%
%LPD*%
G01*
G04 APERTURE LIST*
%ADD10C,0.750000*%
%ADD11C,0.125000*%
%ADD12C,0.200000*%
%ADD13C,0.150000*%
%ADD14C,0.100000*%
%ADD15C,0.160000*%
%ADD16C,0.120000*%
G04 APERTURE END LIST*
D10*
X145250000Y-42114210D02*
X145250000Y-78085782D01*
X81914218Y-40164218D02*
X143085790Y-40164218D01*
X145250000Y-78085782D02*
G75*
G02*
X143250000Y-80085800I-2000000J-18D01*
G01*
X79914218Y-42114210D02*
X79914218Y-78085782D01*
X81914218Y-80085782D02*
G75*
G02*
X79914218Y-78085782I-18J1999982D01*
G01*
X143250000Y-40250000D02*
G75*
G02*
X145250000Y-42250000I0J-2000000D01*
G01*
X79914218Y-42164218D02*
G75*
G02*
X81914218Y-40164218I1999982J18D01*
G01*
X81914214Y-80085782D02*
X143085786Y-80085782D01*
D11*
X107716666Y-41977190D02*
X107692857Y-42001000D01*
X107692857Y-42001000D02*
X107621428Y-42024809D01*
X107621428Y-42024809D02*
X107573809Y-42024809D01*
X107573809Y-42024809D02*
X107502381Y-42001000D01*
X107502381Y-42001000D02*
X107454762Y-41953380D01*
X107454762Y-41953380D02*
X107430952Y-41905761D01*
X107430952Y-41905761D02*
X107407143Y-41810523D01*
X107407143Y-41810523D02*
X107407143Y-41739095D01*
X107407143Y-41739095D02*
X107430952Y-41643857D01*
X107430952Y-41643857D02*
X107454762Y-41596238D01*
X107454762Y-41596238D02*
X107502381Y-41548619D01*
X107502381Y-41548619D02*
X107573809Y-41524809D01*
X107573809Y-41524809D02*
X107621428Y-41524809D01*
X107621428Y-41524809D02*
X107692857Y-41548619D01*
X107692857Y-41548619D02*
X107716666Y-41572428D01*
X107907143Y-41572428D02*
X107930952Y-41548619D01*
X107930952Y-41548619D02*
X107978571Y-41524809D01*
X107978571Y-41524809D02*
X108097619Y-41524809D01*
X108097619Y-41524809D02*
X108145238Y-41548619D01*
X108145238Y-41548619D02*
X108169047Y-41572428D01*
X108169047Y-41572428D02*
X108192857Y-41620047D01*
X108192857Y-41620047D02*
X108192857Y-41667666D01*
X108192857Y-41667666D02*
X108169047Y-41739095D01*
X108169047Y-41739095D02*
X107883333Y-42024809D01*
X107883333Y-42024809D02*
X108192857Y-42024809D01*
D12*
G36*
X100666314Y-55715779D02*
G01*
X100718174Y-55741709D01*
X100766197Y-55789731D01*
X100791695Y-55866225D01*
X100791695Y-55940475D01*
X100191695Y-55940475D01*
X100191695Y-55866225D01*
X100217192Y-55789732D01*
X100265216Y-55741708D01*
X100317074Y-55715779D01*
X100446862Y-55683332D01*
X100536528Y-55683332D01*
X100666314Y-55715779D01*
G37*
G36*
X101091695Y-56240475D02*
G01*
X99891695Y-56240475D01*
X99891695Y-55849999D01*
X99991695Y-55849999D01*
X99991695Y-56040475D01*
X99993616Y-56059984D01*
X100008548Y-56096032D01*
X100036138Y-56123622D01*
X100072186Y-56138554D01*
X100091695Y-56140475D01*
X100891695Y-56140475D01*
X100911204Y-56138554D01*
X100947252Y-56123622D01*
X100974842Y-56096032D01*
X100989774Y-56059984D01*
X100991695Y-56040475D01*
X100991695Y-55849999D01*
X100990722Y-55840125D01*
X100990910Y-55837492D01*
X100990122Y-55834029D01*
X100989774Y-55830490D01*
X100988762Y-55828047D01*
X100986563Y-55818377D01*
X100948468Y-55704090D01*
X100940477Y-55686190D01*
X100938122Y-55683474D01*
X100936747Y-55680155D01*
X100924310Y-55665002D01*
X100848119Y-55588812D01*
X100840452Y-55582519D01*
X100838721Y-55580523D01*
X100835713Y-55578629D01*
X100832966Y-55576375D01*
X100830524Y-55575363D01*
X100822130Y-55570080D01*
X100745940Y-55531985D01*
X100744515Y-55531439D01*
X100743934Y-55531009D01*
X100735742Y-55528082D01*
X100727632Y-55524979D01*
X100726911Y-55524927D01*
X100725473Y-55524414D01*
X100573092Y-55486318D01*
X100569710Y-55485817D01*
X100568347Y-55485253D01*
X100560998Y-55484529D01*
X100553700Y-55483450D01*
X100552241Y-55483667D01*
X100548838Y-55483332D01*
X100434552Y-55483332D01*
X100431148Y-55483667D01*
X100429690Y-55483450D01*
X100422391Y-55484529D01*
X100415043Y-55485253D01*
X100413679Y-55485817D01*
X100410298Y-55486318D01*
X100257917Y-55524414D01*
X100256478Y-55524927D01*
X100255759Y-55524979D01*
X100247656Y-55528079D01*
X100239456Y-55531009D01*
X100238874Y-55531439D01*
X100237450Y-55531985D01*
X100161259Y-55570080D01*
X100152862Y-55575365D01*
X100150423Y-55576376D01*
X100147676Y-55578629D01*
X100144669Y-55580523D01*
X100142938Y-55582517D01*
X100135269Y-55588812D01*
X100059079Y-55665002D01*
X100046643Y-55680156D01*
X100045268Y-55683474D01*
X100042913Y-55686190D01*
X100034922Y-55704090D01*
X99996827Y-55818376D01*
X99994627Y-55828047D01*
X99993616Y-55830490D01*
X99993267Y-55834028D01*
X99992480Y-55837492D01*
X99992667Y-55840125D01*
X99991695Y-55849999D01*
X99891695Y-55849999D01*
X99891695Y-54973809D01*
X99991695Y-54973809D01*
X99991695Y-55164285D01*
X99993616Y-55183794D01*
X99994991Y-55187114D01*
X99995246Y-55190698D01*
X100002252Y-55209006D01*
X100040347Y-55285196D01*
X100045631Y-55293592D01*
X100046642Y-55296031D01*
X100048895Y-55298776D01*
X100050790Y-55301787D01*
X100052786Y-55303518D01*
X100059078Y-55311185D01*
X100097173Y-55349281D01*
X100112326Y-55361717D01*
X100148375Y-55376649D01*
X100187393Y-55376650D01*
X100223441Y-55361719D01*
X100251031Y-55334129D01*
X100265963Y-55298081D01*
X100265964Y-55259063D01*
X100251033Y-55223015D01*
X100238596Y-55207861D01*
X100211975Y-55181239D01*
X100191695Y-55140678D01*
X100191695Y-54997415D01*
X100211975Y-54956854D01*
X100227120Y-54941708D01*
X100267683Y-54921428D01*
X100304039Y-54921428D01*
X100380532Y-54946925D01*
X100820984Y-55387377D01*
X100836138Y-55399813D01*
X100872186Y-55414745D01*
X100911204Y-55414745D01*
X100947252Y-55399813D01*
X100974842Y-55372223D01*
X100989774Y-55336175D01*
X100991695Y-55316666D01*
X100991695Y-54821428D01*
X100989774Y-54801919D01*
X100974842Y-54765871D01*
X100947252Y-54738281D01*
X100911204Y-54723349D01*
X100872186Y-54723349D01*
X100836138Y-54738281D01*
X100808548Y-54765871D01*
X100793616Y-54801919D01*
X100791695Y-54821428D01*
X100791695Y-55075244D01*
X100505263Y-54788812D01*
X100490109Y-54776376D01*
X100486790Y-54775001D01*
X100484075Y-54772646D01*
X100466175Y-54764655D01*
X100351889Y-54726560D01*
X100342217Y-54724360D01*
X100339775Y-54723349D01*
X100336236Y-54723000D01*
X100332773Y-54722213D01*
X100330139Y-54722400D01*
X100320266Y-54721428D01*
X100244076Y-54721428D01*
X100224567Y-54723349D01*
X100221246Y-54724724D01*
X100217664Y-54724979D01*
X100199355Y-54731985D01*
X100123164Y-54770080D01*
X100114768Y-54775364D01*
X100112327Y-54776376D01*
X100109579Y-54778631D01*
X100106574Y-54780523D01*
X100104843Y-54782518D01*
X100097174Y-54788813D01*
X100059079Y-54826907D01*
X100052784Y-54834576D01*
X100050790Y-54836307D01*
X100048896Y-54839314D01*
X100046643Y-54842061D01*
X100045632Y-54844500D01*
X100040347Y-54852897D01*
X100002252Y-54929088D01*
X99995246Y-54947397D01*
X99994991Y-54950979D01*
X99993616Y-54954300D01*
X99991695Y-54973809D01*
X99891695Y-54973809D01*
X99891695Y-54621428D01*
X101091695Y-54621428D01*
X101091695Y-56240475D01*
G37*
D11*
X87177190Y-50433333D02*
X87201000Y-50457142D01*
X87201000Y-50457142D02*
X87224809Y-50528571D01*
X87224809Y-50528571D02*
X87224809Y-50576190D01*
X87224809Y-50576190D02*
X87201000Y-50647618D01*
X87201000Y-50647618D02*
X87153380Y-50695237D01*
X87153380Y-50695237D02*
X87105761Y-50719047D01*
X87105761Y-50719047D02*
X87010523Y-50742856D01*
X87010523Y-50742856D02*
X86939095Y-50742856D01*
X86939095Y-50742856D02*
X86843857Y-50719047D01*
X86843857Y-50719047D02*
X86796238Y-50695237D01*
X86796238Y-50695237D02*
X86748619Y-50647618D01*
X86748619Y-50647618D02*
X86724809Y-50576190D01*
X86724809Y-50576190D02*
X86724809Y-50528571D01*
X86724809Y-50528571D02*
X86748619Y-50457142D01*
X86748619Y-50457142D02*
X86772428Y-50433333D01*
X86891476Y-50004761D02*
X87224809Y-50004761D01*
X86701000Y-50123809D02*
X87058142Y-50242856D01*
X87058142Y-50242856D02*
X87058142Y-49933333D01*
D13*
X109944819Y-65753333D02*
X110659104Y-65753333D01*
X110659104Y-65753333D02*
X110801961Y-65800952D01*
X110801961Y-65800952D02*
X110897200Y-65896190D01*
X110897200Y-65896190D02*
X110944819Y-66039047D01*
X110944819Y-66039047D02*
X110944819Y-66134285D01*
X110944819Y-64753333D02*
X110944819Y-65324761D01*
X110944819Y-65039047D02*
X109944819Y-65039047D01*
X109944819Y-65039047D02*
X110087676Y-65134285D01*
X110087676Y-65134285D02*
X110182914Y-65229523D01*
X110182914Y-65229523D02*
X110230533Y-65324761D01*
D14*
G36*
X122373314Y-76271131D02*
G01*
X122453020Y-76350837D01*
X122495788Y-76521907D01*
X122495788Y-76842930D01*
X122453020Y-77013999D01*
X122373312Y-77093708D01*
X122295890Y-77132419D01*
X122129021Y-77132419D01*
X122051598Y-77093707D01*
X121971889Y-77013998D01*
X121929122Y-76842930D01*
X121929122Y-76521907D01*
X121971889Y-76350837D01*
X122051595Y-76271131D01*
X122129021Y-76232419D01*
X122295890Y-76232419D01*
X122373314Y-76271131D01*
G37*
G36*
X123420933Y-76271131D02*
G01*
X123500639Y-76350837D01*
X123543407Y-76521907D01*
X123543407Y-76842930D01*
X123500639Y-77013999D01*
X123420931Y-77093708D01*
X123343509Y-77132419D01*
X123176640Y-77132419D01*
X123099217Y-77093707D01*
X123019508Y-77013998D01*
X122976741Y-76842930D01*
X122976741Y-76521907D01*
X123019508Y-76350837D01*
X123099214Y-76271131D01*
X123176640Y-76232419D01*
X123343509Y-76232419D01*
X123420933Y-76271131D01*
G37*
G36*
X128661636Y-76273739D02*
G01*
X128742789Y-76354892D01*
X128784326Y-76437966D01*
X128829121Y-76617145D01*
X128829121Y-76747692D01*
X128784326Y-76926870D01*
X128742789Y-77009944D01*
X128661635Y-77091098D01*
X128537675Y-77132419D01*
X128357693Y-77132419D01*
X128357693Y-76232419D01*
X128537675Y-76232419D01*
X128661636Y-76273739D01*
G37*
G36*
X121373313Y-76271130D02*
G01*
X121409457Y-76307275D01*
X121448169Y-76384698D01*
X121448169Y-76503948D01*
X121409457Y-76581371D01*
X121373313Y-76617516D01*
X121295890Y-76656228D01*
X120976741Y-76656228D01*
X120976741Y-76232419D01*
X121295890Y-76232419D01*
X121373313Y-76271130D01*
G37*
G36*
X116087599Y-76271130D02*
G01*
X116123743Y-76307275D01*
X116162455Y-76384698D01*
X116162455Y-76503948D01*
X116123743Y-76581371D01*
X116087599Y-76617516D01*
X116010176Y-76656228D01*
X115691027Y-76656228D01*
X115691027Y-76232419D01*
X116010176Y-76232419D01*
X116087599Y-76271130D01*
G37*
G36*
X129040232Y-77343530D02*
G01*
X113622773Y-77343530D01*
X113622773Y-76182419D01*
X113733884Y-76182419D01*
X113733884Y-77182419D01*
X113737690Y-77201553D01*
X113764750Y-77228613D01*
X113783884Y-77232419D01*
X114260074Y-77232419D01*
X114279208Y-77228613D01*
X114306268Y-77201553D01*
X114306268Y-77163285D01*
X114279208Y-77136225D01*
X114260074Y-77132419D01*
X113833884Y-77132419D01*
X113833884Y-76708609D01*
X114117217Y-76708609D01*
X114136351Y-76704803D01*
X114163411Y-76677743D01*
X114163411Y-76639475D01*
X114136351Y-76612415D01*
X114117217Y-76608609D01*
X113833884Y-76608609D01*
X113833884Y-76372895D01*
X114591027Y-76372895D01*
X114591027Y-76468133D01*
X114591515Y-76470589D01*
X114591153Y-76471678D01*
X114593269Y-76479405D01*
X114594833Y-76487267D01*
X114595644Y-76488078D01*
X114596306Y-76490494D01*
X114643924Y-76585731D01*
X114648839Y-76592064D01*
X114653291Y-76598726D01*
X114700909Y-76646345D01*
X114707575Y-76650799D01*
X114713904Y-76655711D01*
X114809142Y-76703330D01*
X114814423Y-76704776D01*
X114819376Y-76707116D01*
X115004528Y-76753404D01*
X115087599Y-76794939D01*
X115123743Y-76831084D01*
X115162455Y-76908507D01*
X115162455Y-76980138D01*
X115123743Y-77057561D01*
X115087597Y-77093708D01*
X115010176Y-77132419D01*
X114791997Y-77132419D01*
X114656838Y-77087366D01*
X114637483Y-77084926D01*
X114603254Y-77102040D01*
X114591153Y-77138344D01*
X114608267Y-77172573D01*
X114625216Y-77182234D01*
X114768072Y-77229853D01*
X114776022Y-77230855D01*
X114783884Y-77232419D01*
X115021979Y-77232419D01*
X115024435Y-77231930D01*
X115025524Y-77232293D01*
X115033251Y-77230176D01*
X115041113Y-77228613D01*
X115041924Y-77227801D01*
X115044340Y-77227140D01*
X115139577Y-77179522D01*
X115145904Y-77174611D01*
X115152573Y-77170155D01*
X115200192Y-77122535D01*
X115204645Y-77115869D01*
X115209557Y-77109541D01*
X115257176Y-77014303D01*
X115257837Y-77011887D01*
X115258649Y-77011076D01*
X115260212Y-77003214D01*
X115262329Y-76995487D01*
X115261966Y-76994398D01*
X115262455Y-76991942D01*
X115262455Y-76896704D01*
X115261966Y-76894247D01*
X115262329Y-76893159D01*
X115260212Y-76885431D01*
X115258649Y-76877570D01*
X115257837Y-76876758D01*
X115257176Y-76874343D01*
X115209557Y-76779105D01*
X115204645Y-76772776D01*
X115200191Y-76766110D01*
X115152572Y-76718492D01*
X115145910Y-76714040D01*
X115139577Y-76709125D01*
X115044340Y-76661507D01*
X115039058Y-76660060D01*
X115034106Y-76657721D01*
X114848955Y-76611433D01*
X114765883Y-76569897D01*
X114729738Y-76533753D01*
X114691027Y-76456330D01*
X114691027Y-76384698D01*
X114729738Y-76307274D01*
X114765883Y-76271130D01*
X114843307Y-76232419D01*
X115061485Y-76232419D01*
X115196643Y-76277472D01*
X115215999Y-76279912D01*
X115250227Y-76262798D01*
X115262329Y-76226494D01*
X115245214Y-76192265D01*
X115228266Y-76182604D01*
X115227711Y-76182419D01*
X115591027Y-76182419D01*
X115591027Y-77182419D01*
X115594833Y-77201553D01*
X115621893Y-77228613D01*
X115660161Y-77228613D01*
X115687221Y-77201553D01*
X115691027Y-77182419D01*
X115691027Y-76756228D01*
X116021979Y-76756228D01*
X116024435Y-76755739D01*
X116025524Y-76756102D01*
X116033251Y-76753985D01*
X116041113Y-76752422D01*
X116041924Y-76751610D01*
X116044340Y-76750949D01*
X116139577Y-76703331D01*
X116145910Y-76698415D01*
X116152572Y-76693964D01*
X116200191Y-76646346D01*
X116204645Y-76639679D01*
X116209557Y-76633351D01*
X116257176Y-76538113D01*
X116257837Y-76535697D01*
X116258649Y-76534886D01*
X116260212Y-76527024D01*
X116262329Y-76519297D01*
X116261966Y-76518208D01*
X116262455Y-76515752D01*
X116262455Y-76372895D01*
X116261966Y-76370438D01*
X116262329Y-76369350D01*
X116260212Y-76361622D01*
X116258649Y-76353761D01*
X116257837Y-76352949D01*
X116257176Y-76350534D01*
X116209557Y-76255296D01*
X116204645Y-76248967D01*
X116200191Y-76242301D01*
X116152572Y-76194683D01*
X116145910Y-76190231D01*
X116139577Y-76185316D01*
X116095515Y-76163285D01*
X116499595Y-76163285D01*
X116499595Y-76201553D01*
X116526655Y-76228613D01*
X116545789Y-76232419D01*
X117054648Y-76232419D01*
X116793874Y-76530446D01*
X116786779Y-76542766D01*
X116785309Y-76544237D01*
X116785309Y-76545320D01*
X116784139Y-76547352D01*
X116785309Y-76564906D01*
X116785309Y-76582505D01*
X116786565Y-76583761D01*
X116786684Y-76585536D01*
X116799928Y-76597124D01*
X116812369Y-76609565D01*
X116814669Y-76610022D01*
X116815484Y-76610735D01*
X116817556Y-76610596D01*
X116831503Y-76613371D01*
X116962557Y-76613371D01*
X117039980Y-76652082D01*
X117076124Y-76688227D01*
X117114836Y-76765650D01*
X117114836Y-76980138D01*
X117076124Y-77057561D01*
X117039978Y-77093708D01*
X116962557Y-77132419D01*
X116700450Y-77132419D01*
X116623027Y-77093708D01*
X116581145Y-77051825D01*
X116564924Y-77040986D01*
X116526655Y-77040986D01*
X116499595Y-77068045D01*
X116499595Y-77106314D01*
X116510433Y-77122535D01*
X116558052Y-77170155D01*
X116564718Y-77174609D01*
X116571047Y-77179521D01*
X116666285Y-77227140D01*
X116668700Y-77227801D01*
X116669512Y-77228613D01*
X116677373Y-77230176D01*
X116685101Y-77232293D01*
X116686189Y-77231930D01*
X116688646Y-77232419D01*
X116974360Y-77232419D01*
X116976816Y-77231930D01*
X116977905Y-77232293D01*
X116985632Y-77230176D01*
X116993494Y-77228613D01*
X116994305Y-77227801D01*
X116996721Y-77227140D01*
X117091958Y-77179522D01*
X117098285Y-77174611D01*
X117104954Y-77170155D01*
X117111824Y-77163285D01*
X117451976Y-77163285D01*
X117451976Y-77201553D01*
X117479036Y-77228613D01*
X117498170Y-77232419D01*
X118117217Y-77232419D01*
X118136351Y-77228613D01*
X118163411Y-77201553D01*
X118163411Y-77163285D01*
X118136351Y-77136225D01*
X118117217Y-77132419D01*
X117618880Y-77132419D01*
X117968966Y-76782332D01*
X118499595Y-76782332D01*
X118499595Y-76820600D01*
X118526655Y-76847660D01*
X118545789Y-76851466D01*
X119307694Y-76851466D01*
X119326828Y-76847660D01*
X119353888Y-76820600D01*
X119353888Y-76782332D01*
X119326828Y-76755272D01*
X119307694Y-76751466D01*
X118545789Y-76751466D01*
X118526655Y-76755272D01*
X118499595Y-76782332D01*
X117968966Y-76782332D01*
X118104953Y-76646345D01*
X118106343Y-76644263D01*
X118107371Y-76643750D01*
X118111341Y-76636784D01*
X118115792Y-76630124D01*
X118115792Y-76628976D01*
X118117032Y-76626801D01*
X118164651Y-76483945D01*
X118165653Y-76475994D01*
X118167217Y-76468133D01*
X118167217Y-76372895D01*
X118166728Y-76370438D01*
X118167091Y-76369350D01*
X118164974Y-76361622D01*
X118163411Y-76353761D01*
X118162599Y-76352949D01*
X118161938Y-76350534D01*
X118114319Y-76255296D01*
X118109407Y-76248967D01*
X118104953Y-76242301D01*
X118057334Y-76194683D01*
X118050672Y-76190231D01*
X118044339Y-76185316D01*
X118022717Y-76174505D01*
X119639276Y-76174505D01*
X119640006Y-76194000D01*
X119878101Y-77194000D01*
X119886235Y-77211732D01*
X119892604Y-77215651D01*
X119896351Y-77222123D01*
X119908296Y-77225308D01*
X119918827Y-77231789D01*
X119926102Y-77230056D01*
X119933326Y-77231983D01*
X119944024Y-77225789D01*
X119956054Y-77222925D01*
X119959973Y-77216555D01*
X119966445Y-77212809D01*
X119975053Y-77195302D01*
X120117217Y-76662186D01*
X120259381Y-77195302D01*
X120267989Y-77212810D01*
X120274461Y-77216557D01*
X120278380Y-77222925D01*
X120290406Y-77225788D01*
X120301108Y-77231984D01*
X120308333Y-77230057D01*
X120315607Y-77231789D01*
X120326136Y-77225308D01*
X120338083Y-77222123D01*
X120341829Y-77215651D01*
X120348199Y-77211732D01*
X120356333Y-77194000D01*
X120594429Y-76194000D01*
X120594863Y-76182419D01*
X120876741Y-76182419D01*
X120876741Y-77182419D01*
X120880547Y-77201553D01*
X120907607Y-77228613D01*
X120945875Y-77228613D01*
X120972935Y-77201553D01*
X120976741Y-77182419D01*
X120976741Y-76756228D01*
X121138803Y-76756228D01*
X121457207Y-77211092D01*
X121471298Y-77224585D01*
X121508984Y-77231235D01*
X121540335Y-77209290D01*
X121546985Y-77171604D01*
X121539131Y-77153746D01*
X121260869Y-76756228D01*
X121307693Y-76756228D01*
X121310149Y-76755739D01*
X121311238Y-76756102D01*
X121318965Y-76753985D01*
X121326827Y-76752422D01*
X121327638Y-76751610D01*
X121330054Y-76750949D01*
X121425291Y-76703331D01*
X121431624Y-76698415D01*
X121438286Y-76693964D01*
X121485905Y-76646346D01*
X121490359Y-76639679D01*
X121495271Y-76633351D01*
X121542890Y-76538113D01*
X121543551Y-76535697D01*
X121544363Y-76534886D01*
X121545926Y-76527024D01*
X121548043Y-76519297D01*
X121547680Y-76518208D01*
X121548169Y-76515752D01*
X121829122Y-76515752D01*
X121829122Y-76849085D01*
X121830317Y-76855094D01*
X121830615Y-76861212D01*
X121878234Y-77051688D01*
X121880547Y-77056584D01*
X121880547Y-77058695D01*
X121883951Y-77063790D01*
X121886567Y-77069327D01*
X121888375Y-77070412D01*
X121891385Y-77074916D01*
X121986624Y-77170155D01*
X121993283Y-77174605D01*
X121999618Y-77179521D01*
X122094856Y-77227140D01*
X122097271Y-77227801D01*
X122098083Y-77228613D01*
X122105944Y-77230176D01*
X122113672Y-77232293D01*
X122114760Y-77231930D01*
X122117217Y-77232419D01*
X122307693Y-77232419D01*
X122310149Y-77231930D01*
X122311238Y-77232293D01*
X122318965Y-77230176D01*
X122326827Y-77228613D01*
X122327638Y-77227801D01*
X122330054Y-77227140D01*
X122425291Y-77179522D01*
X122431618Y-77174611D01*
X122438287Y-77170155D01*
X122533525Y-77074916D01*
X122536534Y-77070412D01*
X122538343Y-77069327D01*
X122540958Y-77063790D01*
X122544363Y-77058695D01*
X122544363Y-77056584D01*
X122546676Y-77051688D01*
X122594295Y-76861212D01*
X122594592Y-76855094D01*
X122595788Y-76849085D01*
X122595788Y-76515752D01*
X122876741Y-76515752D01*
X122876741Y-76849085D01*
X122877936Y-76855094D01*
X122878234Y-76861212D01*
X122925853Y-77051688D01*
X122928166Y-77056584D01*
X122928166Y-77058695D01*
X122931570Y-77063790D01*
X122934186Y-77069327D01*
X122935994Y-77070412D01*
X122939004Y-77074916D01*
X123034243Y-77170155D01*
X123040902Y-77174605D01*
X123047237Y-77179521D01*
X123142475Y-77227140D01*
X123144890Y-77227801D01*
X123145702Y-77228613D01*
X123153563Y-77230176D01*
X123161291Y-77232293D01*
X123162379Y-77231930D01*
X123164836Y-77232419D01*
X123355312Y-77232419D01*
X123357768Y-77231930D01*
X123358857Y-77232293D01*
X123366584Y-77230176D01*
X123374446Y-77228613D01*
X123375257Y-77227801D01*
X123377673Y-77227140D01*
X123472910Y-77179522D01*
X123479237Y-77174611D01*
X123485906Y-77170155D01*
X123581144Y-77074916D01*
X123584153Y-77070412D01*
X123585962Y-77069327D01*
X123588577Y-77063790D01*
X123591982Y-77058695D01*
X123591982Y-77056584D01*
X123594295Y-77051688D01*
X123641914Y-76861212D01*
X123642211Y-76855094D01*
X123643407Y-76849085D01*
X123643407Y-76515752D01*
X123642211Y-76509742D01*
X123641914Y-76503625D01*
X123594295Y-76313149D01*
X123591982Y-76308252D01*
X123591982Y-76306142D01*
X123588578Y-76301048D01*
X123585962Y-76295510D01*
X123584151Y-76294423D01*
X123581143Y-76289921D01*
X123485905Y-76194683D01*
X123479243Y-76190231D01*
X123472910Y-76185316D01*
X123467116Y-76182419D01*
X123971979Y-76182419D01*
X123971979Y-77182419D01*
X123975785Y-77201553D01*
X124002845Y-77228613D01*
X124041113Y-77228613D01*
X124068173Y-77201553D01*
X124071979Y-77182419D01*
X124071979Y-76407796D01*
X124310003Y-76917849D01*
X124317625Y-76928238D01*
X124318438Y-76930473D01*
X124319695Y-76931059D01*
X124321543Y-76933578D01*
X124337615Y-76939422D01*
X124353116Y-76946656D01*
X124355312Y-76945857D01*
X124357508Y-76946656D01*
X124373008Y-76939422D01*
X124389081Y-76933578D01*
X124390928Y-76931059D01*
X124392186Y-76930473D01*
X124392998Y-76928237D01*
X124400621Y-76917848D01*
X124638645Y-76407796D01*
X124638645Y-77182419D01*
X124642451Y-77201553D01*
X124669511Y-77228613D01*
X124707779Y-77228613D01*
X124734839Y-77201553D01*
X124738645Y-77182419D01*
X124738645Y-76782332D01*
X125118642Y-76782332D01*
X125118642Y-76820600D01*
X125145702Y-76847660D01*
X125164836Y-76851466D01*
X125926741Y-76851466D01*
X125945875Y-76847660D01*
X125972935Y-76820600D01*
X125972935Y-76782332D01*
X125945875Y-76755272D01*
X125926741Y-76751466D01*
X125164836Y-76751466D01*
X125145702Y-76755272D01*
X125118642Y-76782332D01*
X124738645Y-76782332D01*
X124738645Y-76182419D01*
X124734839Y-76163285D01*
X126261499Y-76163285D01*
X126261499Y-76201553D01*
X126288559Y-76228613D01*
X126307693Y-76232419D01*
X126816552Y-76232419D01*
X126555778Y-76530446D01*
X126548683Y-76542766D01*
X126547213Y-76544237D01*
X126547213Y-76545320D01*
X126546043Y-76547352D01*
X126547213Y-76564906D01*
X126547213Y-76582505D01*
X126548469Y-76583761D01*
X126548588Y-76585536D01*
X126561832Y-76597124D01*
X126574273Y-76609565D01*
X126576573Y-76610022D01*
X126577388Y-76610735D01*
X126579460Y-76610596D01*
X126593407Y-76613371D01*
X126724461Y-76613371D01*
X126801884Y-76652082D01*
X126838028Y-76688227D01*
X126876740Y-76765650D01*
X126876740Y-76980138D01*
X126838028Y-77057561D01*
X126801882Y-77093708D01*
X126724461Y-77132419D01*
X126462354Y-77132419D01*
X126384931Y-77093708D01*
X126343049Y-77051825D01*
X126326828Y-77040986D01*
X126288559Y-77040986D01*
X126261499Y-77068045D01*
X126261499Y-77106314D01*
X126272337Y-77122535D01*
X126319956Y-77170155D01*
X126326622Y-77174609D01*
X126332951Y-77179521D01*
X126428189Y-77227140D01*
X126430604Y-77227801D01*
X126431416Y-77228613D01*
X126439277Y-77230176D01*
X126447005Y-77232293D01*
X126448093Y-77231930D01*
X126450550Y-77232419D01*
X126736264Y-77232419D01*
X126738720Y-77231930D01*
X126739809Y-77232293D01*
X126747536Y-77230176D01*
X126755398Y-77228613D01*
X126756209Y-77227801D01*
X126758625Y-77227140D01*
X126853862Y-77179522D01*
X126860189Y-77174611D01*
X126866858Y-77170155D01*
X126873728Y-77163285D01*
X127213880Y-77163285D01*
X127213880Y-77201553D01*
X127240940Y-77228613D01*
X127260074Y-77232419D01*
X127879121Y-77232419D01*
X127898255Y-77228613D01*
X127925315Y-77201553D01*
X127925315Y-77163285D01*
X127898255Y-77136225D01*
X127879121Y-77132419D01*
X127380784Y-77132419D01*
X127866857Y-76646345D01*
X127868247Y-76644263D01*
X127869275Y-76643750D01*
X127873245Y-76636784D01*
X127877696Y-76630124D01*
X127877696Y-76628976D01*
X127878936Y-76626801D01*
X127926555Y-76483945D01*
X127927557Y-76475994D01*
X127929121Y-76468133D01*
X127929121Y-76372895D01*
X127928632Y-76370438D01*
X127928995Y-76369350D01*
X127926878Y-76361622D01*
X127925315Y-76353761D01*
X127924503Y-76352949D01*
X127923842Y-76350534D01*
X127876223Y-76255296D01*
X127871311Y-76248967D01*
X127866857Y-76242301D01*
X127819238Y-76194683D01*
X127812576Y-76190231D01*
X127806243Y-76185316D01*
X127800449Y-76182419D01*
X128257693Y-76182419D01*
X128257693Y-77182419D01*
X128261499Y-77201553D01*
X128288559Y-77228613D01*
X128307693Y-77232419D01*
X128545788Y-77232419D01*
X128553650Y-77230855D01*
X128561599Y-77229853D01*
X128704456Y-77182234D01*
X128706631Y-77180994D01*
X128707780Y-77180994D01*
X128714450Y-77176536D01*
X128721404Y-77172573D01*
X128721916Y-77171547D01*
X128724001Y-77170155D01*
X128819239Y-77074916D01*
X128823692Y-77068250D01*
X128828604Y-77061922D01*
X128876223Y-76966684D01*
X128877669Y-76961402D01*
X128880009Y-76956450D01*
X128927628Y-76765974D01*
X128927925Y-76759856D01*
X128929121Y-76753847D01*
X128929121Y-76610990D01*
X128927925Y-76604980D01*
X128927628Y-76598863D01*
X128880009Y-76408387D01*
X128877669Y-76403434D01*
X128876223Y-76398153D01*
X128828604Y-76302915D01*
X128823688Y-76296580D01*
X128819238Y-76289921D01*
X128724000Y-76194683D01*
X128721917Y-76193291D01*
X128721404Y-76192265D01*
X128714443Y-76188297D01*
X128707779Y-76183844D01*
X128706631Y-76183844D01*
X128704456Y-76182604D01*
X128561599Y-76134985D01*
X128553650Y-76133982D01*
X128545788Y-76132419D01*
X128307693Y-76132419D01*
X128288559Y-76136225D01*
X128261499Y-76163285D01*
X128257693Y-76182419D01*
X127800449Y-76182419D01*
X127711006Y-76137698D01*
X127708590Y-76137036D01*
X127707779Y-76136225D01*
X127699917Y-76134661D01*
X127692190Y-76132545D01*
X127691101Y-76132907D01*
X127688645Y-76132419D01*
X127450550Y-76132419D01*
X127448093Y-76132907D01*
X127447005Y-76132545D01*
X127439277Y-76134661D01*
X127431416Y-76136225D01*
X127430604Y-76137036D01*
X127428189Y-76137698D01*
X127332951Y-76185317D01*
X127326622Y-76190228D01*
X127319956Y-76194683D01*
X127272338Y-76242302D01*
X127261499Y-76258523D01*
X127261499Y-76296791D01*
X127288559Y-76323851D01*
X127326827Y-76323851D01*
X127343048Y-76313012D01*
X127384930Y-76271130D01*
X127462354Y-76232419D01*
X127676842Y-76232419D01*
X127754265Y-76271130D01*
X127790409Y-76307275D01*
X127829121Y-76384698D01*
X127829121Y-76460020D01*
X127787800Y-76583981D01*
X127224719Y-77147064D01*
X127213880Y-77163285D01*
X126873728Y-77163285D01*
X126914477Y-77122535D01*
X126918930Y-77115869D01*
X126923842Y-77109541D01*
X126971461Y-77014303D01*
X126972122Y-77011887D01*
X126972934Y-77011076D01*
X126974497Y-77003214D01*
X126976614Y-76995487D01*
X126976251Y-76994398D01*
X126976740Y-76991942D01*
X126976740Y-76753847D01*
X126976251Y-76751390D01*
X126976614Y-76750302D01*
X126974497Y-76742574D01*
X126972934Y-76734713D01*
X126972122Y-76733901D01*
X126971461Y-76731486D01*
X126923842Y-76636248D01*
X126918930Y-76629919D01*
X126914476Y-76623253D01*
X126866857Y-76575635D01*
X126860195Y-76571183D01*
X126853862Y-76566268D01*
X126758625Y-76518650D01*
X126756209Y-76517988D01*
X126755398Y-76517177D01*
X126747536Y-76515613D01*
X126739809Y-76513497D01*
X126738720Y-76513859D01*
X126736264Y-76513371D01*
X126703595Y-76513371D01*
X126964369Y-76215344D01*
X126971463Y-76203023D01*
X126972934Y-76201553D01*
X126972934Y-76200469D01*
X126974104Y-76198438D01*
X126972934Y-76180883D01*
X126972934Y-76163285D01*
X126971677Y-76162028D01*
X126971559Y-76160254D01*
X126958314Y-76148665D01*
X126945874Y-76136225D01*
X126943573Y-76135767D01*
X126942759Y-76135055D01*
X126940686Y-76135193D01*
X126926740Y-76132419D01*
X126307693Y-76132419D01*
X126288559Y-76136225D01*
X126261499Y-76163285D01*
X124734839Y-76163285D01*
X124728556Y-76157002D01*
X124725519Y-76148650D01*
X124715553Y-76143999D01*
X124707779Y-76136225D01*
X124698894Y-76136225D01*
X124690841Y-76132467D01*
X124680506Y-76136225D01*
X124669511Y-76136225D01*
X124663228Y-76142507D01*
X124654876Y-76145545D01*
X124643336Y-76161274D01*
X124355311Y-76778469D01*
X124067288Y-76161275D01*
X124055748Y-76145545D01*
X124047395Y-76142507D01*
X124041113Y-76136225D01*
X124030118Y-76136225D01*
X124019783Y-76132467D01*
X124011730Y-76136225D01*
X124002845Y-76136225D01*
X123995070Y-76143999D01*
X123985105Y-76148650D01*
X123982067Y-76157002D01*
X123975785Y-76163285D01*
X123971979Y-76182419D01*
X123467116Y-76182419D01*
X123377673Y-76137698D01*
X123375257Y-76137036D01*
X123374446Y-76136225D01*
X123366584Y-76134661D01*
X123358857Y-76132545D01*
X123357768Y-76132907D01*
X123355312Y-76132419D01*
X123164836Y-76132419D01*
X123162379Y-76132907D01*
X123161291Y-76132545D01*
X123153563Y-76134661D01*
X123145702Y-76136225D01*
X123144890Y-76137036D01*
X123142475Y-76137698D01*
X123047237Y-76185317D01*
X123040902Y-76190232D01*
X123034243Y-76194683D01*
X122939005Y-76289921D01*
X122935996Y-76294423D01*
X122934186Y-76295510D01*
X122931569Y-76301048D01*
X122928166Y-76306142D01*
X122928166Y-76308252D01*
X122925853Y-76313149D01*
X122878234Y-76503625D01*
X122877936Y-76509742D01*
X122876741Y-76515752D01*
X122595788Y-76515752D01*
X122594592Y-76509742D01*
X122594295Y-76503625D01*
X122546676Y-76313149D01*
X122544363Y-76308252D01*
X122544363Y-76306142D01*
X122540959Y-76301048D01*
X122538343Y-76295510D01*
X122536532Y-76294423D01*
X122533524Y-76289921D01*
X122438286Y-76194683D01*
X122431624Y-76190231D01*
X122425291Y-76185316D01*
X122330054Y-76137698D01*
X122327638Y-76137036D01*
X122326827Y-76136225D01*
X122318965Y-76134661D01*
X122311238Y-76132545D01*
X122310149Y-76132907D01*
X122307693Y-76132419D01*
X122117217Y-76132419D01*
X122114760Y-76132907D01*
X122113672Y-76132545D01*
X122105944Y-76134661D01*
X122098083Y-76136225D01*
X122097271Y-76137036D01*
X122094856Y-76137698D01*
X121999618Y-76185317D01*
X121993283Y-76190232D01*
X121986624Y-76194683D01*
X121891386Y-76289921D01*
X121888377Y-76294423D01*
X121886567Y-76295510D01*
X121883950Y-76301048D01*
X121880547Y-76306142D01*
X121880547Y-76308252D01*
X121878234Y-76313149D01*
X121830615Y-76503625D01*
X121830317Y-76509742D01*
X121829122Y-76515752D01*
X121548169Y-76515752D01*
X121548169Y-76372895D01*
X121547680Y-76370438D01*
X121548043Y-76369350D01*
X121545926Y-76361622D01*
X121544363Y-76353761D01*
X121543551Y-76352949D01*
X121542890Y-76350534D01*
X121495271Y-76255296D01*
X121490359Y-76248967D01*
X121485905Y-76242301D01*
X121438286Y-76194683D01*
X121431624Y-76190231D01*
X121425291Y-76185316D01*
X121330054Y-76137698D01*
X121327638Y-76137036D01*
X121326827Y-76136225D01*
X121318965Y-76134661D01*
X121311238Y-76132545D01*
X121310149Y-76132907D01*
X121307693Y-76132419D01*
X120926741Y-76132419D01*
X120907607Y-76136225D01*
X120880547Y-76163285D01*
X120876741Y-76182419D01*
X120594863Y-76182419D01*
X120595159Y-76174505D01*
X120575102Y-76141913D01*
X120537875Y-76133049D01*
X120505283Y-76153106D01*
X120497149Y-76170838D01*
X120304948Y-76978075D01*
X120165529Y-76455250D01*
X120156921Y-76437743D01*
X120151022Y-76434327D01*
X120147607Y-76428429D01*
X120135047Y-76425079D01*
X120123802Y-76418569D01*
X120117218Y-76420324D01*
X120110632Y-76418568D01*
X120099382Y-76425080D01*
X120086827Y-76428429D01*
X120083412Y-76434326D01*
X120077513Y-76437742D01*
X120068905Y-76455250D01*
X119929485Y-76978075D01*
X119737286Y-76170838D01*
X119729152Y-76153106D01*
X119696560Y-76133049D01*
X119659333Y-76141913D01*
X119639276Y-76174505D01*
X118022717Y-76174505D01*
X117949102Y-76137698D01*
X117946686Y-76137036D01*
X117945875Y-76136225D01*
X117938013Y-76134661D01*
X117930286Y-76132545D01*
X117929197Y-76132907D01*
X117926741Y-76132419D01*
X117688646Y-76132419D01*
X117686189Y-76132907D01*
X117685101Y-76132545D01*
X117677373Y-76134661D01*
X117669512Y-76136225D01*
X117668700Y-76137036D01*
X117666285Y-76137698D01*
X117571047Y-76185317D01*
X117564718Y-76190228D01*
X117558052Y-76194683D01*
X117510434Y-76242302D01*
X117499595Y-76258523D01*
X117499595Y-76296791D01*
X117526655Y-76323851D01*
X117564923Y-76323851D01*
X117581144Y-76313012D01*
X117623026Y-76271130D01*
X117700450Y-76232419D01*
X117914938Y-76232419D01*
X117992361Y-76271130D01*
X118028505Y-76307275D01*
X118067217Y-76384698D01*
X118067217Y-76460020D01*
X118025896Y-76583981D01*
X117462815Y-77147064D01*
X117451976Y-77163285D01*
X117111824Y-77163285D01*
X117152573Y-77122535D01*
X117157026Y-77115869D01*
X117161938Y-77109541D01*
X117209557Y-77014303D01*
X117210218Y-77011887D01*
X117211030Y-77011076D01*
X117212593Y-77003214D01*
X117214710Y-76995487D01*
X117214347Y-76994398D01*
X117214836Y-76991942D01*
X117214836Y-76753847D01*
X117214347Y-76751390D01*
X117214710Y-76750302D01*
X117212593Y-76742574D01*
X117211030Y-76734713D01*
X117210218Y-76733901D01*
X117209557Y-76731486D01*
X117161938Y-76636248D01*
X117157026Y-76629919D01*
X117152572Y-76623253D01*
X117104953Y-76575635D01*
X117098291Y-76571183D01*
X117091958Y-76566268D01*
X116996721Y-76518650D01*
X116994305Y-76517988D01*
X116993494Y-76517177D01*
X116985632Y-76515613D01*
X116977905Y-76513497D01*
X116976816Y-76513859D01*
X116974360Y-76513371D01*
X116941691Y-76513371D01*
X117202465Y-76215344D01*
X117209559Y-76203023D01*
X117211030Y-76201553D01*
X117211030Y-76200469D01*
X117212200Y-76198438D01*
X117211030Y-76180883D01*
X117211030Y-76163285D01*
X117209773Y-76162028D01*
X117209655Y-76160254D01*
X117196410Y-76148665D01*
X117183970Y-76136225D01*
X117181669Y-76135767D01*
X117180855Y-76135055D01*
X117178782Y-76135193D01*
X117164836Y-76132419D01*
X116545789Y-76132419D01*
X116526655Y-76136225D01*
X116499595Y-76163285D01*
X116095515Y-76163285D01*
X116044340Y-76137698D01*
X116041924Y-76137036D01*
X116041113Y-76136225D01*
X116033251Y-76134661D01*
X116025524Y-76132545D01*
X116024435Y-76132907D01*
X116021979Y-76132419D01*
X115641027Y-76132419D01*
X115621893Y-76136225D01*
X115594833Y-76163285D01*
X115591027Y-76182419D01*
X115227711Y-76182419D01*
X115085409Y-76134985D01*
X115077460Y-76133982D01*
X115069598Y-76132419D01*
X114831503Y-76132419D01*
X114829046Y-76132907D01*
X114827958Y-76132545D01*
X114820230Y-76134661D01*
X114812369Y-76136225D01*
X114811557Y-76137036D01*
X114809142Y-76137698D01*
X114713904Y-76185317D01*
X114707575Y-76190228D01*
X114700909Y-76194683D01*
X114653291Y-76242302D01*
X114648839Y-76248963D01*
X114643924Y-76255297D01*
X114596306Y-76350534D01*
X114595644Y-76352949D01*
X114594833Y-76353761D01*
X114593269Y-76361622D01*
X114591153Y-76369350D01*
X114591515Y-76370438D01*
X114591027Y-76372895D01*
X113833884Y-76372895D01*
X113833884Y-76232419D01*
X114260074Y-76232419D01*
X114279208Y-76228613D01*
X114306268Y-76201553D01*
X114306268Y-76163285D01*
X114279208Y-76136225D01*
X114260074Y-76132419D01*
X113783884Y-76132419D01*
X113764750Y-76136225D01*
X113737690Y-76163285D01*
X113733884Y-76182419D01*
X113622773Y-76182419D01*
X113622773Y-76021308D01*
X129040232Y-76021308D01*
X129040232Y-77343530D01*
G37*
D11*
X93877190Y-56133333D02*
X93901000Y-56157142D01*
X93901000Y-56157142D02*
X93924809Y-56228571D01*
X93924809Y-56228571D02*
X93924809Y-56276190D01*
X93924809Y-56276190D02*
X93901000Y-56347618D01*
X93901000Y-56347618D02*
X93853380Y-56395237D01*
X93853380Y-56395237D02*
X93805761Y-56419047D01*
X93805761Y-56419047D02*
X93710523Y-56442856D01*
X93710523Y-56442856D02*
X93639095Y-56442856D01*
X93639095Y-56442856D02*
X93543857Y-56419047D01*
X93543857Y-56419047D02*
X93496238Y-56395237D01*
X93496238Y-56395237D02*
X93448619Y-56347618D01*
X93448619Y-56347618D02*
X93424809Y-56276190D01*
X93424809Y-56276190D02*
X93424809Y-56228571D01*
X93424809Y-56228571D02*
X93448619Y-56157142D01*
X93448619Y-56157142D02*
X93472428Y-56133333D01*
X93924809Y-55895237D02*
X93924809Y-55799999D01*
X93924809Y-55799999D02*
X93901000Y-55752380D01*
X93901000Y-55752380D02*
X93877190Y-55728571D01*
X93877190Y-55728571D02*
X93805761Y-55680952D01*
X93805761Y-55680952D02*
X93710523Y-55657142D01*
X93710523Y-55657142D02*
X93520047Y-55657142D01*
X93520047Y-55657142D02*
X93472428Y-55680952D01*
X93472428Y-55680952D02*
X93448619Y-55704761D01*
X93448619Y-55704761D02*
X93424809Y-55752380D01*
X93424809Y-55752380D02*
X93424809Y-55847618D01*
X93424809Y-55847618D02*
X93448619Y-55895237D01*
X93448619Y-55895237D02*
X93472428Y-55919047D01*
X93472428Y-55919047D02*
X93520047Y-55942856D01*
X93520047Y-55942856D02*
X93639095Y-55942856D01*
X93639095Y-55942856D02*
X93686714Y-55919047D01*
X93686714Y-55919047D02*
X93710523Y-55895237D01*
X93710523Y-55895237D02*
X93734333Y-55847618D01*
X93734333Y-55847618D02*
X93734333Y-55752380D01*
X93734333Y-55752380D02*
X93710523Y-55704761D01*
X93710523Y-55704761D02*
X93686714Y-55680952D01*
X93686714Y-55680952D02*
X93639095Y-55657142D01*
X97024809Y-45416666D02*
X97381952Y-45416666D01*
X97381952Y-45416666D02*
X97453380Y-45440475D01*
X97453380Y-45440475D02*
X97501000Y-45488094D01*
X97501000Y-45488094D02*
X97524809Y-45559523D01*
X97524809Y-45559523D02*
X97524809Y-45607142D01*
X97072428Y-45202380D02*
X97048619Y-45178571D01*
X97048619Y-45178571D02*
X97024809Y-45130952D01*
X97024809Y-45130952D02*
X97024809Y-45011904D01*
X97024809Y-45011904D02*
X97048619Y-44964285D01*
X97048619Y-44964285D02*
X97072428Y-44940476D01*
X97072428Y-44940476D02*
X97120047Y-44916666D01*
X97120047Y-44916666D02*
X97167666Y-44916666D01*
X97167666Y-44916666D02*
X97239095Y-44940476D01*
X97239095Y-44940476D02*
X97524809Y-45226190D01*
X97524809Y-45226190D02*
X97524809Y-44916666D01*
X113224809Y-76391666D02*
X113581952Y-76391666D01*
X113581952Y-76391666D02*
X113653380Y-76415475D01*
X113653380Y-76415475D02*
X113701000Y-76463094D01*
X113701000Y-76463094D02*
X113724809Y-76534523D01*
X113724809Y-76534523D02*
X113724809Y-76582142D01*
X113224809Y-75939285D02*
X113224809Y-76034523D01*
X113224809Y-76034523D02*
X113248619Y-76082142D01*
X113248619Y-76082142D02*
X113272428Y-76105952D01*
X113272428Y-76105952D02*
X113343857Y-76153571D01*
X113343857Y-76153571D02*
X113439095Y-76177380D01*
X113439095Y-76177380D02*
X113629571Y-76177380D01*
X113629571Y-76177380D02*
X113677190Y-76153571D01*
X113677190Y-76153571D02*
X113701000Y-76129761D01*
X113701000Y-76129761D02*
X113724809Y-76082142D01*
X113724809Y-76082142D02*
X113724809Y-75986904D01*
X113724809Y-75986904D02*
X113701000Y-75939285D01*
X113701000Y-75939285D02*
X113677190Y-75915476D01*
X113677190Y-75915476D02*
X113629571Y-75891666D01*
X113629571Y-75891666D02*
X113510523Y-75891666D01*
X113510523Y-75891666D02*
X113462904Y-75915476D01*
X113462904Y-75915476D02*
X113439095Y-75939285D01*
X113439095Y-75939285D02*
X113415285Y-75986904D01*
X113415285Y-75986904D02*
X113415285Y-76082142D01*
X113415285Y-76082142D02*
X113439095Y-76129761D01*
X113439095Y-76129761D02*
X113462904Y-76153571D01*
X113462904Y-76153571D02*
X113510523Y-76177380D01*
D13*
X117528095Y-69709819D02*
X117528095Y-70519342D01*
X117528095Y-70519342D02*
X117575714Y-70614580D01*
X117575714Y-70614580D02*
X117623333Y-70662200D01*
X117623333Y-70662200D02*
X117718571Y-70709819D01*
X117718571Y-70709819D02*
X117909047Y-70709819D01*
X117909047Y-70709819D02*
X118004285Y-70662200D01*
X118004285Y-70662200D02*
X118051904Y-70614580D01*
X118051904Y-70614580D02*
X118099523Y-70519342D01*
X118099523Y-70519342D02*
X118099523Y-69709819D01*
X118480476Y-69709819D02*
X119099523Y-69709819D01*
X119099523Y-69709819D02*
X118766190Y-70090771D01*
X118766190Y-70090771D02*
X118909047Y-70090771D01*
X118909047Y-70090771D02*
X119004285Y-70138390D01*
X119004285Y-70138390D02*
X119051904Y-70186009D01*
X119051904Y-70186009D02*
X119099523Y-70281247D01*
X119099523Y-70281247D02*
X119099523Y-70519342D01*
X119099523Y-70519342D02*
X119051904Y-70614580D01*
X119051904Y-70614580D02*
X119004285Y-70662200D01*
X119004285Y-70662200D02*
X118909047Y-70709819D01*
X118909047Y-70709819D02*
X118623333Y-70709819D01*
X118623333Y-70709819D02*
X118528095Y-70662200D01*
X118528095Y-70662200D02*
X118480476Y-70614580D01*
D11*
X124727190Y-66583333D02*
X124751000Y-66607142D01*
X124751000Y-66607142D02*
X124774809Y-66678571D01*
X124774809Y-66678571D02*
X124774809Y-66726190D01*
X124774809Y-66726190D02*
X124751000Y-66797618D01*
X124751000Y-66797618D02*
X124703380Y-66845237D01*
X124703380Y-66845237D02*
X124655761Y-66869047D01*
X124655761Y-66869047D02*
X124560523Y-66892856D01*
X124560523Y-66892856D02*
X124489095Y-66892856D01*
X124489095Y-66892856D02*
X124393857Y-66869047D01*
X124393857Y-66869047D02*
X124346238Y-66845237D01*
X124346238Y-66845237D02*
X124298619Y-66797618D01*
X124298619Y-66797618D02*
X124274809Y-66726190D01*
X124274809Y-66726190D02*
X124274809Y-66678571D01*
X124274809Y-66678571D02*
X124298619Y-66607142D01*
X124298619Y-66607142D02*
X124322428Y-66583333D01*
X124274809Y-66130952D02*
X124274809Y-66369047D01*
X124274809Y-66369047D02*
X124512904Y-66392856D01*
X124512904Y-66392856D02*
X124489095Y-66369047D01*
X124489095Y-66369047D02*
X124465285Y-66321428D01*
X124465285Y-66321428D02*
X124465285Y-66202380D01*
X124465285Y-66202380D02*
X124489095Y-66154761D01*
X124489095Y-66154761D02*
X124512904Y-66130952D01*
X124512904Y-66130952D02*
X124560523Y-66107142D01*
X124560523Y-66107142D02*
X124679571Y-66107142D01*
X124679571Y-66107142D02*
X124727190Y-66130952D01*
X124727190Y-66130952D02*
X124751000Y-66154761D01*
X124751000Y-66154761D02*
X124774809Y-66202380D01*
X124774809Y-66202380D02*
X124774809Y-66321428D01*
X124774809Y-66321428D02*
X124751000Y-66369047D01*
X124751000Y-66369047D02*
X124727190Y-66392856D01*
X98316666Y-42077190D02*
X98292857Y-42101000D01*
X98292857Y-42101000D02*
X98221428Y-42124809D01*
X98221428Y-42124809D02*
X98173809Y-42124809D01*
X98173809Y-42124809D02*
X98102381Y-42101000D01*
X98102381Y-42101000D02*
X98054762Y-42053380D01*
X98054762Y-42053380D02*
X98030952Y-42005761D01*
X98030952Y-42005761D02*
X98007143Y-41910523D01*
X98007143Y-41910523D02*
X98007143Y-41839095D01*
X98007143Y-41839095D02*
X98030952Y-41743857D01*
X98030952Y-41743857D02*
X98054762Y-41696238D01*
X98054762Y-41696238D02*
X98102381Y-41648619D01*
X98102381Y-41648619D02*
X98173809Y-41624809D01*
X98173809Y-41624809D02*
X98221428Y-41624809D01*
X98221428Y-41624809D02*
X98292857Y-41648619D01*
X98292857Y-41648619D02*
X98316666Y-41672428D01*
X98483333Y-41624809D02*
X98792857Y-41624809D01*
X98792857Y-41624809D02*
X98626190Y-41815285D01*
X98626190Y-41815285D02*
X98697619Y-41815285D01*
X98697619Y-41815285D02*
X98745238Y-41839095D01*
X98745238Y-41839095D02*
X98769047Y-41862904D01*
X98769047Y-41862904D02*
X98792857Y-41910523D01*
X98792857Y-41910523D02*
X98792857Y-42029571D01*
X98792857Y-42029571D02*
X98769047Y-42077190D01*
X98769047Y-42077190D02*
X98745238Y-42101000D01*
X98745238Y-42101000D02*
X98697619Y-42124809D01*
X98697619Y-42124809D02*
X98554762Y-42124809D01*
X98554762Y-42124809D02*
X98507143Y-42101000D01*
X98507143Y-42101000D02*
X98483333Y-42077190D01*
X96716666Y-58527190D02*
X96692857Y-58551000D01*
X96692857Y-58551000D02*
X96621428Y-58574809D01*
X96621428Y-58574809D02*
X96573809Y-58574809D01*
X96573809Y-58574809D02*
X96502381Y-58551000D01*
X96502381Y-58551000D02*
X96454762Y-58503380D01*
X96454762Y-58503380D02*
X96430952Y-58455761D01*
X96430952Y-58455761D02*
X96407143Y-58360523D01*
X96407143Y-58360523D02*
X96407143Y-58289095D01*
X96407143Y-58289095D02*
X96430952Y-58193857D01*
X96430952Y-58193857D02*
X96454762Y-58146238D01*
X96454762Y-58146238D02*
X96502381Y-58098619D01*
X96502381Y-58098619D02*
X96573809Y-58074809D01*
X96573809Y-58074809D02*
X96621428Y-58074809D01*
X96621428Y-58074809D02*
X96692857Y-58098619D01*
X96692857Y-58098619D02*
X96716666Y-58122428D01*
X97002381Y-58289095D02*
X96954762Y-58265285D01*
X96954762Y-58265285D02*
X96930952Y-58241476D01*
X96930952Y-58241476D02*
X96907143Y-58193857D01*
X96907143Y-58193857D02*
X96907143Y-58170047D01*
X96907143Y-58170047D02*
X96930952Y-58122428D01*
X96930952Y-58122428D02*
X96954762Y-58098619D01*
X96954762Y-58098619D02*
X97002381Y-58074809D01*
X97002381Y-58074809D02*
X97097619Y-58074809D01*
X97097619Y-58074809D02*
X97145238Y-58098619D01*
X97145238Y-58098619D02*
X97169047Y-58122428D01*
X97169047Y-58122428D02*
X97192857Y-58170047D01*
X97192857Y-58170047D02*
X97192857Y-58193857D01*
X97192857Y-58193857D02*
X97169047Y-58241476D01*
X97169047Y-58241476D02*
X97145238Y-58265285D01*
X97145238Y-58265285D02*
X97097619Y-58289095D01*
X97097619Y-58289095D02*
X97002381Y-58289095D01*
X97002381Y-58289095D02*
X96954762Y-58312904D01*
X96954762Y-58312904D02*
X96930952Y-58336714D01*
X96930952Y-58336714D02*
X96907143Y-58384333D01*
X96907143Y-58384333D02*
X96907143Y-58479571D01*
X96907143Y-58479571D02*
X96930952Y-58527190D01*
X96930952Y-58527190D02*
X96954762Y-58551000D01*
X96954762Y-58551000D02*
X97002381Y-58574809D01*
X97002381Y-58574809D02*
X97097619Y-58574809D01*
X97097619Y-58574809D02*
X97145238Y-58551000D01*
X97145238Y-58551000D02*
X97169047Y-58527190D01*
X97169047Y-58527190D02*
X97192857Y-58479571D01*
X97192857Y-58479571D02*
X97192857Y-58384333D01*
X97192857Y-58384333D02*
X97169047Y-58336714D01*
X97169047Y-58336714D02*
X97145238Y-58312904D01*
X97145238Y-58312904D02*
X97097619Y-58289095D01*
X102058333Y-70664809D02*
X102058333Y-71021952D01*
X102058333Y-71021952D02*
X102034524Y-71093380D01*
X102034524Y-71093380D02*
X101986905Y-71141000D01*
X101986905Y-71141000D02*
X101915476Y-71164809D01*
X101915476Y-71164809D02*
X101867857Y-71164809D01*
X102534523Y-70664809D02*
X102296428Y-70664809D01*
X102296428Y-70664809D02*
X102272619Y-70902904D01*
X102272619Y-70902904D02*
X102296428Y-70879095D01*
X102296428Y-70879095D02*
X102344047Y-70855285D01*
X102344047Y-70855285D02*
X102463095Y-70855285D01*
X102463095Y-70855285D02*
X102510714Y-70879095D01*
X102510714Y-70879095D02*
X102534523Y-70902904D01*
X102534523Y-70902904D02*
X102558333Y-70950523D01*
X102558333Y-70950523D02*
X102558333Y-71069571D01*
X102558333Y-71069571D02*
X102534523Y-71117190D01*
X102534523Y-71117190D02*
X102510714Y-71141000D01*
X102510714Y-71141000D02*
X102463095Y-71164809D01*
X102463095Y-71164809D02*
X102344047Y-71164809D01*
X102344047Y-71164809D02*
X102296428Y-71141000D01*
X102296428Y-71141000D02*
X102272619Y-71117190D01*
X127764761Y-42667690D02*
X127764761Y-42310547D01*
X127764761Y-42310547D02*
X127788570Y-42239119D01*
X127788570Y-42239119D02*
X127836189Y-42191500D01*
X127836189Y-42191500D02*
X127907618Y-42167690D01*
X127907618Y-42167690D02*
X127955237Y-42167690D01*
X127264761Y-42167690D02*
X127550475Y-42167690D01*
X127407618Y-42167690D02*
X127407618Y-42667690D01*
X127407618Y-42667690D02*
X127455237Y-42596261D01*
X127455237Y-42596261D02*
X127502856Y-42548642D01*
X127502856Y-42548642D02*
X127550475Y-42524833D01*
X126836190Y-42501023D02*
X126836190Y-42167690D01*
X126955238Y-42691500D02*
X127074285Y-42334357D01*
X127074285Y-42334357D02*
X126764762Y-42334357D01*
D14*
X143726109Y-52919046D02*
X143726109Y-52609522D01*
X143726109Y-52609522D02*
X143916585Y-52776189D01*
X143916585Y-52776189D02*
X143916585Y-52704760D01*
X143916585Y-52704760D02*
X143940395Y-52657141D01*
X143940395Y-52657141D02*
X143964204Y-52633332D01*
X143964204Y-52633332D02*
X144011823Y-52609522D01*
X144011823Y-52609522D02*
X144130871Y-52609522D01*
X144130871Y-52609522D02*
X144178490Y-52633332D01*
X144178490Y-52633332D02*
X144202300Y-52657141D01*
X144202300Y-52657141D02*
X144226109Y-52704760D01*
X144226109Y-52704760D02*
X144226109Y-52847617D01*
X144226109Y-52847617D02*
X144202300Y-52895236D01*
X144202300Y-52895236D02*
X144178490Y-52919046D01*
X143726109Y-52466665D02*
X144226109Y-52299999D01*
X144226109Y-52299999D02*
X143726109Y-52133332D01*
X143726109Y-52014285D02*
X143726109Y-51704761D01*
X143726109Y-51704761D02*
X143916585Y-51871428D01*
X143916585Y-51871428D02*
X143916585Y-51799999D01*
X143916585Y-51799999D02*
X143940395Y-51752380D01*
X143940395Y-51752380D02*
X143964204Y-51728571D01*
X143964204Y-51728571D02*
X144011823Y-51704761D01*
X144011823Y-51704761D02*
X144130871Y-51704761D01*
X144130871Y-51704761D02*
X144178490Y-51728571D01*
X144178490Y-51728571D02*
X144202300Y-51752380D01*
X144202300Y-51752380D02*
X144226109Y-51799999D01*
X144226109Y-51799999D02*
X144226109Y-51942856D01*
X144226109Y-51942856D02*
X144202300Y-51990475D01*
X144202300Y-51990475D02*
X144178490Y-52014285D01*
X143749919Y-50180952D02*
X143726109Y-50228571D01*
X143726109Y-50228571D02*
X143726109Y-50300000D01*
X143726109Y-50300000D02*
X143749919Y-50371428D01*
X143749919Y-50371428D02*
X143797538Y-50419047D01*
X143797538Y-50419047D02*
X143845157Y-50442857D01*
X143845157Y-50442857D02*
X143940395Y-50466666D01*
X143940395Y-50466666D02*
X144011823Y-50466666D01*
X144011823Y-50466666D02*
X144107061Y-50442857D01*
X144107061Y-50442857D02*
X144154680Y-50419047D01*
X144154680Y-50419047D02*
X144202300Y-50371428D01*
X144202300Y-50371428D02*
X144226109Y-50300000D01*
X144226109Y-50300000D02*
X144226109Y-50252381D01*
X144226109Y-50252381D02*
X144202300Y-50180952D01*
X144202300Y-50180952D02*
X144178490Y-50157143D01*
X144178490Y-50157143D02*
X144011823Y-50157143D01*
X144011823Y-50157143D02*
X144011823Y-50252381D01*
X144226109Y-49942857D02*
X143726109Y-49942857D01*
X143726109Y-49942857D02*
X144226109Y-49657143D01*
X144226109Y-49657143D02*
X143726109Y-49657143D01*
X144226109Y-49419047D02*
X143726109Y-49419047D01*
X143726109Y-49419047D02*
X143726109Y-49299999D01*
X143726109Y-49299999D02*
X143749919Y-49228571D01*
X143749919Y-49228571D02*
X143797538Y-49180952D01*
X143797538Y-49180952D02*
X143845157Y-49157142D01*
X143845157Y-49157142D02*
X143940395Y-49133333D01*
X143940395Y-49133333D02*
X144011823Y-49133333D01*
X144011823Y-49133333D02*
X144107061Y-49157142D01*
X144107061Y-49157142D02*
X144154680Y-49180952D01*
X144154680Y-49180952D02*
X144202300Y-49228571D01*
X144202300Y-49228571D02*
X144226109Y-49299999D01*
X144226109Y-49299999D02*
X144226109Y-49419047D01*
X132826109Y-47183333D02*
X132588014Y-47349999D01*
X132826109Y-47469047D02*
X132326109Y-47469047D01*
X132326109Y-47469047D02*
X132326109Y-47278571D01*
X132326109Y-47278571D02*
X132349919Y-47230952D01*
X132349919Y-47230952D02*
X132373728Y-47207142D01*
X132373728Y-47207142D02*
X132421347Y-47183333D01*
X132421347Y-47183333D02*
X132492776Y-47183333D01*
X132492776Y-47183333D02*
X132540395Y-47207142D01*
X132540395Y-47207142D02*
X132564204Y-47230952D01*
X132564204Y-47230952D02*
X132588014Y-47278571D01*
X132588014Y-47278571D02*
X132588014Y-47469047D01*
X132326109Y-47016666D02*
X132826109Y-46683333D01*
X132326109Y-46683333D02*
X132826109Y-47016666D01*
X132826109Y-46492857D02*
X132326109Y-46492857D01*
X132326109Y-46492857D02*
X132326109Y-46373809D01*
X132326109Y-46373809D02*
X132349919Y-46302381D01*
X132349919Y-46302381D02*
X132397538Y-46254762D01*
X132397538Y-46254762D02*
X132445157Y-46230952D01*
X132445157Y-46230952D02*
X132540395Y-46207143D01*
X132540395Y-46207143D02*
X132611823Y-46207143D01*
X132611823Y-46207143D02*
X132707061Y-46230952D01*
X132707061Y-46230952D02*
X132754680Y-46254762D01*
X132754680Y-46254762D02*
X132802300Y-46302381D01*
X132802300Y-46302381D02*
X132826109Y-46373809D01*
X132826109Y-46373809D02*
X132826109Y-46492857D01*
X132326109Y-45480951D02*
X132326109Y-45195237D01*
X132826109Y-45338094D02*
X132326109Y-45338094D01*
X132326109Y-45076190D02*
X132826109Y-44742857D01*
X132326109Y-44742857D02*
X132826109Y-45076190D01*
X132826109Y-44552381D02*
X132326109Y-44552381D01*
X132326109Y-44552381D02*
X132326109Y-44433333D01*
X132326109Y-44433333D02*
X132349919Y-44361905D01*
X132349919Y-44361905D02*
X132397538Y-44314286D01*
X132397538Y-44314286D02*
X132445157Y-44290476D01*
X132445157Y-44290476D02*
X132540395Y-44266667D01*
X132540395Y-44266667D02*
X132611823Y-44266667D01*
X132611823Y-44266667D02*
X132707061Y-44290476D01*
X132707061Y-44290476D02*
X132754680Y-44314286D01*
X132754680Y-44314286D02*
X132802300Y-44361905D01*
X132802300Y-44361905D02*
X132826109Y-44433333D01*
X132826109Y-44433333D02*
X132826109Y-44552381D01*
D12*
G36*
X139781123Y-62087446D02*
G01*
X139625922Y-62035713D01*
X139781123Y-61983979D01*
X139781123Y-62087446D01*
G37*
G36*
X139593314Y-61165517D02*
G01*
X139608461Y-61180663D01*
X139628742Y-61221225D01*
X139628742Y-61402380D01*
X139409695Y-61402380D01*
X139409695Y-61221225D01*
X139429975Y-61180664D01*
X139445121Y-61165517D01*
X139485684Y-61145237D01*
X139552755Y-61145237D01*
X139593314Y-61165517D01*
G37*
G36*
X140309695Y-63226189D02*
G01*
X139109695Y-63226189D01*
X139109695Y-62549537D01*
X139211616Y-62549537D01*
X139211616Y-62588555D01*
X139226548Y-62624603D01*
X139254138Y-62652193D01*
X139290186Y-62667125D01*
X139309695Y-62669046D01*
X139933707Y-62669046D01*
X139974267Y-62689327D01*
X139989414Y-62704473D01*
X140009695Y-62745034D01*
X140009695Y-62850201D01*
X139989414Y-62890762D01*
X139974268Y-62905908D01*
X139933707Y-62926189D01*
X139309695Y-62926189D01*
X139290186Y-62928110D01*
X139254138Y-62943042D01*
X139226548Y-62970632D01*
X139211616Y-63006680D01*
X139211616Y-63045698D01*
X139226548Y-63081746D01*
X139254138Y-63109336D01*
X139290186Y-63124268D01*
X139309695Y-63126189D01*
X139957314Y-63126189D01*
X139976823Y-63124268D01*
X139980143Y-63122892D01*
X139983727Y-63122638D01*
X140002035Y-63115632D01*
X140078225Y-63077537D01*
X140086621Y-63072252D01*
X140089060Y-63071242D01*
X140091805Y-63068988D01*
X140094816Y-63067094D01*
X140096547Y-63065097D01*
X140104214Y-63058806D01*
X140142310Y-63020711D01*
X140148606Y-63013039D01*
X140150600Y-63011310D01*
X140152491Y-63008304D01*
X140154746Y-63005558D01*
X140155756Y-63003117D01*
X140161043Y-62994720D01*
X140199138Y-62918529D01*
X140206144Y-62900220D01*
X140206398Y-62896637D01*
X140207774Y-62893317D01*
X140209695Y-62873808D01*
X140209695Y-62721427D01*
X140207774Y-62701918D01*
X140206398Y-62698597D01*
X140206144Y-62695014D01*
X140199138Y-62676706D01*
X140161043Y-62600516D01*
X140155756Y-62592116D01*
X140154746Y-62589678D01*
X140152493Y-62586933D01*
X140150600Y-62583925D01*
X140148603Y-62582193D01*
X140142310Y-62574525D01*
X140104214Y-62536430D01*
X140096544Y-62530136D01*
X140094816Y-62528143D01*
X140091810Y-62526250D01*
X140089060Y-62523994D01*
X140086617Y-62522982D01*
X140078226Y-62517700D01*
X140002036Y-62479604D01*
X139983728Y-62472597D01*
X139980142Y-62472342D01*
X139976823Y-62470967D01*
X139957314Y-62469046D01*
X139309695Y-62469046D01*
X139290186Y-62470967D01*
X139254138Y-62485899D01*
X139226548Y-62513489D01*
X139211616Y-62549537D01*
X139109695Y-62549537D01*
X139109695Y-62023206D01*
X139210480Y-62023206D01*
X139211368Y-62035713D01*
X139210480Y-62048220D01*
X139212739Y-62054998D01*
X139213246Y-62062126D01*
X139218852Y-62073337D01*
X139222818Y-62085236D01*
X139227502Y-62090636D01*
X139230696Y-62097024D01*
X139240165Y-62105237D01*
X139248383Y-62114712D01*
X139254772Y-62117906D01*
X139260172Y-62122590D01*
X139278072Y-62130581D01*
X140078072Y-62397248D01*
X140097187Y-62401595D01*
X140136107Y-62398829D01*
X140171006Y-62381379D01*
X140196571Y-62351903D01*
X140208910Y-62314887D01*
X140206144Y-62275967D01*
X140188694Y-62241068D01*
X140159218Y-62215503D01*
X140141318Y-62207512D01*
X139981123Y-62154113D01*
X139981123Y-61917313D01*
X140141318Y-61863915D01*
X140159218Y-61855924D01*
X140188695Y-61830359D01*
X140206144Y-61795460D01*
X140208910Y-61756540D01*
X140196572Y-61719524D01*
X140171007Y-61690048D01*
X140136108Y-61672598D01*
X140097188Y-61669832D01*
X140078072Y-61674179D01*
X139278072Y-61940845D01*
X139260172Y-61948836D01*
X139254771Y-61953520D01*
X139248384Y-61956714D01*
X139240170Y-61966183D01*
X139230696Y-61974401D01*
X139227501Y-61980790D01*
X139222818Y-61986190D01*
X139218852Y-61998087D01*
X139213246Y-62009300D01*
X139212739Y-62016427D01*
X139210480Y-62023206D01*
X139109695Y-62023206D01*
X139109695Y-61197618D01*
X139209695Y-61197618D01*
X139209695Y-61502380D01*
X139211616Y-61521889D01*
X139226548Y-61557937D01*
X139254138Y-61585527D01*
X139290186Y-61600459D01*
X139309695Y-61602380D01*
X140109695Y-61602380D01*
X140129204Y-61600459D01*
X140165252Y-61585527D01*
X140192842Y-61557937D01*
X140207774Y-61521889D01*
X140207774Y-61482871D01*
X140192842Y-61446823D01*
X140165252Y-61419233D01*
X140129204Y-61404301D01*
X140109695Y-61402380D01*
X139828742Y-61402380D01*
X139828742Y-61363969D01*
X140167041Y-61127160D01*
X140181922Y-61114399D01*
X140202890Y-61081494D01*
X140209671Y-61043070D01*
X140201232Y-61004975D01*
X140178857Y-60973010D01*
X140145952Y-60952041D01*
X140107527Y-60945261D01*
X140069433Y-60953700D01*
X140052349Y-60963314D01*
X139808678Y-61133883D01*
X139780090Y-61076707D01*
X139774804Y-61068310D01*
X139773794Y-61065870D01*
X139771540Y-61063124D01*
X139769647Y-61060116D01*
X139767649Y-61058383D01*
X139761357Y-61050717D01*
X139723263Y-61012622D01*
X139715596Y-61006330D01*
X139713864Y-61004333D01*
X139710852Y-61002437D01*
X139708109Y-61000186D01*
X139705672Y-60999176D01*
X139697274Y-60993890D01*
X139621083Y-60955795D01*
X139602774Y-60948788D01*
X139599190Y-60948533D01*
X139595870Y-60947158D01*
X139576361Y-60945237D01*
X139462076Y-60945237D01*
X139442567Y-60947158D01*
X139439247Y-60948533D01*
X139435662Y-60948788D01*
X139417354Y-60955795D01*
X139341163Y-60993891D01*
X139332767Y-60999175D01*
X139330327Y-61000186D01*
X139327581Y-61002439D01*
X139324573Y-61004333D01*
X139322840Y-61006330D01*
X139315174Y-61012623D01*
X139277079Y-61050717D01*
X139270787Y-61058383D01*
X139268790Y-61060116D01*
X139266894Y-61063127D01*
X139264643Y-61065871D01*
X139263633Y-61068308D01*
X139258347Y-61076707D01*
X139220252Y-61152897D01*
X139213246Y-61171205D01*
X139212991Y-61174788D01*
X139211616Y-61178109D01*
X139209695Y-61197618D01*
X139109695Y-61197618D01*
X139109695Y-60359523D01*
X139209695Y-60359523D01*
X139209695Y-60816666D01*
X139211616Y-60836175D01*
X139226548Y-60872223D01*
X139254138Y-60899813D01*
X139290186Y-60914745D01*
X139329204Y-60914745D01*
X139365252Y-60899813D01*
X139392842Y-60872223D01*
X139407774Y-60836175D01*
X139409695Y-60816666D01*
X139409695Y-60688095D01*
X140109695Y-60688095D01*
X140129204Y-60686174D01*
X140165252Y-60671242D01*
X140192842Y-60643652D01*
X140207774Y-60607604D01*
X140207774Y-60568586D01*
X140192842Y-60532538D01*
X140165252Y-60504948D01*
X140129204Y-60490016D01*
X140109695Y-60488095D01*
X139409695Y-60488095D01*
X139409695Y-60359523D01*
X139407774Y-60340014D01*
X139392842Y-60303966D01*
X139365252Y-60276376D01*
X139329204Y-60261444D01*
X139290186Y-60261444D01*
X139254138Y-60276376D01*
X139226548Y-60303966D01*
X139211616Y-60340014D01*
X139209695Y-60359523D01*
X139109695Y-60359523D01*
X139109695Y-60161444D01*
X140309695Y-60161444D01*
X140309695Y-63226189D01*
G37*
D11*
X87416666Y-41677190D02*
X87392857Y-41701000D01*
X87392857Y-41701000D02*
X87321428Y-41724809D01*
X87321428Y-41724809D02*
X87273809Y-41724809D01*
X87273809Y-41724809D02*
X87202381Y-41701000D01*
X87202381Y-41701000D02*
X87154762Y-41653380D01*
X87154762Y-41653380D02*
X87130952Y-41605761D01*
X87130952Y-41605761D02*
X87107143Y-41510523D01*
X87107143Y-41510523D02*
X87107143Y-41439095D01*
X87107143Y-41439095D02*
X87130952Y-41343857D01*
X87130952Y-41343857D02*
X87154762Y-41296238D01*
X87154762Y-41296238D02*
X87202381Y-41248619D01*
X87202381Y-41248619D02*
X87273809Y-41224809D01*
X87273809Y-41224809D02*
X87321428Y-41224809D01*
X87321428Y-41224809D02*
X87392857Y-41248619D01*
X87392857Y-41248619D02*
X87416666Y-41272428D01*
X87892857Y-41724809D02*
X87607143Y-41724809D01*
X87750000Y-41724809D02*
X87750000Y-41224809D01*
X87750000Y-41224809D02*
X87702381Y-41296238D01*
X87702381Y-41296238D02*
X87654762Y-41343857D01*
X87654762Y-41343857D02*
X87607143Y-41367666D01*
X100224809Y-66130952D02*
X100629571Y-66130952D01*
X100629571Y-66130952D02*
X100677190Y-66107142D01*
X100677190Y-66107142D02*
X100701000Y-66083333D01*
X100701000Y-66083333D02*
X100724809Y-66035714D01*
X100724809Y-66035714D02*
X100724809Y-65940476D01*
X100724809Y-65940476D02*
X100701000Y-65892857D01*
X100701000Y-65892857D02*
X100677190Y-65869047D01*
X100677190Y-65869047D02*
X100629571Y-65845238D01*
X100629571Y-65845238D02*
X100224809Y-65845238D01*
X100224809Y-65654761D02*
X100224809Y-65321428D01*
X100224809Y-65321428D02*
X100724809Y-65535713D01*
D12*
X91071428Y-71228409D02*
X91214285Y-71276028D01*
X91214285Y-71276028D02*
X91261904Y-71323647D01*
X91261904Y-71323647D02*
X91309523Y-71418885D01*
X91309523Y-71418885D02*
X91309523Y-71561742D01*
X91309523Y-71561742D02*
X91261904Y-71656980D01*
X91261904Y-71656980D02*
X91214285Y-71704600D01*
X91214285Y-71704600D02*
X91119047Y-71752219D01*
X91119047Y-71752219D02*
X90738095Y-71752219D01*
X90738095Y-71752219D02*
X90738095Y-70752219D01*
X90738095Y-70752219D02*
X91071428Y-70752219D01*
X91071428Y-70752219D02*
X91166666Y-70799838D01*
X91166666Y-70799838D02*
X91214285Y-70847457D01*
X91214285Y-70847457D02*
X91261904Y-70942695D01*
X91261904Y-70942695D02*
X91261904Y-71037933D01*
X91261904Y-71037933D02*
X91214285Y-71133171D01*
X91214285Y-71133171D02*
X91166666Y-71180790D01*
X91166666Y-71180790D02*
X91071428Y-71228409D01*
X91071428Y-71228409D02*
X90738095Y-71228409D01*
X91738095Y-71752219D02*
X91738095Y-70752219D01*
X91738095Y-70752219D02*
X92071428Y-71466504D01*
X92071428Y-71466504D02*
X92404761Y-70752219D01*
X92404761Y-70752219D02*
X92404761Y-71752219D01*
X92880952Y-71228409D02*
X93214285Y-71228409D01*
X93357142Y-71752219D02*
X92880952Y-71752219D01*
X92880952Y-71752219D02*
X92880952Y-70752219D01*
X92880952Y-70752219D02*
X93357142Y-70752219D01*
X94071428Y-72133171D02*
X94023809Y-72085552D01*
X94023809Y-72085552D02*
X93928571Y-71942695D01*
X93928571Y-71942695D02*
X93880952Y-71847457D01*
X93880952Y-71847457D02*
X93833333Y-71704600D01*
X93833333Y-71704600D02*
X93785714Y-71466504D01*
X93785714Y-71466504D02*
X93785714Y-71276028D01*
X93785714Y-71276028D02*
X93833333Y-71037933D01*
X93833333Y-71037933D02*
X93880952Y-70895076D01*
X93880952Y-70895076D02*
X93928571Y-70799838D01*
X93928571Y-70799838D02*
X94023809Y-70656980D01*
X94023809Y-70656980D02*
X94071428Y-70609361D01*
X94452381Y-71752219D02*
X94452381Y-70752219D01*
X94452381Y-70752219D02*
X94833333Y-70752219D01*
X94833333Y-70752219D02*
X94928571Y-70799838D01*
X94928571Y-70799838D02*
X94976190Y-70847457D01*
X94976190Y-70847457D02*
X95023809Y-70942695D01*
X95023809Y-70942695D02*
X95023809Y-71085552D01*
X95023809Y-71085552D02*
X94976190Y-71180790D01*
X94976190Y-71180790D02*
X94928571Y-71228409D01*
X94928571Y-71228409D02*
X94833333Y-71276028D01*
X94833333Y-71276028D02*
X94452381Y-71276028D01*
X95357143Y-72133171D02*
X95404762Y-72085552D01*
X95404762Y-72085552D02*
X95500000Y-71942695D01*
X95500000Y-71942695D02*
X95547619Y-71847457D01*
X95547619Y-71847457D02*
X95595238Y-71704600D01*
X95595238Y-71704600D02*
X95642857Y-71466504D01*
X95642857Y-71466504D02*
X95642857Y-71276028D01*
X95642857Y-71276028D02*
X95595238Y-71037933D01*
X95595238Y-71037933D02*
X95547619Y-70895076D01*
X95547619Y-70895076D02*
X95500000Y-70799838D01*
X95500000Y-70799838D02*
X95404762Y-70656980D01*
X95404762Y-70656980D02*
X95357143Y-70609361D01*
X96833334Y-70847457D02*
X96880953Y-70799838D01*
X96880953Y-70799838D02*
X96976191Y-70752219D01*
X96976191Y-70752219D02*
X97214286Y-70752219D01*
X97214286Y-70752219D02*
X97309524Y-70799838D01*
X97309524Y-70799838D02*
X97357143Y-70847457D01*
X97357143Y-70847457D02*
X97404762Y-70942695D01*
X97404762Y-70942695D02*
X97404762Y-71037933D01*
X97404762Y-71037933D02*
X97357143Y-71180790D01*
X97357143Y-71180790D02*
X96785715Y-71752219D01*
X96785715Y-71752219D02*
X97404762Y-71752219D01*
X97976191Y-71180790D02*
X97880953Y-71133171D01*
X97880953Y-71133171D02*
X97833334Y-71085552D01*
X97833334Y-71085552D02*
X97785715Y-70990314D01*
X97785715Y-70990314D02*
X97785715Y-70942695D01*
X97785715Y-70942695D02*
X97833334Y-70847457D01*
X97833334Y-70847457D02*
X97880953Y-70799838D01*
X97880953Y-70799838D02*
X97976191Y-70752219D01*
X97976191Y-70752219D02*
X98166667Y-70752219D01*
X98166667Y-70752219D02*
X98261905Y-70799838D01*
X98261905Y-70799838D02*
X98309524Y-70847457D01*
X98309524Y-70847457D02*
X98357143Y-70942695D01*
X98357143Y-70942695D02*
X98357143Y-70990314D01*
X98357143Y-70990314D02*
X98309524Y-71085552D01*
X98309524Y-71085552D02*
X98261905Y-71133171D01*
X98261905Y-71133171D02*
X98166667Y-71180790D01*
X98166667Y-71180790D02*
X97976191Y-71180790D01*
X97976191Y-71180790D02*
X97880953Y-71228409D01*
X97880953Y-71228409D02*
X97833334Y-71276028D01*
X97833334Y-71276028D02*
X97785715Y-71371266D01*
X97785715Y-71371266D02*
X97785715Y-71561742D01*
X97785715Y-71561742D02*
X97833334Y-71656980D01*
X97833334Y-71656980D02*
X97880953Y-71704600D01*
X97880953Y-71704600D02*
X97976191Y-71752219D01*
X97976191Y-71752219D02*
X98166667Y-71752219D01*
X98166667Y-71752219D02*
X98261905Y-71704600D01*
X98261905Y-71704600D02*
X98309524Y-71656980D01*
X98309524Y-71656980D02*
X98357143Y-71561742D01*
X98357143Y-71561742D02*
X98357143Y-71371266D01*
X98357143Y-71371266D02*
X98309524Y-71276028D01*
X98309524Y-71276028D02*
X98261905Y-71228409D01*
X98261905Y-71228409D02*
X98166667Y-71180790D01*
X98976191Y-70752219D02*
X99071429Y-70752219D01*
X99071429Y-70752219D02*
X99166667Y-70799838D01*
X99166667Y-70799838D02*
X99214286Y-70847457D01*
X99214286Y-70847457D02*
X99261905Y-70942695D01*
X99261905Y-70942695D02*
X99309524Y-71133171D01*
X99309524Y-71133171D02*
X99309524Y-71371266D01*
X99309524Y-71371266D02*
X99261905Y-71561742D01*
X99261905Y-71561742D02*
X99214286Y-71656980D01*
X99214286Y-71656980D02*
X99166667Y-71704600D01*
X99166667Y-71704600D02*
X99071429Y-71752219D01*
X99071429Y-71752219D02*
X98976191Y-71752219D01*
X98976191Y-71752219D02*
X98880953Y-71704600D01*
X98880953Y-71704600D02*
X98833334Y-71656980D01*
X98833334Y-71656980D02*
X98785715Y-71561742D01*
X98785715Y-71561742D02*
X98738096Y-71371266D01*
X98738096Y-71371266D02*
X98738096Y-71133171D01*
X98738096Y-71133171D02*
X98785715Y-70942695D01*
X98785715Y-70942695D02*
X98833334Y-70847457D01*
X98833334Y-70847457D02*
X98880953Y-70799838D01*
X98880953Y-70799838D02*
X98976191Y-70752219D01*
D13*
X86579819Y-53071904D02*
X87389342Y-53071904D01*
X87389342Y-53071904D02*
X87484580Y-53024285D01*
X87484580Y-53024285D02*
X87532200Y-52976666D01*
X87532200Y-52976666D02*
X87579819Y-52881428D01*
X87579819Y-52881428D02*
X87579819Y-52690952D01*
X87579819Y-52690952D02*
X87532200Y-52595714D01*
X87532200Y-52595714D02*
X87484580Y-52548095D01*
X87484580Y-52548095D02*
X87389342Y-52500476D01*
X87389342Y-52500476D02*
X86579819Y-52500476D01*
X86913152Y-51595714D02*
X87579819Y-51595714D01*
X86532200Y-51833809D02*
X87246485Y-52071904D01*
X87246485Y-52071904D02*
X87246485Y-51452857D01*
D12*
G36*
X142809695Y-62730951D02*
G01*
X141609695Y-62730951D01*
X141609695Y-62511442D01*
X141711616Y-62511442D01*
X141711616Y-62550460D01*
X141726548Y-62586508D01*
X141754138Y-62614098D01*
X141790186Y-62629030D01*
X141809695Y-62630951D01*
X142609695Y-62630951D01*
X142629204Y-62629030D01*
X142665252Y-62614098D01*
X142692842Y-62586508D01*
X142707774Y-62550460D01*
X142707774Y-62511442D01*
X142692842Y-62475394D01*
X142665252Y-62447804D01*
X142629204Y-62432872D01*
X142609695Y-62430951D01*
X141809695Y-62430951D01*
X141790186Y-62432872D01*
X141754138Y-62447804D01*
X141726548Y-62475394D01*
X141711616Y-62511442D01*
X141609695Y-62511442D01*
X141609695Y-61883333D01*
X141709695Y-61883333D01*
X141709695Y-62073809D01*
X141711616Y-62093318D01*
X141712991Y-62096638D01*
X141713246Y-62100222D01*
X141720252Y-62118530D01*
X141758347Y-62194720D01*
X141763631Y-62203116D01*
X141764642Y-62205555D01*
X141766895Y-62208300D01*
X141768790Y-62211311D01*
X141770786Y-62213042D01*
X141777078Y-62220709D01*
X141815173Y-62258805D01*
X141830326Y-62271241D01*
X141866375Y-62286173D01*
X141905393Y-62286174D01*
X141941441Y-62271243D01*
X141969031Y-62243653D01*
X141983963Y-62207605D01*
X141983964Y-62168587D01*
X141969033Y-62132539D01*
X141956596Y-62117385D01*
X141929975Y-62090763D01*
X141909695Y-62050202D01*
X141909695Y-61906939D01*
X141929975Y-61866378D01*
X141945120Y-61851232D01*
X141985683Y-61830952D01*
X142022039Y-61830952D01*
X142098532Y-61856449D01*
X142538984Y-62296901D01*
X142554138Y-62309337D01*
X142590186Y-62324269D01*
X142629204Y-62324269D01*
X142665252Y-62309337D01*
X142692842Y-62281747D01*
X142707774Y-62245699D01*
X142709695Y-62226190D01*
X142709695Y-61730952D01*
X142707774Y-61711443D01*
X142692842Y-61675395D01*
X142665252Y-61647805D01*
X142629204Y-61632873D01*
X142590186Y-61632873D01*
X142554138Y-61647805D01*
X142526548Y-61675395D01*
X142511616Y-61711443D01*
X142509695Y-61730952D01*
X142509695Y-61984768D01*
X142223263Y-61698336D01*
X142208109Y-61685900D01*
X142204790Y-61684525D01*
X142202075Y-61682170D01*
X142184175Y-61674179D01*
X142069889Y-61636084D01*
X142060217Y-61633884D01*
X142057775Y-61632873D01*
X142054236Y-61632524D01*
X142050773Y-61631737D01*
X142048139Y-61631924D01*
X142038266Y-61630952D01*
X141962076Y-61630952D01*
X141942567Y-61632873D01*
X141939246Y-61634248D01*
X141935664Y-61634503D01*
X141917355Y-61641509D01*
X141841164Y-61679604D01*
X141832768Y-61684888D01*
X141830327Y-61685900D01*
X141827579Y-61688155D01*
X141824574Y-61690047D01*
X141822843Y-61692042D01*
X141815174Y-61698337D01*
X141777079Y-61736431D01*
X141770784Y-61744100D01*
X141768790Y-61745831D01*
X141766896Y-61748838D01*
X141764643Y-61751585D01*
X141763632Y-61754024D01*
X141758347Y-61762421D01*
X141720252Y-61838612D01*
X141713246Y-61856921D01*
X141712991Y-61860503D01*
X141711616Y-61863824D01*
X141709695Y-61883333D01*
X141609695Y-61883333D01*
X141609695Y-61083332D01*
X141709695Y-61083332D01*
X141709695Y-61159523D01*
X141710667Y-61169396D01*
X141710480Y-61172030D01*
X141711267Y-61175493D01*
X141711616Y-61179032D01*
X141712627Y-61181474D01*
X141714827Y-61191146D01*
X141752922Y-61305432D01*
X141760913Y-61323332D01*
X141763268Y-61326047D01*
X141764643Y-61329366D01*
X141777079Y-61344520D01*
X141853269Y-61420710D01*
X141860938Y-61427004D01*
X141862669Y-61428999D01*
X141865676Y-61430892D01*
X141868423Y-61433146D01*
X141870862Y-61434156D01*
X141879259Y-61439442D01*
X141955450Y-61477537D01*
X141956874Y-61478082D01*
X141957456Y-61478513D01*
X141965656Y-61481442D01*
X141973759Y-61484543D01*
X141974478Y-61484594D01*
X141975917Y-61485108D01*
X142128298Y-61523204D01*
X142131679Y-61523704D01*
X142133043Y-61524269D01*
X142140391Y-61524992D01*
X142147690Y-61526072D01*
X142149148Y-61525854D01*
X142152552Y-61526190D01*
X142266838Y-61526190D01*
X142270241Y-61525854D01*
X142271700Y-61526072D01*
X142278998Y-61524992D01*
X142286347Y-61524269D01*
X142287710Y-61523704D01*
X142291092Y-61523204D01*
X142443473Y-61485108D01*
X142444911Y-61484594D01*
X142445632Y-61484543D01*
X142453742Y-61481439D01*
X142461934Y-61478513D01*
X142462515Y-61478082D01*
X142463940Y-61477537D01*
X142540130Y-61439442D01*
X142548524Y-61434158D01*
X142550966Y-61433147D01*
X142553713Y-61430892D01*
X142556721Y-61428999D01*
X142558452Y-61427002D01*
X142566119Y-61420710D01*
X142642310Y-61344520D01*
X142654747Y-61329367D01*
X142656122Y-61326047D01*
X142658477Y-61323332D01*
X142666468Y-61305432D01*
X142704563Y-61191145D01*
X142706762Y-61181474D01*
X142707774Y-61179032D01*
X142708122Y-61175492D01*
X142708910Y-61172030D01*
X142708722Y-61169396D01*
X142709695Y-61159523D01*
X142709695Y-61083332D01*
X142708722Y-61073458D01*
X142708910Y-61070825D01*
X142708122Y-61067361D01*
X142707774Y-61063823D01*
X142706762Y-61061380D01*
X142704563Y-61051709D01*
X142666468Y-60937424D01*
X142658477Y-60919524D01*
X142656121Y-60916808D01*
X142654747Y-60913490D01*
X142642311Y-60898336D01*
X142604215Y-60860240D01*
X142589061Y-60847804D01*
X142553013Y-60832872D01*
X142513995Y-60832872D01*
X142477947Y-60847804D01*
X142450357Y-60875394D01*
X142435425Y-60911442D01*
X142435425Y-60950460D01*
X142450357Y-60986508D01*
X142462793Y-61001662D01*
X142484197Y-61023066D01*
X142509695Y-61099559D01*
X142509695Y-61143296D01*
X142484197Y-61219790D01*
X142436174Y-61267812D01*
X142384314Y-61293742D01*
X142254528Y-61326190D01*
X142164862Y-61326190D01*
X142035074Y-61293742D01*
X141983216Y-61267813D01*
X141935192Y-61219789D01*
X141909695Y-61143296D01*
X141909695Y-61099559D01*
X141935192Y-61023065D01*
X141956596Y-61001661D01*
X141969033Y-60986507D01*
X141983964Y-60950459D01*
X141983963Y-60911441D01*
X141969031Y-60875393D01*
X141941441Y-60847803D01*
X141905393Y-60832872D01*
X141866375Y-60832873D01*
X141830326Y-60847805D01*
X141815173Y-60860241D01*
X141777078Y-60898337D01*
X141764642Y-60913491D01*
X141763267Y-60916809D01*
X141760913Y-60919524D01*
X141752922Y-60937424D01*
X141714827Y-61051709D01*
X141712627Y-61061380D01*
X141711616Y-61063823D01*
X141711267Y-61067361D01*
X141710480Y-61070825D01*
X141710667Y-61073458D01*
X141709695Y-61083332D01*
X141609695Y-61083332D01*
X141609695Y-60732872D01*
X142809695Y-60732872D01*
X142809695Y-62730951D01*
G37*
D14*
X135502300Y-45345237D02*
X135526109Y-45273809D01*
X135526109Y-45273809D02*
X135526109Y-45154761D01*
X135526109Y-45154761D02*
X135502300Y-45107142D01*
X135502300Y-45107142D02*
X135478490Y-45083333D01*
X135478490Y-45083333D02*
X135430871Y-45059523D01*
X135430871Y-45059523D02*
X135383252Y-45059523D01*
X135383252Y-45059523D02*
X135335633Y-45083333D01*
X135335633Y-45083333D02*
X135311823Y-45107142D01*
X135311823Y-45107142D02*
X135288014Y-45154761D01*
X135288014Y-45154761D02*
X135264204Y-45249999D01*
X135264204Y-45249999D02*
X135240395Y-45297618D01*
X135240395Y-45297618D02*
X135216585Y-45321428D01*
X135216585Y-45321428D02*
X135168966Y-45345237D01*
X135168966Y-45345237D02*
X135121347Y-45345237D01*
X135121347Y-45345237D02*
X135073728Y-45321428D01*
X135073728Y-45321428D02*
X135049919Y-45297618D01*
X135049919Y-45297618D02*
X135026109Y-45249999D01*
X135026109Y-45249999D02*
X135026109Y-45130952D01*
X135026109Y-45130952D02*
X135049919Y-45059523D01*
X135478490Y-44559524D02*
X135502300Y-44583333D01*
X135502300Y-44583333D02*
X135526109Y-44654762D01*
X135526109Y-44654762D02*
X135526109Y-44702381D01*
X135526109Y-44702381D02*
X135502300Y-44773809D01*
X135502300Y-44773809D02*
X135454680Y-44821428D01*
X135454680Y-44821428D02*
X135407061Y-44845238D01*
X135407061Y-44845238D02*
X135311823Y-44869047D01*
X135311823Y-44869047D02*
X135240395Y-44869047D01*
X135240395Y-44869047D02*
X135145157Y-44845238D01*
X135145157Y-44845238D02*
X135097538Y-44821428D01*
X135097538Y-44821428D02*
X135049919Y-44773809D01*
X135049919Y-44773809D02*
X135026109Y-44702381D01*
X135026109Y-44702381D02*
X135026109Y-44654762D01*
X135026109Y-44654762D02*
X135049919Y-44583333D01*
X135049919Y-44583333D02*
X135073728Y-44559524D01*
X135526109Y-44107143D02*
X135526109Y-44345238D01*
X135526109Y-44345238D02*
X135026109Y-44345238D01*
X134202300Y-45357141D02*
X134226109Y-45285713D01*
X134226109Y-45285713D02*
X134226109Y-45166665D01*
X134226109Y-45166665D02*
X134202300Y-45119046D01*
X134202300Y-45119046D02*
X134178490Y-45095237D01*
X134178490Y-45095237D02*
X134130871Y-45071427D01*
X134130871Y-45071427D02*
X134083252Y-45071427D01*
X134083252Y-45071427D02*
X134035633Y-45095237D01*
X134035633Y-45095237D02*
X134011823Y-45119046D01*
X134011823Y-45119046D02*
X133988014Y-45166665D01*
X133988014Y-45166665D02*
X133964204Y-45261903D01*
X133964204Y-45261903D02*
X133940395Y-45309522D01*
X133940395Y-45309522D02*
X133916585Y-45333332D01*
X133916585Y-45333332D02*
X133868966Y-45357141D01*
X133868966Y-45357141D02*
X133821347Y-45357141D01*
X133821347Y-45357141D02*
X133773728Y-45333332D01*
X133773728Y-45333332D02*
X133749919Y-45309522D01*
X133749919Y-45309522D02*
X133726109Y-45261903D01*
X133726109Y-45261903D02*
X133726109Y-45142856D01*
X133726109Y-45142856D02*
X133749919Y-45071427D01*
X134226109Y-44857142D02*
X133726109Y-44857142D01*
X133726109Y-44857142D02*
X133726109Y-44738094D01*
X133726109Y-44738094D02*
X133749919Y-44666666D01*
X133749919Y-44666666D02*
X133797538Y-44619047D01*
X133797538Y-44619047D02*
X133845157Y-44595237D01*
X133845157Y-44595237D02*
X133940395Y-44571428D01*
X133940395Y-44571428D02*
X134011823Y-44571428D01*
X134011823Y-44571428D02*
X134107061Y-44595237D01*
X134107061Y-44595237D02*
X134154680Y-44619047D01*
X134154680Y-44619047D02*
X134202300Y-44666666D01*
X134202300Y-44666666D02*
X134226109Y-44738094D01*
X134226109Y-44738094D02*
X134226109Y-44857142D01*
X134083252Y-44380951D02*
X134083252Y-44142856D01*
X134226109Y-44428570D02*
X133726109Y-44261904D01*
X133726109Y-44261904D02*
X134226109Y-44095237D01*
X137949919Y-50180952D02*
X137926109Y-50228571D01*
X137926109Y-50228571D02*
X137926109Y-50300000D01*
X137926109Y-50300000D02*
X137949919Y-50371428D01*
X137949919Y-50371428D02*
X137997538Y-50419047D01*
X137997538Y-50419047D02*
X138045157Y-50442857D01*
X138045157Y-50442857D02*
X138140395Y-50466666D01*
X138140395Y-50466666D02*
X138211823Y-50466666D01*
X138211823Y-50466666D02*
X138307061Y-50442857D01*
X138307061Y-50442857D02*
X138354680Y-50419047D01*
X138354680Y-50419047D02*
X138402300Y-50371428D01*
X138402300Y-50371428D02*
X138426109Y-50300000D01*
X138426109Y-50300000D02*
X138426109Y-50252381D01*
X138426109Y-50252381D02*
X138402300Y-50180952D01*
X138402300Y-50180952D02*
X138378490Y-50157143D01*
X138378490Y-50157143D02*
X138211823Y-50157143D01*
X138211823Y-50157143D02*
X138211823Y-50252381D01*
X138426109Y-49942857D02*
X137926109Y-49942857D01*
X137926109Y-49942857D02*
X138426109Y-49657143D01*
X138426109Y-49657143D02*
X137926109Y-49657143D01*
X138426109Y-49419047D02*
X137926109Y-49419047D01*
X137926109Y-49419047D02*
X137926109Y-49299999D01*
X137926109Y-49299999D02*
X137949919Y-49228571D01*
X137949919Y-49228571D02*
X137997538Y-49180952D01*
X137997538Y-49180952D02*
X138045157Y-49157142D01*
X138045157Y-49157142D02*
X138140395Y-49133333D01*
X138140395Y-49133333D02*
X138211823Y-49133333D01*
X138211823Y-49133333D02*
X138307061Y-49157142D01*
X138307061Y-49157142D02*
X138354680Y-49180952D01*
X138354680Y-49180952D02*
X138402300Y-49228571D01*
X138402300Y-49228571D02*
X138426109Y-49299999D01*
X138426109Y-49299999D02*
X138426109Y-49419047D01*
X137926109Y-53005236D02*
X138426109Y-52838570D01*
X138426109Y-52838570D02*
X137926109Y-52671903D01*
X138402300Y-52290951D02*
X138426109Y-52338570D01*
X138426109Y-52338570D02*
X138426109Y-52433808D01*
X138426109Y-52433808D02*
X138402300Y-52481427D01*
X138402300Y-52481427D02*
X138378490Y-52505237D01*
X138378490Y-52505237D02*
X138330871Y-52529046D01*
X138330871Y-52529046D02*
X138188014Y-52529046D01*
X138188014Y-52529046D02*
X138140395Y-52505237D01*
X138140395Y-52505237D02*
X138116585Y-52481427D01*
X138116585Y-52481427D02*
X138092776Y-52433808D01*
X138092776Y-52433808D02*
X138092776Y-52338570D01*
X138092776Y-52338570D02*
X138116585Y-52290951D01*
X138402300Y-51862380D02*
X138426109Y-51909999D01*
X138426109Y-51909999D02*
X138426109Y-52005237D01*
X138426109Y-52005237D02*
X138402300Y-52052856D01*
X138402300Y-52052856D02*
X138378490Y-52076666D01*
X138378490Y-52076666D02*
X138330871Y-52100475D01*
X138330871Y-52100475D02*
X138188014Y-52100475D01*
X138188014Y-52100475D02*
X138140395Y-52076666D01*
X138140395Y-52076666D02*
X138116585Y-52052856D01*
X138116585Y-52052856D02*
X138092776Y-52005237D01*
X138092776Y-52005237D02*
X138092776Y-51909999D01*
X138092776Y-51909999D02*
X138116585Y-51862380D01*
D15*
G36*
X100675375Y-50246908D02*
G01*
X100732100Y-50275271D01*
X100785757Y-50328927D01*
X100813775Y-50412981D01*
X100813775Y-50510475D01*
X100173775Y-50510475D01*
X100173775Y-50412981D01*
X100201792Y-50328928D01*
X100255449Y-50275271D01*
X100312173Y-50246908D01*
X100446479Y-50213332D01*
X100541071Y-50213332D01*
X100675375Y-50246908D01*
G37*
G36*
X101062664Y-50759364D02*
G01*
X99924885Y-50759364D01*
X99924885Y-50399999D01*
X100013775Y-50399999D01*
X100013775Y-50590475D01*
X100015312Y-50606082D01*
X100027257Y-50634921D01*
X100049329Y-50656993D01*
X100078168Y-50668938D01*
X100093775Y-50670475D01*
X100893775Y-50670475D01*
X100909382Y-50668938D01*
X100938221Y-50656993D01*
X100960293Y-50634921D01*
X100972238Y-50606082D01*
X100973775Y-50590475D01*
X100973775Y-50399999D01*
X100972997Y-50392101D01*
X100973147Y-50389993D01*
X100972516Y-50387220D01*
X100972238Y-50384392D01*
X100971429Y-50382440D01*
X100969670Y-50374701D01*
X100931575Y-50260415D01*
X100925181Y-50246095D01*
X100923297Y-50243922D01*
X100922197Y-50241267D01*
X100912248Y-50229144D01*
X100836057Y-50152954D01*
X100829923Y-50147920D01*
X100828538Y-50146323D01*
X100826130Y-50144807D01*
X100823934Y-50143005D01*
X100821982Y-50142196D01*
X100815266Y-50137969D01*
X100739076Y-50099874D01*
X100737934Y-50099437D01*
X100737470Y-50099093D01*
X100730921Y-50096753D01*
X100724429Y-50094269D01*
X100723852Y-50094228D01*
X100722702Y-50093817D01*
X100570321Y-50055721D01*
X100567615Y-50055320D01*
X100566525Y-50054869D01*
X100560651Y-50054290D01*
X100554807Y-50053426D01*
X100553638Y-50053599D01*
X100550918Y-50053332D01*
X100436632Y-50053332D01*
X100433911Y-50053599D01*
X100432743Y-50053426D01*
X100426898Y-50054290D01*
X100421025Y-50054869D01*
X100419934Y-50055320D01*
X100417229Y-50055721D01*
X100264848Y-50093817D01*
X100263697Y-50094228D01*
X100263121Y-50094269D01*
X100256628Y-50096753D01*
X100250080Y-50099093D01*
X100249615Y-50099437D01*
X100248474Y-50099874D01*
X100172283Y-50137969D01*
X100165568Y-50142195D01*
X100163614Y-50143005D01*
X100161414Y-50144809D01*
X100159011Y-50146323D01*
X100157626Y-50147918D01*
X100151492Y-50152954D01*
X100075301Y-50229144D01*
X100065352Y-50241267D01*
X100064251Y-50243924D01*
X100062369Y-50246095D01*
X100055975Y-50260415D01*
X100017880Y-50374701D01*
X100016120Y-50382440D01*
X100015312Y-50384392D01*
X100015033Y-50387220D01*
X100014403Y-50389993D01*
X100014552Y-50392101D01*
X100013775Y-50399999D01*
X99924885Y-50399999D01*
X99924885Y-49600082D01*
X100013774Y-49600082D01*
X100015312Y-49607771D01*
X100015312Y-49615606D01*
X100018342Y-49622921D01*
X100019896Y-49630691D01*
X100024258Y-49637204D01*
X100027257Y-49644445D01*
X100032857Y-49650045D01*
X100037265Y-49656627D01*
X100049266Y-49666454D01*
X100049329Y-49666517D01*
X100049356Y-49666528D01*
X100049399Y-49666563D01*
X100157093Y-49738359D01*
X100218502Y-49799769D01*
X100250792Y-49864348D01*
X100259146Y-49877620D01*
X100282727Y-49898072D01*
X100312340Y-49907943D01*
X100343476Y-49905730D01*
X100371395Y-49891771D01*
X100391847Y-49868190D01*
X100401718Y-49838577D01*
X100399505Y-49807441D01*
X100393900Y-49792794D01*
X100355805Y-49716603D01*
X100351576Y-49709884D01*
X100350768Y-49707934D01*
X100348966Y-49705739D01*
X100347451Y-49703331D01*
X100345853Y-49701945D01*
X100340819Y-49695811D01*
X100325007Y-49679999D01*
X100813775Y-49679999D01*
X100813775Y-49828571D01*
X100815312Y-49844178D01*
X100827257Y-49873017D01*
X100849329Y-49895089D01*
X100878168Y-49907034D01*
X100909382Y-49907034D01*
X100938221Y-49895089D01*
X100960293Y-49873017D01*
X100972238Y-49844178D01*
X100973775Y-49828571D01*
X100973775Y-49371428D01*
X100972238Y-49355821D01*
X100960293Y-49326982D01*
X100938221Y-49304910D01*
X100909382Y-49292965D01*
X100878168Y-49292965D01*
X100849329Y-49304910D01*
X100827257Y-49326982D01*
X100815312Y-49355821D01*
X100813775Y-49371428D01*
X100813775Y-49519999D01*
X100093775Y-49519999D01*
X100093722Y-49520004D01*
X100093692Y-49519998D01*
X100093601Y-49520016D01*
X100078168Y-49521536D01*
X100070852Y-49524566D01*
X100063083Y-49526120D01*
X100056569Y-49530482D01*
X100049329Y-49533481D01*
X100043728Y-49539081D01*
X100037147Y-49543489D01*
X100032799Y-49550010D01*
X100027257Y-49555553D01*
X100024225Y-49562871D01*
X100019833Y-49569461D01*
X100018311Y-49577150D01*
X100015312Y-49584392D01*
X100015312Y-49592309D01*
X100013774Y-49600082D01*
X99924885Y-49600082D01*
X99924885Y-49204076D01*
X101062664Y-49204076D01*
X101062664Y-50759364D01*
G37*
D16*
%TO.C,C2*%
X103919000Y-44570000D02*
X103919000Y-43830000D01*
X103959000Y-44737000D02*
X103959000Y-43663000D01*
X103999000Y-44864000D02*
X103999000Y-43536000D01*
X104039000Y-44968000D02*
X104039000Y-43432000D01*
X104079000Y-45059000D02*
X104079000Y-43341000D01*
X104119000Y-45140000D02*
X104119000Y-43260000D01*
X104159000Y-45213000D02*
X104159000Y-43187000D01*
X104199000Y-43360000D02*
X104199000Y-43120000D01*
X104199000Y-45280000D02*
X104199000Y-45040000D01*
X104239000Y-43360000D02*
X104239000Y-43058000D01*
X104239000Y-45342000D02*
X104239000Y-45040000D01*
X104279000Y-43360000D02*
X104279000Y-43000000D01*
X104279000Y-45400000D02*
X104279000Y-45040000D01*
X104319000Y-43360000D02*
X104319000Y-42946000D01*
X104319000Y-45454000D02*
X104319000Y-45040000D01*
X104359000Y-43360000D02*
X104359000Y-42896000D01*
X104359000Y-45504000D02*
X104359000Y-45040000D01*
X104399000Y-43360000D02*
X104399000Y-42849000D01*
X104399000Y-45551000D02*
X104399000Y-45040000D01*
X104439000Y-43360000D02*
X104439000Y-42804000D01*
X104439000Y-45596000D02*
X104439000Y-45040000D01*
X104479000Y-43360000D02*
X104479000Y-42762000D01*
X104479000Y-45638000D02*
X104479000Y-45040000D01*
X104519000Y-43360000D02*
X104519000Y-42722000D01*
X104519000Y-45678000D02*
X104519000Y-45040000D01*
X104559000Y-43360000D02*
X104559000Y-42684000D01*
X104559000Y-45716000D02*
X104559000Y-45040000D01*
X104599000Y-43360000D02*
X104599000Y-42648000D01*
X104599000Y-45752000D02*
X104599000Y-45040000D01*
X104639000Y-43360000D02*
X104639000Y-42613000D01*
X104639000Y-45787000D02*
X104639000Y-45040000D01*
X104679000Y-43360000D02*
X104679000Y-42581000D01*
X104679000Y-45819000D02*
X104679000Y-45040000D01*
X104719000Y-43360000D02*
X104719000Y-42550000D01*
X104719000Y-45850000D02*
X104719000Y-45040000D01*
X104759000Y-43360000D02*
X104759000Y-42520000D01*
X104759000Y-45880000D02*
X104759000Y-45040000D01*
X104799000Y-43360000D02*
X104799000Y-42492000D01*
X104799000Y-45908000D02*
X104799000Y-45040000D01*
X104839000Y-43360000D02*
X104839000Y-42465000D01*
X104839000Y-45935000D02*
X104839000Y-45040000D01*
X104879000Y-43360000D02*
X104879000Y-42440000D01*
X104879000Y-45960000D02*
X104879000Y-45040000D01*
X104919000Y-43360000D02*
X104919000Y-42415000D01*
X104919000Y-45985000D02*
X104919000Y-45040000D01*
X104959000Y-43360000D02*
X104959000Y-42392000D01*
X104959000Y-46008000D02*
X104959000Y-45040000D01*
X104999000Y-43360000D02*
X104999000Y-42370000D01*
X104999000Y-46030000D02*
X104999000Y-45040000D01*
X105039000Y-43360000D02*
X105039000Y-42349000D01*
X105039000Y-46051000D02*
X105039000Y-45040000D01*
X105079000Y-43360000D02*
X105079000Y-42330000D01*
X105079000Y-46070000D02*
X105079000Y-45040000D01*
X105119000Y-43360000D02*
X105119000Y-42311000D01*
X105119000Y-46089000D02*
X105119000Y-45040000D01*
X105159000Y-43360000D02*
X105159000Y-42293000D01*
X105159000Y-46107000D02*
X105159000Y-45040000D01*
X105199000Y-43360000D02*
X105199000Y-42276000D01*
X105199000Y-46124000D02*
X105199000Y-45040000D01*
X105239000Y-43360000D02*
X105239000Y-42260000D01*
X105239000Y-46140000D02*
X105239000Y-45040000D01*
X105279000Y-43360000D02*
X105279000Y-42246000D01*
X105279000Y-46154000D02*
X105279000Y-45040000D01*
X105320000Y-43360000D02*
X105320000Y-42232000D01*
X105320000Y-46168000D02*
X105320000Y-45040000D01*
X105360000Y-43360000D02*
X105360000Y-42218000D01*
X105360000Y-46182000D02*
X105360000Y-45040000D01*
X105400000Y-43360000D02*
X105400000Y-42206000D01*
X105400000Y-46194000D02*
X105400000Y-45040000D01*
X105440000Y-43360000D02*
X105440000Y-42195000D01*
X105440000Y-46205000D02*
X105440000Y-45040000D01*
X105480000Y-43360000D02*
X105480000Y-42184000D01*
X105480000Y-46216000D02*
X105480000Y-45040000D01*
X105520000Y-43360000D02*
X105520000Y-42175000D01*
X105520000Y-46225000D02*
X105520000Y-45040000D01*
X105560000Y-43360000D02*
X105560000Y-42166000D01*
X105560000Y-46234000D02*
X105560000Y-45040000D01*
X105600000Y-43360000D02*
X105600000Y-42158000D01*
X105600000Y-46242000D02*
X105600000Y-45040000D01*
X105640000Y-43360000D02*
X105640000Y-42150000D01*
X105640000Y-46250000D02*
X105640000Y-45040000D01*
X105680000Y-43360000D02*
X105680000Y-42144000D01*
X105680000Y-46256000D02*
X105680000Y-45040000D01*
X105720000Y-43360000D02*
X105720000Y-42138000D01*
X105720000Y-46262000D02*
X105720000Y-45040000D01*
X105760000Y-43360000D02*
X105760000Y-42133000D01*
X105760000Y-46267000D02*
X105760000Y-45040000D01*
X105800000Y-43360000D02*
X105800000Y-42129000D01*
X105800000Y-46271000D02*
X105800000Y-45040000D01*
X105840000Y-46274000D02*
X105840000Y-42126000D01*
X105880000Y-46277000D02*
X105880000Y-42123000D01*
X105920000Y-46279000D02*
X105920000Y-42121000D01*
X105960000Y-46280000D02*
X105960000Y-42120000D01*
X106000000Y-46280000D02*
X106000000Y-42120000D01*
X108069801Y-45595000D02*
X108069801Y-45195000D01*
X108269801Y-45395000D02*
X107869801Y-45395000D01*
X108120000Y-44200000D02*
G75*
G02*
X103880000Y-44200000I-2120000J0D01*
G01*
X103880000Y-44200000D02*
G75*
G02*
X108120000Y-44200000I2120000J0D01*
G01*
%TO.C,D2*%
X94540000Y-53865000D02*
X94540000Y-57035000D01*
X94540000Y-57035000D02*
X98600000Y-57035000D01*
X98600000Y-53865000D02*
X94540000Y-53865000D01*
%TO.C,C4*%
X88540000Y-48590000D02*
X88540000Y-49290000D01*
X88540000Y-52110000D02*
X88540000Y-51410000D01*
X91170563Y-48590000D02*
X88540000Y-48590000D01*
X91170563Y-52110000D02*
X88540000Y-52110000D01*
X91870563Y-49290000D02*
X91170563Y-48590000D01*
X91870563Y-51410000D02*
X91170563Y-52110000D01*
X92487500Y-51972500D02*
X92487500Y-51597500D01*
X92675000Y-51785000D02*
X92300000Y-51785000D01*
D14*
%TO.C,J9*%
X81280000Y-58770000D02*
X81280000Y-68930000D01*
X81280000Y-58770000D02*
X88900000Y-58770000D01*
X81280000Y-68930000D02*
X88900000Y-68930000D01*
X83820000Y-63860000D02*
X88900000Y-63850000D01*
X86360000Y-58770000D02*
X81280000Y-58770000D01*
X86360000Y-68930000D02*
X86360000Y-58770000D01*
X88900000Y-68930000D02*
X88900000Y-58770000D01*
D16*
%TO.C,J1*%
X111980000Y-41130000D02*
X111980000Y-47545000D01*
X111980000Y-41130000D02*
X130220000Y-41130000D01*
X111980000Y-47545000D02*
X111600000Y-47545000D01*
X111980000Y-66090000D02*
X111980000Y-66870000D01*
X111980000Y-66870000D02*
X112980000Y-66870000D01*
X130220000Y-41130000D02*
X130220000Y-47545000D01*
X130220000Y-66090000D02*
X130220000Y-66870000D01*
X130220000Y-66870000D02*
X129220000Y-66870000D01*
D14*
X103320000Y-79850000D02*
X138880000Y-79850000D01*
X138880000Y-26510000D01*
X103320000Y-26510000D01*
X103320000Y-79850000D01*
D16*
%TO.C,C9*%
X88640000Y-54290000D02*
X88640000Y-54990000D01*
X88640000Y-57810000D02*
X88640000Y-57110000D01*
X91270563Y-54290000D02*
X88640000Y-54290000D01*
X91270563Y-57810000D02*
X88640000Y-57810000D01*
X91970563Y-54990000D02*
X91270563Y-54290000D01*
X91970563Y-57110000D02*
X91270563Y-57810000D01*
X92587500Y-57672500D02*
X92587500Y-57297500D01*
X92775000Y-57485000D02*
X92400000Y-57485000D01*
%TO.C,J2*%
X93695000Y-44120000D02*
X93695000Y-46720000D01*
X93695000Y-44120000D02*
X96355000Y-44120000D01*
X93695000Y-46720000D02*
X96355000Y-46720000D01*
X95025000Y-41520000D02*
X96355000Y-41520000D01*
X96355000Y-41520000D02*
X96355000Y-42850000D01*
X96355000Y-44120000D02*
X96355000Y-46720000D01*
%TO.C,J6*%
X114870000Y-74895000D02*
X116200000Y-74895000D01*
X114870000Y-76225000D02*
X114870000Y-74895000D01*
X117470000Y-74895000D02*
X125150000Y-74895000D01*
X117470000Y-77555000D02*
X117470000Y-74895000D01*
X117470000Y-77555000D02*
X125150000Y-77555000D01*
X125150000Y-77555000D02*
X125150000Y-74895000D01*
%TO.C,U3*%
X115640000Y-48815000D02*
X115640000Y-69255000D01*
X115640000Y-69255000D02*
X117290000Y-69255000D01*
X119290000Y-69255000D02*
X120940000Y-69255000D01*
X120940000Y-48815000D02*
X115640000Y-48815000D01*
X120940000Y-69255000D02*
X120940000Y-48815000D01*
X117290000Y-69255000D02*
G75*
G02*
X119290000Y-69255000I1000000J0D01*
G01*
%TO.C,J10*%
X131590000Y-67920000D02*
X132920000Y-67920000D01*
X131590000Y-69250000D02*
X131590000Y-67920000D01*
X134190000Y-67920000D02*
X141870000Y-67920000D01*
X134190000Y-70580000D02*
X134190000Y-67920000D01*
X134190000Y-70580000D02*
X141870000Y-70580000D01*
X141870000Y-70580000D02*
X141870000Y-67920000D01*
%TO.C,C5*%
X126240000Y-64590000D02*
X126240000Y-65290000D01*
X126240000Y-68110000D02*
X126240000Y-67410000D01*
X128870563Y-64590000D02*
X126240000Y-64590000D01*
X128870563Y-68110000D02*
X126240000Y-68110000D01*
X129570563Y-65290000D02*
X128870563Y-64590000D01*
X129570563Y-67410000D02*
X128870563Y-68110000D01*
X130187500Y-67972500D02*
X130187500Y-67597500D01*
X130375000Y-67785000D02*
X130000000Y-67785000D01*
%TO.C,C3*%
X98230199Y-43005000D02*
X98630199Y-43005000D01*
X98430199Y-42805000D02*
X98430199Y-43205000D01*
X100500000Y-42120000D02*
X100500000Y-46280000D01*
X100540000Y-42120000D02*
X100540000Y-46280000D01*
X100580000Y-42121000D02*
X100580000Y-46279000D01*
X100620000Y-42123000D02*
X100620000Y-46277000D01*
X100660000Y-42126000D02*
X100660000Y-46274000D01*
X100700000Y-42129000D02*
X100700000Y-43360000D01*
X100700000Y-45040000D02*
X100700000Y-46271000D01*
X100740000Y-42133000D02*
X100740000Y-43360000D01*
X100740000Y-45040000D02*
X100740000Y-46267000D01*
X100780000Y-42138000D02*
X100780000Y-43360000D01*
X100780000Y-45040000D02*
X100780000Y-46262000D01*
X100820000Y-42144000D02*
X100820000Y-43360000D01*
X100820000Y-45040000D02*
X100820000Y-46256000D01*
X100860000Y-42150000D02*
X100860000Y-43360000D01*
X100860000Y-45040000D02*
X100860000Y-46250000D01*
X100900000Y-42158000D02*
X100900000Y-43360000D01*
X100900000Y-45040000D02*
X100900000Y-46242000D01*
X100940000Y-42166000D02*
X100940000Y-43360000D01*
X100940000Y-45040000D02*
X100940000Y-46234000D01*
X100980000Y-42175000D02*
X100980000Y-43360000D01*
X100980000Y-45040000D02*
X100980000Y-46225000D01*
X101020000Y-42184000D02*
X101020000Y-43360000D01*
X101020000Y-45040000D02*
X101020000Y-46216000D01*
X101060000Y-42195000D02*
X101060000Y-43360000D01*
X101060000Y-45040000D02*
X101060000Y-46205000D01*
X101100000Y-42206000D02*
X101100000Y-43360000D01*
X101100000Y-45040000D02*
X101100000Y-46194000D01*
X101140000Y-42218000D02*
X101140000Y-43360000D01*
X101140000Y-45040000D02*
X101140000Y-46182000D01*
X101180000Y-42232000D02*
X101180000Y-43360000D01*
X101180000Y-45040000D02*
X101180000Y-46168000D01*
X101221000Y-42246000D02*
X101221000Y-43360000D01*
X101221000Y-45040000D02*
X101221000Y-46154000D01*
X101261000Y-42260000D02*
X101261000Y-43360000D01*
X101261000Y-45040000D02*
X101261000Y-46140000D01*
X101301000Y-42276000D02*
X101301000Y-43360000D01*
X101301000Y-45040000D02*
X101301000Y-46124000D01*
X101341000Y-42293000D02*
X101341000Y-43360000D01*
X101341000Y-45040000D02*
X101341000Y-46107000D01*
X101381000Y-42311000D02*
X101381000Y-43360000D01*
X101381000Y-45040000D02*
X101381000Y-46089000D01*
X101421000Y-42330000D02*
X101421000Y-43360000D01*
X101421000Y-45040000D02*
X101421000Y-46070000D01*
X101461000Y-42349000D02*
X101461000Y-43360000D01*
X101461000Y-45040000D02*
X101461000Y-46051000D01*
X101501000Y-42370000D02*
X101501000Y-43360000D01*
X101501000Y-45040000D02*
X101501000Y-46030000D01*
X101541000Y-42392000D02*
X101541000Y-43360000D01*
X101541000Y-45040000D02*
X101541000Y-46008000D01*
X101581000Y-42415000D02*
X101581000Y-43360000D01*
X101581000Y-45040000D02*
X101581000Y-45985000D01*
X101621000Y-42440000D02*
X101621000Y-43360000D01*
X101621000Y-45040000D02*
X101621000Y-45960000D01*
X101661000Y-42465000D02*
X101661000Y-43360000D01*
X101661000Y-45040000D02*
X101661000Y-45935000D01*
X101701000Y-42492000D02*
X101701000Y-43360000D01*
X101701000Y-45040000D02*
X101701000Y-45908000D01*
X101741000Y-42520000D02*
X101741000Y-43360000D01*
X101741000Y-45040000D02*
X101741000Y-45880000D01*
X101781000Y-42550000D02*
X101781000Y-43360000D01*
X101781000Y-45040000D02*
X101781000Y-45850000D01*
X101821000Y-42581000D02*
X101821000Y-43360000D01*
X101821000Y-45040000D02*
X101821000Y-45819000D01*
X101861000Y-42613000D02*
X101861000Y-43360000D01*
X101861000Y-45040000D02*
X101861000Y-45787000D01*
X101901000Y-42648000D02*
X101901000Y-43360000D01*
X101901000Y-45040000D02*
X101901000Y-45752000D01*
X101941000Y-42684000D02*
X101941000Y-43360000D01*
X101941000Y-45040000D02*
X101941000Y-45716000D01*
X101981000Y-42722000D02*
X101981000Y-43360000D01*
X101981000Y-45040000D02*
X101981000Y-45678000D01*
X102021000Y-42762000D02*
X102021000Y-43360000D01*
X102021000Y-45040000D02*
X102021000Y-45638000D01*
X102061000Y-42804000D02*
X102061000Y-43360000D01*
X102061000Y-45040000D02*
X102061000Y-45596000D01*
X102101000Y-42849000D02*
X102101000Y-43360000D01*
X102101000Y-45040000D02*
X102101000Y-45551000D01*
X102141000Y-42896000D02*
X102141000Y-43360000D01*
X102141000Y-45040000D02*
X102141000Y-45504000D01*
X102181000Y-42946000D02*
X102181000Y-43360000D01*
X102181000Y-45040000D02*
X102181000Y-45454000D01*
X102221000Y-43000000D02*
X102221000Y-43360000D01*
X102221000Y-45040000D02*
X102221000Y-45400000D01*
X102261000Y-43058000D02*
X102261000Y-43360000D01*
X102261000Y-45040000D02*
X102261000Y-45342000D01*
X102301000Y-43120000D02*
X102301000Y-43360000D01*
X102301000Y-45040000D02*
X102301000Y-45280000D01*
X102341000Y-43187000D02*
X102341000Y-45213000D01*
X102381000Y-43260000D02*
X102381000Y-45140000D01*
X102421000Y-43341000D02*
X102421000Y-45059000D01*
X102461000Y-43432000D02*
X102461000Y-44968000D01*
X102501000Y-43536000D02*
X102501000Y-44864000D01*
X102541000Y-43663000D02*
X102541000Y-44737000D01*
X102581000Y-43830000D02*
X102581000Y-44570000D01*
X102620000Y-44200000D02*
G75*
G02*
X98380000Y-44200000I-2120000J0D01*
G01*
X98380000Y-44200000D02*
G75*
G02*
X102620000Y-44200000I2120000J0D01*
G01*
%TO.C,C8*%
X94425000Y-59615000D02*
X94800000Y-59615000D01*
X94612500Y-59427500D02*
X94612500Y-59802500D01*
X95229437Y-59990000D02*
X95929437Y-59290000D01*
X95229437Y-62110000D02*
X95929437Y-62810000D01*
X95929437Y-59290000D02*
X98560000Y-59290000D01*
X95929437Y-62810000D02*
X98560000Y-62810000D01*
X98560000Y-59290000D02*
X98560000Y-59990000D01*
X98560000Y-62810000D02*
X98560000Y-62110000D01*
%TO.C,J5*%
X100970000Y-67520000D02*
X100970000Y-64920000D01*
X100970000Y-70120000D02*
X100970000Y-68790000D01*
X102300000Y-70120000D02*
X100970000Y-70120000D01*
X103630000Y-64920000D02*
X100970000Y-64920000D01*
X103630000Y-67520000D02*
X100970000Y-67520000D01*
X103630000Y-67520000D02*
X103630000Y-64920000D01*
%TO.C,J14*%
X124830000Y-45780000D02*
X124830000Y-43180000D01*
X124830000Y-48320000D02*
X124830000Y-45720000D01*
X124830000Y-50860000D02*
X124830000Y-48260000D01*
X127370000Y-45780000D02*
X127370000Y-43180000D01*
X127370000Y-48320000D02*
X127370000Y-45720000D01*
X127370000Y-50860000D02*
X127370000Y-48260000D01*
X127490000Y-43180000D02*
X124830000Y-43180000D01*
X127490000Y-45720000D02*
X124830000Y-45720000D01*
X127490000Y-45780000D02*
X124830000Y-45780000D01*
X127490000Y-45780000D02*
X127490000Y-43180000D01*
X127490000Y-48260000D02*
X124830000Y-48260000D01*
X127490000Y-48320000D02*
X124830000Y-48320000D01*
X127490000Y-48320000D02*
X127490000Y-45720000D01*
X127490000Y-50860000D02*
X124830000Y-50860000D01*
X127490000Y-50860000D02*
X127490000Y-48260000D01*
X130030000Y-43180000D02*
X127370000Y-43180000D01*
X130030000Y-45720000D02*
X127370000Y-45720000D01*
X130030000Y-45780000D02*
X127370000Y-45780000D01*
X130030000Y-45780000D02*
X130030000Y-43180000D01*
X130030000Y-48260000D02*
X127370000Y-48260000D01*
X130030000Y-48320000D02*
X127370000Y-48320000D01*
X130030000Y-48320000D02*
X130030000Y-45720000D01*
X130030000Y-50860000D02*
X128700000Y-50860000D01*
X130030000Y-50860000D02*
X130030000Y-49590000D01*
%TO.C,C1*%
X88120000Y-43260000D02*
X92280000Y-43260000D01*
X88120000Y-43300000D02*
X92280000Y-43300000D01*
X88121000Y-43220000D02*
X92279000Y-43220000D01*
X88123000Y-43180000D02*
X92277000Y-43180000D01*
X88126000Y-43140000D02*
X92274000Y-43140000D01*
X88129000Y-43100000D02*
X89360000Y-43100000D01*
X88133000Y-43060000D02*
X89360000Y-43060000D01*
X88138000Y-43020000D02*
X89360000Y-43020000D01*
X88144000Y-42980000D02*
X89360000Y-42980000D01*
X88150000Y-42940000D02*
X89360000Y-42940000D01*
X88158000Y-42900000D02*
X89360000Y-42900000D01*
X88166000Y-42860000D02*
X89360000Y-42860000D01*
X88175000Y-42820000D02*
X89360000Y-42820000D01*
X88184000Y-42780000D02*
X89360000Y-42780000D01*
X88195000Y-42740000D02*
X89360000Y-42740000D01*
X88206000Y-42700000D02*
X89360000Y-42700000D01*
X88218000Y-42660000D02*
X89360000Y-42660000D01*
X88232000Y-42620000D02*
X89360000Y-42620000D01*
X88246000Y-42579000D02*
X89360000Y-42579000D01*
X88260000Y-42539000D02*
X89360000Y-42539000D01*
X88276000Y-42499000D02*
X89360000Y-42499000D01*
X88293000Y-42459000D02*
X89360000Y-42459000D01*
X88311000Y-42419000D02*
X89360000Y-42419000D01*
X88330000Y-42379000D02*
X89360000Y-42379000D01*
X88349000Y-42339000D02*
X89360000Y-42339000D01*
X88370000Y-42299000D02*
X89360000Y-42299000D01*
X88392000Y-42259000D02*
X89360000Y-42259000D01*
X88415000Y-42219000D02*
X89360000Y-42219000D01*
X88440000Y-42179000D02*
X89360000Y-42179000D01*
X88465000Y-42139000D02*
X89360000Y-42139000D01*
X88492000Y-42099000D02*
X89360000Y-42099000D01*
X88520000Y-42059000D02*
X89360000Y-42059000D01*
X88550000Y-42019000D02*
X89360000Y-42019000D01*
X88581000Y-41979000D02*
X89360000Y-41979000D01*
X88613000Y-41939000D02*
X89360000Y-41939000D01*
X88648000Y-41899000D02*
X89360000Y-41899000D01*
X88684000Y-41859000D02*
X89360000Y-41859000D01*
X88722000Y-41819000D02*
X89360000Y-41819000D01*
X88762000Y-41779000D02*
X89360000Y-41779000D01*
X88804000Y-41739000D02*
X89360000Y-41739000D01*
X88805000Y-45369801D02*
X89205000Y-45369801D01*
X88849000Y-41699000D02*
X89360000Y-41699000D01*
X88896000Y-41659000D02*
X89360000Y-41659000D01*
X88946000Y-41619000D02*
X89360000Y-41619000D01*
X89000000Y-41579000D02*
X89360000Y-41579000D01*
X89005000Y-45569801D02*
X89005000Y-45169801D01*
X89058000Y-41539000D02*
X89360000Y-41539000D01*
X89120000Y-41499000D02*
X89360000Y-41499000D01*
X89187000Y-41459000D02*
X91213000Y-41459000D01*
X89260000Y-41419000D02*
X91140000Y-41419000D01*
X89341000Y-41379000D02*
X91059000Y-41379000D01*
X89432000Y-41339000D02*
X90968000Y-41339000D01*
X89536000Y-41299000D02*
X90864000Y-41299000D01*
X89663000Y-41259000D02*
X90737000Y-41259000D01*
X89830000Y-41219000D02*
X90570000Y-41219000D01*
X91040000Y-41499000D02*
X91280000Y-41499000D01*
X91040000Y-41539000D02*
X91342000Y-41539000D01*
X91040000Y-41579000D02*
X91400000Y-41579000D01*
X91040000Y-41619000D02*
X91454000Y-41619000D01*
X91040000Y-41659000D02*
X91504000Y-41659000D01*
X91040000Y-41699000D02*
X91551000Y-41699000D01*
X91040000Y-41739000D02*
X91596000Y-41739000D01*
X91040000Y-41779000D02*
X91638000Y-41779000D01*
X91040000Y-41819000D02*
X91678000Y-41819000D01*
X91040000Y-41859000D02*
X91716000Y-41859000D01*
X91040000Y-41899000D02*
X91752000Y-41899000D01*
X91040000Y-41939000D02*
X91787000Y-41939000D01*
X91040000Y-41979000D02*
X91819000Y-41979000D01*
X91040000Y-42019000D02*
X91850000Y-42019000D01*
X91040000Y-42059000D02*
X91880000Y-42059000D01*
X91040000Y-42099000D02*
X91908000Y-42099000D01*
X91040000Y-42139000D02*
X91935000Y-42139000D01*
X91040000Y-42179000D02*
X91960000Y-42179000D01*
X91040000Y-42219000D02*
X91985000Y-42219000D01*
X91040000Y-42259000D02*
X92008000Y-42259000D01*
X91040000Y-42299000D02*
X92030000Y-42299000D01*
X91040000Y-42339000D02*
X92051000Y-42339000D01*
X91040000Y-42379000D02*
X92070000Y-42379000D01*
X91040000Y-42419000D02*
X92089000Y-42419000D01*
X91040000Y-42459000D02*
X92107000Y-42459000D01*
X91040000Y-42499000D02*
X92124000Y-42499000D01*
X91040000Y-42539000D02*
X92140000Y-42539000D01*
X91040000Y-42579000D02*
X92154000Y-42579000D01*
X91040000Y-42620000D02*
X92168000Y-42620000D01*
X91040000Y-42660000D02*
X92182000Y-42660000D01*
X91040000Y-42700000D02*
X92194000Y-42700000D01*
X91040000Y-42740000D02*
X92205000Y-42740000D01*
X91040000Y-42780000D02*
X92216000Y-42780000D01*
X91040000Y-42820000D02*
X92225000Y-42820000D01*
X91040000Y-42860000D02*
X92234000Y-42860000D01*
X91040000Y-42900000D02*
X92242000Y-42900000D01*
X91040000Y-42940000D02*
X92250000Y-42940000D01*
X91040000Y-42980000D02*
X92256000Y-42980000D01*
X91040000Y-43020000D02*
X92262000Y-43020000D01*
X91040000Y-43060000D02*
X92267000Y-43060000D01*
X91040000Y-43100000D02*
X92271000Y-43100000D01*
X92320000Y-43300000D02*
G75*
G02*
X88080000Y-43300000I-2120000J0D01*
G01*
X88080000Y-43300000D02*
G75*
G02*
X92320000Y-43300000I2120000J0D01*
G01*
%TO.C,U7*%
D14*
X90000000Y-78100000D02*
X100000000Y-78100000D01*
X100000000Y-65100000D01*
X90000000Y-65100000D01*
X90000000Y-78100000D01*
X93160147Y-66900000D02*
G75*
G02*
X90439853Y-66900000I-1360147J0D01*
G01*
X90439853Y-66900000D02*
G75*
G02*
X93160147Y-66900000I1360147J0D01*
G01*
D16*
%TO.C,U4*%
X81484000Y-47190000D02*
X81484000Y-57430000D01*
X84615000Y-47190000D02*
X84615000Y-57430000D01*
X86125000Y-47190000D02*
X81484000Y-47190000D01*
X86125000Y-47190000D02*
X86125000Y-57430000D01*
X86125000Y-50460000D02*
X84615000Y-50460000D01*
X86125000Y-54161000D02*
X84615000Y-54161000D01*
X86125000Y-57430000D02*
X81484000Y-57430000D01*
%TO.C,D1*%
X94540000Y-48415000D02*
X94540000Y-51585000D01*
X94540000Y-51585000D02*
X98600000Y-51585000D01*
X98600000Y-48415000D02*
X94540000Y-48415000D01*
D14*
%TO.C,J8*%
X81280000Y-68930000D02*
X81280000Y-79090000D01*
X81280000Y-68930000D02*
X88900000Y-68930000D01*
X81280000Y-79090000D02*
X88900000Y-79090000D01*
X83820000Y-74020000D02*
X88900000Y-74010000D01*
X86360000Y-68930000D02*
X81280000Y-68930000D01*
X86360000Y-79090000D02*
X86360000Y-68930000D01*
X88900000Y-79090000D02*
X88900000Y-68930000D01*
%TD*%
M02*
