M48
; DRILL file {KiCad 8.0.4} date 2024-08-05T13:55:08-0400
; FORMAT={-:-/ absolute / inch / decimal}
; #@! TF.CreationDate,2024-08-05T13:55:08-04:00
; #@! TF.GenerationSoftware,Kicad,Pcbnew,8.0.4
; #@! TF.FileFunction,Plated,1,2,PTH
FMAT,2
INCH
; #@! TA.AperFunction,Plated,PTH,ViaDrill
T1C0.0157
; #@! TA.AperFunction,Plated,PTH,ComponentDrill
T2C0.0236
; #@! TA.AperFunction,Plated,PTH,ComponentDrill
T3C0.0300
; #@! TA.AperFunction,Plated,PTH,ComponentDrill
T4C0.0315
; #@! TA.AperFunction,Plated,PTH,ComponentDrill
T5C0.0394
; #@! TA.AperFunction,Plated,PTH,ComponentDrill
T6C0.0433
%
G90
G05
T1
X3.7559Y-2.0768
X4.0157Y-1.935
T2
X3.5512Y-1.6654
X3.5512Y-1.7441
X3.9173Y-1.7402
X3.9961Y-1.7402
X4.1339Y-1.7402
X4.2126Y-1.7402
T3
X4.1677Y-1.9437
X4.1677Y-2.0437
X4.1677Y-2.1437
X4.1677Y-2.2437
X4.1677Y-2.3437
X4.1677Y-2.4437
X4.1677Y-2.5437
X4.1677Y-2.6437
X4.2677Y-1.9437
X4.2677Y-2.0437
X4.2677Y-2.1437
X4.2677Y-2.2437
X4.2677Y-2.3437
X4.2677Y-2.4437
X4.2677Y-2.5437
X4.2677Y-2.6437
X4.3677Y-2.8437
X4.4677Y-2.8437
X4.5677Y-2.8437
X4.6677Y-2.8437
X4.7677Y-2.8437
X4.8677Y-2.8437
X4.9677Y-2.8437
X5.0677Y-2.8437
X5.1677Y-2.8437
X5.2677Y-1.9437
X5.2677Y-2.0437
X5.2677Y-2.1437
X5.2677Y-2.2437
X5.2677Y-2.3437
X5.2677Y-2.4437
X5.2677Y-2.5437
X5.2677Y-2.8437
X5.3677Y-1.9437
X5.3677Y-2.0437
X5.3677Y-2.1437
X5.3677Y-2.2437
X5.3677Y-2.3437
X5.3677Y-2.4437
X5.3677Y-2.5437
T4
X4.5071Y-1.9742
X4.5071Y-2.0742
X4.5071Y-2.1742
X4.5071Y-2.2742
X4.5071Y-2.3742
X4.5071Y-2.4742
X4.5071Y-2.5742
X4.5071Y-2.6742
X4.8071Y-1.9742
X4.8071Y-2.0742
X4.8071Y-2.1742
X4.8071Y-2.2742
X4.8071Y-2.3742
X4.8071Y-2.4742
X4.8071Y-2.5742
X4.8071Y-2.6742
T5
X3.5913Y-3.0236
X3.6913Y-3.0236
X3.7411Y-1.687
X3.7411Y-1.787
X4.0276Y-2.6083
X4.0276Y-2.7083
X4.5748Y-3.001
X4.6748Y-3.001
X4.7748Y-3.001
X4.8748Y-3.001
X4.9669Y-1.7524
X4.9669Y-1.8524
X4.9669Y-1.9524
X5.0669Y-1.7524
X5.0669Y-1.8524
X5.0669Y-1.9524
X5.2331Y-2.7264
X5.3331Y-2.7264
X5.4331Y-2.7264
X5.5Y-1.9594
X5.5Y-2.0594
X5.5Y-2.1594
X5.5Y-2.2594
X5.5331Y-2.7264
X5.6Y-1.9594
X5.6Y-2.0594
X5.6Y-2.1594
X5.6Y-2.2594
T6
X3.262Y-1.9594
X3.262Y-2.0594
X3.262Y-2.1594
X3.3Y-2.4138
X3.3Y-2.6138
X3.3Y-2.8138
X3.3Y-3.0138
X3.7913Y-3.0236
X3.8913Y-3.0236
M30
