%TF.GenerationSoftware,KiCad,Pcbnew,8.0.4*%
%TF.CreationDate,2024-08-05T13:55:10-04:00*%
%TF.ProjectId,esp32-node-board-40x65_telemetry,65737033-322d-46e6-9f64-652d626f6172,rev?*%
%TF.SameCoordinates,Original*%
%TF.FileFunction,Copper,L1,Top*%
%TF.FilePolarity,Positive*%
%FSLAX46Y46*%
G04 Gerber Fmt 4.6, Leading zero omitted, Abs format (unit mm)*
G04 Created by KiCad (PCBNEW 8.0.4) date 2024-08-05 13:55:10*
%MOMM*%
%LPD*%
G01*
G04 APERTURE LIST*
G04 Aperture macros list*
%AMRoundRect*
0 Rectangle with rounded corners*
0 $1 Rounding radius*
0 $2 $3 $4 $5 $6 $7 $8 $9 X,Y pos of 4 corners*
0 Add a 4 corners polygon primitive as box body*
4,1,4,$2,$3,$4,$5,$6,$7,$8,$9,$2,$3,0*
0 Add four circle primitives for the rounded corners*
1,1,$1+$1,$2,$3*
1,1,$1+$1,$4,$5*
1,1,$1+$1,$6,$7*
1,1,$1+$1,$8,$9*
0 Add four rect primitives between the rounded corners*
20,1,$1+$1,$2,$3,$4,$5,0*
20,1,$1+$1,$4,$5,$6,$7,0*
20,1,$1+$1,$6,$7,$8,$9,0*
20,1,$1+$1,$8,$9,$2,$3,0*%
G04 Aperture macros list end*
%TA.AperFunction,ComponentPad*%
%ADD10R,1.200000X1.200000*%
%TD*%
%TA.AperFunction,ComponentPad*%
%ADD11C,1.200000*%
%TD*%
%TA.AperFunction,SMDPad,CuDef*%
%ADD12RoundRect,0.250001X-0.462499X-1.074999X0.462499X-1.074999X0.462499X1.074999X-0.462499X1.074999X0*%
%TD*%
%TA.AperFunction,SMDPad,CuDef*%
%ADD13R,2.200000X1.600000*%
%TD*%
%TA.AperFunction,ComponentPad*%
%ADD14C,2.000000*%
%TD*%
%TA.AperFunction,ComponentPad*%
%ADD15C,1.524000*%
%TD*%
%TA.AperFunction,ComponentPad*%
%ADD16R,1.700000X1.700000*%
%TD*%
%TA.AperFunction,ComponentPad*%
%ADD17O,1.700000X1.700000*%
%TD*%
%TA.AperFunction,ComponentPad*%
%ADD18R,1.600000X1.600000*%
%TD*%
%TA.AperFunction,ComponentPad*%
%ADD19O,1.600000X1.600000*%
%TD*%
%TA.AperFunction,ComponentPad*%
%ADD20C,1.700000*%
%TD*%
%TA.AperFunction,ComponentPad*%
%ADD21R,1.524000X1.700000*%
%TD*%
%TA.AperFunction,ComponentPad*%
%ADD22R,2.000000X1.905000*%
%TD*%
%TA.AperFunction,ComponentPad*%
%ADD23O,2.000000X1.905000*%
%TD*%
%TA.AperFunction,ViaPad*%
%ADD24C,0.800000*%
%TD*%
%TA.AperFunction,Conductor*%
%ADD25C,0.500000*%
%TD*%
%TA.AperFunction,Conductor*%
%ADD26C,0.250000*%
%TD*%
G04 APERTURE END LIST*
D10*
%TO.P,C2,1*%
%TO.N,+3V3*%
X107000000Y-44200000D03*
D11*
%TO.P,C2,2*%
%TO.N,GND*%
X105000000Y-44200000D03*
%TD*%
D12*
%TO.P,D2,1,K*%
%TO.N,GND*%
X95512500Y-55450000D03*
%TO.P,D2,2,A*%
%TO.N,/GPIO14*%
X98487500Y-55450000D03*
%TD*%
D13*
%TO.P,C4,1*%
%TO.N,/EN*%
X91800000Y-50350000D03*
%TO.P,C4,2*%
%TO.N,GND*%
X88800000Y-50350000D03*
%TD*%
D14*
%TO.P,J9,1,Pin_1*%
%TO.N,GND*%
X83820000Y-61310000D03*
%TO.P,J9,2,Pin_2*%
X83820000Y-66390000D03*
%TD*%
D15*
%TO.P,J1,*%
%TO.N,*%
X105860000Y-67150000D03*
X108400000Y-67150000D03*
%TO.P,J1,1,GND*%
%TO.N,GND*%
X105860000Y-49370000D03*
%TO.P,J1,2,VDD*%
%TO.N,+3V3*%
X108400000Y-49370000D03*
%TO.P,J1,3,EN*%
%TO.N,/EN*%
X105860000Y-51910000D03*
%TO.P,J1,4,SENSOR_VP*%
%TO.N,/GPIO36*%
X108400000Y-51910000D03*
%TO.P,J1,5,SENSOR_VN*%
%TO.N,/GPIO39*%
X105860000Y-54450000D03*
%TO.P,J1,6,IO34*%
%TO.N,/GPIO34*%
X108400000Y-54450000D03*
%TO.P,J1,7,IO35*%
%TO.N,/OUT3*%
X105860000Y-56990000D03*
%TO.P,J1,8,IO32*%
%TO.N,/GPIO32*%
X108400000Y-56990000D03*
%TO.P,J1,9,IO33*%
%TO.N,/GPIO33*%
X105860000Y-59530000D03*
%TO.P,J1,10,IO25*%
%TO.N,/DAC1*%
X108400000Y-59530000D03*
%TO.P,J1,11,IO26*%
%TO.N,/DAC2*%
X105860000Y-62070000D03*
%TO.P,J1,12,IO27*%
%TO.N,/GPIO27*%
X108400000Y-62070000D03*
%TO.P,J1,13,IO14*%
%TO.N,/GPIO14*%
X105860000Y-64610000D03*
%TO.P,J1,14,IO12*%
%TO.N,/OUT2*%
X108400000Y-64610000D03*
%TO.P,J1,15,GND*%
%TO.N,GND*%
X110940000Y-72230000D03*
%TO.P,J1,16,IO13*%
%TO.N,/GPIO13*%
X113480000Y-72230000D03*
%TO.P,J1,17,SD2*%
%TO.N,/SD_DATA2*%
X116020000Y-72230000D03*
%TO.P,J1,18,SD3*%
%TO.N,/SD_DATA3*%
X118560000Y-72230000D03*
%TO.P,J1,19,CMD*%
%TO.N,/SD_CMD*%
X121100000Y-72230000D03*
%TO.P,J1,20,CLK*%
%TO.N,/SD_CLK*%
X123640000Y-72230000D03*
%TO.P,J1,21,SD0*%
%TO.N,/SD_DATA0*%
X126180000Y-72230000D03*
%TO.P,J1,22,SD1*%
%TO.N,/SD_DATA1*%
X128720000Y-72230000D03*
%TO.P,J1,23,IO15*%
%TO.N,/ADC2_CH3*%
X131260000Y-72230000D03*
%TO.P,J1,24,IO2*%
%TO.N,/ADC2_CH2*%
X133800000Y-72230000D03*
%TO.P,J1,25,IO0*%
%TO.N,/BOOT*%
X136340000Y-64610000D03*
%TO.P,J1,26,IO4*%
%TO.N,/ADC2_CH0*%
X133800000Y-64610000D03*
%TO.P,J1,27,IO16*%
%TO.N,/OUT1*%
X136340000Y-62070000D03*
%TO.P,J1,28,IO17*%
%TO.N,/GPIO17*%
X133800000Y-62070000D03*
%TO.P,J1,29,IO5*%
%TO.N,/GPIO5*%
X136340000Y-59530000D03*
%TO.P,J1,30,IO18*%
%TO.N,/GPIO18*%
X133800000Y-59530000D03*
%TO.P,J1,31,IO19*%
%TO.N,/GPIO19*%
X136340000Y-56990000D03*
%TO.P,J1,32*%
%TO.N,N/C*%
X133800000Y-56990000D03*
%TO.P,J1,33,SDA*%
%TO.N,/SDA*%
X136340000Y-54450000D03*
%TO.P,J1,34,RXD0*%
%TO.N,/RXD*%
X133800000Y-54450000D03*
%TO.P,J1,35,TXD0*%
%TO.N,/TXD*%
X136340000Y-51910000D03*
%TO.P,J1,36,SCL*%
%TO.N,/SCL*%
X133800000Y-51910000D03*
%TO.P,J1,37,IO23*%
%TO.N,/GPIO23*%
X136340000Y-49370000D03*
%TO.P,J1,38,GND*%
%TO.N,GND*%
X133800000Y-49370000D03*
%TD*%
D13*
%TO.P,C9,1*%
%TO.N,+3V3*%
X91900000Y-56050000D03*
%TO.P,C9,2*%
%TO.N,GND*%
X88900000Y-56050000D03*
%TD*%
D16*
%TO.P,J2,1,Pin_1*%
%TO.N,GND*%
X95025000Y-42850000D03*
D17*
%TO.P,J2,2,Pin_2*%
%TO.N,/VDC*%
X95025000Y-45390000D03*
%TD*%
D16*
%TO.P,J6,1,Pin_1*%
%TO.N,/SOURCE3*%
X116200000Y-76225000D03*
D17*
%TO.P,J6,2,Pin_2*%
%TO.N,/SOURCE4*%
X118740000Y-76225000D03*
%TO.P,J6,3,Pin_3*%
%TO.N,/SOURCE5*%
X121280000Y-76225000D03*
%TO.P,J6,4,Pin_4*%
%TO.N,GND*%
X123820000Y-76225000D03*
%TD*%
D18*
%TO.P,U3,1,I1*%
%TO.N,/GPIO17*%
X122100000Y-67925000D03*
D19*
%TO.P,U3,2,I2*%
%TO.N,/GPIO5*%
X122100000Y-65385000D03*
%TO.P,U3,3,I3*%
%TO.N,/GPIO18*%
X122100000Y-62845000D03*
%TO.P,U3,4,I4*%
%TO.N,/GPIO19*%
X122100000Y-60305000D03*
%TO.P,U3,5,I5*%
X122100000Y-57765000D03*
%TO.P,U3,6,I6*%
%TO.N,/GPIO23*%
X122100000Y-55225000D03*
%TO.P,U3,7,I7*%
X122100000Y-52685000D03*
%TO.P,U3,8,GND*%
%TO.N,GND*%
X122100000Y-50145000D03*
%TO.P,U3,9,COM*%
%TO.N,+5V*%
X114480000Y-50145000D03*
%TO.P,U3,10,O7*%
%TO.N,/SOURCE2*%
X114480000Y-52685000D03*
%TO.P,U3,11,O6*%
X114480000Y-55225000D03*
%TO.P,U3,12,O5*%
%TO.N,/SOURCE1*%
X114480000Y-57765000D03*
%TO.P,U3,13,O4*%
X114480000Y-60305000D03*
%TO.P,U3,14,O3*%
%TO.N,/SOURCE5*%
X114480000Y-62845000D03*
%TO.P,U3,15,O2*%
%TO.N,/SOURCE4*%
X114480000Y-65385000D03*
%TO.P,U3,16,O1*%
%TO.N,/SOURCE3*%
X114480000Y-67925000D03*
%TD*%
D16*
%TO.P,J10,1,Pin_1*%
%TO.N,/ADC2_CH3*%
X132920000Y-69250000D03*
D17*
%TO.P,J10,2,Pin_2*%
%TO.N,/ADC2_CH2*%
X135460000Y-69250000D03*
%TO.P,J10,3,Pin_3*%
%TO.N,/ADC2_CH0*%
X138000000Y-69250000D03*
%TO.P,J10,4,Pin_4*%
%TO.N,GND*%
X140540000Y-69250000D03*
%TD*%
D13*
%TO.P,C5,1*%
%TO.N,/BOOT*%
X129500000Y-66350000D03*
%TO.P,C5,2*%
%TO.N,GND*%
X126500000Y-66350000D03*
%TD*%
D10*
%TO.P,C3,1*%
%TO.N,+5V*%
X99500000Y-44200000D03*
D11*
%TO.P,C3,2*%
%TO.N,GND*%
X101500000Y-44200000D03*
%TD*%
D13*
%TO.P,C8,1*%
%TO.N,+3V3*%
X95300000Y-61050000D03*
%TO.P,C8,2*%
%TO.N,GND*%
X98300000Y-61050000D03*
%TD*%
D16*
%TO.P,J5,1,Pin_1*%
%TO.N,/DAC1*%
X102300000Y-68790000D03*
D17*
%TO.P,J5,2,Pin_2*%
%TO.N,/DAC2*%
X102300000Y-66250000D03*
%TD*%
D16*
%TO.P,J14,1,1*%
%TO.N,/GPIO18*%
X128700000Y-49590000D03*
D17*
%TO.P,J14,2,2*%
%TO.N,/GPIO5*%
X128700000Y-47050000D03*
%TO.P,J14,3,3*%
%TO.N,GND*%
X128700000Y-44510000D03*
%TO.P,J14,4,4*%
%TO.N,/GPIO17*%
X126160000Y-49590000D03*
%TO.P,J14,5,5*%
%TO.N,/GPIO23*%
X126160000Y-47050000D03*
%TO.P,J14,6,6*%
%TO.N,/GPIO19*%
X126160000Y-44510000D03*
%TD*%
D20*
%TO.P,J3,3V3,3V3*%
%TO.N,+3V3*%
X139700000Y-52310000D03*
%TO.P,J3,GND,GND*%
%TO.N,GND*%
X139700000Y-49770000D03*
%TO.P,J3,RXD,RXD*%
%TO.N,/RXD*%
X139700000Y-57390000D03*
%TO.P,J3,TXD,TXD*%
%TO.N,/TXD*%
X139700000Y-54850000D03*
%TD*%
D10*
%TO.P,C1,1*%
%TO.N,/VIN*%
X90200000Y-44300000D03*
D11*
%TO.P,C1,2*%
%TO.N,GND*%
X90200000Y-42300000D03*
%TD*%
D21*
%TO.P,U7,1,VDD*%
%TO.N,+3V3*%
X91220000Y-76800000D03*
D20*
%TO.P,U7,2,GND*%
%TO.N,GND*%
X93760000Y-76800000D03*
%TO.P,U7,3,SCL*%
%TO.N,/SCL*%
X96300000Y-76800000D03*
%TO.P,U7,4,SDA*%
%TO.N,/SDA*%
X98840000Y-76800000D03*
%TD*%
D22*
%TO.P,U4,1,IN*%
%TO.N,/VIN*%
X82855000Y-49770000D03*
D23*
%TO.P,U4,2,GND*%
%TO.N,GND*%
X82855000Y-52310000D03*
%TO.P,U4,3,OUT*%
%TO.N,+5V*%
X82855000Y-54850000D03*
%TD*%
D20*
%TO.P,J4,GND,GND*%
%TO.N,GND*%
X142240000Y-49770000D03*
%TO.P,J4,SCL,SCL*%
%TO.N,/SCL*%
X142240000Y-57390000D03*
%TO.P,J4,SDA,SDA*%
%TO.N,/SDA*%
X142240000Y-54850000D03*
%TO.P,J4,Vcc,VCC*%
%TO.N,+3V3*%
X142240000Y-52310000D03*
%TD*%
D12*
%TO.P,D1,1,K*%
%TO.N,GND*%
X95512500Y-50000000D03*
%TO.P,D1,2,A*%
%TO.N,+3V3*%
X98487500Y-50000000D03*
%TD*%
D14*
%TO.P,J8,1,Pin_1*%
%TO.N,/SOURCE2*%
X83820000Y-71470000D03*
%TO.P,J8,2,Pin_2*%
%TO.N,/SOURCE1*%
X83820000Y-76550000D03*
%TD*%
D24*
%TO.N,+3V3*%
X102000000Y-49150000D03*
%TO.N,/EN*%
X95400000Y-52750000D03*
%TD*%
D25*
%TO.N,GND*%
X84210000Y-66000000D02*
X83820000Y-66390000D01*
D26*
X95500000Y-54862500D02*
X95512500Y-54850000D01*
X95500000Y-55462500D02*
X95512500Y-55450000D01*
D25*
%TO.N,+3V3*%
X91500000Y-59650000D02*
X91900000Y-59250000D01*
X101150000Y-50000000D02*
X102000000Y-49150000D01*
X94630000Y-62620000D02*
X91500000Y-62620000D01*
X91900000Y-59250000D02*
X91900000Y-56050000D01*
X98487500Y-50000000D02*
X101150000Y-50000000D01*
X95300000Y-61050000D02*
X95300000Y-61950000D01*
X95300000Y-61950000D02*
X94630000Y-62620000D01*
X91500000Y-62620000D02*
X91500000Y-59650000D01*
%TO.N,+5V*%
X99500000Y-45693413D02*
X99500000Y-44200000D01*
X111200000Y-46850000D02*
X100365867Y-46850000D01*
X98637500Y-46962500D02*
X99212500Y-46387500D01*
X100365867Y-46850000D02*
X99465867Y-45950000D01*
X112000000Y-47650000D02*
X111200000Y-46850000D01*
X112000000Y-49150000D02*
X112000000Y-47650000D01*
X88100000Y-47250000D02*
X97943413Y-47250000D01*
X84900000Y-54850000D02*
X85400000Y-54350000D01*
X85400000Y-54350000D02*
X85400000Y-49950000D01*
X114480000Y-50145000D02*
X112995000Y-50145000D01*
X112995000Y-50145000D02*
X112000000Y-49150000D01*
X82855000Y-54850000D02*
X84900000Y-54850000D01*
X85400000Y-49950000D02*
X88100000Y-47250000D01*
X97943413Y-47250000D02*
G75*
G03*
X98637496Y-46962496I-13J981600D01*
G01*
X99500000Y-45693413D02*
G75*
G02*
X99212496Y-46387496I-981600J13D01*
G01*
D26*
%TO.N,/RXD*%
X139700000Y-57350000D02*
X139700000Y-57390000D01*
X140300000Y-57450000D02*
X139300000Y-57450000D01*
X139040000Y-57390000D02*
X139700000Y-57390000D01*
%TO.N,/TXD*%
X138000000Y-52250000D02*
X137572500Y-51822500D01*
X139700000Y-54850000D02*
X138300000Y-54850000D01*
X137572500Y-51822500D02*
X136340000Y-51822500D01*
X138000000Y-54550000D02*
X138000000Y-52250000D01*
X138300000Y-54850000D02*
X138000000Y-54550000D01*
X139700000Y-54850000D02*
X139500000Y-54850000D01*
%TO.N,/SDA*%
X142240000Y-54850000D02*
X142240000Y-55510000D01*
%TO.N,/SCL*%
X135100000Y-55150000D02*
X135600000Y-55650000D01*
X133800000Y-51822500D02*
X135100000Y-53122500D01*
X141603604Y-57390000D02*
X142240000Y-57390000D01*
X137300000Y-55650000D02*
X137800000Y-56150000D01*
X135100000Y-53122500D02*
X135100000Y-55150000D01*
X135600000Y-55650000D02*
X137300000Y-55650000D01*
X140363604Y-56150000D02*
X141603604Y-57390000D01*
X137800000Y-56150000D02*
X140363604Y-56150000D01*
%TO.N,/EN*%
X92300000Y-52750000D02*
X91800000Y-52250000D01*
X91800000Y-52250000D02*
X91800000Y-50350000D01*
X95400000Y-52750000D02*
X92300000Y-52750000D01*
D25*
%TO.N,/SOURCE2*%
X83820000Y-71470000D02*
X86370000Y-71470000D01*
X86370000Y-71470000D02*
X88000000Y-73100000D01*
X104950000Y-73100000D02*
X111200000Y-66850000D01*
X114480000Y-55225000D02*
X114480000Y-52685000D01*
X112025000Y-55225000D02*
X114480000Y-55225000D01*
X111200000Y-56050000D02*
X112025000Y-55225000D01*
X88000000Y-73100000D02*
X104950000Y-73100000D01*
X111200000Y-66850000D02*
X111200000Y-56050000D01*
%TO.N,/SOURCE1*%
X112200000Y-67350000D02*
X112200000Y-60950000D01*
X112845000Y-60305000D02*
X114480000Y-60305000D01*
X112200000Y-60950000D02*
X112845000Y-60305000D01*
X86275000Y-76550000D02*
X88075000Y-74750000D01*
X83820000Y-76550000D02*
X86275000Y-76550000D01*
X114480000Y-60305000D02*
X114480000Y-57765000D01*
X104800000Y-74750000D02*
X112200000Y-67350000D01*
X88075000Y-74750000D02*
X104800000Y-74750000D01*
D26*
%TO.N,/GPIO19*%
X120440000Y-44510000D02*
X126160000Y-44510000D01*
X119150000Y-45800000D02*
X120440000Y-44510000D01*
X119150000Y-56900000D02*
X119150000Y-45800000D01*
X122100000Y-57765000D02*
X120015000Y-57765000D01*
X122100000Y-60305000D02*
X122100000Y-57765000D01*
X120015000Y-57765000D02*
X119150000Y-56900000D01*
%TO.N,/GPIO17*%
X130700000Y-61050000D02*
X131720000Y-62070000D01*
X126160000Y-51710000D02*
X130700000Y-56250000D01*
X126160000Y-49590000D02*
X126160000Y-51710000D01*
X131720000Y-62070000D02*
X133800000Y-62070000D01*
X130700000Y-56250000D02*
X130700000Y-61050000D01*
%TO.N,/GPIO5*%
X135060000Y-58250000D02*
X132400000Y-58250000D01*
X132400000Y-58250000D02*
X131600000Y-57450000D01*
X131600000Y-48450000D02*
X130200000Y-47050000D01*
X131600000Y-57450000D02*
X131600000Y-48450000D01*
X130200000Y-47050000D02*
X128700000Y-47050000D01*
X136340000Y-59530000D02*
X135060000Y-58250000D01*
%TO.N,/GPIO18*%
X131150000Y-56063604D02*
X131150000Y-59100000D01*
X128700000Y-53613604D02*
X131150000Y-56063604D01*
X131580000Y-59530000D02*
X133800000Y-59530000D01*
X131150000Y-59100000D02*
X131580000Y-59530000D01*
X128700000Y-49590000D02*
X128700000Y-53613604D01*
%TO.N,/GPIO23*%
X123465000Y-52685000D02*
X123900000Y-52250000D01*
X123900000Y-52250000D02*
X123900000Y-47550000D01*
X122100000Y-52685000D02*
X123465000Y-52685000D01*
X124400000Y-47050000D02*
X126160000Y-47050000D01*
X122100000Y-52685000D02*
X122100000Y-55225000D01*
X123900000Y-47550000D02*
X124400000Y-47050000D01*
%TO.N,/BOOT*%
X129500000Y-66350000D02*
X134512500Y-66350000D01*
X134512500Y-66350000D02*
X136340000Y-64522500D01*
%TO.N,/GPIO14*%
X103600000Y-64550000D02*
X101700000Y-62650000D01*
X101700000Y-56050000D02*
X101100000Y-55450000D01*
X101100000Y-55450000D02*
X98487500Y-55450000D01*
X105832500Y-64550000D02*
X103600000Y-64550000D01*
X101700000Y-62650000D02*
X101700000Y-56050000D01*
X105860000Y-64522500D02*
X105832500Y-64550000D01*
D25*
%TO.N,/VIN*%
X82980000Y-49770000D02*
X82855000Y-49770000D01*
X90200000Y-44300000D02*
X88450000Y-44300000D01*
X88450000Y-44300000D02*
X82980000Y-49770000D01*
%TD*%
%TA.AperFunction,Conductor*%
%TO.N,GND*%
G36*
X141774075Y-49962993D02*
G01*
X141839901Y-50077007D01*
X141932993Y-50170099D01*
X142047007Y-50235925D01*
X142110590Y-50252962D01*
X141478625Y-50884925D01*
X141562421Y-50943599D01*
X141761573Y-51036466D01*
X141814012Y-51082638D01*
X141833164Y-51149832D01*
X141812948Y-51216713D01*
X141759783Y-51262048D01*
X141753968Y-51264472D01*
X141746771Y-51267260D01*
X141724982Y-51275701D01*
X141724980Y-51275702D01*
X141543699Y-51387947D01*
X141386127Y-51531593D01*
X141257632Y-51701746D01*
X141162596Y-51892605D01*
X141162596Y-51892607D01*
X141104244Y-52097689D01*
X141093471Y-52213951D01*
X141067685Y-52278888D01*
X141023130Y-52310804D01*
X141059503Y-52331668D01*
X141091693Y-52393681D01*
X141093470Y-52406047D01*
X141104244Y-52522310D01*
X141139923Y-52647708D01*
X141162596Y-52727392D01*
X141162596Y-52727394D01*
X141257632Y-52918253D01*
X141382996Y-53084260D01*
X141386128Y-53088407D01*
X141543698Y-53232052D01*
X141724981Y-53344298D01*
X141923802Y-53421321D01*
X142120613Y-53458111D01*
X142182893Y-53489779D01*
X142218166Y-53550092D01*
X142215232Y-53619900D01*
X142175023Y-53677040D01*
X142120613Y-53701888D01*
X141923802Y-53738679D01*
X141923799Y-53738679D01*
X141923799Y-53738680D01*
X141724982Y-53815701D01*
X141724980Y-53815702D01*
X141543699Y-53927947D01*
X141386127Y-54071593D01*
X141257632Y-54241746D01*
X141162596Y-54432605D01*
X141162596Y-54432607D01*
X141104244Y-54637689D01*
X141093471Y-54753951D01*
X141067685Y-54818888D01*
X141023130Y-54850804D01*
X141059503Y-54871668D01*
X141091693Y-54933681D01*
X141093471Y-54946048D01*
X141104244Y-55062310D01*
X141162596Y-55267392D01*
X141162596Y-55267394D01*
X141257632Y-55458253D01*
X141382996Y-55624260D01*
X141386128Y-55628407D01*
X141543698Y-55772052D01*
X141724981Y-55884298D01*
X141923802Y-55961321D01*
X142120613Y-55998111D01*
X142182893Y-56029779D01*
X142218166Y-56090092D01*
X142215232Y-56159900D01*
X142175023Y-56217040D01*
X142120613Y-56241888D01*
X141923802Y-56278679D01*
X141923799Y-56278679D01*
X141923799Y-56278680D01*
X141724982Y-56355701D01*
X141724980Y-56355702D01*
X141543699Y-56467947D01*
X141533099Y-56477610D01*
X141499318Y-56508406D01*
X141494977Y-56512363D01*
X141432172Y-56542979D01*
X141362785Y-56534781D01*
X141323758Y-56508406D01*
X140624869Y-55809517D01*
X140624867Y-55809515D01*
X140608387Y-55800000D01*
X140601688Y-55796132D01*
X140553473Y-55745564D01*
X140540252Y-55676957D01*
X140564735Y-55614021D01*
X140682366Y-55458255D01*
X140756430Y-55309513D01*
X140777403Y-55267394D01*
X140777403Y-55267393D01*
X140777405Y-55267389D01*
X140835756Y-55062310D01*
X140846529Y-54946047D01*
X140872315Y-54881111D01*
X140916869Y-54849194D01*
X140880497Y-54828331D01*
X140848307Y-54766318D01*
X140846529Y-54753951D01*
X140842643Y-54712016D01*
X140835756Y-54637690D01*
X140777405Y-54432611D01*
X140777403Y-54432606D01*
X140777403Y-54432605D01*
X140682367Y-54241746D01*
X140553872Y-54071593D01*
X140455678Y-53982077D01*
X140396302Y-53927948D01*
X140215019Y-53815702D01*
X140215017Y-53815701D01*
X140088914Y-53766849D01*
X140016198Y-53738679D01*
X139819385Y-53701888D01*
X139757106Y-53670221D01*
X139721833Y-53609908D01*
X139724767Y-53540100D01*
X139764976Y-53482960D01*
X139819384Y-53458111D01*
X140016198Y-53421321D01*
X140215019Y-53344298D01*
X140396302Y-53232052D01*
X140553872Y-53088407D01*
X140682366Y-52918255D01*
X140730037Y-52822518D01*
X140777403Y-52727394D01*
X140777403Y-52727393D01*
X140777405Y-52727389D01*
X140835756Y-52522310D01*
X140846529Y-52406047D01*
X140872315Y-52341111D01*
X140916869Y-52309194D01*
X140880497Y-52288331D01*
X140848307Y-52226318D01*
X140846529Y-52213951D01*
X140845849Y-52206613D01*
X140835756Y-52097690D01*
X140777405Y-51892611D01*
X140777403Y-51892606D01*
X140777403Y-51892605D01*
X140682367Y-51701746D01*
X140553872Y-51531593D01*
X140528812Y-51508748D01*
X140396302Y-51387948D01*
X140215019Y-51275702D01*
X140215014Y-51275700D01*
X140208129Y-51273032D01*
X140186037Y-51264474D01*
X140130636Y-51221903D01*
X140107045Y-51156136D01*
X140122756Y-51088056D01*
X140172779Y-51039276D01*
X140178427Y-51036466D01*
X140377574Y-50943602D01*
X140377582Y-50943598D01*
X140461373Y-50884926D01*
X140461373Y-50884925D01*
X139829409Y-50252962D01*
X139892993Y-50235925D01*
X140007007Y-50170099D01*
X140100099Y-50077007D01*
X140165925Y-49962993D01*
X140182962Y-49899410D01*
X140814925Y-50531373D01*
X140868425Y-50454968D01*
X140923002Y-50411344D01*
X140992501Y-50404151D01*
X141054855Y-50435673D01*
X141071576Y-50454969D01*
X141125073Y-50531372D01*
X141757037Y-49899409D01*
X141774075Y-49962993D01*
G37*
%TD.AperFunction*%
%TA.AperFunction,Conductor*%
G36*
X143130919Y-40514701D02*
G01*
X143131061Y-40514714D01*
X143141618Y-40514714D01*
X143181366Y-40514714D01*
X143190211Y-40515030D01*
X143227182Y-40517674D01*
X143425930Y-40531887D01*
X143443426Y-40534403D01*
X143670014Y-40583692D01*
X143686986Y-40588676D01*
X143904260Y-40669714D01*
X143920332Y-40677054D01*
X144115351Y-40783542D01*
X144123858Y-40788187D01*
X144138741Y-40797752D01*
X144324369Y-40936711D01*
X144337740Y-40948297D01*
X144501702Y-41112259D01*
X144513288Y-41125630D01*
X144652247Y-41311258D01*
X144661812Y-41326141D01*
X144769431Y-41523231D01*
X144772940Y-41529656D01*
X144780288Y-41545746D01*
X144784355Y-41556649D01*
X144861323Y-41763013D01*
X144866307Y-41779989D01*
X144915594Y-42006564D01*
X144918112Y-42024075D01*
X144934970Y-42259792D01*
X144935286Y-42268638D01*
X144935286Y-78231361D01*
X144934970Y-78240207D01*
X144918112Y-78475924D01*
X144915594Y-78493435D01*
X144866307Y-78720010D01*
X144861323Y-78736986D01*
X144780290Y-78954249D01*
X144772940Y-78970343D01*
X144661812Y-79173858D01*
X144652247Y-79188741D01*
X144513288Y-79374369D01*
X144501702Y-79387740D01*
X144337740Y-79551702D01*
X144324369Y-79563288D01*
X144138741Y-79702247D01*
X144123858Y-79711812D01*
X143920343Y-79822940D01*
X143904249Y-79830290D01*
X143686986Y-79911323D01*
X143670010Y-79916307D01*
X143443435Y-79965594D01*
X143425924Y-79968112D01*
X143230382Y-79982096D01*
X143190205Y-79984970D01*
X143181362Y-79985286D01*
X143131202Y-79985286D01*
X143130899Y-79985312D01*
X112999403Y-79999498D01*
X112999288Y-79999498D01*
X82069305Y-79985310D01*
X82069022Y-79985286D01*
X82058382Y-79985286D01*
X82018649Y-79985286D01*
X82009804Y-79984970D01*
X81774076Y-79968112D01*
X81756564Y-79965594D01*
X81529989Y-79916307D01*
X81513013Y-79911323D01*
X81363673Y-79855623D01*
X81295746Y-79830288D01*
X81279661Y-79822942D01*
X81152742Y-79753639D01*
X81076141Y-79711812D01*
X81061258Y-79702247D01*
X80875630Y-79563288D01*
X80862259Y-79551702D01*
X80698297Y-79387740D01*
X80686711Y-79374369D01*
X80547752Y-79188741D01*
X80538187Y-79173858D01*
X80531226Y-79161110D01*
X80427054Y-78970332D01*
X80419714Y-78954260D01*
X80338676Y-78736986D01*
X80333692Y-78720011D01*
X80333692Y-78720010D01*
X80288902Y-78514110D01*
X80286074Y-78488701D01*
X80263629Y-75488538D01*
X80263628Y-75488323D01*
X80262041Y-71469998D01*
X82514532Y-71469998D01*
X82514532Y-71470001D01*
X82534364Y-71696686D01*
X82534366Y-71696697D01*
X82593258Y-71916488D01*
X82593261Y-71916497D01*
X82689431Y-72122732D01*
X82689432Y-72122734D01*
X82819954Y-72309141D01*
X82980858Y-72470045D01*
X82980861Y-72470047D01*
X83167266Y-72600568D01*
X83373504Y-72696739D01*
X83593308Y-72755635D01*
X83755230Y-72769801D01*
X83819998Y-72775468D01*
X83820000Y-72775468D01*
X83820002Y-72775468D01*
X83876673Y-72770509D01*
X84046692Y-72755635D01*
X84266496Y-72696739D01*
X84472734Y-72600568D01*
X84659139Y-72470047D01*
X84820047Y-72309139D01*
X84950568Y-72122734D01*
X84964855Y-72092093D01*
X85011026Y-72039657D01*
X85077237Y-72020500D01*
X86090613Y-72020500D01*
X86157652Y-72040185D01*
X86178294Y-72056819D01*
X87661985Y-73540510D01*
X87787515Y-73612984D01*
X87927525Y-73650500D01*
X87927526Y-73650500D01*
X87927528Y-73650500D01*
X104821612Y-73650500D01*
X104888651Y-73670185D01*
X104934406Y-73722989D01*
X104944350Y-73792147D01*
X104915325Y-73855703D01*
X104909293Y-73862181D01*
X104608294Y-74163181D01*
X104546971Y-74196666D01*
X104520613Y-74199500D01*
X88002525Y-74199500D01*
X87897517Y-74227637D01*
X87862514Y-74237016D01*
X87736986Y-74309489D01*
X87736983Y-74309491D01*
X86083294Y-75963181D01*
X86021971Y-75996666D01*
X85995613Y-75999500D01*
X85077237Y-75999500D01*
X85010198Y-75979815D01*
X84964855Y-75927906D01*
X84950568Y-75897266D01*
X84820047Y-75710861D01*
X84820045Y-75710858D01*
X84659141Y-75549954D01*
X84472734Y-75419432D01*
X84472732Y-75419431D01*
X84266497Y-75323261D01*
X84266488Y-75323258D01*
X84046697Y-75264366D01*
X84046693Y-75264365D01*
X84046692Y-75264365D01*
X84046691Y-75264364D01*
X84046686Y-75264364D01*
X83820002Y-75244532D01*
X83819998Y-75244532D01*
X83593313Y-75264364D01*
X83593302Y-75264366D01*
X83373511Y-75323258D01*
X83373502Y-75323261D01*
X83167267Y-75419431D01*
X83167265Y-75419432D01*
X82980858Y-75549954D01*
X82819954Y-75710858D01*
X82689432Y-75897265D01*
X82689431Y-75897267D01*
X82593261Y-76103502D01*
X82593258Y-76103511D01*
X82534366Y-76323302D01*
X82534364Y-76323313D01*
X82514532Y-76549998D01*
X82514532Y-76550001D01*
X82534364Y-76776686D01*
X82534366Y-76776697D01*
X82593258Y-76996488D01*
X82593261Y-76996497D01*
X82689431Y-77202732D01*
X82689432Y-77202734D01*
X82819954Y-77389141D01*
X82980858Y-77550045D01*
X82980861Y-77550047D01*
X83167266Y-77680568D01*
X83373504Y-77776739D01*
X83593308Y-77835635D01*
X83755230Y-77849801D01*
X83819998Y-77855468D01*
X83820000Y-77855468D01*
X83820002Y-77855468D01*
X83876673Y-77850509D01*
X84046692Y-77835635D01*
X84266496Y-77776739D01*
X84472734Y-77680568D01*
X84659139Y-77550047D01*
X84820047Y-77389139D01*
X84950568Y-77202734D01*
X84964855Y-77172093D01*
X85011026Y-77119657D01*
X85077237Y-77100500D01*
X86347472Y-77100500D01*
X86347474Y-77100500D01*
X86347475Y-77100500D01*
X86487485Y-77062984D01*
X86513295Y-77048082D01*
X86513297Y-77048082D01*
X86613008Y-76990514D01*
X86613007Y-76990514D01*
X86613015Y-76990510D01*
X88266706Y-75336819D01*
X88328029Y-75303334D01*
X88354387Y-75300500D01*
X93221988Y-75300500D01*
X93289027Y-75320185D01*
X93334782Y-75372989D01*
X93344726Y-75442147D01*
X93315701Y-75505703D01*
X93274393Y-75536882D01*
X93082419Y-75626401D01*
X92998625Y-75685072D01*
X93630590Y-76317037D01*
X93567007Y-76334075D01*
X93452993Y-76399901D01*
X93359901Y-76492993D01*
X93294075Y-76607007D01*
X93277037Y-76670590D01*
X92645072Y-76038625D01*
X92586401Y-76122419D01*
X92518881Y-76267216D01*
X92472708Y-76319655D01*
X92405515Y-76338807D01*
X92338634Y-76318591D01*
X92293299Y-76265426D01*
X92282499Y-76214811D01*
X92282499Y-75905143D01*
X92282499Y-75905136D01*
X92282497Y-75905117D01*
X92279586Y-75880012D01*
X92279585Y-75880010D01*
X92279585Y-75880009D01*
X92234206Y-75777235D01*
X92154765Y-75697794D01*
X92134124Y-75688680D01*
X92051992Y-75652415D01*
X92026865Y-75649500D01*
X90413143Y-75649500D01*
X90413117Y-75649502D01*
X90388012Y-75652413D01*
X90388008Y-75652415D01*
X90285235Y-75697793D01*
X90205794Y-75777234D01*
X90160415Y-75880006D01*
X90160415Y-75880008D01*
X90157500Y-75905131D01*
X90157500Y-77694856D01*
X90157502Y-77694882D01*
X90160413Y-77719987D01*
X90160415Y-77719991D01*
X90205793Y-77822764D01*
X90205794Y-77822765D01*
X90285235Y-77902206D01*
X90388009Y-77947585D01*
X90413135Y-77950500D01*
X92026864Y-77950499D01*
X92026879Y-77950497D01*
X92026882Y-77950497D01*
X92051987Y-77947586D01*
X92051988Y-77947585D01*
X92051991Y-77947585D01*
X92154765Y-77902206D01*
X92234206Y-77822765D01*
X92279585Y-77719991D01*
X92282500Y-77694865D01*
X92282499Y-77385187D01*
X92302183Y-77318151D01*
X92354987Y-77272396D01*
X92424146Y-77262452D01*
X92487701Y-77291477D01*
X92518881Y-77332785D01*
X92586400Y-77477579D01*
X92586402Y-77477583D01*
X92645072Y-77561373D01*
X92645073Y-77561373D01*
X93277037Y-76929409D01*
X93294075Y-76992993D01*
X93359901Y-77107007D01*
X93452993Y-77200099D01*
X93567007Y-77265925D01*
X93630590Y-77282962D01*
X92998625Y-77914925D01*
X93082421Y-77973599D01*
X93296507Y-78073429D01*
X93296516Y-78073433D01*
X93524673Y-78134567D01*
X93524684Y-78134569D01*
X93759998Y-78155157D01*
X93760002Y-78155157D01*
X93995315Y-78134569D01*
X93995326Y-78134567D01*
X94223483Y-78073433D01*
X94223492Y-78073429D01*
X94437578Y-77973600D01*
X94437582Y-77973598D01*
X94521373Y-77914926D01*
X94521373Y-77914925D01*
X93889409Y-77282962D01*
X93952993Y-77265925D01*
X94067007Y-77200099D01*
X94160099Y-77107007D01*
X94225925Y-76992993D01*
X94242962Y-76929410D01*
X94874925Y-77561373D01*
X94874926Y-77561373D01*
X94933598Y-77477582D01*
X94933602Y-77477574D01*
X95027294Y-77276652D01*
X95073466Y-77224212D01*
X95140660Y-77205060D01*
X95207541Y-77225276D01*
X95250676Y-77273785D01*
X95317632Y-77408253D01*
X95428930Y-77555634D01*
X95446128Y-77578407D01*
X95603698Y-77722052D01*
X95784981Y-77834298D01*
X95983802Y-77911321D01*
X96193390Y-77950500D01*
X96193392Y-77950500D01*
X96406608Y-77950500D01*
X96406610Y-77950500D01*
X96616198Y-77911321D01*
X96815019Y-77834298D01*
X96996302Y-77722052D01*
X97153872Y-77578407D01*
X97282366Y-77408255D01*
X97347896Y-77276652D01*
X97377403Y-77217394D01*
X97377403Y-77217393D01*
X97377405Y-77217389D01*
X97435756Y-77012310D01*
X97446529Y-76896047D01*
X97472315Y-76831111D01*
X97514622Y-76800804D01*
X97623130Y-76800804D01*
X97659503Y-76821668D01*
X97691693Y-76883681D01*
X97693470Y-76896047D01*
X97704244Y-77012310D01*
X97757675Y-77200099D01*
X97762596Y-77217392D01*
X97762596Y-77217394D01*
X97857632Y-77408253D01*
X97968930Y-77555634D01*
X97986128Y-77578407D01*
X98143698Y-77722052D01*
X98324981Y-77834298D01*
X98523802Y-77911321D01*
X98733390Y-77950500D01*
X98733392Y-77950500D01*
X98946608Y-77950500D01*
X98946610Y-77950500D01*
X99156198Y-77911321D01*
X99355019Y-77834298D01*
X99536302Y-77722052D01*
X99693872Y-77578407D01*
X99822366Y-77408255D01*
X99887896Y-77276652D01*
X99917403Y-77217394D01*
X99917403Y-77217393D01*
X99917405Y-77217389D01*
X99975756Y-77012310D01*
X99995429Y-76800000D01*
X99975756Y-76587690D01*
X99917405Y-76382611D01*
X99917403Y-76382606D01*
X99917403Y-76382605D01*
X99822367Y-76191746D01*
X99693872Y-76021593D01*
X99669637Y-75999500D01*
X99536302Y-75877948D01*
X99355019Y-75765702D01*
X99355017Y-75765701D01*
X99213449Y-75710858D01*
X99156198Y-75688679D01*
X98946610Y-75649500D01*
X98733390Y-75649500D01*
X98523802Y-75688679D01*
X98523799Y-75688679D01*
X98523799Y-75688680D01*
X98324982Y-75765701D01*
X98324980Y-75765702D01*
X98143699Y-75877947D01*
X97986127Y-76021593D01*
X97857632Y-76191746D01*
X97762596Y-76382605D01*
X97762596Y-76382607D01*
X97704244Y-76587689D01*
X97693471Y-76703951D01*
X97667685Y-76768888D01*
X97623130Y-76800804D01*
X97514622Y-76800804D01*
X97516869Y-76799194D01*
X97480497Y-76778331D01*
X97448307Y-76716318D01*
X97446529Y-76703951D01*
X97445096Y-76688486D01*
X97435756Y-76587690D01*
X97377405Y-76382611D01*
X97377403Y-76382606D01*
X97377403Y-76382605D01*
X97282367Y-76191746D01*
X97153872Y-76021593D01*
X97129637Y-75999500D01*
X96996302Y-75877948D01*
X96815019Y-75765702D01*
X96815017Y-75765701D01*
X96673449Y-75710858D01*
X96616198Y-75688679D01*
X96406610Y-75649500D01*
X96193390Y-75649500D01*
X95983802Y-75688679D01*
X95983799Y-75688679D01*
X95983799Y-75688680D01*
X95784982Y-75765701D01*
X95784980Y-75765702D01*
X95603699Y-75877947D01*
X95446127Y-76021593D01*
X95317634Y-76191744D01*
X95250676Y-76326215D01*
X95203173Y-76377452D01*
X95135510Y-76394873D01*
X95069170Y-76372947D01*
X95027294Y-76323348D01*
X94933600Y-76122423D01*
X94933599Y-76122421D01*
X94874925Y-76038626D01*
X94874925Y-76038625D01*
X94242962Y-76670589D01*
X94225925Y-76607007D01*
X94160099Y-76492993D01*
X94067007Y-76399901D01*
X93952993Y-76334075D01*
X93889410Y-76317037D01*
X94521373Y-75685073D01*
X94521373Y-75685072D01*
X94437583Y-75626402D01*
X94437579Y-75626400D01*
X94245607Y-75536882D01*
X94193168Y-75490710D01*
X94174016Y-75423516D01*
X94194232Y-75356635D01*
X94225314Y-75330131D01*
X115049500Y-75330131D01*
X115049500Y-77119856D01*
X115049502Y-77119882D01*
X115052413Y-77144987D01*
X115052415Y-77144991D01*
X115097793Y-77247764D01*
X115097794Y-77247765D01*
X115177235Y-77327206D01*
X115280009Y-77372585D01*
X115305135Y-77375500D01*
X117094864Y-77375499D01*
X117094879Y-77375497D01*
X117094882Y-77375497D01*
X117119987Y-77372586D01*
X117119988Y-77372585D01*
X117119991Y-77372585D01*
X117222765Y-77327206D01*
X117302206Y-77247765D01*
X117347585Y-77144991D01*
X117350500Y-77119865D01*
X117350499Y-76381046D01*
X117370183Y-76314009D01*
X117422987Y-76268254D01*
X117492146Y-76258310D01*
X117555702Y-76287335D01*
X117593476Y-76346113D01*
X117597970Y-76369606D01*
X117602454Y-76417993D01*
X117604244Y-76437310D01*
X117657675Y-76625099D01*
X117662596Y-76642392D01*
X117662596Y-76642394D01*
X117757632Y-76833253D01*
X117880903Y-76996488D01*
X117886128Y-77003407D01*
X118043698Y-77147052D01*
X118224981Y-77259298D01*
X118423802Y-77336321D01*
X118633390Y-77375500D01*
X118633392Y-77375500D01*
X118846608Y-77375500D01*
X118846610Y-77375500D01*
X119056198Y-77336321D01*
X119255019Y-77259298D01*
X119436302Y-77147052D01*
X119593872Y-77003407D01*
X119722366Y-76833255D01*
X119786751Y-76703951D01*
X119817403Y-76642394D01*
X119817403Y-76642393D01*
X119817405Y-76642389D01*
X119875756Y-76437310D01*
X119886529Y-76321047D01*
X119912315Y-76256111D01*
X119954622Y-76225804D01*
X120063130Y-76225804D01*
X120099503Y-76246668D01*
X120131693Y-76308681D01*
X120133470Y-76321047D01*
X120144244Y-76437310D01*
X120197675Y-76625099D01*
X120202596Y-76642392D01*
X120202596Y-76642394D01*
X120297632Y-76833253D01*
X120420903Y-76996488D01*
X120426128Y-77003407D01*
X120583698Y-77147052D01*
X120764981Y-77259298D01*
X120963802Y-77336321D01*
X121173390Y-77375500D01*
X121173392Y-77375500D01*
X121386608Y-77375500D01*
X121386610Y-77375500D01*
X121596198Y-77336321D01*
X121795019Y-77259298D01*
X121976302Y-77147052D01*
X122133872Y-77003407D01*
X122262366Y-76833255D01*
X122329325Y-76698781D01*
X122376825Y-76647548D01*
X122444488Y-76630126D01*
X122510828Y-76652051D01*
X122552705Y-76701651D01*
X122646399Y-76902578D01*
X122781894Y-77096082D01*
X122948917Y-77263105D01*
X123142421Y-77398600D01*
X123356507Y-77498429D01*
X123356516Y-77498433D01*
X123570000Y-77555634D01*
X123570000Y-76658012D01*
X123627007Y-76690925D01*
X123754174Y-76725000D01*
X123885826Y-76725000D01*
X124012993Y-76690925D01*
X124070000Y-76658012D01*
X124070000Y-77555633D01*
X124283483Y-77498433D01*
X124283492Y-77498429D01*
X124497578Y-77398600D01*
X124691082Y-77263105D01*
X124858105Y-77096082D01*
X124993600Y-76902578D01*
X125001676Y-76885258D01*
X140499500Y-76885258D01*
X140499500Y-77114741D01*
X140518948Y-77262452D01*
X140529452Y-77342238D01*
X140547141Y-77408255D01*
X140588842Y-77563887D01*
X140676650Y-77775876D01*
X140676656Y-77775888D01*
X140775784Y-77947584D01*
X140791392Y-77974617D01*
X140931081Y-78156661D01*
X140931089Y-78156670D01*
X141093330Y-78318911D01*
X141093338Y-78318918D01*
X141275382Y-78458607D01*
X141275385Y-78458608D01*
X141275388Y-78458611D01*
X141474112Y-78573344D01*
X141474117Y-78573346D01*
X141474123Y-78573349D01*
X141565480Y-78611190D01*
X141686113Y-78661158D01*
X141907762Y-78720548D01*
X142135266Y-78750500D01*
X142135273Y-78750500D01*
X142364727Y-78750500D01*
X142364734Y-78750500D01*
X142592238Y-78720548D01*
X142813887Y-78661158D01*
X143025888Y-78573344D01*
X143224612Y-78458611D01*
X143406661Y-78318919D01*
X143406665Y-78318914D01*
X143406670Y-78318911D01*
X143568911Y-78156670D01*
X143568914Y-78156665D01*
X143568919Y-78156661D01*
X143708611Y-77974612D01*
X143823344Y-77775888D01*
X143911158Y-77563887D01*
X143970548Y-77342238D01*
X144000500Y-77114734D01*
X144000500Y-76885266D01*
X143970548Y-76657762D01*
X143911158Y-76436113D01*
X143849532Y-76287335D01*
X143823349Y-76224123D01*
X143823346Y-76224117D01*
X143823344Y-76224112D01*
X143708611Y-76025388D01*
X143708608Y-76025385D01*
X143708607Y-76025382D01*
X143568918Y-75843338D01*
X143568911Y-75843330D01*
X143406670Y-75681089D01*
X143406661Y-75681081D01*
X143224617Y-75541392D01*
X143216805Y-75536882D01*
X143025888Y-75426656D01*
X143025876Y-75426650D01*
X142813887Y-75338842D01*
X142806337Y-75336819D01*
X142592238Y-75279452D01*
X142554215Y-75274446D01*
X142364741Y-75249500D01*
X142364734Y-75249500D01*
X142135266Y-75249500D01*
X142135258Y-75249500D01*
X141918715Y-75278009D01*
X141907762Y-75279452D01*
X141820073Y-75302948D01*
X141686112Y-75338842D01*
X141474123Y-75426650D01*
X141474109Y-75426657D01*
X141275382Y-75541392D01*
X141093338Y-75681081D01*
X140931081Y-75843338D01*
X140791392Y-76025382D01*
X140676657Y-76224109D01*
X140676650Y-76224123D01*
X140588842Y-76436112D01*
X140529453Y-76657759D01*
X140529451Y-76657770D01*
X140499500Y-76885258D01*
X125001676Y-76885258D01*
X125093429Y-76688492D01*
X125093432Y-76688486D01*
X125150636Y-76475000D01*
X124253012Y-76475000D01*
X124285925Y-76417993D01*
X124320000Y-76290826D01*
X124320000Y-76159174D01*
X124285925Y-76032007D01*
X124253012Y-75975000D01*
X125150636Y-75975000D01*
X125150635Y-75974999D01*
X125093432Y-75761513D01*
X125093429Y-75761507D01*
X124993600Y-75547422D01*
X124993599Y-75547420D01*
X124858113Y-75353926D01*
X124858108Y-75353920D01*
X124691082Y-75186894D01*
X124497578Y-75051399D01*
X124283492Y-74951570D01*
X124283486Y-74951567D01*
X124070000Y-74894364D01*
X124070000Y-75791988D01*
X124012993Y-75759075D01*
X123885826Y-75725000D01*
X123754174Y-75725000D01*
X123627007Y-75759075D01*
X123570000Y-75791988D01*
X123570000Y-74894364D01*
X123569999Y-74894364D01*
X123356513Y-74951567D01*
X123356507Y-74951570D01*
X123142422Y-75051399D01*
X123142420Y-75051400D01*
X122948926Y-75186886D01*
X122948920Y-75186891D01*
X122781891Y-75353920D01*
X122781886Y-75353926D01*
X122646400Y-75547420D01*
X122646399Y-75547422D01*
X122552705Y-75748348D01*
X122506532Y-75800787D01*
X122439339Y-75819939D01*
X122372457Y-75799723D01*
X122329324Y-75751216D01*
X122262366Y-75616745D01*
X122133872Y-75446593D01*
X121976302Y-75302948D01*
X121795019Y-75190702D01*
X121795017Y-75190701D01*
X121695608Y-75152190D01*
X121596198Y-75113679D01*
X121386610Y-75074500D01*
X121173390Y-75074500D01*
X120963802Y-75113679D01*
X120963799Y-75113679D01*
X120963799Y-75113680D01*
X120764982Y-75190701D01*
X120764980Y-75190702D01*
X120583699Y-75302947D01*
X120426127Y-75446593D01*
X120297632Y-75616746D01*
X120202596Y-75807605D01*
X120202596Y-75807607D01*
X120144244Y-76012689D01*
X120133471Y-76128951D01*
X120107685Y-76193888D01*
X120063130Y-76225804D01*
X119954622Y-76225804D01*
X119956869Y-76224194D01*
X119920497Y-76203331D01*
X119888307Y-76141318D01*
X119886529Y-76128951D01*
X119885849Y-76121613D01*
X119875756Y-76012690D01*
X119817405Y-75807611D01*
X119817403Y-75807606D01*
X119817403Y-75807605D01*
X119722367Y-75616746D01*
X119593872Y-75446593D01*
X119564077Y-75419431D01*
X119436302Y-75302948D01*
X119255019Y-75190702D01*
X119255017Y-75190701D01*
X119155608Y-75152190D01*
X119056198Y-75113679D01*
X118846610Y-75074500D01*
X118633390Y-75074500D01*
X118423802Y-75113679D01*
X118423799Y-75113679D01*
X118423799Y-75113680D01*
X118224982Y-75190701D01*
X118224980Y-75190702D01*
X118043699Y-75302947D01*
X117886127Y-75446593D01*
X117757632Y-75616746D01*
X117662596Y-75807605D01*
X117662596Y-75807607D01*
X117604244Y-76012689D01*
X117597970Y-76080394D01*
X117572183Y-76145331D01*
X117515383Y-76186018D01*
X117445602Y-76189538D01*
X117384995Y-76154772D01*
X117352806Y-76092759D01*
X117350499Y-76068952D01*
X117350499Y-75330143D01*
X117350499Y-75330136D01*
X117349702Y-75323261D01*
X117347586Y-75305012D01*
X117347585Y-75305010D01*
X117347585Y-75305009D01*
X117302206Y-75202235D01*
X117222765Y-75122794D01*
X117202124Y-75113680D01*
X117119992Y-75077415D01*
X117094865Y-75074500D01*
X115305143Y-75074500D01*
X115305117Y-75074502D01*
X115280012Y-75077413D01*
X115280008Y-75077415D01*
X115177235Y-75122793D01*
X115097794Y-75202234D01*
X115052415Y-75305006D01*
X115052415Y-75305008D01*
X115049500Y-75330131D01*
X94225314Y-75330131D01*
X94247397Y-75311300D01*
X94298012Y-75300500D01*
X104872472Y-75300500D01*
X104872474Y-75300500D01*
X104872475Y-75300500D01*
X105012485Y-75262984D01*
X105044445Y-75244532D01*
X105138015Y-75190510D01*
X108098526Y-72229999D01*
X109673179Y-72229999D01*
X109673179Y-72230000D01*
X109692424Y-72449976D01*
X109692426Y-72449986D01*
X109749575Y-72663270D01*
X109749580Y-72663284D01*
X109842898Y-72863405D01*
X109842901Y-72863411D01*
X109888258Y-72928187D01*
X109888259Y-72928188D01*
X110559000Y-72257447D01*
X110559000Y-72280160D01*
X110584964Y-72377061D01*
X110635124Y-72463940D01*
X110706060Y-72534876D01*
X110792939Y-72585036D01*
X110889840Y-72611000D01*
X110912553Y-72611000D01*
X110241810Y-73281740D01*
X110306590Y-73327099D01*
X110306592Y-73327100D01*
X110506715Y-73420419D01*
X110506729Y-73420424D01*
X110720013Y-73477573D01*
X110720023Y-73477575D01*
X110939999Y-73496821D01*
X110940001Y-73496821D01*
X111159976Y-73477575D01*
X111159986Y-73477573D01*
X111373270Y-73420424D01*
X111373284Y-73420419D01*
X111573407Y-73327100D01*
X111573417Y-73327094D01*
X111638188Y-73281741D01*
X110967448Y-72611000D01*
X110990160Y-72611000D01*
X111087061Y-72585036D01*
X111173940Y-72534876D01*
X111244876Y-72463940D01*
X111295036Y-72377061D01*
X111321000Y-72280160D01*
X111321000Y-72257447D01*
X111991741Y-72928188D01*
X112037094Y-72863417D01*
X112037100Y-72863407D01*
X112130419Y-72663284D01*
X112130424Y-72663270D01*
X112187573Y-72449986D01*
X112188514Y-72444652D01*
X112189771Y-72444873D01*
X112212956Y-72385571D01*
X112269539Y-72344581D01*
X112339300Y-72340690D01*
X112400091Y-72375132D01*
X112430355Y-72432684D01*
X112431105Y-72432457D01*
X112432290Y-72436363D01*
X112432610Y-72436972D01*
X112432661Y-72437223D01*
X112432871Y-72438279D01*
X112432873Y-72438284D01*
X112432873Y-72438286D01*
X112493628Y-72638569D01*
X112566802Y-72775468D01*
X112592291Y-72823153D01*
X112725063Y-72984936D01*
X112886846Y-73117708D01*
X112886850Y-73117711D01*
X113071431Y-73216372D01*
X113271714Y-73277127D01*
X113480000Y-73297641D01*
X113688286Y-73277127D01*
X113888569Y-73216372D01*
X114073150Y-73117711D01*
X114234936Y-72984936D01*
X114367711Y-72823150D01*
X114466372Y-72638569D01*
X114527127Y-72438286D01*
X114547641Y-72230000D01*
X114952359Y-72230000D01*
X114972872Y-72438284D01*
X114995592Y-72513181D01*
X115033628Y-72638569D01*
X115106802Y-72775468D01*
X115132291Y-72823153D01*
X115265063Y-72984936D01*
X115426846Y-73117708D01*
X115426850Y-73117711D01*
X115611431Y-73216372D01*
X115811714Y-73277127D01*
X116020000Y-73297641D01*
X116228286Y-73277127D01*
X116428569Y-73216372D01*
X116613150Y-73117711D01*
X116774936Y-72984936D01*
X116907711Y-72823150D01*
X117006372Y-72638569D01*
X117067127Y-72438286D01*
X117087641Y-72230000D01*
X117492359Y-72230000D01*
X117512872Y-72438284D01*
X117535592Y-72513181D01*
X117573628Y-72638569D01*
X117646802Y-72775468D01*
X117672291Y-72823153D01*
X117805063Y-72984936D01*
X117966846Y-73117708D01*
X117966850Y-73117711D01*
X118151431Y-73216372D01*
X118351714Y-73277127D01*
X118560000Y-73297641D01*
X118768286Y-73277127D01*
X118968569Y-73216372D01*
X119153150Y-73117711D01*
X119314936Y-72984936D01*
X119447711Y-72823150D01*
X119546372Y-72638569D01*
X119607127Y-72438286D01*
X119627641Y-72230000D01*
X120032359Y-72230000D01*
X120052872Y-72438284D01*
X120075592Y-72513181D01*
X120113628Y-72638569D01*
X120186802Y-72775468D01*
X120212291Y-72823153D01*
X120345063Y-72984936D01*
X120506846Y-73117708D01*
X120506850Y-73117711D01*
X120691431Y-73216372D01*
X120891714Y-73277127D01*
X121100000Y-73297641D01*
X121308286Y-73277127D01*
X121508569Y-73216372D01*
X121693150Y-73117711D01*
X121854936Y-72984936D01*
X121987711Y-72823150D01*
X122086372Y-72638569D01*
X122147127Y-72438286D01*
X122167641Y-72230000D01*
X122572359Y-72230000D01*
X122592872Y-72438284D01*
X122615592Y-72513181D01*
X122653628Y-72638569D01*
X122726802Y-72775468D01*
X122752291Y-72823153D01*
X122885063Y-72984936D01*
X123046846Y-73117708D01*
X123046850Y-73117711D01*
X123231431Y-73216372D01*
X123431714Y-73277127D01*
X123640000Y-73297641D01*
X123848286Y-73277127D01*
X124048569Y-73216372D01*
X124233150Y-73117711D01*
X124394936Y-72984936D01*
X124527711Y-72823150D01*
X124626372Y-72638569D01*
X124687127Y-72438286D01*
X124707641Y-72230000D01*
X125112359Y-72230000D01*
X125132872Y-72438284D01*
X125155592Y-72513181D01*
X125193628Y-72638569D01*
X125266802Y-72775468D01*
X125292291Y-72823153D01*
X125425063Y-72984936D01*
X125586846Y-73117708D01*
X125586850Y-73117711D01*
X125771431Y-73216372D01*
X125971714Y-73277127D01*
X126180000Y-73297641D01*
X126388286Y-73277127D01*
X126588569Y-73216372D01*
X126773150Y-73117711D01*
X126934936Y-72984936D01*
X127067711Y-72823150D01*
X127166372Y-72638569D01*
X127227127Y-72438286D01*
X127247641Y-72230000D01*
X127652359Y-72230000D01*
X127672872Y-72438284D01*
X127695592Y-72513181D01*
X127733628Y-72638569D01*
X127806802Y-72775468D01*
X127832291Y-72823153D01*
X127965063Y-72984936D01*
X128126846Y-73117708D01*
X128126850Y-73117711D01*
X128311431Y-73216372D01*
X128511714Y-73277127D01*
X128720000Y-73297641D01*
X128928286Y-73277127D01*
X129128569Y-73216372D01*
X129313150Y-73117711D01*
X129474936Y-72984936D01*
X129607711Y-72823150D01*
X129706372Y-72638569D01*
X129767127Y-72438286D01*
X129787641Y-72230000D01*
X130192359Y-72230000D01*
X130212872Y-72438284D01*
X130235592Y-72513181D01*
X130273628Y-72638569D01*
X130346802Y-72775468D01*
X130372291Y-72823153D01*
X130505063Y-72984936D01*
X130666846Y-73117708D01*
X130666850Y-73117711D01*
X130851431Y-73216372D01*
X131051714Y-73277127D01*
X131260000Y-73297641D01*
X131468286Y-73277127D01*
X131668569Y-73216372D01*
X131853150Y-73117711D01*
X132014936Y-72984936D01*
X132147711Y-72823150D01*
X132246372Y-72638569D01*
X132307127Y-72438286D01*
X132327641Y-72230000D01*
X132732359Y-72230000D01*
X132752872Y-72438284D01*
X132775592Y-72513181D01*
X132813628Y-72638569D01*
X132886802Y-72775468D01*
X132912291Y-72823153D01*
X133045063Y-72984936D01*
X133206846Y-73117708D01*
X133206850Y-73117711D01*
X133391431Y-73216372D01*
X133591714Y-73277127D01*
X133800000Y-73297641D01*
X134008286Y-73277127D01*
X134208569Y-73216372D01*
X134393150Y-73117711D01*
X134554936Y-72984936D01*
X134687711Y-72823150D01*
X134786372Y-72638569D01*
X134847127Y-72438286D01*
X134867641Y-72230000D01*
X134847127Y-72021714D01*
X134786372Y-71821431D01*
X134687711Y-71636850D01*
X134687708Y-71636846D01*
X134554936Y-71475063D01*
X134393153Y-71342291D01*
X134393151Y-71342290D01*
X134393150Y-71342289D01*
X134208569Y-71243628D01*
X134108427Y-71213250D01*
X134008284Y-71182872D01*
X133800000Y-71162359D01*
X133591715Y-71182872D01*
X133414334Y-71236680D01*
X133392470Y-71243313D01*
X133391428Y-71243629D01*
X133206846Y-71342291D01*
X133045063Y-71475063D01*
X132912291Y-71636846D01*
X132813629Y-71821428D01*
X132752872Y-72021715D01*
X132732359Y-72230000D01*
X132327641Y-72230000D01*
X132307127Y-72021714D01*
X132246372Y-71821431D01*
X132147711Y-71636850D01*
X132147708Y-71636846D01*
X132014936Y-71475063D01*
X131853153Y-71342291D01*
X131853151Y-71342290D01*
X131853150Y-71342289D01*
X131668569Y-71243628D01*
X131568427Y-71213250D01*
X131468284Y-71182872D01*
X131260000Y-71162359D01*
X131051715Y-71182872D01*
X130874334Y-71236680D01*
X130852470Y-71243313D01*
X130851428Y-71243629D01*
X130666846Y-71342291D01*
X130505063Y-71475063D01*
X130372291Y-71636846D01*
X130273629Y-71821428D01*
X130212872Y-72021715D01*
X130192359Y-72230000D01*
X129787641Y-72230000D01*
X129767127Y-72021714D01*
X129706372Y-71821431D01*
X129607711Y-71636850D01*
X129607708Y-71636846D01*
X129474936Y-71475063D01*
X129313153Y-71342291D01*
X129313151Y-71342290D01*
X129313150Y-71342289D01*
X129128569Y-71243628D01*
X129028427Y-71213250D01*
X128928284Y-71182872D01*
X128720000Y-71162359D01*
X128511715Y-71182872D01*
X128334334Y-71236680D01*
X128312470Y-71243313D01*
X128311428Y-71243629D01*
X128126846Y-71342291D01*
X127965063Y-71475063D01*
X127832291Y-71636846D01*
X127733629Y-71821428D01*
X127672872Y-72021715D01*
X127652359Y-72230000D01*
X127247641Y-72230000D01*
X127227127Y-72021714D01*
X127166372Y-71821431D01*
X127067711Y-71636850D01*
X127067708Y-71636846D01*
X126934936Y-71475063D01*
X126773153Y-71342291D01*
X126773151Y-71342290D01*
X126773150Y-71342289D01*
X126588569Y-71243628D01*
X126488427Y-71213250D01*
X126388284Y-71182872D01*
X126180000Y-71162359D01*
X125971715Y-71182872D01*
X125794334Y-71236680D01*
X125772470Y-71243313D01*
X125771428Y-71243629D01*
X125586846Y-71342291D01*
X125425063Y-71475063D01*
X125292291Y-71636846D01*
X125193629Y-71821428D01*
X125132872Y-72021715D01*
X125112359Y-72230000D01*
X124707641Y-72230000D01*
X124687127Y-72021714D01*
X124626372Y-71821431D01*
X124527711Y-71636850D01*
X124527708Y-71636846D01*
X124394936Y-71475063D01*
X124233153Y-71342291D01*
X124233151Y-71342290D01*
X124233150Y-71342289D01*
X124048569Y-71243628D01*
X123948427Y-71213250D01*
X123848284Y-71182872D01*
X123640000Y-71162359D01*
X123431715Y-71182872D01*
X123254334Y-71236680D01*
X123232470Y-71243313D01*
X123231428Y-71243629D01*
X123046846Y-71342291D01*
X122885063Y-71475063D01*
X122752291Y-71636846D01*
X122653629Y-71821428D01*
X122592872Y-72021715D01*
X122572359Y-72230000D01*
X122167641Y-72230000D01*
X122147127Y-72021714D01*
X122086372Y-71821431D01*
X121987711Y-71636850D01*
X121987708Y-71636846D01*
X121854936Y-71475063D01*
X121693153Y-71342291D01*
X121693151Y-71342290D01*
X121693150Y-71342289D01*
X121508569Y-71243628D01*
X121408427Y-71213250D01*
X121308284Y-71182872D01*
X121100000Y-71162359D01*
X120891715Y-71182872D01*
X120714334Y-71236680D01*
X120692470Y-71243313D01*
X120691428Y-71243629D01*
X120506846Y-71342291D01*
X120345063Y-71475063D01*
X120212291Y-71636846D01*
X120113629Y-71821428D01*
X120052872Y-72021715D01*
X120032359Y-72230000D01*
X119627641Y-72230000D01*
X119607127Y-72021714D01*
X119546372Y-71821431D01*
X119447711Y-71636850D01*
X119447708Y-71636846D01*
X119314936Y-71475063D01*
X119153153Y-71342291D01*
X119153151Y-71342290D01*
X119153150Y-71342289D01*
X118968569Y-71243628D01*
X118868427Y-71213250D01*
X118768284Y-71182872D01*
X118560000Y-71162359D01*
X118351715Y-71182872D01*
X118174334Y-71236680D01*
X118152470Y-71243313D01*
X118151428Y-71243629D01*
X117966846Y-71342291D01*
X117805063Y-71475063D01*
X117672291Y-71636846D01*
X117573629Y-71821428D01*
X117512872Y-72021715D01*
X117492359Y-72230000D01*
X117087641Y-72230000D01*
X117067127Y-72021714D01*
X117006372Y-71821431D01*
X116907711Y-71636850D01*
X116907708Y-71636846D01*
X116774936Y-71475063D01*
X116613153Y-71342291D01*
X116613151Y-71342290D01*
X116613150Y-71342289D01*
X116428569Y-71243628D01*
X116328427Y-71213250D01*
X116228284Y-71182872D01*
X116020000Y-71162359D01*
X115811715Y-71182872D01*
X115634334Y-71236680D01*
X115612470Y-71243313D01*
X115611428Y-71243629D01*
X115426846Y-71342291D01*
X115265063Y-71475063D01*
X115132291Y-71636846D01*
X115033629Y-71821428D01*
X114972872Y-72021715D01*
X114952359Y-72230000D01*
X114547641Y-72230000D01*
X114527127Y-72021714D01*
X114466372Y-71821431D01*
X114367711Y-71636850D01*
X114367708Y-71636846D01*
X114234936Y-71475063D01*
X114073153Y-71342291D01*
X114073151Y-71342290D01*
X114073150Y-71342289D01*
X113888569Y-71243628D01*
X113788427Y-71213250D01*
X113688284Y-71182872D01*
X113480000Y-71162359D01*
X113271715Y-71182872D01*
X113094334Y-71236680D01*
X113072470Y-71243313D01*
X113071428Y-71243629D01*
X112886846Y-71342291D01*
X112725063Y-71475063D01*
X112592291Y-71636846D01*
X112493629Y-71821428D01*
X112432869Y-72021725D01*
X112432660Y-72022779D01*
X112432398Y-72023278D01*
X112431105Y-72027543D01*
X112430295Y-72027297D01*
X112400266Y-72084686D01*
X112339545Y-72119251D01*
X112269776Y-72115502D01*
X112213110Y-72074627D01*
X112189713Y-72015136D01*
X112188514Y-72015348D01*
X112187573Y-72010013D01*
X112130424Y-71796729D01*
X112130420Y-71796720D01*
X112037096Y-71596586D01*
X111991741Y-71531811D01*
X111991740Y-71531810D01*
X111321000Y-72202551D01*
X111321000Y-72179840D01*
X111295036Y-72082939D01*
X111244876Y-71996060D01*
X111173940Y-71925124D01*
X111087061Y-71874964D01*
X110990160Y-71849000D01*
X110967448Y-71849000D01*
X111638188Y-71178259D01*
X111638187Y-71178258D01*
X111573411Y-71132901D01*
X111573405Y-71132898D01*
X111373284Y-71039580D01*
X111373270Y-71039575D01*
X111159986Y-70982426D01*
X111159976Y-70982424D01*
X110940001Y-70963179D01*
X110939999Y-70963179D01*
X110720023Y-70982424D01*
X110720013Y-70982426D01*
X110506729Y-71039575D01*
X110506720Y-71039579D01*
X110306590Y-71132901D01*
X110241811Y-71178258D01*
X110912553Y-71849000D01*
X110889840Y-71849000D01*
X110792939Y-71874964D01*
X110706060Y-71925124D01*
X110635124Y-71996060D01*
X110584964Y-72082939D01*
X110559000Y-72179840D01*
X110559000Y-72202553D01*
X109888258Y-71531811D01*
X109842901Y-71596590D01*
X109749579Y-71796720D01*
X109749575Y-71796729D01*
X109692426Y-72010013D01*
X109692424Y-72010023D01*
X109673179Y-72229999D01*
X108098526Y-72229999D01*
X112403526Y-67924999D01*
X113374785Y-67924999D01*
X113374785Y-67925000D01*
X113393602Y-68128082D01*
X113449417Y-68324247D01*
X113449422Y-68324260D01*
X113540327Y-68506821D01*
X113663237Y-68669581D01*
X113813958Y-68806980D01*
X113813960Y-68806982D01*
X113855343Y-68832605D01*
X113987363Y-68914348D01*
X114177544Y-68988024D01*
X114378024Y-69025500D01*
X114378026Y-69025500D01*
X114581974Y-69025500D01*
X114581976Y-69025500D01*
X114782456Y-68988024D01*
X114972637Y-68914348D01*
X115146041Y-68806981D01*
X115296764Y-68669579D01*
X115419673Y-68506821D01*
X115510582Y-68324250D01*
X115566397Y-68128083D01*
X115585215Y-67925000D01*
X115580119Y-67870009D01*
X115566397Y-67721917D01*
X115545951Y-67650057D01*
X115510582Y-67525750D01*
X115501340Y-67507190D01*
X115444029Y-67392093D01*
X115419673Y-67343179D01*
X115307671Y-67194864D01*
X115296762Y-67180418D01*
X115186751Y-67080131D01*
X120999500Y-67080131D01*
X120999500Y-68769856D01*
X120999502Y-68769882D01*
X121002413Y-68794987D01*
X121002415Y-68794991D01*
X121047793Y-68897764D01*
X121047794Y-68897765D01*
X121127235Y-68977206D01*
X121230009Y-69022585D01*
X121255135Y-69025500D01*
X122944864Y-69025499D01*
X122944879Y-69025497D01*
X122944882Y-69025497D01*
X122969987Y-69022586D01*
X122969988Y-69022585D01*
X122969991Y-69022585D01*
X123072765Y-68977206D01*
X123152206Y-68897765D01*
X123197585Y-68794991D01*
X123200500Y-68769865D01*
X123200500Y-68355131D01*
X131769500Y-68355131D01*
X131769500Y-70144856D01*
X131769502Y-70144882D01*
X131772413Y-70169987D01*
X131772415Y-70169991D01*
X131817793Y-70272764D01*
X131817794Y-70272765D01*
X131897235Y-70352206D01*
X132000009Y-70397585D01*
X132025135Y-70400500D01*
X133814864Y-70400499D01*
X133814879Y-70400497D01*
X133814882Y-70400497D01*
X133839987Y-70397586D01*
X133839988Y-70397585D01*
X133839991Y-70397585D01*
X133942765Y-70352206D01*
X134022206Y-70272765D01*
X134067585Y-70169991D01*
X134070500Y-70144865D01*
X134070499Y-69406046D01*
X134090183Y-69339009D01*
X134142987Y-69293254D01*
X134212146Y-69283310D01*
X134275702Y-69312335D01*
X134313476Y-69371113D01*
X134317970Y-69394606D01*
X134322454Y-69442993D01*
X134324244Y-69462310D01*
X134377675Y-69650099D01*
X134382596Y-69667392D01*
X134382596Y-69667394D01*
X134477632Y-69858253D01*
X134539742Y-69940499D01*
X134606128Y-70028407D01*
X134763698Y-70172052D01*
X134944981Y-70284298D01*
X135143802Y-70361321D01*
X135353390Y-70400500D01*
X135353392Y-70400500D01*
X135566608Y-70400500D01*
X135566610Y-70400500D01*
X135776198Y-70361321D01*
X135975019Y-70284298D01*
X136156302Y-70172052D01*
X136313872Y-70028407D01*
X136442366Y-69858255D01*
X136496270Y-69750000D01*
X136537403Y-69667394D01*
X136537403Y-69667393D01*
X136537405Y-69667389D01*
X136595756Y-69462310D01*
X136606529Y-69346047D01*
X136632315Y-69281111D01*
X136674622Y-69250804D01*
X136783130Y-69250804D01*
X136819503Y-69271668D01*
X136851693Y-69333681D01*
X136853470Y-69346047D01*
X136864244Y-69462310D01*
X136917675Y-69650099D01*
X136922596Y-69667392D01*
X136922596Y-69667394D01*
X137017632Y-69858253D01*
X137079742Y-69940499D01*
X137146128Y-70028407D01*
X137303698Y-70172052D01*
X137484981Y-70284298D01*
X137683802Y-70361321D01*
X137893390Y-70400500D01*
X137893392Y-70400500D01*
X138106608Y-70400500D01*
X138106610Y-70400500D01*
X138316198Y-70361321D01*
X138515019Y-70284298D01*
X138696302Y-70172052D01*
X138853872Y-70028407D01*
X138982366Y-69858255D01*
X139049325Y-69723781D01*
X139096825Y-69672548D01*
X139164488Y-69655126D01*
X139230828Y-69677051D01*
X139272705Y-69726651D01*
X139366399Y-69927578D01*
X139501894Y-70121082D01*
X139668917Y-70288105D01*
X139862421Y-70423600D01*
X140076507Y-70523429D01*
X140076516Y-70523433D01*
X140290000Y-70580634D01*
X140290000Y-69683012D01*
X140347007Y-69715925D01*
X140474174Y-69750000D01*
X140605826Y-69750000D01*
X140732993Y-69715925D01*
X140790000Y-69683012D01*
X140790000Y-70580633D01*
X141003483Y-70523433D01*
X141003492Y-70523429D01*
X141217578Y-70423600D01*
X141411082Y-70288105D01*
X141578105Y-70121082D01*
X141713600Y-69927578D01*
X141813429Y-69713492D01*
X141813432Y-69713486D01*
X141870636Y-69500000D01*
X140973012Y-69500000D01*
X141005925Y-69442993D01*
X141040000Y-69315826D01*
X141040000Y-69184174D01*
X141005925Y-69057007D01*
X140973012Y-69000000D01*
X141870636Y-69000000D01*
X141870635Y-68999999D01*
X141813432Y-68786513D01*
X141813429Y-68786507D01*
X141713600Y-68572422D01*
X141713599Y-68572420D01*
X141578113Y-68378926D01*
X141578108Y-68378920D01*
X141411082Y-68211894D01*
X141217578Y-68076399D01*
X141003492Y-67976570D01*
X141003486Y-67976567D01*
X140790000Y-67919364D01*
X140790000Y-68816988D01*
X140732993Y-68784075D01*
X140605826Y-68750000D01*
X140474174Y-68750000D01*
X140347007Y-68784075D01*
X140290000Y-68816988D01*
X140290000Y-67919364D01*
X140289999Y-67919364D01*
X140076513Y-67976567D01*
X140076507Y-67976570D01*
X139862422Y-68076399D01*
X139862420Y-68076400D01*
X139668926Y-68211886D01*
X139668920Y-68211891D01*
X139501891Y-68378920D01*
X139501886Y-68378926D01*
X139366400Y-68572420D01*
X139366399Y-68572422D01*
X139272705Y-68773348D01*
X139226532Y-68825787D01*
X139159339Y-68844939D01*
X139092457Y-68824723D01*
X139049324Y-68776216D01*
X138982366Y-68641745D01*
X138853872Y-68471593D01*
X138696302Y-68327948D01*
X138515019Y-68215702D01*
X138515017Y-68215701D01*
X138408697Y-68174513D01*
X138316198Y-68138679D01*
X138106610Y-68099500D01*
X137893390Y-68099500D01*
X137683802Y-68138679D01*
X137683799Y-68138679D01*
X137683799Y-68138680D01*
X137484982Y-68215701D01*
X137484980Y-68215702D01*
X137303699Y-68327947D01*
X137146127Y-68471593D01*
X137017632Y-68641746D01*
X136922596Y-68832605D01*
X136922596Y-68832607D01*
X136864244Y-69037689D01*
X136853471Y-69153951D01*
X136827685Y-69218888D01*
X136783130Y-69250804D01*
X136674622Y-69250804D01*
X136676869Y-69249194D01*
X136640497Y-69228331D01*
X136608307Y-69166318D01*
X136606529Y-69153951D01*
X136603175Y-69117759D01*
X136595756Y-69037690D01*
X136537405Y-68832611D01*
X136537403Y-68832606D01*
X136537403Y-68832605D01*
X136442367Y-68641746D01*
X136313872Y-68471593D01*
X136156302Y-68327948D01*
X135975019Y-68215702D01*
X135975017Y-68215701D01*
X135868697Y-68174513D01*
X135776198Y-68138679D01*
X135566610Y-68099500D01*
X135353390Y-68099500D01*
X135143802Y-68138679D01*
X135143799Y-68138679D01*
X135143799Y-68138680D01*
X134944982Y-68215701D01*
X134944980Y-68215702D01*
X134763699Y-68327947D01*
X134606127Y-68471593D01*
X134477632Y-68641746D01*
X134382596Y-68832605D01*
X134382596Y-68832607D01*
X134324244Y-69037689D01*
X134317970Y-69105394D01*
X134292183Y-69170331D01*
X134235383Y-69211018D01*
X134165602Y-69214538D01*
X134104995Y-69179772D01*
X134072806Y-69117759D01*
X134070499Y-69093952D01*
X134070499Y-68355143D01*
X134070499Y-68355136D01*
X134070497Y-68355117D01*
X134067586Y-68330012D01*
X134067585Y-68330010D01*
X134067585Y-68330009D01*
X134022206Y-68227235D01*
X133942765Y-68147794D01*
X133922124Y-68138680D01*
X133839992Y-68102415D01*
X133814865Y-68099500D01*
X132025143Y-68099500D01*
X132025117Y-68099502D01*
X132000012Y-68102413D01*
X132000008Y-68102415D01*
X131897235Y-68147793D01*
X131817794Y-68227234D01*
X131772415Y-68330006D01*
X131772415Y-68330008D01*
X131769500Y-68355131D01*
X123200500Y-68355131D01*
X123200499Y-67197844D01*
X124900000Y-67197844D01*
X124906401Y-67257372D01*
X124906403Y-67257379D01*
X124956645Y-67392086D01*
X124956649Y-67392093D01*
X125042809Y-67507187D01*
X125042812Y-67507190D01*
X125157906Y-67593350D01*
X125157913Y-67593354D01*
X125292620Y-67643596D01*
X125292627Y-67643598D01*
X125352155Y-67649999D01*
X125352172Y-67650000D01*
X126250000Y-67650000D01*
X126250000Y-66600000D01*
X124900000Y-66600000D01*
X124900000Y-67197844D01*
X123200499Y-67197844D01*
X123200499Y-67080136D01*
X123200497Y-67080117D01*
X123197586Y-67055012D01*
X123197585Y-67055010D01*
X123197585Y-67055009D01*
X123152206Y-66952235D01*
X123072765Y-66872794D01*
X123048267Y-66861977D01*
X122969992Y-66827415D01*
X122944865Y-66824500D01*
X121255143Y-66824500D01*
X121255117Y-66824502D01*
X121230012Y-66827413D01*
X121230008Y-66827415D01*
X121127235Y-66872793D01*
X121047794Y-66952234D01*
X121002415Y-67055006D01*
X121002415Y-67055008D01*
X120999500Y-67080131D01*
X115186751Y-67080131D01*
X115146041Y-67043019D01*
X115146039Y-67043017D01*
X114972642Y-66935655D01*
X114972635Y-66935651D01*
X114877546Y-66898814D01*
X114782456Y-66861976D01*
X114581976Y-66824500D01*
X114378024Y-66824500D01*
X114177544Y-66861976D01*
X114177541Y-66861976D01*
X114177541Y-66861977D01*
X113987364Y-66935651D01*
X113987357Y-66935655D01*
X113813960Y-67043017D01*
X113813958Y-67043019D01*
X113663237Y-67180418D01*
X113540327Y-67343178D01*
X113449422Y-67525739D01*
X113449417Y-67525752D01*
X113393602Y-67721917D01*
X113374785Y-67924999D01*
X112403526Y-67924999D01*
X112640510Y-67688015D01*
X112712984Y-67562485D01*
X112722827Y-67525750D01*
X112750500Y-67422475D01*
X112750500Y-65384999D01*
X113374785Y-65384999D01*
X113374785Y-65385000D01*
X113393602Y-65588082D01*
X113449417Y-65784247D01*
X113449422Y-65784260D01*
X113540327Y-65966821D01*
X113663237Y-66129581D01*
X113813958Y-66266980D01*
X113813960Y-66266982D01*
X113895697Y-66317591D01*
X113987363Y-66374348D01*
X114177544Y-66448024D01*
X114378024Y-66485500D01*
X114378026Y-66485500D01*
X114581974Y-66485500D01*
X114581976Y-66485500D01*
X114782456Y-66448024D01*
X114972637Y-66374348D01*
X115146041Y-66266981D01*
X115282843Y-66142270D01*
X115296762Y-66129581D01*
X115316932Y-66102872D01*
X115419673Y-65966821D01*
X115510582Y-65784250D01*
X115566397Y-65588083D01*
X115585215Y-65385000D01*
X115585215Y-65384999D01*
X120994785Y-65384999D01*
X120994785Y-65385000D01*
X121013602Y-65588082D01*
X121069417Y-65784247D01*
X121069422Y-65784260D01*
X121160327Y-65966821D01*
X121283237Y-66129581D01*
X121433958Y-66266980D01*
X121433960Y-66266982D01*
X121515697Y-66317591D01*
X121607363Y-66374348D01*
X121797544Y-66448024D01*
X121998024Y-66485500D01*
X121998026Y-66485500D01*
X122201974Y-66485500D01*
X122201976Y-66485500D01*
X122402456Y-66448024D01*
X122592637Y-66374348D01*
X122766041Y-66266981D01*
X122902843Y-66142270D01*
X122916762Y-66129581D01*
X122936932Y-66102872D01*
X123039673Y-65966821D01*
X123130582Y-65784250D01*
X123186397Y-65588083D01*
X123194359Y-65502155D01*
X124900000Y-65502155D01*
X124900000Y-66100000D01*
X126250000Y-66100000D01*
X126250000Y-65050000D01*
X126750000Y-65050000D01*
X126750000Y-67650000D01*
X127647828Y-67650000D01*
X127647844Y-67649999D01*
X127707372Y-67643598D01*
X127707379Y-67643596D01*
X127842086Y-67593354D01*
X127842093Y-67593350D01*
X127957186Y-67507190D01*
X128031985Y-67407274D01*
X128087919Y-67365403D01*
X128157611Y-67360419D01*
X128218933Y-67393904D01*
X128227235Y-67402206D01*
X128330009Y-67447585D01*
X128355135Y-67450500D01*
X130644864Y-67450499D01*
X130644879Y-67450497D01*
X130644882Y-67450497D01*
X130669987Y-67447586D01*
X130669988Y-67447585D01*
X130669991Y-67447585D01*
X130772765Y-67402206D01*
X130852206Y-67322765D01*
X130897585Y-67219991D01*
X130900500Y-67194865D01*
X130900500Y-66899500D01*
X130920185Y-66832461D01*
X130972989Y-66786706D01*
X131024500Y-66775500D01*
X134568516Y-66775500D01*
X134568518Y-66775500D01*
X134676737Y-66746503D01*
X134773763Y-66690485D01*
X135830114Y-65634131D01*
X135891435Y-65600648D01*
X135953784Y-65603152D01*
X136131714Y-65657127D01*
X136340000Y-65677641D01*
X136548286Y-65657127D01*
X136748569Y-65596372D01*
X136933150Y-65497711D01*
X137094936Y-65364936D01*
X137227711Y-65203150D01*
X137326372Y-65018569D01*
X137387127Y-64818286D01*
X137407641Y-64610000D01*
X137387127Y-64401714D01*
X137326372Y-64201431D01*
X137227711Y-64016850D01*
X137227708Y-64016846D01*
X137094936Y-63855063D01*
X136933153Y-63722291D01*
X136933151Y-63722290D01*
X136933150Y-63722289D01*
X136748569Y-63623628D01*
X136636324Y-63589579D01*
X136548284Y-63562872D01*
X136340000Y-63542359D01*
X136131715Y-63562872D01*
X135931428Y-63623629D01*
X135746846Y-63722291D01*
X135585063Y-63855063D01*
X135452291Y-64016846D01*
X135353629Y-64201428D01*
X135292872Y-64401715D01*
X135272359Y-64610000D01*
X135292872Y-64818285D01*
X135306115Y-64861940D01*
X135306738Y-64931807D01*
X135275135Y-64985615D01*
X134779665Y-65481086D01*
X134718342Y-65514571D01*
X134704682Y-65513594D01*
X134685889Y-65571790D01*
X134671087Y-65589664D01*
X134587122Y-65673630D01*
X134372569Y-65888182D01*
X134311249Y-65921666D01*
X134284890Y-65924500D01*
X133817677Y-65924500D01*
X133807196Y-65921422D01*
X133805428Y-65922328D01*
X133782323Y-65924500D01*
X131024499Y-65924500D01*
X130957460Y-65904815D01*
X130911705Y-65852011D01*
X130900499Y-65800500D01*
X130900499Y-65505143D01*
X130900499Y-65505136D01*
X130900497Y-65505117D01*
X130897586Y-65480012D01*
X130897585Y-65480010D01*
X130897585Y-65480009D01*
X130852206Y-65377235D01*
X130772765Y-65297794D01*
X130761287Y-65292726D01*
X130669992Y-65252415D01*
X130644865Y-65249500D01*
X128355143Y-65249500D01*
X128355117Y-65249502D01*
X128330012Y-65252413D01*
X128330008Y-65252415D01*
X128227236Y-65297793D01*
X128218931Y-65306098D01*
X128157606Y-65339581D01*
X128087915Y-65334594D01*
X128031986Y-65292726D01*
X127957187Y-65192809D01*
X127842093Y-65106649D01*
X127842086Y-65106645D01*
X127707379Y-65056403D01*
X127707372Y-65056401D01*
X127647844Y-65050000D01*
X126750000Y-65050000D01*
X126250000Y-65050000D01*
X125352155Y-65050000D01*
X125292627Y-65056401D01*
X125292620Y-65056403D01*
X125157913Y-65106645D01*
X125157906Y-65106649D01*
X125042812Y-65192809D01*
X125042809Y-65192812D01*
X124956649Y-65307906D01*
X124956645Y-65307913D01*
X124906403Y-65442620D01*
X124906401Y-65442627D01*
X124900000Y-65502155D01*
X123194359Y-65502155D01*
X123205215Y-65385000D01*
X123204495Y-65377235D01*
X123186397Y-65181917D01*
X123174095Y-65138680D01*
X123130582Y-64985750D01*
X123125478Y-64975500D01*
X123047195Y-64818286D01*
X123039673Y-64803179D01*
X122916764Y-64640421D01*
X122916762Y-64640418D01*
X122883395Y-64610000D01*
X132732359Y-64610000D01*
X132752872Y-64818284D01*
X132783250Y-64918427D01*
X132813628Y-65018569D01*
X132906763Y-65192812D01*
X132912291Y-65203153D01*
X133045063Y-65364936D01*
X133186592Y-65481086D01*
X133206850Y-65497711D01*
X133391431Y-65596372D01*
X133591714Y-65657127D01*
X133794477Y-65677097D01*
X133798065Y-65678545D01*
X133805523Y-65677097D01*
X134008286Y-65657127D01*
X134208569Y-65596372D01*
X134393150Y-65497711D01*
X134504743Y-65406128D01*
X134569049Y-65378817D01*
X134573241Y-65379534D01*
X134583152Y-65333978D01*
X134596131Y-65314740D01*
X134610039Y-65297793D01*
X134687711Y-65203150D01*
X134786372Y-65018569D01*
X134847127Y-64818286D01*
X134867641Y-64610000D01*
X134847127Y-64401714D01*
X134786372Y-64201431D01*
X134687711Y-64016850D01*
X134687708Y-64016846D01*
X134554936Y-63855063D01*
X134393153Y-63722291D01*
X134393151Y-63722290D01*
X134393150Y-63722289D01*
X134208569Y-63623628D01*
X134096324Y-63589579D01*
X134008284Y-63562872D01*
X133800000Y-63542359D01*
X133591715Y-63562872D01*
X133391428Y-63623629D01*
X133206846Y-63722291D01*
X133045063Y-63855063D01*
X132912291Y-64016846D01*
X132813629Y-64201428D01*
X132752872Y-64401715D01*
X132732359Y-64610000D01*
X122883395Y-64610000D01*
X122766041Y-64503019D01*
X122766039Y-64503017D01*
X122592642Y-64395655D01*
X122592635Y-64395651D01*
X122497546Y-64358814D01*
X122402456Y-64321976D01*
X122201976Y-64284500D01*
X121998024Y-64284500D01*
X121797544Y-64321976D01*
X121797541Y-64321976D01*
X121797541Y-64321977D01*
X121607364Y-64395651D01*
X121607357Y-64395655D01*
X121433960Y-64503017D01*
X121433958Y-64503019D01*
X121283237Y-64640418D01*
X121160327Y-64803178D01*
X121069422Y-64985739D01*
X121069417Y-64985752D01*
X121013602Y-65181917D01*
X120994785Y-65384999D01*
X115585215Y-65384999D01*
X115584495Y-65377235D01*
X115566397Y-65181917D01*
X115554095Y-65138680D01*
X115510582Y-64985750D01*
X115505478Y-64975500D01*
X115427195Y-64818286D01*
X115419673Y-64803179D01*
X115296764Y-64640421D01*
X115296762Y-64640418D01*
X115146041Y-64503019D01*
X115146039Y-64503017D01*
X114972642Y-64395655D01*
X114972635Y-64395651D01*
X114877546Y-64358814D01*
X114782456Y-64321976D01*
X114581976Y-64284500D01*
X114378024Y-64284500D01*
X114177544Y-64321976D01*
X114177541Y-64321976D01*
X114177541Y-64321977D01*
X113987364Y-64395651D01*
X113987357Y-64395655D01*
X113813960Y-64503017D01*
X113813958Y-64503019D01*
X113663237Y-64640418D01*
X113540327Y-64803178D01*
X113449422Y-64985739D01*
X113449417Y-64985752D01*
X113393602Y-65181917D01*
X113374785Y-65384999D01*
X112750500Y-65384999D01*
X112750500Y-62844999D01*
X113374785Y-62844999D01*
X113374785Y-62845000D01*
X113393602Y-63048082D01*
X113449417Y-63244247D01*
X113449422Y-63244260D01*
X113540327Y-63426821D01*
X113663237Y-63589581D01*
X113813958Y-63726980D01*
X113813960Y-63726982D01*
X113913141Y-63788392D01*
X113987363Y-63834348D01*
X114177544Y-63908024D01*
X114378024Y-63945500D01*
X114378026Y-63945500D01*
X114581974Y-63945500D01*
X114581976Y-63945500D01*
X114782456Y-63908024D01*
X114972637Y-63834348D01*
X115146041Y-63726981D01*
X115296764Y-63589579D01*
X115419673Y-63426821D01*
X115510582Y-63244250D01*
X115566397Y-63048083D01*
X115585215Y-62845000D01*
X115585215Y-62844999D01*
X120994785Y-62844999D01*
X120994785Y-62845000D01*
X121013602Y-63048082D01*
X121069417Y-63244247D01*
X121069422Y-63244260D01*
X121160327Y-63426821D01*
X121283237Y-63589581D01*
X121433958Y-63726980D01*
X121433960Y-63726982D01*
X121533141Y-63788392D01*
X121607363Y-63834348D01*
X121797544Y-63908024D01*
X121998024Y-63945500D01*
X121998026Y-63945500D01*
X122201974Y-63945500D01*
X122201976Y-63945500D01*
X122402456Y-63908024D01*
X122592637Y-63834348D01*
X122766041Y-63726981D01*
X122916764Y-63589579D01*
X123039673Y-63426821D01*
X123130582Y-63244250D01*
X123186397Y-63048083D01*
X123205215Y-62845000D01*
X123202364Y-62814237D01*
X123186397Y-62641917D01*
X123165951Y-62570057D01*
X123130582Y-62445750D01*
X123118950Y-62422390D01*
X123079716Y-62343596D01*
X123039673Y-62263179D01*
X122952380Y-62147584D01*
X122916762Y-62100418D01*
X122766041Y-61963019D01*
X122766039Y-61963017D01*
X122592642Y-61855655D01*
X122592635Y-61855651D01*
X122497546Y-61818814D01*
X122402456Y-61781976D01*
X122201976Y-61744500D01*
X121998024Y-61744500D01*
X121797544Y-61781976D01*
X121797541Y-61781976D01*
X121797541Y-61781977D01*
X121607364Y-61855651D01*
X121607357Y-61855655D01*
X121433960Y-61963017D01*
X121433958Y-61963019D01*
X121283237Y-62100418D01*
X121160327Y-62263178D01*
X121069422Y-62445739D01*
X121069417Y-62445752D01*
X121013602Y-62641917D01*
X120994785Y-62844999D01*
X115585215Y-62844999D01*
X115582364Y-62814237D01*
X115566397Y-62641917D01*
X115545951Y-62570057D01*
X115510582Y-62445750D01*
X115498950Y-62422390D01*
X115459716Y-62343596D01*
X115419673Y-62263179D01*
X115332380Y-62147584D01*
X115296762Y-62100418D01*
X115146041Y-61963019D01*
X115146039Y-61963017D01*
X114972642Y-61855655D01*
X114972635Y-61855651D01*
X114877546Y-61818814D01*
X114782456Y-61781976D01*
X114581976Y-61744500D01*
X114378024Y-61744500D01*
X114177544Y-61781976D01*
X114177541Y-61781976D01*
X114177541Y-61781977D01*
X113987364Y-61855651D01*
X113987357Y-61855655D01*
X113813960Y-61963017D01*
X113813958Y-61963019D01*
X113663237Y-62100418D01*
X113540327Y-62263178D01*
X113449422Y-62445739D01*
X113449417Y-62445752D01*
X113393602Y-62641917D01*
X113374785Y-62844999D01*
X112750500Y-62844999D01*
X112750500Y-61229387D01*
X112770185Y-61162348D01*
X112786819Y-61141706D01*
X113036706Y-60891819D01*
X113098029Y-60858334D01*
X113124387Y-60855500D01*
X113454930Y-60855500D01*
X113521969Y-60875185D01*
X113553884Y-60904773D01*
X113663237Y-61049581D01*
X113813958Y-61186980D01*
X113813960Y-61186982D01*
X113857977Y-61214236D01*
X113987363Y-61294348D01*
X114177544Y-61368024D01*
X114378024Y-61405500D01*
X114378026Y-61405500D01*
X114581974Y-61405500D01*
X114581976Y-61405500D01*
X114782456Y-61368024D01*
X114972637Y-61294348D01*
X115146041Y-61186981D01*
X115282843Y-61062270D01*
X115296762Y-61049581D01*
X115316932Y-61022872D01*
X115419673Y-60886821D01*
X115510582Y-60704250D01*
X115566397Y-60508083D01*
X115585215Y-60305000D01*
X115566397Y-60101917D01*
X115510582Y-59905750D01*
X115504138Y-59892809D01*
X115461234Y-59806645D01*
X115419673Y-59723179D01*
X115317602Y-59588015D01*
X115296762Y-59560418D01*
X115146042Y-59423020D01*
X115146041Y-59423019D01*
X115089222Y-59387838D01*
X115042587Y-59335810D01*
X115030500Y-59282411D01*
X115030500Y-58787587D01*
X115050185Y-58720548D01*
X115089220Y-58682162D01*
X115146041Y-58646981D01*
X115296764Y-58509579D01*
X115419673Y-58346821D01*
X115510582Y-58164250D01*
X115566397Y-57968083D01*
X115585215Y-57765000D01*
X115584289Y-57755012D01*
X115566397Y-57561917D01*
X115519920Y-57398571D01*
X115510582Y-57365750D01*
X115502739Y-57350000D01*
X115439495Y-57222987D01*
X115419673Y-57183179D01*
X115296764Y-57020421D01*
X115296762Y-57020418D01*
X115146041Y-56883019D01*
X115146039Y-56883017D01*
X114972642Y-56775655D01*
X114972635Y-56775651D01*
X114877546Y-56738814D01*
X114782456Y-56701976D01*
X114581976Y-56664500D01*
X114378024Y-56664500D01*
X114177544Y-56701976D01*
X114177541Y-56701976D01*
X114177541Y-56701977D01*
X113987364Y-56775651D01*
X113987357Y-56775655D01*
X113813960Y-56883017D01*
X113813958Y-56883019D01*
X113663237Y-57020418D01*
X113540327Y-57183178D01*
X113449422Y-57365739D01*
X113449417Y-57365752D01*
X113393602Y-57561917D01*
X113374785Y-57764999D01*
X113374785Y-57765000D01*
X113393602Y-57968082D01*
X113449417Y-58164247D01*
X113449422Y-58164260D01*
X113523014Y-58312052D01*
X113540327Y-58346821D01*
X113663236Y-58509579D01*
X113813959Y-58646981D01*
X113870778Y-58682161D01*
X113917412Y-58734187D01*
X113929500Y-58787587D01*
X113929500Y-59282411D01*
X113909815Y-59349450D01*
X113870778Y-59387838D01*
X113813957Y-59423020D01*
X113663237Y-59560418D01*
X113553884Y-59705227D01*
X113497775Y-59746863D01*
X113454930Y-59754500D01*
X112772524Y-59754500D01*
X112740862Y-59762983D01*
X112740863Y-59762984D01*
X112632514Y-59792016D01*
X112506986Y-59864489D01*
X112506983Y-59864491D01*
X111962181Y-60409294D01*
X111900858Y-60442779D01*
X111831166Y-60437795D01*
X111775233Y-60395923D01*
X111750816Y-60330459D01*
X111750500Y-60321613D01*
X111750500Y-56329387D01*
X111770185Y-56262348D01*
X111786819Y-56241706D01*
X112216706Y-55811819D01*
X112278029Y-55778334D01*
X112304387Y-55775500D01*
X113454930Y-55775500D01*
X113521969Y-55795185D01*
X113553884Y-55824773D01*
X113663237Y-55969581D01*
X113813958Y-56106980D01*
X113813960Y-56106982D01*
X113899426Y-56159900D01*
X113987363Y-56214348D01*
X114177544Y-56288024D01*
X114378024Y-56325500D01*
X114378026Y-56325500D01*
X114581974Y-56325500D01*
X114581976Y-56325500D01*
X114782456Y-56288024D01*
X114972637Y-56214348D01*
X115146041Y-56106981D01*
X115296764Y-55969579D01*
X115419673Y-55806821D01*
X115510582Y-55624250D01*
X115566397Y-55428083D01*
X115585215Y-55225000D01*
X115582898Y-55200000D01*
X115566397Y-55021917D01*
X115545793Y-54949502D01*
X115510582Y-54825750D01*
X115507165Y-54818888D01*
X115455055Y-54714237D01*
X115419673Y-54643179D01*
X115296764Y-54480421D01*
X115296762Y-54480418D01*
X115146042Y-54343020D01*
X115146041Y-54343019D01*
X115089222Y-54307838D01*
X115042587Y-54255810D01*
X115030500Y-54202411D01*
X115030500Y-53707587D01*
X115050185Y-53640548D01*
X115089220Y-53602162D01*
X115146041Y-53566981D01*
X115296764Y-53429579D01*
X115419673Y-53266821D01*
X115510582Y-53084250D01*
X115566397Y-52888083D01*
X115585215Y-52685000D01*
X115581759Y-52647708D01*
X115566397Y-52481917D01*
X115535832Y-52374494D01*
X115510582Y-52285750D01*
X115510515Y-52285616D01*
X115448932Y-52161939D01*
X115419673Y-52103179D01*
X115296764Y-51940421D01*
X115296762Y-51940418D01*
X115146041Y-51803019D01*
X115146039Y-51803017D01*
X114972642Y-51695655D01*
X114972635Y-51695651D01*
X114838264Y-51643596D01*
X114782456Y-51621976D01*
X114581976Y-51584500D01*
X114378024Y-51584500D01*
X114177544Y-51621976D01*
X114177541Y-51621976D01*
X114177541Y-51621977D01*
X113987364Y-51695651D01*
X113987357Y-51695655D01*
X113813960Y-51803017D01*
X113813958Y-51803019D01*
X113663237Y-51940418D01*
X113540327Y-52103178D01*
X113449422Y-52285739D01*
X113449417Y-52285752D01*
X113393602Y-52481917D01*
X113374785Y-52684999D01*
X113374785Y-52685000D01*
X113393602Y-52888082D01*
X113449417Y-53084247D01*
X113449422Y-53084260D01*
X113515980Y-53217926D01*
X113540327Y-53266821D01*
X113663236Y-53429579D01*
X113813959Y-53566981D01*
X113870778Y-53602161D01*
X113917412Y-53654187D01*
X113929500Y-53707587D01*
X113929500Y-54202411D01*
X113909815Y-54269450D01*
X113870778Y-54307838D01*
X113813957Y-54343020D01*
X113663237Y-54480418D01*
X113553884Y-54625227D01*
X113497775Y-54666863D01*
X113454930Y-54674500D01*
X111952525Y-54674500D01*
X111847517Y-54702637D01*
X111812514Y-54712016D01*
X111686986Y-54784489D01*
X111686983Y-54784491D01*
X110759491Y-55711983D01*
X110759487Y-55711988D01*
X110694530Y-55824498D01*
X110694530Y-55824500D01*
X110687016Y-55837515D01*
X110653843Y-55961319D01*
X110649501Y-55977522D01*
X110649500Y-55977526D01*
X110649500Y-66570613D01*
X110629815Y-66637652D01*
X110613181Y-66658294D01*
X109594230Y-67677244D01*
X109532907Y-67710729D01*
X109463215Y-67705745D01*
X109407282Y-67663873D01*
X109382865Y-67598409D01*
X109387889Y-67553567D01*
X109396327Y-67525752D01*
X109447127Y-67358286D01*
X109467641Y-67150000D01*
X109447127Y-66941714D01*
X109386372Y-66741431D01*
X109287711Y-66556850D01*
X109287708Y-66556846D01*
X109154936Y-66395063D01*
X108993153Y-66262291D01*
X108993151Y-66262290D01*
X108993150Y-66262289D01*
X108808569Y-66163628D01*
X108696324Y-66129579D01*
X108608284Y-66102872D01*
X108400000Y-66082359D01*
X108191715Y-66102872D01*
X107991428Y-66163629D01*
X107806846Y-66262291D01*
X107645063Y-66395063D01*
X107512291Y-66556846D01*
X107413629Y-66741428D01*
X107413628Y-66741430D01*
X107413628Y-66741431D01*
X107406680Y-66764334D01*
X107352872Y-66941715D01*
X107332359Y-67150000D01*
X107352872Y-67358284D01*
X107366196Y-67402206D01*
X107413628Y-67558569D01*
X107482700Y-67687794D01*
X107512291Y-67743153D01*
X107645063Y-67904936D01*
X107806846Y-68037708D01*
X107806850Y-68037711D01*
X107991431Y-68136372D01*
X108191714Y-68197127D01*
X108400000Y-68217641D01*
X108608286Y-68197127D01*
X108803568Y-68137888D01*
X108873434Y-68137265D01*
X108932547Y-68174513D01*
X108962138Y-68237807D01*
X108952813Y-68307051D01*
X108927244Y-68344230D01*
X104758294Y-72513181D01*
X104696971Y-72546666D01*
X104670613Y-72549500D01*
X88279387Y-72549500D01*
X88212348Y-72529815D01*
X88191706Y-72513181D01*
X86708016Y-71029491D01*
X86708015Y-71029490D01*
X86582485Y-70957016D01*
X86582486Y-70957016D01*
X86473592Y-70927838D01*
X86473592Y-70927837D01*
X86442475Y-70919500D01*
X85077237Y-70919500D01*
X85010198Y-70899815D01*
X84964855Y-70847906D01*
X84950568Y-70817266D01*
X84820047Y-70630861D01*
X84820045Y-70630858D01*
X84659141Y-70469954D01*
X84472734Y-70339432D01*
X84472732Y-70339431D01*
X84266497Y-70243261D01*
X84266488Y-70243258D01*
X84046697Y-70184366D01*
X84046693Y-70184365D01*
X84046692Y-70184365D01*
X84046691Y-70184364D01*
X84046686Y-70184364D01*
X83820002Y-70164532D01*
X83819998Y-70164532D01*
X83593313Y-70184364D01*
X83593302Y-70184366D01*
X83373511Y-70243258D01*
X83373502Y-70243261D01*
X83167267Y-70339431D01*
X83167265Y-70339432D01*
X82980858Y-70469954D01*
X82819954Y-70630858D01*
X82689432Y-70817265D01*
X82689431Y-70817267D01*
X82593261Y-71023502D01*
X82593258Y-71023511D01*
X82534366Y-71243302D01*
X82534364Y-71243313D01*
X82514532Y-71469998D01*
X80262041Y-71469998D01*
X80260034Y-66389994D01*
X82314859Y-66389994D01*
X82314859Y-66390005D01*
X82335385Y-66637729D01*
X82335387Y-66637738D01*
X82396412Y-66878717D01*
X82496266Y-67106364D01*
X82596564Y-67259882D01*
X83296212Y-66560234D01*
X83307482Y-66602292D01*
X83379890Y-66727708D01*
X83482292Y-66830110D01*
X83607708Y-66902518D01*
X83649765Y-66913787D01*
X82949942Y-67613609D01*
X82996768Y-67650055D01*
X82996770Y-67650056D01*
X83215385Y-67768364D01*
X83215396Y-67768369D01*
X83450506Y-67849083D01*
X83695707Y-67890000D01*
X83944293Y-67890000D01*
X84189493Y-67849083D01*
X84424603Y-67768369D01*
X84424614Y-67768364D01*
X84643228Y-67650057D01*
X84643231Y-67650055D01*
X84690056Y-67613609D01*
X83990234Y-66913787D01*
X84032292Y-66902518D01*
X84157708Y-66830110D01*
X84260110Y-66727708D01*
X84332518Y-66602292D01*
X84343787Y-66560234D01*
X85043434Y-67259882D01*
X85143731Y-67106369D01*
X85243587Y-66878717D01*
X85304612Y-66637738D01*
X85304614Y-66637729D01*
X85325141Y-66390005D01*
X85325141Y-66389994D01*
X85313541Y-66250000D01*
X101144571Y-66250000D01*
X101164244Y-66462310D01*
X101214158Y-66637738D01*
X101222596Y-66667392D01*
X101222596Y-66667394D01*
X101317632Y-66858253D01*
X101388604Y-66952234D01*
X101446128Y-67028407D01*
X101603698Y-67172052D01*
X101784981Y-67284298D01*
X101983802Y-67361321D01*
X102156544Y-67393612D01*
X102218823Y-67425279D01*
X102254096Y-67485591D01*
X102251162Y-67555400D01*
X102210953Y-67612540D01*
X102146235Y-67638871D01*
X102133757Y-67639500D01*
X101405143Y-67639500D01*
X101405117Y-67639502D01*
X101380012Y-67642413D01*
X101380008Y-67642415D01*
X101277235Y-67687793D01*
X101197794Y-67767234D01*
X101152415Y-67870006D01*
X101152415Y-67870008D01*
X101149500Y-67895131D01*
X101149500Y-69684856D01*
X101149502Y-69684882D01*
X101152413Y-69709987D01*
X101152415Y-69709991D01*
X101197793Y-69812764D01*
X101197794Y-69812765D01*
X101277235Y-69892206D01*
X101380009Y-69937585D01*
X101405135Y-69940500D01*
X103194864Y-69940499D01*
X103194879Y-69940497D01*
X103194882Y-69940497D01*
X103219987Y-69937586D01*
X103219988Y-69937585D01*
X103219991Y-69937585D01*
X103322765Y-69892206D01*
X103402206Y-69812765D01*
X103447585Y-69709991D01*
X103450500Y-69684865D01*
X103450499Y-67895136D01*
X103450497Y-67895117D01*
X103447586Y-67870012D01*
X103447585Y-67870010D01*
X103447585Y-67870009D01*
X103402206Y-67767235D01*
X103322765Y-67687794D01*
X103322763Y-67687793D01*
X103219992Y-67642415D01*
X103194868Y-67639500D01*
X102466243Y-67639500D01*
X102399204Y-67619815D01*
X102353449Y-67567011D01*
X102343505Y-67497853D01*
X102372530Y-67434297D01*
X102431308Y-67396523D01*
X102443441Y-67393614D01*
X102616198Y-67361321D01*
X102815019Y-67284298D01*
X102996302Y-67172052D01*
X103020492Y-67150000D01*
X104792359Y-67150000D01*
X104812872Y-67358284D01*
X104826196Y-67402206D01*
X104873628Y-67558569D01*
X104942700Y-67687794D01*
X104972291Y-67743153D01*
X105105063Y-67904936D01*
X105266846Y-68037708D01*
X105266850Y-68037711D01*
X105451431Y-68136372D01*
X105651714Y-68197127D01*
X105860000Y-68217641D01*
X106068286Y-68197127D01*
X106268569Y-68136372D01*
X106453150Y-68037711D01*
X106614936Y-67904936D01*
X106747711Y-67743150D01*
X106846372Y-67558569D01*
X106907127Y-67358286D01*
X106927641Y-67150000D01*
X106907127Y-66941714D01*
X106846372Y-66741431D01*
X106747711Y-66556850D01*
X106747708Y-66556846D01*
X106614936Y-66395063D01*
X106453153Y-66262291D01*
X106453151Y-66262290D01*
X106453150Y-66262289D01*
X106268569Y-66163628D01*
X106156324Y-66129579D01*
X106068284Y-66102872D01*
X105860000Y-66082359D01*
X105651715Y-66102872D01*
X105451428Y-66163629D01*
X105266846Y-66262291D01*
X105105063Y-66395063D01*
X104972291Y-66556846D01*
X104873629Y-66741428D01*
X104873628Y-66741430D01*
X104873628Y-66741431D01*
X104866680Y-66764334D01*
X104812872Y-66941715D01*
X104792359Y-67150000D01*
X103020492Y-67150000D01*
X103153872Y-67028407D01*
X103282366Y-66858255D01*
X103323573Y-66775499D01*
X103377403Y-66667394D01*
X103377403Y-66667393D01*
X103377405Y-66667389D01*
X103435756Y-66462310D01*
X103455429Y-66250000D01*
X103435756Y-66037690D01*
X103377405Y-65832611D01*
X103377403Y-65832606D01*
X103377403Y-65832605D01*
X103282367Y-65641746D01*
X103153872Y-65471593D01*
X103082063Y-65406130D01*
X102996302Y-65327948D01*
X102815019Y-65215702D01*
X102815017Y-65215701D01*
X102687724Y-65166388D01*
X102616198Y-65138679D01*
X102406610Y-65099500D01*
X102193390Y-65099500D01*
X101983802Y-65138679D01*
X101983799Y-65138679D01*
X101983799Y-65138680D01*
X101784982Y-65215701D01*
X101784980Y-65215702D01*
X101603699Y-65327947D01*
X101446127Y-65471593D01*
X101317632Y-65641746D01*
X101222596Y-65832605D01*
X101222596Y-65832607D01*
X101164598Y-66036447D01*
X101164244Y-66037690D01*
X101144571Y-66250000D01*
X85313541Y-66250000D01*
X85304614Y-66142270D01*
X85304612Y-66142261D01*
X85243587Y-65901282D01*
X85143731Y-65673630D01*
X85043434Y-65520116D01*
X84343787Y-66219764D01*
X84332518Y-66177708D01*
X84260110Y-66052292D01*
X84157708Y-65949890D01*
X84032292Y-65877482D01*
X83990235Y-65866212D01*
X84690057Y-65166390D01*
X84690056Y-65166389D01*
X84643229Y-65129943D01*
X84424614Y-65011635D01*
X84424603Y-65011630D01*
X84189493Y-64930916D01*
X83944293Y-64890000D01*
X83695707Y-64890000D01*
X83450506Y-64930916D01*
X83215396Y-65011630D01*
X83215390Y-65011632D01*
X82996761Y-65129949D01*
X82949942Y-65166388D01*
X82949942Y-65166390D01*
X83649765Y-65866212D01*
X83607708Y-65877482D01*
X83482292Y-65949890D01*
X83379890Y-66052292D01*
X83307482Y-66177708D01*
X83296212Y-66219764D01*
X82596564Y-65520116D01*
X82496267Y-65673632D01*
X82396412Y-65901282D01*
X82335387Y-66142261D01*
X82335385Y-66142270D01*
X82314859Y-66389994D01*
X80260034Y-66389994D01*
X80258028Y-61309994D01*
X82314859Y-61309994D01*
X82314859Y-61310005D01*
X82335385Y-61557729D01*
X82335387Y-61557738D01*
X82396412Y-61798717D01*
X82496266Y-62026364D01*
X82596564Y-62179882D01*
X83296212Y-61480234D01*
X83307482Y-61522292D01*
X83379890Y-61647708D01*
X83482292Y-61750110D01*
X83607708Y-61822518D01*
X83649765Y-61833787D01*
X82949942Y-62533609D01*
X82996768Y-62570055D01*
X82996770Y-62570056D01*
X83215385Y-62688364D01*
X83215396Y-62688369D01*
X83450506Y-62769083D01*
X83695707Y-62810000D01*
X83944293Y-62810000D01*
X84189493Y-62769083D01*
X84424603Y-62688369D01*
X84424614Y-62688364D01*
X84643228Y-62570057D01*
X84643231Y-62570055D01*
X84690056Y-62533609D01*
X83990234Y-61833787D01*
X84032292Y-61822518D01*
X84157708Y-61750110D01*
X84260110Y-61647708D01*
X84332518Y-61522292D01*
X84343787Y-61480234D01*
X85043434Y-62179882D01*
X85143731Y-62026369D01*
X85243587Y-61798717D01*
X85304612Y-61557738D01*
X85304614Y-61557729D01*
X85325141Y-61310005D01*
X85325141Y-61309994D01*
X85304614Y-61062270D01*
X85304612Y-61062261D01*
X85243587Y-60821282D01*
X85143731Y-60593630D01*
X85043434Y-60440116D01*
X84343787Y-61139764D01*
X84332518Y-61097708D01*
X84260110Y-60972292D01*
X84157708Y-60869890D01*
X84032292Y-60797482D01*
X83990235Y-60786212D01*
X84690057Y-60086390D01*
X84690056Y-60086389D01*
X84643229Y-60049943D01*
X84424614Y-59931635D01*
X84424603Y-59931630D01*
X84189493Y-59850916D01*
X83944293Y-59810000D01*
X83695707Y-59810000D01*
X83450506Y-59850916D01*
X83215396Y-59931630D01*
X83215390Y-59931632D01*
X82996761Y-60049949D01*
X82949942Y-60086388D01*
X82949942Y-60086390D01*
X83649765Y-60786212D01*
X83607708Y-60797482D01*
X83482292Y-60869890D01*
X83379890Y-60972292D01*
X83307482Y-61097708D01*
X83296212Y-61139764D01*
X82596564Y-60440116D01*
X82496267Y-60593632D01*
X82396412Y-60821282D01*
X82335387Y-61062261D01*
X82335385Y-61062270D01*
X82314859Y-61309994D01*
X80258028Y-61309994D01*
X80256285Y-56897844D01*
X87300000Y-56897844D01*
X87306401Y-56957372D01*
X87306403Y-56957379D01*
X87356645Y-57092086D01*
X87356649Y-57092093D01*
X87442809Y-57207187D01*
X87442812Y-57207190D01*
X87557906Y-57293350D01*
X87557913Y-57293354D01*
X87692620Y-57343596D01*
X87692627Y-57343598D01*
X87752155Y-57349999D01*
X87752172Y-57350000D01*
X88650000Y-57350000D01*
X89150000Y-57350000D01*
X90047828Y-57350000D01*
X90047844Y-57349999D01*
X90107372Y-57343598D01*
X90107379Y-57343596D01*
X90242086Y-57293354D01*
X90242093Y-57293350D01*
X90357186Y-57207190D01*
X90431985Y-57107274D01*
X90487919Y-57065403D01*
X90557611Y-57060419D01*
X90618933Y-57093904D01*
X90627235Y-57102206D01*
X90730009Y-57147585D01*
X90755135Y-57150500D01*
X91225500Y-57150499D01*
X91292539Y-57170183D01*
X91338294Y-57222987D01*
X91349500Y-57274499D01*
X91349500Y-58970613D01*
X91329815Y-59037652D01*
X91313181Y-59058294D01*
X91059491Y-59311983D01*
X91059487Y-59311988D01*
X91031041Y-59361261D01*
X91031040Y-59361263D01*
X90987017Y-59437512D01*
X90987016Y-59437513D01*
X90980325Y-59462485D01*
X90949500Y-59577525D01*
X90949500Y-62692475D01*
X90982127Y-62814239D01*
X90987017Y-62832488D01*
X91059488Y-62958011D01*
X91059490Y-62958013D01*
X91059491Y-62958015D01*
X91161985Y-63060509D01*
X91161986Y-63060510D01*
X91161988Y-63060511D01*
X91287511Y-63132982D01*
X91287512Y-63132982D01*
X91287515Y-63132984D01*
X91427525Y-63170500D01*
X91427528Y-63170500D01*
X94702472Y-63170500D01*
X94702474Y-63170500D01*
X94702475Y-63170500D01*
X94842485Y-63132984D01*
X94869950Y-63117127D01*
X94968015Y-63060510D01*
X95740510Y-62288015D01*
X95754849Y-62263179D01*
X95784109Y-62212500D01*
X95834675Y-62164284D01*
X95891496Y-62150499D01*
X96444856Y-62150499D01*
X96444864Y-62150499D01*
X96444879Y-62150497D01*
X96444882Y-62150497D01*
X96469987Y-62147586D01*
X96469988Y-62147585D01*
X96469991Y-62147585D01*
X96572765Y-62102206D01*
X96581067Y-62093903D01*
X96642385Y-62060420D01*
X96712077Y-62065402D01*
X96768012Y-62107272D01*
X96768013Y-62107273D01*
X96842812Y-62207190D01*
X96957906Y-62293350D01*
X96957913Y-62293354D01*
X97092620Y-62343596D01*
X97092627Y-62343598D01*
X97152155Y-62349999D01*
X97152172Y-62350000D01*
X98050000Y-62350000D01*
X98550000Y-62350000D01*
X99447828Y-62350000D01*
X99447844Y-62349999D01*
X99507372Y-62343598D01*
X99507379Y-62343596D01*
X99642086Y-62293354D01*
X99642093Y-62293350D01*
X99757187Y-62207190D01*
X99757190Y-62207187D01*
X99843350Y-62092093D01*
X99843354Y-62092086D01*
X99893596Y-61957379D01*
X99893598Y-61957372D01*
X99899999Y-61897844D01*
X99900000Y-61897827D01*
X99900000Y-61300000D01*
X98550000Y-61300000D01*
X98550000Y-62350000D01*
X98050000Y-62350000D01*
X98050000Y-60800000D01*
X98550000Y-60800000D01*
X99900000Y-60800000D01*
X99900000Y-60202172D01*
X99899999Y-60202155D01*
X99893598Y-60142627D01*
X99893596Y-60142620D01*
X99843354Y-60007913D01*
X99843350Y-60007906D01*
X99757190Y-59892812D01*
X99757187Y-59892809D01*
X99642093Y-59806649D01*
X99642086Y-59806645D01*
X99507379Y-59756403D01*
X99507372Y-59756401D01*
X99447844Y-59750000D01*
X98550000Y-59750000D01*
X98550000Y-60800000D01*
X98050000Y-60800000D01*
X98050000Y-59750000D01*
X97152155Y-59750000D01*
X97092627Y-59756401D01*
X97092620Y-59756403D01*
X96957913Y-59806645D01*
X96957906Y-59806649D01*
X96842812Y-59892809D01*
X96768013Y-59992726D01*
X96712078Y-60034597D01*
X96642387Y-60039580D01*
X96581066Y-60006095D01*
X96572765Y-59997794D01*
X96469992Y-59952415D01*
X96444865Y-59949500D01*
X94155143Y-59949500D01*
X94155117Y-59949502D01*
X94130012Y-59952413D01*
X94130008Y-59952415D01*
X94027235Y-59997793D01*
X93947794Y-60077234D01*
X93902415Y-60180006D01*
X93902415Y-60180008D01*
X93899500Y-60205131D01*
X93899500Y-61894856D01*
X93899502Y-61894882D01*
X93903489Y-61929258D01*
X93900162Y-61929643D01*
X93899109Y-61982786D01*
X93860177Y-62040804D01*
X93796059Y-62068564D01*
X93780848Y-62069500D01*
X92174500Y-62069500D01*
X92107461Y-62049815D01*
X92061706Y-61997011D01*
X92050500Y-61945500D01*
X92050500Y-59929387D01*
X92070185Y-59862348D01*
X92086819Y-59841706D01*
X92205347Y-59723178D01*
X92340510Y-59588015D01*
X92412984Y-59462485D01*
X92419675Y-59437515D01*
X92423560Y-59423018D01*
X92433420Y-59386216D01*
X92450500Y-59322475D01*
X92450500Y-57274499D01*
X92470185Y-57207460D01*
X92522989Y-57161705D01*
X92574500Y-57150499D01*
X93044856Y-57150499D01*
X93044864Y-57150499D01*
X93044879Y-57150497D01*
X93044882Y-57150497D01*
X93069987Y-57147586D01*
X93069988Y-57147585D01*
X93069991Y-57147585D01*
X93172765Y-57102206D01*
X93252206Y-57022765D01*
X93297585Y-56919991D01*
X93300500Y-56894865D01*
X93300500Y-56574985D01*
X94300000Y-56574985D01*
X94310493Y-56677689D01*
X94310494Y-56677696D01*
X94365641Y-56844118D01*
X94365643Y-56844123D01*
X94457684Y-56993344D01*
X94581655Y-57117315D01*
X94730876Y-57209356D01*
X94730881Y-57209358D01*
X94897303Y-57264505D01*
X94897310Y-57264506D01*
X95000014Y-57274999D01*
X95000027Y-57275000D01*
X95262500Y-57275000D01*
X95762500Y-57275000D01*
X96024973Y-57275000D01*
X96024985Y-57274999D01*
X96127689Y-57264506D01*
X96127696Y-57264505D01*
X96294118Y-57209358D01*
X96294123Y-57209356D01*
X96443344Y-57117315D01*
X96567315Y-56993344D01*
X96659356Y-56844123D01*
X96659358Y-56844118D01*
X96714505Y-56677696D01*
X96714506Y-56677689D01*
X96724999Y-56574985D01*
X96725000Y-56574972D01*
X96725000Y-55700000D01*
X95762500Y-55700000D01*
X95762500Y-57275000D01*
X95262500Y-57275000D01*
X95262500Y-55700000D01*
X94300000Y-55700000D01*
X94300000Y-56574985D01*
X93300500Y-56574985D01*
X93300499Y-55205136D01*
X93300462Y-55204815D01*
X93297586Y-55180012D01*
X93297585Y-55180010D01*
X93297585Y-55180009D01*
X93252206Y-55077235D01*
X93172765Y-54997794D01*
X93161287Y-54992726D01*
X93069992Y-54952415D01*
X93044865Y-54949500D01*
X90755143Y-54949500D01*
X90755117Y-54949502D01*
X90730012Y-54952413D01*
X90730008Y-54952415D01*
X90627236Y-54997793D01*
X90618931Y-55006098D01*
X90557606Y-55039581D01*
X90487915Y-55034594D01*
X90431986Y-54992726D01*
X90357187Y-54892809D01*
X90242093Y-54806649D01*
X90242086Y-54806645D01*
X90107379Y-54756403D01*
X90107372Y-54756401D01*
X90047844Y-54750000D01*
X89150000Y-54750000D01*
X89150000Y-57350000D01*
X88650000Y-57350000D01*
X88650000Y-56300000D01*
X87300000Y-56300000D01*
X87300000Y-56897844D01*
X80256285Y-56897844D01*
X80254374Y-52060000D01*
X81376491Y-52060000D01*
X82364252Y-52060000D01*
X82342482Y-52097708D01*
X82305000Y-52237591D01*
X82305000Y-52382409D01*
X82342482Y-52522292D01*
X82364252Y-52560000D01*
X81376491Y-52560000D01*
X81390765Y-52650128D01*
X81461417Y-52867570D01*
X81565211Y-53071276D01*
X81699597Y-53256242D01*
X81861257Y-53417902D01*
X82046225Y-53552290D01*
X82110264Y-53584919D01*
X82161061Y-53632893D01*
X82177856Y-53700714D01*
X82155319Y-53766849D01*
X82126856Y-53795721D01*
X81991231Y-53894260D01*
X81991222Y-53894267D01*
X81851767Y-54033722D01*
X81735838Y-54193284D01*
X81646297Y-54369017D01*
X81585353Y-54556586D01*
X81554500Y-54751381D01*
X81554500Y-54948618D01*
X81585353Y-55143413D01*
X81646297Y-55330982D01*
X81690334Y-55417409D01*
X81735838Y-55506715D01*
X81851765Y-55666275D01*
X81991225Y-55805735D01*
X82150785Y-55921662D01*
X82303551Y-55999500D01*
X82326517Y-56011202D01*
X82383692Y-56029779D01*
X82514088Y-56072147D01*
X82604307Y-56086436D01*
X82708882Y-56103000D01*
X82708887Y-56103000D01*
X83001118Y-56103000D01*
X83095552Y-56088042D01*
X83195912Y-56072147D01*
X83383485Y-56011201D01*
X83559215Y-55921662D01*
X83718775Y-55805735D01*
X83858235Y-55666275D01*
X83974162Y-55506715D01*
X83974165Y-55506710D01*
X83993785Y-55468205D01*
X84041759Y-55417409D01*
X84104269Y-55400500D01*
X84972472Y-55400500D01*
X84972474Y-55400500D01*
X84972475Y-55400500D01*
X85112485Y-55362984D01*
X85117153Y-55360289D01*
X85238015Y-55290510D01*
X85326370Y-55202155D01*
X87300000Y-55202155D01*
X87300000Y-55800000D01*
X88650000Y-55800000D01*
X88650000Y-54750000D01*
X87752155Y-54750000D01*
X87692627Y-54756401D01*
X87692620Y-54756403D01*
X87557913Y-54806645D01*
X87557906Y-54806649D01*
X87442812Y-54892809D01*
X87442809Y-54892812D01*
X87356649Y-55007906D01*
X87356645Y-55007913D01*
X87306403Y-55142620D01*
X87306401Y-55142627D01*
X87300000Y-55202155D01*
X85326370Y-55202155D01*
X85840510Y-54688015D01*
X85912984Y-54562485D01*
X85916838Y-54548101D01*
X85925140Y-54517121D01*
X85934974Y-54480418D01*
X85950500Y-54422475D01*
X85950500Y-51197844D01*
X87200000Y-51197844D01*
X87206401Y-51257372D01*
X87206403Y-51257379D01*
X87256645Y-51392086D01*
X87256649Y-51392093D01*
X87342809Y-51507187D01*
X87342812Y-51507190D01*
X87457906Y-51593350D01*
X87457913Y-51593354D01*
X87592620Y-51643596D01*
X87592627Y-51643598D01*
X87652155Y-51649999D01*
X87652172Y-51650000D01*
X88550000Y-51650000D01*
X89050000Y-51650000D01*
X89947828Y-51650000D01*
X89947844Y-51649999D01*
X90007372Y-51643598D01*
X90007379Y-51643596D01*
X90142086Y-51593354D01*
X90142093Y-51593350D01*
X90257186Y-51507190D01*
X90331985Y-51407274D01*
X90387919Y-51365403D01*
X90457611Y-51360419D01*
X90518933Y-51393904D01*
X90527235Y-51402206D01*
X90630009Y-51447585D01*
X90655135Y-51450500D01*
X91250500Y-51450499D01*
X91317539Y-51470183D01*
X91363294Y-51522987D01*
X91374500Y-51574499D01*
X91374500Y-52193981D01*
X91374500Y-52193982D01*
X91374500Y-52306018D01*
X91403497Y-52414237D01*
X91459515Y-52511263D01*
X91959515Y-53011263D01*
X92038737Y-53090485D01*
X92135763Y-53146503D01*
X92243982Y-53175500D01*
X94778420Y-53175500D01*
X94845459Y-53195185D01*
X94866200Y-53212957D01*
X94866203Y-53212955D01*
X94866372Y-53213105D01*
X94871233Y-53217270D01*
X94871814Y-53217926D01*
X94999150Y-53330736D01*
X95114362Y-53391204D01*
X95164575Y-53439788D01*
X95180549Y-53507807D01*
X95157214Y-53573665D01*
X95101977Y-53616452D01*
X95056736Y-53625000D01*
X95000014Y-53625000D01*
X94897310Y-53635493D01*
X94897303Y-53635494D01*
X94730881Y-53690641D01*
X94730876Y-53690643D01*
X94581655Y-53782684D01*
X94457684Y-53906655D01*
X94365643Y-54055876D01*
X94365641Y-54055881D01*
X94310494Y-54222303D01*
X94310493Y-54222310D01*
X94300000Y-54325014D01*
X94300000Y-55200000D01*
X96725000Y-55200000D01*
X96725000Y-54331900D01*
X97474500Y-54331900D01*
X97474500Y-56568091D01*
X97485123Y-56656562D01*
X97540639Y-56797342D01*
X97540640Y-56797344D01*
X97632077Y-56917922D01*
X97731536Y-56993344D01*
X97752658Y-57009361D01*
X97893436Y-57064876D01*
X97981901Y-57075500D01*
X98993098Y-57075499D01*
X99081564Y-57064876D01*
X99222342Y-57009361D01*
X99342922Y-56917922D01*
X99434361Y-56797342D01*
X99489876Y-56656564D01*
X99500500Y-56568099D01*
X99500500Y-55999500D01*
X99520185Y-55932461D01*
X99572989Y-55886706D01*
X99624500Y-55875500D01*
X100872390Y-55875500D01*
X100939429Y-55895185D01*
X100960071Y-55911819D01*
X101238181Y-56189929D01*
X101271666Y-56251252D01*
X101274500Y-56277610D01*
X101274500Y-62593982D01*
X101274500Y-62706018D01*
X101303497Y-62814237D01*
X101359515Y-62911263D01*
X103259515Y-64811263D01*
X103338737Y-64890485D01*
X103435763Y-64946503D01*
X103543982Y-64975500D01*
X104776284Y-64975500D01*
X104843323Y-64995185D01*
X104885642Y-65041046D01*
X104966763Y-65192812D01*
X104972291Y-65203153D01*
X105105063Y-65364936D01*
X105246592Y-65481086D01*
X105266850Y-65497711D01*
X105451431Y-65596372D01*
X105651714Y-65657127D01*
X105860000Y-65677641D01*
X106068286Y-65657127D01*
X106268569Y-65596372D01*
X106453150Y-65497711D01*
X106614936Y-65364936D01*
X106747711Y-65203150D01*
X106846372Y-65018569D01*
X106907127Y-64818286D01*
X106927641Y-64610000D01*
X107332359Y-64610000D01*
X107352872Y-64818284D01*
X107383250Y-64918427D01*
X107413628Y-65018569D01*
X107506763Y-65192812D01*
X107512291Y-65203153D01*
X107645063Y-65364936D01*
X107786592Y-65481086D01*
X107806850Y-65497711D01*
X107991431Y-65596372D01*
X108191714Y-65657127D01*
X108400000Y-65677641D01*
X108608286Y-65657127D01*
X108808569Y-65596372D01*
X108993150Y-65497711D01*
X109154936Y-65364936D01*
X109287711Y-65203150D01*
X109386372Y-65018569D01*
X109447127Y-64818286D01*
X109467641Y-64610000D01*
X109447127Y-64401714D01*
X109386372Y-64201431D01*
X109287711Y-64016850D01*
X109287708Y-64016846D01*
X109154936Y-63855063D01*
X108993153Y-63722291D01*
X108993151Y-63722290D01*
X108993150Y-63722289D01*
X108808569Y-63623628D01*
X108696324Y-63589579D01*
X108608284Y-63562872D01*
X108400000Y-63542359D01*
X108191715Y-63562872D01*
X107991428Y-63623629D01*
X107806846Y-63722291D01*
X107645063Y-63855063D01*
X107512291Y-64016846D01*
X107413629Y-64201428D01*
X107352872Y-64401715D01*
X107332359Y-64610000D01*
X106927641Y-64610000D01*
X106907127Y-64401714D01*
X106846372Y-64201431D01*
X106747711Y-64016850D01*
X106747708Y-64016846D01*
X106614936Y-63855063D01*
X106453153Y-63722291D01*
X106453151Y-63722290D01*
X106453150Y-63722289D01*
X106268569Y-63623628D01*
X106156324Y-63589579D01*
X106068284Y-63562872D01*
X105860000Y-63542359D01*
X105651715Y-63562872D01*
X105451428Y-63623629D01*
X105266846Y-63722291D01*
X105105063Y-63855063D01*
X104972289Y-64016848D01*
X104972287Y-64016851D01*
X104949785Y-64058952D01*
X104900823Y-64108797D01*
X104840426Y-64124500D01*
X103827610Y-64124500D01*
X103760571Y-64104815D01*
X103739929Y-64088181D01*
X102161819Y-62510071D01*
X102128334Y-62448748D01*
X102125500Y-62422390D01*
X102125500Y-62070000D01*
X104792359Y-62070000D01*
X104812872Y-62278284D01*
X104832685Y-62343598D01*
X104873628Y-62478569D01*
X104922528Y-62570055D01*
X104972291Y-62663153D01*
X105105063Y-62824936D01*
X105266846Y-62957708D01*
X105266850Y-62957711D01*
X105451431Y-63056372D01*
X105651714Y-63117127D01*
X105860000Y-63137641D01*
X106068286Y-63117127D01*
X106268569Y-63056372D01*
X106453150Y-62957711D01*
X106614936Y-62824936D01*
X106747711Y-62663150D01*
X106846372Y-62478569D01*
X106907127Y-62278286D01*
X106927641Y-62070000D01*
X107332359Y-62070000D01*
X107352872Y-62278284D01*
X107372685Y-62343598D01*
X107413628Y-62478569D01*
X107462528Y-62570055D01*
X107512291Y-62663153D01*
X107645063Y-62824936D01*
X107806846Y-62957708D01*
X107806850Y-62957711D01*
X107991431Y-63056372D01*
X108191714Y-63117127D01*
X108400000Y-63137641D01*
X108608286Y-63117127D01*
X108808569Y-63056372D01*
X108993150Y-62957711D01*
X109154936Y-62824936D01*
X109287711Y-62663150D01*
X109386372Y-62478569D01*
X109447127Y-62278286D01*
X109467641Y-62070000D01*
X109447127Y-61861714D01*
X109386372Y-61661431D01*
X109287711Y-61476850D01*
X109287708Y-61476846D01*
X109154936Y-61315063D01*
X108993153Y-61182291D01*
X108993151Y-61182290D01*
X108993150Y-61182289D01*
X108808569Y-61083628D01*
X108696324Y-61049579D01*
X108608284Y-61022872D01*
X108400000Y-61002359D01*
X108191715Y-61022872D01*
X107991428Y-61083629D01*
X107806846Y-61182291D01*
X107645063Y-61315063D01*
X107512291Y-61476846D01*
X107413629Y-61661428D01*
X107352872Y-61861715D01*
X107332359Y-62070000D01*
X106927641Y-62070000D01*
X106907127Y-61861714D01*
X106846372Y-61661431D01*
X106747711Y-61476850D01*
X106747708Y-61476846D01*
X106614936Y-61315063D01*
X106453153Y-61182291D01*
X106453151Y-61182290D01*
X106453150Y-61182289D01*
X106268569Y-61083628D01*
X106156324Y-61049579D01*
X106068284Y-61022872D01*
X105860000Y-61002359D01*
X105651715Y-61022872D01*
X105451428Y-61083629D01*
X105266846Y-61182291D01*
X105105063Y-61315063D01*
X104972291Y-61476846D01*
X104873629Y-61661428D01*
X104812872Y-61861715D01*
X104792359Y-62070000D01*
X102125500Y-62070000D01*
X102125500Y-59530000D01*
X104792359Y-59530000D01*
X104812872Y-59738284D01*
X104820365Y-59762984D01*
X104873628Y-59938569D01*
X104952640Y-60086390D01*
X104972291Y-60123153D01*
X105105063Y-60284936D01*
X105240301Y-60395923D01*
X105266850Y-60417711D01*
X105451431Y-60516372D01*
X105651714Y-60577127D01*
X105860000Y-60597641D01*
X106068286Y-60577127D01*
X106268569Y-60516372D01*
X106453150Y-60417711D01*
X106614936Y-60284936D01*
X106747711Y-60123150D01*
X106846372Y-59938569D01*
X106907127Y-59738286D01*
X106927641Y-59530000D01*
X107332359Y-59530000D01*
X107352872Y-59738284D01*
X107360365Y-59762984D01*
X107413628Y-59938569D01*
X107492640Y-60086390D01*
X107512291Y-60123153D01*
X107645063Y-60284936D01*
X107780301Y-60395923D01*
X107806850Y-60417711D01*
X107991431Y-60516372D01*
X108191714Y-60577127D01*
X108400000Y-60597641D01*
X108608286Y-60577127D01*
X108808569Y-60516372D01*
X108993150Y-60417711D01*
X109154936Y-60284936D01*
X109287711Y-60123150D01*
X109386372Y-59938569D01*
X109447127Y-59738286D01*
X109467641Y-59530000D01*
X109447127Y-59321714D01*
X109386372Y-59121431D01*
X109287711Y-58936850D01*
X109276962Y-58923752D01*
X109154936Y-58775063D01*
X108993153Y-58642291D01*
X108993151Y-58642290D01*
X108993150Y-58642289D01*
X108808569Y-58543628D01*
X108696331Y-58509581D01*
X108608284Y-58482872D01*
X108400000Y-58462359D01*
X108191715Y-58482872D01*
X107991428Y-58543629D01*
X107806846Y-58642291D01*
X107645063Y-58775063D01*
X107512291Y-58936846D01*
X107413629Y-59121428D01*
X107352872Y-59321715D01*
X107332359Y-59530000D01*
X106927641Y-59530000D01*
X106907127Y-59321714D01*
X106846372Y-59121431D01*
X106747711Y-58936850D01*
X106736962Y-58923752D01*
X106614936Y-58775063D01*
X106453153Y-58642291D01*
X106453151Y-58642290D01*
X106453150Y-58642289D01*
X106268569Y-58543628D01*
X106156331Y-58509581D01*
X106068284Y-58482872D01*
X105860000Y-58462359D01*
X105651715Y-58482872D01*
X105451428Y-58543629D01*
X105266846Y-58642291D01*
X105105063Y-58775063D01*
X104972291Y-58936846D01*
X104873629Y-59121428D01*
X104812872Y-59321715D01*
X104792359Y-59530000D01*
X102125500Y-59530000D01*
X102125500Y-56990000D01*
X104792359Y-56990000D01*
X104812872Y-57198284D01*
X104836144Y-57275000D01*
X104871028Y-57389999D01*
X104873629Y-57398571D01*
X104972291Y-57583153D01*
X105105063Y-57744936D01*
X105266846Y-57877708D01*
X105266850Y-57877711D01*
X105451431Y-57976372D01*
X105651714Y-58037127D01*
X105860000Y-58057641D01*
X106068286Y-58037127D01*
X106268569Y-57976372D01*
X106453150Y-57877711D01*
X106614936Y-57744936D01*
X106747711Y-57583150D01*
X106846372Y-57398569D01*
X106907127Y-57198286D01*
X106927641Y-56990000D01*
X107332359Y-56990000D01*
X107352872Y-57198284D01*
X107376144Y-57275000D01*
X107411028Y-57389999D01*
X107413629Y-57398571D01*
X107512291Y-57583153D01*
X107645063Y-57744936D01*
X107806846Y-57877708D01*
X107806850Y-57877711D01*
X107991431Y-57976372D01*
X108191714Y-58037127D01*
X108400000Y-58057641D01*
X108608286Y-58037127D01*
X108808569Y-57976372D01*
X108993150Y-57877711D01*
X109154936Y-57744936D01*
X109287711Y-57583150D01*
X109386372Y-57398569D01*
X109447127Y-57198286D01*
X109467641Y-56990000D01*
X109447127Y-56781714D01*
X109386372Y-56581431D01*
X109287711Y-56396850D01*
X109253941Y-56355701D01*
X109154936Y-56235063D01*
X108993153Y-56102291D01*
X108993151Y-56102290D01*
X108993150Y-56102289D01*
X108808569Y-56003628D01*
X108696324Y-55969579D01*
X108608284Y-55942872D01*
X108400000Y-55922359D01*
X108191715Y-55942872D01*
X107991428Y-56003629D01*
X107806846Y-56102291D01*
X107645063Y-56235063D01*
X107512291Y-56396846D01*
X107413629Y-56581428D01*
X107352872Y-56781715D01*
X107332359Y-56990000D01*
X106927641Y-56990000D01*
X106907127Y-56781714D01*
X106846372Y-56581431D01*
X106747711Y-56396850D01*
X106713941Y-56355701D01*
X106614936Y-56235063D01*
X106453153Y-56102291D01*
X106453151Y-56102290D01*
X106453150Y-56102289D01*
X106268569Y-56003628D01*
X106156324Y-55969579D01*
X106068284Y-55942872D01*
X105860000Y-55922359D01*
X105651715Y-55942872D01*
X105451428Y-56003629D01*
X105266846Y-56102291D01*
X105105063Y-56235063D01*
X104972291Y-56396846D01*
X104873629Y-56581428D01*
X104812872Y-56781715D01*
X104792359Y-56990000D01*
X102125500Y-56990000D01*
X102125500Y-55993982D01*
X102121090Y-55977526D01*
X102121089Y-55977522D01*
X102116748Y-55961321D01*
X102096503Y-55885763D01*
X102040485Y-55788737D01*
X101361263Y-55109515D01*
X101264237Y-55053497D01*
X101156018Y-55024500D01*
X101156017Y-55024500D01*
X99624499Y-55024500D01*
X99557460Y-55004815D01*
X99511705Y-54952011D01*
X99500499Y-54900500D01*
X99500499Y-54450000D01*
X104792359Y-54450000D01*
X104812872Y-54658284D01*
X104840694Y-54750000D01*
X104873628Y-54858569D01*
X104971699Y-55042047D01*
X104972291Y-55043153D01*
X105105063Y-55204936D01*
X105258654Y-55330985D01*
X105266850Y-55337711D01*
X105451431Y-55436372D01*
X105651714Y-55497127D01*
X105860000Y-55517641D01*
X106068286Y-55497127D01*
X106268569Y-55436372D01*
X106453150Y-55337711D01*
X106614936Y-55204936D01*
X106747711Y-55043150D01*
X106846372Y-54858569D01*
X106907127Y-54658286D01*
X106927641Y-54450000D01*
X107332359Y-54450000D01*
X107352872Y-54658284D01*
X107380694Y-54750000D01*
X107413628Y-54858569D01*
X107511699Y-55042047D01*
X107512291Y-55043153D01*
X107645063Y-55204936D01*
X107798654Y-55330985D01*
X107806850Y-55337711D01*
X107991431Y-55436372D01*
X108191714Y-55497127D01*
X108400000Y-55517641D01*
X108608286Y-55497127D01*
X108808569Y-55436372D01*
X108993150Y-55337711D01*
X109154936Y-55204936D01*
X109287711Y-55043150D01*
X109386372Y-54858569D01*
X109447127Y-54658286D01*
X109467641Y-54450000D01*
X109447127Y-54241714D01*
X109386372Y-54041431D01*
X109287711Y-53856850D01*
X109253941Y-53815701D01*
X109154936Y-53695063D01*
X108993153Y-53562291D01*
X108993151Y-53562290D01*
X108993150Y-53562289D01*
X108808569Y-53463628D01*
X108696331Y-53429581D01*
X108608284Y-53402872D01*
X108400000Y-53382359D01*
X108191715Y-53402872D01*
X107991428Y-53463629D01*
X107806846Y-53562291D01*
X107645063Y-53695063D01*
X107512291Y-53856846D01*
X107413629Y-54041428D01*
X107352872Y-54241715D01*
X107332359Y-54450000D01*
X106927641Y-54450000D01*
X106907127Y-54241714D01*
X106846372Y-54041431D01*
X106747711Y-53856850D01*
X106713941Y-53815701D01*
X106614936Y-53695063D01*
X106453153Y-53562291D01*
X106453151Y-53562290D01*
X106453150Y-53562289D01*
X106268569Y-53463628D01*
X106156331Y-53429581D01*
X106068284Y-53402872D01*
X105860000Y-53382359D01*
X105651715Y-53402872D01*
X105451428Y-53463629D01*
X105266846Y-53562291D01*
X105105063Y-53695063D01*
X104972291Y-53856846D01*
X104873629Y-54041428D01*
X104812872Y-54241715D01*
X104792359Y-54450000D01*
X99500499Y-54450000D01*
X99500499Y-54331908D01*
X99500499Y-54331902D01*
X99489876Y-54243436D01*
X99434361Y-54102658D01*
X99410804Y-54071593D01*
X99342922Y-53982077D01*
X99222344Y-53890640D01*
X99222342Y-53890639D01*
X99081564Y-53835124D01*
X99081561Y-53835123D01*
X98993099Y-53824500D01*
X97981908Y-53824500D01*
X97893437Y-53835123D01*
X97752657Y-53890639D01*
X97752655Y-53890640D01*
X97632077Y-53982077D01*
X97540640Y-54102655D01*
X97540639Y-54102658D01*
X97485791Y-54241746D01*
X97485124Y-54243437D01*
X97485123Y-54243438D01*
X97474500Y-54331900D01*
X96725000Y-54331900D01*
X96725000Y-54325027D01*
X96724999Y-54325014D01*
X96714506Y-54222310D01*
X96714505Y-54222303D01*
X96659358Y-54055881D01*
X96659356Y-54055876D01*
X96567315Y-53906655D01*
X96443344Y-53782684D01*
X96294123Y-53690643D01*
X96294118Y-53690641D01*
X96127696Y-53635494D01*
X96127689Y-53635493D01*
X96024985Y-53625000D01*
X95743264Y-53625000D01*
X95676225Y-53605315D01*
X95630470Y-53552511D01*
X95620526Y-53483353D01*
X95649551Y-53419797D01*
X95685638Y-53391204D01*
X95800849Y-53330736D01*
X95800850Y-53330734D01*
X95800852Y-53330734D01*
X95928183Y-53217929D01*
X96024818Y-53077930D01*
X96085140Y-52918872D01*
X96105645Y-52750000D01*
X96085140Y-52581128D01*
X96024818Y-52422070D01*
X96019411Y-52414237D01*
X95971803Y-52345265D01*
X95928183Y-52282071D01*
X95800852Y-52169266D01*
X95800849Y-52169263D01*
X95650226Y-52090210D01*
X95485056Y-52049500D01*
X95337362Y-52049500D01*
X95289910Y-52035566D01*
X95239478Y-52067977D01*
X95234218Y-52069397D01*
X95149773Y-52090210D01*
X94999150Y-52169263D01*
X94871814Y-52282073D01*
X94871233Y-52282730D01*
X94870687Y-52283072D01*
X94866203Y-52287045D01*
X94865542Y-52286299D01*
X94812042Y-52319855D01*
X94778420Y-52324500D01*
X92527610Y-52324500D01*
X92460571Y-52304815D01*
X92439929Y-52288181D01*
X92261819Y-52110071D01*
X92228334Y-52048748D01*
X92225500Y-52022390D01*
X92225500Y-51574499D01*
X92245185Y-51507460D01*
X92297989Y-51461705D01*
X92349500Y-51450499D01*
X92944856Y-51450499D01*
X92944864Y-51450499D01*
X92944879Y-51450497D01*
X92944882Y-51450497D01*
X92969987Y-51447586D01*
X92969988Y-51447585D01*
X92969991Y-51447585D01*
X93072765Y-51402206D01*
X93152206Y-51322765D01*
X93197585Y-51219991D01*
X93200500Y-51194865D01*
X93200500Y-51124985D01*
X94300000Y-51124985D01*
X94310493Y-51227689D01*
X94310494Y-51227696D01*
X94365641Y-51394118D01*
X94365643Y-51394123D01*
X94457684Y-51543344D01*
X94581655Y-51667315D01*
X94730876Y-51759356D01*
X94730881Y-51759358D01*
X94897303Y-51814505D01*
X94897310Y-51814506D01*
X95000014Y-51824999D01*
X95000027Y-51825000D01*
X95204543Y-51825000D01*
X95249362Y-51838160D01*
X95249681Y-51837819D01*
X95262500Y-51825000D01*
X95762500Y-51825000D01*
X96024973Y-51825000D01*
X96024985Y-51824999D01*
X96127689Y-51814506D01*
X96127696Y-51814505D01*
X96294118Y-51759358D01*
X96294123Y-51759356D01*
X96443344Y-51667315D01*
X96567315Y-51543344D01*
X96659356Y-51394123D01*
X96659358Y-51394118D01*
X96714505Y-51227696D01*
X96714506Y-51227689D01*
X96724999Y-51124985D01*
X96725000Y-51124972D01*
X96725000Y-50250000D01*
X95762500Y-50250000D01*
X95762500Y-51825000D01*
X95262500Y-51825000D01*
X95262500Y-50250000D01*
X94300000Y-50250000D01*
X94300000Y-51124985D01*
X93200500Y-51124985D01*
X93200499Y-49505136D01*
X93200497Y-49505117D01*
X93197586Y-49480012D01*
X93197585Y-49480010D01*
X93197585Y-49480009D01*
X93152206Y-49377235D01*
X93072765Y-49297794D01*
X93061287Y-49292726D01*
X92969992Y-49252415D01*
X92944865Y-49249500D01*
X90655143Y-49249500D01*
X90655117Y-49249502D01*
X90630012Y-49252413D01*
X90630008Y-49252415D01*
X90527236Y-49297793D01*
X90518931Y-49306098D01*
X90457606Y-49339581D01*
X90387915Y-49334594D01*
X90331986Y-49292726D01*
X90257187Y-49192809D01*
X90142093Y-49106649D01*
X90142086Y-49106645D01*
X90007379Y-49056403D01*
X90007372Y-49056401D01*
X89947844Y-49050000D01*
X89050000Y-49050000D01*
X89050000Y-51650000D01*
X88550000Y-51650000D01*
X88550000Y-50600000D01*
X87200000Y-50600000D01*
X87200000Y-51197844D01*
X85950500Y-51197844D01*
X85950500Y-50229386D01*
X85970185Y-50162347D01*
X85986819Y-50141705D01*
X86626369Y-49502155D01*
X87200000Y-49502155D01*
X87200000Y-50100000D01*
X88550000Y-50100000D01*
X88550000Y-49050000D01*
X87652155Y-49050000D01*
X87592627Y-49056401D01*
X87592620Y-49056403D01*
X87457913Y-49106645D01*
X87457906Y-49106649D01*
X87342812Y-49192809D01*
X87342809Y-49192812D01*
X87256649Y-49307906D01*
X87256645Y-49307913D01*
X87206403Y-49442620D01*
X87206401Y-49442627D01*
X87200000Y-49502155D01*
X86626369Y-49502155D01*
X87253510Y-48875014D01*
X94300000Y-48875014D01*
X94300000Y-49750000D01*
X95262500Y-49750000D01*
X95762500Y-49750000D01*
X96725000Y-49750000D01*
X96725000Y-48881900D01*
X97474500Y-48881900D01*
X97474500Y-51118091D01*
X97485123Y-51206562D01*
X97540639Y-51347342D01*
X97540640Y-51347344D01*
X97632077Y-51467922D01*
X97752655Y-51559359D01*
X97752658Y-51559361D01*
X97893436Y-51614876D01*
X97981901Y-51625500D01*
X98993098Y-51625499D01*
X99081564Y-51614876D01*
X99222342Y-51559361D01*
X99342922Y-51467922D01*
X99434361Y-51347342D01*
X99489876Y-51206564D01*
X99500500Y-51118099D01*
X99500500Y-50674500D01*
X99520185Y-50607461D01*
X99572989Y-50561706D01*
X99624500Y-50550500D01*
X101222472Y-50550500D01*
X101222474Y-50550500D01*
X101222475Y-50550500D01*
X101362485Y-50512984D01*
X101384108Y-50500500D01*
X101488015Y-50440510D01*
X102051282Y-49877241D01*
X102109284Y-49844528D01*
X102250225Y-49809790D01*
X102264477Y-49802310D01*
X102400849Y-49730736D01*
X102400850Y-49730734D01*
X102400852Y-49730734D01*
X102528183Y-49617929D01*
X102624818Y-49477930D01*
X102665752Y-49369995D01*
X104593179Y-49369995D01*
X104593179Y-49370000D01*
X104612424Y-49589976D01*
X104612426Y-49589986D01*
X104669575Y-49803270D01*
X104669580Y-49803284D01*
X104762898Y-50003405D01*
X104762901Y-50003411D01*
X104808258Y-50068187D01*
X104808259Y-50068188D01*
X105479000Y-49397447D01*
X105479000Y-49420160D01*
X105504964Y-49517061D01*
X105555124Y-49603940D01*
X105626060Y-49674876D01*
X105712939Y-49725036D01*
X105809840Y-49751000D01*
X105832553Y-49751000D01*
X105161810Y-50421740D01*
X105226590Y-50467099D01*
X105226592Y-50467100D01*
X105426715Y-50560419D01*
X105426729Y-50560424D01*
X105640013Y-50617573D01*
X105645348Y-50618514D01*
X105645126Y-50619771D01*
X105704430Y-50642957D01*
X105745418Y-50699541D01*
X105749309Y-50769302D01*
X105714866Y-50830092D01*
X105657315Y-50860354D01*
X105657543Y-50861105D01*
X105653633Y-50862290D01*
X105653025Y-50862611D01*
X105652779Y-50862660D01*
X105651725Y-50862869D01*
X105451428Y-50923629D01*
X105266846Y-51022291D01*
X105105063Y-51155063D01*
X104972291Y-51316846D01*
X104873629Y-51501428D01*
X104812872Y-51701715D01*
X104792359Y-51910000D01*
X104812872Y-52118284D01*
X104834861Y-52190771D01*
X104873628Y-52318569D01*
X104931183Y-52426247D01*
X104972291Y-52503153D01*
X105105063Y-52664936D01*
X105264631Y-52795890D01*
X105266850Y-52797711D01*
X105451431Y-52896372D01*
X105651714Y-52957127D01*
X105860000Y-52977641D01*
X106068286Y-52957127D01*
X106268569Y-52896372D01*
X106453150Y-52797711D01*
X106614936Y-52664936D01*
X106747711Y-52503150D01*
X106846372Y-52318569D01*
X106907127Y-52118286D01*
X106927641Y-51910000D01*
X107332359Y-51910000D01*
X107352872Y-52118284D01*
X107374861Y-52190771D01*
X107413628Y-52318569D01*
X107471183Y-52426247D01*
X107512291Y-52503153D01*
X107645063Y-52664936D01*
X107804631Y-52795890D01*
X107806850Y-52797711D01*
X107991431Y-52896372D01*
X108191714Y-52957127D01*
X108400000Y-52977641D01*
X108608286Y-52957127D01*
X108808569Y-52896372D01*
X108993150Y-52797711D01*
X109154936Y-52664936D01*
X109287711Y-52503150D01*
X109386372Y-52318569D01*
X109447127Y-52118286D01*
X109467641Y-51910000D01*
X109447127Y-51701714D01*
X109386372Y-51501431D01*
X109287711Y-51316850D01*
X109253940Y-51275700D01*
X109154936Y-51155063D01*
X108993153Y-51022291D01*
X108993151Y-51022290D01*
X108993150Y-51022289D01*
X108808569Y-50923628D01*
X108696324Y-50889579D01*
X108608284Y-50862872D01*
X108400000Y-50842359D01*
X108191715Y-50862872D01*
X107991428Y-50923629D01*
X107806846Y-51022291D01*
X107645063Y-51155063D01*
X107512291Y-51316846D01*
X107413629Y-51501428D01*
X107352872Y-51701715D01*
X107332359Y-51910000D01*
X106927641Y-51910000D01*
X106907127Y-51701714D01*
X106846372Y-51501431D01*
X106747711Y-51316850D01*
X106713940Y-51275700D01*
X106614936Y-51155063D01*
X106453153Y-51022291D01*
X106453151Y-51022290D01*
X106453150Y-51022289D01*
X106268569Y-50923628D01*
X106068286Y-50862873D01*
X106068285Y-50862872D01*
X106068279Y-50862871D01*
X106067223Y-50862661D01*
X106066721Y-50862398D01*
X106062457Y-50861105D01*
X106062702Y-50860295D01*
X106005315Y-50830268D01*
X105970748Y-50769549D01*
X105974496Y-50699780D01*
X106015369Y-50643112D01*
X106074863Y-50619711D01*
X106074652Y-50618514D01*
X106079986Y-50617573D01*
X106293270Y-50560424D01*
X106293284Y-50560419D01*
X106493407Y-50467100D01*
X106493417Y-50467094D01*
X106558188Y-50421741D01*
X105887448Y-49751000D01*
X105910160Y-49751000D01*
X106007061Y-49725036D01*
X106093940Y-49674876D01*
X106164876Y-49603940D01*
X106215036Y-49517061D01*
X106241000Y-49420160D01*
X106241000Y-49397447D01*
X106911741Y-50068188D01*
X106957094Y-50003417D01*
X106957100Y-50003407D01*
X107050419Y-49803284D01*
X107050424Y-49803270D01*
X107107573Y-49589986D01*
X107108514Y-49584652D01*
X107109771Y-49584873D01*
X107132956Y-49525571D01*
X107189539Y-49484581D01*
X107259300Y-49480690D01*
X107320091Y-49515132D01*
X107350355Y-49572684D01*
X107351105Y-49572457D01*
X107352290Y-49576363D01*
X107352610Y-49576972D01*
X107352661Y-49577223D01*
X107352871Y-49578279D01*
X107352873Y-49578284D01*
X107352873Y-49578286D01*
X107413628Y-49778569D01*
X107475861Y-49894999D01*
X107512291Y-49963153D01*
X107645063Y-50124936D01*
X107797454Y-50250000D01*
X107806850Y-50257711D01*
X107991431Y-50356372D01*
X108191714Y-50417127D01*
X108400000Y-50437641D01*
X108608286Y-50417127D01*
X108808569Y-50356372D01*
X108993150Y-50257711D01*
X109154936Y-50124936D01*
X109287711Y-49963150D01*
X109386372Y-49778569D01*
X109447127Y-49578286D01*
X109467641Y-49370000D01*
X109447127Y-49161714D01*
X109386372Y-48961431D01*
X109287711Y-48776850D01*
X109283985Y-48772310D01*
X109154936Y-48615063D01*
X108993153Y-48482291D01*
X108993151Y-48482290D01*
X108993150Y-48482289D01*
X108808569Y-48383628D01*
X108697409Y-48349908D01*
X108608284Y-48322872D01*
X108400000Y-48302359D01*
X108191715Y-48322872D01*
X107991428Y-48383629D01*
X107806846Y-48482291D01*
X107645063Y-48615063D01*
X107512291Y-48776846D01*
X107413629Y-48961428D01*
X107352869Y-49161725D01*
X107352660Y-49162779D01*
X107352398Y-49163278D01*
X107351105Y-49167543D01*
X107350295Y-49167297D01*
X107320266Y-49224686D01*
X107259545Y-49259251D01*
X107189776Y-49255502D01*
X107133110Y-49214627D01*
X107109713Y-49155136D01*
X107108514Y-49155348D01*
X107107573Y-49150013D01*
X107050424Y-48936729D01*
X107050420Y-48936720D01*
X106957096Y-48736586D01*
X106911741Y-48671811D01*
X106911740Y-48671810D01*
X106241000Y-49342551D01*
X106241000Y-49319840D01*
X106215036Y-49222939D01*
X106164876Y-49136060D01*
X106093940Y-49065124D01*
X106007061Y-49014964D01*
X105910160Y-48989000D01*
X105887448Y-48989000D01*
X106558188Y-48318259D01*
X106558187Y-48318258D01*
X106493411Y-48272901D01*
X106493405Y-48272898D01*
X106293284Y-48179580D01*
X106293270Y-48179575D01*
X106079986Y-48122426D01*
X106079976Y-48122424D01*
X105860001Y-48103179D01*
X105859999Y-48103179D01*
X105640023Y-48122424D01*
X105640013Y-48122426D01*
X105426729Y-48179575D01*
X105426720Y-48179579D01*
X105226590Y-48272901D01*
X105161811Y-48318258D01*
X105832553Y-48989000D01*
X105809840Y-48989000D01*
X105712939Y-49014964D01*
X105626060Y-49065124D01*
X105555124Y-49136060D01*
X105504964Y-49222939D01*
X105479000Y-49319840D01*
X105479000Y-49342553D01*
X104808258Y-48671811D01*
X104762901Y-48736590D01*
X104669579Y-48936720D01*
X104669575Y-48936729D01*
X104612426Y-49150013D01*
X104612424Y-49150023D01*
X104593179Y-49369995D01*
X102665752Y-49369995D01*
X102685140Y-49318872D01*
X102705645Y-49150000D01*
X102685140Y-48981128D01*
X102685138Y-48981124D01*
X102663231Y-48923358D01*
X102624818Y-48822070D01*
X102528183Y-48682071D01*
X102400852Y-48569266D01*
X102400849Y-48569263D01*
X102250226Y-48490210D01*
X102085056Y-48449500D01*
X101914944Y-48449500D01*
X101749773Y-48490210D01*
X101599150Y-48569263D01*
X101487760Y-48667947D01*
X101476853Y-48677610D01*
X101471816Y-48682072D01*
X101375182Y-48822068D01*
X101375182Y-48822069D01*
X101314860Y-48981124D01*
X101314859Y-48981129D01*
X101309584Y-49024573D01*
X101281961Y-49088750D01*
X101274169Y-49097305D01*
X100958294Y-49413181D01*
X100896971Y-49446666D01*
X100870613Y-49449500D01*
X99624499Y-49449500D01*
X99557460Y-49429815D01*
X99511705Y-49377011D01*
X99500499Y-49325500D01*
X99500499Y-48881908D01*
X99500499Y-48881902D01*
X99489876Y-48793436D01*
X99434361Y-48652658D01*
X99414334Y-48626248D01*
X99342922Y-48532077D01*
X99222344Y-48440640D01*
X99222342Y-48440639D01*
X99081564Y-48385124D01*
X99081561Y-48385123D01*
X98993099Y-48374500D01*
X97981908Y-48374500D01*
X97893437Y-48385123D01*
X97752657Y-48440639D01*
X97752655Y-48440640D01*
X97632077Y-48532077D01*
X97540640Y-48652655D01*
X97533086Y-48671811D01*
X97493329Y-48772631D01*
X97485124Y-48793437D01*
X97485123Y-48793438D01*
X97474500Y-48881900D01*
X96725000Y-48881900D01*
X96725000Y-48875027D01*
X96724999Y-48875014D01*
X96714506Y-48772310D01*
X96714505Y-48772303D01*
X96659358Y-48605881D01*
X96659356Y-48605876D01*
X96567315Y-48456655D01*
X96443344Y-48332684D01*
X96294123Y-48240643D01*
X96294118Y-48240641D01*
X96127696Y-48185494D01*
X96127689Y-48185493D01*
X96024985Y-48175000D01*
X95762500Y-48175000D01*
X95762500Y-49750000D01*
X95262500Y-49750000D01*
X95262500Y-48175000D01*
X95000014Y-48175000D01*
X94897310Y-48185493D01*
X94897303Y-48185494D01*
X94730881Y-48240641D01*
X94730876Y-48240643D01*
X94581655Y-48332684D01*
X94457684Y-48456655D01*
X94365643Y-48605876D01*
X94365641Y-48605881D01*
X94310494Y-48772303D01*
X94310493Y-48772310D01*
X94300000Y-48875014D01*
X87253510Y-48875014D01*
X88291705Y-47836819D01*
X88353028Y-47803334D01*
X88379386Y-47800500D01*
X97876574Y-47800500D01*
X97876578Y-47800501D01*
X97892051Y-47800500D01*
X97892068Y-47800505D01*
X97943420Y-47800504D01*
X97943420Y-47800505D01*
X98043838Y-47800503D01*
X98242955Y-47774287D01*
X98436947Y-47722305D01*
X98622494Y-47645447D01*
X98796422Y-47545029D01*
X98955756Y-47422768D01*
X98965297Y-47413226D01*
X98965307Y-47413220D01*
X98965306Y-47413219D01*
X99169010Y-47209515D01*
X99470252Y-46908271D01*
X99531575Y-46874787D01*
X99601266Y-46879771D01*
X99645614Y-46908272D01*
X100027852Y-47290510D01*
X100027854Y-47290511D01*
X100027858Y-47290514D01*
X100133941Y-47351761D01*
X100133946Y-47351762D01*
X100153382Y-47362984D01*
X100293392Y-47400500D01*
X110920613Y-47400500D01*
X110987652Y-47420185D01*
X111008294Y-47436819D01*
X111413181Y-47841706D01*
X111446666Y-47903029D01*
X111449500Y-47929387D01*
X111449500Y-49222475D01*
X111460364Y-49263019D01*
X111487016Y-49362485D01*
X111559490Y-49488015D01*
X112554490Y-50483014D01*
X112554491Y-50483015D01*
X112656985Y-50585509D01*
X112656986Y-50585510D01*
X112656988Y-50585511D01*
X112782511Y-50657982D01*
X112782512Y-50657982D01*
X112782515Y-50657984D01*
X112922525Y-50695500D01*
X113454930Y-50695500D01*
X113521969Y-50715185D01*
X113553883Y-50744772D01*
X113570947Y-50767368D01*
X113663237Y-50889581D01*
X113813958Y-51026980D01*
X113813960Y-51026982D01*
X113903848Y-51082638D01*
X113987363Y-51134348D01*
X114177544Y-51208024D01*
X114378024Y-51245500D01*
X114378026Y-51245500D01*
X114581974Y-51245500D01*
X114581976Y-51245500D01*
X114782456Y-51208024D01*
X114972637Y-51134348D01*
X115146041Y-51026981D01*
X115296764Y-50889579D01*
X115419673Y-50726821D01*
X115510582Y-50544250D01*
X115566397Y-50348083D01*
X115585215Y-50145000D01*
X115578097Y-50068188D01*
X115566397Y-49941917D01*
X115553048Y-49895000D01*
X115510582Y-49745750D01*
X115506481Y-49737515D01*
X115452438Y-49628981D01*
X115419673Y-49563179D01*
X115330724Y-49445391D01*
X115296762Y-49400418D01*
X115146041Y-49263019D01*
X115146039Y-49263017D01*
X114972642Y-49155655D01*
X114972635Y-49155651D01*
X114809423Y-49092423D01*
X114782456Y-49081976D01*
X114581976Y-49044500D01*
X114378024Y-49044500D01*
X114177544Y-49081976D01*
X114177541Y-49081976D01*
X114177541Y-49081977D01*
X113987364Y-49155651D01*
X113987357Y-49155655D01*
X113813960Y-49263017D01*
X113813958Y-49263019D01*
X113663237Y-49400418D01*
X113597088Y-49488015D01*
X113561846Y-49534684D01*
X113553884Y-49545227D01*
X113497775Y-49586863D01*
X113454930Y-49594500D01*
X113274386Y-49594500D01*
X113207347Y-49574815D01*
X113186705Y-49558181D01*
X112586819Y-48958294D01*
X112553334Y-48896971D01*
X112550500Y-48870613D01*
X112550500Y-47577527D01*
X112550500Y-47577525D01*
X112512984Y-47437515D01*
X112504470Y-47422768D01*
X112493063Y-47403011D01*
X112440512Y-47311988D01*
X112440508Y-47311983D01*
X111538016Y-46409491D01*
X111538015Y-46409490D01*
X111412485Y-46337016D01*
X111330418Y-46315026D01*
X111330417Y-46315025D01*
X111288000Y-46303659D01*
X111272475Y-46299500D01*
X111272474Y-46299500D01*
X100645254Y-46299500D01*
X100578215Y-46279815D01*
X100557573Y-46263181D01*
X100086819Y-45792427D01*
X100060366Y-45743982D01*
X118724500Y-45743982D01*
X118724500Y-56843982D01*
X118724500Y-56956018D01*
X118753497Y-57064237D01*
X118809515Y-57161263D01*
X119753737Y-58105485D01*
X119850763Y-58161503D01*
X119958982Y-58190500D01*
X120071019Y-58190500D01*
X121005712Y-58190500D01*
X121072751Y-58210185D01*
X121116710Y-58259225D01*
X121160327Y-58346821D01*
X121160329Y-58346823D01*
X121283237Y-58509581D01*
X121422638Y-58636660D01*
X121433432Y-58646501D01*
X121433958Y-58646980D01*
X121433960Y-58646982D01*
X121612237Y-58757366D01*
X121611375Y-58758756D01*
X121656998Y-58801041D01*
X121674500Y-58864555D01*
X121674500Y-59205444D01*
X121654815Y-59272483D01*
X121611447Y-59311359D01*
X121612237Y-59312634D01*
X121433960Y-59423017D01*
X121433960Y-59423018D01*
X121283237Y-59560418D01*
X121160327Y-59723178D01*
X121069422Y-59905739D01*
X121069417Y-59905752D01*
X121013602Y-60101917D01*
X120994785Y-60304999D01*
X120994785Y-60305000D01*
X121013602Y-60508082D01*
X121069417Y-60704247D01*
X121069422Y-60704260D01*
X121160327Y-60886821D01*
X121283237Y-61049581D01*
X121433958Y-61186980D01*
X121433960Y-61186982D01*
X121477977Y-61214236D01*
X121607363Y-61294348D01*
X121797544Y-61368024D01*
X121998024Y-61405500D01*
X121998026Y-61405500D01*
X122201974Y-61405500D01*
X122201976Y-61405500D01*
X122402456Y-61368024D01*
X122592637Y-61294348D01*
X122766041Y-61186981D01*
X122902843Y-61062270D01*
X122916762Y-61049581D01*
X122936932Y-61022872D01*
X123039673Y-60886821D01*
X123130582Y-60704250D01*
X123186397Y-60508083D01*
X123205215Y-60305000D01*
X123186397Y-60101917D01*
X123130582Y-59905750D01*
X123124138Y-59892809D01*
X123081234Y-59806645D01*
X123039673Y-59723179D01*
X122937602Y-59588015D01*
X122916762Y-59560418D01*
X122766040Y-59423018D01*
X122766039Y-59423017D01*
X122587763Y-59312634D01*
X122588620Y-59311248D01*
X122542987Y-59268934D01*
X122525500Y-59205444D01*
X122525500Y-58864555D01*
X122545185Y-58797516D01*
X122588555Y-58758645D01*
X122587763Y-58757366D01*
X122766039Y-58646982D01*
X122766038Y-58646982D01*
X122766041Y-58646981D01*
X122916764Y-58509579D01*
X123039673Y-58346821D01*
X123130582Y-58164250D01*
X123186397Y-57968083D01*
X123205215Y-57765000D01*
X123204289Y-57755012D01*
X123186397Y-57561917D01*
X123139920Y-57398571D01*
X123130582Y-57365750D01*
X123122739Y-57350000D01*
X123059495Y-57222987D01*
X123039673Y-57183179D01*
X122916764Y-57020421D01*
X122916762Y-57020418D01*
X122766041Y-56883019D01*
X122766039Y-56883017D01*
X122592642Y-56775655D01*
X122592635Y-56775651D01*
X122497546Y-56738814D01*
X122402456Y-56701976D01*
X122201976Y-56664500D01*
X121998024Y-56664500D01*
X121797544Y-56701976D01*
X121797541Y-56701976D01*
X121797541Y-56701977D01*
X121607364Y-56775651D01*
X121607357Y-56775655D01*
X121433960Y-56883017D01*
X121433958Y-56883019D01*
X121283237Y-57020418D01*
X121176543Y-57161705D01*
X121160327Y-57183179D01*
X121116710Y-57270774D01*
X121069210Y-57322008D01*
X121005712Y-57339500D01*
X120242610Y-57339500D01*
X120175571Y-57319815D01*
X120154929Y-57303181D01*
X119611819Y-56760071D01*
X119578334Y-56698748D01*
X119575500Y-56672390D01*
X119575500Y-46027610D01*
X119595185Y-45960571D01*
X119611819Y-45939929D01*
X120579929Y-44971819D01*
X120641252Y-44938334D01*
X120667610Y-44935500D01*
X125009856Y-44935500D01*
X125076895Y-44955185D01*
X125120856Y-45004229D01*
X125177632Y-45118253D01*
X125277536Y-45250546D01*
X125306128Y-45288407D01*
X125463698Y-45432052D01*
X125644981Y-45544298D01*
X125843802Y-45621321D01*
X126040613Y-45658111D01*
X126102893Y-45689779D01*
X126138166Y-45750092D01*
X126135232Y-45819900D01*
X126095023Y-45877040D01*
X126040613Y-45901888D01*
X125843802Y-45938679D01*
X125843799Y-45938679D01*
X125843799Y-45938680D01*
X125644982Y-46015701D01*
X125644980Y-46015702D01*
X125463699Y-46127947D01*
X125306127Y-46271593D01*
X125177632Y-46441746D01*
X125120856Y-46555771D01*
X125073354Y-46607008D01*
X125009856Y-46624500D01*
X124343982Y-46624500D01*
X124235763Y-46653497D01*
X124235760Y-46653498D01*
X124138740Y-46709513D01*
X124138734Y-46709517D01*
X123559517Y-47288734D01*
X123559513Y-47288740D01*
X123503498Y-47385760D01*
X123503497Y-47385763D01*
X123474500Y-47493982D01*
X123474500Y-49457234D01*
X123454815Y-49524273D01*
X123402011Y-49570028D01*
X123332853Y-49579972D01*
X123269297Y-49550947D01*
X123238118Y-49509639D01*
X123230134Y-49492517D01*
X123099657Y-49306179D01*
X122938820Y-49145342D01*
X122752482Y-49014865D01*
X122546328Y-48918734D01*
X122350000Y-48866127D01*
X122350000Y-49829314D01*
X122345606Y-49824920D01*
X122254394Y-49772259D01*
X122152661Y-49745000D01*
X122047339Y-49745000D01*
X121945606Y-49772259D01*
X121854394Y-49824920D01*
X121850000Y-49829314D01*
X121850000Y-48866127D01*
X121653671Y-48918734D01*
X121447517Y-49014865D01*
X121261179Y-49145342D01*
X121100342Y-49306179D01*
X120969865Y-49492517D01*
X120873734Y-49698673D01*
X120873730Y-49698682D01*
X120821127Y-49894999D01*
X120821128Y-49895000D01*
X121784314Y-49895000D01*
X121779920Y-49899394D01*
X121727259Y-49990606D01*
X121700000Y-50092339D01*
X121700000Y-50197661D01*
X121727259Y-50299394D01*
X121779920Y-50390606D01*
X121784314Y-50395000D01*
X120821128Y-50395000D01*
X120873730Y-50591317D01*
X120873734Y-50591326D01*
X120969865Y-50797482D01*
X121100342Y-50983820D01*
X121261179Y-51144657D01*
X121447517Y-51275134D01*
X121653673Y-51371265D01*
X121653682Y-51371269D01*
X121754569Y-51398301D01*
X121814229Y-51434665D01*
X121844759Y-51497512D01*
X121836465Y-51566888D01*
X121791980Y-51620766D01*
X121767271Y-51633702D01*
X121607370Y-51695648D01*
X121607357Y-51695655D01*
X121433960Y-51803017D01*
X121433958Y-51803019D01*
X121283237Y-51940418D01*
X121160327Y-52103178D01*
X121069422Y-52285739D01*
X121069417Y-52285752D01*
X121013602Y-52481917D01*
X120994785Y-52684999D01*
X120994785Y-52685000D01*
X121013602Y-52888082D01*
X121069417Y-53084247D01*
X121069422Y-53084260D01*
X121160327Y-53266821D01*
X121283237Y-53429581D01*
X121433958Y-53566980D01*
X121433960Y-53566982D01*
X121612237Y-53677366D01*
X121611375Y-53678756D01*
X121656998Y-53721041D01*
X121674500Y-53784555D01*
X121674500Y-54125444D01*
X121654815Y-54192483D01*
X121611447Y-54231359D01*
X121612237Y-54232634D01*
X121433960Y-54343017D01*
X121433958Y-54343019D01*
X121283237Y-54480418D01*
X121160327Y-54643178D01*
X121069422Y-54825739D01*
X121069417Y-54825752D01*
X121013602Y-55021917D01*
X120994785Y-55224999D01*
X120994785Y-55225000D01*
X121013602Y-55428082D01*
X121069417Y-55624247D01*
X121069422Y-55624260D01*
X121160327Y-55806821D01*
X121283237Y-55969581D01*
X121433958Y-56106980D01*
X121433960Y-56106982D01*
X121519426Y-56159900D01*
X121607363Y-56214348D01*
X121797544Y-56288024D01*
X121998024Y-56325500D01*
X121998026Y-56325500D01*
X122201974Y-56325500D01*
X122201976Y-56325500D01*
X122402456Y-56288024D01*
X122592637Y-56214348D01*
X122766041Y-56106981D01*
X122916764Y-55969579D01*
X123039673Y-55806821D01*
X123130582Y-55624250D01*
X123186397Y-55428083D01*
X123205215Y-55225000D01*
X123202898Y-55200000D01*
X123186397Y-55021917D01*
X123165793Y-54949502D01*
X123130582Y-54825750D01*
X123127165Y-54818888D01*
X123075055Y-54714237D01*
X123039673Y-54643179D01*
X122916764Y-54480421D01*
X122916762Y-54480418D01*
X122766041Y-54343019D01*
X122766039Y-54343017D01*
X122587763Y-54232634D01*
X122588620Y-54231248D01*
X122542987Y-54188934D01*
X122525500Y-54125444D01*
X122525500Y-53784555D01*
X122545185Y-53717516D01*
X122588555Y-53678645D01*
X122587763Y-53677366D01*
X122715864Y-53598049D01*
X122766041Y-53566981D01*
X122916764Y-53429579D01*
X123039673Y-53266821D01*
X123083289Y-53179225D01*
X123130790Y-53127992D01*
X123194288Y-53110500D01*
X123521016Y-53110500D01*
X123521018Y-53110500D01*
X123629237Y-53081503D01*
X123726263Y-53025485D01*
X124240485Y-52511263D01*
X124296503Y-52414237D01*
X124325500Y-52306018D01*
X124325500Y-52193982D01*
X124325500Y-52193981D01*
X124325500Y-47777610D01*
X124345185Y-47710571D01*
X124361819Y-47689929D01*
X124539929Y-47511819D01*
X124601252Y-47478334D01*
X124627610Y-47475500D01*
X125009856Y-47475500D01*
X125076895Y-47495185D01*
X125120856Y-47544229D01*
X125177632Y-47658253D01*
X125306127Y-47828406D01*
X125306128Y-47828407D01*
X125463698Y-47972052D01*
X125644981Y-48084298D01*
X125843802Y-48161321D01*
X126040613Y-48198111D01*
X126102893Y-48229779D01*
X126138166Y-48290092D01*
X126135232Y-48359900D01*
X126095023Y-48417040D01*
X126040613Y-48441888D01*
X125843802Y-48478679D01*
X125843799Y-48478679D01*
X125843799Y-48478680D01*
X125644982Y-48555701D01*
X125644980Y-48555702D01*
X125463699Y-48667947D01*
X125306127Y-48811593D01*
X125177632Y-48981746D01*
X125082596Y-49172605D01*
X125082596Y-49172607D01*
X125024244Y-49377689D01*
X125005067Y-49584652D01*
X125004571Y-49590000D01*
X125024244Y-49802310D01*
X125081461Y-50003405D01*
X125082596Y-50007392D01*
X125082596Y-50007394D01*
X125177632Y-50198253D01*
X125306127Y-50368406D01*
X125306128Y-50368407D01*
X125463698Y-50512052D01*
X125644981Y-50624298D01*
X125655290Y-50628291D01*
X125710692Y-50670860D01*
X125734285Y-50736626D01*
X125734500Y-50743919D01*
X125734500Y-51653982D01*
X125734500Y-51766018D01*
X125763497Y-51874237D01*
X125819515Y-51971263D01*
X125819517Y-51971265D01*
X130238181Y-56389929D01*
X130271666Y-56451252D01*
X130274500Y-56477610D01*
X130274500Y-60993982D01*
X130274500Y-61106018D01*
X130303497Y-61214237D01*
X130359515Y-61311263D01*
X131379515Y-62331263D01*
X131458737Y-62410485D01*
X131555763Y-62466503D01*
X131663982Y-62495500D01*
X132748355Y-62495500D01*
X132815394Y-62515185D01*
X132857713Y-62561047D01*
X132912285Y-62663144D01*
X132912289Y-62663151D01*
X133045063Y-62824936D01*
X133206846Y-62957708D01*
X133206850Y-62957711D01*
X133391431Y-63056372D01*
X133591714Y-63117127D01*
X133800000Y-63137641D01*
X134008286Y-63117127D01*
X134208569Y-63056372D01*
X134393150Y-62957711D01*
X134554936Y-62824936D01*
X134687711Y-62663150D01*
X134786372Y-62478569D01*
X134847127Y-62278286D01*
X134867641Y-62070000D01*
X135272359Y-62070000D01*
X135292872Y-62278284D01*
X135312685Y-62343598D01*
X135353628Y-62478569D01*
X135402528Y-62570055D01*
X135452291Y-62663153D01*
X135585063Y-62824936D01*
X135746846Y-62957708D01*
X135746850Y-62957711D01*
X135931431Y-63056372D01*
X136131714Y-63117127D01*
X136340000Y-63137641D01*
X136548286Y-63117127D01*
X136748569Y-63056372D01*
X136933150Y-62957711D01*
X137094936Y-62824936D01*
X137227711Y-62663150D01*
X137326372Y-62478569D01*
X137387127Y-62278286D01*
X137407641Y-62070000D01*
X137387127Y-61861714D01*
X137326372Y-61661431D01*
X137227711Y-61476850D01*
X137227708Y-61476846D01*
X137094936Y-61315063D01*
X136933153Y-61182291D01*
X136933151Y-61182290D01*
X136933150Y-61182289D01*
X136748569Y-61083628D01*
X136636324Y-61049579D01*
X136548284Y-61022872D01*
X136340000Y-61002359D01*
X136131715Y-61022872D01*
X135931428Y-61083629D01*
X135746846Y-61182291D01*
X135585063Y-61315063D01*
X135452291Y-61476846D01*
X135353629Y-61661428D01*
X135292872Y-61861715D01*
X135272359Y-62070000D01*
X134867641Y-62070000D01*
X134847127Y-61861714D01*
X134786372Y-61661431D01*
X134687711Y-61476850D01*
X134687708Y-61476846D01*
X134554936Y-61315063D01*
X134393153Y-61182291D01*
X134393151Y-61182290D01*
X134393150Y-61182289D01*
X134208569Y-61083628D01*
X134096324Y-61049579D01*
X134008284Y-61022872D01*
X133800000Y-61002359D01*
X133591715Y-61022872D01*
X133391428Y-61083629D01*
X133206846Y-61182291D01*
X133045063Y-61315063D01*
X132912289Y-61476848D01*
X132912285Y-61476855D01*
X132857713Y-61578953D01*
X132808751Y-61628797D01*
X132748355Y-61644500D01*
X131947610Y-61644500D01*
X131880571Y-61624815D01*
X131859929Y-61608181D01*
X131161819Y-60910071D01*
X131128334Y-60848748D01*
X131125500Y-60822390D01*
X131125500Y-59973656D01*
X131145185Y-59906617D01*
X131197989Y-59860862D01*
X131267147Y-59850918D01*
X131310180Y-59869049D01*
X131311698Y-59866421D01*
X131318736Y-59870484D01*
X131318737Y-59870485D01*
X131415763Y-59926503D01*
X131523982Y-59955500D01*
X131636019Y-59955500D01*
X132748355Y-59955500D01*
X132815394Y-59975185D01*
X132857713Y-60021047D01*
X132912285Y-60123144D01*
X132912289Y-60123151D01*
X133045063Y-60284936D01*
X133180301Y-60395923D01*
X133206850Y-60417711D01*
X133391431Y-60516372D01*
X133591714Y-60577127D01*
X133800000Y-60597641D01*
X134008286Y-60577127D01*
X134208569Y-60516372D01*
X134393150Y-60417711D01*
X134554936Y-60284936D01*
X134687711Y-60123150D01*
X134786372Y-59938569D01*
X134847127Y-59738286D01*
X134867641Y-59530000D01*
X134847127Y-59321714D01*
X134786372Y-59121431D01*
X134687711Y-58936850D01*
X134676962Y-58923752D01*
X134639550Y-58878165D01*
X134612237Y-58813855D01*
X134624028Y-58744987D01*
X134671180Y-58693427D01*
X134735403Y-58675500D01*
X134832390Y-58675500D01*
X134899429Y-58695185D01*
X134920071Y-58711819D01*
X135295500Y-59087247D01*
X135328985Y-59148570D01*
X135326480Y-59210922D01*
X135292873Y-59321713D01*
X135272359Y-59530000D01*
X135292872Y-59738284D01*
X135300365Y-59762984D01*
X135353628Y-59938569D01*
X135432640Y-60086390D01*
X135452291Y-60123153D01*
X135585063Y-60284936D01*
X135720301Y-60395923D01*
X135746850Y-60417711D01*
X135931431Y-60516372D01*
X136131714Y-60577127D01*
X136340000Y-60597641D01*
X136548286Y-60577127D01*
X136748569Y-60516372D01*
X136933150Y-60417711D01*
X137094936Y-60284936D01*
X137227711Y-60123150D01*
X137326372Y-59938569D01*
X137387127Y-59738286D01*
X137407641Y-59530000D01*
X137387127Y-59321714D01*
X137326372Y-59121431D01*
X137227711Y-58936850D01*
X137216962Y-58923752D01*
X137094936Y-58775063D01*
X136933153Y-58642291D01*
X136933151Y-58642290D01*
X136933150Y-58642289D01*
X136748569Y-58543628D01*
X136636331Y-58509581D01*
X136548284Y-58482872D01*
X136340000Y-58462359D01*
X136131713Y-58482873D01*
X136020922Y-58516480D01*
X135951055Y-58517103D01*
X135897247Y-58485500D01*
X135625563Y-58213816D01*
X135321263Y-57909515D01*
X135224237Y-57853497D01*
X135116018Y-57824500D01*
X135116017Y-57824500D01*
X134751816Y-57824500D01*
X134684777Y-57804815D01*
X134639022Y-57752011D01*
X134629078Y-57682853D01*
X134655963Y-57621835D01*
X134671987Y-57602310D01*
X134687711Y-57583150D01*
X134786372Y-57398569D01*
X134847127Y-57198286D01*
X134867641Y-56990000D01*
X134847127Y-56781714D01*
X134786372Y-56581431D01*
X134687711Y-56396850D01*
X134653941Y-56355701D01*
X134554936Y-56235063D01*
X134393153Y-56102291D01*
X134393151Y-56102290D01*
X134393150Y-56102289D01*
X134208569Y-56003628D01*
X134096324Y-55969579D01*
X134008284Y-55942872D01*
X133800000Y-55922359D01*
X133591715Y-55942872D01*
X133391428Y-56003629D01*
X133206846Y-56102291D01*
X133045063Y-56235063D01*
X132912291Y-56396846D01*
X132813629Y-56581428D01*
X132752872Y-56781715D01*
X132732359Y-56990000D01*
X132752872Y-57198284D01*
X132776144Y-57275000D01*
X132811028Y-57389999D01*
X132813629Y-57398571D01*
X132912291Y-57583153D01*
X132944037Y-57621835D01*
X132971350Y-57686144D01*
X132959559Y-57755012D01*
X132912407Y-57806572D01*
X132848184Y-57824500D01*
X132627610Y-57824500D01*
X132560571Y-57804815D01*
X132539929Y-57788181D01*
X132061819Y-57310071D01*
X132028334Y-57248748D01*
X132025500Y-57222390D01*
X132025500Y-49369995D01*
X132533179Y-49369995D01*
X132533179Y-49370000D01*
X132552424Y-49589976D01*
X132552426Y-49589986D01*
X132609575Y-49803270D01*
X132609580Y-49803284D01*
X132702898Y-50003405D01*
X132702901Y-50003411D01*
X132748258Y-50068187D01*
X132748259Y-50068188D01*
X133419000Y-49397447D01*
X133419000Y-49420160D01*
X133444964Y-49517061D01*
X133495124Y-49603940D01*
X133566060Y-49674876D01*
X133652939Y-49725036D01*
X133749840Y-49751000D01*
X133772553Y-49751000D01*
X133101810Y-50421740D01*
X133166590Y-50467099D01*
X133166592Y-50467100D01*
X133366715Y-50560419D01*
X133366729Y-50560424D01*
X133580013Y-50617573D01*
X133585348Y-50618514D01*
X133585126Y-50619771D01*
X133644430Y-50642957D01*
X133685418Y-50699541D01*
X133689309Y-50769302D01*
X133654866Y-50830092D01*
X133597315Y-50860354D01*
X133597543Y-50861105D01*
X133593633Y-50862290D01*
X133593025Y-50862611D01*
X133592779Y-50862660D01*
X133591725Y-50862869D01*
X133391428Y-50923629D01*
X133206846Y-51022291D01*
X133045063Y-51155063D01*
X132912291Y-51316846D01*
X132813629Y-51501428D01*
X132752872Y-51701715D01*
X132732359Y-51910000D01*
X132752872Y-52118284D01*
X132774861Y-52190771D01*
X132813628Y-52318569D01*
X132871183Y-52426247D01*
X132912291Y-52503153D01*
X133045063Y-52664936D01*
X133204631Y-52795890D01*
X133206850Y-52797711D01*
X133391431Y-52896372D01*
X133591714Y-52957127D01*
X133800000Y-52977641D01*
X134008286Y-52957127D01*
X134186211Y-52903153D01*
X134256077Y-52902531D01*
X134309886Y-52934134D01*
X134638181Y-53262429D01*
X134671666Y-53323752D01*
X134674500Y-53350110D01*
X134674500Y-53531010D01*
X134654815Y-53598049D01*
X134602011Y-53643804D01*
X134532853Y-53653748D01*
X134471836Y-53626864D01*
X134393153Y-53562291D01*
X134393151Y-53562290D01*
X134393150Y-53562289D01*
X134208569Y-53463628D01*
X134096331Y-53429581D01*
X134008284Y-53402872D01*
X133800000Y-53382359D01*
X133591715Y-53402872D01*
X133391428Y-53463629D01*
X133206846Y-53562291D01*
X133045063Y-53695063D01*
X132912291Y-53856846D01*
X132813629Y-54041428D01*
X132752872Y-54241715D01*
X132732359Y-54450000D01*
X132752872Y-54658284D01*
X132780694Y-54750000D01*
X132813628Y-54858569D01*
X132911699Y-55042047D01*
X132912291Y-55043153D01*
X133045063Y-55204936D01*
X133198654Y-55330985D01*
X133206850Y-55337711D01*
X133391431Y-55436372D01*
X133591714Y-55497127D01*
X133800000Y-55517641D01*
X134008286Y-55497127D01*
X134208569Y-55436372D01*
X134393150Y-55337711D01*
X134504045Y-55246700D01*
X134568354Y-55219388D01*
X134637222Y-55231179D01*
X134688782Y-55278331D01*
X134702483Y-55310455D01*
X134703495Y-55314231D01*
X134703497Y-55314237D01*
X134759515Y-55411263D01*
X135259515Y-55911263D01*
X135338737Y-55990485D01*
X135435763Y-56046503D01*
X135499239Y-56063511D01*
X135558898Y-56099874D01*
X135589428Y-56162721D01*
X135581134Y-56232097D01*
X135562998Y-56261950D01*
X135452291Y-56396846D01*
X135353629Y-56581428D01*
X135292872Y-56781715D01*
X135272359Y-56990000D01*
X135292872Y-57198284D01*
X135316144Y-57275000D01*
X135351028Y-57389999D01*
X135353629Y-57398571D01*
X135452291Y-57583153D01*
X135585063Y-57744936D01*
X135746846Y-57877708D01*
X135746850Y-57877711D01*
X135931431Y-57976372D01*
X136131714Y-58037127D01*
X136340000Y-58057641D01*
X136548286Y-58037127D01*
X136748569Y-57976372D01*
X136933150Y-57877711D01*
X137094936Y-57744936D01*
X137227711Y-57583150D01*
X137326372Y-57398569D01*
X137387127Y-57198286D01*
X137407641Y-56990000D01*
X137387127Y-56781714D01*
X137337999Y-56619763D01*
X137337377Y-56549900D01*
X137374625Y-56490787D01*
X137437919Y-56461196D01*
X137507163Y-56470521D01*
X137531153Y-56487020D01*
X137532291Y-56485538D01*
X137538731Y-56490479D01*
X137538737Y-56490485D01*
X137635763Y-56546503D01*
X137743982Y-56575500D01*
X138624357Y-56575500D01*
X138691396Y-56595185D01*
X138737151Y-56647989D01*
X138747095Y-56717147D01*
X138723312Y-56774226D01*
X138717632Y-56781746D01*
X138622596Y-56972605D01*
X138622596Y-56972607D01*
X138564244Y-57177689D01*
X138544571Y-57389999D01*
X138544571Y-57390000D01*
X138564244Y-57602310D01*
X138622596Y-57807392D01*
X138622596Y-57807394D01*
X138717632Y-57998253D01*
X138842996Y-58164260D01*
X138846128Y-58168407D01*
X139003698Y-58312052D01*
X139184981Y-58424298D01*
X139383802Y-58501321D01*
X139593390Y-58540500D01*
X139593392Y-58540500D01*
X139806608Y-58540500D01*
X139806610Y-58540500D01*
X140016198Y-58501321D01*
X140215019Y-58424298D01*
X140396302Y-58312052D01*
X140553872Y-58168407D01*
X140682366Y-57998255D01*
X140754446Y-57853498D01*
X140777403Y-57807394D01*
X140777403Y-57807393D01*
X140777405Y-57807389D01*
X140835756Y-57602310D01*
X140843474Y-57519008D01*
X140869259Y-57454073D01*
X140926059Y-57413385D01*
X140995840Y-57409865D01*
X141054626Y-57442770D01*
X141061359Y-57449503D01*
X141094844Y-57510826D01*
X141097149Y-57525743D01*
X141104244Y-57602310D01*
X141162596Y-57807392D01*
X141162596Y-57807394D01*
X141257632Y-57998253D01*
X141382996Y-58164260D01*
X141386128Y-58168407D01*
X141543698Y-58312052D01*
X141724981Y-58424298D01*
X141923802Y-58501321D01*
X142133390Y-58540500D01*
X142133392Y-58540500D01*
X142346608Y-58540500D01*
X142346610Y-58540500D01*
X142556198Y-58501321D01*
X142755019Y-58424298D01*
X142936302Y-58312052D01*
X143093872Y-58168407D01*
X143222366Y-57998255D01*
X143294446Y-57853498D01*
X143317403Y-57807394D01*
X143317403Y-57807393D01*
X143317405Y-57807389D01*
X143375756Y-57602310D01*
X143395429Y-57390000D01*
X143375756Y-57177690D01*
X143317405Y-56972611D01*
X143317403Y-56972606D01*
X143317403Y-56972605D01*
X143222367Y-56781746D01*
X143093872Y-56611593D01*
X143053701Y-56574972D01*
X142936302Y-56467948D01*
X142755019Y-56355702D01*
X142755017Y-56355701D01*
X142580315Y-56288022D01*
X142556198Y-56278679D01*
X142359385Y-56241888D01*
X142297106Y-56210221D01*
X142261833Y-56149908D01*
X142264767Y-56080100D01*
X142304976Y-56022960D01*
X142359384Y-55998111D01*
X142556198Y-55961321D01*
X142755019Y-55884298D01*
X142936302Y-55772052D01*
X143093872Y-55628407D01*
X143222366Y-55458255D01*
X143269805Y-55362984D01*
X143317403Y-55267394D01*
X143317403Y-55267393D01*
X143317405Y-55267389D01*
X143375756Y-55062310D01*
X143395429Y-54850000D01*
X143375756Y-54637690D01*
X143317405Y-54432611D01*
X143317403Y-54432606D01*
X143317403Y-54432605D01*
X143222367Y-54241746D01*
X143093872Y-54071593D01*
X142995678Y-53982077D01*
X142936302Y-53927948D01*
X142755019Y-53815702D01*
X142755017Y-53815701D01*
X142628914Y-53766849D01*
X142556198Y-53738679D01*
X142359385Y-53701888D01*
X142297106Y-53670221D01*
X142261833Y-53609908D01*
X142264767Y-53540100D01*
X142304976Y-53482960D01*
X142359384Y-53458111D01*
X142556198Y-53421321D01*
X142755019Y-53344298D01*
X142936302Y-53232052D01*
X143093872Y-53088407D01*
X143222366Y-52918255D01*
X143270037Y-52822518D01*
X143317403Y-52727394D01*
X143317403Y-52727393D01*
X143317405Y-52727389D01*
X143375756Y-52522310D01*
X143395429Y-52310000D01*
X143375756Y-52097690D01*
X143317405Y-51892611D01*
X143317403Y-51892606D01*
X143317403Y-51892605D01*
X143222367Y-51701746D01*
X143093872Y-51531593D01*
X143068812Y-51508748D01*
X142936302Y-51387948D01*
X142755019Y-51275702D01*
X142755014Y-51275700D01*
X142748129Y-51273032D01*
X142726037Y-51264474D01*
X142670636Y-51221903D01*
X142647045Y-51156136D01*
X142662756Y-51088056D01*
X142712779Y-51039276D01*
X142718427Y-51036466D01*
X142917574Y-50943602D01*
X142917582Y-50943598D01*
X143001373Y-50884926D01*
X143001373Y-50884925D01*
X142369409Y-50252962D01*
X142432993Y-50235925D01*
X142547007Y-50170099D01*
X142640099Y-50077007D01*
X142705925Y-49962993D01*
X142722962Y-49899410D01*
X143354925Y-50531373D01*
X143354926Y-50531373D01*
X143413598Y-50447582D01*
X143413600Y-50447578D01*
X143513429Y-50233492D01*
X143513433Y-50233483D01*
X143574567Y-50005326D01*
X143574569Y-50005315D01*
X143595157Y-49770001D01*
X143595157Y-49769998D01*
X143574569Y-49534684D01*
X143574567Y-49534673D01*
X143513433Y-49306516D01*
X143513429Y-49306507D01*
X143413600Y-49092423D01*
X143413599Y-49092421D01*
X143354925Y-49008626D01*
X143354925Y-49008625D01*
X142722962Y-49640589D01*
X142705925Y-49577007D01*
X142640099Y-49462993D01*
X142547007Y-49369901D01*
X142432993Y-49304075D01*
X142369410Y-49287037D01*
X143001373Y-48655073D01*
X143001373Y-48655072D01*
X142917583Y-48596402D01*
X142917579Y-48596400D01*
X142703492Y-48496570D01*
X142703483Y-48496566D01*
X142475326Y-48435432D01*
X142475315Y-48435430D01*
X142240002Y-48414843D01*
X142239998Y-48414843D01*
X142004684Y-48435430D01*
X142004673Y-48435432D01*
X141776516Y-48496566D01*
X141776507Y-48496570D01*
X141562419Y-48596401D01*
X141478625Y-48655072D01*
X142110590Y-49287037D01*
X142047007Y-49304075D01*
X141932993Y-49369901D01*
X141839901Y-49462993D01*
X141774075Y-49577007D01*
X141757037Y-49640590D01*
X141125072Y-49008625D01*
X141125072Y-49008626D01*
X141071574Y-49085030D01*
X141016998Y-49128655D01*
X140947499Y-49135849D01*
X140885144Y-49104326D01*
X140868424Y-49085030D01*
X140814925Y-49008626D01*
X140814925Y-49008625D01*
X140182962Y-49640589D01*
X140165925Y-49577007D01*
X140100099Y-49462993D01*
X140007007Y-49369901D01*
X139892993Y-49304075D01*
X139829410Y-49287037D01*
X140461373Y-48655073D01*
X140461373Y-48655072D01*
X140377583Y-48596402D01*
X140377579Y-48596400D01*
X140163492Y-48496570D01*
X140163483Y-48496566D01*
X139935326Y-48435432D01*
X139935315Y-48435430D01*
X139700002Y-48414843D01*
X139699998Y-48414843D01*
X139464684Y-48435430D01*
X139464673Y-48435432D01*
X139236516Y-48496566D01*
X139236507Y-48496570D01*
X139022419Y-48596401D01*
X138938625Y-48655072D01*
X139570590Y-49287037D01*
X139507007Y-49304075D01*
X139392993Y-49369901D01*
X139299901Y-49462993D01*
X139234075Y-49577007D01*
X139217037Y-49640589D01*
X138585073Y-49008625D01*
X138585072Y-49008625D01*
X138526401Y-49092419D01*
X138426570Y-49306507D01*
X138426566Y-49306516D01*
X138365432Y-49534673D01*
X138365430Y-49534684D01*
X138344843Y-49769998D01*
X138344843Y-49770001D01*
X138365430Y-50005315D01*
X138365432Y-50005326D01*
X138426566Y-50233483D01*
X138426570Y-50233492D01*
X138526400Y-50447579D01*
X138526402Y-50447583D01*
X138585072Y-50531373D01*
X138585073Y-50531373D01*
X139217037Y-49899409D01*
X139234075Y-49962993D01*
X139299901Y-50077007D01*
X139392993Y-50170099D01*
X139507007Y-50235925D01*
X139570590Y-50252962D01*
X138938625Y-50884925D01*
X139022421Y-50943599D01*
X139221573Y-51036466D01*
X139274012Y-51082638D01*
X139293164Y-51149832D01*
X139272948Y-51216713D01*
X139219783Y-51262048D01*
X139213968Y-51264472D01*
X139206771Y-51267260D01*
X139184982Y-51275701D01*
X139184980Y-51275702D01*
X139003699Y-51387947D01*
X138846127Y-51531593D01*
X138717632Y-51701746D01*
X138622597Y-51892605D01*
X138591314Y-52002548D01*
X138554034Y-52061641D01*
X138490724Y-52091198D01*
X138421484Y-52081834D01*
X138368298Y-52036524D01*
X138364660Y-52030610D01*
X138340487Y-51988740D01*
X138340483Y-51988735D01*
X137833765Y-51482017D01*
X137833763Y-51482015D01*
X137769079Y-51444669D01*
X137736739Y-51425998D01*
X137736738Y-51425997D01*
X137736737Y-51425997D01*
X137628518Y-51397000D01*
X137628517Y-51397000D01*
X137344875Y-51397000D01*
X137277836Y-51377315D01*
X137235516Y-51331452D01*
X137227712Y-51316851D01*
X137227710Y-51316848D01*
X137094936Y-51155063D01*
X136933153Y-51022291D01*
X136933151Y-51022290D01*
X136933150Y-51022289D01*
X136748569Y-50923628D01*
X136636324Y-50889579D01*
X136548284Y-50862872D01*
X136340000Y-50842359D01*
X136131715Y-50862872D01*
X135931428Y-50923629D01*
X135746846Y-51022291D01*
X135585063Y-51155063D01*
X135452291Y-51316846D01*
X135353629Y-51501428D01*
X135292872Y-51701715D01*
X135272359Y-51910000D01*
X135292872Y-52118284D01*
X135314861Y-52190771D01*
X135353628Y-52318569D01*
X135411183Y-52426247D01*
X135452291Y-52503153D01*
X135543870Y-52614742D01*
X135568764Y-52673357D01*
X135615444Y-52690127D01*
X135621006Y-52694434D01*
X135744631Y-52795890D01*
X135746850Y-52797711D01*
X135931431Y-52896372D01*
X136131714Y-52957127D01*
X136340000Y-52977641D01*
X136548286Y-52957127D01*
X136748569Y-52896372D01*
X136933150Y-52797711D01*
X137094936Y-52664936D01*
X137227711Y-52503150D01*
X137296479Y-52374493D01*
X137345441Y-52324650D01*
X137413579Y-52309189D01*
X137479259Y-52333021D01*
X137493517Y-52345265D01*
X137538180Y-52389927D01*
X137571666Y-52451250D01*
X137574500Y-52477609D01*
X137574500Y-54023459D01*
X137554815Y-54090498D01*
X137502011Y-54136253D01*
X137432853Y-54146197D01*
X137369297Y-54117172D01*
X137331840Y-54059456D01*
X137330655Y-54055552D01*
X137326372Y-54041431D01*
X137227711Y-53856850D01*
X137193941Y-53815701D01*
X137094936Y-53695063D01*
X136933153Y-53562291D01*
X136933151Y-53562290D01*
X136933150Y-53562289D01*
X136748569Y-53463628D01*
X136636331Y-53429581D01*
X136548284Y-53402872D01*
X136340000Y-53382359D01*
X136131715Y-53402872D01*
X135931428Y-53463629D01*
X135746846Y-53562291D01*
X135728165Y-53577623D01*
X135663855Y-53604936D01*
X135594987Y-53593145D01*
X135543427Y-53545993D01*
X135525500Y-53481770D01*
X135525500Y-53066484D01*
X135525500Y-53066482D01*
X135496503Y-52958263D01*
X135440485Y-52861237D01*
X135440484Y-52861236D01*
X135436421Y-52854198D01*
X135438933Y-52852747D01*
X135422468Y-52810184D01*
X135378209Y-52795890D01*
X135360336Y-52781088D01*
X134864864Y-52285616D01*
X134831379Y-52224293D01*
X134833885Y-52161939D01*
X134834318Y-52160508D01*
X134847127Y-52118286D01*
X134867641Y-51910000D01*
X134847127Y-51701714D01*
X134786372Y-51501431D01*
X134687711Y-51316850D01*
X134653940Y-51275700D01*
X134554936Y-51155063D01*
X134393153Y-51022291D01*
X134393151Y-51022290D01*
X134393150Y-51022289D01*
X134208569Y-50923628D01*
X134008286Y-50862873D01*
X134008285Y-50862872D01*
X134008279Y-50862871D01*
X134007223Y-50862661D01*
X134006721Y-50862398D01*
X134002457Y-50861105D01*
X134002702Y-50860295D01*
X133945315Y-50830268D01*
X133910748Y-50769549D01*
X133914496Y-50699780D01*
X133955369Y-50643112D01*
X134014863Y-50619711D01*
X134014652Y-50618514D01*
X134019986Y-50617573D01*
X134233270Y-50560424D01*
X134233284Y-50560419D01*
X134433407Y-50467100D01*
X134433417Y-50467094D01*
X134498188Y-50421741D01*
X133827448Y-49751000D01*
X133850160Y-49751000D01*
X133947061Y-49725036D01*
X134033940Y-49674876D01*
X134104876Y-49603940D01*
X134155036Y-49517061D01*
X134181000Y-49420160D01*
X134181000Y-49397447D01*
X134851741Y-50068188D01*
X134897094Y-50003417D01*
X134897100Y-50003407D01*
X134990419Y-49803284D01*
X134990424Y-49803270D01*
X135047573Y-49589986D01*
X135048514Y-49584652D01*
X135049771Y-49584873D01*
X135072956Y-49525571D01*
X135129539Y-49484581D01*
X135199300Y-49480690D01*
X135260091Y-49515132D01*
X135290355Y-49572684D01*
X135291105Y-49572457D01*
X135292290Y-49576363D01*
X135292610Y-49576972D01*
X135292661Y-49577223D01*
X135292871Y-49578279D01*
X135292873Y-49578284D01*
X135292873Y-49578286D01*
X135353628Y-49778569D01*
X135415861Y-49894999D01*
X135452291Y-49963153D01*
X135585063Y-50124936D01*
X135737454Y-50250000D01*
X135746850Y-50257711D01*
X135931431Y-50356372D01*
X136131714Y-50417127D01*
X136340000Y-50437641D01*
X136548286Y-50417127D01*
X136748569Y-50356372D01*
X136933150Y-50257711D01*
X137094936Y-50124936D01*
X137227711Y-49963150D01*
X137326372Y-49778569D01*
X137387127Y-49578286D01*
X137407641Y-49370000D01*
X137387127Y-49161714D01*
X137326372Y-48961431D01*
X137227711Y-48776850D01*
X137223985Y-48772310D01*
X137094936Y-48615063D01*
X136933153Y-48482291D01*
X136933151Y-48482290D01*
X136933150Y-48482289D01*
X136748569Y-48383628D01*
X136637409Y-48349908D01*
X136548284Y-48322872D01*
X136340000Y-48302359D01*
X136131715Y-48322872D01*
X135931428Y-48383629D01*
X135746846Y-48482291D01*
X135585063Y-48615063D01*
X135452291Y-48776846D01*
X135353629Y-48961428D01*
X135292869Y-49161725D01*
X135292660Y-49162779D01*
X135292398Y-49163278D01*
X135291105Y-49167543D01*
X135290295Y-49167297D01*
X135260266Y-49224686D01*
X135199545Y-49259251D01*
X135129776Y-49255502D01*
X135073110Y-49214627D01*
X135049713Y-49155136D01*
X135048514Y-49155348D01*
X135047573Y-49150013D01*
X134990424Y-48936729D01*
X134990420Y-48936720D01*
X134897096Y-48736586D01*
X134851741Y-48671811D01*
X134851740Y-48671810D01*
X134181000Y-49342551D01*
X134181000Y-49319840D01*
X134155036Y-49222939D01*
X134104876Y-49136060D01*
X134033940Y-49065124D01*
X133947061Y-49014964D01*
X133850160Y-48989000D01*
X133827448Y-48989000D01*
X134498188Y-48318259D01*
X134498187Y-48318258D01*
X134433411Y-48272901D01*
X134433405Y-48272898D01*
X134233284Y-48179580D01*
X134233270Y-48179575D01*
X134019986Y-48122426D01*
X134019976Y-48122424D01*
X133800001Y-48103179D01*
X133799999Y-48103179D01*
X133580023Y-48122424D01*
X133580013Y-48122426D01*
X133366729Y-48179575D01*
X133366720Y-48179579D01*
X133166590Y-48272901D01*
X133101811Y-48318258D01*
X133772553Y-48989000D01*
X133749840Y-48989000D01*
X133652939Y-49014964D01*
X133566060Y-49065124D01*
X133495124Y-49136060D01*
X133444964Y-49222939D01*
X133419000Y-49319840D01*
X133419000Y-49342552D01*
X132748258Y-48671811D01*
X132702901Y-48736590D01*
X132609579Y-48936720D01*
X132609575Y-48936729D01*
X132552426Y-49150013D01*
X132552424Y-49150023D01*
X132533179Y-49369995D01*
X132025500Y-49369995D01*
X132025500Y-48393984D01*
X132025500Y-48393982D01*
X131996503Y-48285763D01*
X131940485Y-48188737D01*
X131861263Y-48109515D01*
X130461263Y-46709515D01*
X130393225Y-46670233D01*
X130364239Y-46653498D01*
X130364238Y-46653497D01*
X130364237Y-46653497D01*
X130256018Y-46624500D01*
X130256017Y-46624500D01*
X129850144Y-46624500D01*
X129783105Y-46604815D01*
X129739144Y-46555771D01*
X129682367Y-46441746D01*
X129553872Y-46271593D01*
X129396302Y-46127948D01*
X129215019Y-46015702D01*
X129215014Y-46015700D01*
X129208129Y-46013032D01*
X129186037Y-46004474D01*
X129130636Y-45961903D01*
X129107045Y-45896136D01*
X129122756Y-45828056D01*
X129172779Y-45779276D01*
X129178426Y-45776466D01*
X129377578Y-45683599D01*
X129571082Y-45548105D01*
X129738105Y-45381082D01*
X129873600Y-45187578D01*
X129973429Y-44973492D01*
X129973432Y-44973486D01*
X130030636Y-44760000D01*
X129133012Y-44760000D01*
X129165925Y-44702993D01*
X129200000Y-44575826D01*
X129200000Y-44444174D01*
X129165925Y-44317007D01*
X129133012Y-44260000D01*
X130030636Y-44260000D01*
X130030635Y-44259999D01*
X129973432Y-44046513D01*
X129973429Y-44046507D01*
X129873600Y-43832422D01*
X129873599Y-43832420D01*
X129738113Y-43638926D01*
X129738108Y-43638920D01*
X129571082Y-43471894D01*
X129447355Y-43385258D01*
X140249500Y-43385258D01*
X140249500Y-43614741D01*
X140272182Y-43787016D01*
X140279452Y-43842238D01*
X140287491Y-43872240D01*
X140338842Y-44063887D01*
X140426650Y-44275876D01*
X140426657Y-44275890D01*
X140445437Y-44308418D01*
X140521440Y-44440060D01*
X140541392Y-44474617D01*
X140681081Y-44656661D01*
X140681089Y-44656670D01*
X140843330Y-44818911D01*
X140843338Y-44818918D01*
X140843339Y-44818919D01*
X140878418Y-44845836D01*
X141025382Y-44958607D01*
X141025385Y-44958608D01*
X141025388Y-44958611D01*
X141224112Y-45073344D01*
X141224117Y-45073346D01*
X141224123Y-45073349D01*
X141289672Y-45100500D01*
X141436113Y-45161158D01*
X141657762Y-45220548D01*
X141885266Y-45250500D01*
X141885273Y-45250500D01*
X142114727Y-45250500D01*
X142114734Y-45250500D01*
X142342238Y-45220548D01*
X142563887Y-45161158D01*
X142775888Y-45073344D01*
X142974612Y-44958611D01*
X143156661Y-44818919D01*
X143156665Y-44818914D01*
X143156670Y-44818911D01*
X143318911Y-44656670D01*
X143318914Y-44656665D01*
X143318919Y-44656661D01*
X143458611Y-44474612D01*
X143573344Y-44275888D01*
X143661158Y-44063887D01*
X143720548Y-43842238D01*
X143750500Y-43614734D01*
X143750500Y-43385266D01*
X143720548Y-43157762D01*
X143661158Y-42936113D01*
X143585775Y-42754123D01*
X143573349Y-42724123D01*
X143573346Y-42724117D01*
X143573344Y-42724112D01*
X143458611Y-42525388D01*
X143458608Y-42525385D01*
X143458607Y-42525382D01*
X143318918Y-42343338D01*
X143318911Y-42343330D01*
X143156670Y-42181089D01*
X143156661Y-42181081D01*
X142974617Y-42041392D01*
X142775890Y-41926657D01*
X142775876Y-41926650D01*
X142563887Y-41838842D01*
X142342238Y-41779452D01*
X142304215Y-41774446D01*
X142114741Y-41749500D01*
X142114734Y-41749500D01*
X141885266Y-41749500D01*
X141885258Y-41749500D01*
X141668715Y-41778009D01*
X141657762Y-41779452D01*
X141564076Y-41804554D01*
X141436112Y-41838842D01*
X141224123Y-41926650D01*
X141224109Y-41926657D01*
X141025382Y-42041392D01*
X140843338Y-42181081D01*
X140681081Y-42343338D01*
X140541392Y-42525382D01*
X140426657Y-42724109D01*
X140426650Y-42724123D01*
X140338842Y-42936112D01*
X140279453Y-43157759D01*
X140279451Y-43157770D01*
X140249500Y-43385258D01*
X129447355Y-43385258D01*
X129377578Y-43336399D01*
X129163492Y-43236570D01*
X129163486Y-43236567D01*
X128950000Y-43179364D01*
X128950000Y-44076988D01*
X128892993Y-44044075D01*
X128765826Y-44010000D01*
X128634174Y-44010000D01*
X128507007Y-44044075D01*
X128450000Y-44076988D01*
X128450000Y-43179364D01*
X128449999Y-43179364D01*
X128236513Y-43236567D01*
X128236507Y-43236570D01*
X128022422Y-43336399D01*
X128022420Y-43336400D01*
X127828926Y-43471886D01*
X127828920Y-43471891D01*
X127661891Y-43638920D01*
X127661886Y-43638926D01*
X127526400Y-43832420D01*
X127526399Y-43832422D01*
X127432705Y-44033348D01*
X127386532Y-44085787D01*
X127319339Y-44104939D01*
X127252457Y-44084723D01*
X127209324Y-44036216D01*
X127142366Y-43901745D01*
X127120076Y-43872229D01*
X127013872Y-43731593D01*
X126983731Y-43704116D01*
X126856302Y-43587948D01*
X126675019Y-43475702D01*
X126675017Y-43475701D01*
X126549910Y-43427235D01*
X126476198Y-43398679D01*
X126266610Y-43359500D01*
X126053390Y-43359500D01*
X125843802Y-43398679D01*
X125843799Y-43398679D01*
X125843799Y-43398680D01*
X125644982Y-43475701D01*
X125644980Y-43475702D01*
X125463699Y-43587947D01*
X125306127Y-43731593D01*
X125177632Y-43901746D01*
X125120856Y-44015771D01*
X125073354Y-44067008D01*
X125009856Y-44084500D01*
X120496018Y-44084500D01*
X120383981Y-44084500D01*
X120275763Y-44113497D01*
X120275761Y-44113498D01*
X120275760Y-44113498D01*
X120178740Y-44169513D01*
X120178734Y-44169517D01*
X118809517Y-45538734D01*
X118809513Y-45538740D01*
X118753498Y-45635760D01*
X118753497Y-45635763D01*
X118724500Y-45743982D01*
X100060366Y-45743982D01*
X100053334Y-45731104D01*
X100050500Y-45704746D01*
X100050500Y-45658111D01*
X100050501Y-45626578D01*
X100050500Y-45626573D01*
X100050500Y-45221893D01*
X100070185Y-45154854D01*
X100093975Y-45134240D01*
X100919311Y-45134240D01*
X101007585Y-45188897D01*
X101197678Y-45262539D01*
X101398072Y-45300000D01*
X101601928Y-45300000D01*
X101802322Y-45262539D01*
X101992412Y-45188899D01*
X101992416Y-45188897D01*
X102080686Y-45134241D01*
X102080686Y-45134240D01*
X104419311Y-45134240D01*
X104507585Y-45188897D01*
X104697678Y-45262539D01*
X104898072Y-45300000D01*
X105101928Y-45300000D01*
X105302322Y-45262539D01*
X105492412Y-45188899D01*
X105492416Y-45188897D01*
X105580686Y-45134241D01*
X105580686Y-45134240D01*
X105000001Y-44553553D01*
X105000000Y-44553553D01*
X104419311Y-45134240D01*
X102080686Y-45134240D01*
X101500001Y-44553553D01*
X101500000Y-44553553D01*
X100919311Y-45134240D01*
X100093975Y-45134240D01*
X100122989Y-45109099D01*
X100160213Y-45098718D01*
X100169991Y-45097585D01*
X100272765Y-45052206D01*
X100352206Y-44972765D01*
X100390155Y-44886819D01*
X100401353Y-44861458D01*
X100403184Y-44862266D01*
X100433495Y-44812954D01*
X100496455Y-44782659D01*
X100525152Y-44781316D01*
X100562533Y-44783911D01*
X101146446Y-44200000D01*
X101106950Y-44160504D01*
X101200000Y-44160504D01*
X101200000Y-44239496D01*
X101220444Y-44315796D01*
X101259940Y-44384205D01*
X101315795Y-44440060D01*
X101384204Y-44479556D01*
X101460504Y-44500000D01*
X101539496Y-44500000D01*
X101615796Y-44479556D01*
X101684205Y-44440060D01*
X101740060Y-44384205D01*
X101779556Y-44315796D01*
X101800000Y-44239496D01*
X101800000Y-44200000D01*
X101853553Y-44200000D01*
X102437465Y-44783912D01*
X102439247Y-44781553D01*
X102439248Y-44781551D01*
X102530113Y-44599069D01*
X102530116Y-44599063D01*
X102585902Y-44402992D01*
X102585903Y-44402989D01*
X102604713Y-44200000D01*
X102604713Y-44199999D01*
X103895287Y-44199999D01*
X103895287Y-44200000D01*
X103914096Y-44402989D01*
X103914097Y-44402992D01*
X103969883Y-44599063D01*
X103969886Y-44599069D01*
X104060751Y-44781551D01*
X104062533Y-44783911D01*
X104646446Y-44200000D01*
X104606950Y-44160504D01*
X104700000Y-44160504D01*
X104700000Y-44239496D01*
X104720444Y-44315796D01*
X104759940Y-44384205D01*
X104815795Y-44440060D01*
X104884204Y-44479556D01*
X104960504Y-44500000D01*
X105039496Y-44500000D01*
X105115796Y-44479556D01*
X105184205Y-44440060D01*
X105240060Y-44384205D01*
X105279556Y-44315796D01*
X105300000Y-44239496D01*
X105300000Y-44200000D01*
X105353553Y-44200000D01*
X105937465Y-44783912D01*
X105974865Y-44781320D01*
X106043105Y-44796322D01*
X106092401Y-44845836D01*
X106098912Y-44862059D01*
X106147793Y-44972764D01*
X106147794Y-44972765D01*
X106227235Y-45052206D01*
X106330009Y-45097585D01*
X106355135Y-45100500D01*
X107644864Y-45100499D01*
X107644879Y-45100497D01*
X107644882Y-45100497D01*
X107669987Y-45097586D01*
X107669988Y-45097585D01*
X107669991Y-45097585D01*
X107772765Y-45052206D01*
X107852206Y-44972765D01*
X107897585Y-44869991D01*
X107900500Y-44844865D01*
X107900499Y-43555136D01*
X107898481Y-43537734D01*
X107897586Y-43530012D01*
X107897585Y-43530010D01*
X107897585Y-43530009D01*
X107852206Y-43427235D01*
X107772765Y-43347794D01*
X107746958Y-43336399D01*
X107669992Y-43302415D01*
X107644865Y-43299500D01*
X106355143Y-43299500D01*
X106355117Y-43299502D01*
X106330012Y-43302413D01*
X106330008Y-43302415D01*
X106227235Y-43347793D01*
X106147794Y-43427234D01*
X106098647Y-43538542D01*
X106096819Y-43537734D01*
X106066481Y-43587065D01*
X106003512Y-43617343D01*
X105974852Y-43618681D01*
X105937466Y-43616086D01*
X105353553Y-44200000D01*
X105300000Y-44200000D01*
X105300000Y-44160504D01*
X105279556Y-44084204D01*
X105240060Y-44015795D01*
X105184205Y-43959940D01*
X105115796Y-43920444D01*
X105039496Y-43900000D01*
X104960504Y-43900000D01*
X104884204Y-43920444D01*
X104815795Y-43959940D01*
X104759940Y-44015795D01*
X104720444Y-44084204D01*
X104700000Y-44160504D01*
X104606950Y-44160504D01*
X104062533Y-43616087D01*
X104060755Y-43618442D01*
X104060754Y-43618443D01*
X103969886Y-43800930D01*
X103969883Y-43800936D01*
X103914097Y-43997007D01*
X103914096Y-43997010D01*
X103895287Y-44199999D01*
X102604713Y-44199999D01*
X102585903Y-43997010D01*
X102585902Y-43997007D01*
X102530116Y-43800936D01*
X102530113Y-43800930D01*
X102439249Y-43618449D01*
X102439247Y-43618447D01*
X102437465Y-43616087D01*
X101853553Y-44200000D01*
X101800000Y-44200000D01*
X101800000Y-44160504D01*
X101779556Y-44084204D01*
X101740060Y-44015795D01*
X101684205Y-43959940D01*
X101615796Y-43920444D01*
X101539496Y-43900000D01*
X101460504Y-43900000D01*
X101384204Y-43920444D01*
X101315795Y-43959940D01*
X101259940Y-44015795D01*
X101220444Y-44084204D01*
X101200000Y-44160504D01*
X101106950Y-44160504D01*
X100562532Y-43616086D01*
X100525164Y-43618685D01*
X100456921Y-43603698D01*
X100407613Y-43554195D01*
X100401098Y-43537965D01*
X100352206Y-43427235D01*
X100272765Y-43347794D01*
X100169992Y-43302415D01*
X100144865Y-43299500D01*
X98855143Y-43299500D01*
X98855117Y-43299502D01*
X98830012Y-43302413D01*
X98830008Y-43302415D01*
X98727235Y-43347793D01*
X98647794Y-43427234D01*
X98602415Y-43530006D01*
X98602415Y-43530008D01*
X98599500Y-43555131D01*
X98599500Y-44844856D01*
X98599502Y-44844882D01*
X98602413Y-44869987D01*
X98602415Y-44869991D01*
X98647793Y-44972764D01*
X98647794Y-44972765D01*
X98727235Y-45052206D01*
X98792226Y-45080902D01*
X98830006Y-45097584D01*
X98830009Y-45097585D01*
X98839786Y-45098719D01*
X98904111Y-45125996D01*
X98943478Y-45183720D01*
X98949500Y-45221893D01*
X98949500Y-45687311D01*
X98948903Y-45699467D01*
X98942413Y-45765353D01*
X98937670Y-45789195D01*
X98920227Y-45846692D01*
X98910926Y-45869146D01*
X98882603Y-45922136D01*
X98869097Y-45942349D01*
X98827068Y-45993561D01*
X98818896Y-46002577D01*
X98252546Y-46568927D01*
X98243530Y-46577099D01*
X98192351Y-46619101D01*
X98172139Y-46632606D01*
X98119147Y-46660931D01*
X98096692Y-46670233D01*
X98039198Y-46687675D01*
X98015355Y-46692418D01*
X97949518Y-46698903D01*
X97937363Y-46699500D01*
X95492982Y-46699500D01*
X95425943Y-46679815D01*
X95380188Y-46627011D01*
X95370244Y-46557853D01*
X95399269Y-46494297D01*
X95448187Y-46459873D01*
X95540019Y-46424298D01*
X95721302Y-46312052D01*
X95878872Y-46168407D01*
X96007366Y-45998255D01*
X96039905Y-45932908D01*
X96102403Y-45807394D01*
X96102403Y-45807393D01*
X96102405Y-45807389D01*
X96160756Y-45602310D01*
X96180429Y-45390000D01*
X96160756Y-45177690D01*
X96102405Y-44972611D01*
X96102403Y-44972606D01*
X96102403Y-44972605D01*
X96007367Y-44781746D01*
X95878872Y-44611593D01*
X95839638Y-44575826D01*
X95721302Y-44467948D01*
X95721299Y-44467946D01*
X95721298Y-44467945D01*
X95659089Y-44429427D01*
X95612453Y-44377399D01*
X95601349Y-44308418D01*
X95629302Y-44244383D01*
X95687437Y-44205627D01*
X95724366Y-44200000D01*
X95922828Y-44200000D01*
X95922844Y-44199999D01*
X95982372Y-44193598D01*
X95982379Y-44193596D01*
X96117086Y-44143354D01*
X96117093Y-44143350D01*
X96232187Y-44057190D01*
X96232190Y-44057187D01*
X96318350Y-43942093D01*
X96318354Y-43942086D01*
X96368596Y-43807379D01*
X96368598Y-43807372D01*
X96374999Y-43747844D01*
X96375000Y-43747827D01*
X96375000Y-43265758D01*
X100919311Y-43265758D01*
X101500000Y-43846446D01*
X101500001Y-43846446D01*
X102080687Y-43265758D01*
X104419311Y-43265758D01*
X105000000Y-43846446D01*
X105000001Y-43846446D01*
X105580687Y-43265758D01*
X105492413Y-43211101D01*
X105492411Y-43211100D01*
X105302321Y-43137460D01*
X105101928Y-43100000D01*
X104898072Y-43100000D01*
X104697678Y-43137460D01*
X104507588Y-43211100D01*
X104507581Y-43211104D01*
X104419312Y-43265757D01*
X104419311Y-43265758D01*
X102080687Y-43265758D01*
X101992413Y-43211101D01*
X101992411Y-43211100D01*
X101802321Y-43137460D01*
X101601928Y-43100000D01*
X101398072Y-43100000D01*
X101197678Y-43137460D01*
X101007588Y-43211100D01*
X101007581Y-43211104D01*
X100919312Y-43265757D01*
X100919311Y-43265758D01*
X96375000Y-43265758D01*
X96375000Y-43100000D01*
X95458012Y-43100000D01*
X95490925Y-43042993D01*
X95525000Y-42915826D01*
X95525000Y-42784174D01*
X95490925Y-42657007D01*
X95458012Y-42600000D01*
X96375000Y-42600000D01*
X96375000Y-41952172D01*
X96374999Y-41952155D01*
X96368598Y-41892627D01*
X96368596Y-41892620D01*
X96318354Y-41757913D01*
X96318350Y-41757906D01*
X96232190Y-41642812D01*
X96232187Y-41642809D01*
X96117093Y-41556649D01*
X96117086Y-41556645D01*
X95982379Y-41506403D01*
X95982372Y-41506401D01*
X95922844Y-41500000D01*
X95275000Y-41500000D01*
X95275000Y-42416988D01*
X95217993Y-42384075D01*
X95090826Y-42350000D01*
X94959174Y-42350000D01*
X94832007Y-42384075D01*
X94775000Y-42416988D01*
X94775000Y-41500000D01*
X94127155Y-41500000D01*
X94067627Y-41506401D01*
X94067620Y-41506403D01*
X93932913Y-41556645D01*
X93932906Y-41556649D01*
X93817812Y-41642809D01*
X93817809Y-41642812D01*
X93731649Y-41757906D01*
X93731645Y-41757913D01*
X93681403Y-41892620D01*
X93681401Y-41892627D01*
X93675000Y-41952155D01*
X93675000Y-42600000D01*
X94591988Y-42600000D01*
X94559075Y-42657007D01*
X94525000Y-42784174D01*
X94525000Y-42915826D01*
X94559075Y-43042993D01*
X94591988Y-43100000D01*
X93675000Y-43100000D01*
X93675000Y-43747844D01*
X93681401Y-43807372D01*
X93681403Y-43807379D01*
X93731645Y-43942086D01*
X93731649Y-43942093D01*
X93817809Y-44057187D01*
X93817812Y-44057190D01*
X93932906Y-44143350D01*
X93932913Y-44143354D01*
X94067620Y-44193596D01*
X94067627Y-44193598D01*
X94127155Y-44199999D01*
X94127172Y-44200000D01*
X94325634Y-44200000D01*
X94392673Y-44219685D01*
X94438428Y-44272489D01*
X94448372Y-44341647D01*
X94419347Y-44405203D01*
X94390911Y-44429427D01*
X94328701Y-44467945D01*
X94171127Y-44611593D01*
X94042632Y-44781746D01*
X93947596Y-44972605D01*
X93947596Y-44972607D01*
X93889244Y-45177689D01*
X93877911Y-45300000D01*
X93869571Y-45390000D01*
X93889244Y-45602310D01*
X93938796Y-45776466D01*
X93947596Y-45807392D01*
X93947596Y-45807394D01*
X94042632Y-45998253D01*
X94171127Y-46168406D01*
X94171128Y-46168407D01*
X94328698Y-46312052D01*
X94509981Y-46424298D01*
X94601812Y-46459873D01*
X94657213Y-46502446D01*
X94680804Y-46568213D01*
X94665093Y-46636293D01*
X94615069Y-46685072D01*
X94557018Y-46699500D01*
X88027525Y-46699500D01*
X87930436Y-46725515D01*
X87930435Y-46725514D01*
X87887519Y-46737014D01*
X87887512Y-46737017D01*
X87761989Y-46809487D01*
X87761984Y-46809491D01*
X84959491Y-49611983D01*
X84959487Y-49611988D01*
X84906081Y-49704492D01*
X84887018Y-49737510D01*
X84887016Y-49737513D01*
X84878311Y-49770001D01*
X84849500Y-49877525D01*
X84849500Y-49877527D01*
X84849500Y-54070613D01*
X84829815Y-54137652D01*
X84813181Y-54158294D01*
X84708294Y-54263181D01*
X84646971Y-54296666D01*
X84620613Y-54299500D01*
X84104269Y-54299500D01*
X84037230Y-54279815D01*
X83993785Y-54231795D01*
X83974165Y-54193289D01*
X83962265Y-54176911D01*
X83858235Y-54033725D01*
X83718775Y-53894265D01*
X83583141Y-53795721D01*
X83540477Y-53740392D01*
X83534498Y-53670778D01*
X83567104Y-53608984D01*
X83599735Y-53584918D01*
X83663776Y-53552288D01*
X83848742Y-53417902D01*
X84010402Y-53256242D01*
X84144788Y-53071276D01*
X84248582Y-52867570D01*
X84319234Y-52650128D01*
X84333509Y-52560000D01*
X83345748Y-52560000D01*
X83367518Y-52522292D01*
X83405000Y-52382409D01*
X83405000Y-52237591D01*
X83367518Y-52097708D01*
X83345748Y-52060000D01*
X84333509Y-52060000D01*
X84319234Y-51969871D01*
X84248582Y-51752429D01*
X84144788Y-51548723D01*
X84010402Y-51363757D01*
X83873163Y-51226518D01*
X83839678Y-51165195D01*
X83844662Y-51095503D01*
X83886534Y-51039570D01*
X83916861Y-51024767D01*
X83916458Y-51023853D01*
X83963668Y-51003007D01*
X84027765Y-50974706D01*
X84107206Y-50895265D01*
X84152585Y-50792491D01*
X84155500Y-50767365D01*
X84155499Y-49424385D01*
X84175184Y-49357347D01*
X84191813Y-49336710D01*
X88641706Y-44886819D01*
X88703029Y-44853334D01*
X88729387Y-44850500D01*
X89178107Y-44850500D01*
X89245146Y-44870185D01*
X89290901Y-44922989D01*
X89301282Y-44960217D01*
X89302415Y-44969992D01*
X89347793Y-45072764D01*
X89347794Y-45072765D01*
X89427235Y-45152206D01*
X89530009Y-45197585D01*
X89555135Y-45200500D01*
X90844864Y-45200499D01*
X90844879Y-45200497D01*
X90844882Y-45200497D01*
X90869987Y-45197586D01*
X90869988Y-45197585D01*
X90869991Y-45197585D01*
X90972765Y-45152206D01*
X91052206Y-45072765D01*
X91097585Y-44969991D01*
X91100500Y-44944865D01*
X91100499Y-43655136D01*
X91100497Y-43655117D01*
X91097586Y-43630012D01*
X91097585Y-43630010D01*
X91097585Y-43630009D01*
X91052206Y-43527235D01*
X90972765Y-43447794D01*
X90972763Y-43447793D01*
X90869990Y-43402414D01*
X90867409Y-43401712D01*
X90864886Y-43400160D01*
X90861458Y-43398647D01*
X90861664Y-43398179D01*
X90807891Y-43365114D01*
X90777608Y-43302148D01*
X90776796Y-43267773D01*
X90780686Y-43234240D01*
X90200001Y-42653553D01*
X90200000Y-42653553D01*
X89619311Y-43234240D01*
X89623202Y-43267774D01*
X89611374Y-43336635D01*
X89564195Y-43388171D01*
X89532587Y-43401713D01*
X89530009Y-43402414D01*
X89427235Y-43447793D01*
X89347794Y-43527234D01*
X89302415Y-43630006D01*
X89302415Y-43630008D01*
X89301280Y-43639792D01*
X89273999Y-43704116D01*
X89216273Y-43743480D01*
X89178106Y-43749500D01*
X88377525Y-43749500D01*
X88272517Y-43777637D01*
X88237514Y-43787016D01*
X88111986Y-43859489D01*
X88111983Y-43859491D01*
X83490792Y-48480681D01*
X83429469Y-48514166D01*
X83403111Y-48517000D01*
X81810143Y-48517000D01*
X81810117Y-48517002D01*
X81785012Y-48519913D01*
X81785008Y-48519915D01*
X81682235Y-48565293D01*
X81602794Y-48644734D01*
X81557415Y-48747506D01*
X81557415Y-48747508D01*
X81554500Y-48772631D01*
X81554500Y-50767356D01*
X81554502Y-50767382D01*
X81557413Y-50792487D01*
X81557415Y-50792491D01*
X81602793Y-50895264D01*
X81602794Y-50895265D01*
X81682235Y-50974706D01*
X81752576Y-51005764D01*
X81793542Y-51023853D01*
X81792634Y-51025907D01*
X81841218Y-51055768D01*
X81871514Y-51118728D01*
X81862961Y-51188072D01*
X81836837Y-51226518D01*
X81699594Y-51363761D01*
X81565211Y-51548723D01*
X81461417Y-51752429D01*
X81390765Y-51969871D01*
X81376491Y-52060000D01*
X80254374Y-52060000D01*
X80250960Y-43415258D01*
X81499500Y-43415258D01*
X81499500Y-43644741D01*
X81513075Y-43747844D01*
X81529452Y-43872238D01*
X81562884Y-43997010D01*
X81588842Y-44093887D01*
X81676650Y-44305876D01*
X81676657Y-44305890D01*
X81697301Y-44341647D01*
X81774071Y-44474617D01*
X81791392Y-44504617D01*
X81931081Y-44686661D01*
X81931089Y-44686670D01*
X82093330Y-44848911D01*
X82093338Y-44848918D01*
X82093339Y-44848919D01*
X82120803Y-44869993D01*
X82275382Y-44988607D01*
X82275385Y-44988608D01*
X82275388Y-44988611D01*
X82474112Y-45103344D01*
X82474117Y-45103346D01*
X82474123Y-45103349D01*
X82565480Y-45141190D01*
X82686113Y-45191158D01*
X82907762Y-45250548D01*
X83135266Y-45280500D01*
X83135273Y-45280500D01*
X83364727Y-45280500D01*
X83364734Y-45280500D01*
X83592238Y-45250548D01*
X83813887Y-45191158D01*
X84025888Y-45103344D01*
X84224612Y-44988611D01*
X84406661Y-44848919D01*
X84406665Y-44848914D01*
X84406670Y-44848911D01*
X84568911Y-44686670D01*
X84568914Y-44686665D01*
X84568919Y-44686661D01*
X84708611Y-44504612D01*
X84823344Y-44305888D01*
X84911158Y-44093887D01*
X84970548Y-43872238D01*
X85000500Y-43644734D01*
X85000500Y-43415266D01*
X84970548Y-43187762D01*
X84911158Y-42966113D01*
X84823344Y-42754112D01*
X84708611Y-42555388D01*
X84708608Y-42555385D01*
X84708607Y-42555382D01*
X84568918Y-42373338D01*
X84568911Y-42373330D01*
X84495580Y-42299999D01*
X89095287Y-42299999D01*
X89095287Y-42300000D01*
X89114096Y-42502989D01*
X89114097Y-42502992D01*
X89169883Y-42699063D01*
X89169886Y-42699069D01*
X89260751Y-42881551D01*
X89262533Y-42883911D01*
X89846446Y-42300000D01*
X89806950Y-42260504D01*
X89900000Y-42260504D01*
X89900000Y-42339496D01*
X89920444Y-42415796D01*
X89959940Y-42484205D01*
X90015795Y-42540060D01*
X90084204Y-42579556D01*
X90160504Y-42600000D01*
X90239496Y-42600000D01*
X90315796Y-42579556D01*
X90384205Y-42540060D01*
X90440060Y-42484205D01*
X90479556Y-42415796D01*
X90500000Y-42339496D01*
X90500000Y-42300000D01*
X90553553Y-42300000D01*
X91137465Y-42883912D01*
X91139247Y-42881553D01*
X91139248Y-42881551D01*
X91230113Y-42699069D01*
X91230116Y-42699063D01*
X91285902Y-42502992D01*
X91285903Y-42502989D01*
X91304713Y-42300000D01*
X91304713Y-42299999D01*
X91285903Y-42097010D01*
X91285902Y-42097007D01*
X91230116Y-41900936D01*
X91230113Y-41900930D01*
X91139249Y-41718449D01*
X91139247Y-41718447D01*
X91137465Y-41716087D01*
X90553553Y-42300000D01*
X90500000Y-42300000D01*
X90500000Y-42260504D01*
X90479556Y-42184204D01*
X90440060Y-42115795D01*
X90384205Y-42059940D01*
X90315796Y-42020444D01*
X90239496Y-42000000D01*
X90160504Y-42000000D01*
X90084204Y-42020444D01*
X90015795Y-42059940D01*
X89959940Y-42115795D01*
X89920444Y-42184204D01*
X89900000Y-42260504D01*
X89806950Y-42260504D01*
X89262533Y-41716087D01*
X89260755Y-41718442D01*
X89260754Y-41718443D01*
X89169886Y-41900930D01*
X89169883Y-41900936D01*
X89114097Y-42097007D01*
X89114096Y-42097010D01*
X89095287Y-42299999D01*
X84495580Y-42299999D01*
X84406670Y-42211089D01*
X84406661Y-42211081D01*
X84224617Y-42071392D01*
X84172655Y-42041392D01*
X84118047Y-42009864D01*
X84025890Y-41956657D01*
X84025876Y-41956650D01*
X83813887Y-41868842D01*
X83592238Y-41809452D01*
X83554215Y-41804446D01*
X83364741Y-41779500D01*
X83364734Y-41779500D01*
X83135266Y-41779500D01*
X83135258Y-41779500D01*
X82918715Y-41808009D01*
X82907762Y-41809452D01*
X82814076Y-41834554D01*
X82686112Y-41868842D01*
X82474123Y-41956650D01*
X82474109Y-41956657D01*
X82275382Y-42071392D01*
X82093338Y-42211081D01*
X81931081Y-42373338D01*
X81791392Y-42555382D01*
X81676657Y-42754109D01*
X81676650Y-42754123D01*
X81601268Y-42936113D01*
X81588842Y-42966113D01*
X81537491Y-43157762D01*
X81529453Y-43187759D01*
X81529451Y-43187770D01*
X81499500Y-43415258D01*
X80250960Y-43415258D01*
X80250501Y-42254430D01*
X80250816Y-42245578D01*
X80267674Y-42009857D01*
X80270190Y-41992360D01*
X80319483Y-41765766D01*
X80324460Y-41748815D01*
X80405501Y-41531536D01*
X80412851Y-41515444D01*
X80421284Y-41500000D01*
X80494585Y-41365758D01*
X89619311Y-41365758D01*
X90200000Y-41946446D01*
X90200001Y-41946446D01*
X90780687Y-41365758D01*
X90692413Y-41311101D01*
X90692411Y-41311100D01*
X90502321Y-41237460D01*
X90301928Y-41200000D01*
X90098072Y-41200000D01*
X89897678Y-41237460D01*
X89707588Y-41311100D01*
X89707581Y-41311104D01*
X89619312Y-41365757D01*
X89619311Y-41365758D01*
X80494585Y-41365758D01*
X80523981Y-41311923D01*
X80533537Y-41297054D01*
X80672506Y-41111413D01*
X80684080Y-41098056D01*
X80848056Y-40934080D01*
X80861413Y-40922506D01*
X81047054Y-40783537D01*
X81061923Y-40773981D01*
X81265444Y-40662850D01*
X81281537Y-40655501D01*
X81498815Y-40574460D01*
X81515766Y-40569483D01*
X81742360Y-40520190D01*
X81759857Y-40517674D01*
X81995591Y-40500815D01*
X82004429Y-40500500D01*
X143130919Y-40514701D01*
G37*
%TD.AperFunction*%
%TD*%
M02*
