%TF.GenerationSoftware,KiCad,Pcbnew,8.0.4*%
%TF.CreationDate,2024-07-30T16:51:47-04:00*%
%TF.ProjectId,esp32-c3-wroom-socket,65737033-322d-4633-932d-77726f6f6d2d,rev?*%
%TF.SameCoordinates,Original*%
%TF.FileFunction,Legend,Top*%
%TF.FilePolarity,Positive*%
%FSLAX46Y46*%
G04 Gerber Fmt 4.6, Leading zero omitted, Abs format (unit mm)*
G04 Created by KiCad (PCBNEW 8.0.4) date 2024-07-30 16:51:47*
%MOMM*%
%LPD*%
G01*
G04 APERTURE LIST*
%ADD10C,0.150000*%
%ADD11C,0.127000*%
%ADD12C,0.200000*%
%ADD13C,0.120000*%
%ADD14C,0.500000*%
%ADD15C,0.250000*%
%ADD16C,0.152400*%
G04 APERTURE END LIST*
D10*
X149603095Y-49469819D02*
X149603095Y-50279342D01*
X149603095Y-50279342D02*
X149650714Y-50374580D01*
X149650714Y-50374580D02*
X149698333Y-50422200D01*
X149698333Y-50422200D02*
X149793571Y-50469819D01*
X149793571Y-50469819D02*
X149984047Y-50469819D01*
X149984047Y-50469819D02*
X150079285Y-50422200D01*
X150079285Y-50422200D02*
X150126904Y-50374580D01*
X150126904Y-50374580D02*
X150174523Y-50279342D01*
X150174523Y-50279342D02*
X150174523Y-49469819D01*
X151174523Y-50469819D02*
X150603095Y-50469819D01*
X150888809Y-50469819D02*
X150888809Y-49469819D01*
X150888809Y-49469819D02*
X150793571Y-49612676D01*
X150793571Y-49612676D02*
X150698333Y-49707914D01*
X150698333Y-49707914D02*
X150603095Y-49755533D01*
X150476665Y-76554818D02*
X150476665Y-77269103D01*
X150476665Y-77269103D02*
X150429046Y-77411960D01*
X150429046Y-77411960D02*
X150333808Y-77507199D01*
X150333808Y-77507199D02*
X150190951Y-77554818D01*
X150190951Y-77554818D02*
X150095713Y-77554818D01*
X150857618Y-76554818D02*
X151476665Y-76554818D01*
X151476665Y-76554818D02*
X151143332Y-76935770D01*
X151143332Y-76935770D02*
X151286189Y-76935770D01*
X151286189Y-76935770D02*
X151381427Y-76983389D01*
X151381427Y-76983389D02*
X151429046Y-77031008D01*
X151429046Y-77031008D02*
X151476665Y-77126246D01*
X151476665Y-77126246D02*
X151476665Y-77364341D01*
X151476665Y-77364341D02*
X151429046Y-77459579D01*
X151429046Y-77459579D02*
X151381427Y-77507199D01*
X151381427Y-77507199D02*
X151286189Y-77554818D01*
X151286189Y-77554818D02*
X151000475Y-77554818D01*
X151000475Y-77554818D02*
X150905237Y-77507199D01*
X150905237Y-77507199D02*
X150857618Y-77459579D01*
D11*
%TO.C,U1*%
X147940000Y-51100000D02*
X147940000Y-57430000D01*
X147940000Y-71100000D02*
X147940000Y-70970000D01*
X147940000Y-71100000D02*
X165940000Y-71100000D01*
X165940000Y-51100000D02*
X147940000Y-51100000D01*
X165940000Y-57430000D02*
X165940000Y-51100000D01*
X165940000Y-71100000D02*
X165940000Y-70970000D01*
D12*
X146540000Y-58200000D02*
G75*
G02*
X146340000Y-58200000I-100000J0D01*
G01*
X146340000Y-58200000D02*
G75*
G02*
X146540000Y-58200000I100000J0D01*
G01*
D13*
%TO.C,SW1*%
X159100000Y-78010000D02*
X159100000Y-77550000D01*
X159100000Y-81250000D02*
X159100000Y-80790000D01*
X159100000Y-81250000D02*
X165300000Y-81250000D01*
X165300000Y-77550000D02*
X159100000Y-77550000D01*
X165300000Y-78010000D02*
X165300000Y-77550000D01*
X165300000Y-80790000D02*
X166300000Y-80790000D01*
X165300000Y-81250000D02*
X165300000Y-80790000D01*
X163700000Y-79950000D02*
X160850000Y-79950000D01*
X160850000Y-78900000D01*
X163700000Y-78900000D01*
X163700000Y-79950000D01*
%TO.C,R7*%
X154890000Y-74872936D02*
X154890000Y-76327064D01*
X156710000Y-74872936D02*
X156710000Y-76327064D01*
D14*
%TO.C,J2*%
X141470000Y-59480000D02*
X141470000Y-79800000D01*
D15*
X144010000Y-56940000D02*
X169410000Y-56940000D01*
D14*
X144010000Y-82340000D02*
X169410000Y-82340000D01*
X171950000Y-59480000D02*
X171950000Y-79800000D01*
X141470000Y-59480000D02*
G75*
G02*
X144010000Y-56940000I2540001J-1D01*
G01*
X144010000Y-82340000D02*
G75*
G02*
X141470000Y-79800000I1J2540001D01*
G01*
X169410000Y-56940000D02*
G75*
G02*
X171950000Y-59480000I0J-2540000D01*
G01*
X171950000Y-79800000D02*
G75*
G02*
X169410000Y-82340000I-2540000J0D01*
G01*
D13*
%TO.C,SW2*%
X159100000Y-73210000D02*
X159100000Y-72750000D01*
X159100000Y-76450000D02*
X159100000Y-75990000D01*
X159100000Y-76450000D02*
X165300000Y-76450000D01*
X165300000Y-72750000D02*
X159100000Y-72750000D01*
X165300000Y-73210000D02*
X165300000Y-72750000D01*
X165300000Y-75990000D02*
X166300000Y-75990000D01*
X165300000Y-76450000D02*
X165300000Y-75990000D01*
X163700000Y-75150000D02*
X160850000Y-75150000D01*
X160850000Y-74100000D01*
X163700000Y-74100000D01*
X163700000Y-75150000D01*
D16*
%TO.C,J3*%
X149108199Y-73172999D02*
X149108199Y-73712992D01*
X149108199Y-76187007D02*
X149108199Y-78512992D01*
X149108199Y-80987006D02*
X149108199Y-87981199D01*
X149108199Y-87981199D02*
X152511799Y-87981199D01*
X152511799Y-73172999D02*
X149108199Y-73172999D01*
X152511799Y-73712992D02*
X152511799Y-73172999D01*
X152511799Y-78512992D02*
X152511799Y-76187007D01*
X152511799Y-87981199D02*
X152511799Y-80987006D01*
%TD*%
M02*
