%TF.GenerationSoftware,KiCad,Pcbnew,8.0.4*%
%TF.CreationDate,2024-07-30T16:51:47-04:00*%
%TF.ProjectId,esp32-c3-wroom-socket,65737033-322d-4633-932d-77726f6f6d2d,rev?*%
%TF.SameCoordinates,Original*%
%TF.FileFunction,Copper,L1,Top*%
%TF.FilePolarity,Positive*%
%FSLAX46Y46*%
G04 Gerber Fmt 4.6, Leading zero omitted, Abs format (unit mm)*
G04 Created by KiCad (PCBNEW 8.0.4) date 2024-07-30 16:51:47*
%MOMM*%
%LPD*%
G01*
G04 APERTURE LIST*
G04 Aperture macros list*
%AMRoundRect*
0 Rectangle with rounded corners*
0 $1 Rounding radius*
0 $2 $3 $4 $5 $6 $7 $8 $9 X,Y pos of 4 corners*
0 Add a 4 corners polygon primitive as box body*
4,1,4,$2,$3,$4,$5,$6,$7,$8,$9,$2,$3,0*
0 Add four circle primitives for the rounded corners*
1,1,$1+$1,$2,$3*
1,1,$1+$1,$4,$5*
1,1,$1+$1,$6,$7*
1,1,$1+$1,$8,$9*
0 Add four rect primitives between the rounded corners*
20,1,$1+$1,$2,$3,$4,$5,0*
20,1,$1+$1,$4,$5,$6,$7,0*
20,1,$1+$1,$6,$7,$8,$9,0*
20,1,$1+$1,$8,$9,$2,$3,0*%
%AMOutline5P*
0 Free polygon, 5 corners , with rotation*
0 The origin of the aperture is its center*
0 number of corners: always 5*
0 $1 to $10 corner X, Y*
0 $11 Rotation angle, in degrees counterclockwise*
0 create outline with 5 corners*
4,1,5,$1,$2,$3,$4,$5,$6,$7,$8,$9,$10,$1,$2,$11*%
%AMOutline6P*
0 Free polygon, 6 corners , with rotation*
0 The origin of the aperture is its center*
0 number of corners: always 6*
0 $1 to $12 corner X, Y*
0 $13 Rotation angle, in degrees counterclockwise*
0 create outline with 6 corners*
4,1,6,$1,$2,$3,$4,$5,$6,$7,$8,$9,$10,$11,$12,$1,$2,$13*%
%AMOutline7P*
0 Free polygon, 7 corners , with rotation*
0 The origin of the aperture is its center*
0 number of corners: always 7*
0 $1 to $14 corner X, Y*
0 $15 Rotation angle, in degrees counterclockwise*
0 create outline with 7 corners*
4,1,7,$1,$2,$3,$4,$5,$6,$7,$8,$9,$10,$11,$12,$13,$14,$1,$2,$15*%
%AMOutline8P*
0 Free polygon, 8 corners , with rotation*
0 The origin of the aperture is its center*
0 number of corners: always 8*
0 $1 to $16 corner X, Y*
0 $17 Rotation angle, in degrees counterclockwise*
0 create outline with 8 corners*
4,1,8,$1,$2,$3,$4,$5,$6,$7,$8,$9,$10,$11,$12,$13,$14,$15,$16,$1,$2,$17*%
G04 Aperture macros list end*
%TA.AperFunction,SMDPad,CuDef*%
%ADD10R,1.500000X0.900000*%
%TD*%
%TA.AperFunction,SMDPad,CuDef*%
%ADD11R,0.700000X0.700000*%
%TD*%
%TA.AperFunction,ComponentPad*%
%ADD12C,0.400000*%
%TD*%
%TA.AperFunction,SMDPad,CuDef*%
%ADD13R,2.250000X2.250000*%
%TD*%
%TA.AperFunction,SMDPad,CuDef*%
%ADD14O,2.250000X2.250000*%
%TD*%
%TA.AperFunction,SMDPad,CuDef*%
%ADD15RoundRect,0.250000X-0.625000X0.400000X-0.625000X-0.400000X0.625000X-0.400000X0.625000X0.400000X0*%
%TD*%
%TA.AperFunction,ComponentPad*%
%ADD16R,1.700000X1.700000*%
%TD*%
%TA.AperFunction,ComponentPad*%
%ADD17C,1.700000*%
%TD*%
%TA.AperFunction,ComponentPad*%
%ADD18Outline6P,-0.850000X0.340000X-0.340000X0.850000X0.850000X0.850000X0.850000X-0.340000X0.340000X-0.850000X-0.850000X-0.850000X0.000000*%
%TD*%
%TA.AperFunction,ComponentPad*%
%ADD19C,0.609600*%
%TD*%
%TA.AperFunction,ComponentPad*%
%ADD20O,0.914400X1.905000*%
%TD*%
%TA.AperFunction,ViaPad*%
%ADD21C,0.600000*%
%TD*%
%TA.AperFunction,Conductor*%
%ADD22C,0.250000*%
%TD*%
%TA.AperFunction,Conductor*%
%ADD23C,0.200000*%
%TD*%
%TA.AperFunction,Conductor*%
%ADD24C,0.500000*%
%TD*%
G04 APERTURE END LIST*
D10*
%TO.P,U1,1,3V3*%
%TO.N,3V3*%
X148190000Y-58200000D03*
%TO.P,U1,2,EN*%
%TO.N,EN*%
X148190000Y-59700000D03*
%TO.P,U1,3,IO4*%
%TO.N,GPIO4*%
X148190000Y-61200000D03*
%TO.P,U1,4,IO5*%
%TO.N,GPIO5*%
X148190000Y-62700000D03*
%TO.P,U1,5,IO6*%
%TO.N,GPIO6*%
X148190000Y-64200000D03*
%TO.P,U1,6,IO7*%
%TO.N,GPIO7*%
X148190000Y-65700000D03*
%TO.P,U1,7,IO8*%
%TO.N,GPIO8*%
X148190000Y-67200000D03*
%TO.P,U1,8,IO9*%
%TO.N,GPIO9*%
X148190000Y-68700000D03*
%TO.P,U1,9,GND*%
%TO.N,GND*%
X148190000Y-70200000D03*
%TO.P,U1,10,IO10*%
%TO.N,GPIO10*%
X165690000Y-70200000D03*
%TO.P,U1,11,RXD*%
%TO.N,UART-RX*%
X165690000Y-68700000D03*
%TO.P,U1,12,TXD*%
%TO.N,UART-TX*%
X165690000Y-67200000D03*
%TO.P,U1,13,IO18*%
%TO.N,USB_D-*%
X165690000Y-65700000D03*
%TO.P,U1,14,IO19*%
%TO.N,USB_D+*%
X165690000Y-64200000D03*
%TO.P,U1,15,IO3*%
%TO.N,GPIO3*%
X165690000Y-62700000D03*
%TO.P,U1,16,IO2*%
%TO.N,GPIO2*%
X165690000Y-61200000D03*
%TO.P,U1,17,IO1*%
%TO.N,GPIO1*%
X165690000Y-59700000D03*
%TO.P,U1,18,IO0*%
%TO.N,GPIO0*%
X165690000Y-58200000D03*
D11*
%TO.P,U1,19,GND__1*%
%TO.N,GND*%
X156800000Y-63300000D03*
%TO.P,U1,20,GND__2*%
X157900000Y-63300000D03*
%TO.P,U1,21,GND__3*%
X159000000Y-63300000D03*
%TO.P,U1,22,GND__4*%
X156800000Y-64400000D03*
%TO.P,U1,23,GND__5*%
X157900000Y-64400000D03*
%TO.P,U1,24,GND__6*%
X159000000Y-64400000D03*
%TO.P,U1,25,GND__7*%
X156800000Y-65500000D03*
%TO.P,U1,26,GND__8*%
X157900000Y-65500000D03*
%TO.P,U1,27,GND__9*%
X159000000Y-65500000D03*
D12*
%TO.P,U1,28,GND__10*%
X157350000Y-63300000D03*
%TO.P,U1,29,GND__11*%
X158450000Y-63300000D03*
%TO.P,U1,30,GND__12*%
X156800000Y-63850000D03*
%TO.P,U1,31,GND__13*%
X157900000Y-63850000D03*
%TO.P,U1,32,GND__14*%
X159000000Y-63850000D03*
%TO.P,U1,33,GND__15*%
X157350000Y-64400000D03*
%TO.P,U1,34,GND__16*%
X158450000Y-64400000D03*
%TO.P,U1,35,GND__17*%
X156800000Y-64950000D03*
%TO.P,U1,36,GND__18*%
X157900000Y-64950000D03*
%TO.P,U1,37,GND__19*%
X159000000Y-64950000D03*
%TO.P,U1,38,GND__20*%
X157350000Y-65500000D03*
%TO.P,U1,39,GND__21*%
X158450000Y-65500000D03*
%TD*%
D13*
%TO.P,SW1,1,1*%
%TO.N,GND*%
X165450000Y-79400000D03*
D14*
%TO.P,SW1,2,2*%
%TO.N,GPIO9*%
X158950000Y-79400000D03*
%TD*%
D15*
%TO.P,R7,1*%
%TO.N,3V3*%
X155800000Y-74050000D03*
%TO.P,R7,2*%
%TO.N,GPIO8*%
X155800000Y-77150000D03*
%TD*%
D16*
%TO.P,J2,1*%
%TO.N,3V3*%
X144010000Y-59480000D03*
D17*
%TO.P,J2,2*%
%TO.N,EN*%
X144010000Y-62020000D03*
%TO.P,J2,3*%
%TO.N,GPIO4*%
X144010000Y-64560000D03*
%TO.P,J2,4*%
%TO.N,GPIO5*%
X144010000Y-67100000D03*
%TO.P,J2,5*%
%TO.N,GPIO6*%
X144010000Y-69640000D03*
%TO.P,J2,6*%
%TO.N,GPIO7*%
X144010000Y-72180000D03*
%TO.P,J2,7*%
%TO.N,GPIO8*%
X144010000Y-74720000D03*
%TO.P,J2,8*%
%TO.N,GPIO9*%
X144010000Y-77260000D03*
D18*
%TO.P,J2,9*%
%TO.N,GND*%
X144010000Y-79800000D03*
D17*
%TO.P,J2,10*%
%TO.N,GPIO10*%
X169410000Y-79800000D03*
%TO.P,J2,11*%
%TO.N,UART-RX*%
X169410000Y-77260000D03*
%TO.P,J2,12*%
%TO.N,UART-TX*%
X169410000Y-74720000D03*
%TO.P,J2,13*%
%TO.N,USB_D-*%
X169410000Y-72180000D03*
%TO.P,J2,14*%
%TO.N,USB_D+*%
X169410000Y-69640000D03*
%TO.P,J2,15*%
%TO.N,GPIO3*%
X169410000Y-67100000D03*
%TO.P,J2,16*%
%TO.N,GPIO2*%
X169410000Y-64560000D03*
%TO.P,J2,17*%
%TO.N,GPIO1*%
X169410000Y-62020000D03*
%TO.P,J2,18*%
%TO.N,GPIO0*%
X169410000Y-59480000D03*
%TD*%
D13*
%TO.P,SW2,1,1*%
%TO.N,GND*%
X165450000Y-74600000D03*
D14*
%TO.P,SW2,2,2*%
%TO.N,EN*%
X158950000Y-74600000D03*
%TD*%
D19*
%TO.P,J3,A1,GND*%
%TO.N,GND*%
X150419999Y-79799999D03*
%TO.P,J3,A4,VBUS*%
%TO.N,VBUS*%
X150419999Y-78899998D03*
%TO.P,J3,A5,CC1*%
%TO.N,Net-(J3-CC1)*%
X150419999Y-78000000D03*
%TO.P,J3,A6,DP1*%
%TO.N,USB_D+*%
X150419999Y-77099999D03*
%TO.P,J3,A7,DN1*%
%TO.N,USB_D-*%
X150419999Y-76199999D03*
%TO.P,J3,A9,VBUS*%
%TO.N,VBUS*%
X150419999Y-75300000D03*
%TO.P,J3,A12,GND*%
%TO.N,GND*%
X150419999Y-74400000D03*
%TO.P,J3,B1,GND*%
X151200000Y-74850000D03*
%TO.P,J3,B4,VBUS*%
%TO.N,VBUS*%
X151200000Y-75750000D03*
%TO.P,J3,B5,CC2*%
%TO.N,Net-(J3-CC2)*%
X151200000Y-76650000D03*
%TO.P,J3,B6,DP2*%
%TO.N,USB_D+*%
X151200000Y-77550000D03*
%TO.P,J3,B7,DN2*%
%TO.N,USB_D-*%
X151200000Y-78450000D03*
%TO.P,J3,B9,VBUS*%
%TO.N,VBUS*%
X151200000Y-79350000D03*
%TO.P,J3,B12,GND*%
%TO.N,GND*%
X151200000Y-80250000D03*
D20*
%TO.P,J3,S_1*%
%TO.N,N/C*%
X149379999Y-79749999D03*
%TO.P,J3,S_2*%
X152239999Y-79749999D03*
%TO.P,J3,S_3*%
X149379999Y-74950000D03*
%TO.P,J3,S_4*%
X152239999Y-74950000D03*
%TD*%
D21*
%TO.N,GND*%
X151000000Y-68400000D03*
X153400000Y-68400000D03*
X152600000Y-68400000D03*
X151800000Y-68400000D03*
%TO.N,3V3*%
X152150000Y-60400000D03*
%TO.N,GND*%
X163000000Y-74600000D03*
X157800000Y-68600000D03*
X161400000Y-74600000D03*
X159400000Y-68600000D03*
X154000000Y-81200000D03*
X155200000Y-81200000D03*
X158600000Y-68600000D03*
X162200000Y-74600000D03*
X160200000Y-68600000D03*
%TO.N,VBUS*%
X147575000Y-73400000D03*
%TO.N,USB_D-*%
X163800000Y-66800000D03*
%TO.N,3V3*%
X153200000Y-58000000D03*
%TD*%
D22*
%TO.N,VBUS*%
X150131496Y-78899998D02*
X150429325Y-78899998D01*
X148200000Y-76000000D02*
X148200000Y-77600000D01*
X147575000Y-75375000D02*
X148200000Y-76000000D01*
X151677500Y-76227500D02*
X151200000Y-75750000D01*
X152972500Y-76227500D02*
X151677500Y-76227500D01*
X153200000Y-76000000D02*
X152972500Y-76227500D01*
X153200000Y-73200000D02*
X153200000Y-76000000D01*
X152800000Y-72800000D02*
X153200000Y-73200000D01*
X147575000Y-73225000D02*
X148000000Y-72800000D01*
X147575000Y-73400000D02*
X147575000Y-73225000D01*
X147575000Y-73400000D02*
X147575000Y-75375000D01*
X148000000Y-72800000D02*
X152800000Y-72800000D01*
X148200000Y-77600000D02*
X148600000Y-78000000D01*
X148600000Y-78000000D02*
X149231498Y-78000000D01*
X149231498Y-78000000D02*
X150131496Y-78899998D01*
D23*
%TO.N,GPIO8*%
X155400000Y-68531372D02*
X155400000Y-71625000D01*
X155400000Y-71625000D02*
X154025000Y-73000000D01*
X148190000Y-67200000D02*
X154068628Y-67200000D01*
X154068628Y-67200000D02*
X155400000Y-68531372D01*
%TO.N,3V3*%
X155800000Y-74050000D02*
X155800000Y-72950000D01*
X154450000Y-67015686D02*
X154450000Y-62700000D01*
X155800000Y-68365686D02*
X154450000Y-67015686D01*
X154450000Y-62700000D02*
X152150000Y-60400000D01*
X155800000Y-72950000D02*
X155800000Y-68365686D01*
%TO.N,EN*%
X156200000Y-71850000D02*
X158950000Y-74600000D01*
X156200000Y-68200000D02*
X156200000Y-71850000D01*
X154850000Y-60650000D02*
X154850000Y-66850000D01*
X153900000Y-59700000D02*
X154850000Y-60650000D01*
X154850000Y-66850000D02*
X156200000Y-68200000D01*
X148190000Y-59700000D02*
X153900000Y-59700000D01*
%TO.N,GPIO3*%
X166900000Y-62700000D02*
X167800000Y-63600000D01*
X167800000Y-65490000D02*
X169410000Y-67100000D01*
X167800000Y-63600000D02*
X167800000Y-65490000D01*
X165690000Y-62700000D02*
X166900000Y-62700000D01*
%TO.N,GPIO2*%
X165690000Y-61200000D02*
X166300000Y-61200000D01*
X166300000Y-61200000D02*
X169410000Y-64310000D01*
X169410000Y-64310000D02*
X169410000Y-64560000D01*
%TO.N,GPIO1*%
X165690000Y-59700000D02*
X166400000Y-59700000D01*
X166400000Y-59700000D02*
X168720000Y-62020000D01*
X168720000Y-62020000D02*
X169410000Y-62020000D01*
%TO.N,GPIO0*%
X168280000Y-59480000D02*
X167000000Y-58200000D01*
X167000000Y-58200000D02*
X165690000Y-58200000D01*
X169410000Y-59480000D02*
X168280000Y-59480000D01*
%TO.N,GPIO4*%
X148190000Y-61200000D02*
X146900000Y-61200000D01*
X146900000Y-61200000D02*
X146300000Y-61800000D01*
X146300000Y-63400000D02*
X145140000Y-64560000D01*
X146300000Y-61800000D02*
X146300000Y-63400000D01*
X145140000Y-64560000D02*
X144010000Y-64560000D01*
D22*
%TO.N,VBUS*%
X150582551Y-75300000D02*
X151032551Y-75750000D01*
X150749998Y-78899998D02*
X150419999Y-78899998D01*
X151032551Y-75750000D02*
X151200000Y-75750000D01*
X150749998Y-78899998D02*
X151200000Y-79350000D01*
X150419999Y-78899998D02*
X150600000Y-78899998D01*
D23*
%TO.N,GPIO7*%
X148190000Y-65700000D02*
X147015686Y-65700000D01*
X146100000Y-66615686D02*
X146100000Y-69358628D01*
X146100000Y-69358628D02*
X145800000Y-69658628D01*
X145800000Y-69658628D02*
X145800000Y-70390000D01*
X147015686Y-65700000D02*
X146100000Y-66615686D01*
X145800000Y-70390000D02*
X144010000Y-72180000D01*
%TO.N,USB_D+*%
X167400000Y-65655686D02*
X167800000Y-66055686D01*
X167800000Y-66055686D02*
X167800000Y-68030000D01*
X166800000Y-64200000D02*
X167400000Y-64800000D01*
X167400000Y-64800000D02*
X167400000Y-65655686D01*
X167800000Y-68030000D02*
X169410000Y-69640000D01*
X165690000Y-64200000D02*
X166800000Y-64200000D01*
%TO.N,UART-RX*%
X167000000Y-69710000D02*
X167000000Y-70901372D01*
X167600000Y-71501372D02*
X167600000Y-75450000D01*
X165990000Y-68700000D02*
X167000000Y-69710000D01*
X165690000Y-68700000D02*
X165990000Y-68700000D01*
X167000000Y-70901372D02*
X167600000Y-71501372D01*
X167600000Y-75450000D02*
X169410000Y-77260000D01*
D22*
%TO.N,USB_D-*%
X164100000Y-65700000D02*
X165690000Y-65700000D01*
D23*
X166500000Y-65700000D02*
X167400000Y-66600000D01*
D22*
X163800000Y-66800000D02*
X163800000Y-66000000D01*
D23*
X167400000Y-68195686D02*
X167800000Y-68595686D01*
X167800000Y-70570000D02*
X169410000Y-72180000D01*
X167800000Y-68595686D02*
X167800000Y-70570000D01*
X167400000Y-66600000D02*
X167400000Y-68195686D01*
D22*
X163800000Y-66000000D02*
X164100000Y-65700000D01*
D23*
X165690000Y-65700000D02*
X166500000Y-65700000D01*
%TO.N,GPIO5*%
X148190000Y-62700000D02*
X147100000Y-62700000D01*
X145800000Y-65784314D02*
X144484314Y-67100000D01*
X146700000Y-63100000D02*
X146700000Y-63565686D01*
X146700000Y-63565686D02*
X145800000Y-64465686D01*
X145800000Y-64465686D02*
X145800000Y-65784314D01*
X144484314Y-67100000D02*
X144010000Y-67100000D01*
X147100000Y-62700000D02*
X146700000Y-63100000D01*
%TO.N,GPIO8*%
X154025000Y-76600000D02*
X154025000Y-73000000D01*
X146200000Y-69824313D02*
X146200000Y-70555686D01*
X145600000Y-71155686D02*
X145600000Y-73130000D01*
X145600000Y-73130000D02*
X144010000Y-74720000D01*
X146499999Y-69524314D02*
X146200000Y-69824313D01*
X146200000Y-70555686D02*
X145600000Y-71155686D01*
X146500000Y-67600000D02*
X146499999Y-69524314D01*
X148190000Y-67200000D02*
X146900000Y-67200000D01*
X146900000Y-67200000D02*
X146500000Y-67600000D01*
X155800000Y-77150000D02*
X154575000Y-77150000D01*
X154575000Y-77150000D02*
X154025000Y-76600000D01*
%TO.N,UART-TX*%
X167400000Y-68761372D02*
X167400000Y-70735686D01*
X167400000Y-70735686D02*
X168000000Y-71335686D01*
X165690000Y-67200000D02*
X166300000Y-67200000D01*
X167000000Y-68361372D02*
X167400000Y-68761372D01*
X168000000Y-71335686D02*
X168000000Y-73310000D01*
X167000000Y-67900000D02*
X167000000Y-68361372D01*
X166300000Y-67200000D02*
X167000000Y-67900000D01*
X168000000Y-73310000D02*
X169410000Y-74720000D01*
%TO.N,GPIO10*%
X167900000Y-76315686D02*
X167900000Y-78290000D01*
X165732942Y-70200000D02*
X167100000Y-71567058D01*
X167900000Y-78290000D02*
X169410000Y-79800000D01*
X165690000Y-70200000D02*
X165732942Y-70200000D01*
X167100000Y-71567058D02*
X167100000Y-75515686D01*
X167100000Y-75515686D02*
X167900000Y-76315686D01*
%TO.N,EN*%
X146800000Y-59700000D02*
X146100000Y-60400000D01*
X145380000Y-62020000D02*
X144010000Y-62020000D01*
X146100000Y-60400000D02*
X146100000Y-61300000D01*
X148190000Y-59700000D02*
X146800000Y-59700000D01*
X146100000Y-61300000D02*
X145380000Y-62020000D01*
%TO.N,GPIO9*%
X146000000Y-73200000D02*
X146047843Y-73247843D01*
X146900000Y-69000000D02*
X146900000Y-69690000D01*
X145800000Y-75470000D02*
X144010000Y-77260000D01*
X153625000Y-78425000D02*
X153625000Y-73023959D01*
X148190000Y-68700000D02*
X147200000Y-68700000D01*
X158950000Y-79400000D02*
X154600000Y-79400000D01*
X153625000Y-73023959D02*
X152976041Y-72375000D01*
X146665685Y-69924314D02*
X146600000Y-69989999D01*
X152976041Y-72375000D02*
X146920686Y-72375000D01*
X146920686Y-72375000D02*
X146347843Y-72947843D01*
X145800000Y-73495686D02*
X145800000Y-75470000D01*
X146900000Y-69690000D02*
X146665685Y-69924314D01*
X147200000Y-68700000D02*
X146900000Y-69000000D01*
X146600000Y-70721372D02*
X146000000Y-71321372D01*
X154600000Y-79400000D02*
X153625000Y-78425000D01*
X146347843Y-72947843D02*
X145800000Y-73495686D01*
X146600000Y-69989999D02*
X146600000Y-70721372D01*
X146000000Y-71321372D02*
X146000000Y-73200000D01*
D24*
%TO.N,3V3*%
X146900000Y-58200000D02*
X145620000Y-59480000D01*
D23*
X153200000Y-58000000D02*
X149800000Y-58000000D01*
X149600000Y-58200000D02*
X148190000Y-58200000D01*
X149800000Y-58000000D02*
X149600000Y-58200000D01*
D24*
X145620000Y-59480000D02*
X144010000Y-59480000D01*
X148190000Y-58200000D02*
X146900000Y-58200000D01*
D23*
%TO.N,GPIO6*%
X146200000Y-64800000D02*
X146200000Y-65950000D01*
X145700000Y-69192942D02*
X145252942Y-69640000D01*
X148190000Y-64200000D02*
X146800000Y-64200000D01*
X145700000Y-66450000D02*
X145700000Y-69192942D01*
X145252942Y-69640000D02*
X144010000Y-69640000D01*
X146200000Y-65950000D02*
X145700000Y-66450000D01*
X146800000Y-64200000D02*
X146200000Y-64800000D01*
%TD*%
%TA.AperFunction,Conductor*%
%TO.N,GND*%
G36*
X146365809Y-57460185D02*
G01*
X146411564Y-57512989D01*
X146421508Y-57582147D01*
X146392483Y-57645703D01*
X146386451Y-57652181D01*
X145534541Y-58504090D01*
X145473218Y-58537575D01*
X145403526Y-58532591D01*
X145347593Y-58490719D01*
X145330678Y-58459742D01*
X145303797Y-58387671D01*
X145303793Y-58387664D01*
X145217547Y-58272455D01*
X145217544Y-58272452D01*
X145102335Y-58186206D01*
X145102328Y-58186202D01*
X144967482Y-58135908D01*
X144967483Y-58135908D01*
X144907883Y-58129501D01*
X144907881Y-58129500D01*
X144907873Y-58129500D01*
X144907864Y-58129500D01*
X143112129Y-58129500D01*
X143112123Y-58129501D01*
X143052516Y-58135908D01*
X142917671Y-58186202D01*
X142917664Y-58186206D01*
X142802455Y-58272452D01*
X142802452Y-58272455D01*
X142716206Y-58387664D01*
X142716202Y-58387671D01*
X142665908Y-58522517D01*
X142659501Y-58582116D01*
X142659500Y-58582135D01*
X142659500Y-60377870D01*
X142659501Y-60377876D01*
X142665908Y-60437483D01*
X142716202Y-60572328D01*
X142716206Y-60572335D01*
X142802452Y-60687544D01*
X142802455Y-60687547D01*
X142917664Y-60773793D01*
X142917671Y-60773797D01*
X143049081Y-60822810D01*
X143105015Y-60864681D01*
X143129432Y-60930145D01*
X143114580Y-60998418D01*
X143093430Y-61026673D01*
X142971503Y-61148600D01*
X142835965Y-61342169D01*
X142835964Y-61342171D01*
X142736098Y-61556335D01*
X142736094Y-61556344D01*
X142674938Y-61784586D01*
X142674936Y-61784596D01*
X142654341Y-62019999D01*
X142654341Y-62020000D01*
X142674936Y-62255403D01*
X142674938Y-62255413D01*
X142736094Y-62483655D01*
X142736096Y-62483659D01*
X142736097Y-62483663D01*
X142833291Y-62692096D01*
X142835965Y-62697830D01*
X142835967Y-62697834D01*
X142971501Y-62891395D01*
X142971506Y-62891402D01*
X143138597Y-63058493D01*
X143138603Y-63058498D01*
X143324158Y-63188425D01*
X143367783Y-63243002D01*
X143374977Y-63312500D01*
X143343454Y-63374855D01*
X143324158Y-63391575D01*
X143138597Y-63521505D01*
X142971505Y-63688597D01*
X142835965Y-63882169D01*
X142835964Y-63882171D01*
X142736098Y-64096335D01*
X142736094Y-64096344D01*
X142674938Y-64324586D01*
X142674936Y-64324596D01*
X142654341Y-64559999D01*
X142654341Y-64560000D01*
X142674936Y-64795403D01*
X142674938Y-64795413D01*
X142736094Y-65023655D01*
X142736096Y-65023659D01*
X142736097Y-65023663D01*
X142806744Y-65175166D01*
X142835965Y-65237830D01*
X142835967Y-65237834D01*
X142971501Y-65431395D01*
X142971506Y-65431402D01*
X143138597Y-65598493D01*
X143138603Y-65598498D01*
X143324158Y-65728425D01*
X143367783Y-65783002D01*
X143374977Y-65852500D01*
X143343454Y-65914855D01*
X143324158Y-65931575D01*
X143138597Y-66061505D01*
X142971505Y-66228597D01*
X142835965Y-66422169D01*
X142835964Y-66422171D01*
X142736098Y-66636335D01*
X142736094Y-66636344D01*
X142674938Y-66864586D01*
X142674936Y-66864596D01*
X142654341Y-67099999D01*
X142654341Y-67100000D01*
X142674936Y-67335403D01*
X142674938Y-67335413D01*
X142736094Y-67563655D01*
X142736096Y-67563659D01*
X142736097Y-67563663D01*
X142798680Y-67697872D01*
X142835965Y-67777830D01*
X142835967Y-67777834D01*
X142971501Y-67971395D01*
X142971506Y-67971402D01*
X143138597Y-68138493D01*
X143138603Y-68138498D01*
X143324158Y-68268425D01*
X143367783Y-68323002D01*
X143374977Y-68392500D01*
X143343454Y-68454855D01*
X143324158Y-68471575D01*
X143138597Y-68601505D01*
X142971505Y-68768597D01*
X142835965Y-68962169D01*
X142835964Y-68962171D01*
X142736098Y-69176335D01*
X142736094Y-69176344D01*
X142674938Y-69404586D01*
X142674936Y-69404596D01*
X142654341Y-69639999D01*
X142654341Y-69640000D01*
X142674936Y-69875403D01*
X142674938Y-69875413D01*
X142736094Y-70103655D01*
X142736096Y-70103659D01*
X142736097Y-70103663D01*
X142767273Y-70170520D01*
X142835965Y-70317830D01*
X142835967Y-70317834D01*
X142971501Y-70511395D01*
X142971506Y-70511402D01*
X143138597Y-70678493D01*
X143138603Y-70678498D01*
X143324158Y-70808425D01*
X143367783Y-70863002D01*
X143374977Y-70932500D01*
X143343454Y-70994855D01*
X143324158Y-71011575D01*
X143138597Y-71141505D01*
X142971505Y-71308597D01*
X142835965Y-71502169D01*
X142835964Y-71502171D01*
X142736098Y-71716335D01*
X142736094Y-71716344D01*
X142674938Y-71944586D01*
X142674936Y-71944596D01*
X142654341Y-72179999D01*
X142654341Y-72180000D01*
X142674936Y-72415403D01*
X142674938Y-72415413D01*
X142736094Y-72643655D01*
X142736096Y-72643659D01*
X142736097Y-72643663D01*
X142832780Y-72851000D01*
X142835965Y-72857830D01*
X142835967Y-72857834D01*
X142892611Y-72938729D01*
X142970018Y-73049278D01*
X142971501Y-73051395D01*
X142971506Y-73051402D01*
X143138597Y-73218493D01*
X143138603Y-73218498D01*
X143324158Y-73348425D01*
X143367783Y-73403002D01*
X143374977Y-73472500D01*
X143343454Y-73534855D01*
X143324158Y-73551575D01*
X143138597Y-73681505D01*
X142971505Y-73848597D01*
X142835965Y-74042169D01*
X142835964Y-74042171D01*
X142736098Y-74256335D01*
X142736094Y-74256344D01*
X142674938Y-74484586D01*
X142674936Y-74484596D01*
X142654341Y-74719999D01*
X142654341Y-74720000D01*
X142674936Y-74955403D01*
X142674938Y-74955413D01*
X142736094Y-75183655D01*
X142736096Y-75183659D01*
X142736097Y-75183663D01*
X142750720Y-75215021D01*
X142835965Y-75397830D01*
X142835967Y-75397834D01*
X142875095Y-75453714D01*
X142956289Y-75569671D01*
X142971501Y-75591395D01*
X142971506Y-75591402D01*
X143138597Y-75758493D01*
X143138603Y-75758498D01*
X143324158Y-75888425D01*
X143367783Y-75943002D01*
X143374977Y-76012500D01*
X143343454Y-76074855D01*
X143324158Y-76091575D01*
X143138597Y-76221505D01*
X142971505Y-76388597D01*
X142835965Y-76582169D01*
X142835964Y-76582171D01*
X142736098Y-76796335D01*
X142736094Y-76796344D01*
X142674938Y-77024586D01*
X142674936Y-77024596D01*
X142654341Y-77259999D01*
X142654341Y-77260000D01*
X142674936Y-77495403D01*
X142674938Y-77495413D01*
X142736094Y-77723655D01*
X142736096Y-77723659D01*
X142736097Y-77723663D01*
X142826629Y-77917809D01*
X142835965Y-77937830D01*
X142835967Y-77937834D01*
X142902538Y-78032906D01*
X142971505Y-78131401D01*
X143138599Y-78298495D01*
X143292199Y-78406047D01*
X143297395Y-78409685D01*
X143341019Y-78464262D01*
X143348212Y-78533761D01*
X143316690Y-78596115D01*
X143313952Y-78598941D01*
X142777504Y-79135389D01*
X142777492Y-79135403D01*
X142725570Y-79202241D01*
X142725570Y-79202242D01*
X142670549Y-79335075D01*
X142660000Y-79419058D01*
X142660000Y-79550000D01*
X143576988Y-79550000D01*
X143544075Y-79607007D01*
X143510000Y-79734174D01*
X143510000Y-79865826D01*
X143544075Y-79992993D01*
X143576988Y-80050000D01*
X142660000Y-80050000D01*
X142660000Y-80697844D01*
X142666401Y-80757372D01*
X142666403Y-80757379D01*
X142716645Y-80892086D01*
X142716649Y-80892093D01*
X142802809Y-81007187D01*
X142802812Y-81007190D01*
X142917906Y-81093350D01*
X142917913Y-81093354D01*
X143052620Y-81143596D01*
X143052627Y-81143598D01*
X143112155Y-81149999D01*
X143112172Y-81150000D01*
X143760000Y-81150000D01*
X143760000Y-80233012D01*
X143817007Y-80265925D01*
X143944174Y-80300000D01*
X144075826Y-80300000D01*
X144202993Y-80265925D01*
X144260000Y-80233012D01*
X144260000Y-81150000D01*
X144390942Y-81150000D01*
X144390943Y-81149999D01*
X144474925Y-81139450D01*
X144607758Y-81084429D01*
X144674596Y-81032507D01*
X144674609Y-81032496D01*
X145242496Y-80464609D01*
X145242507Y-80464596D01*
X145294429Y-80397758D01*
X145294429Y-80397757D01*
X145349450Y-80264924D01*
X145359999Y-80180941D01*
X145360000Y-80180935D01*
X145360000Y-80050000D01*
X144443012Y-80050000D01*
X144475925Y-79992993D01*
X144510000Y-79865826D01*
X144510000Y-79734174D01*
X144475925Y-79607007D01*
X144443012Y-79550000D01*
X145360000Y-79550000D01*
X145360000Y-78902172D01*
X145359999Y-78902155D01*
X145353598Y-78842627D01*
X145353596Y-78842620D01*
X145303354Y-78707913D01*
X145303350Y-78707906D01*
X145217190Y-78592812D01*
X145217187Y-78592809D01*
X145102093Y-78506649D01*
X145102088Y-78506646D01*
X144970528Y-78457577D01*
X144914595Y-78415705D01*
X144890178Y-78350241D01*
X144905030Y-78281968D01*
X144926175Y-78253720D01*
X145048495Y-78131401D01*
X145184035Y-77937830D01*
X145283903Y-77723663D01*
X145345063Y-77495408D01*
X145365659Y-77260000D01*
X145345063Y-77024592D01*
X145310671Y-76896239D01*
X145312334Y-76826393D01*
X145342763Y-76776470D01*
X146158506Y-75960728D01*
X146158511Y-75960724D01*
X146168714Y-75950520D01*
X146168716Y-75950520D01*
X146280520Y-75838716D01*
X146346375Y-75724651D01*
X146359577Y-75701785D01*
X146400500Y-75549058D01*
X146400500Y-75390943D01*
X146400500Y-73795782D01*
X146420185Y-73728743D01*
X146436810Y-73708110D01*
X146592036Y-73552884D01*
X146653355Y-73519402D01*
X146723046Y-73524386D01*
X146778980Y-73566257D01*
X146796754Y-73599613D01*
X146849209Y-73749520D01*
X146930493Y-73878881D01*
X146949500Y-73944854D01*
X146949500Y-75436607D01*
X146952902Y-75453709D01*
X146952902Y-75453713D01*
X146973535Y-75557444D01*
X146973538Y-75557456D01*
X146978597Y-75569670D01*
X146978598Y-75569671D01*
X147020685Y-75671281D01*
X147020688Y-75671287D01*
X147035303Y-75693159D01*
X147050020Y-75715183D01*
X147050021Y-75715186D01*
X147050022Y-75715186D01*
X147089140Y-75773731D01*
X147089141Y-75773732D01*
X147089142Y-75773733D01*
X147176267Y-75860858D01*
X147176268Y-75860858D01*
X147183335Y-75867925D01*
X147183334Y-75867925D01*
X147183338Y-75867928D01*
X147538181Y-76222771D01*
X147571666Y-76284094D01*
X147574500Y-76310452D01*
X147574500Y-77538393D01*
X147574500Y-77661607D01*
X147574500Y-77661609D01*
X147574499Y-77661609D01*
X147584041Y-77709574D01*
X147584041Y-77709576D01*
X147598535Y-77782443D01*
X147598539Y-77782459D01*
X147603625Y-77794738D01*
X147603626Y-77794738D01*
X147645688Y-77896286D01*
X147650436Y-77903391D01*
X147650439Y-77903401D01*
X147650442Y-77903400D01*
X147714140Y-77998731D01*
X147714141Y-77998732D01*
X147714142Y-77998733D01*
X147801267Y-78085858D01*
X147801268Y-78085858D01*
X147808335Y-78092925D01*
X147808334Y-78092925D01*
X147808337Y-78092927D01*
X148114141Y-78398732D01*
X148114142Y-78398733D01*
X148160554Y-78445145D01*
X148201269Y-78485860D01*
X148201271Y-78485861D01*
X148292173Y-78546600D01*
X148292174Y-78546600D01*
X148303714Y-78554311D01*
X148417548Y-78601463D01*
X148453656Y-78608645D01*
X148515566Y-78641028D01*
X148550141Y-78701743D01*
X148546403Y-78771513D01*
X148532575Y-78799140D01*
X148531305Y-78801040D01*
X148531292Y-78801064D01*
X148459104Y-78975343D01*
X148459101Y-78975355D01*
X148422299Y-79160369D01*
X148422299Y-80339628D01*
X148459101Y-80524642D01*
X148459104Y-80524654D01*
X148531292Y-80698933D01*
X148531299Y-80698946D01*
X148636104Y-80855796D01*
X148636107Y-80855800D01*
X148769497Y-80989190D01*
X148769501Y-80989193D01*
X148926351Y-81093998D01*
X148926364Y-81094005D01*
X149100643Y-81166193D01*
X149100648Y-81166195D01*
X149285669Y-81202998D01*
X149285672Y-81202999D01*
X149285674Y-81202999D01*
X149474326Y-81202999D01*
X149474327Y-81202998D01*
X149659350Y-81166195D01*
X149833640Y-81094002D01*
X149990497Y-80989193D01*
X150123893Y-80855797D01*
X150228702Y-80698940D01*
X150236760Y-80679485D01*
X150280599Y-80625083D01*
X150346892Y-80603016D01*
X150365206Y-80603717D01*
X150426506Y-80610624D01*
X150427336Y-80610671D01*
X150479857Y-80616588D01*
X150681446Y-80415000D01*
X150681446Y-80414999D01*
X150374018Y-80107571D01*
X150340533Y-80046248D01*
X150337699Y-80019890D01*
X150337699Y-79985851D01*
X150379580Y-80003199D01*
X150460418Y-80003199D01*
X150535103Y-79972264D01*
X150592264Y-79915103D01*
X150602214Y-79891081D01*
X150694725Y-79983592D01*
X150694731Y-79983597D01*
X150848374Y-80080138D01*
X150848377Y-80080140D01*
X150848381Y-80080141D01*
X150848382Y-80080142D01*
X150925158Y-80107007D01*
X151019670Y-80140078D01*
X151019675Y-80140079D01*
X151025324Y-80140715D01*
X150996800Y-80209581D01*
X150996800Y-80290419D01*
X151027735Y-80365104D01*
X151084896Y-80422265D01*
X151159581Y-80453200D01*
X151240419Y-80453200D01*
X151299259Y-80428828D01*
X151293275Y-80495705D01*
X151265566Y-80537985D01*
X150833410Y-80970141D01*
X150848597Y-80979685D01*
X150848601Y-80979687D01*
X151019784Y-81039587D01*
X151199997Y-81059892D01*
X151200003Y-81059892D01*
X151380214Y-81039587D01*
X151534919Y-80985453D01*
X151604698Y-80981891D01*
X151644764Y-80999391D01*
X151786358Y-81094002D01*
X151786360Y-81094003D01*
X151786364Y-81094005D01*
X151960643Y-81166193D01*
X151960648Y-81166195D01*
X152145669Y-81202998D01*
X152145672Y-81202999D01*
X152145674Y-81202999D01*
X152334326Y-81202999D01*
X152334327Y-81202998D01*
X152519350Y-81166195D01*
X152693640Y-81094002D01*
X152850497Y-80989193D01*
X152983893Y-80855797D01*
X153088702Y-80698940D01*
X153160895Y-80524650D01*
X153197699Y-80339624D01*
X153197699Y-79160374D01*
X153197424Y-79157584D01*
X153197699Y-79156133D01*
X153197699Y-79154282D01*
X153198050Y-79154282D01*
X153210439Y-79088937D01*
X153258501Y-79038224D01*
X153326351Y-79021546D01*
X153392447Y-79044198D01*
X153408507Y-79057742D01*
X154115139Y-79764374D01*
X154115149Y-79764385D01*
X154119479Y-79768715D01*
X154119480Y-79768716D01*
X154231284Y-79880520D01*
X154291185Y-79915103D01*
X154318095Y-79930639D01*
X154318097Y-79930641D01*
X154367815Y-79959346D01*
X154368215Y-79959577D01*
X154520942Y-80000500D01*
X154520943Y-80000500D01*
X157356454Y-80000500D01*
X157423493Y-80020185D01*
X157469248Y-80072989D01*
X157471003Y-80077020D01*
X157471300Y-80077735D01*
X157497191Y-80140244D01*
X157630875Y-80358396D01*
X157630878Y-80358401D01*
X157688710Y-80426113D01*
X157797044Y-80552956D01*
X157890037Y-80632379D01*
X157991598Y-80719121D01*
X157991603Y-80719124D01*
X158209757Y-80852809D01*
X158209760Y-80852811D01*
X158446135Y-80950720D01*
X158446140Y-80950722D01*
X158694930Y-81010452D01*
X158950000Y-81030526D01*
X159205070Y-81010452D01*
X159453860Y-80950722D01*
X159619311Y-80882190D01*
X159690239Y-80852811D01*
X159690240Y-80852810D01*
X159690243Y-80852809D01*
X159908399Y-80719123D01*
X160079670Y-80572844D01*
X163825000Y-80572844D01*
X163831401Y-80632372D01*
X163831403Y-80632379D01*
X163881645Y-80767086D01*
X163881649Y-80767093D01*
X163967809Y-80882187D01*
X163967812Y-80882190D01*
X164082906Y-80968350D01*
X164082913Y-80968354D01*
X164217620Y-81018596D01*
X164217627Y-81018598D01*
X164277155Y-81024999D01*
X164277172Y-81025000D01*
X165200000Y-81025000D01*
X165700000Y-81025000D01*
X166622828Y-81025000D01*
X166622844Y-81024999D01*
X166682372Y-81018598D01*
X166682379Y-81018596D01*
X166817086Y-80968354D01*
X166817093Y-80968350D01*
X166932187Y-80882190D01*
X166932190Y-80882187D01*
X167018350Y-80767093D01*
X167018354Y-80767086D01*
X167068596Y-80632379D01*
X167068598Y-80632372D01*
X167074999Y-80572844D01*
X167075000Y-80572827D01*
X167075000Y-79650000D01*
X165700000Y-79650000D01*
X165700000Y-81025000D01*
X165200000Y-81025000D01*
X165200000Y-79650000D01*
X163825000Y-79650000D01*
X163825000Y-80572844D01*
X160079670Y-80572844D01*
X160102956Y-80552956D01*
X160269123Y-80358399D01*
X160402809Y-80140243D01*
X160402878Y-80140078D01*
X160467694Y-79983597D01*
X160500722Y-79903860D01*
X160560452Y-79655070D01*
X160580526Y-79400000D01*
X160560452Y-79144930D01*
X160500722Y-78896140D01*
X160478556Y-78842627D01*
X160402811Y-78659760D01*
X160402809Y-78659757D01*
X160363809Y-78596115D01*
X160269123Y-78441601D01*
X160269122Y-78441600D01*
X160269121Y-78441598D01*
X160191094Y-78350241D01*
X160102956Y-78247044D01*
X160079669Y-78227155D01*
X163825000Y-78227155D01*
X163825000Y-79150000D01*
X165200000Y-79150000D01*
X165200000Y-77775000D01*
X164277155Y-77775000D01*
X164217627Y-77781401D01*
X164217620Y-77781403D01*
X164082913Y-77831645D01*
X164082906Y-77831649D01*
X163967812Y-77917809D01*
X163967809Y-77917812D01*
X163881649Y-78032906D01*
X163881645Y-78032913D01*
X163831403Y-78167620D01*
X163831401Y-78167627D01*
X163825000Y-78227155D01*
X160079669Y-78227155D01*
X159980796Y-78142710D01*
X159908401Y-78080878D01*
X159908396Y-78080875D01*
X159690242Y-77947190D01*
X159690239Y-77947188D01*
X159453864Y-77849279D01*
X159453860Y-77849278D01*
X159205070Y-77789548D01*
X159205067Y-77789547D01*
X159205064Y-77789547D01*
X158950000Y-77769474D01*
X158694935Y-77789547D01*
X158694931Y-77789547D01*
X158694930Y-77789548D01*
X158570535Y-77819413D01*
X158446135Y-77849279D01*
X158209760Y-77947188D01*
X158209757Y-77947190D01*
X157991603Y-78080875D01*
X157991598Y-78080878D01*
X157797044Y-78247044D01*
X157630878Y-78441598D01*
X157630875Y-78441603D01*
X157497191Y-78659755D01*
X157482118Y-78696144D01*
X157471014Y-78722952D01*
X157427175Y-78777355D01*
X157360881Y-78799421D01*
X157356454Y-78799500D01*
X154900097Y-78799500D01*
X154833058Y-78779815D01*
X154812416Y-78763181D01*
X154261819Y-78212584D01*
X154228334Y-78151261D01*
X154225500Y-78124903D01*
X154225500Y-77839635D01*
X154245185Y-77772596D01*
X154297989Y-77726841D01*
X154367147Y-77716897D01*
X154381609Y-77719864D01*
X154381844Y-77719927D01*
X154441500Y-77756300D01*
X154467440Y-77800691D01*
X154490185Y-77869331D01*
X154490186Y-77869333D01*
X154490187Y-77869336D01*
X154520085Y-77917809D01*
X154582288Y-78018656D01*
X154706344Y-78142712D01*
X154855666Y-78234814D01*
X155022203Y-78289999D01*
X155124991Y-78300500D01*
X156475008Y-78300499D01*
X156577797Y-78289999D01*
X156744334Y-78234814D01*
X156893656Y-78142712D01*
X157017712Y-78018656D01*
X157109814Y-77869334D01*
X157164999Y-77702797D01*
X157175500Y-77600009D01*
X157175499Y-76699992D01*
X157164999Y-76597203D01*
X157109814Y-76430666D01*
X157017712Y-76281344D01*
X156893656Y-76157288D01*
X156744334Y-76065186D01*
X156577797Y-76010001D01*
X156577795Y-76010000D01*
X156475010Y-75999500D01*
X155124998Y-75999500D01*
X155124981Y-75999501D01*
X155022203Y-76010000D01*
X155022200Y-76010001D01*
X154855668Y-76065185D01*
X154855666Y-76065185D01*
X154855666Y-76065186D01*
X154855662Y-76065187D01*
X154855661Y-76065189D01*
X154814595Y-76090518D01*
X154747202Y-76108957D01*
X154680539Y-76088033D01*
X154635771Y-76034391D01*
X154625500Y-75984978D01*
X154625500Y-75215021D01*
X154645185Y-75147982D01*
X154697989Y-75102227D01*
X154767147Y-75092283D01*
X154814594Y-75109481D01*
X154855666Y-75134814D01*
X155022203Y-75189999D01*
X155124991Y-75200500D01*
X156475008Y-75200499D01*
X156577797Y-75189999D01*
X156744334Y-75134814D01*
X156893656Y-75042712D01*
X157017712Y-74918656D01*
X157108207Y-74771938D01*
X157160152Y-74725216D01*
X157229115Y-74713993D01*
X157293197Y-74741836D01*
X157332054Y-74799905D01*
X157337362Y-74827305D01*
X157339547Y-74855065D01*
X157339547Y-74855068D01*
X157339548Y-74855070D01*
X157396499Y-75092283D01*
X157399279Y-75103864D01*
X157497188Y-75340239D01*
X157497190Y-75340242D01*
X157630875Y-75558396D01*
X157630878Y-75558401D01*
X157706200Y-75646591D01*
X157797044Y-75752956D01*
X157921579Y-75859319D01*
X157991598Y-75919121D01*
X157991600Y-75919122D01*
X157991601Y-75919123D01*
X158042838Y-75950521D01*
X158209757Y-76052809D01*
X158209760Y-76052811D01*
X158446135Y-76150720D01*
X158446140Y-76150722D01*
X158694930Y-76210452D01*
X158950000Y-76230526D01*
X159205070Y-76210452D01*
X159453860Y-76150722D01*
X159596654Y-76091575D01*
X159690239Y-76052811D01*
X159690240Y-76052810D01*
X159690243Y-76052809D01*
X159908399Y-75919123D01*
X160079670Y-75772844D01*
X163825000Y-75772844D01*
X163831401Y-75832372D01*
X163831403Y-75832379D01*
X163881645Y-75967086D01*
X163881649Y-75967093D01*
X163967809Y-76082187D01*
X163967812Y-76082190D01*
X164082906Y-76168350D01*
X164082913Y-76168354D01*
X164217620Y-76218596D01*
X164217627Y-76218598D01*
X164277155Y-76224999D01*
X164277172Y-76225000D01*
X165200000Y-76225000D01*
X165200000Y-74850000D01*
X163825000Y-74850000D01*
X163825000Y-75772844D01*
X160079670Y-75772844D01*
X160102956Y-75752956D01*
X160269123Y-75558399D01*
X160402809Y-75340243D01*
X160500722Y-75103860D01*
X160560452Y-74855070D01*
X160580526Y-74600000D01*
X160560452Y-74344930D01*
X160500722Y-74096140D01*
X160480138Y-74046446D01*
X160402811Y-73859760D01*
X160402809Y-73859757D01*
X160363605Y-73795782D01*
X160269123Y-73641601D01*
X160269122Y-73641600D01*
X160269121Y-73641598D01*
X160200171Y-73560868D01*
X160102956Y-73447044D01*
X160079669Y-73427155D01*
X163825000Y-73427155D01*
X163825000Y-74350000D01*
X165200000Y-74350000D01*
X165200000Y-72975000D01*
X164277155Y-72975000D01*
X164217627Y-72981401D01*
X164217620Y-72981403D01*
X164082913Y-73031645D01*
X164082906Y-73031649D01*
X163967812Y-73117809D01*
X163967809Y-73117812D01*
X163881649Y-73232906D01*
X163881645Y-73232913D01*
X163831403Y-73367620D01*
X163831401Y-73367627D01*
X163825000Y-73427155D01*
X160079669Y-73427155D01*
X159987488Y-73348425D01*
X159908401Y-73280878D01*
X159908396Y-73280875D01*
X159690242Y-73147190D01*
X159690239Y-73147188D01*
X159453864Y-73049279D01*
X159453860Y-73049278D01*
X159205070Y-72989548D01*
X159205067Y-72989547D01*
X159205064Y-72989547D01*
X158950000Y-72969474D01*
X158694935Y-72989547D01*
X158694931Y-72989547D01*
X158694930Y-72989548D01*
X158446140Y-73049278D01*
X158446138Y-73049278D01*
X158446137Y-73049279D01*
X158382942Y-73075455D01*
X158313472Y-73082923D01*
X158250993Y-73051647D01*
X158247809Y-73048574D01*
X156836819Y-71637584D01*
X156803334Y-71576261D01*
X156800500Y-71549903D01*
X156800500Y-68120945D01*
X156800498Y-68120936D01*
X156795847Y-68103576D01*
X156795023Y-68100500D01*
X156759577Y-67968215D01*
X156715765Y-67892331D01*
X156680520Y-67831284D01*
X156568716Y-67719480D01*
X156564385Y-67715149D01*
X156564374Y-67715139D01*
X155486819Y-66637584D01*
X155453334Y-66576261D01*
X155450500Y-66549903D01*
X155450500Y-65897844D01*
X155950000Y-65897844D01*
X155956401Y-65957372D01*
X155956403Y-65957379D01*
X156006645Y-66092086D01*
X156006649Y-66092093D01*
X156092809Y-66207187D01*
X156092812Y-66207190D01*
X156207906Y-66293350D01*
X156207913Y-66293354D01*
X156342620Y-66343596D01*
X156342627Y-66343598D01*
X156402155Y-66349999D01*
X156402172Y-66350000D01*
X156550000Y-66350000D01*
X156550000Y-65750000D01*
X157050000Y-65750000D01*
X157050000Y-66350000D01*
X157197828Y-66350000D01*
X157197844Y-66349999D01*
X157257377Y-66343597D01*
X157257378Y-66343597D01*
X157306665Y-66325214D01*
X157376356Y-66320228D01*
X157393335Y-66325214D01*
X157442621Y-66343597D01*
X157502155Y-66349999D01*
X157502172Y-66350000D01*
X157650000Y-66350000D01*
X157650000Y-65750000D01*
X158150000Y-65750000D01*
X158150000Y-66350000D01*
X158297828Y-66350000D01*
X158297844Y-66349999D01*
X158357377Y-66343597D01*
X158357378Y-66343597D01*
X158406665Y-66325214D01*
X158476356Y-66320228D01*
X158493335Y-66325214D01*
X158542621Y-66343597D01*
X158602155Y-66349999D01*
X158602172Y-66350000D01*
X158750000Y-66350000D01*
X159250000Y-66350000D01*
X159397828Y-66350000D01*
X159397844Y-66349999D01*
X159457372Y-66343598D01*
X159457379Y-66343596D01*
X159592086Y-66293354D01*
X159592093Y-66293350D01*
X159707187Y-66207190D01*
X159707190Y-66207187D01*
X159793350Y-66092093D01*
X159793354Y-66092086D01*
X159843596Y-65957379D01*
X159843598Y-65957372D01*
X159849999Y-65897844D01*
X159850000Y-65897827D01*
X159850000Y-65750000D01*
X159250000Y-65750000D01*
X159250000Y-66350000D01*
X158750000Y-66350000D01*
X158750000Y-65750000D01*
X158458178Y-65750000D01*
X158458178Y-65748170D01*
X158441822Y-65749928D01*
X158441822Y-65750000D01*
X158441154Y-65750000D01*
X158427978Y-65751416D01*
X158423156Y-65750000D01*
X158150000Y-65750000D01*
X157650000Y-65750000D01*
X157358178Y-65750000D01*
X157358178Y-65748170D01*
X157341822Y-65749928D01*
X157341822Y-65750000D01*
X157341154Y-65750000D01*
X157327978Y-65751416D01*
X157323156Y-65750000D01*
X157050000Y-65750000D01*
X156550000Y-65750000D01*
X155950000Y-65750000D01*
X155950000Y-65897844D01*
X155450500Y-65897844D01*
X155450500Y-65470163D01*
X157200000Y-65470163D01*
X157200000Y-65529837D01*
X157222836Y-65584968D01*
X157265032Y-65627164D01*
X157320163Y-65650000D01*
X157379837Y-65650000D01*
X157434968Y-65627164D01*
X157477164Y-65584968D01*
X157500000Y-65529837D01*
X157500000Y-65470163D01*
X158300000Y-65470163D01*
X158300000Y-65529837D01*
X158322836Y-65584968D01*
X158365032Y-65627164D01*
X158420163Y-65650000D01*
X158479837Y-65650000D01*
X158534968Y-65627164D01*
X158577164Y-65584968D01*
X158600000Y-65529837D01*
X158600000Y-65470163D01*
X158577164Y-65415032D01*
X158534968Y-65372836D01*
X158479837Y-65350000D01*
X158420163Y-65350000D01*
X158365032Y-65372836D01*
X158322836Y-65415032D01*
X158300000Y-65470163D01*
X157500000Y-65470163D01*
X157477164Y-65415032D01*
X157434968Y-65372836D01*
X157379837Y-65350000D01*
X157320163Y-65350000D01*
X157265032Y-65372836D01*
X157222836Y-65415032D01*
X157200000Y-65470163D01*
X155450500Y-65470163D01*
X155450500Y-64797844D01*
X155950000Y-64797844D01*
X155956401Y-64857372D01*
X155956403Y-64857380D01*
X155974786Y-64906667D01*
X155979770Y-64976359D01*
X155974786Y-64993333D01*
X155956403Y-65042619D01*
X155956401Y-65042627D01*
X155950000Y-65102155D01*
X155950000Y-65250000D01*
X156550000Y-65250000D01*
X156550000Y-64958178D01*
X156551828Y-64958178D01*
X156550069Y-64941822D01*
X156550000Y-64941822D01*
X156550000Y-64941181D01*
X156548581Y-64927991D01*
X156550000Y-64923158D01*
X156550000Y-64920163D01*
X156650000Y-64920163D01*
X156650000Y-64979837D01*
X156672836Y-65034968D01*
X156715032Y-65077164D01*
X156770163Y-65100000D01*
X156829837Y-65100000D01*
X156884968Y-65077164D01*
X156927164Y-65034968D01*
X156950000Y-64979837D01*
X156950000Y-64950000D01*
X157082843Y-64950000D01*
X157350000Y-65217157D01*
X157617157Y-64950000D01*
X157587320Y-64920163D01*
X157750000Y-64920163D01*
X157750000Y-64979837D01*
X157772836Y-65034968D01*
X157815032Y-65077164D01*
X157870163Y-65100000D01*
X157929837Y-65100000D01*
X157984968Y-65077164D01*
X158027164Y-65034968D01*
X158050000Y-64979837D01*
X158050000Y-64950000D01*
X158182843Y-64950000D01*
X158450000Y-65217157D01*
X158717157Y-64950000D01*
X158687320Y-64920163D01*
X158850000Y-64920163D01*
X158850000Y-64979837D01*
X158872836Y-65034968D01*
X158915032Y-65077164D01*
X158970163Y-65100000D01*
X159029837Y-65100000D01*
X159084968Y-65077164D01*
X159127164Y-65034968D01*
X159150000Y-64979837D01*
X159150000Y-64941822D01*
X159248170Y-64941822D01*
X159249928Y-64958178D01*
X159250000Y-64958178D01*
X159250000Y-64958846D01*
X159251416Y-64972022D01*
X159250000Y-64976844D01*
X159250000Y-65250000D01*
X159850000Y-65250000D01*
X159850000Y-65102172D01*
X159849999Y-65102155D01*
X159843597Y-65042622D01*
X159843597Y-65042621D01*
X159825214Y-64993335D01*
X159820228Y-64923644D01*
X159825214Y-64906665D01*
X159843597Y-64857378D01*
X159843597Y-64857377D01*
X159849999Y-64797844D01*
X159850000Y-64797827D01*
X159850000Y-64650000D01*
X159250000Y-64650000D01*
X159250000Y-64941822D01*
X159248170Y-64941822D01*
X159150000Y-64941822D01*
X159150000Y-64920163D01*
X159127164Y-64865032D01*
X159084968Y-64822836D01*
X159029837Y-64800000D01*
X158970163Y-64800000D01*
X158915032Y-64822836D01*
X158872836Y-64865032D01*
X158850000Y-64920163D01*
X158687320Y-64920163D01*
X158450000Y-64682843D01*
X158182843Y-64950000D01*
X158050000Y-64950000D01*
X158050000Y-64920163D01*
X158027164Y-64865032D01*
X157984968Y-64822836D01*
X157929837Y-64800000D01*
X157870163Y-64800000D01*
X157815032Y-64822836D01*
X157772836Y-64865032D01*
X157750000Y-64920163D01*
X157587320Y-64920163D01*
X157350000Y-64682843D01*
X157082843Y-64950000D01*
X156950000Y-64950000D01*
X156950000Y-64920163D01*
X156927164Y-64865032D01*
X156884968Y-64822836D01*
X156829837Y-64800000D01*
X156770163Y-64800000D01*
X156715032Y-64822836D01*
X156672836Y-64865032D01*
X156650000Y-64920163D01*
X156550000Y-64920163D01*
X156550000Y-64650000D01*
X155950000Y-64650000D01*
X155950000Y-64797844D01*
X155450500Y-64797844D01*
X155450500Y-64370163D01*
X157200000Y-64370163D01*
X157200000Y-64429837D01*
X157222836Y-64484968D01*
X157265032Y-64527164D01*
X157320163Y-64550000D01*
X157379837Y-64550000D01*
X157434968Y-64527164D01*
X157477164Y-64484968D01*
X157500000Y-64429837D01*
X157500000Y-64370163D01*
X158300000Y-64370163D01*
X158300000Y-64429837D01*
X158322836Y-64484968D01*
X158365032Y-64527164D01*
X158420163Y-64550000D01*
X158479837Y-64550000D01*
X158534968Y-64527164D01*
X158577164Y-64484968D01*
X158600000Y-64429837D01*
X158600000Y-64370163D01*
X158577164Y-64315032D01*
X158534968Y-64272836D01*
X158479837Y-64250000D01*
X158420163Y-64250000D01*
X158365032Y-64272836D01*
X158322836Y-64315032D01*
X158300000Y-64370163D01*
X157500000Y-64370163D01*
X157477164Y-64315032D01*
X157434968Y-64272836D01*
X157379837Y-64250000D01*
X157320163Y-64250000D01*
X157265032Y-64272836D01*
X157222836Y-64315032D01*
X157200000Y-64370163D01*
X155450500Y-64370163D01*
X155450500Y-63697844D01*
X155950000Y-63697844D01*
X155956401Y-63757372D01*
X155956403Y-63757380D01*
X155974786Y-63806667D01*
X155979770Y-63876359D01*
X155974786Y-63893333D01*
X155956403Y-63942619D01*
X155956401Y-63942627D01*
X155950000Y-64002155D01*
X155950000Y-64150000D01*
X156550000Y-64150000D01*
X156550000Y-63858178D01*
X156551828Y-63858178D01*
X156550069Y-63841822D01*
X156550000Y-63841822D01*
X156550000Y-63841181D01*
X156548581Y-63827991D01*
X156550000Y-63823158D01*
X156550000Y-63820163D01*
X156650000Y-63820163D01*
X156650000Y-63879837D01*
X156672836Y-63934968D01*
X156715032Y-63977164D01*
X156770163Y-64000000D01*
X156829837Y-64000000D01*
X156884968Y-63977164D01*
X156927164Y-63934968D01*
X156950000Y-63879837D01*
X156950000Y-63850000D01*
X157082843Y-63850000D01*
X157350000Y-64117157D01*
X157617157Y-63850000D01*
X157587320Y-63820163D01*
X157750000Y-63820163D01*
X157750000Y-63879837D01*
X157772836Y-63934968D01*
X157815032Y-63977164D01*
X157870163Y-64000000D01*
X157929837Y-64000000D01*
X157984968Y-63977164D01*
X158027164Y-63934968D01*
X158050000Y-63879837D01*
X158050000Y-63850000D01*
X158182843Y-63850000D01*
X158450000Y-64117157D01*
X158717157Y-63850000D01*
X158687320Y-63820163D01*
X158850000Y-63820163D01*
X158850000Y-63879837D01*
X158872836Y-63934968D01*
X158915032Y-63977164D01*
X158970163Y-64000000D01*
X159029837Y-64000000D01*
X159084968Y-63977164D01*
X159127164Y-63934968D01*
X159150000Y-63879837D01*
X159150000Y-63841822D01*
X159248170Y-63841822D01*
X159249928Y-63858178D01*
X159250000Y-63858178D01*
X159250000Y-63858846D01*
X159251416Y-63872022D01*
X159250000Y-63876844D01*
X159250000Y-64150000D01*
X159850000Y-64150000D01*
X159850000Y-64002172D01*
X159849999Y-64002155D01*
X159843597Y-63942622D01*
X159843597Y-63942621D01*
X159825214Y-63893335D01*
X159820228Y-63823644D01*
X159825214Y-63806665D01*
X159843597Y-63757378D01*
X159843597Y-63757377D01*
X159849999Y-63697844D01*
X159850000Y-63697827D01*
X159850000Y-63550000D01*
X159250000Y-63550000D01*
X159250000Y-63841822D01*
X159248170Y-63841822D01*
X159150000Y-63841822D01*
X159150000Y-63820163D01*
X159127164Y-63765032D01*
X159084968Y-63722836D01*
X159029837Y-63700000D01*
X158970163Y-63700000D01*
X158915032Y-63722836D01*
X158872836Y-63765032D01*
X158850000Y-63820163D01*
X158687320Y-63820163D01*
X158450000Y-63582843D01*
X158182843Y-63850000D01*
X158050000Y-63850000D01*
X158050000Y-63820163D01*
X158027164Y-63765032D01*
X157984968Y-63722836D01*
X157929837Y-63700000D01*
X157870163Y-63700000D01*
X157815032Y-63722836D01*
X157772836Y-63765032D01*
X157750000Y-63820163D01*
X157587320Y-63820163D01*
X157350000Y-63582843D01*
X157082843Y-63850000D01*
X156950000Y-63850000D01*
X156950000Y-63820163D01*
X156927164Y-63765032D01*
X156884968Y-63722836D01*
X156829837Y-63700000D01*
X156770163Y-63700000D01*
X156715032Y-63722836D01*
X156672836Y-63765032D01*
X156650000Y-63820163D01*
X156550000Y-63820163D01*
X156550000Y-63550000D01*
X155950000Y-63550000D01*
X155950000Y-63697844D01*
X155450500Y-63697844D01*
X155450500Y-63270163D01*
X157200000Y-63270163D01*
X157200000Y-63329837D01*
X157222836Y-63384968D01*
X157265032Y-63427164D01*
X157320163Y-63450000D01*
X157379837Y-63450000D01*
X157434968Y-63427164D01*
X157477164Y-63384968D01*
X157500000Y-63329837D01*
X157500000Y-63270163D01*
X158300000Y-63270163D01*
X158300000Y-63329837D01*
X158322836Y-63384968D01*
X158365032Y-63427164D01*
X158420163Y-63450000D01*
X158479837Y-63450000D01*
X158534968Y-63427164D01*
X158577164Y-63384968D01*
X158600000Y-63329837D01*
X158600000Y-63270163D01*
X158577164Y-63215032D01*
X158534968Y-63172836D01*
X158479837Y-63150000D01*
X158420163Y-63150000D01*
X158365032Y-63172836D01*
X158322836Y-63215032D01*
X158300000Y-63270163D01*
X157500000Y-63270163D01*
X157477164Y-63215032D01*
X157434968Y-63172836D01*
X157379837Y-63150000D01*
X157320163Y-63150000D01*
X157265032Y-63172836D01*
X157222836Y-63215032D01*
X157200000Y-63270163D01*
X155450500Y-63270163D01*
X155450500Y-62902155D01*
X155950000Y-62902155D01*
X155950000Y-63050000D01*
X156550000Y-63050000D01*
X157050000Y-63050000D01*
X157341822Y-63050000D01*
X157341822Y-63051828D01*
X157358178Y-63050068D01*
X157358178Y-63050000D01*
X157358818Y-63050000D01*
X157372009Y-63048581D01*
X157376842Y-63050000D01*
X157650000Y-63050000D01*
X158150000Y-63050000D01*
X158441822Y-63050000D01*
X158441822Y-63051828D01*
X158458178Y-63050068D01*
X158458178Y-63050000D01*
X158458818Y-63050000D01*
X158472009Y-63048581D01*
X158476842Y-63050000D01*
X158750000Y-63050000D01*
X159250000Y-63050000D01*
X159850000Y-63050000D01*
X159850000Y-62902172D01*
X159849999Y-62902155D01*
X159843598Y-62842627D01*
X159843596Y-62842620D01*
X159793354Y-62707913D01*
X159793350Y-62707906D01*
X159707190Y-62592812D01*
X159707187Y-62592809D01*
X159592093Y-62506649D01*
X159592086Y-62506645D01*
X159457379Y-62456403D01*
X159457372Y-62456401D01*
X159397844Y-62450000D01*
X159250000Y-62450000D01*
X159250000Y-63050000D01*
X158750000Y-63050000D01*
X158750000Y-62450000D01*
X158602155Y-62450000D01*
X158542627Y-62456401D01*
X158542619Y-62456403D01*
X158493333Y-62474786D01*
X158423641Y-62479770D01*
X158406667Y-62474786D01*
X158357380Y-62456403D01*
X158357372Y-62456401D01*
X158297844Y-62450000D01*
X158150000Y-62450000D01*
X158150000Y-63050000D01*
X157650000Y-63050000D01*
X157650000Y-62450000D01*
X157502155Y-62450000D01*
X157442627Y-62456401D01*
X157442619Y-62456403D01*
X157393333Y-62474786D01*
X157323641Y-62479770D01*
X157306667Y-62474786D01*
X157257380Y-62456403D01*
X157257372Y-62456401D01*
X157197844Y-62450000D01*
X157050000Y-62450000D01*
X157050000Y-63050000D01*
X156550000Y-63050000D01*
X156550000Y-62450000D01*
X156402155Y-62450000D01*
X156342627Y-62456401D01*
X156342620Y-62456403D01*
X156207913Y-62506645D01*
X156207906Y-62506649D01*
X156092812Y-62592809D01*
X156092809Y-62592812D01*
X156006649Y-62707906D01*
X156006645Y-62707913D01*
X155956403Y-62842620D01*
X155956401Y-62842627D01*
X155950000Y-62902155D01*
X155450500Y-62902155D01*
X155450500Y-60739059D01*
X155450501Y-60739046D01*
X155450501Y-60570945D01*
X155450501Y-60570943D01*
X155409577Y-60418215D01*
X155371002Y-60351401D01*
X155330520Y-60281284D01*
X155218716Y-60169480D01*
X155218715Y-60169479D01*
X155214385Y-60165149D01*
X155214374Y-60165139D01*
X154387590Y-59338355D01*
X154387588Y-59338352D01*
X154268717Y-59219481D01*
X154268716Y-59219480D01*
X154181904Y-59169360D01*
X154181904Y-59169359D01*
X154181900Y-59169358D01*
X154131785Y-59140423D01*
X153979057Y-59099499D01*
X153820943Y-59099499D01*
X153813347Y-59099499D01*
X153813331Y-59099500D01*
X149504141Y-59099500D01*
X149437102Y-59079815D01*
X149391347Y-59027011D01*
X149387969Y-59018859D01*
X149383796Y-59007669D01*
X149383794Y-59007666D01*
X149380695Y-58999357D01*
X149382425Y-58998711D01*
X149369902Y-58941163D01*
X149381690Y-58901014D01*
X149380695Y-58900643D01*
X149383794Y-58892333D01*
X149383796Y-58892331D01*
X149387960Y-58881165D01*
X149429829Y-58825234D01*
X149495293Y-58800816D01*
X149504141Y-58800500D01*
X149513331Y-58800500D01*
X149513347Y-58800501D01*
X149520943Y-58800501D01*
X149679054Y-58800501D01*
X149679057Y-58800501D01*
X149831785Y-58759577D01*
X149890307Y-58725789D01*
X149968716Y-58680520D01*
X150012417Y-58636819D01*
X150073740Y-58603334D01*
X150100098Y-58600500D01*
X152617588Y-58600500D01*
X152684627Y-58620185D01*
X152694903Y-58627555D01*
X152697736Y-58629814D01*
X152697738Y-58629816D01*
X152850478Y-58725789D01*
X153020745Y-58785368D01*
X153020750Y-58785369D01*
X153199996Y-58805565D01*
X153200000Y-58805565D01*
X153200004Y-58805565D01*
X153379249Y-58785369D01*
X153379252Y-58785368D01*
X153379255Y-58785368D01*
X153549522Y-58725789D01*
X153702262Y-58629816D01*
X153829816Y-58502262D01*
X153925789Y-58349522D01*
X153985368Y-58179255D01*
X153990974Y-58129500D01*
X154005565Y-58000003D01*
X154005565Y-57999996D01*
X153985369Y-57820750D01*
X153985368Y-57820745D01*
X153949934Y-57719481D01*
X153925789Y-57650478D01*
X153925787Y-57650475D01*
X153925787Y-57650474D01*
X153913219Y-57630471D01*
X153894219Y-57563234D01*
X153914587Y-57496399D01*
X153967856Y-57451186D01*
X154018213Y-57440500D01*
X164342663Y-57440500D01*
X164409702Y-57460185D01*
X164455457Y-57512989D01*
X164465401Y-57582147D01*
X164458845Y-57607833D01*
X164445908Y-57642517D01*
X164439501Y-57702116D01*
X164439500Y-57702135D01*
X164439500Y-58697870D01*
X164439501Y-58697876D01*
X164445908Y-58757483D01*
X164499303Y-58900641D01*
X164497575Y-58901285D01*
X164510095Y-58958853D01*
X164498310Y-58998988D01*
X164499303Y-58999359D01*
X164445908Y-59142517D01*
X164439501Y-59202116D01*
X164439500Y-59202135D01*
X164439500Y-60197870D01*
X164439501Y-60197876D01*
X164445908Y-60257483D01*
X164499303Y-60400641D01*
X164497575Y-60401285D01*
X164510095Y-60458853D01*
X164498310Y-60498988D01*
X164499303Y-60499359D01*
X164445908Y-60642517D01*
X164439501Y-60702116D01*
X164439501Y-60702123D01*
X164439500Y-60702135D01*
X164439500Y-61697870D01*
X164439501Y-61697876D01*
X164445908Y-61757483D01*
X164499303Y-61900641D01*
X164497575Y-61901285D01*
X164510095Y-61958853D01*
X164498310Y-61998988D01*
X164499303Y-61999359D01*
X164445908Y-62142517D01*
X164439501Y-62202116D01*
X164439501Y-62202123D01*
X164439500Y-62202135D01*
X164439500Y-63197870D01*
X164439501Y-63197876D01*
X164445908Y-63257483D01*
X164499303Y-63400641D01*
X164497575Y-63401285D01*
X164510095Y-63458853D01*
X164498310Y-63498988D01*
X164499303Y-63499359D01*
X164445908Y-63642517D01*
X164439501Y-63702116D01*
X164439501Y-63702123D01*
X164439500Y-63702135D01*
X164439500Y-64697870D01*
X164439501Y-64697876D01*
X164445908Y-64757483D01*
X164499303Y-64900641D01*
X164497575Y-64901285D01*
X164510095Y-64958853D01*
X164495337Y-65009256D01*
X164495065Y-65009756D01*
X164445737Y-65059239D01*
X164386139Y-65074500D01*
X164038389Y-65074500D01*
X163977971Y-65086518D01*
X163940259Y-65094019D01*
X163917550Y-65098536D01*
X163917548Y-65098537D01*
X163884207Y-65112347D01*
X163803718Y-65145685D01*
X163803714Y-65145687D01*
X163770703Y-65167745D01*
X163759597Y-65175167D01*
X163701268Y-65214140D01*
X163677579Y-65237830D01*
X163614142Y-65301267D01*
X163314144Y-65601264D01*
X163314138Y-65601272D01*
X163245690Y-65703708D01*
X163245688Y-65703713D01*
X163220329Y-65764937D01*
X163220329Y-65764938D01*
X163198536Y-65817549D01*
X163198536Y-65817551D01*
X163197273Y-65823902D01*
X163176973Y-65925965D01*
X163175817Y-65931777D01*
X163175815Y-65931785D01*
X163174501Y-65938388D01*
X163174500Y-65938399D01*
X163174500Y-66255145D01*
X163155494Y-66321117D01*
X163074211Y-66450476D01*
X163014631Y-66620745D01*
X163014630Y-66620750D01*
X162994435Y-66799996D01*
X162994435Y-66800003D01*
X163014630Y-66979249D01*
X163014631Y-66979254D01*
X163074211Y-67149523D01*
X163160499Y-67286849D01*
X163170184Y-67302262D01*
X163297738Y-67429816D01*
X163450478Y-67525789D01*
X163558693Y-67563655D01*
X163620745Y-67585368D01*
X163620750Y-67585369D01*
X163799996Y-67605565D01*
X163800000Y-67605565D01*
X163800004Y-67605565D01*
X163979249Y-67585369D01*
X163979252Y-67585368D01*
X163979255Y-67585368D01*
X164149522Y-67525789D01*
X164249528Y-67462950D01*
X164316764Y-67443950D01*
X164383599Y-67464317D01*
X164428813Y-67517585D01*
X164439500Y-67567943D01*
X164439500Y-67697869D01*
X164439501Y-67697876D01*
X164445908Y-67757483D01*
X164499303Y-67900641D01*
X164497575Y-67901285D01*
X164510095Y-67958853D01*
X164498310Y-67998988D01*
X164499303Y-67999359D01*
X164445908Y-68142517D01*
X164439501Y-68202116D01*
X164439501Y-68202123D01*
X164439500Y-68202135D01*
X164439500Y-69197870D01*
X164439501Y-69197876D01*
X164445908Y-69257483D01*
X164499303Y-69400641D01*
X164497575Y-69401285D01*
X164510095Y-69458853D01*
X164498310Y-69498988D01*
X164499303Y-69499359D01*
X164445908Y-69642517D01*
X164439501Y-69702116D01*
X164439500Y-69702135D01*
X164439500Y-70697870D01*
X164439501Y-70697876D01*
X164445908Y-70757483D01*
X164496202Y-70892328D01*
X164496206Y-70892335D01*
X164582452Y-71007544D01*
X164582455Y-71007547D01*
X164697664Y-71093793D01*
X164697671Y-71093797D01*
X164832517Y-71144091D01*
X164832516Y-71144091D01*
X164839444Y-71144835D01*
X164892127Y-71150500D01*
X165782844Y-71150499D01*
X165849883Y-71170183D01*
X165870525Y-71186818D01*
X166463181Y-71779474D01*
X166496666Y-71840797D01*
X166499500Y-71867155D01*
X166499500Y-72851000D01*
X166479815Y-72918039D01*
X166427011Y-72963794D01*
X166375500Y-72975000D01*
X165700000Y-72975000D01*
X165700000Y-76225000D01*
X166622828Y-76225000D01*
X166622844Y-76224999D01*
X166682372Y-76218598D01*
X166682376Y-76218597D01*
X166805310Y-76172745D01*
X166875001Y-76167761D01*
X166936322Y-76201243D01*
X166936325Y-76201246D01*
X167263181Y-76528102D01*
X167296666Y-76589425D01*
X167299500Y-76615783D01*
X167299500Y-78099409D01*
X167279815Y-78166448D01*
X167227011Y-78212203D01*
X167157853Y-78222147D01*
X167094297Y-78193122D01*
X167059318Y-78142742D01*
X167018354Y-78032913D01*
X167018350Y-78032906D01*
X166932190Y-77917812D01*
X166932187Y-77917809D01*
X166817093Y-77831649D01*
X166817086Y-77831645D01*
X166682379Y-77781403D01*
X166682372Y-77781401D01*
X166622844Y-77775000D01*
X165700000Y-77775000D01*
X165700000Y-79150000D01*
X167075000Y-79150000D01*
X167075000Y-78473086D01*
X167094685Y-78406047D01*
X167147489Y-78360292D01*
X167216647Y-78350348D01*
X167280203Y-78379373D01*
X167317977Y-78438151D01*
X167318764Y-78440954D01*
X167340423Y-78521785D01*
X167344597Y-78529015D01*
X167350709Y-78539602D01*
X167350711Y-78539604D01*
X167419477Y-78658712D01*
X167419481Y-78658717D01*
X167538349Y-78777585D01*
X167538355Y-78777590D01*
X168077233Y-79316468D01*
X168110718Y-79377791D01*
X168109327Y-79436241D01*
X168074939Y-79564583D01*
X168074936Y-79564596D01*
X168054341Y-79799999D01*
X168054341Y-79800000D01*
X168074936Y-80035403D01*
X168074938Y-80035413D01*
X168136094Y-80263655D01*
X168136096Y-80263659D01*
X168136097Y-80263663D01*
X168180274Y-80358401D01*
X168235965Y-80477830D01*
X168235967Y-80477834D01*
X168323621Y-80603016D01*
X168371505Y-80671401D01*
X168538599Y-80838495D01*
X168600998Y-80882187D01*
X168732165Y-80974032D01*
X168732167Y-80974033D01*
X168732170Y-80974035D01*
X168946337Y-81073903D01*
X169174592Y-81135063D01*
X169345319Y-81150000D01*
X169409999Y-81155659D01*
X169410000Y-81155659D01*
X169410001Y-81155659D01*
X169474681Y-81150000D01*
X169645408Y-81135063D01*
X169873663Y-81073903D01*
X170087830Y-80974035D01*
X170281401Y-80838495D01*
X170448495Y-80671401D01*
X170584035Y-80477830D01*
X170683903Y-80263663D01*
X170745063Y-80035408D01*
X170765659Y-79800000D01*
X170745063Y-79564592D01*
X170683903Y-79336337D01*
X170584035Y-79122171D01*
X170560765Y-79088937D01*
X170448494Y-78928597D01*
X170281402Y-78761506D01*
X170281396Y-78761501D01*
X170095842Y-78631575D01*
X170052217Y-78576998D01*
X170045023Y-78507500D01*
X170076546Y-78445145D01*
X170095842Y-78428425D01*
X170127801Y-78406047D01*
X170281401Y-78298495D01*
X170448495Y-78131401D01*
X170584035Y-77937830D01*
X170683903Y-77723663D01*
X170745063Y-77495408D01*
X170765659Y-77260000D01*
X170745063Y-77024592D01*
X170683903Y-76796337D01*
X170584035Y-76582171D01*
X170571607Y-76564421D01*
X170448494Y-76388597D01*
X170281402Y-76221506D01*
X170281396Y-76221501D01*
X170095842Y-76091575D01*
X170052217Y-76036998D01*
X170045023Y-75967500D01*
X170076546Y-75905145D01*
X170095842Y-75888425D01*
X170135212Y-75860858D01*
X170281401Y-75758495D01*
X170448495Y-75591401D01*
X170584035Y-75397830D01*
X170683903Y-75183663D01*
X170745063Y-74955408D01*
X170765659Y-74720000D01*
X170765133Y-74713993D01*
X170755160Y-74600000D01*
X170745063Y-74484592D01*
X170683903Y-74256337D01*
X170584035Y-74042171D01*
X170582078Y-74039375D01*
X170448494Y-73848597D01*
X170281402Y-73681506D01*
X170281396Y-73681501D01*
X170095842Y-73551575D01*
X170052217Y-73496998D01*
X170045023Y-73427500D01*
X170076546Y-73365145D01*
X170095842Y-73348425D01*
X170192313Y-73280875D01*
X170281401Y-73218495D01*
X170448495Y-73051401D01*
X170584035Y-72857830D01*
X170683903Y-72643663D01*
X170745063Y-72415408D01*
X170765659Y-72180000D01*
X170745063Y-71944592D01*
X170683903Y-71716337D01*
X170584035Y-71502171D01*
X170506852Y-71391941D01*
X170448494Y-71308597D01*
X170281402Y-71141506D01*
X170281396Y-71141501D01*
X170095842Y-71011575D01*
X170052217Y-70956998D01*
X170045023Y-70887500D01*
X170076546Y-70825145D01*
X170095842Y-70808425D01*
X170118026Y-70792891D01*
X170281401Y-70678495D01*
X170448495Y-70511401D01*
X170584035Y-70317830D01*
X170683903Y-70103663D01*
X170745063Y-69875408D01*
X170765659Y-69640000D01*
X170745063Y-69404592D01*
X170689674Y-69197876D01*
X170683905Y-69176344D01*
X170683904Y-69176343D01*
X170683903Y-69176337D01*
X170584035Y-68962171D01*
X170499500Y-68841441D01*
X170448494Y-68768597D01*
X170281402Y-68601506D01*
X170281396Y-68601501D01*
X170095842Y-68471575D01*
X170052217Y-68416998D01*
X170045023Y-68347500D01*
X170076546Y-68285145D01*
X170095842Y-68268425D01*
X170118026Y-68252891D01*
X170281401Y-68138495D01*
X170448495Y-67971401D01*
X170584035Y-67777830D01*
X170683903Y-67563663D01*
X170745063Y-67335408D01*
X170765659Y-67100000D01*
X170745063Y-66864592D01*
X170683903Y-66636337D01*
X170584035Y-66422171D01*
X170529018Y-66343597D01*
X170448494Y-66228597D01*
X170281402Y-66061506D01*
X170281396Y-66061501D01*
X170095842Y-65931575D01*
X170052217Y-65876998D01*
X170045023Y-65807500D01*
X170076546Y-65745145D01*
X170095842Y-65728425D01*
X170240457Y-65627164D01*
X170281401Y-65598495D01*
X170448495Y-65431401D01*
X170584035Y-65237830D01*
X170683903Y-65023663D01*
X170745063Y-64795408D01*
X170765659Y-64560000D01*
X170745063Y-64324592D01*
X170683903Y-64096337D01*
X170584035Y-63882171D01*
X170579966Y-63876359D01*
X170448494Y-63688597D01*
X170281402Y-63521506D01*
X170281396Y-63521501D01*
X170095842Y-63391575D01*
X170052217Y-63336998D01*
X170045023Y-63267500D01*
X170076546Y-63205145D01*
X170095842Y-63188425D01*
X170150718Y-63150000D01*
X170281401Y-63058495D01*
X170448495Y-62891401D01*
X170584035Y-62697830D01*
X170683903Y-62483663D01*
X170745063Y-62255408D01*
X170765659Y-62020000D01*
X170745063Y-61784592D01*
X170683903Y-61556337D01*
X170584035Y-61342171D01*
X170544428Y-61285605D01*
X170448494Y-61148597D01*
X170281402Y-60981506D01*
X170281396Y-60981501D01*
X170095842Y-60851575D01*
X170052217Y-60796998D01*
X170045023Y-60727500D01*
X170076546Y-60665145D01*
X170095842Y-60648425D01*
X170171025Y-60595781D01*
X170281401Y-60518495D01*
X170448495Y-60351401D01*
X170584035Y-60157830D01*
X170683903Y-59943663D01*
X170745063Y-59715408D01*
X170765659Y-59480000D01*
X170745063Y-59244592D01*
X170683903Y-59016337D01*
X170584035Y-58802171D01*
X170583087Y-58800816D01*
X170448494Y-58608597D01*
X170281402Y-58441506D01*
X170281395Y-58441501D01*
X170087834Y-58305967D01*
X170087830Y-58305965D01*
X170087828Y-58305964D01*
X169873663Y-58206097D01*
X169873659Y-58206096D01*
X169873655Y-58206094D01*
X169645413Y-58144938D01*
X169645403Y-58144936D01*
X169410001Y-58124341D01*
X169409999Y-58124341D01*
X169174596Y-58144936D01*
X169174586Y-58144938D01*
X168946344Y-58206094D01*
X168946335Y-58206098D01*
X168732171Y-58305964D01*
X168732169Y-58305965D01*
X168538597Y-58441505D01*
X168402350Y-58577753D01*
X168341027Y-58611238D01*
X168271335Y-58606254D01*
X168226988Y-58577753D01*
X167487590Y-57838355D01*
X167487588Y-57838352D01*
X167368717Y-57719481D01*
X167368716Y-57719480D01*
X167286283Y-57671888D01*
X167238067Y-57621321D01*
X167224843Y-57552714D01*
X167250811Y-57487849D01*
X167307725Y-57447320D01*
X167348282Y-57440500D01*
X169344108Y-57440500D01*
X169405933Y-57440500D01*
X169414042Y-57440765D01*
X169436774Y-57442254D01*
X169668114Y-57457417D01*
X169684172Y-57459532D01*
X169929888Y-57508408D01*
X169945554Y-57512606D01*
X170063709Y-57552714D01*
X170182788Y-57593136D01*
X170197765Y-57599339D01*
X170406177Y-57702116D01*
X170422460Y-57710146D01*
X170436507Y-57718256D01*
X170477649Y-57745746D01*
X170644815Y-57857443D01*
X170657679Y-57867314D01*
X170846033Y-58032497D01*
X170857502Y-58043966D01*
X171022685Y-58232320D01*
X171032558Y-58245186D01*
X171050778Y-58272455D01*
X171171743Y-58453492D01*
X171179853Y-58467539D01*
X171290657Y-58692227D01*
X171296864Y-58707213D01*
X171377393Y-58944445D01*
X171381591Y-58960111D01*
X171422617Y-59166358D01*
X171429729Y-59202116D01*
X171430465Y-59205813D01*
X171432583Y-59221895D01*
X171449235Y-59475956D01*
X171449500Y-59484066D01*
X171449500Y-79795933D01*
X171449235Y-79804043D01*
X171432583Y-80058104D01*
X171430465Y-80074186D01*
X171381591Y-80319888D01*
X171377393Y-80335554D01*
X171296864Y-80572786D01*
X171290657Y-80587772D01*
X171179853Y-80812460D01*
X171171743Y-80826507D01*
X171032559Y-81034811D01*
X171022685Y-81047679D01*
X170857502Y-81236033D01*
X170846033Y-81247502D01*
X170657679Y-81412685D01*
X170644811Y-81422559D01*
X170436507Y-81561743D01*
X170422460Y-81569853D01*
X170197772Y-81680657D01*
X170182786Y-81686864D01*
X169945554Y-81767393D01*
X169929888Y-81771591D01*
X169684186Y-81820465D01*
X169668104Y-81822583D01*
X169414043Y-81839235D01*
X169405933Y-81839500D01*
X144014067Y-81839500D01*
X144005957Y-81839235D01*
X143751895Y-81822583D01*
X143735814Y-81820465D01*
X143700770Y-81813494D01*
X143490111Y-81771591D01*
X143474445Y-81767393D01*
X143237213Y-81686864D01*
X143222227Y-81680657D01*
X142997539Y-81569853D01*
X142983492Y-81561743D01*
X142775188Y-81422559D01*
X142762320Y-81412685D01*
X142573966Y-81247502D01*
X142562497Y-81236033D01*
X142481433Y-81143598D01*
X142397311Y-81047675D01*
X142387440Y-81034811D01*
X142385893Y-81032496D01*
X142248256Y-80826507D01*
X142240146Y-80812460D01*
X142236633Y-80805336D01*
X142129339Y-80587765D01*
X142123135Y-80572786D01*
X142106796Y-80524654D01*
X142096970Y-80495705D01*
X142042606Y-80335554D01*
X142038408Y-80319888D01*
X142027224Y-80263663D01*
X141989532Y-80074172D01*
X141987417Y-80058114D01*
X141970765Y-79804042D01*
X141970500Y-79795933D01*
X141970500Y-59484066D01*
X141970765Y-59475957D01*
X141970974Y-59472759D01*
X141987417Y-59221883D01*
X141989531Y-59205829D01*
X142038409Y-58960107D01*
X142042606Y-58944445D01*
X142066197Y-58874945D01*
X142123138Y-58707205D01*
X142129336Y-58692239D01*
X142240149Y-58467533D01*
X142248252Y-58453498D01*
X142387448Y-58245176D01*
X142397305Y-58232331D01*
X142562502Y-58043960D01*
X142573960Y-58032502D01*
X142762331Y-57867305D01*
X142775176Y-57857448D01*
X142983498Y-57718252D01*
X142997533Y-57710149D01*
X143222239Y-57599336D01*
X143237205Y-57593138D01*
X143404945Y-57536197D01*
X143474445Y-57512606D01*
X143490107Y-57508409D01*
X143735829Y-57459531D01*
X143751883Y-57457417D01*
X143984848Y-57442148D01*
X144005958Y-57440765D01*
X144014067Y-57440500D01*
X144075892Y-57440500D01*
X146298770Y-57440500D01*
X146365809Y-57460185D01*
G37*
%TD.AperFunction*%
%TA.AperFunction,Conductor*%
G36*
X151714756Y-73445185D02*
G01*
X151760511Y-73497989D01*
X151770455Y-73567147D01*
X151741430Y-73630703D01*
X151716608Y-73652602D01*
X151629501Y-73710805D01*
X151629497Y-73710808D01*
X151496107Y-73844198D01*
X151496104Y-73844202D01*
X151395588Y-73994635D01*
X151341976Y-74039440D01*
X151278602Y-74048964D01*
X151193502Y-74039375D01*
X151192655Y-74039328D01*
X151140140Y-74033411D01*
X150938553Y-74234999D01*
X151245980Y-74542426D01*
X151279465Y-74603749D01*
X151282299Y-74630107D01*
X151282299Y-74664146D01*
X151240419Y-74646800D01*
X151159581Y-74646800D01*
X151084896Y-74677735D01*
X151027735Y-74734896D01*
X151017784Y-74758918D01*
X150925273Y-74666407D01*
X150925267Y-74666402D01*
X150771624Y-74569861D01*
X150771621Y-74569859D01*
X150600328Y-74509921D01*
X150600324Y-74509920D01*
X150594674Y-74509283D01*
X150623199Y-74440419D01*
X150623199Y-74359581D01*
X150592264Y-74284896D01*
X150535103Y-74227735D01*
X150460418Y-74196800D01*
X150379580Y-74196800D01*
X150312894Y-74224421D01*
X150318427Y-74162590D01*
X150346136Y-74120308D01*
X150419999Y-74046446D01*
X150786586Y-73679857D01*
X150786587Y-73679857D01*
X150771397Y-73670313D01*
X150760619Y-73666542D01*
X150703843Y-73625820D01*
X150678095Y-73560868D01*
X150691551Y-73492306D01*
X150739938Y-73441903D01*
X150801573Y-73425500D01*
X151647717Y-73425500D01*
X151714756Y-73445185D01*
G37*
%TD.AperFunction*%
%TA.AperFunction,Conductor*%
G36*
X153835570Y-67820185D02*
G01*
X153856212Y-67836819D01*
X154763181Y-68743788D01*
X154796666Y-68805111D01*
X154799500Y-68831469D01*
X154799500Y-71324902D01*
X154779815Y-71391941D01*
X154763181Y-71412583D01*
X153900701Y-72275063D01*
X153839378Y-72308548D01*
X153769686Y-72303564D01*
X153725339Y-72275063D01*
X153463631Y-72013355D01*
X153463629Y-72013352D01*
X153344758Y-71894481D01*
X153344757Y-71894480D01*
X153257945Y-71844360D01*
X153257945Y-71844359D01*
X153257941Y-71844358D01*
X153207826Y-71815423D01*
X153055098Y-71774499D01*
X152896984Y-71774499D01*
X152889388Y-71774499D01*
X152889372Y-71774500D01*
X146841626Y-71774500D01*
X146800705Y-71785464D01*
X146800705Y-71785465D01*
X146756592Y-71797284D01*
X146686744Y-71795622D01*
X146628882Y-71756460D01*
X146601377Y-71692232D01*
X146600500Y-71677510D01*
X146600500Y-71621468D01*
X146620185Y-71554429D01*
X146636815Y-71533791D01*
X146968713Y-71201893D01*
X146968716Y-71201892D01*
X147054234Y-71116373D01*
X147115553Y-71082891D01*
X147185245Y-71087875D01*
X147194253Y-71091989D01*
X147332620Y-71143596D01*
X147332627Y-71143598D01*
X147392155Y-71149999D01*
X147392172Y-71150000D01*
X147940000Y-71150000D01*
X148440000Y-71150000D01*
X148987828Y-71150000D01*
X148987844Y-71149999D01*
X149047372Y-71143598D01*
X149047379Y-71143596D01*
X149182086Y-71093354D01*
X149182093Y-71093350D01*
X149297187Y-71007190D01*
X149297190Y-71007187D01*
X149383350Y-70892093D01*
X149383354Y-70892086D01*
X149433596Y-70757379D01*
X149433598Y-70757372D01*
X149439999Y-70697844D01*
X149440000Y-70697827D01*
X149440000Y-70450000D01*
X148440000Y-70450000D01*
X148440000Y-71150000D01*
X147940000Y-71150000D01*
X147940000Y-70074000D01*
X147959685Y-70006961D01*
X148012489Y-69961206D01*
X148064000Y-69950000D01*
X149440000Y-69950000D01*
X149440000Y-69702172D01*
X149439999Y-69702155D01*
X149433598Y-69642627D01*
X149433597Y-69642623D01*
X149380253Y-69499602D01*
X149382067Y-69498925D01*
X149369616Y-69441674D01*
X149381570Y-69400966D01*
X149380696Y-69400640D01*
X149383794Y-69392333D01*
X149383796Y-69392331D01*
X149434091Y-69257483D01*
X149440500Y-69197873D01*
X149440499Y-68202128D01*
X149434091Y-68142517D01*
X149383796Y-68007669D01*
X149383794Y-68007666D01*
X149380696Y-67999360D01*
X149382426Y-67998714D01*
X149369902Y-67941163D01*
X149381690Y-67901014D01*
X149380695Y-67900643D01*
X149383795Y-67892332D01*
X149383796Y-67892331D01*
X149387960Y-67881165D01*
X149429829Y-67825234D01*
X149495293Y-67800816D01*
X149504141Y-67800500D01*
X153768531Y-67800500D01*
X153835570Y-67820185D01*
G37*
%TD.AperFunction*%
%TD*%
M02*
