%TF.GenerationSoftware,KiCad,Pcbnew,8.0.4*%
%TF.CreationDate,2024-07-30T18:13:19-04:00*%
%TF.ProjectId,esp32-c3-wroom-socket,65737033-322d-4633-932d-77726f6f6d2d,rev?*%
%TF.SameCoordinates,Original*%
%TF.FileFunction,Legend,Top*%
%TF.FilePolarity,Positive*%
%FSLAX46Y46*%
G04 Gerber Fmt 4.6, Leading zero omitted, Abs format (unit mm)*
G04 Created by KiCad (PCBNEW 8.0.4) date 2024-07-30 18:13:19*
%MOMM*%
%LPD*%
G01*
G04 APERTURE LIST*
%ADD10C,0.150000*%
%ADD11C,0.127000*%
%ADD12C,0.200000*%
%ADD13C,0.152400*%
%ADD14C,0.508000*%
%ADD15C,0.500000*%
%ADD16C,0.250000*%
G04 APERTURE END LIST*
D10*
X149603095Y-49469819D02*
X149603095Y-50279342D01*
X149603095Y-50279342D02*
X149650714Y-50374580D01*
X149650714Y-50374580D02*
X149698333Y-50422200D01*
X149698333Y-50422200D02*
X149793571Y-50469819D01*
X149793571Y-50469819D02*
X149984047Y-50469819D01*
X149984047Y-50469819D02*
X150079285Y-50422200D01*
X150079285Y-50422200D02*
X150126904Y-50374580D01*
X150126904Y-50374580D02*
X150174523Y-50279342D01*
X150174523Y-50279342D02*
X150174523Y-49469819D01*
X151174523Y-50469819D02*
X150603095Y-50469819D01*
X150888809Y-50469819D02*
X150888809Y-49469819D01*
X150888809Y-49469819D02*
X150793571Y-49612676D01*
X150793571Y-49612676D02*
X150698333Y-49707914D01*
X150698333Y-49707914D02*
X150603095Y-49755533D01*
X148545180Y-75681152D02*
X148545180Y-75204962D01*
X148545180Y-75204962D02*
X149545180Y-75204962D01*
X149068990Y-76014486D02*
X149068990Y-76347819D01*
X148545180Y-76490676D02*
X148545180Y-76014486D01*
X148545180Y-76014486D02*
X149545180Y-76014486D01*
X149545180Y-76014486D02*
X149545180Y-76490676D01*
X148545180Y-76919248D02*
X149545180Y-76919248D01*
X149545180Y-76919248D02*
X149545180Y-77157343D01*
X149545180Y-77157343D02*
X149497561Y-77300200D01*
X149497561Y-77300200D02*
X149402323Y-77395438D01*
X149402323Y-77395438D02*
X149307085Y-77443057D01*
X149307085Y-77443057D02*
X149116609Y-77490676D01*
X149116609Y-77490676D02*
X148973752Y-77490676D01*
X148973752Y-77490676D02*
X148783276Y-77443057D01*
X148783276Y-77443057D02*
X148688038Y-77395438D01*
X148688038Y-77395438D02*
X148592800Y-77300200D01*
X148592800Y-77300200D02*
X148545180Y-77157343D01*
X148545180Y-77157343D02*
X148545180Y-76919248D01*
X148545180Y-78443057D02*
X148545180Y-77871629D01*
X148545180Y-78157343D02*
X149545180Y-78157343D01*
X149545180Y-78157343D02*
X149402323Y-78062105D01*
X149402323Y-78062105D02*
X149307085Y-77966867D01*
X149307085Y-77966867D02*
X149259466Y-77871629D01*
X156791666Y-75329819D02*
X156791666Y-76044104D01*
X156791666Y-76044104D02*
X156744047Y-76186961D01*
X156744047Y-76186961D02*
X156648809Y-76282200D01*
X156648809Y-76282200D02*
X156505952Y-76329819D01*
X156505952Y-76329819D02*
X156410714Y-76329819D01*
X157791666Y-76329819D02*
X157220238Y-76329819D01*
X157505952Y-76329819D02*
X157505952Y-75329819D01*
X157505952Y-75329819D02*
X157410714Y-75472676D01*
X157410714Y-75472676D02*
X157315476Y-75567914D01*
X157315476Y-75567914D02*
X157220238Y-75615533D01*
D11*
%TO.C,U1*%
X147940000Y-51100000D02*
X147940000Y-57430000D01*
X147940000Y-71100000D02*
X147940000Y-70970000D01*
X147940000Y-71100000D02*
X165940000Y-71100000D01*
X165940000Y-51100000D02*
X147940000Y-51100000D01*
X165940000Y-57430000D02*
X165940000Y-51100000D01*
X165940000Y-71100000D02*
X165940000Y-70970000D01*
D12*
X146540000Y-58200000D02*
G75*
G02*
X146340000Y-58200000I-100000J0D01*
G01*
X146340000Y-58200000D02*
G75*
G02*
X146540000Y-58200000I100000J0D01*
G01*
D13*
%TO.C,LED1*%
X147526800Y-76022827D02*
X147526800Y-77577573D01*
X150473200Y-76022827D02*
X150473200Y-77577573D01*
%TO.C,J1*%
X152527600Y-74213000D02*
X152527600Y-74581794D01*
X152527600Y-77778207D02*
X152527600Y-78322399D01*
X152527600Y-80807602D02*
X152527600Y-83941199D01*
X152527600Y-83941199D02*
X161722400Y-83941199D01*
X161722400Y-74213000D02*
X152527600Y-74213000D01*
X161722400Y-74581798D02*
X161722400Y-74213000D01*
X161722400Y-78322399D02*
X161722400Y-77778201D01*
X161722400Y-83941199D02*
X161722400Y-80807602D01*
D14*
X151730660Y-75544872D02*
G75*
G02*
X151922100Y-74820143I161940J344872D01*
G01*
D15*
%TO.C,J2*%
X141470000Y-59480000D02*
X141470000Y-79800000D01*
D16*
X144010000Y-56940000D02*
X169410000Y-56940000D01*
D15*
X144010000Y-82340000D02*
X169410000Y-82340000D01*
X171950000Y-59480000D02*
X171950000Y-79800000D01*
X141470000Y-59480000D02*
G75*
G02*
X144010000Y-56940000I2540001J-1D01*
G01*
X144010000Y-82340000D02*
G75*
G02*
X141470000Y-79800000I1J2540001D01*
G01*
X169410000Y-56940000D02*
G75*
G02*
X171950000Y-59480000I0J-2540000D01*
G01*
X171950000Y-79800000D02*
G75*
G02*
X169410000Y-82340000I-2540000J0D01*
G01*
%TD*%
M02*
