%TF.GenerationSoftware,KiCad,Pcbnew,8.0.6*%
%TF.CreationDate,2024-11-07T12:24:51-05:00*%
%TF.ProjectId,ESP32-Uno-Board-v2,45535033-322d-4556-9e6f-2d426f617264,rev?*%
%TF.SameCoordinates,Original*%
%TF.FileFunction,Legend,Bot*%
%TF.FilePolarity,Positive*%
%FSLAX46Y46*%
G04 Gerber Fmt 4.6, Leading zero omitted, Abs format (unit mm)*
G04 Created by KiCad (PCBNEW 8.0.6) date 2024-11-07 12:24:51*
%MOMM*%
%LPD*%
G01*
G04 APERTURE LIST*
%ADD10C,0.150000*%
%ADD11C,0.508000*%
%ADD12C,0.000000*%
G04 APERTURE END LIST*
D10*
X113254285Y-98603104D02*
X112778095Y-98603104D01*
X113349523Y-98888819D02*
X113016190Y-97888819D01*
X113016190Y-97888819D02*
X112682857Y-98888819D01*
X112397142Y-97984057D02*
X112349523Y-97936438D01*
X112349523Y-97936438D02*
X112254285Y-97888819D01*
X112254285Y-97888819D02*
X112016190Y-97888819D01*
X112016190Y-97888819D02*
X111920952Y-97936438D01*
X111920952Y-97936438D02*
X111873333Y-97984057D01*
X111873333Y-97984057D02*
X111825714Y-98079295D01*
X111825714Y-98079295D02*
X111825714Y-98174533D01*
X111825714Y-98174533D02*
X111873333Y-98317390D01*
X111873333Y-98317390D02*
X112444761Y-98888819D01*
X112444761Y-98888819D02*
X111825714Y-98888819D01*
%TO.C,A2*%
X110000000Y-99450000D02*
X110000000Y-152790000D01*
X110000000Y-99450000D02*
X174516000Y-99450000D01*
X110000000Y-152790000D02*
X176040000Y-152790000D01*
X174516000Y-99450000D02*
X176040000Y-100974000D01*
X176040000Y-112150000D02*
X176040000Y-100974000D01*
X176040000Y-151520000D02*
X178580000Y-148980000D01*
X176040000Y-152790000D02*
X176040000Y-151520000D01*
X178580000Y-114690000D02*
X176040000Y-112150000D01*
X178580000Y-148980000D02*
X178580000Y-114690000D01*
D11*
%TO.C,BTN1*%
X136293401Y-149000001D02*
G75*
G02*
X135531401Y-149000001I-381000J0D01*
G01*
X135531401Y-149000001D02*
G75*
G02*
X136293401Y-149000001I381000J0D01*
G01*
%TO.C,BTN2*%
X172406001Y-104787600D02*
G75*
G02*
X171644001Y-104787600I-381000J0D01*
G01*
X171644001Y-104787600D02*
G75*
G02*
X172406001Y-104787600I381000J0D01*
G01*
%TO.C,J1*%
X118298566Y-101407044D02*
G75*
G02*
X117536566Y-101407044I-381000J0D01*
G01*
X117536566Y-101407044D02*
G75*
G02*
X118298566Y-101407044I381000J0D01*
G01*
D12*
%TO.C,TXT1*%
G36*
X145699873Y-128506920D02*
G01*
X145839379Y-128599162D01*
X145904130Y-128724465D01*
X145896595Y-128765133D01*
X145806558Y-128784855D01*
X145623897Y-128677200D01*
X145538732Y-128589585D01*
X145564105Y-128503271D01*
X145567730Y-128501162D01*
X145699873Y-128506920D01*
G37*
G36*
X138749986Y-131119580D02*
G01*
X138800846Y-131137272D01*
X138937942Y-131274177D01*
X138960439Y-131470495D01*
X138856225Y-131664137D01*
X138742326Y-131724819D01*
X138538725Y-131744570D01*
X138459131Y-131729721D01*
X138345918Y-131644068D01*
X138299889Y-131444016D01*
X138297004Y-131406089D01*
X138334615Y-131188327D01*
X138483104Y-131094630D01*
X138749986Y-131119580D01*
G37*
G36*
X139476729Y-135671998D02*
G01*
X139523777Y-135762037D01*
X139547553Y-135959912D01*
X139554130Y-136296189D01*
X139554130Y-136935614D01*
X139109630Y-136910023D01*
X138936945Y-136893136D01*
X138750850Y-136851206D01*
X138687936Y-136799765D01*
X138719748Y-136755734D01*
X138857269Y-136706467D01*
X138975790Y-136699472D01*
X139168497Y-136674686D01*
X139264208Y-136604928D01*
X139296795Y-136448765D01*
X139300130Y-136164765D01*
X139300380Y-136103557D01*
X139313794Y-135834079D01*
X139353387Y-135695778D01*
X139427130Y-135656765D01*
X139476729Y-135671998D01*
G37*
G36*
X140733487Y-135663713D02*
G01*
X140788425Y-135737609D01*
X140816349Y-135917710D01*
X140824130Y-136235320D01*
X140824130Y-136236760D01*
X140816350Y-136535296D01*
X140796079Y-136762871D01*
X140767685Y-136870320D01*
X140725043Y-136889109D01*
X140547929Y-136916142D01*
X140294963Y-136926765D01*
X140123165Y-136921960D01*
X139948948Y-136889084D01*
X139914385Y-136820932D01*
X139959871Y-136762083D01*
X140111941Y-136706467D01*
X140237160Y-136699775D01*
X140435148Y-136675602D01*
X140533389Y-136605865D01*
X140566757Y-136449330D01*
X140570130Y-136164765D01*
X140570380Y-136103557D01*
X140583794Y-135834079D01*
X140623387Y-135695778D01*
X140697130Y-135656765D01*
X140733487Y-135663713D01*
G37*
G36*
X130110664Y-124753749D02*
G01*
X130046937Y-124928535D01*
X129923917Y-125220380D01*
X129738389Y-125635322D01*
X129486092Y-126182886D01*
X129162765Y-126872598D01*
X129146873Y-126906293D01*
X128961390Y-127287123D01*
X128807829Y-127534758D01*
X128648571Y-127667760D01*
X128445998Y-127704693D01*
X128162490Y-127664123D01*
X127760429Y-127564611D01*
X127623641Y-127527626D01*
X127184831Y-127383055D01*
X126861188Y-127232464D01*
X126670264Y-127085373D01*
X126629614Y-126951302D01*
X126636753Y-126930399D01*
X126697459Y-126764570D01*
X126803058Y-126483353D01*
X126940940Y-126120167D01*
X127098499Y-125708432D01*
X127521269Y-124607765D01*
X128845097Y-124584416D01*
X130168926Y-124561067D01*
X130110664Y-124753749D01*
G37*
G36*
X138437684Y-132043345D02*
G01*
X138642468Y-132071155D01*
X138667127Y-132075203D01*
X138851749Y-132118647D01*
X138907559Y-132189321D01*
X138870856Y-132328057D01*
X138862128Y-132354914D01*
X138826756Y-132571227D01*
X138804330Y-132892591D01*
X138794663Y-133273343D01*
X138797563Y-133667821D01*
X138812841Y-134030365D01*
X138840309Y-134315311D01*
X138879775Y-134476998D01*
X138899586Y-134515959D01*
X138913744Y-134598800D01*
X138826756Y-134633689D01*
X138604609Y-134640883D01*
X138241796Y-134641001D01*
X138269380Y-133350355D01*
X138274913Y-133107157D01*
X138286128Y-132690151D01*
X138297445Y-132353639D01*
X138307808Y-132127225D01*
X138316159Y-132040513D01*
X138322972Y-132038119D01*
X138437684Y-132043345D01*
G37*
G36*
X143511823Y-135689695D02*
G01*
X143774365Y-135814292D01*
X143966763Y-136022809D01*
X144041463Y-136291765D01*
X144041341Y-136299437D01*
X143978032Y-136512600D01*
X143833645Y-136718947D01*
X143656857Y-136842275D01*
X143390348Y-136921833D01*
X143132653Y-136912277D01*
X142947052Y-136807303D01*
X142917104Y-136764465D01*
X142910304Y-136656323D01*
X143015640Y-136618088D01*
X143193047Y-136671828D01*
X143269736Y-136702782D01*
X143485186Y-136693571D01*
X143660676Y-136568387D01*
X143757080Y-136366523D01*
X143735273Y-136127274D01*
X143606688Y-135972984D01*
X143390247Y-135891237D01*
X143171880Y-135924685D01*
X143078966Y-135960918D01*
X142943781Y-135957112D01*
X142899978Y-135882986D01*
X142986486Y-135770841D01*
X143226688Y-135672498D01*
X143511823Y-135689695D01*
G37*
G36*
X147441301Y-128905168D02*
G01*
X147537302Y-128947992D01*
X147729533Y-129140276D01*
X147814860Y-129403732D01*
X147784133Y-129687635D01*
X147628202Y-129941264D01*
X147594793Y-129968932D01*
X147406436Y-130043120D01*
X147164656Y-130068295D01*
X146924187Y-130047776D01*
X146739767Y-129984882D01*
X146666130Y-129882931D01*
X146669592Y-129869964D01*
X146773455Y-129837024D01*
X146993257Y-129855149D01*
X147040565Y-129862008D01*
X147333720Y-129840921D01*
X147527469Y-129707193D01*
X147597463Y-129476098D01*
X147595549Y-129433065D01*
X147503241Y-129215356D01*
X147290498Y-129095344D01*
X146982448Y-129088851D01*
X146845579Y-129106950D01*
X146705880Y-129099042D01*
X146686476Y-129033847D01*
X146752344Y-128958664D01*
X146944116Y-128887092D01*
X147194737Y-128865685D01*
X147441301Y-128905168D01*
G37*
G36*
X136495269Y-135685545D02*
G01*
X136791045Y-135832243D01*
X136899076Y-135943019D01*
X137011682Y-136212627D01*
X136989052Y-136502140D01*
X136828832Y-136754133D01*
X136622851Y-136871271D01*
X136353435Y-136924246D01*
X136095430Y-136903223D01*
X135917331Y-136804425D01*
X135874596Y-136729831D01*
X135843730Y-136554864D01*
X135872757Y-136396412D01*
X135955796Y-136327391D01*
X136011940Y-136362897D01*
X136068197Y-136505255D01*
X136149532Y-136681042D01*
X136317659Y-136731448D01*
X136549117Y-136637789D01*
X136630081Y-136572449D01*
X136741978Y-136373286D01*
X136732423Y-136164295D01*
X136623154Y-135989377D01*
X136435907Y-135892435D01*
X136192420Y-135917371D01*
X136061187Y-135954107D01*
X135912335Y-135948523D01*
X135867717Y-135880771D01*
X135959153Y-135770841D01*
X136186625Y-135673701D01*
X136495269Y-135685545D01*
G37*
G36*
X144688630Y-128947880D02*
G01*
X144876221Y-129139255D01*
X144973931Y-129384521D01*
X144957699Y-129649354D01*
X144803463Y-129899432D01*
X144769898Y-129928877D01*
X144525600Y-130038534D01*
X144217009Y-130071476D01*
X143921388Y-130017373D01*
X143893038Y-130002149D01*
X143810223Y-129875802D01*
X143785599Y-129699878D01*
X143820051Y-129543577D01*
X143914463Y-129476098D01*
X143987230Y-129505949D01*
X144041463Y-129640435D01*
X144061273Y-129764042D01*
X144186242Y-129876103D01*
X144425986Y-129863780D01*
X144475229Y-129847314D01*
X144639095Y-129699829D01*
X144697567Y-129472399D01*
X144632983Y-129219956D01*
X144559714Y-129116139D01*
X144430979Y-129063209D01*
X144202450Y-129077013D01*
X144014172Y-129087814D01*
X143887966Y-129052153D01*
X143909543Y-128977048D01*
X144089672Y-128881198D01*
X144140049Y-128864097D01*
X144435219Y-128844720D01*
X144688630Y-128947880D01*
G37*
G36*
X146242912Y-129454932D02*
G01*
X146242796Y-130068765D01*
X145777130Y-130068765D01*
X145585488Y-130061218D01*
X145388015Y-130030465D01*
X145311463Y-129984098D01*
X145320099Y-129965119D01*
X145438056Y-129918210D01*
X145650130Y-129899432D01*
X145845607Y-129889844D01*
X145960396Y-129840882D01*
X145988796Y-129730098D01*
X145979110Y-129653654D01*
X145896702Y-129579707D01*
X145692463Y-129560765D01*
X145653573Y-129560034D01*
X145470559Y-129532060D01*
X145396130Y-129476098D01*
X145398689Y-129464987D01*
X145496596Y-129412697D01*
X145692463Y-129391432D01*
X145826241Y-129385896D01*
X145955648Y-129338806D01*
X145988796Y-129222098D01*
X145980093Y-129148803D01*
X145899594Y-129072424D01*
X145697460Y-129052765D01*
X145555354Y-129047481D01*
X145391239Y-129012241D01*
X145378690Y-128959008D01*
X145509908Y-128905669D01*
X145777097Y-128870109D01*
X146243027Y-128841098D01*
X146242912Y-129454932D01*
G37*
G36*
X134910000Y-135673208D02*
G01*
X135363130Y-135699098D01*
X135388006Y-136312932D01*
X135412882Y-136926765D01*
X134948502Y-136926765D01*
X134861293Y-136925394D01*
X134600327Y-136899716D01*
X134447746Y-136849589D01*
X134423816Y-136785584D01*
X134548799Y-136718271D01*
X134648766Y-136692384D01*
X134782862Y-136679868D01*
X134893603Y-136690902D01*
X135078825Y-136654729D01*
X135151463Y-136550876D01*
X135151461Y-136550291D01*
X135070205Y-136453156D01*
X134833963Y-136402709D01*
X134777022Y-136396623D01*
X134591355Y-136352427D01*
X134516463Y-136291765D01*
X134521614Y-136276154D01*
X134629723Y-136217695D01*
X134833963Y-136180821D01*
X134851527Y-136179242D01*
X135080483Y-136123049D01*
X135155457Y-136035366D01*
X135075712Y-135948488D01*
X134840508Y-135894709D01*
X134794820Y-135889702D01*
X134593709Y-135836848D01*
X134493211Y-135757874D01*
X134510387Y-135695881D01*
X134639950Y-135668002D01*
X134910000Y-135673208D01*
G37*
G36*
X142583098Y-136329225D02*
G01*
X142552172Y-136520441D01*
X142403773Y-136709486D01*
X142319071Y-136783421D01*
X142037650Y-136916180D01*
X141750302Y-136921847D01*
X141496774Y-136814087D01*
X141316810Y-136606561D01*
X141250156Y-136312932D01*
X141253903Y-136243223D01*
X141517790Y-136243223D01*
X141544831Y-136448895D01*
X141689635Y-136625631D01*
X141737574Y-136658939D01*
X141888070Y-136741512D01*
X142003878Y-136719037D01*
X142162832Y-136584800D01*
X142236069Y-136508723D01*
X142340207Y-136296466D01*
X142276122Y-136102890D01*
X142043720Y-135927466D01*
X141923199Y-135886481D01*
X141728979Y-135918628D01*
X141586508Y-136052005D01*
X141517790Y-136243223D01*
X141253903Y-136243223D01*
X141256319Y-136198289D01*
X141346492Y-135914273D01*
X141551965Y-135751220D01*
X141883084Y-135699098D01*
X141958625Y-135700615D01*
X142267181Y-135761926D01*
X142460508Y-135928966D01*
X142567367Y-136223786D01*
X142578211Y-136296466D01*
X142583098Y-136329225D01*
G37*
G36*
X138297567Y-136150504D02*
G01*
X138307141Y-136373590D01*
X138309301Y-136633645D01*
X138299088Y-136789660D01*
X138244913Y-136870855D01*
X138094466Y-136914489D01*
X137812255Y-136926765D01*
X137606858Y-136914629D01*
X137425077Y-136875028D01*
X137342733Y-136823202D01*
X137381853Y-136775144D01*
X137564463Y-136746848D01*
X137726675Y-136737440D01*
X137901634Y-136713687D01*
X137981374Y-136664852D01*
X138012905Y-136572676D01*
X138016506Y-136540485D01*
X137960081Y-136447571D01*
X137766585Y-136403343D01*
X137750717Y-136401674D01*
X137534539Y-136346818D01*
X137454863Y-136267362D01*
X137517119Y-136195835D01*
X137726741Y-136164765D01*
X137786300Y-136163140D01*
X137986981Y-136117193D01*
X138040378Y-136033831D01*
X137948319Y-135948016D01*
X137712630Y-135894709D01*
X137590064Y-135879696D01*
X137439573Y-135829063D01*
X137439863Y-135767074D01*
X137580726Y-135709916D01*
X137851956Y-135673775D01*
X138268670Y-135648452D01*
X138297567Y-136150504D01*
G37*
G36*
X141953048Y-129295294D02*
G01*
X141937968Y-129607323D01*
X141929419Y-129878265D01*
X141926186Y-129967336D01*
X141897338Y-130125621D01*
X141840248Y-130117165D01*
X141755463Y-129941765D01*
X141750164Y-129928231D01*
X141633738Y-129773200D01*
X141424940Y-129730098D01*
X141183298Y-129681699D01*
X140983505Y-129519908D01*
X140908796Y-129275317D01*
X140910024Y-129258341D01*
X141165440Y-129258341D01*
X141221270Y-129399105D01*
X141238037Y-129414029D01*
X141396416Y-129491041D01*
X141581621Y-129525029D01*
X141705374Y-129497965D01*
X141736167Y-129425155D01*
X141755463Y-129250320D01*
X141749889Y-129170850D01*
X141682527Y-129075922D01*
X141498806Y-129052765D01*
X141424860Y-129058053D01*
X141244166Y-129131101D01*
X141165440Y-129258341D01*
X140910024Y-129258341D01*
X140915515Y-129182459D01*
X141001450Y-129007226D01*
X141203920Y-128912103D01*
X141545103Y-128883432D01*
X141978209Y-128883432D01*
X141956125Y-129243265D01*
X141955708Y-129250320D01*
X141953048Y-129295294D01*
G37*
G36*
X143364130Y-129476098D02*
G01*
X143364130Y-130068765D01*
X142903460Y-130068765D01*
X142718463Y-130061934D01*
X142497949Y-130031195D01*
X142390463Y-129984098D01*
X142387763Y-129959750D01*
X142488809Y-129915534D01*
X142724133Y-129899432D01*
X142760149Y-129899321D01*
X142983196Y-129885515D01*
X143085550Y-129835383D01*
X143110130Y-129730098D01*
X143101426Y-129656803D01*
X143020927Y-129580424D01*
X142818793Y-129560765D01*
X142760520Y-129558713D01*
X142582631Y-129525361D01*
X142471247Y-129469200D01*
X142458362Y-129413725D01*
X142575966Y-129382432D01*
X142670417Y-129376596D01*
X142896949Y-129361265D01*
X142996564Y-129328476D01*
X143093658Y-129200932D01*
X143089775Y-129116122D01*
X142998730Y-129065622D01*
X142777671Y-129052765D01*
X142696242Y-129050365D01*
X142507998Y-129020723D01*
X142432796Y-128968098D01*
X142474307Y-128933254D01*
X142643448Y-128897350D01*
X142898463Y-128883432D01*
X143364130Y-128883432D01*
X143364130Y-129476098D01*
G37*
G36*
X139557479Y-132040007D02*
G01*
X139770781Y-132140405D01*
X139917175Y-132236723D01*
X140028797Y-132250565D01*
X140062130Y-132134040D01*
X140082857Y-132057233D01*
X140196055Y-132049373D01*
X140317713Y-132080116D01*
X140537700Y-132100765D01*
X140615583Y-132103215D01*
X140699261Y-132143220D01*
X140657775Y-132264532D01*
X140649209Y-132283942D01*
X140611471Y-132474247D01*
X140586300Y-132779107D01*
X140573803Y-133152861D01*
X140574087Y-133549846D01*
X140587260Y-133924403D01*
X140613429Y-134230870D01*
X140652701Y-134423586D01*
X140691987Y-134542647D01*
X140671674Y-134611330D01*
X140551648Y-134636949D01*
X140297101Y-134640765D01*
X140272451Y-134640723D01*
X140032350Y-134631032D01*
X139936089Y-134599508D01*
X139960530Y-134539165D01*
X139963742Y-134535711D01*
X140017047Y-134382929D01*
X140050520Y-134080511D01*
X140062130Y-133646316D01*
X140059774Y-133314419D01*
X140045916Y-133049434D01*
X140011550Y-132876243D01*
X139947704Y-132753122D01*
X139845408Y-132638346D01*
X139643584Y-132488157D01*
X139422075Y-132461120D01*
X139323047Y-132473753D01*
X139234911Y-132427939D01*
X139215463Y-132258357D01*
X139218147Y-132180781D01*
X139267908Y-132049117D01*
X139410948Y-132016098D01*
X139557479Y-132040007D01*
G37*
G36*
X137063203Y-131351547D02*
G01*
X137160146Y-131613932D01*
X137294420Y-131924911D01*
X137516373Y-132126718D01*
X137577165Y-132163940D01*
X137744076Y-132302372D01*
X137746904Y-132399329D01*
X137585630Y-132454710D01*
X137535768Y-132463947D01*
X137468619Y-132499751D01*
X137423768Y-132585689D01*
X137394196Y-132751534D01*
X137372879Y-133027063D01*
X137352796Y-133442051D01*
X137346634Y-133578143D01*
X137325176Y-133957140D01*
X137298243Y-134210929D01*
X137258435Y-134373795D01*
X137198349Y-134480019D01*
X137110583Y-134563885D01*
X136864970Y-134693137D01*
X136574251Y-134708944D01*
X136322297Y-134585309D01*
X136286313Y-134550981D01*
X136183230Y-134410458D01*
X136189199Y-134327936D01*
X136306393Y-134337294D01*
X136451237Y-134339089D01*
X136645060Y-134259734D01*
X136660971Y-134249165D01*
X136746453Y-134177979D01*
X136800337Y-134080532D01*
X136829863Y-133921062D01*
X136842270Y-133663805D01*
X136844796Y-133272998D01*
X136844796Y-132417136D01*
X136513635Y-132461554D01*
X136333461Y-132477810D01*
X136199642Y-132449567D01*
X136141843Y-132350604D01*
X136127708Y-132285607D01*
X136144180Y-132168707D01*
X136264264Y-132114198D01*
X136520241Y-132100765D01*
X136844796Y-132100765D01*
X136844796Y-131677432D01*
X136848976Y-131545467D01*
X136891874Y-131320485D01*
X136968531Y-131254788D01*
X137063203Y-131351547D01*
G37*
G36*
X126085721Y-128096424D02*
G01*
X126292390Y-128207960D01*
X126561637Y-128365408D01*
X126585649Y-128379815D01*
X126906810Y-128560480D01*
X127211430Y-128713123D01*
X127436527Y-128806023D01*
X127480054Y-128820384D01*
X127694029Y-128904618D01*
X127822382Y-128977145D01*
X127826835Y-129056230D01*
X127744095Y-129245875D01*
X127582385Y-129513692D01*
X127360186Y-129833341D01*
X127095979Y-130178482D01*
X126808244Y-130522773D01*
X126515463Y-130839873D01*
X126339746Y-131011714D01*
X125842686Y-131437034D01*
X125317525Y-131812523D01*
X124807051Y-132109305D01*
X124354052Y-132298503D01*
X124114260Y-132361633D01*
X123388872Y-132440465D01*
X122640170Y-132368532D01*
X121897715Y-132150574D01*
X121191067Y-131791331D01*
X120863190Y-131561623D01*
X120322960Y-131101494D01*
X119780718Y-130552258D01*
X119275498Y-129954573D01*
X118846335Y-129349098D01*
X118685140Y-129095098D01*
X119023135Y-129344622D01*
X119138636Y-129431386D01*
X119315403Y-129571202D01*
X119403463Y-129651236D01*
X119446839Y-129693364D01*
X119622106Y-129821030D01*
X119885362Y-129991145D01*
X120196301Y-130179591D01*
X120514613Y-130362252D01*
X120799992Y-130515010D01*
X121012130Y-130613748D01*
X121372483Y-130724048D01*
X121991691Y-130809328D01*
X122625534Y-130790884D01*
X123201181Y-130666945D01*
X123205204Y-130665576D01*
X123871296Y-130353770D01*
X124511688Y-129887011D01*
X125110184Y-129279331D01*
X125650585Y-128544765D01*
X125798225Y-128314246D01*
X125916611Y-128131384D01*
X125970458Y-128050878D01*
X125977783Y-128050036D01*
X126085721Y-128096424D01*
G37*
G36*
X143756638Y-133228457D02*
G01*
X143704848Y-133701813D01*
X143582774Y-133992264D01*
X143294139Y-134344673D01*
X142898463Y-134603382D01*
X142740379Y-134652588D01*
X142441243Y-134701763D01*
X142111448Y-134722117D01*
X141931479Y-134720881D01*
X141682483Y-134698326D01*
X141514712Y-134635866D01*
X141370615Y-134517613D01*
X141263133Y-134397222D01*
X141173215Y-134243296D01*
X141187572Y-134160056D01*
X141310963Y-134174858D01*
X141434710Y-134222356D01*
X141896430Y-134334751D01*
X142305377Y-134310665D01*
X142700749Y-134149379D01*
X142826460Y-134058259D01*
X143032550Y-133780458D01*
X143110130Y-133451448D01*
X143106486Y-133404436D01*
X143073526Y-133349842D01*
X142982775Y-133315208D01*
X142806351Y-133296038D01*
X142516371Y-133287834D01*
X142084951Y-133286098D01*
X141059773Y-133286098D01*
X141117561Y-133053265D01*
X141191539Y-132833554D01*
X141755463Y-132833554D01*
X141766162Y-132866899D01*
X141861155Y-132914434D01*
X142075055Y-132939881D01*
X142432796Y-132947432D01*
X142528533Y-132946951D01*
X142824930Y-132938528D01*
X143032152Y-132921777D01*
X143110130Y-132899532D01*
X143105670Y-132852344D01*
X142997720Y-132658617D01*
X142784271Y-132501836D01*
X142517121Y-132411086D01*
X142248069Y-132415455D01*
X142011607Y-132516856D01*
X141828630Y-132671846D01*
X141755463Y-132833554D01*
X141191539Y-132833554D01*
X141230845Y-132716815D01*
X141466203Y-132363714D01*
X141802116Y-132140792D01*
X142251607Y-132036370D01*
X142677768Y-132049912D01*
X143101885Y-132193188D01*
X143435904Y-132452080D01*
X143660572Y-132804524D01*
X143682101Y-132899532D01*
X143756638Y-133228457D01*
G37*
G36*
X129945949Y-132971983D02*
G01*
X129990293Y-133443372D01*
X129879025Y-133877855D01*
X129620760Y-134251474D01*
X129224113Y-134540267D01*
X129108764Y-134591600D01*
X128767572Y-134683243D01*
X128394153Y-134720727D01*
X128036910Y-134704775D01*
X127744246Y-134636112D01*
X127564566Y-134515460D01*
X127456855Y-134339867D01*
X127457270Y-134231611D01*
X127593484Y-134212302D01*
X127872878Y-134276211D01*
X128100828Y-134327476D01*
X128541019Y-134325150D01*
X128913118Y-134176898D01*
X129201096Y-133887411D01*
X129241027Y-133827347D01*
X129369201Y-133611789D01*
X129410554Y-133462427D01*
X129348604Y-133367220D01*
X129166871Y-133314124D01*
X128848874Y-133291098D01*
X128378130Y-133286098D01*
X128040119Y-133285377D01*
X127720993Y-133279678D01*
X127521774Y-133264053D01*
X127414320Y-133233579D01*
X127370487Y-133183333D01*
X127362130Y-133108394D01*
X127362957Y-133087241D01*
X127408042Y-132879822D01*
X127427826Y-132828341D01*
X128003761Y-132828341D01*
X128019902Y-132892137D01*
X128110193Y-132928053D01*
X128306342Y-132943886D01*
X128640056Y-132947432D01*
X128917485Y-132943914D01*
X129155020Y-132925740D01*
X129275795Y-132887076D01*
X129309463Y-132822383D01*
X129278258Y-132734186D01*
X129131586Y-132586855D01*
X128916908Y-132462528D01*
X128692629Y-132401096D01*
X128593385Y-132404353D01*
X128345064Y-132481577D01*
X128128053Y-132624224D01*
X128011089Y-132792789D01*
X128003761Y-132828341D01*
X127427826Y-132828341D01*
X127500781Y-132638504D01*
X127554848Y-132540181D01*
X127815238Y-132266385D01*
X128160343Y-132096410D01*
X128553385Y-132028592D01*
X128957586Y-132061269D01*
X129336170Y-132192777D01*
X129652359Y-132421452D01*
X129869376Y-132745632D01*
X129895340Y-132822383D01*
X129945949Y-132971983D01*
G37*
G36*
X135168383Y-132039650D02*
G01*
X135283273Y-132114062D01*
X135398854Y-132260817D01*
X135509550Y-132427013D01*
X135522078Y-132504892D01*
X135412468Y-132502166D01*
X135161286Y-132432912D01*
X134935117Y-132389741D01*
X134655823Y-132414298D01*
X134462015Y-132528847D01*
X134389463Y-132720079D01*
X134391593Y-132751696D01*
X134490784Y-132933555D01*
X134704102Y-133065723D01*
X134984400Y-133116765D01*
X135023059Y-133118368D01*
X135269918Y-133172269D01*
X135543918Y-133281003D01*
X135780707Y-133415005D01*
X135915933Y-133544713D01*
X135985145Y-133726860D01*
X135989639Y-134061096D01*
X135854265Y-134366034D01*
X135593835Y-134593453D01*
X135484327Y-134643524D01*
X135166341Y-134713451D01*
X134858906Y-134693857D01*
X134628963Y-134585309D01*
X134551679Y-134511041D01*
X134487191Y-134404988D01*
X134566649Y-134353846D01*
X134802102Y-134340583D01*
X135124242Y-134293283D01*
X135333538Y-134148376D01*
X135405463Y-133912683D01*
X135404793Y-133891410D01*
X135310189Y-133680646D01*
X135063013Y-133519567D01*
X134673813Y-133415344D01*
X134323164Y-133358984D01*
X134315699Y-133889299D01*
X134315415Y-133907558D01*
X134290492Y-134260192D01*
X134215349Y-134483779D01*
X134067545Y-134614924D01*
X133824636Y-134690230D01*
X133722335Y-134706700D01*
X133563465Y-134684774D01*
X133459077Y-134557869D01*
X133400890Y-134432831D01*
X133387770Y-134358347D01*
X133483693Y-134309805D01*
X133615597Y-134226056D01*
X133698673Y-134119937D01*
X133747106Y-133954754D01*
X133775085Y-133693811D01*
X133796796Y-133300415D01*
X133820716Y-132935039D01*
X133875169Y-132562360D01*
X133972278Y-132312570D01*
X134131336Y-132158976D01*
X134371635Y-132074891D01*
X134712467Y-132033624D01*
X134715705Y-132033390D01*
X134997941Y-132018964D01*
X135168383Y-132039650D01*
G37*
G36*
X144917885Y-131009584D02*
G01*
X145068632Y-131036119D01*
X145059322Y-131081824D01*
X144992341Y-131174522D01*
X144935800Y-131411281D01*
X144901902Y-131800194D01*
X144869622Y-132439432D01*
X145894876Y-132439432D01*
X146920130Y-132439432D01*
X146920130Y-131808639D01*
X146917069Y-131568388D01*
X146896957Y-131316354D01*
X146851215Y-131170117D01*
X146771963Y-131091547D01*
X146744255Y-131072834D01*
X146745353Y-131032498D01*
X146881591Y-131010371D01*
X147169897Y-131002673D01*
X147307364Y-131003027D01*
X147539416Y-131014753D01*
X147634241Y-131045969D01*
X147614397Y-131101698D01*
X147610751Y-131106131D01*
X147576152Y-131238351D01*
X147548651Y-131503766D01*
X147528382Y-131869501D01*
X147515483Y-132302679D01*
X147510088Y-132770425D01*
X147512334Y-133239862D01*
X147522356Y-133678114D01*
X147540291Y-134052305D01*
X147566274Y-134329558D01*
X147600442Y-134476998D01*
X147635370Y-134557823D01*
X147610488Y-134613203D01*
X147481757Y-134636200D01*
X147216463Y-134640765D01*
X146985247Y-134637873D01*
X146835893Y-134618941D01*
X146795876Y-134569967D01*
X146832484Y-134476998D01*
X146846198Y-134442409D01*
X146883922Y-134241406D01*
X146910241Y-133938669D01*
X146920130Y-133585311D01*
X146920130Y-132857391D01*
X145925296Y-132881245D01*
X144930463Y-132905098D01*
X144930463Y-133691491D01*
X144934801Y-134026474D01*
X144954419Y-134309063D01*
X144993861Y-134476383D01*
X145057463Y-134558028D01*
X145072874Y-134602704D01*
X144936473Y-134630045D01*
X144638363Y-134639468D01*
X144500968Y-134638791D01*
X144268869Y-134626494D01*
X144174021Y-134594982D01*
X144193863Y-134539165D01*
X144207115Y-134516533D01*
X144242071Y-134347336D01*
X144268965Y-134052515D01*
X144287796Y-133664822D01*
X144298565Y-133217009D01*
X144301271Y-132741827D01*
X144295914Y-132272029D01*
X144282495Y-131840365D01*
X144261014Y-131479588D01*
X144231470Y-131222448D01*
X144193863Y-131101698D01*
X144173519Y-131075962D01*
X144197167Y-131030549D01*
X144344595Y-131007390D01*
X144638363Y-131001395D01*
X144917885Y-131009584D01*
G37*
G36*
X137173415Y-122657071D02*
G01*
X137899072Y-122916004D01*
X138628687Y-123339757D01*
X139358553Y-123926904D01*
X139567514Y-124128928D01*
X139849472Y-124425326D01*
X140134690Y-124745869D01*
X140398925Y-125061429D01*
X140617935Y-125342876D01*
X140767480Y-125561083D01*
X140823316Y-125686921D01*
X140816864Y-125691474D01*
X140722245Y-125641013D01*
X140538199Y-125509335D01*
X140294963Y-125317576D01*
X140248442Y-125280351D01*
X139890166Y-125024672D01*
X139470259Y-124763051D01*
X139070137Y-124546727D01*
X138691020Y-124372956D01*
X138375193Y-124262441D01*
X138057963Y-124199550D01*
X137665374Y-124164141D01*
X137278915Y-124157970D01*
X136647694Y-124243158D01*
X136059755Y-124460578D01*
X135488929Y-124821360D01*
X134909046Y-125336639D01*
X134802419Y-125446934D01*
X134249248Y-126118046D01*
X133716909Y-126924917D01*
X133220968Y-127839365D01*
X132776991Y-128833208D01*
X132400543Y-129878265D01*
X132259188Y-130322765D01*
X130953659Y-130322765D01*
X130694867Y-130321972D01*
X130280218Y-130317005D01*
X129948301Y-130308240D01*
X129727984Y-130296560D01*
X129648130Y-130282846D01*
X129672184Y-130210027D01*
X129748822Y-130021209D01*
X129859796Y-129764311D01*
X129954657Y-129538105D01*
X130038982Y-129307644D01*
X130071463Y-129175969D01*
X130038625Y-129126144D01*
X129852497Y-129060877D01*
X129499963Y-129011280D01*
X128793365Y-128913196D01*
X127792089Y-128651647D01*
X126885806Y-128251894D01*
X126067072Y-127709579D01*
X125328441Y-127020345D01*
X124662467Y-126179833D01*
X124569689Y-126043713D01*
X124395276Y-125778678D01*
X124274567Y-125582227D01*
X124229463Y-125489287D01*
X124232183Y-125486821D01*
X124310770Y-125542734D01*
X124481679Y-125694679D01*
X124722952Y-125922554D01*
X125012630Y-126206255D01*
X125487558Y-126645217D01*
X126215220Y-127184807D01*
X126963519Y-127576493D01*
X127753657Y-127832855D01*
X127996454Y-127879997D01*
X128493349Y-127929326D01*
X129020691Y-127932377D01*
X129545379Y-127893550D01*
X130034311Y-127817243D01*
X130454386Y-127707852D01*
X130772503Y-127569778D01*
X130955560Y-127407417D01*
X131004226Y-127325997D01*
X131134172Y-127106745D01*
X131310456Y-126808141D01*
X131509293Y-126470432D01*
X131606536Y-126307227D01*
X132278315Y-125292588D01*
X132973587Y-124433262D01*
X133689189Y-123732019D01*
X134421956Y-123191627D01*
X135168725Y-122814856D01*
X135926331Y-122604475D01*
X136455420Y-122564387D01*
X137173415Y-122657071D01*
G37*
G36*
X133079384Y-132893313D02*
G01*
X133082740Y-133082111D01*
X132996776Y-133307385D01*
X132982186Y-133336573D01*
X132826504Y-133559785D01*
X132650865Y-133711000D01*
X132522330Y-133785892D01*
X132500950Y-133849540D01*
X132612363Y-133939725D01*
X132723119Y-134042345D01*
X132769696Y-134224618D01*
X132647749Y-134423051D01*
X132511268Y-134499999D01*
X132268871Y-134542998D01*
X131890470Y-134556098D01*
X131610422Y-134560771D01*
X131360547Y-134586820D01*
X131187370Y-134646446D01*
X131039002Y-134751559D01*
X130923348Y-134879065D01*
X130861408Y-135084621D01*
X130941639Y-135273178D01*
X131147381Y-135428261D01*
X131461973Y-135533393D01*
X131868753Y-135572098D01*
X132201077Y-135549502D01*
X132497545Y-135451874D01*
X132651464Y-135273498D01*
X132668367Y-135010487D01*
X132649225Y-134827500D01*
X132693617Y-134742574D01*
X132834019Y-134725432D01*
X133098421Y-134763527D01*
X133302820Y-134904895D01*
X133373463Y-135142364D01*
X133369656Y-135219652D01*
X133264912Y-135506152D01*
X133012897Y-135721044D01*
X132608401Y-135869277D01*
X132312300Y-135934692D01*
X131962476Y-135980364D01*
X131637550Y-135969210D01*
X131258492Y-135903219D01*
X131035777Y-135842614D01*
X130652351Y-135652487D01*
X130400726Y-135391549D01*
X130292807Y-135075162D01*
X130340500Y-134718689D01*
X130410798Y-134584998D01*
X130642999Y-134391124D01*
X131019253Y-134252941D01*
X131548844Y-134166203D01*
X131573693Y-134163645D01*
X131862165Y-134129501D01*
X132008277Y-134096427D01*
X132036926Y-134054243D01*
X131973008Y-133992769D01*
X131847245Y-133927387D01*
X131617410Y-133878765D01*
X131379147Y-133846779D01*
X131076964Y-133704495D01*
X130843895Y-133479226D01*
X130702847Y-133205031D01*
X130695620Y-133125060D01*
X131278833Y-133125060D01*
X131426130Y-133370765D01*
X131505726Y-133438604D01*
X131771821Y-133538481D01*
X132050627Y-133484289D01*
X132307604Y-133279602D01*
X132382358Y-133188472D01*
X132498004Y-133008943D01*
X132511690Y-132861547D01*
X132436982Y-132683813D01*
X132267996Y-132502819D01*
X132000698Y-132408584D01*
X131708196Y-132444856D01*
X131688777Y-132452488D01*
X131421645Y-132628209D01*
X131281168Y-132864970D01*
X131278833Y-133125060D01*
X130695620Y-133125060D01*
X130676725Y-132915974D01*
X130788437Y-132646114D01*
X130801656Y-132628530D01*
X130899585Y-132467684D01*
X130865546Y-132382227D01*
X130685296Y-132328272D01*
X130500006Y-132267942D01*
X130283130Y-132146839D01*
X130229776Y-132096953D01*
X130230776Y-132059908D01*
X130313666Y-132037718D01*
X130500288Y-132027930D01*
X130812484Y-132028092D01*
X131272096Y-132035748D01*
X131397690Y-132038490D01*
X131919644Y-132060686D01*
X132305062Y-132105115D01*
X132580961Y-132182263D01*
X132774358Y-132302619D01*
X132912271Y-132476670D01*
X133021715Y-132714902D01*
X133069116Y-132861547D01*
X133079384Y-132893313D01*
G37*
%TD*%
M02*
