M48
; DRILL file {KiCad 8.0.6} date 2024-11-07T12:24:47-0500
; FORMAT={-:-/ absolute / inch / decimal}
; #@! TF.CreationDate,2024-11-07T12:24:47-05:00
; #@! TF.GenerationSoftware,Kicad,Pcbnew,8.0.6
; #@! TF.FileFunction,Plated,1,2,PTH
FMAT,2
INCH
; #@! TA.AperFunction,Plated,PTH,ComponentDrill
T1C0.0010
; #@! TA.AperFunction,Plated,PTH,ComponentDrill
T2C0.0079
; #@! TA.AperFunction,Plated,PTH,ViaDrill
T3C0.0118
; #@! TA.AperFunction,Plated,PTH,ComponentDrill
T4C0.0160
; #@! TA.AperFunction,Plated,PTH,ComponentDrill
T5C0.0300
; #@! TA.AperFunction,Plated,PTH,ViaDrill
T6C0.0394
; #@! TA.AperFunction,Plated,PTH,ComponentDrill
T7C0.0394
; #@! TA.AperFunction,Plated,PTH,ComponentDrill
T8C0.0400
%
G90
G05
T1
X4.4706Y-4.0281
X4.4706Y-4.3687
X4.6038Y-4.0281
X4.6038Y-4.3687
T2
X6.6992Y-5.0935
X6.6992Y-5.1526
X6.7287Y-5.064
X6.7287Y-5.123
X6.7287Y-5.1821
X6.7583Y-5.0935
X6.7583Y-5.1526
X6.7878Y-5.064
X6.7878Y-5.123
X6.7878Y-5.1821
X6.8173Y-5.0935
X6.8173Y-5.1526
T3
X5.0689Y-4.4094
X5.8265Y-4.6847
X5.9323Y-4.6134
X5.935Y-4.6959
X5.9547Y-4.667
X5.9548Y-4.6355
X6.1417Y-4.9705
X6.2844Y-4.7293
X6.3384Y-5.1967
X6.3386Y-5.0467
X6.3386Y-5.0967
X6.3386Y-5.1467
X6.3453Y-4.7571
X6.3484Y-4.6949
X6.4114Y-4.5472
X6.4429Y-4.5472
X6.4469Y-4.9311
X6.4744Y-4.5472
X6.5059Y-4.5472
X6.5059Y-4.9803
X6.5354Y-5.0197
X6.5443Y-4.5483
X6.579Y-4.5483
X6.6105Y-4.5472
X6.6437Y-4.5472
X6.7126Y-5.3839
X6.7421Y-5.4134
T4
X4.5893Y-4.0813
X4.5893Y-4.1147
X4.5893Y-4.1482
X4.5893Y-4.1817
X4.5893Y-4.2151
X4.5893Y-4.2486
X4.5893Y-4.2821
X4.5893Y-4.3155
X4.6424Y-4.0813
X4.6424Y-4.1147
X4.6424Y-4.1482
X4.6424Y-4.1817
X4.6424Y-4.2151
X4.6424Y-4.2486
X4.6424Y-4.2821
X4.6424Y-4.3155
T5
X5.1949Y-5.8455
X5.1949Y-5.9537
X6.752Y-4.2815
X6.8602Y-4.2815
T6
X4.5866Y-5.4921
X4.5866Y-5.6299
X5.6693Y-4.8524
X5.7972Y-5.4331
X5.7972Y-5.5315
X5.8957Y-5.5315
X5.8957Y-5.6299
X5.9875Y-5.6299
X6.939Y-5.0328
X6.939Y-5.1247
X6.939Y-5.2165
X6.939Y-5.3084
T7
X4.4783Y-5.0
X4.4783Y-5.1
X4.4783Y-5.2
T8
X5.0707Y-4.0154
X5.1707Y-4.0154
X5.2707Y-4.0154
X5.3707Y-4.0154
X5.4307Y-5.8154
X5.4307Y-5.9154
X5.4707Y-4.0154
X5.5307Y-5.8154
X5.5307Y-5.9154
X5.5707Y-4.0154
X5.6307Y-5.8154
X5.6307Y-5.9154
X5.6707Y-4.0154
X5.7307Y-5.8154
X5.7307Y-5.9154
X5.7707Y-4.0154
X5.8307Y-5.8154
X5.8307Y-5.9154
X5.8707Y-4.0154
X5.9307Y-5.8154
X5.9307Y-5.9154
X5.9707Y-4.0154
X6.0307Y-5.8154
X6.0307Y-5.9154
X6.1307Y-4.0154
X6.1307Y-4.1154
X6.1307Y-5.8154
X6.1307Y-5.9154
X6.2307Y-4.0154
X6.2307Y-4.1154
X6.3307Y-4.0154
X6.3307Y-4.1154
X6.3307Y-5.8154
X6.3307Y-5.9154
X6.4307Y-4.0154
X6.4307Y-4.1154
X6.4307Y-5.8154
X6.4307Y-5.9154
X6.5307Y-4.0154
X6.5307Y-4.1154
X6.5307Y-5.8154
X6.5307Y-5.9154
X6.6307Y-4.0154
X6.6307Y-5.8154
X6.6307Y-5.9154
X6.7307Y-4.0154
X6.7307Y-5.8154
X6.7307Y-5.9154
X6.8307Y-4.0154
X6.8307Y-5.9154
T7
G00X4.626Y-4.6752
M15
G01X4.626Y-4.5965
M16
G05
G00X4.7835Y-4.8209
M15
G01X4.7047Y-4.8209
M16
G05
G00X4.8622Y-4.685
M15
G01X4.8622Y-4.5866
M16
G05
M30
