%TF.GenerationSoftware,KiCad,Pcbnew,8.0.4*%
%TF.CreationDate,2024-08-03T03:01:37-04:00*%
%TF.ProjectId,esp32-node-board-40x65_telemetry,65737033-322d-46e6-9f64-652d626f6172,rev?*%
%TF.SameCoordinates,Original*%
%TF.FileFunction,Copper,L2,Bot*%
%TF.FilePolarity,Positive*%
%FSLAX46Y46*%
G04 Gerber Fmt 4.6, Leading zero omitted, Abs format (unit mm)*
G04 Created by KiCad (PCBNEW 8.0.4) date 2024-08-03 03:01:38*
%MOMM*%
%LPD*%
G01*
G04 APERTURE LIST*
G04 Aperture macros list*
%AMRoundRect*
0 Rectangle with rounded corners*
0 $1 Rounding radius*
0 $2 $3 $4 $5 $6 $7 $8 $9 X,Y pos of 4 corners*
0 Add a 4 corners polygon primitive as box body*
4,1,4,$2,$3,$4,$5,$6,$7,$8,$9,$2,$3,0*
0 Add four circle primitives for the rounded corners*
1,1,$1+$1,$2,$3*
1,1,$1+$1,$4,$5*
1,1,$1+$1,$6,$7*
1,1,$1+$1,$8,$9*
0 Add four rect primitives between the rounded corners*
20,1,$1+$1,$2,$3,$4,$5,0*
20,1,$1+$1,$4,$5,$6,$7,0*
20,1,$1+$1,$6,$7,$8,$9,0*
20,1,$1+$1,$8,$9,$2,$3,0*%
G04 Aperture macros list end*
%TA.AperFunction,ComponentPad*%
%ADD10R,1.200000X1.200000*%
%TD*%
%TA.AperFunction,ComponentPad*%
%ADD11C,1.200000*%
%TD*%
%TA.AperFunction,ComponentPad*%
%ADD12C,5.000000*%
%TD*%
%TA.AperFunction,ComponentPad*%
%ADD13R,1.700000X1.700000*%
%TD*%
%TA.AperFunction,ComponentPad*%
%ADD14R,1.524000X1.524000*%
%TD*%
%TA.AperFunction,ComponentPad*%
%ADD15C,1.524000*%
%TD*%
%TA.AperFunction,ComponentPad*%
%ADD16R,1.500000X1.500000*%
%TD*%
%TA.AperFunction,ComponentPad*%
%ADD17C,1.600000*%
%TD*%
%TA.AperFunction,ComponentPad*%
%ADD18O,1.700000X1.700000*%
%TD*%
%TA.AperFunction,SMDPad,CuDef*%
%ADD19RoundRect,0.250000X0.400000X0.625000X-0.400000X0.625000X-0.400000X-0.625000X0.400000X-0.625000X0*%
%TD*%
%TA.AperFunction,SMDPad,CuDef*%
%ADD20C,2.500000*%
%TD*%
%TA.AperFunction,SMDPad,CuDef*%
%ADD21RoundRect,0.250000X-0.625000X0.400000X-0.625000X-0.400000X0.625000X-0.400000X0.625000X0.400000X0*%
%TD*%
%TA.AperFunction,ViaPad*%
%ADD22C,0.800000*%
%TD*%
%TA.AperFunction,Conductor*%
%ADD23C,0.500000*%
%TD*%
%TA.AperFunction,Conductor*%
%ADD24C,0.800000*%
%TD*%
%TA.AperFunction,Conductor*%
%ADD25C,0.250000*%
%TD*%
G04 APERTURE END LIST*
D10*
%TO.P,C2,1*%
%TO.N,+5V*%
X131200000Y-112850000D03*
D11*
%TO.P,C2,2*%
%TO.N,GND*%
X129200000Y-112850000D03*
%TD*%
D12*
%TO.P,H1,1,GND*%
%TO.N,GND*%
X82875002Y-84570000D03*
%TO.P,H1,2,GND*%
X82875002Y-118570000D03*
%TO.P,H1,3,GND*%
X141875002Y-118570000D03*
%TO.P,H1,4,GND*%
X141875002Y-84570000D03*
%TD*%
D13*
%TO.P,J8,1,Pin_1*%
%TO.N,Net-(J8-Pin_1)*%
X101742356Y-85650000D03*
%TD*%
D10*
%TO.P,C1,1*%
%TO.N,/VIN*%
X131200000Y-97050000D03*
D11*
%TO.P,C1,2*%
%TO.N,GND*%
X129200000Y-97050000D03*
%TD*%
D14*
%TO.P,J3,GND,GND*%
%TO.N,GND*%
X84300000Y-111130000D03*
D15*
%TO.P,J3,SCL,SCL*%
%TO.N,/SCL-2*%
X84300000Y-103510000D03*
%TO.P,J3,SDA,SDA*%
%TO.N,/SDA-2*%
X84300000Y-106050000D03*
%TO.P,J3,Vcc,VCC*%
%TO.N,+3V3*%
X84300000Y-108590000D03*
%TD*%
D13*
%TO.P,J12,1,Pin_1*%
%TO.N,Net-(J12-Pin_1)*%
X83900000Y-90950000D03*
%TD*%
D16*
%TO.P,SW1,1,COM*%
%TO.N,/VIN*%
X141000000Y-94290000D03*
D17*
%TO.P,SW1,2,A*%
%TO.N,unconnected-(SW1-A-Pad2)*%
X141000000Y-91750000D03*
%TO.P,SW1,3,B*%
%TO.N,/VDC*%
X141000000Y-96830000D03*
%TD*%
D13*
%TO.P,J6,1,Pin_1*%
%TO.N,Net-(J6-Pin_1)*%
X127700000Y-85650000D03*
%TD*%
D15*
%TO.P,J5,CSB,CSB*%
%TO.N,/SPI-CSB*%
X96900000Y-98490000D03*
%TO.P,J5,GND,GND*%
%TO.N,GND*%
X96900000Y-106110000D03*
%TO.P,J5,SCL,SCL*%
%TO.N,/SPI-SCL*%
X96900000Y-103570000D03*
%TO.P,J5,SDA,SDA*%
%TO.N,/SPI-SDA*%
X96900000Y-101030000D03*
%TO.P,J5,SDO,SDO*%
%TO.N,/SPI-SDO*%
X96900000Y-95950000D03*
D14*
%TO.P,J5,Vcc,VCC*%
%TO.N,+3V3*%
X96900000Y-108650000D03*
%TD*%
D13*
%TO.P,J9,1,CLK*%
%TO.N,/CLK*%
X135480000Y-92150000D03*
D18*
%TO.P,J9,2,D0*%
%TO.N,/D0*%
X132940000Y-92150000D03*
%TO.P,J9,3,D1*%
%TO.N,/D1*%
X130400000Y-92150000D03*
%TO.P,J9,4,15*%
%TO.N,/PIN-4*%
X127860000Y-92150000D03*
%TO.P,J9,5,2*%
%TO.N,/PIN-5*%
X125320000Y-92150000D03*
%TO.P,J9,6,0*%
%TO.N,/PIN-6*%
X122780000Y-92150000D03*
%TO.P,J9,7,4*%
%TO.N,/PIN-7*%
X120240000Y-92150000D03*
%TO.P,J9,8,16*%
%TO.N,/PIN-8*%
X117700000Y-92150000D03*
%TO.P,J9,9,17*%
%TO.N,/PIN-9*%
X115160000Y-92150000D03*
%TO.P,J9,10,5*%
%TO.N,/SPI-CSB*%
X112620000Y-92150000D03*
%TO.P,J9,11,18*%
%TO.N,/SPI-SCL*%
X110080000Y-92150000D03*
%TO.P,J9,12,19*%
%TO.N,/SPI-SDO*%
X107540000Y-92150000D03*
%TO.P,J9,13,GND*%
%TO.N,GND*%
X105000000Y-92150000D03*
%TO.P,J9,14,21*%
%TO.N,/SDA-2*%
X102460000Y-92150000D03*
%TO.P,J9,15,RX*%
%TO.N,/RX*%
X99920000Y-92150000D03*
%TO.P,J9,16,TX*%
%TO.N,/TX*%
X97380000Y-92150000D03*
%TO.P,J9,17,22*%
%TO.N,/SCL-2*%
X94840000Y-92150000D03*
%TO.P,J9,18,23*%
%TO.N,/SPI-SDA*%
X92300000Y-92150000D03*
%TO.P,J9,19,GND*%
%TO.N,GND*%
X89760000Y-92150000D03*
%TO.P,J9,20,3V3*%
%TO.N,+3V3*%
X89760000Y-117550000D03*
%TO.P,J9,21,EN*%
%TO.N,/EN*%
X92300000Y-117550000D03*
%TO.P,J9,22,VN*%
%TO.N,/VN*%
X94840000Y-117550000D03*
%TO.P,J9,23,VP*%
%TO.N,/VP*%
X97380000Y-117550000D03*
%TO.P,J9,24,34*%
%TO.N,/PIN-24*%
X99920000Y-117550000D03*
%TO.P,J9,25,35*%
%TO.N,/PIN-25*%
X102460000Y-117550000D03*
%TO.P,J9,26,32*%
%TO.N,/PIN-26*%
X105000000Y-117550000D03*
%TO.P,J9,27,33*%
%TO.N,/PIN-27*%
X107540000Y-117550000D03*
%TO.P,J9,28,25*%
%TO.N,/PIN-28*%
X110080000Y-117550000D03*
%TO.P,J9,29,26*%
%TO.N,/PIN-29*%
X112620000Y-117550000D03*
%TO.P,J9,30,27*%
%TO.N,/PIN-30*%
X115160000Y-117550000D03*
%TO.P,J9,31,14*%
%TO.N,/PIN-31*%
X117700000Y-117550000D03*
%TO.P,J9,32,12*%
%TO.N,/PIN-32*%
X120240000Y-117550000D03*
%TO.P,J9,33,GND*%
%TO.N,GND*%
X122780000Y-117550000D03*
%TO.P,J9,34,13*%
%TO.N,/PIN-34*%
X125320000Y-117550000D03*
%TO.P,J9,35,D2*%
%TO.N,/D2*%
X127860000Y-117550000D03*
%TO.P,J9,36,D3*%
%TO.N,/D3*%
X130400000Y-117550000D03*
%TO.P,J9,37,CMD*%
%TO.N,/CMD*%
X132940000Y-117550000D03*
%TO.P,J9,38,5V*%
%TO.N,+5V*%
X135370000Y-117550000D03*
%TD*%
D13*
%TO.P,J7,1,Pin_1*%
%TO.N,Net-(J7-Pin_1)*%
X114684712Y-85650000D03*
%TD*%
%TO.P,J11,1,Pin_1*%
%TO.N,Net-(J11-Pin_1)*%
X88800000Y-85650000D03*
%TD*%
%TO.P,J1,1,Pin_1*%
%TO.N,GND*%
X141075000Y-112117500D03*
D18*
%TO.P,J1,2,Pin_2*%
%TO.N,Net-(D1-A)*%
X141075000Y-109577500D03*
%TD*%
D19*
%TO.P,R5,1*%
%TO.N,Net-(D6-AB)*%
X85350000Y-97150000D03*
%TO.P,R5,2*%
%TO.N,Net-(J12-Pin_1)*%
X82250000Y-97150000D03*
%TD*%
D20*
%TO.P,J16,1,Pin_1*%
%TO.N,/PIN-5*%
X123700000Y-101450000D03*
%TD*%
%TO.P,J32,1,Pin_1*%
%TO.N,/PIN-26*%
X110700000Y-105850000D03*
%TD*%
%TO.P,J19,1,Pin_1*%
%TO.N,/PIN-34*%
X124900000Y-112650000D03*
%TD*%
%TO.P,J17,1,Pin_1*%
%TO.N,/PIN-6*%
X120700000Y-97750000D03*
%TD*%
D21*
%TO.P,R1,1*%
%TO.N,Net-(D2-AB)*%
X134098251Y-84100000D03*
%TO.P,R1,2*%
%TO.N,Net-(J6-Pin_1)*%
X134098251Y-87200000D03*
%TD*%
D20*
%TO.P,J33,1,Pin_1*%
%TO.N,/PIN-27*%
X110200000Y-112150000D03*
%TD*%
%TO.P,J37,1,Pin_1*%
%TO.N,/PIN-7*%
X121000000Y-104950000D03*
%TD*%
%TO.P,TP2,1,1*%
%TO.N,+5V*%
X137200000Y-110850000D03*
%TD*%
%TO.P,J31,1,Pin_1*%
%TO.N,/PIN-25*%
X107500000Y-108250000D03*
%TD*%
%TO.P,J21,1,Pin_1*%
%TO.N,/CMD*%
X133700000Y-106950000D03*
%TD*%
%TO.P,J29,1,Pin_1*%
%TO.N,/PIN-9*%
X114500000Y-100150000D03*
%TD*%
%TO.P,J34,1,Pin_1*%
%TO.N,/PIN-28*%
X114500000Y-104550000D03*
%TD*%
%TO.P,J30,1,Pin_1*%
%TO.N,/PIN-24*%
X102500000Y-112350000D03*
%TD*%
%TO.P,J36,1,Pin_1*%
%TO.N,/PIN-30*%
X117400000Y-107650000D03*
%TD*%
%TO.P,J24,1,Pin_1*%
%TO.N,/D2*%
X124900000Y-106950000D03*
%TD*%
D21*
%TO.P,R2,1*%
%TO.N,Net-(D3-AB)*%
X121155890Y-84100000D03*
%TO.P,R2,2*%
%TO.N,Net-(J7-Pin_1)*%
X121155890Y-87200000D03*
%TD*%
D20*
%TO.P,J4,1,Pin_1*%
%TO.N,/PIN-4*%
X125700000Y-96250000D03*
%TD*%
%TO.P,J35,1,Pin_1*%
%TO.N,/PIN-29*%
X114700000Y-110750000D03*
%TD*%
D21*
%TO.P,R4,1*%
%TO.N,Net-(D5-AB)*%
X95271178Y-84100000D03*
%TO.P,R4,2*%
%TO.N,Net-(J11-Pin_1)*%
X95271178Y-87200000D03*
%TD*%
%TO.P,R3,1*%
%TO.N,Net-(D4-AB)*%
X108213534Y-84100000D03*
%TO.P,R3,2*%
%TO.N,Net-(J8-Pin_1)*%
X108213534Y-87200000D03*
%TD*%
D20*
%TO.P,J18,1,Pin_1*%
%TO.N,/PIN-32*%
X120300000Y-112650000D03*
%TD*%
%TO.P,J23,1,Pin_1*%
%TO.N,/D1*%
X127900000Y-101450000D03*
%TD*%
%TO.P,J22,1,Pin_1*%
%TO.N,/D0*%
X133600000Y-101450000D03*
%TD*%
%TO.P,J26,1,Pin_1*%
%TO.N,/PIN-31*%
X121600000Y-109050000D03*
%TD*%
%TO.P,J28,1,Pin_1*%
%TO.N,/PIN-8*%
X118000000Y-102450000D03*
%TD*%
%TO.P,TP1,1,1*%
%TO.N,GND*%
X138500000Y-103450000D03*
%TD*%
%TO.P,J20,1,Pin_1*%
%TO.N,/CLK*%
X136500000Y-97750000D03*
%TD*%
%TO.P,J25,1,Pin_1*%
%TO.N,/D3*%
X129100000Y-106950000D03*
%TD*%
D22*
%TO.N,Net-(D2-AB)*%
X134098251Y-84100000D03*
%TO.N,Net-(D3-AB)*%
X121155890Y-84100000D03*
%TO.N,Net-(D4-AB)*%
X108213534Y-84100000D03*
%TO.N,Net-(D5-AB)*%
X95271178Y-84100000D03*
%TO.N,Net-(D6-AB)*%
X85350000Y-97150000D03*
%TD*%
D23*
%TO.N,+5V*%
X135370000Y-117550000D02*
X135370000Y-112680000D01*
X135370000Y-112680000D02*
X137200000Y-110850000D01*
D24*
%TO.N,Net-(D1-A)*%
X141040000Y-109570000D02*
X142000000Y-108610000D01*
X142000000Y-108610000D02*
X142000000Y-104650000D01*
%TO.N,/VDC*%
X141000000Y-99000000D02*
X142000000Y-100000000D01*
X142000000Y-100000000D02*
X142000000Y-101850000D01*
X141000000Y-96790000D02*
X141000000Y-99000000D01*
D25*
%TO.N,/SPI-SDA*%
X92300000Y-92150000D02*
X92300000Y-93950000D01*
X95100000Y-94250000D02*
X95500000Y-94650000D01*
X92300000Y-93950000D02*
X92600000Y-94250000D01*
X92600000Y-94250000D02*
X95100000Y-94250000D01*
X95500000Y-94650000D02*
X95500000Y-99630000D01*
X95500000Y-99630000D02*
X96900000Y-101030000D01*
%TO.N,Net-(J8-Pin_1)*%
X103292356Y-87200000D02*
X101742356Y-85650000D01*
X108213534Y-87200000D02*
X103292356Y-87200000D01*
%TO.N,Net-(J6-Pin_1)*%
X129250000Y-87200000D02*
X127700000Y-85650000D01*
X134098251Y-87200000D02*
X129250000Y-87200000D01*
%TO.N,Net-(J7-Pin_1)*%
X121155890Y-87200000D02*
X116234712Y-87200000D01*
X116234712Y-87200000D02*
X114684712Y-85650000D01*
%TO.N,/PIN-8*%
X118000000Y-102450000D02*
X117700000Y-102150000D01*
X117700000Y-102150000D02*
X117700000Y-92150000D01*
%TO.N,/PIN-24*%
X99920000Y-117550000D02*
X99920000Y-114930000D01*
X99920000Y-114930000D02*
X102500000Y-112350000D01*
%TO.N,/PIN-9*%
X117250000Y-97400000D02*
X117250000Y-96000000D01*
X115160000Y-93910000D02*
X115160000Y-92150000D01*
X114500000Y-100150000D02*
X117250000Y-97400000D01*
X117250000Y-96000000D02*
X115160000Y-93910000D01*
%TO.N,/PIN-30*%
X115160000Y-116090000D02*
X117250000Y-114000000D01*
X115160000Y-117550000D02*
X115160000Y-116090000D01*
X117250000Y-111863604D02*
X117400000Y-111713604D01*
X117400000Y-111713604D02*
X117400000Y-107650000D01*
X117250000Y-114000000D02*
X117250000Y-111863604D01*
%TO.N,/PIN-25*%
X102460000Y-115890000D02*
X107500000Y-110850000D01*
X102460000Y-117550000D02*
X102460000Y-115890000D01*
X107500000Y-110850000D02*
X107500000Y-108250000D01*
%TO.N,/PIN-28*%
X112400000Y-113350000D02*
X112400000Y-109350000D01*
X114500000Y-107250000D02*
X114500000Y-104550000D01*
X110080000Y-115670000D02*
X112400000Y-113350000D01*
X112400000Y-109350000D02*
X114500000Y-107250000D01*
X110080000Y-117550000D02*
X110080000Y-115670000D01*
%TO.N,/PIN-27*%
X107540000Y-117550000D02*
X107540000Y-114810000D01*
X107540000Y-114810000D02*
X110200000Y-112150000D01*
%TO.N,/PIN-34*%
X124900000Y-112650000D02*
X124900000Y-114750000D01*
X125320000Y-115170000D02*
X125320000Y-117550000D01*
X124900000Y-114750000D02*
X125320000Y-115170000D01*
%TO.N,Net-(J11-Pin_1)*%
X90350000Y-87200000D02*
X88800000Y-85650000D01*
X95271178Y-87200000D02*
X90350000Y-87200000D01*
%TO.N,Net-(J12-Pin_1)*%
X82250000Y-92600000D02*
X83900000Y-90950000D01*
X82250000Y-97150000D02*
X82250000Y-92600000D01*
%TO.N,/D1*%
X130400000Y-93250000D02*
X133150000Y-96000000D01*
X130400000Y-92150000D02*
X130400000Y-93250000D01*
X133150000Y-98200000D02*
X129900000Y-101450000D01*
X133150000Y-96000000D02*
X133150000Y-98200000D01*
X129900000Y-101450000D02*
X127900000Y-101450000D01*
%TO.N,/D3*%
X131500000Y-109350000D02*
X129100000Y-106950000D01*
X132500000Y-109350000D02*
X131500000Y-109350000D01*
X133250000Y-110100000D02*
X132500000Y-109350000D01*
X133250000Y-114700000D02*
X133250000Y-110100000D01*
X130400000Y-117550000D02*
X133250000Y-114700000D01*
%TO.N,/D0*%
X132940000Y-92150000D02*
X132940000Y-95153604D01*
X132940000Y-95153604D02*
X133600000Y-95813604D01*
X133600000Y-95813604D02*
X133600000Y-101450000D01*
%TO.N,/CLK*%
X135480000Y-93930000D02*
X136500000Y-94950000D01*
X136500000Y-94950000D02*
X136500000Y-97750000D01*
X135480000Y-92150000D02*
X135480000Y-93930000D01*
%TO.N,/CMD*%
X133700000Y-114950000D02*
X133700000Y-106950000D01*
X132940000Y-115710000D02*
X133700000Y-114950000D01*
X132940000Y-117550000D02*
X132940000Y-115710000D01*
%TO.N,/D2*%
X131313604Y-109800000D02*
X130863604Y-109350000D01*
X130863604Y-109350000D02*
X127300000Y-109350000D01*
X132800000Y-110286396D02*
X132313604Y-109800000D01*
X132800000Y-114513604D02*
X132800000Y-110286396D01*
X127300000Y-109350000D02*
X124900000Y-106950000D01*
X127860000Y-117550000D02*
X127860000Y-116090000D01*
X127860000Y-116090000D02*
X128500000Y-115450000D01*
X128500000Y-115450000D02*
X131863604Y-115450000D01*
X131863604Y-115450000D02*
X132800000Y-114513604D01*
X132313604Y-109800000D02*
X131313604Y-109800000D01*
%TO.N,/PIN-4*%
X127860000Y-92150000D02*
X127860000Y-94090000D01*
X127860000Y-94090000D02*
X125700000Y-96250000D01*
%TO.N,/PIN-26*%
X105000000Y-117550000D02*
X105000000Y-115150000D01*
X108100000Y-112050000D02*
X108100000Y-110850000D01*
X110700000Y-108250000D02*
X110700000Y-105850000D01*
X108100000Y-110850000D02*
X110700000Y-108250000D01*
X105000000Y-115150000D02*
X108100000Y-112050000D01*
%TO.N,/PIN-29*%
X114700000Y-113650000D02*
X114700000Y-110750000D01*
X112620000Y-117550000D02*
X112620000Y-115730000D01*
X112620000Y-115730000D02*
X114700000Y-113650000D01*
%TO.N,/PIN-31*%
X119200000Y-110550000D02*
X120100000Y-110550000D01*
X117700000Y-112050000D02*
X119200000Y-110550000D01*
X120100000Y-110550000D02*
X121600000Y-109050000D01*
X117700000Y-117550000D02*
X117700000Y-112050000D01*
%TO.N,/PIN-6*%
X122780000Y-95670000D02*
X120700000Y-97750000D01*
X122780000Y-92150000D02*
X122780000Y-95670000D01*
%TO.N,/PIN-32*%
X120240000Y-117550000D02*
X120240000Y-112710000D01*
X120240000Y-112710000D02*
X120300000Y-112650000D01*
%TO.N,/PIN-7*%
X120240000Y-94210000D02*
X120240000Y-92150000D01*
X118200000Y-96250000D02*
X120240000Y-94210000D01*
X121000000Y-101750000D02*
X118200000Y-98950000D01*
X118200000Y-98950000D02*
X118200000Y-96250000D01*
X121000000Y-104950000D02*
X121000000Y-101750000D01*
%TO.N,/PIN-5*%
X123700000Y-101450000D02*
X123700000Y-93770000D01*
X123700000Y-93770000D02*
X125320000Y-92150000D01*
%TD*%
%TA.AperFunction,Conductor*%
%TO.N,GND*%
G36*
X140248844Y-81840185D02*
G01*
X140294599Y-81892989D01*
X140304543Y-81962147D01*
X140275518Y-82025703D01*
X140249944Y-82048100D01*
X140080487Y-82159553D01*
X139937821Y-82279264D01*
X139937820Y-82279265D01*
X140789415Y-83130860D01*
X140822900Y-83192183D01*
X140817916Y-83261875D01*
X140786076Y-83309439D01*
X140651260Y-83434529D01*
X140651258Y-83434532D01*
X140620077Y-83473632D01*
X140562888Y-83513772D01*
X140493077Y-83516622D01*
X140435449Y-83484000D01*
X139581150Y-82629701D01*
X139581149Y-82629702D01*
X139572978Y-82638363D01*
X139572974Y-82638368D01*
X139364291Y-82918677D01*
X139189563Y-83221316D01*
X139189557Y-83221329D01*
X139051147Y-83542199D01*
X138950918Y-83876988D01*
X138950916Y-83876997D01*
X138890238Y-84221119D01*
X138890237Y-84221130D01*
X138869918Y-84569996D01*
X138869918Y-84570003D01*
X138890237Y-84918869D01*
X138890238Y-84918880D01*
X138950916Y-85263002D01*
X138950918Y-85263011D01*
X139051147Y-85597800D01*
X139189557Y-85918670D01*
X139189563Y-85918683D01*
X139364291Y-86221322D01*
X139572969Y-86501625D01*
X139581150Y-86510296D01*
X140435448Y-85655999D01*
X140496771Y-85622514D01*
X140566463Y-85627498D01*
X140620075Y-85666366D01*
X140651260Y-85705471D01*
X140786074Y-85830559D01*
X140821829Y-85890588D01*
X140819454Y-85960417D01*
X140789414Y-86009139D01*
X139937820Y-86860732D01*
X139937821Y-86860734D01*
X140080486Y-86980445D01*
X140372463Y-87172480D01*
X140684741Y-87329314D01*
X140684747Y-87329316D01*
X141013132Y-87448838D01*
X141013135Y-87448839D01*
X141353173Y-87529429D01*
X141700278Y-87569999D01*
X141700279Y-87570000D01*
X142049725Y-87570000D01*
X142049725Y-87569999D01*
X142396829Y-87529429D01*
X142396831Y-87529429D01*
X142736868Y-87448839D01*
X142736871Y-87448838D01*
X143065256Y-87329316D01*
X143065262Y-87329314D01*
X143377540Y-87172480D01*
X143669511Y-86980449D01*
X143669512Y-86980448D01*
X143812181Y-86860734D01*
X143812182Y-86860733D01*
X142960589Y-86009140D01*
X142927104Y-85947817D01*
X142932088Y-85878125D01*
X142963929Y-85830560D01*
X143002740Y-85794548D01*
X143098746Y-85705468D01*
X143129926Y-85666368D01*
X143187114Y-85626228D01*
X143256926Y-85623378D01*
X143314555Y-85656000D01*
X144168852Y-86510297D01*
X144168853Y-86510296D01*
X144177024Y-86501636D01*
X144177035Y-86501623D01*
X144385712Y-86221322D01*
X144393114Y-86208502D01*
X144443680Y-86160286D01*
X144512286Y-86147061D01*
X144577152Y-86173028D01*
X144617681Y-86229941D01*
X144624502Y-86270500D01*
X144624502Y-116869499D01*
X144604817Y-116936538D01*
X144552013Y-116982293D01*
X144482855Y-116992237D01*
X144419299Y-116963212D01*
X144393115Y-116931500D01*
X144385709Y-116918674D01*
X144177034Y-116638374D01*
X144168852Y-116629702D01*
X143314554Y-117483999D01*
X143253231Y-117517484D01*
X143183539Y-117512500D01*
X143129926Y-117473631D01*
X143098742Y-117434527D01*
X142963928Y-117309439D01*
X142928173Y-117249410D01*
X142930548Y-117179581D01*
X142960588Y-117130859D01*
X143812182Y-116279265D01*
X143812181Y-116279264D01*
X143669521Y-116159557D01*
X143377540Y-115967519D01*
X143065262Y-115810685D01*
X143065256Y-115810683D01*
X142736871Y-115691161D01*
X142736868Y-115691160D01*
X142396830Y-115610570D01*
X142049725Y-115570000D01*
X141700279Y-115570000D01*
X141353174Y-115610570D01*
X141353172Y-115610570D01*
X141013135Y-115691160D01*
X141013132Y-115691161D01*
X140684747Y-115810683D01*
X140684741Y-115810685D01*
X140372463Y-115967519D01*
X140080482Y-116159557D01*
X139937821Y-116279264D01*
X139937820Y-116279265D01*
X140789415Y-117130860D01*
X140822900Y-117192183D01*
X140817916Y-117261875D01*
X140786076Y-117309439D01*
X140651260Y-117434529D01*
X140651258Y-117434532D01*
X140620077Y-117473632D01*
X140562888Y-117513772D01*
X140493077Y-117516622D01*
X140435449Y-117484000D01*
X139581150Y-116629701D01*
X139581149Y-116629702D01*
X139572978Y-116638363D01*
X139572974Y-116638368D01*
X139364291Y-116918677D01*
X139189563Y-117221316D01*
X139189557Y-117221329D01*
X139051147Y-117542199D01*
X138950918Y-117876988D01*
X138950916Y-117876997D01*
X138890238Y-118221119D01*
X138890237Y-118221130D01*
X138869918Y-118569996D01*
X138869918Y-118570003D01*
X138890237Y-118918869D01*
X138890238Y-118918880D01*
X138950916Y-119263002D01*
X138950918Y-119263011D01*
X139051147Y-119597800D01*
X139189557Y-119918670D01*
X139189563Y-119918683D01*
X139364291Y-120221322D01*
X139572969Y-120501625D01*
X139581150Y-120510296D01*
X140435448Y-119655999D01*
X140496771Y-119622514D01*
X140566463Y-119627498D01*
X140620075Y-119666366D01*
X140651260Y-119705471D01*
X140786074Y-119830559D01*
X140821829Y-119890588D01*
X140819454Y-119960417D01*
X140789414Y-120009139D01*
X139937820Y-120860732D01*
X139937821Y-120860734D01*
X140080486Y-120980445D01*
X140249944Y-121091899D01*
X140295138Y-121145184D01*
X140304349Y-121214444D01*
X140274654Y-121277689D01*
X140215480Y-121314840D01*
X140181805Y-121319500D01*
X84568199Y-121319500D01*
X84501160Y-121299815D01*
X84455405Y-121247011D01*
X84445461Y-121177853D01*
X84474486Y-121114297D01*
X84500060Y-121091899D01*
X84669511Y-120980449D01*
X84669512Y-120980448D01*
X84812181Y-120860734D01*
X84812182Y-120860733D01*
X83960589Y-120009140D01*
X83927104Y-119947817D01*
X83932088Y-119878125D01*
X83963929Y-119830560D01*
X84065329Y-119736474D01*
X84098746Y-119705468D01*
X84129926Y-119666368D01*
X84187114Y-119626228D01*
X84256926Y-119623378D01*
X84314555Y-119656000D01*
X85168852Y-120510297D01*
X85168853Y-120510296D01*
X85177024Y-120501636D01*
X85177035Y-120501623D01*
X85385712Y-120221322D01*
X85560440Y-119918683D01*
X85560446Y-119918670D01*
X85698856Y-119597800D01*
X85799085Y-119263011D01*
X85799087Y-119263002D01*
X85859765Y-118918880D01*
X85859766Y-118918869D01*
X85880086Y-118570003D01*
X85880086Y-118569996D01*
X85859766Y-118221130D01*
X85859765Y-118221119D01*
X85799087Y-117876997D01*
X85799085Y-117876988D01*
X85701191Y-117550000D01*
X88604571Y-117550000D01*
X88624244Y-117762310D01*
X88677675Y-117950099D01*
X88682596Y-117967392D01*
X88682596Y-117967394D01*
X88777632Y-118158253D01*
X88900679Y-118321192D01*
X88906128Y-118328407D01*
X89063698Y-118472052D01*
X89244981Y-118584298D01*
X89443802Y-118661321D01*
X89653390Y-118700500D01*
X89653392Y-118700500D01*
X89866608Y-118700500D01*
X89866610Y-118700500D01*
X90076198Y-118661321D01*
X90275019Y-118584298D01*
X90456302Y-118472052D01*
X90613872Y-118328407D01*
X90742366Y-118158255D01*
X90796270Y-118050000D01*
X90837403Y-117967394D01*
X90837403Y-117967393D01*
X90837405Y-117967389D01*
X90895756Y-117762310D01*
X90906529Y-117646047D01*
X90932315Y-117581111D01*
X90974622Y-117550804D01*
X91083130Y-117550804D01*
X91119503Y-117571668D01*
X91151693Y-117633681D01*
X91153470Y-117646047D01*
X91164244Y-117762310D01*
X91217675Y-117950099D01*
X91222596Y-117967392D01*
X91222596Y-117967394D01*
X91317632Y-118158253D01*
X91440679Y-118321192D01*
X91446128Y-118328407D01*
X91603698Y-118472052D01*
X91784981Y-118584298D01*
X91983802Y-118661321D01*
X92193390Y-118700500D01*
X92193392Y-118700500D01*
X92406608Y-118700500D01*
X92406610Y-118700500D01*
X92616198Y-118661321D01*
X92815019Y-118584298D01*
X92996302Y-118472052D01*
X93153872Y-118328407D01*
X93282366Y-118158255D01*
X93336270Y-118050000D01*
X93377403Y-117967394D01*
X93377403Y-117967393D01*
X93377405Y-117967389D01*
X93435756Y-117762310D01*
X93446529Y-117646047D01*
X93472315Y-117581111D01*
X93514622Y-117550804D01*
X93623130Y-117550804D01*
X93659503Y-117571668D01*
X93691693Y-117633681D01*
X93693470Y-117646047D01*
X93704244Y-117762310D01*
X93757675Y-117950099D01*
X93762596Y-117967392D01*
X93762596Y-117967394D01*
X93857632Y-118158253D01*
X93980679Y-118321192D01*
X93986128Y-118328407D01*
X94143698Y-118472052D01*
X94324981Y-118584298D01*
X94523802Y-118661321D01*
X94733390Y-118700500D01*
X94733392Y-118700500D01*
X94946608Y-118700500D01*
X94946610Y-118700500D01*
X95156198Y-118661321D01*
X95355019Y-118584298D01*
X95536302Y-118472052D01*
X95693872Y-118328407D01*
X95822366Y-118158255D01*
X95876270Y-118050000D01*
X95917403Y-117967394D01*
X95917403Y-117967393D01*
X95917405Y-117967389D01*
X95975756Y-117762310D01*
X95986529Y-117646047D01*
X96012315Y-117581111D01*
X96054622Y-117550804D01*
X96163130Y-117550804D01*
X96199503Y-117571668D01*
X96231693Y-117633681D01*
X96233470Y-117646047D01*
X96244244Y-117762310D01*
X96297675Y-117950099D01*
X96302596Y-117967392D01*
X96302596Y-117967394D01*
X96397632Y-118158253D01*
X96520679Y-118321192D01*
X96526128Y-118328407D01*
X96683698Y-118472052D01*
X96864981Y-118584298D01*
X97063802Y-118661321D01*
X97273390Y-118700500D01*
X97273392Y-118700500D01*
X97486608Y-118700500D01*
X97486610Y-118700500D01*
X97696198Y-118661321D01*
X97895019Y-118584298D01*
X98076302Y-118472052D01*
X98233872Y-118328407D01*
X98362366Y-118158255D01*
X98416270Y-118050000D01*
X98457403Y-117967394D01*
X98457403Y-117967393D01*
X98457405Y-117967389D01*
X98515756Y-117762310D01*
X98526529Y-117646047D01*
X98552315Y-117581111D01*
X98594622Y-117550804D01*
X98703130Y-117550804D01*
X98739503Y-117571668D01*
X98771693Y-117633681D01*
X98773470Y-117646047D01*
X98784244Y-117762310D01*
X98837675Y-117950099D01*
X98842596Y-117967392D01*
X98842596Y-117967394D01*
X98937632Y-118158253D01*
X99060679Y-118321192D01*
X99066128Y-118328407D01*
X99223698Y-118472052D01*
X99404981Y-118584298D01*
X99603802Y-118661321D01*
X99813390Y-118700500D01*
X99813392Y-118700500D01*
X100026608Y-118700500D01*
X100026610Y-118700500D01*
X100236198Y-118661321D01*
X100435019Y-118584298D01*
X100616302Y-118472052D01*
X100773872Y-118328407D01*
X100902366Y-118158255D01*
X100956270Y-118050000D01*
X100997403Y-117967394D01*
X100997403Y-117967393D01*
X100997405Y-117967389D01*
X101055756Y-117762310D01*
X101066529Y-117646047D01*
X101092315Y-117581111D01*
X101134622Y-117550804D01*
X101243130Y-117550804D01*
X101279503Y-117571668D01*
X101311693Y-117633681D01*
X101313470Y-117646047D01*
X101324244Y-117762310D01*
X101377675Y-117950099D01*
X101382596Y-117967392D01*
X101382596Y-117967394D01*
X101477632Y-118158253D01*
X101600679Y-118321192D01*
X101606128Y-118328407D01*
X101763698Y-118472052D01*
X101944981Y-118584298D01*
X102143802Y-118661321D01*
X102353390Y-118700500D01*
X102353392Y-118700500D01*
X102566608Y-118700500D01*
X102566610Y-118700500D01*
X102776198Y-118661321D01*
X102975019Y-118584298D01*
X103156302Y-118472052D01*
X103313872Y-118328407D01*
X103442366Y-118158255D01*
X103496270Y-118050000D01*
X103537403Y-117967394D01*
X103537403Y-117967393D01*
X103537405Y-117967389D01*
X103595756Y-117762310D01*
X103606529Y-117646047D01*
X103632315Y-117581111D01*
X103676869Y-117549194D01*
X103640497Y-117528331D01*
X103608307Y-117466318D01*
X103606529Y-117453951D01*
X103605849Y-117446613D01*
X103595756Y-117337690D01*
X103537405Y-117132611D01*
X103537403Y-117132606D01*
X103537403Y-117132605D01*
X103442367Y-116941746D01*
X103313872Y-116771593D01*
X103291492Y-116751191D01*
X103156302Y-116627948D01*
X103105912Y-116596748D01*
X102975020Y-116515702D01*
X102975012Y-116515698D01*
X102964702Y-116511704D01*
X102909302Y-116469129D01*
X102885714Y-116403361D01*
X102885500Y-116396079D01*
X102885500Y-116117609D01*
X102905185Y-116050570D01*
X102921819Y-116029928D01*
X107462819Y-111488928D01*
X107524142Y-111455443D01*
X107593834Y-111460427D01*
X107649767Y-111502299D01*
X107674184Y-111567763D01*
X107674500Y-111576609D01*
X107674500Y-111822390D01*
X107654815Y-111889429D01*
X107638181Y-111910071D01*
X104659517Y-114888734D01*
X104659513Y-114888740D01*
X104603498Y-114985760D01*
X104603497Y-114985763D01*
X104574500Y-115093982D01*
X104574500Y-116396079D01*
X104554815Y-116463118D01*
X104502011Y-116508873D01*
X104495298Y-116511704D01*
X104484987Y-116515698D01*
X104484979Y-116515702D01*
X104303699Y-116627947D01*
X104146127Y-116771593D01*
X104017632Y-116941746D01*
X103922596Y-117132605D01*
X103922596Y-117132607D01*
X103864244Y-117337689D01*
X103853471Y-117453951D01*
X103827685Y-117518888D01*
X103783130Y-117550804D01*
X103819503Y-117571668D01*
X103851693Y-117633681D01*
X103853470Y-117646047D01*
X103864244Y-117762310D01*
X103917675Y-117950099D01*
X103922596Y-117967392D01*
X103922596Y-117967394D01*
X104017632Y-118158253D01*
X104140679Y-118321192D01*
X104146128Y-118328407D01*
X104303698Y-118472052D01*
X104484981Y-118584298D01*
X104683802Y-118661321D01*
X104893390Y-118700500D01*
X104893392Y-118700500D01*
X105106608Y-118700500D01*
X105106610Y-118700500D01*
X105316198Y-118661321D01*
X105515019Y-118584298D01*
X105696302Y-118472052D01*
X105853872Y-118328407D01*
X105982366Y-118158255D01*
X106036270Y-118050000D01*
X106077403Y-117967394D01*
X106077403Y-117967393D01*
X106077405Y-117967389D01*
X106135756Y-117762310D01*
X106146529Y-117646047D01*
X106172315Y-117581111D01*
X106216869Y-117549194D01*
X106180497Y-117528331D01*
X106148307Y-117466318D01*
X106146529Y-117453951D01*
X106145849Y-117446613D01*
X106135756Y-117337690D01*
X106077405Y-117132611D01*
X106077403Y-117132606D01*
X106077403Y-117132605D01*
X105982367Y-116941746D01*
X105853872Y-116771593D01*
X105831492Y-116751191D01*
X105696302Y-116627948D01*
X105645912Y-116596748D01*
X105515020Y-116515702D01*
X105515012Y-116515698D01*
X105504702Y-116511704D01*
X105449302Y-116469129D01*
X105425714Y-116403361D01*
X105425500Y-116396079D01*
X105425500Y-115377610D01*
X105445185Y-115310571D01*
X105461819Y-115289929D01*
X106937511Y-113814237D01*
X108440485Y-112311263D01*
X108440490Y-112311253D01*
X108440563Y-112311160D01*
X108440655Y-112311092D01*
X108446232Y-112305516D01*
X108447101Y-112306385D01*
X108496987Y-112269952D01*
X108566733Y-112265792D01*
X108627656Y-112299999D01*
X108660414Y-112361713D01*
X108662562Y-112376906D01*
X108663851Y-112393288D01*
X108663852Y-112393294D01*
X108720830Y-112630621D01*
X108720831Y-112630623D01*
X108805343Y-112834654D01*
X108812812Y-112904123D01*
X108781537Y-112966602D01*
X108778463Y-112969787D01*
X107278737Y-114469515D01*
X107199517Y-114548734D01*
X107199513Y-114548740D01*
X107143498Y-114645760D01*
X107143497Y-114645763D01*
X107114500Y-114753982D01*
X107114500Y-116396079D01*
X107094815Y-116463118D01*
X107042011Y-116508873D01*
X107035298Y-116511704D01*
X107024987Y-116515698D01*
X107024979Y-116515702D01*
X106843699Y-116627947D01*
X106686127Y-116771593D01*
X106557632Y-116941746D01*
X106462596Y-117132605D01*
X106462596Y-117132607D01*
X106404244Y-117337689D01*
X106393471Y-117453951D01*
X106367685Y-117518888D01*
X106323130Y-117550804D01*
X106359503Y-117571668D01*
X106391693Y-117633681D01*
X106393470Y-117646047D01*
X106404244Y-117762310D01*
X106457675Y-117950099D01*
X106462596Y-117967392D01*
X106462596Y-117967394D01*
X106557632Y-118158253D01*
X106680679Y-118321192D01*
X106686128Y-118328407D01*
X106843698Y-118472052D01*
X107024981Y-118584298D01*
X107223802Y-118661321D01*
X107433390Y-118700500D01*
X107433392Y-118700500D01*
X107646608Y-118700500D01*
X107646610Y-118700500D01*
X107856198Y-118661321D01*
X108055019Y-118584298D01*
X108236302Y-118472052D01*
X108393872Y-118328407D01*
X108522366Y-118158255D01*
X108576270Y-118050000D01*
X108617403Y-117967394D01*
X108617403Y-117967393D01*
X108617405Y-117967389D01*
X108675756Y-117762310D01*
X108686529Y-117646047D01*
X108712315Y-117581111D01*
X108756869Y-117549194D01*
X108720497Y-117528331D01*
X108688307Y-117466318D01*
X108686529Y-117453951D01*
X108685849Y-117446613D01*
X108675756Y-117337690D01*
X108617405Y-117132611D01*
X108617403Y-117132606D01*
X108617403Y-117132605D01*
X108522367Y-116941746D01*
X108393872Y-116771593D01*
X108371492Y-116751191D01*
X108236302Y-116627948D01*
X108185912Y-116596748D01*
X108055020Y-116515702D01*
X108055012Y-116515698D01*
X108044702Y-116511704D01*
X107989302Y-116469129D01*
X107965714Y-116403361D01*
X107965500Y-116396079D01*
X107965500Y-115037609D01*
X107985185Y-114970570D01*
X108001814Y-114949933D01*
X109380213Y-113571533D01*
X109441534Y-113538050D01*
X109511226Y-113543034D01*
X109515335Y-113544651D01*
X109562473Y-113564176D01*
X109719380Y-113629169D01*
X109719381Y-113629169D01*
X109719388Y-113629172D01*
X109956698Y-113686146D01*
X110200000Y-113705294D01*
X110443302Y-113686146D01*
X110680612Y-113629172D01*
X110906089Y-113535777D01*
X111114179Y-113408259D01*
X111299759Y-113249759D01*
X111458259Y-113064179D01*
X111585777Y-112856089D01*
X111679172Y-112630612D01*
X111729927Y-112419205D01*
X111764717Y-112358616D01*
X111826744Y-112326452D01*
X111896312Y-112332928D01*
X111951336Y-112375988D01*
X111974345Y-112441961D01*
X111974500Y-112448155D01*
X111974500Y-113122390D01*
X111954815Y-113189429D01*
X111938181Y-113210071D01*
X109739517Y-115408734D01*
X109739513Y-115408740D01*
X109683498Y-115505760D01*
X109683497Y-115505763D01*
X109654500Y-115613982D01*
X109654500Y-116396079D01*
X109634815Y-116463118D01*
X109582011Y-116508873D01*
X109575298Y-116511704D01*
X109564987Y-116515698D01*
X109564979Y-116515702D01*
X109383699Y-116627947D01*
X109226127Y-116771593D01*
X109097632Y-116941746D01*
X109002596Y-117132605D01*
X109002596Y-117132607D01*
X108944244Y-117337689D01*
X108933471Y-117453951D01*
X108907685Y-117518888D01*
X108863130Y-117550804D01*
X108899503Y-117571668D01*
X108931693Y-117633681D01*
X108933470Y-117646047D01*
X108944244Y-117762310D01*
X108997675Y-117950099D01*
X109002596Y-117967392D01*
X109002596Y-117967394D01*
X109097632Y-118158253D01*
X109220679Y-118321192D01*
X109226128Y-118328407D01*
X109383698Y-118472052D01*
X109564981Y-118584298D01*
X109763802Y-118661321D01*
X109973390Y-118700500D01*
X109973392Y-118700500D01*
X110186608Y-118700500D01*
X110186610Y-118700500D01*
X110396198Y-118661321D01*
X110595019Y-118584298D01*
X110776302Y-118472052D01*
X110933872Y-118328407D01*
X111062366Y-118158255D01*
X111116270Y-118050000D01*
X111157403Y-117967394D01*
X111157403Y-117967393D01*
X111157405Y-117967389D01*
X111215756Y-117762310D01*
X111226529Y-117646047D01*
X111252315Y-117581111D01*
X111294622Y-117550804D01*
X111403130Y-117550804D01*
X111439503Y-117571668D01*
X111471693Y-117633681D01*
X111473470Y-117646047D01*
X111484244Y-117762310D01*
X111537675Y-117950099D01*
X111542596Y-117967392D01*
X111542596Y-117967394D01*
X111637632Y-118158253D01*
X111760679Y-118321192D01*
X111766128Y-118328407D01*
X111923698Y-118472052D01*
X112104981Y-118584298D01*
X112303802Y-118661321D01*
X112513390Y-118700500D01*
X112513392Y-118700500D01*
X112726608Y-118700500D01*
X112726610Y-118700500D01*
X112936198Y-118661321D01*
X113135019Y-118584298D01*
X113316302Y-118472052D01*
X113473872Y-118328407D01*
X113602366Y-118158255D01*
X113656270Y-118050000D01*
X113697403Y-117967394D01*
X113697403Y-117967393D01*
X113697405Y-117967389D01*
X113755756Y-117762310D01*
X113766529Y-117646047D01*
X113792315Y-117581111D01*
X113834622Y-117550804D01*
X113943130Y-117550804D01*
X113979503Y-117571668D01*
X114011693Y-117633681D01*
X114013470Y-117646047D01*
X114024244Y-117762310D01*
X114077675Y-117950099D01*
X114082596Y-117967392D01*
X114082596Y-117967394D01*
X114177632Y-118158253D01*
X114300679Y-118321192D01*
X114306128Y-118328407D01*
X114463698Y-118472052D01*
X114644981Y-118584298D01*
X114843802Y-118661321D01*
X115053390Y-118700500D01*
X115053392Y-118700500D01*
X115266608Y-118700500D01*
X115266610Y-118700500D01*
X115476198Y-118661321D01*
X115675019Y-118584298D01*
X115856302Y-118472052D01*
X116013872Y-118328407D01*
X116142366Y-118158255D01*
X116196270Y-118050000D01*
X116237403Y-117967394D01*
X116237403Y-117967393D01*
X116237405Y-117967389D01*
X116295756Y-117762310D01*
X116306529Y-117646047D01*
X116332315Y-117581111D01*
X116376869Y-117549194D01*
X116340497Y-117528331D01*
X116308307Y-117466318D01*
X116306529Y-117453951D01*
X116305849Y-117446613D01*
X116295756Y-117337690D01*
X116237405Y-117132611D01*
X116237403Y-117132606D01*
X116237403Y-117132605D01*
X116142367Y-116941746D01*
X116013872Y-116771593D01*
X115991492Y-116751191D01*
X115856302Y-116627948D01*
X115805912Y-116596748D01*
X115675020Y-116515702D01*
X115675012Y-116515698D01*
X115664702Y-116511704D01*
X115609302Y-116469129D01*
X115585714Y-116403361D01*
X115585500Y-116396079D01*
X115585500Y-116317609D01*
X115605185Y-116250570D01*
X115621819Y-116229928D01*
X117062819Y-114788928D01*
X117124142Y-114755443D01*
X117193834Y-114760427D01*
X117249767Y-114802299D01*
X117274184Y-114867763D01*
X117274500Y-114876609D01*
X117274500Y-116396079D01*
X117254815Y-116463118D01*
X117202011Y-116508873D01*
X117195298Y-116511704D01*
X117184987Y-116515698D01*
X117184979Y-116515702D01*
X117003699Y-116627947D01*
X116846127Y-116771593D01*
X116717632Y-116941746D01*
X116622596Y-117132605D01*
X116622596Y-117132607D01*
X116564244Y-117337689D01*
X116553471Y-117453951D01*
X116527685Y-117518888D01*
X116483130Y-117550804D01*
X116519503Y-117571668D01*
X116551693Y-117633681D01*
X116553470Y-117646047D01*
X116564244Y-117762310D01*
X116617675Y-117950099D01*
X116622596Y-117967392D01*
X116622596Y-117967394D01*
X116717632Y-118158253D01*
X116840679Y-118321192D01*
X116846128Y-118328407D01*
X117003698Y-118472052D01*
X117184981Y-118584298D01*
X117383802Y-118661321D01*
X117593390Y-118700500D01*
X117593392Y-118700500D01*
X117806608Y-118700500D01*
X117806610Y-118700500D01*
X118016198Y-118661321D01*
X118215019Y-118584298D01*
X118396302Y-118472052D01*
X118553872Y-118328407D01*
X118682366Y-118158255D01*
X118736270Y-118050000D01*
X118777403Y-117967394D01*
X118777403Y-117967393D01*
X118777405Y-117967389D01*
X118835756Y-117762310D01*
X118846529Y-117646047D01*
X118872315Y-117581111D01*
X118916869Y-117549194D01*
X118880497Y-117528331D01*
X118848307Y-117466318D01*
X118846529Y-117453951D01*
X118845849Y-117446613D01*
X118835756Y-117337690D01*
X118777405Y-117132611D01*
X118777403Y-117132606D01*
X118777403Y-117132605D01*
X118682367Y-116941746D01*
X118553872Y-116771593D01*
X118531492Y-116751191D01*
X118396302Y-116627948D01*
X118345912Y-116596748D01*
X118215020Y-116515702D01*
X118215012Y-116515698D01*
X118204702Y-116511704D01*
X118149302Y-116469129D01*
X118125714Y-116403361D01*
X118125500Y-116396079D01*
X118125500Y-112277609D01*
X118145185Y-112210570D01*
X118161819Y-112189928D01*
X119339928Y-111011819D01*
X119401251Y-110978334D01*
X119427609Y-110975500D01*
X119667559Y-110975500D01*
X119734598Y-110995185D01*
X119780353Y-111047989D01*
X119790297Y-111117147D01*
X119761272Y-111180703D01*
X119715012Y-111214061D01*
X119593910Y-111264222D01*
X119385826Y-111391737D01*
X119385823Y-111391738D01*
X119200241Y-111550241D01*
X119041738Y-111735823D01*
X119041737Y-111735826D01*
X118914222Y-111943910D01*
X118820830Y-112169380D01*
X118820828Y-112169387D01*
X118820828Y-112169388D01*
X118796684Y-112269952D01*
X118763853Y-112406702D01*
X118744706Y-112650000D01*
X118763853Y-112893297D01*
X118763853Y-112893300D01*
X118763854Y-112893302D01*
X118820574Y-113129556D01*
X118820830Y-113130619D01*
X118914222Y-113356089D01*
X119041737Y-113564173D01*
X119041738Y-113564176D01*
X119079391Y-113608262D01*
X119200241Y-113749759D01*
X119304611Y-113838899D01*
X119385823Y-113908261D01*
X119385826Y-113908262D01*
X119593911Y-114035777D01*
X119593913Y-114035778D01*
X119737952Y-114095440D01*
X119792356Y-114139280D01*
X119814421Y-114205574D01*
X119814500Y-114210001D01*
X119814500Y-116396079D01*
X119794815Y-116463118D01*
X119742011Y-116508873D01*
X119735298Y-116511704D01*
X119724987Y-116515698D01*
X119724979Y-116515702D01*
X119543699Y-116627947D01*
X119386127Y-116771593D01*
X119257632Y-116941746D01*
X119162596Y-117132605D01*
X119162596Y-117132607D01*
X119104244Y-117337689D01*
X119093471Y-117453951D01*
X119067685Y-117518888D01*
X119023130Y-117550804D01*
X119059503Y-117571668D01*
X119091693Y-117633681D01*
X119093470Y-117646047D01*
X119104244Y-117762310D01*
X119157675Y-117950099D01*
X119162596Y-117967392D01*
X119162596Y-117967394D01*
X119257632Y-118158253D01*
X119380679Y-118321192D01*
X119386128Y-118328407D01*
X119543698Y-118472052D01*
X119724981Y-118584298D01*
X119923802Y-118661321D01*
X120133390Y-118700500D01*
X120133392Y-118700500D01*
X120346608Y-118700500D01*
X120346610Y-118700500D01*
X120556198Y-118661321D01*
X120755019Y-118584298D01*
X120936302Y-118472052D01*
X121093872Y-118328407D01*
X121222366Y-118158255D01*
X121289325Y-118023781D01*
X121336825Y-117972548D01*
X121404488Y-117955126D01*
X121470828Y-117977051D01*
X121512705Y-118026651D01*
X121606399Y-118227578D01*
X121741894Y-118421082D01*
X121908917Y-118588105D01*
X122102421Y-118723600D01*
X122316507Y-118823429D01*
X122316516Y-118823433D01*
X122530000Y-118880634D01*
X122530000Y-117983012D01*
X122587007Y-118015925D01*
X122714174Y-118050000D01*
X122845826Y-118050000D01*
X122972993Y-118015925D01*
X123030000Y-117983012D01*
X123030000Y-118880633D01*
X123243483Y-118823433D01*
X123243492Y-118823429D01*
X123457578Y-118723600D01*
X123651082Y-118588105D01*
X123818105Y-118421082D01*
X123953600Y-118227578D01*
X124047294Y-118026651D01*
X124093466Y-117974212D01*
X124160660Y-117955060D01*
X124227541Y-117975276D01*
X124270676Y-118023785D01*
X124337632Y-118158253D01*
X124460679Y-118321192D01*
X124466128Y-118328407D01*
X124623698Y-118472052D01*
X124804981Y-118584298D01*
X125003802Y-118661321D01*
X125213390Y-118700500D01*
X125213392Y-118700500D01*
X125426608Y-118700500D01*
X125426610Y-118700500D01*
X125636198Y-118661321D01*
X125835019Y-118584298D01*
X126016302Y-118472052D01*
X126173872Y-118328407D01*
X126302366Y-118158255D01*
X126356270Y-118050000D01*
X126397403Y-117967394D01*
X126397403Y-117967393D01*
X126397405Y-117967389D01*
X126455756Y-117762310D01*
X126466529Y-117646047D01*
X126492315Y-117581111D01*
X126536869Y-117549194D01*
X126500497Y-117528331D01*
X126468307Y-117466318D01*
X126466529Y-117453951D01*
X126465849Y-117446613D01*
X126455756Y-117337690D01*
X126397405Y-117132611D01*
X126397403Y-117132606D01*
X126397403Y-117132605D01*
X126302367Y-116941746D01*
X126173872Y-116771593D01*
X126151492Y-116751191D01*
X126016302Y-116627948D01*
X125965912Y-116596748D01*
X125835020Y-116515702D01*
X125835012Y-116515698D01*
X125824702Y-116511704D01*
X125769302Y-116469129D01*
X125745714Y-116403361D01*
X125745500Y-116396079D01*
X125745500Y-115113984D01*
X125745500Y-115113982D01*
X125716503Y-115005763D01*
X125660485Y-114908737D01*
X125581263Y-114829515D01*
X125361819Y-114610071D01*
X125328334Y-114548748D01*
X125325500Y-114522390D01*
X125325500Y-114234854D01*
X125345185Y-114167815D01*
X125397989Y-114122060D01*
X125402048Y-114120293D01*
X125606085Y-114035779D01*
X125606086Y-114035778D01*
X125606089Y-114035777D01*
X125814179Y-113908259D01*
X125959387Y-113784240D01*
X128619311Y-113784240D01*
X128707585Y-113838897D01*
X128897678Y-113912539D01*
X129098072Y-113950000D01*
X129301928Y-113950000D01*
X129502322Y-113912539D01*
X129692412Y-113838899D01*
X129692416Y-113838897D01*
X129780686Y-113784241D01*
X129780686Y-113784240D01*
X129200001Y-113203553D01*
X129200000Y-113203553D01*
X128619311Y-113784240D01*
X125959387Y-113784240D01*
X125999759Y-113749759D01*
X126158259Y-113564179D01*
X126285777Y-113356089D01*
X126379172Y-113130612D01*
X126436146Y-112893302D01*
X126439554Y-112849999D01*
X128095287Y-112849999D01*
X128095287Y-112850000D01*
X128114096Y-113052989D01*
X128114097Y-113052992D01*
X128169883Y-113249063D01*
X128169886Y-113249069D01*
X128260751Y-113431551D01*
X128262533Y-113433911D01*
X128846446Y-112850000D01*
X128806950Y-112810504D01*
X128900000Y-112810504D01*
X128900000Y-112889496D01*
X128920444Y-112965796D01*
X128959940Y-113034205D01*
X129015795Y-113090060D01*
X129084204Y-113129556D01*
X129160504Y-113150000D01*
X129239496Y-113150000D01*
X129315796Y-113129556D01*
X129384205Y-113090060D01*
X129440060Y-113034205D01*
X129479556Y-112965796D01*
X129500000Y-112889496D01*
X129500000Y-112850000D01*
X129553553Y-112850000D01*
X130137465Y-113433912D01*
X130174865Y-113431320D01*
X130243105Y-113446322D01*
X130292401Y-113495836D01*
X130298912Y-113512059D01*
X130347793Y-113622764D01*
X130347794Y-113622765D01*
X130427235Y-113702206D01*
X130530009Y-113747585D01*
X130555135Y-113750500D01*
X131844864Y-113750499D01*
X131844879Y-113750497D01*
X131844882Y-113750497D01*
X131869987Y-113747586D01*
X131869988Y-113747585D01*
X131869991Y-113747585D01*
X131972765Y-113702206D01*
X132052206Y-113622765D01*
X132097585Y-113519991D01*
X132100500Y-113494865D01*
X132100499Y-112205136D01*
X132100497Y-112205117D01*
X132097586Y-112180012D01*
X132097585Y-112180010D01*
X132097585Y-112180009D01*
X132052206Y-112077235D01*
X131972765Y-111997794D01*
X131897674Y-111964638D01*
X131869992Y-111952415D01*
X131844865Y-111949500D01*
X130555143Y-111949500D01*
X130555117Y-111949502D01*
X130530012Y-111952413D01*
X130530008Y-111952415D01*
X130427235Y-111997793D01*
X130347794Y-112077234D01*
X130298647Y-112188542D01*
X130296819Y-112187734D01*
X130266481Y-112237065D01*
X130203512Y-112267343D01*
X130174852Y-112268681D01*
X130137466Y-112266086D01*
X129553553Y-112850000D01*
X129500000Y-112850000D01*
X129500000Y-112810504D01*
X129479556Y-112734204D01*
X129440060Y-112665795D01*
X129384205Y-112609940D01*
X129315796Y-112570444D01*
X129239496Y-112550000D01*
X129160504Y-112550000D01*
X129084204Y-112570444D01*
X129015795Y-112609940D01*
X128959940Y-112665795D01*
X128920444Y-112734204D01*
X128900000Y-112810504D01*
X128806950Y-112810504D01*
X128262533Y-112266087D01*
X128260755Y-112268442D01*
X128260754Y-112268443D01*
X128169886Y-112450930D01*
X128169883Y-112450936D01*
X128114097Y-112647007D01*
X128114096Y-112647010D01*
X128095287Y-112849999D01*
X126439554Y-112849999D01*
X126455294Y-112650000D01*
X126436146Y-112406698D01*
X126379172Y-112169388D01*
X126379169Y-112169380D01*
X126285777Y-111943910D01*
X126268525Y-111915758D01*
X128619311Y-111915758D01*
X129200000Y-112496446D01*
X129200001Y-112496446D01*
X129780687Y-111915758D01*
X129692413Y-111861101D01*
X129692411Y-111861100D01*
X129502321Y-111787460D01*
X129301928Y-111750000D01*
X129098072Y-111750000D01*
X128897678Y-111787460D01*
X128707588Y-111861100D01*
X128707581Y-111861104D01*
X128619312Y-111915757D01*
X128619311Y-111915758D01*
X126268525Y-111915758D01*
X126158262Y-111735826D01*
X126158261Y-111735823D01*
X126097071Y-111664179D01*
X125999759Y-111550241D01*
X125865796Y-111435826D01*
X125814176Y-111391738D01*
X125814173Y-111391737D01*
X125606089Y-111264222D01*
X125380618Y-111170830D01*
X125380621Y-111170830D01*
X125250423Y-111139572D01*
X125143302Y-111113854D01*
X125143300Y-111113853D01*
X125143297Y-111113853D01*
X124900000Y-111094706D01*
X124656702Y-111113853D01*
X124656698Y-111113854D01*
X124463990Y-111160120D01*
X124419380Y-111170830D01*
X124193910Y-111264222D01*
X123985826Y-111391737D01*
X123985823Y-111391738D01*
X123800241Y-111550241D01*
X123641738Y-111735823D01*
X123641737Y-111735826D01*
X123514222Y-111943910D01*
X123420830Y-112169380D01*
X123420828Y-112169387D01*
X123420828Y-112169388D01*
X123396684Y-112269952D01*
X123363853Y-112406702D01*
X123344706Y-112650000D01*
X123363853Y-112893297D01*
X123363853Y-112893300D01*
X123363854Y-112893302D01*
X123420574Y-113129556D01*
X123420830Y-113130619D01*
X123514222Y-113356089D01*
X123641737Y-113564173D01*
X123641738Y-113564176D01*
X123679391Y-113608262D01*
X123800241Y-113749759D01*
X123904611Y-113838899D01*
X123985823Y-113908261D01*
X123985826Y-113908262D01*
X124193911Y-114035777D01*
X124193914Y-114035779D01*
X124397952Y-114120293D01*
X124452356Y-114164133D01*
X124474421Y-114230427D01*
X124474500Y-114234854D01*
X124474500Y-114693982D01*
X124474500Y-114806018D01*
X124503497Y-114914237D01*
X124559515Y-115011263D01*
X124559517Y-115011265D01*
X124858181Y-115309929D01*
X124891666Y-115371252D01*
X124894500Y-115397610D01*
X124894500Y-116396079D01*
X124874815Y-116463118D01*
X124822011Y-116508873D01*
X124815298Y-116511704D01*
X124804987Y-116515698D01*
X124804979Y-116515702D01*
X124623699Y-116627947D01*
X124466127Y-116771593D01*
X124337634Y-116941744D01*
X124270676Y-117076215D01*
X124223173Y-117127452D01*
X124155510Y-117144873D01*
X124089170Y-117122947D01*
X124047294Y-117073348D01*
X123953600Y-116872422D01*
X123953599Y-116872420D01*
X123818113Y-116678926D01*
X123818108Y-116678920D01*
X123651082Y-116511894D01*
X123457578Y-116376399D01*
X123243492Y-116276570D01*
X123243486Y-116276567D01*
X123030000Y-116219364D01*
X123030000Y-117116988D01*
X122972993Y-117084075D01*
X122845826Y-117050000D01*
X122714174Y-117050000D01*
X122587007Y-117084075D01*
X122530000Y-117116988D01*
X122530000Y-116219364D01*
X122529999Y-116219364D01*
X122316513Y-116276567D01*
X122316507Y-116276570D01*
X122102422Y-116376399D01*
X122102420Y-116376400D01*
X121908926Y-116511886D01*
X121908920Y-116511891D01*
X121741891Y-116678920D01*
X121741886Y-116678926D01*
X121606400Y-116872420D01*
X121606399Y-116872422D01*
X121512705Y-117073348D01*
X121466532Y-117125787D01*
X121399339Y-117144939D01*
X121332457Y-117124723D01*
X121289323Y-117076215D01*
X121222366Y-116941745D01*
X121214629Y-116931500D01*
X121093872Y-116771593D01*
X121071492Y-116751191D01*
X120936302Y-116627948D01*
X120885912Y-116596748D01*
X120755020Y-116515702D01*
X120755012Y-116515698D01*
X120744702Y-116511704D01*
X120689302Y-116469129D01*
X120665714Y-116403361D01*
X120665500Y-116396079D01*
X120665500Y-114254562D01*
X120685185Y-114187523D01*
X120737989Y-114141768D01*
X120760554Y-114133988D01*
X120780610Y-114129173D01*
X120780613Y-114129172D01*
X121006085Y-114035779D01*
X121006086Y-114035778D01*
X121006089Y-114035777D01*
X121214179Y-113908259D01*
X121399759Y-113749759D01*
X121558259Y-113564179D01*
X121685777Y-113356089D01*
X121779172Y-113130612D01*
X121836146Y-112893302D01*
X121855294Y-112650000D01*
X121836146Y-112406698D01*
X121779172Y-112169388D01*
X121779169Y-112169380D01*
X121685777Y-111943910D01*
X121558262Y-111735826D01*
X121558261Y-111735823D01*
X121497071Y-111664179D01*
X121399759Y-111550241D01*
X121265796Y-111435826D01*
X121214176Y-111391738D01*
X121214173Y-111391737D01*
X121006089Y-111264222D01*
X120780618Y-111170830D01*
X120780621Y-111170830D01*
X120650423Y-111139572D01*
X120543302Y-111113854D01*
X120543300Y-111113853D01*
X120543297Y-111113853D01*
X120435619Y-111105379D01*
X120370331Y-111080495D01*
X120328860Y-111024264D01*
X120324373Y-110954539D01*
X120357667Y-110894080D01*
X120361260Y-110890486D01*
X120361263Y-110890485D01*
X120780212Y-110471533D01*
X120841533Y-110438050D01*
X120911224Y-110443034D01*
X120915344Y-110444655D01*
X121119381Y-110529169D01*
X121119378Y-110529169D01*
X121119384Y-110529170D01*
X121119388Y-110529172D01*
X121356698Y-110586146D01*
X121600000Y-110605294D01*
X121843302Y-110586146D01*
X122080612Y-110529172D01*
X122306089Y-110435777D01*
X122514179Y-110308259D01*
X122699759Y-110149759D01*
X122858259Y-109964179D01*
X122985777Y-109756089D01*
X123079172Y-109530612D01*
X123136146Y-109293302D01*
X123155294Y-109050000D01*
X123136146Y-108806698D01*
X123079172Y-108569388D01*
X123079169Y-108569380D01*
X122985777Y-108343910D01*
X122858262Y-108135826D01*
X122858261Y-108135823D01*
X122784754Y-108049758D01*
X122699759Y-107950241D01*
X122564903Y-107835063D01*
X122514176Y-107791738D01*
X122514173Y-107791737D01*
X122306089Y-107664222D01*
X122080618Y-107570830D01*
X122080621Y-107570830D01*
X121878727Y-107522359D01*
X121843302Y-107513854D01*
X121843300Y-107513853D01*
X121843297Y-107513853D01*
X121600000Y-107494706D01*
X121356702Y-107513853D01*
X121356698Y-107513854D01*
X121138707Y-107566190D01*
X121119380Y-107570830D01*
X120893910Y-107664222D01*
X120685826Y-107791737D01*
X120685823Y-107791738D01*
X120500241Y-107950241D01*
X120341738Y-108135823D01*
X120341737Y-108135826D01*
X120214222Y-108343910D01*
X120120830Y-108569380D01*
X120120828Y-108569387D01*
X120120828Y-108569388D01*
X120094514Y-108678994D01*
X120063853Y-108806702D01*
X120044706Y-109050000D01*
X120063853Y-109293297D01*
X120063853Y-109293300D01*
X120063854Y-109293302D01*
X120076537Y-109346128D01*
X120120830Y-109530621D01*
X120120831Y-109530623D01*
X120205343Y-109734655D01*
X120212812Y-109804124D01*
X120181536Y-109866603D01*
X120178463Y-109869788D01*
X119960071Y-110088181D01*
X119898748Y-110121666D01*
X119872390Y-110124500D01*
X119143981Y-110124500D01*
X119049712Y-110149759D01*
X119049711Y-110149758D01*
X119035764Y-110153496D01*
X119035759Y-110153498D01*
X118938740Y-110209512D01*
X118938734Y-110209517D01*
X118037181Y-111111071D01*
X117975858Y-111144556D01*
X117906166Y-111139572D01*
X117850233Y-111097700D01*
X117825816Y-111032236D01*
X117825500Y-111023390D01*
X117825500Y-109234854D01*
X117845185Y-109167815D01*
X117897989Y-109122060D01*
X117902048Y-109120293D01*
X118106085Y-109035779D01*
X118106086Y-109035778D01*
X118106089Y-109035777D01*
X118314179Y-108908259D01*
X118499759Y-108749759D01*
X118658259Y-108564179D01*
X118785777Y-108356089D01*
X118879172Y-108130612D01*
X118936146Y-107893302D01*
X118955294Y-107650000D01*
X118936146Y-107406698D01*
X118879172Y-107169388D01*
X118857738Y-107117641D01*
X118788300Y-106950000D01*
X123344706Y-106950000D01*
X123363853Y-107193297D01*
X123363853Y-107193300D01*
X123363854Y-107193302D01*
X123409228Y-107382297D01*
X123420830Y-107430619D01*
X123514222Y-107656089D01*
X123641737Y-107864173D01*
X123641738Y-107864176D01*
X123641741Y-107864179D01*
X123800241Y-108049759D01*
X123901013Y-108135826D01*
X123985823Y-108208261D01*
X123985826Y-108208262D01*
X124193910Y-108335777D01*
X124375347Y-108410930D01*
X124418224Y-108428690D01*
X124419381Y-108429169D01*
X124419378Y-108429169D01*
X124419384Y-108429170D01*
X124419388Y-108429172D01*
X124656698Y-108486146D01*
X124900000Y-108505294D01*
X125143302Y-108486146D01*
X125380612Y-108429172D01*
X125584656Y-108344654D01*
X125654122Y-108337186D01*
X125716601Y-108368461D01*
X125719787Y-108371535D01*
X127038737Y-109690485D01*
X127135763Y-109746503D01*
X127243982Y-109775500D01*
X127356019Y-109775500D01*
X130635994Y-109775500D01*
X130703033Y-109795185D01*
X130723675Y-109811819D01*
X130973119Y-110061263D01*
X131052341Y-110140485D01*
X131149367Y-110196503D01*
X131257586Y-110225500D01*
X132085994Y-110225500D01*
X132153033Y-110245185D01*
X132173675Y-110261819D01*
X132338181Y-110426325D01*
X132371666Y-110487648D01*
X132374500Y-110514006D01*
X132374500Y-114285994D01*
X132354815Y-114353033D01*
X132338181Y-114373675D01*
X131723675Y-114988181D01*
X131662352Y-115021666D01*
X131635994Y-115024500D01*
X128443982Y-115024500D01*
X128335763Y-115053497D01*
X128335760Y-115053498D01*
X128238740Y-115109513D01*
X128238734Y-115109517D01*
X127519517Y-115828734D01*
X127519513Y-115828740D01*
X127463498Y-115925760D01*
X127463497Y-115925763D01*
X127434500Y-116033982D01*
X127434500Y-116396079D01*
X127414815Y-116463118D01*
X127362011Y-116508873D01*
X127355298Y-116511704D01*
X127344987Y-116515698D01*
X127344979Y-116515702D01*
X127163699Y-116627947D01*
X127006127Y-116771593D01*
X126877632Y-116941746D01*
X126782596Y-117132605D01*
X126782596Y-117132607D01*
X126724244Y-117337689D01*
X126713471Y-117453951D01*
X126687685Y-117518888D01*
X126643130Y-117550804D01*
X126679503Y-117571668D01*
X126711693Y-117633681D01*
X126713470Y-117646047D01*
X126724244Y-117762310D01*
X126777675Y-117950099D01*
X126782596Y-117967392D01*
X126782596Y-117967394D01*
X126877632Y-118158253D01*
X127000679Y-118321192D01*
X127006128Y-118328407D01*
X127163698Y-118472052D01*
X127344981Y-118584298D01*
X127543802Y-118661321D01*
X127753390Y-118700500D01*
X127753392Y-118700500D01*
X127966608Y-118700500D01*
X127966610Y-118700500D01*
X128176198Y-118661321D01*
X128375019Y-118584298D01*
X128556302Y-118472052D01*
X128713872Y-118328407D01*
X128842366Y-118158255D01*
X128896270Y-118050000D01*
X128937403Y-117967394D01*
X128937403Y-117967393D01*
X128937405Y-117967389D01*
X128995756Y-117762310D01*
X129006529Y-117646047D01*
X129032315Y-117581111D01*
X129076869Y-117549194D01*
X129040497Y-117528331D01*
X129008307Y-117466318D01*
X129006529Y-117453951D01*
X129005849Y-117446613D01*
X128995756Y-117337690D01*
X128937405Y-117132611D01*
X128937403Y-117132606D01*
X128937403Y-117132605D01*
X128842367Y-116941746D01*
X128713872Y-116771593D01*
X128691492Y-116751191D01*
X128556302Y-116627948D01*
X128505912Y-116596748D01*
X128375020Y-116515702D01*
X128375012Y-116515698D01*
X128364702Y-116511704D01*
X128309302Y-116469129D01*
X128285714Y-116403361D01*
X128285500Y-116396079D01*
X128285500Y-116317610D01*
X128305185Y-116250571D01*
X128321819Y-116229929D01*
X128639929Y-115911819D01*
X128701252Y-115878334D01*
X128727610Y-115875500D01*
X131173390Y-115875500D01*
X131240429Y-115895185D01*
X131286184Y-115947989D01*
X131296128Y-116017147D01*
X131267103Y-116080703D01*
X131261071Y-116087181D01*
X130912710Y-116435540D01*
X130851387Y-116469025D01*
X130781695Y-116464041D01*
X130780237Y-116463486D01*
X130716205Y-116438680D01*
X130621439Y-116420965D01*
X130506610Y-116399500D01*
X130293390Y-116399500D01*
X130083802Y-116438679D01*
X130083799Y-116438679D01*
X130083799Y-116438680D01*
X129884982Y-116515701D01*
X129884980Y-116515702D01*
X129703699Y-116627947D01*
X129546127Y-116771593D01*
X129417632Y-116941746D01*
X129322596Y-117132605D01*
X129322596Y-117132607D01*
X129264244Y-117337689D01*
X129253471Y-117453951D01*
X129227685Y-117518888D01*
X129183130Y-117550804D01*
X129219503Y-117571668D01*
X129251693Y-117633681D01*
X129253470Y-117646047D01*
X129264244Y-117762310D01*
X129317675Y-117950099D01*
X129322596Y-117967392D01*
X129322596Y-117967394D01*
X129417632Y-118158253D01*
X129540679Y-118321192D01*
X129546128Y-118328407D01*
X129703698Y-118472052D01*
X129884981Y-118584298D01*
X130083802Y-118661321D01*
X130293390Y-118700500D01*
X130293392Y-118700500D01*
X130506608Y-118700500D01*
X130506610Y-118700500D01*
X130716198Y-118661321D01*
X130915019Y-118584298D01*
X131096302Y-118472052D01*
X131253872Y-118328407D01*
X131382366Y-118158255D01*
X131436270Y-118050000D01*
X131477403Y-117967394D01*
X131477403Y-117967393D01*
X131477405Y-117967389D01*
X131535756Y-117762310D01*
X131546529Y-117646047D01*
X131572315Y-117581111D01*
X131616869Y-117549194D01*
X131580497Y-117528331D01*
X131548307Y-117466318D01*
X131546529Y-117453951D01*
X131545849Y-117446613D01*
X131535756Y-117337690D01*
X131484440Y-117157336D01*
X131485026Y-117087470D01*
X131516023Y-117035723D01*
X131767072Y-116784674D01*
X131828393Y-116751191D01*
X131898085Y-116756175D01*
X131954018Y-116798047D01*
X131978435Y-116863511D01*
X131963583Y-116931784D01*
X131960185Y-116937624D01*
X131957632Y-116941748D01*
X131862596Y-117132605D01*
X131862596Y-117132607D01*
X131804244Y-117337689D01*
X131793471Y-117453951D01*
X131767685Y-117518888D01*
X131723130Y-117550804D01*
X131759503Y-117571668D01*
X131791693Y-117633681D01*
X131793470Y-117646047D01*
X131804244Y-117762310D01*
X131857675Y-117950099D01*
X131862596Y-117967392D01*
X131862596Y-117967394D01*
X131957632Y-118158253D01*
X132080679Y-118321192D01*
X132086128Y-118328407D01*
X132243698Y-118472052D01*
X132424981Y-118584298D01*
X132623802Y-118661321D01*
X132833390Y-118700500D01*
X132833392Y-118700500D01*
X133046608Y-118700500D01*
X133046610Y-118700500D01*
X133256198Y-118661321D01*
X133455019Y-118584298D01*
X133636302Y-118472052D01*
X133793872Y-118328407D01*
X133922366Y-118158255D01*
X133976270Y-118050000D01*
X134017403Y-117967394D01*
X134017403Y-117967393D01*
X134017405Y-117967389D01*
X134035734Y-117902967D01*
X134073013Y-117843876D01*
X134136323Y-117814319D01*
X134205563Y-117823681D01*
X134258749Y-117868991D01*
X134274264Y-117902966D01*
X134289087Y-117955060D01*
X134292596Y-117967392D01*
X134292596Y-117967394D01*
X134387632Y-118158253D01*
X134510679Y-118321192D01*
X134516128Y-118328407D01*
X134673698Y-118472052D01*
X134854981Y-118584298D01*
X135053802Y-118661321D01*
X135263390Y-118700500D01*
X135263392Y-118700500D01*
X135476608Y-118700500D01*
X135476610Y-118700500D01*
X135686198Y-118661321D01*
X135885019Y-118584298D01*
X136066302Y-118472052D01*
X136223872Y-118328407D01*
X136352366Y-118158255D01*
X136406270Y-118050000D01*
X136447403Y-117967394D01*
X136447403Y-117967393D01*
X136447405Y-117967389D01*
X136505756Y-117762310D01*
X136525429Y-117550000D01*
X136505756Y-117337690D01*
X136447405Y-117132611D01*
X136447403Y-117132606D01*
X136447403Y-117132605D01*
X136352367Y-116941746D01*
X136223872Y-116771593D01*
X136066299Y-116627945D01*
X135979221Y-116574028D01*
X135932586Y-116522000D01*
X135920500Y-116468602D01*
X135920500Y-112959386D01*
X135940185Y-112892347D01*
X135956815Y-112871709D01*
X136505214Y-112323309D01*
X136566535Y-112289826D01*
X136636226Y-112294810D01*
X136640308Y-112296416D01*
X136719388Y-112329172D01*
X136956698Y-112386146D01*
X137200000Y-112405294D01*
X137443302Y-112386146D01*
X137680612Y-112329172D01*
X137906089Y-112235777D01*
X138114179Y-112108259D01*
X138299759Y-111949759D01*
X138458259Y-111764179D01*
X138585777Y-111556089D01*
X138679172Y-111330612D01*
X138705811Y-111219655D01*
X139725000Y-111219655D01*
X139725000Y-111867500D01*
X140641988Y-111867500D01*
X140609075Y-111924507D01*
X140575000Y-112051674D01*
X140575000Y-112183326D01*
X140609075Y-112310493D01*
X140641988Y-112367500D01*
X139725000Y-112367500D01*
X139725000Y-113015344D01*
X139731401Y-113074872D01*
X139731403Y-113074879D01*
X139781645Y-113209586D01*
X139781649Y-113209593D01*
X139867809Y-113324687D01*
X139867812Y-113324690D01*
X139982906Y-113410850D01*
X139982913Y-113410854D01*
X140117620Y-113461096D01*
X140117627Y-113461098D01*
X140177155Y-113467499D01*
X140177172Y-113467500D01*
X140825000Y-113467500D01*
X140825000Y-112550512D01*
X140882007Y-112583425D01*
X141009174Y-112617500D01*
X141140826Y-112617500D01*
X141267993Y-112583425D01*
X141325000Y-112550512D01*
X141325000Y-113467500D01*
X141972828Y-113467500D01*
X141972844Y-113467499D01*
X142032372Y-113461098D01*
X142032379Y-113461096D01*
X142167086Y-113410854D01*
X142167093Y-113410850D01*
X142282187Y-113324690D01*
X142282190Y-113324687D01*
X142368350Y-113209593D01*
X142368354Y-113209586D01*
X142418596Y-113074879D01*
X142418598Y-113074872D01*
X142424999Y-113015344D01*
X142425000Y-113015327D01*
X142425000Y-112367500D01*
X141508012Y-112367500D01*
X141540925Y-112310493D01*
X141575000Y-112183326D01*
X141575000Y-112051674D01*
X141540925Y-111924507D01*
X141508012Y-111867500D01*
X142425000Y-111867500D01*
X142425000Y-111219672D01*
X142424999Y-111219655D01*
X142418598Y-111160127D01*
X142418596Y-111160120D01*
X142368354Y-111025413D01*
X142368350Y-111025406D01*
X142282190Y-110910312D01*
X142282187Y-110910309D01*
X142167093Y-110824149D01*
X142167086Y-110824145D01*
X142032379Y-110773903D01*
X142032372Y-110773901D01*
X141972844Y-110767500D01*
X141774366Y-110767500D01*
X141707327Y-110747815D01*
X141661572Y-110695011D01*
X141651628Y-110625853D01*
X141680653Y-110562297D01*
X141709089Y-110538073D01*
X141759754Y-110506702D01*
X141771302Y-110499552D01*
X141928872Y-110355907D01*
X142057366Y-110185755D01*
X142084015Y-110132236D01*
X142152403Y-109994894D01*
X142152403Y-109994893D01*
X142152405Y-109994889D01*
X142210756Y-109789810D01*
X142230429Y-109577500D01*
X142218221Y-109445763D01*
X142231635Y-109377197D01*
X142254005Y-109346650D01*
X142544114Y-109056543D01*
X142620775Y-108941811D01*
X142627946Y-108924500D01*
X142673578Y-108814332D01*
X142673580Y-108814328D01*
X142690231Y-108730619D01*
X142700500Y-108678996D01*
X142700500Y-104581004D01*
X142673581Y-104445677D01*
X142673580Y-104445676D01*
X142673580Y-104445672D01*
X142623570Y-104324936D01*
X142620778Y-104318195D01*
X142620771Y-104318182D01*
X142544114Y-104203458D01*
X142544111Y-104203454D01*
X142446545Y-104105888D01*
X142446541Y-104105885D01*
X142331817Y-104029228D01*
X142331804Y-104029221D01*
X142204332Y-103976421D01*
X142204322Y-103976418D01*
X142068995Y-103949500D01*
X142068993Y-103949500D01*
X141931007Y-103949500D01*
X141931005Y-103949500D01*
X141795677Y-103976418D01*
X141795667Y-103976421D01*
X141668195Y-104029221D01*
X141668182Y-104029228D01*
X141553458Y-104105885D01*
X141553454Y-104105888D01*
X141455888Y-104203454D01*
X141455885Y-104203458D01*
X141379228Y-104318182D01*
X141379221Y-104318195D01*
X141326421Y-104445667D01*
X141326418Y-104445677D01*
X141299500Y-104581004D01*
X141299500Y-108268479D01*
X141279815Y-108335518D01*
X141263181Y-108356160D01*
X141228660Y-108390681D01*
X141167337Y-108424166D01*
X141140979Y-108427000D01*
X140968390Y-108427000D01*
X140758802Y-108466179D01*
X140758799Y-108466179D01*
X140758799Y-108466180D01*
X140559982Y-108543201D01*
X140559980Y-108543202D01*
X140378699Y-108655447D01*
X140221127Y-108799093D01*
X140092632Y-108969246D01*
X139997596Y-109160105D01*
X139997596Y-109160107D01*
X139939244Y-109365189D01*
X139919676Y-109576372D01*
X139919571Y-109577500D01*
X139939244Y-109789810D01*
X139988855Y-109964173D01*
X139997596Y-109994892D01*
X139997596Y-109994894D01*
X140092632Y-110185753D01*
X140185147Y-110308261D01*
X140221128Y-110355907D01*
X140378698Y-110499552D01*
X140378700Y-110499553D01*
X140378701Y-110499554D01*
X140440911Y-110538073D01*
X140487547Y-110590101D01*
X140498651Y-110659082D01*
X140470698Y-110723117D01*
X140412563Y-110761873D01*
X140375634Y-110767500D01*
X140177155Y-110767500D01*
X140117627Y-110773901D01*
X140117620Y-110773903D01*
X139982913Y-110824145D01*
X139982906Y-110824149D01*
X139867812Y-110910309D01*
X139867809Y-110910312D01*
X139781649Y-111025406D01*
X139781645Y-111025413D01*
X139731403Y-111160120D01*
X139731401Y-111160127D01*
X139725000Y-111219655D01*
X138705811Y-111219655D01*
X138736146Y-111093302D01*
X138755294Y-110850000D01*
X138736146Y-110606698D01*
X138679172Y-110369388D01*
X138673588Y-110355906D01*
X138585777Y-110143910D01*
X138458262Y-109935826D01*
X138458261Y-109935823D01*
X138405801Y-109874401D01*
X138299759Y-109750241D01*
X138153517Y-109625339D01*
X138114176Y-109591738D01*
X138114173Y-109591737D01*
X137906089Y-109464222D01*
X137680618Y-109370830D01*
X137680621Y-109370830D01*
X137572766Y-109344936D01*
X137443302Y-109313854D01*
X137443300Y-109313853D01*
X137443297Y-109313853D01*
X137200000Y-109294706D01*
X136956702Y-109313853D01*
X136956698Y-109313854D01*
X136746900Y-109364223D01*
X136719380Y-109370830D01*
X136493910Y-109464222D01*
X136285826Y-109591737D01*
X136285823Y-109591738D01*
X136100241Y-109750241D01*
X135941738Y-109935823D01*
X135941737Y-109935826D01*
X135814222Y-110143910D01*
X135720830Y-110369380D01*
X135663853Y-110606702D01*
X135644706Y-110850000D01*
X135663853Y-111093297D01*
X135663853Y-111093300D01*
X135663854Y-111093302D01*
X135707971Y-111277061D01*
X135720829Y-111330615D01*
X135720832Y-111330623D01*
X135753567Y-111409653D01*
X135761036Y-111479122D01*
X135729761Y-111541601D01*
X135726687Y-111544786D01*
X134929491Y-112341983D01*
X134929489Y-112341986D01*
X134857016Y-112467514D01*
X134857016Y-112467515D01*
X134819500Y-112607525D01*
X134819500Y-112607527D01*
X134819500Y-116468602D01*
X134799815Y-116535641D01*
X134760779Y-116574028D01*
X134673700Y-116627945D01*
X134516127Y-116771593D01*
X134387632Y-116941746D01*
X134292596Y-117132605D01*
X134292596Y-117132607D01*
X134274266Y-117197030D01*
X134236986Y-117256123D01*
X134173676Y-117285680D01*
X134104437Y-117276318D01*
X134051251Y-117231007D01*
X134035734Y-117197030D01*
X134024440Y-117157337D01*
X134017405Y-117132611D01*
X134017403Y-117132606D01*
X134017403Y-117132605D01*
X133922367Y-116941746D01*
X133793872Y-116771593D01*
X133771492Y-116751191D01*
X133636302Y-116627948D01*
X133585912Y-116596748D01*
X133455020Y-116515702D01*
X133455012Y-116515698D01*
X133444702Y-116511704D01*
X133389302Y-116469129D01*
X133365714Y-116403361D01*
X133365500Y-116396079D01*
X133365500Y-115937608D01*
X133385185Y-115870569D01*
X133401815Y-115849931D01*
X133951053Y-115300692D01*
X133951058Y-115300689D01*
X133961261Y-115290485D01*
X133961263Y-115290485D01*
X134040485Y-115211263D01*
X134096503Y-115114237D01*
X134125500Y-115006018D01*
X134125500Y-108534854D01*
X134145185Y-108467815D01*
X134197989Y-108422060D01*
X134202048Y-108420293D01*
X134406085Y-108335779D01*
X134406086Y-108335778D01*
X134406089Y-108335777D01*
X134614179Y-108208259D01*
X134799759Y-108049759D01*
X134958259Y-107864179D01*
X135085777Y-107656089D01*
X135179172Y-107430612D01*
X135236146Y-107193302D01*
X135255294Y-106950000D01*
X135236146Y-106706698D01*
X135179172Y-106469388D01*
X135179169Y-106469380D01*
X135085777Y-106243910D01*
X134958262Y-106035826D01*
X134958261Y-106035823D01*
X134872815Y-105935779D01*
X134799759Y-105850241D01*
X134657804Y-105729000D01*
X134614176Y-105691738D01*
X134614173Y-105691737D01*
X134406089Y-105564222D01*
X134180618Y-105470830D01*
X134180621Y-105470830D01*
X134013103Y-105430612D01*
X133943302Y-105413854D01*
X133943300Y-105413853D01*
X133943297Y-105413853D01*
X133700000Y-105394706D01*
X133456702Y-105413853D01*
X133456698Y-105413854D01*
X133277627Y-105456846D01*
X133219380Y-105470830D01*
X132993910Y-105564222D01*
X132785826Y-105691737D01*
X132785823Y-105691738D01*
X132600241Y-105850241D01*
X132441738Y-106035823D01*
X132441737Y-106035826D01*
X132314222Y-106243910D01*
X132220830Y-106469380D01*
X132220828Y-106469387D01*
X132220828Y-106469388D01*
X132201417Y-106550241D01*
X132163853Y-106706702D01*
X132144706Y-106950000D01*
X132163853Y-107193297D01*
X132163853Y-107193300D01*
X132163854Y-107193302D01*
X132209228Y-107382297D01*
X132220830Y-107430619D01*
X132314222Y-107656089D01*
X132441737Y-107864173D01*
X132441738Y-107864176D01*
X132441741Y-107864179D01*
X132600241Y-108049759D01*
X132701013Y-108135826D01*
X132785823Y-108208261D01*
X132785826Y-108208262D01*
X132993911Y-108335777D01*
X132993914Y-108335779D01*
X133197952Y-108420293D01*
X133252356Y-108464133D01*
X133274421Y-108530427D01*
X133274500Y-108534854D01*
X133274500Y-109223390D01*
X133254815Y-109290429D01*
X133202011Y-109336184D01*
X133132853Y-109346128D01*
X133069297Y-109317103D01*
X133062819Y-109311071D01*
X132761265Y-109009517D01*
X132761263Y-109009515D01*
X132691513Y-108969245D01*
X132664239Y-108953498D01*
X132664238Y-108953497D01*
X132664237Y-108953497D01*
X132556018Y-108924500D01*
X132556017Y-108924500D01*
X131727610Y-108924500D01*
X131660571Y-108904815D01*
X131639929Y-108888181D01*
X130521535Y-107769787D01*
X130488050Y-107708464D01*
X130493034Y-107638772D01*
X130494635Y-107634702D01*
X130579172Y-107430612D01*
X130636146Y-107193302D01*
X130655294Y-106950000D01*
X130636146Y-106706698D01*
X130579172Y-106469388D01*
X130579169Y-106469380D01*
X130485777Y-106243910D01*
X130358262Y-106035826D01*
X130358261Y-106035823D01*
X130272815Y-105935779D01*
X130199759Y-105850241D01*
X130057804Y-105729000D01*
X130014176Y-105691738D01*
X130014173Y-105691737D01*
X129806089Y-105564222D01*
X129580618Y-105470830D01*
X129580621Y-105470830D01*
X129413103Y-105430612D01*
X129343302Y-105413854D01*
X129343300Y-105413853D01*
X129343297Y-105413853D01*
X129100000Y-105394706D01*
X128856702Y-105413853D01*
X128856698Y-105413854D01*
X128677627Y-105456846D01*
X128619380Y-105470830D01*
X128393910Y-105564222D01*
X128185826Y-105691737D01*
X128185823Y-105691738D01*
X128000241Y-105850241D01*
X127841738Y-106035823D01*
X127841737Y-106035826D01*
X127714222Y-106243910D01*
X127620830Y-106469380D01*
X127620828Y-106469387D01*
X127620828Y-106469388D01*
X127601417Y-106550241D01*
X127563853Y-106706702D01*
X127544706Y-106950000D01*
X127563853Y-107193297D01*
X127563853Y-107193300D01*
X127563854Y-107193302D01*
X127609228Y-107382297D01*
X127620830Y-107430619D01*
X127714222Y-107656089D01*
X127841737Y-107864173D01*
X127841738Y-107864176D01*
X127841741Y-107864179D01*
X128000241Y-108049759D01*
X128101013Y-108135826D01*
X128185823Y-108208261D01*
X128185826Y-108208262D01*
X128393910Y-108335777D01*
X128575347Y-108410930D01*
X128618224Y-108428690D01*
X128619381Y-108429169D01*
X128619378Y-108429169D01*
X128619384Y-108429170D01*
X128619388Y-108429172D01*
X128856698Y-108486146D01*
X129100000Y-108505294D01*
X129343302Y-108486146D01*
X129580612Y-108429172D01*
X129784656Y-108344654D01*
X129854122Y-108337186D01*
X129916601Y-108368461D01*
X129919787Y-108371535D01*
X130261071Y-108712819D01*
X130294556Y-108774142D01*
X130289572Y-108843834D01*
X130247700Y-108899767D01*
X130182236Y-108924184D01*
X130173390Y-108924500D01*
X127527610Y-108924500D01*
X127460571Y-108904815D01*
X127439929Y-108888181D01*
X126321535Y-107769787D01*
X126288050Y-107708464D01*
X126293034Y-107638772D01*
X126294635Y-107634702D01*
X126379172Y-107430612D01*
X126436146Y-107193302D01*
X126455294Y-106950000D01*
X126436146Y-106706698D01*
X126379172Y-106469388D01*
X126379169Y-106469380D01*
X126285777Y-106243910D01*
X126158262Y-106035826D01*
X126158261Y-106035823D01*
X126072815Y-105935779D01*
X125999759Y-105850241D01*
X125857804Y-105729000D01*
X125814176Y-105691738D01*
X125814173Y-105691737D01*
X125606089Y-105564222D01*
X125380618Y-105470830D01*
X125380621Y-105470830D01*
X125213103Y-105430612D01*
X125143302Y-105413854D01*
X125143300Y-105413853D01*
X125143297Y-105413853D01*
X124900000Y-105394706D01*
X124656702Y-105413853D01*
X124656698Y-105413854D01*
X124477627Y-105456846D01*
X124419380Y-105470830D01*
X124193910Y-105564222D01*
X123985826Y-105691737D01*
X123985823Y-105691738D01*
X123800241Y-105850241D01*
X123641738Y-106035823D01*
X123641737Y-106035826D01*
X123514222Y-106243910D01*
X123420830Y-106469380D01*
X123420828Y-106469387D01*
X123420828Y-106469388D01*
X123401417Y-106550241D01*
X123363853Y-106706702D01*
X123344706Y-106950000D01*
X118788300Y-106950000D01*
X118785777Y-106943910D01*
X118658262Y-106735826D01*
X118658261Y-106735823D01*
X118579113Y-106643153D01*
X118499759Y-106550241D01*
X118341267Y-106414876D01*
X118314176Y-106391738D01*
X118314173Y-106391737D01*
X118106089Y-106264222D01*
X117880618Y-106170830D01*
X117880621Y-106170830D01*
X117670634Y-106120416D01*
X117643302Y-106113854D01*
X117643300Y-106113853D01*
X117643297Y-106113853D01*
X117400000Y-106094706D01*
X117156702Y-106113853D01*
X116919380Y-106170830D01*
X116693910Y-106264222D01*
X116485826Y-106391737D01*
X116485823Y-106391738D01*
X116300241Y-106550241D01*
X116141738Y-106735823D01*
X116141737Y-106735826D01*
X116014222Y-106943910D01*
X115920830Y-107169380D01*
X115920828Y-107169387D01*
X115920828Y-107169388D01*
X115911774Y-107207099D01*
X115863853Y-107406702D01*
X115844706Y-107650000D01*
X115863853Y-107893297D01*
X115863853Y-107893300D01*
X115863854Y-107893302D01*
X115915896Y-108110071D01*
X115920830Y-108130619D01*
X116014222Y-108356089D01*
X116141737Y-108564173D01*
X116141738Y-108564176D01*
X116163794Y-108590000D01*
X116300241Y-108749759D01*
X116410389Y-108843834D01*
X116485823Y-108908261D01*
X116485826Y-108908262D01*
X116693911Y-109035777D01*
X116693914Y-109035779D01*
X116897952Y-109120293D01*
X116952356Y-109164133D01*
X116974421Y-109230427D01*
X116974500Y-109234854D01*
X116974500Y-111485994D01*
X116954815Y-111553033D01*
X116938181Y-111573675D01*
X116909517Y-111602338D01*
X116909513Y-111602344D01*
X116853498Y-111699364D01*
X116853497Y-111699367D01*
X116824500Y-111807586D01*
X116824500Y-113772389D01*
X116804815Y-113839428D01*
X116788181Y-113860070D01*
X114881295Y-115766955D01*
X114881296Y-115766956D01*
X114819514Y-115828738D01*
X114819513Y-115828740D01*
X114763498Y-115925760D01*
X114763497Y-115925763D01*
X114734500Y-116033982D01*
X114734500Y-116396079D01*
X114714815Y-116463118D01*
X114662011Y-116508873D01*
X114655298Y-116511704D01*
X114644987Y-116515698D01*
X114644979Y-116515702D01*
X114463699Y-116627947D01*
X114306127Y-116771593D01*
X114177632Y-116941746D01*
X114082596Y-117132605D01*
X114082596Y-117132607D01*
X114024244Y-117337689D01*
X114013471Y-117453951D01*
X113987685Y-117518888D01*
X113943130Y-117550804D01*
X113834622Y-117550804D01*
X113836869Y-117549194D01*
X113800497Y-117528331D01*
X113768307Y-117466318D01*
X113766529Y-117453951D01*
X113765849Y-117446613D01*
X113755756Y-117337690D01*
X113697405Y-117132611D01*
X113697403Y-117132606D01*
X113697403Y-117132605D01*
X113602367Y-116941746D01*
X113473872Y-116771593D01*
X113451492Y-116751191D01*
X113316302Y-116627948D01*
X113265912Y-116596748D01*
X113135020Y-116515702D01*
X113135012Y-116515698D01*
X113124702Y-116511704D01*
X113069302Y-116469129D01*
X113045714Y-116403361D01*
X113045500Y-116396079D01*
X113045500Y-115957608D01*
X113065185Y-115890569D01*
X113081814Y-115869932D01*
X114951053Y-114000692D01*
X114951058Y-114000689D01*
X114961261Y-113990485D01*
X114961263Y-113990485D01*
X115040485Y-113911263D01*
X115096503Y-113814237D01*
X115125500Y-113706019D01*
X115125500Y-113593982D01*
X115125500Y-112334854D01*
X115145185Y-112267815D01*
X115197989Y-112222060D01*
X115202048Y-112220293D01*
X115406085Y-112135779D01*
X115406086Y-112135778D01*
X115406089Y-112135777D01*
X115614179Y-112008259D01*
X115799759Y-111849759D01*
X115958259Y-111664179D01*
X116085777Y-111456089D01*
X116179172Y-111230612D01*
X116236146Y-110993302D01*
X116255294Y-110750000D01*
X116236146Y-110506698D01*
X116179172Y-110269388D01*
X116175543Y-110260627D01*
X116085777Y-110043910D01*
X115958262Y-109835826D01*
X115958261Y-109835823D01*
X115897032Y-109764133D01*
X115799759Y-109650241D01*
X115659702Y-109530621D01*
X115614176Y-109491738D01*
X115614173Y-109491737D01*
X115406089Y-109364222D01*
X115180618Y-109270830D01*
X115180621Y-109270830D01*
X115012332Y-109230427D01*
X114943302Y-109213854D01*
X114943300Y-109213853D01*
X114943297Y-109213853D01*
X114700000Y-109194706D01*
X114456702Y-109213853D01*
X114219380Y-109270830D01*
X113993910Y-109364222D01*
X113785826Y-109491737D01*
X113785823Y-109491738D01*
X113600241Y-109650241D01*
X113441738Y-109835823D01*
X113441737Y-109835826D01*
X113314222Y-110043910D01*
X113220830Y-110269380D01*
X113163853Y-110506702D01*
X113144706Y-110750000D01*
X113163853Y-110993297D01*
X113163853Y-110993300D01*
X113163854Y-110993302D01*
X113218201Y-111219672D01*
X113220830Y-111230619D01*
X113314222Y-111456089D01*
X113441737Y-111664173D01*
X113441738Y-111664176D01*
X113471792Y-111699364D01*
X113600241Y-111849759D01*
X113717023Y-111949500D01*
X113785823Y-112008261D01*
X113785825Y-112008261D01*
X113946465Y-112106702D01*
X113993911Y-112135777D01*
X113993914Y-112135779D01*
X114197952Y-112220293D01*
X114252356Y-112264133D01*
X114274421Y-112330427D01*
X114274500Y-112334854D01*
X114274500Y-113422389D01*
X114254815Y-113489428D01*
X114238181Y-113510070D01*
X112341295Y-115406955D01*
X112341296Y-115406956D01*
X112279514Y-115468738D01*
X112279513Y-115468740D01*
X112223498Y-115565760D01*
X112223497Y-115565763D01*
X112194500Y-115673982D01*
X112194500Y-116396079D01*
X112174815Y-116463118D01*
X112122011Y-116508873D01*
X112115298Y-116511704D01*
X112104987Y-116515698D01*
X112104979Y-116515702D01*
X111923699Y-116627947D01*
X111766127Y-116771593D01*
X111637632Y-116941746D01*
X111542596Y-117132605D01*
X111542596Y-117132607D01*
X111484244Y-117337689D01*
X111473471Y-117453951D01*
X111447685Y-117518888D01*
X111403130Y-117550804D01*
X111294622Y-117550804D01*
X111296869Y-117549194D01*
X111260497Y-117528331D01*
X111228307Y-117466318D01*
X111226529Y-117453951D01*
X111225849Y-117446613D01*
X111215756Y-117337690D01*
X111157405Y-117132611D01*
X111157403Y-117132606D01*
X111157403Y-117132605D01*
X111062367Y-116941746D01*
X110933872Y-116771593D01*
X110911492Y-116751191D01*
X110776302Y-116627948D01*
X110725912Y-116596748D01*
X110595020Y-116515702D01*
X110595012Y-116515698D01*
X110584702Y-116511704D01*
X110529302Y-116469129D01*
X110505714Y-116403361D01*
X110505500Y-116396079D01*
X110505500Y-115897610D01*
X110525185Y-115830571D01*
X110541819Y-115809929D01*
X112740481Y-113611267D01*
X112740487Y-113611260D01*
X112744967Y-113603501D01*
X112767671Y-113564176D01*
X112796503Y-113514237D01*
X112807351Y-113473752D01*
X112813781Y-113449758D01*
X112824204Y-113410854D01*
X112825500Y-113406019D01*
X112825500Y-113293982D01*
X112825500Y-109577610D01*
X112845185Y-109510571D01*
X112861819Y-109489929D01*
X113846455Y-108505293D01*
X114840484Y-107511264D01*
X114844778Y-107503828D01*
X114896503Y-107414237D01*
X114917028Y-107337636D01*
X114925500Y-107306019D01*
X114925500Y-107193982D01*
X114925500Y-106134854D01*
X114945185Y-106067815D01*
X114997989Y-106022060D01*
X115002048Y-106020293D01*
X115206085Y-105935779D01*
X115206086Y-105935778D01*
X115206089Y-105935777D01*
X115414179Y-105808259D01*
X115599759Y-105649759D01*
X115758259Y-105464179D01*
X115885777Y-105256089D01*
X115979172Y-105030612D01*
X116036146Y-104793302D01*
X116055294Y-104550000D01*
X116036146Y-104306698D01*
X115979172Y-104069388D01*
X115979169Y-104069380D01*
X115885777Y-103843910D01*
X115758262Y-103635826D01*
X115758261Y-103635823D01*
X115722453Y-103593897D01*
X115599759Y-103450241D01*
X115425856Y-103301714D01*
X115414176Y-103291738D01*
X115414173Y-103291737D01*
X115206089Y-103164222D01*
X114980618Y-103070830D01*
X114980621Y-103070830D01*
X114874992Y-103045470D01*
X114743302Y-103013854D01*
X114743300Y-103013853D01*
X114743297Y-103013853D01*
X114500000Y-102994706D01*
X114256702Y-103013853D01*
X114019380Y-103070830D01*
X113793910Y-103164222D01*
X113585826Y-103291737D01*
X113585823Y-103291738D01*
X113400241Y-103450241D01*
X113241738Y-103635823D01*
X113241737Y-103635826D01*
X113114222Y-103843910D01*
X113020830Y-104069380D01*
X113020828Y-104069387D01*
X113020828Y-104069388D01*
X113012065Y-104105888D01*
X112963853Y-104306702D01*
X112944706Y-104550000D01*
X112963853Y-104793297D01*
X112963853Y-104793300D01*
X112963854Y-104793302D01*
X113014168Y-105002873D01*
X113020830Y-105030619D01*
X113114222Y-105256089D01*
X113241737Y-105464173D01*
X113241738Y-105464176D01*
X113252341Y-105476590D01*
X113400241Y-105649759D01*
X113525157Y-105756447D01*
X113585823Y-105808261D01*
X113585825Y-105808261D01*
X113653936Y-105850000D01*
X113793911Y-105935777D01*
X113793914Y-105935779D01*
X113997952Y-106020293D01*
X114052356Y-106064133D01*
X114074421Y-106130427D01*
X114074500Y-106134854D01*
X114074500Y-107022390D01*
X114054815Y-107089429D01*
X114038181Y-107110071D01*
X112059517Y-109088734D01*
X112059513Y-109088740D01*
X112003498Y-109185760D01*
X112003497Y-109185763D01*
X111974500Y-109293982D01*
X111974500Y-111851844D01*
X111954815Y-111918883D01*
X111902011Y-111964638D01*
X111832853Y-111974582D01*
X111769297Y-111945557D01*
X111731523Y-111886779D01*
X111729926Y-111880792D01*
X111728236Y-111873752D01*
X111679172Y-111669388D01*
X111679169Y-111669380D01*
X111585777Y-111443910D01*
X111458262Y-111235826D01*
X111458261Y-111235823D01*
X111410720Y-111180160D01*
X111299759Y-111050241D01*
X111135923Y-110910312D01*
X111114176Y-110891738D01*
X111114173Y-110891737D01*
X110906089Y-110764222D01*
X110680618Y-110670830D01*
X110680621Y-110670830D01*
X110574992Y-110645470D01*
X110443302Y-110613854D01*
X110443300Y-110613853D01*
X110443297Y-110613853D01*
X110200000Y-110594706D01*
X109956702Y-110613853D01*
X109719380Y-110670830D01*
X109493910Y-110764222D01*
X109285826Y-110891737D01*
X109285823Y-110891738D01*
X109100241Y-111050241D01*
X108941738Y-111235823D01*
X108941737Y-111235826D01*
X108814222Y-111443910D01*
X108764061Y-111565012D01*
X108720220Y-111619415D01*
X108653926Y-111641480D01*
X108586227Y-111624201D01*
X108538616Y-111573064D01*
X108525500Y-111517559D01*
X108525500Y-111077608D01*
X108545185Y-111010569D01*
X108561814Y-110989932D01*
X110951053Y-108600692D01*
X110951058Y-108600689D01*
X110961261Y-108590485D01*
X110961263Y-108590485D01*
X111040485Y-108511263D01*
X111096503Y-108414237D01*
X111102672Y-108391214D01*
X111105218Y-108381715D01*
X111108789Y-108368384D01*
X111125500Y-108306019D01*
X111125500Y-108193982D01*
X111125500Y-107434854D01*
X111145185Y-107367815D01*
X111197989Y-107322060D01*
X111202048Y-107320293D01*
X111406085Y-107235779D01*
X111406086Y-107235778D01*
X111406089Y-107235777D01*
X111614179Y-107108259D01*
X111799759Y-106949759D01*
X111958259Y-106764179D01*
X112085777Y-106556089D01*
X112179172Y-106330612D01*
X112236146Y-106093302D01*
X112255294Y-105850000D01*
X112236146Y-105606698D01*
X112179172Y-105369388D01*
X112179169Y-105369380D01*
X112085777Y-105143910D01*
X111958262Y-104935826D01*
X111958261Y-104935823D01*
X111894771Y-104861486D01*
X111799759Y-104750241D01*
X111646855Y-104619649D01*
X111614176Y-104591738D01*
X111614173Y-104591737D01*
X111406089Y-104464222D01*
X111180618Y-104370830D01*
X111180621Y-104370830D01*
X110961358Y-104318189D01*
X110943302Y-104313854D01*
X110943300Y-104313853D01*
X110943297Y-104313853D01*
X110700000Y-104294706D01*
X110456702Y-104313853D01*
X110219380Y-104370830D01*
X109993910Y-104464222D01*
X109785826Y-104591737D01*
X109785823Y-104591738D01*
X109600241Y-104750241D01*
X109441738Y-104935823D01*
X109441737Y-104935826D01*
X109314222Y-105143910D01*
X109220830Y-105369380D01*
X109220828Y-105369387D01*
X109220828Y-105369388D01*
X109206129Y-105430612D01*
X109163853Y-105606702D01*
X109144706Y-105850000D01*
X109163853Y-106093297D01*
X109163853Y-106093300D01*
X109163854Y-106093302D01*
X109220675Y-106329976D01*
X109220830Y-106330619D01*
X109314222Y-106556089D01*
X109441737Y-106764173D01*
X109441738Y-106764176D01*
X109447421Y-106770830D01*
X109600241Y-106949759D01*
X109701650Y-107036370D01*
X109785823Y-107108261D01*
X109785825Y-107108261D01*
X109993911Y-107235777D01*
X109993914Y-107235779D01*
X110197952Y-107320293D01*
X110252356Y-107364133D01*
X110274421Y-107430427D01*
X110274500Y-107434854D01*
X110274500Y-108022390D01*
X110254815Y-108089429D01*
X110238181Y-108110071D01*
X108137181Y-110211071D01*
X108075858Y-110244556D01*
X108006166Y-110239572D01*
X107950233Y-110197700D01*
X107925816Y-110132236D01*
X107925500Y-110123390D01*
X107925500Y-109834854D01*
X107945185Y-109767815D01*
X107997989Y-109722060D01*
X108002048Y-109720293D01*
X108206085Y-109635779D01*
X108206086Y-109635778D01*
X108206089Y-109635777D01*
X108414179Y-109508259D01*
X108599759Y-109349759D01*
X108758259Y-109164179D01*
X108885777Y-108956089D01*
X108979172Y-108730612D01*
X109036146Y-108493302D01*
X109055294Y-108250000D01*
X109036146Y-108006698D01*
X108979172Y-107769388D01*
X108979169Y-107769380D01*
X108885777Y-107543910D01*
X108758262Y-107335826D01*
X108758261Y-107335823D01*
X108672815Y-107235779D01*
X108599759Y-107150241D01*
X108459004Y-107030025D01*
X108414176Y-106991738D01*
X108414173Y-106991737D01*
X108206089Y-106864222D01*
X107980618Y-106770830D01*
X107980621Y-106770830D01*
X107866389Y-106743405D01*
X107743302Y-106713854D01*
X107743300Y-106713853D01*
X107743297Y-106713853D01*
X107500000Y-106694706D01*
X107256702Y-106713853D01*
X107256698Y-106713854D01*
X107165180Y-106735826D01*
X107019380Y-106770830D01*
X106793910Y-106864222D01*
X106585826Y-106991737D01*
X106585823Y-106991738D01*
X106400241Y-107150241D01*
X106241738Y-107335823D01*
X106241737Y-107335826D01*
X106114222Y-107543910D01*
X106020830Y-107769380D01*
X106020828Y-107769387D01*
X106020828Y-107769388D01*
X106013359Y-107800500D01*
X105963853Y-108006702D01*
X105944706Y-108250000D01*
X105963853Y-108493297D01*
X105963853Y-108493300D01*
X105963854Y-108493302D01*
X106016556Y-108712819D01*
X106020830Y-108730619D01*
X106114222Y-108956089D01*
X106241737Y-109164173D01*
X106241738Y-109164176D01*
X106284167Y-109213854D01*
X106400241Y-109349759D01*
X106512652Y-109445767D01*
X106585823Y-109508261D01*
X106585826Y-109508262D01*
X106793911Y-109635777D01*
X106793914Y-109635779D01*
X106997952Y-109720293D01*
X107052356Y-109764133D01*
X107074421Y-109830427D01*
X107074500Y-109834854D01*
X107074500Y-110622389D01*
X107054815Y-110689428D01*
X107038181Y-110710070D01*
X102181295Y-115566955D01*
X102181296Y-115566956D01*
X102119514Y-115628738D01*
X102119513Y-115628740D01*
X102063498Y-115725760D01*
X102063497Y-115725763D01*
X102034500Y-115833982D01*
X102034500Y-116396079D01*
X102014815Y-116463118D01*
X101962011Y-116508873D01*
X101955298Y-116511704D01*
X101944987Y-116515698D01*
X101944979Y-116515702D01*
X101763699Y-116627947D01*
X101606127Y-116771593D01*
X101477632Y-116941746D01*
X101382596Y-117132605D01*
X101382596Y-117132607D01*
X101324244Y-117337689D01*
X101313471Y-117453951D01*
X101287685Y-117518888D01*
X101243130Y-117550804D01*
X101134622Y-117550804D01*
X101136869Y-117549194D01*
X101100497Y-117528331D01*
X101068307Y-117466318D01*
X101066529Y-117453951D01*
X101065849Y-117446613D01*
X101055756Y-117337690D01*
X100997405Y-117132611D01*
X100997403Y-117132606D01*
X100997403Y-117132605D01*
X100902367Y-116941746D01*
X100773872Y-116771593D01*
X100751492Y-116751191D01*
X100616302Y-116627948D01*
X100565912Y-116596748D01*
X100435020Y-116515702D01*
X100435012Y-116515698D01*
X100424702Y-116511704D01*
X100369302Y-116469129D01*
X100345714Y-116403361D01*
X100345500Y-116396079D01*
X100345500Y-115157609D01*
X100365185Y-115090570D01*
X100381814Y-115069933D01*
X101680213Y-113771533D01*
X101741534Y-113738050D01*
X101811226Y-113743034D01*
X101815335Y-113744651D01*
X101829456Y-113750500D01*
X102019380Y-113829169D01*
X102019381Y-113829169D01*
X102019388Y-113829172D01*
X102256698Y-113886146D01*
X102500000Y-113905294D01*
X102743302Y-113886146D01*
X102980612Y-113829172D01*
X103206089Y-113735777D01*
X103414179Y-113608259D01*
X103599759Y-113449759D01*
X103758259Y-113264179D01*
X103885777Y-113056089D01*
X103979172Y-112830612D01*
X104036146Y-112593302D01*
X104055294Y-112350000D01*
X104036146Y-112106698D01*
X103979172Y-111869388D01*
X103975741Y-111861104D01*
X103885777Y-111643910D01*
X103758262Y-111435826D01*
X103758261Y-111435823D01*
X103696867Y-111363940D01*
X103599759Y-111250241D01*
X103430147Y-111105379D01*
X103414176Y-111091738D01*
X103414173Y-111091737D01*
X103206089Y-110964222D01*
X102980618Y-110870830D01*
X102980621Y-110870830D01*
X102786166Y-110824145D01*
X102743302Y-110813854D01*
X102743300Y-110813853D01*
X102743297Y-110813853D01*
X102500000Y-110794706D01*
X102256702Y-110813853D01*
X102256698Y-110813854D01*
X102106142Y-110850000D01*
X102019380Y-110870830D01*
X101793910Y-110964222D01*
X101585826Y-111091737D01*
X101585823Y-111091738D01*
X101400241Y-111250241D01*
X101241738Y-111435823D01*
X101241737Y-111435826D01*
X101114222Y-111643910D01*
X101020830Y-111869380D01*
X101020828Y-111869387D01*
X101020828Y-111869388D01*
X100987487Y-112008261D01*
X100963853Y-112106702D01*
X100944706Y-112350000D01*
X100963853Y-112593297D01*
X100963853Y-112593300D01*
X100963854Y-112593302D01*
X100972813Y-112630619D01*
X101020830Y-112830621D01*
X101020831Y-112830623D01*
X101105343Y-113034654D01*
X101112812Y-113104123D01*
X101081537Y-113166602D01*
X101078463Y-113169787D01*
X99658737Y-114589515D01*
X99579517Y-114668734D01*
X99579513Y-114668740D01*
X99523498Y-114765760D01*
X99523497Y-114765763D01*
X99494500Y-114873982D01*
X99494500Y-116396079D01*
X99474815Y-116463118D01*
X99422011Y-116508873D01*
X99415298Y-116511704D01*
X99404987Y-116515698D01*
X99404979Y-116515702D01*
X99223699Y-116627947D01*
X99066127Y-116771593D01*
X98937632Y-116941746D01*
X98842596Y-117132605D01*
X98842596Y-117132607D01*
X98784244Y-117337689D01*
X98773471Y-117453951D01*
X98747685Y-117518888D01*
X98703130Y-117550804D01*
X98594622Y-117550804D01*
X98596869Y-117549194D01*
X98560497Y-117528331D01*
X98528307Y-117466318D01*
X98526529Y-117453951D01*
X98525849Y-117446613D01*
X98515756Y-117337690D01*
X98457405Y-117132611D01*
X98457403Y-117132606D01*
X98457403Y-117132605D01*
X98362367Y-116941746D01*
X98233872Y-116771593D01*
X98211492Y-116751191D01*
X98076302Y-116627948D01*
X97895019Y-116515702D01*
X97895017Y-116515701D01*
X97759283Y-116463118D01*
X97696198Y-116438679D01*
X97486610Y-116399500D01*
X97273390Y-116399500D01*
X97063802Y-116438679D01*
X97063799Y-116438679D01*
X97063799Y-116438680D01*
X96864982Y-116515701D01*
X96864980Y-116515702D01*
X96683699Y-116627947D01*
X96526127Y-116771593D01*
X96397632Y-116941746D01*
X96302596Y-117132605D01*
X96302596Y-117132607D01*
X96244244Y-117337689D01*
X96233471Y-117453951D01*
X96207685Y-117518888D01*
X96163130Y-117550804D01*
X96054622Y-117550804D01*
X96056869Y-117549194D01*
X96020497Y-117528331D01*
X95988307Y-117466318D01*
X95986529Y-117453951D01*
X95985849Y-117446613D01*
X95975756Y-117337690D01*
X95917405Y-117132611D01*
X95917403Y-117132606D01*
X95917403Y-117132605D01*
X95822367Y-116941746D01*
X95693872Y-116771593D01*
X95671492Y-116751191D01*
X95536302Y-116627948D01*
X95355019Y-116515702D01*
X95355017Y-116515701D01*
X95219283Y-116463118D01*
X95156198Y-116438679D01*
X94946610Y-116399500D01*
X94733390Y-116399500D01*
X94523802Y-116438679D01*
X94523799Y-116438679D01*
X94523799Y-116438680D01*
X94324982Y-116515701D01*
X94324980Y-116515702D01*
X94143699Y-116627947D01*
X93986127Y-116771593D01*
X93857632Y-116941746D01*
X93762596Y-117132605D01*
X93762596Y-117132607D01*
X93704244Y-117337689D01*
X93693471Y-117453951D01*
X93667685Y-117518888D01*
X93623130Y-117550804D01*
X93514622Y-117550804D01*
X93516869Y-117549194D01*
X93480497Y-117528331D01*
X93448307Y-117466318D01*
X93446529Y-117453951D01*
X93445849Y-117446613D01*
X93435756Y-117337690D01*
X93377405Y-117132611D01*
X93377403Y-117132606D01*
X93377403Y-117132605D01*
X93282367Y-116941746D01*
X93153872Y-116771593D01*
X93131492Y-116751191D01*
X92996302Y-116627948D01*
X92815019Y-116515702D01*
X92815017Y-116515701D01*
X92679283Y-116463118D01*
X92616198Y-116438679D01*
X92406610Y-116399500D01*
X92193390Y-116399500D01*
X91983802Y-116438679D01*
X91983799Y-116438679D01*
X91983799Y-116438680D01*
X91784982Y-116515701D01*
X91784980Y-116515702D01*
X91603699Y-116627947D01*
X91446127Y-116771593D01*
X91317632Y-116941746D01*
X91222596Y-117132605D01*
X91222596Y-117132607D01*
X91164244Y-117337689D01*
X91153471Y-117453951D01*
X91127685Y-117518888D01*
X91083130Y-117550804D01*
X90974622Y-117550804D01*
X90976869Y-117549194D01*
X90940497Y-117528331D01*
X90908307Y-117466318D01*
X90906529Y-117453951D01*
X90905849Y-117446613D01*
X90895756Y-117337690D01*
X90837405Y-117132611D01*
X90837403Y-117132606D01*
X90837403Y-117132605D01*
X90742367Y-116941746D01*
X90613872Y-116771593D01*
X90591492Y-116751191D01*
X90456302Y-116627948D01*
X90275019Y-116515702D01*
X90275017Y-116515701D01*
X90139283Y-116463118D01*
X90076198Y-116438679D01*
X89866610Y-116399500D01*
X89653390Y-116399500D01*
X89443802Y-116438679D01*
X89443799Y-116438679D01*
X89443799Y-116438680D01*
X89244982Y-116515701D01*
X89244980Y-116515702D01*
X89063699Y-116627947D01*
X88906127Y-116771593D01*
X88777632Y-116941746D01*
X88682596Y-117132605D01*
X88682596Y-117132607D01*
X88624244Y-117337689D01*
X88610671Y-117484174D01*
X88604571Y-117550000D01*
X85701191Y-117550000D01*
X85698856Y-117542199D01*
X85560446Y-117221329D01*
X85560440Y-117221316D01*
X85385712Y-116918677D01*
X85177034Y-116638374D01*
X85168852Y-116629702D01*
X84314554Y-117483999D01*
X84253231Y-117517484D01*
X84183539Y-117512500D01*
X84129926Y-117473631D01*
X84098742Y-117434527D01*
X83963928Y-117309439D01*
X83928173Y-117249410D01*
X83930548Y-117179581D01*
X83960588Y-117130859D01*
X84812182Y-116279265D01*
X84812181Y-116279264D01*
X84669521Y-116159557D01*
X84377540Y-115967519D01*
X84065262Y-115810685D01*
X84065256Y-115810683D01*
X83736871Y-115691161D01*
X83736868Y-115691160D01*
X83396830Y-115610570D01*
X83049725Y-115570000D01*
X82700279Y-115570000D01*
X82353174Y-115610570D01*
X82353172Y-115610570D01*
X82013135Y-115691160D01*
X82013132Y-115691161D01*
X81684747Y-115810683D01*
X81684741Y-115810685D01*
X81372463Y-115967519D01*
X81080482Y-116159557D01*
X80937821Y-116279264D01*
X80937820Y-116279265D01*
X81789415Y-117130860D01*
X81822900Y-117192183D01*
X81817916Y-117261875D01*
X81786076Y-117309439D01*
X81651260Y-117434529D01*
X81651258Y-117434532D01*
X81620077Y-117473632D01*
X81562888Y-117513772D01*
X81493077Y-117516622D01*
X81435449Y-117484000D01*
X80581150Y-116629701D01*
X80581149Y-116629702D01*
X80572978Y-116638363D01*
X80572974Y-116638368D01*
X80364294Y-116918674D01*
X80356889Y-116931500D01*
X80306321Y-116979715D01*
X80237714Y-116992937D01*
X80172850Y-116966969D01*
X80132322Y-116910055D01*
X80125502Y-116869499D01*
X80125502Y-110320155D01*
X83038000Y-110320155D01*
X83038000Y-110880000D01*
X84011184Y-110880000D01*
X83995124Y-110896060D01*
X83944964Y-110982939D01*
X83919000Y-111079840D01*
X83919000Y-111180160D01*
X83944964Y-111277061D01*
X83995124Y-111363940D01*
X84011184Y-111380000D01*
X83038000Y-111380000D01*
X83038000Y-111939844D01*
X83044401Y-111999372D01*
X83044403Y-111999379D01*
X83094645Y-112134086D01*
X83094649Y-112134093D01*
X83180809Y-112249187D01*
X83180812Y-112249190D01*
X83295906Y-112335350D01*
X83295913Y-112335354D01*
X83430620Y-112385596D01*
X83430627Y-112385598D01*
X83490155Y-112391999D01*
X83490172Y-112392000D01*
X84050000Y-112392000D01*
X84050000Y-111418816D01*
X84066060Y-111434876D01*
X84152939Y-111485036D01*
X84249840Y-111511000D01*
X84350160Y-111511000D01*
X84447061Y-111485036D01*
X84533940Y-111434876D01*
X84550000Y-111418816D01*
X84550000Y-112392000D01*
X85109828Y-112392000D01*
X85109844Y-112391999D01*
X85169372Y-112385598D01*
X85169379Y-112385596D01*
X85304086Y-112335354D01*
X85304093Y-112335350D01*
X85419187Y-112249190D01*
X85419190Y-112249187D01*
X85505350Y-112134093D01*
X85505354Y-112134086D01*
X85555596Y-111999379D01*
X85555598Y-111999372D01*
X85561999Y-111939844D01*
X85562000Y-111939827D01*
X85562000Y-111380000D01*
X84588816Y-111380000D01*
X84604876Y-111363940D01*
X84655036Y-111277061D01*
X84681000Y-111180160D01*
X84681000Y-111079840D01*
X84655036Y-110982939D01*
X84604876Y-110896060D01*
X84588816Y-110880000D01*
X85562000Y-110880000D01*
X85562000Y-110320172D01*
X85561999Y-110320155D01*
X85555598Y-110260627D01*
X85555596Y-110260620D01*
X85505354Y-110125913D01*
X85505350Y-110125906D01*
X85419190Y-110010812D01*
X85419187Y-110010809D01*
X85304093Y-109924649D01*
X85304086Y-109924645D01*
X85169379Y-109874403D01*
X85169372Y-109874401D01*
X85109844Y-109868000D01*
X84583140Y-109868000D01*
X84516101Y-109848315D01*
X84470346Y-109795511D01*
X84460402Y-109726353D01*
X84489427Y-109662797D01*
X84547144Y-109625339D01*
X84708569Y-109576372D01*
X84893150Y-109477711D01*
X85054936Y-109344936D01*
X85187711Y-109183150D01*
X85286372Y-108998569D01*
X85347127Y-108798286D01*
X85367641Y-108590000D01*
X85347127Y-108381714D01*
X85286372Y-108181431D01*
X85187711Y-107996850D01*
X85149460Y-107950241D01*
X85054936Y-107835063D01*
X84893153Y-107702291D01*
X84893151Y-107702290D01*
X84893150Y-107702289D01*
X84708569Y-107603628D01*
X84585152Y-107566190D01*
X84508284Y-107542872D01*
X84300000Y-107522359D01*
X84091715Y-107542872D01*
X83891428Y-107603629D01*
X83706846Y-107702291D01*
X83545063Y-107835063D01*
X83412291Y-107996846D01*
X83313629Y-108181428D01*
X83252872Y-108381715D01*
X83232359Y-108590000D01*
X83252872Y-108798284D01*
X83255426Y-108806702D01*
X83313628Y-108998569D01*
X83404092Y-109167815D01*
X83412291Y-109183153D01*
X83545063Y-109344936D01*
X83706846Y-109477708D01*
X83706850Y-109477711D01*
X83891431Y-109576372D01*
X84052855Y-109625339D01*
X84111294Y-109663637D01*
X84139750Y-109727449D01*
X84129190Y-109796516D01*
X84082966Y-109848910D01*
X84016860Y-109868000D01*
X83490155Y-109868000D01*
X83430627Y-109874401D01*
X83430620Y-109874403D01*
X83295913Y-109924645D01*
X83295906Y-109924649D01*
X83180812Y-110010809D01*
X83180809Y-110010812D01*
X83094649Y-110125906D01*
X83094645Y-110125913D01*
X83044403Y-110260620D01*
X83044401Y-110260627D01*
X83038000Y-110320155D01*
X80125502Y-110320155D01*
X80125502Y-106050000D01*
X83232359Y-106050000D01*
X83252872Y-106258284D01*
X83278856Y-106343940D01*
X83291975Y-106387190D01*
X83313629Y-106458571D01*
X83412291Y-106643153D01*
X83545063Y-106804936D01*
X83706846Y-106937708D01*
X83706850Y-106937711D01*
X83891431Y-107036372D01*
X84091714Y-107097127D01*
X84300000Y-107117641D01*
X84508286Y-107097127D01*
X84708569Y-107036372D01*
X84893150Y-106937711D01*
X85054936Y-106804936D01*
X85187711Y-106643150D01*
X85286372Y-106458569D01*
X85347127Y-106258286D01*
X85367641Y-106050000D01*
X85347127Y-105841714D01*
X85286372Y-105641431D01*
X85187711Y-105456850D01*
X85178770Y-105445955D01*
X85054936Y-105295063D01*
X84893153Y-105162291D01*
X84893151Y-105162290D01*
X84893150Y-105162289D01*
X84708569Y-105063628D01*
X84599730Y-105030612D01*
X84508284Y-105002872D01*
X84300000Y-104982359D01*
X84091715Y-105002872D01*
X83891428Y-105063629D01*
X83706846Y-105162291D01*
X83545063Y-105295063D01*
X83412291Y-105456846D01*
X83313629Y-105641428D01*
X83252872Y-105841715D01*
X83232359Y-106050000D01*
X80125502Y-106050000D01*
X80125502Y-103510000D01*
X83232359Y-103510000D01*
X83252872Y-103718284D01*
X83252873Y-103718286D01*
X83313628Y-103918569D01*
X83394238Y-104069380D01*
X83412291Y-104103153D01*
X83545063Y-104264936D01*
X83706846Y-104397708D01*
X83706850Y-104397711D01*
X83891431Y-104496372D01*
X84091714Y-104557127D01*
X84300000Y-104577641D01*
X84508286Y-104557127D01*
X84708569Y-104496372D01*
X84893150Y-104397711D01*
X85054936Y-104264936D01*
X85187711Y-104103150D01*
X85286372Y-103918569D01*
X85347127Y-103718286D01*
X85367641Y-103510000D01*
X85347127Y-103301714D01*
X85286372Y-103101431D01*
X85187711Y-102916850D01*
X85121176Y-102835777D01*
X85054936Y-102755063D01*
X84893153Y-102622291D01*
X84893151Y-102622290D01*
X84893150Y-102622289D01*
X84708569Y-102523628D01*
X84608427Y-102493250D01*
X84508284Y-102462872D01*
X84300000Y-102442359D01*
X84091715Y-102462872D01*
X83914334Y-102516680D01*
X83891590Y-102523580D01*
X83891428Y-102523629D01*
X83706846Y-102622291D01*
X83545063Y-102755063D01*
X83412291Y-102916846D01*
X83313629Y-103101428D01*
X83252872Y-103301715D01*
X83232359Y-103510000D01*
X80125502Y-103510000D01*
X80125502Y-102251577D01*
X90049500Y-102251577D01*
X90049500Y-106648422D01*
X90080290Y-106842826D01*
X90141117Y-107030029D01*
X90214060Y-107173186D01*
X90230476Y-107205405D01*
X90346172Y-107364646D01*
X90485354Y-107503828D01*
X90644595Y-107619524D01*
X90676527Y-107635794D01*
X90819970Y-107708882D01*
X90819972Y-107708882D01*
X90819975Y-107708884D01*
X90920317Y-107741487D01*
X91007173Y-107769709D01*
X91201578Y-107800500D01*
X91201583Y-107800500D01*
X93798422Y-107800500D01*
X93992826Y-107769709D01*
X93993839Y-107769380D01*
X94180025Y-107708884D01*
X94355405Y-107619524D01*
X94514646Y-107503828D01*
X94653828Y-107364646D01*
X94769524Y-107205405D01*
X94858884Y-107030025D01*
X94919709Y-106842826D01*
X94931112Y-106770830D01*
X94950500Y-106648422D01*
X94950500Y-106109999D01*
X95633179Y-106109999D01*
X95633179Y-106110000D01*
X95652424Y-106329976D01*
X95652426Y-106329986D01*
X95709575Y-106543270D01*
X95709580Y-106543284D01*
X95802898Y-106743405D01*
X95802901Y-106743411D01*
X95848258Y-106808187D01*
X95848259Y-106808188D01*
X96519000Y-106137447D01*
X96519000Y-106160160D01*
X96544964Y-106257061D01*
X96595124Y-106343940D01*
X96666060Y-106414876D01*
X96752939Y-106465036D01*
X96849840Y-106491000D01*
X96872553Y-106491000D01*
X96201810Y-107161740D01*
X96266590Y-107207099D01*
X96266592Y-107207100D01*
X96466715Y-107300419D01*
X96466729Y-107300424D01*
X96628332Y-107343725D01*
X96687993Y-107380090D01*
X96718522Y-107442937D01*
X96710227Y-107512312D01*
X96665742Y-107566190D01*
X96599190Y-107587465D01*
X96596239Y-107587500D01*
X96093143Y-107587500D01*
X96093117Y-107587502D01*
X96068012Y-107590413D01*
X96068008Y-107590415D01*
X95965235Y-107635793D01*
X95885794Y-107715234D01*
X95840415Y-107818006D01*
X95840415Y-107818008D01*
X95837500Y-107843131D01*
X95837500Y-109456856D01*
X95837502Y-109456882D01*
X95840413Y-109481987D01*
X95840415Y-109481991D01*
X95885793Y-109584764D01*
X95885794Y-109584765D01*
X95965235Y-109664206D01*
X96068009Y-109709585D01*
X96093135Y-109712500D01*
X97706864Y-109712499D01*
X97706879Y-109712497D01*
X97706882Y-109712497D01*
X97731987Y-109709586D01*
X97731988Y-109709585D01*
X97731991Y-109709585D01*
X97834765Y-109664206D01*
X97914206Y-109584765D01*
X97959585Y-109481991D01*
X97962500Y-109456865D01*
X97962499Y-107843136D01*
X97961563Y-107835063D01*
X97959586Y-107818012D01*
X97959585Y-107818010D01*
X97959585Y-107818009D01*
X97914206Y-107715235D01*
X97834765Y-107635794D01*
X97797915Y-107619523D01*
X97731992Y-107590415D01*
X97706868Y-107587500D01*
X97203761Y-107587500D01*
X97136722Y-107567815D01*
X97090967Y-107515011D01*
X97081023Y-107445853D01*
X97110048Y-107382297D01*
X97168826Y-107344523D01*
X97171668Y-107343725D01*
X97333270Y-107300424D01*
X97333284Y-107300419D01*
X97533407Y-107207100D01*
X97533417Y-107207094D01*
X97598188Y-107161741D01*
X96927448Y-106491000D01*
X96950160Y-106491000D01*
X97047061Y-106465036D01*
X97133940Y-106414876D01*
X97204876Y-106343940D01*
X97255036Y-106257061D01*
X97281000Y-106160160D01*
X97281000Y-106137447D01*
X97951741Y-106808188D01*
X97997094Y-106743417D01*
X97997100Y-106743407D01*
X98090419Y-106543284D01*
X98090424Y-106543270D01*
X98147573Y-106329986D01*
X98147575Y-106329976D01*
X98166821Y-106110000D01*
X98166821Y-106109999D01*
X98147575Y-105890023D01*
X98147573Y-105890013D01*
X98090424Y-105676729D01*
X98090420Y-105676720D01*
X97997096Y-105476586D01*
X97951741Y-105411811D01*
X97951740Y-105411810D01*
X97281000Y-106082551D01*
X97281000Y-106059840D01*
X97255036Y-105962939D01*
X97204876Y-105876060D01*
X97133940Y-105805124D01*
X97047061Y-105754964D01*
X96950160Y-105729000D01*
X96927448Y-105729000D01*
X97598188Y-105058259D01*
X97598187Y-105058258D01*
X97533411Y-105012901D01*
X97533405Y-105012898D01*
X97333284Y-104919580D01*
X97333270Y-104919575D01*
X97119986Y-104862426D01*
X97114652Y-104861486D01*
X97114872Y-104860233D01*
X97055550Y-104837027D01*
X97014573Y-104780436D01*
X97010696Y-104710674D01*
X97045150Y-104649890D01*
X97102685Y-104619649D01*
X97102457Y-104618895D01*
X97106392Y-104617701D01*
X97106998Y-104617383D01*
X97107239Y-104617335D01*
X97108276Y-104617127D01*
X97108286Y-104617127D01*
X97308569Y-104556372D01*
X97493150Y-104457711D01*
X97654936Y-104324936D01*
X97787711Y-104163150D01*
X97886372Y-103978569D01*
X97947127Y-103778286D01*
X97967641Y-103570000D01*
X97947127Y-103361714D01*
X97886372Y-103161431D01*
X97787711Y-102976850D01*
X97749770Y-102930619D01*
X97654936Y-102815063D01*
X97493153Y-102682291D01*
X97493151Y-102682290D01*
X97493150Y-102682289D01*
X97308569Y-102583628D01*
X97196914Y-102549758D01*
X97108284Y-102522872D01*
X96900000Y-102502359D01*
X96691715Y-102522872D01*
X96491428Y-102583629D01*
X96306846Y-102682291D01*
X96145063Y-102815063D01*
X96012291Y-102976846D01*
X95913629Y-103161428D01*
X95852872Y-103361715D01*
X95832359Y-103570000D01*
X95852872Y-103778284D01*
X95872780Y-103843910D01*
X95912976Y-103976421D01*
X95913629Y-103978571D01*
X96012291Y-104163153D01*
X96145063Y-104324936D01*
X96306846Y-104457708D01*
X96306850Y-104457711D01*
X96491431Y-104556372D01*
X96691714Y-104617127D01*
X96691716Y-104617127D01*
X96691719Y-104617128D01*
X96692763Y-104617336D01*
X96693259Y-104617595D01*
X96697543Y-104618895D01*
X96697296Y-104619707D01*
X96754674Y-104649721D01*
X96789248Y-104710437D01*
X96785508Y-104780207D01*
X96744641Y-104836878D01*
X96685137Y-104860290D01*
X96685348Y-104861486D01*
X96680013Y-104862426D01*
X96466729Y-104919575D01*
X96466720Y-104919579D01*
X96266590Y-105012901D01*
X96201811Y-105058258D01*
X96872553Y-105729000D01*
X96849840Y-105729000D01*
X96752939Y-105754964D01*
X96666060Y-105805124D01*
X96595124Y-105876060D01*
X96544964Y-105962939D01*
X96519000Y-106059840D01*
X96519000Y-106082553D01*
X95848258Y-105411811D01*
X95802901Y-105476590D01*
X95709579Y-105676720D01*
X95709575Y-105676729D01*
X95652426Y-105890013D01*
X95652424Y-105890023D01*
X95633179Y-106109999D01*
X94950500Y-106109999D01*
X94950500Y-102251577D01*
X94919709Y-102057173D01*
X94879557Y-101933600D01*
X94858884Y-101869975D01*
X94858882Y-101869972D01*
X94858882Y-101869970D01*
X94811743Y-101777455D01*
X94769524Y-101694595D01*
X94653828Y-101535354D01*
X94514646Y-101396172D01*
X94355405Y-101280476D01*
X94180029Y-101191117D01*
X93992826Y-101130290D01*
X93798422Y-101099500D01*
X93798417Y-101099500D01*
X93749828Y-101099500D01*
X91344170Y-101099500D01*
X91300000Y-101099500D01*
X91201583Y-101099500D01*
X91201578Y-101099500D01*
X91007173Y-101130290D01*
X90819970Y-101191117D01*
X90644594Y-101280476D01*
X90553741Y-101346485D01*
X90485354Y-101396172D01*
X90485352Y-101396174D01*
X90485351Y-101396174D01*
X90346174Y-101535351D01*
X90346174Y-101535352D01*
X90346172Y-101535354D01*
X90309550Y-101585760D01*
X90230476Y-101694594D01*
X90141117Y-101869970D01*
X90080290Y-102057173D01*
X90049500Y-102251577D01*
X80125502Y-102251577D01*
X80125502Y-96481898D01*
X81299500Y-96481898D01*
X81299500Y-97818102D01*
X81305126Y-97864954D01*
X81310122Y-97906561D01*
X81365639Y-98047343D01*
X81457077Y-98167922D01*
X81577656Y-98259360D01*
X81577657Y-98259360D01*
X81577658Y-98259361D01*
X81718436Y-98314877D01*
X81806898Y-98325500D01*
X81806903Y-98325500D01*
X82693097Y-98325500D01*
X82693102Y-98325500D01*
X82781564Y-98314877D01*
X82922342Y-98259361D01*
X83042922Y-98167922D01*
X83134361Y-98047342D01*
X83189877Y-97906564D01*
X83200500Y-97818102D01*
X83200500Y-96481898D01*
X84399500Y-96481898D01*
X84399500Y-97818102D01*
X84405126Y-97864954D01*
X84410122Y-97906561D01*
X84465639Y-98047343D01*
X84557077Y-98167922D01*
X84677656Y-98259360D01*
X84677657Y-98259360D01*
X84677658Y-98259361D01*
X84818436Y-98314877D01*
X84906898Y-98325500D01*
X84906903Y-98325500D01*
X85793097Y-98325500D01*
X85793102Y-98325500D01*
X85881564Y-98314877D01*
X86022342Y-98259361D01*
X86142922Y-98167922D01*
X86234361Y-98047342D01*
X86289877Y-97906564D01*
X86300500Y-97818102D01*
X86300500Y-96481898D01*
X86289877Y-96393436D01*
X86234361Y-96252658D01*
X86234360Y-96252657D01*
X86234360Y-96252656D01*
X86142922Y-96132077D01*
X86022343Y-96040639D01*
X85881561Y-95985122D01*
X85835926Y-95979642D01*
X85793102Y-95974500D01*
X84906898Y-95974500D01*
X84867853Y-95979188D01*
X84818438Y-95985122D01*
X84677656Y-96040639D01*
X84557077Y-96132077D01*
X84465639Y-96252656D01*
X84410122Y-96393438D01*
X84408717Y-96405143D01*
X84399500Y-96481898D01*
X83200500Y-96481898D01*
X83189877Y-96393436D01*
X83134361Y-96252658D01*
X83134360Y-96252657D01*
X83134360Y-96252656D01*
X83042922Y-96132077D01*
X82922343Y-96040639D01*
X82781556Y-95985120D01*
X82773852Y-95983173D01*
X82774382Y-95981072D01*
X82720490Y-95957954D01*
X82681364Y-95900067D01*
X82675500Y-95862385D01*
X82675500Y-92827608D01*
X82695185Y-92760569D01*
X82711815Y-92739931D01*
X83314928Y-92136817D01*
X83376251Y-92103333D01*
X83402609Y-92100499D01*
X84794856Y-92100499D01*
X84794864Y-92100499D01*
X84794879Y-92100497D01*
X84794882Y-92100497D01*
X84819987Y-92097586D01*
X84819988Y-92097585D01*
X84819991Y-92097585D01*
X84922765Y-92052206D01*
X85002206Y-91972765D01*
X85034335Y-91899999D01*
X88429364Y-91899999D01*
X88429364Y-91900000D01*
X89326988Y-91900000D01*
X89294075Y-91957007D01*
X89260000Y-92084174D01*
X89260000Y-92215826D01*
X89294075Y-92342993D01*
X89326988Y-92400000D01*
X88429364Y-92400000D01*
X88486567Y-92613486D01*
X88486570Y-92613492D01*
X88586399Y-92827578D01*
X88721894Y-93021082D01*
X88888917Y-93188105D01*
X89082421Y-93323600D01*
X89296507Y-93423429D01*
X89296516Y-93423433D01*
X89510000Y-93480634D01*
X89510000Y-92583012D01*
X89567007Y-92615925D01*
X89694174Y-92650000D01*
X89825826Y-92650000D01*
X89952993Y-92615925D01*
X90010000Y-92583012D01*
X90010000Y-93480633D01*
X90223483Y-93423433D01*
X90223492Y-93423429D01*
X90437578Y-93323600D01*
X90631082Y-93188105D01*
X90798105Y-93021082D01*
X90933600Y-92827578D01*
X91027294Y-92626651D01*
X91073466Y-92574212D01*
X91140660Y-92555060D01*
X91207541Y-92575276D01*
X91250676Y-92623785D01*
X91317632Y-92758253D01*
X91426147Y-92901948D01*
X91446128Y-92928407D01*
X91603698Y-93072052D01*
X91784981Y-93184298D01*
X91795290Y-93188291D01*
X91850692Y-93230860D01*
X91874285Y-93296626D01*
X91874500Y-93303919D01*
X91874500Y-93893982D01*
X91874500Y-94006018D01*
X91903497Y-94114237D01*
X91959515Y-94211263D01*
X92259515Y-94511263D01*
X92338737Y-94590485D01*
X92435763Y-94646503D01*
X92543982Y-94675500D01*
X94872390Y-94675500D01*
X94939429Y-94695185D01*
X94960071Y-94711819D01*
X95038181Y-94789929D01*
X95071666Y-94851252D01*
X95074500Y-94877610D01*
X95074500Y-99686017D01*
X95103497Y-99794236D01*
X95103498Y-99794239D01*
X95104325Y-99795672D01*
X95159515Y-99891263D01*
X95159517Y-99891265D01*
X95855500Y-100587248D01*
X95888985Y-100648571D01*
X95886480Y-100710923D01*
X95852872Y-100821714D01*
X95832359Y-101030000D01*
X95852872Y-101238284D01*
X95852873Y-101238286D01*
X95913628Y-101438569D01*
X96000182Y-101600500D01*
X96012291Y-101623153D01*
X96145063Y-101784936D01*
X96282398Y-101897644D01*
X96306850Y-101917711D01*
X96491431Y-102016372D01*
X96691714Y-102077127D01*
X96900000Y-102097641D01*
X97108286Y-102077127D01*
X97308569Y-102016372D01*
X97493150Y-101917711D01*
X97654936Y-101784936D01*
X97787711Y-101623150D01*
X97886372Y-101438569D01*
X97947127Y-101238286D01*
X97967641Y-101030000D01*
X97947127Y-100821714D01*
X97886372Y-100621431D01*
X97787711Y-100436850D01*
X97751968Y-100393297D01*
X97654936Y-100275063D01*
X97493153Y-100142291D01*
X97493151Y-100142290D01*
X97493150Y-100142289D01*
X97308569Y-100043628D01*
X97208427Y-100013250D01*
X97108284Y-99982872D01*
X96900000Y-99962359D01*
X96691714Y-99982872D01*
X96580923Y-100016480D01*
X96511056Y-100017103D01*
X96457248Y-99985500D01*
X95961819Y-99490071D01*
X95928334Y-99428748D01*
X95925500Y-99402390D01*
X95925500Y-99323953D01*
X95945185Y-99256914D01*
X95997989Y-99211159D01*
X96067147Y-99201215D01*
X96130703Y-99230240D01*
X96143046Y-99242919D01*
X96145061Y-99244934D01*
X96218610Y-99305294D01*
X96306850Y-99377711D01*
X96491431Y-99476372D01*
X96691714Y-99537127D01*
X96900000Y-99557641D01*
X97108286Y-99537127D01*
X97308569Y-99476372D01*
X97493150Y-99377711D01*
X97654936Y-99244936D01*
X97787711Y-99083150D01*
X97886372Y-98898569D01*
X97947127Y-98698286D01*
X97967641Y-98490000D01*
X97947127Y-98281714D01*
X97886372Y-98081431D01*
X97787711Y-97896850D01*
X97712572Y-97805293D01*
X97654936Y-97735063D01*
X97553208Y-97651577D01*
X102549500Y-97651577D01*
X102549500Y-105205240D01*
X102549562Y-105205877D01*
X102549584Y-105245306D01*
X102549585Y-105245317D01*
X102582417Y-105445955D01*
X102582422Y-105445972D01*
X102647236Y-105638676D01*
X102647243Y-105638693D01*
X102742338Y-105818397D01*
X102742341Y-105818402D01*
X102742343Y-105818405D01*
X102865227Y-105980399D01*
X103012666Y-106120414D01*
X103012668Y-106120415D01*
X103012668Y-106120416D01*
X103180777Y-106234767D01*
X103180781Y-106234769D01*
X103180787Y-106234773D01*
X103365173Y-106320472D01*
X103560982Y-106375258D01*
X103763069Y-106397694D01*
X103966126Y-106387190D01*
X104110513Y-106355820D01*
X104164815Y-106344023D01*
X104164815Y-106344022D01*
X104164819Y-106344022D01*
X104353929Y-106269323D01*
X104528489Y-106165057D01*
X104683912Y-106033961D01*
X104693893Y-106022311D01*
X104694060Y-106022202D01*
X104756268Y-105949504D01*
X104756270Y-105949500D01*
X109719808Y-100150000D01*
X112944706Y-100150000D01*
X112963853Y-100393297D01*
X112963853Y-100393300D01*
X112963854Y-100393302D01*
X112998070Y-100535821D01*
X113020830Y-100630619D01*
X113114222Y-100856089D01*
X113241737Y-101064173D01*
X113241738Y-101064176D01*
X113271908Y-101099500D01*
X113400241Y-101249759D01*
X113517891Y-101350241D01*
X113585823Y-101408261D01*
X113585826Y-101408262D01*
X113793910Y-101535777D01*
X114019381Y-101629169D01*
X114019378Y-101629169D01*
X114019384Y-101629170D01*
X114019388Y-101629172D01*
X114256698Y-101686146D01*
X114500000Y-101705294D01*
X114743302Y-101686146D01*
X114980612Y-101629172D01*
X115206089Y-101535777D01*
X115414179Y-101408259D01*
X115599759Y-101249759D01*
X115758259Y-101064179D01*
X115885777Y-100856089D01*
X115979172Y-100630612D01*
X116036146Y-100393302D01*
X116055294Y-100150000D01*
X116036146Y-99906698D01*
X115979172Y-99669388D01*
X115978675Y-99668189D01*
X115894655Y-99465344D01*
X115887186Y-99395874D01*
X115918461Y-99333395D01*
X115921506Y-99330240D01*
X117062820Y-98188925D01*
X117124142Y-98155442D01*
X117193834Y-98160426D01*
X117249767Y-98202298D01*
X117274184Y-98267762D01*
X117274500Y-98276608D01*
X117274500Y-101006674D01*
X117254815Y-101073713D01*
X117215290Y-101112401D01*
X117085826Y-101191737D01*
X117085823Y-101191738D01*
X116900241Y-101350241D01*
X116741738Y-101535823D01*
X116741737Y-101535826D01*
X116614222Y-101743910D01*
X116520830Y-101969380D01*
X116463853Y-102206702D01*
X116444706Y-102450000D01*
X116463853Y-102693297D01*
X116463853Y-102693300D01*
X116463854Y-102693302D01*
X116520482Y-102929172D01*
X116520830Y-102930619D01*
X116614222Y-103156089D01*
X116741737Y-103364173D01*
X116741738Y-103364176D01*
X116741741Y-103364179D01*
X116900241Y-103549759D01*
X117001013Y-103635826D01*
X117085823Y-103708261D01*
X117085826Y-103708262D01*
X117293910Y-103835777D01*
X117519381Y-103929169D01*
X117519378Y-103929169D01*
X117519384Y-103929170D01*
X117519388Y-103929172D01*
X117756698Y-103986146D01*
X118000000Y-104005294D01*
X118243302Y-103986146D01*
X118480612Y-103929172D01*
X118706089Y-103835777D01*
X118914179Y-103708259D01*
X119099759Y-103549759D01*
X119258259Y-103364179D01*
X119385777Y-103156089D01*
X119479172Y-102930612D01*
X119536146Y-102693302D01*
X119555294Y-102450000D01*
X119536146Y-102206698D01*
X119479172Y-101969388D01*
X119471660Y-101951252D01*
X119385777Y-101743910D01*
X119258262Y-101535826D01*
X119258261Y-101535823D01*
X119184961Y-101450000D01*
X119099759Y-101350241D01*
X118931696Y-101206702D01*
X118914176Y-101191738D01*
X118914173Y-101191737D01*
X118706089Y-101064222D01*
X118480618Y-100970830D01*
X118480621Y-100970830D01*
X118243303Y-100913854D01*
X118243295Y-100913853D01*
X118239760Y-100913575D01*
X118238497Y-100913093D01*
X118238493Y-100913093D01*
X118238493Y-100913092D01*
X118174474Y-100888685D01*
X118133008Y-100832450D01*
X118125500Y-100789958D01*
X118125500Y-99776610D01*
X118145185Y-99709571D01*
X118197989Y-99663816D01*
X118267147Y-99653872D01*
X118330703Y-99682897D01*
X118337181Y-99688929D01*
X120538181Y-101889929D01*
X120571666Y-101951252D01*
X120574500Y-101977610D01*
X120574500Y-103365145D01*
X120554815Y-103432184D01*
X120502011Y-103477939D01*
X120497953Y-103479706D01*
X120293910Y-103564222D01*
X120085826Y-103691737D01*
X120085823Y-103691738D01*
X119900241Y-103850241D01*
X119741738Y-104035823D01*
X119741737Y-104035826D01*
X119614222Y-104243910D01*
X119520830Y-104469380D01*
X119520828Y-104469387D01*
X119520828Y-104469388D01*
X119499945Y-104556370D01*
X119463853Y-104706702D01*
X119444706Y-104950000D01*
X119463853Y-105193297D01*
X119463853Y-105193300D01*
X119463854Y-105193302D01*
X119516804Y-105413853D01*
X119520830Y-105430619D01*
X119614222Y-105656089D01*
X119741737Y-105864173D01*
X119741738Y-105864176D01*
X119795449Y-105927063D01*
X119900241Y-106049759D01*
X119999875Y-106134854D01*
X120085823Y-106208261D01*
X120085826Y-106208262D01*
X120293910Y-106335777D01*
X120519381Y-106429169D01*
X120519378Y-106429169D01*
X120519384Y-106429170D01*
X120519388Y-106429172D01*
X120756698Y-106486146D01*
X121000000Y-106505294D01*
X121243302Y-106486146D01*
X121480612Y-106429172D01*
X121706089Y-106335777D01*
X121914179Y-106208259D01*
X122099759Y-106049759D01*
X122258259Y-105864179D01*
X122385777Y-105656089D01*
X122479172Y-105430612D01*
X122536146Y-105193302D01*
X122555294Y-104950000D01*
X122547638Y-104852720D01*
X137450830Y-104852720D01*
X137622546Y-104969793D01*
X137622550Y-104969795D01*
X137858854Y-105083594D01*
X137858858Y-105083595D01*
X138109494Y-105160907D01*
X138109500Y-105160909D01*
X138368848Y-105199999D01*
X138368857Y-105200000D01*
X138631143Y-105200000D01*
X138631151Y-105199999D01*
X138890499Y-105160909D01*
X138890505Y-105160907D01*
X139141143Y-105083595D01*
X139377445Y-104969798D01*
X139377447Y-104969797D01*
X139549168Y-104852720D01*
X138500000Y-103803553D01*
X137450830Y-104852720D01*
X122547638Y-104852720D01*
X122536146Y-104706698D01*
X122479172Y-104469388D01*
X122477033Y-104464223D01*
X122385777Y-104243910D01*
X122258262Y-104035826D01*
X122258261Y-104035823D01*
X122167172Y-103929172D01*
X122099759Y-103850241D01*
X121977063Y-103745449D01*
X121914176Y-103691738D01*
X121914173Y-103691737D01*
X121706089Y-103564222D01*
X121502047Y-103479706D01*
X121465178Y-103449995D01*
X136745093Y-103449995D01*
X136745093Y-103450004D01*
X136764692Y-103711545D01*
X136764693Y-103711550D01*
X136823058Y-103967270D01*
X136918883Y-104211426D01*
X136918882Y-104211426D01*
X137050027Y-104438573D01*
X137097874Y-104498571D01*
X138146447Y-103450000D01*
X138146447Y-103449999D01*
X138853553Y-103449999D01*
X138853553Y-103450000D01*
X139902125Y-104498572D01*
X139949971Y-104438573D01*
X140081116Y-104211426D01*
X140176941Y-103967270D01*
X140235306Y-103711550D01*
X140235307Y-103711545D01*
X140254907Y-103450004D01*
X140254907Y-103449995D01*
X140235307Y-103188454D01*
X140235306Y-103188449D01*
X140176941Y-102932729D01*
X140081116Y-102688573D01*
X140081117Y-102688573D01*
X139949972Y-102461426D01*
X139902124Y-102401427D01*
X138853553Y-103449999D01*
X138146447Y-103449999D01*
X137097874Y-102401427D01*
X137050028Y-102461425D01*
X136918883Y-102688573D01*
X136823058Y-102932729D01*
X136764693Y-103188449D01*
X136764692Y-103188454D01*
X136745093Y-103449995D01*
X121465178Y-103449995D01*
X121447644Y-103435865D01*
X121425579Y-103369571D01*
X121425500Y-103365145D01*
X121425500Y-101693984D01*
X121425500Y-101693982D01*
X121396503Y-101585763D01*
X121340485Y-101488737D01*
X121261263Y-101409515D01*
X118661819Y-98810071D01*
X118628334Y-98748748D01*
X118625500Y-98722390D01*
X118625500Y-97750000D01*
X119144706Y-97750000D01*
X119163853Y-97993297D01*
X119163853Y-97993300D01*
X119163854Y-97993302D01*
X119214030Y-98202298D01*
X119220830Y-98230619D01*
X119314222Y-98456089D01*
X119441737Y-98664173D01*
X119441738Y-98664176D01*
X119447421Y-98670830D01*
X119600241Y-98849759D01*
X119729818Y-98960428D01*
X119785823Y-99008261D01*
X119785826Y-99008262D01*
X119993910Y-99135777D01*
X120219381Y-99229169D01*
X120219378Y-99229169D01*
X120219384Y-99229170D01*
X120219388Y-99229172D01*
X120456698Y-99286146D01*
X120700000Y-99305294D01*
X120943302Y-99286146D01*
X121180612Y-99229172D01*
X121406089Y-99135777D01*
X121614179Y-99008259D01*
X121799759Y-98849759D01*
X121958259Y-98664179D01*
X122085777Y-98456089D01*
X122179172Y-98230612D01*
X122236146Y-97993302D01*
X122255294Y-97750000D01*
X122236146Y-97506698D01*
X122179172Y-97269388D01*
X122172379Y-97252989D01*
X122094655Y-97065344D01*
X122087186Y-96995874D01*
X122118461Y-96933395D01*
X122121507Y-96930238D01*
X123031053Y-96020693D01*
X123031058Y-96020689D01*
X123041261Y-96010485D01*
X123041263Y-96010485D01*
X123062819Y-95988929D01*
X123124142Y-95955444D01*
X123193834Y-95960428D01*
X123249767Y-96002300D01*
X123274184Y-96067764D01*
X123274500Y-96076610D01*
X123274500Y-99865145D01*
X123254815Y-99932184D01*
X123202011Y-99977939D01*
X123197953Y-99979706D01*
X122993910Y-100064222D01*
X122785826Y-100191737D01*
X122785823Y-100191738D01*
X122600241Y-100350241D01*
X122441738Y-100535823D01*
X122441737Y-100535826D01*
X122314222Y-100743910D01*
X122220830Y-100969380D01*
X122163853Y-101206702D01*
X122144706Y-101450000D01*
X122163853Y-101693297D01*
X122163853Y-101693300D01*
X122163854Y-101693302D01*
X122220731Y-101930210D01*
X122220830Y-101930619D01*
X122314222Y-102156089D01*
X122441737Y-102364173D01*
X122441738Y-102364176D01*
X122441741Y-102364179D01*
X122600241Y-102549759D01*
X122743897Y-102672453D01*
X122785823Y-102708261D01*
X122785826Y-102708262D01*
X122993910Y-102835777D01*
X123219381Y-102929169D01*
X123219378Y-102929169D01*
X123219384Y-102929170D01*
X123219388Y-102929172D01*
X123456698Y-102986146D01*
X123700000Y-103005294D01*
X123943302Y-102986146D01*
X124180612Y-102929172D01*
X124406089Y-102835777D01*
X124614179Y-102708259D01*
X124799759Y-102549759D01*
X124958259Y-102364179D01*
X125085777Y-102156089D01*
X125179172Y-101930612D01*
X125236146Y-101693302D01*
X125255294Y-101450000D01*
X126344706Y-101450000D01*
X126363853Y-101693297D01*
X126363853Y-101693300D01*
X126363854Y-101693302D01*
X126420731Y-101930210D01*
X126420830Y-101930619D01*
X126514222Y-102156089D01*
X126641737Y-102364173D01*
X126641738Y-102364176D01*
X126641741Y-102364179D01*
X126800241Y-102549759D01*
X126943897Y-102672453D01*
X126985823Y-102708261D01*
X126985826Y-102708262D01*
X127193910Y-102835777D01*
X127419381Y-102929169D01*
X127419378Y-102929169D01*
X127419384Y-102929170D01*
X127419388Y-102929172D01*
X127656698Y-102986146D01*
X127900000Y-103005294D01*
X128143302Y-102986146D01*
X128380612Y-102929172D01*
X128606089Y-102835777D01*
X128814179Y-102708259D01*
X128999759Y-102549759D01*
X129158259Y-102364179D01*
X129285777Y-102156089D01*
X129318484Y-102077127D01*
X129370294Y-101952047D01*
X129414135Y-101897644D01*
X129480429Y-101875579D01*
X129484855Y-101875500D01*
X129956016Y-101875500D01*
X129956018Y-101875500D01*
X130064237Y-101846503D01*
X130161263Y-101790485D01*
X132962819Y-98988929D01*
X133024142Y-98955444D01*
X133093834Y-98960428D01*
X133149767Y-99002300D01*
X133174184Y-99067764D01*
X133174500Y-99076610D01*
X133174500Y-99865145D01*
X133154815Y-99932184D01*
X133102011Y-99977939D01*
X133097953Y-99979706D01*
X132893910Y-100064222D01*
X132685826Y-100191737D01*
X132685823Y-100191738D01*
X132500241Y-100350241D01*
X132341738Y-100535823D01*
X132341737Y-100535826D01*
X132214222Y-100743910D01*
X132120830Y-100969380D01*
X132063853Y-101206702D01*
X132044706Y-101450000D01*
X132063853Y-101693297D01*
X132063853Y-101693300D01*
X132063854Y-101693302D01*
X132120731Y-101930210D01*
X132120830Y-101930619D01*
X132214222Y-102156089D01*
X132341737Y-102364173D01*
X132341738Y-102364176D01*
X132341741Y-102364179D01*
X132500241Y-102549759D01*
X132643897Y-102672453D01*
X132685823Y-102708261D01*
X132685826Y-102708262D01*
X132893910Y-102835777D01*
X133119381Y-102929169D01*
X133119378Y-102929169D01*
X133119384Y-102929170D01*
X133119388Y-102929172D01*
X133356698Y-102986146D01*
X133600000Y-103005294D01*
X133843302Y-102986146D01*
X134080612Y-102929172D01*
X134306089Y-102835777D01*
X134514179Y-102708259D01*
X134699759Y-102549759D01*
X134858259Y-102364179D01*
X134985777Y-102156089D01*
X135030848Y-102047277D01*
X137450830Y-102047277D01*
X138500000Y-103096447D01*
X138500001Y-103096447D01*
X139549168Y-102047278D01*
X139377454Y-101930206D01*
X139377445Y-101930201D01*
X139141142Y-101816404D01*
X139141144Y-101816404D01*
X138890505Y-101739092D01*
X138890499Y-101739090D01*
X138631151Y-101700000D01*
X138368848Y-101700000D01*
X138109500Y-101739090D01*
X138109494Y-101739092D01*
X137858858Y-101816404D01*
X137858854Y-101816405D01*
X137622547Y-101930205D01*
X137622539Y-101930210D01*
X137450830Y-102047277D01*
X135030848Y-102047277D01*
X135079172Y-101930612D01*
X135136146Y-101693302D01*
X135155294Y-101450000D01*
X135136146Y-101206698D01*
X135079172Y-100969388D01*
X135079169Y-100969380D01*
X134985777Y-100743910D01*
X134858262Y-100535826D01*
X134858261Y-100535823D01*
X134773730Y-100436850D01*
X134699759Y-100350241D01*
X134577063Y-100245449D01*
X134514176Y-100191738D01*
X134514173Y-100191737D01*
X134306089Y-100064222D01*
X134102047Y-99979706D01*
X134047644Y-99935865D01*
X134025579Y-99869571D01*
X134025500Y-99865145D01*
X134025500Y-95757588D01*
X134025500Y-95757586D01*
X133996503Y-95649367D01*
X133940485Y-95552341D01*
X133861263Y-95473119D01*
X133401819Y-95013675D01*
X133368334Y-94952352D01*
X133365500Y-94925994D01*
X133365500Y-93303919D01*
X133385185Y-93236880D01*
X133437989Y-93191125D01*
X133444687Y-93188300D01*
X133455019Y-93184298D01*
X133636302Y-93072052D01*
X133793872Y-92928407D01*
X133922366Y-92758255D01*
X133931492Y-92739927D01*
X134017403Y-92567394D01*
X134017403Y-92567393D01*
X134017405Y-92567389D01*
X134075756Y-92362310D01*
X134082029Y-92294605D01*
X134107814Y-92229669D01*
X134164614Y-92188981D01*
X134234395Y-92185461D01*
X134295002Y-92220225D01*
X134327193Y-92282238D01*
X134329500Y-92306047D01*
X134329500Y-93044856D01*
X134329502Y-93044882D01*
X134332413Y-93069987D01*
X134332415Y-93069991D01*
X134377793Y-93172764D01*
X134377794Y-93172765D01*
X134457235Y-93252206D01*
X134560009Y-93297585D01*
X134585135Y-93300500D01*
X134930500Y-93300499D01*
X134997539Y-93320183D01*
X135043294Y-93372987D01*
X135054500Y-93424499D01*
X135054500Y-93873982D01*
X135054500Y-93986018D01*
X135083497Y-94094237D01*
X135139515Y-94191263D01*
X135139517Y-94191265D01*
X136038181Y-95089929D01*
X136071666Y-95151252D01*
X136074500Y-95177610D01*
X136074500Y-96165145D01*
X136054815Y-96232184D01*
X136002011Y-96277939D01*
X135997953Y-96279706D01*
X135793910Y-96364222D01*
X135585826Y-96491737D01*
X135585823Y-96491738D01*
X135400241Y-96650241D01*
X135241738Y-96835823D01*
X135241737Y-96835826D01*
X135114222Y-97043910D01*
X135020830Y-97269380D01*
X135020828Y-97269387D01*
X135020828Y-97269388D01*
X134997188Y-97367854D01*
X134963853Y-97506702D01*
X134944706Y-97750000D01*
X134963853Y-97993297D01*
X134963853Y-97993300D01*
X134963854Y-97993302D01*
X135014030Y-98202298D01*
X135020830Y-98230619D01*
X135114222Y-98456089D01*
X135241737Y-98664173D01*
X135241738Y-98664176D01*
X135247421Y-98670830D01*
X135400241Y-98849759D01*
X135529818Y-98960428D01*
X135585823Y-99008261D01*
X135585826Y-99008262D01*
X135793910Y-99135777D01*
X136019381Y-99229169D01*
X136019378Y-99229169D01*
X136019384Y-99229170D01*
X136019388Y-99229172D01*
X136256698Y-99286146D01*
X136500000Y-99305294D01*
X136743302Y-99286146D01*
X136980612Y-99229172D01*
X137206089Y-99135777D01*
X137414179Y-99008259D01*
X137599759Y-98849759D01*
X137758259Y-98664179D01*
X137885777Y-98456089D01*
X137979172Y-98230612D01*
X138036146Y-97993302D01*
X138055294Y-97750000D01*
X138036146Y-97506698D01*
X137979172Y-97269388D01*
X137972381Y-97252992D01*
X137885777Y-97043910D01*
X137758262Y-96835826D01*
X137758261Y-96835823D01*
X137753287Y-96829999D01*
X139894785Y-96829999D01*
X139894785Y-96830000D01*
X139913602Y-97033082D01*
X139969417Y-97229247D01*
X139969422Y-97229260D01*
X140029423Y-97349758D01*
X140060327Y-97411821D01*
X140183236Y-97574579D01*
X140259039Y-97643682D01*
X140295319Y-97703391D01*
X140299500Y-97735318D01*
X140299500Y-98931006D01*
X140299500Y-99068994D01*
X140299500Y-99068996D01*
X140299499Y-99068996D01*
X140326418Y-99204322D01*
X140326421Y-99204332D01*
X140379222Y-99331807D01*
X140455887Y-99446545D01*
X140455888Y-99446546D01*
X141263181Y-100253838D01*
X141296666Y-100315161D01*
X141299500Y-100341519D01*
X141299500Y-101918993D01*
X141299500Y-101918995D01*
X141299499Y-101918995D01*
X141326418Y-102054322D01*
X141326421Y-102054332D01*
X141379221Y-102181804D01*
X141379228Y-102181817D01*
X141455885Y-102296541D01*
X141455888Y-102296545D01*
X141553454Y-102394111D01*
X141553458Y-102394114D01*
X141668182Y-102470771D01*
X141668195Y-102470778D01*
X141793963Y-102522872D01*
X141795672Y-102523580D01*
X141795676Y-102523580D01*
X141795677Y-102523581D01*
X141931004Y-102550500D01*
X141931007Y-102550500D01*
X142068995Y-102550500D01*
X142160041Y-102532389D01*
X142204328Y-102523580D01*
X142331811Y-102470775D01*
X142446542Y-102394114D01*
X142544114Y-102296542D01*
X142620775Y-102181811D01*
X142673580Y-102054328D01*
X142690476Y-101969388D01*
X142700500Y-101918995D01*
X142700500Y-99931007D01*
X142692594Y-99891265D01*
X142692594Y-99891262D01*
X142673581Y-99795678D01*
X142673580Y-99795672D01*
X142673578Y-99795667D01*
X142620777Y-99668192D01*
X142544112Y-99553454D01*
X141736819Y-98746161D01*
X141703334Y-98684838D01*
X141700500Y-98658480D01*
X141700500Y-97735318D01*
X141720185Y-97668279D01*
X141740957Y-97643685D01*
X141816764Y-97574579D01*
X141939673Y-97411821D01*
X142030582Y-97229250D01*
X142086397Y-97033083D01*
X142105215Y-96830000D01*
X142102080Y-96796172D01*
X142086397Y-96626917D01*
X142059572Y-96532638D01*
X142030582Y-96430750D01*
X142028340Y-96426248D01*
X141955371Y-96279706D01*
X141939673Y-96248179D01*
X141871788Y-96158284D01*
X141816762Y-96085418D01*
X141666041Y-95948019D01*
X141666039Y-95948017D01*
X141492642Y-95840655D01*
X141492635Y-95840651D01*
X141308661Y-95769380D01*
X141302456Y-95766976D01*
X141101976Y-95729500D01*
X140898024Y-95729500D01*
X140697544Y-95766976D01*
X140697541Y-95766976D01*
X140697541Y-95766977D01*
X140507364Y-95840651D01*
X140507357Y-95840655D01*
X140333960Y-95948017D01*
X140333958Y-95948019D01*
X140183237Y-96085418D01*
X140060327Y-96248178D01*
X139969422Y-96430739D01*
X139969417Y-96430752D01*
X139913602Y-96626917D01*
X139894785Y-96829999D01*
X137753287Y-96829999D01*
X137668402Y-96730612D01*
X137599759Y-96650241D01*
X137423361Y-96499583D01*
X137414176Y-96491738D01*
X137414173Y-96491737D01*
X137206089Y-96364222D01*
X137002047Y-96279706D01*
X136947644Y-96235865D01*
X136925579Y-96169571D01*
X136925500Y-96165145D01*
X136925500Y-94893984D01*
X136925500Y-94893982D01*
X136896503Y-94785763D01*
X136840485Y-94688737D01*
X136761263Y-94609515D01*
X135941819Y-93790071D01*
X135908334Y-93728748D01*
X135905500Y-93702390D01*
X135905500Y-93495131D01*
X139949500Y-93495131D01*
X139949500Y-95084856D01*
X139949502Y-95084882D01*
X139952413Y-95109987D01*
X139952415Y-95109991D01*
X139997793Y-95212764D01*
X139997794Y-95212765D01*
X140077235Y-95292206D01*
X140180009Y-95337585D01*
X140205135Y-95340500D01*
X141794864Y-95340499D01*
X141794879Y-95340497D01*
X141794882Y-95340497D01*
X141819987Y-95337586D01*
X141819988Y-95337585D01*
X141819991Y-95337585D01*
X141922765Y-95292206D01*
X142002206Y-95212765D01*
X142047585Y-95109991D01*
X142050500Y-95084865D01*
X142050499Y-93495136D01*
X142050497Y-93495117D01*
X142047586Y-93470012D01*
X142047585Y-93470010D01*
X142047585Y-93470009D01*
X142002206Y-93367235D01*
X141922765Y-93287794D01*
X141869914Y-93264458D01*
X141819992Y-93242415D01*
X141794865Y-93239500D01*
X140205143Y-93239500D01*
X140205117Y-93239502D01*
X140180012Y-93242413D01*
X140180008Y-93242415D01*
X140077235Y-93287793D01*
X139997794Y-93367234D01*
X139952415Y-93470006D01*
X139952415Y-93470008D01*
X139949500Y-93495131D01*
X135905500Y-93495131D01*
X135905500Y-93424499D01*
X135925185Y-93357460D01*
X135977989Y-93311705D01*
X136029500Y-93300499D01*
X136374856Y-93300499D01*
X136374864Y-93300499D01*
X136374879Y-93300497D01*
X136374882Y-93300497D01*
X136399987Y-93297586D01*
X136399988Y-93297585D01*
X136399991Y-93297585D01*
X136502765Y-93252206D01*
X136582206Y-93172765D01*
X136627585Y-93069991D01*
X136630500Y-93044865D01*
X136630499Y-91749999D01*
X139894785Y-91749999D01*
X139894785Y-91750000D01*
X139913602Y-91953082D01*
X139969417Y-92149247D01*
X139969422Y-92149260D01*
X140060327Y-92331821D01*
X140183237Y-92494581D01*
X140333958Y-92631980D01*
X140333960Y-92631982D01*
X140386117Y-92664276D01*
X140507363Y-92739348D01*
X140697544Y-92813024D01*
X140898024Y-92850500D01*
X140898026Y-92850500D01*
X141101974Y-92850500D01*
X141101976Y-92850500D01*
X141302456Y-92813024D01*
X141492637Y-92739348D01*
X141666041Y-92631981D01*
X141816764Y-92494579D01*
X141939673Y-92331821D01*
X142030582Y-92149250D01*
X142086397Y-91953083D01*
X142105215Y-91750000D01*
X142086397Y-91546917D01*
X142030582Y-91350750D01*
X141939673Y-91168179D01*
X141816764Y-91005421D01*
X141816762Y-91005418D01*
X141666041Y-90868019D01*
X141666039Y-90868017D01*
X141492642Y-90760655D01*
X141492635Y-90760651D01*
X141397546Y-90723814D01*
X141302456Y-90686976D01*
X141101976Y-90649500D01*
X140898024Y-90649500D01*
X140697544Y-90686976D01*
X140697541Y-90686976D01*
X140697541Y-90686977D01*
X140507364Y-90760651D01*
X140507357Y-90760655D01*
X140333960Y-90868017D01*
X140333958Y-90868019D01*
X140183237Y-91005418D01*
X140060327Y-91168178D01*
X139969422Y-91350739D01*
X139969417Y-91350752D01*
X139913602Y-91546917D01*
X139894785Y-91749999D01*
X136630499Y-91749999D01*
X136630499Y-91255136D01*
X136630497Y-91255117D01*
X136627586Y-91230012D01*
X136627585Y-91230010D01*
X136627585Y-91230009D01*
X136582206Y-91127235D01*
X136502765Y-91047794D01*
X136482124Y-91038680D01*
X136399992Y-91002415D01*
X136374865Y-90999500D01*
X134585143Y-90999500D01*
X134585117Y-90999502D01*
X134560012Y-91002413D01*
X134560008Y-91002415D01*
X134457235Y-91047793D01*
X134377794Y-91127234D01*
X134332415Y-91230006D01*
X134332415Y-91230008D01*
X134329500Y-91255131D01*
X134329500Y-91993951D01*
X134309815Y-92060990D01*
X134257011Y-92106745D01*
X134187853Y-92116689D01*
X134124297Y-92087664D01*
X134086523Y-92028886D01*
X134082029Y-92005391D01*
X134075756Y-91937689D01*
X134049345Y-91844868D01*
X134017405Y-91732611D01*
X134017403Y-91732606D01*
X134017403Y-91732605D01*
X133922367Y-91541746D01*
X133793872Y-91371593D01*
X133770996Y-91350739D01*
X133636302Y-91227948D01*
X133455019Y-91115702D01*
X133455017Y-91115701D01*
X133355608Y-91077190D01*
X133256198Y-91038679D01*
X133046610Y-90999500D01*
X132833390Y-90999500D01*
X132623802Y-91038679D01*
X132623799Y-91038679D01*
X132623799Y-91038680D01*
X132424982Y-91115701D01*
X132424980Y-91115702D01*
X132243699Y-91227947D01*
X132086127Y-91371593D01*
X131957632Y-91541746D01*
X131862596Y-91732605D01*
X131862596Y-91732607D01*
X131804244Y-91937689D01*
X131793471Y-92053951D01*
X131767685Y-92118888D01*
X131723130Y-92150804D01*
X131759503Y-92171668D01*
X131791693Y-92233681D01*
X131793470Y-92246047D01*
X131804244Y-92362310D01*
X131857675Y-92550099D01*
X131862596Y-92567392D01*
X131862596Y-92567394D01*
X131957632Y-92758253D01*
X132066147Y-92901948D01*
X132086128Y-92928407D01*
X132243698Y-93072052D01*
X132424981Y-93184298D01*
X132435290Y-93188291D01*
X132490692Y-93230860D01*
X132514285Y-93296626D01*
X132514500Y-93303919D01*
X132514500Y-94463390D01*
X132494815Y-94530429D01*
X132442011Y-94576184D01*
X132372853Y-94586128D01*
X132309297Y-94557103D01*
X132302819Y-94551071D01*
X131038701Y-93286953D01*
X131005216Y-93225630D01*
X131010200Y-93155938D01*
X131052072Y-93100005D01*
X131061088Y-93093855D01*
X131096302Y-93072052D01*
X131253872Y-92928407D01*
X131382366Y-92758255D01*
X131391492Y-92739927D01*
X131477403Y-92567394D01*
X131477403Y-92567393D01*
X131477405Y-92567389D01*
X131535756Y-92362310D01*
X131546529Y-92246047D01*
X131572315Y-92181111D01*
X131616869Y-92149194D01*
X131580497Y-92128331D01*
X131548307Y-92066318D01*
X131546529Y-92053951D01*
X131540969Y-91993951D01*
X131535756Y-91937690D01*
X131477405Y-91732611D01*
X131477403Y-91732606D01*
X131477403Y-91732605D01*
X131382367Y-91541746D01*
X131253872Y-91371593D01*
X131230996Y-91350739D01*
X131096302Y-91227948D01*
X130915019Y-91115702D01*
X130915017Y-91115701D01*
X130815608Y-91077190D01*
X130716198Y-91038679D01*
X130506610Y-90999500D01*
X130293390Y-90999500D01*
X130083802Y-91038679D01*
X130083799Y-91038679D01*
X130083799Y-91038680D01*
X129884982Y-91115701D01*
X129884980Y-91115702D01*
X129703699Y-91227947D01*
X129546127Y-91371593D01*
X129417632Y-91541746D01*
X129322596Y-91732605D01*
X129322596Y-91732607D01*
X129264244Y-91937689D01*
X129253471Y-92053951D01*
X129227685Y-92118888D01*
X129183130Y-92150804D01*
X129219503Y-92171668D01*
X129251693Y-92233681D01*
X129253470Y-92246047D01*
X129264244Y-92362310D01*
X129317675Y-92550099D01*
X129322596Y-92567392D01*
X129322596Y-92567394D01*
X129417632Y-92758253D01*
X129526147Y-92901948D01*
X129546128Y-92928407D01*
X129703698Y-93072052D01*
X129884981Y-93184298D01*
X129895290Y-93188291D01*
X129950692Y-93230860D01*
X129974285Y-93296626D01*
X129974500Y-93303919D01*
X129974500Y-93306018D01*
X130003497Y-93414237D01*
X130059515Y-93511263D01*
X131376715Y-94828463D01*
X132688181Y-96139928D01*
X132721666Y-96201251D01*
X132724500Y-96227609D01*
X132724500Y-97972390D01*
X132704815Y-98039429D01*
X132688181Y-98060071D01*
X129760071Y-100988181D01*
X129698748Y-101021666D01*
X129672390Y-101024500D01*
X129484855Y-101024500D01*
X129417816Y-101004815D01*
X129372061Y-100952011D01*
X129370294Y-100947953D01*
X129285777Y-100743910D01*
X129158262Y-100535826D01*
X129158261Y-100535823D01*
X129073730Y-100436850D01*
X128999759Y-100350241D01*
X128877063Y-100245449D01*
X128814176Y-100191738D01*
X128814173Y-100191737D01*
X128606089Y-100064222D01*
X128380618Y-99970830D01*
X128380621Y-99970830D01*
X128234983Y-99935865D01*
X128143302Y-99913854D01*
X128143300Y-99913853D01*
X128143297Y-99913853D01*
X127900000Y-99894706D01*
X127656702Y-99913853D01*
X127656698Y-99913854D01*
X127454664Y-99962359D01*
X127419380Y-99970830D01*
X127193910Y-100064222D01*
X126985826Y-100191737D01*
X126985823Y-100191738D01*
X126800241Y-100350241D01*
X126641738Y-100535823D01*
X126641737Y-100535826D01*
X126514222Y-100743910D01*
X126420830Y-100969380D01*
X126363853Y-101206702D01*
X126344706Y-101450000D01*
X125255294Y-101450000D01*
X125236146Y-101206698D01*
X125179172Y-100969388D01*
X125179169Y-100969380D01*
X125085777Y-100743910D01*
X124958262Y-100535826D01*
X124958261Y-100535823D01*
X124873730Y-100436850D01*
X124799759Y-100350241D01*
X124677063Y-100245449D01*
X124614176Y-100191738D01*
X124614173Y-100191737D01*
X124406089Y-100064222D01*
X124202047Y-99979706D01*
X124147644Y-99935865D01*
X124125579Y-99869571D01*
X124125500Y-99865145D01*
X124125500Y-97984240D01*
X128619311Y-97984240D01*
X128707585Y-98038897D01*
X128897678Y-98112539D01*
X129098072Y-98150000D01*
X129301928Y-98150000D01*
X129502322Y-98112539D01*
X129692412Y-98038899D01*
X129692416Y-98038897D01*
X129780686Y-97984241D01*
X129780686Y-97984240D01*
X129200001Y-97403553D01*
X129200000Y-97403553D01*
X128619311Y-97984240D01*
X124125500Y-97984240D01*
X124125500Y-97087792D01*
X124145185Y-97020753D01*
X124197989Y-96974998D01*
X124267147Y-96965054D01*
X124330703Y-96994079D01*
X124355227Y-97023002D01*
X124441737Y-97164173D01*
X124441738Y-97164176D01*
X124489436Y-97220023D01*
X124600241Y-97349759D01*
X124726007Y-97457173D01*
X124785823Y-97508261D01*
X124785826Y-97508262D01*
X124993910Y-97635777D01*
X125219381Y-97729169D01*
X125219378Y-97729169D01*
X125219384Y-97729170D01*
X125219388Y-97729172D01*
X125456698Y-97786146D01*
X125700000Y-97805294D01*
X125943302Y-97786146D01*
X126180612Y-97729172D01*
X126406089Y-97635777D01*
X126614179Y-97508259D01*
X126799759Y-97349759D01*
X126958259Y-97164179D01*
X127028229Y-97049999D01*
X128095287Y-97049999D01*
X128095287Y-97050000D01*
X128114096Y-97252989D01*
X128114097Y-97252992D01*
X128169883Y-97449063D01*
X128169886Y-97449069D01*
X128260751Y-97631551D01*
X128262533Y-97633911D01*
X128846446Y-97050000D01*
X128806950Y-97010504D01*
X128900000Y-97010504D01*
X128900000Y-97089496D01*
X128920444Y-97165796D01*
X128959940Y-97234205D01*
X129015795Y-97290060D01*
X129084204Y-97329556D01*
X129160504Y-97350000D01*
X129239496Y-97350000D01*
X129315796Y-97329556D01*
X129384205Y-97290060D01*
X129440060Y-97234205D01*
X129479556Y-97165796D01*
X129500000Y-97089496D01*
X129500000Y-97050000D01*
X129553553Y-97050000D01*
X130137465Y-97633912D01*
X130174865Y-97631320D01*
X130243105Y-97646322D01*
X130292401Y-97695836D01*
X130298912Y-97712059D01*
X130347793Y-97822764D01*
X130347794Y-97822765D01*
X130427235Y-97902206D01*
X130530009Y-97947585D01*
X130555135Y-97950500D01*
X131844864Y-97950499D01*
X131844879Y-97950497D01*
X131844882Y-97950497D01*
X131869987Y-97947586D01*
X131869988Y-97947585D01*
X131869991Y-97947585D01*
X131972765Y-97902206D01*
X132052206Y-97822765D01*
X132097585Y-97719991D01*
X132100500Y-97694865D01*
X132100499Y-96405136D01*
X132099189Y-96393837D01*
X132097586Y-96380012D01*
X132097585Y-96380010D01*
X132097585Y-96380009D01*
X132052206Y-96277235D01*
X131972765Y-96197794D01*
X131908846Y-96169571D01*
X131869992Y-96152415D01*
X131844865Y-96149500D01*
X130555143Y-96149500D01*
X130555117Y-96149502D01*
X130530012Y-96152413D01*
X130530008Y-96152415D01*
X130427235Y-96197793D01*
X130347794Y-96277234D01*
X130298647Y-96388542D01*
X130296819Y-96387734D01*
X130266481Y-96437065D01*
X130203512Y-96467343D01*
X130174852Y-96468681D01*
X130137466Y-96466086D01*
X129553553Y-97050000D01*
X129500000Y-97050000D01*
X129500000Y-97010504D01*
X129479556Y-96934204D01*
X129440060Y-96865795D01*
X129384205Y-96809940D01*
X129315796Y-96770444D01*
X129239496Y-96750000D01*
X129160504Y-96750000D01*
X129084204Y-96770444D01*
X129015795Y-96809940D01*
X128959940Y-96865795D01*
X128920444Y-96934204D01*
X128900000Y-97010504D01*
X128806950Y-97010504D01*
X128262533Y-96466087D01*
X128260755Y-96468442D01*
X128260754Y-96468443D01*
X128169886Y-96650930D01*
X128169883Y-96650936D01*
X128114097Y-96847007D01*
X128114096Y-96847010D01*
X128095287Y-97049999D01*
X127028229Y-97049999D01*
X127085777Y-96956089D01*
X127179172Y-96730612D01*
X127236146Y-96493302D01*
X127255294Y-96250000D01*
X127244729Y-96115758D01*
X128619311Y-96115758D01*
X129200000Y-96696446D01*
X129200001Y-96696446D01*
X129780687Y-96115758D01*
X129692413Y-96061101D01*
X129692411Y-96061100D01*
X129502321Y-95987460D01*
X129301928Y-95950000D01*
X129098072Y-95950000D01*
X128897678Y-95987460D01*
X128707588Y-96061100D01*
X128707581Y-96061104D01*
X128619312Y-96115757D01*
X128619311Y-96115758D01*
X127244729Y-96115758D01*
X127236146Y-96006698D01*
X127179172Y-95769388D01*
X127178173Y-95766977D01*
X127094655Y-95565344D01*
X127087186Y-95495874D01*
X127118461Y-95433395D01*
X127121507Y-95430238D01*
X128111053Y-94440693D01*
X128111058Y-94440689D01*
X128121261Y-94430485D01*
X128121263Y-94430485D01*
X128200485Y-94351263D01*
X128256503Y-94254237D01*
X128261370Y-94236072D01*
X128268019Y-94211262D01*
X128278737Y-94171259D01*
X128285500Y-94146019D01*
X128285500Y-94033982D01*
X128285500Y-93303919D01*
X128305185Y-93236880D01*
X128357989Y-93191125D01*
X128364687Y-93188300D01*
X128375019Y-93184298D01*
X128556302Y-93072052D01*
X128713872Y-92928407D01*
X128842366Y-92758255D01*
X128851492Y-92739927D01*
X128937403Y-92567394D01*
X128937403Y-92567393D01*
X128937405Y-92567389D01*
X128995756Y-92362310D01*
X129006529Y-92246047D01*
X129032315Y-92181111D01*
X129076869Y-92149194D01*
X129040497Y-92128331D01*
X129008307Y-92066318D01*
X129006529Y-92053951D01*
X129000969Y-91993951D01*
X128995756Y-91937690D01*
X128937405Y-91732611D01*
X128937403Y-91732606D01*
X128937403Y-91732605D01*
X128842367Y-91541746D01*
X128713872Y-91371593D01*
X128690996Y-91350739D01*
X128556302Y-91227948D01*
X128375019Y-91115702D01*
X128375017Y-91115701D01*
X128275608Y-91077190D01*
X128176198Y-91038679D01*
X127966610Y-90999500D01*
X127753390Y-90999500D01*
X127543802Y-91038679D01*
X127543799Y-91038679D01*
X127543799Y-91038680D01*
X127344982Y-91115701D01*
X127344980Y-91115702D01*
X127163699Y-91227947D01*
X127006127Y-91371593D01*
X126877632Y-91541746D01*
X126782596Y-91732605D01*
X126782596Y-91732607D01*
X126724244Y-91937689D01*
X126713471Y-92053951D01*
X126687685Y-92118888D01*
X126643130Y-92150804D01*
X126679503Y-92171668D01*
X126711693Y-92233681D01*
X126713470Y-92246047D01*
X126724244Y-92362310D01*
X126777675Y-92550099D01*
X126782596Y-92567392D01*
X126782596Y-92567394D01*
X126877632Y-92758253D01*
X126986147Y-92901948D01*
X127006128Y-92928407D01*
X127163698Y-93072052D01*
X127344981Y-93184298D01*
X127355290Y-93188291D01*
X127410692Y-93230860D01*
X127434285Y-93296626D01*
X127434500Y-93303919D01*
X127434500Y-93862390D01*
X127414815Y-93929429D01*
X127398181Y-93950071D01*
X126519788Y-94828463D01*
X126458465Y-94861948D01*
X126388773Y-94856964D01*
X126384655Y-94855343D01*
X126180623Y-94770831D01*
X126180621Y-94770830D01*
X126074992Y-94745470D01*
X125943302Y-94713854D01*
X125943300Y-94713853D01*
X125943297Y-94713853D01*
X125700000Y-94694706D01*
X125456702Y-94713853D01*
X125456698Y-94713854D01*
X125253027Y-94762752D01*
X125219380Y-94770830D01*
X124993910Y-94864222D01*
X124785826Y-94991737D01*
X124785823Y-94991738D01*
X124600241Y-95150241D01*
X124441738Y-95335823D01*
X124441737Y-95335826D01*
X124355227Y-95476997D01*
X124303415Y-95523872D01*
X124234485Y-95535295D01*
X124170323Y-95507637D01*
X124131298Y-95449682D01*
X124125500Y-95412207D01*
X124125500Y-93997609D01*
X124145185Y-93930570D01*
X124161815Y-93909932D01*
X124807290Y-93264456D01*
X124868611Y-93230973D01*
X124938302Y-93235957D01*
X124939763Y-93236513D01*
X124980273Y-93252206D01*
X125003802Y-93261321D01*
X125213390Y-93300500D01*
X125213392Y-93300500D01*
X125426608Y-93300500D01*
X125426610Y-93300500D01*
X125636198Y-93261321D01*
X125835019Y-93184298D01*
X126016302Y-93072052D01*
X126173872Y-92928407D01*
X126302366Y-92758255D01*
X126311492Y-92739927D01*
X126397403Y-92567394D01*
X126397403Y-92567393D01*
X126397405Y-92567389D01*
X126455756Y-92362310D01*
X126466529Y-92246047D01*
X126492315Y-92181111D01*
X126536869Y-92149194D01*
X126500497Y-92128331D01*
X126468307Y-92066318D01*
X126466529Y-92053951D01*
X126460969Y-91993951D01*
X126455756Y-91937690D01*
X126397405Y-91732611D01*
X126397403Y-91732606D01*
X126397403Y-91732605D01*
X126302367Y-91541746D01*
X126173872Y-91371593D01*
X126150996Y-91350739D01*
X126016302Y-91227948D01*
X125835019Y-91115702D01*
X125835017Y-91115701D01*
X125735608Y-91077190D01*
X125636198Y-91038679D01*
X125426610Y-90999500D01*
X125213390Y-90999500D01*
X125003802Y-91038679D01*
X125003799Y-91038679D01*
X125003799Y-91038680D01*
X124804982Y-91115701D01*
X124804980Y-91115702D01*
X124623699Y-91227947D01*
X124466127Y-91371593D01*
X124337632Y-91541746D01*
X124242596Y-91732605D01*
X124242596Y-91732607D01*
X124184244Y-91937689D01*
X124173471Y-92053951D01*
X124147685Y-92118888D01*
X124103130Y-92150804D01*
X124139503Y-92171668D01*
X124171693Y-92233681D01*
X124173470Y-92246047D01*
X124184244Y-92362310D01*
X124221878Y-92494579D01*
X124235559Y-92542660D01*
X124234973Y-92612527D01*
X124203974Y-92664276D01*
X123952931Y-92915319D01*
X123891608Y-92948804D01*
X123821916Y-92943820D01*
X123765983Y-92901948D01*
X123741566Y-92836484D01*
X123756418Y-92768211D01*
X123759827Y-92762353D01*
X123762356Y-92758267D01*
X123762366Y-92758255D01*
X123771492Y-92739927D01*
X123857403Y-92567394D01*
X123857403Y-92567393D01*
X123857405Y-92567389D01*
X123915756Y-92362310D01*
X123926529Y-92246047D01*
X123952315Y-92181111D01*
X123996869Y-92149194D01*
X123960497Y-92128331D01*
X123928307Y-92066318D01*
X123926529Y-92053951D01*
X123920969Y-91993951D01*
X123915756Y-91937690D01*
X123857405Y-91732611D01*
X123857403Y-91732606D01*
X123857403Y-91732605D01*
X123762367Y-91541746D01*
X123633872Y-91371593D01*
X123610996Y-91350739D01*
X123476302Y-91227948D01*
X123295019Y-91115702D01*
X123295017Y-91115701D01*
X123195608Y-91077190D01*
X123096198Y-91038679D01*
X122886610Y-90999500D01*
X122673390Y-90999500D01*
X122463802Y-91038679D01*
X122463799Y-91038679D01*
X122463799Y-91038680D01*
X122264982Y-91115701D01*
X122264980Y-91115702D01*
X122083699Y-91227947D01*
X121926127Y-91371593D01*
X121797632Y-91541746D01*
X121702596Y-91732605D01*
X121702596Y-91732607D01*
X121644244Y-91937689D01*
X121633471Y-92053951D01*
X121607685Y-92118888D01*
X121563130Y-92150804D01*
X121599503Y-92171668D01*
X121631693Y-92233681D01*
X121633470Y-92246047D01*
X121644244Y-92362310D01*
X121697675Y-92550099D01*
X121702596Y-92567392D01*
X121702596Y-92567394D01*
X121797632Y-92758253D01*
X121906147Y-92901948D01*
X121926128Y-92928407D01*
X122083698Y-93072052D01*
X122264981Y-93184298D01*
X122275290Y-93188291D01*
X122330692Y-93230860D01*
X122354285Y-93296626D01*
X122354500Y-93303919D01*
X122354500Y-95442390D01*
X122334815Y-95509429D01*
X122318181Y-95530071D01*
X121519788Y-96328463D01*
X121458465Y-96361948D01*
X121388773Y-96356964D01*
X121384655Y-96355343D01*
X121180623Y-96270831D01*
X121180621Y-96270830D01*
X121034983Y-96235865D01*
X120943302Y-96213854D01*
X120943300Y-96213853D01*
X120943297Y-96213853D01*
X120700000Y-96194706D01*
X120456702Y-96213853D01*
X120456698Y-96213854D01*
X120274503Y-96257596D01*
X120219380Y-96270830D01*
X119993910Y-96364222D01*
X119785826Y-96491737D01*
X119785823Y-96491738D01*
X119600241Y-96650241D01*
X119441738Y-96835823D01*
X119441737Y-96835826D01*
X119314222Y-97043910D01*
X119220830Y-97269380D01*
X119220828Y-97269387D01*
X119220828Y-97269388D01*
X119197188Y-97367854D01*
X119163853Y-97506702D01*
X119144706Y-97750000D01*
X118625500Y-97750000D01*
X118625500Y-96477610D01*
X118645185Y-96410571D01*
X118661819Y-96389929D01*
X119619512Y-95432236D01*
X120580485Y-94471263D01*
X120636503Y-94374237D01*
X120665500Y-94266018D01*
X120665500Y-94153981D01*
X120665500Y-93303919D01*
X120685185Y-93236880D01*
X120737989Y-93191125D01*
X120744687Y-93188300D01*
X120755019Y-93184298D01*
X120936302Y-93072052D01*
X121093872Y-92928407D01*
X121222366Y-92758255D01*
X121231492Y-92739927D01*
X121317403Y-92567394D01*
X121317403Y-92567393D01*
X121317405Y-92567389D01*
X121375756Y-92362310D01*
X121386529Y-92246047D01*
X121412315Y-92181111D01*
X121456869Y-92149194D01*
X121420497Y-92128331D01*
X121388307Y-92066318D01*
X121386529Y-92053951D01*
X121380969Y-91993951D01*
X121375756Y-91937690D01*
X121317405Y-91732611D01*
X121317403Y-91732606D01*
X121317403Y-91732605D01*
X121222367Y-91541746D01*
X121093872Y-91371593D01*
X121070996Y-91350739D01*
X120936302Y-91227948D01*
X120755019Y-91115702D01*
X120755017Y-91115701D01*
X120655608Y-91077190D01*
X120556198Y-91038679D01*
X120346610Y-90999500D01*
X120133390Y-90999500D01*
X119923802Y-91038679D01*
X119923799Y-91038679D01*
X119923799Y-91038680D01*
X119724982Y-91115701D01*
X119724980Y-91115702D01*
X119543699Y-91227947D01*
X119386127Y-91371593D01*
X119257632Y-91541746D01*
X119162596Y-91732605D01*
X119162596Y-91732607D01*
X119104244Y-91937689D01*
X119093471Y-92053951D01*
X119067685Y-92118888D01*
X119023130Y-92150804D01*
X119059503Y-92171668D01*
X119091693Y-92233681D01*
X119093470Y-92246047D01*
X119104244Y-92362310D01*
X119157675Y-92550099D01*
X119162596Y-92567392D01*
X119162596Y-92567394D01*
X119257632Y-92758253D01*
X119366147Y-92901948D01*
X119386128Y-92928407D01*
X119543698Y-93072052D01*
X119724981Y-93184298D01*
X119735290Y-93188291D01*
X119790692Y-93230860D01*
X119814285Y-93296626D01*
X119814500Y-93303919D01*
X119814500Y-93982390D01*
X119794815Y-94049429D01*
X119778181Y-94070071D01*
X118337181Y-95511071D01*
X118275858Y-95544556D01*
X118206166Y-95539572D01*
X118150233Y-95497700D01*
X118125816Y-95432236D01*
X118125500Y-95423390D01*
X118125500Y-93303919D01*
X118145185Y-93236880D01*
X118197989Y-93191125D01*
X118204687Y-93188300D01*
X118215019Y-93184298D01*
X118396302Y-93072052D01*
X118553872Y-92928407D01*
X118682366Y-92758255D01*
X118691492Y-92739927D01*
X118777403Y-92567394D01*
X118777403Y-92567393D01*
X118777405Y-92567389D01*
X118835756Y-92362310D01*
X118846529Y-92246047D01*
X118872315Y-92181111D01*
X118916869Y-92149194D01*
X118880497Y-92128331D01*
X118848307Y-92066318D01*
X118846529Y-92053951D01*
X118840969Y-91993951D01*
X118835756Y-91937690D01*
X118777405Y-91732611D01*
X118777403Y-91732606D01*
X118777403Y-91732605D01*
X118682367Y-91541746D01*
X118553872Y-91371593D01*
X118530996Y-91350739D01*
X118396302Y-91227948D01*
X118215019Y-91115702D01*
X118215017Y-91115701D01*
X118115608Y-91077190D01*
X118016198Y-91038679D01*
X117806610Y-90999500D01*
X117593390Y-90999500D01*
X117383802Y-91038679D01*
X117383799Y-91038679D01*
X117383799Y-91038680D01*
X117184982Y-91115701D01*
X117184980Y-91115702D01*
X117003699Y-91227947D01*
X116846127Y-91371593D01*
X116717632Y-91541746D01*
X116622596Y-91732605D01*
X116622596Y-91732607D01*
X116564244Y-91937689D01*
X116553471Y-92053951D01*
X116527685Y-92118888D01*
X116483130Y-92150804D01*
X116519503Y-92171668D01*
X116551693Y-92233681D01*
X116553470Y-92246047D01*
X116564244Y-92362310D01*
X116617675Y-92550099D01*
X116622596Y-92567392D01*
X116622596Y-92567394D01*
X116717632Y-92758253D01*
X116826147Y-92901948D01*
X116846128Y-92928407D01*
X117003698Y-93072052D01*
X117184981Y-93184298D01*
X117195290Y-93188291D01*
X117250692Y-93230860D01*
X117274285Y-93296626D01*
X117274500Y-93303919D01*
X117274500Y-95123390D01*
X117254815Y-95190429D01*
X117202011Y-95236184D01*
X117132853Y-95246128D01*
X117069297Y-95217103D01*
X117062819Y-95211071D01*
X115621819Y-93770071D01*
X115588334Y-93708748D01*
X115585500Y-93682390D01*
X115585500Y-93303919D01*
X115605185Y-93236880D01*
X115657989Y-93191125D01*
X115664687Y-93188300D01*
X115675019Y-93184298D01*
X115856302Y-93072052D01*
X116013872Y-92928407D01*
X116142366Y-92758255D01*
X116151492Y-92739927D01*
X116237403Y-92567394D01*
X116237403Y-92567393D01*
X116237405Y-92567389D01*
X116295756Y-92362310D01*
X116306529Y-92246047D01*
X116332315Y-92181111D01*
X116376869Y-92149194D01*
X116340497Y-92128331D01*
X116308307Y-92066318D01*
X116306529Y-92053951D01*
X116300969Y-91993951D01*
X116295756Y-91937690D01*
X116237405Y-91732611D01*
X116237403Y-91732606D01*
X116237403Y-91732605D01*
X116142367Y-91541746D01*
X116013872Y-91371593D01*
X115990996Y-91350739D01*
X115856302Y-91227948D01*
X115675019Y-91115702D01*
X115675017Y-91115701D01*
X115575608Y-91077190D01*
X115476198Y-91038679D01*
X115266610Y-90999500D01*
X115053390Y-90999500D01*
X114843802Y-91038679D01*
X114843799Y-91038679D01*
X114843799Y-91038680D01*
X114644982Y-91115701D01*
X114644980Y-91115702D01*
X114463699Y-91227947D01*
X114306127Y-91371593D01*
X114177632Y-91541746D01*
X114082596Y-91732605D01*
X114082596Y-91732607D01*
X114024244Y-91937689D01*
X114013471Y-92053951D01*
X113987685Y-92118888D01*
X113943130Y-92150804D01*
X113979503Y-92171668D01*
X114011693Y-92233681D01*
X114013470Y-92246047D01*
X114024244Y-92362310D01*
X114077675Y-92550099D01*
X114082596Y-92567392D01*
X114082596Y-92567394D01*
X114177632Y-92758253D01*
X114286147Y-92901948D01*
X114306128Y-92928407D01*
X114463698Y-93072052D01*
X114644981Y-93184298D01*
X114655290Y-93188291D01*
X114710692Y-93230860D01*
X114734285Y-93296626D01*
X114734500Y-93303919D01*
X114734500Y-93853982D01*
X114734500Y-93966018D01*
X114763497Y-94074237D01*
X114819515Y-94171263D01*
X114819516Y-94171264D01*
X114819517Y-94171265D01*
X116788181Y-96139928D01*
X116821666Y-96201251D01*
X116824500Y-96227609D01*
X116824500Y-97172390D01*
X116804815Y-97239429D01*
X116788181Y-97260071D01*
X115319788Y-98728463D01*
X115258465Y-98761948D01*
X115188773Y-98756964D01*
X115184655Y-98755343D01*
X114980623Y-98670831D01*
X114980621Y-98670830D01*
X114874992Y-98645470D01*
X114743302Y-98613854D01*
X114743300Y-98613853D01*
X114743297Y-98613853D01*
X114500000Y-98594706D01*
X114256702Y-98613853D01*
X114256698Y-98613854D01*
X114070821Y-98658480D01*
X114019380Y-98670830D01*
X113793910Y-98764222D01*
X113585826Y-98891737D01*
X113585823Y-98891738D01*
X113400241Y-99050241D01*
X113241738Y-99235823D01*
X113241737Y-99235826D01*
X113114222Y-99443910D01*
X113020830Y-99669380D01*
X112963853Y-99906702D01*
X112944706Y-100150000D01*
X109719808Y-100150000D01*
X111110357Y-98525254D01*
X111110357Y-98525252D01*
X111118202Y-98516087D01*
X111118508Y-98515644D01*
X111144206Y-98485570D01*
X111249969Y-98311162D01*
X111326072Y-98121919D01*
X111370504Y-97922846D01*
X111382090Y-97719204D01*
X111360524Y-97516376D01*
X111306375Y-97319724D01*
X111257462Y-97213481D01*
X111221075Y-97134444D01*
X111106887Y-96965446D01*
X111106879Y-96965436D01*
X110966807Y-96817167D01*
X110966804Y-96817164D01*
X110804562Y-96693559D01*
X110804561Y-96693558D01*
X110804558Y-96693556D01*
X110624424Y-96597869D01*
X110431165Y-96532638D01*
X110431162Y-96532637D01*
X110431161Y-96532637D01*
X110229885Y-96499583D01*
X110229891Y-96499583D01*
X110190096Y-96499551D01*
X110189581Y-96499500D01*
X110177731Y-96499500D01*
X103844170Y-96499500D01*
X103800000Y-96499500D01*
X103701583Y-96499500D01*
X103701578Y-96499500D01*
X103507173Y-96530290D01*
X103319970Y-96591117D01*
X103144594Y-96680476D01*
X103075589Y-96730612D01*
X102985354Y-96796172D01*
X102985352Y-96796174D01*
X102985351Y-96796174D01*
X102846174Y-96935351D01*
X102846174Y-96935352D01*
X102846172Y-96935354D01*
X102824309Y-96965446D01*
X102730476Y-97094594D01*
X102641117Y-97269970D01*
X102580290Y-97457173D01*
X102549500Y-97651577D01*
X97553208Y-97651577D01*
X97493153Y-97602291D01*
X97493151Y-97602290D01*
X97493150Y-97602289D01*
X97308569Y-97503628D01*
X97208427Y-97473250D01*
X97108284Y-97442872D01*
X96900000Y-97422359D01*
X96691715Y-97442872D01*
X96491428Y-97503629D01*
X96306846Y-97602291D01*
X96145061Y-97735065D01*
X96140756Y-97739371D01*
X96139846Y-97738461D01*
X96087606Y-97774046D01*
X96017761Y-97775915D01*
X95957993Y-97739727D01*
X95927278Y-97676971D01*
X95925500Y-97656046D01*
X95925500Y-96783953D01*
X95945185Y-96716914D01*
X95997989Y-96671159D01*
X96067147Y-96661215D01*
X96130703Y-96690240D01*
X96143046Y-96702919D01*
X96145061Y-96704934D01*
X96281817Y-96817167D01*
X96306850Y-96837711D01*
X96491431Y-96936372D01*
X96691714Y-96997127D01*
X96900000Y-97017641D01*
X97108286Y-96997127D01*
X97308569Y-96936372D01*
X97493150Y-96837711D01*
X97654936Y-96704936D01*
X97787711Y-96543150D01*
X97886372Y-96358569D01*
X97947127Y-96158286D01*
X97967641Y-95950000D01*
X97947127Y-95741714D01*
X97886372Y-95541431D01*
X97787711Y-95356850D01*
X97774292Y-95340499D01*
X97654936Y-95195063D01*
X97493153Y-95062291D01*
X97493151Y-95062290D01*
X97493150Y-95062289D01*
X97308569Y-94963628D01*
X97184506Y-94925994D01*
X97108284Y-94902872D01*
X96900000Y-94882359D01*
X96691715Y-94902872D01*
X96491428Y-94963629D01*
X96306846Y-95062291D01*
X96145061Y-95195065D01*
X96140756Y-95199371D01*
X96139846Y-95198461D01*
X96087606Y-95234046D01*
X96017761Y-95235915D01*
X95957993Y-95199727D01*
X95927278Y-95136971D01*
X95925500Y-95116046D01*
X95925500Y-94593983D01*
X95925500Y-94593982D01*
X95906882Y-94524500D01*
X95896503Y-94485763D01*
X95840484Y-94388736D01*
X95361263Y-93909515D01*
X95264237Y-93853497D01*
X95156018Y-93824500D01*
X95156017Y-93824500D01*
X92849500Y-93824500D01*
X92782461Y-93804815D01*
X92736706Y-93752011D01*
X92725500Y-93700500D01*
X92725500Y-93303919D01*
X92745185Y-93236880D01*
X92797989Y-93191125D01*
X92804687Y-93188300D01*
X92815019Y-93184298D01*
X92996302Y-93072052D01*
X93153872Y-92928407D01*
X93282366Y-92758255D01*
X93291492Y-92739927D01*
X93377403Y-92567394D01*
X93377403Y-92567393D01*
X93377405Y-92567389D01*
X93435756Y-92362310D01*
X93446529Y-92246047D01*
X93472315Y-92181111D01*
X93514622Y-92150804D01*
X93623130Y-92150804D01*
X93659503Y-92171668D01*
X93691693Y-92233681D01*
X93693470Y-92246047D01*
X93704244Y-92362310D01*
X93757675Y-92550099D01*
X93762596Y-92567392D01*
X93762596Y-92567394D01*
X93857632Y-92758253D01*
X93966147Y-92901948D01*
X93986128Y-92928407D01*
X94143698Y-93072052D01*
X94324981Y-93184298D01*
X94523802Y-93261321D01*
X94733390Y-93300500D01*
X94733392Y-93300500D01*
X94946608Y-93300500D01*
X94946610Y-93300500D01*
X95156198Y-93261321D01*
X95355019Y-93184298D01*
X95536302Y-93072052D01*
X95693872Y-92928407D01*
X95822366Y-92758255D01*
X95831492Y-92739927D01*
X95917403Y-92567394D01*
X95917403Y-92567393D01*
X95917405Y-92567389D01*
X95975756Y-92362310D01*
X95986529Y-92246047D01*
X96012315Y-92181111D01*
X96054622Y-92150804D01*
X96163130Y-92150804D01*
X96199503Y-92171668D01*
X96231693Y-92233681D01*
X96233470Y-92246047D01*
X96244244Y-92362310D01*
X96297675Y-92550099D01*
X96302596Y-92567392D01*
X96302596Y-92567394D01*
X96397632Y-92758253D01*
X96506147Y-92901948D01*
X96526128Y-92928407D01*
X96683698Y-93072052D01*
X96864981Y-93184298D01*
X97063802Y-93261321D01*
X97273390Y-93300500D01*
X97273392Y-93300500D01*
X97486608Y-93300500D01*
X97486610Y-93300500D01*
X97696198Y-93261321D01*
X97895019Y-93184298D01*
X98076302Y-93072052D01*
X98233872Y-92928407D01*
X98362366Y-92758255D01*
X98371492Y-92739927D01*
X98457403Y-92567394D01*
X98457403Y-92567393D01*
X98457405Y-92567389D01*
X98515756Y-92362310D01*
X98526529Y-92246047D01*
X98552315Y-92181111D01*
X98594622Y-92150804D01*
X98703130Y-92150804D01*
X98739503Y-92171668D01*
X98771693Y-92233681D01*
X98773470Y-92246047D01*
X98784244Y-92362310D01*
X98837675Y-92550099D01*
X98842596Y-92567392D01*
X98842596Y-92567394D01*
X98937632Y-92758253D01*
X99046147Y-92901948D01*
X99066128Y-92928407D01*
X99223698Y-93072052D01*
X99404981Y-93184298D01*
X99603802Y-93261321D01*
X99813390Y-93300500D01*
X99813392Y-93300500D01*
X100026608Y-93300500D01*
X100026610Y-93300500D01*
X100236198Y-93261321D01*
X100435019Y-93184298D01*
X100616302Y-93072052D01*
X100773872Y-92928407D01*
X100902366Y-92758255D01*
X100911492Y-92739927D01*
X100997403Y-92567394D01*
X100997403Y-92567393D01*
X100997405Y-92567389D01*
X101055756Y-92362310D01*
X101066529Y-92246047D01*
X101092315Y-92181111D01*
X101134622Y-92150804D01*
X101243130Y-92150804D01*
X101279503Y-92171668D01*
X101311693Y-92233681D01*
X101313470Y-92246047D01*
X101324244Y-92362310D01*
X101377675Y-92550099D01*
X101382596Y-92567392D01*
X101382596Y-92567394D01*
X101477632Y-92758253D01*
X101586147Y-92901948D01*
X101606128Y-92928407D01*
X101763698Y-93072052D01*
X101944981Y-93184298D01*
X102143802Y-93261321D01*
X102353390Y-93300500D01*
X102353392Y-93300500D01*
X102566608Y-93300500D01*
X102566610Y-93300500D01*
X102776198Y-93261321D01*
X102975019Y-93184298D01*
X103156302Y-93072052D01*
X103313872Y-92928407D01*
X103442366Y-92758255D01*
X103509325Y-92623781D01*
X103556825Y-92572548D01*
X103624488Y-92555126D01*
X103690828Y-92577051D01*
X103732705Y-92626651D01*
X103826399Y-92827578D01*
X103961894Y-93021082D01*
X104128917Y-93188105D01*
X104322421Y-93323600D01*
X104536507Y-93423429D01*
X104536516Y-93423433D01*
X104750000Y-93480634D01*
X104750000Y-92583012D01*
X104807007Y-92615925D01*
X104934174Y-92650000D01*
X105065826Y-92650000D01*
X105192993Y-92615925D01*
X105250000Y-92583012D01*
X105250000Y-93480633D01*
X105463483Y-93423433D01*
X105463492Y-93423429D01*
X105677578Y-93323600D01*
X105871082Y-93188105D01*
X106038105Y-93021082D01*
X106173600Y-92827578D01*
X106267294Y-92626651D01*
X106313466Y-92574212D01*
X106380660Y-92555060D01*
X106447541Y-92575276D01*
X106490676Y-92623785D01*
X106557632Y-92758253D01*
X106666147Y-92901948D01*
X106686128Y-92928407D01*
X106843698Y-93072052D01*
X107024981Y-93184298D01*
X107223802Y-93261321D01*
X107433390Y-93300500D01*
X107433392Y-93300500D01*
X107646608Y-93300500D01*
X107646610Y-93300500D01*
X107856198Y-93261321D01*
X108055019Y-93184298D01*
X108236302Y-93072052D01*
X108393872Y-92928407D01*
X108522366Y-92758255D01*
X108531492Y-92739927D01*
X108617403Y-92567394D01*
X108617403Y-92567393D01*
X108617405Y-92567389D01*
X108675756Y-92362310D01*
X108686529Y-92246047D01*
X108712315Y-92181111D01*
X108754622Y-92150804D01*
X108863130Y-92150804D01*
X108899503Y-92171668D01*
X108931693Y-92233681D01*
X108933470Y-92246047D01*
X108944244Y-92362310D01*
X108997675Y-92550099D01*
X109002596Y-92567392D01*
X109002596Y-92567394D01*
X109097632Y-92758253D01*
X109206147Y-92901948D01*
X109226128Y-92928407D01*
X109383698Y-93072052D01*
X109564981Y-93184298D01*
X109763802Y-93261321D01*
X109973390Y-93300500D01*
X109973392Y-93300500D01*
X110186608Y-93300500D01*
X110186610Y-93300500D01*
X110396198Y-93261321D01*
X110595019Y-93184298D01*
X110776302Y-93072052D01*
X110933872Y-92928407D01*
X111062366Y-92758255D01*
X111071492Y-92739927D01*
X111157403Y-92567394D01*
X111157403Y-92567393D01*
X111157405Y-92567389D01*
X111215756Y-92362310D01*
X111226529Y-92246047D01*
X111252315Y-92181111D01*
X111294622Y-92150804D01*
X111403130Y-92150804D01*
X111439503Y-92171668D01*
X111471693Y-92233681D01*
X111473470Y-92246047D01*
X111484244Y-92362310D01*
X111537675Y-92550099D01*
X111542596Y-92567392D01*
X111542596Y-92567394D01*
X111637632Y-92758253D01*
X111746147Y-92901948D01*
X111766128Y-92928407D01*
X111923698Y-93072052D01*
X112104981Y-93184298D01*
X112303802Y-93261321D01*
X112513390Y-93300500D01*
X112513392Y-93300500D01*
X112726608Y-93300500D01*
X112726610Y-93300500D01*
X112936198Y-93261321D01*
X113135019Y-93184298D01*
X113316302Y-93072052D01*
X113473872Y-92928407D01*
X113602366Y-92758255D01*
X113611492Y-92739927D01*
X113697403Y-92567394D01*
X113697403Y-92567393D01*
X113697405Y-92567389D01*
X113755756Y-92362310D01*
X113766529Y-92246047D01*
X113792315Y-92181111D01*
X113836869Y-92149194D01*
X113800497Y-92128331D01*
X113768307Y-92066318D01*
X113766529Y-92053951D01*
X113760969Y-91993951D01*
X113755756Y-91937690D01*
X113697405Y-91732611D01*
X113697403Y-91732606D01*
X113697403Y-91732605D01*
X113602367Y-91541746D01*
X113473872Y-91371593D01*
X113450996Y-91350739D01*
X113316302Y-91227948D01*
X113135019Y-91115702D01*
X113135017Y-91115701D01*
X113035608Y-91077190D01*
X112936198Y-91038679D01*
X112726610Y-90999500D01*
X112513390Y-90999500D01*
X112303802Y-91038679D01*
X112303799Y-91038679D01*
X112303799Y-91038680D01*
X112104982Y-91115701D01*
X112104980Y-91115702D01*
X111923699Y-91227947D01*
X111766127Y-91371593D01*
X111637632Y-91541746D01*
X111542596Y-91732605D01*
X111542596Y-91732607D01*
X111484244Y-91937689D01*
X111473471Y-92053951D01*
X111447685Y-92118888D01*
X111403130Y-92150804D01*
X111294622Y-92150804D01*
X111296869Y-92149194D01*
X111260497Y-92128331D01*
X111228307Y-92066318D01*
X111226529Y-92053951D01*
X111220969Y-91993951D01*
X111215756Y-91937690D01*
X111157405Y-91732611D01*
X111157403Y-91732606D01*
X111157403Y-91732605D01*
X111062367Y-91541746D01*
X110933872Y-91371593D01*
X110910996Y-91350739D01*
X110776302Y-91227948D01*
X110595019Y-91115702D01*
X110595017Y-91115701D01*
X110495608Y-91077190D01*
X110396198Y-91038679D01*
X110186610Y-90999500D01*
X109973390Y-90999500D01*
X109763802Y-91038679D01*
X109763799Y-91038679D01*
X109763799Y-91038680D01*
X109564982Y-91115701D01*
X109564980Y-91115702D01*
X109383699Y-91227947D01*
X109226127Y-91371593D01*
X109097632Y-91541746D01*
X109002596Y-91732605D01*
X109002596Y-91732607D01*
X108944244Y-91937689D01*
X108933471Y-92053951D01*
X108907685Y-92118888D01*
X108863130Y-92150804D01*
X108754622Y-92150804D01*
X108756869Y-92149194D01*
X108720497Y-92128331D01*
X108688307Y-92066318D01*
X108686529Y-92053951D01*
X108680969Y-91993951D01*
X108675756Y-91937690D01*
X108617405Y-91732611D01*
X108617403Y-91732606D01*
X108617403Y-91732605D01*
X108522367Y-91541746D01*
X108393872Y-91371593D01*
X108370996Y-91350739D01*
X108236302Y-91227948D01*
X108055019Y-91115702D01*
X108055017Y-91115701D01*
X107955608Y-91077190D01*
X107856198Y-91038679D01*
X107646610Y-90999500D01*
X107433390Y-90999500D01*
X107223802Y-91038679D01*
X107223799Y-91038679D01*
X107223799Y-91038680D01*
X107024982Y-91115701D01*
X107024980Y-91115702D01*
X106843699Y-91227947D01*
X106686127Y-91371593D01*
X106557634Y-91541744D01*
X106490676Y-91676215D01*
X106443173Y-91727452D01*
X106375510Y-91744873D01*
X106309170Y-91722947D01*
X106267294Y-91673348D01*
X106173600Y-91472422D01*
X106173599Y-91472420D01*
X106038113Y-91278926D01*
X106038108Y-91278920D01*
X105871082Y-91111894D01*
X105677578Y-90976399D01*
X105463492Y-90876570D01*
X105463486Y-90876567D01*
X105250000Y-90819364D01*
X105250000Y-91716988D01*
X105192993Y-91684075D01*
X105065826Y-91650000D01*
X104934174Y-91650000D01*
X104807007Y-91684075D01*
X104750000Y-91716988D01*
X104750000Y-90819364D01*
X104749999Y-90819364D01*
X104536513Y-90876567D01*
X104536507Y-90876570D01*
X104322422Y-90976399D01*
X104322420Y-90976400D01*
X104128926Y-91111886D01*
X104128920Y-91111891D01*
X103961891Y-91278920D01*
X103961886Y-91278926D01*
X103826400Y-91472420D01*
X103826399Y-91472422D01*
X103732705Y-91673348D01*
X103686532Y-91725787D01*
X103619339Y-91744939D01*
X103552457Y-91724723D01*
X103509323Y-91676215D01*
X103442366Y-91541745D01*
X103313872Y-91371593D01*
X103156302Y-91227948D01*
X102975019Y-91115702D01*
X102975017Y-91115701D01*
X102875608Y-91077190D01*
X102776198Y-91038679D01*
X102566610Y-90999500D01*
X102353390Y-90999500D01*
X102143802Y-91038679D01*
X102143799Y-91038679D01*
X102143799Y-91038680D01*
X101944982Y-91115701D01*
X101944980Y-91115702D01*
X101763699Y-91227947D01*
X101606127Y-91371593D01*
X101477632Y-91541746D01*
X101382596Y-91732605D01*
X101382596Y-91732607D01*
X101324244Y-91937689D01*
X101313471Y-92053951D01*
X101287685Y-92118888D01*
X101243130Y-92150804D01*
X101134622Y-92150804D01*
X101136869Y-92149194D01*
X101100497Y-92128331D01*
X101068307Y-92066318D01*
X101066529Y-92053951D01*
X101060969Y-91993951D01*
X101055756Y-91937690D01*
X100997405Y-91732611D01*
X100997403Y-91732606D01*
X100997403Y-91732605D01*
X100902367Y-91541746D01*
X100773872Y-91371593D01*
X100750996Y-91350739D01*
X100616302Y-91227948D01*
X100435019Y-91115702D01*
X100435017Y-91115701D01*
X100335608Y-91077190D01*
X100236198Y-91038679D01*
X100026610Y-90999500D01*
X99813390Y-90999500D01*
X99603802Y-91038679D01*
X99603799Y-91038679D01*
X99603799Y-91038680D01*
X99404982Y-91115701D01*
X99404980Y-91115702D01*
X99223699Y-91227947D01*
X99066127Y-91371593D01*
X98937632Y-91541746D01*
X98842596Y-91732605D01*
X98842596Y-91732607D01*
X98784244Y-91937689D01*
X98773471Y-92053951D01*
X98747685Y-92118888D01*
X98703130Y-92150804D01*
X98594622Y-92150804D01*
X98596869Y-92149194D01*
X98560497Y-92128331D01*
X98528307Y-92066318D01*
X98526529Y-92053951D01*
X98520969Y-91993951D01*
X98515756Y-91937690D01*
X98457405Y-91732611D01*
X98457403Y-91732606D01*
X98457403Y-91732605D01*
X98362367Y-91541746D01*
X98233872Y-91371593D01*
X98210996Y-91350739D01*
X98076302Y-91227948D01*
X97895019Y-91115702D01*
X97895017Y-91115701D01*
X97795608Y-91077190D01*
X97696198Y-91038679D01*
X97486610Y-90999500D01*
X97273390Y-90999500D01*
X97063802Y-91038679D01*
X97063799Y-91038679D01*
X97063799Y-91038680D01*
X96864982Y-91115701D01*
X96864980Y-91115702D01*
X96683699Y-91227947D01*
X96526127Y-91371593D01*
X96397632Y-91541746D01*
X96302596Y-91732605D01*
X96302596Y-91732607D01*
X96244244Y-91937689D01*
X96233471Y-92053951D01*
X96207685Y-92118888D01*
X96163130Y-92150804D01*
X96054622Y-92150804D01*
X96056869Y-92149194D01*
X96020497Y-92128331D01*
X95988307Y-92066318D01*
X95986529Y-92053951D01*
X95980969Y-91993951D01*
X95975756Y-91937690D01*
X95917405Y-91732611D01*
X95917403Y-91732606D01*
X95917403Y-91732605D01*
X95822367Y-91541746D01*
X95693872Y-91371593D01*
X95670996Y-91350739D01*
X95536302Y-91227948D01*
X95355019Y-91115702D01*
X95355017Y-91115701D01*
X95255608Y-91077190D01*
X95156198Y-91038679D01*
X94946610Y-90999500D01*
X94733390Y-90999500D01*
X94523802Y-91038679D01*
X94523799Y-91038679D01*
X94523799Y-91038680D01*
X94324982Y-91115701D01*
X94324980Y-91115702D01*
X94143699Y-91227947D01*
X93986127Y-91371593D01*
X93857632Y-91541746D01*
X93762596Y-91732605D01*
X93762596Y-91732607D01*
X93704244Y-91937689D01*
X93693471Y-92053951D01*
X93667685Y-92118888D01*
X93623130Y-92150804D01*
X93514622Y-92150804D01*
X93516869Y-92149194D01*
X93480497Y-92128331D01*
X93448307Y-92066318D01*
X93446529Y-92053951D01*
X93440969Y-91993951D01*
X93435756Y-91937690D01*
X93377405Y-91732611D01*
X93377403Y-91732606D01*
X93377403Y-91732605D01*
X93282367Y-91541746D01*
X93153872Y-91371593D01*
X93130996Y-91350739D01*
X92996302Y-91227948D01*
X92815019Y-91115702D01*
X92815017Y-91115701D01*
X92715608Y-91077190D01*
X92616198Y-91038679D01*
X92406610Y-90999500D01*
X92193390Y-90999500D01*
X91983802Y-91038679D01*
X91983799Y-91038679D01*
X91983799Y-91038680D01*
X91784982Y-91115701D01*
X91784980Y-91115702D01*
X91603699Y-91227947D01*
X91446127Y-91371593D01*
X91317634Y-91541744D01*
X91250676Y-91676215D01*
X91203173Y-91727452D01*
X91135510Y-91744873D01*
X91069170Y-91722947D01*
X91027294Y-91673348D01*
X90933600Y-91472422D01*
X90933599Y-91472420D01*
X90798113Y-91278926D01*
X90798108Y-91278920D01*
X90631082Y-91111894D01*
X90437578Y-90976399D01*
X90223492Y-90876570D01*
X90223486Y-90876567D01*
X90010000Y-90819364D01*
X90010000Y-91716988D01*
X89952993Y-91684075D01*
X89825826Y-91650000D01*
X89694174Y-91650000D01*
X89567007Y-91684075D01*
X89510000Y-91716988D01*
X89510000Y-90819364D01*
X89509999Y-90819364D01*
X89296513Y-90876567D01*
X89296507Y-90876570D01*
X89082422Y-90976399D01*
X89082420Y-90976400D01*
X88888926Y-91111886D01*
X88888920Y-91111891D01*
X88721891Y-91278920D01*
X88721886Y-91278926D01*
X88586400Y-91472420D01*
X88586399Y-91472422D01*
X88486570Y-91686507D01*
X88486567Y-91686513D01*
X88429364Y-91899999D01*
X85034335Y-91899999D01*
X85047585Y-91869991D01*
X85050500Y-91844865D01*
X85050499Y-90055136D01*
X85050497Y-90055117D01*
X85047586Y-90030012D01*
X85047585Y-90030010D01*
X85047585Y-90030009D01*
X85002206Y-89927235D01*
X84922765Y-89847794D01*
X84922763Y-89847793D01*
X84819992Y-89802415D01*
X84794865Y-89799500D01*
X83005143Y-89799500D01*
X83005117Y-89799502D01*
X82980012Y-89802413D01*
X82980008Y-89802415D01*
X82877235Y-89847793D01*
X82797794Y-89927234D01*
X82752415Y-90030006D01*
X82752415Y-90030008D01*
X82749500Y-90055131D01*
X82749500Y-91447389D01*
X82729815Y-91514428D01*
X82713181Y-91535070D01*
X81971295Y-92276955D01*
X81971296Y-92276956D01*
X81909514Y-92338738D01*
X81909513Y-92338740D01*
X81853498Y-92435760D01*
X81853497Y-92435763D01*
X81824500Y-92543982D01*
X81824500Y-95862385D01*
X81804815Y-95929424D01*
X81752011Y-95975179D01*
X81725977Y-95982497D01*
X81726148Y-95983173D01*
X81718443Y-95985120D01*
X81577656Y-96040639D01*
X81457077Y-96132077D01*
X81365639Y-96252656D01*
X81310122Y-96393438D01*
X81308717Y-96405143D01*
X81299500Y-96481898D01*
X80125502Y-96481898D01*
X80125502Y-86270500D01*
X80145187Y-86203461D01*
X80197991Y-86157706D01*
X80267149Y-86147762D01*
X80330705Y-86176787D01*
X80356890Y-86208502D01*
X80364291Y-86221322D01*
X80572969Y-86501625D01*
X80581150Y-86510296D01*
X81435448Y-85655999D01*
X81496771Y-85622514D01*
X81566463Y-85627498D01*
X81620075Y-85666366D01*
X81651260Y-85705471D01*
X81786074Y-85830559D01*
X81821829Y-85890588D01*
X81819454Y-85960417D01*
X81789414Y-86009139D01*
X80937820Y-86860732D01*
X80937821Y-86860734D01*
X81080486Y-86980445D01*
X81372463Y-87172480D01*
X81684741Y-87329314D01*
X81684747Y-87329316D01*
X82013132Y-87448838D01*
X82013135Y-87448839D01*
X82353173Y-87529429D01*
X82700278Y-87569999D01*
X82700279Y-87570000D01*
X83049725Y-87570000D01*
X83049725Y-87569999D01*
X83396829Y-87529429D01*
X83396831Y-87529429D01*
X83736868Y-87448839D01*
X83736871Y-87448838D01*
X84065256Y-87329316D01*
X84065262Y-87329314D01*
X84377540Y-87172480D01*
X84669511Y-86980449D01*
X84669512Y-86980448D01*
X84812181Y-86860734D01*
X84812182Y-86860733D01*
X83960589Y-86009140D01*
X83927104Y-85947817D01*
X83932088Y-85878125D01*
X83963929Y-85830560D01*
X84002740Y-85794548D01*
X84098746Y-85705468D01*
X84129926Y-85666368D01*
X84187114Y-85626228D01*
X84256926Y-85623378D01*
X84314555Y-85656000D01*
X85168852Y-86510297D01*
X85168853Y-86510296D01*
X85177024Y-86501636D01*
X85177035Y-86501623D01*
X85385712Y-86221322D01*
X85560440Y-85918683D01*
X85560446Y-85918670D01*
X85698856Y-85597800D01*
X85799085Y-85263011D01*
X85799087Y-85263002D01*
X85859765Y-84918880D01*
X85859766Y-84918869D01*
X85869303Y-84755131D01*
X87649500Y-84755131D01*
X87649500Y-86544856D01*
X87649502Y-86544882D01*
X87652413Y-86569987D01*
X87652415Y-86569991D01*
X87697793Y-86672764D01*
X87697794Y-86672765D01*
X87777235Y-86752206D01*
X87880009Y-86797585D01*
X87905135Y-86800500D01*
X89297389Y-86800499D01*
X89364428Y-86820184D01*
X89385070Y-86836818D01*
X90009515Y-87461263D01*
X90088737Y-87540485D01*
X90185763Y-87596503D01*
X90293982Y-87625500D01*
X93983564Y-87625500D01*
X94050603Y-87645185D01*
X94096358Y-87697989D01*
X94103673Y-87724023D01*
X94104351Y-87723852D01*
X94106298Y-87731556D01*
X94161817Y-87872343D01*
X94253255Y-87992922D01*
X94373834Y-88084360D01*
X94373835Y-88084360D01*
X94373836Y-88084361D01*
X94514614Y-88139877D01*
X94603076Y-88150500D01*
X94603081Y-88150500D01*
X95939275Y-88150500D01*
X95939280Y-88150500D01*
X96027742Y-88139877D01*
X96168520Y-88084361D01*
X96289100Y-87992922D01*
X96380539Y-87872342D01*
X96436055Y-87731564D01*
X96446678Y-87643102D01*
X96446678Y-86756898D01*
X96436055Y-86668436D01*
X96380539Y-86527658D01*
X96380538Y-86527657D01*
X96380538Y-86527656D01*
X96289100Y-86407077D01*
X96168521Y-86315639D01*
X96027739Y-86260122D01*
X95982104Y-86254642D01*
X95939280Y-86249500D01*
X94603076Y-86249500D01*
X94564031Y-86254188D01*
X94514616Y-86260122D01*
X94373834Y-86315639D01*
X94253255Y-86407077D01*
X94161817Y-86527656D01*
X94106298Y-86668443D01*
X94104351Y-86676148D01*
X94102246Y-86675616D01*
X94079150Y-86729490D01*
X94021271Y-86768628D01*
X93983564Y-86774500D01*
X90577610Y-86774500D01*
X90510571Y-86754815D01*
X90489929Y-86738181D01*
X89986818Y-86235070D01*
X89953333Y-86173747D01*
X89950499Y-86147389D01*
X89950499Y-84755143D01*
X89950499Y-84755136D01*
X89950497Y-84755117D01*
X89947586Y-84730012D01*
X89947585Y-84730010D01*
X89947585Y-84730009D01*
X89902206Y-84627235D01*
X89822765Y-84547794D01*
X89812125Y-84543096D01*
X89719992Y-84502415D01*
X89694865Y-84499500D01*
X87905143Y-84499500D01*
X87905117Y-84499502D01*
X87880012Y-84502413D01*
X87880008Y-84502415D01*
X87777235Y-84547793D01*
X87697794Y-84627234D01*
X87652415Y-84730006D01*
X87652415Y-84730008D01*
X87649500Y-84755131D01*
X85869303Y-84755131D01*
X85880086Y-84570003D01*
X85880086Y-84569996D01*
X85859766Y-84221130D01*
X85859765Y-84221119D01*
X85799087Y-83876997D01*
X85799085Y-83876988D01*
X85733195Y-83656898D01*
X94095678Y-83656898D01*
X94095678Y-84543102D01*
X94101304Y-84589954D01*
X94106300Y-84631561D01*
X94161817Y-84772343D01*
X94253255Y-84892922D01*
X94373834Y-84984360D01*
X94373835Y-84984360D01*
X94373836Y-84984361D01*
X94514614Y-85039877D01*
X94603076Y-85050500D01*
X94603081Y-85050500D01*
X95939275Y-85050500D01*
X95939280Y-85050500D01*
X96027742Y-85039877D01*
X96168520Y-84984361D01*
X96289100Y-84892922D01*
X96380539Y-84772342D01*
X96387326Y-84755131D01*
X100591856Y-84755131D01*
X100591856Y-86544856D01*
X100591858Y-86544882D01*
X100594769Y-86569987D01*
X100594771Y-86569991D01*
X100640149Y-86672764D01*
X100640150Y-86672765D01*
X100719591Y-86752206D01*
X100822365Y-86797585D01*
X100847491Y-86800500D01*
X102239745Y-86800499D01*
X102306784Y-86820184D01*
X102327426Y-86836818D01*
X102951871Y-87461263D01*
X103031093Y-87540485D01*
X103128119Y-87596503D01*
X103236338Y-87625500D01*
X106925920Y-87625500D01*
X106992959Y-87645185D01*
X107038714Y-87697989D01*
X107046029Y-87724023D01*
X107046707Y-87723852D01*
X107048654Y-87731556D01*
X107104173Y-87872343D01*
X107195611Y-87992922D01*
X107316190Y-88084360D01*
X107316191Y-88084360D01*
X107316192Y-88084361D01*
X107456970Y-88139877D01*
X107545432Y-88150500D01*
X107545437Y-88150500D01*
X108881631Y-88150500D01*
X108881636Y-88150500D01*
X108970098Y-88139877D01*
X109110876Y-88084361D01*
X109231456Y-87992922D01*
X109322895Y-87872342D01*
X109378411Y-87731564D01*
X109389034Y-87643102D01*
X109389034Y-86756898D01*
X109378411Y-86668436D01*
X109322895Y-86527658D01*
X109322894Y-86527657D01*
X109322894Y-86527656D01*
X109231456Y-86407077D01*
X109110877Y-86315639D01*
X108970095Y-86260122D01*
X108924460Y-86254642D01*
X108881636Y-86249500D01*
X107545432Y-86249500D01*
X107506387Y-86254188D01*
X107456972Y-86260122D01*
X107316190Y-86315639D01*
X107195611Y-86407077D01*
X107104173Y-86527656D01*
X107048654Y-86668443D01*
X107046707Y-86676148D01*
X107044602Y-86675616D01*
X107021506Y-86729490D01*
X106963627Y-86768628D01*
X106925920Y-86774500D01*
X103519966Y-86774500D01*
X103452927Y-86754815D01*
X103432285Y-86738181D01*
X102929174Y-86235070D01*
X102895689Y-86173747D01*
X102892855Y-86147389D01*
X102892855Y-84755143D01*
X102892855Y-84755136D01*
X102892853Y-84755117D01*
X102889942Y-84730012D01*
X102889941Y-84730010D01*
X102889941Y-84730009D01*
X102844562Y-84627235D01*
X102765121Y-84547794D01*
X102754481Y-84543096D01*
X102662348Y-84502415D01*
X102637221Y-84499500D01*
X100847499Y-84499500D01*
X100847473Y-84499502D01*
X100822368Y-84502413D01*
X100822364Y-84502415D01*
X100719591Y-84547793D01*
X100640150Y-84627234D01*
X100594771Y-84730006D01*
X100594771Y-84730008D01*
X100591856Y-84755131D01*
X96387326Y-84755131D01*
X96436055Y-84631564D01*
X96446678Y-84543102D01*
X96446678Y-83656898D01*
X107038034Y-83656898D01*
X107038034Y-84543102D01*
X107043660Y-84589954D01*
X107048656Y-84631561D01*
X107104173Y-84772343D01*
X107195611Y-84892922D01*
X107316190Y-84984360D01*
X107316191Y-84984360D01*
X107316192Y-84984361D01*
X107456970Y-85039877D01*
X107545432Y-85050500D01*
X107545437Y-85050500D01*
X108881631Y-85050500D01*
X108881636Y-85050500D01*
X108970098Y-85039877D01*
X109110876Y-84984361D01*
X109231456Y-84892922D01*
X109322895Y-84772342D01*
X109329682Y-84755131D01*
X113534212Y-84755131D01*
X113534212Y-86544856D01*
X113534214Y-86544882D01*
X113537125Y-86569987D01*
X113537127Y-86569991D01*
X113582505Y-86672764D01*
X113582506Y-86672765D01*
X113661947Y-86752206D01*
X113764721Y-86797585D01*
X113789847Y-86800500D01*
X115182101Y-86800499D01*
X115249140Y-86820184D01*
X115269782Y-86836818D01*
X115973449Y-87540485D01*
X116070475Y-87596503D01*
X116178694Y-87625500D01*
X116290730Y-87625500D01*
X119868276Y-87625500D01*
X119935315Y-87645185D01*
X119981070Y-87697989D01*
X119988385Y-87724023D01*
X119989063Y-87723852D01*
X119991010Y-87731556D01*
X120046529Y-87872343D01*
X120137967Y-87992922D01*
X120258546Y-88084360D01*
X120258547Y-88084360D01*
X120258548Y-88084361D01*
X120399326Y-88139877D01*
X120487788Y-88150500D01*
X120487793Y-88150500D01*
X121823987Y-88150500D01*
X121823992Y-88150500D01*
X121912454Y-88139877D01*
X122053232Y-88084361D01*
X122173812Y-87992922D01*
X122265251Y-87872342D01*
X122320767Y-87731564D01*
X122331390Y-87643102D01*
X122331390Y-86756898D01*
X122320767Y-86668436D01*
X122265251Y-86527658D01*
X122265250Y-86527657D01*
X122265250Y-86527656D01*
X122173812Y-86407077D01*
X122053233Y-86315639D01*
X121912451Y-86260122D01*
X121866816Y-86254642D01*
X121823992Y-86249500D01*
X120487788Y-86249500D01*
X120448743Y-86254188D01*
X120399328Y-86260122D01*
X120258546Y-86315639D01*
X120137967Y-86407077D01*
X120046529Y-86527656D01*
X119991010Y-86668443D01*
X119989063Y-86676148D01*
X119986958Y-86675616D01*
X119963862Y-86729490D01*
X119905983Y-86768628D01*
X119868276Y-86774500D01*
X116462322Y-86774500D01*
X116395283Y-86754815D01*
X116374641Y-86738181D01*
X115871530Y-86235070D01*
X115838045Y-86173747D01*
X115835211Y-86147389D01*
X115835211Y-84755143D01*
X115835211Y-84755136D01*
X115835209Y-84755117D01*
X115832298Y-84730012D01*
X115832297Y-84730010D01*
X115832297Y-84730009D01*
X115786918Y-84627235D01*
X115707477Y-84547794D01*
X115696837Y-84543096D01*
X115604704Y-84502415D01*
X115579577Y-84499500D01*
X113789855Y-84499500D01*
X113789829Y-84499502D01*
X113764724Y-84502413D01*
X113764720Y-84502415D01*
X113661947Y-84547793D01*
X113582506Y-84627234D01*
X113537127Y-84730006D01*
X113537127Y-84730008D01*
X113534212Y-84755131D01*
X109329682Y-84755131D01*
X109378411Y-84631564D01*
X109389034Y-84543102D01*
X109389034Y-83656898D01*
X119980390Y-83656898D01*
X119980390Y-84543102D01*
X119986016Y-84589954D01*
X119991012Y-84631561D01*
X120046529Y-84772343D01*
X120137967Y-84892922D01*
X120258546Y-84984360D01*
X120258547Y-84984360D01*
X120258548Y-84984361D01*
X120399326Y-85039877D01*
X120487788Y-85050500D01*
X120487793Y-85050500D01*
X121823987Y-85050500D01*
X121823992Y-85050500D01*
X121912454Y-85039877D01*
X122053232Y-84984361D01*
X122173812Y-84892922D01*
X122265251Y-84772342D01*
X122272038Y-84755131D01*
X126549500Y-84755131D01*
X126549500Y-86544856D01*
X126549502Y-86544882D01*
X126552413Y-86569987D01*
X126552415Y-86569991D01*
X126597793Y-86672764D01*
X126597794Y-86672765D01*
X126677235Y-86752206D01*
X126780009Y-86797585D01*
X126805135Y-86800500D01*
X128197389Y-86800499D01*
X128264428Y-86820184D01*
X128285070Y-86836818D01*
X128909515Y-87461263D01*
X128988737Y-87540485D01*
X129085763Y-87596503D01*
X129193982Y-87625500D01*
X132810637Y-87625500D01*
X132877676Y-87645185D01*
X132923431Y-87697989D01*
X132930746Y-87724023D01*
X132931424Y-87723852D01*
X132933371Y-87731556D01*
X132988890Y-87872343D01*
X133080328Y-87992922D01*
X133200907Y-88084360D01*
X133200908Y-88084360D01*
X133200909Y-88084361D01*
X133341687Y-88139877D01*
X133430149Y-88150500D01*
X133430154Y-88150500D01*
X134766348Y-88150500D01*
X134766353Y-88150500D01*
X134854815Y-88139877D01*
X134995593Y-88084361D01*
X135116173Y-87992922D01*
X135207612Y-87872342D01*
X135263128Y-87731564D01*
X135273751Y-87643102D01*
X135273751Y-86756898D01*
X135263128Y-86668436D01*
X135207612Y-86527658D01*
X135207611Y-86527657D01*
X135207611Y-86527656D01*
X135116173Y-86407077D01*
X134995594Y-86315639D01*
X134854812Y-86260122D01*
X134809177Y-86254642D01*
X134766353Y-86249500D01*
X133430149Y-86249500D01*
X133391104Y-86254188D01*
X133341689Y-86260122D01*
X133200907Y-86315639D01*
X133080328Y-86407077D01*
X132988890Y-86527656D01*
X132933371Y-86668443D01*
X132931424Y-86676148D01*
X132929319Y-86675616D01*
X132906223Y-86729490D01*
X132848344Y-86768628D01*
X132810637Y-86774500D01*
X129477610Y-86774500D01*
X129410571Y-86754815D01*
X129389929Y-86738181D01*
X128886818Y-86235070D01*
X128853333Y-86173747D01*
X128850499Y-86147389D01*
X128850499Y-84755143D01*
X128850499Y-84755136D01*
X128850497Y-84755117D01*
X128847586Y-84730012D01*
X128847585Y-84730010D01*
X128847585Y-84730009D01*
X128802206Y-84627235D01*
X128722765Y-84547794D01*
X128712125Y-84543096D01*
X128619992Y-84502415D01*
X128594865Y-84499500D01*
X126805143Y-84499500D01*
X126805117Y-84499502D01*
X126780012Y-84502413D01*
X126780008Y-84502415D01*
X126677235Y-84547793D01*
X126597794Y-84627234D01*
X126552415Y-84730006D01*
X126552415Y-84730008D01*
X126549500Y-84755131D01*
X122272038Y-84755131D01*
X122320767Y-84631564D01*
X122331390Y-84543102D01*
X122331390Y-83656898D01*
X132922751Y-83656898D01*
X132922751Y-84543102D01*
X132928377Y-84589954D01*
X132933373Y-84631561D01*
X132988890Y-84772343D01*
X133080328Y-84892922D01*
X133200907Y-84984360D01*
X133200908Y-84984360D01*
X133200909Y-84984361D01*
X133341687Y-85039877D01*
X133430149Y-85050500D01*
X133430154Y-85050500D01*
X134766348Y-85050500D01*
X134766353Y-85050500D01*
X134854815Y-85039877D01*
X134995593Y-84984361D01*
X135116173Y-84892922D01*
X135207612Y-84772342D01*
X135263128Y-84631564D01*
X135273751Y-84543102D01*
X135273751Y-83656898D01*
X135263128Y-83568436D01*
X135207612Y-83427658D01*
X135207611Y-83427657D01*
X135207611Y-83427656D01*
X135116173Y-83307077D01*
X134995594Y-83215639D01*
X134854812Y-83160122D01*
X134809177Y-83154642D01*
X134766353Y-83149500D01*
X133430149Y-83149500D01*
X133391104Y-83154188D01*
X133341689Y-83160122D01*
X133200907Y-83215639D01*
X133080328Y-83307077D01*
X132988890Y-83427656D01*
X132933373Y-83568438D01*
X132930446Y-83592816D01*
X132922751Y-83656898D01*
X122331390Y-83656898D01*
X122320767Y-83568436D01*
X122265251Y-83427658D01*
X122265250Y-83427657D01*
X122265250Y-83427656D01*
X122173812Y-83307077D01*
X122053233Y-83215639D01*
X121912451Y-83160122D01*
X121866816Y-83154642D01*
X121823992Y-83149500D01*
X120487788Y-83149500D01*
X120448743Y-83154188D01*
X120399328Y-83160122D01*
X120258546Y-83215639D01*
X120137967Y-83307077D01*
X120046529Y-83427656D01*
X119991012Y-83568438D01*
X119988085Y-83592816D01*
X119980390Y-83656898D01*
X109389034Y-83656898D01*
X109378411Y-83568436D01*
X109322895Y-83427658D01*
X109322894Y-83427657D01*
X109322894Y-83427656D01*
X109231456Y-83307077D01*
X109110877Y-83215639D01*
X108970095Y-83160122D01*
X108924460Y-83154642D01*
X108881636Y-83149500D01*
X107545432Y-83149500D01*
X107506387Y-83154188D01*
X107456972Y-83160122D01*
X107316190Y-83215639D01*
X107195611Y-83307077D01*
X107104173Y-83427656D01*
X107048656Y-83568438D01*
X107045729Y-83592816D01*
X107038034Y-83656898D01*
X96446678Y-83656898D01*
X96436055Y-83568436D01*
X96380539Y-83427658D01*
X96380538Y-83427657D01*
X96380538Y-83427656D01*
X96289100Y-83307077D01*
X96168521Y-83215639D01*
X96027739Y-83160122D01*
X95982104Y-83154642D01*
X95939280Y-83149500D01*
X94603076Y-83149500D01*
X94564031Y-83154188D01*
X94514616Y-83160122D01*
X94373834Y-83215639D01*
X94253255Y-83307077D01*
X94161817Y-83427656D01*
X94106300Y-83568438D01*
X94103373Y-83592816D01*
X94095678Y-83656898D01*
X85733195Y-83656898D01*
X85698856Y-83542199D01*
X85560446Y-83221329D01*
X85560440Y-83221316D01*
X85385712Y-82918677D01*
X85177034Y-82638374D01*
X85168852Y-82629702D01*
X84314554Y-83483999D01*
X84253231Y-83517484D01*
X84183539Y-83512500D01*
X84129926Y-83473631D01*
X84098742Y-83434527D01*
X83963928Y-83309439D01*
X83928173Y-83249410D01*
X83930548Y-83179581D01*
X83960588Y-83130859D01*
X84812182Y-82279265D01*
X84812181Y-82279264D01*
X84669516Y-82159553D01*
X84500060Y-82048100D01*
X84454866Y-81994815D01*
X84445655Y-81925556D01*
X84475350Y-81862311D01*
X84534525Y-81825160D01*
X84568199Y-81820500D01*
X140181805Y-81820500D01*
X140248844Y-81840185D01*
G37*
%TD.AperFunction*%
%TD*%
M02*
