M48
; DRILL file {KiCad 8.0.4} date 2024-08-03T03:01:33-0400
; FORMAT={-:-/ absolute / inch / decimal}
; #@! TF.CreationDate,2024-08-03T03:01:33-04:00
; #@! TF.GenerationSoftware,Kicad,Pcbnew,8.0.4
; #@! TF.FileFunction,Plated,1,2,PTH
FMAT,2
INCH
; #@! TA.AperFunction,Plated,PTH,ViaDrill
T1C0.0157
; #@! TA.AperFunction,Plated,PTH,ComponentDrill
T2C0.0236
; #@! TA.AperFunction,Plated,PTH,ComponentDrill
T3C0.0300
; #@! TA.AperFunction,Plated,PTH,ComponentDrill
T4C0.0315
; #@! TA.AperFunction,Plated,PTH,ComponentDrill
T5C0.0394
; #@! TA.AperFunction,Plated,PTH,ComponentDrill
T6C0.1181
%
G90
G05
T1
X3.3602Y-3.8248
X3.7508Y-3.311
X4.2604Y-3.311
X4.7699Y-3.311
X5.2795Y-3.311
T2
X5.0866Y-3.8209
X5.0866Y-4.4429
X5.1654Y-3.8209
X5.1654Y-4.4429
T3
X3.3189Y-4.0752
X3.3189Y-4.1752
X3.3189Y-4.2752
X3.3189Y-4.3752
X3.815Y-3.7776
X3.815Y-3.8776
X3.815Y-3.9776
X3.815Y-4.0776
X3.815Y-4.1776
X3.815Y-4.2776
T4
X5.5512Y-3.6122
X5.5512Y-3.7122
X5.5512Y-3.8122
T5
X3.3031Y-3.5807
X3.4961Y-3.372
X3.5339Y-3.628
X3.5339Y-4.628
X3.6339Y-3.628
X3.6339Y-4.628
X3.7339Y-3.628
X3.7339Y-4.628
X3.8339Y-3.628
X3.8339Y-4.628
X3.9339Y-3.628
X3.9339Y-4.628
X4.0056Y-3.372
X4.0339Y-3.628
X4.0339Y-4.628
X4.1339Y-3.628
X4.1339Y-4.628
X4.2339Y-3.628
X4.2339Y-4.628
X4.3339Y-3.628
X4.3339Y-4.628
X4.4339Y-3.628
X4.4339Y-4.628
X4.5151Y-3.372
X4.5339Y-3.628
X4.5339Y-4.628
X4.6339Y-3.628
X4.6339Y-4.628
X4.7339Y-3.628
X4.7339Y-4.628
X4.8339Y-3.628
X4.8339Y-4.628
X4.9339Y-3.628
X4.9339Y-4.628
X5.0276Y-3.372
X5.0339Y-3.628
X5.0339Y-4.628
X5.1339Y-3.628
X5.1339Y-4.628
X5.2339Y-3.628
X5.2339Y-4.628
X5.3295Y-4.628
X5.3339Y-3.628
X5.5541Y-4.3141
X5.5541Y-4.4141
T6
X3.2628Y-3.3295
X3.2628Y-4.6681
X5.5856Y-3.3295
X5.5856Y-4.6681
M30
