%TF.GenerationSoftware,KiCad,Pcbnew,8.0.4*%
%TF.CreationDate,2024-07-25T22:54:18-04:00*%
%TF.ProjectId,esp32-node-board-40x65_telemetry,65737033-322d-46e6-9f64-652d626f6172,rev?*%
%TF.SameCoordinates,Original*%
%TF.FileFunction,Soldermask,Bot*%
%TF.FilePolarity,Negative*%
%FSLAX46Y46*%
G04 Gerber Fmt 4.6, Leading zero omitted, Abs format (unit mm)*
G04 Created by KiCad (PCBNEW 8.0.4) date 2024-07-25 22:54:18*
%MOMM*%
%LPD*%
G01*
G04 APERTURE LIST*
G04 Aperture macros list*
%AMRoundRect*
0 Rectangle with rounded corners*
0 $1 Rounding radius*
0 $2 $3 $4 $5 $6 $7 $8 $9 X,Y pos of 4 corners*
0 Add a 4 corners polygon primitive as box body*
4,1,4,$2,$3,$4,$5,$6,$7,$8,$9,$2,$3,0*
0 Add four circle primitives for the rounded corners*
1,1,$1+$1,$2,$3*
1,1,$1+$1,$4,$5*
1,1,$1+$1,$6,$7*
1,1,$1+$1,$8,$9*
0 Add four rect primitives between the rounded corners*
20,1,$1+$1,$2,$3,$4,$5,0*
20,1,$1+$1,$4,$5,$6,$7,0*
20,1,$1+$1,$6,$7,$8,$9,0*
20,1,$1+$1,$8,$9,$2,$3,0*%
G04 Aperture macros list end*
%ADD10RoundRect,0.375000X-0.375000X0.625000X-0.375000X-0.625000X0.375000X-0.625000X0.375000X0.625000X0*%
%ADD11RoundRect,0.500000X-1.400000X0.500000X-1.400000X-0.500000X1.400000X-0.500000X1.400000X0.500000X0*%
%ADD12R,1.500000X1.500000*%
%ADD13C,1.600000*%
%ADD14R,1.700000X1.700000*%
%ADD15O,1.700000X1.700000*%
%ADD16C,1.524000*%
%ADD17R,1.524000X1.524000*%
%ADD18C,5.000000*%
%ADD19R,1.200000X1.200000*%
%ADD20C,1.200000*%
G04 APERTURE END LIST*
D10*
%TO.C,U1*%
X135200000Y-97900000D03*
D11*
X132900000Y-104200000D03*
D10*
X132900000Y-97900000D03*
X130600000Y-97900000D03*
%TD*%
D12*
%TO.C,SW2*%
X141000000Y-94250000D03*
D13*
X141000000Y-91710000D03*
X141000000Y-96790000D03*
%TD*%
D14*
%TO.C,J6*%
X134420000Y-88750000D03*
D15*
X131880000Y-88750000D03*
X129340000Y-88750000D03*
X126800000Y-88750000D03*
X124260000Y-88750000D03*
X121720000Y-88750000D03*
X119180000Y-88750000D03*
X116640000Y-88750000D03*
X114100000Y-88750000D03*
X111560000Y-88750000D03*
X109020000Y-88750000D03*
X106480000Y-88750000D03*
X103940000Y-88750000D03*
X101400000Y-88750000D03*
X98860000Y-88750000D03*
X96320000Y-88750000D03*
X93780000Y-88750000D03*
X91240000Y-88750000D03*
X88700000Y-88750000D03*
X88700000Y-114150000D03*
X91240000Y-114150000D03*
X93780000Y-114150000D03*
X96320000Y-114150000D03*
X98860000Y-114150000D03*
X101400000Y-114150000D03*
X103940000Y-114150000D03*
X106480000Y-114150000D03*
X109020000Y-114150000D03*
X111560000Y-114150000D03*
X114100000Y-114150000D03*
X116640000Y-114150000D03*
X119180000Y-114150000D03*
X121720000Y-114150000D03*
X124260000Y-114150000D03*
X126800000Y-114150000D03*
X129340000Y-114150000D03*
X131880000Y-114150000D03*
X134310000Y-114150000D03*
%TD*%
D16*
%TO.C,J5*%
X84500000Y-97490000D03*
X84500000Y-105110000D03*
X84500000Y-102570000D03*
X84500000Y-100030000D03*
X84500000Y-94950000D03*
D17*
X84500000Y-107650000D03*
%TD*%
%TO.C,J3*%
X103540000Y-83750000D03*
D16*
X95920000Y-83750000D03*
X98460000Y-83750000D03*
X101000000Y-83750000D03*
%TD*%
D14*
%TO.C,J1*%
X141075000Y-112117500D03*
D15*
X141075000Y-109577500D03*
%TD*%
D18*
%TO.C,H1*%
X82875002Y-84570000D03*
X82875002Y-118570000D03*
X141875002Y-118570000D03*
X141875002Y-84570000D03*
%TD*%
D19*
%TO.C,C2*%
X133000000Y-108250000D03*
D20*
X131000000Y-108250000D03*
%TD*%
D19*
%TO.C,C1*%
X133072600Y-94250000D03*
D20*
X131072600Y-94250000D03*
%TD*%
M02*
