%TF.GenerationSoftware,KiCad,Pcbnew,8.0.4*%
%TF.CreationDate,2024-08-04T18:34:55-04:00*%
%TF.ProjectId,ESP32-C3-BreadBoardAdapter,45535033-322d-4433-932d-427265616442,rev?*%
%TF.SameCoordinates,Original*%
%TF.FileFunction,Copper,L2,Bot*%
%TF.FilePolarity,Positive*%
%FSLAX46Y46*%
G04 Gerber Fmt 4.6, Leading zero omitted, Abs format (unit mm)*
G04 Created by KiCad (PCBNEW 8.0.4) date 2024-08-04 18:34:55*
%MOMM*%
%LPD*%
G01*
G04 APERTURE LIST*
G04 Aperture macros list*
%AMRoundRect*
0 Rectangle with rounded corners*
0 $1 Rounding radius*
0 $2 $3 $4 $5 $6 $7 $8 $9 X,Y pos of 4 corners*
0 Add a 4 corners polygon primitive as box body*
4,1,4,$2,$3,$4,$5,$6,$7,$8,$9,$2,$3,0*
0 Add four circle primitives for the rounded corners*
1,1,$1+$1,$2,$3*
1,1,$1+$1,$4,$5*
1,1,$1+$1,$6,$7*
1,1,$1+$1,$8,$9*
0 Add four rect primitives between the rounded corners*
20,1,$1+$1,$2,$3,$4,$5,0*
20,1,$1+$1,$4,$5,$6,$7,0*
20,1,$1+$1,$6,$7,$8,$9,0*
20,1,$1+$1,$8,$9,$2,$3,0*%
G04 Aperture macros list end*
%TA.AperFunction,ComponentPad*%
%ADD10C,1.700000*%
%TD*%
%TA.AperFunction,ComponentPad*%
%ADD11O,1.700000X1.700000*%
%TD*%
%TA.AperFunction,ComponentPad*%
%ADD12C,0.660400*%
%TD*%
%TA.AperFunction,ComponentPad*%
%ADD13O,1.905000X1.117600*%
%TD*%
%TA.AperFunction,ComponentPad*%
%ADD14O,2.616200X1.117600*%
%TD*%
%TA.AperFunction,ComponentPad*%
%ADD15R,1.700000X1.700000*%
%TD*%
%TA.AperFunction,ComponentPad*%
%ADD16C,5.000000*%
%TD*%
%TA.AperFunction,ComponentPad*%
%ADD17C,0.400000*%
%TD*%
%TA.AperFunction,SMDPad,CuDef*%
%ADD18RoundRect,0.250000X-0.375000X-1.075000X0.375000X-1.075000X0.375000X1.075000X-0.375000X1.075000X0*%
%TD*%
%TA.AperFunction,SMDPad,CuDef*%
%ADD19RoundRect,0.250000X-0.625000X0.400000X-0.625000X-0.400000X0.625000X-0.400000X0.625000X0.400000X0*%
%TD*%
%TA.AperFunction,SMDPad,CuDef*%
%ADD20RoundRect,0.250000X0.625000X-0.400000X0.625000X0.400000X-0.625000X0.400000X-0.625000X-0.400000X0*%
%TD*%
%TA.AperFunction,SMDPad,CuDef*%
%ADD21RoundRect,0.250000X0.400000X0.625000X-0.400000X0.625000X-0.400000X-0.625000X0.400000X-0.625000X0*%
%TD*%
%TA.AperFunction,SMDPad,CuDef*%
%ADD22RoundRect,0.375000X0.375000X-0.625000X0.375000X0.625000X-0.375000X0.625000X-0.375000X-0.625000X0*%
%TD*%
%TA.AperFunction,SMDPad,CuDef*%
%ADD23RoundRect,0.500000X1.400000X-0.500000X1.400000X0.500000X-1.400000X0.500000X-1.400000X-0.500000X0*%
%TD*%
%TA.AperFunction,SMDPad,CuDef*%
%ADD24RoundRect,0.250000X-1.075000X0.375000X-1.075000X-0.375000X1.075000X-0.375000X1.075000X0.375000X0*%
%TD*%
%TA.AperFunction,ViaPad*%
%ADD25C,0.600000*%
%TD*%
%TA.AperFunction,Conductor*%
%ADD26C,0.500000*%
%TD*%
%TA.AperFunction,Conductor*%
%ADD27C,0.200000*%
%TD*%
%TA.AperFunction,Conductor*%
%ADD28C,0.250000*%
%TD*%
G04 APERTURE END LIST*
D10*
%TO.P,J6,1,DBG*%
%TO.N,3V3*%
X114865000Y-64812500D03*
D11*
X117405000Y-64812500D03*
%TD*%
D12*
%TO.P,J2,A1,GND*%
%TO.N,GND*%
X155582435Y-71835557D03*
%TO.P,J2,A4,VBUS*%
%TO.N,VUSB*%
X155582435Y-70985556D03*
%TO.P,J2,A5,CC1*%
%TO.N,Net-(J2-CC1)*%
X155582435Y-70135558D03*
%TO.P,J2,A6,D+*%
%TO.N,USB_D+*%
X155582435Y-69285557D03*
%TO.P,J2,A7,D-*%
%TO.N,USB_D-*%
X155582435Y-68435556D03*
%TO.P,J2,A8,SBU1*%
%TO.N,unconnected-(J2-SBU1-PadA8)*%
X155582435Y-67585555D03*
%TO.P,J2,A9,VBUS*%
%TO.N,VUSB*%
X155582435Y-66735557D03*
%TO.P,J2,A12,GND*%
%TO.N,GND*%
X155582435Y-65885556D03*
%TO.P,J2,B1,GND*%
X156932435Y-65885556D03*
%TO.P,J2,B4,VBUS*%
%TO.N,VUSB*%
X156932435Y-66735557D03*
%TO.P,J2,B5,CC2*%
%TO.N,Net-(J2-CC2)*%
X156932435Y-67585555D03*
%TO.P,J2,B6,D+*%
%TO.N,USB_D+*%
X156932435Y-68435556D03*
%TO.P,J2,B7,D-*%
%TO.N,USB_D-*%
X156932435Y-69285557D03*
%TO.P,J2,B8,SBU2*%
%TO.N,unconnected-(J2-SBU2-PadB8)*%
X156932435Y-70135558D03*
%TO.P,J2,B9,VBUS*%
%TO.N,VUSB*%
X156932435Y-70985556D03*
%TO.P,J2,B12,GND*%
%TO.N,GND*%
X156932435Y-71835557D03*
D13*
%TO.P,J2,S1,SHIELD*%
X159947435Y-73185542D03*
%TO.P,J2,S2,SHIELD*%
X159947435Y-64535572D03*
D14*
%TO.P,J2,S3,SHIELD*%
X156562436Y-73185557D03*
%TO.P,J2,S4,SHIELD*%
X156562435Y-64535572D03*
%TD*%
D15*
%TO.P,J4,1,Pin_1*%
%TO.N,3V3*%
X155640000Y-87375000D03*
D11*
%TO.P,J4,2,Pin_2*%
%TO.N,/VCC2*%
X155640000Y-89915000D03*
%TO.P,J4,3,Pin_3*%
%TO.N,+5V*%
X155640000Y-92455000D03*
%TD*%
D15*
%TO.P,J1,1,Pin_1*%
%TO.N,GND*%
X115340000Y-70060000D03*
D11*
%TO.P,J1,2,Pin_2*%
%TO.N,/VDC*%
X115340000Y-72600000D03*
%TD*%
D10*
%TO.P,BRD1,1,A1*%
%TO.N,EN*%
X125170000Y-91190000D03*
%TO.P,BRD1,2,A2*%
%TO.N,/IO4*%
X125170000Y-93730000D03*
%TO.P,BRD1,3,A3*%
%TO.N,/IO5*%
X127710000Y-91190000D03*
%TO.P,BRD1,4,A4*%
%TO.N,/IO6*%
X127710000Y-93730000D03*
%TO.P,BRD1,5,A5*%
%TO.N,/IO8*%
X132790000Y-91190000D03*
%TO.P,BRD1,6,A6*%
%TO.N,/IO7*%
X132790000Y-93730000D03*
%TO.P,BRD1,7,A7*%
%TO.N,/IO10*%
X135330000Y-91190000D03*
%TO.P,BRD1,8,A8*%
%TO.N,/IO9*%
X135330000Y-93730000D03*
%TO.P,BRD1,9,B1*%
%TO.N,USB_D+*%
X140410000Y-91190000D03*
%TO.P,BRD1,10,B2*%
%TO.N,/RXD*%
X140410000Y-93730000D03*
%TO.P,BRD1,11,B3*%
%TO.N,USB_D-*%
X142950000Y-91190000D03*
%TO.P,BRD1,12,B4*%
%TO.N,/TXD*%
X142950000Y-93730000D03*
%TO.P,BRD1,13,B5*%
%TO.N,/IO3*%
X148030000Y-91190000D03*
%TO.P,BRD1,14,B6*%
%TO.N,/IO2*%
X148030000Y-93730000D03*
%TO.P,BRD1,15,B7*%
%TO.N,/IO1*%
X150570000Y-91190000D03*
%TO.P,BRD1,16,B8*%
%TO.N,/IO0*%
X150570000Y-93730000D03*
%TO.P,BRD1,G1,GND1*%
%TO.N,GND*%
X116280000Y-84840000D03*
X116280000Y-95000000D03*
%TO.P,BRD1,G2,GND2*%
X162000000Y-84840000D03*
X162000000Y-95000000D03*
D16*
%TO.P,BRD1,GND,GND*%
X115010000Y-59440000D03*
X160730000Y-59440000D03*
D10*
%TO.P,BRD1,V1,VCC1*%
%TO.N,/VCC1*%
X113740000Y-84840000D03*
X113740000Y-95000000D03*
%TO.P,BRD1,V2,VCC2*%
%TO.N,/VCC2*%
X159460000Y-84840000D03*
X159460000Y-95000000D03*
%TD*%
D17*
%TO.P,U1,28,GND__10*%
%TO.N,GND*%
X140050000Y-63200000D03*
%TO.P,U1,29,GND__11*%
X141150000Y-63200000D03*
%TO.P,U1,30,GND__12*%
X139500000Y-63750000D03*
%TO.P,U1,31,GND__13*%
X140600000Y-63750000D03*
%TO.P,U1,32,GND__14*%
X141700000Y-63750000D03*
%TO.P,U1,33,GND__15*%
X140050000Y-64300000D03*
%TO.P,U1,34,GND__16*%
X141150000Y-64300000D03*
%TO.P,U1,35,GND__17*%
X139500000Y-64850000D03*
%TO.P,U1,36,GND__18*%
X140600000Y-64850000D03*
%TO.P,U1,37,GND__19*%
X141700000Y-64850000D03*
%TO.P,U1,38,GND__20*%
X140050000Y-65400000D03*
%TO.P,U1,39,GND__21*%
X141150000Y-65400000D03*
%TD*%
D15*
%TO.P,J3,1,Pin_1*%
%TO.N,3V3*%
X120100000Y-87380000D03*
D11*
%TO.P,J3,2,Pin_2*%
%TO.N,/VCC1*%
X120100000Y-89920000D03*
%TO.P,J3,3,Pin_3*%
%TO.N,+5V*%
X120100000Y-92460000D03*
%TD*%
D18*
%TO.P,D2,1,K*%
%TO.N,Net-(D1-K)*%
X150940000Y-61100000D03*
%TO.P,D2,2,A*%
%TO.N,VUSB*%
X153740000Y-61100000D03*
%TD*%
D19*
%TO.P,R5,1*%
%TO.N,3V3*%
X136740000Y-60850000D03*
%TO.P,R5,2*%
%TO.N,/IO9*%
X136740000Y-63950000D03*
%TD*%
D20*
%TO.P,R1,1*%
%TO.N,GND*%
X160250000Y-70600000D03*
%TO.P,R1,2*%
%TO.N,Net-(J2-CC2)*%
X160250000Y-67500000D03*
%TD*%
D21*
%TO.P,R2,1*%
%TO.N,GND*%
X160050000Y-76500000D03*
%TO.P,R2,2*%
%TO.N,Net-(J2-CC1)*%
X156950000Y-76500000D03*
%TD*%
D22*
%TO.P,U2,1,ADJ*%
%TO.N,GND*%
X128740000Y-67350000D03*
%TO.P,U2,2,VO*%
%TO.N,3V3*%
X126440000Y-67350000D03*
%TO.P,U2,3,VI*%
%TO.N,Net-(D1-K)*%
X124140000Y-67350000D03*
D23*
%TO.P,U2,4*%
%TO.N,N/C*%
X126440000Y-61050000D03*
%TD*%
D19*
%TO.P,R6,1*%
%TO.N,3V3*%
X133740000Y-60850000D03*
%TO.P,R6,2*%
%TO.N,/IO8*%
X133740000Y-63950000D03*
%TD*%
D24*
%TO.P,D1,1,K*%
%TO.N,Net-(D1-K)*%
X120240000Y-69800000D03*
%TO.P,D1,2,A*%
%TO.N,/VDC*%
X120240000Y-72600000D03*
%TD*%
D25*
%TO.N,+5V*%
X123940000Y-86200000D03*
X152540000Y-86100000D03*
%TO.N,/IO8*%
X133740000Y-66000000D03*
%TO.N,/IO9*%
X136740000Y-66000000D03*
%TO.N,3V3*%
X123240000Y-64000000D03*
X133740000Y-59200000D03*
X134540000Y-87430000D03*
%TO.N,/IO10*%
X145800000Y-89800000D03*
%TO.N,USB_D-*%
X150700000Y-65600000D03*
%TO.N,Net-(D1-K)*%
X152340000Y-74200000D03*
X151750000Y-58000000D03*
%TO.N,USB_D+*%
X150100000Y-64700000D03*
%TD*%
D26*
%TO.N,/VDC*%
X115340000Y-72600000D02*
X120240000Y-72600000D01*
%TO.N,Net-(D1-K)*%
X120240000Y-69800000D02*
X120240000Y-68400000D01*
X120140000Y-69700000D02*
X120240000Y-69800000D01*
X120240000Y-68400000D02*
X121290000Y-67350000D01*
X120140000Y-59800000D02*
X120140000Y-69700000D01*
X151750000Y-58000000D02*
X121940000Y-58000000D01*
X121940000Y-58000000D02*
X120140000Y-59800000D01*
X121290000Y-67350000D02*
X124140000Y-67350000D01*
%TO.N,+5V*%
X151640000Y-85200000D02*
X124940000Y-85200000D01*
X124940000Y-85200000D02*
X123940000Y-86200000D01*
X152540000Y-86100000D02*
X151640000Y-85200000D01*
D27*
%TO.N,Net-(J2-CC2)*%
X160164445Y-67585555D02*
X160250000Y-67500000D01*
X156932435Y-67585555D02*
X160164445Y-67585555D01*
%TO.N,/IO8*%
X133740000Y-66000000D02*
X133740000Y-63950000D01*
%TO.N,/IO9*%
X136740000Y-66000000D02*
X136740000Y-63950000D01*
D26*
%TO.N,3V3*%
X120100000Y-87380000D02*
X155635000Y-87380000D01*
D27*
X133740000Y-60850000D02*
X133740000Y-59200000D01*
D26*
X123640000Y-64400000D02*
X123240000Y-64000000D01*
X120100000Y-85990000D02*
X120100000Y-87380000D01*
X126440000Y-67350000D02*
X126440000Y-82000000D01*
X126440000Y-82000000D02*
X123290000Y-85150000D01*
X155635000Y-87380000D02*
X155640000Y-87375000D01*
X120940000Y-85150000D02*
X120100000Y-85990000D01*
X126440000Y-67350000D02*
X126440000Y-65100000D01*
D27*
X136740000Y-60850000D02*
X133740000Y-60850000D01*
D26*
X123290000Y-85150000D02*
X120940000Y-85150000D01*
X125740000Y-64400000D02*
X123640000Y-64400000D01*
X126440000Y-65100000D02*
X125740000Y-64400000D01*
D27*
%TO.N,/IO10*%
X145700000Y-89700000D02*
X136820000Y-89700000D01*
X145800000Y-89800000D02*
X145700000Y-89700000D01*
X136820000Y-89700000D02*
X135330000Y-91190000D01*
%TO.N,Net-(J2-CC1)*%
X154364442Y-70135558D02*
X154000000Y-70500000D01*
X154000000Y-70500000D02*
X154000000Y-76000000D01*
X154000000Y-76000000D02*
X154500000Y-76500000D01*
X154500000Y-76500000D02*
X156950000Y-76500000D01*
X155582435Y-70135558D02*
X154364442Y-70135558D01*
%TO.N,USB_D-*%
X153535556Y-68435556D02*
X155582435Y-68435556D01*
X155623672Y-68435556D02*
X155582435Y-68435556D01*
D28*
X156473673Y-69285557D02*
X155623672Y-68435556D01*
D27*
X150700000Y-65600000D02*
X153535556Y-68435556D01*
D28*
X156932435Y-69285557D02*
X156473673Y-69285557D01*
D26*
%TO.N,Net-(D1-K)*%
X147940000Y-73200000D02*
X147940000Y-60300000D01*
X152340000Y-74200000D02*
X148940000Y-74200000D01*
X147940000Y-60300000D02*
X147940000Y-58700000D01*
X147940000Y-58700000D02*
X147240000Y-58000000D01*
X148940000Y-74200000D02*
X147940000Y-73200000D01*
X147940000Y-60300000D02*
X148740000Y-61100000D01*
X148740000Y-61100000D02*
X150940000Y-61100000D01*
D27*
%TO.N,USB_D+*%
X150100000Y-65900000D02*
X153485557Y-69285557D01*
X150100000Y-64700000D02*
X150100000Y-65900000D01*
X153485557Y-69285557D02*
X155582435Y-69285557D01*
D26*
%TO.N,VUSB*%
X155582435Y-66735557D02*
X155115462Y-66735557D01*
X153740000Y-65360095D02*
X153740000Y-61100000D01*
X155115462Y-66735557D02*
X153740000Y-65360095D01*
%TD*%
%TA.AperFunction,Conductor*%
%TO.N,GND*%
G36*
X155380573Y-71791907D02*
G01*
X155379235Y-71795138D01*
X155379235Y-71875976D01*
X155410170Y-71950661D01*
X155467331Y-72007822D01*
X155542016Y-72038757D01*
X155622854Y-72038757D01*
X155697539Y-72007822D01*
X155754700Y-71950661D01*
X155771716Y-71909578D01*
X155778665Y-71957903D01*
X155749640Y-72021459D01*
X155743608Y-72027937D01*
X155229446Y-72542098D01*
X155168123Y-72575583D01*
X155098431Y-72570599D01*
X155054084Y-72542098D01*
X155006653Y-72494667D01*
X154990713Y-72510608D01*
X154990710Y-72510613D01*
X154874838Y-72684028D01*
X154839061Y-72770404D01*
X154795220Y-72824807D01*
X154728926Y-72846872D01*
X154661226Y-72829593D01*
X154613616Y-72778455D01*
X154600500Y-72722951D01*
X154600500Y-72257971D01*
X154620185Y-72190932D01*
X154672989Y-72145177D01*
X154742147Y-72135233D01*
X154805703Y-72164258D01*
X154831888Y-72195973D01*
X154845275Y-72219162D01*
X155243862Y-71820575D01*
X155305185Y-71787090D01*
X155357323Y-71786966D01*
X155380573Y-71791907D01*
G37*
%TD.AperFunction*%
%TA.AperFunction,Conductor*%
G36*
X156730573Y-71791907D02*
G01*
X156729235Y-71795138D01*
X156729235Y-71875976D01*
X156760170Y-71950661D01*
X156817331Y-72007822D01*
X156892016Y-72038757D01*
X156972854Y-72038757D01*
X157047539Y-72007822D01*
X157104700Y-71950661D01*
X157121716Y-71909578D01*
X157128665Y-71957903D01*
X157099640Y-72021459D01*
X157093608Y-72027937D01*
X156812436Y-72309108D01*
X156812436Y-72561057D01*
X156792751Y-72628096D01*
X156739947Y-72673851D01*
X156688436Y-72685057D01*
X156436436Y-72685057D01*
X156369397Y-72665372D01*
X156323642Y-72612568D01*
X156312436Y-72561057D01*
X156312436Y-72450449D01*
X156225894Y-72363907D01*
X156192409Y-72302584D01*
X156197393Y-72232892D01*
X156225894Y-72188545D01*
X156329872Y-72084566D01*
X156329877Y-72084561D01*
X156593862Y-71820575D01*
X156655185Y-71787090D01*
X156707323Y-71786966D01*
X156730573Y-71791907D01*
G37*
%TD.AperFunction*%
%TA.AperFunction,Conductor*%
G36*
X156755474Y-65055757D02*
G01*
X156801229Y-65108561D01*
X156812435Y-65160072D01*
X156812435Y-65412003D01*
X157093608Y-65693176D01*
X157127093Y-65754499D01*
X157122823Y-65814205D01*
X157104700Y-65770452D01*
X157047539Y-65713291D01*
X156972854Y-65682356D01*
X156892016Y-65682356D01*
X156817331Y-65713291D01*
X156760170Y-65770452D01*
X156729235Y-65845137D01*
X156729235Y-65925975D01*
X156730573Y-65929205D01*
X156707324Y-65934147D01*
X156637657Y-65928830D01*
X156593863Y-65900537D01*
X156225893Y-65532567D01*
X156192408Y-65471244D01*
X156197392Y-65401552D01*
X156225893Y-65357204D01*
X156312435Y-65270662D01*
X156312435Y-65160072D01*
X156332120Y-65093033D01*
X156384924Y-65047278D01*
X156436435Y-65036072D01*
X156688435Y-65036072D01*
X156755474Y-65055757D01*
G37*
%TD.AperFunction*%
%TA.AperFunction,Conductor*%
G36*
X121245809Y-57420185D02*
G01*
X121291564Y-57472989D01*
X121301508Y-57542147D01*
X121272483Y-57605703D01*
X121266451Y-57612181D01*
X119557050Y-59321580D01*
X119557044Y-59321588D01*
X119507812Y-59395268D01*
X119507813Y-59395269D01*
X119474921Y-59444496D01*
X119474914Y-59444508D01*
X119418342Y-59581086D01*
X119418340Y-59581092D01*
X119389500Y-59726079D01*
X119389500Y-68550500D01*
X119369815Y-68617539D01*
X119317011Y-68663294D01*
X119265501Y-68674500D01*
X119114999Y-68674500D01*
X119114980Y-68674501D01*
X119012203Y-68685000D01*
X119012200Y-68685001D01*
X118845668Y-68740185D01*
X118845663Y-68740187D01*
X118696342Y-68832289D01*
X118572289Y-68956342D01*
X118480187Y-69105663D01*
X118480185Y-69105668D01*
X118461467Y-69162155D01*
X118425001Y-69272203D01*
X118425001Y-69272204D01*
X118425000Y-69272204D01*
X118414500Y-69374983D01*
X118414500Y-70225001D01*
X118414501Y-70225019D01*
X118425000Y-70327796D01*
X118425001Y-70327799D01*
X118473875Y-70475289D01*
X118480186Y-70494334D01*
X118572288Y-70643656D01*
X118696344Y-70767712D01*
X118845666Y-70859814D01*
X119012203Y-70914999D01*
X119114991Y-70925500D01*
X121365008Y-70925499D01*
X121467797Y-70914999D01*
X121634334Y-70859814D01*
X121783656Y-70767712D01*
X121907712Y-70643656D01*
X121999814Y-70494334D01*
X122054999Y-70327797D01*
X122065500Y-70225009D01*
X122065499Y-69374992D01*
X122054999Y-69272203D01*
X121999814Y-69105666D01*
X121907712Y-68956344D01*
X121783656Y-68832288D01*
X121634334Y-68740186D01*
X121467797Y-68685001D01*
X121467795Y-68685000D01*
X121365016Y-68674500D01*
X121365009Y-68674500D01*
X121326229Y-68674500D01*
X121259190Y-68654815D01*
X121213435Y-68602011D01*
X121203491Y-68532853D01*
X121232516Y-68469297D01*
X121238548Y-68462819D01*
X121564548Y-68136819D01*
X121625871Y-68103334D01*
X121652229Y-68100500D01*
X122797105Y-68100500D01*
X122864144Y-68120185D01*
X122909899Y-68172989D01*
X122917437Y-68194567D01*
X122934181Y-68261892D01*
X122938360Y-68278696D01*
X123022967Y-68449292D01*
X123022969Y-68449295D01*
X123142277Y-68597721D01*
X123142278Y-68597722D01*
X123290704Y-68717030D01*
X123290707Y-68717032D01*
X123461302Y-68801639D01*
X123461303Y-68801639D01*
X123461307Y-68801641D01*
X123646111Y-68847600D01*
X123688877Y-68850500D01*
X124591122Y-68850499D01*
X124633889Y-68847600D01*
X124818693Y-68801641D01*
X124989296Y-68717030D01*
X125137722Y-68597722D01*
X125193353Y-68528514D01*
X125250696Y-68488595D01*
X125320518Y-68486015D01*
X125380651Y-68521594D01*
X125386647Y-68528514D01*
X125442277Y-68597721D01*
X125442278Y-68597722D01*
X125590704Y-68717030D01*
X125620594Y-68731854D01*
X125671907Y-68779275D01*
X125689500Y-68842942D01*
X125689500Y-81637770D01*
X125669815Y-81704809D01*
X125653181Y-81725451D01*
X123015451Y-84363181D01*
X122954128Y-84396666D01*
X122927770Y-84399500D01*
X120866080Y-84399500D01*
X120721092Y-84428340D01*
X120721082Y-84428343D01*
X120584511Y-84484912D01*
X120584498Y-84484919D01*
X120461584Y-84567048D01*
X120461580Y-84567051D01*
X119517052Y-85511578D01*
X119517049Y-85511581D01*
X119484218Y-85560716D01*
X119484219Y-85560717D01*
X119434914Y-85634508D01*
X119378343Y-85771082D01*
X119378340Y-85771092D01*
X119349500Y-85916079D01*
X119349345Y-85917654D01*
X119349033Y-85918425D01*
X119348311Y-85922057D01*
X119347622Y-85921920D01*
X119323184Y-85982442D01*
X119266149Y-86022800D01*
X119225947Y-86029500D01*
X119202132Y-86029500D01*
X119202123Y-86029501D01*
X119142516Y-86035908D01*
X119007671Y-86086202D01*
X119007664Y-86086206D01*
X118892455Y-86172452D01*
X118892452Y-86172455D01*
X118806206Y-86287664D01*
X118806202Y-86287671D01*
X118755908Y-86422517D01*
X118749501Y-86482116D01*
X118749501Y-86482123D01*
X118749500Y-86482135D01*
X118749500Y-88277870D01*
X118749501Y-88277876D01*
X118755908Y-88337483D01*
X118806202Y-88472328D01*
X118806206Y-88472335D01*
X118892452Y-88587544D01*
X118892455Y-88587547D01*
X119007664Y-88673793D01*
X119007671Y-88673797D01*
X119139081Y-88722810D01*
X119195015Y-88764681D01*
X119219432Y-88830145D01*
X119204580Y-88898418D01*
X119183430Y-88926673D01*
X119061503Y-89048600D01*
X118925965Y-89242169D01*
X118925964Y-89242171D01*
X118832401Y-89442816D01*
X118828430Y-89451335D01*
X118826098Y-89456335D01*
X118826094Y-89456344D01*
X118764938Y-89684586D01*
X118764936Y-89684596D01*
X118744341Y-89919999D01*
X118744341Y-89920000D01*
X118764936Y-90155403D01*
X118764938Y-90155413D01*
X118826094Y-90383655D01*
X118826096Y-90383659D01*
X118826097Y-90383663D01*
X118891283Y-90523454D01*
X118925965Y-90597830D01*
X118925967Y-90597834D01*
X119061501Y-90791395D01*
X119061506Y-90791402D01*
X119228597Y-90958493D01*
X119228603Y-90958498D01*
X119414158Y-91088425D01*
X119457783Y-91143002D01*
X119464977Y-91212500D01*
X119433454Y-91274855D01*
X119414158Y-91291575D01*
X119228597Y-91421505D01*
X119061505Y-91588597D01*
X118925965Y-91782169D01*
X118925964Y-91782171D01*
X118886021Y-91867830D01*
X118828430Y-91991335D01*
X118826098Y-91996335D01*
X118826094Y-91996344D01*
X118764938Y-92224586D01*
X118764936Y-92224596D01*
X118744341Y-92459999D01*
X118744341Y-92460000D01*
X118764936Y-92695403D01*
X118764938Y-92695413D01*
X118826094Y-92923655D01*
X118826096Y-92923659D01*
X118826097Y-92923663D01*
X118891283Y-93063454D01*
X118925965Y-93137830D01*
X118925967Y-93137834D01*
X119034281Y-93292521D01*
X119061505Y-93331401D01*
X119228599Y-93498495D01*
X119325384Y-93566265D01*
X119422165Y-93634032D01*
X119422167Y-93634033D01*
X119422170Y-93634035D01*
X119636337Y-93733903D01*
X119636343Y-93733904D01*
X119636344Y-93733905D01*
X119691285Y-93748626D01*
X119864592Y-93795063D01*
X120042851Y-93810659D01*
X120099999Y-93815659D01*
X120100000Y-93815659D01*
X120100001Y-93815659D01*
X120157149Y-93810659D01*
X120335408Y-93795063D01*
X120563663Y-93733903D01*
X120777830Y-93634035D01*
X120971401Y-93498495D01*
X121138495Y-93331401D01*
X121274035Y-93137830D01*
X121373903Y-92923663D01*
X121435063Y-92695408D01*
X121455659Y-92460000D01*
X121455221Y-92454999D01*
X121446772Y-92358425D01*
X121435063Y-92224592D01*
X121373903Y-91996337D01*
X121274035Y-91782171D01*
X121189914Y-91662032D01*
X121138494Y-91588597D01*
X120971402Y-91421506D01*
X120971396Y-91421501D01*
X120785842Y-91291575D01*
X120742217Y-91236998D01*
X120737352Y-91189999D01*
X123814341Y-91189999D01*
X123814341Y-91190000D01*
X123834936Y-91425403D01*
X123834938Y-91425413D01*
X123896094Y-91653655D01*
X123896096Y-91653659D01*
X123896097Y-91653663D01*
X123976004Y-91825023D01*
X123995965Y-91867830D01*
X123995967Y-91867834D01*
X124104281Y-92022521D01*
X124131501Y-92061396D01*
X124131506Y-92061402D01*
X124298597Y-92228493D01*
X124298603Y-92228498D01*
X124484158Y-92358425D01*
X124527783Y-92413002D01*
X124534977Y-92482500D01*
X124503454Y-92544855D01*
X124484158Y-92561575D01*
X124298597Y-92691505D01*
X124131505Y-92858597D01*
X123995965Y-93052169D01*
X123995964Y-93052171D01*
X123896098Y-93266335D01*
X123896094Y-93266344D01*
X123834938Y-93494586D01*
X123834936Y-93494596D01*
X123814341Y-93729999D01*
X123814341Y-93730000D01*
X123834936Y-93965403D01*
X123834938Y-93965413D01*
X123896094Y-94193655D01*
X123896096Y-94193659D01*
X123896097Y-94193663D01*
X123956138Y-94322421D01*
X123995965Y-94407830D01*
X123995967Y-94407834D01*
X124086066Y-94536507D01*
X124131505Y-94601401D01*
X124298599Y-94768495D01*
X124353600Y-94807007D01*
X124492165Y-94904032D01*
X124492167Y-94904033D01*
X124492170Y-94904035D01*
X124706337Y-95003903D01*
X124934592Y-95065063D01*
X125122918Y-95081539D01*
X125169999Y-95085659D01*
X125170000Y-95085659D01*
X125170001Y-95085659D01*
X125209234Y-95082226D01*
X125405408Y-95065063D01*
X125633663Y-95003903D01*
X125847830Y-94904035D01*
X126041401Y-94768495D01*
X126208495Y-94601401D01*
X126338425Y-94415842D01*
X126393002Y-94372217D01*
X126462500Y-94365023D01*
X126524855Y-94396546D01*
X126541575Y-94415842D01*
X126671500Y-94601395D01*
X126671505Y-94601401D01*
X126838599Y-94768495D01*
X126893600Y-94807007D01*
X127032165Y-94904032D01*
X127032167Y-94904033D01*
X127032170Y-94904035D01*
X127246337Y-95003903D01*
X127474592Y-95065063D01*
X127662918Y-95081539D01*
X127709999Y-95085659D01*
X127710000Y-95085659D01*
X127710001Y-95085659D01*
X127749234Y-95082226D01*
X127945408Y-95065063D01*
X128173663Y-95003903D01*
X128387830Y-94904035D01*
X128581401Y-94768495D01*
X128748495Y-94601401D01*
X128884035Y-94407830D01*
X128983903Y-94193663D01*
X129045063Y-93965408D01*
X129065659Y-93730000D01*
X129045063Y-93494592D01*
X128983903Y-93266337D01*
X128884035Y-93052171D01*
X128878425Y-93044158D01*
X128748494Y-92858597D01*
X128581402Y-92691506D01*
X128581396Y-92691501D01*
X128395842Y-92561575D01*
X128352217Y-92506998D01*
X128345023Y-92437500D01*
X128376546Y-92375145D01*
X128395842Y-92358425D01*
X128418026Y-92342891D01*
X128581401Y-92228495D01*
X128748495Y-92061401D01*
X128884035Y-91867830D01*
X128983903Y-91653663D01*
X129045063Y-91425408D01*
X129065659Y-91190000D01*
X129065659Y-91189999D01*
X131434341Y-91189999D01*
X131434341Y-91190000D01*
X131454936Y-91425403D01*
X131454938Y-91425413D01*
X131516094Y-91653655D01*
X131516096Y-91653659D01*
X131516097Y-91653663D01*
X131596004Y-91825023D01*
X131615965Y-91867830D01*
X131615967Y-91867834D01*
X131724281Y-92022521D01*
X131751501Y-92061396D01*
X131751506Y-92061402D01*
X131918597Y-92228493D01*
X131918603Y-92228498D01*
X132104158Y-92358425D01*
X132147783Y-92413002D01*
X132154977Y-92482500D01*
X132123454Y-92544855D01*
X132104158Y-92561575D01*
X131918597Y-92691505D01*
X131751505Y-92858597D01*
X131615965Y-93052169D01*
X131615964Y-93052171D01*
X131516098Y-93266335D01*
X131516094Y-93266344D01*
X131454938Y-93494586D01*
X131454936Y-93494596D01*
X131434341Y-93729999D01*
X131434341Y-93730000D01*
X131454936Y-93965403D01*
X131454938Y-93965413D01*
X131516094Y-94193655D01*
X131516096Y-94193659D01*
X131516097Y-94193663D01*
X131576138Y-94322421D01*
X131615965Y-94407830D01*
X131615967Y-94407834D01*
X131706066Y-94536507D01*
X131751505Y-94601401D01*
X131918599Y-94768495D01*
X131973600Y-94807007D01*
X132112165Y-94904032D01*
X132112167Y-94904033D01*
X132112170Y-94904035D01*
X132326337Y-95003903D01*
X132554592Y-95065063D01*
X132742918Y-95081539D01*
X132789999Y-95085659D01*
X132790000Y-95085659D01*
X132790001Y-95085659D01*
X132829234Y-95082226D01*
X133025408Y-95065063D01*
X133253663Y-95003903D01*
X133467830Y-94904035D01*
X133661401Y-94768495D01*
X133828495Y-94601401D01*
X133958425Y-94415842D01*
X134013002Y-94372217D01*
X134082500Y-94365023D01*
X134144855Y-94396546D01*
X134161575Y-94415842D01*
X134291500Y-94601395D01*
X134291505Y-94601401D01*
X134458599Y-94768495D01*
X134513600Y-94807007D01*
X134652165Y-94904032D01*
X134652167Y-94904033D01*
X134652170Y-94904035D01*
X134866337Y-95003903D01*
X135094592Y-95065063D01*
X135282918Y-95081539D01*
X135329999Y-95085659D01*
X135330000Y-95085659D01*
X135330001Y-95085659D01*
X135369234Y-95082226D01*
X135565408Y-95065063D01*
X135793663Y-95003903D01*
X136007830Y-94904035D01*
X136201401Y-94768495D01*
X136368495Y-94601401D01*
X136504035Y-94407830D01*
X136603903Y-94193663D01*
X136665063Y-93965408D01*
X136685659Y-93730000D01*
X136665063Y-93494592D01*
X136603903Y-93266337D01*
X136504035Y-93052171D01*
X136498425Y-93044158D01*
X136368494Y-92858597D01*
X136201402Y-92691506D01*
X136201396Y-92691501D01*
X136015842Y-92561575D01*
X135972217Y-92506998D01*
X135965023Y-92437500D01*
X135996546Y-92375145D01*
X136015842Y-92358425D01*
X136038026Y-92342891D01*
X136201401Y-92228495D01*
X136368495Y-92061401D01*
X136504035Y-91867830D01*
X136603903Y-91653663D01*
X136665063Y-91425408D01*
X136685659Y-91190000D01*
X136683690Y-91167500D01*
X136678235Y-91105145D01*
X136665063Y-90954592D01*
X136630671Y-90826239D01*
X136632334Y-90756393D01*
X136662763Y-90706470D01*
X137032416Y-90336819D01*
X137093739Y-90303334D01*
X137120097Y-90300500D01*
X139145977Y-90300500D01*
X139213016Y-90320185D01*
X139258771Y-90372989D01*
X139268715Y-90442147D01*
X139247551Y-90495624D01*
X139235966Y-90512167D01*
X139235964Y-90512171D01*
X139136098Y-90726335D01*
X139136094Y-90726344D01*
X139074938Y-90954586D01*
X139074936Y-90954596D01*
X139054341Y-91189999D01*
X139054341Y-91190000D01*
X139074936Y-91425403D01*
X139074938Y-91425413D01*
X139136094Y-91653655D01*
X139136096Y-91653659D01*
X139136097Y-91653663D01*
X139216004Y-91825023D01*
X139235965Y-91867830D01*
X139235967Y-91867834D01*
X139344281Y-92022521D01*
X139371501Y-92061396D01*
X139371506Y-92061402D01*
X139538597Y-92228493D01*
X139538603Y-92228498D01*
X139724158Y-92358425D01*
X139767783Y-92413002D01*
X139774977Y-92482500D01*
X139743454Y-92544855D01*
X139724158Y-92561575D01*
X139538597Y-92691505D01*
X139371505Y-92858597D01*
X139235965Y-93052169D01*
X139235964Y-93052171D01*
X139136098Y-93266335D01*
X139136094Y-93266344D01*
X139074938Y-93494586D01*
X139074936Y-93494596D01*
X139054341Y-93729999D01*
X139054341Y-93730000D01*
X139074936Y-93965403D01*
X139074938Y-93965413D01*
X139136094Y-94193655D01*
X139136096Y-94193659D01*
X139136097Y-94193663D01*
X139196138Y-94322421D01*
X139235965Y-94407830D01*
X139235967Y-94407834D01*
X139326066Y-94536507D01*
X139371505Y-94601401D01*
X139538599Y-94768495D01*
X139593600Y-94807007D01*
X139732165Y-94904032D01*
X139732167Y-94904033D01*
X139732170Y-94904035D01*
X139946337Y-95003903D01*
X140174592Y-95065063D01*
X140362918Y-95081539D01*
X140409999Y-95085659D01*
X140410000Y-95085659D01*
X140410001Y-95085659D01*
X140449234Y-95082226D01*
X140645408Y-95065063D01*
X140873663Y-95003903D01*
X141087830Y-94904035D01*
X141281401Y-94768495D01*
X141448495Y-94601401D01*
X141578425Y-94415842D01*
X141633002Y-94372217D01*
X141702500Y-94365023D01*
X141764855Y-94396546D01*
X141781575Y-94415842D01*
X141911500Y-94601395D01*
X141911505Y-94601401D01*
X142078599Y-94768495D01*
X142133600Y-94807007D01*
X142272165Y-94904032D01*
X142272167Y-94904033D01*
X142272170Y-94904035D01*
X142486337Y-95003903D01*
X142714592Y-95065063D01*
X142902918Y-95081539D01*
X142949999Y-95085659D01*
X142950000Y-95085659D01*
X142950001Y-95085659D01*
X142989234Y-95082226D01*
X143185408Y-95065063D01*
X143413663Y-95003903D01*
X143627830Y-94904035D01*
X143821401Y-94768495D01*
X143988495Y-94601401D01*
X144124035Y-94407830D01*
X144223903Y-94193663D01*
X144285063Y-93965408D01*
X144305659Y-93730000D01*
X144285063Y-93494592D01*
X144223903Y-93266337D01*
X144124035Y-93052171D01*
X144118425Y-93044158D01*
X143988494Y-92858597D01*
X143821402Y-92691506D01*
X143821396Y-92691501D01*
X143635842Y-92561575D01*
X143592217Y-92506998D01*
X143585023Y-92437500D01*
X143616546Y-92375145D01*
X143635842Y-92358425D01*
X143658026Y-92342891D01*
X143821401Y-92228495D01*
X143988495Y-92061401D01*
X144124035Y-91867830D01*
X144223903Y-91653663D01*
X144285063Y-91425408D01*
X144305659Y-91190000D01*
X144305659Y-91189999D01*
X146674341Y-91189999D01*
X146674341Y-91190000D01*
X146694936Y-91425403D01*
X146694938Y-91425413D01*
X146756094Y-91653655D01*
X146756096Y-91653659D01*
X146756097Y-91653663D01*
X146836004Y-91825023D01*
X146855965Y-91867830D01*
X146855967Y-91867834D01*
X146964281Y-92022521D01*
X146991501Y-92061396D01*
X146991506Y-92061402D01*
X147158597Y-92228493D01*
X147158603Y-92228498D01*
X147344158Y-92358425D01*
X147387783Y-92413002D01*
X147394977Y-92482500D01*
X147363454Y-92544855D01*
X147344158Y-92561575D01*
X147158597Y-92691505D01*
X146991505Y-92858597D01*
X146855965Y-93052169D01*
X146855964Y-93052171D01*
X146756098Y-93266335D01*
X146756094Y-93266344D01*
X146694938Y-93494586D01*
X146694936Y-93494596D01*
X146674341Y-93729999D01*
X146674341Y-93730000D01*
X146694936Y-93965403D01*
X146694938Y-93965413D01*
X146756094Y-94193655D01*
X146756096Y-94193659D01*
X146756097Y-94193663D01*
X146816138Y-94322421D01*
X146855965Y-94407830D01*
X146855967Y-94407834D01*
X146946066Y-94536507D01*
X146991505Y-94601401D01*
X147158599Y-94768495D01*
X147213600Y-94807007D01*
X147352165Y-94904032D01*
X147352167Y-94904033D01*
X147352170Y-94904035D01*
X147566337Y-95003903D01*
X147794592Y-95065063D01*
X147982918Y-95081539D01*
X148029999Y-95085659D01*
X148030000Y-95085659D01*
X148030001Y-95085659D01*
X148069234Y-95082226D01*
X148265408Y-95065063D01*
X148493663Y-95003903D01*
X148707830Y-94904035D01*
X148901401Y-94768495D01*
X149068495Y-94601401D01*
X149198425Y-94415842D01*
X149253002Y-94372217D01*
X149322500Y-94365023D01*
X149384855Y-94396546D01*
X149401575Y-94415842D01*
X149531500Y-94601395D01*
X149531505Y-94601401D01*
X149698599Y-94768495D01*
X149753600Y-94807007D01*
X149892165Y-94904032D01*
X149892167Y-94904033D01*
X149892170Y-94904035D01*
X150106337Y-95003903D01*
X150334592Y-95065063D01*
X150522918Y-95081539D01*
X150569999Y-95085659D01*
X150570000Y-95085659D01*
X150570001Y-95085659D01*
X150609234Y-95082226D01*
X150805408Y-95065063D01*
X151033663Y-95003903D01*
X151247830Y-94904035D01*
X151441401Y-94768495D01*
X151608495Y-94601401D01*
X151744035Y-94407830D01*
X151843903Y-94193663D01*
X151905063Y-93965408D01*
X151925659Y-93730000D01*
X151905063Y-93494592D01*
X151843903Y-93266337D01*
X151744035Y-93052171D01*
X151738425Y-93044158D01*
X151608494Y-92858597D01*
X151441402Y-92691506D01*
X151441396Y-92691501D01*
X151255842Y-92561575D01*
X151212217Y-92506998D01*
X151205023Y-92437500D01*
X151236546Y-92375145D01*
X151255842Y-92358425D01*
X151278026Y-92342891D01*
X151441401Y-92228495D01*
X151608495Y-92061401D01*
X151744035Y-91867830D01*
X151843903Y-91653663D01*
X151905063Y-91425408D01*
X151925659Y-91190000D01*
X151923690Y-91167500D01*
X151918235Y-91105145D01*
X151905063Y-90954592D01*
X151843903Y-90726337D01*
X151744035Y-90512171D01*
X151744033Y-90512167D01*
X151608494Y-90318597D01*
X151441402Y-90151506D01*
X151441395Y-90151501D01*
X151247834Y-90015967D01*
X151247830Y-90015965D01*
X151169103Y-89979254D01*
X151033663Y-89916097D01*
X151033659Y-89916096D01*
X151033655Y-89916094D01*
X150805413Y-89854938D01*
X150805403Y-89854936D01*
X150570001Y-89834341D01*
X150569999Y-89834341D01*
X150334596Y-89854936D01*
X150334586Y-89854938D01*
X150106344Y-89916094D01*
X150106335Y-89916098D01*
X149892171Y-90015964D01*
X149892169Y-90015965D01*
X149698597Y-90151505D01*
X149531505Y-90318597D01*
X149401575Y-90504158D01*
X149346998Y-90547783D01*
X149277500Y-90554977D01*
X149215145Y-90523454D01*
X149198425Y-90504158D01*
X149068494Y-90318597D01*
X148901402Y-90151506D01*
X148901395Y-90151501D01*
X148707834Y-90015967D01*
X148707830Y-90015965D01*
X148629103Y-89979254D01*
X148493663Y-89916097D01*
X148493659Y-89916096D01*
X148493655Y-89916094D01*
X148265413Y-89854938D01*
X148265403Y-89854936D01*
X148030001Y-89834341D01*
X148029999Y-89834341D01*
X147794596Y-89854936D01*
X147794586Y-89854938D01*
X147566344Y-89916094D01*
X147566335Y-89916098D01*
X147352171Y-90015964D01*
X147352169Y-90015965D01*
X147158597Y-90151505D01*
X146991505Y-90318597D01*
X146855965Y-90512169D01*
X146855964Y-90512171D01*
X146756098Y-90726335D01*
X146756094Y-90726344D01*
X146694938Y-90954586D01*
X146694936Y-90954596D01*
X146674341Y-91189999D01*
X144305659Y-91189999D01*
X144303690Y-91167500D01*
X144298235Y-91105145D01*
X144285063Y-90954592D01*
X144223903Y-90726337D01*
X144124035Y-90512171D01*
X144124034Y-90512169D01*
X144124033Y-90512167D01*
X144112449Y-90495624D01*
X144090121Y-90429418D01*
X144107131Y-90361651D01*
X144158078Y-90313838D01*
X144214023Y-90300500D01*
X145117059Y-90300500D01*
X145184098Y-90320185D01*
X145204740Y-90336818D01*
X145297738Y-90429816D01*
X145317363Y-90442147D01*
X145446761Y-90523454D01*
X145450478Y-90525789D01*
X145533893Y-90554977D01*
X145620745Y-90585368D01*
X145620750Y-90585369D01*
X145799996Y-90605565D01*
X145800000Y-90605565D01*
X145800004Y-90605565D01*
X145979249Y-90585369D01*
X145979252Y-90585368D01*
X145979255Y-90585368D01*
X146149522Y-90525789D01*
X146302262Y-90429816D01*
X146429816Y-90302262D01*
X146525789Y-90149522D01*
X146585368Y-89979255D01*
X146585369Y-89979249D01*
X146605565Y-89800003D01*
X146605565Y-89799996D01*
X146585369Y-89620750D01*
X146585368Y-89620745D01*
X146525789Y-89450478D01*
X146429816Y-89297738D01*
X146302262Y-89170184D01*
X146254901Y-89140425D01*
X146149523Y-89074211D01*
X145979254Y-89014631D01*
X145979249Y-89014630D01*
X145800004Y-88994435D01*
X145799996Y-88994435D01*
X145620750Y-89014630D01*
X145620745Y-89014631D01*
X145450474Y-89074212D01*
X145440477Y-89080494D01*
X145374506Y-89099500D01*
X136899057Y-89099500D01*
X136740942Y-89099500D01*
X136588215Y-89140423D01*
X136588214Y-89140423D01*
X136588212Y-89140424D01*
X136588209Y-89140425D01*
X136538096Y-89169359D01*
X136538095Y-89169360D01*
X136536668Y-89170184D01*
X136451285Y-89219479D01*
X136451282Y-89219481D01*
X136339478Y-89331286D01*
X135813530Y-89857233D01*
X135752207Y-89890718D01*
X135693756Y-89889327D01*
X135565413Y-89854938D01*
X135565403Y-89854936D01*
X135330001Y-89834341D01*
X135329999Y-89834341D01*
X135094596Y-89854936D01*
X135094586Y-89854938D01*
X134866344Y-89916094D01*
X134866335Y-89916098D01*
X134652171Y-90015964D01*
X134652169Y-90015965D01*
X134458597Y-90151505D01*
X134291505Y-90318597D01*
X134161575Y-90504158D01*
X134106998Y-90547783D01*
X134037500Y-90554977D01*
X133975145Y-90523454D01*
X133958425Y-90504158D01*
X133828494Y-90318597D01*
X133661402Y-90151506D01*
X133661395Y-90151501D01*
X133467834Y-90015967D01*
X133467830Y-90015965D01*
X133389103Y-89979254D01*
X133253663Y-89916097D01*
X133253659Y-89916096D01*
X133253655Y-89916094D01*
X133025413Y-89854938D01*
X133025403Y-89854936D01*
X132790001Y-89834341D01*
X132789999Y-89834341D01*
X132554596Y-89854936D01*
X132554586Y-89854938D01*
X132326344Y-89916094D01*
X132326335Y-89916098D01*
X132112171Y-90015964D01*
X132112169Y-90015965D01*
X131918597Y-90151505D01*
X131751505Y-90318597D01*
X131615965Y-90512169D01*
X131615964Y-90512171D01*
X131516098Y-90726335D01*
X131516094Y-90726344D01*
X131454938Y-90954586D01*
X131454936Y-90954596D01*
X131434341Y-91189999D01*
X129065659Y-91189999D01*
X129063690Y-91167500D01*
X129058235Y-91105145D01*
X129045063Y-90954592D01*
X128983903Y-90726337D01*
X128884035Y-90512171D01*
X128884033Y-90512167D01*
X128748494Y-90318597D01*
X128581402Y-90151506D01*
X128581395Y-90151501D01*
X128387834Y-90015967D01*
X128387830Y-90015965D01*
X128309103Y-89979254D01*
X128173663Y-89916097D01*
X128173659Y-89916096D01*
X128173655Y-89916094D01*
X127945413Y-89854938D01*
X127945403Y-89854936D01*
X127710001Y-89834341D01*
X127709999Y-89834341D01*
X127474596Y-89854936D01*
X127474586Y-89854938D01*
X127246344Y-89916094D01*
X127246335Y-89916098D01*
X127032171Y-90015964D01*
X127032169Y-90015965D01*
X126838597Y-90151505D01*
X126671505Y-90318597D01*
X126541575Y-90504158D01*
X126486998Y-90547783D01*
X126417500Y-90554977D01*
X126355145Y-90523454D01*
X126338425Y-90504158D01*
X126208494Y-90318597D01*
X126041402Y-90151506D01*
X126041395Y-90151501D01*
X125847834Y-90015967D01*
X125847830Y-90015965D01*
X125769103Y-89979254D01*
X125633663Y-89916097D01*
X125633659Y-89916096D01*
X125633655Y-89916094D01*
X125405413Y-89854938D01*
X125405403Y-89854936D01*
X125170001Y-89834341D01*
X125169999Y-89834341D01*
X124934596Y-89854936D01*
X124934586Y-89854938D01*
X124706344Y-89916094D01*
X124706335Y-89916098D01*
X124492171Y-90015964D01*
X124492169Y-90015965D01*
X124298597Y-90151505D01*
X124131505Y-90318597D01*
X123995965Y-90512169D01*
X123995964Y-90512171D01*
X123896098Y-90726335D01*
X123896094Y-90726344D01*
X123834938Y-90954586D01*
X123834936Y-90954596D01*
X123814341Y-91189999D01*
X120737352Y-91189999D01*
X120735023Y-91167500D01*
X120766546Y-91105145D01*
X120785842Y-91088425D01*
X120808026Y-91072891D01*
X120971401Y-90958495D01*
X121138495Y-90791401D01*
X121274035Y-90597830D01*
X121373903Y-90383663D01*
X121435063Y-90155408D01*
X121455659Y-89920000D01*
X121455221Y-89914999D01*
X121449967Y-89854937D01*
X121435063Y-89684592D01*
X121373903Y-89456337D01*
X121274035Y-89242171D01*
X121258147Y-89219481D01*
X121138496Y-89048600D01*
X121084331Y-88994435D01*
X121016567Y-88926671D01*
X120983084Y-88865351D01*
X120988068Y-88795659D01*
X121029939Y-88739725D01*
X121060915Y-88722810D01*
X121192331Y-88673796D01*
X121307546Y-88587546D01*
X121393796Y-88472331D01*
X121444091Y-88337483D01*
X121450500Y-88277873D01*
X121450500Y-88254500D01*
X121470185Y-88187461D01*
X121522989Y-88141706D01*
X121574500Y-88130500D01*
X134114506Y-88130500D01*
X134180477Y-88149506D01*
X134190474Y-88155787D01*
X134190475Y-88155787D01*
X134190478Y-88155789D01*
X134325368Y-88202989D01*
X134360745Y-88215368D01*
X134360750Y-88215369D01*
X134539996Y-88235565D01*
X134540000Y-88235565D01*
X134540004Y-88235565D01*
X134719249Y-88215369D01*
X134719252Y-88215368D01*
X134719255Y-88215368D01*
X134889522Y-88155789D01*
X134890488Y-88155181D01*
X134899523Y-88149506D01*
X134965494Y-88130500D01*
X154165501Y-88130500D01*
X154232540Y-88150185D01*
X154278295Y-88202989D01*
X154289501Y-88254500D01*
X154289501Y-88272876D01*
X154295908Y-88332483D01*
X154346202Y-88467328D01*
X154346206Y-88467335D01*
X154432452Y-88582544D01*
X154432455Y-88582547D01*
X154547664Y-88668793D01*
X154547671Y-88668797D01*
X154679081Y-88717810D01*
X154735015Y-88759681D01*
X154759432Y-88825145D01*
X154744580Y-88893418D01*
X154723430Y-88921673D01*
X154601503Y-89043600D01*
X154465965Y-89237169D01*
X154465964Y-89237171D01*
X154422079Y-89331284D01*
X154366499Y-89450476D01*
X154366098Y-89451335D01*
X154366094Y-89451344D01*
X154304938Y-89679586D01*
X154304936Y-89679596D01*
X154284341Y-89914999D01*
X154284341Y-89915000D01*
X154304936Y-90150403D01*
X154304938Y-90150413D01*
X154366094Y-90378655D01*
X154366096Y-90378659D01*
X154366097Y-90378663D01*
X154434703Y-90525788D01*
X154465965Y-90592830D01*
X154465967Y-90592834D01*
X154601501Y-90786395D01*
X154601506Y-90786402D01*
X154768597Y-90953493D01*
X154768603Y-90953498D01*
X154954158Y-91083425D01*
X154997783Y-91138002D01*
X155004977Y-91207500D01*
X154973454Y-91269855D01*
X154954158Y-91286575D01*
X154768597Y-91416505D01*
X154601505Y-91583597D01*
X154465965Y-91777169D01*
X154465964Y-91777171D01*
X154366098Y-91991335D01*
X154366094Y-91991344D01*
X154304938Y-92219586D01*
X154304936Y-92219596D01*
X154284341Y-92454999D01*
X154284341Y-92455000D01*
X154304936Y-92690403D01*
X154304938Y-92690413D01*
X154366094Y-92918655D01*
X154366096Y-92918659D01*
X154366097Y-92918663D01*
X154444959Y-93087783D01*
X154465965Y-93132830D01*
X154465967Y-93132834D01*
X154574281Y-93287521D01*
X154601505Y-93326401D01*
X154768599Y-93493495D01*
X154865384Y-93561265D01*
X154962165Y-93629032D01*
X154962167Y-93629033D01*
X154962170Y-93629035D01*
X155176337Y-93728903D01*
X155404592Y-93790063D01*
X155592918Y-93806539D01*
X155639999Y-93810659D01*
X155640000Y-93810659D01*
X155640001Y-93810659D01*
X155679234Y-93807226D01*
X155875408Y-93790063D01*
X156103663Y-93728903D01*
X156317830Y-93629035D01*
X156511401Y-93493495D01*
X156678495Y-93326401D01*
X156814035Y-93132830D01*
X156913903Y-92918663D01*
X156975063Y-92690408D01*
X156995659Y-92455000D01*
X156975063Y-92219592D01*
X156913903Y-91991337D01*
X156814035Y-91777171D01*
X156733415Y-91662032D01*
X156678494Y-91583597D01*
X156511402Y-91416506D01*
X156511396Y-91416501D01*
X156325842Y-91286575D01*
X156282217Y-91231998D01*
X156275023Y-91162500D01*
X156306546Y-91100145D01*
X156325842Y-91083425D01*
X156348026Y-91067891D01*
X156511401Y-90953495D01*
X156678495Y-90786401D01*
X156814035Y-90592830D01*
X156913903Y-90378663D01*
X156975063Y-90150408D01*
X156995659Y-89915000D01*
X156975063Y-89679592D01*
X156913903Y-89451337D01*
X156814035Y-89237171D01*
X156801648Y-89219481D01*
X156678496Y-89043600D01*
X156629331Y-88994435D01*
X156556567Y-88921671D01*
X156523084Y-88860351D01*
X156528068Y-88790659D01*
X156569939Y-88734725D01*
X156600915Y-88717810D01*
X156732331Y-88668796D01*
X156847546Y-88582546D01*
X156933796Y-88467331D01*
X156984091Y-88332483D01*
X156990500Y-88272873D01*
X156990499Y-86477128D01*
X156984820Y-86424297D01*
X156984091Y-86417516D01*
X156933797Y-86282671D01*
X156933793Y-86282664D01*
X156847547Y-86167455D01*
X156847544Y-86167452D01*
X156732335Y-86081206D01*
X156732328Y-86081202D01*
X156597482Y-86030908D01*
X156597483Y-86030908D01*
X156537883Y-86024501D01*
X156537881Y-86024500D01*
X156537873Y-86024500D01*
X156537864Y-86024500D01*
X154742129Y-86024500D01*
X154742123Y-86024501D01*
X154682516Y-86030908D01*
X154547671Y-86081202D01*
X154547664Y-86081206D01*
X154432455Y-86167452D01*
X154432452Y-86167455D01*
X154346206Y-86282664D01*
X154346202Y-86282671D01*
X154295908Y-86417517D01*
X154289501Y-86477116D01*
X154289501Y-86477123D01*
X154289500Y-86477135D01*
X154289500Y-86505500D01*
X154269815Y-86572539D01*
X154217011Y-86618294D01*
X154165500Y-86629500D01*
X153376462Y-86629500D01*
X153309423Y-86609815D01*
X153263668Y-86557011D01*
X153253724Y-86487853D01*
X153264740Y-86451702D01*
X153265786Y-86449527D01*
X153265786Y-86449526D01*
X153265789Y-86449522D01*
X153325368Y-86279255D01*
X153325369Y-86279249D01*
X153345565Y-86100003D01*
X153345565Y-86099996D01*
X153325369Y-85920750D01*
X153325368Y-85920745D01*
X153273000Y-85771087D01*
X153265789Y-85750478D01*
X153241231Y-85711395D01*
X153169815Y-85597737D01*
X153042262Y-85470184D01*
X152889522Y-85374211D01*
X152889518Y-85374209D01*
X152883244Y-85371188D01*
X152884125Y-85369358D01*
X152848059Y-85346692D01*
X152118421Y-84617052D01*
X152118418Y-84617049D01*
X152043586Y-84567049D01*
X152043585Y-84567048D01*
X151995495Y-84534916D01*
X151995492Y-84534914D01*
X151995491Y-84534914D01*
X151858917Y-84478343D01*
X151858907Y-84478340D01*
X151713920Y-84449500D01*
X151713918Y-84449500D01*
X125351230Y-84449500D01*
X125284191Y-84429815D01*
X125238436Y-84377011D01*
X125228492Y-84307853D01*
X125257517Y-84244297D01*
X125263549Y-84237819D01*
X126017027Y-83484341D01*
X127022952Y-82478416D01*
X127072186Y-82404729D01*
X127105084Y-82355495D01*
X127128518Y-82298920D01*
X127161659Y-82218912D01*
X127190500Y-82073917D01*
X127190500Y-81926082D01*
X127190500Y-68842942D01*
X127210185Y-68775903D01*
X127259406Y-68731854D01*
X127260399Y-68731361D01*
X127289296Y-68717030D01*
X127437722Y-68597722D01*
X127493675Y-68528112D01*
X127551015Y-68488196D01*
X127620837Y-68485616D01*
X127680970Y-68521194D01*
X127686967Y-68528115D01*
X127742632Y-68597366D01*
X127742633Y-68597367D01*
X127890974Y-68716607D01*
X127890977Y-68716609D01*
X128061476Y-68801168D01*
X128246175Y-68847102D01*
X128288903Y-68850000D01*
X128490000Y-68850000D01*
X128990000Y-68850000D01*
X129191097Y-68850000D01*
X129233824Y-68847102D01*
X129418523Y-68801168D01*
X129589022Y-68716609D01*
X129589025Y-68716607D01*
X129737366Y-68597367D01*
X129737367Y-68597366D01*
X129856607Y-68449025D01*
X129856609Y-68449022D01*
X129941168Y-68278523D01*
X129987102Y-68093824D01*
X129990000Y-68051096D01*
X129990000Y-67600000D01*
X128990000Y-67600000D01*
X128990000Y-68850000D01*
X128490000Y-68850000D01*
X128490000Y-67100000D01*
X128990000Y-67100000D01*
X129990000Y-67100000D01*
X129990000Y-66648903D01*
X129987102Y-66606175D01*
X129941168Y-66421476D01*
X129856609Y-66250977D01*
X129856607Y-66250974D01*
X129737367Y-66102633D01*
X129737366Y-66102632D01*
X129589025Y-65983392D01*
X129589022Y-65983390D01*
X129418523Y-65898831D01*
X129233824Y-65852897D01*
X129191097Y-65850000D01*
X128990000Y-65850000D01*
X128990000Y-67100000D01*
X128490000Y-67100000D01*
X128490000Y-65850000D01*
X128288903Y-65850000D01*
X128246175Y-65852897D01*
X128061476Y-65898831D01*
X127890977Y-65983390D01*
X127890974Y-65983392D01*
X127742635Y-66102631D01*
X127686967Y-66171885D01*
X127629624Y-66211803D01*
X127559801Y-66214383D01*
X127499669Y-66178804D01*
X127493673Y-66171884D01*
X127437722Y-66102278D01*
X127437721Y-66102277D01*
X127289295Y-65982969D01*
X127259405Y-65968145D01*
X127208092Y-65920723D01*
X127190500Y-65857057D01*
X127190500Y-65026079D01*
X127161659Y-64881092D01*
X127161658Y-64881091D01*
X127161658Y-64881087D01*
X127154804Y-64864540D01*
X127105087Y-64744511D01*
X127105080Y-64744498D01*
X127022952Y-64621585D01*
X126978453Y-64577086D01*
X126918416Y-64517049D01*
X126750202Y-64348835D01*
X126218421Y-63817052D01*
X126218414Y-63817046D01*
X126144729Y-63767812D01*
X126144729Y-63767813D01*
X126095491Y-63734913D01*
X125958917Y-63678343D01*
X125958907Y-63678340D01*
X125813920Y-63649500D01*
X125813918Y-63649500D01*
X124033707Y-63649500D01*
X123966668Y-63629815D01*
X123928713Y-63591472D01*
X123895487Y-63538594D01*
X123871227Y-63499983D01*
X132364500Y-63499983D01*
X132364500Y-64400001D01*
X132364501Y-64400019D01*
X132375000Y-64502796D01*
X132375001Y-64502799D01*
X132416979Y-64629477D01*
X132430186Y-64669334D01*
X132522288Y-64818656D01*
X132646344Y-64942712D01*
X132795666Y-65034814D01*
X132962203Y-65089999D01*
X133028103Y-65096731D01*
X133092794Y-65123127D01*
X133132945Y-65180307D01*
X133139500Y-65220089D01*
X133139500Y-65417587D01*
X133119815Y-65484626D01*
X133112450Y-65494896D01*
X133110186Y-65497734D01*
X133014211Y-65650476D01*
X132954631Y-65820745D01*
X132954630Y-65820750D01*
X132934435Y-65999996D01*
X132934435Y-66000003D01*
X132954630Y-66179249D01*
X132954631Y-66179254D01*
X133014211Y-66349523D01*
X133110184Y-66502262D01*
X133237738Y-66629816D01*
X133240167Y-66631342D01*
X133372223Y-66714319D01*
X133390478Y-66725789D01*
X133547313Y-66780668D01*
X133560745Y-66785368D01*
X133560750Y-66785369D01*
X133739996Y-66805565D01*
X133740000Y-66805565D01*
X133740004Y-66805565D01*
X133919249Y-66785369D01*
X133919252Y-66785368D01*
X133919255Y-66785368D01*
X134089522Y-66725789D01*
X134242262Y-66629816D01*
X134369816Y-66502262D01*
X134465789Y-66349522D01*
X134525368Y-66179255D01*
X134525464Y-66178406D01*
X134545565Y-66000003D01*
X134545565Y-65999996D01*
X134525369Y-65820750D01*
X134525368Y-65820745D01*
X134502999Y-65756818D01*
X134465789Y-65650478D01*
X134369816Y-65497738D01*
X134369814Y-65497736D01*
X134369813Y-65497734D01*
X134367550Y-65494896D01*
X134366659Y-65492715D01*
X134366111Y-65491842D01*
X134366264Y-65491745D01*
X134341144Y-65430209D01*
X134340500Y-65417587D01*
X134340500Y-65220088D01*
X134360185Y-65153049D01*
X134412989Y-65107294D01*
X134451897Y-65096730D01*
X134517797Y-65089999D01*
X134684334Y-65034814D01*
X134833656Y-64942712D01*
X134957712Y-64818656D01*
X135049814Y-64669334D01*
X135104999Y-64502797D01*
X135115500Y-64400009D01*
X135115499Y-63499992D01*
X135115498Y-63499983D01*
X135364500Y-63499983D01*
X135364500Y-64400001D01*
X135364501Y-64400019D01*
X135375000Y-64502796D01*
X135375001Y-64502799D01*
X135416979Y-64629477D01*
X135430186Y-64669334D01*
X135522288Y-64818656D01*
X135646344Y-64942712D01*
X135795666Y-65034814D01*
X135962203Y-65089999D01*
X136028103Y-65096731D01*
X136092794Y-65123127D01*
X136132945Y-65180307D01*
X136139500Y-65220089D01*
X136139500Y-65417587D01*
X136119815Y-65484626D01*
X136112450Y-65494896D01*
X136110186Y-65497734D01*
X136014211Y-65650476D01*
X135954631Y-65820745D01*
X135954630Y-65820750D01*
X135934435Y-65999996D01*
X135934435Y-66000003D01*
X135954630Y-66179249D01*
X135954631Y-66179254D01*
X136014211Y-66349523D01*
X136110184Y-66502262D01*
X136237738Y-66629816D01*
X136240167Y-66631342D01*
X136372223Y-66714319D01*
X136390478Y-66725789D01*
X136547313Y-66780668D01*
X136560745Y-66785368D01*
X136560750Y-66785369D01*
X136739996Y-66805565D01*
X136740000Y-66805565D01*
X136740004Y-66805565D01*
X136919249Y-66785369D01*
X136919252Y-66785368D01*
X136919255Y-66785368D01*
X137089522Y-66725789D01*
X137242262Y-66629816D01*
X137369816Y-66502262D01*
X137465789Y-66349522D01*
X137525368Y-66179255D01*
X137525464Y-66178406D01*
X137543785Y-66015801D01*
X139717039Y-66015801D01*
X139799955Y-66059318D01*
X139965006Y-66100000D01*
X140134994Y-66100000D01*
X140300044Y-66059318D01*
X140382959Y-66015801D01*
X140817039Y-66015801D01*
X140899955Y-66059318D01*
X141065006Y-66100000D01*
X141234994Y-66100000D01*
X141400044Y-66059318D01*
X141482959Y-66015801D01*
X141150001Y-65682843D01*
X141150000Y-65682843D01*
X140817039Y-66015801D01*
X140382959Y-66015801D01*
X140050001Y-65682843D01*
X140050000Y-65682843D01*
X139717039Y-66015801D01*
X137543785Y-66015801D01*
X137545565Y-66000003D01*
X137545565Y-65999996D01*
X137525369Y-65820750D01*
X137525368Y-65820745D01*
X137502999Y-65756818D01*
X137465789Y-65650478D01*
X137369816Y-65497738D01*
X137369814Y-65497736D01*
X137369813Y-65497734D01*
X137367550Y-65494896D01*
X137366659Y-65492715D01*
X137366111Y-65491842D01*
X137366264Y-65491745D01*
X137355673Y-65465801D01*
X139167039Y-65465801D01*
X139249953Y-65509317D01*
X139289193Y-65518989D01*
X139349574Y-65554144D01*
X139375461Y-65595414D01*
X139425629Y-65727694D01*
X139431277Y-65735878D01*
X139767157Y-65400000D01*
X139767157Y-65399999D01*
X139737321Y-65370163D01*
X139900000Y-65370163D01*
X139900000Y-65429837D01*
X139922836Y-65484968D01*
X139965032Y-65527164D01*
X140020163Y-65550000D01*
X140079837Y-65550000D01*
X140134968Y-65527164D01*
X140177164Y-65484968D01*
X140200000Y-65429837D01*
X140200000Y-65400000D01*
X140332843Y-65400000D01*
X140600000Y-65667157D01*
X140867157Y-65400000D01*
X140837320Y-65370163D01*
X141000000Y-65370163D01*
X141000000Y-65429837D01*
X141022836Y-65484968D01*
X141065032Y-65527164D01*
X141120163Y-65550000D01*
X141179837Y-65550000D01*
X141234968Y-65527164D01*
X141277164Y-65484968D01*
X141300000Y-65429837D01*
X141300000Y-65400000D01*
X141432843Y-65400000D01*
X141768721Y-65735879D01*
X141774371Y-65727693D01*
X141824538Y-65595415D01*
X141866716Y-65539712D01*
X141910807Y-65518989D01*
X141950043Y-65509318D01*
X142032959Y-65465801D01*
X141700000Y-65132843D01*
X141432843Y-65400000D01*
X141300000Y-65400000D01*
X141300000Y-65370163D01*
X141277164Y-65315032D01*
X141234968Y-65272836D01*
X141179837Y-65250000D01*
X141120163Y-65250000D01*
X141065032Y-65272836D01*
X141022836Y-65315032D01*
X141000000Y-65370163D01*
X140837320Y-65370163D01*
X140600000Y-65132843D01*
X140332843Y-65400000D01*
X140200000Y-65400000D01*
X140200000Y-65370163D01*
X140177164Y-65315032D01*
X140134968Y-65272836D01*
X140079837Y-65250000D01*
X140020163Y-65250000D01*
X139965032Y-65272836D01*
X139922836Y-65315032D01*
X139900000Y-65370163D01*
X139737321Y-65370163D01*
X139500001Y-65132843D01*
X139500000Y-65132843D01*
X139167039Y-65465801D01*
X137355673Y-65465801D01*
X137341144Y-65430209D01*
X137340500Y-65417587D01*
X137340500Y-65220088D01*
X137360185Y-65153049D01*
X137412989Y-65107294D01*
X137451897Y-65096730D01*
X137517797Y-65089999D01*
X137684334Y-65034814D01*
X137833656Y-64942712D01*
X137926369Y-64849999D01*
X138794859Y-64849999D01*
X138794859Y-64850000D01*
X138815348Y-65018748D01*
X138815349Y-65018751D01*
X138875629Y-65177694D01*
X138881277Y-65185878D01*
X139217157Y-64850000D01*
X139217157Y-64849999D01*
X139187321Y-64820163D01*
X139350000Y-64820163D01*
X139350000Y-64879837D01*
X139372836Y-64934968D01*
X139415032Y-64977164D01*
X139470163Y-65000000D01*
X139529837Y-65000000D01*
X139584968Y-64977164D01*
X139627164Y-64934968D01*
X139650000Y-64879837D01*
X139650000Y-64850000D01*
X139782843Y-64850000D01*
X140050000Y-65117157D01*
X140317157Y-64850000D01*
X140287320Y-64820163D01*
X140450000Y-64820163D01*
X140450000Y-64879837D01*
X140472836Y-64934968D01*
X140515032Y-64977164D01*
X140570163Y-65000000D01*
X140629837Y-65000000D01*
X140684968Y-64977164D01*
X140727164Y-64934968D01*
X140750000Y-64879837D01*
X140750000Y-64850000D01*
X140882843Y-64850000D01*
X141150000Y-65117157D01*
X141417157Y-64850000D01*
X141387320Y-64820163D01*
X141550000Y-64820163D01*
X141550000Y-64879837D01*
X141572836Y-64934968D01*
X141615032Y-64977164D01*
X141670163Y-65000000D01*
X141729837Y-65000000D01*
X141784968Y-64977164D01*
X141827164Y-64934968D01*
X141850000Y-64879837D01*
X141850000Y-64849999D01*
X141982843Y-64849999D01*
X141982843Y-64850001D01*
X142318721Y-65185879D01*
X142324370Y-65177694D01*
X142384650Y-65018751D01*
X142384651Y-65018748D01*
X142405141Y-64850000D01*
X142405141Y-64849999D01*
X142384651Y-64681251D01*
X142384650Y-64681245D01*
X142324371Y-64522305D01*
X142318722Y-64514120D01*
X141982843Y-64849999D01*
X141850000Y-64849999D01*
X141850000Y-64820163D01*
X141827164Y-64765032D01*
X141784968Y-64722836D01*
X141729837Y-64700000D01*
X141670163Y-64700000D01*
X141615032Y-64722836D01*
X141572836Y-64765032D01*
X141550000Y-64820163D01*
X141387320Y-64820163D01*
X141150000Y-64582843D01*
X140882843Y-64850000D01*
X140750000Y-64850000D01*
X140750000Y-64820163D01*
X140727164Y-64765032D01*
X140684968Y-64722836D01*
X140629837Y-64700000D01*
X140570163Y-64700000D01*
X140515032Y-64722836D01*
X140472836Y-64765032D01*
X140450000Y-64820163D01*
X140287320Y-64820163D01*
X140050000Y-64582843D01*
X139782843Y-64850000D01*
X139650000Y-64850000D01*
X139650000Y-64820163D01*
X139627164Y-64765032D01*
X139584968Y-64722836D01*
X139529837Y-64700000D01*
X139470163Y-64700000D01*
X139415032Y-64722836D01*
X139372836Y-64765032D01*
X139350000Y-64820163D01*
X139187321Y-64820163D01*
X138881277Y-64514119D01*
X138875629Y-64522303D01*
X138875628Y-64522306D01*
X138815349Y-64681245D01*
X138815348Y-64681251D01*
X138794859Y-64849999D01*
X137926369Y-64849999D01*
X137957712Y-64818656D01*
X138049814Y-64669334D01*
X138104999Y-64502797D01*
X138115500Y-64400009D01*
X138115500Y-64300000D01*
X139232843Y-64300000D01*
X139500000Y-64567157D01*
X139767157Y-64300000D01*
X139737320Y-64270163D01*
X139900000Y-64270163D01*
X139900000Y-64329837D01*
X139922836Y-64384968D01*
X139965032Y-64427164D01*
X140020163Y-64450000D01*
X140079837Y-64450000D01*
X140134968Y-64427164D01*
X140177164Y-64384968D01*
X140200000Y-64329837D01*
X140200000Y-64300000D01*
X140332843Y-64300000D01*
X140600000Y-64567157D01*
X140867157Y-64300000D01*
X140837320Y-64270163D01*
X141000000Y-64270163D01*
X141000000Y-64329837D01*
X141022836Y-64384968D01*
X141065032Y-64427164D01*
X141120163Y-64450000D01*
X141179837Y-64450000D01*
X141234968Y-64427164D01*
X141277164Y-64384968D01*
X141300000Y-64329837D01*
X141300000Y-64300000D01*
X141432843Y-64300000D01*
X141700000Y-64567157D01*
X141967157Y-64300000D01*
X141700000Y-64032843D01*
X141432843Y-64300000D01*
X141300000Y-64300000D01*
X141300000Y-64270163D01*
X141277164Y-64215032D01*
X141234968Y-64172836D01*
X141179837Y-64150000D01*
X141120163Y-64150000D01*
X141065032Y-64172836D01*
X141022836Y-64215032D01*
X141000000Y-64270163D01*
X140837320Y-64270163D01*
X140600000Y-64032843D01*
X140332843Y-64300000D01*
X140200000Y-64300000D01*
X140200000Y-64270163D01*
X140177164Y-64215032D01*
X140134968Y-64172836D01*
X140079837Y-64150000D01*
X140020163Y-64150000D01*
X139965032Y-64172836D01*
X139922836Y-64215032D01*
X139900000Y-64270163D01*
X139737320Y-64270163D01*
X139500000Y-64032843D01*
X139232843Y-64300000D01*
X138115500Y-64300000D01*
X138115499Y-63749999D01*
X138794859Y-63749999D01*
X138794859Y-63750000D01*
X138815348Y-63918748D01*
X138815349Y-63918751D01*
X138875629Y-64077694D01*
X138881277Y-64085878D01*
X139217157Y-63750000D01*
X139217157Y-63749999D01*
X139187321Y-63720163D01*
X139350000Y-63720163D01*
X139350000Y-63779837D01*
X139372836Y-63834968D01*
X139415032Y-63877164D01*
X139470163Y-63900000D01*
X139529837Y-63900000D01*
X139584968Y-63877164D01*
X139627164Y-63834968D01*
X139650000Y-63779837D01*
X139650000Y-63750000D01*
X139782843Y-63750000D01*
X140050000Y-64017157D01*
X140317157Y-63750000D01*
X140287320Y-63720163D01*
X140450000Y-63720163D01*
X140450000Y-63779837D01*
X140472836Y-63834968D01*
X140515032Y-63877164D01*
X140570163Y-63900000D01*
X140629837Y-63900000D01*
X140684968Y-63877164D01*
X140727164Y-63834968D01*
X140750000Y-63779837D01*
X140750000Y-63750000D01*
X140882843Y-63750000D01*
X141150000Y-64017157D01*
X141417157Y-63750000D01*
X141387320Y-63720163D01*
X141550000Y-63720163D01*
X141550000Y-63779837D01*
X141572836Y-63834968D01*
X141615032Y-63877164D01*
X141670163Y-63900000D01*
X141729837Y-63900000D01*
X141784968Y-63877164D01*
X141827164Y-63834968D01*
X141850000Y-63779837D01*
X141850000Y-63749999D01*
X141982843Y-63749999D01*
X141982843Y-63750001D01*
X142318721Y-64085879D01*
X142324370Y-64077694D01*
X142384650Y-63918751D01*
X142384651Y-63918748D01*
X142405141Y-63750000D01*
X142405141Y-63749999D01*
X142384651Y-63581251D01*
X142384650Y-63581245D01*
X142324371Y-63422305D01*
X142318722Y-63414120D01*
X142318721Y-63414120D01*
X141982843Y-63749999D01*
X141850000Y-63749999D01*
X141850000Y-63720163D01*
X141827164Y-63665032D01*
X141784968Y-63622836D01*
X141729837Y-63600000D01*
X141670163Y-63600000D01*
X141615032Y-63622836D01*
X141572836Y-63665032D01*
X141550000Y-63720163D01*
X141387320Y-63720163D01*
X141150000Y-63482843D01*
X140882843Y-63750000D01*
X140750000Y-63750000D01*
X140750000Y-63720163D01*
X140727164Y-63665032D01*
X140684968Y-63622836D01*
X140629837Y-63600000D01*
X140570163Y-63600000D01*
X140515032Y-63622836D01*
X140472836Y-63665032D01*
X140450000Y-63720163D01*
X140287320Y-63720163D01*
X140050000Y-63482843D01*
X139782843Y-63750000D01*
X139650000Y-63750000D01*
X139650000Y-63720163D01*
X139627164Y-63665032D01*
X139584968Y-63622836D01*
X139529837Y-63600000D01*
X139470163Y-63600000D01*
X139415032Y-63622836D01*
X139372836Y-63665032D01*
X139350000Y-63720163D01*
X139187321Y-63720163D01*
X138881277Y-63414119D01*
X138875629Y-63422303D01*
X138875628Y-63422306D01*
X138815349Y-63581245D01*
X138815348Y-63581251D01*
X138794859Y-63749999D01*
X138115499Y-63749999D01*
X138115499Y-63499992D01*
X138104999Y-63397203D01*
X138049814Y-63230666D01*
X137990311Y-63134196D01*
X139167039Y-63134196D01*
X139500000Y-63467157D01*
X139767157Y-63200000D01*
X139767157Y-63199999D01*
X139737321Y-63170163D01*
X139900000Y-63170163D01*
X139900000Y-63229837D01*
X139922836Y-63284968D01*
X139965032Y-63327164D01*
X140020163Y-63350000D01*
X140079837Y-63350000D01*
X140134968Y-63327164D01*
X140177164Y-63284968D01*
X140200000Y-63229837D01*
X140200000Y-63200000D01*
X140332843Y-63200000D01*
X140600000Y-63467157D01*
X140867157Y-63200000D01*
X140837320Y-63170163D01*
X141000000Y-63170163D01*
X141000000Y-63229837D01*
X141022836Y-63284968D01*
X141065032Y-63327164D01*
X141120163Y-63350000D01*
X141179837Y-63350000D01*
X141234968Y-63327164D01*
X141277164Y-63284968D01*
X141300000Y-63229837D01*
X141300000Y-63199999D01*
X141432843Y-63199999D01*
X141432843Y-63200000D01*
X141700000Y-63467157D01*
X141700001Y-63467157D01*
X142032959Y-63134197D01*
X142032959Y-63134196D01*
X141950044Y-63090681D01*
X141950042Y-63090680D01*
X141910803Y-63081008D01*
X141850423Y-63045851D01*
X141824538Y-63004583D01*
X141774371Y-62872305D01*
X141768722Y-62864120D01*
X141768721Y-62864120D01*
X141432843Y-63199999D01*
X141300000Y-63199999D01*
X141300000Y-63170163D01*
X141277164Y-63115032D01*
X141234968Y-63072836D01*
X141179837Y-63050000D01*
X141120163Y-63050000D01*
X141065032Y-63072836D01*
X141022836Y-63115032D01*
X141000000Y-63170163D01*
X140837320Y-63170163D01*
X140600000Y-62932843D01*
X140332843Y-63200000D01*
X140200000Y-63200000D01*
X140200000Y-63170163D01*
X140177164Y-63115032D01*
X140134968Y-63072836D01*
X140079837Y-63050000D01*
X140020163Y-63050000D01*
X139965032Y-63072836D01*
X139922836Y-63115032D01*
X139900000Y-63170163D01*
X139737321Y-63170163D01*
X139431277Y-62864119D01*
X139425629Y-62872303D01*
X139425629Y-62872304D01*
X139375461Y-63004584D01*
X139333282Y-63060286D01*
X139289197Y-63081008D01*
X139249955Y-63090681D01*
X139249951Y-63090682D01*
X139167039Y-63134196D01*
X137990311Y-63134196D01*
X137957712Y-63081344D01*
X137833656Y-62957288D01*
X137684334Y-62865186D01*
X137517797Y-62810001D01*
X137517795Y-62810000D01*
X137415010Y-62799500D01*
X136064998Y-62799500D01*
X136064981Y-62799501D01*
X135962203Y-62810000D01*
X135962200Y-62810001D01*
X135795668Y-62865185D01*
X135795663Y-62865187D01*
X135646342Y-62957289D01*
X135522289Y-63081342D01*
X135430187Y-63230663D01*
X135430185Y-63230668D01*
X135412192Y-63284968D01*
X135375001Y-63397203D01*
X135375001Y-63397204D01*
X135375000Y-63397204D01*
X135364500Y-63499983D01*
X135115498Y-63499983D01*
X135104999Y-63397203D01*
X135049814Y-63230666D01*
X134957712Y-63081344D01*
X134833656Y-62957288D01*
X134684334Y-62865186D01*
X134517797Y-62810001D01*
X134517795Y-62810000D01*
X134415010Y-62799500D01*
X133064998Y-62799500D01*
X133064981Y-62799501D01*
X132962203Y-62810000D01*
X132962200Y-62810001D01*
X132795668Y-62865185D01*
X132795663Y-62865187D01*
X132646342Y-62957289D01*
X132522289Y-63081342D01*
X132430187Y-63230663D01*
X132430185Y-63230668D01*
X132412192Y-63284968D01*
X132375001Y-63397203D01*
X132375001Y-63397204D01*
X132375000Y-63397204D01*
X132364500Y-63499983D01*
X123871227Y-63499983D01*
X123869816Y-63497738D01*
X123742262Y-63370184D01*
X123589523Y-63274211D01*
X123419254Y-63214631D01*
X123419249Y-63214630D01*
X123240004Y-63194435D01*
X123239996Y-63194435D01*
X123060750Y-63214630D01*
X123060745Y-63214631D01*
X122890476Y-63274211D01*
X122737737Y-63370184D01*
X122610184Y-63497737D01*
X122514211Y-63650476D01*
X122454631Y-63820745D01*
X122454630Y-63820750D01*
X122434435Y-63999996D01*
X122434435Y-64000003D01*
X122454630Y-64179249D01*
X122454631Y-64179254D01*
X122514211Y-64349523D01*
X122585178Y-64462465D01*
X122610184Y-64502262D01*
X122737738Y-64629816D01*
X122890478Y-64725789D01*
X122890483Y-64725792D01*
X122896753Y-64728812D01*
X122895868Y-64730648D01*
X122931938Y-64753306D01*
X122996821Y-64818188D01*
X123057048Y-64878415D01*
X123057049Y-64878416D01*
X123113601Y-64934968D01*
X123161585Y-64982952D01*
X123284498Y-65065080D01*
X123284511Y-65065087D01*
X123421082Y-65121656D01*
X123421087Y-65121658D01*
X123421091Y-65121658D01*
X123421092Y-65121659D01*
X123566079Y-65150500D01*
X123566082Y-65150500D01*
X125377770Y-65150500D01*
X125444809Y-65170185D01*
X125465451Y-65186819D01*
X125653181Y-65374548D01*
X125686666Y-65435871D01*
X125689500Y-65462229D01*
X125689500Y-65857057D01*
X125669815Y-65924096D01*
X125620595Y-65968145D01*
X125590704Y-65982969D01*
X125442278Y-66102277D01*
X125442277Y-66102278D01*
X125386647Y-66171486D01*
X125329304Y-66211405D01*
X125259482Y-66213985D01*
X125199349Y-66178406D01*
X125193353Y-66171486D01*
X125137722Y-66102278D01*
X125137721Y-66102277D01*
X124989295Y-65982969D01*
X124989292Y-65982967D01*
X124818697Y-65898360D01*
X124633892Y-65852400D01*
X124612506Y-65850950D01*
X124591123Y-65849500D01*
X124591120Y-65849500D01*
X123688877Y-65849500D01*
X123688874Y-65849501D01*
X123646113Y-65852399D01*
X123646112Y-65852399D01*
X123461303Y-65898360D01*
X123290707Y-65982967D01*
X123290704Y-65982969D01*
X123142278Y-66102277D01*
X123142277Y-66102278D01*
X123022969Y-66250704D01*
X123022967Y-66250707D01*
X122938360Y-66421303D01*
X122938359Y-66421306D01*
X122938359Y-66421307D01*
X122917438Y-66505427D01*
X122882158Y-66565733D01*
X122819872Y-66597392D01*
X122797105Y-66599500D01*
X121216080Y-66599500D01*
X121071092Y-66628340D01*
X121071087Y-66628342D01*
X121061949Y-66632127D01*
X120992479Y-66639593D01*
X120930001Y-66608316D01*
X120894351Y-66548226D01*
X120890500Y-66517564D01*
X120890500Y-62584196D01*
X139717039Y-62584196D01*
X140050000Y-62917157D01*
X140050001Y-62917157D01*
X140382959Y-62584197D01*
X140382959Y-62584196D01*
X140817039Y-62584196D01*
X141150000Y-62917157D01*
X141150001Y-62917157D01*
X141482959Y-62584197D01*
X141482959Y-62584196D01*
X141400046Y-62540682D01*
X141234994Y-62500000D01*
X141065006Y-62500000D01*
X140899951Y-62540682D01*
X140817039Y-62584196D01*
X140382959Y-62584196D01*
X140300046Y-62540682D01*
X140134994Y-62500000D01*
X139965006Y-62500000D01*
X139799951Y-62540682D01*
X139717039Y-62584196D01*
X120890500Y-62584196D01*
X120890500Y-60491966D01*
X124039500Y-60491966D01*
X124039500Y-61608028D01*
X124039501Y-61608034D01*
X124050113Y-61727415D01*
X124106089Y-61923045D01*
X124106090Y-61923048D01*
X124106091Y-61923049D01*
X124200302Y-62103407D01*
X124200304Y-62103409D01*
X124328890Y-62261109D01*
X124399690Y-62318838D01*
X124486593Y-62389698D01*
X124666951Y-62483909D01*
X124862582Y-62539886D01*
X124981963Y-62550500D01*
X127898036Y-62550499D01*
X128017418Y-62539886D01*
X128213049Y-62483909D01*
X128393407Y-62389698D01*
X128551109Y-62261109D01*
X128679698Y-62103407D01*
X128773909Y-61923049D01*
X128829886Y-61727418D01*
X128840500Y-61608037D01*
X128840499Y-60491964D01*
X128829886Y-60372582D01*
X128773909Y-60176951D01*
X128679698Y-59996593D01*
X128627684Y-59932803D01*
X128551109Y-59838890D01*
X128435933Y-59744977D01*
X128393407Y-59710302D01*
X128213049Y-59616091D01*
X128213048Y-59616090D01*
X128213045Y-59616089D01*
X128090712Y-59581086D01*
X128017418Y-59560114D01*
X128017415Y-59560113D01*
X128017413Y-59560113D01*
X127951102Y-59554217D01*
X127898037Y-59549500D01*
X127898032Y-59549500D01*
X124981971Y-59549500D01*
X124981965Y-59549500D01*
X124981964Y-59549501D01*
X124970316Y-59550536D01*
X124862584Y-59560113D01*
X124666954Y-59616089D01*
X124576772Y-59663196D01*
X124486593Y-59710302D01*
X124486591Y-59710303D01*
X124486590Y-59710304D01*
X124328890Y-59838890D01*
X124200304Y-59996590D01*
X124106089Y-60176954D01*
X124050114Y-60372583D01*
X124050113Y-60372586D01*
X124039500Y-60491966D01*
X120890500Y-60491966D01*
X120890500Y-60162229D01*
X120910185Y-60095190D01*
X120926819Y-60074548D01*
X122214548Y-58786819D01*
X122275871Y-58753334D01*
X122302229Y-58750500D01*
X132874433Y-58750500D01*
X132941472Y-58770185D01*
X132987227Y-58822989D01*
X132997171Y-58892147D01*
X132991474Y-58915455D01*
X132954633Y-59020737D01*
X132954630Y-59020750D01*
X132934435Y-59199996D01*
X132934435Y-59200003D01*
X132954630Y-59379249D01*
X132954631Y-59379254D01*
X133016511Y-59556095D01*
X133014285Y-59556873D01*
X133023828Y-59614893D01*
X132996094Y-59679022D01*
X132939764Y-59717436D01*
X132795666Y-59765186D01*
X132795663Y-59765187D01*
X132646342Y-59857289D01*
X132522289Y-59981342D01*
X132430187Y-60130663D01*
X132430185Y-60130668D01*
X132414829Y-60177011D01*
X132375001Y-60297203D01*
X132375001Y-60297204D01*
X132375000Y-60297204D01*
X132364500Y-60399983D01*
X132364500Y-61300001D01*
X132364501Y-61300019D01*
X132375000Y-61402796D01*
X132375001Y-61402799D01*
X132430185Y-61569331D01*
X132430187Y-61569336D01*
X132454056Y-61608033D01*
X132522288Y-61718656D01*
X132646344Y-61842712D01*
X132795666Y-61934814D01*
X132962203Y-61989999D01*
X133064991Y-62000500D01*
X134415008Y-62000499D01*
X134517797Y-61989999D01*
X134684334Y-61934814D01*
X134833656Y-61842712D01*
X134957712Y-61718656D01*
X135049814Y-61569334D01*
X135061028Y-61535494D01*
X135100801Y-61478050D01*
X135165317Y-61451228D01*
X135178733Y-61450500D01*
X135301267Y-61450500D01*
X135368306Y-61470185D01*
X135414061Y-61522989D01*
X135418972Y-61535494D01*
X135430184Y-61569328D01*
X135430187Y-61569336D01*
X135454056Y-61608033D01*
X135522288Y-61718656D01*
X135646344Y-61842712D01*
X135795666Y-61934814D01*
X135962203Y-61989999D01*
X136064991Y-62000500D01*
X137415008Y-62000499D01*
X137517797Y-61989999D01*
X137684334Y-61934814D01*
X137833656Y-61842712D01*
X137957712Y-61718656D01*
X138049814Y-61569334D01*
X138104999Y-61402797D01*
X138115500Y-61300009D01*
X138115499Y-60399992D01*
X138112699Y-60372586D01*
X138104999Y-60297203D01*
X138104998Y-60297200D01*
X138049814Y-60130666D01*
X137957712Y-59981344D01*
X137833656Y-59857288D01*
X137722748Y-59788880D01*
X137684336Y-59765187D01*
X137684331Y-59765185D01*
X137682862Y-59764698D01*
X137517797Y-59710001D01*
X137517795Y-59710000D01*
X137415010Y-59699500D01*
X136064998Y-59699500D01*
X136064981Y-59699501D01*
X135962203Y-59710000D01*
X135962200Y-59710001D01*
X135795668Y-59765185D01*
X135795663Y-59765187D01*
X135646342Y-59857289D01*
X135522289Y-59981342D01*
X135430187Y-60130663D01*
X135430184Y-60130671D01*
X135418972Y-60164506D01*
X135379199Y-60221950D01*
X135314683Y-60248772D01*
X135301267Y-60249500D01*
X135178733Y-60249500D01*
X135111694Y-60229815D01*
X135065939Y-60177011D01*
X135061028Y-60164506D01*
X135056495Y-60150829D01*
X135049814Y-60130666D01*
X134957712Y-59981344D01*
X134833656Y-59857288D01*
X134722748Y-59788880D01*
X134684336Y-59765187D01*
X134684331Y-59765185D01*
X134540235Y-59717436D01*
X134482790Y-59677663D01*
X134455967Y-59613147D01*
X134465653Y-59556852D01*
X134463489Y-59556095D01*
X134473432Y-59527680D01*
X134525368Y-59379255D01*
X134531825Y-59321947D01*
X134545565Y-59200003D01*
X134545565Y-59199996D01*
X134525369Y-59020750D01*
X134525366Y-59020737D01*
X134488526Y-58915455D01*
X134484964Y-58845676D01*
X134519692Y-58785049D01*
X134581686Y-58752821D01*
X134605567Y-58750500D01*
X146877770Y-58750500D01*
X146944809Y-58770185D01*
X146965451Y-58786819D01*
X147153181Y-58974548D01*
X147186666Y-59035871D01*
X147189500Y-59062229D01*
X147189500Y-60226082D01*
X147189500Y-73273918D01*
X147189500Y-73273920D01*
X147189499Y-73273920D01*
X147218340Y-73418907D01*
X147218343Y-73418917D01*
X147274913Y-73555490D01*
X147274914Y-73555491D01*
X147274916Y-73555495D01*
X147284730Y-73570182D01*
X147284731Y-73570185D01*
X147357046Y-73678414D01*
X147357052Y-73678421D01*
X148357049Y-74678416D01*
X148461584Y-74782951D01*
X148461587Y-74782953D01*
X148461588Y-74782954D01*
X148584503Y-74865083D01*
X148584506Y-74865085D01*
X148641079Y-74888518D01*
X148641080Y-74888518D01*
X148721088Y-74921659D01*
X148837241Y-74944763D01*
X148856468Y-74948587D01*
X148866081Y-74950500D01*
X148866082Y-74950500D01*
X148866083Y-74950500D01*
X149013918Y-74950500D01*
X152040028Y-74950500D01*
X152080983Y-74957458D01*
X152160745Y-74985368D01*
X152160750Y-74985369D01*
X152339996Y-75005565D01*
X152340000Y-75005565D01*
X152340004Y-75005565D01*
X152519249Y-74985369D01*
X152519252Y-74985368D01*
X152519255Y-74985368D01*
X152689522Y-74925789D01*
X152842262Y-74829816D01*
X152969816Y-74702262D01*
X153065789Y-74549522D01*
X153125368Y-74379255D01*
X153125369Y-74379249D01*
X153145565Y-74200003D01*
X153145565Y-74199996D01*
X153125369Y-74020750D01*
X153125368Y-74020745D01*
X153102593Y-73955659D01*
X153065789Y-73850478D01*
X152969816Y-73697738D01*
X152842262Y-73570184D01*
X152766485Y-73522570D01*
X152689523Y-73474211D01*
X152519254Y-73414631D01*
X152519249Y-73414630D01*
X152340004Y-73394435D01*
X152339996Y-73394435D01*
X152160750Y-73414630D01*
X152160745Y-73414631D01*
X152080983Y-73442542D01*
X152040028Y-73449500D01*
X149302229Y-73449500D01*
X149235190Y-73429815D01*
X149214548Y-73413181D01*
X148726819Y-72925451D01*
X148693334Y-72864128D01*
X148690500Y-72837770D01*
X148690500Y-64699996D01*
X149294435Y-64699996D01*
X149294435Y-64700003D01*
X149314630Y-64879249D01*
X149314631Y-64879254D01*
X149374211Y-65049523D01*
X149416709Y-65117157D01*
X149459889Y-65185878D01*
X149470185Y-65202263D01*
X149472445Y-65205097D01*
X149473334Y-65207275D01*
X149473889Y-65208158D01*
X149473734Y-65208255D01*
X149498855Y-65269783D01*
X149499500Y-65282412D01*
X149499500Y-65813330D01*
X149499499Y-65813348D01*
X149499499Y-65979054D01*
X149499498Y-65979054D01*
X149540423Y-66131786D01*
X149544817Y-66139395D01*
X149549529Y-66147556D01*
X149549531Y-66147565D01*
X149549534Y-66147564D01*
X149619479Y-66268714D01*
X149619481Y-66268717D01*
X149738349Y-66387585D01*
X149738354Y-66387589D01*
X153116841Y-69766077D01*
X153116843Y-69766078D01*
X153116847Y-69766081D01*
X153253766Y-69845130D01*
X153253773Y-69845134D01*
X153406500Y-69886058D01*
X153406502Y-69886058D01*
X153465344Y-69886058D01*
X153532383Y-69905743D01*
X153578138Y-69958547D01*
X153588082Y-70027705D01*
X153559057Y-70091261D01*
X153553025Y-70097739D01*
X153519481Y-70131282D01*
X153519477Y-70131287D01*
X153476998Y-70204865D01*
X153476998Y-70204866D01*
X153440423Y-70268214D01*
X153440423Y-70268215D01*
X153399499Y-70420943D01*
X153399499Y-70420945D01*
X153399499Y-70589046D01*
X153399500Y-70589059D01*
X153399500Y-75913330D01*
X153399499Y-75913348D01*
X153399499Y-76079054D01*
X153399498Y-76079054D01*
X153399499Y-76079057D01*
X153440423Y-76231785D01*
X153461457Y-76268216D01*
X153519480Y-76368716D01*
X153631284Y-76480520D01*
X153631285Y-76480521D01*
X154131284Y-76980520D01*
X154131286Y-76980521D01*
X154131290Y-76980524D01*
X154268209Y-77059573D01*
X154268216Y-77059577D01*
X154420943Y-77100501D01*
X154420945Y-77100501D01*
X154586654Y-77100501D01*
X154586670Y-77100500D01*
X155679911Y-77100500D01*
X155746950Y-77120185D01*
X155792705Y-77172989D01*
X155803269Y-77211898D01*
X155810001Y-77277797D01*
X155810001Y-77277799D01*
X155865115Y-77444119D01*
X155865186Y-77444334D01*
X155957288Y-77593656D01*
X156081344Y-77717712D01*
X156230666Y-77809814D01*
X156397203Y-77864999D01*
X156499991Y-77875500D01*
X157400008Y-77875499D01*
X157400016Y-77875498D01*
X157400019Y-77875498D01*
X157456302Y-77869748D01*
X157502797Y-77864999D01*
X157669334Y-77809814D01*
X157818656Y-77717712D01*
X157942712Y-77593656D01*
X158034814Y-77444334D01*
X158089999Y-77277797D01*
X158100500Y-77175009D01*
X158100500Y-77174986D01*
X158900001Y-77174986D01*
X158910494Y-77277697D01*
X158965641Y-77444119D01*
X158965643Y-77444124D01*
X159057684Y-77593345D01*
X159181654Y-77717315D01*
X159330875Y-77809356D01*
X159330880Y-77809358D01*
X159497302Y-77864505D01*
X159497309Y-77864506D01*
X159600019Y-77874999D01*
X159799999Y-77874999D01*
X160300000Y-77874999D01*
X160499972Y-77874999D01*
X160499986Y-77874998D01*
X160602697Y-77864505D01*
X160769119Y-77809358D01*
X160769124Y-77809356D01*
X160918345Y-77717315D01*
X161042315Y-77593345D01*
X161134356Y-77444124D01*
X161134358Y-77444119D01*
X161189505Y-77277697D01*
X161189506Y-77277690D01*
X161199999Y-77174986D01*
X161200000Y-77174973D01*
X161200000Y-76750000D01*
X160300000Y-76750000D01*
X160300000Y-77874999D01*
X159799999Y-77874999D01*
X159800000Y-77874998D01*
X159800000Y-76750000D01*
X158900001Y-76750000D01*
X158900001Y-77174986D01*
X158100500Y-77174986D01*
X158100499Y-75825013D01*
X158900000Y-75825013D01*
X158900000Y-76250000D01*
X159800000Y-76250000D01*
X160300000Y-76250000D01*
X161199999Y-76250000D01*
X161199999Y-75825028D01*
X161199998Y-75825013D01*
X161189505Y-75722302D01*
X161134358Y-75555880D01*
X161134356Y-75555875D01*
X161042315Y-75406654D01*
X160918345Y-75282684D01*
X160769124Y-75190643D01*
X160769119Y-75190641D01*
X160602697Y-75135494D01*
X160602690Y-75135493D01*
X160499986Y-75125000D01*
X160300000Y-75125000D01*
X160300000Y-76250000D01*
X159800000Y-76250000D01*
X159800000Y-75125000D01*
X159600029Y-75125000D01*
X159600012Y-75125001D01*
X159497302Y-75135494D01*
X159330880Y-75190641D01*
X159330875Y-75190643D01*
X159181654Y-75282684D01*
X159057684Y-75406654D01*
X158965643Y-75555875D01*
X158965641Y-75555880D01*
X158910494Y-75722302D01*
X158910493Y-75722309D01*
X158900000Y-75825013D01*
X158100499Y-75825013D01*
X158100499Y-75824992D01*
X158089999Y-75722203D01*
X158034814Y-75555666D01*
X157942712Y-75406344D01*
X157818656Y-75282288D01*
X157669334Y-75190186D01*
X157502797Y-75135001D01*
X157502795Y-75135000D01*
X157400010Y-75124500D01*
X156499998Y-75124500D01*
X156499980Y-75124501D01*
X156397203Y-75135000D01*
X156397200Y-75135001D01*
X156230668Y-75190185D01*
X156230663Y-75190187D01*
X156081342Y-75282289D01*
X155957289Y-75406342D01*
X155865187Y-75555663D01*
X155865185Y-75555668D01*
X155810001Y-75722204D01*
X155810000Y-75722205D01*
X155803268Y-75788103D01*
X155776871Y-75852795D01*
X155719690Y-75892946D01*
X155679910Y-75899500D01*
X154800098Y-75899500D01*
X154733059Y-75879815D01*
X154712417Y-75863181D01*
X154636819Y-75787583D01*
X154603334Y-75726260D01*
X154600500Y-75699902D01*
X154600500Y-73648162D01*
X154620185Y-73581123D01*
X154672989Y-73535368D01*
X154742147Y-73525424D01*
X154805703Y-73554449D01*
X154839061Y-73600709D01*
X154874839Y-73687085D01*
X154990713Y-73860505D01*
X155138187Y-74007979D01*
X155311607Y-74123854D01*
X155504294Y-74203667D01*
X155504302Y-74203669D01*
X155708848Y-74244356D01*
X155708852Y-74244357D01*
X156312436Y-74244357D01*
X156312436Y-73810057D01*
X156332121Y-73743018D01*
X156384925Y-73697263D01*
X156436436Y-73686057D01*
X156688436Y-73686057D01*
X156755475Y-73705742D01*
X156801230Y-73758546D01*
X156812436Y-73810057D01*
X156812436Y-74244357D01*
X157416020Y-74244357D01*
X157416023Y-74244356D01*
X157620569Y-74203669D01*
X157620577Y-74203667D01*
X157813264Y-74123854D01*
X157986684Y-74007979D01*
X158134158Y-73860505D01*
X158250034Y-73687083D01*
X158318177Y-73522570D01*
X158362018Y-73468166D01*
X158428312Y-73446101D01*
X158496011Y-73463380D01*
X158543622Y-73514517D01*
X158547299Y-73522569D01*
X158615437Y-73687070D01*
X158731312Y-73860490D01*
X158878786Y-74007964D01*
X159052206Y-74123839D01*
X159244893Y-74203652D01*
X159244901Y-74203654D01*
X159449447Y-74244341D01*
X159449451Y-74244342D01*
X159697435Y-74244342D01*
X159697435Y-73815113D01*
X159717120Y-73748074D01*
X159762174Y-73709034D01*
X159761036Y-73707062D01*
X159768071Y-73703000D01*
X159768073Y-73703000D01*
X159768674Y-73702652D01*
X159769931Y-73702315D01*
X159774002Y-73700544D01*
X159775601Y-73699882D01*
X159775941Y-73700705D01*
X159830671Y-73686042D01*
X160064199Y-73686042D01*
X160118928Y-73700705D01*
X160119269Y-73699882D01*
X160120868Y-73700544D01*
X160122135Y-73701564D01*
X160126195Y-73702652D01*
X160126797Y-73703000D01*
X160126798Y-73703000D01*
X160133834Y-73707062D01*
X160132286Y-73709742D01*
X160175279Y-73744375D01*
X160197355Y-73810665D01*
X160197435Y-73815113D01*
X160197435Y-74244342D01*
X160445419Y-74244342D01*
X160445422Y-74244341D01*
X160649968Y-74203654D01*
X160649976Y-74203652D01*
X160842663Y-74123839D01*
X161016083Y-74007964D01*
X161163557Y-73860490D01*
X161279432Y-73687070D01*
X161359245Y-73494383D01*
X161359247Y-73494375D01*
X161370950Y-73435542D01*
X161010636Y-73435542D01*
X160943597Y-73415857D01*
X160897842Y-73363053D01*
X160887898Y-73293895D01*
X160890856Y-73279467D01*
X160896435Y-73258649D01*
X160896435Y-73112435D01*
X160890861Y-73091632D01*
X160892524Y-73021787D01*
X160931686Y-72963924D01*
X160995914Y-72936419D01*
X161010636Y-72935542D01*
X161370951Y-72935542D01*
X161370950Y-72935541D01*
X161359247Y-72876708D01*
X161359245Y-72876700D01*
X161279432Y-72684013D01*
X161163557Y-72510593D01*
X161016083Y-72363119D01*
X160842663Y-72247244D01*
X160649976Y-72167431D01*
X160649968Y-72167429D01*
X160445422Y-72126742D01*
X160197435Y-72126742D01*
X160197435Y-72555970D01*
X160177750Y-72623009D01*
X160132699Y-72662045D01*
X160133839Y-72664018D01*
X160126203Y-72668427D01*
X160124946Y-72668763D01*
X160124946Y-72668764D01*
X160120904Y-72670525D01*
X160119304Y-72671188D01*
X160118963Y-72670366D01*
X160064199Y-72685042D01*
X159830671Y-72685042D01*
X159775906Y-72670366D01*
X159775566Y-72671188D01*
X159773966Y-72670525D01*
X159772705Y-72669509D01*
X159768667Y-72668427D01*
X159761031Y-72664018D01*
X159762575Y-72661343D01*
X159719569Y-72626676D01*
X159697513Y-72560379D01*
X159697435Y-72555970D01*
X159697435Y-72126742D01*
X159449447Y-72126742D01*
X159244901Y-72167429D01*
X159244893Y-72167431D01*
X159052206Y-72247244D01*
X158878786Y-72363119D01*
X158731312Y-72510593D01*
X158615437Y-72684013D01*
X158547293Y-72848529D01*
X158503452Y-72902932D01*
X158437157Y-72924997D01*
X158369458Y-72907718D01*
X158321848Y-72856580D01*
X158318171Y-72848529D01*
X158250032Y-72684028D01*
X158134158Y-72510608D01*
X157986682Y-72363132D01*
X157813272Y-72247264D01*
X157813263Y-72247259D01*
X157794290Y-72239400D01*
X157739888Y-72195557D01*
X157717825Y-72129262D01*
X157723815Y-72086522D01*
X157748964Y-72009119D01*
X157748965Y-72009118D01*
X157767207Y-71835557D01*
X157748965Y-71661995D01*
X157748964Y-71661993D01*
X157695037Y-71496022D01*
X157695036Y-71496020D01*
X157681778Y-71473056D01*
X157665305Y-71405156D01*
X157681779Y-71349054D01*
X157695498Y-71325293D01*
X157749458Y-71159220D01*
X157760939Y-71049986D01*
X158875001Y-71049986D01*
X158885494Y-71152697D01*
X158940641Y-71319119D01*
X158940643Y-71319124D01*
X159032684Y-71468345D01*
X159156654Y-71592315D01*
X159305875Y-71684356D01*
X159305880Y-71684358D01*
X159472302Y-71739505D01*
X159472309Y-71739506D01*
X159575019Y-71749999D01*
X159999999Y-71749999D01*
X160500000Y-71749999D01*
X160924972Y-71749999D01*
X160924986Y-71749998D01*
X161027697Y-71739505D01*
X161194119Y-71684358D01*
X161194124Y-71684356D01*
X161343345Y-71592315D01*
X161467315Y-71468345D01*
X161559356Y-71319124D01*
X161559358Y-71319119D01*
X161614505Y-71152697D01*
X161614506Y-71152690D01*
X161624999Y-71049986D01*
X161625000Y-71049973D01*
X161625000Y-70850000D01*
X160500000Y-70850000D01*
X160500000Y-71749999D01*
X159999999Y-71749999D01*
X160000000Y-71749998D01*
X160000000Y-70850000D01*
X158875001Y-70850000D01*
X158875001Y-71049986D01*
X157760939Y-71049986D01*
X157767711Y-70985556D01*
X157749458Y-70811892D01*
X157695498Y-70645819D01*
X157682067Y-70622556D01*
X157665594Y-70554660D01*
X157682066Y-70498558D01*
X157695498Y-70475295D01*
X157749458Y-70309222D01*
X157766192Y-70150013D01*
X158875000Y-70150013D01*
X158875000Y-70350000D01*
X160000000Y-70350000D01*
X160500000Y-70350000D01*
X161624999Y-70350000D01*
X161624999Y-70150028D01*
X161624998Y-70150013D01*
X161614505Y-70047302D01*
X161559358Y-69880880D01*
X161559356Y-69880875D01*
X161467315Y-69731654D01*
X161343345Y-69607684D01*
X161194124Y-69515643D01*
X161194119Y-69515641D01*
X161027697Y-69460494D01*
X161027690Y-69460493D01*
X160924986Y-69450000D01*
X160500000Y-69450000D01*
X160500000Y-70350000D01*
X160000000Y-70350000D01*
X160000000Y-69450000D01*
X159575028Y-69450000D01*
X159575012Y-69450001D01*
X159472302Y-69460494D01*
X159305880Y-69515641D01*
X159305875Y-69515643D01*
X159156654Y-69607684D01*
X159032684Y-69731654D01*
X158940643Y-69880875D01*
X158940641Y-69880880D01*
X158885494Y-70047302D01*
X158885493Y-70047309D01*
X158875000Y-70150013D01*
X157766192Y-70150013D01*
X157767711Y-70135558D01*
X157749458Y-69961894D01*
X157695498Y-69795821D01*
X157682066Y-69772557D01*
X157665593Y-69704659D01*
X157682066Y-69648556D01*
X157695498Y-69625294D01*
X157749458Y-69459221D01*
X157767711Y-69285557D01*
X157749458Y-69111893D01*
X157713484Y-69001177D01*
X157695499Y-68945822D01*
X157682067Y-68922558D01*
X157665593Y-68854658D01*
X157682066Y-68798555D01*
X157695498Y-68775293D01*
X157749458Y-68609220D01*
X157767711Y-68435556D01*
X157755882Y-68323015D01*
X157768451Y-68254287D01*
X157816183Y-68203263D01*
X157879203Y-68186055D01*
X158850452Y-68186055D01*
X158917491Y-68205740D01*
X158955990Y-68244957D01*
X159032288Y-68368656D01*
X159156344Y-68492712D01*
X159305666Y-68584814D01*
X159472203Y-68639999D01*
X159574991Y-68650500D01*
X160925008Y-68650499D01*
X161027797Y-68639999D01*
X161194334Y-68584814D01*
X161343656Y-68492712D01*
X161467712Y-68368656D01*
X161559814Y-68219334D01*
X161614999Y-68052797D01*
X161625500Y-67950009D01*
X161625499Y-67049992D01*
X161614999Y-66947203D01*
X161559814Y-66780666D01*
X161467712Y-66631344D01*
X161343656Y-66507288D01*
X161204258Y-66421307D01*
X161194336Y-66415187D01*
X161194331Y-66415185D01*
X161135888Y-66395819D01*
X161027797Y-66360001D01*
X161027795Y-66360000D01*
X160925010Y-66349500D01*
X159574998Y-66349500D01*
X159574981Y-66349501D01*
X159472203Y-66360000D01*
X159472200Y-66360001D01*
X159305668Y-66415185D01*
X159305663Y-66415187D01*
X159156342Y-66507289D01*
X159032289Y-66631342D01*
X158940187Y-66780663D01*
X158940185Y-66780668D01*
X158900623Y-66900059D01*
X158860850Y-66957504D01*
X158796334Y-66984327D01*
X158782917Y-66985055D01*
X157879203Y-66985055D01*
X157812164Y-66965370D01*
X157766409Y-66912566D01*
X157755882Y-66848096D01*
X157767711Y-66735557D01*
X157749458Y-66561893D01*
X157695498Y-66395820D01*
X157681777Y-66372056D01*
X157665304Y-66304157D01*
X157681778Y-66248054D01*
X157695038Y-66225087D01*
X157695040Y-66225083D01*
X157748964Y-66059119D01*
X157748965Y-66059117D01*
X157767207Y-65885556D01*
X157748965Y-65711994D01*
X157748964Y-65711992D01*
X157723819Y-65634603D01*
X157721824Y-65564762D01*
X157757904Y-65504929D01*
X157794300Y-65481723D01*
X157813260Y-65473869D01*
X157813268Y-65473865D01*
X157986683Y-65357994D01*
X158134157Y-65210520D01*
X158250031Y-65037100D01*
X158318174Y-64872591D01*
X158362015Y-64818188D01*
X158428309Y-64796123D01*
X158496009Y-64813402D01*
X158543619Y-64864540D01*
X158547296Y-64872591D01*
X158615438Y-65037100D01*
X158731312Y-65210520D01*
X158878786Y-65357994D01*
X159052206Y-65473869D01*
X159244893Y-65553682D01*
X159244901Y-65553684D01*
X159449447Y-65594371D01*
X159449451Y-65594372D01*
X159697435Y-65594372D01*
X159697435Y-65165143D01*
X159717120Y-65098104D01*
X159762174Y-65059064D01*
X159761036Y-65057092D01*
X159768071Y-65053030D01*
X159768073Y-65053030D01*
X159768674Y-65052682D01*
X159769931Y-65052345D01*
X159774002Y-65050574D01*
X159775601Y-65049912D01*
X159775941Y-65050735D01*
X159830671Y-65036072D01*
X160064199Y-65036072D01*
X160118928Y-65050735D01*
X160119269Y-65049912D01*
X160120868Y-65050574D01*
X160122135Y-65051594D01*
X160126195Y-65052682D01*
X160126797Y-65053030D01*
X160126798Y-65053030D01*
X160133834Y-65057092D01*
X160132286Y-65059772D01*
X160175279Y-65094405D01*
X160197355Y-65160695D01*
X160197435Y-65165143D01*
X160197435Y-65594372D01*
X160445419Y-65594372D01*
X160445422Y-65594371D01*
X160649968Y-65553684D01*
X160649976Y-65553682D01*
X160842663Y-65473869D01*
X161016083Y-65357994D01*
X161163557Y-65210520D01*
X161279432Y-65037100D01*
X161359245Y-64844413D01*
X161359247Y-64844405D01*
X161370950Y-64785572D01*
X161010636Y-64785572D01*
X160943597Y-64765887D01*
X160897842Y-64713083D01*
X160887898Y-64643925D01*
X160890856Y-64629497D01*
X160896435Y-64608679D01*
X160896435Y-64462465D01*
X160890861Y-64441662D01*
X160892524Y-64371817D01*
X160931686Y-64313954D01*
X160995914Y-64286449D01*
X161010636Y-64285572D01*
X161370951Y-64285572D01*
X161370950Y-64285571D01*
X161359247Y-64226738D01*
X161359245Y-64226730D01*
X161279432Y-64034043D01*
X161163557Y-63860623D01*
X161016083Y-63713149D01*
X160842663Y-63597274D01*
X160649976Y-63517461D01*
X160649968Y-63517459D01*
X160445422Y-63476772D01*
X160197435Y-63476772D01*
X160197435Y-63906000D01*
X160177750Y-63973039D01*
X160132699Y-64012075D01*
X160133839Y-64014048D01*
X160126203Y-64018457D01*
X160124946Y-64018793D01*
X160124946Y-64018794D01*
X160120904Y-64020555D01*
X160119304Y-64021218D01*
X160118963Y-64020396D01*
X160064199Y-64035072D01*
X159830671Y-64035072D01*
X159775906Y-64020396D01*
X159775566Y-64021218D01*
X159773966Y-64020555D01*
X159772705Y-64019539D01*
X159768667Y-64018457D01*
X159761031Y-64014048D01*
X159762575Y-64011373D01*
X159719569Y-63976706D01*
X159697513Y-63910409D01*
X159697435Y-63906000D01*
X159697435Y-63476772D01*
X159449447Y-63476772D01*
X159244901Y-63517459D01*
X159244893Y-63517461D01*
X159052206Y-63597274D01*
X158878786Y-63713149D01*
X158731312Y-63860623D01*
X158615437Y-64034043D01*
X158547296Y-64198552D01*
X158503455Y-64252955D01*
X158437161Y-64275020D01*
X158369461Y-64257741D01*
X158321851Y-64206603D01*
X158318174Y-64198552D01*
X158250032Y-64034043D01*
X158134157Y-63860623D01*
X157986683Y-63713149D01*
X157813263Y-63597274D01*
X157620576Y-63517461D01*
X157620568Y-63517459D01*
X157416022Y-63476772D01*
X156812435Y-63476772D01*
X156812435Y-63911072D01*
X156792750Y-63978111D01*
X156739946Y-64023866D01*
X156688435Y-64035072D01*
X156436435Y-64035072D01*
X156369396Y-64015387D01*
X156323641Y-63962583D01*
X156312435Y-63911072D01*
X156312435Y-63476772D01*
X155708847Y-63476772D01*
X155504301Y-63517459D01*
X155504293Y-63517461D01*
X155311606Y-63597274D01*
X155138186Y-63713149D01*
X154990712Y-63860623D01*
X154874837Y-64034043D01*
X154795024Y-64226730D01*
X154795022Y-64226738D01*
X154783319Y-64285571D01*
X154783319Y-64285572D01*
X155143634Y-64285572D01*
X155210673Y-64305257D01*
X155256428Y-64358061D01*
X155266372Y-64427219D01*
X155263413Y-64441646D01*
X155257835Y-64462465D01*
X155257835Y-64608679D01*
X155263408Y-64629481D01*
X155261746Y-64699327D01*
X155222584Y-64757190D01*
X155158356Y-64784695D01*
X155143634Y-64785572D01*
X154783319Y-64785572D01*
X154795022Y-64844405D01*
X154795024Y-64844413D01*
X154874838Y-65037100D01*
X154973726Y-65185098D01*
X154986675Y-65226453D01*
X155006645Y-65226453D01*
X155054083Y-65179014D01*
X155115406Y-65145529D01*
X155185098Y-65150513D01*
X155229446Y-65179014D01*
X155743608Y-65693176D01*
X155777093Y-65754499D01*
X155772823Y-65814205D01*
X155754700Y-65770452D01*
X155697539Y-65713291D01*
X155622854Y-65682356D01*
X155542016Y-65682356D01*
X155467331Y-65713291D01*
X155410170Y-65770452D01*
X155379235Y-65845137D01*
X155379235Y-65912483D01*
X155368433Y-65911659D01*
X155324640Y-65883367D01*
X154879407Y-65438134D01*
X154845922Y-65376811D01*
X154846186Y-65373111D01*
X154791105Y-65349135D01*
X154782942Y-65341669D01*
X154526819Y-65085546D01*
X154493334Y-65024223D01*
X154490500Y-64997865D01*
X154490500Y-62894377D01*
X154510185Y-62827338D01*
X154549406Y-62788837D01*
X154583654Y-62767713D01*
X154583653Y-62767713D01*
X154583656Y-62767712D01*
X154707712Y-62643656D01*
X154799814Y-62494334D01*
X154854999Y-62327797D01*
X154865500Y-62225009D01*
X154865499Y-59974992D01*
X154854999Y-59872203D01*
X154799814Y-59705666D01*
X154707712Y-59556344D01*
X154583656Y-59432288D01*
X154434334Y-59340186D01*
X154267797Y-59285001D01*
X154267795Y-59285000D01*
X154165010Y-59274500D01*
X153314998Y-59274500D01*
X153314980Y-59274501D01*
X153212203Y-59285000D01*
X153212200Y-59285001D01*
X153045668Y-59340185D01*
X153045663Y-59340187D01*
X152896342Y-59432289D01*
X152772289Y-59556342D01*
X152680187Y-59705663D01*
X152680185Y-59705668D01*
X152678649Y-59710304D01*
X152625001Y-59872203D01*
X152625001Y-59872204D01*
X152625000Y-59872204D01*
X152614500Y-59974983D01*
X152614500Y-62225001D01*
X152614501Y-62225018D01*
X152625000Y-62327796D01*
X152625001Y-62327799D01*
X152680185Y-62494331D01*
X152680187Y-62494336D01*
X152772289Y-62643657D01*
X152896345Y-62767713D01*
X152930594Y-62788837D01*
X152977320Y-62840784D01*
X152989500Y-62894377D01*
X152989500Y-65434013D01*
X152989500Y-65434015D01*
X152989499Y-65434015D01*
X153018340Y-65579002D01*
X153018343Y-65579012D01*
X153074913Y-65715585D01*
X153074914Y-65715587D01*
X153102464Y-65756818D01*
X153102465Y-65756820D01*
X153157043Y-65838505D01*
X153157047Y-65838510D01*
X154637040Y-67318504D01*
X154637043Y-67318507D01*
X154689820Y-67353771D01*
X154689819Y-67353771D01*
X154703900Y-67363179D01*
X154748706Y-67416790D01*
X154758332Y-67479242D01*
X154747159Y-67585553D01*
X154747159Y-67585555D01*
X154758987Y-67698095D01*
X154746419Y-67766824D01*
X154698687Y-67817848D01*
X154635667Y-67835056D01*
X153835654Y-67835056D01*
X153768615Y-67815371D01*
X153747973Y-67798737D01*
X151530700Y-65581465D01*
X151497215Y-65520142D01*
X151495163Y-65507686D01*
X151485368Y-65420745D01*
X151425789Y-65250478D01*
X151329816Y-65097738D01*
X151202262Y-64970184D01*
X151049522Y-64874211D01*
X150985478Y-64851801D01*
X150928702Y-64811079D01*
X150902955Y-64746126D01*
X150903213Y-64720874D01*
X150905565Y-64700001D01*
X150905565Y-64699996D01*
X150885369Y-64520750D01*
X150885368Y-64520745D01*
X150879087Y-64502795D01*
X150825789Y-64350478D01*
X150825188Y-64349522D01*
X150785005Y-64285571D01*
X150729816Y-64197738D01*
X150602262Y-64070184D01*
X150544744Y-64034043D01*
X150449523Y-63974211D01*
X150279254Y-63914631D01*
X150279249Y-63914630D01*
X150100004Y-63894435D01*
X150099996Y-63894435D01*
X149920750Y-63914630D01*
X149920745Y-63914631D01*
X149750476Y-63974211D01*
X149597737Y-64070184D01*
X149470184Y-64197737D01*
X149374211Y-64350476D01*
X149314631Y-64520745D01*
X149314630Y-64520750D01*
X149294435Y-64699996D01*
X148690500Y-64699996D01*
X148690500Y-61974500D01*
X148710185Y-61907461D01*
X148762989Y-61861706D01*
X148814500Y-61850500D01*
X149690501Y-61850500D01*
X149757540Y-61870185D01*
X149803295Y-61922989D01*
X149814501Y-61974500D01*
X149814501Y-62225018D01*
X149825000Y-62327796D01*
X149825001Y-62327799D01*
X149880185Y-62494331D01*
X149880187Y-62494336D01*
X149914828Y-62550498D01*
X149972288Y-62643656D01*
X150096344Y-62767712D01*
X150245666Y-62859814D01*
X150412203Y-62914999D01*
X150514991Y-62925500D01*
X151365008Y-62925499D01*
X151365016Y-62925498D01*
X151365019Y-62925498D01*
X151446671Y-62917157D01*
X151467797Y-62914999D01*
X151634334Y-62859814D01*
X151783656Y-62767712D01*
X151907712Y-62643656D01*
X151999814Y-62494334D01*
X152054999Y-62327797D01*
X152065500Y-62225009D01*
X152065499Y-59974992D01*
X152054999Y-59872203D01*
X151999814Y-59705666D01*
X151907712Y-59556344D01*
X151783656Y-59432288D01*
X151634334Y-59340186D01*
X151467797Y-59285001D01*
X151467795Y-59285000D01*
X151365010Y-59274500D01*
X150514998Y-59274500D01*
X150514980Y-59274501D01*
X150412203Y-59285000D01*
X150412200Y-59285001D01*
X150245668Y-59340185D01*
X150245663Y-59340187D01*
X150096342Y-59432289D01*
X149972289Y-59556342D01*
X149880187Y-59705663D01*
X149880185Y-59705668D01*
X149878649Y-59710304D01*
X149825001Y-59872203D01*
X149825001Y-59872204D01*
X149825000Y-59872204D01*
X149814500Y-59974983D01*
X149814500Y-60225500D01*
X149794815Y-60292539D01*
X149742011Y-60338294D01*
X149690500Y-60349500D01*
X149102230Y-60349500D01*
X149035191Y-60329815D01*
X149014549Y-60313181D01*
X148726819Y-60025451D01*
X148693334Y-59964128D01*
X148690500Y-59937770D01*
X148690500Y-58874500D01*
X148710185Y-58807461D01*
X148762989Y-58761706D01*
X148814500Y-58750500D01*
X151450028Y-58750500D01*
X151490982Y-58757457D01*
X151569833Y-58785049D01*
X151570745Y-58785368D01*
X151570750Y-58785369D01*
X151749996Y-58805565D01*
X151750000Y-58805565D01*
X151750004Y-58805565D01*
X151929249Y-58785369D01*
X151929252Y-58785368D01*
X151929255Y-58785368D01*
X152099522Y-58725789D01*
X152252262Y-58629816D01*
X152379816Y-58502262D01*
X152475789Y-58349522D01*
X152535368Y-58179255D01*
X152545275Y-58091329D01*
X152555565Y-58000003D01*
X152555565Y-57999996D01*
X152535369Y-57820750D01*
X152535368Y-57820745D01*
X152475788Y-57650476D01*
X152438085Y-57590472D01*
X152419085Y-57523235D01*
X152439453Y-57456400D01*
X152492721Y-57411186D01*
X152543079Y-57400500D01*
X158261373Y-57400500D01*
X158328412Y-57420185D01*
X158374167Y-57472989D01*
X158384111Y-57542147D01*
X158360836Y-57598548D01*
X158219289Y-57788677D01*
X158044561Y-58091316D01*
X158044555Y-58091329D01*
X157906145Y-58412199D01*
X157805916Y-58746988D01*
X157805914Y-58746997D01*
X157745236Y-59091119D01*
X157745235Y-59091130D01*
X157724916Y-59439996D01*
X157724916Y-59440003D01*
X157745235Y-59788869D01*
X157745236Y-59788880D01*
X157805914Y-60133002D01*
X157805916Y-60133011D01*
X157906145Y-60467800D01*
X158044555Y-60788670D01*
X158044561Y-60788683D01*
X158219289Y-61091322D01*
X158427967Y-61371625D01*
X158436148Y-61380296D01*
X159507339Y-60309104D01*
X159585864Y-60417184D01*
X159752816Y-60584136D01*
X159860892Y-60662658D01*
X158792818Y-61730733D01*
X158792819Y-61730734D01*
X158935484Y-61850445D01*
X159227461Y-62042480D01*
X159539739Y-62199314D01*
X159539745Y-62199316D01*
X159868130Y-62318838D01*
X159868133Y-62318839D01*
X160208171Y-62399429D01*
X160555276Y-62439999D01*
X160555277Y-62440000D01*
X160904723Y-62440000D01*
X160904723Y-62439999D01*
X161251827Y-62399429D01*
X161251829Y-62399429D01*
X161591866Y-62318839D01*
X161591869Y-62318838D01*
X161920254Y-62199316D01*
X161920260Y-62199314D01*
X162232538Y-62042480D01*
X162524520Y-61850441D01*
X162565793Y-61815809D01*
X162629801Y-61787795D01*
X162698793Y-61798833D01*
X162750865Y-61845420D01*
X162769500Y-61910797D01*
X162769500Y-83514622D01*
X162749815Y-83581661D01*
X162697011Y-83627416D01*
X162627853Y-83637360D01*
X162593096Y-83627004D01*
X162463497Y-83566571D01*
X162463483Y-83566566D01*
X162235326Y-83505432D01*
X162235315Y-83505430D01*
X162000002Y-83484843D01*
X161999998Y-83484843D01*
X161764684Y-83505430D01*
X161764673Y-83505432D01*
X161536516Y-83566566D01*
X161536507Y-83566570D01*
X161322419Y-83666401D01*
X161238625Y-83725072D01*
X161870590Y-84357037D01*
X161807007Y-84374075D01*
X161692993Y-84439901D01*
X161599901Y-84532993D01*
X161534075Y-84647007D01*
X161517037Y-84710589D01*
X160885073Y-84078626D01*
X160831881Y-84154594D01*
X160777304Y-84198219D01*
X160707806Y-84205413D01*
X160645451Y-84173891D01*
X160628730Y-84154594D01*
X160498494Y-83968597D01*
X160331402Y-83801506D01*
X160331395Y-83801501D01*
X160137834Y-83665967D01*
X160137830Y-83665965D01*
X160137828Y-83665964D01*
X159923663Y-83566097D01*
X159923659Y-83566096D01*
X159923655Y-83566094D01*
X159695413Y-83504938D01*
X159695403Y-83504936D01*
X159460001Y-83484341D01*
X159459999Y-83484341D01*
X159224596Y-83504936D01*
X159224586Y-83504938D01*
X158996344Y-83566094D01*
X158996335Y-83566098D01*
X158782171Y-83665964D01*
X158782169Y-83665965D01*
X158588597Y-83801505D01*
X158421505Y-83968597D01*
X158285965Y-84162169D01*
X158285964Y-84162171D01*
X158186098Y-84376335D01*
X158186094Y-84376344D01*
X158124938Y-84604586D01*
X158124936Y-84604596D01*
X158104341Y-84839999D01*
X158104341Y-84840000D01*
X158124936Y-85075403D01*
X158124938Y-85075413D01*
X158186094Y-85303655D01*
X158186096Y-85303659D01*
X158186097Y-85303663D01*
X158263747Y-85470184D01*
X158285965Y-85517830D01*
X158285967Y-85517834D01*
X158341917Y-85597738D01*
X158421505Y-85711401D01*
X158588599Y-85878495D01*
X158650812Y-85922057D01*
X158782165Y-86014032D01*
X158782167Y-86014033D01*
X158782170Y-86014035D01*
X158996337Y-86113903D01*
X159224592Y-86175063D01*
X159412918Y-86191539D01*
X159459999Y-86195659D01*
X159460000Y-86195659D01*
X159460001Y-86195659D01*
X159499234Y-86192226D01*
X159695408Y-86175063D01*
X159923663Y-86113903D01*
X160137830Y-86014035D01*
X160331401Y-85878495D01*
X160498495Y-85711401D01*
X160628732Y-85525403D01*
X160683307Y-85481780D01*
X160752805Y-85474586D01*
X160815160Y-85506109D01*
X160831880Y-85525405D01*
X160885073Y-85601373D01*
X161517037Y-84969409D01*
X161534075Y-85032993D01*
X161599901Y-85147007D01*
X161692993Y-85240099D01*
X161807007Y-85305925D01*
X161870588Y-85322961D01*
X161238625Y-85954925D01*
X161322421Y-86013599D01*
X161536507Y-86113429D01*
X161536516Y-86113433D01*
X161764673Y-86174567D01*
X161764684Y-86174569D01*
X161999998Y-86195157D01*
X162000002Y-86195157D01*
X162235315Y-86174569D01*
X162235326Y-86174567D01*
X162463483Y-86113433D01*
X162463492Y-86113430D01*
X162593095Y-86052995D01*
X162662172Y-86042503D01*
X162725956Y-86071023D01*
X162764196Y-86129499D01*
X162769500Y-86165377D01*
X162769500Y-93674622D01*
X162749815Y-93741661D01*
X162697011Y-93787416D01*
X162627853Y-93797360D01*
X162593096Y-93787004D01*
X162463497Y-93726571D01*
X162463483Y-93726566D01*
X162235326Y-93665432D01*
X162235315Y-93665430D01*
X162000002Y-93644843D01*
X161999998Y-93644843D01*
X161764684Y-93665430D01*
X161764673Y-93665432D01*
X161536516Y-93726566D01*
X161536507Y-93726570D01*
X161322419Y-93826401D01*
X161238625Y-93885072D01*
X161870590Y-94517037D01*
X161807007Y-94534075D01*
X161692993Y-94599901D01*
X161599901Y-94692993D01*
X161534075Y-94807007D01*
X161517037Y-94870590D01*
X160885073Y-94238626D01*
X160831881Y-94314594D01*
X160777304Y-94358219D01*
X160707806Y-94365413D01*
X160645451Y-94333891D01*
X160628730Y-94314594D01*
X160498494Y-94128597D01*
X160331402Y-93961506D01*
X160331395Y-93961501D01*
X160137834Y-93825967D01*
X160137830Y-93825965D01*
X160105006Y-93810659D01*
X159923663Y-93726097D01*
X159923659Y-93726096D01*
X159923655Y-93726094D01*
X159695413Y-93664938D01*
X159695403Y-93664936D01*
X159460001Y-93644341D01*
X159459999Y-93644341D01*
X159224596Y-93664936D01*
X159224586Y-93664938D01*
X158996344Y-93726094D01*
X158996335Y-93726098D01*
X158782171Y-93825964D01*
X158782169Y-93825965D01*
X158588597Y-93961505D01*
X158421505Y-94128597D01*
X158285965Y-94322169D01*
X158285964Y-94322171D01*
X158186098Y-94536335D01*
X158186094Y-94536344D01*
X158124938Y-94764586D01*
X158124936Y-94764596D01*
X158104341Y-94999999D01*
X158104341Y-95000000D01*
X158124936Y-95235403D01*
X158124938Y-95235413D01*
X158186094Y-95463655D01*
X158186097Y-95463664D01*
X158203041Y-95500000D01*
X158246453Y-95593097D01*
X158256945Y-95662172D01*
X158228426Y-95725956D01*
X158169949Y-95764196D01*
X158134071Y-95769500D01*
X117605377Y-95769500D01*
X117538338Y-95749815D01*
X117492583Y-95697011D01*
X117482639Y-95627853D01*
X117492995Y-95593095D01*
X117553430Y-95463492D01*
X117553433Y-95463483D01*
X117614567Y-95235326D01*
X117614569Y-95235315D01*
X117635157Y-95000001D01*
X117635157Y-94999998D01*
X117614569Y-94764684D01*
X117614567Y-94764673D01*
X117553433Y-94536516D01*
X117553429Y-94536507D01*
X117453600Y-94322423D01*
X117453599Y-94322421D01*
X117394925Y-94238626D01*
X117394925Y-94238625D01*
X116762961Y-94870588D01*
X116745925Y-94807007D01*
X116680099Y-94692993D01*
X116587007Y-94599901D01*
X116472993Y-94534075D01*
X116409410Y-94517037D01*
X117041373Y-93885073D01*
X117041373Y-93885072D01*
X116957583Y-93826402D01*
X116957579Y-93826400D01*
X116743492Y-93726570D01*
X116743483Y-93726566D01*
X116515326Y-93665432D01*
X116515315Y-93665430D01*
X116280002Y-93644843D01*
X116279998Y-93644843D01*
X116044684Y-93665430D01*
X116044673Y-93665432D01*
X115816516Y-93726566D01*
X115816507Y-93726570D01*
X115602419Y-93826401D01*
X115518625Y-93885072D01*
X116150590Y-94517037D01*
X116087007Y-94534075D01*
X115972993Y-94599901D01*
X115879901Y-94692993D01*
X115814075Y-94807007D01*
X115797037Y-94870590D01*
X115165073Y-94238626D01*
X115111881Y-94314594D01*
X115057304Y-94358219D01*
X114987806Y-94365413D01*
X114925451Y-94333891D01*
X114908730Y-94314594D01*
X114778494Y-94128597D01*
X114611402Y-93961506D01*
X114611395Y-93961501D01*
X114417834Y-93825967D01*
X114417830Y-93825965D01*
X114385006Y-93810659D01*
X114203663Y-93726097D01*
X114203659Y-93726096D01*
X114203655Y-93726094D01*
X113975413Y-93664938D01*
X113975403Y-93664936D01*
X113740001Y-93644341D01*
X113739999Y-93644341D01*
X113504596Y-93664936D01*
X113504586Y-93664938D01*
X113276344Y-93726094D01*
X113276330Y-93726099D01*
X113146904Y-93786452D01*
X113077827Y-93796944D01*
X113014043Y-93768424D01*
X112975804Y-93709947D01*
X112970500Y-93674070D01*
X112970500Y-86165929D01*
X112990185Y-86098890D01*
X113042989Y-86053135D01*
X113112147Y-86043191D01*
X113146900Y-86053545D01*
X113276337Y-86113903D01*
X113504592Y-86175063D01*
X113692918Y-86191539D01*
X113739999Y-86195659D01*
X113740000Y-86195659D01*
X113740001Y-86195659D01*
X113779234Y-86192226D01*
X113975408Y-86175063D01*
X114203663Y-86113903D01*
X114417830Y-86014035D01*
X114611401Y-85878495D01*
X114778495Y-85711401D01*
X114908732Y-85525403D01*
X114963307Y-85481780D01*
X115032805Y-85474586D01*
X115095160Y-85506109D01*
X115111880Y-85525405D01*
X115165073Y-85601373D01*
X115797037Y-84969409D01*
X115814075Y-85032993D01*
X115879901Y-85147007D01*
X115972993Y-85240099D01*
X116087007Y-85305925D01*
X116150590Y-85322962D01*
X115518625Y-85954925D01*
X115602421Y-86013599D01*
X115816507Y-86113429D01*
X115816516Y-86113433D01*
X116044673Y-86174567D01*
X116044684Y-86174569D01*
X116279998Y-86195157D01*
X116280002Y-86195157D01*
X116515315Y-86174569D01*
X116515326Y-86174567D01*
X116743483Y-86113433D01*
X116743492Y-86113429D01*
X116957578Y-86013600D01*
X116957582Y-86013598D01*
X117041373Y-85954926D01*
X117041373Y-85954925D01*
X116409409Y-85322962D01*
X116472993Y-85305925D01*
X116587007Y-85240099D01*
X116680099Y-85147007D01*
X116745925Y-85032993D01*
X116762962Y-84969410D01*
X117394925Y-85601373D01*
X117394926Y-85601373D01*
X117453598Y-85517582D01*
X117453600Y-85517578D01*
X117553429Y-85303492D01*
X117553433Y-85303483D01*
X117614567Y-85075326D01*
X117614569Y-85075315D01*
X117635157Y-84840001D01*
X117635157Y-84839998D01*
X117614569Y-84604684D01*
X117614567Y-84604673D01*
X117553433Y-84376516D01*
X117553429Y-84376507D01*
X117453600Y-84162423D01*
X117453599Y-84162421D01*
X117394925Y-84078626D01*
X117394925Y-84078625D01*
X116762962Y-84710589D01*
X116745925Y-84647007D01*
X116680099Y-84532993D01*
X116587007Y-84439901D01*
X116472993Y-84374075D01*
X116409410Y-84357037D01*
X117041373Y-83725073D01*
X117041373Y-83725072D01*
X116957583Y-83666402D01*
X116957579Y-83666400D01*
X116743492Y-83566570D01*
X116743483Y-83566566D01*
X116515326Y-83505432D01*
X116515315Y-83505430D01*
X116280002Y-83484843D01*
X116279998Y-83484843D01*
X116044684Y-83505430D01*
X116044673Y-83505432D01*
X115816516Y-83566566D01*
X115816507Y-83566570D01*
X115602419Y-83666401D01*
X115518625Y-83725072D01*
X116150590Y-84357037D01*
X116087007Y-84374075D01*
X115972993Y-84439901D01*
X115879901Y-84532993D01*
X115814075Y-84647007D01*
X115797037Y-84710589D01*
X115165073Y-84078626D01*
X115111881Y-84154594D01*
X115057304Y-84198219D01*
X114987806Y-84205413D01*
X114925451Y-84173891D01*
X114908730Y-84154594D01*
X114778494Y-83968597D01*
X114611402Y-83801506D01*
X114611395Y-83801501D01*
X114417834Y-83665967D01*
X114417830Y-83665965D01*
X114417828Y-83665964D01*
X114203663Y-83566097D01*
X114203659Y-83566096D01*
X114203655Y-83566094D01*
X113975413Y-83504938D01*
X113975403Y-83504936D01*
X113740001Y-83484341D01*
X113739999Y-83484341D01*
X113504596Y-83504936D01*
X113504586Y-83504938D01*
X113276344Y-83566094D01*
X113276330Y-83566099D01*
X113146904Y-83626452D01*
X113077827Y-83636944D01*
X113014043Y-83608424D01*
X112975804Y-83549947D01*
X112970500Y-83514070D01*
X112970500Y-72599999D01*
X113984341Y-72599999D01*
X113984341Y-72600000D01*
X114004936Y-72835403D01*
X114004938Y-72835413D01*
X114066094Y-73063655D01*
X114066096Y-73063659D01*
X114066097Y-73063663D01*
X114157019Y-73258645D01*
X114165965Y-73277830D01*
X114165967Y-73277834D01*
X114247613Y-73394435D01*
X114301505Y-73471401D01*
X114468599Y-73638495D01*
X114499043Y-73659812D01*
X114662165Y-73774032D01*
X114662167Y-73774033D01*
X114662170Y-73774035D01*
X114876337Y-73873903D01*
X115104592Y-73935063D01*
X115292918Y-73951539D01*
X115339999Y-73955659D01*
X115340000Y-73955659D01*
X115340001Y-73955659D01*
X115379234Y-73952226D01*
X115575408Y-73935063D01*
X115803663Y-73873903D01*
X116017830Y-73774035D01*
X116211401Y-73638495D01*
X116378495Y-73471401D01*
X116426127Y-73403376D01*
X116480704Y-73359751D01*
X116527701Y-73350500D01*
X118445622Y-73350500D01*
X118512661Y-73370185D01*
X118551159Y-73409401D01*
X118572288Y-73443656D01*
X118696344Y-73567712D01*
X118845666Y-73659814D01*
X119012203Y-73714999D01*
X119114991Y-73725500D01*
X121365008Y-73725499D01*
X121467797Y-73714999D01*
X121634334Y-73659814D01*
X121783656Y-73567712D01*
X121907712Y-73443656D01*
X121999814Y-73294334D01*
X122054999Y-73127797D01*
X122065500Y-73025009D01*
X122065499Y-72174992D01*
X122064726Y-72167429D01*
X122054999Y-72072203D01*
X122054998Y-72072200D01*
X122043916Y-72038757D01*
X121999814Y-71905666D01*
X121907712Y-71756344D01*
X121783656Y-71632288D01*
X121634334Y-71540186D01*
X121467797Y-71485001D01*
X121467795Y-71485000D01*
X121365010Y-71474500D01*
X119114998Y-71474500D01*
X119114981Y-71474501D01*
X119012203Y-71485000D01*
X119012200Y-71485001D01*
X118845668Y-71540185D01*
X118845663Y-71540187D01*
X118696342Y-71632289D01*
X118572289Y-71756342D01*
X118572288Y-71756344D01*
X118553401Y-71786966D01*
X118551161Y-71790597D01*
X118499213Y-71837321D01*
X118445622Y-71849500D01*
X116527701Y-71849500D01*
X116460662Y-71829815D01*
X116426126Y-71796623D01*
X116378496Y-71728600D01*
X116334252Y-71684356D01*
X116256179Y-71606283D01*
X116222696Y-71544963D01*
X116227680Y-71475271D01*
X116269551Y-71419337D01*
X116300529Y-71402422D01*
X116432086Y-71353354D01*
X116432093Y-71353350D01*
X116547187Y-71267190D01*
X116547190Y-71267187D01*
X116633350Y-71152093D01*
X116633354Y-71152086D01*
X116683596Y-71017379D01*
X116683598Y-71017372D01*
X116689999Y-70957844D01*
X116690000Y-70957827D01*
X116690000Y-70310000D01*
X115773012Y-70310000D01*
X115805925Y-70252993D01*
X115840000Y-70125826D01*
X115840000Y-69994174D01*
X115805925Y-69867007D01*
X115773012Y-69810000D01*
X116690000Y-69810000D01*
X116690000Y-69162172D01*
X116689999Y-69162155D01*
X116683598Y-69102627D01*
X116683596Y-69102620D01*
X116633354Y-68967913D01*
X116633350Y-68967906D01*
X116547190Y-68852812D01*
X116547187Y-68852809D01*
X116432093Y-68766649D01*
X116432086Y-68766645D01*
X116297379Y-68716403D01*
X116297372Y-68716401D01*
X116237844Y-68710000D01*
X115590000Y-68710000D01*
X115590000Y-69626988D01*
X115532993Y-69594075D01*
X115405826Y-69560000D01*
X115274174Y-69560000D01*
X115147007Y-69594075D01*
X115090000Y-69626988D01*
X115090000Y-68710000D01*
X114442155Y-68710000D01*
X114382627Y-68716401D01*
X114382620Y-68716403D01*
X114247913Y-68766645D01*
X114247906Y-68766649D01*
X114132812Y-68852809D01*
X114132809Y-68852812D01*
X114046649Y-68967906D01*
X114046645Y-68967913D01*
X113996403Y-69102620D01*
X113996401Y-69102627D01*
X113990000Y-69162155D01*
X113990000Y-69810000D01*
X114906988Y-69810000D01*
X114874075Y-69867007D01*
X114840000Y-69994174D01*
X114840000Y-70125826D01*
X114874075Y-70252993D01*
X114906988Y-70310000D01*
X113990000Y-70310000D01*
X113990000Y-70957844D01*
X113996401Y-71017372D01*
X113996403Y-71017379D01*
X114046645Y-71152086D01*
X114046649Y-71152093D01*
X114132809Y-71267187D01*
X114132812Y-71267190D01*
X114247906Y-71353350D01*
X114247913Y-71353354D01*
X114379470Y-71402421D01*
X114435403Y-71444292D01*
X114459821Y-71509756D01*
X114444970Y-71578029D01*
X114423819Y-71606284D01*
X114301503Y-71728600D01*
X114165965Y-71922169D01*
X114165964Y-71922171D01*
X114066098Y-72136335D01*
X114066094Y-72136344D01*
X114004938Y-72364586D01*
X114004936Y-72364596D01*
X113984341Y-72599999D01*
X112970500Y-72599999D01*
X112970500Y-64812499D01*
X113509341Y-64812499D01*
X113509341Y-64812500D01*
X113529936Y-65047903D01*
X113529938Y-65047913D01*
X113591094Y-65276155D01*
X113591096Y-65276159D01*
X113591097Y-65276163D01*
X113657044Y-65417587D01*
X113690965Y-65490330D01*
X113690967Y-65490334D01*
X113764546Y-65595415D01*
X113826505Y-65683901D01*
X113993599Y-65850995D01*
X114061242Y-65898359D01*
X114187165Y-65986532D01*
X114187167Y-65986533D01*
X114187170Y-65986535D01*
X114401337Y-66086403D01*
X114401343Y-66086404D01*
X114401344Y-66086405D01*
X114452082Y-66100000D01*
X114629592Y-66147563D01*
X114817918Y-66164039D01*
X114864999Y-66168159D01*
X114865000Y-66168159D01*
X114865001Y-66168159D01*
X114904234Y-66164726D01*
X115100408Y-66147563D01*
X115328663Y-66086403D01*
X115542830Y-65986535D01*
X115736401Y-65850995D01*
X115903495Y-65683901D01*
X116033425Y-65498342D01*
X116088002Y-65454717D01*
X116157500Y-65447523D01*
X116219855Y-65479046D01*
X116236575Y-65498342D01*
X116366500Y-65683895D01*
X116366505Y-65683901D01*
X116533599Y-65850995D01*
X116601242Y-65898359D01*
X116727165Y-65986532D01*
X116727167Y-65986533D01*
X116727170Y-65986535D01*
X116941337Y-66086403D01*
X116941343Y-66086404D01*
X116941344Y-66086405D01*
X116992082Y-66100000D01*
X117169592Y-66147563D01*
X117357918Y-66164039D01*
X117404999Y-66168159D01*
X117405000Y-66168159D01*
X117405001Y-66168159D01*
X117444234Y-66164726D01*
X117640408Y-66147563D01*
X117868663Y-66086403D01*
X118082830Y-65986535D01*
X118276401Y-65850995D01*
X118443495Y-65683901D01*
X118579035Y-65490330D01*
X118678903Y-65276163D01*
X118740063Y-65047908D01*
X118760659Y-64812500D01*
X118740063Y-64577092D01*
X118678903Y-64348837D01*
X118579035Y-64134671D01*
X118573425Y-64126658D01*
X118443494Y-63941097D01*
X118276402Y-63774006D01*
X118276395Y-63774001D01*
X118082834Y-63638467D01*
X118082830Y-63638465D01*
X118064280Y-63629815D01*
X117868663Y-63538597D01*
X117868659Y-63538596D01*
X117868655Y-63538594D01*
X117640413Y-63477438D01*
X117640403Y-63477436D01*
X117405001Y-63456841D01*
X117404999Y-63456841D01*
X117169596Y-63477436D01*
X117169586Y-63477438D01*
X116941344Y-63538594D01*
X116941335Y-63538598D01*
X116727171Y-63638464D01*
X116727169Y-63638465D01*
X116533597Y-63774005D01*
X116366505Y-63941097D01*
X116236575Y-64126658D01*
X116181998Y-64170283D01*
X116112500Y-64177477D01*
X116050145Y-64145954D01*
X116033425Y-64126658D01*
X115903494Y-63941097D01*
X115736402Y-63774006D01*
X115736395Y-63774001D01*
X115542834Y-63638467D01*
X115542830Y-63638465D01*
X115524280Y-63629815D01*
X115328663Y-63538597D01*
X115328659Y-63538596D01*
X115328655Y-63538594D01*
X115100413Y-63477438D01*
X115100403Y-63477436D01*
X114865001Y-63456841D01*
X114864999Y-63456841D01*
X114629596Y-63477436D01*
X114629586Y-63477438D01*
X114401344Y-63538594D01*
X114401335Y-63538598D01*
X114187171Y-63638464D01*
X114187169Y-63638465D01*
X113993597Y-63774005D01*
X113826505Y-63941097D01*
X113690965Y-64134669D01*
X113690964Y-64134671D01*
X113591098Y-64348835D01*
X113591094Y-64348844D01*
X113529938Y-64577086D01*
X113529936Y-64577096D01*
X113509341Y-64812499D01*
X112970500Y-64812499D01*
X112970500Y-61910797D01*
X112990185Y-61843758D01*
X113042989Y-61798003D01*
X113112147Y-61788059D01*
X113174207Y-61815809D01*
X113215479Y-61850441D01*
X113507461Y-62042480D01*
X113819739Y-62199314D01*
X113819745Y-62199316D01*
X114148130Y-62318838D01*
X114148133Y-62318839D01*
X114488171Y-62399429D01*
X114835276Y-62439999D01*
X114835277Y-62440000D01*
X115184723Y-62440000D01*
X115184723Y-62439999D01*
X115531827Y-62399429D01*
X115531829Y-62399429D01*
X115871866Y-62318839D01*
X115871869Y-62318838D01*
X116200254Y-62199316D01*
X116200260Y-62199314D01*
X116512538Y-62042480D01*
X116804509Y-61850449D01*
X116804510Y-61850448D01*
X116947179Y-61730734D01*
X116947180Y-61730733D01*
X115879106Y-60662659D01*
X115987184Y-60584136D01*
X116154136Y-60417184D01*
X116232659Y-60309106D01*
X117303850Y-61380297D01*
X117303851Y-61380296D01*
X117312022Y-61371636D01*
X117312033Y-61371623D01*
X117520710Y-61091322D01*
X117695438Y-60788683D01*
X117695444Y-60788670D01*
X117833854Y-60467800D01*
X117934083Y-60133011D01*
X117934085Y-60133002D01*
X117994763Y-59788880D01*
X117994764Y-59788869D01*
X118015084Y-59440003D01*
X118015084Y-59439996D01*
X117994764Y-59091130D01*
X117994763Y-59091119D01*
X117934085Y-58746997D01*
X117934083Y-58746988D01*
X117833854Y-58412199D01*
X117695444Y-58091329D01*
X117695438Y-58091316D01*
X117520710Y-57788677D01*
X117379164Y-57598548D01*
X117354920Y-57533019D01*
X117369952Y-57464786D01*
X117419488Y-57415511D01*
X117478627Y-57400500D01*
X121178770Y-57400500D01*
X121245809Y-57420185D01*
G37*
%TD.AperFunction*%
%TD*%
M02*
