%TF.GenerationSoftware,KiCad,Pcbnew,8.0.4*%
%TF.CreationDate,2024-08-04T18:34:55-04:00*%
%TF.ProjectId,ESP32-C3-BreadBoardAdapter,45535033-322d-4433-932d-427265616442,rev?*%
%TF.SameCoordinates,Original*%
%TF.FileFunction,Legend,Bot*%
%TF.FilePolarity,Positive*%
%FSLAX46Y46*%
G04 Gerber Fmt 4.6, Leading zero omitted, Abs format (unit mm)*
G04 Created by KiCad (PCBNEW 8.0.4) date 2024-08-04 18:34:55*
%MOMM*%
%LPD*%
G01*
G04 APERTURE LIST*
%ADD10C,0.150000*%
%ADD11C,0.508000*%
%ADD12C,0.120000*%
G04 APERTURE END LIST*
D10*
X153078094Y-63834819D02*
X153078094Y-62834819D01*
X153078094Y-62834819D02*
X152839999Y-62834819D01*
X152839999Y-62834819D02*
X152697142Y-62882438D01*
X152697142Y-62882438D02*
X152601904Y-62977676D01*
X152601904Y-62977676D02*
X152554285Y-63072914D01*
X152554285Y-63072914D02*
X152506666Y-63263390D01*
X152506666Y-63263390D02*
X152506666Y-63406247D01*
X152506666Y-63406247D02*
X152554285Y-63596723D01*
X152554285Y-63596723D02*
X152601904Y-63691961D01*
X152601904Y-63691961D02*
X152697142Y-63787200D01*
X152697142Y-63787200D02*
X152839999Y-63834819D01*
X152839999Y-63834819D02*
X153078094Y-63834819D01*
X152125713Y-62930057D02*
X152078094Y-62882438D01*
X152078094Y-62882438D02*
X151982856Y-62834819D01*
X151982856Y-62834819D02*
X151744761Y-62834819D01*
X151744761Y-62834819D02*
X151649523Y-62882438D01*
X151649523Y-62882438D02*
X151601904Y-62930057D01*
X151601904Y-62930057D02*
X151554285Y-63025295D01*
X151554285Y-63025295D02*
X151554285Y-63120533D01*
X151554285Y-63120533D02*
X151601904Y-63263390D01*
X151601904Y-63263390D02*
X152173332Y-63834819D01*
X152173332Y-63834819D02*
X151554285Y-63834819D01*
X135374819Y-62233333D02*
X134898628Y-61900000D01*
X135374819Y-61661905D02*
X134374819Y-61661905D01*
X134374819Y-61661905D02*
X134374819Y-62042857D01*
X134374819Y-62042857D02*
X134422438Y-62138095D01*
X134422438Y-62138095D02*
X134470057Y-62185714D01*
X134470057Y-62185714D02*
X134565295Y-62233333D01*
X134565295Y-62233333D02*
X134708152Y-62233333D01*
X134708152Y-62233333D02*
X134803390Y-62185714D01*
X134803390Y-62185714D02*
X134851009Y-62138095D01*
X134851009Y-62138095D02*
X134898628Y-62042857D01*
X134898628Y-62042857D02*
X134898628Y-61661905D01*
X134374819Y-63138095D02*
X134374819Y-62661905D01*
X134374819Y-62661905D02*
X134851009Y-62614286D01*
X134851009Y-62614286D02*
X134803390Y-62661905D01*
X134803390Y-62661905D02*
X134755771Y-62757143D01*
X134755771Y-62757143D02*
X134755771Y-62995238D01*
X134755771Y-62995238D02*
X134803390Y-63090476D01*
X134803390Y-63090476D02*
X134851009Y-63138095D01*
X134851009Y-63138095D02*
X134946247Y-63185714D01*
X134946247Y-63185714D02*
X135184342Y-63185714D01*
X135184342Y-63185714D02*
X135279580Y-63138095D01*
X135279580Y-63138095D02*
X135327200Y-63090476D01*
X135327200Y-63090476D02*
X135374819Y-62995238D01*
X135374819Y-62995238D02*
X135374819Y-62757143D01*
X135374819Y-62757143D02*
X135327200Y-62661905D01*
X135327200Y-62661905D02*
X135279580Y-62614286D01*
X162524819Y-68883333D02*
X162048628Y-68550000D01*
X162524819Y-68311905D02*
X161524819Y-68311905D01*
X161524819Y-68311905D02*
X161524819Y-68692857D01*
X161524819Y-68692857D02*
X161572438Y-68788095D01*
X161572438Y-68788095D02*
X161620057Y-68835714D01*
X161620057Y-68835714D02*
X161715295Y-68883333D01*
X161715295Y-68883333D02*
X161858152Y-68883333D01*
X161858152Y-68883333D02*
X161953390Y-68835714D01*
X161953390Y-68835714D02*
X162001009Y-68788095D01*
X162001009Y-68788095D02*
X162048628Y-68692857D01*
X162048628Y-68692857D02*
X162048628Y-68311905D01*
X162524819Y-69835714D02*
X162524819Y-69264286D01*
X162524819Y-69550000D02*
X161524819Y-69550000D01*
X161524819Y-69550000D02*
X161667676Y-69454762D01*
X161667676Y-69454762D02*
X161762914Y-69359524D01*
X161762914Y-69359524D02*
X161810533Y-69264286D01*
X158666666Y-75134819D02*
X158999999Y-74658628D01*
X159238094Y-75134819D02*
X159238094Y-74134819D01*
X159238094Y-74134819D02*
X158857142Y-74134819D01*
X158857142Y-74134819D02*
X158761904Y-74182438D01*
X158761904Y-74182438D02*
X158714285Y-74230057D01*
X158714285Y-74230057D02*
X158666666Y-74325295D01*
X158666666Y-74325295D02*
X158666666Y-74468152D01*
X158666666Y-74468152D02*
X158714285Y-74563390D01*
X158714285Y-74563390D02*
X158761904Y-74611009D01*
X158761904Y-74611009D02*
X158857142Y-74658628D01*
X158857142Y-74658628D02*
X159238094Y-74658628D01*
X158285713Y-74230057D02*
X158238094Y-74182438D01*
X158238094Y-74182438D02*
X158142856Y-74134819D01*
X158142856Y-74134819D02*
X157904761Y-74134819D01*
X157904761Y-74134819D02*
X157809523Y-74182438D01*
X157809523Y-74182438D02*
X157761904Y-74230057D01*
X157761904Y-74230057D02*
X157714285Y-74325295D01*
X157714285Y-74325295D02*
X157714285Y-74420533D01*
X157714285Y-74420533D02*
X157761904Y-74563390D01*
X157761904Y-74563390D02*
X158333332Y-75134819D01*
X158333332Y-75134819D02*
X157714285Y-75134819D01*
X130394819Y-63438095D02*
X131204342Y-63438095D01*
X131204342Y-63438095D02*
X131299580Y-63485714D01*
X131299580Y-63485714D02*
X131347200Y-63533333D01*
X131347200Y-63533333D02*
X131394819Y-63628571D01*
X131394819Y-63628571D02*
X131394819Y-63819047D01*
X131394819Y-63819047D02*
X131347200Y-63914285D01*
X131347200Y-63914285D02*
X131299580Y-63961904D01*
X131299580Y-63961904D02*
X131204342Y-64009523D01*
X131204342Y-64009523D02*
X130394819Y-64009523D01*
X130490057Y-64438095D02*
X130442438Y-64485714D01*
X130442438Y-64485714D02*
X130394819Y-64580952D01*
X130394819Y-64580952D02*
X130394819Y-64819047D01*
X130394819Y-64819047D02*
X130442438Y-64914285D01*
X130442438Y-64914285D02*
X130490057Y-64961904D01*
X130490057Y-64961904D02*
X130585295Y-65009523D01*
X130585295Y-65009523D02*
X130680533Y-65009523D01*
X130680533Y-65009523D02*
X130823390Y-64961904D01*
X130823390Y-64961904D02*
X131394819Y-64390476D01*
X131394819Y-64390476D02*
X131394819Y-65009523D01*
X132374819Y-62233333D02*
X131898628Y-61900000D01*
X132374819Y-61661905D02*
X131374819Y-61661905D01*
X131374819Y-61661905D02*
X131374819Y-62042857D01*
X131374819Y-62042857D02*
X131422438Y-62138095D01*
X131422438Y-62138095D02*
X131470057Y-62185714D01*
X131470057Y-62185714D02*
X131565295Y-62233333D01*
X131565295Y-62233333D02*
X131708152Y-62233333D01*
X131708152Y-62233333D02*
X131803390Y-62185714D01*
X131803390Y-62185714D02*
X131851009Y-62138095D01*
X131851009Y-62138095D02*
X131898628Y-62042857D01*
X131898628Y-62042857D02*
X131898628Y-61661905D01*
X131374819Y-63090476D02*
X131374819Y-62900000D01*
X131374819Y-62900000D02*
X131422438Y-62804762D01*
X131422438Y-62804762D02*
X131470057Y-62757143D01*
X131470057Y-62757143D02*
X131612914Y-62661905D01*
X131612914Y-62661905D02*
X131803390Y-62614286D01*
X131803390Y-62614286D02*
X132184342Y-62614286D01*
X132184342Y-62614286D02*
X132279580Y-62661905D01*
X132279580Y-62661905D02*
X132327200Y-62709524D01*
X132327200Y-62709524D02*
X132374819Y-62804762D01*
X132374819Y-62804762D02*
X132374819Y-62995238D01*
X132374819Y-62995238D02*
X132327200Y-63090476D01*
X132327200Y-63090476D02*
X132279580Y-63138095D01*
X132279580Y-63138095D02*
X132184342Y-63185714D01*
X132184342Y-63185714D02*
X131946247Y-63185714D01*
X131946247Y-63185714D02*
X131851009Y-63138095D01*
X131851009Y-63138095D02*
X131803390Y-63090476D01*
X131803390Y-63090476D02*
X131755771Y-62995238D01*
X131755771Y-62995238D02*
X131755771Y-62804762D01*
X131755771Y-62804762D02*
X131803390Y-62709524D01*
X131803390Y-62709524D02*
X131851009Y-62661905D01*
X131851009Y-62661905D02*
X131946247Y-62614286D01*
X118414819Y-70461905D02*
X117414819Y-70461905D01*
X117414819Y-70461905D02*
X117414819Y-70700000D01*
X117414819Y-70700000D02*
X117462438Y-70842857D01*
X117462438Y-70842857D02*
X117557676Y-70938095D01*
X117557676Y-70938095D02*
X117652914Y-70985714D01*
X117652914Y-70985714D02*
X117843390Y-71033333D01*
X117843390Y-71033333D02*
X117986247Y-71033333D01*
X117986247Y-71033333D02*
X118176723Y-70985714D01*
X118176723Y-70985714D02*
X118271961Y-70938095D01*
X118271961Y-70938095D02*
X118367200Y-70842857D01*
X118367200Y-70842857D02*
X118414819Y-70700000D01*
X118414819Y-70700000D02*
X118414819Y-70461905D01*
X118414819Y-71985714D02*
X118414819Y-71414286D01*
X118414819Y-71700000D02*
X117414819Y-71700000D01*
X117414819Y-71700000D02*
X117557676Y-71604762D01*
X117557676Y-71604762D02*
X117652914Y-71509524D01*
X117652914Y-71509524D02*
X117700533Y-71414286D01*
D11*
%TO.C,J2*%
X155963435Y-74092957D02*
G75*
G02*
X155201435Y-74092957I-381000J0D01*
G01*
X155201435Y-74092957D02*
G75*
G02*
X155963435Y-74092957I381000J0D01*
G01*
D12*
%TO.C,D2*%
X150055000Y-59515000D02*
X150055000Y-62685000D01*
X150055000Y-62685000D02*
X153940000Y-62685000D01*
X153940000Y-59515000D02*
X150055000Y-59515000D01*
%TO.C,R5*%
X135830000Y-63127064D02*
X135830000Y-61672936D01*
X137650000Y-63127064D02*
X137650000Y-61672936D01*
%TO.C,R1*%
X159340000Y-68322936D02*
X159340000Y-69777064D01*
X161160000Y-68322936D02*
X161160000Y-69777064D01*
%TO.C,R2*%
X157772936Y-75590000D02*
X159227064Y-75590000D01*
X157772936Y-77410000D02*
X159227064Y-77410000D01*
%TO.C,U2*%
X123030000Y-62290000D02*
X123030000Y-66050000D01*
X124290000Y-62290000D02*
X123030000Y-62290000D01*
X128590000Y-62290000D02*
X129850000Y-62290000D01*
X129850000Y-62290000D02*
X129850000Y-66050000D01*
X130080000Y-67570000D02*
X129750000Y-67330000D01*
X130080000Y-67090000D01*
X130080000Y-67570000D01*
G36*
X130080000Y-67570000D02*
G01*
X129750000Y-67330000D01*
X130080000Y-67090000D01*
X130080000Y-67570000D01*
G37*
%TO.C,R6*%
X132830000Y-63127064D02*
X132830000Y-61672936D01*
X134650000Y-63127064D02*
X134650000Y-61672936D01*
%TO.C,D1*%
X118655000Y-68915000D02*
X118655000Y-72800000D01*
X121825000Y-68915000D02*
X118655000Y-68915000D01*
X121825000Y-72800000D02*
X121825000Y-68915000D01*
%TD*%
M02*
