%TF.GenerationSoftware,KiCad,Pcbnew,9.0.6*%
%TF.CreationDate,2026-02-27T11:47:06-05:00*%
%TF.ProjectId,Class AB Stereo Amp SMD,436c6173-7320-4414-9220-53746572656f,rev?*%
%TF.SameCoordinates,Original*%
%TF.FileFunction,Soldermask,Bot*%
%TF.FilePolarity,Negative*%
%FSLAX46Y46*%
G04 Gerber Fmt 4.6, Leading zero omitted, Abs format (unit mm)*
G04 Created by KiCad (PCBNEW 9.0.6) date 2026-02-27 11:47:06*
%MOMM*%
%LPD*%
G01*
G04 APERTURE LIST*
G04 Aperture macros list*
%AMFreePoly0*
4,1,6,1.000000,0.000000,0.500000,-0.750000,-0.500000,-0.750000,-0.500000,0.750000,0.500000,0.750000,1.000000,0.000000,1.000000,0.000000,$1*%
%AMFreePoly1*
4,1,6,0.500000,-0.750000,-0.650000,-0.750000,-0.150000,0.000000,-0.650000,0.750000,0.500000,0.750000,0.500000,-0.750000,0.500000,-0.750000,$1*%
G04 Aperture macros list end*
%ADD10R,2.600000X2.600000*%
%ADD11C,2.600000*%
%ADD12C,2.000000*%
%ADD13C,2.154000*%
%ADD14C,1.200000*%
%ADD15O,2.200000X1.200000*%
%ADD16O,1.200000X2.200000*%
%ADD17C,3.200000*%
%ADD18C,1.700000*%
%ADD19R,1.700000X1.700000*%
%ADD20O,1.700000X1.700000*%
%ADD21O,1.700000X3.200000*%
%ADD22C,2.200000*%
%ADD23FreePoly0,270.000000*%
%ADD24FreePoly1,270.000000*%
G04 APERTURE END LIST*
%TO.C,JP1*%
G36*
X73650000Y-105750000D02*
G01*
X75150000Y-105750000D01*
X75150000Y-108200000D01*
X73650000Y-108200000D01*
X73650000Y-105750000D01*
G37*
%TO.C,JP2*%
G36*
X69050000Y-105750000D02*
G01*
X70550000Y-105750000D01*
X70550000Y-108200000D01*
X69050000Y-108200000D01*
X69050000Y-105750000D01*
G37*
%TD*%
D10*
%TO.C,J2*%
X81250000Y-43150000D03*
D11*
X81250000Y-37150000D03*
X76550000Y-40150000D03*
%TD*%
D12*
%TO.C,TP6*%
X85900000Y-105250000D03*
%TD*%
%TO.C,TP4*%
X79000000Y-87250000D03*
%TD*%
%TO.C,TP9*%
X100900000Y-94450000D03*
%TD*%
%TO.C,TP8*%
X106450000Y-64800000D03*
%TD*%
%TO.C,RV1*%
X71000000Y-117100000D03*
X71000000Y-114600000D03*
X71000000Y-112100000D03*
X68500000Y-117100000D03*
X68500000Y-114600000D03*
X68500000Y-112100000D03*
%TD*%
D13*
%TO.C,J7*%
X92650000Y-39725000D03*
X92650000Y-34645000D03*
%TD*%
D14*
%TO.C,J3*%
X67500000Y-74200000D03*
X65000000Y-74200000D03*
X72500000Y-79200000D03*
X67500000Y-84200000D03*
X65000000Y-84200000D03*
D15*
X72500000Y-74200000D03*
D16*
X67500000Y-79200000D03*
D15*
X72500000Y-84200000D03*
%TD*%
D13*
%TO.C,J8*%
X97720000Y-39725000D03*
X97720000Y-34645000D03*
%TD*%
D17*
%TO.C,H2*%
X158000000Y-34000000D03*
%TD*%
D12*
%TO.C,SW1*%
X71150000Y-46000000D03*
X65150000Y-46000000D03*
X71150000Y-58000000D03*
X65150000Y-58000000D03*
D18*
X69400000Y-48000000D03*
X69400000Y-52000000D03*
X69400000Y-56000000D03*
%TD*%
D17*
%TO.C,H1*%
X68000000Y-34000000D03*
%TD*%
D13*
%TO.C,J12*%
X152270000Y-75040000D03*
X157350000Y-75040000D03*
%TD*%
D12*
%TO.C,TP10*%
X159000000Y-62500000D03*
%TD*%
%TO.C,TP11*%
X159000000Y-95500000D03*
%TD*%
D19*
%TO.C,J5*%
X96400000Y-52600000D03*
D20*
X93860000Y-52600000D03*
%TD*%
D17*
%TO.C,H3*%
X68000000Y-124000000D03*
%TD*%
D12*
%TO.C,TP5*%
X74950000Y-123400000D03*
%TD*%
%TO.C,TP1*%
X100500000Y-52600000D03*
%TD*%
%TO.C,TP7*%
X71550000Y-103650000D03*
%TD*%
D21*
%TO.C,J6*%
X107450000Y-120882500D03*
X92950000Y-120882500D03*
D22*
X96200000Y-116882500D03*
X104200000Y-118132500D03*
X100200000Y-121382500D03*
%TD*%
D17*
%TO.C,H4*%
X158000000Y-124000000D03*
%TD*%
D12*
%TO.C,TP2*%
X153200000Y-32400000D03*
%TD*%
D13*
%TO.C,J11*%
X152270000Y-69960000D03*
X157350000Y-69960000D03*
%TD*%
%TO.C,J14*%
X152270000Y-83960000D03*
X157350000Y-83960000D03*
%TD*%
%TO.C,J13*%
X152270000Y-89040000D03*
X157350000Y-89040000D03*
%TD*%
D12*
%TO.C,TP3*%
X72400000Y-70200000D03*
%TD*%
D23*
%TO.C,JP1*%
X74400000Y-106250000D03*
D24*
X74400000Y-107700000D03*
%TD*%
D23*
%TO.C,JP2*%
X69800000Y-106250000D03*
D24*
X69800000Y-107700000D03*
%TD*%
M02*
