%TF.GenerationSoftware,KiCad,Pcbnew,8.0.4*%
%TF.CreationDate,2024-07-30T00:45:45-04:00*%
%TF.ProjectId,ESP32-C3-WROOM-Node-Temperature,45535033-322d-4433-932d-57524f4f4d2d,rev?*%
%TF.SameCoordinates,Original*%
%TF.FileFunction,Soldermask,Bot*%
%TF.FilePolarity,Negative*%
%FSLAX46Y46*%
G04 Gerber Fmt 4.6, Leading zero omitted, Abs format (unit mm)*
G04 Created by KiCad (PCBNEW 8.0.4) date 2024-07-30 00:45:45*
%MOMM*%
%LPD*%
G01*
G04 APERTURE LIST*
G04 Aperture macros list*
%AMRoundRect*
0 Rectangle with rounded corners*
0 $1 Rounding radius*
0 $2 $3 $4 $5 $6 $7 $8 $9 X,Y pos of 4 corners*
0 Add a 4 corners polygon primitive as box body*
4,1,4,$2,$3,$4,$5,$6,$7,$8,$9,$2,$3,0*
0 Add four circle primitives for the rounded corners*
1,1,$1+$1,$2,$3*
1,1,$1+$1,$4,$5*
1,1,$1+$1,$6,$7*
1,1,$1+$1,$8,$9*
0 Add four rect primitives between the rounded corners*
20,1,$1+$1,$2,$3,$4,$5,0*
20,1,$1+$1,$4,$5,$6,$7,0*
20,1,$1+$1,$6,$7,$8,$9,0*
20,1,$1+$1,$8,$9,$2,$3,0*%
%AMOutline5P*
0 Free polygon, 5 corners , with rotation*
0 The origin of the aperture is its center*
0 number of corners: always 5*
0 $1 to $10 corner X, Y*
0 $11 Rotation angle, in degrees counterclockwise*
0 create outline with 5 corners*
4,1,5,$1,$2,$3,$4,$5,$6,$7,$8,$9,$10,$1,$2,$11*%
%AMOutline6P*
0 Free polygon, 6 corners , with rotation*
0 The origin of the aperture is its center*
0 number of corners: always 6*
0 $1 to $12 corner X, Y*
0 $13 Rotation angle, in degrees counterclockwise*
0 create outline with 6 corners*
4,1,6,$1,$2,$3,$4,$5,$6,$7,$8,$9,$10,$11,$12,$1,$2,$13*%
%AMOutline7P*
0 Free polygon, 7 corners , with rotation*
0 The origin of the aperture is its center*
0 number of corners: always 7*
0 $1 to $14 corner X, Y*
0 $15 Rotation angle, in degrees counterclockwise*
0 create outline with 7 corners*
4,1,7,$1,$2,$3,$4,$5,$6,$7,$8,$9,$10,$11,$12,$13,$14,$1,$2,$15*%
%AMOutline8P*
0 Free polygon, 8 corners , with rotation*
0 The origin of the aperture is its center*
0 number of corners: always 8*
0 $1 to $16 corner X, Y*
0 $17 Rotation angle, in degrees counterclockwise*
0 create outline with 8 corners*
4,1,8,$1,$2,$3,$4,$5,$6,$7,$8,$9,$10,$11,$12,$13,$14,$15,$16,$1,$2,$17*%
G04 Aperture macros list end*
%ADD10O,1.252400X1.852400*%
%ADD11R,1.300000X1.300000*%
%ADD12C,1.300000*%
%ADD13O,2.000000X3.000000*%
%ADD14R,1.524000X1.524000*%
%ADD15C,1.524000*%
%ADD16R,1.700000X1.700000*%
%ADD17O,1.700000X1.700000*%
%ADD18Outline5P,-0.850000X0.425000X-0.425000X0.850000X0.850000X0.850000X0.850000X-0.850000X-0.850000X-0.850000X90.000000*%
%ADD19C,5.000000*%
%ADD20R,1.905000X2.000000*%
%ADD21O,1.905000X2.000000*%
%ADD22R,3.000000X2.000000*%
%ADD23O,3.000000X2.000000*%
%ADD24O,1.500000X1.000000*%
%ADD25O,1.000000X1.000000*%
%ADD26R,1.500000X1.500000*%
%ADD27C,1.600000*%
%ADD28RoundRect,0.250000X-0.724784X-0.159099X-0.159099X-0.724784X0.724784X0.159099X0.159099X0.724784X0*%
%ADD29RoundRect,0.375000X0.625000X0.375000X-0.625000X0.375000X-0.625000X-0.375000X0.625000X-0.375000X0*%
%ADD30RoundRect,0.500000X0.500000X1.400000X-0.500000X1.400000X-0.500000X-1.400000X0.500000X-1.400000X0*%
%ADD31RoundRect,0.250000X0.724784X0.159099X0.159099X0.724784X-0.724784X-0.159099X-0.159099X-0.724784X0*%
G04 APERTURE END LIST*
D10*
%TO.C,J5*%
X149920000Y-61520000D03*
X141280000Y-61520000D03*
X149920000Y-65320000D03*
X141280000Y-65320000D03*
%TD*%
D11*
%TO.C,Q1*%
X145830000Y-76830000D03*
D12*
X147100000Y-78100000D03*
X145830000Y-79370000D03*
%TD*%
D13*
%TO.C,J3*%
X121100000Y-95200000D03*
X126180000Y-95200000D03*
%TD*%
D14*
%TO.C,J4*%
X147600000Y-95800000D03*
D15*
X155220000Y-95800000D03*
X152680000Y-95800000D03*
X150140000Y-95800000D03*
%TD*%
D14*
%TO.C,U3*%
X162100000Y-88960000D03*
D15*
X162100000Y-91500000D03*
X162100000Y-94040000D03*
X162100000Y-96580000D03*
%TD*%
D16*
%TO.C,J1*%
X113775000Y-89750000D03*
D17*
X113775000Y-87210000D03*
%TD*%
D18*
%TO.C,U1*%
X152840000Y-84920000D03*
D17*
X155380000Y-84920000D03*
X157920000Y-84920000D03*
X160460000Y-84920000D03*
X163000000Y-84920000D03*
X165540000Y-84920000D03*
X168080000Y-84920000D03*
X170620000Y-84920000D03*
X170620000Y-69680000D03*
X168080000Y-69680000D03*
X165540000Y-69680000D03*
X163000000Y-69680000D03*
X160460000Y-69680000D03*
X157920000Y-69680000D03*
D16*
X155380000Y-69680000D03*
D17*
X152840000Y-69680000D03*
%TD*%
D19*
%TO.C,H1*%
X113600000Y-62300000D03*
X113600000Y-96300000D03*
X172600000Y-96300000D03*
X172600000Y-62300000D03*
%TD*%
D20*
%TO.C,U4*%
X121060000Y-72645000D03*
D21*
X123600000Y-72645000D03*
X126140000Y-72645000D03*
%TD*%
D13*
%TO.C,J2*%
X131700000Y-95200000D03*
X136780000Y-95200000D03*
%TD*%
%TO.C,K1*%
X125600000Y-79300000D03*
X130680000Y-79300000D03*
X120520000Y-79300000D03*
X125600000Y-86800000D03*
X130680000Y-86800000D03*
X120520000Y-86800000D03*
D22*
X138300000Y-79300000D03*
D23*
X138300000Y-86920000D03*
%TD*%
D24*
%TO.C,R2*%
X165800000Y-64270000D03*
D25*
X165800000Y-63000000D03*
%TD*%
D26*
%TO.C,SW1*%
X113800000Y-78760000D03*
D27*
X113800000Y-76220000D03*
X113800000Y-81300000D03*
%TD*%
D28*
%TO.C,R1*%
X161903984Y-74403984D03*
X164096016Y-76596016D03*
%TD*%
D29*
%TO.C,U2*%
X132150000Y-63900000D03*
X132150000Y-66200000D03*
X132150000Y-68500000D03*
D30*
X125850000Y-66200000D03*
%TD*%
D31*
%TO.C,R3*%
X170296016Y-76296016D03*
X168103984Y-74103984D03*
%TD*%
M02*
