%TF.GenerationSoftware,KiCad,Pcbnew,8.0.4*%
%TF.CreationDate,2024-07-30T00:45:45-04:00*%
%TF.ProjectId,ESP32-C3-WROOM-Node-Temperature,45535033-322d-4433-932d-57524f4f4d2d,rev?*%
%TF.SameCoordinates,Original*%
%TF.FileFunction,Legend,Bot*%
%TF.FilePolarity,Positive*%
%FSLAX46Y46*%
G04 Gerber Fmt 4.6, Leading zero omitted, Abs format (unit mm)*
G04 Created by KiCad (PCBNEW 8.0.4) date 2024-07-30 00:45:45*
%MOMM*%
%LPD*%
G01*
G04 APERTURE LIST*
%ADD10C,0.150000*%
%ADD11C,0.120000*%
G04 APERTURE END LIST*
D10*
X164396245Y-74439456D02*
X164968664Y-74338441D01*
X164800306Y-74843517D02*
X165507412Y-74136410D01*
X165507412Y-74136410D02*
X165238038Y-73867036D01*
X165238038Y-73867036D02*
X165137023Y-73833364D01*
X165137023Y-73833364D02*
X165069680Y-73833364D01*
X165069680Y-73833364D02*
X164968664Y-73867036D01*
X164968664Y-73867036D02*
X164867649Y-73968051D01*
X164867649Y-73968051D02*
X164833977Y-74069067D01*
X164833977Y-74069067D02*
X164833977Y-74136410D01*
X164833977Y-74136410D02*
X164867649Y-74237425D01*
X164867649Y-74237425D02*
X165137023Y-74506799D01*
X163722810Y-73766021D02*
X164126871Y-74170082D01*
X163924840Y-73968051D02*
X164631947Y-73260945D01*
X164631947Y-73260945D02*
X164598275Y-73429303D01*
X164598275Y-73429303D02*
X164598275Y-73563990D01*
X164598275Y-73563990D02*
X164631947Y-73665006D01*
X129761904Y-61154819D02*
X129761904Y-61964342D01*
X129761904Y-61964342D02*
X129714285Y-62059580D01*
X129714285Y-62059580D02*
X129666666Y-62107200D01*
X129666666Y-62107200D02*
X129571428Y-62154819D01*
X129571428Y-62154819D02*
X129380952Y-62154819D01*
X129380952Y-62154819D02*
X129285714Y-62107200D01*
X129285714Y-62107200D02*
X129238095Y-62059580D01*
X129238095Y-62059580D02*
X129190476Y-61964342D01*
X129190476Y-61964342D02*
X129190476Y-61154819D01*
X128761904Y-61250057D02*
X128714285Y-61202438D01*
X128714285Y-61202438D02*
X128619047Y-61154819D01*
X128619047Y-61154819D02*
X128380952Y-61154819D01*
X128380952Y-61154819D02*
X128285714Y-61202438D01*
X128285714Y-61202438D02*
X128238095Y-61250057D01*
X128238095Y-61250057D02*
X128190476Y-61345295D01*
X128190476Y-61345295D02*
X128190476Y-61440533D01*
X128190476Y-61440533D02*
X128238095Y-61583390D01*
X128238095Y-61583390D02*
X128809523Y-62154819D01*
X128809523Y-62154819D02*
X128190476Y-62154819D01*
X170283179Y-74352522D02*
X170855598Y-74251507D01*
X170687240Y-74756583D02*
X171394346Y-74049476D01*
X171394346Y-74049476D02*
X171124972Y-73780102D01*
X171124972Y-73780102D02*
X171023957Y-73746430D01*
X171023957Y-73746430D02*
X170956614Y-73746430D01*
X170956614Y-73746430D02*
X170855598Y-73780102D01*
X170855598Y-73780102D02*
X170754583Y-73881117D01*
X170754583Y-73881117D02*
X170720911Y-73982133D01*
X170720911Y-73982133D02*
X170720911Y-74049476D01*
X170720911Y-74049476D02*
X170754583Y-74150491D01*
X170754583Y-74150491D02*
X171023957Y-74419865D01*
X170754583Y-73409713D02*
X170316850Y-72971980D01*
X170316850Y-72971980D02*
X170283179Y-73477056D01*
X170283179Y-73477056D02*
X170182163Y-73376041D01*
X170182163Y-73376041D02*
X170081148Y-73342369D01*
X170081148Y-73342369D02*
X170013805Y-73342369D01*
X170013805Y-73342369D02*
X169912789Y-73376041D01*
X169912789Y-73376041D02*
X169744431Y-73544400D01*
X169744431Y-73544400D02*
X169710759Y-73645415D01*
X169710759Y-73645415D02*
X169710759Y-73712759D01*
X169710759Y-73712759D02*
X169744431Y-73813774D01*
X169744431Y-73813774D02*
X169946461Y-74015804D01*
X169946461Y-74015804D02*
X170047476Y-74049476D01*
X170047476Y-74049476D02*
X170114820Y-74049476D01*
D11*
%TO.C,R1*%
X162870645Y-76657579D02*
X161842421Y-75629355D01*
X164157579Y-75370645D02*
X163129355Y-74342421D01*
%TO.C,U2*%
X127090000Y-62790000D02*
X130850000Y-62790000D01*
X127090000Y-64050000D02*
X127090000Y-62790000D01*
X127090000Y-68350000D02*
X127090000Y-69610000D01*
X127090000Y-69610000D02*
X130850000Y-69610000D01*
X132130000Y-62890000D02*
X131890000Y-62560000D01*
X132370000Y-62560000D01*
X132130000Y-62890000D01*
G36*
X132130000Y-62890000D02*
G01*
X131890000Y-62560000D01*
X132370000Y-62560000D01*
X132130000Y-62890000D01*
G37*
%TO.C,R3*%
X168042421Y-75329355D02*
X169070645Y-76357579D01*
X169329355Y-74042421D02*
X170357579Y-75070645D01*
%TD*%
M02*
