%TF.GenerationSoftware,KiCad,Pcbnew,8.0.4*%
%TF.CreationDate,2024-08-01T02:26:55-04:00*%
%TF.ProjectId,esp32-c3-wroom-socket,65737033-322d-4633-932d-77726f6f6d2d,rev?*%
%TF.SameCoordinates,Original*%
%TF.FileFunction,Soldermask,Bot*%
%TF.FilePolarity,Negative*%
%FSLAX46Y46*%
G04 Gerber Fmt 4.6, Leading zero omitted, Abs format (unit mm)*
G04 Created by KiCad (PCBNEW 8.0.4) date 2024-08-01 02:26:55*
%MOMM*%
%LPD*%
G01*
G04 APERTURE LIST*
G04 Aperture macros list*
%AMRoundRect*
0 Rectangle with rounded corners*
0 $1 Rounding radius*
0 $2 $3 $4 $5 $6 $7 $8 $9 X,Y pos of 4 corners*
0 Add a 4 corners polygon primitive as box body*
4,1,4,$2,$3,$4,$5,$6,$7,$8,$9,$2,$3,0*
0 Add four circle primitives for the rounded corners*
1,1,$1+$1,$2,$3*
1,1,$1+$1,$4,$5*
1,1,$1+$1,$6,$7*
1,1,$1+$1,$8,$9*
0 Add four rect primitives between the rounded corners*
20,1,$1+$1,$2,$3,$4,$5,0*
20,1,$1+$1,$4,$5,$6,$7,0*
20,1,$1+$1,$6,$7,$8,$9,0*
20,1,$1+$1,$8,$9,$2,$3,0*%
%AMOutline5P*
0 Free polygon, 5 corners , with rotation*
0 The origin of the aperture is its center*
0 number of corners: always 5*
0 $1 to $10 corner X, Y*
0 $11 Rotation angle, in degrees counterclockwise*
0 create outline with 5 corners*
4,1,5,$1,$2,$3,$4,$5,$6,$7,$8,$9,$10,$1,$2,$11*%
%AMOutline6P*
0 Free polygon, 6 corners , with rotation*
0 The origin of the aperture is its center*
0 number of corners: always 6*
0 $1 to $12 corner X, Y*
0 $13 Rotation angle, in degrees counterclockwise*
0 create outline with 6 corners*
4,1,6,$1,$2,$3,$4,$5,$6,$7,$8,$9,$10,$11,$12,$1,$2,$13*%
%AMOutline7P*
0 Free polygon, 7 corners , with rotation*
0 The origin of the aperture is its center*
0 number of corners: always 7*
0 $1 to $14 corner X, Y*
0 $15 Rotation angle, in degrees counterclockwise*
0 create outline with 7 corners*
4,1,7,$1,$2,$3,$4,$5,$6,$7,$8,$9,$10,$11,$12,$13,$14,$1,$2,$15*%
%AMOutline8P*
0 Free polygon, 8 corners , with rotation*
0 The origin of the aperture is its center*
0 number of corners: always 8*
0 $1 to $16 corner X, Y*
0 $17 Rotation angle, in degrees counterclockwise*
0 create outline with 8 corners*
4,1,8,$1,$2,$3,$4,$5,$6,$7,$8,$9,$10,$11,$12,$13,$14,$15,$16,$1,$2,$17*%
G04 Aperture macros list end*
%ADD10RoundRect,0.250000X-0.625000X0.400000X-0.625000X-0.400000X0.625000X-0.400000X0.625000X0.400000X0*%
%ADD11RoundRect,0.250000X-0.400000X-0.625000X0.400000X-0.625000X0.400000X0.625000X-0.400000X0.625000X0*%
%ADD12C,0.660400*%
%ADD13O,1.117600X1.905000*%
%ADD14O,1.117600X2.616200*%
%ADD15R,1.700000X1.700000*%
%ADD16C,1.700000*%
%ADD17Outline6P,-0.850000X0.340000X-0.340000X0.850000X0.850000X0.850000X0.850000X-0.340000X0.340000X-0.850000X-0.850000X-0.850000X0.000000*%
%ADD18R,1.117600X1.041400*%
%ADD19RoundRect,0.375000X-0.375000X0.625000X-0.375000X-0.625000X0.375000X-0.625000X0.375000X0.625000X0*%
%ADD20RoundRect,0.500000X-1.400000X0.500000X-1.400000X-0.500000X1.400000X-0.500000X1.400000X0.500000X0*%
%ADD21RoundRect,0.250000X0.400000X0.625000X-0.400000X0.625000X-0.400000X-0.625000X0.400000X-0.625000X0*%
G04 APERTURE END LIST*
D10*
%TO.C,R10*%
X148100000Y-69150000D03*
X148100000Y-72250000D03*
%TD*%
D11*
%TO.C,R9*%
X149750000Y-79600000D03*
X152850000Y-79600000D03*
%TD*%
D12*
%TO.C,J4*%
X148600015Y-75435000D03*
X149450016Y-75435000D03*
X150300014Y-75435000D03*
X151150015Y-75435000D03*
X152000016Y-75435000D03*
X152850017Y-75435000D03*
X153700015Y-75435000D03*
X154550016Y-75435000D03*
X154550016Y-76785000D03*
X153700015Y-76785000D03*
X152850017Y-76785000D03*
X152000016Y-76785000D03*
X151150015Y-76785000D03*
X150300014Y-76785000D03*
X149450016Y-76785000D03*
X148600015Y-76785000D03*
D13*
X147250030Y-79800000D03*
X155900000Y-79800000D03*
D14*
X147250015Y-76415001D03*
X155900000Y-76415000D03*
%TD*%
D15*
%TO.C,J2*%
X144010000Y-59480000D03*
D16*
X144010000Y-62020000D03*
X144010000Y-64560000D03*
X144010000Y-67100000D03*
X144010000Y-69640000D03*
X144010000Y-72180000D03*
X144010000Y-74720000D03*
X144010000Y-77260000D03*
D17*
X144010000Y-79800000D03*
D16*
X169410000Y-79800000D03*
X169410000Y-77260000D03*
X169410000Y-74720000D03*
X169410000Y-72180000D03*
X169410000Y-69640000D03*
X169410000Y-67100000D03*
X169410000Y-64560000D03*
X169410000Y-62020000D03*
X169410000Y-59480000D03*
%TD*%
D10*
%TO.C,R8*%
X152500000Y-63450000D03*
X152500000Y-66550000D03*
%TD*%
D18*
%TO.C,LED1*%
X155109800Y-60100002D03*
X155109800Y-58600000D03*
X158310200Y-58600000D03*
X158310200Y-60100002D03*
%TD*%
D10*
%TO.C,R7*%
X148100000Y-63450000D03*
X148100000Y-66550000D03*
%TD*%
D19*
%TO.C,U2*%
X160600000Y-73850000D03*
X162900000Y-73850000D03*
D20*
X162900000Y-80150000D03*
D19*
X165200000Y-73850000D03*
%TD*%
D21*
%TO.C,R1*%
X150150000Y-60400000D03*
X147050000Y-60400000D03*
%TD*%
%TO.C,R4*%
X165350000Y-59300000D03*
X162250000Y-59300000D03*
%TD*%
M02*
