M48
; DRILL file {KiCad 8.0.4} date 2024-08-01T02:26:52-0400
; FORMAT={-:-/ absolute / inch / decimal}
; #@! TF.CreationDate,2024-08-01T02:26:52-04:00
; #@! TF.GenerationSoftware,Kicad,Pcbnew,8.0.4
; #@! TF.FileFunction,Plated,1,2,PTH
FMAT,2
INCH
; #@! TA.AperFunction,Plated,PTH,ComponentDrill
T1C0.0010
; #@! TA.AperFunction,Plated,PTH,ViaDrill
T2C0.0118
; #@! TA.AperFunction,Plated,PTH,ComponentDrill
T3C0.0118
; #@! TA.AperFunction,Plated,PTH,ComponentDrill
T4C0.0160
; #@! TA.AperFunction,Plated,PTH,ComponentDrill
T5C0.0394
%
G90
G05
T1
X5.7972Y-3.0085
X5.7972Y-3.1417
X6.1378Y-3.0085
X6.1378Y-3.1417
T2
X5.9075Y-2.6319
X5.9094Y-2.7047
X5.9173Y-2.5591
X6.1535Y-2.437
X6.185Y-2.437
X6.2165Y-2.437
X6.248Y-2.437
X6.2943Y-2.7156
X6.3268Y-2.4291
X6.3268Y-2.4606
X6.3268Y-2.4921
X6.3819Y-3.0315
X6.3898Y-2.6969
X6.4134Y-3.0315
X6.4449Y-2.4921
X6.4449Y-3.0315
T3
X6.1732Y-2.5138
X6.1732Y-2.5571
X6.1949Y-2.4921
X6.1949Y-2.5354
X6.1949Y-2.5787
X6.2165Y-2.5138
X6.2165Y-2.5571
X6.2382Y-2.4921
X6.2382Y-2.5354
X6.2382Y-2.5787
X6.2598Y-2.5138
X6.2598Y-2.5571
T4
X5.8504Y-2.9699
X5.8504Y-3.023
X5.8839Y-2.9699
X5.8839Y-3.023
X5.9173Y-2.9699
X5.9173Y-3.023
X5.9508Y-2.9699
X5.9508Y-3.023
X5.9843Y-2.9699
X5.9843Y-3.023
X6.0177Y-2.9699
X6.0177Y-3.023
X6.0512Y-2.9699
X6.0512Y-3.023
X6.0846Y-2.9699
X6.0846Y-3.023
T5
X5.6697Y-2.3417
X5.6697Y-2.4417
X5.6697Y-2.5417
X5.6697Y-2.6417
X5.6697Y-2.7417
X5.6697Y-2.8417
X5.6697Y-2.9417
X5.6697Y-3.0417
X5.6697Y-3.1417
X6.6697Y-2.3417
X6.6697Y-2.4417
X6.6697Y-2.5417
X6.6697Y-2.6417
X6.6697Y-2.7417
X6.6697Y-2.8417
X6.6697Y-2.9417
X6.6697Y-3.0417
X6.6697Y-3.1417
M30
