%TF.GenerationSoftware,KiCad,Pcbnew,8.0.4*%
%TF.CreationDate,2024-07-30T16:51:47-04:00*%
%TF.ProjectId,esp32-c3-wroom-socket,65737033-322d-4633-932d-77726f6f6d2d,rev?*%
%TF.SameCoordinates,Original*%
%TF.FileFunction,Legend,Bot*%
%TF.FilePolarity,Positive*%
%FSLAX46Y46*%
G04 Gerber Fmt 4.6, Leading zero omitted, Abs format (unit mm)*
G04 Created by KiCad (PCBNEW 8.0.4) date 2024-07-30 16:51:47*
%MOMM*%
%LPD*%
G01*
G04 APERTURE LIST*
%ADD10C,0.100000*%
%ADD11C,0.250000*%
%ADD12C,0.000000*%
%ADD13C,0.120000*%
%ADD14C,0.152400*%
%ADD15C,0.508000*%
G04 APERTURE END LIST*
D10*
X165949942Y-61780074D02*
X165949942Y-62065789D01*
X166121371Y-61722931D02*
X165521371Y-61922931D01*
X165521371Y-61922931D02*
X166121371Y-62122931D01*
X165721371Y-62580075D02*
X166121371Y-62580075D01*
X165721371Y-62322932D02*
X166035657Y-62322932D01*
X166035657Y-62322932D02*
X166092800Y-62351503D01*
X166092800Y-62351503D02*
X166121371Y-62408646D01*
X166121371Y-62408646D02*
X166121371Y-62494360D01*
X166121371Y-62494360D02*
X166092800Y-62551503D01*
X166092800Y-62551503D02*
X166064228Y-62580075D01*
X165721371Y-63122932D02*
X166207085Y-63122932D01*
X166207085Y-63122932D02*
X166264228Y-63094360D01*
X166264228Y-63094360D02*
X166292800Y-63065789D01*
X166292800Y-63065789D02*
X166321371Y-63008646D01*
X166321371Y-63008646D02*
X166321371Y-62922932D01*
X166321371Y-62922932D02*
X166292800Y-62865789D01*
X166092800Y-63122932D02*
X166121371Y-63065789D01*
X166121371Y-63065789D02*
X166121371Y-62951503D01*
X166121371Y-62951503D02*
X166092800Y-62894360D01*
X166092800Y-62894360D02*
X166064228Y-62865789D01*
X166064228Y-62865789D02*
X166007085Y-62837217D01*
X166007085Y-62837217D02*
X165835657Y-62837217D01*
X165835657Y-62837217D02*
X165778514Y-62865789D01*
X165778514Y-62865789D02*
X165749942Y-62894360D01*
X165749942Y-62894360D02*
X165721371Y-62951503D01*
X165721371Y-62951503D02*
X165721371Y-63065789D01*
X165721371Y-63065789D02*
X165749942Y-63122932D01*
X165578514Y-63837217D02*
X165549942Y-63865789D01*
X165549942Y-63865789D02*
X165521371Y-63922932D01*
X165521371Y-63922932D02*
X165521371Y-64065789D01*
X165521371Y-64065789D02*
X165549942Y-64122932D01*
X165549942Y-64122932D02*
X165578514Y-64151503D01*
X165578514Y-64151503D02*
X165635657Y-64180074D01*
X165635657Y-64180074D02*
X165692800Y-64180074D01*
X165692800Y-64180074D02*
X165778514Y-64151503D01*
X165778514Y-64151503D02*
X166121371Y-63808646D01*
X166121371Y-63808646D02*
X166121371Y-64180074D01*
X165521371Y-64551503D02*
X165521371Y-64608646D01*
X165521371Y-64608646D02*
X165549942Y-64665789D01*
X165549942Y-64665789D02*
X165578514Y-64694361D01*
X165578514Y-64694361D02*
X165635657Y-64722932D01*
X165635657Y-64722932D02*
X165749942Y-64751503D01*
X165749942Y-64751503D02*
X165892800Y-64751503D01*
X165892800Y-64751503D02*
X166007085Y-64722932D01*
X166007085Y-64722932D02*
X166064228Y-64694361D01*
X166064228Y-64694361D02*
X166092800Y-64665789D01*
X166092800Y-64665789D02*
X166121371Y-64608646D01*
X166121371Y-64608646D02*
X166121371Y-64551503D01*
X166121371Y-64551503D02*
X166092800Y-64494361D01*
X166092800Y-64494361D02*
X166064228Y-64465789D01*
X166064228Y-64465789D02*
X166007085Y-64437218D01*
X166007085Y-64437218D02*
X165892800Y-64408646D01*
X165892800Y-64408646D02*
X165749942Y-64408646D01*
X165749942Y-64408646D02*
X165635657Y-64437218D01*
X165635657Y-64437218D02*
X165578514Y-64465789D01*
X165578514Y-64465789D02*
X165549942Y-64494361D01*
X165549942Y-64494361D02*
X165521371Y-64551503D01*
X165578514Y-64980075D02*
X165549942Y-65008647D01*
X165549942Y-65008647D02*
X165521371Y-65065790D01*
X165521371Y-65065790D02*
X165521371Y-65208647D01*
X165521371Y-65208647D02*
X165549942Y-65265790D01*
X165549942Y-65265790D02*
X165578514Y-65294361D01*
X165578514Y-65294361D02*
X165635657Y-65322932D01*
X165635657Y-65322932D02*
X165692800Y-65322932D01*
X165692800Y-65322932D02*
X165778514Y-65294361D01*
X165778514Y-65294361D02*
X166121371Y-64951504D01*
X166121371Y-64951504D02*
X166121371Y-65322932D01*
X165721371Y-65837219D02*
X166121371Y-65837219D01*
X165492800Y-65694361D02*
X165921371Y-65551504D01*
X165921371Y-65551504D02*
X165921371Y-65922933D01*
X162639285Y-68852447D02*
X162514285Y-67852447D01*
X162561904Y-68233399D02*
X162460713Y-68185780D01*
X162460713Y-68185780D02*
X162270237Y-68185780D01*
X162270237Y-68185780D02*
X162180951Y-68233399D01*
X162180951Y-68233399D02*
X162139285Y-68281018D01*
X162139285Y-68281018D02*
X162103570Y-68376256D01*
X162103570Y-68376256D02*
X162139285Y-68661970D01*
X162139285Y-68661970D02*
X162198808Y-68757208D01*
X162198808Y-68757208D02*
X162252380Y-68804828D01*
X162252380Y-68804828D02*
X162353570Y-68852447D01*
X162353570Y-68852447D02*
X162544047Y-68852447D01*
X162544047Y-68852447D02*
X162633332Y-68804828D01*
X161746427Y-68185780D02*
X161591666Y-68852447D01*
X161270237Y-68185780D02*
X161591666Y-68852447D01*
X161591666Y-68852447D02*
X161716666Y-69090542D01*
X161716666Y-69090542D02*
X161770237Y-69138161D01*
X161770237Y-69138161D02*
X161871427Y-69185780D01*
X160960713Y-68757208D02*
X160919046Y-68804828D01*
X160919046Y-68804828D02*
X160972618Y-68852447D01*
X160972618Y-68852447D02*
X161014284Y-68804828D01*
X161014284Y-68804828D02*
X160960713Y-68757208D01*
X160960713Y-68757208D02*
X160972618Y-68852447D01*
X160895237Y-68233399D02*
X160853570Y-68281018D01*
X160853570Y-68281018D02*
X160907141Y-68328637D01*
X160907141Y-68328637D02*
X160948808Y-68281018D01*
X160948808Y-68281018D02*
X160895237Y-68233399D01*
X160895237Y-68233399D02*
X160907141Y-68328637D01*
X166317857Y-70176676D02*
X165841667Y-70176676D01*
X166448810Y-70462391D02*
X165990476Y-69462391D01*
X165990476Y-69462391D02*
X165782143Y-70462391D01*
X165305953Y-70462391D02*
X165395238Y-70414772D01*
X165395238Y-70414772D02*
X165430953Y-70319533D01*
X165430953Y-70319533D02*
X165323810Y-69462391D01*
X164538095Y-70414772D02*
X164639285Y-70462391D01*
X164639285Y-70462391D02*
X164829762Y-70462391D01*
X164829762Y-70462391D02*
X164919047Y-70414772D01*
X164919047Y-70414772D02*
X164954762Y-70319533D01*
X164954762Y-70319533D02*
X164907143Y-69938581D01*
X164907143Y-69938581D02*
X164847619Y-69843343D01*
X164847619Y-69843343D02*
X164746428Y-69795724D01*
X164746428Y-69795724D02*
X164555952Y-69795724D01*
X164555952Y-69795724D02*
X164466666Y-69843343D01*
X164466666Y-69843343D02*
X164430952Y-69938581D01*
X164430952Y-69938581D02*
X164442857Y-70033819D01*
X164442857Y-70033819D02*
X164930952Y-70129057D01*
X164163095Y-70462391D02*
X163555952Y-69795724D01*
X164079761Y-69795724D02*
X163639285Y-70462391D01*
X162829761Y-70462391D02*
X162764285Y-69938581D01*
X162764285Y-69938581D02*
X162799999Y-69843343D01*
X162799999Y-69843343D02*
X162889285Y-69795724D01*
X162889285Y-69795724D02*
X163079761Y-69795724D01*
X163079761Y-69795724D02*
X163180952Y-69843343D01*
X162823809Y-70414772D02*
X162924999Y-70462391D01*
X162924999Y-70462391D02*
X163163095Y-70462391D01*
X163163095Y-70462391D02*
X163252380Y-70414772D01*
X163252380Y-70414772D02*
X163288095Y-70319533D01*
X163288095Y-70319533D02*
X163276190Y-70224295D01*
X163276190Y-70224295D02*
X163216666Y-70129057D01*
X163216666Y-70129057D02*
X163115476Y-70081438D01*
X163115476Y-70081438D02*
X162877380Y-70081438D01*
X162877380Y-70081438D02*
X162776190Y-70033819D01*
X162270237Y-69795724D02*
X162353571Y-70462391D01*
X162282142Y-69890962D02*
X162228571Y-69843343D01*
X162228571Y-69843343D02*
X162127380Y-69795724D01*
X162127380Y-69795724D02*
X161984523Y-69795724D01*
X161984523Y-69795724D02*
X161895237Y-69843343D01*
X161895237Y-69843343D02*
X161859523Y-69938581D01*
X161859523Y-69938581D02*
X161924999Y-70462391D01*
X161020237Y-70462391D02*
X160895237Y-69462391D01*
X161014285Y-70414772D02*
X161115475Y-70462391D01*
X161115475Y-70462391D02*
X161305952Y-70462391D01*
X161305952Y-70462391D02*
X161395237Y-70414772D01*
X161395237Y-70414772D02*
X161436904Y-70367152D01*
X161436904Y-70367152D02*
X161472618Y-70271914D01*
X161472618Y-70271914D02*
X161436904Y-69986200D01*
X161436904Y-69986200D02*
X161377380Y-69890962D01*
X161377380Y-69890962D02*
X161323809Y-69843343D01*
X161323809Y-69843343D02*
X161222618Y-69795724D01*
X161222618Y-69795724D02*
X161032142Y-69795724D01*
X161032142Y-69795724D02*
X160942856Y-69843343D01*
X160157142Y-70414772D02*
X160258332Y-70462391D01*
X160258332Y-70462391D02*
X160448809Y-70462391D01*
X160448809Y-70462391D02*
X160538094Y-70414772D01*
X160538094Y-70414772D02*
X160573809Y-70319533D01*
X160573809Y-70319533D02*
X160526190Y-69938581D01*
X160526190Y-69938581D02*
X160466666Y-69843343D01*
X160466666Y-69843343D02*
X160365475Y-69795724D01*
X160365475Y-69795724D02*
X160174999Y-69795724D01*
X160174999Y-69795724D02*
X160085713Y-69843343D01*
X160085713Y-69843343D02*
X160049999Y-69938581D01*
X160049999Y-69938581D02*
X160061904Y-70033819D01*
X160061904Y-70033819D02*
X160549999Y-70129057D01*
X159686904Y-70462391D02*
X159603570Y-69795724D01*
X159627380Y-69986200D02*
X159567856Y-69890962D01*
X159567856Y-69890962D02*
X159514285Y-69843343D01*
X159514285Y-69843343D02*
X159413094Y-69795724D01*
X159413094Y-69795724D02*
X159317856Y-69795724D01*
X157907141Y-69938581D02*
X157770236Y-69986200D01*
X157770236Y-69986200D02*
X157728570Y-70033819D01*
X157728570Y-70033819D02*
X157692855Y-70129057D01*
X157692855Y-70129057D02*
X157710713Y-70271914D01*
X157710713Y-70271914D02*
X157770236Y-70367152D01*
X157770236Y-70367152D02*
X157823808Y-70414772D01*
X157823808Y-70414772D02*
X157924998Y-70462391D01*
X157924998Y-70462391D02*
X158305951Y-70462391D01*
X158305951Y-70462391D02*
X158180951Y-69462391D01*
X158180951Y-69462391D02*
X157847617Y-69462391D01*
X157847617Y-69462391D02*
X157758332Y-69510010D01*
X157758332Y-69510010D02*
X157716665Y-69557629D01*
X157716665Y-69557629D02*
X157680951Y-69652867D01*
X157680951Y-69652867D02*
X157692855Y-69748105D01*
X157692855Y-69748105D02*
X157752379Y-69843343D01*
X157752379Y-69843343D02*
X157805951Y-69890962D01*
X157805951Y-69890962D02*
X157907141Y-69938581D01*
X157907141Y-69938581D02*
X158240474Y-69938581D01*
X157294046Y-70367152D02*
X157252379Y-70414772D01*
X157252379Y-70414772D02*
X157305951Y-70462391D01*
X157305951Y-70462391D02*
X157347617Y-70414772D01*
X157347617Y-70414772D02*
X157294046Y-70367152D01*
X157294046Y-70367152D02*
X157305951Y-70462391D01*
D11*
G36*
X165615288Y-58863428D02*
G01*
X165388845Y-58863428D01*
X165338143Y-58838077D01*
X165319210Y-58819145D01*
X165293860Y-58768444D01*
X165293860Y-58684603D01*
X165319210Y-58633901D01*
X165338143Y-58614969D01*
X165388845Y-58589619D01*
X165615288Y-58589619D01*
X165615288Y-58863428D01*
G37*
G36*
X167847431Y-59714619D02*
G01*
X159823622Y-59714619D01*
X159823622Y-59036047D01*
X159948622Y-59036047D01*
X159948622Y-59274142D01*
X159951024Y-59298528D01*
X159952742Y-59302676D01*
X159953061Y-59307158D01*
X159961819Y-59330044D01*
X160009437Y-59425281D01*
X160016044Y-59435777D01*
X160017307Y-59438825D01*
X160020124Y-59442258D01*
X160022492Y-59446019D01*
X160024986Y-59448182D01*
X160032852Y-59457767D01*
X160080471Y-59505387D01*
X160090059Y-59513256D01*
X160092221Y-59515749D01*
X160095975Y-59518112D01*
X160099412Y-59520933D01*
X160102465Y-59522197D01*
X160112958Y-59528803D01*
X160208196Y-59576422D01*
X160231082Y-59585180D01*
X160235562Y-59585498D01*
X160239712Y-59587217D01*
X160264098Y-59589619D01*
X160549812Y-59589619D01*
X160574198Y-59587217D01*
X160578346Y-59585498D01*
X160582828Y-59585180D01*
X160605714Y-59576422D01*
X160700951Y-59528804D01*
X160711447Y-59522196D01*
X160714497Y-59520933D01*
X160717930Y-59518114D01*
X160721689Y-59515749D01*
X160723851Y-59513255D01*
X160733439Y-59505387D01*
X160781058Y-59457768D01*
X160796603Y-59438825D01*
X160815267Y-59393766D01*
X160815267Y-59344992D01*
X160796602Y-59299933D01*
X160762114Y-59265446D01*
X160717054Y-59246782D01*
X160668281Y-59246782D01*
X160623221Y-59265447D01*
X160604280Y-59280993D01*
X160571005Y-59314268D01*
X160520304Y-59339619D01*
X160293607Y-59339619D01*
X160242905Y-59314268D01*
X160223973Y-59295336D01*
X160198622Y-59244634D01*
X160198622Y-59065555D01*
X160223972Y-59014853D01*
X160242905Y-58995921D01*
X160293607Y-58970571D01*
X160406955Y-58970571D01*
X160419848Y-58969301D01*
X160423133Y-58969520D01*
X160425396Y-58968754D01*
X160431341Y-58968169D01*
X160450095Y-58960400D01*
X160469334Y-58953894D01*
X160472506Y-58951118D01*
X160476401Y-58949505D01*
X160490758Y-58935147D01*
X160506039Y-58921777D01*
X160507907Y-58917998D01*
X160510889Y-58915017D01*
X160518656Y-58896264D01*
X160527660Y-58878059D01*
X160527940Y-58873849D01*
X160529553Y-58869957D01*
X160529553Y-58849660D01*
X160530904Y-58829393D01*
X160529553Y-58825398D01*
X160529553Y-58821185D01*
X160521784Y-58802430D01*
X160515278Y-58783192D01*
X160511802Y-58778330D01*
X160510889Y-58776125D01*
X160508562Y-58773798D01*
X160501027Y-58763258D01*
X160349093Y-58589619D01*
X160692669Y-58589619D01*
X160717055Y-58587217D01*
X160762115Y-58568553D01*
X160795198Y-58535470D01*
X160903405Y-58535470D01*
X160903405Y-58584244D01*
X160922070Y-58629303D01*
X160956557Y-58663790D01*
X161001616Y-58682455D01*
X161050390Y-58682455D01*
X161095449Y-58663790D01*
X161114391Y-58648245D01*
X161141145Y-58621491D01*
X161236765Y-58589619D01*
X161291434Y-58589619D01*
X161387051Y-58621491D01*
X161447079Y-58681519D01*
X161479490Y-58746342D01*
X161520050Y-58908579D01*
X161520050Y-59020658D01*
X161479490Y-59182894D01*
X161447080Y-59247715D01*
X161387050Y-59307746D01*
X161291434Y-59339619D01*
X161236765Y-59339619D01*
X161141145Y-59307746D01*
X161114392Y-59280993D01*
X161095450Y-59265447D01*
X161050391Y-59246782D01*
X161001618Y-59246782D01*
X160956558Y-59265446D01*
X160922070Y-59299933D01*
X160903405Y-59344992D01*
X160903405Y-59393765D01*
X160922069Y-59438825D01*
X160937614Y-59457767D01*
X160985233Y-59505387D01*
X161004174Y-59520933D01*
X161008327Y-59522653D01*
X161011719Y-59525595D01*
X161034094Y-59535585D01*
X161176950Y-59583204D01*
X161189043Y-59585953D01*
X161192093Y-59587217D01*
X161196514Y-59587652D01*
X161200844Y-59588637D01*
X161204135Y-59588403D01*
X161216479Y-59589619D01*
X161311717Y-59589619D01*
X161324060Y-59588403D01*
X161327351Y-59588637D01*
X161331680Y-59587652D01*
X161336103Y-59587217D01*
X161339154Y-59585953D01*
X161351245Y-59583204D01*
X161494102Y-59535586D01*
X161516477Y-59525595D01*
X161519869Y-59522652D01*
X161524021Y-59520933D01*
X161542963Y-59505388D01*
X161638201Y-59410149D01*
X161646069Y-59400560D01*
X161648561Y-59398400D01*
X161650925Y-59394643D01*
X161653746Y-59391207D01*
X161655010Y-59388155D01*
X161661615Y-59377663D01*
X161709234Y-59282425D01*
X161709917Y-59280639D01*
X161710454Y-59279915D01*
X161714109Y-59269685D01*
X161717992Y-59259539D01*
X161718055Y-59258639D01*
X161718699Y-59256840D01*
X161766318Y-59066364D01*
X161766943Y-59062134D01*
X161767648Y-59060433D01*
X161767762Y-59059280D01*
X161951024Y-59059280D01*
X161951024Y-59108052D01*
X161969688Y-59153112D01*
X162004176Y-59187600D01*
X162049236Y-59206264D01*
X162073622Y-59208666D01*
X162835526Y-59208666D01*
X162859912Y-59206264D01*
X162904972Y-59187600D01*
X162939460Y-59153112D01*
X162958124Y-59108052D01*
X162958124Y-59059280D01*
X162939460Y-59014220D01*
X162904972Y-58979732D01*
X162859912Y-58961068D01*
X162835526Y-58958666D01*
X162073622Y-58958666D01*
X162049236Y-58961068D01*
X162004176Y-58979732D01*
X161969688Y-59014220D01*
X161951024Y-59059280D01*
X161767762Y-59059280D01*
X161768552Y-59051253D01*
X161769902Y-59042124D01*
X161769630Y-59040301D01*
X161770050Y-59036047D01*
X161770050Y-58893190D01*
X161769630Y-58888935D01*
X161769902Y-58887113D01*
X161768552Y-58877983D01*
X161767648Y-58868804D01*
X161766943Y-58867102D01*
X161766318Y-58862873D01*
X161718699Y-58672397D01*
X161718055Y-58670597D01*
X161717992Y-58669698D01*
X161714109Y-58659551D01*
X161712517Y-58655095D01*
X163139098Y-58655095D01*
X163139098Y-58750333D01*
X163140313Y-58762676D01*
X163140080Y-58765967D01*
X163141064Y-58770296D01*
X163141500Y-58774719D01*
X163142763Y-58777770D01*
X163145513Y-58789861D01*
X163193131Y-58932718D01*
X163203122Y-58955093D01*
X163206065Y-58958486D01*
X163207784Y-58962636D01*
X163223329Y-58981578D01*
X163581369Y-59339619D01*
X163264098Y-59339619D01*
X163239712Y-59342021D01*
X163194652Y-59360685D01*
X163160164Y-59395173D01*
X163141500Y-59440233D01*
X163141500Y-59489005D01*
X163160164Y-59534065D01*
X163194652Y-59568553D01*
X163239712Y-59587217D01*
X163264098Y-59589619D01*
X163883145Y-59589619D01*
X163907531Y-59587217D01*
X163907532Y-59587217D01*
X163920729Y-59581750D01*
X163952591Y-59568553D01*
X163987079Y-59534065D01*
X163998958Y-59505387D01*
X164005743Y-59489006D01*
X164005743Y-59440232D01*
X163999550Y-59425281D01*
X163987079Y-59395173D01*
X163987073Y-59395167D01*
X163971533Y-59376231D01*
X163631350Y-59036047D01*
X164091479Y-59036047D01*
X164091479Y-59274142D01*
X164093881Y-59298528D01*
X164095599Y-59302676D01*
X164095918Y-59307158D01*
X164104676Y-59330044D01*
X164152294Y-59425281D01*
X164158901Y-59435777D01*
X164160164Y-59438825D01*
X164162981Y-59442258D01*
X164165349Y-59446019D01*
X164167843Y-59448182D01*
X164175709Y-59457767D01*
X164223328Y-59505387D01*
X164232916Y-59513256D01*
X164235078Y-59515749D01*
X164238832Y-59518112D01*
X164242269Y-59520933D01*
X164245322Y-59522197D01*
X164255815Y-59528803D01*
X164351053Y-59576422D01*
X164373939Y-59585180D01*
X164378419Y-59585498D01*
X164382569Y-59587217D01*
X164406955Y-59589619D01*
X164692669Y-59589619D01*
X164717055Y-59587217D01*
X164721203Y-59585498D01*
X164725685Y-59585180D01*
X164748571Y-59576422D01*
X164843808Y-59528804D01*
X164854304Y-59522196D01*
X164857354Y-59520933D01*
X164860787Y-59518114D01*
X164864546Y-59515749D01*
X164866708Y-59513255D01*
X164876296Y-59505387D01*
X164923915Y-59457768D01*
X164939460Y-59438825D01*
X164958124Y-59393766D01*
X164958124Y-59344992D01*
X164939459Y-59299933D01*
X164904971Y-59265446D01*
X164859911Y-59246782D01*
X164811138Y-59246782D01*
X164766078Y-59265447D01*
X164747137Y-59280993D01*
X164713862Y-59314268D01*
X164663161Y-59339619D01*
X164436464Y-59339619D01*
X164385762Y-59314268D01*
X164366830Y-59295336D01*
X164341479Y-59244634D01*
X164341479Y-59065555D01*
X164366829Y-59014853D01*
X164385762Y-58995921D01*
X164436464Y-58970571D01*
X164549812Y-58970571D01*
X164562705Y-58969301D01*
X164565990Y-58969520D01*
X164568253Y-58968754D01*
X164574198Y-58968169D01*
X164592952Y-58960400D01*
X164612191Y-58953894D01*
X164615363Y-58951118D01*
X164619258Y-58949505D01*
X164633615Y-58935147D01*
X164648896Y-58921777D01*
X164650764Y-58917998D01*
X164653746Y-58915017D01*
X164661513Y-58896264D01*
X164670517Y-58878059D01*
X164670797Y-58873849D01*
X164672410Y-58869957D01*
X164672410Y-58849660D01*
X164673761Y-58829393D01*
X164672410Y-58825398D01*
X164672410Y-58821185D01*
X164664641Y-58802430D01*
X164658135Y-58783192D01*
X164654659Y-58778330D01*
X164653746Y-58776125D01*
X164651419Y-58773798D01*
X164643884Y-58763258D01*
X164549241Y-58655095D01*
X165043860Y-58655095D01*
X165043860Y-58797952D01*
X165046262Y-58822338D01*
X165047980Y-58826486D01*
X165048299Y-58830968D01*
X165057057Y-58853854D01*
X165104675Y-58949091D01*
X165111284Y-58959589D01*
X165112546Y-58962636D01*
X165115361Y-58966067D01*
X165117730Y-58969829D01*
X165120224Y-58971992D01*
X165128091Y-58981578D01*
X165175709Y-59029197D01*
X165185297Y-59037066D01*
X165187459Y-59039558D01*
X165191216Y-59041923D01*
X165194651Y-59044742D01*
X165197701Y-59046005D01*
X165208196Y-59052612D01*
X165303434Y-59100231D01*
X165326320Y-59108989D01*
X165330800Y-59109307D01*
X165334950Y-59111026D01*
X165359336Y-59113428D01*
X165615288Y-59113428D01*
X165615288Y-59464619D01*
X165617690Y-59489005D01*
X165636354Y-59534065D01*
X165670842Y-59568553D01*
X165715902Y-59587217D01*
X165764674Y-59587217D01*
X165809734Y-59568553D01*
X165844222Y-59534065D01*
X165862886Y-59489005D01*
X165865288Y-59464619D01*
X165865288Y-59178904D01*
X166043860Y-59178904D01*
X166043860Y-59274142D01*
X166046262Y-59298528D01*
X166047980Y-59302676D01*
X166048299Y-59307158D01*
X166057057Y-59330044D01*
X166104675Y-59425281D01*
X166111282Y-59435777D01*
X166112545Y-59438825D01*
X166115362Y-59442258D01*
X166117730Y-59446019D01*
X166120224Y-59448182D01*
X166128090Y-59457767D01*
X166175709Y-59505387D01*
X166185297Y-59513256D01*
X166187459Y-59515749D01*
X166191213Y-59518112D01*
X166194650Y-59520933D01*
X166197703Y-59522197D01*
X166208196Y-59528803D01*
X166303434Y-59576422D01*
X166326320Y-59585180D01*
X166330800Y-59585498D01*
X166334950Y-59587217D01*
X166359336Y-59589619D01*
X166597431Y-59589619D01*
X166609774Y-59588403D01*
X166613065Y-59588637D01*
X166617394Y-59587652D01*
X166621817Y-59587217D01*
X166624868Y-59585953D01*
X166636959Y-59583204D01*
X166779816Y-59535586D01*
X166802191Y-59525595D01*
X166839037Y-59493640D01*
X166860849Y-59450016D01*
X166864306Y-59401366D01*
X166848883Y-59355097D01*
X166816927Y-59318251D01*
X166773303Y-59296439D01*
X166724653Y-59292982D01*
X166700759Y-59298415D01*
X166577148Y-59339619D01*
X166388845Y-59339619D01*
X166338143Y-59314268D01*
X166319211Y-59295336D01*
X166293860Y-59244634D01*
X166293860Y-59208412D01*
X166319210Y-59157710D01*
X166338143Y-59138778D01*
X166402964Y-59106368D01*
X166580129Y-59062077D01*
X166581928Y-59061433D01*
X166582828Y-59061370D01*
X166592974Y-59057487D01*
X166603204Y-59053832D01*
X166603928Y-59053295D01*
X166605714Y-59052612D01*
X166700951Y-59004994D01*
X166711449Y-58998384D01*
X166714496Y-58997123D01*
X166717927Y-58994307D01*
X166721689Y-58991939D01*
X166723852Y-58989444D01*
X166733438Y-58981578D01*
X166781057Y-58933960D01*
X166788926Y-58924371D01*
X166791418Y-58922210D01*
X166793783Y-58918452D01*
X166796602Y-58915018D01*
X166797865Y-58911967D01*
X166804472Y-58901473D01*
X166852091Y-58806235D01*
X166860849Y-58783349D01*
X166861167Y-58778868D01*
X166862886Y-58774719D01*
X166865288Y-58750333D01*
X166865288Y-58655095D01*
X166862886Y-58630709D01*
X166861167Y-58626559D01*
X166860849Y-58622079D01*
X166852091Y-58599193D01*
X166804472Y-58503955D01*
X166797865Y-58493460D01*
X166796602Y-58490410D01*
X166793783Y-58486975D01*
X166791418Y-58483218D01*
X166788926Y-58481056D01*
X166781057Y-58471468D01*
X166749821Y-58440233D01*
X166998643Y-58440233D01*
X166998643Y-58489005D01*
X167017307Y-58534065D01*
X167051795Y-58568553D01*
X167096855Y-58587217D01*
X167121241Y-58589619D01*
X167472431Y-58589619D01*
X167472431Y-58815809D01*
X167264098Y-58815809D01*
X167239712Y-58818211D01*
X167194652Y-58836875D01*
X167160164Y-58871363D01*
X167141500Y-58916423D01*
X167141500Y-58965195D01*
X167160164Y-59010255D01*
X167194652Y-59044743D01*
X167239712Y-59063407D01*
X167264098Y-59065809D01*
X167472431Y-59065809D01*
X167472431Y-59339619D01*
X167121241Y-59339619D01*
X167096855Y-59342021D01*
X167051795Y-59360685D01*
X167017307Y-59395173D01*
X166998643Y-59440233D01*
X166998643Y-59489005D01*
X167017307Y-59534065D01*
X167051795Y-59568553D01*
X167096855Y-59587217D01*
X167121241Y-59589619D01*
X167597431Y-59589619D01*
X167621817Y-59587217D01*
X167666877Y-59568553D01*
X167701365Y-59534065D01*
X167720029Y-59489005D01*
X167722431Y-59464619D01*
X167722431Y-58464619D01*
X167720029Y-58440233D01*
X167701365Y-58395173D01*
X167666877Y-58360685D01*
X167621817Y-58342021D01*
X167597431Y-58339619D01*
X167121241Y-58339619D01*
X167096855Y-58342021D01*
X167051795Y-58360685D01*
X167017307Y-58395173D01*
X166998643Y-58440233D01*
X166749821Y-58440233D01*
X166733438Y-58423850D01*
X166723852Y-58415983D01*
X166721689Y-58413489D01*
X166717927Y-58411120D01*
X166714496Y-58408305D01*
X166711449Y-58407043D01*
X166700951Y-58400434D01*
X166605714Y-58352816D01*
X166582828Y-58344058D01*
X166578346Y-58343739D01*
X166574198Y-58342021D01*
X166549812Y-58339619D01*
X166311717Y-58339619D01*
X166299373Y-58340834D01*
X166296082Y-58340601D01*
X166291752Y-58341585D01*
X166287331Y-58342021D01*
X166284281Y-58343284D01*
X166272188Y-58346034D01*
X166129332Y-58393653D01*
X166106957Y-58403643D01*
X166070111Y-58435598D01*
X166048299Y-58479223D01*
X166044842Y-58527872D01*
X166060265Y-58574141D01*
X166092220Y-58610987D01*
X166135845Y-58632799D01*
X166184494Y-58636256D01*
X166208388Y-58630823D01*
X166332003Y-58589619D01*
X166520304Y-58589619D01*
X166571005Y-58614969D01*
X166589937Y-58633902D01*
X166615288Y-58684603D01*
X166615288Y-58720824D01*
X166589937Y-58771525D01*
X166571005Y-58790458D01*
X166506185Y-58822868D01*
X166329019Y-58867160D01*
X166327219Y-58867803D01*
X166326320Y-58867867D01*
X166316173Y-58871749D01*
X166305944Y-58875405D01*
X166305219Y-58875941D01*
X166303434Y-58876625D01*
X166208196Y-58924244D01*
X166197701Y-58930850D01*
X166194651Y-58932114D01*
X166191216Y-58934932D01*
X166187459Y-58937298D01*
X166185297Y-58939789D01*
X166175709Y-58947659D01*
X166128091Y-58995278D01*
X166120224Y-59004863D01*
X166117730Y-59007027D01*
X166115361Y-59010788D01*
X166112546Y-59014220D01*
X166111284Y-59017266D01*
X166104675Y-59027765D01*
X166057057Y-59123002D01*
X166048299Y-59145888D01*
X166047980Y-59150369D01*
X166046262Y-59154518D01*
X166043860Y-59178904D01*
X165865288Y-59178904D01*
X165865288Y-58464619D01*
X165862886Y-58440233D01*
X165844222Y-58395173D01*
X165809734Y-58360685D01*
X165764674Y-58342021D01*
X165740288Y-58339619D01*
X165359336Y-58339619D01*
X165334950Y-58342021D01*
X165330800Y-58343739D01*
X165326320Y-58344058D01*
X165303434Y-58352816D01*
X165208196Y-58400435D01*
X165197701Y-58407041D01*
X165194651Y-58408305D01*
X165191216Y-58411123D01*
X165187459Y-58413489D01*
X165185297Y-58415980D01*
X165175709Y-58423850D01*
X165128091Y-58471469D01*
X165120224Y-58481054D01*
X165117730Y-58483218D01*
X165115361Y-58486979D01*
X165112546Y-58490411D01*
X165111284Y-58493457D01*
X165104675Y-58503956D01*
X165057057Y-58599193D01*
X165048299Y-58622079D01*
X165047980Y-58626560D01*
X165046262Y-58630709D01*
X165043860Y-58655095D01*
X164549241Y-58655095D01*
X164491950Y-58589619D01*
X164835526Y-58589619D01*
X164859912Y-58587217D01*
X164904972Y-58568553D01*
X164939460Y-58534065D01*
X164958124Y-58489005D01*
X164958124Y-58440233D01*
X164939460Y-58395173D01*
X164904972Y-58360685D01*
X164859912Y-58342021D01*
X164835526Y-58339619D01*
X164216479Y-58339619D01*
X164203585Y-58340889D01*
X164200301Y-58340670D01*
X164198037Y-58341435D01*
X164192093Y-58342021D01*
X164173338Y-58349789D01*
X164154100Y-58356296D01*
X164150927Y-58359071D01*
X164147033Y-58360685D01*
X164132675Y-58375042D01*
X164117395Y-58388413D01*
X164115526Y-58392191D01*
X164112545Y-58395173D01*
X164104774Y-58413932D01*
X164095775Y-58432131D01*
X164095494Y-58436337D01*
X164093881Y-58440233D01*
X164093881Y-58460535D01*
X164092530Y-58480797D01*
X164093881Y-58484791D01*
X164093881Y-58489005D01*
X164101649Y-58507759D01*
X164108156Y-58526998D01*
X164111631Y-58531859D01*
X164112545Y-58534065D01*
X164114871Y-58536391D01*
X164122407Y-58546932D01*
X164305721Y-58756433D01*
X164255815Y-58781387D01*
X164245320Y-58787993D01*
X164242270Y-58789257D01*
X164238835Y-58792075D01*
X164235078Y-58794441D01*
X164232916Y-58796932D01*
X164223328Y-58804802D01*
X164175710Y-58852421D01*
X164167843Y-58862006D01*
X164165349Y-58864170D01*
X164162980Y-58867931D01*
X164160165Y-58871363D01*
X164158903Y-58874409D01*
X164152294Y-58884908D01*
X164104676Y-58980145D01*
X164095918Y-59003031D01*
X164095599Y-59007512D01*
X164093881Y-59011661D01*
X164091479Y-59036047D01*
X163631350Y-59036047D01*
X163420970Y-58825667D01*
X163389098Y-58730049D01*
X163389098Y-58684603D01*
X163414448Y-58633901D01*
X163433381Y-58614969D01*
X163484083Y-58589619D01*
X163663161Y-58589619D01*
X163713862Y-58614969D01*
X163747137Y-58648245D01*
X163766079Y-58663790D01*
X163811139Y-58682455D01*
X163859912Y-58682455D01*
X163904972Y-58663790D01*
X163939459Y-58629303D01*
X163958124Y-58584243D01*
X163958124Y-58535470D01*
X163939459Y-58490410D01*
X163923914Y-58471468D01*
X163876295Y-58423850D01*
X163866709Y-58415983D01*
X163864546Y-58413489D01*
X163860784Y-58411120D01*
X163857353Y-58408305D01*
X163854306Y-58407043D01*
X163843808Y-58400434D01*
X163748571Y-58352816D01*
X163725685Y-58344058D01*
X163721203Y-58343739D01*
X163717055Y-58342021D01*
X163692669Y-58339619D01*
X163454574Y-58339619D01*
X163430188Y-58342021D01*
X163426038Y-58343739D01*
X163421558Y-58344058D01*
X163398672Y-58352816D01*
X163303434Y-58400435D01*
X163292939Y-58407041D01*
X163289889Y-58408305D01*
X163286454Y-58411123D01*
X163282697Y-58413489D01*
X163280535Y-58415980D01*
X163270947Y-58423850D01*
X163223329Y-58471469D01*
X163215462Y-58481054D01*
X163212968Y-58483218D01*
X163210599Y-58486979D01*
X163207784Y-58490411D01*
X163206522Y-58493457D01*
X163199913Y-58503956D01*
X163152295Y-58599193D01*
X163143537Y-58622079D01*
X163143218Y-58626560D01*
X163141500Y-58630709D01*
X163139098Y-58655095D01*
X161712517Y-58655095D01*
X161710454Y-58649322D01*
X161709917Y-58648597D01*
X161709234Y-58646812D01*
X161661615Y-58551574D01*
X161655007Y-58541077D01*
X161653745Y-58538030D01*
X161650928Y-58534598D01*
X161648561Y-58530837D01*
X161646066Y-58528673D01*
X161638200Y-58519088D01*
X161542962Y-58423850D01*
X161524020Y-58408305D01*
X161519870Y-58406586D01*
X161516477Y-58403643D01*
X161494102Y-58393652D01*
X161351245Y-58346034D01*
X161339154Y-58343284D01*
X161336103Y-58342021D01*
X161331680Y-58341585D01*
X161327351Y-58340601D01*
X161324060Y-58340834D01*
X161311717Y-58339619D01*
X161216479Y-58339619D01*
X161204135Y-58340834D01*
X161200844Y-58340601D01*
X161196514Y-58341585D01*
X161192093Y-58342021D01*
X161189043Y-58343284D01*
X161176950Y-58346034D01*
X161034094Y-58393653D01*
X161011719Y-58403643D01*
X161008326Y-58406585D01*
X161004175Y-58408305D01*
X160985233Y-58423850D01*
X160937615Y-58471469D01*
X160922070Y-58490411D01*
X160903405Y-58535470D01*
X160795198Y-58535470D01*
X160796603Y-58534065D01*
X160815267Y-58489005D01*
X160815267Y-58440233D01*
X160796603Y-58395173D01*
X160762115Y-58360685D01*
X160717055Y-58342021D01*
X160692669Y-58339619D01*
X160073622Y-58339619D01*
X160060728Y-58340889D01*
X160057444Y-58340670D01*
X160055180Y-58341435D01*
X160049236Y-58342021D01*
X160030481Y-58349789D01*
X160011243Y-58356296D01*
X160008070Y-58359071D01*
X160004176Y-58360685D01*
X159989818Y-58375042D01*
X159974538Y-58388413D01*
X159972669Y-58392191D01*
X159969688Y-58395173D01*
X159961917Y-58413932D01*
X159952918Y-58432131D01*
X159952637Y-58436337D01*
X159951024Y-58440233D01*
X159951024Y-58460535D01*
X159949673Y-58480797D01*
X159951024Y-58484791D01*
X159951024Y-58489005D01*
X159958792Y-58507759D01*
X159965299Y-58526998D01*
X159968774Y-58531859D01*
X159969688Y-58534065D01*
X159972014Y-58536391D01*
X159979550Y-58546932D01*
X160162864Y-58756433D01*
X160112958Y-58781387D01*
X160102463Y-58787993D01*
X160099413Y-58789257D01*
X160095978Y-58792075D01*
X160092221Y-58794441D01*
X160090059Y-58796932D01*
X160080471Y-58804802D01*
X160032853Y-58852421D01*
X160024986Y-58862006D01*
X160022492Y-58864170D01*
X160020123Y-58867931D01*
X160017308Y-58871363D01*
X160016046Y-58874409D01*
X160009437Y-58884908D01*
X159961819Y-58980145D01*
X159953061Y-59003031D01*
X159952742Y-59007512D01*
X159951024Y-59011661D01*
X159948622Y-59036047D01*
X159823622Y-59036047D01*
X159823622Y-58214619D01*
X167847431Y-58214619D01*
X167847431Y-59714619D01*
G37*
D12*
%TO.C,G\u002A\u002A\u002A*%
G36*
X156824104Y-77938716D02*
G01*
X156973697Y-77969041D01*
X157307893Y-78051328D01*
X157658767Y-78159144D01*
X158039428Y-78297764D01*
X158462984Y-78472463D01*
X158942542Y-78688515D01*
X159491212Y-78951193D01*
X160122101Y-79265774D01*
X160375783Y-79393769D01*
X160932057Y-79670373D01*
X161408967Y-79899444D01*
X161819301Y-80085280D01*
X162175843Y-80232183D01*
X162491382Y-80344451D01*
X162778702Y-80426385D01*
X163050591Y-80482285D01*
X163319835Y-80516451D01*
X163599220Y-80533182D01*
X163901532Y-80536780D01*
X164008736Y-80535703D01*
X164368882Y-80520103D01*
X164663761Y-80483348D01*
X164928960Y-80421444D01*
X164953715Y-80414340D01*
X165140991Y-80364298D01*
X165278362Y-80333932D01*
X165337610Y-80329586D01*
X165312187Y-80360974D01*
X165206823Y-80424819D01*
X165043316Y-80508932D01*
X164845100Y-80602307D01*
X164635610Y-80693936D01*
X164438283Y-80772815D01*
X164276552Y-80827934D01*
X164136305Y-80864944D01*
X163867108Y-80923955D01*
X163612913Y-80967752D01*
X163393123Y-80988182D01*
X163016347Y-80995041D01*
X162595636Y-80977783D01*
X162168371Y-80938227D01*
X161771928Y-80878191D01*
X161589195Y-80840673D01*
X161245133Y-80754062D01*
X160869864Y-80638501D01*
X160446623Y-80488235D01*
X159958645Y-80297514D01*
X159389164Y-80060583D01*
X158555216Y-79719804D01*
X157629391Y-79377410D01*
X156766340Y-79098797D01*
X155973638Y-78886382D01*
X155258862Y-78742582D01*
X155229417Y-78738004D01*
X154934975Y-78705592D01*
X154592481Y-78686237D01*
X154233620Y-78679979D01*
X153890075Y-78686858D01*
X153593529Y-78706915D01*
X153375667Y-78740189D01*
X153277967Y-78761789D01*
X153145044Y-78784490D01*
X153084473Y-78784838D01*
X153099846Y-78756656D01*
X153193720Y-78688432D01*
X153351225Y-78594268D01*
X153551442Y-78485444D01*
X153773452Y-78373239D01*
X153996336Y-78268934D01*
X154199173Y-78183806D01*
X154683682Y-78025058D01*
X155393185Y-77888445D01*
X156110902Y-77859268D01*
X156824104Y-77938716D01*
G37*
G36*
X167318438Y-75969316D02*
G01*
X167377088Y-76049193D01*
X167460917Y-76196488D01*
X167562597Y-76403696D01*
X167608590Y-76508211D01*
X167775479Y-77033748D01*
X167837052Y-77548952D01*
X167798180Y-78044134D01*
X167663735Y-78509605D01*
X167438587Y-78935675D01*
X167127607Y-79312655D01*
X166735668Y-79630855D01*
X166267640Y-79880586D01*
X165728395Y-80052158D01*
X165656358Y-80067087D01*
X165165643Y-80109580D01*
X164610479Y-80064085D01*
X163992990Y-79931273D01*
X163315301Y-79711815D01*
X162579537Y-79406384D01*
X161787822Y-79015648D01*
X160942279Y-78540280D01*
X160738935Y-78421188D01*
X160273265Y-78164384D01*
X159852925Y-77959732D01*
X159449045Y-77793823D01*
X159032757Y-77653246D01*
X158870701Y-77605361D01*
X158685579Y-77559200D01*
X158505403Y-77529039D01*
X158301157Y-77511561D01*
X158043820Y-77503448D01*
X157704376Y-77501384D01*
X157584717Y-77501544D01*
X157267053Y-77505567D01*
X157026666Y-77516920D01*
X156837820Y-77538179D01*
X156674775Y-77571920D01*
X156511795Y-77620718D01*
X156507899Y-77622016D01*
X156326043Y-77678799D01*
X156191226Y-77713924D01*
X156132379Y-77719833D01*
X156137578Y-77694296D01*
X156213795Y-77619577D01*
X156355178Y-77513170D01*
X156542085Y-77388021D01*
X156754874Y-77257079D01*
X156973904Y-77133288D01*
X157179535Y-77029596D01*
X157414227Y-76926555D01*
X157812094Y-76788125D01*
X158190455Y-76712070D01*
X158588804Y-76688840D01*
X158663816Y-76689454D01*
X159011845Y-76711209D01*
X159348121Y-76768755D01*
X159688470Y-76868411D01*
X160048716Y-77016499D01*
X160444687Y-77219341D01*
X160892206Y-77483257D01*
X161407100Y-77814570D01*
X161508562Y-77881562D01*
X162192584Y-78317437D01*
X162807923Y-78679024D01*
X163363179Y-78970210D01*
X163866953Y-79194884D01*
X164327847Y-79356931D01*
X164754460Y-79460239D01*
X165155393Y-79508697D01*
X165456923Y-79517210D01*
X165727801Y-79499081D01*
X165963615Y-79448878D01*
X166136850Y-79388488D01*
X166527243Y-79173404D01*
X166874123Y-78869435D01*
X167163375Y-78490507D01*
X167380883Y-78050547D01*
X167439992Y-77827906D01*
X167480174Y-77506159D01*
X167492183Y-77145850D01*
X167476378Y-76783528D01*
X167433118Y-76455744D01*
X167362759Y-76199049D01*
X167305998Y-76041838D01*
X167292299Y-75964362D01*
X167318438Y-75969316D01*
G37*
G36*
X165791247Y-78773085D02*
G01*
X165763457Y-78800875D01*
X165735668Y-78773085D01*
X165763457Y-78745295D01*
X165791247Y-78773085D01*
G37*
G36*
X161587436Y-76980532D02*
G01*
X161692451Y-77064967D01*
X161886742Y-77211382D01*
X162201259Y-77343037D01*
X162583217Y-77401370D01*
X163038630Y-77387136D01*
X163573511Y-77301089D01*
X163577163Y-77300319D01*
X163914951Y-77234994D01*
X164172034Y-77201933D01*
X164373801Y-77200998D01*
X164545640Y-77232054D01*
X164712939Y-77294963D01*
X164903297Y-77410752D01*
X165100145Y-77633593D01*
X165206573Y-77914052D01*
X165215304Y-78102684D01*
X165134665Y-78363229D01*
X164944045Y-78619408D01*
X164933468Y-78630304D01*
X164812174Y-78741384D01*
X164751943Y-78769709D01*
X164759302Y-78717364D01*
X164840780Y-78586433D01*
X164881739Y-78524177D01*
X164984459Y-78270239D01*
X164988805Y-78025532D01*
X164897239Y-77808267D01*
X164712229Y-77636658D01*
X164642632Y-77597000D01*
X164440280Y-77520434D01*
X164205925Y-77492046D01*
X163916275Y-77510602D01*
X163548040Y-77574864D01*
X163420446Y-77600025D01*
X163146282Y-77645689D01*
X162897037Y-77677155D01*
X162714341Y-77688735D01*
X162587325Y-77681187D01*
X162249965Y-77597470D01*
X161937879Y-77435483D01*
X161689830Y-77213219D01*
X161654216Y-77168794D01*
X161568130Y-77043105D01*
X161545933Y-76976798D01*
X161587436Y-76980532D01*
G37*
G36*
X166819832Y-75549453D02*
G01*
X166932980Y-75711272D01*
X167095433Y-76001567D01*
X167200141Y-76271271D01*
X167253395Y-76533409D01*
X167261483Y-76801007D01*
X167230695Y-77087090D01*
X167211949Y-77191655D01*
X167070071Y-77663170D01*
X166847032Y-78061132D01*
X166544627Y-78382948D01*
X166164656Y-78626023D01*
X166029383Y-78689262D01*
X165913486Y-78733402D01*
X165892900Y-78720809D01*
X165967550Y-78651199D01*
X166137359Y-78524292D01*
X166225407Y-78457561D01*
X166544345Y-78135159D01*
X166774371Y-77758169D01*
X166912178Y-77340542D01*
X166954463Y-76896231D01*
X166897920Y-76439187D01*
X166739244Y-75983364D01*
X166726013Y-75955301D01*
X166641939Y-75787100D01*
X166577076Y-75673980D01*
X166544537Y-75639125D01*
X166540164Y-75663340D01*
X166549992Y-75770873D01*
X166578753Y-75929832D01*
X166607717Y-76167873D01*
X166571345Y-76457135D01*
X166536699Y-76569043D01*
X166463382Y-76744565D01*
X166377644Y-76908472D01*
X166296230Y-77029792D01*
X166235886Y-77077554D01*
X166226307Y-77054700D01*
X166219631Y-76948953D01*
X166223420Y-76786139D01*
X166238743Y-76494311D01*
X166096300Y-76781503D01*
X166019604Y-76911160D01*
X165901289Y-77072230D01*
X165768361Y-77228161D01*
X165640535Y-77357561D01*
X165537530Y-77439037D01*
X165479060Y-77451197D01*
X165478233Y-77391861D01*
X165511793Y-77276519D01*
X165515666Y-77265845D01*
X165553411Y-77099881D01*
X165568928Y-76914080D01*
X165568928Y-76701918D01*
X165353147Y-76917698D01*
X165323600Y-76946704D01*
X165180480Y-77069581D01*
X165077618Y-77128735D01*
X165027839Y-77119252D01*
X165043968Y-77036214D01*
X165057293Y-77004120D01*
X165111815Y-76775764D01*
X165098395Y-76568274D01*
X165018459Y-76416270D01*
X164960706Y-76367522D01*
X164820301Y-76311640D01*
X164641961Y-76321353D01*
X164410174Y-76398883D01*
X164109428Y-76546452D01*
X163711080Y-76743456D01*
X163229533Y-76933031D01*
X162786755Y-77052234D01*
X162400875Y-77095241D01*
X162318890Y-77094599D01*
X162020776Y-77058269D01*
X161784103Y-76958726D01*
X161577670Y-76784182D01*
X161449214Y-76646643D01*
X161802354Y-76624157D01*
X161944295Y-76610712D01*
X162141716Y-76566120D01*
X162312351Y-76480871D01*
X162475655Y-76340442D01*
X162651081Y-76130308D01*
X162858084Y-75835944D01*
X162858406Y-75835468D01*
X163290153Y-75835468D01*
X163291998Y-75867819D01*
X163319109Y-75904805D01*
X163389426Y-75866722D01*
X163516748Y-75748258D01*
X163544391Y-75719879D01*
X163649487Y-75587200D01*
X163660998Y-75549453D01*
X166458206Y-75549453D01*
X166485996Y-75577243D01*
X166513786Y-75549453D01*
X166485996Y-75521663D01*
X166458206Y-75549453D01*
X163660998Y-75549453D01*
X163676553Y-75498442D01*
X163620979Y-75466083D01*
X163609007Y-75467727D01*
X163520597Y-75522659D01*
X163415279Y-75627612D01*
X163327111Y-75744558D01*
X163290153Y-75835468D01*
X162858406Y-75835468D01*
X162894980Y-75781458D01*
X163194532Y-75371499D01*
X163482371Y-75033918D01*
X163748899Y-74779096D01*
X163984521Y-74617412D01*
X164002294Y-74608578D01*
X164273323Y-74522444D01*
X164640174Y-74476958D01*
X164696100Y-74473320D01*
X164884682Y-74455907D01*
X165012375Y-74435813D01*
X165054092Y-74416691D01*
X164947130Y-74201646D01*
X164880237Y-73992024D01*
X164854225Y-73761485D01*
X164860134Y-73466104D01*
X164864038Y-73404353D01*
X164887756Y-73165369D01*
X164920533Y-72959615D01*
X164956503Y-72826039D01*
X165026773Y-72659300D01*
X165103359Y-72984723D01*
X165151728Y-73157991D01*
X165345024Y-73614732D01*
X165633172Y-74085081D01*
X166008104Y-74555029D01*
X166036262Y-74586583D01*
X166409684Y-75016805D01*
X166706493Y-75387360D01*
X166784164Y-75498442D01*
X166819832Y-75549453D01*
G37*
G36*
X164188365Y-72821532D02*
G01*
X164230550Y-72964989D01*
X164267936Y-73096924D01*
X164365538Y-73382968D01*
X164480896Y-73666344D01*
X164602066Y-73920962D01*
X164717104Y-74120731D01*
X164814064Y-74239562D01*
X164863752Y-74289844D01*
X164901969Y-74363831D01*
X164901944Y-74364428D01*
X164849213Y-74387686D01*
X164714775Y-74399999D01*
X164527166Y-74398710D01*
X164436701Y-74394544D01*
X164273902Y-74381578D01*
X164184399Y-74355487D01*
X164141095Y-74304172D01*
X164116893Y-74215536D01*
X164099208Y-74081419D01*
X164086502Y-73870222D01*
X164080421Y-73619739D01*
X164080882Y-73360025D01*
X164087804Y-73121134D01*
X164101102Y-72933121D01*
X164120697Y-72826039D01*
X164127120Y-72810808D01*
X164157260Y-72774403D01*
X164188365Y-72821532D01*
G37*
D13*
%TO.C,R8*%
X148110000Y-65677064D02*
X148110000Y-64222936D01*
X146290000Y-65677064D02*
X146290000Y-64222936D01*
D14*
%TO.C,LED1*%
X157487373Y-57876801D02*
X155932627Y-57876801D01*
X157487373Y-60823201D02*
X155932627Y-60823201D01*
D13*
%TO.C,U2*%
X149090000Y-64220000D02*
X148760000Y-64460000D01*
X148760000Y-63980000D01*
X149090000Y-64220000D01*
G36*
X149090000Y-64220000D02*
G01*
X148760000Y-64460000D01*
X148760000Y-63980000D01*
X149090000Y-64220000D01*
G37*
X155810000Y-69260000D02*
X155810000Y-65500000D01*
X154550000Y-69260000D02*
X155810000Y-69260000D01*
X150250000Y-69260000D02*
X148990000Y-69260000D01*
X148990000Y-69260000D02*
X148990000Y-65500000D01*
%TO.C,R1*%
X147872936Y-59490000D02*
X149327064Y-59490000D01*
X147872936Y-61310000D02*
X149327064Y-61310000D01*
%TO.C,R5*%
X146090000Y-79927064D02*
X146090000Y-78472936D01*
X147910000Y-79927064D02*
X147910000Y-78472936D01*
%TO.C,R4*%
X162490000Y-62072936D02*
X162490000Y-63527064D01*
X164310000Y-62072936D02*
X164310000Y-63527064D01*
%TO.C,R6*%
X156110000Y-75677064D02*
X156110000Y-74222936D01*
X154290000Y-75677064D02*
X154290000Y-74222936D01*
D15*
%TO.C,J3*%
X148854199Y-79799999D02*
G75*
G02*
X148092199Y-79799999I-381000J0D01*
G01*
X148092199Y-79799999D02*
G75*
G02*
X148854199Y-79799999I381000J0D01*
G01*
%TD*%
M02*
