%TF.GenerationSoftware,KiCad,Pcbnew,8.0.4*%
%TF.CreationDate,2024-08-01T02:26:55-04:00*%
%TF.ProjectId,esp32-c3-wroom-socket,65737033-322d-4633-932d-77726f6f6d2d,rev?*%
%TF.SameCoordinates,Original*%
%TF.FileFunction,Legend,Top*%
%TF.FilePolarity,Positive*%
%FSLAX46Y46*%
G04 Gerber Fmt 4.6, Leading zero omitted, Abs format (unit mm)*
G04 Created by KiCad (PCBNEW 8.0.4) date 2024-08-01 02:26:55*
%MOMM*%
%LPD*%
G01*
G04 APERTURE LIST*
%ADD10C,0.250000*%
%ADD11C,0.150000*%
%ADD12C,0.200000*%
%ADD13C,0.127000*%
%ADD14C,0.120000*%
%ADD15C,0.152400*%
%ADD16C,0.508000*%
%ADD17C,0.500000*%
G04 APERTURE END LIST*
D10*
G36*
X152461856Y-72314969D02*
G01*
X152480788Y-72333902D01*
X152506139Y-72384603D01*
X152506139Y-72468443D01*
X152480788Y-72519144D01*
X152461856Y-72538077D01*
X152411155Y-72563428D01*
X152184711Y-72563428D01*
X152184711Y-72289619D01*
X152411155Y-72289619D01*
X152461856Y-72314969D01*
G37*
G36*
X157976377Y-73414619D02*
G01*
X149952568Y-73414619D01*
X149952568Y-72164619D01*
X150077568Y-72164619D01*
X150077568Y-73164619D01*
X150079970Y-73189005D01*
X150098634Y-73234065D01*
X150133122Y-73268553D01*
X150178182Y-73287217D01*
X150202568Y-73289619D01*
X150678758Y-73289619D01*
X150703144Y-73287217D01*
X150748204Y-73268553D01*
X150782692Y-73234065D01*
X150801356Y-73189005D01*
X150801356Y-73140233D01*
X150782692Y-73095173D01*
X150748204Y-73060685D01*
X150703144Y-73042021D01*
X150678758Y-73039619D01*
X150327568Y-73039619D01*
X150327568Y-72765809D01*
X150535901Y-72765809D01*
X150560287Y-72763407D01*
X150605347Y-72744743D01*
X150639835Y-72710255D01*
X150658499Y-72665195D01*
X150658499Y-72616423D01*
X150639835Y-72571363D01*
X150605347Y-72536875D01*
X150560287Y-72518211D01*
X150535901Y-72515809D01*
X150327568Y-72515809D01*
X150327568Y-72355095D01*
X150934711Y-72355095D01*
X150934711Y-72450333D01*
X150937113Y-72474719D01*
X150938831Y-72478867D01*
X150939150Y-72483349D01*
X150947908Y-72506235D01*
X150995526Y-72601472D01*
X151002135Y-72611970D01*
X151003397Y-72615017D01*
X151006212Y-72618448D01*
X151008581Y-72622210D01*
X151011075Y-72624373D01*
X151018942Y-72633959D01*
X151066560Y-72681578D01*
X151076148Y-72689447D01*
X151078310Y-72691939D01*
X151082067Y-72694304D01*
X151085502Y-72697123D01*
X151088552Y-72698386D01*
X151099047Y-72704993D01*
X151194285Y-72752612D01*
X151196070Y-72753295D01*
X151196795Y-72753832D01*
X151207024Y-72757487D01*
X151217171Y-72761370D01*
X151218070Y-72761433D01*
X151219870Y-72762077D01*
X151397036Y-72806368D01*
X151461856Y-72838778D01*
X151480788Y-72857711D01*
X151506139Y-72908412D01*
X151506139Y-72944633D01*
X151480787Y-72995336D01*
X151461856Y-73014268D01*
X151411155Y-73039619D01*
X151222854Y-73039619D01*
X151099239Y-72998415D01*
X151075345Y-72992982D01*
X151026696Y-72996439D01*
X150983071Y-73018251D01*
X150951116Y-73055097D01*
X150935693Y-73101366D01*
X150939150Y-73150015D01*
X150960962Y-73193640D01*
X150997808Y-73225595D01*
X151020183Y-73235585D01*
X151163039Y-73283204D01*
X151175132Y-73285953D01*
X151178182Y-73287217D01*
X151182603Y-73287652D01*
X151186933Y-73288637D01*
X151190224Y-73288403D01*
X151202568Y-73289619D01*
X151440663Y-73289619D01*
X151465049Y-73287217D01*
X151469197Y-73285498D01*
X151473679Y-73285180D01*
X151496565Y-73276422D01*
X151591802Y-73228804D01*
X151602298Y-73222196D01*
X151605348Y-73220933D01*
X151608781Y-73218114D01*
X151612540Y-73215749D01*
X151614702Y-73213255D01*
X151624290Y-73205387D01*
X151671909Y-73157768D01*
X151679776Y-73148180D01*
X151682269Y-73146019D01*
X151684635Y-73142259D01*
X151687454Y-73138825D01*
X151688716Y-73135776D01*
X151695323Y-73125282D01*
X151742942Y-73030044D01*
X151751700Y-73007158D01*
X151752018Y-73002677D01*
X151753737Y-72998528D01*
X151756139Y-72974142D01*
X151756139Y-72878904D01*
X151753737Y-72854518D01*
X151752018Y-72850368D01*
X151751700Y-72845888D01*
X151742942Y-72823002D01*
X151695323Y-72727764D01*
X151688716Y-72717269D01*
X151687453Y-72714219D01*
X151684634Y-72710784D01*
X151682269Y-72707027D01*
X151679777Y-72704865D01*
X151671908Y-72695277D01*
X151624289Y-72647659D01*
X151614703Y-72639792D01*
X151612540Y-72637298D01*
X151608778Y-72634929D01*
X151605347Y-72632114D01*
X151602300Y-72630852D01*
X151591802Y-72624243D01*
X151496565Y-72576625D01*
X151494779Y-72575941D01*
X151494055Y-72575405D01*
X151483825Y-72571749D01*
X151473679Y-72567867D01*
X151472779Y-72567803D01*
X151470980Y-72567160D01*
X151293815Y-72522868D01*
X151228994Y-72490458D01*
X151210061Y-72471526D01*
X151184711Y-72420825D01*
X151184711Y-72384603D01*
X151210061Y-72333901D01*
X151228994Y-72314969D01*
X151279696Y-72289619D01*
X151467999Y-72289619D01*
X151591610Y-72330823D01*
X151615504Y-72336256D01*
X151664154Y-72332799D01*
X151707778Y-72310987D01*
X151739734Y-72274141D01*
X151755157Y-72227872D01*
X151751700Y-72179222D01*
X151744398Y-72164619D01*
X151934711Y-72164619D01*
X151934711Y-73164619D01*
X151937113Y-73189005D01*
X151955777Y-73234065D01*
X151990265Y-73268553D01*
X152035325Y-73287217D01*
X152084097Y-73287217D01*
X152129157Y-73268553D01*
X152163645Y-73234065D01*
X152182309Y-73189005D01*
X152184711Y-73164619D01*
X152184711Y-72813428D01*
X152440663Y-72813428D01*
X152465049Y-72811026D01*
X152469197Y-72809307D01*
X152473679Y-72808989D01*
X152496565Y-72800231D01*
X152591802Y-72752613D01*
X152602300Y-72746003D01*
X152605347Y-72744742D01*
X152608778Y-72741926D01*
X152612540Y-72739558D01*
X152614703Y-72737063D01*
X152624289Y-72729197D01*
X152671908Y-72681579D01*
X152679777Y-72671990D01*
X152682269Y-72669829D01*
X152684634Y-72666071D01*
X152687453Y-72662637D01*
X152688716Y-72659586D01*
X152695323Y-72649092D01*
X152742942Y-72553854D01*
X152751700Y-72530968D01*
X152752018Y-72526487D01*
X152753737Y-72522338D01*
X152756139Y-72497952D01*
X152756139Y-72355095D01*
X152753737Y-72330709D01*
X152752018Y-72326559D01*
X152751700Y-72322079D01*
X152742942Y-72299193D01*
X152695323Y-72203955D01*
X152688716Y-72193460D01*
X152687453Y-72190410D01*
X152684634Y-72186975D01*
X152682269Y-72183218D01*
X152679777Y-72181056D01*
X152671908Y-72171468D01*
X152640672Y-72140233D01*
X152841875Y-72140233D01*
X152841875Y-72189005D01*
X152860539Y-72234065D01*
X152895027Y-72268553D01*
X152940087Y-72287217D01*
X152964473Y-72289619D01*
X153308049Y-72289619D01*
X153156115Y-72463258D01*
X153148579Y-72473798D01*
X153146253Y-72476125D01*
X153145339Y-72478330D01*
X153141864Y-72483192D01*
X153135357Y-72502430D01*
X153127589Y-72521185D01*
X153127589Y-72525398D01*
X153126238Y-72529393D01*
X153127589Y-72549654D01*
X153127589Y-72569957D01*
X153129202Y-72573852D01*
X153129483Y-72578059D01*
X153138482Y-72596257D01*
X153146253Y-72615017D01*
X153149234Y-72617998D01*
X153151103Y-72621777D01*
X153166383Y-72635147D01*
X153180741Y-72649505D01*
X153184635Y-72651118D01*
X153187808Y-72653894D01*
X153207046Y-72660400D01*
X153225801Y-72668169D01*
X153231745Y-72668754D01*
X153234009Y-72669520D01*
X153237293Y-72669300D01*
X153250187Y-72670571D01*
X153363536Y-72670571D01*
X153414237Y-72695921D01*
X153433169Y-72714854D01*
X153458520Y-72765555D01*
X153458520Y-72944633D01*
X153433168Y-72995336D01*
X153414237Y-73014268D01*
X153363536Y-73039619D01*
X153136839Y-73039619D01*
X153086137Y-73014268D01*
X153052862Y-72980993D01*
X153033920Y-72965447D01*
X152988861Y-72946782D01*
X152940088Y-72946782D01*
X152895028Y-72965446D01*
X152860540Y-72999933D01*
X152841875Y-73044992D01*
X152841875Y-73093765D01*
X152860539Y-73138825D01*
X152876084Y-73157767D01*
X152923703Y-73205387D01*
X152933291Y-73213256D01*
X152935453Y-73215749D01*
X152939207Y-73218112D01*
X152942644Y-73220933D01*
X152945697Y-73222197D01*
X152956190Y-73228803D01*
X153051428Y-73276422D01*
X153074314Y-73285180D01*
X153078794Y-73285498D01*
X153082944Y-73287217D01*
X153107330Y-73289619D01*
X153393044Y-73289619D01*
X153417430Y-73287217D01*
X153421578Y-73285498D01*
X153426060Y-73285180D01*
X153448946Y-73276422D01*
X153544183Y-73228804D01*
X153554679Y-73222196D01*
X153557729Y-73220933D01*
X153561162Y-73218114D01*
X153564921Y-73215749D01*
X153567083Y-73213255D01*
X153576671Y-73205387D01*
X153624290Y-73157768D01*
X153632157Y-73148180D01*
X153634650Y-73146019D01*
X153637016Y-73142259D01*
X153638680Y-73140232D01*
X153794256Y-73140232D01*
X153794256Y-73189006D01*
X153799722Y-73202203D01*
X153812920Y-73234065D01*
X153847408Y-73268553D01*
X153879269Y-73281750D01*
X153892467Y-73287217D01*
X153892468Y-73287217D01*
X153916854Y-73289619D01*
X154535901Y-73289619D01*
X154560287Y-73287217D01*
X154605347Y-73268553D01*
X154639835Y-73234065D01*
X154658499Y-73189005D01*
X154658499Y-73140233D01*
X154639835Y-73095173D01*
X154605347Y-73060685D01*
X154560287Y-73042021D01*
X154535901Y-73039619D01*
X154218630Y-73039619D01*
X154498968Y-72759280D01*
X154841875Y-72759280D01*
X154841875Y-72808052D01*
X154860539Y-72853112D01*
X154895027Y-72887600D01*
X154940087Y-72906264D01*
X154964473Y-72908666D01*
X155726378Y-72908666D01*
X155750764Y-72906264D01*
X155795824Y-72887600D01*
X155830312Y-72853112D01*
X155848976Y-72808052D01*
X155848976Y-72759280D01*
X155830312Y-72714220D01*
X155795824Y-72679732D01*
X155750764Y-72661068D01*
X155726378Y-72658666D01*
X154964473Y-72658666D01*
X154940087Y-72661068D01*
X154895027Y-72679732D01*
X154860539Y-72714220D01*
X154841875Y-72759280D01*
X154498968Y-72759280D01*
X154576670Y-72681578D01*
X154592215Y-72662636D01*
X154593933Y-72658486D01*
X154596877Y-72655093D01*
X154606867Y-72632718D01*
X154620043Y-72593190D01*
X156029949Y-72593190D01*
X156029949Y-72736047D01*
X156030368Y-72740301D01*
X156030097Y-72742123D01*
X156031446Y-72751251D01*
X156032351Y-72760433D01*
X156033055Y-72762134D01*
X156033681Y-72766364D01*
X156081300Y-72956840D01*
X156081943Y-72958639D01*
X156082007Y-72959539D01*
X156085889Y-72969685D01*
X156089545Y-72979915D01*
X156090081Y-72980639D01*
X156090765Y-72982425D01*
X156138383Y-73077662D01*
X156144989Y-73088156D01*
X156146253Y-73091207D01*
X156149073Y-73094643D01*
X156151438Y-73098400D01*
X156153929Y-73100560D01*
X156161798Y-73110149D01*
X156257036Y-73205388D01*
X156275978Y-73220933D01*
X156280129Y-73222652D01*
X156283522Y-73225595D01*
X156305897Y-73235585D01*
X156448753Y-73283204D01*
X156460846Y-73285953D01*
X156463896Y-73287217D01*
X156468317Y-73287652D01*
X156472647Y-73288637D01*
X156475938Y-73288403D01*
X156488282Y-73289619D01*
X156583520Y-73289619D01*
X156595863Y-73288403D01*
X156599154Y-73288637D01*
X156603483Y-73287652D01*
X156607906Y-73287217D01*
X156610957Y-73285953D01*
X156623048Y-73283204D01*
X156765905Y-73235586D01*
X156788280Y-73225595D01*
X156791672Y-73222652D01*
X156795824Y-73220933D01*
X156814766Y-73205387D01*
X156862385Y-73157768D01*
X156877930Y-73138825D01*
X156896594Y-73093766D01*
X156896594Y-73044992D01*
X156877929Y-72999933D01*
X156843441Y-72965446D01*
X156798381Y-72946782D01*
X156749608Y-72946782D01*
X156704548Y-72965447D01*
X156685607Y-72980993D01*
X156658854Y-73007746D01*
X156563237Y-73039619D01*
X156508568Y-73039619D01*
X156412949Y-73007746D01*
X156352918Y-72947715D01*
X156320508Y-72882896D01*
X156279949Y-72720658D01*
X156279949Y-72608579D01*
X156320508Y-72446341D01*
X156352919Y-72381520D01*
X156412947Y-72321491D01*
X156508568Y-72289619D01*
X156563237Y-72289619D01*
X156658854Y-72321491D01*
X156685607Y-72348245D01*
X156704549Y-72363790D01*
X156749609Y-72382455D01*
X156798382Y-72382455D01*
X156843442Y-72363790D01*
X156877929Y-72329303D01*
X156896594Y-72284243D01*
X156896594Y-72235470D01*
X156877929Y-72190410D01*
X156862384Y-72171468D01*
X156831148Y-72140233D01*
X156984732Y-72140233D01*
X156984732Y-72189005D01*
X157003396Y-72234065D01*
X157037884Y-72268553D01*
X157082944Y-72287217D01*
X157107330Y-72289619D01*
X157450906Y-72289619D01*
X157298972Y-72463258D01*
X157291436Y-72473798D01*
X157289110Y-72476125D01*
X157288196Y-72478330D01*
X157284721Y-72483192D01*
X157278214Y-72502430D01*
X157270446Y-72521185D01*
X157270446Y-72525398D01*
X157269095Y-72529393D01*
X157270446Y-72549654D01*
X157270446Y-72569957D01*
X157272059Y-72573852D01*
X157272340Y-72578059D01*
X157281339Y-72596257D01*
X157289110Y-72615017D01*
X157292091Y-72617998D01*
X157293960Y-72621777D01*
X157309240Y-72635147D01*
X157323598Y-72649505D01*
X157327492Y-72651118D01*
X157330665Y-72653894D01*
X157349903Y-72660400D01*
X157368658Y-72668169D01*
X157374602Y-72668754D01*
X157376866Y-72669520D01*
X157380150Y-72669300D01*
X157393044Y-72670571D01*
X157506393Y-72670571D01*
X157557094Y-72695921D01*
X157576026Y-72714854D01*
X157601377Y-72765555D01*
X157601377Y-72944633D01*
X157576025Y-72995336D01*
X157557094Y-73014268D01*
X157506393Y-73039619D01*
X157279696Y-73039619D01*
X157228994Y-73014268D01*
X157195719Y-72980993D01*
X157176777Y-72965447D01*
X157131718Y-72946782D01*
X157082945Y-72946782D01*
X157037885Y-72965446D01*
X157003397Y-72999933D01*
X156984732Y-73044992D01*
X156984732Y-73093765D01*
X157003396Y-73138825D01*
X157018941Y-73157767D01*
X157066560Y-73205387D01*
X157076148Y-73213256D01*
X157078310Y-73215749D01*
X157082064Y-73218112D01*
X157085501Y-73220933D01*
X157088554Y-73222197D01*
X157099047Y-73228803D01*
X157194285Y-73276422D01*
X157217171Y-73285180D01*
X157221651Y-73285498D01*
X157225801Y-73287217D01*
X157250187Y-73289619D01*
X157535901Y-73289619D01*
X157560287Y-73287217D01*
X157564435Y-73285498D01*
X157568917Y-73285180D01*
X157591803Y-73276422D01*
X157687040Y-73228804D01*
X157697536Y-73222196D01*
X157700586Y-73220933D01*
X157704019Y-73218114D01*
X157707778Y-73215749D01*
X157709940Y-73213255D01*
X157719528Y-73205387D01*
X157767147Y-73157768D01*
X157775014Y-73148180D01*
X157777507Y-73146019D01*
X157779873Y-73142259D01*
X157782692Y-73138825D01*
X157783954Y-73135776D01*
X157790561Y-73125282D01*
X157838180Y-73030044D01*
X157846938Y-73007158D01*
X157847256Y-73002677D01*
X157848975Y-72998528D01*
X157851377Y-72974142D01*
X157851377Y-72736047D01*
X157848975Y-72711661D01*
X157847256Y-72707511D01*
X157846938Y-72703031D01*
X157838180Y-72680145D01*
X157790561Y-72584907D01*
X157783954Y-72574412D01*
X157782691Y-72571362D01*
X157779872Y-72567927D01*
X157777507Y-72564170D01*
X157775015Y-72562008D01*
X157767146Y-72552420D01*
X157719527Y-72504802D01*
X157709941Y-72496935D01*
X157707778Y-72494441D01*
X157704016Y-72492072D01*
X157700585Y-72489257D01*
X157697538Y-72487995D01*
X157687040Y-72481386D01*
X157637134Y-72456433D01*
X157820449Y-72246932D01*
X157827984Y-72236391D01*
X157830311Y-72234065D01*
X157831224Y-72231859D01*
X157834700Y-72226998D01*
X157841206Y-72207759D01*
X157848975Y-72189005D01*
X157848975Y-72184791D01*
X157850326Y-72180797D01*
X157848975Y-72160529D01*
X157848975Y-72140233D01*
X157847362Y-72136340D01*
X157847082Y-72132131D01*
X157838078Y-72113925D01*
X157830311Y-72095173D01*
X157827329Y-72092191D01*
X157825461Y-72088413D01*
X157810180Y-72075042D01*
X157795823Y-72060685D01*
X157791928Y-72059071D01*
X157788756Y-72056296D01*
X157769517Y-72049789D01*
X157750763Y-72042021D01*
X157744818Y-72041435D01*
X157742555Y-72040670D01*
X157739270Y-72040888D01*
X157726377Y-72039619D01*
X157107330Y-72039619D01*
X157082944Y-72042021D01*
X157037884Y-72060685D01*
X157003396Y-72095173D01*
X156984732Y-72140233D01*
X156831148Y-72140233D01*
X156814765Y-72123850D01*
X156795823Y-72108305D01*
X156791673Y-72106586D01*
X156788280Y-72103643D01*
X156765905Y-72093652D01*
X156623048Y-72046034D01*
X156610957Y-72043284D01*
X156607906Y-72042021D01*
X156603483Y-72041585D01*
X156599154Y-72040601D01*
X156595863Y-72040834D01*
X156583520Y-72039619D01*
X156488282Y-72039619D01*
X156475938Y-72040834D01*
X156472647Y-72040601D01*
X156468317Y-72041585D01*
X156463896Y-72042021D01*
X156460846Y-72043284D01*
X156448753Y-72046034D01*
X156305897Y-72093653D01*
X156283522Y-72103643D01*
X156280128Y-72106586D01*
X156275979Y-72108305D01*
X156257037Y-72123850D01*
X156161799Y-72219088D01*
X156153932Y-72228673D01*
X156151438Y-72230837D01*
X156149069Y-72234598D01*
X156146254Y-72238030D01*
X156144992Y-72241076D01*
X156138383Y-72251575D01*
X156090765Y-72346812D01*
X156090081Y-72348597D01*
X156089545Y-72349322D01*
X156085889Y-72359551D01*
X156082007Y-72369698D01*
X156081943Y-72370597D01*
X156081300Y-72372397D01*
X156033681Y-72562873D01*
X156033055Y-72567102D01*
X156032351Y-72568804D01*
X156031446Y-72577985D01*
X156030097Y-72587114D01*
X156030368Y-72588935D01*
X156029949Y-72593190D01*
X154620043Y-72593190D01*
X154654486Y-72489862D01*
X154657235Y-72477768D01*
X154658499Y-72474719D01*
X154658934Y-72470297D01*
X154659919Y-72465968D01*
X154659685Y-72462676D01*
X154660901Y-72450333D01*
X154660901Y-72355095D01*
X154658499Y-72330709D01*
X154656780Y-72326559D01*
X154656462Y-72322079D01*
X154647704Y-72299193D01*
X154600085Y-72203955D01*
X154593478Y-72193460D01*
X154592215Y-72190410D01*
X154589396Y-72186975D01*
X154587031Y-72183218D01*
X154584539Y-72181056D01*
X154576670Y-72171468D01*
X154529051Y-72123850D01*
X154519465Y-72115983D01*
X154517302Y-72113489D01*
X154513540Y-72111120D01*
X154510109Y-72108305D01*
X154507062Y-72107043D01*
X154496564Y-72100434D01*
X154401327Y-72052816D01*
X154378441Y-72044058D01*
X154373959Y-72043739D01*
X154369811Y-72042021D01*
X154345425Y-72039619D01*
X154107330Y-72039619D01*
X154082944Y-72042021D01*
X154078794Y-72043739D01*
X154074314Y-72044058D01*
X154051428Y-72052816D01*
X153956190Y-72100435D01*
X153945695Y-72107041D01*
X153942645Y-72108305D01*
X153939210Y-72111123D01*
X153935453Y-72113489D01*
X153933291Y-72115980D01*
X153923703Y-72123850D01*
X153876085Y-72171469D01*
X153860540Y-72190411D01*
X153841875Y-72235470D01*
X153841875Y-72284244D01*
X153860540Y-72329303D01*
X153895027Y-72363790D01*
X153940086Y-72382455D01*
X153988860Y-72382455D01*
X154033919Y-72363790D01*
X154052861Y-72348245D01*
X154086137Y-72314969D01*
X154136839Y-72289619D01*
X154315917Y-72289619D01*
X154366618Y-72314969D01*
X154385550Y-72333902D01*
X154410901Y-72384603D01*
X154410901Y-72430047D01*
X154379028Y-72525667D01*
X153828466Y-73076231D01*
X153812925Y-73095167D01*
X153812920Y-73095173D01*
X153800449Y-73125282D01*
X153794256Y-73140232D01*
X153638680Y-73140232D01*
X153639835Y-73138825D01*
X153641097Y-73135776D01*
X153647704Y-73125282D01*
X153695323Y-73030044D01*
X153704081Y-73007158D01*
X153704399Y-73002677D01*
X153706118Y-72998528D01*
X153708520Y-72974142D01*
X153708520Y-72736047D01*
X153706118Y-72711661D01*
X153704399Y-72707511D01*
X153704081Y-72703031D01*
X153695323Y-72680145D01*
X153647704Y-72584907D01*
X153641097Y-72574412D01*
X153639834Y-72571362D01*
X153637015Y-72567927D01*
X153634650Y-72564170D01*
X153632158Y-72562008D01*
X153624289Y-72552420D01*
X153576670Y-72504802D01*
X153567084Y-72496935D01*
X153564921Y-72494441D01*
X153561159Y-72492072D01*
X153557728Y-72489257D01*
X153554681Y-72487995D01*
X153544183Y-72481386D01*
X153494277Y-72456433D01*
X153677592Y-72246932D01*
X153685127Y-72236391D01*
X153687454Y-72234065D01*
X153688367Y-72231859D01*
X153691843Y-72226998D01*
X153698349Y-72207759D01*
X153706118Y-72189005D01*
X153706118Y-72184791D01*
X153707469Y-72180797D01*
X153706118Y-72160529D01*
X153706118Y-72140233D01*
X153704505Y-72136340D01*
X153704225Y-72132131D01*
X153695221Y-72113925D01*
X153687454Y-72095173D01*
X153684472Y-72092191D01*
X153682604Y-72088413D01*
X153667323Y-72075042D01*
X153652966Y-72060685D01*
X153649071Y-72059071D01*
X153645899Y-72056296D01*
X153626660Y-72049789D01*
X153607906Y-72042021D01*
X153601961Y-72041435D01*
X153599698Y-72040670D01*
X153596413Y-72040888D01*
X153583520Y-72039619D01*
X152964473Y-72039619D01*
X152940087Y-72042021D01*
X152895027Y-72060685D01*
X152860539Y-72095173D01*
X152841875Y-72140233D01*
X152640672Y-72140233D01*
X152624289Y-72123850D01*
X152614703Y-72115983D01*
X152612540Y-72113489D01*
X152608778Y-72111120D01*
X152605347Y-72108305D01*
X152602300Y-72107043D01*
X152591802Y-72100434D01*
X152496565Y-72052816D01*
X152473679Y-72044058D01*
X152469197Y-72043739D01*
X152465049Y-72042021D01*
X152440663Y-72039619D01*
X152059711Y-72039619D01*
X152035325Y-72042021D01*
X151990265Y-72060685D01*
X151955777Y-72095173D01*
X151937113Y-72140233D01*
X151934711Y-72164619D01*
X151744398Y-72164619D01*
X151729888Y-72135598D01*
X151693042Y-72103643D01*
X151670667Y-72093652D01*
X151527810Y-72046034D01*
X151515719Y-72043284D01*
X151512668Y-72042021D01*
X151508245Y-72041585D01*
X151503916Y-72040601D01*
X151500625Y-72040834D01*
X151488282Y-72039619D01*
X151250187Y-72039619D01*
X151225801Y-72042021D01*
X151221651Y-72043739D01*
X151217171Y-72044058D01*
X151194285Y-72052816D01*
X151099047Y-72100435D01*
X151088552Y-72107041D01*
X151085502Y-72108305D01*
X151082067Y-72111123D01*
X151078310Y-72113489D01*
X151076148Y-72115980D01*
X151066560Y-72123850D01*
X151018942Y-72171469D01*
X151011075Y-72181054D01*
X151008581Y-72183218D01*
X151006212Y-72186979D01*
X151003397Y-72190411D01*
X151002135Y-72193457D01*
X150995526Y-72203956D01*
X150947908Y-72299193D01*
X150939150Y-72322079D01*
X150938831Y-72326560D01*
X150937113Y-72330709D01*
X150934711Y-72355095D01*
X150327568Y-72355095D01*
X150327568Y-72289619D01*
X150678758Y-72289619D01*
X150703144Y-72287217D01*
X150748204Y-72268553D01*
X150782692Y-72234065D01*
X150801356Y-72189005D01*
X150801356Y-72140233D01*
X150782692Y-72095173D01*
X150748204Y-72060685D01*
X150703144Y-72042021D01*
X150678758Y-72039619D01*
X150202568Y-72039619D01*
X150178182Y-72042021D01*
X150133122Y-72060685D01*
X150098634Y-72095173D01*
X150079970Y-72140233D01*
X150077568Y-72164619D01*
X149952568Y-72164619D01*
X149952568Y-71914619D01*
X157976377Y-71914619D01*
X157976377Y-73414619D01*
G37*
D11*
X149603095Y-49469819D02*
X149603095Y-50279342D01*
X149603095Y-50279342D02*
X149650714Y-50374580D01*
X149650714Y-50374580D02*
X149698333Y-50422200D01*
X149698333Y-50422200D02*
X149793571Y-50469819D01*
X149793571Y-50469819D02*
X149984047Y-50469819D01*
X149984047Y-50469819D02*
X150079285Y-50422200D01*
X150079285Y-50422200D02*
X150126904Y-50374580D01*
X150126904Y-50374580D02*
X150174523Y-50279342D01*
X150174523Y-50279342D02*
X150174523Y-49469819D01*
X151174523Y-50469819D02*
X150603095Y-50469819D01*
X150888809Y-50469819D02*
X150888809Y-49469819D01*
X150888809Y-49469819D02*
X150793571Y-49612676D01*
X150793571Y-49612676D02*
X150698333Y-49707914D01*
X150698333Y-49707914D02*
X150603095Y-49755533D01*
X151241681Y-75564819D02*
X151241681Y-76279104D01*
X151241681Y-76279104D02*
X151194062Y-76421961D01*
X151194062Y-76421961D02*
X151098824Y-76517200D01*
X151098824Y-76517200D02*
X150955967Y-76564819D01*
X150955967Y-76564819D02*
X150860729Y-76564819D01*
X152146443Y-75898152D02*
X152146443Y-76564819D01*
X151908348Y-75517200D02*
X151670253Y-76231485D01*
X151670253Y-76231485D02*
X152289300Y-76231485D01*
D12*
%TO.C,U1*%
X146540000Y-58200000D02*
G75*
G02*
X146340000Y-58200000I-100000J0D01*
G01*
X146340000Y-58200000D02*
G75*
G02*
X146540000Y-58200000I100000J0D01*
G01*
D13*
X165940000Y-71100000D02*
X165940000Y-70970000D01*
X165940000Y-57430000D02*
X165940000Y-51100000D01*
X165940000Y-51100000D02*
X147940000Y-51100000D01*
X147940000Y-71100000D02*
X165940000Y-71100000D01*
X147940000Y-71100000D02*
X147940000Y-70970000D01*
X147940000Y-51100000D02*
X147940000Y-57430000D01*
D14*
%TO.C,SW1*%
X161490000Y-73650000D02*
X161950000Y-73650000D01*
X158250000Y-73650000D02*
X158710000Y-73650000D01*
X158250000Y-73650000D02*
X158250000Y-79850000D01*
X161950000Y-79850000D02*
X161950000Y-73650000D01*
X161490000Y-79850000D02*
X161950000Y-79850000D01*
X158710000Y-79850000D02*
X158710000Y-80850000D01*
X158250000Y-79850000D02*
X158710000Y-79850000D01*
X159550000Y-78250000D02*
X160600000Y-78250000D01*
X160600000Y-75400000D01*
X159550000Y-75400000D01*
X159550000Y-78250000D01*
D15*
%TO.C,J4*%
X146977615Y-74448000D02*
X146977615Y-74816794D01*
X146977615Y-78013207D02*
X146977615Y-78557399D01*
X146977615Y-81042602D02*
X146977615Y-84176199D01*
X146977615Y-84176199D02*
X156172415Y-84176199D01*
X156172415Y-74448000D02*
X146977615Y-74448000D01*
X156172415Y-74816798D02*
X156172415Y-74448000D01*
X156172415Y-78557399D02*
X156172415Y-78013201D01*
X156172415Y-84176199D02*
X156172415Y-81042602D01*
D16*
X146180675Y-75779872D02*
G75*
G02*
X146372115Y-75055143I161940J344872D01*
G01*
D17*
%TO.C,J2*%
X141470000Y-59480000D02*
X141470000Y-79800000D01*
D10*
X144010000Y-56940000D02*
X169410000Y-56940000D01*
D17*
X144010000Y-82340000D02*
X169410000Y-82340000D01*
X171950000Y-59480000D02*
X171950000Y-79800000D01*
X141470000Y-59480000D02*
G75*
G02*
X144010000Y-56940000I2540001J-1D01*
G01*
X144010000Y-82340000D02*
G75*
G02*
X141470000Y-79800000I1J2540001D01*
G01*
X169410000Y-56940000D02*
G75*
G02*
X171950000Y-59480000I0J-2540000D01*
G01*
X171950000Y-79800000D02*
G75*
G02*
X169410000Y-82340000I-2540000J0D01*
G01*
D14*
%TO.C,SW2*%
X166290000Y-73650000D02*
X166750000Y-73650000D01*
X163050000Y-73650000D02*
X163510000Y-73650000D01*
X163050000Y-73650000D02*
X163050000Y-79850000D01*
X166750000Y-79850000D02*
X166750000Y-73650000D01*
X166290000Y-79850000D02*
X166750000Y-79850000D01*
X163510000Y-79850000D02*
X163510000Y-80850000D01*
X163050000Y-79850000D02*
X163510000Y-79850000D01*
X164350000Y-78250000D02*
X165400000Y-78250000D01*
X165400000Y-75400000D01*
X164350000Y-75400000D01*
X164350000Y-78250000D01*
%TD*%
M02*
