%TF.GenerationSoftware,KiCad,Pcbnew,7.0.10*%
%TF.CreationDate,2024-01-14T13:48:43-05:00*%
%TF.ProjectId,esp32-wroom,65737033-322d-4777-926f-6f6d2e6b6963,rev?*%
%TF.SameCoordinates,Original*%
%TF.FileFunction,Copper,L1,Top*%
%TF.FilePolarity,Positive*%
%FSLAX46Y46*%
G04 Gerber Fmt 4.6, Leading zero omitted, Abs format (unit mm)*
G04 Created by KiCad (PCBNEW 7.0.10) date 2024-01-14 13:48:43*
%MOMM*%
%LPD*%
G01*
G04 APERTURE LIST*
%TA.AperFunction,SMDPad,CuDef*%
%ADD10R,1.500000X0.900000*%
%TD*%
%TA.AperFunction,SMDPad,CuDef*%
%ADD11R,0.900000X1.500000*%
%TD*%
%TA.AperFunction,SMDPad,CuDef*%
%ADD12R,3.800000X3.800000*%
%TD*%
%TA.AperFunction,ComponentPad*%
%ADD13C,1.400000*%
%TD*%
%TA.AperFunction,ComponentPad*%
%ADD14O,1.400000X1.400000*%
%TD*%
%TA.AperFunction,ComponentPad*%
%ADD15R,1.700000X1.700000*%
%TD*%
%TA.AperFunction,ComponentPad*%
%ADD16O,1.700000X1.700000*%
%TD*%
%TA.AperFunction,ComponentPad*%
%ADD17C,2.000000*%
%TD*%
%TA.AperFunction,ComponentPad*%
%ADD18R,2.000000X1.905000*%
%TD*%
%TA.AperFunction,ComponentPad*%
%ADD19O,2.000000X1.905000*%
%TD*%
%TA.AperFunction,ViaPad*%
%ADD20C,0.800000*%
%TD*%
%TA.AperFunction,Conductor*%
%ADD21C,0.500000*%
%TD*%
%TA.AperFunction,Conductor*%
%ADD22C,0.250000*%
%TD*%
G04 APERTURE END LIST*
D10*
%TO.P,U1,1,GND*%
%TO.N,GND*%
X116764000Y-66870000D03*
%TO.P,U1,2,VDD*%
%TO.N,+3V3*%
X116764000Y-68140000D03*
%TO.P,U1,3,EN*%
%TO.N,Net-(J5-Pin_1)*%
X116764000Y-69410000D03*
%TO.P,U1,4,SENSOR_VP*%
%TO.N,Net-(J5-Pin_2)*%
X116764000Y-70680000D03*
%TO.P,U1,5,SENSOR_VN*%
%TO.N,Net-(J5-Pin_3)*%
X116764000Y-71950000D03*
%TO.P,U1,6,IO34*%
%TO.N,Net-(J5-Pin_4)*%
X116764000Y-73220000D03*
%TO.P,U1,7,IO35*%
%TO.N,Net-(J5-Pin_5)*%
X116764000Y-74490000D03*
%TO.P,U1,8,IO32*%
%TO.N,Net-(J5-Pin_6)*%
X116764000Y-75760000D03*
%TO.P,U1,9,IO33*%
%TO.N,Net-(J5-Pin_7)*%
X116764000Y-77030000D03*
%TO.P,U1,10,IO25*%
%TO.N,Net-(J5-Pin_8)*%
X116764000Y-78300000D03*
%TO.P,U1,11,IO26*%
%TO.N,Net-(J5-Pin_9)*%
X116764000Y-79570000D03*
%TO.P,U1,12,IO27*%
%TO.N,Net-(J5-Pin_10)*%
X116764000Y-80840000D03*
%TO.P,U1,13,IO14*%
%TO.N,Net-(J5-Pin_11)*%
X116764000Y-82110000D03*
%TO.P,U1,14,IO12*%
%TO.N,Net-(J5-Pin_12)*%
X116764000Y-83380000D03*
D11*
%TO.P,U1,15,GND*%
%TO.N,GND*%
X119804000Y-84630000D03*
%TO.P,U1,16,IO13*%
%TO.N,Net-(J6-Pin_1)*%
X121074000Y-84630000D03*
%TO.P,U1,17,SHD/SD2*%
%TO.N,Net-(J6-Pin_2)*%
X122344000Y-84630000D03*
%TO.P,U1,18,SWP/SD3*%
%TO.N,Net-(J6-Pin_3)*%
X123614000Y-84630000D03*
%TO.P,U1,19,SCS/CMD*%
%TO.N,Net-(J6-Pin_4)*%
X124884000Y-84630000D03*
%TO.P,U1,20,SCK/CLK*%
%TO.N,Net-(J6-Pin_5)*%
X126154000Y-84630000D03*
%TO.P,U1,21,SDO/SD0*%
%TO.N,Net-(J6-Pin_6)*%
X127424000Y-84630000D03*
%TO.P,U1,22,SDI/SD1*%
%TO.N,Net-(J6-Pin_7)*%
X128694000Y-84630000D03*
%TO.P,U1,23,IO15*%
%TO.N,Net-(J6-Pin_8)*%
X129964000Y-84630000D03*
%TO.P,U1,24,IO2*%
%TO.N,Net-(J6-Pin_9)*%
X131234000Y-84630000D03*
D10*
%TO.P,U1,25,IO0*%
%TO.N,Net-(J4-Pin_12)*%
X134264000Y-83380000D03*
%TO.P,U1,26,IO4*%
%TO.N,Net-(J4-Pin_11)*%
X134264000Y-82110000D03*
%TO.P,U1,27,IO16*%
%TO.N,Net-(J4-Pin_10)*%
X134264000Y-80840000D03*
%TO.P,U1,28,IO17*%
%TO.N,Net-(J4-Pin_9)*%
X134264000Y-79570000D03*
%TO.P,U1,29,IO5*%
%TO.N,Net-(J4-Pin_8)*%
X134264000Y-78300000D03*
%TO.P,U1,30,IO18*%
%TO.N,Net-(J4-Pin_7)*%
X134264000Y-77030000D03*
%TO.P,U1,31,IO19*%
%TO.N,Net-(J4-Pin_6)*%
X134264000Y-75760000D03*
%TO.P,U1,32,NC*%
%TO.N,unconnected-(U1-NC-Pad32)*%
X134264000Y-74490000D03*
%TO.P,U1,33,IO21*%
%TO.N,Net-(J4-Pin_5)*%
X134264000Y-73220000D03*
%TO.P,U1,34,RXD0/IO3*%
%TO.N,Net-(J2-Pin_1)*%
X134264000Y-71950000D03*
%TO.P,U1,35,TXD0/IO1*%
%TO.N,Net-(J2-Pin_2)*%
X134264000Y-70680000D03*
%TO.P,U1,36,IO22*%
%TO.N,Net-(J4-Pin_2)*%
X134264000Y-69410000D03*
%TO.P,U1,37,IO23*%
%TO.N,Net-(J4-Pin_1)*%
X134264000Y-68140000D03*
%TO.P,U1,38,GND*%
%TO.N,GND*%
X134264000Y-66870000D03*
D12*
%TO.P,U1,39,GND*%
X124014000Y-74590000D03*
%TD*%
D13*
%TO.P,R5,1*%
%TO.N,Net-(D1-A)*%
X91490000Y-101092000D03*
D14*
%TO.P,R5,2*%
%TO.N,Net-(J6-Pin_9)*%
X94030000Y-101092000D03*
%TD*%
D15*
%TO.P,J1,1,Pin_1*%
%TO.N,Net-(J1-Pin_1)*%
X83820000Y-64770000D03*
D16*
%TO.P,J1,2,Pin_2*%
%TO.N,GND*%
X83820000Y-62230000D03*
%TD*%
D15*
%TO.P,C1,1*%
%TO.N,+3V3*%
X89662000Y-75184000D03*
D16*
%TO.P,C1,2*%
%TO.N,GND*%
X87122000Y-75184000D03*
%TD*%
D15*
%TO.P,J2,1,Pin_1*%
%TO.N,Net-(J2-Pin_1)*%
X151682000Y-69342000D03*
D16*
%TO.P,J2,2,Pin_2*%
%TO.N,Net-(J2-Pin_2)*%
X151682000Y-66802000D03*
%TD*%
D17*
%TO.P,SW2,1,1*%
%TO.N,GND*%
X81788000Y-90678000D03*
X88288000Y-90678000D03*
%TO.P,SW2,2,2*%
%TO.N,Net-(C5-Pad1)*%
X81788000Y-95178000D03*
X88288000Y-95178000D03*
%TD*%
D13*
%TO.P,R2,1*%
%TO.N,+3V3*%
X99822000Y-79552000D03*
D14*
%TO.P,R2,2*%
%TO.N,Net-(J5-Pin_1)*%
X99822000Y-82092000D03*
%TD*%
D15*
%TO.P,C4,1*%
%TO.N,Net-(C4-Pad1)*%
X91948000Y-83058000D03*
D16*
%TO.P,C4,2*%
%TO.N,GND*%
X91948000Y-80518000D03*
%TD*%
D18*
%TO.P,U2,1,VI*%
%TO.N,Net-(J1-Pin_1)*%
X95504000Y-64770000D03*
D19*
%TO.P,U2,2,GND*%
%TO.N,GND*%
X95504000Y-67310000D03*
%TO.P,U2,3,VO*%
%TO.N,+3V3*%
X95504000Y-69850000D03*
%TD*%
D15*
%TO.P,C3,1*%
%TO.N,Net-(J5-Pin_1)*%
X96520000Y-82301000D03*
D16*
%TO.P,C3,2*%
%TO.N,GND*%
X96520000Y-79761000D03*
%TD*%
D13*
%TO.P,R3,1*%
%TO.N,+3V3*%
X99010000Y-91186000D03*
D14*
%TO.P,R3,2*%
%TO.N,Net-(J4-Pin_12)*%
X96470000Y-91186000D03*
%TD*%
D15*
%TO.P,J6,1,Pin_1*%
%TO.N,Net-(J6-Pin_1)*%
X163620000Y-89662000D03*
D16*
%TO.P,J6,2,Pin_2*%
%TO.N,Net-(J6-Pin_2)*%
X163620000Y-87122000D03*
%TO.P,J6,3,Pin_3*%
%TO.N,Net-(J6-Pin_3)*%
X163620000Y-84582000D03*
%TO.P,J6,4,Pin_4*%
%TO.N,Net-(J6-Pin_4)*%
X163620000Y-82042000D03*
%TO.P,J6,5,Pin_5*%
%TO.N,Net-(J6-Pin_5)*%
X163620000Y-79502000D03*
%TO.P,J6,6,Pin_6*%
%TO.N,Net-(J6-Pin_6)*%
X163620000Y-76962000D03*
%TO.P,J6,7,Pin_7*%
%TO.N,Net-(J6-Pin_7)*%
X163620000Y-74422000D03*
%TO.P,J6,8,Pin_8*%
%TO.N,Net-(J6-Pin_8)*%
X163620000Y-71882000D03*
%TO.P,J6,9,Pin_9*%
%TO.N,Net-(J6-Pin_9)*%
X163620000Y-69342000D03*
%TO.P,J6,10,Pin_10*%
%TO.N,unconnected-(J6-Pin_10-Pad10)*%
X163620000Y-66802000D03*
%TO.P,J6,11,Pin_11*%
%TO.N,unconnected-(J6-Pin_11-Pad11)*%
X163620000Y-64262000D03*
%TO.P,J6,12,Pin_12*%
%TO.N,unconnected-(J6-Pin_12-Pad12)*%
X163620000Y-61722000D03*
%TD*%
D15*
%TO.P,J3,1,Pin_1*%
%TO.N,+3V3*%
X89662000Y-67310000D03*
D16*
%TO.P,J3,2,Pin_2*%
%TO.N,Net-(J1-Pin_1)*%
X89662000Y-64770000D03*
%TO.P,J3,3,Pin_3*%
%TO.N,GND*%
X89662000Y-62230000D03*
%TD*%
D13*
%TO.P,R1,1*%
%TO.N,Net-(J5-Pin_1)*%
X99772000Y-85344000D03*
D14*
%TO.P,R1,2*%
%TO.N,Net-(C4-Pad1)*%
X97232000Y-85344000D03*
%TD*%
D15*
%TO.P,J5,1,Pin_1*%
%TO.N,Net-(J5-Pin_1)*%
X159810000Y-61722000D03*
D16*
%TO.P,J5,2,Pin_2*%
%TO.N,Net-(J5-Pin_2)*%
X159810000Y-64262000D03*
%TO.P,J5,3,Pin_3*%
%TO.N,Net-(J5-Pin_3)*%
X159810000Y-66802000D03*
%TO.P,J5,4,Pin_4*%
%TO.N,Net-(J5-Pin_4)*%
X159810000Y-69342000D03*
%TO.P,J5,5,Pin_5*%
%TO.N,Net-(J5-Pin_5)*%
X159810000Y-71882000D03*
%TO.P,J5,6,Pin_6*%
%TO.N,Net-(J5-Pin_6)*%
X159810000Y-74422000D03*
%TO.P,J5,7,Pin_7*%
%TO.N,Net-(J5-Pin_7)*%
X159810000Y-76962000D03*
%TO.P,J5,8,Pin_8*%
%TO.N,Net-(J5-Pin_8)*%
X159810000Y-79502000D03*
%TO.P,J5,9,Pin_9*%
%TO.N,Net-(J5-Pin_9)*%
X159810000Y-82042000D03*
%TO.P,J5,10,Pin_10*%
%TO.N,Net-(J5-Pin_10)*%
X159810000Y-84582000D03*
%TO.P,J5,11,Pin_11*%
%TO.N,Net-(J5-Pin_11)*%
X159810000Y-87122000D03*
%TO.P,J5,12,Pin_12*%
%TO.N,Net-(J5-Pin_12)*%
X159810000Y-89662000D03*
%TD*%
D15*
%TO.P,D1,1,K*%
%TO.N,GND*%
X81788000Y-101092000D03*
D16*
%TO.P,D1,2,A*%
%TO.N,Net-(D1-A)*%
X84328000Y-101092000D03*
%TD*%
D13*
%TO.P,R4,1*%
%TO.N,Net-(J4-Pin_12)*%
X96520000Y-93522000D03*
D14*
%TO.P,R4,2*%
%TO.N,Net-(C5-Pad1)*%
X96520000Y-96062000D03*
%TD*%
D15*
%TO.P,C2,1*%
%TO.N,+3V3*%
X89662000Y-71374000D03*
D16*
%TO.P,C2,2*%
%TO.N,GND*%
X87122000Y-71374000D03*
%TD*%
D17*
%TO.P,SW1,1,1*%
%TO.N,GND*%
X81788000Y-79502000D03*
X88288000Y-79502000D03*
%TO.P,SW1,2,2*%
%TO.N,Net-(C4-Pad1)*%
X81788000Y-84002000D03*
X88288000Y-84002000D03*
%TD*%
D15*
%TO.P,C5,1*%
%TO.N,Net-(C5-Pad1)*%
X92964000Y-95250000D03*
D16*
%TO.P,C5,2*%
%TO.N,GND*%
X92964000Y-92710000D03*
%TD*%
D15*
%TO.P,J4,1,Pin_1*%
%TO.N,Net-(J4-Pin_1)*%
X155746000Y-61722000D03*
D16*
%TO.P,J4,2,Pin_2*%
%TO.N,Net-(J4-Pin_2)*%
X155746000Y-64262000D03*
%TO.P,J4,3,Pin_3*%
%TO.N,Net-(J2-Pin_2)*%
X155746000Y-66802000D03*
%TO.P,J4,4,Pin_4*%
%TO.N,Net-(J2-Pin_1)*%
X155746000Y-69342000D03*
%TO.P,J4,5,Pin_5*%
%TO.N,Net-(J4-Pin_5)*%
X155746000Y-71882000D03*
%TO.P,J4,6,Pin_6*%
%TO.N,Net-(J4-Pin_6)*%
X155746000Y-74422000D03*
%TO.P,J4,7,Pin_7*%
%TO.N,Net-(J4-Pin_7)*%
X155746000Y-76962000D03*
%TO.P,J4,8,Pin_8*%
%TO.N,Net-(J4-Pin_8)*%
X155746000Y-79502000D03*
%TO.P,J4,9,Pin_9*%
%TO.N,Net-(J4-Pin_9)*%
X155746000Y-82042000D03*
%TO.P,J4,10,Pin_10*%
%TO.N,Net-(J4-Pin_10)*%
X155746000Y-84582000D03*
%TO.P,J4,11,Pin_11*%
%TO.N,Net-(J4-Pin_11)*%
X155746000Y-87122000D03*
%TO.P,J4,12,Pin_12*%
%TO.N,Net-(J4-Pin_12)*%
X155746000Y-89662000D03*
%TD*%
D20*
%TO.N,Net-(J5-Pin_3)*%
X118408000Y-71950000D03*
%TO.N,Net-(J5-Pin_4)*%
X118408000Y-73220000D03*
%TO.N,Net-(J5-Pin_5)*%
X118408000Y-74490000D03*
%TO.N,Net-(J5-Pin_6)*%
X118408000Y-75692000D03*
%TO.N,Net-(J5-Pin_7)*%
X118408000Y-76962000D03*
%TO.N,Net-(J5-Pin_8)*%
X118408000Y-78232000D03*
%TO.N,Net-(J5-Pin_9)*%
X118408000Y-79502000D03*
%TO.N,Net-(J5-Pin_10)*%
X118408000Y-80772000D03*
%TO.N,Net-(J5-Pin_11)*%
X118408000Y-82042000D03*
%TO.N,Net-(J5-Pin_12)*%
X118408000Y-83312000D03*
%TO.N,Net-(J5-Pin_1)*%
X118408000Y-69342000D03*
%TO.N,Net-(J5-Pin_2)*%
X118408000Y-70612000D03*
%TO.N,Net-(J6-Pin_1)*%
X124857903Y-79093903D03*
%TO.N,Net-(J6-Pin_2)*%
X123737347Y-81275347D03*
%TO.N,Net-(J6-Pin_3)*%
X123614000Y-82804000D03*
%TO.N,Net-(J6-Pin_4)*%
X124884000Y-82804000D03*
%TO.N,Net-(J6-Pin_5)*%
X126154000Y-82804000D03*
%TO.N,Net-(J6-Pin_6)*%
X127424000Y-82804000D03*
%TO.N,Net-(J6-Pin_7)*%
X128694000Y-82804000D03*
%TO.N,Net-(J6-Pin_8)*%
X129964000Y-82804000D03*
%TO.N,Net-(J6-Pin_9)*%
X131234000Y-82804000D03*
%TD*%
D21*
%TO.N,+3V3*%
X89662000Y-71374000D02*
X89662000Y-75184000D01*
D22*
X98310000Y-81064000D02*
X99822000Y-79552000D01*
D21*
X95758000Y-70104000D02*
X95504000Y-69850000D01*
D22*
X98310000Y-90486000D02*
X98310000Y-81064000D01*
D21*
X92964000Y-69850000D02*
X91440000Y-71374000D01*
X99060000Y-69850000D02*
X100770000Y-68140000D01*
X95504000Y-69850000D02*
X99060000Y-69850000D01*
X116764000Y-68140000D02*
X100770000Y-68140000D01*
X91440000Y-71374000D02*
X89662000Y-71374000D01*
X99822000Y-79552000D02*
X99822000Y-70612000D01*
X89662000Y-67310000D02*
X89662000Y-71374000D01*
D22*
X99010000Y-91186000D02*
X98310000Y-90486000D01*
D21*
X99822000Y-70612000D02*
X99060000Y-69850000D01*
X95504000Y-69850000D02*
X92964000Y-69850000D01*
%TO.N,GND*%
X80772000Y-62992000D02*
X81534000Y-62230000D01*
X81280000Y-71374000D02*
X80772000Y-70866000D01*
D22*
X88288000Y-79502000D02*
X88288000Y-76350000D01*
X81788000Y-101092000D02*
X80463000Y-99767000D01*
X88288000Y-90678000D02*
X81788000Y-90678000D01*
X88288000Y-79502000D02*
X90932000Y-79502000D01*
D21*
X87122000Y-71374000D02*
X81280000Y-71374000D01*
D22*
X123309000Y-73447500D02*
X123309000Y-74972500D01*
D21*
X116764000Y-66870000D02*
X98366000Y-66870000D01*
D22*
X80463000Y-89353000D02*
X80463000Y-80827000D01*
X90932000Y-90678000D02*
X88288000Y-90678000D01*
D21*
X81534000Y-62230000D02*
X83820000Y-62230000D01*
X134264000Y-66870000D02*
X132818000Y-66870000D01*
D22*
X80463000Y-80827000D02*
X81788000Y-79502000D01*
D21*
X134264000Y-66870000D02*
X118222000Y-66870000D01*
X119804000Y-84630000D02*
X119804000Y-81154000D01*
X119804000Y-81154000D02*
X123309000Y-77649000D01*
D22*
X80463000Y-99767000D02*
X80463000Y-89353000D01*
D21*
X98298000Y-62738000D02*
X98298000Y-66802000D01*
X80772000Y-70866000D02*
X80772000Y-62992000D01*
X124834000Y-70942000D02*
X124834000Y-73447500D01*
D22*
X90932000Y-79502000D02*
X91948000Y-80518000D01*
X92964000Y-92710000D02*
X90932000Y-90678000D01*
X81788000Y-79502000D02*
X88288000Y-79502000D01*
D21*
X97790000Y-62230000D02*
X98298000Y-62738000D01*
D22*
X95763000Y-80518000D02*
X96520000Y-79761000D01*
D21*
X97790000Y-67310000D02*
X95504000Y-67310000D01*
X83820000Y-62230000D02*
X97790000Y-62230000D01*
X118222000Y-66870000D02*
X120762000Y-66870000D01*
D22*
X91948000Y-80518000D02*
X95763000Y-80518000D01*
X88288000Y-76350000D02*
X87122000Y-75184000D01*
D21*
X98366000Y-66870000D02*
X98298000Y-66802000D01*
X98298000Y-66802000D02*
X97790000Y-67310000D01*
D22*
X123309000Y-74972500D02*
X124071500Y-75735000D01*
D21*
X87122000Y-71374000D02*
X87122000Y-75184000D01*
X120762000Y-66870000D02*
X124834000Y-70942000D01*
X123309000Y-77649000D02*
X123309000Y-75735000D01*
X116764000Y-66870000D02*
X118222000Y-66870000D01*
D22*
X81788000Y-90678000D02*
X80463000Y-89353000D01*
%TO.N,Net-(C4-Pad1)*%
X88288000Y-84002000D02*
X91004000Y-84002000D01*
X94946000Y-83058000D02*
X97232000Y-85344000D01*
X91948000Y-83058000D02*
X94946000Y-83058000D01*
X91004000Y-84002000D02*
X91948000Y-83058000D01*
X81788000Y-84002000D02*
X88288000Y-84002000D01*
%TO.N,Net-(C5-Pad1)*%
X96520000Y-96062000D02*
X93776000Y-96062000D01*
X81788000Y-95178000D02*
X88288000Y-95178000D01*
X92892000Y-95178000D02*
X92964000Y-95250000D01*
X93776000Y-96062000D02*
X92964000Y-95250000D01*
X88288000Y-95178000D02*
X92892000Y-95178000D01*
%TO.N,Net-(D1-A)*%
X84328000Y-101092000D02*
X91490000Y-101092000D01*
%TO.N,Net-(J2-Pin_2)*%
X151682000Y-66802000D02*
X150160792Y-66802000D01*
X150160792Y-66802000D02*
X146282792Y-70680000D01*
X155746000Y-66802000D02*
X151682000Y-66802000D01*
X146282792Y-70680000D02*
X134264000Y-70680000D01*
%TO.N,Net-(J2-Pin_1)*%
X150368000Y-69342000D02*
X147760000Y-71950000D01*
X151682000Y-69342000D02*
X150368000Y-69342000D01*
X155746000Y-69342000D02*
X151682000Y-69342000D01*
X147760000Y-71950000D02*
X134264000Y-71950000D01*
D21*
%TO.N,Net-(J1-Pin_1)*%
X83820000Y-64770000D02*
X89662000Y-64770000D01*
X89662000Y-64770000D02*
X95504000Y-64770000D01*
D22*
%TO.N,Net-(J4-Pin_1)*%
X153416000Y-61722000D02*
X146998000Y-68140000D01*
X146998000Y-68140000D02*
X134264000Y-68140000D01*
X155746000Y-61722000D02*
X153416000Y-61722000D01*
%TO.N,Net-(J4-Pin_2)*%
X155746000Y-64262000D02*
X151892000Y-64262000D01*
X146744000Y-69410000D02*
X134264000Y-69410000D01*
X151892000Y-64262000D02*
X146744000Y-69410000D01*
%TO.N,Net-(J4-Pin_5)*%
X134264000Y-73220000D02*
X148014000Y-73220000D01*
X148014000Y-73220000D02*
X149352000Y-71882000D01*
X149352000Y-71882000D02*
X155746000Y-71882000D01*
%TO.N,Net-(J4-Pin_6)*%
X140946000Y-75760000D02*
X134264000Y-75760000D01*
X142284000Y-74422000D02*
X140946000Y-75760000D01*
X155746000Y-74422000D02*
X142284000Y-74422000D01*
%TO.N,Net-(J4-Pin_7)*%
X153968000Y-76962000D02*
X155746000Y-76962000D01*
X142240000Y-76708000D02*
X153714000Y-76708000D01*
X134264000Y-77030000D02*
X141918000Y-77030000D01*
X153714000Y-76708000D02*
X153968000Y-76962000D01*
X141918000Y-77030000D02*
X142240000Y-76708000D01*
%TO.N,Net-(J4-Pin_8)*%
X155746000Y-79502000D02*
X153206000Y-79502000D01*
X153206000Y-79502000D02*
X152004000Y-78300000D01*
X152004000Y-78300000D02*
X134264000Y-78300000D01*
%TO.N,Net-(J4-Pin_9)*%
X155746000Y-82042000D02*
X153968000Y-82042000D01*
X153968000Y-82042000D02*
X151496000Y-79570000D01*
X151496000Y-79570000D02*
X134264000Y-79570000D01*
%TO.N,Net-(J4-Pin_10)*%
X155746000Y-84582000D02*
X153968000Y-84582000D01*
X153968000Y-84582000D02*
X150226000Y-80840000D01*
X150226000Y-80840000D02*
X134264000Y-80840000D01*
%TO.N,Net-(J4-Pin_11)*%
X148956000Y-82110000D02*
X134264000Y-82110000D01*
X155746000Y-87122000D02*
X153968000Y-87122000D01*
X153968000Y-87122000D02*
X148956000Y-82110000D01*
%TO.N,Net-(J4-Pin_12)*%
X116122000Y-85852000D02*
X115360000Y-85090000D01*
X104648000Y-71120000D02*
X103632000Y-72136000D01*
X103632000Y-89916000D02*
X101337000Y-92211000D01*
X97495000Y-92211000D02*
X96470000Y-91186000D01*
X96520000Y-91236000D02*
X96470000Y-91186000D01*
X103632000Y-72136000D02*
X103632000Y-89916000D01*
X101337000Y-92211000D02*
X97495000Y-92211000D01*
X115360000Y-85090000D02*
X115360000Y-72180000D01*
X134264000Y-85236000D02*
X133648000Y-85852000D01*
X144570000Y-83380000D02*
X143046000Y-83380000D01*
X153968000Y-89662000D02*
X147686000Y-83380000D01*
X114300000Y-71120000D02*
X104648000Y-71120000D01*
X115360000Y-72180000D02*
X114300000Y-71120000D01*
X133648000Y-85852000D02*
X116122000Y-85852000D01*
X143046000Y-83380000D02*
X134264000Y-83380000D01*
X147686000Y-83380000D02*
X144570000Y-83380000D01*
X155746000Y-89662000D02*
X153968000Y-89662000D01*
X96520000Y-93522000D02*
X96520000Y-91236000D01*
X134264000Y-83380000D02*
X134264000Y-85236000D01*
%TO.N,Net-(J5-Pin_3)*%
X118408000Y-71950000D02*
X116764000Y-71950000D01*
%TO.N,Net-(J5-Pin_4)*%
X118408000Y-73220000D02*
X116764000Y-73220000D01*
%TO.N,Net-(J5-Pin_5)*%
X118408000Y-74490000D02*
X116764000Y-74490000D01*
%TO.N,Net-(J5-Pin_6)*%
X118408000Y-75692000D02*
X116832000Y-75692000D01*
X116832000Y-75692000D02*
X116764000Y-75760000D01*
%TO.N,Net-(J5-Pin_7)*%
X118408000Y-76962000D02*
X116832000Y-76962000D01*
X116832000Y-76962000D02*
X116764000Y-77030000D01*
%TO.N,Net-(J5-Pin_8)*%
X118408000Y-78232000D02*
X118340000Y-78300000D01*
X118340000Y-78300000D02*
X116764000Y-78300000D01*
%TO.N,Net-(J5-Pin_9)*%
X116764000Y-79570000D02*
X118340000Y-79570000D01*
X118340000Y-79570000D02*
X118408000Y-79502000D01*
%TO.N,Net-(J5-Pin_10)*%
X116764000Y-80840000D02*
X118340000Y-80840000D01*
X116950000Y-81026000D02*
X116764000Y-80840000D01*
X118340000Y-80840000D02*
X118408000Y-80772000D01*
%TO.N,Net-(J5-Pin_11)*%
X116832000Y-82042000D02*
X116764000Y-82110000D01*
X116764000Y-82110000D02*
X118340000Y-82110000D01*
X118340000Y-82110000D02*
X118408000Y-82042000D01*
%TO.N,Net-(J5-Pin_12)*%
X116764000Y-83380000D02*
X118340000Y-83380000D01*
X118340000Y-83380000D02*
X118408000Y-83312000D01*
%TO.N,Net-(J5-Pin_1)*%
X101600000Y-81788000D02*
X101600000Y-69850000D01*
X99613000Y-82301000D02*
X99822000Y-82092000D01*
X102108000Y-69342000D02*
X115106000Y-69342000D01*
X118408000Y-69342000D02*
X118340000Y-69410000D01*
X101600000Y-69850000D02*
X102108000Y-69342000D01*
X99772000Y-85344000D02*
X99772000Y-82142000D01*
X101296000Y-82092000D02*
X101600000Y-81788000D01*
X115106000Y-69342000D02*
X115174000Y-69410000D01*
X99822000Y-82092000D02*
X101296000Y-82092000D01*
X118340000Y-69410000D02*
X116764000Y-69410000D01*
X99772000Y-82142000D02*
X99822000Y-82092000D01*
X115174000Y-69410000D02*
X116764000Y-69410000D01*
%TO.N,Net-(J5-Pin_2)*%
X118408000Y-70612000D02*
X118340000Y-70680000D01*
X118340000Y-70680000D02*
X116764000Y-70680000D01*
%TO.N,Net-(J6-Pin_1)*%
X121074000Y-82877806D02*
X124857903Y-79093903D01*
X121074000Y-84630000D02*
X121074000Y-82877806D01*
%TO.N,Net-(J6-Pin_2)*%
X122344000Y-84630000D02*
X122344000Y-82668694D01*
X122344000Y-82668694D02*
X123737347Y-81275347D01*
%TO.N,Net-(J6-Pin_3)*%
X123614000Y-82804000D02*
X123614000Y-84630000D01*
%TO.N,Net-(J6-Pin_4)*%
X124884000Y-82804000D02*
X124884000Y-84630000D01*
%TO.N,Net-(J6-Pin_5)*%
X126154000Y-82804000D02*
X126154000Y-84630000D01*
%TO.N,Net-(J6-Pin_6)*%
X127424000Y-82804000D02*
X127424000Y-84630000D01*
X127552000Y-84502000D02*
X127424000Y-84630000D01*
%TO.N,Net-(J6-Pin_7)*%
X128568000Y-84504000D02*
X128694000Y-84630000D01*
X128694000Y-82804000D02*
X128694000Y-84630000D01*
%TO.N,Net-(J6-Pin_8)*%
X129964000Y-82804000D02*
X129964000Y-84630000D01*
%TO.N,Net-(J6-Pin_9)*%
X131234000Y-82804000D02*
X131234000Y-84630000D01*
%TD*%
M02*
