%TF.GenerationSoftware,KiCad,Pcbnew,7.0.10*%
%TF.CreationDate,2024-01-14T13:48:43-05:00*%
%TF.ProjectId,esp32-wroom,65737033-322d-4777-926f-6f6d2e6b6963,rev?*%
%TF.SameCoordinates,Original*%
%TF.FileFunction,Soldermask,Top*%
%TF.FilePolarity,Negative*%
%FSLAX46Y46*%
G04 Gerber Fmt 4.6, Leading zero omitted, Abs format (unit mm)*
G04 Created by KiCad (PCBNEW 7.0.10) date 2024-01-14 13:48:43*
%MOMM*%
%LPD*%
G01*
G04 APERTURE LIST*
%ADD10R,1.500000X0.900000*%
%ADD11R,0.900000X1.500000*%
%ADD12R,3.800000X3.800000*%
%ADD13C,1.400000*%
%ADD14O,1.400000X1.400000*%
%ADD15R,1.700000X1.700000*%
%ADD16O,1.700000X1.700000*%
%ADD17C,2.000000*%
%ADD18R,2.000000X1.905000*%
%ADD19O,2.000000X1.905000*%
G04 APERTURE END LIST*
D10*
%TO.C,U1*%
X116764000Y-66870000D03*
X116764000Y-68140000D03*
X116764000Y-69410000D03*
X116764000Y-70680000D03*
X116764000Y-71950000D03*
X116764000Y-73220000D03*
X116764000Y-74490000D03*
X116764000Y-75760000D03*
X116764000Y-77030000D03*
X116764000Y-78300000D03*
X116764000Y-79570000D03*
X116764000Y-80840000D03*
X116764000Y-82110000D03*
X116764000Y-83380000D03*
D11*
X119804000Y-84630000D03*
X121074000Y-84630000D03*
X122344000Y-84630000D03*
X123614000Y-84630000D03*
X124884000Y-84630000D03*
X126154000Y-84630000D03*
X127424000Y-84630000D03*
X128694000Y-84630000D03*
X129964000Y-84630000D03*
X131234000Y-84630000D03*
D10*
X134264000Y-83380000D03*
X134264000Y-82110000D03*
X134264000Y-80840000D03*
X134264000Y-79570000D03*
X134264000Y-78300000D03*
X134264000Y-77030000D03*
X134264000Y-75760000D03*
X134264000Y-74490000D03*
X134264000Y-73220000D03*
X134264000Y-71950000D03*
X134264000Y-70680000D03*
X134264000Y-69410000D03*
X134264000Y-68140000D03*
X134264000Y-66870000D03*
D12*
X124014000Y-74590000D03*
%TD*%
D13*
%TO.C,R5*%
X91490000Y-101092000D03*
D14*
X94030000Y-101092000D03*
%TD*%
D15*
%TO.C,J1*%
X83820000Y-64770000D03*
D16*
X83820000Y-62230000D03*
%TD*%
D15*
%TO.C,C1*%
X89662000Y-75184000D03*
D16*
X87122000Y-75184000D03*
%TD*%
D15*
%TO.C,J2*%
X151682000Y-69342000D03*
D16*
X151682000Y-66802000D03*
%TD*%
D17*
%TO.C,SW2*%
X81788000Y-90678000D03*
X88288000Y-90678000D03*
X81788000Y-95178000D03*
X88288000Y-95178000D03*
%TD*%
D13*
%TO.C,R2*%
X99822000Y-79552000D03*
D14*
X99822000Y-82092000D03*
%TD*%
D15*
%TO.C,C4*%
X91948000Y-83058000D03*
D16*
X91948000Y-80518000D03*
%TD*%
D18*
%TO.C,U2*%
X95504000Y-64770000D03*
D19*
X95504000Y-67310000D03*
X95504000Y-69850000D03*
%TD*%
D15*
%TO.C,C3*%
X96520000Y-82301000D03*
D16*
X96520000Y-79761000D03*
%TD*%
D13*
%TO.C,R3*%
X99010000Y-91186000D03*
D14*
X96470000Y-91186000D03*
%TD*%
D15*
%TO.C,J6*%
X163620000Y-89662000D03*
D16*
X163620000Y-87122000D03*
X163620000Y-84582000D03*
X163620000Y-82042000D03*
X163620000Y-79502000D03*
X163620000Y-76962000D03*
X163620000Y-74422000D03*
X163620000Y-71882000D03*
X163620000Y-69342000D03*
X163620000Y-66802000D03*
X163620000Y-64262000D03*
X163620000Y-61722000D03*
%TD*%
D15*
%TO.C,J3*%
X89662000Y-67310000D03*
D16*
X89662000Y-64770000D03*
X89662000Y-62230000D03*
%TD*%
D13*
%TO.C,R1*%
X99772000Y-85344000D03*
D14*
X97232000Y-85344000D03*
%TD*%
D15*
%TO.C,J5*%
X159810000Y-61722000D03*
D16*
X159810000Y-64262000D03*
X159810000Y-66802000D03*
X159810000Y-69342000D03*
X159810000Y-71882000D03*
X159810000Y-74422000D03*
X159810000Y-76962000D03*
X159810000Y-79502000D03*
X159810000Y-82042000D03*
X159810000Y-84582000D03*
X159810000Y-87122000D03*
X159810000Y-89662000D03*
%TD*%
D15*
%TO.C,D1*%
X81788000Y-101092000D03*
D16*
X84328000Y-101092000D03*
%TD*%
D13*
%TO.C,R4*%
X96520000Y-93522000D03*
D14*
X96520000Y-96062000D03*
%TD*%
D15*
%TO.C,C2*%
X89662000Y-71374000D03*
D16*
X87122000Y-71374000D03*
%TD*%
D17*
%TO.C,SW1*%
X81788000Y-79502000D03*
X88288000Y-79502000D03*
X81788000Y-84002000D03*
X88288000Y-84002000D03*
%TD*%
D15*
%TO.C,C5*%
X92964000Y-95250000D03*
D16*
X92964000Y-92710000D03*
%TD*%
D15*
%TO.C,J4*%
X155746000Y-61722000D03*
D16*
X155746000Y-64262000D03*
X155746000Y-66802000D03*
X155746000Y-69342000D03*
X155746000Y-71882000D03*
X155746000Y-74422000D03*
X155746000Y-76962000D03*
X155746000Y-79502000D03*
X155746000Y-82042000D03*
X155746000Y-84582000D03*
X155746000Y-87122000D03*
X155746000Y-89662000D03*
%TD*%
M02*
