%TF.GenerationSoftware,KiCad,Pcbnew,7.0.10*%
%TF.CreationDate,2024-01-14T13:48:43-05:00*%
%TF.ProjectId,esp32-wroom,65737033-322d-4777-926f-6f6d2e6b6963,rev?*%
%TF.SameCoordinates,Original*%
%TF.FileFunction,Soldermask,Bot*%
%TF.FilePolarity,Negative*%
%FSLAX46Y46*%
G04 Gerber Fmt 4.6, Leading zero omitted, Abs format (unit mm)*
G04 Created by KiCad (PCBNEW 7.0.10) date 2024-01-14 13:48:43*
%MOMM*%
%LPD*%
G01*
G04 APERTURE LIST*
%ADD10C,1.400000*%
%ADD11O,1.400000X1.400000*%
%ADD12R,1.700000X1.700000*%
%ADD13O,1.700000X1.700000*%
%ADD14C,2.000000*%
%ADD15R,2.000000X1.905000*%
%ADD16O,2.000000X1.905000*%
G04 APERTURE END LIST*
D10*
%TO.C,R5*%
X91490000Y-101092000D03*
D11*
X94030000Y-101092000D03*
%TD*%
D12*
%TO.C,J1*%
X83820000Y-64770000D03*
D13*
X83820000Y-62230000D03*
%TD*%
D12*
%TO.C,C1*%
X89662000Y-75184000D03*
D13*
X87122000Y-75184000D03*
%TD*%
D12*
%TO.C,J2*%
X151682000Y-69342000D03*
D13*
X151682000Y-66802000D03*
%TD*%
D14*
%TO.C,SW2*%
X81788000Y-90678000D03*
X88288000Y-90678000D03*
X81788000Y-95178000D03*
X88288000Y-95178000D03*
%TD*%
D10*
%TO.C,R2*%
X99822000Y-79552000D03*
D11*
X99822000Y-82092000D03*
%TD*%
D12*
%TO.C,C4*%
X91948000Y-83058000D03*
D13*
X91948000Y-80518000D03*
%TD*%
D15*
%TO.C,U2*%
X95504000Y-64770000D03*
D16*
X95504000Y-67310000D03*
X95504000Y-69850000D03*
%TD*%
D12*
%TO.C,C3*%
X96520000Y-82301000D03*
D13*
X96520000Y-79761000D03*
%TD*%
D10*
%TO.C,R3*%
X99010000Y-91186000D03*
D11*
X96470000Y-91186000D03*
%TD*%
D12*
%TO.C,J6*%
X163620000Y-89662000D03*
D13*
X163620000Y-87122000D03*
X163620000Y-84582000D03*
X163620000Y-82042000D03*
X163620000Y-79502000D03*
X163620000Y-76962000D03*
X163620000Y-74422000D03*
X163620000Y-71882000D03*
X163620000Y-69342000D03*
X163620000Y-66802000D03*
X163620000Y-64262000D03*
X163620000Y-61722000D03*
%TD*%
D12*
%TO.C,J3*%
X89662000Y-67310000D03*
D13*
X89662000Y-64770000D03*
X89662000Y-62230000D03*
%TD*%
D10*
%TO.C,R1*%
X99772000Y-85344000D03*
D11*
X97232000Y-85344000D03*
%TD*%
D12*
%TO.C,J5*%
X159810000Y-61722000D03*
D13*
X159810000Y-64262000D03*
X159810000Y-66802000D03*
X159810000Y-69342000D03*
X159810000Y-71882000D03*
X159810000Y-74422000D03*
X159810000Y-76962000D03*
X159810000Y-79502000D03*
X159810000Y-82042000D03*
X159810000Y-84582000D03*
X159810000Y-87122000D03*
X159810000Y-89662000D03*
%TD*%
D12*
%TO.C,D1*%
X81788000Y-101092000D03*
D13*
X84328000Y-101092000D03*
%TD*%
D10*
%TO.C,R4*%
X96520000Y-93522000D03*
D11*
X96520000Y-96062000D03*
%TD*%
D12*
%TO.C,C2*%
X89662000Y-71374000D03*
D13*
X87122000Y-71374000D03*
%TD*%
D14*
%TO.C,SW1*%
X81788000Y-79502000D03*
X88288000Y-79502000D03*
X81788000Y-84002000D03*
X88288000Y-84002000D03*
%TD*%
D12*
%TO.C,C5*%
X92964000Y-95250000D03*
D13*
X92964000Y-92710000D03*
%TD*%
D12*
%TO.C,J4*%
X155746000Y-61722000D03*
D13*
X155746000Y-64262000D03*
X155746000Y-66802000D03*
X155746000Y-69342000D03*
X155746000Y-71882000D03*
X155746000Y-74422000D03*
X155746000Y-76962000D03*
X155746000Y-79502000D03*
X155746000Y-82042000D03*
X155746000Y-84582000D03*
X155746000Y-87122000D03*
X155746000Y-89662000D03*
%TD*%
M02*
