%TF.GenerationSoftware,KiCad,Pcbnew,8.0.4*%
%TF.CreationDate,2024-07-25T22:54:18-04:00*%
%TF.ProjectId,esp32-node-board-40x65_telemetry,65737033-322d-46e6-9f64-652d626f6172,rev?*%
%TF.SameCoordinates,Original*%
%TF.FileFunction,Legend,Bot*%
%TF.FilePolarity,Positive*%
%FSLAX46Y46*%
G04 Gerber Fmt 4.6, Leading zero omitted, Abs format (unit mm)*
G04 Created by KiCad (PCBNEW 8.0.4) date 2024-07-25 22:54:18*
%MOMM*%
%LPD*%
G01*
G04 APERTURE LIST*
%ADD10C,0.150000*%
%ADD11C,0.120000*%
G04 APERTURE END LIST*
D10*
X127854819Y-100288095D02*
X128664342Y-100288095D01*
X128664342Y-100288095D02*
X128759580Y-100335714D01*
X128759580Y-100335714D02*
X128807200Y-100383333D01*
X128807200Y-100383333D02*
X128854819Y-100478571D01*
X128854819Y-100478571D02*
X128854819Y-100669047D01*
X128854819Y-100669047D02*
X128807200Y-100764285D01*
X128807200Y-100764285D02*
X128759580Y-100811904D01*
X128759580Y-100811904D02*
X128664342Y-100859523D01*
X128664342Y-100859523D02*
X127854819Y-100859523D01*
X128854819Y-101859523D02*
X128854819Y-101288095D01*
X128854819Y-101573809D02*
X127854819Y-101573809D01*
X127854819Y-101573809D02*
X127997676Y-101478571D01*
X127997676Y-101478571D02*
X128092914Y-101383333D01*
X128092914Y-101383333D02*
X128140533Y-101288095D01*
D11*
%TO.C,U1*%
X129590000Y-97920000D02*
X129260000Y-98160000D01*
X129260000Y-97680000D01*
X129590000Y-97920000D01*
G36*
X129590000Y-97920000D02*
G01*
X129260000Y-98160000D01*
X129260000Y-97680000D01*
X129590000Y-97920000D01*
G37*
X135050000Y-102960000D02*
X136310000Y-102960000D01*
X130750000Y-102960000D02*
X129490000Y-102960000D01*
X136310000Y-102960000D02*
X136310000Y-99200000D01*
X129490000Y-102960000D02*
X129490000Y-99200000D01*
%TD*%
M02*
