%TF.GenerationSoftware,KiCad,Pcbnew,8.0.4*%
%TF.CreationDate,2024-08-01T02:57:42-04:00*%
%TF.ProjectId,esp32-node-board-40x65_telemetry,65737033-322d-46e6-9f64-652d626f6172,rev?*%
%TF.SameCoordinates,Original*%
%TF.FileFunction,Legend,Bot*%
%TF.FilePolarity,Positive*%
%FSLAX46Y46*%
G04 Gerber Fmt 4.6, Leading zero omitted, Abs format (unit mm)*
G04 Created by KiCad (PCBNEW 8.0.4) date 2024-08-01 02:57:42*
%MOMM*%
%LPD*%
G01*
G04 APERTURE LIST*
%ADD10C,0.100000*%
%ADD11C,0.000000*%
G04 APERTURE END LIST*
D10*
X101917009Y-87051904D02*
X101955104Y-87147142D01*
X101955104Y-87147142D02*
X101955104Y-87289999D01*
X101955104Y-87289999D02*
X101917009Y-87432856D01*
X101917009Y-87432856D02*
X101840819Y-87528094D01*
X101840819Y-87528094D02*
X101764628Y-87575713D01*
X101764628Y-87575713D02*
X101612247Y-87623332D01*
X101612247Y-87623332D02*
X101497961Y-87623332D01*
X101497961Y-87623332D02*
X101345580Y-87575713D01*
X101345580Y-87575713D02*
X101269390Y-87528094D01*
X101269390Y-87528094D02*
X101193200Y-87432856D01*
X101193200Y-87432856D02*
X101155104Y-87289999D01*
X101155104Y-87289999D02*
X101155104Y-87194761D01*
X101155104Y-87194761D02*
X101193200Y-87051904D01*
X101193200Y-87051904D02*
X101231295Y-87004285D01*
X101231295Y-87004285D02*
X101497961Y-87004285D01*
X101497961Y-87004285D02*
X101497961Y-87194761D01*
X101155104Y-86575713D02*
X101955104Y-86575713D01*
X101955104Y-86575713D02*
X101155104Y-86004285D01*
X101155104Y-86004285D02*
X101955104Y-86004285D01*
X101155104Y-85528094D02*
X101955104Y-85528094D01*
X101955104Y-85528094D02*
X101955104Y-85289999D01*
X101955104Y-85289999D02*
X101917009Y-85147142D01*
X101917009Y-85147142D02*
X101840819Y-85051904D01*
X101840819Y-85051904D02*
X101764628Y-85004285D01*
X101764628Y-85004285D02*
X101612247Y-84956666D01*
X101612247Y-84956666D02*
X101497961Y-84956666D01*
X101497961Y-84956666D02*
X101345580Y-85004285D01*
X101345580Y-85004285D02*
X101269390Y-85051904D01*
X101269390Y-85051904D02*
X101193200Y-85147142D01*
X101193200Y-85147142D02*
X101155104Y-85289999D01*
X101155104Y-85289999D02*
X101155104Y-85528094D01*
X99415104Y-87480475D02*
X98615104Y-87147142D01*
X98615104Y-87147142D02*
X99415104Y-86813809D01*
X98653200Y-86051904D02*
X98615104Y-86147142D01*
X98615104Y-86147142D02*
X98615104Y-86337618D01*
X98615104Y-86337618D02*
X98653200Y-86432856D01*
X98653200Y-86432856D02*
X98691295Y-86480475D01*
X98691295Y-86480475D02*
X98767485Y-86528094D01*
X98767485Y-86528094D02*
X98996057Y-86528094D01*
X98996057Y-86528094D02*
X99072247Y-86480475D01*
X99072247Y-86480475D02*
X99110342Y-86432856D01*
X99110342Y-86432856D02*
X99148438Y-86337618D01*
X99148438Y-86337618D02*
X99148438Y-86147142D01*
X99148438Y-86147142D02*
X99110342Y-86051904D01*
X98653200Y-85194761D02*
X98615104Y-85289999D01*
X98615104Y-85289999D02*
X98615104Y-85480475D01*
X98615104Y-85480475D02*
X98653200Y-85575713D01*
X98653200Y-85575713D02*
X98691295Y-85623332D01*
X98691295Y-85623332D02*
X98767485Y-85670951D01*
X98767485Y-85670951D02*
X98996057Y-85670951D01*
X98996057Y-85670951D02*
X99072247Y-85623332D01*
X99072247Y-85623332D02*
X99110342Y-85575713D01*
X99110342Y-85575713D02*
X99148438Y-85480475D01*
X99148438Y-85480475D02*
X99148438Y-85289999D01*
X99148438Y-85289999D02*
X99110342Y-85194761D01*
X93573200Y-87480475D02*
X93535104Y-87337618D01*
X93535104Y-87337618D02*
X93535104Y-87099523D01*
X93535104Y-87099523D02*
X93573200Y-87004285D01*
X93573200Y-87004285D02*
X93611295Y-86956666D01*
X93611295Y-86956666D02*
X93687485Y-86909047D01*
X93687485Y-86909047D02*
X93763676Y-86909047D01*
X93763676Y-86909047D02*
X93839866Y-86956666D01*
X93839866Y-86956666D02*
X93877961Y-87004285D01*
X93877961Y-87004285D02*
X93916057Y-87099523D01*
X93916057Y-87099523D02*
X93954152Y-87289999D01*
X93954152Y-87289999D02*
X93992247Y-87385237D01*
X93992247Y-87385237D02*
X94030342Y-87432856D01*
X94030342Y-87432856D02*
X94106533Y-87480475D01*
X94106533Y-87480475D02*
X94182723Y-87480475D01*
X94182723Y-87480475D02*
X94258914Y-87432856D01*
X94258914Y-87432856D02*
X94297009Y-87385237D01*
X94297009Y-87385237D02*
X94335104Y-87289999D01*
X94335104Y-87289999D02*
X94335104Y-87051904D01*
X94335104Y-87051904D02*
X94297009Y-86909047D01*
X93611295Y-85909047D02*
X93573200Y-85956666D01*
X93573200Y-85956666D02*
X93535104Y-86099523D01*
X93535104Y-86099523D02*
X93535104Y-86194761D01*
X93535104Y-86194761D02*
X93573200Y-86337618D01*
X93573200Y-86337618D02*
X93649390Y-86432856D01*
X93649390Y-86432856D02*
X93725580Y-86480475D01*
X93725580Y-86480475D02*
X93877961Y-86528094D01*
X93877961Y-86528094D02*
X93992247Y-86528094D01*
X93992247Y-86528094D02*
X94144628Y-86480475D01*
X94144628Y-86480475D02*
X94220819Y-86432856D01*
X94220819Y-86432856D02*
X94297009Y-86337618D01*
X94297009Y-86337618D02*
X94335104Y-86194761D01*
X94335104Y-86194761D02*
X94335104Y-86099523D01*
X94335104Y-86099523D02*
X94297009Y-85956666D01*
X94297009Y-85956666D02*
X94258914Y-85909047D01*
X93535104Y-85004285D02*
X93535104Y-85480475D01*
X93535104Y-85480475D02*
X94335104Y-85480475D01*
X96113200Y-87504285D02*
X96075104Y-87361428D01*
X96075104Y-87361428D02*
X96075104Y-87123333D01*
X96075104Y-87123333D02*
X96113200Y-87028095D01*
X96113200Y-87028095D02*
X96151295Y-86980476D01*
X96151295Y-86980476D02*
X96227485Y-86932857D01*
X96227485Y-86932857D02*
X96303676Y-86932857D01*
X96303676Y-86932857D02*
X96379866Y-86980476D01*
X96379866Y-86980476D02*
X96417961Y-87028095D01*
X96417961Y-87028095D02*
X96456057Y-87123333D01*
X96456057Y-87123333D02*
X96494152Y-87313809D01*
X96494152Y-87313809D02*
X96532247Y-87409047D01*
X96532247Y-87409047D02*
X96570342Y-87456666D01*
X96570342Y-87456666D02*
X96646533Y-87504285D01*
X96646533Y-87504285D02*
X96722723Y-87504285D01*
X96722723Y-87504285D02*
X96798914Y-87456666D01*
X96798914Y-87456666D02*
X96837009Y-87409047D01*
X96837009Y-87409047D02*
X96875104Y-87313809D01*
X96875104Y-87313809D02*
X96875104Y-87075714D01*
X96875104Y-87075714D02*
X96837009Y-86932857D01*
X96075104Y-86504285D02*
X96875104Y-86504285D01*
X96875104Y-86504285D02*
X96875104Y-86266190D01*
X96875104Y-86266190D02*
X96837009Y-86123333D01*
X96837009Y-86123333D02*
X96760819Y-86028095D01*
X96760819Y-86028095D02*
X96684628Y-85980476D01*
X96684628Y-85980476D02*
X96532247Y-85932857D01*
X96532247Y-85932857D02*
X96417961Y-85932857D01*
X96417961Y-85932857D02*
X96265580Y-85980476D01*
X96265580Y-85980476D02*
X96189390Y-86028095D01*
X96189390Y-86028095D02*
X96113200Y-86123333D01*
X96113200Y-86123333D02*
X96075104Y-86266190D01*
X96075104Y-86266190D02*
X96075104Y-86504285D01*
X96303676Y-85551904D02*
X96303676Y-85075714D01*
X96075104Y-85647142D02*
X96875104Y-85313809D01*
X96875104Y-85313809D02*
X96075104Y-84980476D01*
D11*
%TO.C,G\u002A\u002A\u002A*%
G36*
X117600875Y-97586543D02*
G01*
X117573085Y-97614332D01*
X117545295Y-97586543D01*
X117573085Y-97558753D01*
X117600875Y-97586543D01*
G37*
G36*
X113164428Y-98448056D02*
G01*
X113187686Y-98500787D01*
X113199999Y-98635225D01*
X113198710Y-98822834D01*
X113194544Y-98913299D01*
X113181578Y-99076098D01*
X113155487Y-99165601D01*
X113104172Y-99208905D01*
X113015536Y-99233107D01*
X112881419Y-99250792D01*
X112670222Y-99263498D01*
X112419739Y-99269579D01*
X112160025Y-99269118D01*
X111921134Y-99262196D01*
X111733121Y-99248898D01*
X111626039Y-99229303D01*
X111610808Y-99222880D01*
X111574403Y-99192740D01*
X111621532Y-99161635D01*
X111764989Y-99119450D01*
X111896924Y-99082064D01*
X112182968Y-98984462D01*
X112466344Y-98869104D01*
X112720962Y-98747934D01*
X112920731Y-98632896D01*
X113039562Y-98535936D01*
X113089844Y-98486248D01*
X113163831Y-98448031D01*
X113164428Y-98448056D01*
G37*
G36*
X117163229Y-98215335D02*
G01*
X117419408Y-98405955D01*
X117430304Y-98416532D01*
X117541384Y-98537826D01*
X117569709Y-98598057D01*
X117517364Y-98590698D01*
X117386433Y-98509220D01*
X117324177Y-98468261D01*
X117070239Y-98365541D01*
X116825532Y-98361195D01*
X116608267Y-98452761D01*
X116436658Y-98637771D01*
X116397000Y-98707368D01*
X116320434Y-98909720D01*
X116292046Y-99144075D01*
X116310602Y-99433725D01*
X116374864Y-99801960D01*
X116400025Y-99929554D01*
X116445689Y-100203718D01*
X116477155Y-100452963D01*
X116488735Y-100635659D01*
X116481187Y-100762675D01*
X116397470Y-101100035D01*
X116235483Y-101412121D01*
X116013219Y-101660170D01*
X115968794Y-101695784D01*
X115843105Y-101781870D01*
X115776798Y-101804067D01*
X115780532Y-101762564D01*
X115864967Y-101657549D01*
X116011382Y-101463258D01*
X116143037Y-101148741D01*
X116201370Y-100766783D01*
X116187136Y-100311370D01*
X116101089Y-99776489D01*
X116100319Y-99772837D01*
X116034994Y-99435049D01*
X116001933Y-99177966D01*
X116000998Y-98976199D01*
X116032054Y-98804360D01*
X116094963Y-98637061D01*
X116210752Y-98446703D01*
X116433593Y-98249855D01*
X116714052Y-98143427D01*
X116902684Y-98134696D01*
X117163229Y-98215335D01*
G37*
G36*
X119160974Y-98037813D02*
G01*
X119224819Y-98143177D01*
X119308932Y-98306684D01*
X119402307Y-98504900D01*
X119493936Y-98714390D01*
X119572815Y-98911717D01*
X119627934Y-99073448D01*
X119664944Y-99213695D01*
X119723955Y-99482892D01*
X119767752Y-99737087D01*
X119788182Y-99956877D01*
X119795041Y-100333653D01*
X119777783Y-100754364D01*
X119738227Y-101181629D01*
X119678191Y-101578072D01*
X119640673Y-101760805D01*
X119554062Y-102104867D01*
X119438501Y-102480136D01*
X119288235Y-102903377D01*
X119097514Y-103391355D01*
X118860583Y-103960836D01*
X118519804Y-104794784D01*
X118177410Y-105720609D01*
X117898797Y-106583660D01*
X117686382Y-107376362D01*
X117542582Y-108091138D01*
X117538004Y-108120583D01*
X117505592Y-108415025D01*
X117486237Y-108757519D01*
X117479979Y-109116380D01*
X117486858Y-109459925D01*
X117506915Y-109756471D01*
X117540189Y-109974333D01*
X117561789Y-110072033D01*
X117584490Y-110204956D01*
X117584838Y-110265527D01*
X117556656Y-110250154D01*
X117488432Y-110156280D01*
X117394268Y-109998775D01*
X117285444Y-109798558D01*
X117173239Y-109576548D01*
X117068934Y-109353664D01*
X116983806Y-109150827D01*
X116825058Y-108666318D01*
X116688445Y-107956815D01*
X116659268Y-107239098D01*
X116738716Y-106525896D01*
X116769041Y-106376303D01*
X116851328Y-106042107D01*
X116959144Y-105691233D01*
X117097764Y-105310572D01*
X117272463Y-104887016D01*
X117488515Y-104407458D01*
X117751193Y-103858788D01*
X118065774Y-103227899D01*
X118193769Y-102974217D01*
X118470373Y-102417943D01*
X118699444Y-101941033D01*
X118885280Y-101530699D01*
X119032183Y-101174157D01*
X119144451Y-100858618D01*
X119226385Y-100571298D01*
X119282285Y-100299409D01*
X119316451Y-100030165D01*
X119333182Y-99750780D01*
X119336780Y-99448468D01*
X119335703Y-99341264D01*
X119320103Y-98981118D01*
X119283348Y-98686239D01*
X119221444Y-98421040D01*
X119214340Y-98396285D01*
X119164298Y-98209009D01*
X119133932Y-98071638D01*
X119129586Y-98012390D01*
X119160974Y-98037813D01*
G37*
G36*
X116844134Y-95551820D02*
G01*
X117309605Y-95686265D01*
X117735675Y-95911413D01*
X118112655Y-96222393D01*
X118430855Y-96614332D01*
X118680586Y-97082360D01*
X118852158Y-97621605D01*
X118867087Y-97693642D01*
X118909580Y-98184357D01*
X118864085Y-98739521D01*
X118731273Y-99357010D01*
X118511815Y-100034699D01*
X118206384Y-100770463D01*
X117815648Y-101562178D01*
X117340280Y-102407721D01*
X117221188Y-102611065D01*
X116964384Y-103076735D01*
X116759732Y-103497075D01*
X116593823Y-103900955D01*
X116453246Y-104317243D01*
X116405361Y-104479299D01*
X116359200Y-104664421D01*
X116329039Y-104844597D01*
X116311561Y-105048843D01*
X116303448Y-105306180D01*
X116301384Y-105645624D01*
X116301544Y-105765283D01*
X116305567Y-106082947D01*
X116316920Y-106323334D01*
X116338179Y-106512180D01*
X116371920Y-106675225D01*
X116420718Y-106838205D01*
X116422016Y-106842101D01*
X116478799Y-107023957D01*
X116513924Y-107158774D01*
X116519833Y-107217621D01*
X116494296Y-107212422D01*
X116419577Y-107136205D01*
X116313170Y-106994822D01*
X116188021Y-106807915D01*
X116057079Y-106595126D01*
X115933288Y-106376096D01*
X115829596Y-106170465D01*
X115726555Y-105935773D01*
X115588125Y-105537906D01*
X115512070Y-105159545D01*
X115488840Y-104761196D01*
X115489454Y-104686184D01*
X115511209Y-104338155D01*
X115568755Y-104001879D01*
X115668411Y-103661530D01*
X115816499Y-103301284D01*
X116019341Y-102905313D01*
X116283257Y-102457794D01*
X116614570Y-101942900D01*
X116681562Y-101841438D01*
X117117437Y-101157416D01*
X117479024Y-100542077D01*
X117770210Y-99986821D01*
X117994884Y-99483047D01*
X118156931Y-99022153D01*
X118260239Y-98595540D01*
X118308697Y-98194607D01*
X118317210Y-97893077D01*
X118299081Y-97622199D01*
X118248878Y-97386385D01*
X118188488Y-97213150D01*
X117973404Y-96822757D01*
X117669435Y-96475877D01*
X117290507Y-96186625D01*
X116850547Y-95969117D01*
X116627906Y-95910008D01*
X116306159Y-95869826D01*
X115945850Y-95857817D01*
X115583528Y-95873622D01*
X115255744Y-95916882D01*
X114999049Y-95987241D01*
X114841838Y-96044002D01*
X114764362Y-96057701D01*
X114769316Y-96031562D01*
X114849193Y-95972912D01*
X114996488Y-95889083D01*
X115203696Y-95787403D01*
X115308211Y-95741410D01*
X115833748Y-95574521D01*
X116348952Y-95512948D01*
X116844134Y-95551820D01*
G37*
G36*
X115887090Y-96119305D02*
G01*
X115991655Y-96138051D01*
X116463170Y-96279929D01*
X116861132Y-96502968D01*
X117182948Y-96805373D01*
X117426023Y-97185344D01*
X117489262Y-97320617D01*
X117533402Y-97436514D01*
X117520809Y-97457100D01*
X117451199Y-97382450D01*
X117324292Y-97212641D01*
X117257561Y-97124593D01*
X116935159Y-96805655D01*
X116558169Y-96575629D01*
X116140542Y-96437822D01*
X115696231Y-96395537D01*
X115239187Y-96452080D01*
X114783364Y-96610756D01*
X114755301Y-96623987D01*
X114587100Y-96708061D01*
X114473980Y-96772924D01*
X114439125Y-96805463D01*
X114463340Y-96809836D01*
X114570873Y-96800008D01*
X114729832Y-96771247D01*
X114967873Y-96742283D01*
X115257135Y-96778655D01*
X115369043Y-96813301D01*
X115544565Y-96886618D01*
X115708472Y-96972356D01*
X115829792Y-97053770D01*
X115877554Y-97114114D01*
X115854700Y-97123693D01*
X115748953Y-97130369D01*
X115586139Y-97126580D01*
X115294311Y-97111257D01*
X115581503Y-97253700D01*
X115711160Y-97330396D01*
X115872230Y-97448711D01*
X116028161Y-97581639D01*
X116157561Y-97709465D01*
X116239037Y-97812470D01*
X116251197Y-97870940D01*
X116191861Y-97871767D01*
X116076519Y-97838207D01*
X116065845Y-97834334D01*
X115899881Y-97796589D01*
X115714080Y-97781072D01*
X115501918Y-97781072D01*
X115717698Y-97996853D01*
X115746704Y-98026400D01*
X115869581Y-98169520D01*
X115928735Y-98272382D01*
X115919252Y-98322161D01*
X115836214Y-98306032D01*
X115804120Y-98292707D01*
X115575764Y-98238185D01*
X115368274Y-98251605D01*
X115216270Y-98331541D01*
X115167522Y-98389294D01*
X115111640Y-98529699D01*
X115121353Y-98708039D01*
X115198883Y-98939826D01*
X115346452Y-99240572D01*
X115543456Y-99638920D01*
X115733031Y-100120467D01*
X115852234Y-100563245D01*
X115895241Y-100949125D01*
X115894599Y-101031110D01*
X115858269Y-101329224D01*
X115758726Y-101565897D01*
X115584182Y-101772330D01*
X115446643Y-101900786D01*
X115424157Y-101547646D01*
X115410712Y-101405705D01*
X115366120Y-101208284D01*
X115280871Y-101037649D01*
X115140442Y-100874345D01*
X114930308Y-100698919D01*
X114635944Y-100491916D01*
X114581458Y-100455020D01*
X114171499Y-100155468D01*
X113833918Y-99867629D01*
X113701398Y-99729021D01*
X114266083Y-99729021D01*
X114267727Y-99740993D01*
X114322659Y-99829403D01*
X114427612Y-99934721D01*
X114544558Y-100022889D01*
X114635468Y-100059847D01*
X114667819Y-100058002D01*
X114704805Y-100030891D01*
X114666722Y-99960574D01*
X114548258Y-99833252D01*
X114519879Y-99805609D01*
X114387200Y-99700513D01*
X114298442Y-99673447D01*
X114266083Y-99729021D01*
X113701398Y-99729021D01*
X113579096Y-99601101D01*
X113417412Y-99365479D01*
X113408578Y-99347706D01*
X113322444Y-99076677D01*
X113276958Y-98709826D01*
X113273320Y-98653900D01*
X113255907Y-98465318D01*
X113235813Y-98337625D01*
X113216691Y-98295908D01*
X113001646Y-98402870D01*
X112792024Y-98469763D01*
X112561485Y-98495775D01*
X112266104Y-98489866D01*
X112204353Y-98485962D01*
X111965369Y-98462244D01*
X111759615Y-98429467D01*
X111626039Y-98393497D01*
X111459300Y-98323227D01*
X111784723Y-98246641D01*
X111957991Y-98198272D01*
X112414732Y-98004976D01*
X112885081Y-97716828D01*
X113355029Y-97341896D01*
X113386583Y-97313738D01*
X113816805Y-96940316D01*
X113912078Y-96864004D01*
X114321663Y-96864004D01*
X114349453Y-96891794D01*
X114377243Y-96864004D01*
X114349453Y-96836214D01*
X114321663Y-96864004D01*
X113912078Y-96864004D01*
X114187360Y-96643507D01*
X114298442Y-96565836D01*
X114349453Y-96530168D01*
X114511272Y-96417020D01*
X114801567Y-96254567D01*
X115071271Y-96149859D01*
X115333409Y-96096605D01*
X115601007Y-96088517D01*
X115887090Y-96119305D01*
G37*
%TD*%
M02*
