%TF.GenerationSoftware,KiCad,Pcbnew,8.0.4*%
%TF.CreationDate,2024-07-25T22:54:18-04:00*%
%TF.ProjectId,esp32-node-board-40x65_telemetry,65737033-322d-46e6-9f64-652d626f6172,rev?*%
%TF.SameCoordinates,Original*%
%TF.FileFunction,Copper,L1,Top*%
%TF.FilePolarity,Positive*%
%FSLAX46Y46*%
G04 Gerber Fmt 4.6, Leading zero omitted, Abs format (unit mm)*
G04 Created by KiCad (PCBNEW 8.0.4) date 2024-07-25 22:54:18*
%MOMM*%
%LPD*%
G01*
G04 APERTURE LIST*
G04 Aperture macros list*
%AMRoundRect*
0 Rectangle with rounded corners*
0 $1 Rounding radius*
0 $2 $3 $4 $5 $6 $7 $8 $9 X,Y pos of 4 corners*
0 Add a 4 corners polygon primitive as box body*
4,1,4,$2,$3,$4,$5,$6,$7,$8,$9,$2,$3,0*
0 Add four circle primitives for the rounded corners*
1,1,$1+$1,$2,$3*
1,1,$1+$1,$4,$5*
1,1,$1+$1,$6,$7*
1,1,$1+$1,$8,$9*
0 Add four rect primitives between the rounded corners*
20,1,$1+$1,$2,$3,$4,$5,0*
20,1,$1+$1,$4,$5,$6,$7,0*
20,1,$1+$1,$6,$7,$8,$9,0*
20,1,$1+$1,$8,$9,$2,$3,0*%
G04 Aperture macros list end*
%TA.AperFunction,ComponentPad*%
%ADD10R,1.500000X1.500000*%
%TD*%
%TA.AperFunction,ComponentPad*%
%ADD11C,1.600000*%
%TD*%
%TA.AperFunction,ComponentPad*%
%ADD12R,1.700000X1.700000*%
%TD*%
%TA.AperFunction,ComponentPad*%
%ADD13O,1.700000X1.700000*%
%TD*%
%TA.AperFunction,ComponentPad*%
%ADD14C,1.524000*%
%TD*%
%TA.AperFunction,ComponentPad*%
%ADD15R,1.524000X1.524000*%
%TD*%
%TA.AperFunction,ComponentPad*%
%ADD16C,5.000000*%
%TD*%
%TA.AperFunction,SMDPad,CuDef*%
%ADD17RoundRect,0.250000X-1.075000X0.375000X-1.075000X-0.375000X1.075000X-0.375000X1.075000X0.375000X0*%
%TD*%
%TA.AperFunction,ComponentPad*%
%ADD18R,1.200000X1.200000*%
%TD*%
%TA.AperFunction,ComponentPad*%
%ADD19C,1.200000*%
%TD*%
%TA.AperFunction,ViaPad*%
%ADD20C,0.800000*%
%TD*%
%TA.AperFunction,Conductor*%
%ADD21C,0.500000*%
%TD*%
%TA.AperFunction,Conductor*%
%ADD22C,0.250000*%
%TD*%
G04 APERTURE END LIST*
D10*
%TO.P,SW2,1,COM*%
%TO.N,/VIN*%
X141000000Y-94250000D03*
D11*
%TO.P,SW2,2,A*%
%TO.N,unconnected-(SW2-A-Pad2)*%
X141000000Y-91710000D03*
%TO.P,SW2,3,B*%
%TO.N,/VDC*%
X141000000Y-96790000D03*
%TD*%
D12*
%TO.P,J6,1,CLK*%
%TO.N,unconnected-(J6-CLK-Pad1)*%
X134420000Y-88750000D03*
D13*
%TO.P,J6,2,D0*%
%TO.N,unconnected-(J6-D0-Pad2)*%
X131880000Y-88750000D03*
%TO.P,J6,3,D1*%
%TO.N,unconnected-(J6-D1-Pad3)*%
X129340000Y-88750000D03*
%TO.P,J6,4,15*%
%TO.N,unconnected-(J6-15-Pad4)*%
X126800000Y-88750000D03*
%TO.P,J6,5,2*%
%TO.N,unconnected-(J6-2-Pad5)*%
X124260000Y-88750000D03*
%TO.P,J6,6,0*%
%TO.N,unconnected-(J6-0-Pad6)*%
X121720000Y-88750000D03*
%TO.P,J6,7,4*%
%TO.N,unconnected-(J6-4-Pad7)*%
X119180000Y-88750000D03*
%TO.P,J6,8,16*%
%TO.N,unconnected-(J6-16-Pad8)*%
X116640000Y-88750000D03*
%TO.P,J6,9,17*%
%TO.N,unconnected-(J6-17-Pad9)*%
X114100000Y-88750000D03*
%TO.P,J6,10,5*%
%TO.N,/SPI-CSB*%
X111560000Y-88750000D03*
%TO.P,J6,11,18*%
%TO.N,/SPI-SCL*%
X109020000Y-88750000D03*
%TO.P,J6,12,19*%
%TO.N,/SPI-SDO*%
X106480000Y-88750000D03*
%TO.P,J6,13,GND*%
%TO.N,GND*%
X103940000Y-88750000D03*
%TO.P,J6,14,21*%
%TO.N,/SDA-2*%
X101400000Y-88750000D03*
%TO.P,J6,15,RX*%
%TO.N,/RX*%
X98860000Y-88750000D03*
%TO.P,J6,16,TX*%
%TO.N,/TX*%
X96320000Y-88750000D03*
%TO.P,J6,17,22*%
%TO.N,/SCL-2*%
X93780000Y-88750000D03*
%TO.P,J6,18,23*%
%TO.N,/SPI-SDA*%
X91240000Y-88750000D03*
%TO.P,J6,19,GND*%
%TO.N,GND*%
X88700000Y-88750000D03*
%TO.P,J6,20,3V3*%
%TO.N,+3V3*%
X88700000Y-114150000D03*
%TO.P,J6,21,EN*%
%TO.N,unconnected-(J6-EN-Pad21)*%
X91240000Y-114150000D03*
%TO.P,J6,22,VN*%
%TO.N,unconnected-(J6-VN-Pad22)*%
X93780000Y-114150000D03*
%TO.P,J6,23,VP*%
%TO.N,unconnected-(J6-VP-Pad23)*%
X96320000Y-114150000D03*
%TO.P,J6,24,34*%
%TO.N,unconnected-(J6-34-Pad24)*%
X98860000Y-114150000D03*
%TO.P,J6,25,35*%
%TO.N,unconnected-(J6-35-Pad25)*%
X101400000Y-114150000D03*
%TO.P,J6,26,32*%
%TO.N,unconnected-(J6-32-Pad26)*%
X103940000Y-114150000D03*
%TO.P,J6,27,33*%
%TO.N,unconnected-(J6-33-Pad27)*%
X106480000Y-114150000D03*
%TO.P,J6,28,25*%
%TO.N,unconnected-(J6-25-Pad28)*%
X109020000Y-114150000D03*
%TO.P,J6,29,26*%
%TO.N,unconnected-(J6-26-Pad29)*%
X111560000Y-114150000D03*
%TO.P,J6,30,27*%
%TO.N,unconnected-(J6-27-Pad30)*%
X114100000Y-114150000D03*
%TO.P,J6,31,14*%
%TO.N,unconnected-(J6-14-Pad31)*%
X116640000Y-114150000D03*
%TO.P,J6,32,12*%
%TO.N,unconnected-(J6-12-Pad32)*%
X119180000Y-114150000D03*
%TO.P,J6,33,GND*%
%TO.N,GND*%
X121720000Y-114150000D03*
%TO.P,J6,34,13*%
%TO.N,unconnected-(J6-13-Pad34)*%
X124260000Y-114150000D03*
%TO.P,J6,35,D2*%
%TO.N,unconnected-(J6-D2-Pad35)*%
X126800000Y-114150000D03*
%TO.P,J6,36,D3*%
%TO.N,unconnected-(J6-D3-Pad36)*%
X129340000Y-114150000D03*
%TO.P,J6,37,CMD*%
%TO.N,unconnected-(J6-CMD-Pad37)*%
X131880000Y-114150000D03*
%TO.P,J6,38,5V*%
%TO.N,+5V*%
X134310000Y-114150000D03*
%TD*%
D14*
%TO.P,J5,CSB,CSB*%
%TO.N,/SPI-CSB*%
X84500000Y-97490000D03*
%TO.P,J5,GND,GND*%
%TO.N,GND*%
X84500000Y-105110000D03*
%TO.P,J5,SCL,SCL*%
%TO.N,/SPI-SCL*%
X84500000Y-102570000D03*
%TO.P,J5,SDA,SDA*%
%TO.N,/SPI-SDA*%
X84500000Y-100030000D03*
%TO.P,J5,SDO,SDO*%
%TO.N,/SPI-SDO*%
X84500000Y-94950000D03*
D15*
%TO.P,J5,Vcc,VCC*%
%TO.N,+3V3*%
X84500000Y-107650000D03*
%TD*%
%TO.P,J3,GND,GND*%
%TO.N,GND*%
X103540000Y-83750000D03*
D14*
%TO.P,J3,SCL,SCL*%
%TO.N,/SCL-2*%
X95920000Y-83750000D03*
%TO.P,J3,SDA,SDA*%
%TO.N,/SDA-2*%
X98460000Y-83750000D03*
%TO.P,J3,Vcc,VCC*%
%TO.N,+3V3*%
X101000000Y-83750000D03*
%TD*%
D12*
%TO.P,J1,1,Pin_1*%
%TO.N,GND*%
X141075000Y-112117500D03*
D13*
%TO.P,J1,2,Pin_2*%
%TO.N,Net-(D1-A)*%
X141075000Y-109577500D03*
%TD*%
D16*
%TO.P,H1,1,GND*%
%TO.N,GND*%
X82875002Y-84570000D03*
%TO.P,H1,2,GND*%
X82875002Y-118570000D03*
%TO.P,H1,3,GND*%
X141875002Y-118570000D03*
%TO.P,H1,4,GND*%
X141875002Y-84570000D03*
%TD*%
D17*
%TO.P,D1,1,K*%
%TO.N,/VDC*%
X142000000Y-101950000D03*
%TO.P,D1,2,A*%
%TO.N,Net-(D1-A)*%
X142000000Y-104750000D03*
%TD*%
D18*
%TO.P,C2,1*%
%TO.N,+5V*%
X133000000Y-108250000D03*
D19*
%TO.P,C2,2*%
%TO.N,GND*%
X131000000Y-108250000D03*
%TD*%
D18*
%TO.P,C1,1*%
%TO.N,/VIN*%
X133072600Y-94250000D03*
D19*
%TO.P,C1,2*%
%TO.N,GND*%
X131072600Y-94250000D03*
%TD*%
D20*
%TO.N,/SPI-SCL*%
X107750000Y-92250000D03*
X107750000Y-94750000D03*
%TO.N,/SPI-SDA*%
X91140000Y-93250000D03*
X89000000Y-98500000D03*
%TD*%
D21*
%TO.N,+3V3*%
X100600000Y-85750000D02*
X101000000Y-85350000D01*
X87750000Y-85750000D02*
X100600000Y-85750000D01*
X82250000Y-91250000D02*
X87750000Y-85750000D01*
X82250000Y-110000000D02*
X82250000Y-91250000D01*
X101000000Y-85350000D02*
X101000000Y-83750000D01*
X85250000Y-113000000D02*
X82250000Y-110000000D01*
X84500000Y-107660000D02*
X84500000Y-112250000D01*
X88600000Y-114150000D02*
X86400000Y-114150000D01*
X84500000Y-112250000D02*
X85250000Y-113000000D01*
X86400000Y-114150000D02*
X85250000Y-113000000D01*
D22*
%TO.N,/SPI-SCL*%
X107750000Y-92250000D02*
X107750000Y-94750000D01*
%TO.N,/SPI-SDA*%
X91140000Y-93250000D02*
X91140000Y-96360000D01*
X91140000Y-96360000D02*
X89000000Y-98500000D01*
%TD*%
%TA.AperFunction,Conductor*%
%TO.N,GND*%
G36*
X140248844Y-81840185D02*
G01*
X140294599Y-81892989D01*
X140304543Y-81962147D01*
X140275518Y-82025703D01*
X140249944Y-82048100D01*
X140080487Y-82159553D01*
X139937821Y-82279264D01*
X139937820Y-82279265D01*
X140789415Y-83130860D01*
X140822900Y-83192183D01*
X140817916Y-83261875D01*
X140786076Y-83309439D01*
X140651260Y-83434529D01*
X140651258Y-83434532D01*
X140620077Y-83473632D01*
X140562888Y-83513772D01*
X140493077Y-83516622D01*
X140435449Y-83484000D01*
X139581150Y-82629701D01*
X139581149Y-82629702D01*
X139572978Y-82638363D01*
X139572974Y-82638368D01*
X139364291Y-82918677D01*
X139189563Y-83221316D01*
X139189557Y-83221329D01*
X139051147Y-83542199D01*
X138950918Y-83876988D01*
X138950916Y-83876997D01*
X138890238Y-84221119D01*
X138890237Y-84221130D01*
X138869918Y-84569996D01*
X138869918Y-84570003D01*
X138890237Y-84918869D01*
X138890238Y-84918880D01*
X138950916Y-85263002D01*
X138950918Y-85263011D01*
X139051147Y-85597800D01*
X139189557Y-85918670D01*
X139189563Y-85918683D01*
X139364291Y-86221322D01*
X139572969Y-86501625D01*
X139581150Y-86510296D01*
X140435448Y-85655999D01*
X140496771Y-85622514D01*
X140566463Y-85627498D01*
X140620075Y-85666366D01*
X140651260Y-85705471D01*
X140786074Y-85830559D01*
X140821829Y-85890588D01*
X140819454Y-85960417D01*
X140789414Y-86009139D01*
X139937820Y-86860732D01*
X139937821Y-86860734D01*
X140080486Y-86980445D01*
X140372463Y-87172480D01*
X140684741Y-87329314D01*
X140684747Y-87329316D01*
X141013132Y-87448838D01*
X141013135Y-87448839D01*
X141353173Y-87529429D01*
X141700278Y-87569999D01*
X141700279Y-87570000D01*
X142049725Y-87570000D01*
X142049725Y-87569999D01*
X142396829Y-87529429D01*
X142396831Y-87529429D01*
X142736868Y-87448839D01*
X142736871Y-87448838D01*
X143065256Y-87329316D01*
X143065262Y-87329314D01*
X143377540Y-87172480D01*
X143669511Y-86980449D01*
X143669512Y-86980448D01*
X143812181Y-86860734D01*
X143812182Y-86860733D01*
X142960589Y-86009140D01*
X142927104Y-85947817D01*
X142932088Y-85878125D01*
X142963929Y-85830560D01*
X143002740Y-85794548D01*
X143098746Y-85705468D01*
X143129926Y-85666368D01*
X143187114Y-85626228D01*
X143256926Y-85623378D01*
X143314555Y-85656000D01*
X144168852Y-86510297D01*
X144168853Y-86510296D01*
X144177024Y-86501636D01*
X144177035Y-86501623D01*
X144385712Y-86221322D01*
X144393114Y-86208502D01*
X144443680Y-86160286D01*
X144512286Y-86147061D01*
X144577152Y-86173028D01*
X144617681Y-86229941D01*
X144624502Y-86270500D01*
X144624502Y-116869499D01*
X144604817Y-116936538D01*
X144552013Y-116982293D01*
X144482855Y-116992237D01*
X144419299Y-116963212D01*
X144393115Y-116931500D01*
X144385709Y-116918674D01*
X144177034Y-116638374D01*
X144168852Y-116629702D01*
X143314554Y-117483999D01*
X143253231Y-117517484D01*
X143183539Y-117512500D01*
X143129926Y-117473631D01*
X143098742Y-117434527D01*
X142963928Y-117309439D01*
X142928173Y-117249410D01*
X142930548Y-117179581D01*
X142960588Y-117130859D01*
X143812182Y-116279265D01*
X143812181Y-116279264D01*
X143669521Y-116159557D01*
X143377540Y-115967519D01*
X143065262Y-115810685D01*
X143065256Y-115810683D01*
X142736871Y-115691161D01*
X142736868Y-115691160D01*
X142396830Y-115610570D01*
X142049725Y-115570000D01*
X141700279Y-115570000D01*
X141353174Y-115610570D01*
X141353172Y-115610570D01*
X141013135Y-115691160D01*
X141013132Y-115691161D01*
X140684747Y-115810683D01*
X140684741Y-115810685D01*
X140372463Y-115967519D01*
X140080482Y-116159557D01*
X139937821Y-116279264D01*
X139937820Y-116279265D01*
X140789415Y-117130860D01*
X140822900Y-117192183D01*
X140817916Y-117261875D01*
X140786076Y-117309439D01*
X140651260Y-117434529D01*
X140651258Y-117434532D01*
X140620077Y-117473632D01*
X140562888Y-117513772D01*
X140493077Y-117516622D01*
X140435449Y-117484000D01*
X139581150Y-116629701D01*
X139581149Y-116629702D01*
X139572978Y-116638363D01*
X139572974Y-116638368D01*
X139364291Y-116918677D01*
X139189563Y-117221316D01*
X139189557Y-117221329D01*
X139051147Y-117542199D01*
X138950918Y-117876988D01*
X138950916Y-117876997D01*
X138890238Y-118221119D01*
X138890237Y-118221130D01*
X138869918Y-118569996D01*
X138869918Y-118570003D01*
X138890237Y-118918869D01*
X138890238Y-118918880D01*
X138950916Y-119263002D01*
X138950918Y-119263011D01*
X139051147Y-119597800D01*
X139189557Y-119918670D01*
X139189563Y-119918683D01*
X139364291Y-120221322D01*
X139572969Y-120501625D01*
X139581150Y-120510296D01*
X140435448Y-119655999D01*
X140496771Y-119622514D01*
X140566463Y-119627498D01*
X140620075Y-119666366D01*
X140651260Y-119705471D01*
X140786074Y-119830559D01*
X140821829Y-119890588D01*
X140819454Y-119960417D01*
X140789414Y-120009139D01*
X139937820Y-120860732D01*
X139937821Y-120860734D01*
X140080486Y-120980445D01*
X140249944Y-121091899D01*
X140295138Y-121145184D01*
X140304349Y-121214444D01*
X140274654Y-121277689D01*
X140215480Y-121314840D01*
X140181805Y-121319500D01*
X84568199Y-121319500D01*
X84501160Y-121299815D01*
X84455405Y-121247011D01*
X84445461Y-121177853D01*
X84474486Y-121114297D01*
X84500060Y-121091899D01*
X84669511Y-120980449D01*
X84669512Y-120980448D01*
X84812181Y-120860734D01*
X84812182Y-120860733D01*
X83960589Y-120009140D01*
X83927104Y-119947817D01*
X83932088Y-119878125D01*
X83963929Y-119830560D01*
X84065329Y-119736474D01*
X84098746Y-119705468D01*
X84129926Y-119666368D01*
X84187114Y-119626228D01*
X84256926Y-119623378D01*
X84314555Y-119656000D01*
X85168852Y-120510297D01*
X85168853Y-120510296D01*
X85177024Y-120501636D01*
X85177035Y-120501623D01*
X85385712Y-120221322D01*
X85560440Y-119918683D01*
X85560446Y-119918670D01*
X85698856Y-119597800D01*
X85799085Y-119263011D01*
X85799087Y-119263002D01*
X85859765Y-118918880D01*
X85859766Y-118918869D01*
X85880086Y-118570003D01*
X85880086Y-118569996D01*
X85859766Y-118221130D01*
X85859765Y-118221119D01*
X85799087Y-117876997D01*
X85799085Y-117876988D01*
X85698856Y-117542199D01*
X85560446Y-117221329D01*
X85560440Y-117221316D01*
X85385712Y-116918677D01*
X85177034Y-116638374D01*
X85168852Y-116629702D01*
X84314554Y-117483999D01*
X84253231Y-117517484D01*
X84183539Y-117512500D01*
X84129926Y-117473631D01*
X84098742Y-117434527D01*
X83963928Y-117309439D01*
X83928173Y-117249410D01*
X83930548Y-117179581D01*
X83960588Y-117130859D01*
X84812182Y-116279265D01*
X84812181Y-116279264D01*
X84669521Y-116159557D01*
X84377540Y-115967519D01*
X84065262Y-115810685D01*
X84065256Y-115810683D01*
X83736871Y-115691161D01*
X83736868Y-115691160D01*
X83396830Y-115610570D01*
X83049725Y-115570000D01*
X82700279Y-115570000D01*
X82353174Y-115610570D01*
X82353172Y-115610570D01*
X82013135Y-115691160D01*
X82013132Y-115691161D01*
X81684747Y-115810683D01*
X81684741Y-115810685D01*
X81372463Y-115967519D01*
X81080482Y-116159557D01*
X80937821Y-116279264D01*
X80937820Y-116279265D01*
X81789415Y-117130860D01*
X81822900Y-117192183D01*
X81817916Y-117261875D01*
X81786076Y-117309439D01*
X81651260Y-117434529D01*
X81651258Y-117434532D01*
X81620077Y-117473632D01*
X81562888Y-117513772D01*
X81493077Y-117516622D01*
X81435449Y-117484000D01*
X80581150Y-116629701D01*
X80581149Y-116629702D01*
X80572978Y-116638363D01*
X80572974Y-116638368D01*
X80364294Y-116918674D01*
X80356889Y-116931500D01*
X80306321Y-116979715D01*
X80237714Y-116992937D01*
X80172850Y-116966969D01*
X80132322Y-116910055D01*
X80125502Y-116869499D01*
X80125502Y-91177525D01*
X81699500Y-91177525D01*
X81699500Y-110072475D01*
X81729854Y-110185755D01*
X81729853Y-110185755D01*
X81729854Y-110185757D01*
X81737014Y-110212481D01*
X81809489Y-110338013D01*
X81809491Y-110338016D01*
X84052419Y-112580943D01*
X84052422Y-112580947D01*
X84059490Y-112588015D01*
X84809490Y-113338015D01*
X86061986Y-114590510D01*
X86182847Y-114660289D01*
X86187515Y-114662984D01*
X86327525Y-114700500D01*
X86327526Y-114700500D01*
X86472474Y-114700500D01*
X87612806Y-114700500D01*
X87679845Y-114720185D01*
X87713377Y-114754285D01*
X87714179Y-114753680D01*
X87717635Y-114758257D01*
X87846128Y-114928407D01*
X88003698Y-115072052D01*
X88184981Y-115184298D01*
X88383802Y-115261321D01*
X88593390Y-115300500D01*
X88593392Y-115300500D01*
X88806608Y-115300500D01*
X88806610Y-115300500D01*
X89016198Y-115261321D01*
X89215019Y-115184298D01*
X89396302Y-115072052D01*
X89553872Y-114928407D01*
X89682366Y-114758255D01*
X89684644Y-114753680D01*
X89777403Y-114567394D01*
X89777403Y-114567393D01*
X89777405Y-114567389D01*
X89835756Y-114362310D01*
X89846529Y-114246047D01*
X89872315Y-114181111D01*
X89914622Y-114150804D01*
X90023130Y-114150804D01*
X90059503Y-114171668D01*
X90091693Y-114233681D01*
X90093470Y-114246047D01*
X90104244Y-114362310D01*
X90157675Y-114550099D01*
X90162596Y-114567392D01*
X90162596Y-114567394D01*
X90257632Y-114758253D01*
X90386127Y-114928406D01*
X90386128Y-114928407D01*
X90543698Y-115072052D01*
X90724981Y-115184298D01*
X90923802Y-115261321D01*
X91133390Y-115300500D01*
X91133392Y-115300500D01*
X91346608Y-115300500D01*
X91346610Y-115300500D01*
X91556198Y-115261321D01*
X91755019Y-115184298D01*
X91936302Y-115072052D01*
X92093872Y-114928407D01*
X92222366Y-114758255D01*
X92224644Y-114753680D01*
X92317403Y-114567394D01*
X92317403Y-114567393D01*
X92317405Y-114567389D01*
X92375756Y-114362310D01*
X92386529Y-114246047D01*
X92412315Y-114181111D01*
X92454622Y-114150804D01*
X92563130Y-114150804D01*
X92599503Y-114171668D01*
X92631693Y-114233681D01*
X92633470Y-114246047D01*
X92644244Y-114362310D01*
X92697675Y-114550099D01*
X92702596Y-114567392D01*
X92702596Y-114567394D01*
X92797632Y-114758253D01*
X92926127Y-114928406D01*
X92926128Y-114928407D01*
X93083698Y-115072052D01*
X93264981Y-115184298D01*
X93463802Y-115261321D01*
X93673390Y-115300500D01*
X93673392Y-115300500D01*
X93886608Y-115300500D01*
X93886610Y-115300500D01*
X94096198Y-115261321D01*
X94295019Y-115184298D01*
X94476302Y-115072052D01*
X94633872Y-114928407D01*
X94762366Y-114758255D01*
X94764644Y-114753680D01*
X94857403Y-114567394D01*
X94857403Y-114567393D01*
X94857405Y-114567389D01*
X94915756Y-114362310D01*
X94926529Y-114246047D01*
X94952315Y-114181111D01*
X94994622Y-114150804D01*
X95103130Y-114150804D01*
X95139503Y-114171668D01*
X95171693Y-114233681D01*
X95173470Y-114246047D01*
X95184244Y-114362310D01*
X95237675Y-114550099D01*
X95242596Y-114567392D01*
X95242596Y-114567394D01*
X95337632Y-114758253D01*
X95466127Y-114928406D01*
X95466128Y-114928407D01*
X95623698Y-115072052D01*
X95804981Y-115184298D01*
X96003802Y-115261321D01*
X96213390Y-115300500D01*
X96213392Y-115300500D01*
X96426608Y-115300500D01*
X96426610Y-115300500D01*
X96636198Y-115261321D01*
X96835019Y-115184298D01*
X97016302Y-115072052D01*
X97173872Y-114928407D01*
X97302366Y-114758255D01*
X97304644Y-114753680D01*
X97397403Y-114567394D01*
X97397403Y-114567393D01*
X97397405Y-114567389D01*
X97455756Y-114362310D01*
X97466529Y-114246047D01*
X97492315Y-114181111D01*
X97534622Y-114150804D01*
X97643130Y-114150804D01*
X97679503Y-114171668D01*
X97711693Y-114233681D01*
X97713470Y-114246047D01*
X97724244Y-114362310D01*
X97777675Y-114550099D01*
X97782596Y-114567392D01*
X97782596Y-114567394D01*
X97877632Y-114758253D01*
X98006127Y-114928406D01*
X98006128Y-114928407D01*
X98163698Y-115072052D01*
X98344981Y-115184298D01*
X98543802Y-115261321D01*
X98753390Y-115300500D01*
X98753392Y-115300500D01*
X98966608Y-115300500D01*
X98966610Y-115300500D01*
X99176198Y-115261321D01*
X99375019Y-115184298D01*
X99556302Y-115072052D01*
X99713872Y-114928407D01*
X99842366Y-114758255D01*
X99844644Y-114753680D01*
X99937403Y-114567394D01*
X99937403Y-114567393D01*
X99937405Y-114567389D01*
X99995756Y-114362310D01*
X100006529Y-114246047D01*
X100032315Y-114181111D01*
X100074622Y-114150804D01*
X100183130Y-114150804D01*
X100219503Y-114171668D01*
X100251693Y-114233681D01*
X100253470Y-114246047D01*
X100264244Y-114362310D01*
X100317675Y-114550099D01*
X100322596Y-114567392D01*
X100322596Y-114567394D01*
X100417632Y-114758253D01*
X100546127Y-114928406D01*
X100546128Y-114928407D01*
X100703698Y-115072052D01*
X100884981Y-115184298D01*
X101083802Y-115261321D01*
X101293390Y-115300500D01*
X101293392Y-115300500D01*
X101506608Y-115300500D01*
X101506610Y-115300500D01*
X101716198Y-115261321D01*
X101915019Y-115184298D01*
X102096302Y-115072052D01*
X102253872Y-114928407D01*
X102382366Y-114758255D01*
X102384644Y-114753680D01*
X102477403Y-114567394D01*
X102477403Y-114567393D01*
X102477405Y-114567389D01*
X102535756Y-114362310D01*
X102546529Y-114246047D01*
X102572315Y-114181111D01*
X102614622Y-114150804D01*
X102723130Y-114150804D01*
X102759503Y-114171668D01*
X102791693Y-114233681D01*
X102793470Y-114246047D01*
X102804244Y-114362310D01*
X102857675Y-114550099D01*
X102862596Y-114567392D01*
X102862596Y-114567394D01*
X102957632Y-114758253D01*
X103086127Y-114928406D01*
X103086128Y-114928407D01*
X103243698Y-115072052D01*
X103424981Y-115184298D01*
X103623802Y-115261321D01*
X103833390Y-115300500D01*
X103833392Y-115300500D01*
X104046608Y-115300500D01*
X104046610Y-115300500D01*
X104256198Y-115261321D01*
X104455019Y-115184298D01*
X104636302Y-115072052D01*
X104793872Y-114928407D01*
X104922366Y-114758255D01*
X104924644Y-114753680D01*
X105017403Y-114567394D01*
X105017403Y-114567393D01*
X105017405Y-114567389D01*
X105075756Y-114362310D01*
X105086529Y-114246047D01*
X105112315Y-114181111D01*
X105154622Y-114150804D01*
X105263130Y-114150804D01*
X105299503Y-114171668D01*
X105331693Y-114233681D01*
X105333470Y-114246047D01*
X105344244Y-114362310D01*
X105397675Y-114550099D01*
X105402596Y-114567392D01*
X105402596Y-114567394D01*
X105497632Y-114758253D01*
X105626127Y-114928406D01*
X105626128Y-114928407D01*
X105783698Y-115072052D01*
X105964981Y-115184298D01*
X106163802Y-115261321D01*
X106373390Y-115300500D01*
X106373392Y-115300500D01*
X106586608Y-115300500D01*
X106586610Y-115300500D01*
X106796198Y-115261321D01*
X106995019Y-115184298D01*
X107176302Y-115072052D01*
X107333872Y-114928407D01*
X107462366Y-114758255D01*
X107464644Y-114753680D01*
X107557403Y-114567394D01*
X107557403Y-114567393D01*
X107557405Y-114567389D01*
X107615756Y-114362310D01*
X107626529Y-114246047D01*
X107652315Y-114181111D01*
X107694622Y-114150804D01*
X107803130Y-114150804D01*
X107839503Y-114171668D01*
X107871693Y-114233681D01*
X107873470Y-114246047D01*
X107884244Y-114362310D01*
X107937675Y-114550099D01*
X107942596Y-114567392D01*
X107942596Y-114567394D01*
X108037632Y-114758253D01*
X108166127Y-114928406D01*
X108166128Y-114928407D01*
X108323698Y-115072052D01*
X108504981Y-115184298D01*
X108703802Y-115261321D01*
X108913390Y-115300500D01*
X108913392Y-115300500D01*
X109126608Y-115300500D01*
X109126610Y-115300500D01*
X109336198Y-115261321D01*
X109535019Y-115184298D01*
X109716302Y-115072052D01*
X109873872Y-114928407D01*
X110002366Y-114758255D01*
X110004644Y-114753680D01*
X110097403Y-114567394D01*
X110097403Y-114567393D01*
X110097405Y-114567389D01*
X110155756Y-114362310D01*
X110166529Y-114246047D01*
X110192315Y-114181111D01*
X110234622Y-114150804D01*
X110343130Y-114150804D01*
X110379503Y-114171668D01*
X110411693Y-114233681D01*
X110413470Y-114246047D01*
X110424244Y-114362310D01*
X110477675Y-114550099D01*
X110482596Y-114567392D01*
X110482596Y-114567394D01*
X110577632Y-114758253D01*
X110706127Y-114928406D01*
X110706128Y-114928407D01*
X110863698Y-115072052D01*
X111044981Y-115184298D01*
X111243802Y-115261321D01*
X111453390Y-115300500D01*
X111453392Y-115300500D01*
X111666608Y-115300500D01*
X111666610Y-115300500D01*
X111876198Y-115261321D01*
X112075019Y-115184298D01*
X112256302Y-115072052D01*
X112413872Y-114928407D01*
X112542366Y-114758255D01*
X112544644Y-114753680D01*
X112637403Y-114567394D01*
X112637403Y-114567393D01*
X112637405Y-114567389D01*
X112695756Y-114362310D01*
X112706529Y-114246047D01*
X112732315Y-114181111D01*
X112774622Y-114150804D01*
X112883130Y-114150804D01*
X112919503Y-114171668D01*
X112951693Y-114233681D01*
X112953470Y-114246047D01*
X112964244Y-114362310D01*
X113017675Y-114550099D01*
X113022596Y-114567392D01*
X113022596Y-114567394D01*
X113117632Y-114758253D01*
X113246127Y-114928406D01*
X113246128Y-114928407D01*
X113403698Y-115072052D01*
X113584981Y-115184298D01*
X113783802Y-115261321D01*
X113993390Y-115300500D01*
X113993392Y-115300500D01*
X114206608Y-115300500D01*
X114206610Y-115300500D01*
X114416198Y-115261321D01*
X114615019Y-115184298D01*
X114796302Y-115072052D01*
X114953872Y-114928407D01*
X115082366Y-114758255D01*
X115084644Y-114753680D01*
X115177403Y-114567394D01*
X115177403Y-114567393D01*
X115177405Y-114567389D01*
X115235756Y-114362310D01*
X115246529Y-114246047D01*
X115272315Y-114181111D01*
X115314622Y-114150804D01*
X115423130Y-114150804D01*
X115459503Y-114171668D01*
X115491693Y-114233681D01*
X115493470Y-114246047D01*
X115504244Y-114362310D01*
X115557675Y-114550099D01*
X115562596Y-114567392D01*
X115562596Y-114567394D01*
X115657632Y-114758253D01*
X115786127Y-114928406D01*
X115786128Y-114928407D01*
X115943698Y-115072052D01*
X116124981Y-115184298D01*
X116323802Y-115261321D01*
X116533390Y-115300500D01*
X116533392Y-115300500D01*
X116746608Y-115300500D01*
X116746610Y-115300500D01*
X116956198Y-115261321D01*
X117155019Y-115184298D01*
X117336302Y-115072052D01*
X117493872Y-114928407D01*
X117622366Y-114758255D01*
X117624644Y-114753680D01*
X117717403Y-114567394D01*
X117717403Y-114567393D01*
X117717405Y-114567389D01*
X117775756Y-114362310D01*
X117786529Y-114246047D01*
X117812315Y-114181111D01*
X117854622Y-114150804D01*
X117963130Y-114150804D01*
X117999503Y-114171668D01*
X118031693Y-114233681D01*
X118033470Y-114246047D01*
X118044244Y-114362310D01*
X118097675Y-114550099D01*
X118102596Y-114567392D01*
X118102596Y-114567394D01*
X118197632Y-114758253D01*
X118326127Y-114928406D01*
X118326128Y-114928407D01*
X118483698Y-115072052D01*
X118664981Y-115184298D01*
X118863802Y-115261321D01*
X119073390Y-115300500D01*
X119073392Y-115300500D01*
X119286608Y-115300500D01*
X119286610Y-115300500D01*
X119496198Y-115261321D01*
X119695019Y-115184298D01*
X119876302Y-115072052D01*
X120033872Y-114928407D01*
X120162366Y-114758255D01*
X120229325Y-114623781D01*
X120276825Y-114572548D01*
X120344488Y-114555126D01*
X120410828Y-114577051D01*
X120452705Y-114626651D01*
X120546399Y-114827578D01*
X120681894Y-115021082D01*
X120848917Y-115188105D01*
X121042421Y-115323600D01*
X121256507Y-115423429D01*
X121256516Y-115423433D01*
X121470000Y-115480634D01*
X121470000Y-114583012D01*
X121527007Y-114615925D01*
X121654174Y-114650000D01*
X121785826Y-114650000D01*
X121912993Y-114615925D01*
X121970000Y-114583012D01*
X121970000Y-115480633D01*
X122183483Y-115423433D01*
X122183492Y-115423429D01*
X122397578Y-115323600D01*
X122591082Y-115188105D01*
X122758105Y-115021082D01*
X122893600Y-114827578D01*
X122987294Y-114626651D01*
X123033466Y-114574212D01*
X123100660Y-114555060D01*
X123167541Y-114575276D01*
X123210676Y-114623785D01*
X123277632Y-114758253D01*
X123406127Y-114928406D01*
X123406128Y-114928407D01*
X123563698Y-115072052D01*
X123744981Y-115184298D01*
X123943802Y-115261321D01*
X124153390Y-115300500D01*
X124153392Y-115300500D01*
X124366608Y-115300500D01*
X124366610Y-115300500D01*
X124576198Y-115261321D01*
X124775019Y-115184298D01*
X124956302Y-115072052D01*
X125113872Y-114928407D01*
X125242366Y-114758255D01*
X125244644Y-114753680D01*
X125337403Y-114567394D01*
X125337403Y-114567393D01*
X125337405Y-114567389D01*
X125395756Y-114362310D01*
X125406529Y-114246047D01*
X125432315Y-114181111D01*
X125474622Y-114150804D01*
X125583130Y-114150804D01*
X125619503Y-114171668D01*
X125651693Y-114233681D01*
X125653470Y-114246047D01*
X125664244Y-114362310D01*
X125717675Y-114550099D01*
X125722596Y-114567392D01*
X125722596Y-114567394D01*
X125817632Y-114758253D01*
X125946127Y-114928406D01*
X125946128Y-114928407D01*
X126103698Y-115072052D01*
X126284981Y-115184298D01*
X126483802Y-115261321D01*
X126693390Y-115300500D01*
X126693392Y-115300500D01*
X126906608Y-115300500D01*
X126906610Y-115300500D01*
X127116198Y-115261321D01*
X127315019Y-115184298D01*
X127496302Y-115072052D01*
X127653872Y-114928407D01*
X127782366Y-114758255D01*
X127784644Y-114753680D01*
X127877403Y-114567394D01*
X127877403Y-114567393D01*
X127877405Y-114567389D01*
X127935756Y-114362310D01*
X127946529Y-114246047D01*
X127972315Y-114181111D01*
X128014622Y-114150804D01*
X128123130Y-114150804D01*
X128159503Y-114171668D01*
X128191693Y-114233681D01*
X128193470Y-114246047D01*
X128204244Y-114362310D01*
X128257675Y-114550099D01*
X128262596Y-114567392D01*
X128262596Y-114567394D01*
X128357632Y-114758253D01*
X128486127Y-114928406D01*
X128486128Y-114928407D01*
X128643698Y-115072052D01*
X128824981Y-115184298D01*
X129023802Y-115261321D01*
X129233390Y-115300500D01*
X129233392Y-115300500D01*
X129446608Y-115300500D01*
X129446610Y-115300500D01*
X129656198Y-115261321D01*
X129855019Y-115184298D01*
X130036302Y-115072052D01*
X130193872Y-114928407D01*
X130322366Y-114758255D01*
X130324644Y-114753680D01*
X130417403Y-114567394D01*
X130417403Y-114567393D01*
X130417405Y-114567389D01*
X130475756Y-114362310D01*
X130486529Y-114246047D01*
X130512315Y-114181111D01*
X130554622Y-114150804D01*
X130663130Y-114150804D01*
X130699503Y-114171668D01*
X130731693Y-114233681D01*
X130733470Y-114246047D01*
X130744244Y-114362310D01*
X130797675Y-114550099D01*
X130802596Y-114567392D01*
X130802596Y-114567394D01*
X130897632Y-114758253D01*
X131026127Y-114928406D01*
X131026128Y-114928407D01*
X131183698Y-115072052D01*
X131364981Y-115184298D01*
X131563802Y-115261321D01*
X131773390Y-115300500D01*
X131773392Y-115300500D01*
X131986608Y-115300500D01*
X131986610Y-115300500D01*
X132196198Y-115261321D01*
X132395019Y-115184298D01*
X132576302Y-115072052D01*
X132733872Y-114928407D01*
X132862366Y-114758255D01*
X132864644Y-114753680D01*
X132957403Y-114567394D01*
X132957403Y-114567393D01*
X132957405Y-114567389D01*
X132975734Y-114502967D01*
X133013013Y-114443876D01*
X133076323Y-114414319D01*
X133145563Y-114423681D01*
X133198749Y-114468991D01*
X133214264Y-114502966D01*
X133229087Y-114555060D01*
X133232596Y-114567392D01*
X133232596Y-114567394D01*
X133327632Y-114758253D01*
X133456127Y-114928406D01*
X133456128Y-114928407D01*
X133613698Y-115072052D01*
X133794981Y-115184298D01*
X133993802Y-115261321D01*
X134203390Y-115300500D01*
X134203392Y-115300500D01*
X134416608Y-115300500D01*
X134416610Y-115300500D01*
X134626198Y-115261321D01*
X134825019Y-115184298D01*
X135006302Y-115072052D01*
X135163872Y-114928407D01*
X135292366Y-114758255D01*
X135294644Y-114753680D01*
X135387403Y-114567394D01*
X135387403Y-114567393D01*
X135387405Y-114567389D01*
X135445756Y-114362310D01*
X135465429Y-114150000D01*
X135445756Y-113937690D01*
X135387405Y-113732611D01*
X135387403Y-113732606D01*
X135387403Y-113732605D01*
X135292367Y-113541746D01*
X135163872Y-113371593D01*
X135112419Y-113324687D01*
X135006302Y-113227948D01*
X134825019Y-113115702D01*
X134825017Y-113115701D01*
X134719624Y-113074872D01*
X134626198Y-113038679D01*
X134416610Y-112999500D01*
X134203390Y-112999500D01*
X133993802Y-113038679D01*
X133993799Y-113038679D01*
X133993799Y-113038680D01*
X133794982Y-113115701D01*
X133794980Y-113115702D01*
X133613699Y-113227947D01*
X133456127Y-113371593D01*
X133327632Y-113541746D01*
X133232596Y-113732605D01*
X133232596Y-113732607D01*
X133214266Y-113797030D01*
X133176986Y-113856123D01*
X133113676Y-113885680D01*
X133044437Y-113876318D01*
X132991251Y-113831007D01*
X132975734Y-113797030D01*
X132957405Y-113732611D01*
X132957403Y-113732606D01*
X132957403Y-113732605D01*
X132862367Y-113541746D01*
X132733872Y-113371593D01*
X132682419Y-113324687D01*
X132576302Y-113227948D01*
X132395019Y-113115702D01*
X132395017Y-113115701D01*
X132289624Y-113074872D01*
X132196198Y-113038679D01*
X131986610Y-112999500D01*
X131773390Y-112999500D01*
X131563802Y-113038679D01*
X131563799Y-113038679D01*
X131563799Y-113038680D01*
X131364982Y-113115701D01*
X131364980Y-113115702D01*
X131183699Y-113227947D01*
X131026127Y-113371593D01*
X130897632Y-113541746D01*
X130802596Y-113732605D01*
X130802596Y-113732607D01*
X130744244Y-113937689D01*
X130733471Y-114053951D01*
X130707685Y-114118888D01*
X130663130Y-114150804D01*
X130554622Y-114150804D01*
X130556869Y-114149194D01*
X130520497Y-114128331D01*
X130488307Y-114066318D01*
X130486529Y-114053951D01*
X130485849Y-114046613D01*
X130475756Y-113937690D01*
X130417405Y-113732611D01*
X130417403Y-113732606D01*
X130417403Y-113732605D01*
X130322367Y-113541746D01*
X130193872Y-113371593D01*
X130142419Y-113324687D01*
X130036302Y-113227948D01*
X129855019Y-113115702D01*
X129855017Y-113115701D01*
X129749624Y-113074872D01*
X129656198Y-113038679D01*
X129446610Y-112999500D01*
X129233390Y-112999500D01*
X129023802Y-113038679D01*
X129023799Y-113038679D01*
X129023799Y-113038680D01*
X128824982Y-113115701D01*
X128824980Y-113115702D01*
X128643699Y-113227947D01*
X128486127Y-113371593D01*
X128357632Y-113541746D01*
X128262596Y-113732605D01*
X128262596Y-113732607D01*
X128204244Y-113937689D01*
X128193471Y-114053951D01*
X128167685Y-114118888D01*
X128123130Y-114150804D01*
X128014622Y-114150804D01*
X128016869Y-114149194D01*
X127980497Y-114128331D01*
X127948307Y-114066318D01*
X127946529Y-114053951D01*
X127945849Y-114046613D01*
X127935756Y-113937690D01*
X127877405Y-113732611D01*
X127877403Y-113732606D01*
X127877403Y-113732605D01*
X127782367Y-113541746D01*
X127653872Y-113371593D01*
X127602419Y-113324687D01*
X127496302Y-113227948D01*
X127315019Y-113115702D01*
X127315017Y-113115701D01*
X127209624Y-113074872D01*
X127116198Y-113038679D01*
X126906610Y-112999500D01*
X126693390Y-112999500D01*
X126483802Y-113038679D01*
X126483799Y-113038679D01*
X126483799Y-113038680D01*
X126284982Y-113115701D01*
X126284980Y-113115702D01*
X126103699Y-113227947D01*
X125946127Y-113371593D01*
X125817632Y-113541746D01*
X125722596Y-113732605D01*
X125722596Y-113732607D01*
X125664244Y-113937689D01*
X125653471Y-114053951D01*
X125627685Y-114118888D01*
X125583130Y-114150804D01*
X125474622Y-114150804D01*
X125476869Y-114149194D01*
X125440497Y-114128331D01*
X125408307Y-114066318D01*
X125406529Y-114053951D01*
X125405849Y-114046613D01*
X125395756Y-113937690D01*
X125337405Y-113732611D01*
X125337403Y-113732606D01*
X125337403Y-113732605D01*
X125242367Y-113541746D01*
X125113872Y-113371593D01*
X125062419Y-113324687D01*
X124956302Y-113227948D01*
X124775019Y-113115702D01*
X124775017Y-113115701D01*
X124669624Y-113074872D01*
X124576198Y-113038679D01*
X124366610Y-112999500D01*
X124153390Y-112999500D01*
X123943802Y-113038679D01*
X123943799Y-113038679D01*
X123943799Y-113038680D01*
X123744982Y-113115701D01*
X123744980Y-113115702D01*
X123563699Y-113227947D01*
X123406127Y-113371593D01*
X123277634Y-113541744D01*
X123210676Y-113676215D01*
X123163173Y-113727452D01*
X123095510Y-113744873D01*
X123029170Y-113722947D01*
X122987294Y-113673348D01*
X122893600Y-113472422D01*
X122893599Y-113472420D01*
X122758113Y-113278926D01*
X122758108Y-113278920D01*
X122591082Y-113111894D01*
X122397578Y-112976399D01*
X122183492Y-112876570D01*
X122183486Y-112876567D01*
X121970000Y-112819364D01*
X121970000Y-113716988D01*
X121912993Y-113684075D01*
X121785826Y-113650000D01*
X121654174Y-113650000D01*
X121527007Y-113684075D01*
X121470000Y-113716988D01*
X121470000Y-112819364D01*
X121469999Y-112819364D01*
X121256513Y-112876567D01*
X121256507Y-112876570D01*
X121042422Y-112976399D01*
X121042420Y-112976400D01*
X120848926Y-113111886D01*
X120848920Y-113111891D01*
X120681891Y-113278920D01*
X120681886Y-113278926D01*
X120546400Y-113472420D01*
X120546399Y-113472422D01*
X120452705Y-113673348D01*
X120406532Y-113725787D01*
X120339339Y-113744939D01*
X120272457Y-113724723D01*
X120229323Y-113676215D01*
X120162366Y-113541745D01*
X120033872Y-113371593D01*
X119876302Y-113227948D01*
X119695019Y-113115702D01*
X119695017Y-113115701D01*
X119589624Y-113074872D01*
X119496198Y-113038679D01*
X119286610Y-112999500D01*
X119073390Y-112999500D01*
X118863802Y-113038679D01*
X118863799Y-113038679D01*
X118863799Y-113038680D01*
X118664982Y-113115701D01*
X118664980Y-113115702D01*
X118483699Y-113227947D01*
X118326127Y-113371593D01*
X118197632Y-113541746D01*
X118102596Y-113732605D01*
X118102596Y-113732607D01*
X118044244Y-113937689D01*
X118033471Y-114053951D01*
X118007685Y-114118888D01*
X117963130Y-114150804D01*
X117854622Y-114150804D01*
X117856869Y-114149194D01*
X117820497Y-114128331D01*
X117788307Y-114066318D01*
X117786529Y-114053951D01*
X117785849Y-114046613D01*
X117775756Y-113937690D01*
X117717405Y-113732611D01*
X117717403Y-113732606D01*
X117717403Y-113732605D01*
X117622367Y-113541746D01*
X117493872Y-113371593D01*
X117442419Y-113324687D01*
X117336302Y-113227948D01*
X117155019Y-113115702D01*
X117155017Y-113115701D01*
X117049624Y-113074872D01*
X116956198Y-113038679D01*
X116746610Y-112999500D01*
X116533390Y-112999500D01*
X116323802Y-113038679D01*
X116323799Y-113038679D01*
X116323799Y-113038680D01*
X116124982Y-113115701D01*
X116124980Y-113115702D01*
X115943699Y-113227947D01*
X115786127Y-113371593D01*
X115657632Y-113541746D01*
X115562596Y-113732605D01*
X115562596Y-113732607D01*
X115504244Y-113937689D01*
X115493471Y-114053951D01*
X115467685Y-114118888D01*
X115423130Y-114150804D01*
X115314622Y-114150804D01*
X115316869Y-114149194D01*
X115280497Y-114128331D01*
X115248307Y-114066318D01*
X115246529Y-114053951D01*
X115245849Y-114046613D01*
X115235756Y-113937690D01*
X115177405Y-113732611D01*
X115177403Y-113732606D01*
X115177403Y-113732605D01*
X115082367Y-113541746D01*
X114953872Y-113371593D01*
X114902419Y-113324687D01*
X114796302Y-113227948D01*
X114615019Y-113115702D01*
X114615017Y-113115701D01*
X114509624Y-113074872D01*
X114416198Y-113038679D01*
X114206610Y-112999500D01*
X113993390Y-112999500D01*
X113783802Y-113038679D01*
X113783799Y-113038679D01*
X113783799Y-113038680D01*
X113584982Y-113115701D01*
X113584980Y-113115702D01*
X113403699Y-113227947D01*
X113246127Y-113371593D01*
X113117632Y-113541746D01*
X113022596Y-113732605D01*
X113022596Y-113732607D01*
X112964244Y-113937689D01*
X112953471Y-114053951D01*
X112927685Y-114118888D01*
X112883130Y-114150804D01*
X112774622Y-114150804D01*
X112776869Y-114149194D01*
X112740497Y-114128331D01*
X112708307Y-114066318D01*
X112706529Y-114053951D01*
X112705849Y-114046613D01*
X112695756Y-113937690D01*
X112637405Y-113732611D01*
X112637403Y-113732606D01*
X112637403Y-113732605D01*
X112542367Y-113541746D01*
X112413872Y-113371593D01*
X112362419Y-113324687D01*
X112256302Y-113227948D01*
X112075019Y-113115702D01*
X112075017Y-113115701D01*
X111969624Y-113074872D01*
X111876198Y-113038679D01*
X111666610Y-112999500D01*
X111453390Y-112999500D01*
X111243802Y-113038679D01*
X111243799Y-113038679D01*
X111243799Y-113038680D01*
X111044982Y-113115701D01*
X111044980Y-113115702D01*
X110863699Y-113227947D01*
X110706127Y-113371593D01*
X110577632Y-113541746D01*
X110482596Y-113732605D01*
X110482596Y-113732607D01*
X110424244Y-113937689D01*
X110413471Y-114053951D01*
X110387685Y-114118888D01*
X110343130Y-114150804D01*
X110234622Y-114150804D01*
X110236869Y-114149194D01*
X110200497Y-114128331D01*
X110168307Y-114066318D01*
X110166529Y-114053951D01*
X110165849Y-114046613D01*
X110155756Y-113937690D01*
X110097405Y-113732611D01*
X110097403Y-113732606D01*
X110097403Y-113732605D01*
X110002367Y-113541746D01*
X109873872Y-113371593D01*
X109822419Y-113324687D01*
X109716302Y-113227948D01*
X109535019Y-113115702D01*
X109535017Y-113115701D01*
X109429624Y-113074872D01*
X109336198Y-113038679D01*
X109126610Y-112999500D01*
X108913390Y-112999500D01*
X108703802Y-113038679D01*
X108703799Y-113038679D01*
X108703799Y-113038680D01*
X108504982Y-113115701D01*
X108504980Y-113115702D01*
X108323699Y-113227947D01*
X108166127Y-113371593D01*
X108037632Y-113541746D01*
X107942596Y-113732605D01*
X107942596Y-113732607D01*
X107884244Y-113937689D01*
X107873471Y-114053951D01*
X107847685Y-114118888D01*
X107803130Y-114150804D01*
X107694622Y-114150804D01*
X107696869Y-114149194D01*
X107660497Y-114128331D01*
X107628307Y-114066318D01*
X107626529Y-114053951D01*
X107625849Y-114046613D01*
X107615756Y-113937690D01*
X107557405Y-113732611D01*
X107557403Y-113732606D01*
X107557403Y-113732605D01*
X107462367Y-113541746D01*
X107333872Y-113371593D01*
X107282419Y-113324687D01*
X107176302Y-113227948D01*
X106995019Y-113115702D01*
X106995017Y-113115701D01*
X106889624Y-113074872D01*
X106796198Y-113038679D01*
X106586610Y-112999500D01*
X106373390Y-112999500D01*
X106163802Y-113038679D01*
X106163799Y-113038679D01*
X106163799Y-113038680D01*
X105964982Y-113115701D01*
X105964980Y-113115702D01*
X105783699Y-113227947D01*
X105626127Y-113371593D01*
X105497632Y-113541746D01*
X105402596Y-113732605D01*
X105402596Y-113732607D01*
X105344244Y-113937689D01*
X105333471Y-114053951D01*
X105307685Y-114118888D01*
X105263130Y-114150804D01*
X105154622Y-114150804D01*
X105156869Y-114149194D01*
X105120497Y-114128331D01*
X105088307Y-114066318D01*
X105086529Y-114053951D01*
X105085849Y-114046613D01*
X105075756Y-113937690D01*
X105017405Y-113732611D01*
X105017403Y-113732606D01*
X105017403Y-113732605D01*
X104922367Y-113541746D01*
X104793872Y-113371593D01*
X104742419Y-113324687D01*
X104636302Y-113227948D01*
X104455019Y-113115702D01*
X104455017Y-113115701D01*
X104349624Y-113074872D01*
X104256198Y-113038679D01*
X104046610Y-112999500D01*
X103833390Y-112999500D01*
X103623802Y-113038679D01*
X103623799Y-113038679D01*
X103623799Y-113038680D01*
X103424982Y-113115701D01*
X103424980Y-113115702D01*
X103243699Y-113227947D01*
X103086127Y-113371593D01*
X102957632Y-113541746D01*
X102862596Y-113732605D01*
X102862596Y-113732607D01*
X102804244Y-113937689D01*
X102793471Y-114053951D01*
X102767685Y-114118888D01*
X102723130Y-114150804D01*
X102614622Y-114150804D01*
X102616869Y-114149194D01*
X102580497Y-114128331D01*
X102548307Y-114066318D01*
X102546529Y-114053951D01*
X102545849Y-114046613D01*
X102535756Y-113937690D01*
X102477405Y-113732611D01*
X102477403Y-113732606D01*
X102477403Y-113732605D01*
X102382367Y-113541746D01*
X102253872Y-113371593D01*
X102202419Y-113324687D01*
X102096302Y-113227948D01*
X101915019Y-113115702D01*
X101915017Y-113115701D01*
X101809624Y-113074872D01*
X101716198Y-113038679D01*
X101506610Y-112999500D01*
X101293390Y-112999500D01*
X101083802Y-113038679D01*
X101083799Y-113038679D01*
X101083799Y-113038680D01*
X100884982Y-113115701D01*
X100884980Y-113115702D01*
X100703699Y-113227947D01*
X100546127Y-113371593D01*
X100417632Y-113541746D01*
X100322596Y-113732605D01*
X100322596Y-113732607D01*
X100264244Y-113937689D01*
X100253471Y-114053951D01*
X100227685Y-114118888D01*
X100183130Y-114150804D01*
X100074622Y-114150804D01*
X100076869Y-114149194D01*
X100040497Y-114128331D01*
X100008307Y-114066318D01*
X100006529Y-114053951D01*
X100005849Y-114046613D01*
X99995756Y-113937690D01*
X99937405Y-113732611D01*
X99937403Y-113732606D01*
X99937403Y-113732605D01*
X99842367Y-113541746D01*
X99713872Y-113371593D01*
X99662419Y-113324687D01*
X99556302Y-113227948D01*
X99375019Y-113115702D01*
X99375017Y-113115701D01*
X99269624Y-113074872D01*
X99176198Y-113038679D01*
X98966610Y-112999500D01*
X98753390Y-112999500D01*
X98543802Y-113038679D01*
X98543799Y-113038679D01*
X98543799Y-113038680D01*
X98344982Y-113115701D01*
X98344980Y-113115702D01*
X98163699Y-113227947D01*
X98006127Y-113371593D01*
X97877632Y-113541746D01*
X97782596Y-113732605D01*
X97782596Y-113732607D01*
X97724244Y-113937689D01*
X97713471Y-114053951D01*
X97687685Y-114118888D01*
X97643130Y-114150804D01*
X97534622Y-114150804D01*
X97536869Y-114149194D01*
X97500497Y-114128331D01*
X97468307Y-114066318D01*
X97466529Y-114053951D01*
X97465849Y-114046613D01*
X97455756Y-113937690D01*
X97397405Y-113732611D01*
X97397403Y-113732606D01*
X97397403Y-113732605D01*
X97302367Y-113541746D01*
X97173872Y-113371593D01*
X97122419Y-113324687D01*
X97016302Y-113227948D01*
X96835019Y-113115702D01*
X96835017Y-113115701D01*
X96729624Y-113074872D01*
X96636198Y-113038679D01*
X96426610Y-112999500D01*
X96213390Y-112999500D01*
X96003802Y-113038679D01*
X96003799Y-113038679D01*
X96003799Y-113038680D01*
X95804982Y-113115701D01*
X95804980Y-113115702D01*
X95623699Y-113227947D01*
X95466127Y-113371593D01*
X95337632Y-113541746D01*
X95242596Y-113732605D01*
X95242596Y-113732607D01*
X95184244Y-113937689D01*
X95173471Y-114053951D01*
X95147685Y-114118888D01*
X95103130Y-114150804D01*
X94994622Y-114150804D01*
X94996869Y-114149194D01*
X94960497Y-114128331D01*
X94928307Y-114066318D01*
X94926529Y-114053951D01*
X94925849Y-114046613D01*
X94915756Y-113937690D01*
X94857405Y-113732611D01*
X94857403Y-113732606D01*
X94857403Y-113732605D01*
X94762367Y-113541746D01*
X94633872Y-113371593D01*
X94582419Y-113324687D01*
X94476302Y-113227948D01*
X94295019Y-113115702D01*
X94295017Y-113115701D01*
X94189624Y-113074872D01*
X94096198Y-113038679D01*
X93886610Y-112999500D01*
X93673390Y-112999500D01*
X93463802Y-113038679D01*
X93463799Y-113038679D01*
X93463799Y-113038680D01*
X93264982Y-113115701D01*
X93264980Y-113115702D01*
X93083699Y-113227947D01*
X92926127Y-113371593D01*
X92797632Y-113541746D01*
X92702596Y-113732605D01*
X92702596Y-113732607D01*
X92644244Y-113937689D01*
X92633471Y-114053951D01*
X92607685Y-114118888D01*
X92563130Y-114150804D01*
X92454622Y-114150804D01*
X92456869Y-114149194D01*
X92420497Y-114128331D01*
X92388307Y-114066318D01*
X92386529Y-114053951D01*
X92385849Y-114046613D01*
X92375756Y-113937690D01*
X92317405Y-113732611D01*
X92317403Y-113732606D01*
X92317403Y-113732605D01*
X92222367Y-113541746D01*
X92093872Y-113371593D01*
X92042419Y-113324687D01*
X91936302Y-113227948D01*
X91755019Y-113115702D01*
X91755017Y-113115701D01*
X91649624Y-113074872D01*
X91556198Y-113038679D01*
X91346610Y-112999500D01*
X91133390Y-112999500D01*
X90923802Y-113038679D01*
X90923799Y-113038679D01*
X90923799Y-113038680D01*
X90724982Y-113115701D01*
X90724980Y-113115702D01*
X90543699Y-113227947D01*
X90386127Y-113371593D01*
X90257632Y-113541746D01*
X90162596Y-113732605D01*
X90162596Y-113732607D01*
X90104244Y-113937689D01*
X90093471Y-114053951D01*
X90067685Y-114118888D01*
X90023130Y-114150804D01*
X89914622Y-114150804D01*
X89916869Y-114149194D01*
X89880497Y-114128331D01*
X89848307Y-114066318D01*
X89846529Y-114053951D01*
X89845849Y-114046613D01*
X89835756Y-113937690D01*
X89777405Y-113732611D01*
X89777403Y-113732606D01*
X89777403Y-113732605D01*
X89682367Y-113541746D01*
X89553872Y-113371593D01*
X89502419Y-113324687D01*
X89396302Y-113227948D01*
X89215019Y-113115702D01*
X89215017Y-113115701D01*
X89109624Y-113074872D01*
X89016198Y-113038679D01*
X88806610Y-112999500D01*
X88593390Y-112999500D01*
X88383802Y-113038679D01*
X88383799Y-113038679D01*
X88383799Y-113038680D01*
X88184982Y-113115701D01*
X88184980Y-113115702D01*
X88003699Y-113227947D01*
X87846127Y-113371593D01*
X87714179Y-113546320D01*
X87713022Y-113545446D01*
X87666207Y-113587412D01*
X87612806Y-113599500D01*
X86679386Y-113599500D01*
X86612347Y-113579815D01*
X86591705Y-113563181D01*
X86103403Y-113074879D01*
X85588015Y-112559490D01*
X85086819Y-112058294D01*
X85053334Y-111996971D01*
X85050500Y-111970613D01*
X85050500Y-111219655D01*
X139725000Y-111219655D01*
X139725000Y-111867500D01*
X140641988Y-111867500D01*
X140609075Y-111924507D01*
X140575000Y-112051674D01*
X140575000Y-112183326D01*
X140609075Y-112310493D01*
X140641988Y-112367500D01*
X139725000Y-112367500D01*
X139725000Y-113015344D01*
X139731401Y-113074872D01*
X139731403Y-113074879D01*
X139781645Y-113209586D01*
X139781649Y-113209593D01*
X139867809Y-113324687D01*
X139867812Y-113324690D01*
X139982906Y-113410850D01*
X139982913Y-113410854D01*
X140117620Y-113461096D01*
X140117627Y-113461098D01*
X140177155Y-113467499D01*
X140177172Y-113467500D01*
X140825000Y-113467500D01*
X140825000Y-112550512D01*
X140882007Y-112583425D01*
X141009174Y-112617500D01*
X141140826Y-112617500D01*
X141267993Y-112583425D01*
X141325000Y-112550512D01*
X141325000Y-113467500D01*
X141972828Y-113467500D01*
X141972844Y-113467499D01*
X142032372Y-113461098D01*
X142032379Y-113461096D01*
X142167086Y-113410854D01*
X142167093Y-113410850D01*
X142282187Y-113324690D01*
X142282190Y-113324687D01*
X142368350Y-113209593D01*
X142368354Y-113209586D01*
X142418596Y-113074879D01*
X142418598Y-113074872D01*
X142424999Y-113015344D01*
X142425000Y-113015327D01*
X142425000Y-112367500D01*
X141508012Y-112367500D01*
X141540925Y-112310493D01*
X141575000Y-112183326D01*
X141575000Y-112051674D01*
X141540925Y-111924507D01*
X141508012Y-111867500D01*
X142425000Y-111867500D01*
X142425000Y-111219672D01*
X142424999Y-111219655D01*
X142418598Y-111160127D01*
X142418596Y-111160120D01*
X142368354Y-111025413D01*
X142368350Y-111025406D01*
X142282190Y-110910312D01*
X142282187Y-110910309D01*
X142167093Y-110824149D01*
X142167086Y-110824145D01*
X142032379Y-110773903D01*
X142032372Y-110773901D01*
X141972844Y-110767500D01*
X141774366Y-110767500D01*
X141707327Y-110747815D01*
X141661572Y-110695011D01*
X141651628Y-110625853D01*
X141680653Y-110562297D01*
X141709089Y-110538073D01*
X141729449Y-110525466D01*
X141771302Y-110499552D01*
X141928872Y-110355907D01*
X142057366Y-110185755D01*
X142152405Y-109994889D01*
X142210756Y-109789810D01*
X142230429Y-109577500D01*
X142210756Y-109365190D01*
X142152405Y-109160111D01*
X142152403Y-109160106D01*
X142152403Y-109160105D01*
X142057367Y-108969246D01*
X141928872Y-108799093D01*
X141771302Y-108655448D01*
X141590019Y-108543202D01*
X141590017Y-108543201D01*
X141432019Y-108481993D01*
X141391198Y-108466179D01*
X141181610Y-108427000D01*
X140968390Y-108427000D01*
X140758802Y-108466179D01*
X140758799Y-108466179D01*
X140758799Y-108466180D01*
X140559982Y-108543201D01*
X140559980Y-108543202D01*
X140378699Y-108655447D01*
X140221127Y-108799093D01*
X140092632Y-108969246D01*
X139997596Y-109160105D01*
X139997596Y-109160107D01*
X139939244Y-109365189D01*
X139919571Y-109577499D01*
X139919571Y-109577500D01*
X139939244Y-109789810D01*
X139997596Y-109994892D01*
X139997596Y-109994894D01*
X140092632Y-110185753D01*
X140207615Y-110338013D01*
X140221128Y-110355907D01*
X140378698Y-110499552D01*
X140378700Y-110499553D01*
X140378701Y-110499554D01*
X140440911Y-110538073D01*
X140487547Y-110590101D01*
X140498651Y-110659082D01*
X140470698Y-110723117D01*
X140412563Y-110761873D01*
X140375634Y-110767500D01*
X140177155Y-110767500D01*
X140117627Y-110773901D01*
X140117620Y-110773903D01*
X139982913Y-110824145D01*
X139982906Y-110824149D01*
X139867812Y-110910309D01*
X139867809Y-110910312D01*
X139781649Y-111025406D01*
X139781645Y-111025413D01*
X139731403Y-111160120D01*
X139731401Y-111160127D01*
X139725000Y-111219655D01*
X85050500Y-111219655D01*
X85050500Y-109184240D01*
X130419311Y-109184240D01*
X130507585Y-109238897D01*
X130697678Y-109312539D01*
X130898072Y-109350000D01*
X131101928Y-109350000D01*
X131302322Y-109312539D01*
X131492412Y-109238899D01*
X131492416Y-109238897D01*
X131580686Y-109184241D01*
X131580686Y-109184240D01*
X131000001Y-108603553D01*
X131000000Y-108603553D01*
X130419311Y-109184240D01*
X85050500Y-109184240D01*
X85050500Y-108836499D01*
X85070185Y-108769460D01*
X85122989Y-108723705D01*
X85174500Y-108712499D01*
X85306856Y-108712499D01*
X85306864Y-108712499D01*
X85306879Y-108712497D01*
X85306882Y-108712497D01*
X85331987Y-108709586D01*
X85331988Y-108709585D01*
X85331991Y-108709585D01*
X85434765Y-108664206D01*
X85514206Y-108584765D01*
X85559585Y-108481991D01*
X85562500Y-108456865D01*
X85562500Y-108249999D01*
X129895287Y-108249999D01*
X129895287Y-108250000D01*
X129914096Y-108452989D01*
X129914097Y-108452992D01*
X129969883Y-108649063D01*
X129969886Y-108649069D01*
X130060751Y-108831551D01*
X130062533Y-108833911D01*
X130646446Y-108250000D01*
X130606950Y-108210504D01*
X130700000Y-108210504D01*
X130700000Y-108289496D01*
X130720444Y-108365796D01*
X130759940Y-108434205D01*
X130815795Y-108490060D01*
X130884204Y-108529556D01*
X130960504Y-108550000D01*
X131039496Y-108550000D01*
X131115796Y-108529556D01*
X131184205Y-108490060D01*
X131240060Y-108434205D01*
X131279556Y-108365796D01*
X131300000Y-108289496D01*
X131300000Y-108250000D01*
X131353553Y-108250000D01*
X131937465Y-108833912D01*
X131974865Y-108831320D01*
X132043105Y-108846322D01*
X132092401Y-108895836D01*
X132098912Y-108912059D01*
X132147793Y-109022764D01*
X132147794Y-109022765D01*
X132227235Y-109102206D01*
X132330009Y-109147585D01*
X132355135Y-109150500D01*
X133644864Y-109150499D01*
X133644879Y-109150497D01*
X133644882Y-109150497D01*
X133669987Y-109147586D01*
X133669988Y-109147585D01*
X133669991Y-109147585D01*
X133772765Y-109102206D01*
X133852206Y-109022765D01*
X133897585Y-108919991D01*
X133900500Y-108894865D01*
X133900499Y-107605136D01*
X133898481Y-107587734D01*
X133897586Y-107580012D01*
X133897585Y-107580010D01*
X133897585Y-107580009D01*
X133852206Y-107477235D01*
X133772765Y-107397794D01*
X133772763Y-107397793D01*
X133669992Y-107352415D01*
X133644865Y-107349500D01*
X132355143Y-107349500D01*
X132355117Y-107349502D01*
X132330012Y-107352413D01*
X132330008Y-107352415D01*
X132227235Y-107397793D01*
X132147794Y-107477234D01*
X132098647Y-107588542D01*
X132096819Y-107587734D01*
X132066481Y-107637065D01*
X132003512Y-107667343D01*
X131974852Y-107668681D01*
X131937466Y-107666086D01*
X131353553Y-108250000D01*
X131300000Y-108250000D01*
X131300000Y-108210504D01*
X131279556Y-108134204D01*
X131240060Y-108065795D01*
X131184205Y-108009940D01*
X131115796Y-107970444D01*
X131039496Y-107950000D01*
X130960504Y-107950000D01*
X130884204Y-107970444D01*
X130815795Y-108009940D01*
X130759940Y-108065795D01*
X130720444Y-108134204D01*
X130700000Y-108210504D01*
X130606950Y-108210504D01*
X130062533Y-107666087D01*
X130060755Y-107668442D01*
X130060754Y-107668443D01*
X129969886Y-107850930D01*
X129969883Y-107850936D01*
X129914097Y-108047007D01*
X129914096Y-108047010D01*
X129895287Y-108249999D01*
X85562500Y-108249999D01*
X85562499Y-107315758D01*
X130419311Y-107315758D01*
X131000000Y-107896446D01*
X131000001Y-107896446D01*
X131580687Y-107315758D01*
X131492413Y-107261101D01*
X131492411Y-107261100D01*
X131302321Y-107187460D01*
X131101928Y-107150000D01*
X130898072Y-107150000D01*
X130697678Y-107187460D01*
X130507588Y-107261100D01*
X130507581Y-107261104D01*
X130419312Y-107315757D01*
X130419311Y-107315758D01*
X85562499Y-107315758D01*
X85562499Y-106843136D01*
X85562497Y-106843117D01*
X85559586Y-106818012D01*
X85559585Y-106818010D01*
X85559585Y-106818009D01*
X85514206Y-106715235D01*
X85434765Y-106635794D01*
X85434763Y-106635793D01*
X85331992Y-106590415D01*
X85306868Y-106587500D01*
X84803761Y-106587500D01*
X84736722Y-106567815D01*
X84690967Y-106515011D01*
X84681023Y-106445853D01*
X84710048Y-106382297D01*
X84768826Y-106344523D01*
X84771668Y-106343725D01*
X84933270Y-106300424D01*
X84933284Y-106300419D01*
X85133407Y-106207100D01*
X85133417Y-106207094D01*
X85198188Y-106161741D01*
X84527448Y-105491000D01*
X84550160Y-105491000D01*
X84647061Y-105465036D01*
X84733940Y-105414876D01*
X84804876Y-105343940D01*
X84855036Y-105257061D01*
X84881000Y-105160160D01*
X84881000Y-105137447D01*
X85551741Y-105808188D01*
X85597094Y-105743417D01*
X85597100Y-105743407D01*
X85690419Y-105543284D01*
X85690424Y-105543270D01*
X85747573Y-105329986D01*
X85747575Y-105329976D01*
X85766821Y-105110000D01*
X85766821Y-105109999D01*
X85747575Y-104890023D01*
X85747573Y-104890013D01*
X85690424Y-104676729D01*
X85690420Y-104676720D01*
X85597096Y-104476586D01*
X85551741Y-104411811D01*
X85551740Y-104411810D01*
X84881000Y-105082551D01*
X84881000Y-105059840D01*
X84855036Y-104962939D01*
X84804876Y-104876060D01*
X84733940Y-104805124D01*
X84647061Y-104754964D01*
X84550160Y-104729000D01*
X84527448Y-104729000D01*
X84924549Y-104331898D01*
X140374500Y-104331898D01*
X140374500Y-105168102D01*
X140380126Y-105214954D01*
X140385122Y-105256561D01*
X140440639Y-105397343D01*
X140532077Y-105517922D01*
X140652656Y-105609360D01*
X140652657Y-105609360D01*
X140652658Y-105609361D01*
X140793436Y-105664877D01*
X140881898Y-105675500D01*
X140881903Y-105675500D01*
X143118097Y-105675500D01*
X143118102Y-105675500D01*
X143206564Y-105664877D01*
X143347342Y-105609361D01*
X143467922Y-105517922D01*
X143559361Y-105397342D01*
X143614877Y-105256564D01*
X143625500Y-105168102D01*
X143625500Y-104331898D01*
X143614877Y-104243436D01*
X143559361Y-104102658D01*
X143559360Y-104102657D01*
X143559360Y-104102656D01*
X143467922Y-103982077D01*
X143347343Y-103890639D01*
X143206561Y-103835122D01*
X143160926Y-103829642D01*
X143118102Y-103824500D01*
X140881898Y-103824500D01*
X140842853Y-103829188D01*
X140793438Y-103835122D01*
X140652656Y-103890639D01*
X140532077Y-103982077D01*
X140440639Y-104102656D01*
X140385122Y-104243438D01*
X140379188Y-104292853D01*
X140374500Y-104331898D01*
X84924549Y-104331898D01*
X85198188Y-104058259D01*
X85198187Y-104058258D01*
X85133411Y-104012901D01*
X85133405Y-104012898D01*
X84933284Y-103919580D01*
X84933270Y-103919575D01*
X84719986Y-103862426D01*
X84714652Y-103861486D01*
X84714872Y-103860233D01*
X84655550Y-103837027D01*
X84614573Y-103780436D01*
X84610696Y-103710674D01*
X84645150Y-103649890D01*
X84702685Y-103619649D01*
X84702457Y-103618895D01*
X84706392Y-103617701D01*
X84706998Y-103617383D01*
X84707239Y-103617335D01*
X84708276Y-103617127D01*
X84708286Y-103617127D01*
X84908569Y-103556372D01*
X85093150Y-103457711D01*
X85254936Y-103324936D01*
X85387711Y-103163150D01*
X85486372Y-102978569D01*
X85547127Y-102778286D01*
X85567641Y-102570000D01*
X85547127Y-102361714D01*
X85486372Y-102161431D01*
X85387711Y-101976850D01*
X85387708Y-101976846D01*
X85254936Y-101815063D01*
X85093153Y-101682291D01*
X85093151Y-101682290D01*
X85093150Y-101682289D01*
X84908569Y-101583628D01*
X84808427Y-101553250D01*
X84738039Y-101531898D01*
X140374500Y-101531898D01*
X140374500Y-102368102D01*
X140380126Y-102414954D01*
X140385122Y-102456561D01*
X140440639Y-102597343D01*
X140532077Y-102717922D01*
X140652656Y-102809360D01*
X140652657Y-102809360D01*
X140652658Y-102809361D01*
X140793436Y-102864877D01*
X140881898Y-102875500D01*
X140881903Y-102875500D01*
X143118097Y-102875500D01*
X143118102Y-102875500D01*
X143206564Y-102864877D01*
X143347342Y-102809361D01*
X143467922Y-102717922D01*
X143559361Y-102597342D01*
X143614877Y-102456564D01*
X143625500Y-102368102D01*
X143625500Y-101531898D01*
X143614877Y-101443436D01*
X143559361Y-101302658D01*
X143559360Y-101302657D01*
X143559360Y-101302656D01*
X143467922Y-101182077D01*
X143347343Y-101090639D01*
X143206561Y-101035122D01*
X143160926Y-101029642D01*
X143118102Y-101024500D01*
X140881898Y-101024500D01*
X140842853Y-101029188D01*
X140793438Y-101035122D01*
X140652656Y-101090639D01*
X140532077Y-101182077D01*
X140440639Y-101302656D01*
X140385122Y-101443438D01*
X140379188Y-101492853D01*
X140374500Y-101531898D01*
X84738039Y-101531898D01*
X84708284Y-101522872D01*
X84500000Y-101502359D01*
X84291715Y-101522872D01*
X84091428Y-101583629D01*
X83906846Y-101682291D01*
X83745063Y-101815063D01*
X83612291Y-101976846D01*
X83513629Y-102161428D01*
X83452872Y-102361715D01*
X83432359Y-102570000D01*
X83452872Y-102778284D01*
X83513629Y-102978571D01*
X83612291Y-103163153D01*
X83745063Y-103324936D01*
X83906846Y-103457708D01*
X83906850Y-103457711D01*
X84091431Y-103556372D01*
X84291714Y-103617127D01*
X84291716Y-103617127D01*
X84291719Y-103617128D01*
X84292763Y-103617336D01*
X84293259Y-103617595D01*
X84297543Y-103618895D01*
X84297296Y-103619707D01*
X84354674Y-103649721D01*
X84389248Y-103710437D01*
X84385508Y-103780207D01*
X84344641Y-103836878D01*
X84285137Y-103860290D01*
X84285348Y-103861486D01*
X84280013Y-103862426D01*
X84066729Y-103919575D01*
X84066720Y-103919579D01*
X83866590Y-104012901D01*
X83801811Y-104058258D01*
X84472553Y-104729000D01*
X84449840Y-104729000D01*
X84352939Y-104754964D01*
X84266060Y-104805124D01*
X84195124Y-104876060D01*
X84144964Y-104962939D01*
X84119000Y-105059840D01*
X84119000Y-105082553D01*
X83448258Y-104411811D01*
X83402901Y-104476590D01*
X83309579Y-104676720D01*
X83309575Y-104676729D01*
X83252426Y-104890013D01*
X83252424Y-104890023D01*
X83233179Y-105109999D01*
X83233179Y-105110000D01*
X83252424Y-105329976D01*
X83252426Y-105329986D01*
X83309575Y-105543270D01*
X83309580Y-105543284D01*
X83402898Y-105743405D01*
X83402901Y-105743411D01*
X83448258Y-105808187D01*
X83448259Y-105808188D01*
X84119000Y-105137447D01*
X84119000Y-105160160D01*
X84144964Y-105257061D01*
X84195124Y-105343940D01*
X84266060Y-105414876D01*
X84352939Y-105465036D01*
X84449840Y-105491000D01*
X84472553Y-105491000D01*
X83801810Y-106161740D01*
X83866590Y-106207099D01*
X83866592Y-106207100D01*
X84066715Y-106300419D01*
X84066729Y-106300424D01*
X84228332Y-106343725D01*
X84287993Y-106380090D01*
X84318522Y-106442937D01*
X84310227Y-106512312D01*
X84265742Y-106566190D01*
X84199190Y-106587465D01*
X84196239Y-106587500D01*
X83693143Y-106587500D01*
X83693117Y-106587502D01*
X83668012Y-106590413D01*
X83668008Y-106590415D01*
X83565235Y-106635793D01*
X83485794Y-106715234D01*
X83440415Y-106818006D01*
X83440415Y-106818008D01*
X83437500Y-106843131D01*
X83437500Y-108456856D01*
X83437502Y-108456882D01*
X83440413Y-108481987D01*
X83440415Y-108481991D01*
X83485793Y-108584764D01*
X83485794Y-108584765D01*
X83565235Y-108664206D01*
X83668009Y-108709585D01*
X83693135Y-108712500D01*
X83825500Y-108712499D01*
X83892539Y-108732183D01*
X83938294Y-108784987D01*
X83949500Y-108836499D01*
X83949500Y-110621613D01*
X83929815Y-110688652D01*
X83877011Y-110734407D01*
X83807853Y-110744351D01*
X83744297Y-110715326D01*
X83737819Y-110709294D01*
X82836819Y-109808294D01*
X82803334Y-109746971D01*
X82800500Y-109720613D01*
X82800500Y-100030000D01*
X83432359Y-100030000D01*
X83452872Y-100238284D01*
X83513629Y-100438571D01*
X83612291Y-100623153D01*
X83745063Y-100784936D01*
X83906846Y-100917708D01*
X83906850Y-100917711D01*
X84091431Y-101016372D01*
X84291714Y-101077127D01*
X84500000Y-101097641D01*
X84708286Y-101077127D01*
X84908569Y-101016372D01*
X85093150Y-100917711D01*
X85254936Y-100784936D01*
X85387711Y-100623150D01*
X85486372Y-100438569D01*
X85547127Y-100238286D01*
X85567641Y-100030000D01*
X85547127Y-99821714D01*
X85486372Y-99621431D01*
X85387711Y-99436850D01*
X85387708Y-99436846D01*
X85254936Y-99275063D01*
X85093153Y-99142291D01*
X85093151Y-99142290D01*
X85093150Y-99142289D01*
X84908569Y-99043628D01*
X84808427Y-99013250D01*
X84708284Y-98982872D01*
X84500000Y-98962359D01*
X84291715Y-98982872D01*
X84091428Y-99043629D01*
X83906846Y-99142291D01*
X83745063Y-99275063D01*
X83612291Y-99436846D01*
X83513629Y-99621428D01*
X83452872Y-99821715D01*
X83432359Y-100030000D01*
X82800500Y-100030000D01*
X82800500Y-97490000D01*
X83432359Y-97490000D01*
X83452872Y-97698284D01*
X83477462Y-97779344D01*
X83511180Y-97890500D01*
X83513629Y-97898571D01*
X83612291Y-98083153D01*
X83745063Y-98244936D01*
X83850091Y-98331130D01*
X83906850Y-98377711D01*
X84091431Y-98476372D01*
X84291714Y-98537127D01*
X84500000Y-98557641D01*
X84708286Y-98537127D01*
X84830678Y-98500000D01*
X88294355Y-98500000D01*
X88314859Y-98668869D01*
X88314860Y-98668874D01*
X88375182Y-98827931D01*
X88437475Y-98918177D01*
X88471817Y-98967929D01*
X88557264Y-99043628D01*
X88599150Y-99080736D01*
X88749773Y-99159789D01*
X88749775Y-99159790D01*
X88914944Y-99200500D01*
X89085056Y-99200500D01*
X89250225Y-99159790D01*
X89329692Y-99118081D01*
X89400849Y-99080736D01*
X89400850Y-99080734D01*
X89400852Y-99080734D01*
X89528183Y-98967929D01*
X89624818Y-98827930D01*
X89685140Y-98668872D01*
X89705645Y-98500000D01*
X89701672Y-98467285D01*
X89713131Y-98398365D01*
X89737084Y-98364662D01*
X91311749Y-96789999D01*
X139894785Y-96789999D01*
X139894785Y-96790000D01*
X139913602Y-96993082D01*
X139969417Y-97189247D01*
X139969422Y-97189260D01*
X140060327Y-97371821D01*
X140183237Y-97534581D01*
X140333958Y-97671980D01*
X140333960Y-97671982D01*
X140376440Y-97698284D01*
X140507363Y-97779348D01*
X140697544Y-97853024D01*
X140898024Y-97890500D01*
X140898026Y-97890500D01*
X141101974Y-97890500D01*
X141101976Y-97890500D01*
X141302456Y-97853024D01*
X141492637Y-97779348D01*
X141666041Y-97671981D01*
X141816764Y-97534579D01*
X141939673Y-97371821D01*
X142030582Y-97189250D01*
X142086397Y-96993083D01*
X142105215Y-96790000D01*
X142100124Y-96735063D01*
X142086397Y-96586917D01*
X142068563Y-96524237D01*
X142030582Y-96390750D01*
X141939673Y-96208179D01*
X141816764Y-96045421D01*
X141816762Y-96045418D01*
X141666041Y-95908019D01*
X141666039Y-95908017D01*
X141492642Y-95800655D01*
X141492635Y-95800651D01*
X141397546Y-95763814D01*
X141302456Y-95726976D01*
X141101976Y-95689500D01*
X140898024Y-95689500D01*
X140697544Y-95726976D01*
X140697541Y-95726976D01*
X140697541Y-95726977D01*
X140507364Y-95800651D01*
X140507357Y-95800655D01*
X140333960Y-95908017D01*
X140333958Y-95908019D01*
X140183237Y-96045418D01*
X140060327Y-96208178D01*
X139969422Y-96390739D01*
X139969417Y-96390752D01*
X139913602Y-96586917D01*
X139894785Y-96789999D01*
X91311749Y-96789999D01*
X91480485Y-96621263D01*
X91536503Y-96524237D01*
X91565500Y-96416018D01*
X91565500Y-96303982D01*
X91565500Y-93864705D01*
X91585185Y-93797666D01*
X91607274Y-93771889D01*
X91668182Y-93717930D01*
X91702177Y-93668681D01*
X91764818Y-93577930D01*
X91825140Y-93418872D01*
X91845645Y-93250000D01*
X91825140Y-93081128D01*
X91764818Y-92922070D01*
X91668183Y-92782071D01*
X91540852Y-92669266D01*
X91540849Y-92669263D01*
X91390226Y-92590210D01*
X91225056Y-92549500D01*
X91054944Y-92549500D01*
X90889773Y-92590210D01*
X90739150Y-92669263D01*
X90611816Y-92782072D01*
X90515182Y-92922068D01*
X90454860Y-93081125D01*
X90454859Y-93081130D01*
X90434355Y-93250000D01*
X90454859Y-93418869D01*
X90454860Y-93418874D01*
X90515182Y-93577931D01*
X90611817Y-93717930D01*
X90672726Y-93771889D01*
X90709853Y-93831078D01*
X90714500Y-93864705D01*
X90714500Y-96132389D01*
X90694815Y-96199428D01*
X90678181Y-96220070D01*
X89135070Y-97763181D01*
X89073747Y-97796666D01*
X89047389Y-97799500D01*
X88914944Y-97799500D01*
X88749773Y-97840210D01*
X88599150Y-97919263D01*
X88471816Y-98032072D01*
X88375182Y-98172068D01*
X88314860Y-98331125D01*
X88314859Y-98331130D01*
X88294355Y-98500000D01*
X84830678Y-98500000D01*
X84908569Y-98476372D01*
X85093150Y-98377711D01*
X85254936Y-98244936D01*
X85387711Y-98083150D01*
X85486372Y-97898569D01*
X85547127Y-97698286D01*
X85567641Y-97490000D01*
X85547127Y-97281714D01*
X85486372Y-97081431D01*
X85387711Y-96896850D01*
X85387708Y-96896846D01*
X85254936Y-96735063D01*
X85093153Y-96602291D01*
X85093151Y-96602290D01*
X85093150Y-96602289D01*
X84908569Y-96503628D01*
X84808427Y-96473250D01*
X84708284Y-96442872D01*
X84500000Y-96422359D01*
X84291715Y-96442872D01*
X84091428Y-96503629D01*
X83906846Y-96602291D01*
X83745063Y-96735063D01*
X83612291Y-96896846D01*
X83513629Y-97081428D01*
X83452872Y-97281715D01*
X83432359Y-97490000D01*
X82800500Y-97490000D01*
X82800500Y-94950000D01*
X83432359Y-94950000D01*
X83452872Y-95158284D01*
X83452873Y-95158286D01*
X83513628Y-95358569D01*
X83562766Y-95450500D01*
X83612291Y-95543153D01*
X83745063Y-95704936D01*
X83861697Y-95800655D01*
X83906850Y-95837711D01*
X84091431Y-95936372D01*
X84291714Y-95997127D01*
X84500000Y-96017641D01*
X84708286Y-95997127D01*
X84908569Y-95936372D01*
X85093150Y-95837711D01*
X85254936Y-95704936D01*
X85387711Y-95543150D01*
X85486372Y-95358569D01*
X85547127Y-95158286D01*
X85567641Y-94950000D01*
X85547127Y-94741714D01*
X85486372Y-94541431D01*
X85387711Y-94356850D01*
X85332435Y-94289496D01*
X85254936Y-94195063D01*
X85093153Y-94062291D01*
X85093151Y-94062290D01*
X85093150Y-94062289D01*
X84908569Y-93963628D01*
X84808427Y-93933250D01*
X84708284Y-93902872D01*
X84500000Y-93882359D01*
X84291715Y-93902872D01*
X84091428Y-93963629D01*
X83906846Y-94062291D01*
X83745063Y-94195063D01*
X83612291Y-94356846D01*
X83513629Y-94541428D01*
X83452872Y-94741715D01*
X83432359Y-94950000D01*
X82800500Y-94950000D01*
X82800500Y-92250000D01*
X107044355Y-92250000D01*
X107064859Y-92418869D01*
X107064860Y-92418874D01*
X107125182Y-92577931D01*
X107221817Y-92717930D01*
X107282726Y-92771889D01*
X107319853Y-92831078D01*
X107324500Y-92864705D01*
X107324500Y-94135294D01*
X107304815Y-94202333D01*
X107282727Y-94228109D01*
X107221818Y-94282069D01*
X107125182Y-94422068D01*
X107064860Y-94581125D01*
X107064859Y-94581130D01*
X107044355Y-94750000D01*
X107064859Y-94918869D01*
X107064860Y-94918874D01*
X107125182Y-95077931D01*
X107173261Y-95147584D01*
X107221817Y-95217929D01*
X107315020Y-95300499D01*
X107349150Y-95330736D01*
X107499773Y-95409789D01*
X107499775Y-95409790D01*
X107664944Y-95450500D01*
X107835056Y-95450500D01*
X108000225Y-95409790D01*
X108097814Y-95358571D01*
X108150849Y-95330736D01*
X108150850Y-95330734D01*
X108150852Y-95330734D01*
X108278183Y-95217929D01*
X108301437Y-95184240D01*
X130491911Y-95184240D01*
X130580185Y-95238897D01*
X130770278Y-95312539D01*
X130970672Y-95350000D01*
X131174528Y-95350000D01*
X131374922Y-95312539D01*
X131565012Y-95238899D01*
X131565016Y-95238897D01*
X131653286Y-95184241D01*
X131653286Y-95184240D01*
X131072601Y-94603553D01*
X131072600Y-94603553D01*
X130491911Y-95184240D01*
X108301437Y-95184240D01*
X108374818Y-95077930D01*
X108435140Y-94918872D01*
X108455645Y-94750000D01*
X108435140Y-94581128D01*
X108374818Y-94422070D01*
X108278183Y-94282071D01*
X108278181Y-94282069D01*
X108241982Y-94249999D01*
X129967887Y-94249999D01*
X129967887Y-94250000D01*
X129986696Y-94452989D01*
X129986697Y-94452992D01*
X130042483Y-94649063D01*
X130042486Y-94649069D01*
X130133351Y-94831551D01*
X130135133Y-94833911D01*
X130719046Y-94250000D01*
X130679550Y-94210504D01*
X130772600Y-94210504D01*
X130772600Y-94289496D01*
X130793044Y-94365796D01*
X130832540Y-94434205D01*
X130888395Y-94490060D01*
X130956804Y-94529556D01*
X131033104Y-94550000D01*
X131112096Y-94550000D01*
X131188396Y-94529556D01*
X131256805Y-94490060D01*
X131312660Y-94434205D01*
X131352156Y-94365796D01*
X131372600Y-94289496D01*
X131372600Y-94250000D01*
X131426153Y-94250000D01*
X132010065Y-94833912D01*
X132047465Y-94831320D01*
X132115705Y-94846322D01*
X132165001Y-94895836D01*
X132171512Y-94912059D01*
X132220393Y-95022764D01*
X132220394Y-95022765D01*
X132299835Y-95102206D01*
X132402609Y-95147585D01*
X132427735Y-95150500D01*
X133717464Y-95150499D01*
X133717479Y-95150497D01*
X133717482Y-95150497D01*
X133742587Y-95147586D01*
X133742588Y-95147585D01*
X133742591Y-95147585D01*
X133845365Y-95102206D01*
X133924806Y-95022765D01*
X133970185Y-94919991D01*
X133973100Y-94894865D01*
X133973099Y-93605136D01*
X133971081Y-93587734D01*
X133970186Y-93580012D01*
X133970185Y-93580010D01*
X133970185Y-93580009D01*
X133924806Y-93477235D01*
X133902702Y-93455131D01*
X139949500Y-93455131D01*
X139949500Y-95044856D01*
X139949502Y-95044882D01*
X139952413Y-95069987D01*
X139952415Y-95069991D01*
X139997793Y-95172764D01*
X139997794Y-95172765D01*
X140077235Y-95252206D01*
X140180009Y-95297585D01*
X140205135Y-95300500D01*
X141794864Y-95300499D01*
X141794879Y-95300497D01*
X141794882Y-95300497D01*
X141819987Y-95297586D01*
X141819988Y-95297585D01*
X141819991Y-95297585D01*
X141922765Y-95252206D01*
X142002206Y-95172765D01*
X142047585Y-95069991D01*
X142050500Y-95044865D01*
X142050499Y-93455136D01*
X142050497Y-93455117D01*
X142047586Y-93430012D01*
X142047585Y-93430010D01*
X142047585Y-93430009D01*
X142002206Y-93327235D01*
X141922765Y-93247794D01*
X141922763Y-93247793D01*
X141819992Y-93202415D01*
X141794865Y-93199500D01*
X140205143Y-93199500D01*
X140205117Y-93199502D01*
X140180012Y-93202413D01*
X140180008Y-93202415D01*
X140077235Y-93247793D01*
X139997794Y-93327234D01*
X139952415Y-93430006D01*
X139952415Y-93430008D01*
X139949500Y-93455131D01*
X133902702Y-93455131D01*
X133845365Y-93397794D01*
X133845363Y-93397793D01*
X133742592Y-93352415D01*
X133717465Y-93349500D01*
X132427743Y-93349500D01*
X132427717Y-93349502D01*
X132402612Y-93352413D01*
X132402608Y-93352415D01*
X132299835Y-93397793D01*
X132220394Y-93477234D01*
X132171247Y-93588542D01*
X132169419Y-93587734D01*
X132139081Y-93637065D01*
X132076112Y-93667343D01*
X132047452Y-93668681D01*
X132010066Y-93666086D01*
X131426153Y-94250000D01*
X131372600Y-94250000D01*
X131372600Y-94210504D01*
X131352156Y-94134204D01*
X131312660Y-94065795D01*
X131256805Y-94009940D01*
X131188396Y-93970444D01*
X131112096Y-93950000D01*
X131033104Y-93950000D01*
X130956804Y-93970444D01*
X130888395Y-94009940D01*
X130832540Y-94065795D01*
X130793044Y-94134204D01*
X130772600Y-94210504D01*
X130679550Y-94210504D01*
X130135133Y-93666087D01*
X130133355Y-93668442D01*
X130133354Y-93668443D01*
X130042486Y-93850930D01*
X130042483Y-93850936D01*
X129986697Y-94047007D01*
X129986696Y-94047010D01*
X129967887Y-94249999D01*
X108241982Y-94249999D01*
X108217273Y-94228109D01*
X108180146Y-94168920D01*
X108175500Y-94135294D01*
X108175500Y-93315758D01*
X130491911Y-93315758D01*
X131072600Y-93896446D01*
X131072601Y-93896446D01*
X131653287Y-93315758D01*
X131565013Y-93261101D01*
X131565011Y-93261100D01*
X131374921Y-93187460D01*
X131174528Y-93150000D01*
X130970672Y-93150000D01*
X130770278Y-93187460D01*
X130580188Y-93261100D01*
X130580181Y-93261104D01*
X130491912Y-93315757D01*
X130491911Y-93315758D01*
X108175500Y-93315758D01*
X108175500Y-92864705D01*
X108195185Y-92797666D01*
X108217274Y-92771889D01*
X108278182Y-92717930D01*
X108291009Y-92699348D01*
X108374818Y-92577930D01*
X108435140Y-92418872D01*
X108455645Y-92250000D01*
X108435140Y-92081128D01*
X108374818Y-91922070D01*
X108278183Y-91782071D01*
X108196830Y-91709999D01*
X139894785Y-91709999D01*
X139894785Y-91710000D01*
X139913602Y-91913082D01*
X139969417Y-92109247D01*
X139969422Y-92109260D01*
X140060327Y-92291821D01*
X140183237Y-92454581D01*
X140333958Y-92591980D01*
X140333960Y-92591982D01*
X140433141Y-92653392D01*
X140507363Y-92699348D01*
X140697544Y-92773024D01*
X140898024Y-92810500D01*
X140898026Y-92810500D01*
X141101974Y-92810500D01*
X141101976Y-92810500D01*
X141302456Y-92773024D01*
X141492637Y-92699348D01*
X141666041Y-92591981D01*
X141816764Y-92454579D01*
X141939673Y-92291821D01*
X142030582Y-92109250D01*
X142086397Y-91913083D01*
X142105215Y-91710000D01*
X142086397Y-91506917D01*
X142030582Y-91310750D01*
X141939673Y-91128179D01*
X141816764Y-90965421D01*
X141816762Y-90965418D01*
X141666041Y-90828019D01*
X141666039Y-90828017D01*
X141492642Y-90720655D01*
X141492635Y-90720651D01*
X141397546Y-90683814D01*
X141302456Y-90646976D01*
X141101976Y-90609500D01*
X140898024Y-90609500D01*
X140697544Y-90646976D01*
X140697541Y-90646976D01*
X140697541Y-90646977D01*
X140507364Y-90720651D01*
X140507357Y-90720655D01*
X140333960Y-90828017D01*
X140333958Y-90828019D01*
X140183237Y-90965418D01*
X140060327Y-91128178D01*
X139969422Y-91310739D01*
X139969417Y-91310752D01*
X139913602Y-91506917D01*
X139894785Y-91709999D01*
X108196830Y-91709999D01*
X108150852Y-91669266D01*
X108150849Y-91669263D01*
X108000226Y-91590210D01*
X107835056Y-91549500D01*
X107664944Y-91549500D01*
X107499773Y-91590210D01*
X107349150Y-91669263D01*
X107221816Y-91782072D01*
X107125182Y-91922068D01*
X107064860Y-92081125D01*
X107064859Y-92081130D01*
X107044355Y-92250000D01*
X82800500Y-92250000D01*
X82800500Y-91529386D01*
X82820185Y-91462347D01*
X82836819Y-91441705D01*
X85778525Y-88499999D01*
X87369364Y-88499999D01*
X87369364Y-88500000D01*
X88266988Y-88500000D01*
X88234075Y-88557007D01*
X88200000Y-88684174D01*
X88200000Y-88815826D01*
X88234075Y-88942993D01*
X88266988Y-89000000D01*
X87369364Y-89000000D01*
X87426567Y-89213486D01*
X87426570Y-89213492D01*
X87526399Y-89427578D01*
X87661894Y-89621082D01*
X87828917Y-89788105D01*
X88022421Y-89923600D01*
X88236507Y-90023429D01*
X88236516Y-90023433D01*
X88450000Y-90080634D01*
X88450000Y-89183012D01*
X88507007Y-89215925D01*
X88634174Y-89250000D01*
X88765826Y-89250000D01*
X88892993Y-89215925D01*
X88950000Y-89183012D01*
X88950000Y-90080633D01*
X89163483Y-90023433D01*
X89163492Y-90023429D01*
X89377578Y-89923600D01*
X89571082Y-89788105D01*
X89738105Y-89621082D01*
X89873600Y-89427578D01*
X89967294Y-89226651D01*
X90013466Y-89174212D01*
X90080660Y-89155060D01*
X90147541Y-89175276D01*
X90190676Y-89223785D01*
X90257632Y-89358253D01*
X90386127Y-89528406D01*
X90386128Y-89528407D01*
X90543698Y-89672052D01*
X90724981Y-89784298D01*
X90923802Y-89861321D01*
X91133390Y-89900500D01*
X91133392Y-89900500D01*
X91346608Y-89900500D01*
X91346610Y-89900500D01*
X91556198Y-89861321D01*
X91755019Y-89784298D01*
X91936302Y-89672052D01*
X92093872Y-89528407D01*
X92222366Y-89358255D01*
X92276270Y-89250000D01*
X92317403Y-89167394D01*
X92317403Y-89167393D01*
X92317405Y-89167389D01*
X92375756Y-88962310D01*
X92386529Y-88846047D01*
X92412315Y-88781111D01*
X92454622Y-88750804D01*
X92563130Y-88750804D01*
X92599503Y-88771668D01*
X92631693Y-88833681D01*
X92633470Y-88846047D01*
X92644244Y-88962310D01*
X92697675Y-89150099D01*
X92702596Y-89167392D01*
X92702596Y-89167394D01*
X92797632Y-89358253D01*
X92926127Y-89528406D01*
X92926128Y-89528407D01*
X93083698Y-89672052D01*
X93264981Y-89784298D01*
X93463802Y-89861321D01*
X93673390Y-89900500D01*
X93673392Y-89900500D01*
X93886608Y-89900500D01*
X93886610Y-89900500D01*
X94096198Y-89861321D01*
X94295019Y-89784298D01*
X94476302Y-89672052D01*
X94633872Y-89528407D01*
X94762366Y-89358255D01*
X94816270Y-89250000D01*
X94857403Y-89167394D01*
X94857403Y-89167393D01*
X94857405Y-89167389D01*
X94915756Y-88962310D01*
X94926529Y-88846047D01*
X94952315Y-88781111D01*
X94994622Y-88750804D01*
X95103130Y-88750804D01*
X95139503Y-88771668D01*
X95171693Y-88833681D01*
X95173470Y-88846047D01*
X95184244Y-88962310D01*
X95237675Y-89150099D01*
X95242596Y-89167392D01*
X95242596Y-89167394D01*
X95337632Y-89358253D01*
X95466127Y-89528406D01*
X95466128Y-89528407D01*
X95623698Y-89672052D01*
X95804981Y-89784298D01*
X96003802Y-89861321D01*
X96213390Y-89900500D01*
X96213392Y-89900500D01*
X96426608Y-89900500D01*
X96426610Y-89900500D01*
X96636198Y-89861321D01*
X96835019Y-89784298D01*
X97016302Y-89672052D01*
X97173872Y-89528407D01*
X97302366Y-89358255D01*
X97356270Y-89250000D01*
X97397403Y-89167394D01*
X97397403Y-89167393D01*
X97397405Y-89167389D01*
X97455756Y-88962310D01*
X97466529Y-88846047D01*
X97492315Y-88781111D01*
X97534622Y-88750804D01*
X97643130Y-88750804D01*
X97679503Y-88771668D01*
X97711693Y-88833681D01*
X97713470Y-88846047D01*
X97724244Y-88962310D01*
X97777675Y-89150099D01*
X97782596Y-89167392D01*
X97782596Y-89167394D01*
X97877632Y-89358253D01*
X98006127Y-89528406D01*
X98006128Y-89528407D01*
X98163698Y-89672052D01*
X98344981Y-89784298D01*
X98543802Y-89861321D01*
X98753390Y-89900500D01*
X98753392Y-89900500D01*
X98966608Y-89900500D01*
X98966610Y-89900500D01*
X99176198Y-89861321D01*
X99375019Y-89784298D01*
X99556302Y-89672052D01*
X99713872Y-89528407D01*
X99842366Y-89358255D01*
X99896270Y-89250000D01*
X99937403Y-89167394D01*
X99937403Y-89167393D01*
X99937405Y-89167389D01*
X99995756Y-88962310D01*
X100006529Y-88846047D01*
X100032315Y-88781111D01*
X100074622Y-88750804D01*
X100183130Y-88750804D01*
X100219503Y-88771668D01*
X100251693Y-88833681D01*
X100253470Y-88846047D01*
X100264244Y-88962310D01*
X100317675Y-89150099D01*
X100322596Y-89167392D01*
X100322596Y-89167394D01*
X100417632Y-89358253D01*
X100546127Y-89528406D01*
X100546128Y-89528407D01*
X100703698Y-89672052D01*
X100884981Y-89784298D01*
X101083802Y-89861321D01*
X101293390Y-89900500D01*
X101293392Y-89900500D01*
X101506608Y-89900500D01*
X101506610Y-89900500D01*
X101716198Y-89861321D01*
X101915019Y-89784298D01*
X102096302Y-89672052D01*
X102253872Y-89528407D01*
X102382366Y-89358255D01*
X102449325Y-89223781D01*
X102496825Y-89172548D01*
X102564488Y-89155126D01*
X102630828Y-89177051D01*
X102672705Y-89226651D01*
X102766399Y-89427578D01*
X102901894Y-89621082D01*
X103068917Y-89788105D01*
X103262421Y-89923600D01*
X103476507Y-90023429D01*
X103476516Y-90023433D01*
X103690000Y-90080634D01*
X103690000Y-89183012D01*
X103747007Y-89215925D01*
X103874174Y-89250000D01*
X104005826Y-89250000D01*
X104132993Y-89215925D01*
X104190000Y-89183012D01*
X104190000Y-90080633D01*
X104403483Y-90023433D01*
X104403492Y-90023429D01*
X104617578Y-89923600D01*
X104811082Y-89788105D01*
X104978105Y-89621082D01*
X105113600Y-89427578D01*
X105207294Y-89226651D01*
X105253466Y-89174212D01*
X105320660Y-89155060D01*
X105387541Y-89175276D01*
X105430676Y-89223785D01*
X105497632Y-89358253D01*
X105626127Y-89528406D01*
X105626128Y-89528407D01*
X105783698Y-89672052D01*
X105964981Y-89784298D01*
X106163802Y-89861321D01*
X106373390Y-89900500D01*
X106373392Y-89900500D01*
X106586608Y-89900500D01*
X106586610Y-89900500D01*
X106796198Y-89861321D01*
X106995019Y-89784298D01*
X107176302Y-89672052D01*
X107333872Y-89528407D01*
X107462366Y-89358255D01*
X107516270Y-89250000D01*
X107557403Y-89167394D01*
X107557403Y-89167393D01*
X107557405Y-89167389D01*
X107615756Y-88962310D01*
X107626529Y-88846047D01*
X107652315Y-88781111D01*
X107694622Y-88750804D01*
X107803130Y-88750804D01*
X107839503Y-88771668D01*
X107871693Y-88833681D01*
X107873470Y-88846047D01*
X107884244Y-88962310D01*
X107937675Y-89150099D01*
X107942596Y-89167392D01*
X107942596Y-89167394D01*
X108037632Y-89358253D01*
X108166127Y-89528406D01*
X108166128Y-89528407D01*
X108323698Y-89672052D01*
X108504981Y-89784298D01*
X108703802Y-89861321D01*
X108913390Y-89900500D01*
X108913392Y-89900500D01*
X109126608Y-89900500D01*
X109126610Y-89900500D01*
X109336198Y-89861321D01*
X109535019Y-89784298D01*
X109716302Y-89672052D01*
X109873872Y-89528407D01*
X110002366Y-89358255D01*
X110056270Y-89250000D01*
X110097403Y-89167394D01*
X110097403Y-89167393D01*
X110097405Y-89167389D01*
X110155756Y-88962310D01*
X110166529Y-88846047D01*
X110192315Y-88781111D01*
X110234622Y-88750804D01*
X110343130Y-88750804D01*
X110379503Y-88771668D01*
X110411693Y-88833681D01*
X110413470Y-88846047D01*
X110424244Y-88962310D01*
X110477675Y-89150099D01*
X110482596Y-89167392D01*
X110482596Y-89167394D01*
X110577632Y-89358253D01*
X110706127Y-89528406D01*
X110706128Y-89528407D01*
X110863698Y-89672052D01*
X111044981Y-89784298D01*
X111243802Y-89861321D01*
X111453390Y-89900500D01*
X111453392Y-89900500D01*
X111666608Y-89900500D01*
X111666610Y-89900500D01*
X111876198Y-89861321D01*
X112075019Y-89784298D01*
X112256302Y-89672052D01*
X112413872Y-89528407D01*
X112542366Y-89358255D01*
X112596270Y-89250000D01*
X112637403Y-89167394D01*
X112637403Y-89167393D01*
X112637405Y-89167389D01*
X112695756Y-88962310D01*
X112706529Y-88846047D01*
X112732315Y-88781111D01*
X112774622Y-88750804D01*
X112883130Y-88750804D01*
X112919503Y-88771668D01*
X112951693Y-88833681D01*
X112953470Y-88846047D01*
X112964244Y-88962310D01*
X113017675Y-89150099D01*
X113022596Y-89167392D01*
X113022596Y-89167394D01*
X113117632Y-89358253D01*
X113246127Y-89528406D01*
X113246128Y-89528407D01*
X113403698Y-89672052D01*
X113584981Y-89784298D01*
X113783802Y-89861321D01*
X113993390Y-89900500D01*
X113993392Y-89900500D01*
X114206608Y-89900500D01*
X114206610Y-89900500D01*
X114416198Y-89861321D01*
X114615019Y-89784298D01*
X114796302Y-89672052D01*
X114953872Y-89528407D01*
X115082366Y-89358255D01*
X115136270Y-89250000D01*
X115177403Y-89167394D01*
X115177403Y-89167393D01*
X115177405Y-89167389D01*
X115235756Y-88962310D01*
X115246529Y-88846047D01*
X115272315Y-88781111D01*
X115314622Y-88750804D01*
X115423130Y-88750804D01*
X115459503Y-88771668D01*
X115491693Y-88833681D01*
X115493470Y-88846047D01*
X115504244Y-88962310D01*
X115557675Y-89150099D01*
X115562596Y-89167392D01*
X115562596Y-89167394D01*
X115657632Y-89358253D01*
X115786127Y-89528406D01*
X115786128Y-89528407D01*
X115943698Y-89672052D01*
X116124981Y-89784298D01*
X116323802Y-89861321D01*
X116533390Y-89900500D01*
X116533392Y-89900500D01*
X116746608Y-89900500D01*
X116746610Y-89900500D01*
X116956198Y-89861321D01*
X117155019Y-89784298D01*
X117336302Y-89672052D01*
X117493872Y-89528407D01*
X117622366Y-89358255D01*
X117676270Y-89250000D01*
X117717403Y-89167394D01*
X117717403Y-89167393D01*
X117717405Y-89167389D01*
X117775756Y-88962310D01*
X117786529Y-88846047D01*
X117812315Y-88781111D01*
X117854622Y-88750804D01*
X117963130Y-88750804D01*
X117999503Y-88771668D01*
X118031693Y-88833681D01*
X118033470Y-88846047D01*
X118044244Y-88962310D01*
X118097675Y-89150099D01*
X118102596Y-89167392D01*
X118102596Y-89167394D01*
X118197632Y-89358253D01*
X118326127Y-89528406D01*
X118326128Y-89528407D01*
X118483698Y-89672052D01*
X118664981Y-89784298D01*
X118863802Y-89861321D01*
X119073390Y-89900500D01*
X119073392Y-89900500D01*
X119286608Y-89900500D01*
X119286610Y-89900500D01*
X119496198Y-89861321D01*
X119695019Y-89784298D01*
X119876302Y-89672052D01*
X120033872Y-89528407D01*
X120162366Y-89358255D01*
X120216270Y-89250000D01*
X120257403Y-89167394D01*
X120257403Y-89167393D01*
X120257405Y-89167389D01*
X120315756Y-88962310D01*
X120326529Y-88846047D01*
X120352315Y-88781111D01*
X120394622Y-88750804D01*
X120503130Y-88750804D01*
X120539503Y-88771668D01*
X120571693Y-88833681D01*
X120573470Y-88846047D01*
X120584244Y-88962310D01*
X120637675Y-89150099D01*
X120642596Y-89167392D01*
X120642596Y-89167394D01*
X120737632Y-89358253D01*
X120866127Y-89528406D01*
X120866128Y-89528407D01*
X121023698Y-89672052D01*
X121204981Y-89784298D01*
X121403802Y-89861321D01*
X121613390Y-89900500D01*
X121613392Y-89900500D01*
X121826608Y-89900500D01*
X121826610Y-89900500D01*
X122036198Y-89861321D01*
X122235019Y-89784298D01*
X122416302Y-89672052D01*
X122573872Y-89528407D01*
X122702366Y-89358255D01*
X122756270Y-89250000D01*
X122797403Y-89167394D01*
X122797403Y-89167393D01*
X122797405Y-89167389D01*
X122855756Y-88962310D01*
X122866529Y-88846047D01*
X122892315Y-88781111D01*
X122934622Y-88750804D01*
X123043130Y-88750804D01*
X123079503Y-88771668D01*
X123111693Y-88833681D01*
X123113470Y-88846047D01*
X123124244Y-88962310D01*
X123177675Y-89150099D01*
X123182596Y-89167392D01*
X123182596Y-89167394D01*
X123277632Y-89358253D01*
X123406127Y-89528406D01*
X123406128Y-89528407D01*
X123563698Y-89672052D01*
X123744981Y-89784298D01*
X123943802Y-89861321D01*
X124153390Y-89900500D01*
X124153392Y-89900500D01*
X124366608Y-89900500D01*
X124366610Y-89900500D01*
X124576198Y-89861321D01*
X124775019Y-89784298D01*
X124956302Y-89672052D01*
X125113872Y-89528407D01*
X125242366Y-89358255D01*
X125296270Y-89250000D01*
X125337403Y-89167394D01*
X125337403Y-89167393D01*
X125337405Y-89167389D01*
X125395756Y-88962310D01*
X125406529Y-88846047D01*
X125432315Y-88781111D01*
X125474622Y-88750804D01*
X125583130Y-88750804D01*
X125619503Y-88771668D01*
X125651693Y-88833681D01*
X125653470Y-88846047D01*
X125664244Y-88962310D01*
X125717675Y-89150099D01*
X125722596Y-89167392D01*
X125722596Y-89167394D01*
X125817632Y-89358253D01*
X125946127Y-89528406D01*
X125946128Y-89528407D01*
X126103698Y-89672052D01*
X126284981Y-89784298D01*
X126483802Y-89861321D01*
X126693390Y-89900500D01*
X126693392Y-89900500D01*
X126906608Y-89900500D01*
X126906610Y-89900500D01*
X127116198Y-89861321D01*
X127315019Y-89784298D01*
X127496302Y-89672052D01*
X127653872Y-89528407D01*
X127782366Y-89358255D01*
X127836270Y-89250000D01*
X127877403Y-89167394D01*
X127877403Y-89167393D01*
X127877405Y-89167389D01*
X127935756Y-88962310D01*
X127946529Y-88846047D01*
X127972315Y-88781111D01*
X128014622Y-88750804D01*
X128123130Y-88750804D01*
X128159503Y-88771668D01*
X128191693Y-88833681D01*
X128193470Y-88846047D01*
X128204244Y-88962310D01*
X128257675Y-89150099D01*
X128262596Y-89167392D01*
X128262596Y-89167394D01*
X128357632Y-89358253D01*
X128486127Y-89528406D01*
X128486128Y-89528407D01*
X128643698Y-89672052D01*
X128824981Y-89784298D01*
X129023802Y-89861321D01*
X129233390Y-89900500D01*
X129233392Y-89900500D01*
X129446608Y-89900500D01*
X129446610Y-89900500D01*
X129656198Y-89861321D01*
X129855019Y-89784298D01*
X130036302Y-89672052D01*
X130193872Y-89528407D01*
X130322366Y-89358255D01*
X130376270Y-89250000D01*
X130417403Y-89167394D01*
X130417403Y-89167393D01*
X130417405Y-89167389D01*
X130475756Y-88962310D01*
X130486529Y-88846047D01*
X130512315Y-88781111D01*
X130554622Y-88750804D01*
X130663130Y-88750804D01*
X130699503Y-88771668D01*
X130731693Y-88833681D01*
X130733470Y-88846047D01*
X130744244Y-88962310D01*
X130797675Y-89150099D01*
X130802596Y-89167392D01*
X130802596Y-89167394D01*
X130897632Y-89358253D01*
X131026127Y-89528406D01*
X131026128Y-89528407D01*
X131183698Y-89672052D01*
X131364981Y-89784298D01*
X131563802Y-89861321D01*
X131773390Y-89900500D01*
X131773392Y-89900500D01*
X131986608Y-89900500D01*
X131986610Y-89900500D01*
X132196198Y-89861321D01*
X132395019Y-89784298D01*
X132576302Y-89672052D01*
X132733872Y-89528407D01*
X132862366Y-89358255D01*
X132916270Y-89250000D01*
X132957403Y-89167394D01*
X132957403Y-89167393D01*
X132957405Y-89167389D01*
X133015756Y-88962310D01*
X133022029Y-88894605D01*
X133047814Y-88829669D01*
X133104614Y-88788981D01*
X133174395Y-88785461D01*
X133235002Y-88820225D01*
X133267193Y-88882238D01*
X133269500Y-88906047D01*
X133269500Y-89644856D01*
X133269502Y-89644882D01*
X133272413Y-89669987D01*
X133272415Y-89669991D01*
X133317793Y-89772764D01*
X133317794Y-89772765D01*
X133397235Y-89852206D01*
X133500009Y-89897585D01*
X133525135Y-89900500D01*
X135314864Y-89900499D01*
X135314879Y-89900497D01*
X135314882Y-89900497D01*
X135339987Y-89897586D01*
X135339988Y-89897585D01*
X135339991Y-89897585D01*
X135442765Y-89852206D01*
X135522206Y-89772765D01*
X135567585Y-89669991D01*
X135570500Y-89644865D01*
X135570499Y-87855136D01*
X135570497Y-87855117D01*
X135567586Y-87830012D01*
X135567585Y-87830010D01*
X135567585Y-87830009D01*
X135522206Y-87727235D01*
X135442765Y-87647794D01*
X135422124Y-87638680D01*
X135339992Y-87602415D01*
X135314865Y-87599500D01*
X133525143Y-87599500D01*
X133525117Y-87599502D01*
X133500012Y-87602413D01*
X133500008Y-87602415D01*
X133397235Y-87647793D01*
X133317794Y-87727234D01*
X133272415Y-87830006D01*
X133272415Y-87830008D01*
X133269500Y-87855131D01*
X133269500Y-88593951D01*
X133249815Y-88660990D01*
X133197011Y-88706745D01*
X133127853Y-88716689D01*
X133064297Y-88687664D01*
X133026523Y-88628886D01*
X133022029Y-88605391D01*
X133015756Y-88537689D01*
X132988812Y-88442993D01*
X132957405Y-88332611D01*
X132957403Y-88332606D01*
X132957403Y-88332605D01*
X132862367Y-88141746D01*
X132733872Y-87971593D01*
X132576302Y-87827948D01*
X132395019Y-87715702D01*
X132395017Y-87715701D01*
X132295608Y-87677190D01*
X132196198Y-87638679D01*
X131986610Y-87599500D01*
X131773390Y-87599500D01*
X131563802Y-87638679D01*
X131563799Y-87638679D01*
X131563799Y-87638680D01*
X131364982Y-87715701D01*
X131364980Y-87715702D01*
X131183699Y-87827947D01*
X131026127Y-87971593D01*
X130897632Y-88141746D01*
X130802596Y-88332605D01*
X130802596Y-88332607D01*
X130744244Y-88537689D01*
X130733471Y-88653951D01*
X130707685Y-88718888D01*
X130663130Y-88750804D01*
X130554622Y-88750804D01*
X130556869Y-88749194D01*
X130520497Y-88728331D01*
X130488307Y-88666318D01*
X130486529Y-88653951D01*
X130480969Y-88593951D01*
X130475756Y-88537690D01*
X130417405Y-88332611D01*
X130417403Y-88332606D01*
X130417403Y-88332605D01*
X130322367Y-88141746D01*
X130193872Y-87971593D01*
X130036302Y-87827948D01*
X129855019Y-87715702D01*
X129855017Y-87715701D01*
X129755608Y-87677190D01*
X129656198Y-87638679D01*
X129446610Y-87599500D01*
X129233390Y-87599500D01*
X129023802Y-87638679D01*
X129023799Y-87638679D01*
X129023799Y-87638680D01*
X128824982Y-87715701D01*
X128824980Y-87715702D01*
X128643699Y-87827947D01*
X128486127Y-87971593D01*
X128357632Y-88141746D01*
X128262596Y-88332605D01*
X128262596Y-88332607D01*
X128204244Y-88537689D01*
X128193471Y-88653951D01*
X128167685Y-88718888D01*
X128123130Y-88750804D01*
X128014622Y-88750804D01*
X128016869Y-88749194D01*
X127980497Y-88728331D01*
X127948307Y-88666318D01*
X127946529Y-88653951D01*
X127940969Y-88593951D01*
X127935756Y-88537690D01*
X127877405Y-88332611D01*
X127877403Y-88332606D01*
X127877403Y-88332605D01*
X127782367Y-88141746D01*
X127653872Y-87971593D01*
X127496302Y-87827948D01*
X127315019Y-87715702D01*
X127315017Y-87715701D01*
X127215608Y-87677190D01*
X127116198Y-87638679D01*
X126906610Y-87599500D01*
X126693390Y-87599500D01*
X126483802Y-87638679D01*
X126483799Y-87638679D01*
X126483799Y-87638680D01*
X126284982Y-87715701D01*
X126284980Y-87715702D01*
X126103699Y-87827947D01*
X125946127Y-87971593D01*
X125817632Y-88141746D01*
X125722596Y-88332605D01*
X125722596Y-88332607D01*
X125664244Y-88537689D01*
X125653471Y-88653951D01*
X125627685Y-88718888D01*
X125583130Y-88750804D01*
X125474622Y-88750804D01*
X125476869Y-88749194D01*
X125440497Y-88728331D01*
X125408307Y-88666318D01*
X125406529Y-88653951D01*
X125400969Y-88593951D01*
X125395756Y-88537690D01*
X125337405Y-88332611D01*
X125337403Y-88332606D01*
X125337403Y-88332605D01*
X125242367Y-88141746D01*
X125113872Y-87971593D01*
X124956302Y-87827948D01*
X124775019Y-87715702D01*
X124775017Y-87715701D01*
X124675608Y-87677190D01*
X124576198Y-87638679D01*
X124366610Y-87599500D01*
X124153390Y-87599500D01*
X123943802Y-87638679D01*
X123943799Y-87638679D01*
X123943799Y-87638680D01*
X123744982Y-87715701D01*
X123744980Y-87715702D01*
X123563699Y-87827947D01*
X123406127Y-87971593D01*
X123277632Y-88141746D01*
X123182596Y-88332605D01*
X123182596Y-88332607D01*
X123124244Y-88537689D01*
X123113471Y-88653951D01*
X123087685Y-88718888D01*
X123043130Y-88750804D01*
X122934622Y-88750804D01*
X122936869Y-88749194D01*
X122900497Y-88728331D01*
X122868307Y-88666318D01*
X122866529Y-88653951D01*
X122860969Y-88593951D01*
X122855756Y-88537690D01*
X122797405Y-88332611D01*
X122797403Y-88332606D01*
X122797403Y-88332605D01*
X122702367Y-88141746D01*
X122573872Y-87971593D01*
X122416302Y-87827948D01*
X122235019Y-87715702D01*
X122235017Y-87715701D01*
X122135608Y-87677190D01*
X122036198Y-87638679D01*
X121826610Y-87599500D01*
X121613390Y-87599500D01*
X121403802Y-87638679D01*
X121403799Y-87638679D01*
X121403799Y-87638680D01*
X121204982Y-87715701D01*
X121204980Y-87715702D01*
X121023699Y-87827947D01*
X120866127Y-87971593D01*
X120737632Y-88141746D01*
X120642596Y-88332605D01*
X120642596Y-88332607D01*
X120584244Y-88537689D01*
X120573471Y-88653951D01*
X120547685Y-88718888D01*
X120503130Y-88750804D01*
X120394622Y-88750804D01*
X120396869Y-88749194D01*
X120360497Y-88728331D01*
X120328307Y-88666318D01*
X120326529Y-88653951D01*
X120320969Y-88593951D01*
X120315756Y-88537690D01*
X120257405Y-88332611D01*
X120257403Y-88332606D01*
X120257403Y-88332605D01*
X120162367Y-88141746D01*
X120033872Y-87971593D01*
X119876302Y-87827948D01*
X119695019Y-87715702D01*
X119695017Y-87715701D01*
X119595608Y-87677190D01*
X119496198Y-87638679D01*
X119286610Y-87599500D01*
X119073390Y-87599500D01*
X118863802Y-87638679D01*
X118863799Y-87638679D01*
X118863799Y-87638680D01*
X118664982Y-87715701D01*
X118664980Y-87715702D01*
X118483699Y-87827947D01*
X118326127Y-87971593D01*
X118197632Y-88141746D01*
X118102596Y-88332605D01*
X118102596Y-88332607D01*
X118044244Y-88537689D01*
X118033471Y-88653951D01*
X118007685Y-88718888D01*
X117963130Y-88750804D01*
X117854622Y-88750804D01*
X117856869Y-88749194D01*
X117820497Y-88728331D01*
X117788307Y-88666318D01*
X117786529Y-88653951D01*
X117780969Y-88593951D01*
X117775756Y-88537690D01*
X117717405Y-88332611D01*
X117717403Y-88332606D01*
X117717403Y-88332605D01*
X117622367Y-88141746D01*
X117493872Y-87971593D01*
X117336302Y-87827948D01*
X117155019Y-87715702D01*
X117155017Y-87715701D01*
X117055608Y-87677190D01*
X116956198Y-87638679D01*
X116746610Y-87599500D01*
X116533390Y-87599500D01*
X116323802Y-87638679D01*
X116323799Y-87638679D01*
X116323799Y-87638680D01*
X116124982Y-87715701D01*
X116124980Y-87715702D01*
X115943699Y-87827947D01*
X115786127Y-87971593D01*
X115657632Y-88141746D01*
X115562596Y-88332605D01*
X115562596Y-88332607D01*
X115504244Y-88537689D01*
X115493471Y-88653951D01*
X115467685Y-88718888D01*
X115423130Y-88750804D01*
X115314622Y-88750804D01*
X115316869Y-88749194D01*
X115280497Y-88728331D01*
X115248307Y-88666318D01*
X115246529Y-88653951D01*
X115240969Y-88593951D01*
X115235756Y-88537690D01*
X115177405Y-88332611D01*
X115177403Y-88332606D01*
X115177403Y-88332605D01*
X115082367Y-88141746D01*
X114953872Y-87971593D01*
X114796302Y-87827948D01*
X114615019Y-87715702D01*
X114615017Y-87715701D01*
X114515608Y-87677190D01*
X114416198Y-87638679D01*
X114206610Y-87599500D01*
X113993390Y-87599500D01*
X113783802Y-87638679D01*
X113783799Y-87638679D01*
X113783799Y-87638680D01*
X113584982Y-87715701D01*
X113584980Y-87715702D01*
X113403699Y-87827947D01*
X113246127Y-87971593D01*
X113117632Y-88141746D01*
X113022596Y-88332605D01*
X113022596Y-88332607D01*
X112964244Y-88537689D01*
X112953471Y-88653951D01*
X112927685Y-88718888D01*
X112883130Y-88750804D01*
X112774622Y-88750804D01*
X112776869Y-88749194D01*
X112740497Y-88728331D01*
X112708307Y-88666318D01*
X112706529Y-88653951D01*
X112700969Y-88593951D01*
X112695756Y-88537690D01*
X112637405Y-88332611D01*
X112637403Y-88332606D01*
X112637403Y-88332605D01*
X112542367Y-88141746D01*
X112413872Y-87971593D01*
X112256302Y-87827948D01*
X112075019Y-87715702D01*
X112075017Y-87715701D01*
X111975608Y-87677190D01*
X111876198Y-87638679D01*
X111666610Y-87599500D01*
X111453390Y-87599500D01*
X111243802Y-87638679D01*
X111243799Y-87638679D01*
X111243799Y-87638680D01*
X111044982Y-87715701D01*
X111044980Y-87715702D01*
X110863699Y-87827947D01*
X110706127Y-87971593D01*
X110577632Y-88141746D01*
X110482596Y-88332605D01*
X110482596Y-88332607D01*
X110424244Y-88537689D01*
X110413471Y-88653951D01*
X110387685Y-88718888D01*
X110343130Y-88750804D01*
X110234622Y-88750804D01*
X110236869Y-88749194D01*
X110200497Y-88728331D01*
X110168307Y-88666318D01*
X110166529Y-88653951D01*
X110160969Y-88593951D01*
X110155756Y-88537690D01*
X110097405Y-88332611D01*
X110097403Y-88332606D01*
X110097403Y-88332605D01*
X110002367Y-88141746D01*
X109873872Y-87971593D01*
X109716302Y-87827948D01*
X109535019Y-87715702D01*
X109535017Y-87715701D01*
X109435608Y-87677190D01*
X109336198Y-87638679D01*
X109126610Y-87599500D01*
X108913390Y-87599500D01*
X108703802Y-87638679D01*
X108703799Y-87638679D01*
X108703799Y-87638680D01*
X108504982Y-87715701D01*
X108504980Y-87715702D01*
X108323699Y-87827947D01*
X108166127Y-87971593D01*
X108037632Y-88141746D01*
X107942596Y-88332605D01*
X107942596Y-88332607D01*
X107884244Y-88537689D01*
X107873471Y-88653951D01*
X107847685Y-88718888D01*
X107803130Y-88750804D01*
X107694622Y-88750804D01*
X107696869Y-88749194D01*
X107660497Y-88728331D01*
X107628307Y-88666318D01*
X107626529Y-88653951D01*
X107620969Y-88593951D01*
X107615756Y-88537690D01*
X107557405Y-88332611D01*
X107557403Y-88332606D01*
X107557403Y-88332605D01*
X107462367Y-88141746D01*
X107333872Y-87971593D01*
X107176302Y-87827948D01*
X106995019Y-87715702D01*
X106995017Y-87715701D01*
X106895608Y-87677190D01*
X106796198Y-87638679D01*
X106586610Y-87599500D01*
X106373390Y-87599500D01*
X106163802Y-87638679D01*
X106163799Y-87638679D01*
X106163799Y-87638680D01*
X105964982Y-87715701D01*
X105964980Y-87715702D01*
X105783699Y-87827947D01*
X105626127Y-87971593D01*
X105497634Y-88141744D01*
X105430676Y-88276215D01*
X105383173Y-88327452D01*
X105315510Y-88344873D01*
X105249170Y-88322947D01*
X105207294Y-88273348D01*
X105113600Y-88072422D01*
X105113599Y-88072420D01*
X104978113Y-87878926D01*
X104978108Y-87878920D01*
X104811082Y-87711894D01*
X104617578Y-87576399D01*
X104403492Y-87476570D01*
X104403486Y-87476567D01*
X104190000Y-87419364D01*
X104190000Y-88316988D01*
X104132993Y-88284075D01*
X104005826Y-88250000D01*
X103874174Y-88250000D01*
X103747007Y-88284075D01*
X103690000Y-88316988D01*
X103690000Y-87419364D01*
X103689999Y-87419364D01*
X103476513Y-87476567D01*
X103476507Y-87476570D01*
X103262422Y-87576399D01*
X103262420Y-87576400D01*
X103068926Y-87711886D01*
X103068920Y-87711891D01*
X102901891Y-87878920D01*
X102901886Y-87878926D01*
X102766400Y-88072420D01*
X102766399Y-88072422D01*
X102672705Y-88273348D01*
X102626532Y-88325787D01*
X102559339Y-88344939D01*
X102492457Y-88324723D01*
X102449323Y-88276215D01*
X102382366Y-88141745D01*
X102253872Y-87971593D01*
X102096302Y-87827948D01*
X101915019Y-87715702D01*
X101915017Y-87715701D01*
X101815608Y-87677190D01*
X101716198Y-87638679D01*
X101506610Y-87599500D01*
X101293390Y-87599500D01*
X101083802Y-87638679D01*
X101083799Y-87638679D01*
X101083799Y-87638680D01*
X100884982Y-87715701D01*
X100884980Y-87715702D01*
X100703699Y-87827947D01*
X100546127Y-87971593D01*
X100417632Y-88141746D01*
X100322596Y-88332605D01*
X100322596Y-88332607D01*
X100264244Y-88537689D01*
X100253471Y-88653951D01*
X100227685Y-88718888D01*
X100183130Y-88750804D01*
X100074622Y-88750804D01*
X100076869Y-88749194D01*
X100040497Y-88728331D01*
X100008307Y-88666318D01*
X100006529Y-88653951D01*
X100000969Y-88593951D01*
X99995756Y-88537690D01*
X99937405Y-88332611D01*
X99937403Y-88332606D01*
X99937403Y-88332605D01*
X99842367Y-88141746D01*
X99713872Y-87971593D01*
X99556302Y-87827948D01*
X99375019Y-87715702D01*
X99375017Y-87715701D01*
X99275608Y-87677190D01*
X99176198Y-87638679D01*
X98966610Y-87599500D01*
X98753390Y-87599500D01*
X98543802Y-87638679D01*
X98543799Y-87638679D01*
X98543799Y-87638680D01*
X98344982Y-87715701D01*
X98344980Y-87715702D01*
X98163699Y-87827947D01*
X98006127Y-87971593D01*
X97877632Y-88141746D01*
X97782596Y-88332605D01*
X97782596Y-88332607D01*
X97724244Y-88537689D01*
X97713471Y-88653951D01*
X97687685Y-88718888D01*
X97643130Y-88750804D01*
X97534622Y-88750804D01*
X97536869Y-88749194D01*
X97500497Y-88728331D01*
X97468307Y-88666318D01*
X97466529Y-88653951D01*
X97460969Y-88593951D01*
X97455756Y-88537690D01*
X97397405Y-88332611D01*
X97397403Y-88332606D01*
X97397403Y-88332605D01*
X97302367Y-88141746D01*
X97173872Y-87971593D01*
X97016302Y-87827948D01*
X96835019Y-87715702D01*
X96835017Y-87715701D01*
X96735608Y-87677190D01*
X96636198Y-87638679D01*
X96426610Y-87599500D01*
X96213390Y-87599500D01*
X96003802Y-87638679D01*
X96003799Y-87638679D01*
X96003799Y-87638680D01*
X95804982Y-87715701D01*
X95804980Y-87715702D01*
X95623699Y-87827947D01*
X95466127Y-87971593D01*
X95337632Y-88141746D01*
X95242596Y-88332605D01*
X95242596Y-88332607D01*
X95184244Y-88537689D01*
X95173471Y-88653951D01*
X95147685Y-88718888D01*
X95103130Y-88750804D01*
X94994622Y-88750804D01*
X94996869Y-88749194D01*
X94960497Y-88728331D01*
X94928307Y-88666318D01*
X94926529Y-88653951D01*
X94920969Y-88593951D01*
X94915756Y-88537690D01*
X94857405Y-88332611D01*
X94857403Y-88332606D01*
X94857403Y-88332605D01*
X94762367Y-88141746D01*
X94633872Y-87971593D01*
X94476302Y-87827948D01*
X94295019Y-87715702D01*
X94295017Y-87715701D01*
X94195608Y-87677190D01*
X94096198Y-87638679D01*
X93886610Y-87599500D01*
X93673390Y-87599500D01*
X93463802Y-87638679D01*
X93463799Y-87638679D01*
X93463799Y-87638680D01*
X93264982Y-87715701D01*
X93264980Y-87715702D01*
X93083699Y-87827947D01*
X92926127Y-87971593D01*
X92797632Y-88141746D01*
X92702596Y-88332605D01*
X92702596Y-88332607D01*
X92644244Y-88537689D01*
X92633471Y-88653951D01*
X92607685Y-88718888D01*
X92563130Y-88750804D01*
X92454622Y-88750804D01*
X92456869Y-88749194D01*
X92420497Y-88728331D01*
X92388307Y-88666318D01*
X92386529Y-88653951D01*
X92380969Y-88593951D01*
X92375756Y-88537690D01*
X92317405Y-88332611D01*
X92317403Y-88332606D01*
X92317403Y-88332605D01*
X92222367Y-88141746D01*
X92093872Y-87971593D01*
X91936302Y-87827948D01*
X91755019Y-87715702D01*
X91755017Y-87715701D01*
X91655608Y-87677190D01*
X91556198Y-87638679D01*
X91346610Y-87599500D01*
X91133390Y-87599500D01*
X90923802Y-87638679D01*
X90923799Y-87638679D01*
X90923799Y-87638680D01*
X90724982Y-87715701D01*
X90724980Y-87715702D01*
X90543699Y-87827947D01*
X90386127Y-87971593D01*
X90257634Y-88141744D01*
X90190676Y-88276215D01*
X90143173Y-88327452D01*
X90075510Y-88344873D01*
X90009170Y-88322947D01*
X89967294Y-88273348D01*
X89873600Y-88072422D01*
X89873599Y-88072420D01*
X89738113Y-87878926D01*
X89738108Y-87878920D01*
X89571082Y-87711894D01*
X89377578Y-87576399D01*
X89163492Y-87476570D01*
X89163486Y-87476567D01*
X88950000Y-87419364D01*
X88950000Y-88316988D01*
X88892993Y-88284075D01*
X88765826Y-88250000D01*
X88634174Y-88250000D01*
X88507007Y-88284075D01*
X88450000Y-88316988D01*
X88450000Y-87419364D01*
X88449999Y-87419364D01*
X88236513Y-87476567D01*
X88236507Y-87476570D01*
X88022422Y-87576399D01*
X88022420Y-87576400D01*
X87828926Y-87711886D01*
X87828920Y-87711891D01*
X87661891Y-87878920D01*
X87661886Y-87878926D01*
X87526400Y-88072420D01*
X87526399Y-88072422D01*
X87426570Y-88286507D01*
X87426567Y-88286513D01*
X87369364Y-88499999D01*
X85778525Y-88499999D01*
X87941705Y-86336819D01*
X88003028Y-86303334D01*
X88029386Y-86300500D01*
X100672472Y-86300500D01*
X100672474Y-86300500D01*
X100672475Y-86300500D01*
X100812485Y-86262984D01*
X100938015Y-86190510D01*
X101440510Y-85688015D01*
X101512984Y-85562485D01*
X101518406Y-85542250D01*
X101530086Y-85498663D01*
X101537557Y-85470776D01*
X101550500Y-85422475D01*
X101550500Y-84731360D01*
X101570185Y-84664321D01*
X101595833Y-84635508D01*
X101754936Y-84504936D01*
X101887711Y-84343150D01*
X101986372Y-84158569D01*
X102035339Y-83997144D01*
X102073637Y-83938706D01*
X102137449Y-83910250D01*
X102206516Y-83920810D01*
X102258910Y-83967034D01*
X102278000Y-84033140D01*
X102278000Y-84559844D01*
X102284401Y-84619372D01*
X102284403Y-84619379D01*
X102334645Y-84754086D01*
X102334649Y-84754093D01*
X102420809Y-84869187D01*
X102420812Y-84869190D01*
X102535906Y-84955350D01*
X102535913Y-84955354D01*
X102670620Y-85005596D01*
X102670627Y-85005598D01*
X102730155Y-85011999D01*
X102730172Y-85012000D01*
X103290000Y-85012000D01*
X103290000Y-84038816D01*
X103306060Y-84054876D01*
X103392939Y-84105036D01*
X103489840Y-84131000D01*
X103590160Y-84131000D01*
X103687061Y-84105036D01*
X103773940Y-84054876D01*
X103790000Y-84038816D01*
X103790000Y-85012000D01*
X104349828Y-85012000D01*
X104349844Y-85011999D01*
X104409372Y-85005598D01*
X104409379Y-85005596D01*
X104544086Y-84955354D01*
X104544093Y-84955350D01*
X104659187Y-84869190D01*
X104659190Y-84869187D01*
X104745350Y-84754093D01*
X104745354Y-84754086D01*
X104795596Y-84619379D01*
X104795598Y-84619372D01*
X104801999Y-84559844D01*
X104802000Y-84559827D01*
X104802000Y-84000000D01*
X103828816Y-84000000D01*
X103844876Y-83983940D01*
X103895036Y-83897061D01*
X103921000Y-83800160D01*
X103921000Y-83699840D01*
X103895036Y-83602939D01*
X103844876Y-83516060D01*
X103828816Y-83500000D01*
X104802000Y-83500000D01*
X104802000Y-82940172D01*
X104801999Y-82940155D01*
X104795598Y-82880627D01*
X104795596Y-82880620D01*
X104745354Y-82745913D01*
X104745350Y-82745906D01*
X104659190Y-82630812D01*
X104659187Y-82630809D01*
X104544093Y-82544649D01*
X104544086Y-82544645D01*
X104409379Y-82494403D01*
X104409372Y-82494401D01*
X104349844Y-82488000D01*
X103790000Y-82488000D01*
X103790000Y-83461184D01*
X103773940Y-83445124D01*
X103687061Y-83394964D01*
X103590160Y-83369000D01*
X103489840Y-83369000D01*
X103392939Y-83394964D01*
X103306060Y-83445124D01*
X103290000Y-83461184D01*
X103290000Y-82488000D01*
X102730155Y-82488000D01*
X102670627Y-82494401D01*
X102670620Y-82494403D01*
X102535913Y-82544645D01*
X102535906Y-82544649D01*
X102420812Y-82630809D01*
X102420809Y-82630812D01*
X102334649Y-82745906D01*
X102334645Y-82745913D01*
X102284403Y-82880620D01*
X102284401Y-82880627D01*
X102278000Y-82940155D01*
X102278000Y-83466859D01*
X102258315Y-83533898D01*
X102205511Y-83579653D01*
X102136353Y-83589597D01*
X102072797Y-83560572D01*
X102035339Y-83502855D01*
X102034473Y-83500000D01*
X101986372Y-83341431D01*
X101887711Y-83156850D01*
X101887708Y-83156846D01*
X101754936Y-82995063D01*
X101593153Y-82862291D01*
X101593151Y-82862290D01*
X101593150Y-82862289D01*
X101408569Y-82763628D01*
X101308427Y-82733250D01*
X101208284Y-82702872D01*
X101000000Y-82682359D01*
X100791715Y-82702872D01*
X100591428Y-82763629D01*
X100406846Y-82862291D01*
X100245063Y-82995063D01*
X100112291Y-83156846D01*
X100013629Y-83341428D01*
X99952872Y-83541715D01*
X99932359Y-83750000D01*
X99952872Y-83958284D01*
X100013629Y-84158571D01*
X100112291Y-84343153D01*
X100245063Y-84504936D01*
X100311969Y-84559844D01*
X100404165Y-84635508D01*
X100443499Y-84693252D01*
X100449500Y-84731360D01*
X100449500Y-85070613D01*
X100429815Y-85137652D01*
X100413181Y-85158294D01*
X100408294Y-85163181D01*
X100346971Y-85196666D01*
X100320613Y-85199500D01*
X87677525Y-85199500D01*
X87593519Y-85222009D01*
X87537513Y-85237016D01*
X87537512Y-85237017D01*
X87411989Y-85309487D01*
X87411984Y-85309491D01*
X81809491Y-90911983D01*
X81809489Y-90911986D01*
X81737645Y-91036426D01*
X81737017Y-91037513D01*
X81737016Y-91037514D01*
X81737016Y-91037515D01*
X81699500Y-91177525D01*
X80125502Y-91177525D01*
X80125502Y-86270500D01*
X80145187Y-86203461D01*
X80197991Y-86157706D01*
X80267149Y-86147762D01*
X80330705Y-86176787D01*
X80356890Y-86208502D01*
X80364291Y-86221322D01*
X80572969Y-86501625D01*
X80581150Y-86510296D01*
X81435448Y-85655999D01*
X81496771Y-85622514D01*
X81566463Y-85627498D01*
X81620075Y-85666366D01*
X81651260Y-85705471D01*
X81786074Y-85830559D01*
X81821829Y-85890588D01*
X81819454Y-85960417D01*
X81789414Y-86009139D01*
X80937820Y-86860732D01*
X80937821Y-86860734D01*
X81080486Y-86980445D01*
X81372463Y-87172480D01*
X81684741Y-87329314D01*
X81684747Y-87329316D01*
X82013132Y-87448838D01*
X82013135Y-87448839D01*
X82353173Y-87529429D01*
X82700278Y-87569999D01*
X82700279Y-87570000D01*
X83049725Y-87570000D01*
X83049725Y-87569999D01*
X83396829Y-87529429D01*
X83396831Y-87529429D01*
X83736868Y-87448839D01*
X83736871Y-87448838D01*
X84065256Y-87329316D01*
X84065262Y-87329314D01*
X84377540Y-87172480D01*
X84669511Y-86980449D01*
X84669512Y-86980448D01*
X84812181Y-86860734D01*
X84812182Y-86860733D01*
X83960589Y-86009140D01*
X83927104Y-85947817D01*
X83932088Y-85878125D01*
X83963929Y-85830560D01*
X84002740Y-85794548D01*
X84098746Y-85705468D01*
X84129926Y-85666368D01*
X84187114Y-85626228D01*
X84256926Y-85623378D01*
X84314555Y-85656000D01*
X85168852Y-86510297D01*
X85168853Y-86510296D01*
X85177024Y-86501636D01*
X85177035Y-86501623D01*
X85385712Y-86221322D01*
X85560440Y-85918683D01*
X85560446Y-85918670D01*
X85698856Y-85597800D01*
X85799085Y-85263011D01*
X85799087Y-85263002D01*
X85859765Y-84918880D01*
X85859766Y-84918869D01*
X85880086Y-84570003D01*
X85880086Y-84569996D01*
X85859766Y-84221130D01*
X85859765Y-84221119D01*
X85799087Y-83876997D01*
X85799085Y-83876988D01*
X85761067Y-83750000D01*
X94852359Y-83750000D01*
X94872872Y-83958284D01*
X94933629Y-84158571D01*
X95032291Y-84343153D01*
X95165063Y-84504936D01*
X95324164Y-84635507D01*
X95326850Y-84637711D01*
X95511431Y-84736372D01*
X95711714Y-84797127D01*
X95920000Y-84817641D01*
X96128286Y-84797127D01*
X96328569Y-84736372D01*
X96513150Y-84637711D01*
X96674936Y-84504936D01*
X96807711Y-84343150D01*
X96906372Y-84158569D01*
X96967127Y-83958286D01*
X96987641Y-83750000D01*
X97392359Y-83750000D01*
X97412872Y-83958284D01*
X97473629Y-84158571D01*
X97572291Y-84343153D01*
X97705063Y-84504936D01*
X97864164Y-84635507D01*
X97866850Y-84637711D01*
X98051431Y-84736372D01*
X98251714Y-84797127D01*
X98460000Y-84817641D01*
X98668286Y-84797127D01*
X98868569Y-84736372D01*
X99053150Y-84637711D01*
X99214936Y-84504936D01*
X99347711Y-84343150D01*
X99446372Y-84158569D01*
X99507127Y-83958286D01*
X99527641Y-83750000D01*
X99507127Y-83541714D01*
X99446372Y-83341431D01*
X99347711Y-83156850D01*
X99347708Y-83156846D01*
X99214936Y-82995063D01*
X99053153Y-82862291D01*
X99053151Y-82862290D01*
X99053150Y-82862289D01*
X98868569Y-82763628D01*
X98768427Y-82733250D01*
X98668284Y-82702872D01*
X98460000Y-82682359D01*
X98251715Y-82702872D01*
X98051428Y-82763629D01*
X97866846Y-82862291D01*
X97705063Y-82995063D01*
X97572291Y-83156846D01*
X97473629Y-83341428D01*
X97412872Y-83541715D01*
X97392359Y-83750000D01*
X96987641Y-83750000D01*
X96967127Y-83541714D01*
X96906372Y-83341431D01*
X96807711Y-83156850D01*
X96807708Y-83156846D01*
X96674936Y-82995063D01*
X96513153Y-82862291D01*
X96513151Y-82862290D01*
X96513150Y-82862289D01*
X96328569Y-82763628D01*
X96228427Y-82733250D01*
X96128284Y-82702872D01*
X95920000Y-82682359D01*
X95711715Y-82702872D01*
X95511428Y-82763629D01*
X95326846Y-82862291D01*
X95165063Y-82995063D01*
X95032291Y-83156846D01*
X94933629Y-83341428D01*
X94872872Y-83541715D01*
X94852359Y-83750000D01*
X85761067Y-83750000D01*
X85698856Y-83542199D01*
X85560446Y-83221329D01*
X85560440Y-83221316D01*
X85385712Y-82918677D01*
X85177034Y-82638374D01*
X85168852Y-82629702D01*
X84314554Y-83483999D01*
X84253231Y-83517484D01*
X84183539Y-83512500D01*
X84129926Y-83473631D01*
X84098742Y-83434527D01*
X83963928Y-83309439D01*
X83928173Y-83249410D01*
X83930548Y-83179581D01*
X83960588Y-83130859D01*
X84812182Y-82279265D01*
X84812181Y-82279264D01*
X84669516Y-82159553D01*
X84500060Y-82048100D01*
X84454866Y-81994815D01*
X84445655Y-81925556D01*
X84475350Y-81862311D01*
X84534525Y-81825160D01*
X84568199Y-81820500D01*
X140181805Y-81820500D01*
X140248844Y-81840185D01*
G37*
%TD.AperFunction*%
%TD*%
M02*
