%TF.GenerationSoftware,KiCad,Pcbnew,8.0.4*%
%TF.CreationDate,2024-08-01T02:57:42-04:00*%
%TF.ProjectId,esp32-node-board-40x65_telemetry,65737033-322d-46e6-9f64-652d626f6172,rev?*%
%TF.SameCoordinates,Original*%
%TF.FileFunction,Copper,L1,Top*%
%TF.FilePolarity,Positive*%
%FSLAX46Y46*%
G04 Gerber Fmt 4.6, Leading zero omitted, Abs format (unit mm)*
G04 Created by KiCad (PCBNEW 8.0.4) date 2024-08-01 02:57:42*
%MOMM*%
%LPD*%
G01*
G04 APERTURE LIST*
G04 Aperture macros list*
%AMRoundRect*
0 Rectangle with rounded corners*
0 $1 Rounding radius*
0 $2 $3 $4 $5 $6 $7 $8 $9 X,Y pos of 4 corners*
0 Add a 4 corners polygon primitive as box body*
4,1,4,$2,$3,$4,$5,$6,$7,$8,$9,$2,$3,0*
0 Add four circle primitives for the rounded corners*
1,1,$1+$1,$2,$3*
1,1,$1+$1,$4,$5*
1,1,$1+$1,$6,$7*
1,1,$1+$1,$8,$9*
0 Add four rect primitives between the rounded corners*
20,1,$1+$1,$2,$3,$4,$5,0*
20,1,$1+$1,$4,$5,$6,$7,0*
20,1,$1+$1,$6,$7,$8,$9,0*
20,1,$1+$1,$8,$9,$2,$3,0*%
G04 Aperture macros list end*
%TA.AperFunction,ComponentPad*%
%ADD10O,1.700000X1.700000*%
%TD*%
%TA.AperFunction,ComponentPad*%
%ADD11R,1.200000X1.200000*%
%TD*%
%TA.AperFunction,ComponentPad*%
%ADD12C,1.200000*%
%TD*%
%TA.AperFunction,SMDPad,CuDef*%
%ADD13O,1.701800X1.092200*%
%TD*%
%TA.AperFunction,SMDPad,CuDef*%
%ADD14R,1.193800X0.711200*%
%TD*%
%TA.AperFunction,SMDPad,CuDef*%
%ADD15R,1.193800X0.762000*%
%TD*%
%TA.AperFunction,SMDPad,CuDef*%
%ADD16R,1.193800X0.812800*%
%TD*%
%TA.AperFunction,ComponentPad*%
%ADD17C,5.000000*%
%TD*%
%TA.AperFunction,ComponentPad*%
%ADD18R,1.524000X1.524000*%
%TD*%
%TA.AperFunction,ComponentPad*%
%ADD19C,1.524000*%
%TD*%
%TA.AperFunction,SMDPad,CuDef*%
%ADD20RoundRect,0.250000X-0.450000X0.350000X-0.450000X-0.350000X0.450000X-0.350000X0.450000X0.350000X0*%
%TD*%
%TA.AperFunction,ComponentPad*%
%ADD21R,1.700000X1.700000*%
%TD*%
%TA.AperFunction,SMDPad,CuDef*%
%ADD22RoundRect,0.250000X-1.075000X0.375000X-1.075000X-0.375000X1.075000X-0.375000X1.075000X0.375000X0*%
%TD*%
%TA.AperFunction,ComponentPad*%
%ADD23R,1.500000X1.500000*%
%TD*%
%TA.AperFunction,ComponentPad*%
%ADD24C,1.600000*%
%TD*%
%TA.AperFunction,SMDPad,CuDef*%
%ADD25RoundRect,0.250000X0.450000X-0.350000X0.450000X0.350000X-0.450000X0.350000X-0.450000X-0.350000X0*%
%TD*%
%TA.AperFunction,SMDPad,CuDef*%
%ADD26RoundRect,0.375000X0.375000X-0.625000X0.375000X0.625000X-0.375000X0.625000X-0.375000X-0.625000X0*%
%TD*%
%TA.AperFunction,SMDPad,CuDef*%
%ADD27RoundRect,0.500000X1.400000X-0.500000X1.400000X0.500000X-1.400000X0.500000X-1.400000X-0.500000X0*%
%TD*%
%TA.AperFunction,ViaPad*%
%ADD28C,0.800000*%
%TD*%
%TA.AperFunction,Conductor*%
%ADD29C,0.250000*%
%TD*%
%TA.AperFunction,Conductor*%
%ADD30C,0.500000*%
%TD*%
%TA.AperFunction,Conductor*%
%ADD31C,0.800000*%
%TD*%
%TA.AperFunction,Conductor*%
%ADD32C,0.300000*%
%TD*%
G04 APERTURE END LIST*
D10*
%TO.P,J16,BUSY,BUSY*%
%TO.N,unconnected-(J16-PadBUSY)*%
X131940000Y-84050000D03*
%TO.P,J16,CLK,CLK*%
%TO.N,unconnected-(J16-PadCLK)*%
X121780000Y-84050000D03*
%TO.P,J16,CS,CS*%
%TO.N,unconnected-(J16-PadCS)*%
X124320000Y-84050000D03*
%TO.P,J16,DC,DC*%
%TO.N,unconnected-(J16-PadDC)*%
X126860000Y-84050000D03*
%TO.P,J16,DIN,DIN*%
%TO.N,unconnected-(J16-PadDIN)*%
X119240000Y-84050000D03*
%TO.P,J16,GND,GND*%
%TO.N,unconnected-(J16-PadGND)*%
X116700000Y-84050000D03*
%TO.P,J16,RST,RST*%
%TO.N,unconnected-(J16-PadRST)*%
X129400000Y-84050000D03*
%TO.P,J16,Vcc,Vcc*%
%TO.N,unconnected-(J16-PadVcc)*%
X114160000Y-84050000D03*
%TD*%
D11*
%TO.P,C2,1*%
%TO.N,+5V*%
X129427401Y-105850000D03*
D12*
%TO.P,C2,2*%
%TO.N,GND*%
X131427401Y-105850000D03*
%TD*%
D13*
%TO.P,J8,7*%
%TO.N,N/C*%
X139045600Y-100970000D03*
%TO.P,J8,8*%
X139045600Y-92330000D03*
%TO.P,J8,9*%
X142845599Y-100970000D03*
%TO.P,J8,10*%
X142845599Y-92330000D03*
D14*
%TO.P,J8,A5,CC1*%
%TO.N,Net-(J8-CC1)*%
X138965599Y-97149999D03*
D15*
%TO.P,J8,A9,VBUS1*%
%TO.N,/USB-Terminal/VBUS*%
X138965599Y-95130000D03*
D16*
%TO.P,J8,A12,GND1*%
%TO.N,GND*%
X138965599Y-93900000D03*
D14*
%TO.P,J8,B5,CC2*%
%TO.N,Net-(J8-CC2)*%
X138965599Y-96150001D03*
D15*
%TO.P,J8,B9,VBUS2*%
%TO.N,/USB-Terminal/VBUS*%
X138965716Y-98169936D03*
D16*
%TO.P,J8,B12,GND2*%
%TO.N,GND*%
X138965716Y-99399936D03*
%TD*%
D17*
%TO.P,H1,1,GND*%
%TO.N,GND*%
X82800000Y-84550000D03*
%TO.P,H1,2,GND*%
X82800000Y-118550000D03*
%TO.P,H1,3,GND*%
X141800000Y-118550000D03*
%TO.P,H1,4,GND*%
X141800000Y-84550000D03*
%TD*%
D11*
%TO.P,C1,1*%
%TO.N,/VIN*%
X136700000Y-104904801D03*
D12*
%TO.P,C1,2*%
%TO.N,GND*%
X136700000Y-106904801D03*
%TD*%
D18*
%TO.P,J3,GND,GND*%
%TO.N,GND*%
X101520000Y-83750000D03*
D19*
%TO.P,J3,SCL,SCL*%
%TO.N,/SCL-2*%
X93900000Y-83750000D03*
%TO.P,J3,SDA,SDA*%
%TO.N,/SDA-2*%
X96440000Y-83750000D03*
%TO.P,J3,Vcc,VCC*%
%TO.N,+3V3*%
X98980000Y-83750000D03*
%TD*%
D20*
%TO.P,R7,1*%
%TO.N,GND*%
X135200000Y-92250000D03*
%TO.P,R7,2*%
%TO.N,Net-(J8-CC2)*%
X135200000Y-94250000D03*
%TD*%
D21*
%TO.P,J6,1,CLK*%
%TO.N,unconnected-(J6-CLK-Pad1)*%
X134420000Y-88750000D03*
D10*
%TO.P,J6,2,D0*%
%TO.N,unconnected-(J6-D0-Pad2)*%
X131880000Y-88750000D03*
%TO.P,J6,3,D1*%
%TO.N,unconnected-(J6-D1-Pad3)*%
X129340000Y-88750000D03*
%TO.P,J6,4,15*%
%TO.N,unconnected-(J6-15-Pad4)*%
X126800000Y-88750000D03*
%TO.P,J6,5,2*%
%TO.N,unconnected-(J6-2-Pad5)*%
X124260000Y-88750000D03*
%TO.P,J6,6,0*%
%TO.N,unconnected-(J6-0-Pad6)*%
X121720000Y-88750000D03*
%TO.P,J6,7,4*%
%TO.N,unconnected-(J6-4-Pad7)*%
X119180000Y-88750000D03*
%TO.P,J6,8,16*%
%TO.N,unconnected-(J6-16-Pad8)*%
X116640000Y-88750000D03*
%TO.P,J6,9,17*%
%TO.N,unconnected-(J6-17-Pad9)*%
X114100000Y-88750000D03*
%TO.P,J6,10,5*%
%TO.N,/SPI-CSB*%
X111560000Y-88750000D03*
%TO.P,J6,11,18*%
%TO.N,/SPI-SCL*%
X109020000Y-88750000D03*
%TO.P,J6,12,19*%
%TO.N,/SPI-SDO*%
X106480000Y-88750000D03*
%TO.P,J6,13,GND*%
%TO.N,GND*%
X103940000Y-88750000D03*
%TO.P,J6,14,21*%
%TO.N,/SDA-2*%
X101400000Y-88750000D03*
%TO.P,J6,15,RX*%
%TO.N,/RX*%
X98860000Y-88750000D03*
%TO.P,J6,16,TX*%
%TO.N,/TX*%
X96320000Y-88750000D03*
%TO.P,J6,17,22*%
%TO.N,/SCL-2*%
X93780000Y-88750000D03*
%TO.P,J6,18,23*%
%TO.N,/SPI-SDA*%
X91240000Y-88750000D03*
%TO.P,J6,19,GND*%
%TO.N,GND*%
X88700000Y-88750000D03*
%TO.P,J6,20,3V3*%
%TO.N,+3V3*%
X88700000Y-114150000D03*
%TO.P,J6,21,EN*%
%TO.N,unconnected-(J6-EN-Pad21)*%
X91240000Y-114150000D03*
%TO.P,J6,22,VN*%
%TO.N,unconnected-(J6-VN-Pad22)*%
X93780000Y-114150000D03*
%TO.P,J6,23,VP*%
%TO.N,unconnected-(J6-VP-Pad23)*%
X96320000Y-114150000D03*
%TO.P,J6,24,34*%
%TO.N,unconnected-(J6-34-Pad24)*%
X98860000Y-114150000D03*
%TO.P,J6,25,35*%
%TO.N,unconnected-(J6-35-Pad25)*%
X101400000Y-114150000D03*
%TO.P,J6,26,32*%
%TO.N,unconnected-(J6-32-Pad26)*%
X103940000Y-114150000D03*
%TO.P,J6,27,33*%
%TO.N,unconnected-(J6-33-Pad27)*%
X106480000Y-114150000D03*
%TO.P,J6,28,25*%
%TO.N,unconnected-(J6-25-Pad28)*%
X109020000Y-114150000D03*
%TO.P,J6,29,26*%
%TO.N,unconnected-(J6-26-Pad29)*%
X111560000Y-114150000D03*
%TO.P,J6,30,27*%
%TO.N,unconnected-(J6-27-Pad30)*%
X114100000Y-114150000D03*
%TO.P,J6,31,14*%
%TO.N,unconnected-(J6-14-Pad31)*%
X116640000Y-114150000D03*
%TO.P,J6,32,12*%
%TO.N,unconnected-(J6-12-Pad32)*%
X119180000Y-114150000D03*
%TO.P,J6,33,GND*%
%TO.N,GND*%
X121720000Y-114150000D03*
%TO.P,J6,34,13*%
%TO.N,unconnected-(J6-13-Pad34)*%
X124260000Y-114150000D03*
%TO.P,J6,35,D2*%
%TO.N,unconnected-(J6-D2-Pad35)*%
X126800000Y-114150000D03*
%TO.P,J6,36,D3*%
%TO.N,unconnected-(J6-D3-Pad36)*%
X129340000Y-114150000D03*
%TO.P,J6,37,CMD*%
%TO.N,unconnected-(J6-CMD-Pad37)*%
X131880000Y-114150000D03*
%TO.P,J6,38,5V*%
%TO.N,+5V*%
X134310000Y-114150000D03*
%TD*%
D21*
%TO.P,J1,1,Pin_1*%
%TO.N,GND*%
X133060000Y-119050000D03*
D10*
%TO.P,J1,2,Pin_2*%
%TO.N,/VDC*%
X135600000Y-119050000D03*
%TD*%
D19*
%TO.P,J5,CSB,CSB*%
%TO.N,/SPI-CSB*%
X84500000Y-97490000D03*
%TO.P,J5,GND,GND*%
%TO.N,GND*%
X84500000Y-105110000D03*
%TO.P,J5,SCL,SCL*%
%TO.N,/SPI-SCL*%
X84500000Y-102570000D03*
%TO.P,J5,SDA,SDA*%
%TO.N,/SPI-SDA*%
X84500000Y-100030000D03*
%TO.P,J5,SDO,SDO*%
%TO.N,/SPI-SDO*%
X84500000Y-94950000D03*
D18*
%TO.P,J5,Vcc,VCC*%
%TO.N,+3V3*%
X84500000Y-107650000D03*
%TD*%
D22*
%TO.P,D1,1,K*%
%TO.N,Net-(D1-K)*%
X138400000Y-109650000D03*
%TO.P,D1,2,A*%
%TO.N,/VDC*%
X138400000Y-112450000D03*
%TD*%
D23*
%TO.P,SW2,1,COM*%
%TO.N,/VIN*%
X142600000Y-107390000D03*
D24*
%TO.P,SW2,2,A*%
%TO.N,/VBUS*%
X142600000Y-104850000D03*
%TO.P,SW2,3,B*%
%TO.N,Net-(D1-K)*%
X142600000Y-109930000D03*
%TD*%
D25*
%TO.P,R1,1*%
%TO.N,Net-(J8-CC1)*%
X132700000Y-94250000D03*
%TO.P,R1,2*%
%TO.N,GND*%
X132700000Y-92250000D03*
%TD*%
D26*
%TO.P,U1,1,GND*%
%TO.N,GND*%
X124700000Y-99800000D03*
%TO.P,U1,2,VO*%
%TO.N,+5V*%
X127000000Y-99800000D03*
D27*
X127000000Y-93500000D03*
D26*
%TO.P,U1,3,VI*%
%TO.N,/VIN*%
X129300000Y-99800000D03*
%TD*%
D28*
%TO.N,/SPI-SCL*%
X107750000Y-92250000D03*
X107750000Y-94750000D03*
%TO.N,/SPI-SDA*%
X91140000Y-93250000D03*
X89000000Y-98500000D03*
%TD*%
D29*
%TO.N,Net-(J8-CC1)*%
X133599999Y-97149999D02*
X138965599Y-97149999D01*
X132700000Y-94250000D02*
X132700000Y-96250000D01*
X132700000Y-96250000D02*
X133599999Y-97149999D01*
D30*
%TO.N,+3V3*%
X98000000Y-85750000D02*
X98980000Y-84770000D01*
X87750000Y-85750000D02*
X98000000Y-85750000D01*
X82250000Y-91250000D02*
X87750000Y-85750000D01*
X82250000Y-110000000D02*
X82250000Y-91250000D01*
X85250000Y-113000000D02*
X82250000Y-110000000D01*
X98980000Y-84770000D02*
X98980000Y-83750000D01*
D29*
%TO.N,unconnected-(J16-PadCS)*%
X124472901Y-83782799D02*
X123532799Y-83782799D01*
X123532799Y-83782799D02*
X123500000Y-83750000D01*
D30*
%TO.N,+3V3*%
X84500000Y-107660000D02*
X84500000Y-112250000D01*
X88600000Y-114150000D02*
X86400000Y-114150000D01*
X84500000Y-112250000D02*
X85250000Y-113000000D01*
X86400000Y-114150000D02*
X85250000Y-113000000D01*
%TO.N,+5V*%
X129427401Y-107977401D02*
X134310000Y-112860000D01*
X134310000Y-112860000D02*
X134310000Y-114150000D01*
X127000000Y-103422599D02*
X127000000Y-99800000D01*
X129427401Y-105850000D02*
X127000000Y-103422599D01*
X129427401Y-105850000D02*
X129427401Y-107977401D01*
D29*
%TO.N,/SPI-SCL*%
X107750000Y-92250000D02*
X107750000Y-94750000D01*
D31*
%TO.N,/VDC*%
X137300000Y-115750000D02*
X138400000Y-114650000D01*
X137300000Y-117350000D02*
X137300000Y-115750000D01*
X138400000Y-114650000D02*
X138400000Y-112450000D01*
X135600000Y-119050000D02*
X137300000Y-117350000D01*
D29*
%TO.N,/SPI-SDA*%
X91140000Y-93250000D02*
X91140000Y-96360000D01*
X91140000Y-96360000D02*
X89000000Y-98500000D01*
D31*
%TO.N,/VIN*%
X136827401Y-104904801D02*
X136700000Y-104904801D01*
X134404801Y-104904801D02*
X129300000Y-99800000D01*
X136700000Y-104904801D02*
X138554801Y-104904801D01*
X136700000Y-104904801D02*
X134404801Y-104904801D01*
X141040000Y-107390000D02*
X142600000Y-107390000D01*
X138554801Y-104904801D02*
X141040000Y-107390000D01*
%TO.N,Net-(D1-K)*%
X138400000Y-109650000D02*
X140500000Y-109650000D01*
X140500000Y-109650000D02*
X140780000Y-109930000D01*
X140780000Y-109930000D02*
X142600000Y-109930000D01*
D32*
%TO.N,/VBUS*%
X141000000Y-96317501D02*
X141000000Y-99050000D01*
X138965716Y-98169936D02*
X140119936Y-98169936D01*
X141000000Y-103250000D02*
X142600000Y-104850000D01*
X141000000Y-99050000D02*
X141000000Y-103250000D01*
X139812499Y-95130000D02*
X141000000Y-96317501D01*
X140119936Y-98169936D02*
X141000000Y-99050000D01*
X138965599Y-95130000D02*
X139812499Y-95130000D01*
D29*
%TO.N,Net-(J8-CC2)*%
X135245599Y-94330000D02*
X135245599Y-95450000D01*
X135945600Y-96150001D02*
X138965599Y-96150001D01*
X135245599Y-95450000D02*
X135945600Y-96150001D01*
%TD*%
%TA.AperFunction,Conductor*%
%TO.N,GND*%
G36*
X140173842Y-81820185D02*
G01*
X140219597Y-81872989D01*
X140229541Y-81942147D01*
X140200516Y-82005703D01*
X140174942Y-82028100D01*
X140005485Y-82139553D01*
X139862819Y-82259264D01*
X139862818Y-82259265D01*
X140714413Y-83110860D01*
X140747898Y-83172183D01*
X140742914Y-83241875D01*
X140711074Y-83289439D01*
X140576258Y-83414529D01*
X140576256Y-83414532D01*
X140554555Y-83441745D01*
X140545075Y-83453632D01*
X140487886Y-83493772D01*
X140418075Y-83496622D01*
X140360447Y-83464000D01*
X139506148Y-82609701D01*
X139506147Y-82609702D01*
X139497976Y-82618363D01*
X139497972Y-82618368D01*
X139289289Y-82898677D01*
X139114561Y-83201316D01*
X139114555Y-83201329D01*
X138976145Y-83522199D01*
X138875916Y-83856988D01*
X138875914Y-83856997D01*
X138815236Y-84201119D01*
X138815235Y-84201130D01*
X138794916Y-84549996D01*
X138794916Y-84550003D01*
X138815235Y-84898869D01*
X138815236Y-84898880D01*
X138875914Y-85243002D01*
X138875916Y-85243011D01*
X138976145Y-85577800D01*
X139114555Y-85898670D01*
X139114561Y-85898683D01*
X139289289Y-86201322D01*
X139497967Y-86481625D01*
X139506148Y-86490296D01*
X140360446Y-85635999D01*
X140421769Y-85602514D01*
X140491461Y-85607498D01*
X140545073Y-85646366D01*
X140576258Y-85685471D01*
X140711072Y-85810559D01*
X140746827Y-85870588D01*
X140744452Y-85940417D01*
X140714412Y-85989139D01*
X139862818Y-86840732D01*
X139862819Y-86840734D01*
X140005484Y-86960445D01*
X140297461Y-87152480D01*
X140609739Y-87309314D01*
X140609745Y-87309316D01*
X140938130Y-87428838D01*
X140938133Y-87428839D01*
X141278171Y-87509429D01*
X141625276Y-87549999D01*
X141625277Y-87550000D01*
X141974723Y-87550000D01*
X141974723Y-87549999D01*
X142321827Y-87509429D01*
X142321829Y-87509429D01*
X142661866Y-87428839D01*
X142661869Y-87428838D01*
X142990254Y-87309316D01*
X142990260Y-87309314D01*
X143302538Y-87152480D01*
X143594509Y-86960449D01*
X143594510Y-86960448D01*
X143737179Y-86840734D01*
X143737180Y-86840733D01*
X142885587Y-85989140D01*
X142852102Y-85927817D01*
X142857086Y-85858125D01*
X142888927Y-85810560D01*
X142927738Y-85774548D01*
X143023744Y-85685468D01*
X143054924Y-85646368D01*
X143112112Y-85606228D01*
X143181924Y-85603378D01*
X143239553Y-85636000D01*
X144093850Y-86490297D01*
X144093851Y-86490296D01*
X144102022Y-86481636D01*
X144102033Y-86481623D01*
X144310710Y-86201322D01*
X144318112Y-86188502D01*
X144368678Y-86140286D01*
X144437284Y-86127061D01*
X144502150Y-86153028D01*
X144542679Y-86209941D01*
X144549500Y-86250500D01*
X144549500Y-116849499D01*
X144529815Y-116916538D01*
X144477011Y-116962293D01*
X144407853Y-116972237D01*
X144344297Y-116943212D01*
X144318113Y-116911500D01*
X144310707Y-116898674D01*
X144102032Y-116618374D01*
X144093850Y-116609702D01*
X143239552Y-117463999D01*
X143178229Y-117497484D01*
X143108537Y-117492500D01*
X143054924Y-117453631D01*
X143023740Y-117414527D01*
X142888926Y-117289439D01*
X142853171Y-117229410D01*
X142855546Y-117159581D01*
X142885586Y-117110859D01*
X143737180Y-116259265D01*
X143737179Y-116259264D01*
X143594519Y-116139557D01*
X143302538Y-115947519D01*
X142990260Y-115790685D01*
X142990254Y-115790683D01*
X142661869Y-115671161D01*
X142661866Y-115671160D01*
X142321828Y-115590570D01*
X141974723Y-115550000D01*
X141625277Y-115550000D01*
X141278172Y-115590570D01*
X141278170Y-115590570D01*
X140938133Y-115671160D01*
X140938130Y-115671161D01*
X140609745Y-115790683D01*
X140609739Y-115790685D01*
X140297461Y-115947519D01*
X140005480Y-116139557D01*
X139862819Y-116259264D01*
X139862818Y-116259265D01*
X140714413Y-117110860D01*
X140747898Y-117172183D01*
X140742914Y-117241875D01*
X140711074Y-117289439D01*
X140576258Y-117414529D01*
X140576256Y-117414532D01*
X140545075Y-117453632D01*
X140487886Y-117493772D01*
X140418075Y-117496622D01*
X140360447Y-117464000D01*
X139506148Y-116609701D01*
X139506147Y-116609702D01*
X139497976Y-116618363D01*
X139497972Y-116618368D01*
X139289289Y-116898677D01*
X139114561Y-117201316D01*
X139114555Y-117201329D01*
X138976145Y-117522199D01*
X138875916Y-117856988D01*
X138875914Y-117856997D01*
X138815236Y-118201119D01*
X138815235Y-118201130D01*
X138794916Y-118549996D01*
X138794916Y-118550003D01*
X138815235Y-118898869D01*
X138815236Y-118898880D01*
X138875914Y-119243002D01*
X138875916Y-119243011D01*
X138976145Y-119577800D01*
X139114555Y-119898670D01*
X139114561Y-119898683D01*
X139289289Y-120201322D01*
X139497967Y-120481625D01*
X139506148Y-120490296D01*
X140360446Y-119635999D01*
X140421769Y-119602514D01*
X140491461Y-119607498D01*
X140545073Y-119646366D01*
X140576258Y-119685471D01*
X140711072Y-119810559D01*
X140746827Y-119870588D01*
X140744452Y-119940417D01*
X140714412Y-119989139D01*
X139862818Y-120840732D01*
X139862819Y-120840734D01*
X140005484Y-120960445D01*
X140174942Y-121071899D01*
X140220136Y-121125184D01*
X140229347Y-121194444D01*
X140199652Y-121257689D01*
X140140478Y-121294840D01*
X140106803Y-121299500D01*
X84493197Y-121299500D01*
X84426158Y-121279815D01*
X84380403Y-121227011D01*
X84370459Y-121157853D01*
X84399484Y-121094297D01*
X84425058Y-121071899D01*
X84594509Y-120960449D01*
X84594510Y-120960448D01*
X84737179Y-120840734D01*
X84737180Y-120840733D01*
X83885587Y-119989140D01*
X83852102Y-119927817D01*
X83857086Y-119858125D01*
X83888927Y-119810560D01*
X83990327Y-119716474D01*
X84023744Y-119685468D01*
X84054924Y-119646368D01*
X84112112Y-119606228D01*
X84181924Y-119603378D01*
X84239553Y-119636000D01*
X85093850Y-120490297D01*
X85093851Y-120490296D01*
X85102022Y-120481636D01*
X85102033Y-120481623D01*
X85310710Y-120201322D01*
X85485438Y-119898683D01*
X85485444Y-119898670D01*
X85623854Y-119577800D01*
X85724083Y-119243011D01*
X85724085Y-119243002D01*
X85784763Y-118898880D01*
X85784764Y-118898869D01*
X85805084Y-118550003D01*
X85805084Y-118549996D01*
X85784764Y-118201130D01*
X85784763Y-118201119D01*
X85776129Y-118152155D01*
X131710000Y-118152155D01*
X131710000Y-118800000D01*
X132626988Y-118800000D01*
X132594075Y-118857007D01*
X132560000Y-118984174D01*
X132560000Y-119115826D01*
X132594075Y-119242993D01*
X132626988Y-119300000D01*
X131710000Y-119300000D01*
X131710000Y-119947844D01*
X131716401Y-120007372D01*
X131716403Y-120007379D01*
X131766645Y-120142086D01*
X131766649Y-120142093D01*
X131852809Y-120257187D01*
X131852812Y-120257190D01*
X131967906Y-120343350D01*
X131967913Y-120343354D01*
X132102620Y-120393596D01*
X132102627Y-120393598D01*
X132162155Y-120399999D01*
X132162172Y-120400000D01*
X132810000Y-120400000D01*
X132810000Y-119483012D01*
X132867007Y-119515925D01*
X132994174Y-119550000D01*
X133125826Y-119550000D01*
X133252993Y-119515925D01*
X133310000Y-119483012D01*
X133310000Y-120400000D01*
X133957828Y-120400000D01*
X133957844Y-120399999D01*
X134017372Y-120393598D01*
X134017379Y-120393596D01*
X134152086Y-120343354D01*
X134152093Y-120343350D01*
X134267187Y-120257190D01*
X134267190Y-120257187D01*
X134353350Y-120142093D01*
X134353354Y-120142086D01*
X134403596Y-120007379D01*
X134403598Y-120007372D01*
X134409999Y-119947844D01*
X134410000Y-119947827D01*
X134410000Y-119753268D01*
X134429685Y-119686229D01*
X134482489Y-119640474D01*
X134551647Y-119630530D01*
X134615203Y-119659555D01*
X134632950Y-119678537D01*
X134746128Y-119828407D01*
X134903698Y-119972052D01*
X135084981Y-120084298D01*
X135283802Y-120161321D01*
X135493390Y-120200500D01*
X135493392Y-120200500D01*
X135706608Y-120200500D01*
X135706610Y-120200500D01*
X135916198Y-120161321D01*
X136115019Y-120084298D01*
X136296302Y-119972052D01*
X136453872Y-119828407D01*
X136582366Y-119658255D01*
X136609691Y-119603378D01*
X136677403Y-119467394D01*
X136677403Y-119467393D01*
X136677405Y-119467389D01*
X136735756Y-119262310D01*
X136755429Y-119050000D01*
X136746826Y-118957161D01*
X136760241Y-118888592D01*
X136782613Y-118858042D01*
X137844114Y-117796543D01*
X137920775Y-117681811D01*
X137936072Y-117644882D01*
X137973578Y-117554332D01*
X137973580Y-117554328D01*
X138000500Y-117418994D01*
X138000500Y-117281006D01*
X138000500Y-116091519D01*
X138020185Y-116024480D01*
X138036819Y-116003838D01*
X138944112Y-115096545D01*
X138944114Y-115096543D01*
X139020775Y-114981811D01*
X139073580Y-114854328D01*
X139092690Y-114758257D01*
X139100500Y-114718996D01*
X139100500Y-113499500D01*
X139120185Y-113432461D01*
X139172989Y-113386706D01*
X139224500Y-113375500D01*
X139518097Y-113375500D01*
X139518102Y-113375500D01*
X139606564Y-113364877D01*
X139747342Y-113309361D01*
X139867922Y-113217922D01*
X139959361Y-113097342D01*
X140014877Y-112956564D01*
X140025500Y-112868102D01*
X140025500Y-112031898D01*
X140014877Y-111943436D01*
X139959361Y-111802658D01*
X139959360Y-111802657D01*
X139959360Y-111802656D01*
X139867922Y-111682077D01*
X139747343Y-111590639D01*
X139606561Y-111535122D01*
X139560926Y-111529642D01*
X139518102Y-111524500D01*
X137281898Y-111524500D01*
X137242853Y-111529188D01*
X137193438Y-111535122D01*
X137052656Y-111590639D01*
X136932077Y-111682077D01*
X136840639Y-111802656D01*
X136785122Y-111943438D01*
X136781859Y-111970613D01*
X136774500Y-112031898D01*
X136774500Y-112868102D01*
X136775517Y-112876567D01*
X136785122Y-112956561D01*
X136840639Y-113097343D01*
X136932077Y-113217922D01*
X137052656Y-113309360D01*
X137052657Y-113309360D01*
X137052658Y-113309361D01*
X137193436Y-113364877D01*
X137281898Y-113375500D01*
X137575500Y-113375500D01*
X137642539Y-113395185D01*
X137688294Y-113447989D01*
X137699500Y-113499500D01*
X137699500Y-114308480D01*
X137679815Y-114375519D01*
X137663181Y-114396161D01*
X136755888Y-115303453D01*
X136755884Y-115303458D01*
X136730722Y-115341116D01*
X136724453Y-115350500D01*
X136701761Y-115384460D01*
X136679223Y-115418191D01*
X136626421Y-115545667D01*
X136626418Y-115545677D01*
X136599500Y-115681004D01*
X136599500Y-117008480D01*
X136579815Y-117075519D01*
X136563181Y-117096161D01*
X135796161Y-117863181D01*
X135734838Y-117896666D01*
X135708480Y-117899500D01*
X135706610Y-117899500D01*
X135493390Y-117899500D01*
X135283802Y-117938679D01*
X135283799Y-117938679D01*
X135283799Y-117938680D01*
X135084982Y-118015701D01*
X135084980Y-118015702D01*
X134903699Y-118127947D01*
X134746127Y-118271593D01*
X134632954Y-118421458D01*
X134576845Y-118463094D01*
X134507133Y-118467785D01*
X134445951Y-118434043D01*
X134412724Y-118372579D01*
X134410000Y-118346731D01*
X134410000Y-118152172D01*
X134409999Y-118152155D01*
X134403598Y-118092627D01*
X134403596Y-118092620D01*
X134353354Y-117957913D01*
X134353350Y-117957906D01*
X134267190Y-117842812D01*
X134267187Y-117842809D01*
X134152093Y-117756649D01*
X134152086Y-117756645D01*
X134017379Y-117706403D01*
X134017372Y-117706401D01*
X133957844Y-117700000D01*
X133310000Y-117700000D01*
X133310000Y-118616988D01*
X133252993Y-118584075D01*
X133125826Y-118550000D01*
X132994174Y-118550000D01*
X132867007Y-118584075D01*
X132810000Y-118616988D01*
X132810000Y-117700000D01*
X132162155Y-117700000D01*
X132102627Y-117706401D01*
X132102620Y-117706403D01*
X131967913Y-117756645D01*
X131967906Y-117756649D01*
X131852812Y-117842809D01*
X131852809Y-117842812D01*
X131766649Y-117957906D01*
X131766645Y-117957913D01*
X131716403Y-118092620D01*
X131716401Y-118092627D01*
X131710000Y-118152155D01*
X85776129Y-118152155D01*
X85724085Y-117856997D01*
X85724083Y-117856988D01*
X85623854Y-117522199D01*
X85485444Y-117201329D01*
X85485438Y-117201316D01*
X85310710Y-116898677D01*
X85102032Y-116618374D01*
X85093850Y-116609702D01*
X84239552Y-117463999D01*
X84178229Y-117497484D01*
X84108537Y-117492500D01*
X84054924Y-117453631D01*
X84023740Y-117414527D01*
X83888926Y-117289439D01*
X83853171Y-117229410D01*
X83855546Y-117159581D01*
X83885586Y-117110859D01*
X84737180Y-116259265D01*
X84737179Y-116259264D01*
X84594519Y-116139557D01*
X84302538Y-115947519D01*
X83990260Y-115790685D01*
X83990254Y-115790683D01*
X83661869Y-115671161D01*
X83661866Y-115671160D01*
X83321828Y-115590570D01*
X82974723Y-115550000D01*
X82625277Y-115550000D01*
X82278172Y-115590570D01*
X82278170Y-115590570D01*
X81938133Y-115671160D01*
X81938130Y-115671161D01*
X81609745Y-115790683D01*
X81609739Y-115790685D01*
X81297461Y-115947519D01*
X81005480Y-116139557D01*
X80862819Y-116259264D01*
X80862818Y-116259265D01*
X81714413Y-117110860D01*
X81747898Y-117172183D01*
X81742914Y-117241875D01*
X81711074Y-117289439D01*
X81576258Y-117414529D01*
X81576256Y-117414532D01*
X81545075Y-117453632D01*
X81487886Y-117493772D01*
X81418075Y-117496622D01*
X81360447Y-117464000D01*
X80506148Y-116609701D01*
X80506147Y-116609702D01*
X80497976Y-116618363D01*
X80497972Y-116618368D01*
X80289292Y-116898674D01*
X80281887Y-116911500D01*
X80231319Y-116959715D01*
X80162712Y-116972937D01*
X80097848Y-116946969D01*
X80057320Y-116890055D01*
X80050500Y-116849499D01*
X80050500Y-91177525D01*
X81699500Y-91177525D01*
X81699500Y-109927526D01*
X81699500Y-110072474D01*
X81722031Y-110156561D01*
X81737016Y-110212485D01*
X81809489Y-110338013D01*
X81809491Y-110338016D01*
X84052419Y-112580943D01*
X84052422Y-112580947D01*
X84059490Y-112588015D01*
X84809490Y-113338015D01*
X86061986Y-114590510D01*
X86182847Y-114660289D01*
X86187515Y-114662984D01*
X86327525Y-114700500D01*
X86327526Y-114700500D01*
X86472474Y-114700500D01*
X87612806Y-114700500D01*
X87679845Y-114720185D01*
X87713377Y-114754285D01*
X87714179Y-114753680D01*
X87790188Y-114854332D01*
X87846128Y-114928407D01*
X88003698Y-115072052D01*
X88184981Y-115184298D01*
X88383802Y-115261321D01*
X88593390Y-115300500D01*
X88593392Y-115300500D01*
X88806608Y-115300500D01*
X88806610Y-115300500D01*
X89016198Y-115261321D01*
X89215019Y-115184298D01*
X89396302Y-115072052D01*
X89553872Y-114928407D01*
X89682366Y-114758255D01*
X89684644Y-114753680D01*
X89777403Y-114567394D01*
X89777403Y-114567393D01*
X89777405Y-114567389D01*
X89835756Y-114362310D01*
X89846529Y-114246047D01*
X89872315Y-114181111D01*
X89914622Y-114150804D01*
X90023130Y-114150804D01*
X90059503Y-114171668D01*
X90091693Y-114233681D01*
X90093470Y-114246047D01*
X90104244Y-114362310D01*
X90157675Y-114550099D01*
X90162596Y-114567392D01*
X90162596Y-114567394D01*
X90257632Y-114758253D01*
X90386127Y-114928406D01*
X90386128Y-114928407D01*
X90543698Y-115072052D01*
X90724981Y-115184298D01*
X90923802Y-115261321D01*
X91133390Y-115300500D01*
X91133392Y-115300500D01*
X91346608Y-115300500D01*
X91346610Y-115300500D01*
X91556198Y-115261321D01*
X91755019Y-115184298D01*
X91936302Y-115072052D01*
X92093872Y-114928407D01*
X92222366Y-114758255D01*
X92224644Y-114753680D01*
X92317403Y-114567394D01*
X92317403Y-114567393D01*
X92317405Y-114567389D01*
X92375756Y-114362310D01*
X92386529Y-114246047D01*
X92412315Y-114181111D01*
X92454622Y-114150804D01*
X92563130Y-114150804D01*
X92599503Y-114171668D01*
X92631693Y-114233681D01*
X92633470Y-114246047D01*
X92644244Y-114362310D01*
X92697675Y-114550099D01*
X92702596Y-114567392D01*
X92702596Y-114567394D01*
X92797632Y-114758253D01*
X92926127Y-114928406D01*
X92926128Y-114928407D01*
X93083698Y-115072052D01*
X93264981Y-115184298D01*
X93463802Y-115261321D01*
X93673390Y-115300500D01*
X93673392Y-115300500D01*
X93886608Y-115300500D01*
X93886610Y-115300500D01*
X94096198Y-115261321D01*
X94295019Y-115184298D01*
X94476302Y-115072052D01*
X94633872Y-114928407D01*
X94762366Y-114758255D01*
X94764644Y-114753680D01*
X94857403Y-114567394D01*
X94857403Y-114567393D01*
X94857405Y-114567389D01*
X94915756Y-114362310D01*
X94926529Y-114246047D01*
X94952315Y-114181111D01*
X94994622Y-114150804D01*
X95103130Y-114150804D01*
X95139503Y-114171668D01*
X95171693Y-114233681D01*
X95173470Y-114246047D01*
X95184244Y-114362310D01*
X95237675Y-114550099D01*
X95242596Y-114567392D01*
X95242596Y-114567394D01*
X95337632Y-114758253D01*
X95466127Y-114928406D01*
X95466128Y-114928407D01*
X95623698Y-115072052D01*
X95804981Y-115184298D01*
X96003802Y-115261321D01*
X96213390Y-115300500D01*
X96213392Y-115300500D01*
X96426608Y-115300500D01*
X96426610Y-115300500D01*
X96636198Y-115261321D01*
X96835019Y-115184298D01*
X97016302Y-115072052D01*
X97173872Y-114928407D01*
X97302366Y-114758255D01*
X97304644Y-114753680D01*
X97397403Y-114567394D01*
X97397403Y-114567393D01*
X97397405Y-114567389D01*
X97455756Y-114362310D01*
X97466529Y-114246047D01*
X97492315Y-114181111D01*
X97534622Y-114150804D01*
X97643130Y-114150804D01*
X97679503Y-114171668D01*
X97711693Y-114233681D01*
X97713470Y-114246047D01*
X97724244Y-114362310D01*
X97777675Y-114550099D01*
X97782596Y-114567392D01*
X97782596Y-114567394D01*
X97877632Y-114758253D01*
X98006127Y-114928406D01*
X98006128Y-114928407D01*
X98163698Y-115072052D01*
X98344981Y-115184298D01*
X98543802Y-115261321D01*
X98753390Y-115300500D01*
X98753392Y-115300500D01*
X98966608Y-115300500D01*
X98966610Y-115300500D01*
X99176198Y-115261321D01*
X99375019Y-115184298D01*
X99556302Y-115072052D01*
X99713872Y-114928407D01*
X99842366Y-114758255D01*
X99844644Y-114753680D01*
X99937403Y-114567394D01*
X99937403Y-114567393D01*
X99937405Y-114567389D01*
X99995756Y-114362310D01*
X100006529Y-114246047D01*
X100032315Y-114181111D01*
X100074622Y-114150804D01*
X100183130Y-114150804D01*
X100219503Y-114171668D01*
X100251693Y-114233681D01*
X100253470Y-114246047D01*
X100264244Y-114362310D01*
X100317675Y-114550099D01*
X100322596Y-114567392D01*
X100322596Y-114567394D01*
X100417632Y-114758253D01*
X100546127Y-114928406D01*
X100546128Y-114928407D01*
X100703698Y-115072052D01*
X100884981Y-115184298D01*
X101083802Y-115261321D01*
X101293390Y-115300500D01*
X101293392Y-115300500D01*
X101506608Y-115300500D01*
X101506610Y-115300500D01*
X101716198Y-115261321D01*
X101915019Y-115184298D01*
X102096302Y-115072052D01*
X102253872Y-114928407D01*
X102382366Y-114758255D01*
X102384644Y-114753680D01*
X102477403Y-114567394D01*
X102477403Y-114567393D01*
X102477405Y-114567389D01*
X102535756Y-114362310D01*
X102546529Y-114246047D01*
X102572315Y-114181111D01*
X102614622Y-114150804D01*
X102723130Y-114150804D01*
X102759503Y-114171668D01*
X102791693Y-114233681D01*
X102793470Y-114246047D01*
X102804244Y-114362310D01*
X102857675Y-114550099D01*
X102862596Y-114567392D01*
X102862596Y-114567394D01*
X102957632Y-114758253D01*
X103086127Y-114928406D01*
X103086128Y-114928407D01*
X103243698Y-115072052D01*
X103424981Y-115184298D01*
X103623802Y-115261321D01*
X103833390Y-115300500D01*
X103833392Y-115300500D01*
X104046608Y-115300500D01*
X104046610Y-115300500D01*
X104256198Y-115261321D01*
X104455019Y-115184298D01*
X104636302Y-115072052D01*
X104793872Y-114928407D01*
X104922366Y-114758255D01*
X104924644Y-114753680D01*
X105017403Y-114567394D01*
X105017403Y-114567393D01*
X105017405Y-114567389D01*
X105075756Y-114362310D01*
X105086529Y-114246047D01*
X105112315Y-114181111D01*
X105154622Y-114150804D01*
X105263130Y-114150804D01*
X105299503Y-114171668D01*
X105331693Y-114233681D01*
X105333470Y-114246047D01*
X105344244Y-114362310D01*
X105397675Y-114550099D01*
X105402596Y-114567392D01*
X105402596Y-114567394D01*
X105497632Y-114758253D01*
X105626127Y-114928406D01*
X105626128Y-114928407D01*
X105783698Y-115072052D01*
X105964981Y-115184298D01*
X106163802Y-115261321D01*
X106373390Y-115300500D01*
X106373392Y-115300500D01*
X106586608Y-115300500D01*
X106586610Y-115300500D01*
X106796198Y-115261321D01*
X106995019Y-115184298D01*
X107176302Y-115072052D01*
X107333872Y-114928407D01*
X107462366Y-114758255D01*
X107464644Y-114753680D01*
X107557403Y-114567394D01*
X107557403Y-114567393D01*
X107557405Y-114567389D01*
X107615756Y-114362310D01*
X107626529Y-114246047D01*
X107652315Y-114181111D01*
X107694622Y-114150804D01*
X107803130Y-114150804D01*
X107839503Y-114171668D01*
X107871693Y-114233681D01*
X107873470Y-114246047D01*
X107884244Y-114362310D01*
X107937675Y-114550099D01*
X107942596Y-114567392D01*
X107942596Y-114567394D01*
X108037632Y-114758253D01*
X108166127Y-114928406D01*
X108166128Y-114928407D01*
X108323698Y-115072052D01*
X108504981Y-115184298D01*
X108703802Y-115261321D01*
X108913390Y-115300500D01*
X108913392Y-115300500D01*
X109126608Y-115300500D01*
X109126610Y-115300500D01*
X109336198Y-115261321D01*
X109535019Y-115184298D01*
X109716302Y-115072052D01*
X109873872Y-114928407D01*
X110002366Y-114758255D01*
X110004644Y-114753680D01*
X110097403Y-114567394D01*
X110097403Y-114567393D01*
X110097405Y-114567389D01*
X110155756Y-114362310D01*
X110166529Y-114246047D01*
X110192315Y-114181111D01*
X110234622Y-114150804D01*
X110343130Y-114150804D01*
X110379503Y-114171668D01*
X110411693Y-114233681D01*
X110413470Y-114246047D01*
X110424244Y-114362310D01*
X110477675Y-114550099D01*
X110482596Y-114567392D01*
X110482596Y-114567394D01*
X110577632Y-114758253D01*
X110706127Y-114928406D01*
X110706128Y-114928407D01*
X110863698Y-115072052D01*
X111044981Y-115184298D01*
X111243802Y-115261321D01*
X111453390Y-115300500D01*
X111453392Y-115300500D01*
X111666608Y-115300500D01*
X111666610Y-115300500D01*
X111876198Y-115261321D01*
X112075019Y-115184298D01*
X112256302Y-115072052D01*
X112413872Y-114928407D01*
X112542366Y-114758255D01*
X112544644Y-114753680D01*
X112637403Y-114567394D01*
X112637403Y-114567393D01*
X112637405Y-114567389D01*
X112695756Y-114362310D01*
X112706529Y-114246047D01*
X112732315Y-114181111D01*
X112774622Y-114150804D01*
X112883130Y-114150804D01*
X112919503Y-114171668D01*
X112951693Y-114233681D01*
X112953470Y-114246047D01*
X112964244Y-114362310D01*
X113017675Y-114550099D01*
X113022596Y-114567392D01*
X113022596Y-114567394D01*
X113117632Y-114758253D01*
X113246127Y-114928406D01*
X113246128Y-114928407D01*
X113403698Y-115072052D01*
X113584981Y-115184298D01*
X113783802Y-115261321D01*
X113993390Y-115300500D01*
X113993392Y-115300500D01*
X114206608Y-115300500D01*
X114206610Y-115300500D01*
X114416198Y-115261321D01*
X114615019Y-115184298D01*
X114796302Y-115072052D01*
X114953872Y-114928407D01*
X115082366Y-114758255D01*
X115084644Y-114753680D01*
X115177403Y-114567394D01*
X115177403Y-114567393D01*
X115177405Y-114567389D01*
X115235756Y-114362310D01*
X115246529Y-114246047D01*
X115272315Y-114181111D01*
X115314622Y-114150804D01*
X115423130Y-114150804D01*
X115459503Y-114171668D01*
X115491693Y-114233681D01*
X115493470Y-114246047D01*
X115504244Y-114362310D01*
X115557675Y-114550099D01*
X115562596Y-114567392D01*
X115562596Y-114567394D01*
X115657632Y-114758253D01*
X115786127Y-114928406D01*
X115786128Y-114928407D01*
X115943698Y-115072052D01*
X116124981Y-115184298D01*
X116323802Y-115261321D01*
X116533390Y-115300500D01*
X116533392Y-115300500D01*
X116746608Y-115300500D01*
X116746610Y-115300500D01*
X116956198Y-115261321D01*
X117155019Y-115184298D01*
X117336302Y-115072052D01*
X117493872Y-114928407D01*
X117622366Y-114758255D01*
X117624644Y-114753680D01*
X117717403Y-114567394D01*
X117717403Y-114567393D01*
X117717405Y-114567389D01*
X117775756Y-114362310D01*
X117786529Y-114246047D01*
X117812315Y-114181111D01*
X117854622Y-114150804D01*
X117963130Y-114150804D01*
X117999503Y-114171668D01*
X118031693Y-114233681D01*
X118033470Y-114246047D01*
X118044244Y-114362310D01*
X118097675Y-114550099D01*
X118102596Y-114567392D01*
X118102596Y-114567394D01*
X118197632Y-114758253D01*
X118326127Y-114928406D01*
X118326128Y-114928407D01*
X118483698Y-115072052D01*
X118664981Y-115184298D01*
X118863802Y-115261321D01*
X119073390Y-115300500D01*
X119073392Y-115300500D01*
X119286608Y-115300500D01*
X119286610Y-115300500D01*
X119496198Y-115261321D01*
X119695019Y-115184298D01*
X119876302Y-115072052D01*
X120033872Y-114928407D01*
X120162366Y-114758255D01*
X120229325Y-114623781D01*
X120276825Y-114572548D01*
X120344488Y-114555126D01*
X120410828Y-114577051D01*
X120452705Y-114626651D01*
X120546399Y-114827578D01*
X120681894Y-115021082D01*
X120848917Y-115188105D01*
X121042421Y-115323600D01*
X121256507Y-115423429D01*
X121256516Y-115423433D01*
X121470000Y-115480634D01*
X121470000Y-114583012D01*
X121527007Y-114615925D01*
X121654174Y-114650000D01*
X121785826Y-114650000D01*
X121912993Y-114615925D01*
X121970000Y-114583012D01*
X121970000Y-115480633D01*
X122183483Y-115423433D01*
X122183492Y-115423429D01*
X122397578Y-115323600D01*
X122591082Y-115188105D01*
X122758105Y-115021082D01*
X122893600Y-114827578D01*
X122987294Y-114626651D01*
X123033466Y-114574212D01*
X123100660Y-114555060D01*
X123167541Y-114575276D01*
X123210676Y-114623785D01*
X123277632Y-114758253D01*
X123406127Y-114928406D01*
X123406128Y-114928407D01*
X123563698Y-115072052D01*
X123744981Y-115184298D01*
X123943802Y-115261321D01*
X124153390Y-115300500D01*
X124153392Y-115300500D01*
X124366608Y-115300500D01*
X124366610Y-115300500D01*
X124576198Y-115261321D01*
X124775019Y-115184298D01*
X124956302Y-115072052D01*
X125113872Y-114928407D01*
X125242366Y-114758255D01*
X125244644Y-114753680D01*
X125337403Y-114567394D01*
X125337403Y-114567393D01*
X125337405Y-114567389D01*
X125395756Y-114362310D01*
X125406529Y-114246047D01*
X125432315Y-114181111D01*
X125474622Y-114150804D01*
X125583130Y-114150804D01*
X125619503Y-114171668D01*
X125651693Y-114233681D01*
X125653470Y-114246047D01*
X125664244Y-114362310D01*
X125717675Y-114550099D01*
X125722596Y-114567392D01*
X125722596Y-114567394D01*
X125817632Y-114758253D01*
X125946127Y-114928406D01*
X125946128Y-114928407D01*
X126103698Y-115072052D01*
X126284981Y-115184298D01*
X126483802Y-115261321D01*
X126693390Y-115300500D01*
X126693392Y-115300500D01*
X126906608Y-115300500D01*
X126906610Y-115300500D01*
X127116198Y-115261321D01*
X127315019Y-115184298D01*
X127496302Y-115072052D01*
X127653872Y-114928407D01*
X127782366Y-114758255D01*
X127784644Y-114753680D01*
X127877403Y-114567394D01*
X127877403Y-114567393D01*
X127877405Y-114567389D01*
X127935756Y-114362310D01*
X127946529Y-114246047D01*
X127972315Y-114181111D01*
X128014622Y-114150804D01*
X128123130Y-114150804D01*
X128159503Y-114171668D01*
X128191693Y-114233681D01*
X128193470Y-114246047D01*
X128204244Y-114362310D01*
X128257675Y-114550099D01*
X128262596Y-114567392D01*
X128262596Y-114567394D01*
X128357632Y-114758253D01*
X128486127Y-114928406D01*
X128486128Y-114928407D01*
X128643698Y-115072052D01*
X128824981Y-115184298D01*
X129023802Y-115261321D01*
X129233390Y-115300500D01*
X129233392Y-115300500D01*
X129446608Y-115300500D01*
X129446610Y-115300500D01*
X129656198Y-115261321D01*
X129855019Y-115184298D01*
X130036302Y-115072052D01*
X130193872Y-114928407D01*
X130322366Y-114758255D01*
X130324644Y-114753680D01*
X130417403Y-114567394D01*
X130417403Y-114567393D01*
X130417405Y-114567389D01*
X130475756Y-114362310D01*
X130486529Y-114246047D01*
X130512315Y-114181111D01*
X130556869Y-114149194D01*
X130520497Y-114128331D01*
X130488307Y-114066318D01*
X130486529Y-114053951D01*
X130485849Y-114046613D01*
X130475756Y-113937690D01*
X130417405Y-113732611D01*
X130417403Y-113732606D01*
X130417403Y-113732605D01*
X130322367Y-113541746D01*
X130193872Y-113371593D01*
X130125606Y-113309360D01*
X130036302Y-113227948D01*
X129855019Y-113115702D01*
X129855017Y-113115701D01*
X129755608Y-113077190D01*
X129656198Y-113038679D01*
X129446610Y-112999500D01*
X129233390Y-112999500D01*
X129023802Y-113038679D01*
X129023799Y-113038679D01*
X129023799Y-113038680D01*
X128824982Y-113115701D01*
X128824980Y-113115702D01*
X128643699Y-113227947D01*
X128486127Y-113371593D01*
X128357632Y-113541746D01*
X128262596Y-113732605D01*
X128262596Y-113732607D01*
X128204244Y-113937689D01*
X128193471Y-114053951D01*
X128167685Y-114118888D01*
X128123130Y-114150804D01*
X128014622Y-114150804D01*
X128016869Y-114149194D01*
X127980497Y-114128331D01*
X127948307Y-114066318D01*
X127946529Y-114053951D01*
X127945849Y-114046613D01*
X127935756Y-113937690D01*
X127877405Y-113732611D01*
X127877403Y-113732606D01*
X127877403Y-113732605D01*
X127782367Y-113541746D01*
X127653872Y-113371593D01*
X127585606Y-113309360D01*
X127496302Y-113227948D01*
X127315019Y-113115702D01*
X127315017Y-113115701D01*
X127215608Y-113077190D01*
X127116198Y-113038679D01*
X126906610Y-112999500D01*
X126693390Y-112999500D01*
X126483802Y-113038679D01*
X126483799Y-113038679D01*
X126483799Y-113038680D01*
X126284982Y-113115701D01*
X126284980Y-113115702D01*
X126103699Y-113227947D01*
X125946127Y-113371593D01*
X125817632Y-113541746D01*
X125722596Y-113732605D01*
X125722596Y-113732607D01*
X125664244Y-113937689D01*
X125653471Y-114053951D01*
X125627685Y-114118888D01*
X125583130Y-114150804D01*
X125474622Y-114150804D01*
X125476869Y-114149194D01*
X125440497Y-114128331D01*
X125408307Y-114066318D01*
X125406529Y-114053951D01*
X125405849Y-114046613D01*
X125395756Y-113937690D01*
X125337405Y-113732611D01*
X125337403Y-113732606D01*
X125337403Y-113732605D01*
X125242367Y-113541746D01*
X125113872Y-113371593D01*
X125045606Y-113309360D01*
X124956302Y-113227948D01*
X124775019Y-113115702D01*
X124775017Y-113115701D01*
X124675608Y-113077190D01*
X124576198Y-113038679D01*
X124366610Y-112999500D01*
X124153390Y-112999500D01*
X123943802Y-113038679D01*
X123943799Y-113038679D01*
X123943799Y-113038680D01*
X123744982Y-113115701D01*
X123744980Y-113115702D01*
X123563699Y-113227947D01*
X123406127Y-113371593D01*
X123277634Y-113541744D01*
X123210676Y-113676215D01*
X123163173Y-113727452D01*
X123095510Y-113744873D01*
X123029170Y-113722947D01*
X122987294Y-113673348D01*
X122893600Y-113472422D01*
X122893599Y-113472420D01*
X122758113Y-113278926D01*
X122758108Y-113278920D01*
X122591082Y-113111894D01*
X122397578Y-112976399D01*
X122183492Y-112876570D01*
X122183486Y-112876567D01*
X121970000Y-112819364D01*
X121970000Y-113716988D01*
X121912993Y-113684075D01*
X121785826Y-113650000D01*
X121654174Y-113650000D01*
X121527007Y-113684075D01*
X121470000Y-113716988D01*
X121470000Y-112819364D01*
X121469999Y-112819364D01*
X121256513Y-112876567D01*
X121256507Y-112876570D01*
X121042422Y-112976399D01*
X121042420Y-112976400D01*
X120848926Y-113111886D01*
X120848920Y-113111891D01*
X120681891Y-113278920D01*
X120681886Y-113278926D01*
X120546400Y-113472420D01*
X120546399Y-113472422D01*
X120452705Y-113673348D01*
X120406532Y-113725787D01*
X120339339Y-113744939D01*
X120272457Y-113724723D01*
X120229323Y-113676215D01*
X120162366Y-113541745D01*
X120033872Y-113371593D01*
X119876302Y-113227948D01*
X119695019Y-113115702D01*
X119695017Y-113115701D01*
X119595608Y-113077190D01*
X119496198Y-113038679D01*
X119286610Y-112999500D01*
X119073390Y-112999500D01*
X118863802Y-113038679D01*
X118863799Y-113038679D01*
X118863799Y-113038680D01*
X118664982Y-113115701D01*
X118664980Y-113115702D01*
X118483699Y-113227947D01*
X118326127Y-113371593D01*
X118197632Y-113541746D01*
X118102596Y-113732605D01*
X118102596Y-113732607D01*
X118044244Y-113937689D01*
X118033471Y-114053951D01*
X118007685Y-114118888D01*
X117963130Y-114150804D01*
X117854622Y-114150804D01*
X117856869Y-114149194D01*
X117820497Y-114128331D01*
X117788307Y-114066318D01*
X117786529Y-114053951D01*
X117785849Y-114046613D01*
X117775756Y-113937690D01*
X117717405Y-113732611D01*
X117717403Y-113732606D01*
X117717403Y-113732605D01*
X117622367Y-113541746D01*
X117493872Y-113371593D01*
X117425606Y-113309360D01*
X117336302Y-113227948D01*
X117155019Y-113115702D01*
X117155017Y-113115701D01*
X117055608Y-113077190D01*
X116956198Y-113038679D01*
X116746610Y-112999500D01*
X116533390Y-112999500D01*
X116323802Y-113038679D01*
X116323799Y-113038679D01*
X116323799Y-113038680D01*
X116124982Y-113115701D01*
X116124980Y-113115702D01*
X115943699Y-113227947D01*
X115786127Y-113371593D01*
X115657632Y-113541746D01*
X115562596Y-113732605D01*
X115562596Y-113732607D01*
X115504244Y-113937689D01*
X115493471Y-114053951D01*
X115467685Y-114118888D01*
X115423130Y-114150804D01*
X115314622Y-114150804D01*
X115316869Y-114149194D01*
X115280497Y-114128331D01*
X115248307Y-114066318D01*
X115246529Y-114053951D01*
X115245849Y-114046613D01*
X115235756Y-113937690D01*
X115177405Y-113732611D01*
X115177403Y-113732606D01*
X115177403Y-113732605D01*
X115082367Y-113541746D01*
X114953872Y-113371593D01*
X114885606Y-113309360D01*
X114796302Y-113227948D01*
X114615019Y-113115702D01*
X114615017Y-113115701D01*
X114515608Y-113077190D01*
X114416198Y-113038679D01*
X114206610Y-112999500D01*
X113993390Y-112999500D01*
X113783802Y-113038679D01*
X113783799Y-113038679D01*
X113783799Y-113038680D01*
X113584982Y-113115701D01*
X113584980Y-113115702D01*
X113403699Y-113227947D01*
X113246127Y-113371593D01*
X113117632Y-113541746D01*
X113022596Y-113732605D01*
X113022596Y-113732607D01*
X112964244Y-113937689D01*
X112953471Y-114053951D01*
X112927685Y-114118888D01*
X112883130Y-114150804D01*
X112774622Y-114150804D01*
X112776869Y-114149194D01*
X112740497Y-114128331D01*
X112708307Y-114066318D01*
X112706529Y-114053951D01*
X112705849Y-114046613D01*
X112695756Y-113937690D01*
X112637405Y-113732611D01*
X112637403Y-113732606D01*
X112637403Y-113732605D01*
X112542367Y-113541746D01*
X112413872Y-113371593D01*
X112345606Y-113309360D01*
X112256302Y-113227948D01*
X112075019Y-113115702D01*
X112075017Y-113115701D01*
X111975608Y-113077190D01*
X111876198Y-113038679D01*
X111666610Y-112999500D01*
X111453390Y-112999500D01*
X111243802Y-113038679D01*
X111243799Y-113038679D01*
X111243799Y-113038680D01*
X111044982Y-113115701D01*
X111044980Y-113115702D01*
X110863699Y-113227947D01*
X110706127Y-113371593D01*
X110577632Y-113541746D01*
X110482596Y-113732605D01*
X110482596Y-113732607D01*
X110424244Y-113937689D01*
X110413471Y-114053951D01*
X110387685Y-114118888D01*
X110343130Y-114150804D01*
X110234622Y-114150804D01*
X110236869Y-114149194D01*
X110200497Y-114128331D01*
X110168307Y-114066318D01*
X110166529Y-114053951D01*
X110165849Y-114046613D01*
X110155756Y-113937690D01*
X110097405Y-113732611D01*
X110097403Y-113732606D01*
X110097403Y-113732605D01*
X110002367Y-113541746D01*
X109873872Y-113371593D01*
X109805606Y-113309360D01*
X109716302Y-113227948D01*
X109535019Y-113115702D01*
X109535017Y-113115701D01*
X109435608Y-113077190D01*
X109336198Y-113038679D01*
X109126610Y-112999500D01*
X108913390Y-112999500D01*
X108703802Y-113038679D01*
X108703799Y-113038679D01*
X108703799Y-113038680D01*
X108504982Y-113115701D01*
X108504980Y-113115702D01*
X108323699Y-113227947D01*
X108166127Y-113371593D01*
X108037632Y-113541746D01*
X107942596Y-113732605D01*
X107942596Y-113732607D01*
X107884244Y-113937689D01*
X107873471Y-114053951D01*
X107847685Y-114118888D01*
X107803130Y-114150804D01*
X107694622Y-114150804D01*
X107696869Y-114149194D01*
X107660497Y-114128331D01*
X107628307Y-114066318D01*
X107626529Y-114053951D01*
X107625849Y-114046613D01*
X107615756Y-113937690D01*
X107557405Y-113732611D01*
X107557403Y-113732606D01*
X107557403Y-113732605D01*
X107462367Y-113541746D01*
X107333872Y-113371593D01*
X107265606Y-113309360D01*
X107176302Y-113227948D01*
X106995019Y-113115702D01*
X106995017Y-113115701D01*
X106895608Y-113077190D01*
X106796198Y-113038679D01*
X106586610Y-112999500D01*
X106373390Y-112999500D01*
X106163802Y-113038679D01*
X106163799Y-113038679D01*
X106163799Y-113038680D01*
X105964982Y-113115701D01*
X105964980Y-113115702D01*
X105783699Y-113227947D01*
X105626127Y-113371593D01*
X105497632Y-113541746D01*
X105402596Y-113732605D01*
X105402596Y-113732607D01*
X105344244Y-113937689D01*
X105333471Y-114053951D01*
X105307685Y-114118888D01*
X105263130Y-114150804D01*
X105154622Y-114150804D01*
X105156869Y-114149194D01*
X105120497Y-114128331D01*
X105088307Y-114066318D01*
X105086529Y-114053951D01*
X105085849Y-114046613D01*
X105075756Y-113937690D01*
X105017405Y-113732611D01*
X105017403Y-113732606D01*
X105017403Y-113732605D01*
X104922367Y-113541746D01*
X104793872Y-113371593D01*
X104725606Y-113309360D01*
X104636302Y-113227948D01*
X104455019Y-113115702D01*
X104455017Y-113115701D01*
X104355608Y-113077190D01*
X104256198Y-113038679D01*
X104046610Y-112999500D01*
X103833390Y-112999500D01*
X103623802Y-113038679D01*
X103623799Y-113038679D01*
X103623799Y-113038680D01*
X103424982Y-113115701D01*
X103424980Y-113115702D01*
X103243699Y-113227947D01*
X103086127Y-113371593D01*
X102957632Y-113541746D01*
X102862596Y-113732605D01*
X102862596Y-113732607D01*
X102804244Y-113937689D01*
X102793471Y-114053951D01*
X102767685Y-114118888D01*
X102723130Y-114150804D01*
X102614622Y-114150804D01*
X102616869Y-114149194D01*
X102580497Y-114128331D01*
X102548307Y-114066318D01*
X102546529Y-114053951D01*
X102545849Y-114046613D01*
X102535756Y-113937690D01*
X102477405Y-113732611D01*
X102477403Y-113732606D01*
X102477403Y-113732605D01*
X102382367Y-113541746D01*
X102253872Y-113371593D01*
X102185606Y-113309360D01*
X102096302Y-113227948D01*
X101915019Y-113115702D01*
X101915017Y-113115701D01*
X101815608Y-113077190D01*
X101716198Y-113038679D01*
X101506610Y-112999500D01*
X101293390Y-112999500D01*
X101083802Y-113038679D01*
X101083799Y-113038679D01*
X101083799Y-113038680D01*
X100884982Y-113115701D01*
X100884980Y-113115702D01*
X100703699Y-113227947D01*
X100546127Y-113371593D01*
X100417632Y-113541746D01*
X100322596Y-113732605D01*
X100322596Y-113732607D01*
X100264244Y-113937689D01*
X100253471Y-114053951D01*
X100227685Y-114118888D01*
X100183130Y-114150804D01*
X100074622Y-114150804D01*
X100076869Y-114149194D01*
X100040497Y-114128331D01*
X100008307Y-114066318D01*
X100006529Y-114053951D01*
X100005849Y-114046613D01*
X99995756Y-113937690D01*
X99937405Y-113732611D01*
X99937403Y-113732606D01*
X99937403Y-113732605D01*
X99842367Y-113541746D01*
X99713872Y-113371593D01*
X99645606Y-113309360D01*
X99556302Y-113227948D01*
X99375019Y-113115702D01*
X99375017Y-113115701D01*
X99275608Y-113077190D01*
X99176198Y-113038679D01*
X98966610Y-112999500D01*
X98753390Y-112999500D01*
X98543802Y-113038679D01*
X98543799Y-113038679D01*
X98543799Y-113038680D01*
X98344982Y-113115701D01*
X98344980Y-113115702D01*
X98163699Y-113227947D01*
X98006127Y-113371593D01*
X97877632Y-113541746D01*
X97782596Y-113732605D01*
X97782596Y-113732607D01*
X97724244Y-113937689D01*
X97713471Y-114053951D01*
X97687685Y-114118888D01*
X97643130Y-114150804D01*
X97534622Y-114150804D01*
X97536869Y-114149194D01*
X97500497Y-114128331D01*
X97468307Y-114066318D01*
X97466529Y-114053951D01*
X97465849Y-114046613D01*
X97455756Y-113937690D01*
X97397405Y-113732611D01*
X97397403Y-113732606D01*
X97397403Y-113732605D01*
X97302367Y-113541746D01*
X97173872Y-113371593D01*
X97105606Y-113309360D01*
X97016302Y-113227948D01*
X96835019Y-113115702D01*
X96835017Y-113115701D01*
X96735608Y-113077190D01*
X96636198Y-113038679D01*
X96426610Y-112999500D01*
X96213390Y-112999500D01*
X96003802Y-113038679D01*
X96003799Y-113038679D01*
X96003799Y-113038680D01*
X95804982Y-113115701D01*
X95804980Y-113115702D01*
X95623699Y-113227947D01*
X95466127Y-113371593D01*
X95337632Y-113541746D01*
X95242596Y-113732605D01*
X95242596Y-113732607D01*
X95184244Y-113937689D01*
X95173471Y-114053951D01*
X95147685Y-114118888D01*
X95103130Y-114150804D01*
X94994622Y-114150804D01*
X94996869Y-114149194D01*
X94960497Y-114128331D01*
X94928307Y-114066318D01*
X94926529Y-114053951D01*
X94925849Y-114046613D01*
X94915756Y-113937690D01*
X94857405Y-113732611D01*
X94857403Y-113732606D01*
X94857403Y-113732605D01*
X94762367Y-113541746D01*
X94633872Y-113371593D01*
X94565606Y-113309360D01*
X94476302Y-113227948D01*
X94295019Y-113115702D01*
X94295017Y-113115701D01*
X94195608Y-113077190D01*
X94096198Y-113038679D01*
X93886610Y-112999500D01*
X93673390Y-112999500D01*
X93463802Y-113038679D01*
X93463799Y-113038679D01*
X93463799Y-113038680D01*
X93264982Y-113115701D01*
X93264980Y-113115702D01*
X93083699Y-113227947D01*
X92926127Y-113371593D01*
X92797632Y-113541746D01*
X92702596Y-113732605D01*
X92702596Y-113732607D01*
X92644244Y-113937689D01*
X92633471Y-114053951D01*
X92607685Y-114118888D01*
X92563130Y-114150804D01*
X92454622Y-114150804D01*
X92456869Y-114149194D01*
X92420497Y-114128331D01*
X92388307Y-114066318D01*
X92386529Y-114053951D01*
X92385849Y-114046613D01*
X92375756Y-113937690D01*
X92317405Y-113732611D01*
X92317403Y-113732606D01*
X92317403Y-113732605D01*
X92222367Y-113541746D01*
X92093872Y-113371593D01*
X92025606Y-113309360D01*
X91936302Y-113227948D01*
X91755019Y-113115702D01*
X91755017Y-113115701D01*
X91655608Y-113077190D01*
X91556198Y-113038679D01*
X91346610Y-112999500D01*
X91133390Y-112999500D01*
X90923802Y-113038679D01*
X90923799Y-113038679D01*
X90923799Y-113038680D01*
X90724982Y-113115701D01*
X90724980Y-113115702D01*
X90543699Y-113227947D01*
X90386127Y-113371593D01*
X90257632Y-113541746D01*
X90162596Y-113732605D01*
X90162596Y-113732607D01*
X90104244Y-113937689D01*
X90093471Y-114053951D01*
X90067685Y-114118888D01*
X90023130Y-114150804D01*
X89914622Y-114150804D01*
X89916869Y-114149194D01*
X89880497Y-114128331D01*
X89848307Y-114066318D01*
X89846529Y-114053951D01*
X89845849Y-114046613D01*
X89835756Y-113937690D01*
X89777405Y-113732611D01*
X89777403Y-113732606D01*
X89777403Y-113732605D01*
X89682367Y-113541746D01*
X89553872Y-113371593D01*
X89485606Y-113309360D01*
X89396302Y-113227948D01*
X89215019Y-113115702D01*
X89215017Y-113115701D01*
X89115608Y-113077190D01*
X89016198Y-113038679D01*
X88806610Y-112999500D01*
X88593390Y-112999500D01*
X88383802Y-113038679D01*
X88383799Y-113038679D01*
X88383799Y-113038680D01*
X88184982Y-113115701D01*
X88184980Y-113115702D01*
X88003699Y-113227947D01*
X87846127Y-113371593D01*
X87714179Y-113546320D01*
X87713022Y-113545446D01*
X87666207Y-113587412D01*
X87612806Y-113599500D01*
X86679386Y-113599500D01*
X86612347Y-113579815D01*
X86591705Y-113563181D01*
X86097836Y-113069312D01*
X85588015Y-112559490D01*
X85086819Y-112058294D01*
X85053334Y-111996971D01*
X85050500Y-111970613D01*
X85050500Y-108836499D01*
X85070185Y-108769460D01*
X85122989Y-108723705D01*
X85174500Y-108712499D01*
X85306856Y-108712499D01*
X85306864Y-108712499D01*
X85306879Y-108712497D01*
X85306882Y-108712497D01*
X85331987Y-108709586D01*
X85331988Y-108709585D01*
X85331991Y-108709585D01*
X85434765Y-108664206D01*
X85514206Y-108584765D01*
X85559585Y-108481991D01*
X85562500Y-108456865D01*
X85562499Y-106843136D01*
X85562008Y-106838899D01*
X85559586Y-106818012D01*
X85559585Y-106818010D01*
X85559585Y-106818009D01*
X85514206Y-106715235D01*
X85434765Y-106635794D01*
X85405255Y-106622764D01*
X85331992Y-106590415D01*
X85306868Y-106587500D01*
X84803761Y-106587500D01*
X84736722Y-106567815D01*
X84690967Y-106515011D01*
X84681023Y-106445853D01*
X84710048Y-106382297D01*
X84768826Y-106344523D01*
X84771668Y-106343725D01*
X84933270Y-106300424D01*
X84933284Y-106300419D01*
X85133407Y-106207100D01*
X85133417Y-106207094D01*
X85198188Y-106161741D01*
X84527448Y-105491000D01*
X84550160Y-105491000D01*
X84647061Y-105465036D01*
X84733940Y-105414876D01*
X84804876Y-105343940D01*
X84855036Y-105257061D01*
X84881000Y-105160160D01*
X84881000Y-105137447D01*
X85551741Y-105808188D01*
X85597094Y-105743417D01*
X85597100Y-105743407D01*
X85690419Y-105543284D01*
X85690424Y-105543270D01*
X85747573Y-105329986D01*
X85747575Y-105329976D01*
X85766821Y-105110000D01*
X85766821Y-105109999D01*
X85747575Y-104890023D01*
X85747573Y-104890013D01*
X85690424Y-104676729D01*
X85690420Y-104676720D01*
X85597096Y-104476586D01*
X85551741Y-104411811D01*
X85551740Y-104411810D01*
X84881000Y-105082551D01*
X84881000Y-105059840D01*
X84855036Y-104962939D01*
X84804876Y-104876060D01*
X84733940Y-104805124D01*
X84647061Y-104754964D01*
X84550160Y-104729000D01*
X84527448Y-104729000D01*
X85198188Y-104058259D01*
X85198187Y-104058258D01*
X85133411Y-104012901D01*
X85133405Y-104012898D01*
X84933284Y-103919580D01*
X84933270Y-103919575D01*
X84719986Y-103862426D01*
X84714652Y-103861486D01*
X84714872Y-103860233D01*
X84655550Y-103837027D01*
X84614573Y-103780436D01*
X84610696Y-103710674D01*
X84645150Y-103649890D01*
X84702685Y-103619649D01*
X84702457Y-103618895D01*
X84706392Y-103617701D01*
X84706998Y-103617383D01*
X84707239Y-103617335D01*
X84708276Y-103617127D01*
X84708286Y-103617127D01*
X84908569Y-103556372D01*
X85093150Y-103457711D01*
X85254936Y-103324936D01*
X85387711Y-103163150D01*
X85486372Y-102978569D01*
X85547127Y-102778286D01*
X85567641Y-102570000D01*
X85547127Y-102361714D01*
X85486372Y-102161431D01*
X85387711Y-101976850D01*
X85256197Y-101816600D01*
X85254936Y-101815063D01*
X85093153Y-101682291D01*
X85093151Y-101682290D01*
X85093150Y-101682289D01*
X84908569Y-101583628D01*
X84808427Y-101553250D01*
X84708284Y-101522872D01*
X84500000Y-101502359D01*
X84291715Y-101522872D01*
X84091428Y-101583629D01*
X83906846Y-101682291D01*
X83745063Y-101815063D01*
X83612291Y-101976846D01*
X83513629Y-102161428D01*
X83452872Y-102361715D01*
X83432359Y-102570000D01*
X83452872Y-102778284D01*
X83452873Y-102778286D01*
X83513628Y-102978569D01*
X83531515Y-103012034D01*
X83612291Y-103163153D01*
X83745063Y-103324936D01*
X83906846Y-103457708D01*
X83906850Y-103457711D01*
X84091431Y-103556372D01*
X84291714Y-103617127D01*
X84291716Y-103617127D01*
X84291719Y-103617128D01*
X84292763Y-103617336D01*
X84293259Y-103617595D01*
X84297543Y-103618895D01*
X84297296Y-103619707D01*
X84354674Y-103649721D01*
X84389248Y-103710437D01*
X84385508Y-103780207D01*
X84344641Y-103836878D01*
X84285137Y-103860290D01*
X84285348Y-103861486D01*
X84280013Y-103862426D01*
X84066729Y-103919575D01*
X84066720Y-103919579D01*
X83866590Y-104012901D01*
X83801811Y-104058258D01*
X84472553Y-104729000D01*
X84449840Y-104729000D01*
X84352939Y-104754964D01*
X84266060Y-104805124D01*
X84195124Y-104876060D01*
X84144964Y-104962939D01*
X84119000Y-105059840D01*
X84119000Y-105082553D01*
X83448258Y-104411811D01*
X83402901Y-104476590D01*
X83309579Y-104676720D01*
X83309575Y-104676729D01*
X83252426Y-104890013D01*
X83252424Y-104890023D01*
X83233179Y-105109999D01*
X83233179Y-105110000D01*
X83252424Y-105329976D01*
X83252426Y-105329986D01*
X83309575Y-105543270D01*
X83309580Y-105543284D01*
X83402898Y-105743405D01*
X83402901Y-105743411D01*
X83448258Y-105808187D01*
X83448259Y-105808188D01*
X84119000Y-105137447D01*
X84119000Y-105160160D01*
X84144964Y-105257061D01*
X84195124Y-105343940D01*
X84266060Y-105414876D01*
X84352939Y-105465036D01*
X84449840Y-105491000D01*
X84472553Y-105491000D01*
X83801810Y-106161740D01*
X83866590Y-106207099D01*
X83866592Y-106207100D01*
X84066715Y-106300419D01*
X84066729Y-106300424D01*
X84228332Y-106343725D01*
X84287993Y-106380090D01*
X84318522Y-106442937D01*
X84310227Y-106512312D01*
X84265742Y-106566190D01*
X84199190Y-106587465D01*
X84196239Y-106587500D01*
X83693143Y-106587500D01*
X83693117Y-106587502D01*
X83668012Y-106590413D01*
X83668008Y-106590415D01*
X83565235Y-106635793D01*
X83485794Y-106715234D01*
X83440415Y-106818006D01*
X83440415Y-106818008D01*
X83437500Y-106843131D01*
X83437500Y-108456856D01*
X83437502Y-108456882D01*
X83440413Y-108481987D01*
X83440415Y-108481991D01*
X83485793Y-108584764D01*
X83485794Y-108584765D01*
X83565235Y-108664206D01*
X83668009Y-108709585D01*
X83693135Y-108712500D01*
X83825500Y-108712499D01*
X83892539Y-108732183D01*
X83938294Y-108784987D01*
X83949500Y-108836499D01*
X83949500Y-110621613D01*
X83929815Y-110688652D01*
X83877011Y-110734407D01*
X83807853Y-110744351D01*
X83744297Y-110715326D01*
X83737819Y-110709294D01*
X82836819Y-109808294D01*
X82803334Y-109746971D01*
X82800500Y-109720613D01*
X82800500Y-100030000D01*
X83432359Y-100030000D01*
X83452872Y-100238284D01*
X83465280Y-100279186D01*
X83511125Y-100430319D01*
X83513629Y-100438571D01*
X83612291Y-100623153D01*
X83745063Y-100784936D01*
X83884081Y-100899025D01*
X83906850Y-100917711D01*
X84091431Y-101016372D01*
X84291714Y-101077127D01*
X84500000Y-101097641D01*
X84708286Y-101077127D01*
X84908569Y-101016372D01*
X85093150Y-100917711D01*
X85254936Y-100784936D01*
X85387711Y-100623150D01*
X85452950Y-100501096D01*
X123450000Y-100501096D01*
X123452897Y-100543824D01*
X123498831Y-100728523D01*
X123583390Y-100899022D01*
X123583392Y-100899025D01*
X123702632Y-101047366D01*
X123702633Y-101047367D01*
X123850974Y-101166607D01*
X123850977Y-101166609D01*
X124021476Y-101251168D01*
X124206175Y-101297102D01*
X124248903Y-101300000D01*
X124450000Y-101300000D01*
X124950000Y-101300000D01*
X125151097Y-101300000D01*
X125193824Y-101297102D01*
X125378523Y-101251168D01*
X125549022Y-101166609D01*
X125549025Y-101166607D01*
X125697366Y-101047367D01*
X125697367Y-101047366D01*
X125816607Y-100899025D01*
X125853982Y-100823664D01*
X125901403Y-100772350D01*
X125969038Y-100754820D01*
X126035413Y-100776639D01*
X126071188Y-100814607D01*
X126089350Y-100844650D01*
X126089351Y-100844652D01*
X126205347Y-100960648D01*
X126205351Y-100960651D01*
X126311664Y-101024918D01*
X126345730Y-101045512D01*
X126362389Y-101050703D01*
X126420535Y-101089437D01*
X126448511Y-101153461D01*
X126449500Y-101169088D01*
X126449500Y-103350125D01*
X126449500Y-103495073D01*
X126487016Y-103635084D01*
X126553073Y-103749500D01*
X126559489Y-103760612D01*
X126559491Y-103760615D01*
X128490582Y-105691706D01*
X128524067Y-105753029D01*
X128526901Y-105779387D01*
X128526901Y-106494856D01*
X128526903Y-106494882D01*
X128529814Y-106519987D01*
X128529816Y-106519991D01*
X128575194Y-106622764D01*
X128575195Y-106622765D01*
X128654636Y-106702206D01*
X128696286Y-106720596D01*
X128757407Y-106747584D01*
X128757410Y-106747585D01*
X128767187Y-106748719D01*
X128831512Y-106775996D01*
X128870879Y-106833720D01*
X128876901Y-106871893D01*
X128876901Y-107904927D01*
X128876901Y-108049875D01*
X128914417Y-108189886D01*
X128985360Y-108312765D01*
X128986890Y-108315414D01*
X128986892Y-108315417D01*
X133679464Y-113007989D01*
X133712949Y-113069312D01*
X133707965Y-113139004D01*
X133666093Y-113194937D01*
X133657064Y-113201095D01*
X133613700Y-113227946D01*
X133456127Y-113371593D01*
X133327632Y-113541746D01*
X133232596Y-113732605D01*
X133232596Y-113732607D01*
X133214266Y-113797030D01*
X133176986Y-113856123D01*
X133113676Y-113885680D01*
X133044437Y-113876318D01*
X132991251Y-113831007D01*
X132975734Y-113797030D01*
X132957405Y-113732611D01*
X132957403Y-113732606D01*
X132957403Y-113732605D01*
X132862367Y-113541746D01*
X132733872Y-113371593D01*
X132665606Y-113309360D01*
X132576302Y-113227948D01*
X132395019Y-113115702D01*
X132395017Y-113115701D01*
X132295608Y-113077190D01*
X132196198Y-113038679D01*
X131986610Y-112999500D01*
X131773390Y-112999500D01*
X131563802Y-113038679D01*
X131563799Y-113038679D01*
X131563799Y-113038680D01*
X131364982Y-113115701D01*
X131364980Y-113115702D01*
X131183699Y-113227947D01*
X131026127Y-113371593D01*
X130897632Y-113541746D01*
X130802596Y-113732605D01*
X130802596Y-113732607D01*
X130744244Y-113937689D01*
X130733471Y-114053951D01*
X130707685Y-114118888D01*
X130663130Y-114150804D01*
X130699503Y-114171668D01*
X130731693Y-114233681D01*
X130733470Y-114246047D01*
X130744244Y-114362310D01*
X130797675Y-114550099D01*
X130802596Y-114567392D01*
X130802596Y-114567394D01*
X130897632Y-114758253D01*
X131026127Y-114928406D01*
X131026128Y-114928407D01*
X131183698Y-115072052D01*
X131364981Y-115184298D01*
X131563802Y-115261321D01*
X131773390Y-115300500D01*
X131773392Y-115300500D01*
X131986608Y-115300500D01*
X131986610Y-115300500D01*
X132196198Y-115261321D01*
X132395019Y-115184298D01*
X132576302Y-115072052D01*
X132733872Y-114928407D01*
X132862366Y-114758255D01*
X132864644Y-114753680D01*
X132957403Y-114567394D01*
X132957403Y-114567393D01*
X132957405Y-114567389D01*
X132975734Y-114502967D01*
X133013013Y-114443876D01*
X133076323Y-114414319D01*
X133145563Y-114423681D01*
X133198749Y-114468991D01*
X133214264Y-114502966D01*
X133229087Y-114555060D01*
X133232596Y-114567392D01*
X133232596Y-114567394D01*
X133327632Y-114758253D01*
X133456127Y-114928406D01*
X133456128Y-114928407D01*
X133613698Y-115072052D01*
X133794981Y-115184298D01*
X133993802Y-115261321D01*
X134203390Y-115300500D01*
X134203392Y-115300500D01*
X134416608Y-115300500D01*
X134416610Y-115300500D01*
X134626198Y-115261321D01*
X134825019Y-115184298D01*
X135006302Y-115072052D01*
X135163872Y-114928407D01*
X135292366Y-114758255D01*
X135294644Y-114753680D01*
X135387403Y-114567394D01*
X135387403Y-114567393D01*
X135387405Y-114567389D01*
X135445756Y-114362310D01*
X135465429Y-114150000D01*
X135445756Y-113937690D01*
X135387405Y-113732611D01*
X135387403Y-113732606D01*
X135387403Y-113732605D01*
X135292367Y-113541746D01*
X135163872Y-113371593D01*
X135006299Y-113227945D01*
X134919221Y-113174028D01*
X134872586Y-113122000D01*
X134860500Y-113068602D01*
X134860500Y-112787527D01*
X134860500Y-112787525D01*
X134822984Y-112647515D01*
X134772163Y-112559490D01*
X134750510Y-112521985D01*
X131460423Y-109231898D01*
X136774500Y-109231898D01*
X136774500Y-110068102D01*
X136780126Y-110114954D01*
X136785122Y-110156561D01*
X136840639Y-110297343D01*
X136932077Y-110417922D01*
X137052656Y-110509360D01*
X137052657Y-110509360D01*
X137052658Y-110509361D01*
X137193436Y-110564877D01*
X137281898Y-110575500D01*
X137281903Y-110575500D01*
X139518097Y-110575500D01*
X139518102Y-110575500D01*
X139606564Y-110564877D01*
X139747342Y-110509361D01*
X139867922Y-110417922D01*
X139881837Y-110399573D01*
X139938030Y-110358051D01*
X139980640Y-110350500D01*
X140158481Y-110350500D01*
X140225520Y-110370185D01*
X140246157Y-110386814D01*
X140333457Y-110474114D01*
X140448189Y-110550775D01*
X140448192Y-110550777D01*
X140575667Y-110603578D01*
X140575672Y-110603580D01*
X140575676Y-110603580D01*
X140575677Y-110603581D01*
X140711003Y-110630500D01*
X140711006Y-110630500D01*
X140711007Y-110630500D01*
X141688301Y-110630500D01*
X141755340Y-110650185D01*
X141779937Y-110670961D01*
X141783234Y-110674578D01*
X141933958Y-110811980D01*
X141933960Y-110811982D01*
X142033141Y-110873392D01*
X142107363Y-110919348D01*
X142297544Y-110993024D01*
X142498024Y-111030500D01*
X142498026Y-111030500D01*
X142701974Y-111030500D01*
X142701976Y-111030500D01*
X142902456Y-110993024D01*
X143092637Y-110919348D01*
X143266041Y-110811981D01*
X143416764Y-110674579D01*
X143539673Y-110511821D01*
X143630582Y-110329250D01*
X143686397Y-110133083D01*
X143705215Y-109930000D01*
X143686397Y-109726917D01*
X143630582Y-109530750D01*
X143539673Y-109348179D01*
X143446894Y-109225320D01*
X143416762Y-109185418D01*
X143266041Y-109048019D01*
X143266039Y-109048017D01*
X143092642Y-108940655D01*
X143092635Y-108940651D01*
X142941436Y-108882077D01*
X142902456Y-108866976D01*
X142701976Y-108829500D01*
X142498024Y-108829500D01*
X142297544Y-108866976D01*
X142297541Y-108866976D01*
X142297541Y-108866977D01*
X142107364Y-108940651D01*
X142107357Y-108940655D01*
X141933960Y-109048017D01*
X141933958Y-109048019D01*
X141783234Y-109185421D01*
X141779937Y-109189039D01*
X141720226Y-109225320D01*
X141688301Y-109229500D01*
X141121519Y-109229500D01*
X141054480Y-109209815D01*
X141033842Y-109193185D01*
X140946543Y-109105886D01*
X140869530Y-109054428D01*
X140831807Y-109029222D01*
X140704332Y-108976421D01*
X140704322Y-108976418D01*
X140568996Y-108949500D01*
X140568994Y-108949500D01*
X140568993Y-108949500D01*
X139980640Y-108949500D01*
X139913601Y-108929815D01*
X139881837Y-108900427D01*
X139867921Y-108882077D01*
X139747343Y-108790639D01*
X139606561Y-108735122D01*
X139560926Y-108729642D01*
X139518102Y-108724500D01*
X137281898Y-108724500D01*
X137242853Y-108729188D01*
X137193438Y-108735122D01*
X137052656Y-108790639D01*
X136932077Y-108882077D01*
X136840639Y-109002656D01*
X136785122Y-109143438D01*
X136780081Y-109185421D01*
X136774500Y-109231898D01*
X131460423Y-109231898D01*
X130067566Y-107839041D01*
X136119311Y-107839041D01*
X136207585Y-107893698D01*
X136397678Y-107967340D01*
X136598072Y-108004801D01*
X136801928Y-108004801D01*
X137002322Y-107967340D01*
X137192412Y-107893700D01*
X137192416Y-107893698D01*
X137280686Y-107839042D01*
X137280686Y-107839041D01*
X136700001Y-107258354D01*
X136700000Y-107258354D01*
X136119311Y-107839041D01*
X130067566Y-107839041D01*
X130014220Y-107785695D01*
X129980735Y-107724372D01*
X129977901Y-107698014D01*
X129977901Y-106871893D01*
X129997586Y-106804854D01*
X130021376Y-106784240D01*
X130846712Y-106784240D01*
X130934986Y-106838897D01*
X131125079Y-106912539D01*
X131325473Y-106950000D01*
X131529329Y-106950000D01*
X131729723Y-106912539D01*
X131749700Y-106904800D01*
X135595287Y-106904800D01*
X135595287Y-106904801D01*
X135614096Y-107107790D01*
X135614097Y-107107793D01*
X135669883Y-107303864D01*
X135669886Y-107303870D01*
X135760751Y-107486352D01*
X135762533Y-107488712D01*
X136346446Y-106904801D01*
X136306950Y-106865305D01*
X136400000Y-106865305D01*
X136400000Y-106944297D01*
X136420444Y-107020597D01*
X136459940Y-107089006D01*
X136515795Y-107144861D01*
X136584204Y-107184357D01*
X136660504Y-107204801D01*
X136739496Y-107204801D01*
X136815796Y-107184357D01*
X136884205Y-107144861D01*
X136940060Y-107089006D01*
X136979556Y-107020597D01*
X137000000Y-106944297D01*
X137000000Y-106904801D01*
X137053553Y-106904801D01*
X137637465Y-107488713D01*
X137639247Y-107486354D01*
X137639248Y-107486352D01*
X137730113Y-107303870D01*
X137730116Y-107303864D01*
X137785902Y-107107793D01*
X137785903Y-107107790D01*
X137804713Y-106904801D01*
X137804713Y-106904800D01*
X137785903Y-106701811D01*
X137785902Y-106701808D01*
X137730116Y-106505737D01*
X137730113Y-106505731D01*
X137639249Y-106323250D01*
X137639247Y-106323248D01*
X137637465Y-106320888D01*
X137053553Y-106904801D01*
X137000000Y-106904801D01*
X137000000Y-106865305D01*
X136979556Y-106789005D01*
X136940060Y-106720596D01*
X136884205Y-106664741D01*
X136815796Y-106625245D01*
X136739496Y-106604801D01*
X136660504Y-106604801D01*
X136584204Y-106625245D01*
X136515795Y-106664741D01*
X136459940Y-106720596D01*
X136420444Y-106789005D01*
X136400000Y-106865305D01*
X136306950Y-106865305D01*
X135762533Y-106320888D01*
X135760755Y-106323243D01*
X135760754Y-106323244D01*
X135669886Y-106505731D01*
X135669883Y-106505737D01*
X135614097Y-106701808D01*
X135614096Y-106701811D01*
X135595287Y-106904800D01*
X131749700Y-106904800D01*
X131919813Y-106838899D01*
X131919817Y-106838897D01*
X132008087Y-106784241D01*
X132008087Y-106784240D01*
X131427402Y-106203553D01*
X131427401Y-106203553D01*
X130846712Y-106784240D01*
X130021376Y-106784240D01*
X130050390Y-106759099D01*
X130087614Y-106748718D01*
X130097392Y-106747585D01*
X130200166Y-106702206D01*
X130279607Y-106622765D01*
X130324986Y-106519991D01*
X130324985Y-106519991D01*
X130328754Y-106511458D01*
X130330585Y-106512266D01*
X130360896Y-106462954D01*
X130423856Y-106432659D01*
X130452553Y-106431316D01*
X130489934Y-106433911D01*
X131073847Y-105850000D01*
X131073847Y-105849999D01*
X131034352Y-105810504D01*
X131127401Y-105810504D01*
X131127401Y-105889496D01*
X131147845Y-105965796D01*
X131187341Y-106034205D01*
X131243196Y-106090060D01*
X131311605Y-106129556D01*
X131387905Y-106150000D01*
X131466897Y-106150000D01*
X131543197Y-106129556D01*
X131611606Y-106090060D01*
X131667461Y-106034205D01*
X131706957Y-105965796D01*
X131727401Y-105889496D01*
X131727401Y-105850000D01*
X131780954Y-105850000D01*
X132364866Y-106433912D01*
X132366648Y-106431553D01*
X132366649Y-106431551D01*
X132457514Y-106249069D01*
X132457517Y-106249063D01*
X132513303Y-106052992D01*
X132513304Y-106052989D01*
X132532114Y-105850000D01*
X132532114Y-105849999D01*
X132513304Y-105647010D01*
X132513303Y-105647007D01*
X132457517Y-105450936D01*
X132457514Y-105450930D01*
X132366650Y-105268449D01*
X132366648Y-105268447D01*
X132364866Y-105266087D01*
X131780954Y-105850000D01*
X131727401Y-105850000D01*
X131727401Y-105810504D01*
X131706957Y-105734204D01*
X131667461Y-105665795D01*
X131611606Y-105609940D01*
X131543197Y-105570444D01*
X131466897Y-105550000D01*
X131387905Y-105550000D01*
X131311605Y-105570444D01*
X131243196Y-105609940D01*
X131187341Y-105665795D01*
X131147845Y-105734204D01*
X131127401Y-105810504D01*
X131034352Y-105810504D01*
X130489933Y-105266086D01*
X130452565Y-105268685D01*
X130384322Y-105253698D01*
X130335014Y-105204195D01*
X130328499Y-105187965D01*
X130279607Y-105077235D01*
X130200166Y-104997794D01*
X130097393Y-104952415D01*
X130072269Y-104949500D01*
X130072266Y-104949500D01*
X129356788Y-104949500D01*
X129289749Y-104929815D01*
X129272305Y-104915758D01*
X130846712Y-104915758D01*
X131427401Y-105496446D01*
X131427402Y-105496446D01*
X132008088Y-104915758D01*
X131919814Y-104861101D01*
X131919812Y-104861100D01*
X131729722Y-104787460D01*
X131529329Y-104750000D01*
X131325473Y-104750000D01*
X131125079Y-104787460D01*
X130934989Y-104861100D01*
X130934982Y-104861104D01*
X130846713Y-104915757D01*
X130846712Y-104915758D01*
X129272305Y-104915758D01*
X129269107Y-104913181D01*
X127586819Y-103230893D01*
X127553334Y-103169570D01*
X127550500Y-103143212D01*
X127550500Y-101169088D01*
X127570185Y-101102049D01*
X127622989Y-101056294D01*
X127637596Y-101050707D01*
X127654270Y-101045512D01*
X127794653Y-100960648D01*
X127910648Y-100844653D01*
X127951764Y-100776639D01*
X127995511Y-100704272D01*
X127995514Y-100704264D01*
X128031615Y-100588413D01*
X128070352Y-100530265D01*
X128134377Y-100502291D01*
X128203363Y-100513373D01*
X128255406Y-100559991D01*
X128268385Y-100588413D01*
X128304485Y-100704264D01*
X128304488Y-100704272D01*
X128389348Y-100844648D01*
X128389351Y-100844652D01*
X128505347Y-100960648D01*
X128505351Y-100960651D01*
X128645727Y-101045511D01*
X128645736Y-101045514D01*
X128651683Y-101047367D01*
X128802343Y-101094315D01*
X128870406Y-101100500D01*
X129558481Y-101100500D01*
X129625520Y-101120185D01*
X129646162Y-101136819D01*
X133958254Y-105448912D01*
X133958255Y-105448913D01*
X134072993Y-105525578D01*
X134181311Y-105570444D01*
X134200473Y-105578381D01*
X134200477Y-105578381D01*
X134200478Y-105578382D01*
X134335804Y-105605301D01*
X134335807Y-105605301D01*
X134335808Y-105605301D01*
X135735088Y-105605301D01*
X135802127Y-105624986D01*
X135840154Y-105668872D01*
X135841301Y-105668087D01*
X135847794Y-105677566D01*
X135927235Y-105757007D01*
X136030009Y-105802386D01*
X136030011Y-105802386D01*
X136032575Y-105803084D01*
X136035088Y-105804629D01*
X136038542Y-105806154D01*
X136038334Y-105806624D01*
X136092097Y-105839674D01*
X136122388Y-105902636D01*
X136123202Y-105937026D01*
X136119311Y-105970559D01*
X136700000Y-106551247D01*
X136700001Y-106551247D01*
X137280686Y-105970560D01*
X137276796Y-105937027D01*
X137288623Y-105868166D01*
X137335802Y-105816630D01*
X137367426Y-105803083D01*
X137369980Y-105802387D01*
X137369991Y-105802386D01*
X137472765Y-105757007D01*
X137552206Y-105677566D01*
X137552207Y-105677561D01*
X137558699Y-105668087D01*
X137560078Y-105669032D01*
X137596564Y-105625838D01*
X137663350Y-105605311D01*
X137664912Y-105605301D01*
X138213282Y-105605301D01*
X138280321Y-105624986D01*
X138300963Y-105641620D01*
X140593451Y-107934109D01*
X140593454Y-107934112D01*
X140651373Y-107972812D01*
X140708182Y-108010771D01*
X140708195Y-108010778D01*
X140802585Y-108049875D01*
X140835672Y-108063580D01*
X140835676Y-108063580D01*
X140835677Y-108063581D01*
X140971004Y-108090500D01*
X140971007Y-108090500D01*
X141428107Y-108090500D01*
X141495146Y-108110185D01*
X141540901Y-108162989D01*
X141551282Y-108200217D01*
X141552415Y-108209992D01*
X141597793Y-108312764D01*
X141597794Y-108312765D01*
X141677235Y-108392206D01*
X141780009Y-108437585D01*
X141805135Y-108440500D01*
X143394864Y-108440499D01*
X143394879Y-108440497D01*
X143394882Y-108440497D01*
X143419987Y-108437586D01*
X143419988Y-108437585D01*
X143419991Y-108437585D01*
X143522765Y-108392206D01*
X143602206Y-108312765D01*
X143647585Y-108209991D01*
X143650500Y-108184865D01*
X143650499Y-106595136D01*
X143649952Y-106590415D01*
X143647586Y-106570012D01*
X143647585Y-106570010D01*
X143647585Y-106570009D01*
X143602206Y-106467235D01*
X143522765Y-106387794D01*
X143522763Y-106387793D01*
X143419992Y-106342415D01*
X143394865Y-106339500D01*
X141805143Y-106339500D01*
X141805117Y-106339502D01*
X141780012Y-106342413D01*
X141780008Y-106342415D01*
X141677235Y-106387793D01*
X141597794Y-106467234D01*
X141552415Y-106570006D01*
X141552415Y-106570008D01*
X141551280Y-106579792D01*
X141523999Y-106644116D01*
X141466273Y-106683480D01*
X141428106Y-106689500D01*
X141381519Y-106689500D01*
X141314480Y-106669815D01*
X141293838Y-106653181D01*
X139001347Y-104360689D01*
X139001346Y-104360688D01*
X138886608Y-104284023D01*
X138759133Y-104231222D01*
X138759123Y-104231219D01*
X138623797Y-104204301D01*
X138623795Y-104204301D01*
X138623794Y-104204301D01*
X137664912Y-104204301D01*
X137597873Y-104184616D01*
X137559845Y-104140729D01*
X137558699Y-104141515D01*
X137552205Y-104132035D01*
X137472765Y-104052595D01*
X137369992Y-104007216D01*
X137344865Y-104004301D01*
X136055143Y-104004301D01*
X136055117Y-104004303D01*
X136030012Y-104007214D01*
X136030008Y-104007216D01*
X135927235Y-104052594D01*
X135847794Y-104132035D01*
X135841301Y-104141515D01*
X135839921Y-104140569D01*
X135803436Y-104183764D01*
X135736650Y-104204291D01*
X135735088Y-104204301D01*
X134746320Y-104204301D01*
X134679281Y-104184616D01*
X134658639Y-104167982D01*
X130386819Y-99896162D01*
X130363895Y-99854180D01*
X137868816Y-99854180D01*
X137875217Y-99913708D01*
X137875219Y-99913715D01*
X137925461Y-100048422D01*
X137925465Y-100048429D01*
X138011625Y-100163522D01*
X138090579Y-100222628D01*
X138132450Y-100278562D01*
X138137434Y-100348254D01*
X138103951Y-100409574D01*
X138083206Y-100430319D01*
X138083199Y-100430328D01*
X137990553Y-100568983D01*
X137990551Y-100568986D01*
X137926736Y-100723051D01*
X137926733Y-100723061D01*
X137894200Y-100886614D01*
X137894200Y-100886617D01*
X137894200Y-101053383D01*
X137894200Y-101053385D01*
X137894199Y-101053385D01*
X137926733Y-101216938D01*
X137926736Y-101216948D01*
X137990551Y-101371013D01*
X137990553Y-101371016D01*
X138083199Y-101509671D01*
X138083205Y-101509679D01*
X138201120Y-101627594D01*
X138201128Y-101627600D01*
X138339783Y-101720246D01*
X138339786Y-101720248D01*
X138493851Y-101784063D01*
X138493856Y-101784065D01*
X138493860Y-101784065D01*
X138493861Y-101784066D01*
X138657414Y-101816600D01*
X138657417Y-101816600D01*
X139433785Y-101816600D01*
X139543819Y-101794711D01*
X139597344Y-101784065D01*
X139751415Y-101720247D01*
X139890076Y-101627597D01*
X140007997Y-101509676D01*
X140100647Y-101371015D01*
X140164465Y-101216944D01*
X140187628Y-101100500D01*
X140197000Y-101053385D01*
X140197000Y-100886614D01*
X140164466Y-100723061D01*
X140164465Y-100723060D01*
X140164465Y-100723056D01*
X140164463Y-100723051D01*
X140100648Y-100568986D01*
X140100646Y-100568983D01*
X140008000Y-100430328D01*
X140007994Y-100430320D01*
X139918183Y-100340509D01*
X139884698Y-100279186D01*
X139889682Y-100209494D01*
X139914607Y-100170710D01*
X139914491Y-100170624D01*
X139915706Y-100168999D01*
X139918183Y-100165147D01*
X139919806Y-100163523D01*
X140005966Y-100048429D01*
X140005970Y-100048422D01*
X140056212Y-99913715D01*
X140056214Y-99913708D01*
X140062615Y-99854180D01*
X140062616Y-99854163D01*
X140062616Y-99649936D01*
X137868816Y-99649936D01*
X137868816Y-99854180D01*
X130363895Y-99854180D01*
X130353334Y-99834839D01*
X130350500Y-99808481D01*
X130350500Y-99120408D01*
X130350500Y-99120406D01*
X130344315Y-99052343D01*
X130295512Y-98895730D01*
X130295511Y-98895727D01*
X130210651Y-98755351D01*
X130210648Y-98755347D01*
X130094652Y-98639351D01*
X130094648Y-98639348D01*
X129954272Y-98554488D01*
X129954263Y-98554485D01*
X129797664Y-98505687D01*
X129797662Y-98505686D01*
X129797657Y-98505685D01*
X129729594Y-98499500D01*
X128870406Y-98499500D01*
X128802343Y-98505685D01*
X128802339Y-98505686D01*
X128802335Y-98505687D01*
X128645736Y-98554485D01*
X128645727Y-98554488D01*
X128505351Y-98639348D01*
X128505347Y-98639351D01*
X128389351Y-98755347D01*
X128389348Y-98755351D01*
X128304488Y-98895727D01*
X128304485Y-98895736D01*
X128268385Y-99011586D01*
X128229648Y-99069734D01*
X128165622Y-99097708D01*
X128096637Y-99086626D01*
X128044594Y-99040008D01*
X128031615Y-99011586D01*
X127995514Y-98895736D01*
X127995511Y-98895727D01*
X127910651Y-98755351D01*
X127910648Y-98755347D01*
X127794652Y-98639351D01*
X127794648Y-98639348D01*
X127654272Y-98554488D01*
X127654263Y-98554485D01*
X127497664Y-98505687D01*
X127497662Y-98505686D01*
X127497657Y-98505685D01*
X127429594Y-98499500D01*
X126570406Y-98499500D01*
X126502343Y-98505685D01*
X126502339Y-98505686D01*
X126502335Y-98505687D01*
X126345736Y-98554485D01*
X126345727Y-98554488D01*
X126205351Y-98639348D01*
X126205347Y-98639351D01*
X126089351Y-98755347D01*
X126089348Y-98755351D01*
X126071187Y-98785393D01*
X126019658Y-98832580D01*
X125950799Y-98844418D01*
X125886471Y-98817148D01*
X125853982Y-98776336D01*
X125816605Y-98700972D01*
X125697367Y-98552633D01*
X125697366Y-98552632D01*
X125549025Y-98433392D01*
X125549022Y-98433390D01*
X125378523Y-98348831D01*
X125193824Y-98302897D01*
X125151097Y-98300000D01*
X124950000Y-98300000D01*
X124950000Y-101300000D01*
X124450000Y-101300000D01*
X124450000Y-100050000D01*
X123450000Y-100050000D01*
X123450000Y-100501096D01*
X85452950Y-100501096D01*
X85486372Y-100438569D01*
X85547127Y-100238286D01*
X85567641Y-100030000D01*
X85547127Y-99821714D01*
X85486372Y-99621431D01*
X85387711Y-99436850D01*
X85265524Y-99287965D01*
X85254936Y-99275063D01*
X85093153Y-99142291D01*
X85093151Y-99142290D01*
X85093150Y-99142289D01*
X84908569Y-99043628D01*
X84802940Y-99011586D01*
X84708284Y-98982872D01*
X84500000Y-98962359D01*
X84291715Y-98982872D01*
X84091428Y-99043629D01*
X83906846Y-99142291D01*
X83745063Y-99275063D01*
X83612291Y-99436846D01*
X83513629Y-99621428D01*
X83452872Y-99821715D01*
X83432359Y-100030000D01*
X82800500Y-100030000D01*
X82800500Y-97490000D01*
X83432359Y-97490000D01*
X83452872Y-97698284D01*
X83513629Y-97898571D01*
X83612291Y-98083153D01*
X83745063Y-98244936D01*
X83890946Y-98364659D01*
X83906850Y-98377711D01*
X84091431Y-98476372D01*
X84291714Y-98537127D01*
X84500000Y-98557641D01*
X84708286Y-98537127D01*
X84830678Y-98500000D01*
X88294355Y-98500000D01*
X88314859Y-98668869D01*
X88314860Y-98668874D01*
X88375182Y-98827931D01*
X88421979Y-98895727D01*
X88471817Y-98967929D01*
X88521096Y-99011586D01*
X88599150Y-99080736D01*
X88731000Y-99149936D01*
X88749775Y-99159790D01*
X88914944Y-99200500D01*
X89085056Y-99200500D01*
X89250225Y-99159790D01*
X89329692Y-99118081D01*
X89366234Y-99098903D01*
X123450000Y-99098903D01*
X123450000Y-99550000D01*
X124450000Y-99550000D01*
X124450000Y-98300000D01*
X124248903Y-98300000D01*
X124206175Y-98302897D01*
X124021476Y-98348831D01*
X123850977Y-98433390D01*
X123850974Y-98433392D01*
X123702633Y-98552632D01*
X123702632Y-98552633D01*
X123583392Y-98700974D01*
X123583390Y-98700977D01*
X123498831Y-98871476D01*
X123452897Y-99056175D01*
X123450000Y-99098903D01*
X89366234Y-99098903D01*
X89400849Y-99080736D01*
X89400850Y-99080734D01*
X89400852Y-99080734D01*
X89528183Y-98967929D01*
X89624818Y-98827930D01*
X89685140Y-98668872D01*
X89705645Y-98500000D01*
X89701672Y-98467285D01*
X89713131Y-98398365D01*
X89737084Y-98364662D01*
X91480485Y-96621263D01*
X91536503Y-96524237D01*
X91565500Y-96416018D01*
X91565500Y-96303982D01*
X91565500Y-93864705D01*
X91585185Y-93797666D01*
X91607274Y-93771889D01*
X91668182Y-93717930D01*
X91764817Y-93577931D01*
X91764816Y-93577931D01*
X91764818Y-93577930D01*
X91825140Y-93418872D01*
X91845645Y-93250000D01*
X91825140Y-93081128D01*
X91764818Y-92922070D01*
X91742913Y-92890336D01*
X91727515Y-92868027D01*
X91668183Y-92782071D01*
X91540852Y-92669266D01*
X91540849Y-92669263D01*
X91390226Y-92590210D01*
X91225056Y-92549500D01*
X91054944Y-92549500D01*
X90889773Y-92590210D01*
X90739150Y-92669263D01*
X90611816Y-92782072D01*
X90515182Y-92922068D01*
X90454860Y-93081125D01*
X90454859Y-93081130D01*
X90434355Y-93250000D01*
X90454859Y-93418869D01*
X90454860Y-93418874D01*
X90515182Y-93577931D01*
X90611817Y-93717930D01*
X90672726Y-93771889D01*
X90709853Y-93831078D01*
X90714500Y-93864705D01*
X90714500Y-96132389D01*
X90694815Y-96199428D01*
X90678181Y-96220070D01*
X89135070Y-97763181D01*
X89073747Y-97796666D01*
X89047389Y-97799500D01*
X88914944Y-97799500D01*
X88749773Y-97840210D01*
X88599150Y-97919263D01*
X88471816Y-98032072D01*
X88375182Y-98172068D01*
X88314860Y-98331125D01*
X88314859Y-98331130D01*
X88294355Y-98500000D01*
X84830678Y-98500000D01*
X84908569Y-98476372D01*
X85093150Y-98377711D01*
X85254936Y-98244936D01*
X85387711Y-98083150D01*
X85486372Y-97898569D01*
X85547127Y-97698286D01*
X85567641Y-97490000D01*
X85547127Y-97281714D01*
X85486372Y-97081431D01*
X85387711Y-96896850D01*
X85387708Y-96896846D01*
X85254936Y-96735063D01*
X85093153Y-96602291D01*
X85093151Y-96602290D01*
X85093150Y-96602289D01*
X84908569Y-96503628D01*
X84790410Y-96467785D01*
X84708284Y-96442872D01*
X84500000Y-96422359D01*
X84291715Y-96442872D01*
X84091428Y-96503629D01*
X83906846Y-96602291D01*
X83745063Y-96735063D01*
X83612291Y-96896846D01*
X83513629Y-97081428D01*
X83452872Y-97281715D01*
X83432359Y-97490000D01*
X82800500Y-97490000D01*
X82800500Y-94950000D01*
X83432359Y-94950000D01*
X83452872Y-95158284D01*
X83483250Y-95258427D01*
X83513628Y-95358569D01*
X83592441Y-95506018D01*
X83612291Y-95543153D01*
X83745063Y-95704936D01*
X83882347Y-95817602D01*
X83906850Y-95837711D01*
X84091431Y-95936372D01*
X84291714Y-95997127D01*
X84500000Y-96017641D01*
X84708286Y-95997127D01*
X84908569Y-95936372D01*
X85093150Y-95837711D01*
X85254936Y-95704936D01*
X85387711Y-95543150D01*
X85486372Y-95358569D01*
X85547127Y-95158286D01*
X85567641Y-94950000D01*
X85547127Y-94741714D01*
X85486372Y-94541431D01*
X85387711Y-94356850D01*
X85387708Y-94356846D01*
X85254936Y-94195063D01*
X85093153Y-94062291D01*
X85093151Y-94062290D01*
X85093150Y-94062289D01*
X84908569Y-93963628D01*
X84808427Y-93933250D01*
X84708284Y-93902872D01*
X84500000Y-93882359D01*
X84291715Y-93902872D01*
X84091428Y-93963629D01*
X83906846Y-94062291D01*
X83745063Y-94195063D01*
X83612291Y-94356846D01*
X83513629Y-94541428D01*
X83452872Y-94741715D01*
X83432359Y-94950000D01*
X82800500Y-94950000D01*
X82800500Y-92250000D01*
X107044355Y-92250000D01*
X107064859Y-92418869D01*
X107064860Y-92418874D01*
X107125182Y-92577931D01*
X107221817Y-92717930D01*
X107282726Y-92771889D01*
X107319853Y-92831078D01*
X107324500Y-92864705D01*
X107324500Y-94135294D01*
X107304815Y-94202333D01*
X107282727Y-94228109D01*
X107221818Y-94282069D01*
X107125182Y-94422068D01*
X107064860Y-94581125D01*
X107064859Y-94581130D01*
X107044355Y-94750000D01*
X107064859Y-94918869D01*
X107064860Y-94918874D01*
X107125182Y-95077931D01*
X107167767Y-95139625D01*
X107221817Y-95217929D01*
X107327505Y-95311560D01*
X107349150Y-95330736D01*
X107499773Y-95409789D01*
X107499775Y-95409790D01*
X107664944Y-95450500D01*
X107835056Y-95450500D01*
X108000225Y-95409790D01*
X108097814Y-95358571D01*
X108150849Y-95330736D01*
X108150850Y-95330734D01*
X108150852Y-95330734D01*
X108278183Y-95217929D01*
X108374818Y-95077930D01*
X108435140Y-94918872D01*
X108455645Y-94750000D01*
X108435140Y-94581128D01*
X108374818Y-94422070D01*
X108369090Y-94413772D01*
X108338046Y-94368797D01*
X108278183Y-94282071D01*
X108278181Y-94282069D01*
X108217273Y-94228109D01*
X108180146Y-94168920D01*
X108175500Y-94135294D01*
X108175500Y-92955039D01*
X124799500Y-92955039D01*
X124799500Y-94044960D01*
X124814630Y-94179249D01*
X124814631Y-94179254D01*
X124874211Y-94349523D01*
X124966748Y-94496794D01*
X124970184Y-94502262D01*
X125097738Y-94629816D01*
X125118873Y-94643096D01*
X125248838Y-94724759D01*
X125250478Y-94725789D01*
X125375434Y-94769513D01*
X125420745Y-94785368D01*
X125420750Y-94785369D01*
X125511246Y-94795565D01*
X125555040Y-94800499D01*
X125555043Y-94800500D01*
X125555046Y-94800500D01*
X128444957Y-94800500D01*
X128444958Y-94800499D01*
X128512104Y-94792934D01*
X128579249Y-94785369D01*
X128579252Y-94785368D01*
X128579255Y-94785368D01*
X128749522Y-94725789D01*
X128902262Y-94629816D01*
X129029816Y-94502262D01*
X129125789Y-94349522D01*
X129185368Y-94179255D01*
X129186533Y-94168920D01*
X129192934Y-94112104D01*
X129200500Y-94044954D01*
X129200500Y-92955046D01*
X129190881Y-92869671D01*
X129185369Y-92820750D01*
X129185368Y-92820745D01*
X129171835Y-92782071D01*
X129125789Y-92650478D01*
X129031237Y-92500000D01*
X131500001Y-92500000D01*
X131500001Y-92649986D01*
X131510494Y-92752697D01*
X131565641Y-92919119D01*
X131565643Y-92919124D01*
X131657684Y-93068345D01*
X131781655Y-93192316D01*
X131781659Y-93192319D01*
X131898124Y-93264156D01*
X131944849Y-93316104D01*
X131956070Y-93385066D01*
X131928227Y-93449148D01*
X131907953Y-93468497D01*
X131857078Y-93507077D01*
X131765639Y-93627656D01*
X131710122Y-93768438D01*
X131709708Y-93771889D01*
X131699500Y-93856898D01*
X131699500Y-94643102D01*
X131703812Y-94679009D01*
X131710122Y-94731561D01*
X131765639Y-94872343D01*
X131857077Y-94992922D01*
X131977656Y-95084360D01*
X131977657Y-95084360D01*
X131977658Y-95084361D01*
X132118436Y-95139877D01*
X132165285Y-95145502D01*
X132229497Y-95173039D01*
X132268631Y-95230921D01*
X132274500Y-95268618D01*
X132274500Y-96193982D01*
X132274500Y-96306018D01*
X132303497Y-96414237D01*
X132359515Y-96511263D01*
X133338736Y-97490484D01*
X133435762Y-97546502D01*
X133543981Y-97575499D01*
X133656018Y-97575499D01*
X137948655Y-97575499D01*
X138015694Y-97595184D01*
X138061449Y-97647988D01*
X138071829Y-97713789D01*
X138068316Y-97744065D01*
X138068316Y-98531839D01*
X138048631Y-98598878D01*
X138018631Y-98631102D01*
X138011634Y-98636340D01*
X138011624Y-98636350D01*
X137925465Y-98751442D01*
X137925461Y-98751449D01*
X137875219Y-98886156D01*
X137875217Y-98886163D01*
X137868816Y-98945691D01*
X137868816Y-99149936D01*
X140062616Y-99149936D01*
X140062616Y-99049081D01*
X140082301Y-98982042D01*
X140135105Y-98936287D01*
X140204263Y-98926343D01*
X140267819Y-98955368D01*
X140274297Y-98961400D01*
X140513181Y-99200284D01*
X140546666Y-99261607D01*
X140549500Y-99287965D01*
X140549500Y-103309309D01*
X140560425Y-103350083D01*
X140560437Y-103350125D01*
X140580201Y-103423887D01*
X140639511Y-103526614D01*
X140639513Y-103526616D01*
X141516612Y-104403716D01*
X141550097Y-104465039D01*
X141548197Y-104525331D01*
X141513603Y-104646914D01*
X141513602Y-104646917D01*
X141494785Y-104849999D01*
X141494785Y-104850000D01*
X141513602Y-105053082D01*
X141569417Y-105249247D01*
X141569422Y-105249260D01*
X141660327Y-105431821D01*
X141783237Y-105594581D01*
X141889779Y-105691706D01*
X141929619Y-105728025D01*
X141933958Y-105731980D01*
X141933960Y-105731982D01*
X141974377Y-105757007D01*
X142107363Y-105839348D01*
X142297544Y-105913024D01*
X142498024Y-105950500D01*
X142498026Y-105950500D01*
X142701974Y-105950500D01*
X142701976Y-105950500D01*
X142902456Y-105913024D01*
X143092637Y-105839348D01*
X143266041Y-105731981D01*
X143416764Y-105594579D01*
X143539673Y-105431821D01*
X143630582Y-105249250D01*
X143686397Y-105053083D01*
X143705215Y-104850000D01*
X143686397Y-104646917D01*
X143630582Y-104450750D01*
X143611192Y-104411810D01*
X143585736Y-104360687D01*
X143539673Y-104268179D01*
X143416764Y-104105421D01*
X143416762Y-104105418D01*
X143266041Y-103968019D01*
X143266039Y-103968017D01*
X143092642Y-103860655D01*
X143092635Y-103860651D01*
X142991444Y-103821450D01*
X142902456Y-103786976D01*
X142701976Y-103749500D01*
X142498024Y-103749500D01*
X142438564Y-103760615D01*
X142297542Y-103786976D01*
X142297536Y-103786978D01*
X142283892Y-103792264D01*
X142214269Y-103798124D01*
X142152530Y-103765412D01*
X142151421Y-103764317D01*
X141486819Y-103099715D01*
X141453334Y-103038392D01*
X141450500Y-103012034D01*
X141450500Y-101087219D01*
X141470185Y-101020180D01*
X141522989Y-100974425D01*
X141545206Y-100971230D01*
X141606926Y-100971230D01*
X141655703Y-100993506D01*
X141693477Y-101052284D01*
X141696117Y-101063027D01*
X141726732Y-101216938D01*
X141726735Y-101216948D01*
X141790550Y-101371013D01*
X141790552Y-101371016D01*
X141883198Y-101509671D01*
X141883204Y-101509679D01*
X142001119Y-101627594D01*
X142001127Y-101627600D01*
X142139782Y-101720246D01*
X142139785Y-101720248D01*
X142293850Y-101784063D01*
X142293855Y-101784065D01*
X142293859Y-101784065D01*
X142293860Y-101784066D01*
X142457413Y-101816600D01*
X142457416Y-101816600D01*
X143233784Y-101816600D01*
X143343818Y-101794711D01*
X143397343Y-101784065D01*
X143551414Y-101720247D01*
X143690075Y-101627597D01*
X143807996Y-101509676D01*
X143900646Y-101371015D01*
X143964464Y-101216944D01*
X143987627Y-101100500D01*
X143996999Y-101053385D01*
X143996999Y-100886614D01*
X143964465Y-100723061D01*
X143964464Y-100723060D01*
X143964464Y-100723056D01*
X143964462Y-100723051D01*
X143900647Y-100568986D01*
X143900645Y-100568983D01*
X143807999Y-100430328D01*
X143807993Y-100430320D01*
X143690078Y-100312405D01*
X143690070Y-100312399D01*
X143551415Y-100219753D01*
X143551412Y-100219751D01*
X143397347Y-100155936D01*
X143397337Y-100155933D01*
X143233784Y-100123400D01*
X143233782Y-100123400D01*
X142457416Y-100123400D01*
X142457414Y-100123400D01*
X142293860Y-100155933D01*
X142293850Y-100155936D01*
X142139785Y-100219751D01*
X142139782Y-100219753D01*
X142001127Y-100312399D01*
X142001119Y-100312405D01*
X141883204Y-100430320D01*
X141883198Y-100430328D01*
X141790552Y-100568983D01*
X141790550Y-100568986D01*
X141726735Y-100723051D01*
X141726732Y-100723061D01*
X141696117Y-100876972D01*
X141663732Y-100938883D01*
X141606926Y-100971230D01*
X141545206Y-100971230D01*
X141549629Y-100970594D01*
X141533246Y-100969716D01*
X141476575Y-100928850D01*
X141450993Y-100863832D01*
X141450500Y-100852780D01*
X141450500Y-96258194D01*
X141450500Y-96258192D01*
X141419799Y-96143615D01*
X141419799Y-96143614D01*
X141360489Y-96040887D01*
X140089113Y-94769511D01*
X140036442Y-94739101D01*
X139988228Y-94688534D01*
X139975006Y-94619927D01*
X139999181Y-94557399D01*
X140005852Y-94548487D01*
X140005853Y-94548486D01*
X140056095Y-94413779D01*
X140056097Y-94413772D01*
X140062498Y-94354244D01*
X140062499Y-94354227D01*
X140062499Y-94150000D01*
X137868699Y-94150000D01*
X137868699Y-94354244D01*
X137875100Y-94413772D01*
X137875102Y-94413779D01*
X137925344Y-94548486D01*
X137925346Y-94548488D01*
X138011508Y-94663586D01*
X138011510Y-94663588D01*
X138018508Y-94668827D01*
X138060380Y-94724759D01*
X138068199Y-94768095D01*
X138068199Y-95555856D01*
X138068200Y-95555867D01*
X138071720Y-95586218D01*
X138059888Y-95655079D01*
X138012706Y-95706611D01*
X137948545Y-95724501D01*
X136173210Y-95724501D01*
X136106171Y-95704816D01*
X136085529Y-95688182D01*
X135740008Y-95342661D01*
X135706523Y-95281338D01*
X135711507Y-95211646D01*
X135753379Y-95155713D01*
X135782192Y-95139629D01*
X135922342Y-95084361D01*
X136042922Y-94992922D01*
X136134361Y-94872342D01*
X136189877Y-94731564D01*
X136200500Y-94643102D01*
X136200500Y-93856898D01*
X136189877Y-93768436D01*
X136134361Y-93627658D01*
X136134360Y-93627657D01*
X136134360Y-93627656D01*
X136042922Y-93507077D01*
X135992047Y-93468498D01*
X135975241Y-93445755D01*
X137868699Y-93445755D01*
X137868699Y-93650000D01*
X140062499Y-93650000D01*
X140062499Y-93445772D01*
X140062498Y-93445755D01*
X140056097Y-93386227D01*
X140056095Y-93386220D01*
X140005853Y-93251513D01*
X140005849Y-93251506D01*
X139919689Y-93136412D01*
X139918156Y-93134879D01*
X139917116Y-93132975D01*
X139914374Y-93129312D01*
X139914900Y-93128917D01*
X139884671Y-93073556D01*
X139889655Y-93003864D01*
X139918154Y-92959518D01*
X140007997Y-92869676D01*
X140100647Y-92731015D01*
X140106068Y-92717929D01*
X140134210Y-92649986D01*
X140164465Y-92576944D01*
X140175111Y-92523419D01*
X140197000Y-92413385D01*
X141694198Y-92413385D01*
X141726732Y-92576938D01*
X141726735Y-92576948D01*
X141790550Y-92731013D01*
X141790552Y-92731016D01*
X141883198Y-92869671D01*
X141883204Y-92869679D01*
X142001119Y-92987594D01*
X142001127Y-92987600D01*
X142139782Y-93080246D01*
X142139785Y-93080248D01*
X142267081Y-93132975D01*
X142293855Y-93144065D01*
X142293859Y-93144065D01*
X142293860Y-93144066D01*
X142457413Y-93176600D01*
X142457416Y-93176600D01*
X143233784Y-93176600D01*
X143343818Y-93154711D01*
X143397343Y-93144065D01*
X143500057Y-93101519D01*
X143551412Y-93080248D01*
X143551415Y-93080246D01*
X143690075Y-92987597D01*
X143807996Y-92869676D01*
X143900646Y-92731015D01*
X143906067Y-92717929D01*
X143934209Y-92649986D01*
X143964464Y-92576944D01*
X143975110Y-92523419D01*
X143996999Y-92413385D01*
X143996999Y-92246614D01*
X143964465Y-92083061D01*
X143964464Y-92083060D01*
X143964464Y-92083056D01*
X143963664Y-92081125D01*
X143900647Y-91928986D01*
X143900645Y-91928983D01*
X143807999Y-91790328D01*
X143807993Y-91790320D01*
X143690078Y-91672405D01*
X143690070Y-91672399D01*
X143551415Y-91579753D01*
X143551412Y-91579751D01*
X143397347Y-91515936D01*
X143397337Y-91515933D01*
X143233784Y-91483400D01*
X143233782Y-91483400D01*
X142457416Y-91483400D01*
X142457414Y-91483400D01*
X142293860Y-91515933D01*
X142293850Y-91515936D01*
X142139785Y-91579751D01*
X142139782Y-91579753D01*
X142001127Y-91672399D01*
X142001119Y-91672405D01*
X141883204Y-91790320D01*
X141883198Y-91790328D01*
X141790552Y-91928983D01*
X141790550Y-91928986D01*
X141726735Y-92083051D01*
X141726732Y-92083061D01*
X141694199Y-92246614D01*
X141694199Y-92246617D01*
X141694199Y-92413383D01*
X141694199Y-92413385D01*
X141694198Y-92413385D01*
X140197000Y-92413385D01*
X140197000Y-92246614D01*
X140164466Y-92083061D01*
X140164465Y-92083060D01*
X140164465Y-92083056D01*
X140163665Y-92081125D01*
X140100648Y-91928986D01*
X140100646Y-91928983D01*
X140008000Y-91790328D01*
X140007994Y-91790320D01*
X139890079Y-91672405D01*
X139890071Y-91672399D01*
X139751416Y-91579753D01*
X139751413Y-91579751D01*
X139597348Y-91515936D01*
X139597338Y-91515933D01*
X139433785Y-91483400D01*
X139433783Y-91483400D01*
X138657417Y-91483400D01*
X138657415Y-91483400D01*
X138493861Y-91515933D01*
X138493851Y-91515936D01*
X138339786Y-91579751D01*
X138339783Y-91579753D01*
X138201128Y-91672399D01*
X138201120Y-91672405D01*
X138083205Y-91790320D01*
X138083199Y-91790328D01*
X137990553Y-91928983D01*
X137990551Y-91928986D01*
X137926736Y-92083051D01*
X137926733Y-92083061D01*
X137894200Y-92246614D01*
X137894200Y-92246617D01*
X137894200Y-92413383D01*
X137894200Y-92413385D01*
X137894199Y-92413385D01*
X137926733Y-92576938D01*
X137926736Y-92576948D01*
X137990551Y-92731013D01*
X137990553Y-92731016D01*
X138083199Y-92869671D01*
X138083205Y-92869679D01*
X138103862Y-92890336D01*
X138137347Y-92951659D01*
X138132363Y-93021351D01*
X138090493Y-93077283D01*
X138011508Y-93136412D01*
X137925348Y-93251506D01*
X137925344Y-93251513D01*
X137875102Y-93386220D01*
X137875100Y-93386227D01*
X137868699Y-93445755D01*
X135975241Y-93445755D01*
X135950524Y-93412306D01*
X135945972Y-93342584D01*
X135979837Y-93281470D01*
X136001875Y-93264155D01*
X136118345Y-93192315D01*
X136242315Y-93068345D01*
X136334356Y-92919124D01*
X136334358Y-92919119D01*
X136389505Y-92752697D01*
X136389506Y-92752690D01*
X136399999Y-92649986D01*
X136400000Y-92649973D01*
X136400000Y-92500000D01*
X135074000Y-92500000D01*
X135006961Y-92480315D01*
X134961206Y-92427511D01*
X134950000Y-92376000D01*
X134950000Y-92000000D01*
X135450000Y-92000000D01*
X136399999Y-92000000D01*
X136399999Y-91850028D01*
X136399998Y-91850013D01*
X136389505Y-91747302D01*
X136334358Y-91580880D01*
X136334356Y-91580875D01*
X136242315Y-91431654D01*
X136118345Y-91307684D01*
X135969124Y-91215643D01*
X135969119Y-91215641D01*
X135802697Y-91160494D01*
X135802690Y-91160493D01*
X135699986Y-91150000D01*
X135450000Y-91150000D01*
X135450000Y-92000000D01*
X134950000Y-92000000D01*
X134950000Y-91150000D01*
X134700029Y-91150000D01*
X134700012Y-91150001D01*
X134597302Y-91160494D01*
X134430880Y-91215641D01*
X134430875Y-91215643D01*
X134281654Y-91307684D01*
X134157684Y-91431654D01*
X134065643Y-91580875D01*
X134062592Y-91587421D01*
X134059780Y-91586109D01*
X134027901Y-91632121D01*
X133963376Y-91658922D01*
X133894605Y-91646585D01*
X133843421Y-91599024D01*
X133837996Y-91587146D01*
X133837408Y-91587421D01*
X133834356Y-91580875D01*
X133742315Y-91431654D01*
X133618345Y-91307684D01*
X133469124Y-91215643D01*
X133469119Y-91215641D01*
X133302697Y-91160494D01*
X133302690Y-91160493D01*
X133199986Y-91150000D01*
X132950000Y-91150000D01*
X132950000Y-92376000D01*
X132930315Y-92443039D01*
X132877511Y-92488794D01*
X132826000Y-92500000D01*
X131500001Y-92500000D01*
X129031237Y-92500000D01*
X129029816Y-92497738D01*
X128902262Y-92370184D01*
X128749523Y-92274211D01*
X128579254Y-92214631D01*
X128579249Y-92214630D01*
X128444960Y-92199500D01*
X128444954Y-92199500D01*
X125555046Y-92199500D01*
X125555039Y-92199500D01*
X125420750Y-92214630D01*
X125420745Y-92214631D01*
X125250476Y-92274211D01*
X125097737Y-92370184D01*
X124970184Y-92497737D01*
X124874211Y-92650476D01*
X124814631Y-92820745D01*
X124814630Y-92820750D01*
X124799500Y-92955039D01*
X108175500Y-92955039D01*
X108175500Y-92864705D01*
X108195185Y-92797666D01*
X108217274Y-92771889D01*
X108278182Y-92717930D01*
X108324743Y-92650476D01*
X108374818Y-92577930D01*
X108435140Y-92418872D01*
X108455645Y-92250000D01*
X108435140Y-92081128D01*
X108374818Y-91922070D01*
X108325080Y-91850013D01*
X131500000Y-91850013D01*
X131500000Y-92000000D01*
X132450000Y-92000000D01*
X132450000Y-91150000D01*
X132200029Y-91150000D01*
X132200012Y-91150001D01*
X132097302Y-91160494D01*
X131930880Y-91215641D01*
X131930875Y-91215643D01*
X131781654Y-91307684D01*
X131657684Y-91431654D01*
X131565643Y-91580875D01*
X131565641Y-91580880D01*
X131510494Y-91747302D01*
X131510493Y-91747309D01*
X131500000Y-91850013D01*
X108325080Y-91850013D01*
X108278183Y-91782071D01*
X108183316Y-91698026D01*
X108150849Y-91669263D01*
X108000226Y-91590210D01*
X107835056Y-91549500D01*
X107664944Y-91549500D01*
X107499773Y-91590210D01*
X107349150Y-91669263D01*
X107221816Y-91782072D01*
X107125182Y-91922068D01*
X107064860Y-92081125D01*
X107064859Y-92081130D01*
X107044355Y-92250000D01*
X82800500Y-92250000D01*
X82800500Y-91529386D01*
X82820185Y-91462347D01*
X82836819Y-91441705D01*
X85778525Y-88499999D01*
X87369364Y-88499999D01*
X87369364Y-88500000D01*
X88266988Y-88500000D01*
X88234075Y-88557007D01*
X88200000Y-88684174D01*
X88200000Y-88815826D01*
X88234075Y-88942993D01*
X88266988Y-89000000D01*
X87369364Y-89000000D01*
X87426567Y-89213486D01*
X87426570Y-89213492D01*
X87526399Y-89427578D01*
X87661894Y-89621082D01*
X87828917Y-89788105D01*
X88022421Y-89923600D01*
X88236507Y-90023429D01*
X88236516Y-90023433D01*
X88450000Y-90080634D01*
X88450000Y-89183012D01*
X88507007Y-89215925D01*
X88634174Y-89250000D01*
X88765826Y-89250000D01*
X88892993Y-89215925D01*
X88950000Y-89183012D01*
X88950000Y-90080633D01*
X89163483Y-90023433D01*
X89163492Y-90023429D01*
X89377578Y-89923600D01*
X89571082Y-89788105D01*
X89738105Y-89621082D01*
X89873600Y-89427578D01*
X89967294Y-89226651D01*
X90013466Y-89174212D01*
X90080660Y-89155060D01*
X90147541Y-89175276D01*
X90190676Y-89223785D01*
X90257632Y-89358253D01*
X90386127Y-89528406D01*
X90386128Y-89528407D01*
X90543698Y-89672052D01*
X90724981Y-89784298D01*
X90923802Y-89861321D01*
X91133390Y-89900500D01*
X91133392Y-89900500D01*
X91346608Y-89900500D01*
X91346610Y-89900500D01*
X91556198Y-89861321D01*
X91755019Y-89784298D01*
X91936302Y-89672052D01*
X92093872Y-89528407D01*
X92222366Y-89358255D01*
X92276270Y-89250000D01*
X92317403Y-89167394D01*
X92317403Y-89167393D01*
X92317405Y-89167389D01*
X92375756Y-88962310D01*
X92386529Y-88846047D01*
X92412315Y-88781111D01*
X92454622Y-88750804D01*
X92563130Y-88750804D01*
X92599503Y-88771668D01*
X92631693Y-88833681D01*
X92633470Y-88846047D01*
X92644244Y-88962310D01*
X92697675Y-89150099D01*
X92702596Y-89167392D01*
X92702596Y-89167394D01*
X92797632Y-89358253D01*
X92926127Y-89528406D01*
X92926128Y-89528407D01*
X93083698Y-89672052D01*
X93264981Y-89784298D01*
X93463802Y-89861321D01*
X93673390Y-89900500D01*
X93673392Y-89900500D01*
X93886608Y-89900500D01*
X93886610Y-89900500D01*
X94096198Y-89861321D01*
X94295019Y-89784298D01*
X94476302Y-89672052D01*
X94633872Y-89528407D01*
X94762366Y-89358255D01*
X94816270Y-89250000D01*
X94857403Y-89167394D01*
X94857403Y-89167393D01*
X94857405Y-89167389D01*
X94915756Y-88962310D01*
X94926529Y-88846047D01*
X94952315Y-88781111D01*
X94994622Y-88750804D01*
X95103130Y-88750804D01*
X95139503Y-88771668D01*
X95171693Y-88833681D01*
X95173470Y-88846047D01*
X95184244Y-88962310D01*
X95237675Y-89150099D01*
X95242596Y-89167392D01*
X95242596Y-89167394D01*
X95337632Y-89358253D01*
X95466127Y-89528406D01*
X95466128Y-89528407D01*
X95623698Y-89672052D01*
X95804981Y-89784298D01*
X96003802Y-89861321D01*
X96213390Y-89900500D01*
X96213392Y-89900500D01*
X96426608Y-89900500D01*
X96426610Y-89900500D01*
X96636198Y-89861321D01*
X96835019Y-89784298D01*
X97016302Y-89672052D01*
X97173872Y-89528407D01*
X97302366Y-89358255D01*
X97356270Y-89250000D01*
X97397403Y-89167394D01*
X97397403Y-89167393D01*
X97397405Y-89167389D01*
X97455756Y-88962310D01*
X97466529Y-88846047D01*
X97492315Y-88781111D01*
X97534622Y-88750804D01*
X97643130Y-88750804D01*
X97679503Y-88771668D01*
X97711693Y-88833681D01*
X97713470Y-88846047D01*
X97724244Y-88962310D01*
X97777675Y-89150099D01*
X97782596Y-89167392D01*
X97782596Y-89167394D01*
X97877632Y-89358253D01*
X98006127Y-89528406D01*
X98006128Y-89528407D01*
X98163698Y-89672052D01*
X98344981Y-89784298D01*
X98543802Y-89861321D01*
X98753390Y-89900500D01*
X98753392Y-89900500D01*
X98966608Y-89900500D01*
X98966610Y-89900500D01*
X99176198Y-89861321D01*
X99375019Y-89784298D01*
X99556302Y-89672052D01*
X99713872Y-89528407D01*
X99842366Y-89358255D01*
X99896270Y-89250000D01*
X99937403Y-89167394D01*
X99937403Y-89167393D01*
X99937405Y-89167389D01*
X99995756Y-88962310D01*
X100006529Y-88846047D01*
X100032315Y-88781111D01*
X100074622Y-88750804D01*
X100183130Y-88750804D01*
X100219503Y-88771668D01*
X100251693Y-88833681D01*
X100253470Y-88846047D01*
X100264244Y-88962310D01*
X100317675Y-89150099D01*
X100322596Y-89167392D01*
X100322596Y-89167394D01*
X100417632Y-89358253D01*
X100546127Y-89528406D01*
X100546128Y-89528407D01*
X100703698Y-89672052D01*
X100884981Y-89784298D01*
X101083802Y-89861321D01*
X101293390Y-89900500D01*
X101293392Y-89900500D01*
X101506608Y-89900500D01*
X101506610Y-89900500D01*
X101716198Y-89861321D01*
X101915019Y-89784298D01*
X102096302Y-89672052D01*
X102253872Y-89528407D01*
X102382366Y-89358255D01*
X102449325Y-89223781D01*
X102496825Y-89172548D01*
X102564488Y-89155126D01*
X102630828Y-89177051D01*
X102672705Y-89226651D01*
X102766399Y-89427578D01*
X102901894Y-89621082D01*
X103068917Y-89788105D01*
X103262421Y-89923600D01*
X103476507Y-90023429D01*
X103476516Y-90023433D01*
X103690000Y-90080634D01*
X103690000Y-89183012D01*
X103747007Y-89215925D01*
X103874174Y-89250000D01*
X104005826Y-89250000D01*
X104132993Y-89215925D01*
X104190000Y-89183012D01*
X104190000Y-90080633D01*
X104403483Y-90023433D01*
X104403492Y-90023429D01*
X104617578Y-89923600D01*
X104811082Y-89788105D01*
X104978105Y-89621082D01*
X105113600Y-89427578D01*
X105207294Y-89226651D01*
X105253466Y-89174212D01*
X105320660Y-89155060D01*
X105387541Y-89175276D01*
X105430676Y-89223785D01*
X105497632Y-89358253D01*
X105626127Y-89528406D01*
X105626128Y-89528407D01*
X105783698Y-89672052D01*
X105964981Y-89784298D01*
X106163802Y-89861321D01*
X106373390Y-89900500D01*
X106373392Y-89900500D01*
X106586608Y-89900500D01*
X106586610Y-89900500D01*
X106796198Y-89861321D01*
X106995019Y-89784298D01*
X107176302Y-89672052D01*
X107333872Y-89528407D01*
X107462366Y-89358255D01*
X107516270Y-89250000D01*
X107557403Y-89167394D01*
X107557403Y-89167393D01*
X107557405Y-89167389D01*
X107615756Y-88962310D01*
X107626529Y-88846047D01*
X107652315Y-88781111D01*
X107694622Y-88750804D01*
X107803130Y-88750804D01*
X107839503Y-88771668D01*
X107871693Y-88833681D01*
X107873470Y-88846047D01*
X107884244Y-88962310D01*
X107937675Y-89150099D01*
X107942596Y-89167392D01*
X107942596Y-89167394D01*
X108037632Y-89358253D01*
X108166127Y-89528406D01*
X108166128Y-89528407D01*
X108323698Y-89672052D01*
X108504981Y-89784298D01*
X108703802Y-89861321D01*
X108913390Y-89900500D01*
X108913392Y-89900500D01*
X109126608Y-89900500D01*
X109126610Y-89900500D01*
X109336198Y-89861321D01*
X109535019Y-89784298D01*
X109716302Y-89672052D01*
X109873872Y-89528407D01*
X110002366Y-89358255D01*
X110056270Y-89250000D01*
X110097403Y-89167394D01*
X110097403Y-89167393D01*
X110097405Y-89167389D01*
X110155756Y-88962310D01*
X110166529Y-88846047D01*
X110192315Y-88781111D01*
X110234622Y-88750804D01*
X110343130Y-88750804D01*
X110379503Y-88771668D01*
X110411693Y-88833681D01*
X110413470Y-88846047D01*
X110424244Y-88962310D01*
X110477675Y-89150099D01*
X110482596Y-89167392D01*
X110482596Y-89167394D01*
X110577632Y-89358253D01*
X110706127Y-89528406D01*
X110706128Y-89528407D01*
X110863698Y-89672052D01*
X111044981Y-89784298D01*
X111243802Y-89861321D01*
X111453390Y-89900500D01*
X111453392Y-89900500D01*
X111666608Y-89900500D01*
X111666610Y-89900500D01*
X111876198Y-89861321D01*
X112075019Y-89784298D01*
X112256302Y-89672052D01*
X112413872Y-89528407D01*
X112542366Y-89358255D01*
X112596270Y-89250000D01*
X112637403Y-89167394D01*
X112637403Y-89167393D01*
X112637405Y-89167389D01*
X112695756Y-88962310D01*
X112706529Y-88846047D01*
X112732315Y-88781111D01*
X112774622Y-88750804D01*
X112883130Y-88750804D01*
X112919503Y-88771668D01*
X112951693Y-88833681D01*
X112953470Y-88846047D01*
X112964244Y-88962310D01*
X113017675Y-89150099D01*
X113022596Y-89167392D01*
X113022596Y-89167394D01*
X113117632Y-89358253D01*
X113246127Y-89528406D01*
X113246128Y-89528407D01*
X113403698Y-89672052D01*
X113584981Y-89784298D01*
X113783802Y-89861321D01*
X113993390Y-89900500D01*
X113993392Y-89900500D01*
X114206608Y-89900500D01*
X114206610Y-89900500D01*
X114416198Y-89861321D01*
X114615019Y-89784298D01*
X114796302Y-89672052D01*
X114953872Y-89528407D01*
X115082366Y-89358255D01*
X115136270Y-89250000D01*
X115177403Y-89167394D01*
X115177403Y-89167393D01*
X115177405Y-89167389D01*
X115235756Y-88962310D01*
X115246529Y-88846047D01*
X115272315Y-88781111D01*
X115314622Y-88750804D01*
X115423130Y-88750804D01*
X115459503Y-88771668D01*
X115491693Y-88833681D01*
X115493470Y-88846047D01*
X115504244Y-88962310D01*
X115557675Y-89150099D01*
X115562596Y-89167392D01*
X115562596Y-89167394D01*
X115657632Y-89358253D01*
X115786127Y-89528406D01*
X115786128Y-89528407D01*
X115943698Y-89672052D01*
X116124981Y-89784298D01*
X116323802Y-89861321D01*
X116533390Y-89900500D01*
X116533392Y-89900500D01*
X116746608Y-89900500D01*
X116746610Y-89900500D01*
X116956198Y-89861321D01*
X117155019Y-89784298D01*
X117336302Y-89672052D01*
X117493872Y-89528407D01*
X117622366Y-89358255D01*
X117676270Y-89250000D01*
X117717403Y-89167394D01*
X117717403Y-89167393D01*
X117717405Y-89167389D01*
X117775756Y-88962310D01*
X117786529Y-88846047D01*
X117812315Y-88781111D01*
X117854622Y-88750804D01*
X117963130Y-88750804D01*
X117999503Y-88771668D01*
X118031693Y-88833681D01*
X118033470Y-88846047D01*
X118044244Y-88962310D01*
X118097675Y-89150099D01*
X118102596Y-89167392D01*
X118102596Y-89167394D01*
X118197632Y-89358253D01*
X118326127Y-89528406D01*
X118326128Y-89528407D01*
X118483698Y-89672052D01*
X118664981Y-89784298D01*
X118863802Y-89861321D01*
X119073390Y-89900500D01*
X119073392Y-89900500D01*
X119286608Y-89900500D01*
X119286610Y-89900500D01*
X119496198Y-89861321D01*
X119695019Y-89784298D01*
X119876302Y-89672052D01*
X120033872Y-89528407D01*
X120162366Y-89358255D01*
X120216270Y-89250000D01*
X120257403Y-89167394D01*
X120257403Y-89167393D01*
X120257405Y-89167389D01*
X120315756Y-88962310D01*
X120326529Y-88846047D01*
X120352315Y-88781111D01*
X120394622Y-88750804D01*
X120503130Y-88750804D01*
X120539503Y-88771668D01*
X120571693Y-88833681D01*
X120573470Y-88846047D01*
X120584244Y-88962310D01*
X120637675Y-89150099D01*
X120642596Y-89167392D01*
X120642596Y-89167394D01*
X120737632Y-89358253D01*
X120866127Y-89528406D01*
X120866128Y-89528407D01*
X121023698Y-89672052D01*
X121204981Y-89784298D01*
X121403802Y-89861321D01*
X121613390Y-89900500D01*
X121613392Y-89900500D01*
X121826608Y-89900500D01*
X121826610Y-89900500D01*
X122036198Y-89861321D01*
X122235019Y-89784298D01*
X122416302Y-89672052D01*
X122573872Y-89528407D01*
X122702366Y-89358255D01*
X122756270Y-89250000D01*
X122797403Y-89167394D01*
X122797403Y-89167393D01*
X122797405Y-89167389D01*
X122855756Y-88962310D01*
X122866529Y-88846047D01*
X122892315Y-88781111D01*
X122934622Y-88750804D01*
X123043130Y-88750804D01*
X123079503Y-88771668D01*
X123111693Y-88833681D01*
X123113470Y-88846047D01*
X123124244Y-88962310D01*
X123177675Y-89150099D01*
X123182596Y-89167392D01*
X123182596Y-89167394D01*
X123277632Y-89358253D01*
X123406127Y-89528406D01*
X123406128Y-89528407D01*
X123563698Y-89672052D01*
X123744981Y-89784298D01*
X123943802Y-89861321D01*
X124153390Y-89900500D01*
X124153392Y-89900500D01*
X124366608Y-89900500D01*
X124366610Y-89900500D01*
X124576198Y-89861321D01*
X124775019Y-89784298D01*
X124956302Y-89672052D01*
X125113872Y-89528407D01*
X125242366Y-89358255D01*
X125296270Y-89250000D01*
X125337403Y-89167394D01*
X125337403Y-89167393D01*
X125337405Y-89167389D01*
X125395756Y-88962310D01*
X125406529Y-88846047D01*
X125432315Y-88781111D01*
X125474622Y-88750804D01*
X125583130Y-88750804D01*
X125619503Y-88771668D01*
X125651693Y-88833681D01*
X125653470Y-88846047D01*
X125664244Y-88962310D01*
X125717675Y-89150099D01*
X125722596Y-89167392D01*
X125722596Y-89167394D01*
X125817632Y-89358253D01*
X125946127Y-89528406D01*
X125946128Y-89528407D01*
X126103698Y-89672052D01*
X126284981Y-89784298D01*
X126483802Y-89861321D01*
X126693390Y-89900500D01*
X126693392Y-89900500D01*
X126906608Y-89900500D01*
X126906610Y-89900500D01*
X127116198Y-89861321D01*
X127315019Y-89784298D01*
X127496302Y-89672052D01*
X127653872Y-89528407D01*
X127782366Y-89358255D01*
X127836270Y-89250000D01*
X127877403Y-89167394D01*
X127877403Y-89167393D01*
X127877405Y-89167389D01*
X127935756Y-88962310D01*
X127946529Y-88846047D01*
X127972315Y-88781111D01*
X128014622Y-88750804D01*
X128123130Y-88750804D01*
X128159503Y-88771668D01*
X128191693Y-88833681D01*
X128193470Y-88846047D01*
X128204244Y-88962310D01*
X128257675Y-89150099D01*
X128262596Y-89167392D01*
X128262596Y-89167394D01*
X128357632Y-89358253D01*
X128486127Y-89528406D01*
X128486128Y-89528407D01*
X128643698Y-89672052D01*
X128824981Y-89784298D01*
X129023802Y-89861321D01*
X129233390Y-89900500D01*
X129233392Y-89900500D01*
X129446608Y-89900500D01*
X129446610Y-89900500D01*
X129656198Y-89861321D01*
X129855019Y-89784298D01*
X130036302Y-89672052D01*
X130193872Y-89528407D01*
X130322366Y-89358255D01*
X130376270Y-89250000D01*
X130417403Y-89167394D01*
X130417403Y-89167393D01*
X130417405Y-89167389D01*
X130475756Y-88962310D01*
X130486529Y-88846047D01*
X130512315Y-88781111D01*
X130554622Y-88750804D01*
X130663130Y-88750804D01*
X130699503Y-88771668D01*
X130731693Y-88833681D01*
X130733470Y-88846047D01*
X130744244Y-88962310D01*
X130797675Y-89150099D01*
X130802596Y-89167392D01*
X130802596Y-89167394D01*
X130897632Y-89358253D01*
X131026127Y-89528406D01*
X131026128Y-89528407D01*
X131183698Y-89672052D01*
X131364981Y-89784298D01*
X131563802Y-89861321D01*
X131773390Y-89900500D01*
X131773392Y-89900500D01*
X131986608Y-89900500D01*
X131986610Y-89900500D01*
X132196198Y-89861321D01*
X132395019Y-89784298D01*
X132576302Y-89672052D01*
X132733872Y-89528407D01*
X132862366Y-89358255D01*
X132916270Y-89250000D01*
X132957403Y-89167394D01*
X132957403Y-89167393D01*
X132957405Y-89167389D01*
X133015756Y-88962310D01*
X133022029Y-88894605D01*
X133047814Y-88829669D01*
X133104614Y-88788981D01*
X133174395Y-88785461D01*
X133235002Y-88820225D01*
X133267193Y-88882238D01*
X133269500Y-88906047D01*
X133269500Y-89644856D01*
X133269502Y-89644882D01*
X133272413Y-89669987D01*
X133272415Y-89669991D01*
X133317793Y-89772764D01*
X133317794Y-89772765D01*
X133397235Y-89852206D01*
X133500009Y-89897585D01*
X133525135Y-89900500D01*
X135314864Y-89900499D01*
X135314879Y-89900497D01*
X135314882Y-89900497D01*
X135339987Y-89897586D01*
X135339988Y-89897585D01*
X135339991Y-89897585D01*
X135442765Y-89852206D01*
X135522206Y-89772765D01*
X135567585Y-89669991D01*
X135570500Y-89644865D01*
X135570499Y-87855136D01*
X135570497Y-87855117D01*
X135567586Y-87830012D01*
X135567585Y-87830010D01*
X135567585Y-87830009D01*
X135522206Y-87727235D01*
X135442765Y-87647794D01*
X135422124Y-87638680D01*
X135339992Y-87602415D01*
X135314865Y-87599500D01*
X133525143Y-87599500D01*
X133525117Y-87599502D01*
X133500012Y-87602413D01*
X133500008Y-87602415D01*
X133397235Y-87647793D01*
X133317794Y-87727234D01*
X133272415Y-87830006D01*
X133272415Y-87830008D01*
X133269500Y-87855131D01*
X133269500Y-88593951D01*
X133249815Y-88660990D01*
X133197011Y-88706745D01*
X133127853Y-88716689D01*
X133064297Y-88687664D01*
X133026523Y-88628886D01*
X133022029Y-88605391D01*
X133015756Y-88537689D01*
X132988812Y-88442993D01*
X132957405Y-88332611D01*
X132957403Y-88332606D01*
X132957403Y-88332605D01*
X132862367Y-88141746D01*
X132733872Y-87971593D01*
X132576302Y-87827948D01*
X132395019Y-87715702D01*
X132395017Y-87715701D01*
X132295608Y-87677190D01*
X132196198Y-87638679D01*
X131986610Y-87599500D01*
X131773390Y-87599500D01*
X131563802Y-87638679D01*
X131563799Y-87638679D01*
X131563799Y-87638680D01*
X131364982Y-87715701D01*
X131364980Y-87715702D01*
X131183699Y-87827947D01*
X131026127Y-87971593D01*
X130897632Y-88141746D01*
X130802596Y-88332605D01*
X130802596Y-88332607D01*
X130744244Y-88537689D01*
X130733471Y-88653951D01*
X130707685Y-88718888D01*
X130663130Y-88750804D01*
X130554622Y-88750804D01*
X130556869Y-88749194D01*
X130520497Y-88728331D01*
X130488307Y-88666318D01*
X130486529Y-88653951D01*
X130480969Y-88593951D01*
X130475756Y-88537690D01*
X130417405Y-88332611D01*
X130417403Y-88332606D01*
X130417403Y-88332605D01*
X130322367Y-88141746D01*
X130193872Y-87971593D01*
X130036302Y-87827948D01*
X129855019Y-87715702D01*
X129855017Y-87715701D01*
X129755608Y-87677190D01*
X129656198Y-87638679D01*
X129446610Y-87599500D01*
X129233390Y-87599500D01*
X129023802Y-87638679D01*
X129023799Y-87638679D01*
X129023799Y-87638680D01*
X128824982Y-87715701D01*
X128824980Y-87715702D01*
X128643699Y-87827947D01*
X128486127Y-87971593D01*
X128357632Y-88141746D01*
X128262596Y-88332605D01*
X128262596Y-88332607D01*
X128204244Y-88537689D01*
X128193471Y-88653951D01*
X128167685Y-88718888D01*
X128123130Y-88750804D01*
X128014622Y-88750804D01*
X128016869Y-88749194D01*
X127980497Y-88728331D01*
X127948307Y-88666318D01*
X127946529Y-88653951D01*
X127940969Y-88593951D01*
X127935756Y-88537690D01*
X127877405Y-88332611D01*
X127877403Y-88332606D01*
X127877403Y-88332605D01*
X127782367Y-88141746D01*
X127653872Y-87971593D01*
X127496302Y-87827948D01*
X127315019Y-87715702D01*
X127315017Y-87715701D01*
X127215608Y-87677190D01*
X127116198Y-87638679D01*
X126906610Y-87599500D01*
X126693390Y-87599500D01*
X126483802Y-87638679D01*
X126483799Y-87638679D01*
X126483799Y-87638680D01*
X126284982Y-87715701D01*
X126284980Y-87715702D01*
X126103699Y-87827947D01*
X125946127Y-87971593D01*
X125817632Y-88141746D01*
X125722596Y-88332605D01*
X125722596Y-88332607D01*
X125664244Y-88537689D01*
X125653471Y-88653951D01*
X125627685Y-88718888D01*
X125583130Y-88750804D01*
X125474622Y-88750804D01*
X125476869Y-88749194D01*
X125440497Y-88728331D01*
X125408307Y-88666318D01*
X125406529Y-88653951D01*
X125400969Y-88593951D01*
X125395756Y-88537690D01*
X125337405Y-88332611D01*
X125337403Y-88332606D01*
X125337403Y-88332605D01*
X125242367Y-88141746D01*
X125113872Y-87971593D01*
X124956302Y-87827948D01*
X124775019Y-87715702D01*
X124775017Y-87715701D01*
X124675608Y-87677190D01*
X124576198Y-87638679D01*
X124366610Y-87599500D01*
X124153390Y-87599500D01*
X123943802Y-87638679D01*
X123943799Y-87638679D01*
X123943799Y-87638680D01*
X123744982Y-87715701D01*
X123744980Y-87715702D01*
X123563699Y-87827947D01*
X123406127Y-87971593D01*
X123277632Y-88141746D01*
X123182596Y-88332605D01*
X123182596Y-88332607D01*
X123124244Y-88537689D01*
X123113471Y-88653951D01*
X123087685Y-88718888D01*
X123043130Y-88750804D01*
X122934622Y-88750804D01*
X122936869Y-88749194D01*
X122900497Y-88728331D01*
X122868307Y-88666318D01*
X122866529Y-88653951D01*
X122860969Y-88593951D01*
X122855756Y-88537690D01*
X122797405Y-88332611D01*
X122797403Y-88332606D01*
X122797403Y-88332605D01*
X122702367Y-88141746D01*
X122573872Y-87971593D01*
X122416302Y-87827948D01*
X122235019Y-87715702D01*
X122235017Y-87715701D01*
X122135608Y-87677190D01*
X122036198Y-87638679D01*
X121826610Y-87599500D01*
X121613390Y-87599500D01*
X121403802Y-87638679D01*
X121403799Y-87638679D01*
X121403799Y-87638680D01*
X121204982Y-87715701D01*
X121204980Y-87715702D01*
X121023699Y-87827947D01*
X120866127Y-87971593D01*
X120737632Y-88141746D01*
X120642596Y-88332605D01*
X120642596Y-88332607D01*
X120584244Y-88537689D01*
X120573471Y-88653951D01*
X120547685Y-88718888D01*
X120503130Y-88750804D01*
X120394622Y-88750804D01*
X120396869Y-88749194D01*
X120360497Y-88728331D01*
X120328307Y-88666318D01*
X120326529Y-88653951D01*
X120320969Y-88593951D01*
X120315756Y-88537690D01*
X120257405Y-88332611D01*
X120257403Y-88332606D01*
X120257403Y-88332605D01*
X120162367Y-88141746D01*
X120033872Y-87971593D01*
X119876302Y-87827948D01*
X119695019Y-87715702D01*
X119695017Y-87715701D01*
X119595608Y-87677190D01*
X119496198Y-87638679D01*
X119286610Y-87599500D01*
X119073390Y-87599500D01*
X118863802Y-87638679D01*
X118863799Y-87638679D01*
X118863799Y-87638680D01*
X118664982Y-87715701D01*
X118664980Y-87715702D01*
X118483699Y-87827947D01*
X118326127Y-87971593D01*
X118197632Y-88141746D01*
X118102596Y-88332605D01*
X118102596Y-88332607D01*
X118044244Y-88537689D01*
X118033471Y-88653951D01*
X118007685Y-88718888D01*
X117963130Y-88750804D01*
X117854622Y-88750804D01*
X117856869Y-88749194D01*
X117820497Y-88728331D01*
X117788307Y-88666318D01*
X117786529Y-88653951D01*
X117780969Y-88593951D01*
X117775756Y-88537690D01*
X117717405Y-88332611D01*
X117717403Y-88332606D01*
X117717403Y-88332605D01*
X117622367Y-88141746D01*
X117493872Y-87971593D01*
X117336302Y-87827948D01*
X117155019Y-87715702D01*
X117155017Y-87715701D01*
X117055608Y-87677190D01*
X116956198Y-87638679D01*
X116746610Y-87599500D01*
X116533390Y-87599500D01*
X116323802Y-87638679D01*
X116323799Y-87638679D01*
X116323799Y-87638680D01*
X116124982Y-87715701D01*
X116124980Y-87715702D01*
X115943699Y-87827947D01*
X115786127Y-87971593D01*
X115657632Y-88141746D01*
X115562596Y-88332605D01*
X115562596Y-88332607D01*
X115504244Y-88537689D01*
X115493471Y-88653951D01*
X115467685Y-88718888D01*
X115423130Y-88750804D01*
X115314622Y-88750804D01*
X115316869Y-88749194D01*
X115280497Y-88728331D01*
X115248307Y-88666318D01*
X115246529Y-88653951D01*
X115240969Y-88593951D01*
X115235756Y-88537690D01*
X115177405Y-88332611D01*
X115177403Y-88332606D01*
X115177403Y-88332605D01*
X115082367Y-88141746D01*
X114953872Y-87971593D01*
X114796302Y-87827948D01*
X114615019Y-87715702D01*
X114615017Y-87715701D01*
X114515608Y-87677190D01*
X114416198Y-87638679D01*
X114206610Y-87599500D01*
X113993390Y-87599500D01*
X113783802Y-87638679D01*
X113783799Y-87638679D01*
X113783799Y-87638680D01*
X113584982Y-87715701D01*
X113584980Y-87715702D01*
X113403699Y-87827947D01*
X113246127Y-87971593D01*
X113117632Y-88141746D01*
X113022596Y-88332605D01*
X113022596Y-88332607D01*
X112964244Y-88537689D01*
X112953471Y-88653951D01*
X112927685Y-88718888D01*
X112883130Y-88750804D01*
X112774622Y-88750804D01*
X112776869Y-88749194D01*
X112740497Y-88728331D01*
X112708307Y-88666318D01*
X112706529Y-88653951D01*
X112700969Y-88593951D01*
X112695756Y-88537690D01*
X112637405Y-88332611D01*
X112637403Y-88332606D01*
X112637403Y-88332605D01*
X112542367Y-88141746D01*
X112413872Y-87971593D01*
X112256302Y-87827948D01*
X112075019Y-87715702D01*
X112075017Y-87715701D01*
X111975608Y-87677190D01*
X111876198Y-87638679D01*
X111666610Y-87599500D01*
X111453390Y-87599500D01*
X111243802Y-87638679D01*
X111243799Y-87638679D01*
X111243799Y-87638680D01*
X111044982Y-87715701D01*
X111044980Y-87715702D01*
X110863699Y-87827947D01*
X110706127Y-87971593D01*
X110577632Y-88141746D01*
X110482596Y-88332605D01*
X110482596Y-88332607D01*
X110424244Y-88537689D01*
X110413471Y-88653951D01*
X110387685Y-88718888D01*
X110343130Y-88750804D01*
X110234622Y-88750804D01*
X110236869Y-88749194D01*
X110200497Y-88728331D01*
X110168307Y-88666318D01*
X110166529Y-88653951D01*
X110160969Y-88593951D01*
X110155756Y-88537690D01*
X110097405Y-88332611D01*
X110097403Y-88332606D01*
X110097403Y-88332605D01*
X110002367Y-88141746D01*
X109873872Y-87971593D01*
X109716302Y-87827948D01*
X109535019Y-87715702D01*
X109535017Y-87715701D01*
X109435608Y-87677190D01*
X109336198Y-87638679D01*
X109126610Y-87599500D01*
X108913390Y-87599500D01*
X108703802Y-87638679D01*
X108703799Y-87638679D01*
X108703799Y-87638680D01*
X108504982Y-87715701D01*
X108504980Y-87715702D01*
X108323699Y-87827947D01*
X108166127Y-87971593D01*
X108037632Y-88141746D01*
X107942596Y-88332605D01*
X107942596Y-88332607D01*
X107884244Y-88537689D01*
X107873471Y-88653951D01*
X107847685Y-88718888D01*
X107803130Y-88750804D01*
X107694622Y-88750804D01*
X107696869Y-88749194D01*
X107660497Y-88728331D01*
X107628307Y-88666318D01*
X107626529Y-88653951D01*
X107620969Y-88593951D01*
X107615756Y-88537690D01*
X107557405Y-88332611D01*
X107557403Y-88332606D01*
X107557403Y-88332605D01*
X107462367Y-88141746D01*
X107333872Y-87971593D01*
X107176302Y-87827948D01*
X106995019Y-87715702D01*
X106995017Y-87715701D01*
X106895608Y-87677190D01*
X106796198Y-87638679D01*
X106586610Y-87599500D01*
X106373390Y-87599500D01*
X106163802Y-87638679D01*
X106163799Y-87638679D01*
X106163799Y-87638680D01*
X105964982Y-87715701D01*
X105964980Y-87715702D01*
X105783699Y-87827947D01*
X105626127Y-87971593D01*
X105497634Y-88141744D01*
X105430676Y-88276215D01*
X105383173Y-88327452D01*
X105315510Y-88344873D01*
X105249170Y-88322947D01*
X105207294Y-88273348D01*
X105113600Y-88072422D01*
X105113599Y-88072420D01*
X104978113Y-87878926D01*
X104978108Y-87878920D01*
X104811082Y-87711894D01*
X104617578Y-87576399D01*
X104403492Y-87476570D01*
X104403486Y-87476567D01*
X104190000Y-87419364D01*
X104190000Y-88316988D01*
X104132993Y-88284075D01*
X104005826Y-88250000D01*
X103874174Y-88250000D01*
X103747007Y-88284075D01*
X103690000Y-88316988D01*
X103690000Y-87419364D01*
X103689999Y-87419364D01*
X103476513Y-87476567D01*
X103476507Y-87476570D01*
X103262422Y-87576399D01*
X103262420Y-87576400D01*
X103068926Y-87711886D01*
X103068920Y-87711891D01*
X102901891Y-87878920D01*
X102901886Y-87878926D01*
X102766400Y-88072420D01*
X102766399Y-88072422D01*
X102672705Y-88273348D01*
X102626532Y-88325787D01*
X102559339Y-88344939D01*
X102492457Y-88324723D01*
X102449323Y-88276215D01*
X102382366Y-88141745D01*
X102253872Y-87971593D01*
X102096302Y-87827948D01*
X101915019Y-87715702D01*
X101915017Y-87715701D01*
X101815608Y-87677190D01*
X101716198Y-87638679D01*
X101506610Y-87599500D01*
X101293390Y-87599500D01*
X101083802Y-87638679D01*
X101083799Y-87638679D01*
X101083799Y-87638680D01*
X100884982Y-87715701D01*
X100884980Y-87715702D01*
X100703699Y-87827947D01*
X100546127Y-87971593D01*
X100417632Y-88141746D01*
X100322596Y-88332605D01*
X100322596Y-88332607D01*
X100264244Y-88537689D01*
X100253471Y-88653951D01*
X100227685Y-88718888D01*
X100183130Y-88750804D01*
X100074622Y-88750804D01*
X100076869Y-88749194D01*
X100040497Y-88728331D01*
X100008307Y-88666318D01*
X100006529Y-88653951D01*
X100000969Y-88593951D01*
X99995756Y-88537690D01*
X99937405Y-88332611D01*
X99937403Y-88332606D01*
X99937403Y-88332605D01*
X99842367Y-88141746D01*
X99713872Y-87971593D01*
X99556302Y-87827948D01*
X99375019Y-87715702D01*
X99375017Y-87715701D01*
X99275608Y-87677190D01*
X99176198Y-87638679D01*
X98966610Y-87599500D01*
X98753390Y-87599500D01*
X98543802Y-87638679D01*
X98543799Y-87638679D01*
X98543799Y-87638680D01*
X98344982Y-87715701D01*
X98344980Y-87715702D01*
X98163699Y-87827947D01*
X98006127Y-87971593D01*
X97877632Y-88141746D01*
X97782596Y-88332605D01*
X97782596Y-88332607D01*
X97724244Y-88537689D01*
X97713471Y-88653951D01*
X97687685Y-88718888D01*
X97643130Y-88750804D01*
X97534622Y-88750804D01*
X97536869Y-88749194D01*
X97500497Y-88728331D01*
X97468307Y-88666318D01*
X97466529Y-88653951D01*
X97460969Y-88593951D01*
X97455756Y-88537690D01*
X97397405Y-88332611D01*
X97397403Y-88332606D01*
X97397403Y-88332605D01*
X97302367Y-88141746D01*
X97173872Y-87971593D01*
X97016302Y-87827948D01*
X96835019Y-87715702D01*
X96835017Y-87715701D01*
X96735608Y-87677190D01*
X96636198Y-87638679D01*
X96426610Y-87599500D01*
X96213390Y-87599500D01*
X96003802Y-87638679D01*
X96003799Y-87638679D01*
X96003799Y-87638680D01*
X95804982Y-87715701D01*
X95804980Y-87715702D01*
X95623699Y-87827947D01*
X95466127Y-87971593D01*
X95337632Y-88141746D01*
X95242596Y-88332605D01*
X95242596Y-88332607D01*
X95184244Y-88537689D01*
X95173471Y-88653951D01*
X95147685Y-88718888D01*
X95103130Y-88750804D01*
X94994622Y-88750804D01*
X94996869Y-88749194D01*
X94960497Y-88728331D01*
X94928307Y-88666318D01*
X94926529Y-88653951D01*
X94920969Y-88593951D01*
X94915756Y-88537690D01*
X94857405Y-88332611D01*
X94857403Y-88332606D01*
X94857403Y-88332605D01*
X94762367Y-88141746D01*
X94633872Y-87971593D01*
X94476302Y-87827948D01*
X94295019Y-87715702D01*
X94295017Y-87715701D01*
X94195608Y-87677190D01*
X94096198Y-87638679D01*
X93886610Y-87599500D01*
X93673390Y-87599500D01*
X93463802Y-87638679D01*
X93463799Y-87638679D01*
X93463799Y-87638680D01*
X93264982Y-87715701D01*
X93264980Y-87715702D01*
X93083699Y-87827947D01*
X92926127Y-87971593D01*
X92797632Y-88141746D01*
X92702596Y-88332605D01*
X92702596Y-88332607D01*
X92644244Y-88537689D01*
X92633471Y-88653951D01*
X92607685Y-88718888D01*
X92563130Y-88750804D01*
X92454622Y-88750804D01*
X92456869Y-88749194D01*
X92420497Y-88728331D01*
X92388307Y-88666318D01*
X92386529Y-88653951D01*
X92380969Y-88593951D01*
X92375756Y-88537690D01*
X92317405Y-88332611D01*
X92317403Y-88332606D01*
X92317403Y-88332605D01*
X92222367Y-88141746D01*
X92093872Y-87971593D01*
X91936302Y-87827948D01*
X91755019Y-87715702D01*
X91755017Y-87715701D01*
X91655608Y-87677190D01*
X91556198Y-87638679D01*
X91346610Y-87599500D01*
X91133390Y-87599500D01*
X90923802Y-87638679D01*
X90923799Y-87638679D01*
X90923799Y-87638680D01*
X90724982Y-87715701D01*
X90724980Y-87715702D01*
X90543699Y-87827947D01*
X90386127Y-87971593D01*
X90257634Y-88141744D01*
X90190676Y-88276215D01*
X90143173Y-88327452D01*
X90075510Y-88344873D01*
X90009170Y-88322947D01*
X89967294Y-88273348D01*
X89873600Y-88072422D01*
X89873599Y-88072420D01*
X89738113Y-87878926D01*
X89738108Y-87878920D01*
X89571082Y-87711894D01*
X89377578Y-87576399D01*
X89163492Y-87476570D01*
X89163486Y-87476567D01*
X88950000Y-87419364D01*
X88950000Y-88316988D01*
X88892993Y-88284075D01*
X88765826Y-88250000D01*
X88634174Y-88250000D01*
X88507007Y-88284075D01*
X88450000Y-88316988D01*
X88450000Y-87419364D01*
X88449999Y-87419364D01*
X88236513Y-87476567D01*
X88236507Y-87476570D01*
X88022422Y-87576399D01*
X88022420Y-87576400D01*
X87828926Y-87711886D01*
X87828920Y-87711891D01*
X87661891Y-87878920D01*
X87661886Y-87878926D01*
X87526400Y-88072420D01*
X87526399Y-88072422D01*
X87426570Y-88286507D01*
X87426567Y-88286513D01*
X87369364Y-88499999D01*
X85778525Y-88499999D01*
X87941705Y-86336819D01*
X88003028Y-86303334D01*
X88029386Y-86300500D01*
X98072472Y-86300500D01*
X98072474Y-86300500D01*
X98072475Y-86300500D01*
X98212485Y-86262984D01*
X98338015Y-86190510D01*
X99420510Y-85108015D01*
X99492984Y-84982485D01*
X99530500Y-84842475D01*
X99530500Y-84731360D01*
X99550185Y-84664321D01*
X99575833Y-84635508D01*
X99734936Y-84504936D01*
X99867711Y-84343150D01*
X99966372Y-84158569D01*
X100015339Y-83997144D01*
X100053637Y-83938706D01*
X100117449Y-83910250D01*
X100186516Y-83920810D01*
X100238910Y-83967034D01*
X100258000Y-84033140D01*
X100258000Y-84559844D01*
X100264401Y-84619372D01*
X100264403Y-84619379D01*
X100314645Y-84754086D01*
X100314649Y-84754093D01*
X100400809Y-84869187D01*
X100400812Y-84869190D01*
X100515906Y-84955350D01*
X100515913Y-84955354D01*
X100650620Y-85005596D01*
X100650627Y-85005598D01*
X100710155Y-85011999D01*
X100710172Y-85012000D01*
X101270000Y-85012000D01*
X101270000Y-84038816D01*
X101286060Y-84054876D01*
X101372939Y-84105036D01*
X101469840Y-84131000D01*
X101570160Y-84131000D01*
X101667061Y-84105036D01*
X101753940Y-84054876D01*
X101770000Y-84038816D01*
X101770000Y-85012000D01*
X102329828Y-85012000D01*
X102329844Y-85011999D01*
X102389372Y-85005598D01*
X102389379Y-85005596D01*
X102524086Y-84955354D01*
X102524093Y-84955350D01*
X102639187Y-84869190D01*
X102639190Y-84869187D01*
X102725350Y-84754093D01*
X102725354Y-84754086D01*
X102775596Y-84619379D01*
X102775598Y-84619372D01*
X102781999Y-84559844D01*
X102782000Y-84559827D01*
X102782000Y-84049999D01*
X113004571Y-84049999D01*
X113004571Y-84050000D01*
X113024244Y-84262310D01*
X113082596Y-84467392D01*
X113082596Y-84467394D01*
X113177632Y-84658253D01*
X113297997Y-84817640D01*
X113306128Y-84828407D01*
X113463698Y-84972052D01*
X113644981Y-85084298D01*
X113843802Y-85161321D01*
X114053390Y-85200500D01*
X114053392Y-85200500D01*
X114266608Y-85200500D01*
X114266610Y-85200500D01*
X114476198Y-85161321D01*
X114675019Y-85084298D01*
X114856302Y-84972052D01*
X115013872Y-84828407D01*
X115142366Y-84658255D01*
X115178975Y-84584734D01*
X115237403Y-84467394D01*
X115237403Y-84467393D01*
X115237405Y-84467389D01*
X115295756Y-84262310D01*
X115306529Y-84146047D01*
X115332315Y-84081111D01*
X115374622Y-84050804D01*
X115483130Y-84050804D01*
X115519503Y-84071668D01*
X115551693Y-84133681D01*
X115553471Y-84146048D01*
X115564244Y-84262310D01*
X115622596Y-84467392D01*
X115622596Y-84467394D01*
X115717632Y-84658253D01*
X115837997Y-84817640D01*
X115846128Y-84828407D01*
X116003698Y-84972052D01*
X116184981Y-85084298D01*
X116383802Y-85161321D01*
X116593390Y-85200500D01*
X116593392Y-85200500D01*
X116806608Y-85200500D01*
X116806610Y-85200500D01*
X117016198Y-85161321D01*
X117215019Y-85084298D01*
X117396302Y-84972052D01*
X117553872Y-84828407D01*
X117682366Y-84658255D01*
X117718975Y-84584734D01*
X117777403Y-84467394D01*
X117777403Y-84467393D01*
X117777405Y-84467389D01*
X117835756Y-84262310D01*
X117846529Y-84146047D01*
X117872315Y-84081111D01*
X117914622Y-84050804D01*
X118023130Y-84050804D01*
X118059503Y-84071668D01*
X118091693Y-84133681D01*
X118093471Y-84146048D01*
X118104244Y-84262310D01*
X118162596Y-84467392D01*
X118162596Y-84467394D01*
X118257632Y-84658253D01*
X118377997Y-84817640D01*
X118386128Y-84828407D01*
X118543698Y-84972052D01*
X118724981Y-85084298D01*
X118923802Y-85161321D01*
X119133390Y-85200500D01*
X119133392Y-85200500D01*
X119346608Y-85200500D01*
X119346610Y-85200500D01*
X119556198Y-85161321D01*
X119755019Y-85084298D01*
X119936302Y-84972052D01*
X120093872Y-84828407D01*
X120222366Y-84658255D01*
X120258975Y-84584734D01*
X120317403Y-84467394D01*
X120317403Y-84467393D01*
X120317405Y-84467389D01*
X120375756Y-84262310D01*
X120386529Y-84146047D01*
X120412315Y-84081111D01*
X120454622Y-84050804D01*
X120563130Y-84050804D01*
X120599503Y-84071668D01*
X120631693Y-84133681D01*
X120633471Y-84146048D01*
X120644244Y-84262310D01*
X120702596Y-84467392D01*
X120702596Y-84467394D01*
X120797632Y-84658253D01*
X120917997Y-84817640D01*
X120926128Y-84828407D01*
X121083698Y-84972052D01*
X121264981Y-85084298D01*
X121463802Y-85161321D01*
X121673390Y-85200500D01*
X121673392Y-85200500D01*
X121886608Y-85200500D01*
X121886610Y-85200500D01*
X122096198Y-85161321D01*
X122295019Y-85084298D01*
X122476302Y-84972052D01*
X122633872Y-84828407D01*
X122762366Y-84658255D01*
X122798975Y-84584734D01*
X122857403Y-84467394D01*
X122857403Y-84467393D01*
X122857405Y-84467389D01*
X122915756Y-84262310D01*
X122926529Y-84146047D01*
X122952315Y-84081111D01*
X123009115Y-84040423D01*
X123078896Y-84036903D01*
X123139503Y-84071668D01*
X123171693Y-84133681D01*
X123173471Y-84146048D01*
X123184244Y-84262310D01*
X123242596Y-84467392D01*
X123242596Y-84467394D01*
X123337632Y-84658253D01*
X123457997Y-84817640D01*
X123466128Y-84828407D01*
X123623698Y-84972052D01*
X123804981Y-85084298D01*
X124003802Y-85161321D01*
X124213390Y-85200500D01*
X124213392Y-85200500D01*
X124426608Y-85200500D01*
X124426610Y-85200500D01*
X124636198Y-85161321D01*
X124835019Y-85084298D01*
X125016302Y-84972052D01*
X125173872Y-84828407D01*
X125302366Y-84658255D01*
X125338975Y-84584734D01*
X125397403Y-84467394D01*
X125397403Y-84467393D01*
X125397405Y-84467389D01*
X125455756Y-84262310D01*
X125466529Y-84146047D01*
X125492315Y-84081111D01*
X125534622Y-84050804D01*
X125643130Y-84050804D01*
X125679503Y-84071668D01*
X125711693Y-84133681D01*
X125713471Y-84146048D01*
X125724244Y-84262310D01*
X125782596Y-84467392D01*
X125782596Y-84467394D01*
X125877632Y-84658253D01*
X125997997Y-84817640D01*
X126006128Y-84828407D01*
X126163698Y-84972052D01*
X126344981Y-85084298D01*
X126543802Y-85161321D01*
X126753390Y-85200500D01*
X126753392Y-85200500D01*
X126966608Y-85200500D01*
X126966610Y-85200500D01*
X127176198Y-85161321D01*
X127375019Y-85084298D01*
X127556302Y-84972052D01*
X127713872Y-84828407D01*
X127842366Y-84658255D01*
X127878975Y-84584734D01*
X127937403Y-84467394D01*
X127937403Y-84467393D01*
X127937405Y-84467389D01*
X127995756Y-84262310D01*
X128006529Y-84146047D01*
X128032315Y-84081111D01*
X128074622Y-84050804D01*
X128183130Y-84050804D01*
X128219503Y-84071668D01*
X128251693Y-84133681D01*
X128253471Y-84146048D01*
X128264244Y-84262310D01*
X128322596Y-84467392D01*
X128322596Y-84467394D01*
X128417632Y-84658253D01*
X128537997Y-84817640D01*
X128546128Y-84828407D01*
X128703698Y-84972052D01*
X128884981Y-85084298D01*
X129083802Y-85161321D01*
X129293390Y-85200500D01*
X129293392Y-85200500D01*
X129506608Y-85200500D01*
X129506610Y-85200500D01*
X129716198Y-85161321D01*
X129915019Y-85084298D01*
X130096302Y-84972052D01*
X130253872Y-84828407D01*
X130382366Y-84658255D01*
X130418975Y-84584734D01*
X130477403Y-84467394D01*
X130477403Y-84467393D01*
X130477405Y-84467389D01*
X130535756Y-84262310D01*
X130546529Y-84146047D01*
X130572315Y-84081111D01*
X130614622Y-84050804D01*
X130723130Y-84050804D01*
X130759503Y-84071668D01*
X130791693Y-84133681D01*
X130793471Y-84146048D01*
X130804244Y-84262310D01*
X130862596Y-84467392D01*
X130862596Y-84467394D01*
X130957632Y-84658253D01*
X131077997Y-84817640D01*
X131086128Y-84828407D01*
X131243698Y-84972052D01*
X131424981Y-85084298D01*
X131623802Y-85161321D01*
X131833390Y-85200500D01*
X131833392Y-85200500D01*
X132046608Y-85200500D01*
X132046610Y-85200500D01*
X132256198Y-85161321D01*
X132455019Y-85084298D01*
X132636302Y-84972052D01*
X132793872Y-84828407D01*
X132922366Y-84658255D01*
X132958975Y-84584734D01*
X133017403Y-84467394D01*
X133017403Y-84467393D01*
X133017405Y-84467389D01*
X133075756Y-84262310D01*
X133095429Y-84050000D01*
X133075756Y-83837690D01*
X133017405Y-83632611D01*
X133017403Y-83632606D01*
X133017403Y-83632605D01*
X132922367Y-83441746D01*
X132793872Y-83271593D01*
X132761273Y-83241875D01*
X132636302Y-83127948D01*
X132455019Y-83015702D01*
X132455017Y-83015701D01*
X132355608Y-82977190D01*
X132256198Y-82938679D01*
X132046610Y-82899500D01*
X131833390Y-82899500D01*
X131623802Y-82938679D01*
X131623799Y-82938679D01*
X131623799Y-82938680D01*
X131424982Y-83015701D01*
X131424980Y-83015702D01*
X131243699Y-83127947D01*
X131086127Y-83271593D01*
X130957632Y-83441746D01*
X130862596Y-83632605D01*
X130862596Y-83632607D01*
X130804244Y-83837689D01*
X130793471Y-83953951D01*
X130767685Y-84018888D01*
X130723130Y-84050804D01*
X130614622Y-84050804D01*
X130616869Y-84049194D01*
X130580497Y-84028331D01*
X130548307Y-83966318D01*
X130546529Y-83953951D01*
X130542849Y-83914237D01*
X130535756Y-83837690D01*
X130477405Y-83632611D01*
X130477403Y-83632606D01*
X130477403Y-83632605D01*
X130382367Y-83441746D01*
X130253872Y-83271593D01*
X130221273Y-83241875D01*
X130096302Y-83127948D01*
X129915019Y-83015702D01*
X129915017Y-83015701D01*
X129815608Y-82977190D01*
X129716198Y-82938679D01*
X129506610Y-82899500D01*
X129293390Y-82899500D01*
X129083802Y-82938679D01*
X129083799Y-82938679D01*
X129083799Y-82938680D01*
X128884982Y-83015701D01*
X128884980Y-83015702D01*
X128703699Y-83127947D01*
X128546127Y-83271593D01*
X128417632Y-83441746D01*
X128322596Y-83632605D01*
X128322596Y-83632607D01*
X128264244Y-83837689D01*
X128253471Y-83953951D01*
X128227685Y-84018888D01*
X128183130Y-84050804D01*
X128074622Y-84050804D01*
X128076869Y-84049194D01*
X128040497Y-84028331D01*
X128008307Y-83966318D01*
X128006529Y-83953951D01*
X128002849Y-83914237D01*
X127995756Y-83837690D01*
X127937405Y-83632611D01*
X127937403Y-83632606D01*
X127937403Y-83632605D01*
X127842367Y-83441746D01*
X127713872Y-83271593D01*
X127681273Y-83241875D01*
X127556302Y-83127948D01*
X127375019Y-83015702D01*
X127375017Y-83015701D01*
X127275608Y-82977190D01*
X127176198Y-82938679D01*
X126966610Y-82899500D01*
X126753390Y-82899500D01*
X126543802Y-82938679D01*
X126543799Y-82938679D01*
X126543799Y-82938680D01*
X126344982Y-83015701D01*
X126344980Y-83015702D01*
X126163699Y-83127947D01*
X126006127Y-83271593D01*
X125877632Y-83441746D01*
X125782596Y-83632605D01*
X125782596Y-83632607D01*
X125724244Y-83837689D01*
X125713471Y-83953951D01*
X125687685Y-84018888D01*
X125643130Y-84050804D01*
X125534622Y-84050804D01*
X125536869Y-84049194D01*
X125500497Y-84028331D01*
X125468307Y-83966318D01*
X125466529Y-83953951D01*
X125462849Y-83914237D01*
X125455756Y-83837690D01*
X125397405Y-83632611D01*
X125397403Y-83632606D01*
X125397403Y-83632605D01*
X125302367Y-83441746D01*
X125173872Y-83271593D01*
X125141273Y-83241875D01*
X125016302Y-83127948D01*
X124835019Y-83015702D01*
X124835017Y-83015701D01*
X124735608Y-82977190D01*
X124636198Y-82938679D01*
X124426610Y-82899500D01*
X124213390Y-82899500D01*
X124003802Y-82938679D01*
X124003799Y-82938679D01*
X124003799Y-82938680D01*
X123804982Y-83015701D01*
X123804980Y-83015702D01*
X123623699Y-83127947D01*
X123466128Y-83271592D01*
X123447343Y-83296468D01*
X123391233Y-83338103D01*
X123380485Y-83341513D01*
X123335767Y-83353495D01*
X123335760Y-83353498D01*
X123238740Y-83409513D01*
X123238734Y-83409517D01*
X123159517Y-83488734D01*
X123159513Y-83488740D01*
X123103498Y-83585760D01*
X123103495Y-83585767D01*
X123093716Y-83622264D01*
X123057351Y-83681924D01*
X122994504Y-83712452D01*
X122925128Y-83704157D01*
X122871251Y-83659671D01*
X122858311Y-83634952D01*
X122857408Y-83632624D01*
X122857405Y-83632611D01*
X122812144Y-83541714D01*
X122762367Y-83441746D01*
X122633872Y-83271593D01*
X122601273Y-83241875D01*
X122476302Y-83127948D01*
X122295019Y-83015702D01*
X122295017Y-83015701D01*
X122195608Y-82977190D01*
X122096198Y-82938679D01*
X121886610Y-82899500D01*
X121673390Y-82899500D01*
X121463802Y-82938679D01*
X121463799Y-82938679D01*
X121463799Y-82938680D01*
X121264982Y-83015701D01*
X121264980Y-83015702D01*
X121083699Y-83127947D01*
X120926127Y-83271593D01*
X120797632Y-83441746D01*
X120702596Y-83632605D01*
X120702596Y-83632607D01*
X120644244Y-83837689D01*
X120633471Y-83953951D01*
X120607685Y-84018888D01*
X120563130Y-84050804D01*
X120454622Y-84050804D01*
X120456869Y-84049194D01*
X120420497Y-84028331D01*
X120388307Y-83966318D01*
X120386529Y-83953951D01*
X120382849Y-83914237D01*
X120375756Y-83837690D01*
X120317405Y-83632611D01*
X120317403Y-83632606D01*
X120317403Y-83632605D01*
X120222367Y-83441746D01*
X120093872Y-83271593D01*
X120061273Y-83241875D01*
X119936302Y-83127948D01*
X119755019Y-83015702D01*
X119755017Y-83015701D01*
X119655608Y-82977190D01*
X119556198Y-82938679D01*
X119346610Y-82899500D01*
X119133390Y-82899500D01*
X118923802Y-82938679D01*
X118923799Y-82938679D01*
X118923799Y-82938680D01*
X118724982Y-83015701D01*
X118724980Y-83015702D01*
X118543699Y-83127947D01*
X118386127Y-83271593D01*
X118257632Y-83441746D01*
X118162596Y-83632605D01*
X118162596Y-83632607D01*
X118104244Y-83837689D01*
X118093471Y-83953951D01*
X118067685Y-84018888D01*
X118023130Y-84050804D01*
X117914622Y-84050804D01*
X117916869Y-84049194D01*
X117880497Y-84028331D01*
X117848307Y-83966318D01*
X117846529Y-83953951D01*
X117842849Y-83914237D01*
X117835756Y-83837690D01*
X117777405Y-83632611D01*
X117777403Y-83632606D01*
X117777403Y-83632605D01*
X117682367Y-83441746D01*
X117553872Y-83271593D01*
X117521273Y-83241875D01*
X117396302Y-83127948D01*
X117215019Y-83015702D01*
X117215017Y-83015701D01*
X117115608Y-82977190D01*
X117016198Y-82938679D01*
X116806610Y-82899500D01*
X116593390Y-82899500D01*
X116383802Y-82938679D01*
X116383799Y-82938679D01*
X116383799Y-82938680D01*
X116184982Y-83015701D01*
X116184980Y-83015702D01*
X116003699Y-83127947D01*
X115846127Y-83271593D01*
X115717632Y-83441746D01*
X115622596Y-83632605D01*
X115622596Y-83632607D01*
X115564244Y-83837689D01*
X115553471Y-83953951D01*
X115527685Y-84018888D01*
X115483130Y-84050804D01*
X115374622Y-84050804D01*
X115376869Y-84049194D01*
X115340497Y-84028331D01*
X115308307Y-83966318D01*
X115306529Y-83953951D01*
X115302849Y-83914237D01*
X115295756Y-83837690D01*
X115237405Y-83632611D01*
X115237403Y-83632606D01*
X115237403Y-83632605D01*
X115142367Y-83441746D01*
X115013872Y-83271593D01*
X114981273Y-83241875D01*
X114856302Y-83127948D01*
X114675019Y-83015702D01*
X114675017Y-83015701D01*
X114575608Y-82977190D01*
X114476198Y-82938679D01*
X114266610Y-82899500D01*
X114053390Y-82899500D01*
X113843802Y-82938679D01*
X113843799Y-82938679D01*
X113843799Y-82938680D01*
X113644982Y-83015701D01*
X113644980Y-83015702D01*
X113463699Y-83127947D01*
X113306127Y-83271593D01*
X113177632Y-83441746D01*
X113082596Y-83632605D01*
X113082596Y-83632607D01*
X113024244Y-83837689D01*
X113004571Y-84049999D01*
X102782000Y-84049999D01*
X102782000Y-84000000D01*
X101808816Y-84000000D01*
X101824876Y-83983940D01*
X101875036Y-83897061D01*
X101901000Y-83800160D01*
X101901000Y-83699840D01*
X101875036Y-83602939D01*
X101824876Y-83516060D01*
X101808816Y-83500000D01*
X102782000Y-83500000D01*
X102782000Y-82940172D01*
X102781999Y-82940155D01*
X102775598Y-82880627D01*
X102775596Y-82880620D01*
X102725354Y-82745913D01*
X102725350Y-82745906D01*
X102639190Y-82630812D01*
X102639187Y-82630809D01*
X102524093Y-82544649D01*
X102524086Y-82544645D01*
X102389379Y-82494403D01*
X102389372Y-82494401D01*
X102329844Y-82488000D01*
X101770000Y-82488000D01*
X101770000Y-83461184D01*
X101753940Y-83445124D01*
X101667061Y-83394964D01*
X101570160Y-83369000D01*
X101469840Y-83369000D01*
X101372939Y-83394964D01*
X101286060Y-83445124D01*
X101270000Y-83461184D01*
X101270000Y-82488000D01*
X100710155Y-82488000D01*
X100650627Y-82494401D01*
X100650620Y-82494403D01*
X100515913Y-82544645D01*
X100515906Y-82544649D01*
X100400812Y-82630809D01*
X100400809Y-82630812D01*
X100314649Y-82745906D01*
X100314645Y-82745913D01*
X100264403Y-82880620D01*
X100264401Y-82880627D01*
X100258000Y-82940155D01*
X100258000Y-83466859D01*
X100238315Y-83533898D01*
X100185511Y-83579653D01*
X100116353Y-83589597D01*
X100052797Y-83560572D01*
X100015339Y-83502855D01*
X100013710Y-83497484D01*
X99966372Y-83341431D01*
X99867711Y-83156850D01*
X99824562Y-83104273D01*
X99734936Y-82995063D01*
X99573153Y-82862291D01*
X99573151Y-82862290D01*
X99573150Y-82862289D01*
X99388569Y-82763628D01*
X99288427Y-82733250D01*
X99188284Y-82702872D01*
X98980000Y-82682359D01*
X98771715Y-82702872D01*
X98571428Y-82763629D01*
X98386846Y-82862291D01*
X98225063Y-82995063D01*
X98092291Y-83156846D01*
X97993629Y-83341428D01*
X97932872Y-83541715D01*
X97912359Y-83750000D01*
X97932872Y-83958284D01*
X97948943Y-84011263D01*
X97986078Y-84133681D01*
X97993629Y-84158571D01*
X98092291Y-84343153D01*
X98225063Y-84504936D01*
X98251935Y-84526989D01*
X98291269Y-84584734D01*
X98293140Y-84654579D01*
X98260951Y-84710523D01*
X97808294Y-85163181D01*
X97746971Y-85196666D01*
X97720613Y-85199500D01*
X87677525Y-85199500D01*
X87593519Y-85222009D01*
X87537513Y-85237016D01*
X87537512Y-85237017D01*
X87411989Y-85309487D01*
X87411984Y-85309491D01*
X81809491Y-90911983D01*
X81809489Y-90911986D01*
X81737016Y-91037514D01*
X81737016Y-91037515D01*
X81699500Y-91177525D01*
X80050500Y-91177525D01*
X80050500Y-86250500D01*
X80070185Y-86183461D01*
X80122989Y-86137706D01*
X80192147Y-86127762D01*
X80255703Y-86156787D01*
X80281888Y-86188502D01*
X80289289Y-86201322D01*
X80497967Y-86481625D01*
X80506148Y-86490296D01*
X81360446Y-85635999D01*
X81421769Y-85602514D01*
X81491461Y-85607498D01*
X81545073Y-85646366D01*
X81576258Y-85685471D01*
X81711072Y-85810559D01*
X81746827Y-85870588D01*
X81744452Y-85940417D01*
X81714412Y-85989139D01*
X80862818Y-86840732D01*
X80862819Y-86840734D01*
X81005484Y-86960445D01*
X81297461Y-87152480D01*
X81609739Y-87309314D01*
X81609745Y-87309316D01*
X81938130Y-87428838D01*
X81938133Y-87428839D01*
X82278171Y-87509429D01*
X82625276Y-87549999D01*
X82625277Y-87550000D01*
X82974723Y-87550000D01*
X82974723Y-87549999D01*
X83321827Y-87509429D01*
X83321829Y-87509429D01*
X83661866Y-87428839D01*
X83661869Y-87428838D01*
X83990254Y-87309316D01*
X83990260Y-87309314D01*
X84302538Y-87152480D01*
X84594509Y-86960449D01*
X84594510Y-86960448D01*
X84737179Y-86840734D01*
X84737180Y-86840733D01*
X83885587Y-85989140D01*
X83852102Y-85927817D01*
X83857086Y-85858125D01*
X83888927Y-85810560D01*
X83927738Y-85774548D01*
X84023744Y-85685468D01*
X84054924Y-85646368D01*
X84112112Y-85606228D01*
X84181924Y-85603378D01*
X84239553Y-85636000D01*
X85093850Y-86490297D01*
X85093851Y-86490296D01*
X85102022Y-86481636D01*
X85102033Y-86481623D01*
X85310710Y-86201322D01*
X85485438Y-85898683D01*
X85485444Y-85898670D01*
X85623854Y-85577800D01*
X85724083Y-85243011D01*
X85724085Y-85243002D01*
X85784763Y-84898880D01*
X85784764Y-84898869D01*
X85805084Y-84550003D01*
X85805084Y-84549996D01*
X85784764Y-84201130D01*
X85784763Y-84201119D01*
X85724085Y-83856997D01*
X85724083Y-83856988D01*
X85692053Y-83750000D01*
X92832359Y-83750000D01*
X92852872Y-83958284D01*
X92868943Y-84011263D01*
X92906078Y-84133681D01*
X92913629Y-84158571D01*
X93012291Y-84343153D01*
X93145063Y-84504936D01*
X93304164Y-84635507D01*
X93306850Y-84637711D01*
X93491431Y-84736372D01*
X93691714Y-84797127D01*
X93900000Y-84817641D01*
X94108286Y-84797127D01*
X94308569Y-84736372D01*
X94493150Y-84637711D01*
X94654936Y-84504936D01*
X94787711Y-84343150D01*
X94886372Y-84158569D01*
X94947127Y-83958286D01*
X94967641Y-83750000D01*
X95372359Y-83750000D01*
X95392872Y-83958284D01*
X95408943Y-84011263D01*
X95446078Y-84133681D01*
X95453629Y-84158571D01*
X95552291Y-84343153D01*
X95685063Y-84504936D01*
X95844164Y-84635507D01*
X95846850Y-84637711D01*
X96031431Y-84736372D01*
X96231714Y-84797127D01*
X96440000Y-84817641D01*
X96648286Y-84797127D01*
X96848569Y-84736372D01*
X97033150Y-84637711D01*
X97194936Y-84504936D01*
X97327711Y-84343150D01*
X97426372Y-84158569D01*
X97487127Y-83958286D01*
X97507641Y-83750000D01*
X97487127Y-83541714D01*
X97426372Y-83341431D01*
X97327711Y-83156850D01*
X97284562Y-83104273D01*
X97194936Y-82995063D01*
X97033153Y-82862291D01*
X97033151Y-82862290D01*
X97033150Y-82862289D01*
X96848569Y-82763628D01*
X96748427Y-82733250D01*
X96648284Y-82702872D01*
X96440000Y-82682359D01*
X96231715Y-82702872D01*
X96031428Y-82763629D01*
X95846846Y-82862291D01*
X95685063Y-82995063D01*
X95552291Y-83156846D01*
X95453629Y-83341428D01*
X95392872Y-83541715D01*
X95372359Y-83750000D01*
X94967641Y-83750000D01*
X94947127Y-83541714D01*
X94886372Y-83341431D01*
X94787711Y-83156850D01*
X94744562Y-83104273D01*
X94654936Y-82995063D01*
X94493153Y-82862291D01*
X94493151Y-82862290D01*
X94493150Y-82862289D01*
X94308569Y-82763628D01*
X94208427Y-82733250D01*
X94108284Y-82702872D01*
X93900000Y-82682359D01*
X93691715Y-82702872D01*
X93491428Y-82763629D01*
X93306846Y-82862291D01*
X93145063Y-82995063D01*
X93012291Y-83156846D01*
X92913629Y-83341428D01*
X92852872Y-83541715D01*
X92832359Y-83750000D01*
X85692053Y-83750000D01*
X85623854Y-83522199D01*
X85485444Y-83201329D01*
X85485438Y-83201316D01*
X85310710Y-82898677D01*
X85102032Y-82618374D01*
X85093850Y-82609702D01*
X84239552Y-83463999D01*
X84178229Y-83497484D01*
X84108537Y-83492500D01*
X84054924Y-83453631D01*
X84045445Y-83441745D01*
X84023744Y-83414532D01*
X84023743Y-83414531D01*
X84023740Y-83414527D01*
X83888926Y-83289439D01*
X83853171Y-83229410D01*
X83855546Y-83159581D01*
X83885586Y-83110859D01*
X84737180Y-82259265D01*
X84737179Y-82259264D01*
X84594514Y-82139553D01*
X84425058Y-82028100D01*
X84379864Y-81974815D01*
X84370653Y-81905556D01*
X84400348Y-81842311D01*
X84459523Y-81805160D01*
X84493197Y-81800500D01*
X140106803Y-81800500D01*
X140173842Y-81820185D01*
G37*
%TD.AperFunction*%
%TD*%
M02*
