%TF.GenerationSoftware,KiCad,Pcbnew,8.0.4*%
%TF.CreationDate,2024-07-29T23:21:23-04:00*%
%TF.ProjectId,esp32-node-board-40x65_telemetry,65737033-322d-46e6-9f64-652d626f6172,rev?*%
%TF.SameCoordinates,Original*%
%TF.FileFunction,Legend,Top*%
%TF.FilePolarity,Positive*%
%FSLAX46Y46*%
G04 Gerber Fmt 4.6, Leading zero omitted, Abs format (unit mm)*
G04 Created by KiCad (PCBNEW 8.0.4) date 2024-07-29 23:21:23*
%MOMM*%
%LPD*%
G01*
G04 APERTURE LIST*
%ADD10C,0.150000*%
%ADD11C,0.100000*%
%ADD12C,0.200000*%
%ADD13C,0.120000*%
%ADD14C,1.000000*%
%ADD15C,0.152400*%
G04 APERTURE END LIST*
D10*
X130260734Y-102959580D02*
X130213115Y-103007200D01*
X130213115Y-103007200D02*
X130070258Y-103054819D01*
X130070258Y-103054819D02*
X129975020Y-103054819D01*
X129975020Y-103054819D02*
X129832163Y-103007200D01*
X129832163Y-103007200D02*
X129736925Y-102911961D01*
X129736925Y-102911961D02*
X129689306Y-102816723D01*
X129689306Y-102816723D02*
X129641687Y-102626247D01*
X129641687Y-102626247D02*
X129641687Y-102483390D01*
X129641687Y-102483390D02*
X129689306Y-102292914D01*
X129689306Y-102292914D02*
X129736925Y-102197676D01*
X129736925Y-102197676D02*
X129832163Y-102102438D01*
X129832163Y-102102438D02*
X129975020Y-102054819D01*
X129975020Y-102054819D02*
X130070258Y-102054819D01*
X130070258Y-102054819D02*
X130213115Y-102102438D01*
X130213115Y-102102438D02*
X130260734Y-102150057D01*
X130641687Y-102150057D02*
X130689306Y-102102438D01*
X130689306Y-102102438D02*
X130784544Y-102054819D01*
X130784544Y-102054819D02*
X131022639Y-102054819D01*
X131022639Y-102054819D02*
X131117877Y-102102438D01*
X131117877Y-102102438D02*
X131165496Y-102150057D01*
X131165496Y-102150057D02*
X131213115Y-102245295D01*
X131213115Y-102245295D02*
X131213115Y-102340533D01*
X131213115Y-102340533D02*
X131165496Y-102483390D01*
X131165496Y-102483390D02*
X130594068Y-103054819D01*
X130594068Y-103054819D02*
X131213115Y-103054819D01*
D11*
X79113097Y-131527419D02*
X79113097Y-130527419D01*
X79113097Y-131003609D02*
X79684525Y-131003609D01*
X79684525Y-131527419D02*
X79684525Y-130527419D01*
X80684525Y-131527419D02*
X80113097Y-131527419D01*
X80398811Y-131527419D02*
X80398811Y-130527419D01*
X80398811Y-130527419D02*
X80303573Y-130670276D01*
X80303573Y-130670276D02*
X80208335Y-130765514D01*
X80208335Y-130765514D02*
X80113097Y-130813133D01*
D10*
X140204819Y-96983333D02*
X140919104Y-96983333D01*
X140919104Y-96983333D02*
X141061961Y-97030952D01*
X141061961Y-97030952D02*
X141157200Y-97126190D01*
X141157200Y-97126190D02*
X141204819Y-97269047D01*
X141204819Y-97269047D02*
X141204819Y-97364285D01*
X140633390Y-96364285D02*
X140585771Y-96459523D01*
X140585771Y-96459523D02*
X140538152Y-96507142D01*
X140538152Y-96507142D02*
X140442914Y-96554761D01*
X140442914Y-96554761D02*
X140395295Y-96554761D01*
X140395295Y-96554761D02*
X140300057Y-96507142D01*
X140300057Y-96507142D02*
X140252438Y-96459523D01*
X140252438Y-96459523D02*
X140204819Y-96364285D01*
X140204819Y-96364285D02*
X140204819Y-96173809D01*
X140204819Y-96173809D02*
X140252438Y-96078571D01*
X140252438Y-96078571D02*
X140300057Y-96030952D01*
X140300057Y-96030952D02*
X140395295Y-95983333D01*
X140395295Y-95983333D02*
X140442914Y-95983333D01*
X140442914Y-95983333D02*
X140538152Y-96030952D01*
X140538152Y-96030952D02*
X140585771Y-96078571D01*
X140585771Y-96078571D02*
X140633390Y-96173809D01*
X140633390Y-96173809D02*
X140633390Y-96364285D01*
X140633390Y-96364285D02*
X140681009Y-96459523D01*
X140681009Y-96459523D02*
X140728628Y-96507142D01*
X140728628Y-96507142D02*
X140823866Y-96554761D01*
X140823866Y-96554761D02*
X141014342Y-96554761D01*
X141014342Y-96554761D02*
X141109580Y-96507142D01*
X141109580Y-96507142D02*
X141157200Y-96459523D01*
X141157200Y-96459523D02*
X141204819Y-96364285D01*
X141204819Y-96364285D02*
X141204819Y-96173809D01*
X141204819Y-96173809D02*
X141157200Y-96078571D01*
X141157200Y-96078571D02*
X141109580Y-96030952D01*
X141109580Y-96030952D02*
X141014342Y-95983333D01*
X141014342Y-95983333D02*
X140823866Y-95983333D01*
X140823866Y-95983333D02*
X140728628Y-96030952D01*
X140728628Y-96030952D02*
X140681009Y-96078571D01*
X140681009Y-96078571D02*
X140633390Y-96173809D01*
X137390819Y-97157999D02*
X137628914Y-97157999D01*
X137533676Y-97396094D02*
X137628914Y-97157999D01*
X137628914Y-97157999D02*
X137533676Y-96919904D01*
X137819390Y-97300856D02*
X137628914Y-97157999D01*
X137628914Y-97157999D02*
X137819390Y-97015142D01*
X137390819Y-97157999D02*
X137628914Y-97157999D01*
X137533676Y-97396094D02*
X137628914Y-97157999D01*
X137628914Y-97157999D02*
X137533676Y-96919904D01*
X137819390Y-97300856D02*
X137628914Y-97157999D01*
X137628914Y-97157999D02*
X137819390Y-97015142D01*
X140309580Y-106071467D02*
X140357200Y-106119086D01*
X140357200Y-106119086D02*
X140404819Y-106261943D01*
X140404819Y-106261943D02*
X140404819Y-106357181D01*
X140404819Y-106357181D02*
X140357200Y-106500038D01*
X140357200Y-106500038D02*
X140261961Y-106595276D01*
X140261961Y-106595276D02*
X140166723Y-106642895D01*
X140166723Y-106642895D02*
X139976247Y-106690514D01*
X139976247Y-106690514D02*
X139833390Y-106690514D01*
X139833390Y-106690514D02*
X139642914Y-106642895D01*
X139642914Y-106642895D02*
X139547676Y-106595276D01*
X139547676Y-106595276D02*
X139452438Y-106500038D01*
X139452438Y-106500038D02*
X139404819Y-106357181D01*
X139404819Y-106357181D02*
X139404819Y-106261943D01*
X139404819Y-106261943D02*
X139452438Y-106119086D01*
X139452438Y-106119086D02*
X139500057Y-106071467D01*
X140404819Y-105119086D02*
X140404819Y-105690514D01*
X140404819Y-105404800D02*
X139404819Y-105404800D01*
X139404819Y-105404800D02*
X139547676Y-105500038D01*
X139547676Y-105500038D02*
X139642914Y-105595276D01*
X139642914Y-105595276D02*
X139690533Y-105690514D01*
D11*
X112202580Y-83416666D02*
X111488295Y-83416666D01*
X111488295Y-83416666D02*
X111345438Y-83369047D01*
X111345438Y-83369047D02*
X111250200Y-83273809D01*
X111250200Y-83273809D02*
X111202580Y-83130952D01*
X111202580Y-83130952D02*
X111202580Y-83035714D01*
X112202580Y-83797619D02*
X112202580Y-84416666D01*
X112202580Y-84416666D02*
X111821628Y-84083333D01*
X111821628Y-84083333D02*
X111821628Y-84226190D01*
X111821628Y-84226190D02*
X111774009Y-84321428D01*
X111774009Y-84321428D02*
X111726390Y-84369047D01*
X111726390Y-84369047D02*
X111631152Y-84416666D01*
X111631152Y-84416666D02*
X111393057Y-84416666D01*
X111393057Y-84416666D02*
X111297819Y-84369047D01*
X111297819Y-84369047D02*
X111250200Y-84321428D01*
X111250200Y-84321428D02*
X111202580Y-84226190D01*
X111202580Y-84226190D02*
X111202580Y-83940476D01*
X111202580Y-83940476D02*
X111250200Y-83845238D01*
X111250200Y-83845238D02*
X111297819Y-83797619D01*
X103937009Y-85528095D02*
X103975104Y-85432857D01*
X103975104Y-85432857D02*
X103975104Y-85290000D01*
X103975104Y-85290000D02*
X103937009Y-85147143D01*
X103937009Y-85147143D02*
X103860819Y-85051905D01*
X103860819Y-85051905D02*
X103784628Y-85004286D01*
X103784628Y-85004286D02*
X103632247Y-84956667D01*
X103632247Y-84956667D02*
X103517961Y-84956667D01*
X103517961Y-84956667D02*
X103365580Y-85004286D01*
X103365580Y-85004286D02*
X103289390Y-85051905D01*
X103289390Y-85051905D02*
X103213200Y-85147143D01*
X103213200Y-85147143D02*
X103175104Y-85290000D01*
X103175104Y-85290000D02*
X103175104Y-85385238D01*
X103175104Y-85385238D02*
X103213200Y-85528095D01*
X103213200Y-85528095D02*
X103251295Y-85575714D01*
X103251295Y-85575714D02*
X103517961Y-85575714D01*
X103517961Y-85575714D02*
X103517961Y-85385238D01*
X103175104Y-86004286D02*
X103975104Y-86004286D01*
X103975104Y-86004286D02*
X103175104Y-86575714D01*
X103175104Y-86575714D02*
X103975104Y-86575714D01*
X103175104Y-87051905D02*
X103975104Y-87051905D01*
X103975104Y-87051905D02*
X103975104Y-87290000D01*
X103975104Y-87290000D02*
X103937009Y-87432857D01*
X103937009Y-87432857D02*
X103860819Y-87528095D01*
X103860819Y-87528095D02*
X103784628Y-87575714D01*
X103784628Y-87575714D02*
X103632247Y-87623333D01*
X103632247Y-87623333D02*
X103517961Y-87623333D01*
X103517961Y-87623333D02*
X103365580Y-87575714D01*
X103365580Y-87575714D02*
X103289390Y-87528095D01*
X103289390Y-87528095D02*
X103213200Y-87432857D01*
X103213200Y-87432857D02*
X103175104Y-87290000D01*
X103175104Y-87290000D02*
X103175104Y-87051905D01*
D12*
G36*
X94723891Y-84982999D02*
G01*
X93301669Y-84982999D01*
X93301669Y-84488095D01*
X93412780Y-84488095D01*
X93412780Y-84583333D01*
X93413752Y-84593206D01*
X93413565Y-84595841D01*
X93414352Y-84599304D01*
X93414701Y-84602842D01*
X93415712Y-84605283D01*
X93417912Y-84614956D01*
X93465532Y-84757814D01*
X93473524Y-84775714D01*
X93475878Y-84778428D01*
X93477253Y-84781747D01*
X93489689Y-84796901D01*
X93537308Y-84844519D01*
X93552461Y-84856956D01*
X93588510Y-84871887D01*
X93627528Y-84871887D01*
X93663576Y-84856956D01*
X93691166Y-84829366D01*
X93706097Y-84793318D01*
X93706097Y-84754300D01*
X93691166Y-84718251D01*
X93678729Y-84703098D01*
X93647802Y-84672170D01*
X93612780Y-84567105D01*
X93612780Y-84504322D01*
X93647802Y-84399257D01*
X93714875Y-84332185D01*
X93785780Y-84296732D01*
X93953661Y-84254762D01*
X94071899Y-84254762D01*
X94239780Y-84296732D01*
X94310686Y-84332185D01*
X94377758Y-84399257D01*
X94412780Y-84504321D01*
X94412780Y-84567106D01*
X94377758Y-84672171D01*
X94346831Y-84703098D01*
X94334395Y-84718252D01*
X94319463Y-84754300D01*
X94319463Y-84793318D01*
X94334395Y-84829366D01*
X94361985Y-84856956D01*
X94398033Y-84871888D01*
X94437051Y-84871888D01*
X94473099Y-84856956D01*
X94488253Y-84844520D01*
X94535871Y-84796901D01*
X94548308Y-84781748D01*
X94549682Y-84778428D01*
X94552038Y-84775713D01*
X94560029Y-84757813D01*
X94607648Y-84614956D01*
X94609847Y-84605283D01*
X94610859Y-84602842D01*
X94611207Y-84599304D01*
X94611995Y-84595841D01*
X94611807Y-84593206D01*
X94612780Y-84583333D01*
X94612780Y-84488095D01*
X94611807Y-84478221D01*
X94611995Y-84475587D01*
X94611207Y-84472123D01*
X94610859Y-84468586D01*
X94609847Y-84466144D01*
X94607648Y-84456472D01*
X94560029Y-84313615D01*
X94552038Y-84295715D01*
X94549682Y-84292999D01*
X94548308Y-84289681D01*
X94535872Y-84274527D01*
X94440634Y-84179289D01*
X94432963Y-84172994D01*
X94431234Y-84171000D01*
X94428226Y-84169106D01*
X94425480Y-84166853D01*
X94423040Y-84165842D01*
X94414644Y-84160557D01*
X94319406Y-84112938D01*
X94317979Y-84112392D01*
X94317399Y-84111962D01*
X94309222Y-84109040D01*
X94301098Y-84105932D01*
X94300375Y-84105880D01*
X94298938Y-84105367D01*
X94108463Y-84057748D01*
X94105081Y-84057247D01*
X94103718Y-84056683D01*
X94096367Y-84055959D01*
X94089070Y-84054880D01*
X94087611Y-84055097D01*
X94084209Y-84054762D01*
X93941352Y-84054762D01*
X93937949Y-84055097D01*
X93936491Y-84054880D01*
X93929193Y-84055959D01*
X93921843Y-84056683D01*
X93920479Y-84057247D01*
X93917098Y-84057748D01*
X93726622Y-84105367D01*
X93725183Y-84105880D01*
X93724463Y-84105932D01*
X93716338Y-84109040D01*
X93708162Y-84111962D01*
X93707582Y-84112391D01*
X93706154Y-84112938D01*
X93610917Y-84160557D01*
X93602518Y-84165843D01*
X93600081Y-84166853D01*
X93597337Y-84169104D01*
X93594326Y-84171000D01*
X93592593Y-84172997D01*
X93584927Y-84179289D01*
X93489689Y-84274527D01*
X93477253Y-84289681D01*
X93475878Y-84292999D01*
X93473524Y-84295714D01*
X93465532Y-84313614D01*
X93417912Y-84456472D01*
X93415712Y-84466144D01*
X93414701Y-84468586D01*
X93414352Y-84472123D01*
X93413565Y-84475587D01*
X93413752Y-84478221D01*
X93412780Y-84488095D01*
X93301669Y-84488095D01*
X93301669Y-83154762D01*
X93412780Y-83154762D01*
X93412780Y-83773809D01*
X93414701Y-83793318D01*
X93429633Y-83829366D01*
X93457223Y-83856956D01*
X93493271Y-83871888D01*
X93532289Y-83871888D01*
X93568337Y-83856956D01*
X93595927Y-83829366D01*
X93610859Y-83793318D01*
X93612780Y-83773809D01*
X93612780Y-83396183D01*
X94013498Y-83796901D01*
X94028652Y-83809337D01*
X94031970Y-83810711D01*
X94034686Y-83813067D01*
X94052586Y-83821058D01*
X94195443Y-83868677D01*
X94205115Y-83870876D01*
X94207557Y-83871888D01*
X94211094Y-83872236D01*
X94214558Y-83873024D01*
X94217192Y-83872836D01*
X94227066Y-83873809D01*
X94322304Y-83873809D01*
X94341813Y-83871888D01*
X94345133Y-83870512D01*
X94348717Y-83870258D01*
X94367025Y-83863252D01*
X94462263Y-83815633D01*
X94470659Y-83810347D01*
X94473099Y-83809337D01*
X94475845Y-83807083D01*
X94478853Y-83805190D01*
X94480582Y-83803195D01*
X94488253Y-83796901D01*
X94535871Y-83749282D01*
X94542163Y-83741615D01*
X94544161Y-83739883D01*
X94546054Y-83736874D01*
X94548308Y-83734129D01*
X94549318Y-83731688D01*
X94554604Y-83723292D01*
X94602223Y-83628055D01*
X94609229Y-83609746D01*
X94609483Y-83606162D01*
X94610859Y-83602842D01*
X94612780Y-83583333D01*
X94612780Y-83345238D01*
X94610859Y-83325729D01*
X94609483Y-83322408D01*
X94609229Y-83318825D01*
X94602223Y-83300516D01*
X94554604Y-83205279D01*
X94549318Y-83196882D01*
X94548308Y-83194442D01*
X94546054Y-83191696D01*
X94544161Y-83188688D01*
X94542163Y-83186955D01*
X94535871Y-83179289D01*
X94488253Y-83131670D01*
X94473099Y-83119234D01*
X94437051Y-83104302D01*
X94398033Y-83104302D01*
X94361985Y-83119234D01*
X94334395Y-83146824D01*
X94319463Y-83182872D01*
X94319463Y-83221890D01*
X94334395Y-83257938D01*
X94346831Y-83273092D01*
X94382975Y-83309235D01*
X94412780Y-83368845D01*
X94412780Y-83559726D01*
X94382975Y-83619335D01*
X94358306Y-83644003D01*
X94298697Y-83673809D01*
X94243292Y-83673809D01*
X94138228Y-83638787D01*
X93583491Y-83084051D01*
X93568337Y-83071615D01*
X93532289Y-83056683D01*
X93493271Y-83056683D01*
X93457223Y-83071615D01*
X93429633Y-83099205D01*
X93414701Y-83135253D01*
X93412780Y-83154762D01*
X93301669Y-83154762D01*
X93301669Y-82754301D01*
X93414701Y-82754301D01*
X93414701Y-82793319D01*
X93429633Y-82829367D01*
X93457223Y-82856957D01*
X93493271Y-82871889D01*
X93512780Y-82873810D01*
X94512780Y-82873810D01*
X94532289Y-82871889D01*
X94568337Y-82856957D01*
X94595927Y-82829367D01*
X94610859Y-82793319D01*
X94610859Y-82754301D01*
X94595927Y-82718253D01*
X94568337Y-82690663D01*
X94532289Y-82675731D01*
X94512780Y-82673810D01*
X93512780Y-82673810D01*
X93493271Y-82675731D01*
X93457223Y-82690663D01*
X93429633Y-82718253D01*
X93414701Y-82754301D01*
X93301669Y-82754301D01*
X93301669Y-82562699D01*
X94723891Y-82562699D01*
X94723891Y-84982999D01*
G37*
D11*
X101435104Y-85099524D02*
X100635104Y-85432857D01*
X100635104Y-85432857D02*
X101435104Y-85766190D01*
X100673200Y-86528095D02*
X100635104Y-86432857D01*
X100635104Y-86432857D02*
X100635104Y-86242381D01*
X100635104Y-86242381D02*
X100673200Y-86147143D01*
X100673200Y-86147143D02*
X100711295Y-86099524D01*
X100711295Y-86099524D02*
X100787485Y-86051905D01*
X100787485Y-86051905D02*
X101016057Y-86051905D01*
X101016057Y-86051905D02*
X101092247Y-86099524D01*
X101092247Y-86099524D02*
X101130342Y-86147143D01*
X101130342Y-86147143D02*
X101168438Y-86242381D01*
X101168438Y-86242381D02*
X101168438Y-86432857D01*
X101168438Y-86432857D02*
X101130342Y-86528095D01*
X100673200Y-87385238D02*
X100635104Y-87290000D01*
X100635104Y-87290000D02*
X100635104Y-87099524D01*
X100635104Y-87099524D02*
X100673200Y-87004286D01*
X100673200Y-87004286D02*
X100711295Y-86956667D01*
X100711295Y-86956667D02*
X100787485Y-86909048D01*
X100787485Y-86909048D02*
X101016057Y-86909048D01*
X101016057Y-86909048D02*
X101092247Y-86956667D01*
X101092247Y-86956667D02*
X101130342Y-87004286D01*
X101130342Y-87004286D02*
X101168438Y-87099524D01*
X101168438Y-87099524D02*
X101168438Y-87290000D01*
X101168438Y-87290000D02*
X101130342Y-87385238D01*
X95593200Y-85099524D02*
X95555104Y-85242381D01*
X95555104Y-85242381D02*
X95555104Y-85480476D01*
X95555104Y-85480476D02*
X95593200Y-85575714D01*
X95593200Y-85575714D02*
X95631295Y-85623333D01*
X95631295Y-85623333D02*
X95707485Y-85670952D01*
X95707485Y-85670952D02*
X95783676Y-85670952D01*
X95783676Y-85670952D02*
X95859866Y-85623333D01*
X95859866Y-85623333D02*
X95897961Y-85575714D01*
X95897961Y-85575714D02*
X95936057Y-85480476D01*
X95936057Y-85480476D02*
X95974152Y-85290000D01*
X95974152Y-85290000D02*
X96012247Y-85194762D01*
X96012247Y-85194762D02*
X96050342Y-85147143D01*
X96050342Y-85147143D02*
X96126533Y-85099524D01*
X96126533Y-85099524D02*
X96202723Y-85099524D01*
X96202723Y-85099524D02*
X96278914Y-85147143D01*
X96278914Y-85147143D02*
X96317009Y-85194762D01*
X96317009Y-85194762D02*
X96355104Y-85290000D01*
X96355104Y-85290000D02*
X96355104Y-85528095D01*
X96355104Y-85528095D02*
X96317009Y-85670952D01*
X95631295Y-86670952D02*
X95593200Y-86623333D01*
X95593200Y-86623333D02*
X95555104Y-86480476D01*
X95555104Y-86480476D02*
X95555104Y-86385238D01*
X95555104Y-86385238D02*
X95593200Y-86242381D01*
X95593200Y-86242381D02*
X95669390Y-86147143D01*
X95669390Y-86147143D02*
X95745580Y-86099524D01*
X95745580Y-86099524D02*
X95897961Y-86051905D01*
X95897961Y-86051905D02*
X96012247Y-86051905D01*
X96012247Y-86051905D02*
X96164628Y-86099524D01*
X96164628Y-86099524D02*
X96240819Y-86147143D01*
X96240819Y-86147143D02*
X96317009Y-86242381D01*
X96317009Y-86242381D02*
X96355104Y-86385238D01*
X96355104Y-86385238D02*
X96355104Y-86480476D01*
X96355104Y-86480476D02*
X96317009Y-86623333D01*
X96317009Y-86623333D02*
X96278914Y-86670952D01*
X95555104Y-87575714D02*
X95555104Y-87099524D01*
X95555104Y-87099524D02*
X96355104Y-87099524D01*
X98133200Y-85075714D02*
X98095104Y-85218571D01*
X98095104Y-85218571D02*
X98095104Y-85456666D01*
X98095104Y-85456666D02*
X98133200Y-85551904D01*
X98133200Y-85551904D02*
X98171295Y-85599523D01*
X98171295Y-85599523D02*
X98247485Y-85647142D01*
X98247485Y-85647142D02*
X98323676Y-85647142D01*
X98323676Y-85647142D02*
X98399866Y-85599523D01*
X98399866Y-85599523D02*
X98437961Y-85551904D01*
X98437961Y-85551904D02*
X98476057Y-85456666D01*
X98476057Y-85456666D02*
X98514152Y-85266190D01*
X98514152Y-85266190D02*
X98552247Y-85170952D01*
X98552247Y-85170952D02*
X98590342Y-85123333D01*
X98590342Y-85123333D02*
X98666533Y-85075714D01*
X98666533Y-85075714D02*
X98742723Y-85075714D01*
X98742723Y-85075714D02*
X98818914Y-85123333D01*
X98818914Y-85123333D02*
X98857009Y-85170952D01*
X98857009Y-85170952D02*
X98895104Y-85266190D01*
X98895104Y-85266190D02*
X98895104Y-85504285D01*
X98895104Y-85504285D02*
X98857009Y-85647142D01*
X98095104Y-86075714D02*
X98895104Y-86075714D01*
X98895104Y-86075714D02*
X98895104Y-86313809D01*
X98895104Y-86313809D02*
X98857009Y-86456666D01*
X98857009Y-86456666D02*
X98780819Y-86551904D01*
X98780819Y-86551904D02*
X98704628Y-86599523D01*
X98704628Y-86599523D02*
X98552247Y-86647142D01*
X98552247Y-86647142D02*
X98437961Y-86647142D01*
X98437961Y-86647142D02*
X98285580Y-86599523D01*
X98285580Y-86599523D02*
X98209390Y-86551904D01*
X98209390Y-86551904D02*
X98133200Y-86456666D01*
X98133200Y-86456666D02*
X98095104Y-86313809D01*
X98095104Y-86313809D02*
X98095104Y-86075714D01*
X98323676Y-87028095D02*
X98323676Y-87504285D01*
X98095104Y-86932857D02*
X98895104Y-87266190D01*
X98895104Y-87266190D02*
X98095104Y-87599523D01*
D10*
X137304819Y-93416666D02*
X136828628Y-93749999D01*
X137304819Y-93988094D02*
X136304819Y-93988094D01*
X136304819Y-93988094D02*
X136304819Y-93607142D01*
X136304819Y-93607142D02*
X136352438Y-93511904D01*
X136352438Y-93511904D02*
X136400057Y-93464285D01*
X136400057Y-93464285D02*
X136495295Y-93416666D01*
X136495295Y-93416666D02*
X136638152Y-93416666D01*
X136638152Y-93416666D02*
X136733390Y-93464285D01*
X136733390Y-93464285D02*
X136781009Y-93511904D01*
X136781009Y-93511904D02*
X136828628Y-93607142D01*
X136828628Y-93607142D02*
X136828628Y-93988094D01*
X136304819Y-93083332D02*
X136304819Y-92416666D01*
X136304819Y-92416666D02*
X137304819Y-92845237D01*
D11*
X86452580Y-88416666D02*
X85738295Y-88416666D01*
X85738295Y-88416666D02*
X85595438Y-88369047D01*
X85595438Y-88369047D02*
X85500200Y-88273809D01*
X85500200Y-88273809D02*
X85452580Y-88130952D01*
X85452580Y-88130952D02*
X85452580Y-88035714D01*
X86452580Y-89321428D02*
X86452580Y-89130952D01*
X86452580Y-89130952D02*
X86404961Y-89035714D01*
X86404961Y-89035714D02*
X86357342Y-88988095D01*
X86357342Y-88988095D02*
X86214485Y-88892857D01*
X86214485Y-88892857D02*
X86024009Y-88845238D01*
X86024009Y-88845238D02*
X85643057Y-88845238D01*
X85643057Y-88845238D02*
X85547819Y-88892857D01*
X85547819Y-88892857D02*
X85500200Y-88940476D01*
X85500200Y-88940476D02*
X85452580Y-89035714D01*
X85452580Y-89035714D02*
X85452580Y-89226190D01*
X85452580Y-89226190D02*
X85500200Y-89321428D01*
X85500200Y-89321428D02*
X85547819Y-89369047D01*
X85547819Y-89369047D02*
X85643057Y-89416666D01*
X85643057Y-89416666D02*
X85881152Y-89416666D01*
X85881152Y-89416666D02*
X85976390Y-89369047D01*
X85976390Y-89369047D02*
X86024009Y-89321428D01*
X86024009Y-89321428D02*
X86071628Y-89226190D01*
X86071628Y-89226190D02*
X86071628Y-89035714D01*
X86071628Y-89035714D02*
X86024009Y-88940476D01*
X86024009Y-88940476D02*
X85976390Y-88892857D01*
X85976390Y-88892857D02*
X85881152Y-88845238D01*
D12*
G36*
X89000304Y-85183147D02*
G01*
X88974806Y-85259640D01*
X88926782Y-85307664D01*
X88874924Y-85333593D01*
X88745137Y-85366041D01*
X88655471Y-85366041D01*
X88525684Y-85333593D01*
X88473827Y-85307665D01*
X88425802Y-85259640D01*
X88400304Y-85183146D01*
X88400304Y-85108898D01*
X89000304Y-85108898D01*
X89000304Y-85183147D01*
G37*
G36*
X89300304Y-85666041D02*
G01*
X88100304Y-85666041D01*
X88100304Y-85008898D01*
X88200304Y-85008898D01*
X88200304Y-85199374D01*
X88201276Y-85209247D01*
X88201089Y-85211882D01*
X88201876Y-85215345D01*
X88202225Y-85218883D01*
X88203236Y-85221324D01*
X88205436Y-85230997D01*
X88243532Y-85345283D01*
X88251524Y-85363183D01*
X88253877Y-85365896D01*
X88255253Y-85369217D01*
X88267689Y-85384371D01*
X88343879Y-85460561D01*
X88351545Y-85466852D01*
X88353278Y-85468850D01*
X88356289Y-85470745D01*
X88359033Y-85472997D01*
X88361470Y-85474006D01*
X88369869Y-85479293D01*
X88446059Y-85517388D01*
X88447483Y-85517933D01*
X88448065Y-85518364D01*
X88456256Y-85521290D01*
X88464367Y-85524394D01*
X88465087Y-85524445D01*
X88466526Y-85524959D01*
X88618907Y-85563055D01*
X88622288Y-85563555D01*
X88623652Y-85564120D01*
X88631000Y-85564843D01*
X88638299Y-85565923D01*
X88639757Y-85565705D01*
X88643161Y-85566041D01*
X88757447Y-85566041D01*
X88760850Y-85565705D01*
X88762309Y-85565923D01*
X88769607Y-85564843D01*
X88776956Y-85564120D01*
X88778319Y-85563555D01*
X88781701Y-85563055D01*
X88934082Y-85524959D01*
X88935520Y-85524445D01*
X88936240Y-85524394D01*
X88944342Y-85521293D01*
X88952543Y-85518364D01*
X88953124Y-85517933D01*
X88954549Y-85517388D01*
X89030740Y-85479293D01*
X89039136Y-85474007D01*
X89041576Y-85472997D01*
X89044322Y-85470743D01*
X89047330Y-85468850D01*
X89049060Y-85466855D01*
X89056730Y-85460561D01*
X89132920Y-85384371D01*
X89145356Y-85369217D01*
X89146730Y-85365898D01*
X89149086Y-85363183D01*
X89157077Y-85345283D01*
X89195172Y-85230996D01*
X89197371Y-85221325D01*
X89198383Y-85218883D01*
X89198731Y-85215343D01*
X89199519Y-85211881D01*
X89199331Y-85209247D01*
X89200304Y-85199374D01*
X89200304Y-85008898D01*
X89198383Y-84989389D01*
X89183451Y-84953341D01*
X89155861Y-84925751D01*
X89119813Y-84910819D01*
X89100304Y-84908898D01*
X88300304Y-84908898D01*
X88280795Y-84910819D01*
X88244747Y-84925751D01*
X88217157Y-84953341D01*
X88202225Y-84989389D01*
X88200304Y-85008898D01*
X88100304Y-85008898D01*
X88100304Y-84620961D01*
X88200548Y-84620961D01*
X88202225Y-84634154D01*
X88202225Y-84647455D01*
X88204664Y-84653343D01*
X88205468Y-84659668D01*
X88212068Y-84671217D01*
X88217157Y-84683503D01*
X88221664Y-84688010D01*
X88224827Y-84693545D01*
X88235341Y-84701687D01*
X88244747Y-84711093D01*
X88250637Y-84713532D01*
X88255676Y-84717435D01*
X88268504Y-84720933D01*
X88280795Y-84726025D01*
X88290772Y-84727007D01*
X88293319Y-84727702D01*
X88295286Y-84727451D01*
X88300304Y-84727946D01*
X89100304Y-84727946D01*
X89119813Y-84726025D01*
X89155861Y-84711093D01*
X89183451Y-84683503D01*
X89198383Y-84647455D01*
X89198383Y-84608437D01*
X89183451Y-84572389D01*
X89155861Y-84544799D01*
X89119813Y-84529867D01*
X89100304Y-84527946D01*
X88676860Y-84527946D01*
X89149918Y-84257627D01*
X89154028Y-84254708D01*
X89155861Y-84253950D01*
X89157727Y-84252083D01*
X89165903Y-84246280D01*
X89174045Y-84235765D01*
X89183451Y-84226360D01*
X89185890Y-84220469D01*
X89189793Y-84215431D01*
X89193291Y-84202603D01*
X89198383Y-84190312D01*
X89198383Y-84183935D01*
X89200060Y-84177787D01*
X89198383Y-84164593D01*
X89198383Y-84151294D01*
X89195943Y-84145405D01*
X89195140Y-84139081D01*
X89188539Y-84127531D01*
X89183451Y-84115246D01*
X89178943Y-84110738D01*
X89175781Y-84105204D01*
X89165266Y-84097061D01*
X89155861Y-84087656D01*
X89149970Y-84085216D01*
X89144932Y-84081314D01*
X89132103Y-84077815D01*
X89119813Y-84072724D01*
X89109835Y-84071741D01*
X89107289Y-84071047D01*
X89105321Y-84071297D01*
X89100304Y-84070803D01*
X88300304Y-84070803D01*
X88280795Y-84072724D01*
X88244747Y-84087656D01*
X88217157Y-84115246D01*
X88202225Y-84151294D01*
X88202225Y-84190312D01*
X88217157Y-84226360D01*
X88244747Y-84253950D01*
X88280795Y-84268882D01*
X88300304Y-84270803D01*
X88723748Y-84270803D01*
X88250690Y-84541122D01*
X88246579Y-84544040D01*
X88244747Y-84544799D01*
X88242880Y-84546665D01*
X88234705Y-84552469D01*
X88226562Y-84562983D01*
X88217157Y-84572389D01*
X88214717Y-84578279D01*
X88210815Y-84583318D01*
X88207316Y-84596146D01*
X88202225Y-84608437D01*
X88202225Y-84614812D01*
X88200548Y-84620961D01*
X88100304Y-84620961D01*
X88100304Y-83599374D01*
X88200304Y-83599374D01*
X88200304Y-83675565D01*
X88201276Y-83685438D01*
X88201089Y-83688073D01*
X88201876Y-83691537D01*
X88202225Y-83695074D01*
X88203236Y-83697514D01*
X88205436Y-83707189D01*
X88243532Y-83821473D01*
X88251524Y-83839374D01*
X88253877Y-83842087D01*
X88255252Y-83845406D01*
X88267688Y-83860560D01*
X88305783Y-83898656D01*
X88320936Y-83911092D01*
X88320937Y-83911092D01*
X88320938Y-83911093D01*
X88356986Y-83926025D01*
X88376495Y-83927946D01*
X88643161Y-83927946D01*
X88662670Y-83926025D01*
X88698718Y-83911093D01*
X88726308Y-83883503D01*
X88741240Y-83847455D01*
X88743161Y-83827946D01*
X88743161Y-83675565D01*
X88741240Y-83656056D01*
X88726308Y-83620008D01*
X88698718Y-83592418D01*
X88662670Y-83577486D01*
X88623652Y-83577486D01*
X88587604Y-83592418D01*
X88560014Y-83620008D01*
X88545082Y-83656056D01*
X88543161Y-83675565D01*
X88543161Y-83727946D01*
X88423174Y-83727946D01*
X88400304Y-83659336D01*
X88400304Y-83615601D01*
X88425802Y-83539107D01*
X88473827Y-83491083D01*
X88525684Y-83465154D01*
X88655471Y-83432707D01*
X88745137Y-83432707D01*
X88874924Y-83465154D01*
X88926782Y-83491083D01*
X88974806Y-83539107D01*
X89000304Y-83615600D01*
X89000304Y-83690053D01*
X88972766Y-83745129D01*
X88965760Y-83763437D01*
X88962994Y-83802357D01*
X88975333Y-83839373D01*
X89000897Y-83868850D01*
X89035796Y-83886299D01*
X89074716Y-83889065D01*
X89111732Y-83876726D01*
X89141209Y-83851162D01*
X89151652Y-83834571D01*
X89189747Y-83758381D01*
X89196753Y-83740073D01*
X89197007Y-83736489D01*
X89198383Y-83733169D01*
X89200304Y-83713660D01*
X89200304Y-83599374D01*
X89199331Y-83589500D01*
X89199519Y-83586867D01*
X89198731Y-83583404D01*
X89198383Y-83579865D01*
X89197371Y-83577422D01*
X89195172Y-83567752D01*
X89157077Y-83453465D01*
X89149086Y-83435565D01*
X89146730Y-83432849D01*
X89145356Y-83429531D01*
X89132920Y-83414377D01*
X89056730Y-83338187D01*
X89049060Y-83331892D01*
X89047330Y-83329898D01*
X89044322Y-83328004D01*
X89041576Y-83325751D01*
X89039136Y-83324740D01*
X89030740Y-83319455D01*
X88954549Y-83281360D01*
X88953124Y-83280814D01*
X88952543Y-83280384D01*
X88944342Y-83277454D01*
X88936240Y-83274354D01*
X88935520Y-83274302D01*
X88934082Y-83273789D01*
X88781701Y-83235693D01*
X88778319Y-83235192D01*
X88776956Y-83234628D01*
X88769607Y-83233904D01*
X88762309Y-83232825D01*
X88760850Y-83233042D01*
X88757447Y-83232707D01*
X88643161Y-83232707D01*
X88639757Y-83233042D01*
X88638299Y-83232825D01*
X88631000Y-83233904D01*
X88623652Y-83234628D01*
X88622288Y-83235192D01*
X88618907Y-83235693D01*
X88466526Y-83273789D01*
X88465087Y-83274302D01*
X88464367Y-83274354D01*
X88456256Y-83277457D01*
X88448065Y-83280384D01*
X88447483Y-83280814D01*
X88446059Y-83281360D01*
X88369869Y-83319455D01*
X88361470Y-83324741D01*
X88359033Y-83325751D01*
X88356289Y-83328002D01*
X88353278Y-83329898D01*
X88351545Y-83331895D01*
X88343879Y-83338187D01*
X88267689Y-83414377D01*
X88255253Y-83429531D01*
X88253877Y-83432851D01*
X88251524Y-83435565D01*
X88243532Y-83453465D01*
X88205436Y-83567751D01*
X88203236Y-83577423D01*
X88202225Y-83579865D01*
X88201876Y-83583402D01*
X88201089Y-83586866D01*
X88201276Y-83589500D01*
X88200304Y-83599374D01*
X88100304Y-83599374D01*
X88100304Y-83132707D01*
X89300304Y-83132707D01*
X89300304Y-85666041D01*
G37*
G36*
X131040304Y-119852221D02*
G01*
X129840304Y-119852221D01*
X129840304Y-119373833D01*
X129941089Y-119373833D01*
X129941977Y-119386340D01*
X129941089Y-119398847D01*
X129943348Y-119405625D01*
X129943855Y-119412753D01*
X129949461Y-119423965D01*
X129953427Y-119435863D01*
X129958110Y-119441262D01*
X129961305Y-119447652D01*
X129970779Y-119455869D01*
X129978993Y-119465339D01*
X129985380Y-119468532D01*
X129990781Y-119473217D01*
X130008681Y-119481208D01*
X130808681Y-119747874D01*
X130827797Y-119752221D01*
X130866717Y-119749455D01*
X130901616Y-119732005D01*
X130927181Y-119702529D01*
X130939519Y-119665513D01*
X130936753Y-119626593D01*
X130919304Y-119591694D01*
X130889827Y-119566129D01*
X130871927Y-119558138D01*
X130356531Y-119386339D01*
X130871927Y-119214541D01*
X130889827Y-119206550D01*
X130919303Y-119180985D01*
X130936753Y-119146086D01*
X130939519Y-119107166D01*
X130927180Y-119070150D01*
X130901615Y-119040674D01*
X130866716Y-119023224D01*
X130827796Y-119020458D01*
X130808681Y-119024805D01*
X130008681Y-119291472D01*
X129990781Y-119299463D01*
X129985381Y-119304146D01*
X129978992Y-119307341D01*
X129970774Y-119316815D01*
X129961305Y-119325029D01*
X129958111Y-119331416D01*
X129953427Y-119336817D01*
X129949461Y-119348715D01*
X129943855Y-119359927D01*
X129943348Y-119367054D01*
X129941089Y-119373833D01*
X129840304Y-119373833D01*
X129840304Y-118548244D01*
X129940304Y-118548244D01*
X129940304Y-118738720D01*
X129942225Y-118758229D01*
X129943600Y-118761549D01*
X129943855Y-118765133D01*
X129950862Y-118783442D01*
X129988957Y-118859633D01*
X129994243Y-118868031D01*
X129995253Y-118870468D01*
X129997504Y-118873211D01*
X129999400Y-118876223D01*
X130001397Y-118877955D01*
X130007689Y-118885622D01*
X130045784Y-118923716D01*
X130053450Y-118930008D01*
X130055183Y-118932006D01*
X130058191Y-118933899D01*
X130060937Y-118936153D01*
X130063377Y-118937163D01*
X130071774Y-118942449D01*
X130147964Y-118980544D01*
X130166272Y-118987550D01*
X130169855Y-118987804D01*
X130173176Y-118989180D01*
X130192685Y-118991101D01*
X130383161Y-118991101D01*
X130402670Y-118989180D01*
X130405990Y-118987804D01*
X130409573Y-118987550D01*
X130427882Y-118980544D01*
X130504073Y-118942449D01*
X130512469Y-118937163D01*
X130514909Y-118936153D01*
X130517655Y-118933899D01*
X130520663Y-118932006D01*
X130522393Y-118930011D01*
X130530063Y-118923717D01*
X130568157Y-118885622D01*
X130574451Y-118877952D01*
X130576447Y-118876222D01*
X130578338Y-118873216D01*
X130580594Y-118870469D01*
X130581605Y-118868027D01*
X130586890Y-118859632D01*
X130624985Y-118783441D01*
X130631991Y-118765132D01*
X130632245Y-118761549D01*
X130633621Y-118758229D01*
X130635542Y-118738720D01*
X130635542Y-118552076D01*
X130740304Y-118562552D01*
X130740304Y-118853006D01*
X130742225Y-118872515D01*
X130757157Y-118908563D01*
X130784747Y-118936153D01*
X130820795Y-118951085D01*
X130859813Y-118951085D01*
X130895861Y-118936153D01*
X130923451Y-118908563D01*
X130938383Y-118872515D01*
X130940304Y-118853006D01*
X130940304Y-118472054D01*
X130939593Y-118464837D01*
X130939837Y-118462401D01*
X130939119Y-118460022D01*
X130938383Y-118452545D01*
X130932786Y-118439035D01*
X130928566Y-118425046D01*
X130925378Y-118421149D01*
X130923451Y-118416497D01*
X130913114Y-118406160D01*
X130903859Y-118394848D01*
X130899421Y-118392467D01*
X130895861Y-118388907D01*
X130882358Y-118383313D01*
X130869476Y-118376403D01*
X130862110Y-118374926D01*
X130859813Y-118373975D01*
X130857363Y-118373975D01*
X130850254Y-118372550D01*
X130469303Y-118334454D01*
X130449699Y-118334425D01*
X130444879Y-118335879D01*
X130439844Y-118335879D01*
X130426339Y-118341472D01*
X130412344Y-118345695D01*
X130408446Y-118348883D01*
X130403796Y-118350810D01*
X130393458Y-118361147D01*
X130382146Y-118370403D01*
X130379766Y-118374838D01*
X130376205Y-118378400D01*
X130370611Y-118391903D01*
X130363701Y-118404786D01*
X130363199Y-118409798D01*
X130361274Y-118414448D01*
X130361273Y-118429062D01*
X130359819Y-118443611D01*
X130361273Y-118448430D01*
X130361273Y-118453466D01*
X130366866Y-118466970D01*
X130371089Y-118480966D01*
X130374277Y-118484863D01*
X130376204Y-118489514D01*
X130388640Y-118504668D01*
X130415261Y-118531290D01*
X130435542Y-118571851D01*
X130435542Y-118715113D01*
X130415261Y-118755675D01*
X130400115Y-118770820D01*
X130359554Y-118791101D01*
X130216292Y-118791101D01*
X130175730Y-118770820D01*
X130160584Y-118755673D01*
X130140304Y-118715113D01*
X130140304Y-118571850D01*
X130160585Y-118531290D01*
X130187206Y-118504668D01*
X130199643Y-118489514D01*
X130214574Y-118453466D01*
X130214573Y-118414448D01*
X130199641Y-118378400D01*
X130172051Y-118350810D01*
X130136003Y-118335879D01*
X130096985Y-118335880D01*
X130060936Y-118350812D01*
X130045783Y-118363248D01*
X130007688Y-118401344D01*
X130001394Y-118409013D01*
X129999401Y-118410742D01*
X129997508Y-118413747D01*
X129995252Y-118416498D01*
X129994240Y-118418940D01*
X129988958Y-118427332D01*
X129950862Y-118503522D01*
X129943855Y-118521830D01*
X129943600Y-118525415D01*
X129942225Y-118528735D01*
X129940304Y-118548244D01*
X129840304Y-118548244D01*
X129840304Y-118234425D01*
X131040304Y-118234425D01*
X131040304Y-119852221D01*
G37*
G36*
X89400304Y-119138720D02*
G01*
X88200304Y-119138720D01*
X88200304Y-118557768D01*
X88300304Y-118557768D01*
X88300304Y-118786339D01*
X88302225Y-118805848D01*
X88303600Y-118809168D01*
X88303855Y-118812752D01*
X88310862Y-118831061D01*
X88348957Y-118907252D01*
X88354243Y-118915650D01*
X88355253Y-118918087D01*
X88357504Y-118920830D01*
X88359400Y-118923842D01*
X88361397Y-118925574D01*
X88367689Y-118933241D01*
X88405784Y-118971335D01*
X88413450Y-118977627D01*
X88415183Y-118979625D01*
X88418191Y-118981518D01*
X88420937Y-118983772D01*
X88423377Y-118984782D01*
X88431774Y-118990068D01*
X88507964Y-119028163D01*
X88526272Y-119035169D01*
X88529855Y-119035423D01*
X88533176Y-119036799D01*
X88552685Y-119038720D01*
X88743161Y-119038720D01*
X88762670Y-119036799D01*
X88765990Y-119035423D01*
X88769573Y-119035169D01*
X88787882Y-119028163D01*
X88864073Y-118990068D01*
X88872469Y-118984782D01*
X88874909Y-118983772D01*
X88877655Y-118981518D01*
X88880663Y-118979625D01*
X88882393Y-118977630D01*
X88890063Y-118971336D01*
X88928157Y-118933241D01*
X88934451Y-118925571D01*
X88936447Y-118923841D01*
X88938338Y-118920835D01*
X88940594Y-118918088D01*
X88941605Y-118915646D01*
X88946890Y-118907251D01*
X88966851Y-118867326D01*
X89134454Y-119013978D01*
X89142887Y-119020007D01*
X89144747Y-119021867D01*
X89146510Y-119022597D01*
X89150401Y-119025379D01*
X89165787Y-119030582D01*
X89180795Y-119036799D01*
X89184169Y-119036799D01*
X89187363Y-119037879D01*
X89203565Y-119036799D01*
X89219813Y-119036799D01*
X89222928Y-119035508D01*
X89226294Y-119035284D01*
X89240862Y-119028079D01*
X89255861Y-119021867D01*
X89258243Y-119019484D01*
X89261270Y-119017988D01*
X89271978Y-119005749D01*
X89283451Y-118994277D01*
X89284740Y-118991164D01*
X89286963Y-118988624D01*
X89292168Y-118973232D01*
X89298383Y-118958229D01*
X89298851Y-118953469D01*
X89299463Y-118951662D01*
X89299288Y-118949037D01*
X89300304Y-118938720D01*
X89300304Y-118443482D01*
X89298383Y-118423973D01*
X89283451Y-118387925D01*
X89255861Y-118360335D01*
X89228021Y-118348802D01*
X89261616Y-118332005D01*
X89287181Y-118302529D01*
X89299519Y-118265513D01*
X89296753Y-118226593D01*
X89279304Y-118191694D01*
X89249827Y-118166129D01*
X89231927Y-118158138D01*
X88716531Y-117986339D01*
X89231927Y-117814541D01*
X89249827Y-117806550D01*
X89279303Y-117780985D01*
X89296753Y-117746086D01*
X89299519Y-117707166D01*
X89287180Y-117670150D01*
X89261615Y-117640674D01*
X89226716Y-117623224D01*
X89187796Y-117620458D01*
X89168681Y-117624805D01*
X88368681Y-117891472D01*
X88350781Y-117899463D01*
X88345381Y-117904146D01*
X88338992Y-117907341D01*
X88330774Y-117916815D01*
X88321305Y-117925029D01*
X88318111Y-117931416D01*
X88313427Y-117936817D01*
X88309461Y-117948715D01*
X88303855Y-117959927D01*
X88303348Y-117967054D01*
X88301089Y-117973833D01*
X88301977Y-117986340D01*
X88301089Y-117998847D01*
X88303348Y-118005625D01*
X88303855Y-118012753D01*
X88309461Y-118023965D01*
X88313427Y-118035863D01*
X88318110Y-118041262D01*
X88321305Y-118047652D01*
X88330779Y-118055869D01*
X88338993Y-118065339D01*
X88345380Y-118068532D01*
X88350781Y-118073217D01*
X88368681Y-118081208D01*
X89168681Y-118347874D01*
X89172650Y-118348776D01*
X89144747Y-118360335D01*
X89117157Y-118387925D01*
X89102225Y-118423973D01*
X89100304Y-118443482D01*
X89100304Y-118718343D01*
X88961392Y-118596796D01*
X88952958Y-118590766D01*
X88951099Y-118588907D01*
X88949335Y-118588176D01*
X88945445Y-118585395D01*
X88930056Y-118580190D01*
X88915051Y-118573975D01*
X88911677Y-118573975D01*
X88908484Y-118572895D01*
X88892281Y-118573975D01*
X88876033Y-118573975D01*
X88872917Y-118575265D01*
X88869552Y-118575490D01*
X88854991Y-118582690D01*
X88839985Y-118588907D01*
X88837600Y-118591291D01*
X88834577Y-118592787D01*
X88823879Y-118605012D01*
X88812395Y-118616497D01*
X88811104Y-118619611D01*
X88808883Y-118622151D01*
X88803678Y-118637539D01*
X88797463Y-118652545D01*
X88796994Y-118657304D01*
X88796383Y-118659112D01*
X88796557Y-118661736D01*
X88795542Y-118672054D01*
X88795542Y-118762732D01*
X88775261Y-118803294D01*
X88760115Y-118818439D01*
X88719554Y-118838720D01*
X88576292Y-118838720D01*
X88535730Y-118818439D01*
X88520584Y-118803292D01*
X88500304Y-118762732D01*
X88500304Y-118581374D01*
X88520584Y-118540814D01*
X88547205Y-118514193D01*
X88559642Y-118499040D01*
X88574573Y-118462991D01*
X88574573Y-118423973D01*
X88559642Y-118387925D01*
X88532052Y-118360335D01*
X88496004Y-118345404D01*
X88456986Y-118345404D01*
X88420937Y-118360335D01*
X88405784Y-118372772D01*
X88367689Y-118410866D01*
X88361397Y-118418532D01*
X88359400Y-118420265D01*
X88357504Y-118423276D01*
X88355253Y-118426020D01*
X88354243Y-118428456D01*
X88348957Y-118436855D01*
X88310862Y-118513046D01*
X88303855Y-118531355D01*
X88303600Y-118534938D01*
X88302225Y-118538259D01*
X88300304Y-118557768D01*
X88200304Y-118557768D01*
X88200304Y-117110149D01*
X88300304Y-117110149D01*
X88300304Y-117338720D01*
X88302225Y-117358229D01*
X88303600Y-117361549D01*
X88303855Y-117365133D01*
X88310862Y-117383442D01*
X88348957Y-117459633D01*
X88354243Y-117468031D01*
X88355253Y-117470468D01*
X88357504Y-117473211D01*
X88359400Y-117476223D01*
X88361397Y-117477955D01*
X88367689Y-117485622D01*
X88405784Y-117523716D01*
X88413450Y-117530008D01*
X88415183Y-117532006D01*
X88418191Y-117533899D01*
X88420937Y-117536153D01*
X88423377Y-117537163D01*
X88431774Y-117542449D01*
X88507964Y-117580544D01*
X88526272Y-117587550D01*
X88529855Y-117587804D01*
X88533176Y-117589180D01*
X88552685Y-117591101D01*
X88743161Y-117591101D01*
X88762670Y-117589180D01*
X88765990Y-117587804D01*
X88769573Y-117587550D01*
X88787882Y-117580544D01*
X88864073Y-117542449D01*
X88872469Y-117537163D01*
X88874909Y-117536153D01*
X88877655Y-117533899D01*
X88880663Y-117532006D01*
X88882393Y-117530011D01*
X88890063Y-117523717D01*
X88928157Y-117485622D01*
X88934451Y-117477952D01*
X88936447Y-117476222D01*
X88938338Y-117473216D01*
X88940594Y-117470469D01*
X88941605Y-117468027D01*
X88946890Y-117459632D01*
X88966851Y-117419707D01*
X89134454Y-117566359D01*
X89142887Y-117572388D01*
X89144747Y-117574248D01*
X89146510Y-117574978D01*
X89150401Y-117577760D01*
X89165787Y-117582963D01*
X89180795Y-117589180D01*
X89184169Y-117589180D01*
X89187363Y-117590260D01*
X89203565Y-117589180D01*
X89219813Y-117589180D01*
X89222928Y-117587889D01*
X89226294Y-117587665D01*
X89240862Y-117580460D01*
X89255861Y-117574248D01*
X89258243Y-117571865D01*
X89261270Y-117570369D01*
X89271978Y-117558130D01*
X89283451Y-117546658D01*
X89284740Y-117543545D01*
X89286963Y-117541005D01*
X89292168Y-117525613D01*
X89298383Y-117510610D01*
X89298851Y-117505850D01*
X89299463Y-117504043D01*
X89299288Y-117501418D01*
X89300304Y-117491101D01*
X89300304Y-116995863D01*
X89298383Y-116976354D01*
X89283451Y-116940306D01*
X89255861Y-116912716D01*
X89219813Y-116897784D01*
X89180795Y-116897784D01*
X89144747Y-116912716D01*
X89117157Y-116940306D01*
X89102225Y-116976354D01*
X89100304Y-116995863D01*
X89100304Y-117270724D01*
X88961392Y-117149177D01*
X88952958Y-117143147D01*
X88951099Y-117141288D01*
X88949335Y-117140557D01*
X88945445Y-117137776D01*
X88930056Y-117132571D01*
X88915051Y-117126356D01*
X88911677Y-117126356D01*
X88908484Y-117125276D01*
X88892281Y-117126356D01*
X88876033Y-117126356D01*
X88872917Y-117127646D01*
X88869552Y-117127871D01*
X88854991Y-117135071D01*
X88839985Y-117141288D01*
X88837600Y-117143672D01*
X88834577Y-117145168D01*
X88823879Y-117157393D01*
X88812395Y-117168878D01*
X88811104Y-117171992D01*
X88808883Y-117174532D01*
X88803678Y-117189920D01*
X88797463Y-117204926D01*
X88796994Y-117209685D01*
X88796383Y-117211493D01*
X88796557Y-117214117D01*
X88795542Y-117224435D01*
X88795542Y-117315113D01*
X88775261Y-117355675D01*
X88760115Y-117370820D01*
X88719554Y-117391101D01*
X88576292Y-117391101D01*
X88535730Y-117370820D01*
X88520584Y-117355673D01*
X88500304Y-117315113D01*
X88500304Y-117133755D01*
X88520584Y-117093195D01*
X88547205Y-117066574D01*
X88559642Y-117051421D01*
X88574573Y-117015372D01*
X88574573Y-116976354D01*
X88559642Y-116940306D01*
X88532052Y-116912716D01*
X88496004Y-116897785D01*
X88456986Y-116897785D01*
X88420937Y-116912716D01*
X88405784Y-116925153D01*
X88367689Y-116963247D01*
X88361397Y-116970913D01*
X88359400Y-116972646D01*
X88357504Y-116975657D01*
X88355253Y-116978401D01*
X88354243Y-116980837D01*
X88348957Y-116989236D01*
X88310862Y-117065427D01*
X88303855Y-117083736D01*
X88303600Y-117087319D01*
X88302225Y-117090640D01*
X88300304Y-117110149D01*
X88200304Y-117110149D01*
X88200304Y-116797784D01*
X89400304Y-116797784D01*
X89400304Y-119138720D01*
G37*
X135552780Y-100038095D02*
X134743257Y-100038095D01*
X134743257Y-100038095D02*
X134648019Y-100085714D01*
X134648019Y-100085714D02*
X134600400Y-100133333D01*
X134600400Y-100133333D02*
X134552780Y-100228571D01*
X134552780Y-100228571D02*
X134552780Y-100419047D01*
X134552780Y-100419047D02*
X134600400Y-100514285D01*
X134600400Y-100514285D02*
X134648019Y-100561904D01*
X134648019Y-100561904D02*
X134743257Y-100609523D01*
X134743257Y-100609523D02*
X135552780Y-100609523D01*
X134600400Y-101038095D02*
X134552780Y-101180952D01*
X134552780Y-101180952D02*
X134552780Y-101419047D01*
X134552780Y-101419047D02*
X134600400Y-101514285D01*
X134600400Y-101514285D02*
X134648019Y-101561904D01*
X134648019Y-101561904D02*
X134743257Y-101609523D01*
X134743257Y-101609523D02*
X134838495Y-101609523D01*
X134838495Y-101609523D02*
X134933733Y-101561904D01*
X134933733Y-101561904D02*
X134981352Y-101514285D01*
X134981352Y-101514285D02*
X135028971Y-101419047D01*
X135028971Y-101419047D02*
X135076590Y-101228571D01*
X135076590Y-101228571D02*
X135124209Y-101133333D01*
X135124209Y-101133333D02*
X135171828Y-101085714D01*
X135171828Y-101085714D02*
X135267066Y-101038095D01*
X135267066Y-101038095D02*
X135362304Y-101038095D01*
X135362304Y-101038095D02*
X135457542Y-101085714D01*
X135457542Y-101085714D02*
X135505161Y-101133333D01*
X135505161Y-101133333D02*
X135552780Y-101228571D01*
X135552780Y-101228571D02*
X135552780Y-101466666D01*
X135552780Y-101466666D02*
X135505161Y-101609523D01*
X135076590Y-102371428D02*
X135028971Y-102514285D01*
X135028971Y-102514285D02*
X134981352Y-102561904D01*
X134981352Y-102561904D02*
X134886114Y-102609523D01*
X134886114Y-102609523D02*
X134743257Y-102609523D01*
X134743257Y-102609523D02*
X134648019Y-102561904D01*
X134648019Y-102561904D02*
X134600400Y-102514285D01*
X134600400Y-102514285D02*
X134552780Y-102419047D01*
X134552780Y-102419047D02*
X134552780Y-102038095D01*
X134552780Y-102038095D02*
X135552780Y-102038095D01*
X135552780Y-102038095D02*
X135552780Y-102371428D01*
X135552780Y-102371428D02*
X135505161Y-102466666D01*
X135505161Y-102466666D02*
X135457542Y-102514285D01*
X135457542Y-102514285D02*
X135362304Y-102561904D01*
X135362304Y-102561904D02*
X135267066Y-102561904D01*
X135267066Y-102561904D02*
X135171828Y-102514285D01*
X135171828Y-102514285D02*
X135124209Y-102466666D01*
X135124209Y-102466666D02*
X135076590Y-102371428D01*
X135076590Y-102371428D02*
X135076590Y-102038095D01*
G36*
X122000304Y-118884398D02*
G01*
X121974806Y-118960891D01*
X121926782Y-119008915D01*
X121874924Y-119034844D01*
X121745137Y-119067292D01*
X121655471Y-119067292D01*
X121525684Y-119034844D01*
X121473827Y-119008916D01*
X121425802Y-118960891D01*
X121400304Y-118884397D01*
X121400304Y-118810149D01*
X122000304Y-118810149D01*
X122000304Y-118884398D01*
G37*
G36*
X122300304Y-119367292D02*
G01*
X121100304Y-119367292D01*
X121100304Y-118710149D01*
X121200304Y-118710149D01*
X121200304Y-118900625D01*
X121201276Y-118910498D01*
X121201089Y-118913133D01*
X121201876Y-118916596D01*
X121202225Y-118920134D01*
X121203236Y-118922575D01*
X121205436Y-118932248D01*
X121243532Y-119046534D01*
X121251524Y-119064434D01*
X121253877Y-119067147D01*
X121255253Y-119070468D01*
X121267689Y-119085622D01*
X121343879Y-119161812D01*
X121351545Y-119168103D01*
X121353278Y-119170101D01*
X121356289Y-119171996D01*
X121359033Y-119174248D01*
X121361470Y-119175257D01*
X121369869Y-119180544D01*
X121446059Y-119218639D01*
X121447483Y-119219184D01*
X121448065Y-119219615D01*
X121456256Y-119222541D01*
X121464367Y-119225645D01*
X121465087Y-119225696D01*
X121466526Y-119226210D01*
X121618907Y-119264306D01*
X121622288Y-119264806D01*
X121623652Y-119265371D01*
X121631000Y-119266094D01*
X121638299Y-119267174D01*
X121639757Y-119266956D01*
X121643161Y-119267292D01*
X121757447Y-119267292D01*
X121760850Y-119266956D01*
X121762309Y-119267174D01*
X121769607Y-119266094D01*
X121776956Y-119265371D01*
X121778319Y-119264806D01*
X121781701Y-119264306D01*
X121934082Y-119226210D01*
X121935520Y-119225696D01*
X121936240Y-119225645D01*
X121944342Y-119222544D01*
X121952543Y-119219615D01*
X121953124Y-119219184D01*
X121954549Y-119218639D01*
X122030740Y-119180544D01*
X122039136Y-119175258D01*
X122041576Y-119174248D01*
X122044322Y-119171994D01*
X122047330Y-119170101D01*
X122049060Y-119168106D01*
X122056730Y-119161812D01*
X122132920Y-119085622D01*
X122145356Y-119070468D01*
X122146730Y-119067149D01*
X122149086Y-119064434D01*
X122157077Y-119046534D01*
X122195172Y-118932247D01*
X122197371Y-118922576D01*
X122198383Y-118920134D01*
X122198731Y-118916594D01*
X122199519Y-118913132D01*
X122199331Y-118910498D01*
X122200304Y-118900625D01*
X122200304Y-118710149D01*
X122198383Y-118690640D01*
X122183451Y-118654592D01*
X122155861Y-118627002D01*
X122119813Y-118612070D01*
X122100304Y-118610149D01*
X121300304Y-118610149D01*
X121280795Y-118612070D01*
X121244747Y-118627002D01*
X121217157Y-118654592D01*
X121202225Y-118690640D01*
X121200304Y-118710149D01*
X121100304Y-118710149D01*
X121100304Y-118322212D01*
X121200548Y-118322212D01*
X121202225Y-118335405D01*
X121202225Y-118348706D01*
X121204664Y-118354594D01*
X121205468Y-118360919D01*
X121212068Y-118372468D01*
X121217157Y-118384754D01*
X121221664Y-118389261D01*
X121224827Y-118394796D01*
X121235341Y-118402938D01*
X121244747Y-118412344D01*
X121250637Y-118414783D01*
X121255676Y-118418686D01*
X121268504Y-118422184D01*
X121280795Y-118427276D01*
X121290772Y-118428258D01*
X121293319Y-118428953D01*
X121295286Y-118428702D01*
X121300304Y-118429197D01*
X122100304Y-118429197D01*
X122119813Y-118427276D01*
X122155861Y-118412344D01*
X122183451Y-118384754D01*
X122198383Y-118348706D01*
X122198383Y-118309688D01*
X122183451Y-118273640D01*
X122155861Y-118246050D01*
X122119813Y-118231118D01*
X122100304Y-118229197D01*
X121676860Y-118229197D01*
X122149918Y-117958878D01*
X122154028Y-117955959D01*
X122155861Y-117955201D01*
X122157727Y-117953334D01*
X122165903Y-117947531D01*
X122174045Y-117937016D01*
X122183451Y-117927611D01*
X122185890Y-117921720D01*
X122189793Y-117916682D01*
X122193291Y-117903854D01*
X122198383Y-117891563D01*
X122198383Y-117885186D01*
X122200060Y-117879038D01*
X122198383Y-117865844D01*
X122198383Y-117852545D01*
X122195943Y-117846656D01*
X122195140Y-117840332D01*
X122188539Y-117828782D01*
X122183451Y-117816497D01*
X122178943Y-117811989D01*
X122175781Y-117806455D01*
X122165266Y-117798312D01*
X122155861Y-117788907D01*
X122149970Y-117786467D01*
X122144932Y-117782565D01*
X122132103Y-117779066D01*
X122119813Y-117773975D01*
X122109835Y-117772992D01*
X122107289Y-117772298D01*
X122105321Y-117772548D01*
X122100304Y-117772054D01*
X121300304Y-117772054D01*
X121280795Y-117773975D01*
X121244747Y-117788907D01*
X121217157Y-117816497D01*
X121202225Y-117852545D01*
X121202225Y-117891563D01*
X121217157Y-117927611D01*
X121244747Y-117955201D01*
X121280795Y-117970133D01*
X121300304Y-117972054D01*
X121723748Y-117972054D01*
X121250690Y-118242373D01*
X121246579Y-118245291D01*
X121244747Y-118246050D01*
X121242880Y-118247916D01*
X121234705Y-118253720D01*
X121226562Y-118264234D01*
X121217157Y-118273640D01*
X121214717Y-118279530D01*
X121210815Y-118284569D01*
X121207316Y-118297397D01*
X121202225Y-118309688D01*
X121202225Y-118316063D01*
X121200548Y-118322212D01*
X121100304Y-118322212D01*
X121100304Y-117300625D01*
X121200304Y-117300625D01*
X121200304Y-117376816D01*
X121201276Y-117386689D01*
X121201089Y-117389324D01*
X121201876Y-117392788D01*
X121202225Y-117396325D01*
X121203236Y-117398765D01*
X121205436Y-117408440D01*
X121243532Y-117522724D01*
X121251524Y-117540625D01*
X121253877Y-117543338D01*
X121255252Y-117546657D01*
X121267688Y-117561811D01*
X121305783Y-117599907D01*
X121320936Y-117612343D01*
X121320937Y-117612343D01*
X121320938Y-117612344D01*
X121356986Y-117627276D01*
X121376495Y-117629197D01*
X121643161Y-117629197D01*
X121662670Y-117627276D01*
X121698718Y-117612344D01*
X121726308Y-117584754D01*
X121741240Y-117548706D01*
X121743161Y-117529197D01*
X121743161Y-117376816D01*
X121741240Y-117357307D01*
X121726308Y-117321259D01*
X121698718Y-117293669D01*
X121662670Y-117278737D01*
X121623652Y-117278737D01*
X121587604Y-117293669D01*
X121560014Y-117321259D01*
X121545082Y-117357307D01*
X121543161Y-117376816D01*
X121543161Y-117429197D01*
X121423174Y-117429197D01*
X121400304Y-117360587D01*
X121400304Y-117316852D01*
X121425802Y-117240358D01*
X121473827Y-117192334D01*
X121525684Y-117166405D01*
X121655471Y-117133958D01*
X121745137Y-117133958D01*
X121874924Y-117166405D01*
X121926782Y-117192334D01*
X121974806Y-117240358D01*
X122000304Y-117316851D01*
X122000304Y-117391304D01*
X121972766Y-117446380D01*
X121965760Y-117464688D01*
X121962994Y-117503608D01*
X121975333Y-117540624D01*
X122000897Y-117570101D01*
X122035796Y-117587550D01*
X122074716Y-117590316D01*
X122111732Y-117577977D01*
X122141209Y-117552413D01*
X122151652Y-117535822D01*
X122189747Y-117459632D01*
X122196753Y-117441324D01*
X122197007Y-117437740D01*
X122198383Y-117434420D01*
X122200304Y-117414911D01*
X122200304Y-117300625D01*
X122199331Y-117290751D01*
X122199519Y-117288118D01*
X122198731Y-117284655D01*
X122198383Y-117281116D01*
X122197371Y-117278673D01*
X122195172Y-117269003D01*
X122157077Y-117154716D01*
X122149086Y-117136816D01*
X122146730Y-117134100D01*
X122145356Y-117130782D01*
X122132920Y-117115628D01*
X122056730Y-117039438D01*
X122049060Y-117033143D01*
X122047330Y-117031149D01*
X122044322Y-117029255D01*
X122041576Y-117027002D01*
X122039136Y-117025991D01*
X122030740Y-117020706D01*
X121954549Y-116982611D01*
X121953124Y-116982065D01*
X121952543Y-116981635D01*
X121944342Y-116978705D01*
X121936240Y-116975605D01*
X121935520Y-116975553D01*
X121934082Y-116975040D01*
X121781701Y-116936944D01*
X121778319Y-116936443D01*
X121776956Y-116935879D01*
X121769607Y-116935155D01*
X121762309Y-116934076D01*
X121760850Y-116934293D01*
X121757447Y-116933958D01*
X121643161Y-116933958D01*
X121639757Y-116934293D01*
X121638299Y-116934076D01*
X121631000Y-116935155D01*
X121623652Y-116935879D01*
X121622288Y-116936443D01*
X121618907Y-116936944D01*
X121466526Y-116975040D01*
X121465087Y-116975553D01*
X121464367Y-116975605D01*
X121456256Y-116978708D01*
X121448065Y-116981635D01*
X121447483Y-116982065D01*
X121446059Y-116982611D01*
X121369869Y-117020706D01*
X121361470Y-117025992D01*
X121359033Y-117027002D01*
X121356289Y-117029253D01*
X121353278Y-117031149D01*
X121351545Y-117033146D01*
X121343879Y-117039438D01*
X121267689Y-117115628D01*
X121255253Y-117130782D01*
X121253877Y-117134102D01*
X121251524Y-117136816D01*
X121243532Y-117154716D01*
X121205436Y-117269002D01*
X121203236Y-117278674D01*
X121202225Y-117281116D01*
X121201876Y-117284653D01*
X121201089Y-117288117D01*
X121201276Y-117290751D01*
X121200304Y-117300625D01*
X121100304Y-117300625D01*
X121100304Y-116833958D01*
X122300304Y-116833958D01*
X122300304Y-119367292D01*
G37*
G36*
X104500304Y-85752221D02*
G01*
X103300304Y-85752221D01*
X103300304Y-85273833D01*
X103401089Y-85273833D01*
X103401977Y-85286340D01*
X103401089Y-85298847D01*
X103403348Y-85305625D01*
X103403855Y-85312753D01*
X103409461Y-85323965D01*
X103413427Y-85335863D01*
X103418110Y-85341262D01*
X103421305Y-85347652D01*
X103430779Y-85355869D01*
X103438993Y-85365339D01*
X103445380Y-85368532D01*
X103450781Y-85373217D01*
X103468681Y-85381208D01*
X104268681Y-85647874D01*
X104287797Y-85652221D01*
X104326717Y-85649455D01*
X104361616Y-85632005D01*
X104387181Y-85602529D01*
X104399519Y-85565513D01*
X104396753Y-85526593D01*
X104379304Y-85491694D01*
X104349827Y-85466129D01*
X104331927Y-85458138D01*
X103816531Y-85286339D01*
X104331927Y-85114541D01*
X104349827Y-85106550D01*
X104379303Y-85080985D01*
X104396753Y-85046086D01*
X104399519Y-85007166D01*
X104387180Y-84970150D01*
X104361615Y-84940674D01*
X104326716Y-84923224D01*
X104287796Y-84920458D01*
X104268681Y-84924805D01*
X103468681Y-85191472D01*
X103450781Y-85199463D01*
X103445381Y-85204146D01*
X103438992Y-85207341D01*
X103430774Y-85216815D01*
X103421305Y-85225029D01*
X103418111Y-85231416D01*
X103413427Y-85236817D01*
X103409461Y-85248715D01*
X103403855Y-85259927D01*
X103403348Y-85267054D01*
X103401089Y-85273833D01*
X103300304Y-85273833D01*
X103300304Y-84448244D01*
X103400304Y-84448244D01*
X103400304Y-84638720D01*
X103402225Y-84658229D01*
X103403600Y-84661549D01*
X103403855Y-84665133D01*
X103410862Y-84683442D01*
X103448957Y-84759633D01*
X103454243Y-84768031D01*
X103455253Y-84770468D01*
X103457504Y-84773211D01*
X103459400Y-84776223D01*
X103461397Y-84777955D01*
X103467689Y-84785622D01*
X103505784Y-84823716D01*
X103513450Y-84830008D01*
X103515183Y-84832006D01*
X103518191Y-84833899D01*
X103520937Y-84836153D01*
X103523377Y-84837163D01*
X103531774Y-84842449D01*
X103607964Y-84880544D01*
X103626272Y-84887550D01*
X103629855Y-84887804D01*
X103633176Y-84889180D01*
X103652685Y-84891101D01*
X103843161Y-84891101D01*
X103862670Y-84889180D01*
X103865990Y-84887804D01*
X103869573Y-84887550D01*
X103887882Y-84880544D01*
X103964073Y-84842449D01*
X103972469Y-84837163D01*
X103974909Y-84836153D01*
X103977655Y-84833899D01*
X103980663Y-84832006D01*
X103982393Y-84830011D01*
X103990063Y-84823717D01*
X104028157Y-84785622D01*
X104034451Y-84777952D01*
X104036447Y-84776222D01*
X104038338Y-84773216D01*
X104040594Y-84770469D01*
X104041605Y-84768027D01*
X104046890Y-84759632D01*
X104084985Y-84683441D01*
X104091991Y-84665132D01*
X104092245Y-84661549D01*
X104093621Y-84658229D01*
X104095542Y-84638720D01*
X104095542Y-84452076D01*
X104200304Y-84462552D01*
X104200304Y-84753006D01*
X104202225Y-84772515D01*
X104217157Y-84808563D01*
X104244747Y-84836153D01*
X104280795Y-84851085D01*
X104319813Y-84851085D01*
X104355861Y-84836153D01*
X104383451Y-84808563D01*
X104398383Y-84772515D01*
X104400304Y-84753006D01*
X104400304Y-84372054D01*
X104399593Y-84364837D01*
X104399837Y-84362401D01*
X104399119Y-84360022D01*
X104398383Y-84352545D01*
X104392786Y-84339035D01*
X104388566Y-84325046D01*
X104385378Y-84321149D01*
X104383451Y-84316497D01*
X104373114Y-84306160D01*
X104363859Y-84294848D01*
X104359421Y-84292467D01*
X104355861Y-84288907D01*
X104342358Y-84283313D01*
X104329476Y-84276403D01*
X104322110Y-84274926D01*
X104319813Y-84273975D01*
X104317363Y-84273975D01*
X104310254Y-84272550D01*
X103929303Y-84234454D01*
X103909699Y-84234425D01*
X103904879Y-84235879D01*
X103899844Y-84235879D01*
X103886339Y-84241472D01*
X103872344Y-84245695D01*
X103868446Y-84248883D01*
X103863796Y-84250810D01*
X103853458Y-84261147D01*
X103842146Y-84270403D01*
X103839766Y-84274838D01*
X103836205Y-84278400D01*
X103830611Y-84291903D01*
X103823701Y-84304786D01*
X103823199Y-84309798D01*
X103821274Y-84314448D01*
X103821273Y-84329062D01*
X103819819Y-84343611D01*
X103821273Y-84348430D01*
X103821273Y-84353466D01*
X103826866Y-84366970D01*
X103831089Y-84380966D01*
X103834277Y-84384863D01*
X103836204Y-84389514D01*
X103848640Y-84404668D01*
X103875261Y-84431290D01*
X103895542Y-84471851D01*
X103895542Y-84615113D01*
X103875261Y-84655675D01*
X103860115Y-84670820D01*
X103819554Y-84691101D01*
X103676292Y-84691101D01*
X103635730Y-84670820D01*
X103620584Y-84655673D01*
X103600304Y-84615113D01*
X103600304Y-84471850D01*
X103620585Y-84431290D01*
X103647206Y-84404668D01*
X103659643Y-84389514D01*
X103674574Y-84353466D01*
X103674573Y-84314448D01*
X103659641Y-84278400D01*
X103632051Y-84250810D01*
X103596003Y-84235879D01*
X103556985Y-84235880D01*
X103520936Y-84250812D01*
X103505783Y-84263248D01*
X103467688Y-84301344D01*
X103461394Y-84309013D01*
X103459401Y-84310742D01*
X103457508Y-84313747D01*
X103455252Y-84316498D01*
X103454240Y-84318940D01*
X103448958Y-84327332D01*
X103410862Y-84403522D01*
X103403855Y-84421830D01*
X103403600Y-84425415D01*
X103402225Y-84428735D01*
X103400304Y-84448244D01*
X103300304Y-84448244D01*
X103300304Y-84134425D01*
X104500304Y-84134425D01*
X104500304Y-85752221D01*
G37*
D11*
X137127419Y-120593333D02*
X137841704Y-120593333D01*
X137841704Y-120593333D02*
X137984561Y-120640952D01*
X137984561Y-120640952D02*
X138079800Y-120736190D01*
X138079800Y-120736190D02*
X138127419Y-120879047D01*
X138127419Y-120879047D02*
X138127419Y-120974285D01*
X138127419Y-119593333D02*
X138127419Y-120164761D01*
X138127419Y-119879047D02*
X137127419Y-119879047D01*
X137127419Y-119879047D02*
X137270276Y-119974285D01*
X137270276Y-119974285D02*
X137365514Y-120069523D01*
X137365514Y-120069523D02*
X137413133Y-120164761D01*
X84833333Y-113772580D02*
X84833333Y-113058295D01*
X84833333Y-113058295D02*
X84880952Y-112915438D01*
X84880952Y-112915438D02*
X84976190Y-112820200D01*
X84976190Y-112820200D02*
X85119047Y-112772580D01*
X85119047Y-112772580D02*
X85214285Y-112772580D01*
X83880952Y-113772580D02*
X84357142Y-113772580D01*
X84357142Y-113772580D02*
X84404761Y-113296390D01*
X84404761Y-113296390D02*
X84357142Y-113344009D01*
X84357142Y-113344009D02*
X84261904Y-113391628D01*
X84261904Y-113391628D02*
X84023809Y-113391628D01*
X84023809Y-113391628D02*
X83928571Y-113344009D01*
X83928571Y-113344009D02*
X83880952Y-113296390D01*
X83880952Y-113296390D02*
X83833333Y-113201152D01*
X83833333Y-113201152D02*
X83833333Y-112963057D01*
X83833333Y-112963057D02*
X83880952Y-112867819D01*
X83880952Y-112867819D02*
X83928571Y-112820200D01*
X83928571Y-112820200D02*
X84023809Y-112772580D01*
X84023809Y-112772580D02*
X84261904Y-112772580D01*
X84261904Y-112772580D02*
X84357142Y-112820200D01*
X84357142Y-112820200D02*
X84404761Y-112867819D01*
X83150475Y-102243200D02*
X83007618Y-102205104D01*
X83007618Y-102205104D02*
X82769523Y-102205104D01*
X82769523Y-102205104D02*
X82674285Y-102243200D01*
X82674285Y-102243200D02*
X82626666Y-102281295D01*
X82626666Y-102281295D02*
X82579047Y-102357485D01*
X82579047Y-102357485D02*
X82579047Y-102433676D01*
X82579047Y-102433676D02*
X82626666Y-102509866D01*
X82626666Y-102509866D02*
X82674285Y-102547961D01*
X82674285Y-102547961D02*
X82769523Y-102586057D01*
X82769523Y-102586057D02*
X82959999Y-102624152D01*
X82959999Y-102624152D02*
X83055237Y-102662247D01*
X83055237Y-102662247D02*
X83102856Y-102700342D01*
X83102856Y-102700342D02*
X83150475Y-102776533D01*
X83150475Y-102776533D02*
X83150475Y-102852723D01*
X83150475Y-102852723D02*
X83102856Y-102928914D01*
X83102856Y-102928914D02*
X83055237Y-102967009D01*
X83055237Y-102967009D02*
X82959999Y-103005104D01*
X82959999Y-103005104D02*
X82721904Y-103005104D01*
X82721904Y-103005104D02*
X82579047Y-102967009D01*
X81579047Y-102281295D02*
X81626666Y-102243200D01*
X81626666Y-102243200D02*
X81769523Y-102205104D01*
X81769523Y-102205104D02*
X81864761Y-102205104D01*
X81864761Y-102205104D02*
X82007618Y-102243200D01*
X82007618Y-102243200D02*
X82102856Y-102319390D01*
X82102856Y-102319390D02*
X82150475Y-102395580D01*
X82150475Y-102395580D02*
X82198094Y-102547961D01*
X82198094Y-102547961D02*
X82198094Y-102662247D01*
X82198094Y-102662247D02*
X82150475Y-102814628D01*
X82150475Y-102814628D02*
X82102856Y-102890819D01*
X82102856Y-102890819D02*
X82007618Y-102967009D01*
X82007618Y-102967009D02*
X81864761Y-103005104D01*
X81864761Y-103005104D02*
X81769523Y-103005104D01*
X81769523Y-103005104D02*
X81626666Y-102967009D01*
X81626666Y-102967009D02*
X81579047Y-102928914D01*
X80674285Y-102205104D02*
X81150475Y-102205104D01*
X81150475Y-102205104D02*
X81150475Y-103005104D01*
X83150475Y-108085104D02*
X82817142Y-107285104D01*
X82817142Y-107285104D02*
X82483809Y-108085104D01*
X81721904Y-107323200D02*
X81817142Y-107285104D01*
X81817142Y-107285104D02*
X82007618Y-107285104D01*
X82007618Y-107285104D02*
X82102856Y-107323200D01*
X82102856Y-107323200D02*
X82150475Y-107361295D01*
X82150475Y-107361295D02*
X82198094Y-107437485D01*
X82198094Y-107437485D02*
X82198094Y-107666057D01*
X82198094Y-107666057D02*
X82150475Y-107742247D01*
X82150475Y-107742247D02*
X82102856Y-107780342D01*
X82102856Y-107780342D02*
X82007618Y-107818438D01*
X82007618Y-107818438D02*
X81817142Y-107818438D01*
X81817142Y-107818438D02*
X81721904Y-107780342D01*
X80864761Y-107323200D02*
X80959999Y-107285104D01*
X80959999Y-107285104D02*
X81150475Y-107285104D01*
X81150475Y-107285104D02*
X81245713Y-107323200D01*
X81245713Y-107323200D02*
X81293332Y-107361295D01*
X81293332Y-107361295D02*
X81340951Y-107437485D01*
X81340951Y-107437485D02*
X81340951Y-107666057D01*
X81340951Y-107666057D02*
X81293332Y-107742247D01*
X81293332Y-107742247D02*
X81245713Y-107780342D01*
X81245713Y-107780342D02*
X81150475Y-107818438D01*
X81150475Y-107818438D02*
X80959999Y-107818438D01*
X80959999Y-107818438D02*
X80864761Y-107780342D01*
X82626666Y-97201295D02*
X82674285Y-97163200D01*
X82674285Y-97163200D02*
X82817142Y-97125104D01*
X82817142Y-97125104D02*
X82912380Y-97125104D01*
X82912380Y-97125104D02*
X83055237Y-97163200D01*
X83055237Y-97163200D02*
X83150475Y-97239390D01*
X83150475Y-97239390D02*
X83198094Y-97315580D01*
X83198094Y-97315580D02*
X83245713Y-97467961D01*
X83245713Y-97467961D02*
X83245713Y-97582247D01*
X83245713Y-97582247D02*
X83198094Y-97734628D01*
X83198094Y-97734628D02*
X83150475Y-97810819D01*
X83150475Y-97810819D02*
X83055237Y-97887009D01*
X83055237Y-97887009D02*
X82912380Y-97925104D01*
X82912380Y-97925104D02*
X82817142Y-97925104D01*
X82817142Y-97925104D02*
X82674285Y-97887009D01*
X82674285Y-97887009D02*
X82626666Y-97848914D01*
X82245713Y-97163200D02*
X82102856Y-97125104D01*
X82102856Y-97125104D02*
X81864761Y-97125104D01*
X81864761Y-97125104D02*
X81769523Y-97163200D01*
X81769523Y-97163200D02*
X81721904Y-97201295D01*
X81721904Y-97201295D02*
X81674285Y-97277485D01*
X81674285Y-97277485D02*
X81674285Y-97353676D01*
X81674285Y-97353676D02*
X81721904Y-97429866D01*
X81721904Y-97429866D02*
X81769523Y-97467961D01*
X81769523Y-97467961D02*
X81864761Y-97506057D01*
X81864761Y-97506057D02*
X82055237Y-97544152D01*
X82055237Y-97544152D02*
X82150475Y-97582247D01*
X82150475Y-97582247D02*
X82198094Y-97620342D01*
X82198094Y-97620342D02*
X82245713Y-97696533D01*
X82245713Y-97696533D02*
X82245713Y-97772723D01*
X82245713Y-97772723D02*
X82198094Y-97848914D01*
X82198094Y-97848914D02*
X82150475Y-97887009D01*
X82150475Y-97887009D02*
X82055237Y-97925104D01*
X82055237Y-97925104D02*
X81817142Y-97925104D01*
X81817142Y-97925104D02*
X81674285Y-97887009D01*
X80912380Y-97544152D02*
X80769523Y-97506057D01*
X80769523Y-97506057D02*
X80721904Y-97467961D01*
X80721904Y-97467961D02*
X80674285Y-97391771D01*
X80674285Y-97391771D02*
X80674285Y-97277485D01*
X80674285Y-97277485D02*
X80721904Y-97201295D01*
X80721904Y-97201295D02*
X80769523Y-97163200D01*
X80769523Y-97163200D02*
X80864761Y-97125104D01*
X80864761Y-97125104D02*
X81245713Y-97125104D01*
X81245713Y-97125104D02*
X81245713Y-97925104D01*
X81245713Y-97925104D02*
X80912380Y-97925104D01*
X80912380Y-97925104D02*
X80817142Y-97887009D01*
X80817142Y-97887009D02*
X80769523Y-97848914D01*
X80769523Y-97848914D02*
X80721904Y-97772723D01*
X80721904Y-97772723D02*
X80721904Y-97696533D01*
X80721904Y-97696533D02*
X80769523Y-97620342D01*
X80769523Y-97620342D02*
X80817142Y-97582247D01*
X80817142Y-97582247D02*
X80912380Y-97544152D01*
X80912380Y-97544152D02*
X81245713Y-97544152D01*
D12*
G36*
X84423808Y-93442780D02*
G01*
X84166463Y-93442780D01*
X84106853Y-93412975D01*
X84082185Y-93388306D01*
X84052380Y-93328696D01*
X84052380Y-93233054D01*
X84082185Y-93173444D01*
X84106853Y-93148775D01*
X84166463Y-93118971D01*
X84423808Y-93118971D01*
X84423808Y-93442780D01*
G37*
G36*
X85734919Y-93753891D02*
G01*
X83312697Y-93753891D01*
X83312697Y-92542780D01*
X83423808Y-92542780D01*
X83423808Y-93542780D01*
X83425729Y-93562289D01*
X83440661Y-93598337D01*
X83468251Y-93625927D01*
X83504299Y-93640859D01*
X83543317Y-93640859D01*
X83579365Y-93625927D01*
X83606955Y-93598337D01*
X83621887Y-93562289D01*
X83623808Y-93542780D01*
X83623808Y-93209447D01*
X83852380Y-93209447D01*
X83852380Y-93352304D01*
X83854301Y-93371813D01*
X83855676Y-93375133D01*
X83855931Y-93378717D01*
X83862937Y-93397025D01*
X83910556Y-93492263D01*
X83915841Y-93500659D01*
X83916852Y-93503099D01*
X83919105Y-93505845D01*
X83920999Y-93508853D01*
X83922993Y-93510582D01*
X83929288Y-93518253D01*
X83976907Y-93565871D01*
X83984573Y-93572163D01*
X83986306Y-93574161D01*
X83989314Y-93576054D01*
X83992060Y-93578308D01*
X83994500Y-93579318D01*
X84002897Y-93584604D01*
X84098134Y-93632223D01*
X84116443Y-93639229D01*
X84120026Y-93639483D01*
X84123347Y-93640859D01*
X84142856Y-93642780D01*
X84523808Y-93642780D01*
X84543317Y-93640859D01*
X84579365Y-93625927D01*
X84606955Y-93598337D01*
X84621887Y-93562289D01*
X84623808Y-93542780D01*
X84623808Y-92733257D01*
X84852380Y-92733257D01*
X84852380Y-92828495D01*
X84854301Y-92848004D01*
X84855676Y-92851324D01*
X84855931Y-92854908D01*
X84862937Y-92873216D01*
X84910556Y-92968454D01*
X84915841Y-92976850D01*
X84916852Y-92979290D01*
X84919105Y-92982036D01*
X84920999Y-92985044D01*
X84922993Y-92986773D01*
X84929288Y-92994444D01*
X84976907Y-93042062D01*
X84984573Y-93048354D01*
X84986306Y-93050352D01*
X84989314Y-93052245D01*
X84992060Y-93054499D01*
X84994500Y-93055509D01*
X85002897Y-93060795D01*
X85098134Y-93108414D01*
X85099562Y-93108960D01*
X85100142Y-93109390D01*
X85108318Y-93112311D01*
X85116443Y-93115420D01*
X85117163Y-93115471D01*
X85118602Y-93115985D01*
X85298427Y-93160941D01*
X85369334Y-93196395D01*
X85394003Y-93221063D01*
X85423808Y-93280673D01*
X85423808Y-93328697D01*
X85394003Y-93388306D01*
X85369334Y-93412974D01*
X85309725Y-93442780D01*
X85111463Y-93442780D01*
X84984003Y-93400293D01*
X84964887Y-93395946D01*
X84925967Y-93398712D01*
X84891068Y-93416162D01*
X84865503Y-93445638D01*
X84853165Y-93482654D01*
X84855931Y-93521574D01*
X84873381Y-93556473D01*
X84902857Y-93582038D01*
X84920757Y-93590029D01*
X85063614Y-93637648D01*
X85073286Y-93639847D01*
X85075728Y-93640859D01*
X85079265Y-93641207D01*
X85082729Y-93641995D01*
X85085363Y-93641807D01*
X85095237Y-93642780D01*
X85333332Y-93642780D01*
X85352841Y-93640859D01*
X85356161Y-93639483D01*
X85359745Y-93639229D01*
X85378053Y-93632223D01*
X85473291Y-93584604D01*
X85481687Y-93579318D01*
X85484127Y-93578308D01*
X85486873Y-93576054D01*
X85489881Y-93574161D01*
X85491610Y-93572166D01*
X85499281Y-93565872D01*
X85546899Y-93518253D01*
X85553191Y-93510586D01*
X85555189Y-93508854D01*
X85557082Y-93505845D01*
X85559336Y-93503100D01*
X85560346Y-93500659D01*
X85565632Y-93492263D01*
X85613251Y-93397026D01*
X85620257Y-93378717D01*
X85620511Y-93375133D01*
X85621887Y-93371813D01*
X85623808Y-93352304D01*
X85623808Y-93257066D01*
X85621887Y-93237557D01*
X85620511Y-93234236D01*
X85620257Y-93230653D01*
X85613251Y-93212344D01*
X85565632Y-93117107D01*
X85560346Y-93108710D01*
X85559336Y-93106270D01*
X85557082Y-93103524D01*
X85555189Y-93100516D01*
X85553191Y-93098783D01*
X85546899Y-93091117D01*
X85499281Y-93043498D01*
X85491610Y-93037203D01*
X85489881Y-93035209D01*
X85486873Y-93033315D01*
X85484127Y-93031062D01*
X85481687Y-93030051D01*
X85473291Y-93024766D01*
X85378053Y-92977147D01*
X85376626Y-92976601D01*
X85376046Y-92976171D01*
X85367869Y-92973249D01*
X85359745Y-92970141D01*
X85359022Y-92970089D01*
X85357585Y-92969576D01*
X85177760Y-92924619D01*
X85106853Y-92889166D01*
X85082185Y-92864497D01*
X85052380Y-92804887D01*
X85052380Y-92756864D01*
X85082185Y-92697254D01*
X85106854Y-92672584D01*
X85166462Y-92642780D01*
X85364724Y-92642780D01*
X85492185Y-92685268D01*
X85511300Y-92689615D01*
X85550220Y-92686849D01*
X85585119Y-92669400D01*
X85610684Y-92639924D01*
X85623023Y-92602908D01*
X85620257Y-92563988D01*
X85602808Y-92529089D01*
X85573332Y-92503524D01*
X85555432Y-92495532D01*
X85412574Y-92447912D01*
X85402901Y-92445712D01*
X85400460Y-92444701D01*
X85396922Y-92444352D01*
X85393459Y-92443565D01*
X85390824Y-92443752D01*
X85380951Y-92442780D01*
X85142856Y-92442780D01*
X85123347Y-92444701D01*
X85120026Y-92446076D01*
X85116443Y-92446331D01*
X85098134Y-92453338D01*
X85002896Y-92500958D01*
X84994503Y-92506241D01*
X84992060Y-92507253D01*
X84989310Y-92509509D01*
X84986306Y-92511401D01*
X84984576Y-92513395D01*
X84976907Y-92519690D01*
X84929288Y-92567308D01*
X84922993Y-92574978D01*
X84920999Y-92576708D01*
X84919105Y-92579715D01*
X84916852Y-92582462D01*
X84915841Y-92584901D01*
X84910556Y-92593298D01*
X84862937Y-92688536D01*
X84855931Y-92706844D01*
X84855676Y-92710427D01*
X84854301Y-92713748D01*
X84852380Y-92733257D01*
X84623808Y-92733257D01*
X84623808Y-92542780D01*
X84621887Y-92523271D01*
X84606955Y-92487223D01*
X84579365Y-92459633D01*
X84543317Y-92444701D01*
X84504299Y-92444701D01*
X84468251Y-92459633D01*
X84440661Y-92487223D01*
X84425729Y-92523271D01*
X84423808Y-92542780D01*
X84423808Y-92918971D01*
X84142856Y-92918971D01*
X84123347Y-92920892D01*
X84120026Y-92922267D01*
X84116443Y-92922522D01*
X84098134Y-92929528D01*
X84002897Y-92977147D01*
X83994500Y-92982432D01*
X83992060Y-92983443D01*
X83989314Y-92985696D01*
X83986306Y-92987590D01*
X83984573Y-92989587D01*
X83976907Y-92995880D01*
X83929288Y-93043498D01*
X83922993Y-93051168D01*
X83920999Y-93052898D01*
X83919105Y-93055905D01*
X83916852Y-93058652D01*
X83915841Y-93061091D01*
X83910556Y-93069488D01*
X83862937Y-93164726D01*
X83855931Y-93183034D01*
X83855676Y-93186617D01*
X83854301Y-93189938D01*
X83852380Y-93209447D01*
X83623808Y-93209447D01*
X83623808Y-92542780D01*
X83621887Y-92523271D01*
X83606955Y-92487223D01*
X83579365Y-92459633D01*
X83543317Y-92444701D01*
X83504299Y-92444701D01*
X83468251Y-92459633D01*
X83440661Y-92487223D01*
X83425729Y-92523271D01*
X83423808Y-92542780D01*
X83312697Y-92542780D01*
X83312697Y-92331669D01*
X85734919Y-92331669D01*
X85734919Y-93753891D01*
G37*
D11*
X83174285Y-99703200D02*
X83031428Y-99665104D01*
X83031428Y-99665104D02*
X82793333Y-99665104D01*
X82793333Y-99665104D02*
X82698095Y-99703200D01*
X82698095Y-99703200D02*
X82650476Y-99741295D01*
X82650476Y-99741295D02*
X82602857Y-99817485D01*
X82602857Y-99817485D02*
X82602857Y-99893676D01*
X82602857Y-99893676D02*
X82650476Y-99969866D01*
X82650476Y-99969866D02*
X82698095Y-100007961D01*
X82698095Y-100007961D02*
X82793333Y-100046057D01*
X82793333Y-100046057D02*
X82983809Y-100084152D01*
X82983809Y-100084152D02*
X83079047Y-100122247D01*
X83079047Y-100122247D02*
X83126666Y-100160342D01*
X83126666Y-100160342D02*
X83174285Y-100236533D01*
X83174285Y-100236533D02*
X83174285Y-100312723D01*
X83174285Y-100312723D02*
X83126666Y-100388914D01*
X83126666Y-100388914D02*
X83079047Y-100427009D01*
X83079047Y-100427009D02*
X82983809Y-100465104D01*
X82983809Y-100465104D02*
X82745714Y-100465104D01*
X82745714Y-100465104D02*
X82602857Y-100427009D01*
X82174285Y-99665104D02*
X82174285Y-100465104D01*
X82174285Y-100465104D02*
X81936190Y-100465104D01*
X81936190Y-100465104D02*
X81793333Y-100427009D01*
X81793333Y-100427009D02*
X81698095Y-100350819D01*
X81698095Y-100350819D02*
X81650476Y-100274628D01*
X81650476Y-100274628D02*
X81602857Y-100122247D01*
X81602857Y-100122247D02*
X81602857Y-100007961D01*
X81602857Y-100007961D02*
X81650476Y-99855580D01*
X81650476Y-99855580D02*
X81698095Y-99779390D01*
X81698095Y-99779390D02*
X81793333Y-99703200D01*
X81793333Y-99703200D02*
X81936190Y-99665104D01*
X81936190Y-99665104D02*
X82174285Y-99665104D01*
X81221904Y-99893676D02*
X80745714Y-99893676D01*
X81317142Y-99665104D02*
X80983809Y-100465104D01*
X80983809Y-100465104D02*
X80650476Y-99665104D01*
X83269523Y-94623200D02*
X83126666Y-94585104D01*
X83126666Y-94585104D02*
X82888571Y-94585104D01*
X82888571Y-94585104D02*
X82793333Y-94623200D01*
X82793333Y-94623200D02*
X82745714Y-94661295D01*
X82745714Y-94661295D02*
X82698095Y-94737485D01*
X82698095Y-94737485D02*
X82698095Y-94813676D01*
X82698095Y-94813676D02*
X82745714Y-94889866D01*
X82745714Y-94889866D02*
X82793333Y-94927961D01*
X82793333Y-94927961D02*
X82888571Y-94966057D01*
X82888571Y-94966057D02*
X83079047Y-95004152D01*
X83079047Y-95004152D02*
X83174285Y-95042247D01*
X83174285Y-95042247D02*
X83221904Y-95080342D01*
X83221904Y-95080342D02*
X83269523Y-95156533D01*
X83269523Y-95156533D02*
X83269523Y-95232723D01*
X83269523Y-95232723D02*
X83221904Y-95308914D01*
X83221904Y-95308914D02*
X83174285Y-95347009D01*
X83174285Y-95347009D02*
X83079047Y-95385104D01*
X83079047Y-95385104D02*
X82840952Y-95385104D01*
X82840952Y-95385104D02*
X82698095Y-95347009D01*
X82269523Y-94585104D02*
X82269523Y-95385104D01*
X82269523Y-95385104D02*
X82031428Y-95385104D01*
X82031428Y-95385104D02*
X81888571Y-95347009D01*
X81888571Y-95347009D02*
X81793333Y-95270819D01*
X81793333Y-95270819D02*
X81745714Y-95194628D01*
X81745714Y-95194628D02*
X81698095Y-95042247D01*
X81698095Y-95042247D02*
X81698095Y-94927961D01*
X81698095Y-94927961D02*
X81745714Y-94775580D01*
X81745714Y-94775580D02*
X81793333Y-94699390D01*
X81793333Y-94699390D02*
X81888571Y-94623200D01*
X81888571Y-94623200D02*
X82031428Y-94585104D01*
X82031428Y-94585104D02*
X82269523Y-94585104D01*
X81079047Y-95385104D02*
X80888571Y-95385104D01*
X80888571Y-95385104D02*
X80793333Y-95347009D01*
X80793333Y-95347009D02*
X80698095Y-95270819D01*
X80698095Y-95270819D02*
X80650476Y-95118438D01*
X80650476Y-95118438D02*
X80650476Y-94851771D01*
X80650476Y-94851771D02*
X80698095Y-94699390D01*
X80698095Y-94699390D02*
X80793333Y-94623200D01*
X80793333Y-94623200D02*
X80888571Y-94585104D01*
X80888571Y-94585104D02*
X81079047Y-94585104D01*
X81079047Y-94585104D02*
X81174285Y-94623200D01*
X81174285Y-94623200D02*
X81269523Y-94699390D01*
X81269523Y-94699390D02*
X81317142Y-94851771D01*
X81317142Y-94851771D02*
X81317142Y-95118438D01*
X81317142Y-95118438D02*
X81269523Y-95270819D01*
X81269523Y-95270819D02*
X81174285Y-95347009D01*
X81174285Y-95347009D02*
X81079047Y-95385104D01*
X82721904Y-105507009D02*
X82817142Y-105545104D01*
X82817142Y-105545104D02*
X82959999Y-105545104D01*
X82959999Y-105545104D02*
X83102856Y-105507009D01*
X83102856Y-105507009D02*
X83198094Y-105430819D01*
X83198094Y-105430819D02*
X83245713Y-105354628D01*
X83245713Y-105354628D02*
X83293332Y-105202247D01*
X83293332Y-105202247D02*
X83293332Y-105087961D01*
X83293332Y-105087961D02*
X83245713Y-104935580D01*
X83245713Y-104935580D02*
X83198094Y-104859390D01*
X83198094Y-104859390D02*
X83102856Y-104783200D01*
X83102856Y-104783200D02*
X82959999Y-104745104D01*
X82959999Y-104745104D02*
X82864761Y-104745104D01*
X82864761Y-104745104D02*
X82721904Y-104783200D01*
X82721904Y-104783200D02*
X82674285Y-104821295D01*
X82674285Y-104821295D02*
X82674285Y-105087961D01*
X82674285Y-105087961D02*
X82864761Y-105087961D01*
X82245713Y-104745104D02*
X82245713Y-105545104D01*
X82245713Y-105545104D02*
X81674285Y-104745104D01*
X81674285Y-104745104D02*
X81674285Y-105545104D01*
X81198094Y-104745104D02*
X81198094Y-105545104D01*
X81198094Y-105545104D02*
X80959999Y-105545104D01*
X80959999Y-105545104D02*
X80817142Y-105507009D01*
X80817142Y-105507009D02*
X80721904Y-105430819D01*
X80721904Y-105430819D02*
X80674285Y-105354628D01*
X80674285Y-105354628D02*
X80626666Y-105202247D01*
X80626666Y-105202247D02*
X80626666Y-105087961D01*
X80626666Y-105087961D02*
X80674285Y-104935580D01*
X80674285Y-104935580D02*
X80721904Y-104859390D01*
X80721904Y-104859390D02*
X80817142Y-104783200D01*
X80817142Y-104783200D02*
X80959999Y-104745104D01*
X80959999Y-104745104D02*
X81198094Y-104745104D01*
D10*
X141134819Y-111788094D02*
X140134819Y-111788094D01*
X140134819Y-111788094D02*
X140134819Y-111549999D01*
X140134819Y-111549999D02*
X140182438Y-111407142D01*
X140182438Y-111407142D02*
X140277676Y-111311904D01*
X140277676Y-111311904D02*
X140372914Y-111264285D01*
X140372914Y-111264285D02*
X140563390Y-111216666D01*
X140563390Y-111216666D02*
X140706247Y-111216666D01*
X140706247Y-111216666D02*
X140896723Y-111264285D01*
X140896723Y-111264285D02*
X140991961Y-111311904D01*
X140991961Y-111311904D02*
X141087200Y-111407142D01*
X141087200Y-111407142D02*
X141134819Y-111549999D01*
X141134819Y-111549999D02*
X141134819Y-111788094D01*
X141134819Y-110264285D02*
X141134819Y-110835713D01*
X141134819Y-110549999D02*
X140134819Y-110549999D01*
X140134819Y-110549999D02*
X140277676Y-110645237D01*
X140277676Y-110645237D02*
X140372914Y-110740475D01*
X140372914Y-110740475D02*
X140420533Y-110835713D01*
X145547200Y-108723332D02*
X145594819Y-108580475D01*
X145594819Y-108580475D02*
X145594819Y-108342380D01*
X145594819Y-108342380D02*
X145547200Y-108247142D01*
X145547200Y-108247142D02*
X145499580Y-108199523D01*
X145499580Y-108199523D02*
X145404342Y-108151904D01*
X145404342Y-108151904D02*
X145309104Y-108151904D01*
X145309104Y-108151904D02*
X145213866Y-108199523D01*
X145213866Y-108199523D02*
X145166247Y-108247142D01*
X145166247Y-108247142D02*
X145118628Y-108342380D01*
X145118628Y-108342380D02*
X145071009Y-108532856D01*
X145071009Y-108532856D02*
X145023390Y-108628094D01*
X145023390Y-108628094D02*
X144975771Y-108675713D01*
X144975771Y-108675713D02*
X144880533Y-108723332D01*
X144880533Y-108723332D02*
X144785295Y-108723332D01*
X144785295Y-108723332D02*
X144690057Y-108675713D01*
X144690057Y-108675713D02*
X144642438Y-108628094D01*
X144642438Y-108628094D02*
X144594819Y-108532856D01*
X144594819Y-108532856D02*
X144594819Y-108294761D01*
X144594819Y-108294761D02*
X144642438Y-108151904D01*
X144594819Y-107818570D02*
X145594819Y-107580475D01*
X145594819Y-107580475D02*
X144880533Y-107389999D01*
X144880533Y-107389999D02*
X145594819Y-107199523D01*
X145594819Y-107199523D02*
X144594819Y-106961428D01*
X144690057Y-106628094D02*
X144642438Y-106580475D01*
X144642438Y-106580475D02*
X144594819Y-106485237D01*
X144594819Y-106485237D02*
X144594819Y-106247142D01*
X144594819Y-106247142D02*
X144642438Y-106151904D01*
X144642438Y-106151904D02*
X144690057Y-106104285D01*
X144690057Y-106104285D02*
X144785295Y-106056666D01*
X144785295Y-106056666D02*
X144880533Y-106056666D01*
X144880533Y-106056666D02*
X145023390Y-106104285D01*
X145023390Y-106104285D02*
X145594819Y-106675713D01*
X145594819Y-106675713D02*
X145594819Y-106056666D01*
X137304819Y-100216666D02*
X136828628Y-100549999D01*
X137304819Y-100788094D02*
X136304819Y-100788094D01*
X136304819Y-100788094D02*
X136304819Y-100407142D01*
X136304819Y-100407142D02*
X136352438Y-100311904D01*
X136352438Y-100311904D02*
X136400057Y-100264285D01*
X136400057Y-100264285D02*
X136495295Y-100216666D01*
X136495295Y-100216666D02*
X136638152Y-100216666D01*
X136638152Y-100216666D02*
X136733390Y-100264285D01*
X136733390Y-100264285D02*
X136781009Y-100311904D01*
X136781009Y-100311904D02*
X136828628Y-100407142D01*
X136828628Y-100407142D02*
X136828628Y-100788094D01*
X137304819Y-99264285D02*
X137304819Y-99835713D01*
X137304819Y-99549999D02*
X136304819Y-99549999D01*
X136304819Y-99549999D02*
X136447676Y-99645237D01*
X136447676Y-99645237D02*
X136542914Y-99740475D01*
X136542914Y-99740475D02*
X136590533Y-99835713D01*
X121954819Y-97411904D02*
X122764342Y-97411904D01*
X122764342Y-97411904D02*
X122859580Y-97364285D01*
X122859580Y-97364285D02*
X122907200Y-97316666D01*
X122907200Y-97316666D02*
X122954819Y-97221428D01*
X122954819Y-97221428D02*
X122954819Y-97030952D01*
X122954819Y-97030952D02*
X122907200Y-96935714D01*
X122907200Y-96935714D02*
X122859580Y-96888095D01*
X122859580Y-96888095D02*
X122764342Y-96840476D01*
X122764342Y-96840476D02*
X121954819Y-96840476D01*
X122954819Y-95840476D02*
X122954819Y-96411904D01*
X122954819Y-96126190D02*
X121954819Y-96126190D01*
X121954819Y-96126190D02*
X122097676Y-96221428D01*
X122097676Y-96221428D02*
X122192914Y-96316666D01*
X122192914Y-96316666D02*
X122240533Y-96411904D01*
D13*
%TO.C,C2*%
X132547401Y-105850000D02*
G75*
G02*
X128307401Y-105850000I-2120000J0D01*
G01*
X128307401Y-105850000D02*
G75*
G02*
X132547401Y-105850000I2120000J0D01*
G01*
X132508401Y-105480000D02*
X132508401Y-106220000D01*
X132468401Y-105313000D02*
X132468401Y-106387000D01*
X132428401Y-105186000D02*
X132428401Y-106514000D01*
X132388401Y-105082000D02*
X132388401Y-106618000D01*
X132348401Y-104991000D02*
X132348401Y-106709000D01*
X132308401Y-104910000D02*
X132308401Y-106790000D01*
X132268401Y-104837000D02*
X132268401Y-106863000D01*
X132228401Y-106690000D02*
X132228401Y-106930000D01*
X132228401Y-104770000D02*
X132228401Y-105010000D01*
X132188401Y-106690000D02*
X132188401Y-106992000D01*
X132188401Y-104708000D02*
X132188401Y-105010000D01*
X132148401Y-106690000D02*
X132148401Y-107050000D01*
X132148401Y-104650000D02*
X132148401Y-105010000D01*
X132108401Y-106690000D02*
X132108401Y-107104000D01*
X132108401Y-104596000D02*
X132108401Y-105010000D01*
X132068401Y-106690000D02*
X132068401Y-107154000D01*
X132068401Y-104546000D02*
X132068401Y-105010000D01*
X132028401Y-106690000D02*
X132028401Y-107201000D01*
X132028401Y-104499000D02*
X132028401Y-105010000D01*
X131988401Y-106690000D02*
X131988401Y-107246000D01*
X131988401Y-104454000D02*
X131988401Y-105010000D01*
X131948401Y-106690000D02*
X131948401Y-107288000D01*
X131948401Y-104412000D02*
X131948401Y-105010000D01*
X131908401Y-106690000D02*
X131908401Y-107328000D01*
X131908401Y-104372000D02*
X131908401Y-105010000D01*
X131868401Y-106690000D02*
X131868401Y-107366000D01*
X131868401Y-104334000D02*
X131868401Y-105010000D01*
X131828401Y-106690000D02*
X131828401Y-107402000D01*
X131828401Y-104298000D02*
X131828401Y-105010000D01*
X131788401Y-106690000D02*
X131788401Y-107437000D01*
X131788401Y-104263000D02*
X131788401Y-105010000D01*
X131748401Y-106690000D02*
X131748401Y-107469000D01*
X131748401Y-104231000D02*
X131748401Y-105010000D01*
X131708401Y-106690000D02*
X131708401Y-107500000D01*
X131708401Y-104200000D02*
X131708401Y-105010000D01*
X131668401Y-106690000D02*
X131668401Y-107530000D01*
X131668401Y-104170000D02*
X131668401Y-105010000D01*
X131628401Y-106690000D02*
X131628401Y-107558000D01*
X131628401Y-104142000D02*
X131628401Y-105010000D01*
X131588401Y-106690000D02*
X131588401Y-107585000D01*
X131588401Y-104115000D02*
X131588401Y-105010000D01*
X131548401Y-106690000D02*
X131548401Y-107610000D01*
X131548401Y-104090000D02*
X131548401Y-105010000D01*
X131508401Y-106690000D02*
X131508401Y-107635000D01*
X131508401Y-104065000D02*
X131508401Y-105010000D01*
X131468401Y-106690000D02*
X131468401Y-107658000D01*
X131468401Y-104042000D02*
X131468401Y-105010000D01*
X131428401Y-106690000D02*
X131428401Y-107680000D01*
X131428401Y-104020000D02*
X131428401Y-105010000D01*
X131388401Y-106690000D02*
X131388401Y-107701000D01*
X131388401Y-103999000D02*
X131388401Y-105010000D01*
X131348401Y-106690000D02*
X131348401Y-107720000D01*
X131348401Y-103980000D02*
X131348401Y-105010000D01*
X131308401Y-106690000D02*
X131308401Y-107739000D01*
X131308401Y-103961000D02*
X131308401Y-105010000D01*
X131268401Y-106690000D02*
X131268401Y-107757000D01*
X131268401Y-103943000D02*
X131268401Y-105010000D01*
X131228401Y-106690000D02*
X131228401Y-107774000D01*
X131228401Y-103926000D02*
X131228401Y-105010000D01*
X131188401Y-106690000D02*
X131188401Y-107790000D01*
X131188401Y-103910000D02*
X131188401Y-105010000D01*
X131148401Y-106690000D02*
X131148401Y-107804000D01*
X131148401Y-103896000D02*
X131148401Y-105010000D01*
X131107401Y-106690000D02*
X131107401Y-107818000D01*
X131107401Y-103882000D02*
X131107401Y-105010000D01*
X131067401Y-106690000D02*
X131067401Y-107832000D01*
X131067401Y-103868000D02*
X131067401Y-105010000D01*
X131027401Y-106690000D02*
X131027401Y-107844000D01*
X131027401Y-103856000D02*
X131027401Y-105010000D01*
X130987401Y-106690000D02*
X130987401Y-107855000D01*
X130987401Y-103845000D02*
X130987401Y-105010000D01*
X130947401Y-106690000D02*
X130947401Y-107866000D01*
X130947401Y-103834000D02*
X130947401Y-105010000D01*
X130907401Y-106690000D02*
X130907401Y-107875000D01*
X130907401Y-103825000D02*
X130907401Y-105010000D01*
X130867401Y-106690000D02*
X130867401Y-107884000D01*
X130867401Y-103816000D02*
X130867401Y-105010000D01*
X130827401Y-106690000D02*
X130827401Y-107892000D01*
X130827401Y-103808000D02*
X130827401Y-105010000D01*
X130787401Y-106690000D02*
X130787401Y-107900000D01*
X130787401Y-103800000D02*
X130787401Y-105010000D01*
X130747401Y-106690000D02*
X130747401Y-107906000D01*
X130747401Y-103794000D02*
X130747401Y-105010000D01*
X130707401Y-106690000D02*
X130707401Y-107912000D01*
X130707401Y-103788000D02*
X130707401Y-105010000D01*
X130667401Y-106690000D02*
X130667401Y-107917000D01*
X130667401Y-103783000D02*
X130667401Y-105010000D01*
X130627401Y-106690000D02*
X130627401Y-107921000D01*
X130627401Y-103779000D02*
X130627401Y-105010000D01*
X130587401Y-103776000D02*
X130587401Y-107924000D01*
X130547401Y-103773000D02*
X130547401Y-107927000D01*
X130507401Y-103771000D02*
X130507401Y-107929000D01*
X130467401Y-103770000D02*
X130467401Y-107930000D01*
X130427401Y-103770000D02*
X130427401Y-107930000D01*
X128357600Y-104455000D02*
X128357600Y-104855000D01*
X128157600Y-104655000D02*
X128557600Y-104655000D01*
D14*
%TO.C,H1*%
X79875002Y-84570000D02*
X79875002Y-118570000D01*
X82875002Y-81570000D02*
X141875002Y-81570000D01*
X82875002Y-121570000D02*
X141875002Y-121570000D01*
X144875002Y-84570000D02*
X144875002Y-118570000D01*
X79875002Y-84570000D02*
G75*
G02*
X82875002Y-81570000I3000000J0D01*
G01*
X82875002Y-121570000D02*
G75*
G02*
X79875002Y-118570000I0J3000000D01*
G01*
X141875002Y-81570000D02*
G75*
G02*
X144875002Y-84570000I0J-3000000D01*
G01*
X144875002Y-118570000D02*
G75*
G02*
X141875002Y-121570000I-3000000J0D01*
G01*
X85875002Y-118570000D02*
G75*
G02*
X79875000Y-118570000I-3000001J0D01*
G01*
X79875000Y-118570000D02*
G75*
G02*
X85875002Y-118570000I3000001J0D01*
G01*
X85875002Y-84570000D02*
G75*
G02*
X79875002Y-84570000I-3000000J0D01*
G01*
X79875002Y-84570000D02*
G75*
G02*
X85875002Y-84570000I3000000J0D01*
G01*
D11*
X144875002Y-84570000D02*
G75*
G02*
X138875002Y-84570000I-3000000J0D01*
G01*
X138875002Y-84570000D02*
G75*
G02*
X144875002Y-84570000I3000000J0D01*
G01*
D14*
X144875002Y-84570000D02*
G75*
G02*
X138875002Y-84570000I-3000000J0D01*
G01*
X138875002Y-84570000D02*
G75*
G02*
X144875002Y-84570000I3000000J0D01*
G01*
D11*
X144885401Y-118570000D02*
G75*
G02*
X138864603Y-118570000I-3010399J0D01*
G01*
X138864603Y-118570000D02*
G75*
G02*
X144885401Y-118570000I3010399J0D01*
G01*
D14*
X144885400Y-118570000D02*
G75*
G02*
X138864604Y-118570000I-3010398J0D01*
G01*
X138864604Y-118570000D02*
G75*
G02*
X144885400Y-118570000I3010398J0D01*
G01*
D15*
%TO.C,J8*%
X140184312Y-101247400D02*
X141706887Y-101247400D01*
X141706887Y-92052600D02*
X140184312Y-92052600D01*
X143984311Y-101247400D02*
X145581400Y-101247400D01*
X145581400Y-92052600D02*
X143984311Y-92052600D01*
X145581400Y-101247400D02*
X145581400Y-92052600D01*
D13*
%TO.C,C1*%
X137895000Y-103635000D02*
X137895000Y-104035000D01*
X138095000Y-103835000D02*
X137695000Y-103835000D01*
X138780000Y-105904801D02*
X134620000Y-105904801D01*
X138780000Y-105944801D02*
X134620000Y-105944801D01*
X138779000Y-105984801D02*
X134621000Y-105984801D01*
X138777000Y-106024801D02*
X134623000Y-106024801D01*
X138774000Y-106064801D02*
X134626000Y-106064801D01*
X138771000Y-106104801D02*
X137540000Y-106104801D01*
X135860000Y-106104801D02*
X134629000Y-106104801D01*
X138767000Y-106144801D02*
X137540000Y-106144801D01*
X135860000Y-106144801D02*
X134633000Y-106144801D01*
X138762000Y-106184801D02*
X137540000Y-106184801D01*
X135860000Y-106184801D02*
X134638000Y-106184801D01*
X138756000Y-106224801D02*
X137540000Y-106224801D01*
X135860000Y-106224801D02*
X134644000Y-106224801D01*
X138750000Y-106264801D02*
X137540000Y-106264801D01*
X135860000Y-106264801D02*
X134650000Y-106264801D01*
X138742000Y-106304801D02*
X137540000Y-106304801D01*
X135860000Y-106304801D02*
X134658000Y-106304801D01*
X138734000Y-106344801D02*
X137540000Y-106344801D01*
X135860000Y-106344801D02*
X134666000Y-106344801D01*
X138725000Y-106384801D02*
X137540000Y-106384801D01*
X135860000Y-106384801D02*
X134675000Y-106384801D01*
X138716000Y-106424801D02*
X137540000Y-106424801D01*
X135860000Y-106424801D02*
X134684000Y-106424801D01*
X138705000Y-106464801D02*
X137540000Y-106464801D01*
X135860000Y-106464801D02*
X134695000Y-106464801D01*
X138694000Y-106504801D02*
X137540000Y-106504801D01*
X135860000Y-106504801D02*
X134706000Y-106504801D01*
X138682000Y-106544801D02*
X137540000Y-106544801D01*
X135860000Y-106544801D02*
X134718000Y-106544801D01*
X138668000Y-106584801D02*
X137540000Y-106584801D01*
X135860000Y-106584801D02*
X134732000Y-106584801D01*
X138654000Y-106625801D02*
X137540000Y-106625801D01*
X135860000Y-106625801D02*
X134746000Y-106625801D01*
X138640000Y-106665801D02*
X137540000Y-106665801D01*
X135860000Y-106665801D02*
X134760000Y-106665801D01*
X138624000Y-106705801D02*
X137540000Y-106705801D01*
X135860000Y-106705801D02*
X134776000Y-106705801D01*
X138607000Y-106745801D02*
X137540000Y-106745801D01*
X135860000Y-106745801D02*
X134793000Y-106745801D01*
X138589000Y-106785801D02*
X137540000Y-106785801D01*
X135860000Y-106785801D02*
X134811000Y-106785801D01*
X138570000Y-106825801D02*
X137540000Y-106825801D01*
X135860000Y-106825801D02*
X134830000Y-106825801D01*
X138551000Y-106865801D02*
X137540000Y-106865801D01*
X135860000Y-106865801D02*
X134849000Y-106865801D01*
X138530000Y-106905801D02*
X137540000Y-106905801D01*
X135860000Y-106905801D02*
X134870000Y-106905801D01*
X138508000Y-106945801D02*
X137540000Y-106945801D01*
X135860000Y-106945801D02*
X134892000Y-106945801D01*
X138485000Y-106985801D02*
X137540000Y-106985801D01*
X135860000Y-106985801D02*
X134915000Y-106985801D01*
X138460000Y-107025801D02*
X137540000Y-107025801D01*
X135860000Y-107025801D02*
X134940000Y-107025801D01*
X138435000Y-107065801D02*
X137540000Y-107065801D01*
X135860000Y-107065801D02*
X134965000Y-107065801D01*
X138408000Y-107105801D02*
X137540000Y-107105801D01*
X135860000Y-107105801D02*
X134992000Y-107105801D01*
X138380000Y-107145801D02*
X137540000Y-107145801D01*
X135860000Y-107145801D02*
X135020000Y-107145801D01*
X138350000Y-107185801D02*
X137540000Y-107185801D01*
X135860000Y-107185801D02*
X135050000Y-107185801D01*
X138319000Y-107225801D02*
X137540000Y-107225801D01*
X135860000Y-107225801D02*
X135081000Y-107225801D01*
X138287000Y-107265801D02*
X137540000Y-107265801D01*
X135860000Y-107265801D02*
X135113000Y-107265801D01*
X138252000Y-107305801D02*
X137540000Y-107305801D01*
X135860000Y-107305801D02*
X135148000Y-107305801D01*
X138216000Y-107345801D02*
X137540000Y-107345801D01*
X135860000Y-107345801D02*
X135184000Y-107345801D01*
X138178000Y-107385801D02*
X137540000Y-107385801D01*
X135860000Y-107385801D02*
X135222000Y-107385801D01*
X138138000Y-107425801D02*
X137540000Y-107425801D01*
X135860000Y-107425801D02*
X135262000Y-107425801D01*
X138096000Y-107465801D02*
X137540000Y-107465801D01*
X135860000Y-107465801D02*
X135304000Y-107465801D01*
X138051000Y-107505801D02*
X137540000Y-107505801D01*
X135860000Y-107505801D02*
X135349000Y-107505801D01*
X138004000Y-107545801D02*
X137540000Y-107545801D01*
X135860000Y-107545801D02*
X135396000Y-107545801D01*
X137954000Y-107585801D02*
X137540000Y-107585801D01*
X135860000Y-107585801D02*
X135446000Y-107585801D01*
X137900000Y-107625801D02*
X137540000Y-107625801D01*
X135860000Y-107625801D02*
X135500000Y-107625801D01*
X137842000Y-107665801D02*
X137540000Y-107665801D01*
X135860000Y-107665801D02*
X135558000Y-107665801D01*
X137780000Y-107705801D02*
X137540000Y-107705801D01*
X135860000Y-107705801D02*
X135620000Y-107705801D01*
X137713000Y-107745801D02*
X135687000Y-107745801D01*
X137640000Y-107785801D02*
X135760000Y-107785801D01*
X137559000Y-107825801D02*
X135841000Y-107825801D01*
X137468000Y-107865801D02*
X135932000Y-107865801D01*
X137364000Y-107905801D02*
X136036000Y-107905801D01*
X137237000Y-107945801D02*
X136163000Y-107945801D01*
X137070000Y-107985801D02*
X136330000Y-107985801D01*
X138820000Y-105904801D02*
G75*
G02*
X134580000Y-105904801I-2120000J0D01*
G01*
X134580000Y-105904801D02*
G75*
G02*
X138820000Y-105904801I2120000J0D01*
G01*
%TO.C,R7*%
X134465000Y-93022936D02*
X134465000Y-93477064D01*
X135935000Y-93022936D02*
X135935000Y-93477064D01*
%TO.C,J6*%
X87370000Y-87420000D02*
X87370000Y-90080000D01*
X87370000Y-112820000D02*
X87370000Y-115480000D01*
X133150000Y-87420000D02*
X87370000Y-87420000D01*
X133150000Y-87420000D02*
X133150000Y-90080000D01*
X133150000Y-90080000D02*
X87370000Y-90080000D01*
X135750000Y-88750000D02*
X135750000Y-90080000D01*
X135750000Y-90080000D02*
X134420000Y-90080000D01*
X135760000Y-112825000D02*
X87370000Y-112820000D01*
X135760000Y-112825000D02*
X135760000Y-115425000D01*
X135760000Y-115425000D02*
X87370000Y-115480000D01*
D11*
X136160000Y-87000000D02*
X86910000Y-87000000D01*
X86910000Y-90500000D01*
X136160000Y-90500000D01*
X136160000Y-87000000D01*
X136160000Y-98670000D02*
X134020000Y-98670000D01*
X134020000Y-103930000D01*
X136160000Y-103930000D01*
X136160000Y-98670000D01*
X136160000Y-112500000D02*
X86910000Y-112500000D01*
X86910000Y-115750000D01*
X136160000Y-115750000D01*
X136160000Y-112500000D01*
D13*
%TO.C,J1*%
X131730000Y-117720000D02*
X133060000Y-117720000D01*
X131730000Y-119050000D02*
X131730000Y-117720000D01*
X134330000Y-117720000D02*
X136930000Y-117720000D01*
X134330000Y-120380000D02*
X134330000Y-117720000D01*
X134330000Y-120380000D02*
X136930000Y-120380000D01*
X136930000Y-120380000D02*
X136930000Y-117720000D01*
%TO.C,D1*%
X136815000Y-108765000D02*
X136815000Y-112650000D01*
X139985000Y-108765000D02*
X136815000Y-108765000D01*
X139985000Y-112650000D02*
X139985000Y-108765000D01*
%TO.C,SW2*%
X143960000Y-103280000D02*
X141240000Y-103280000D01*
X141240000Y-111250000D01*
X143960000Y-111250000D01*
X143960000Y-103280000D01*
%TO.C,R1*%
X134465000Y-99822936D02*
X134465000Y-100277064D01*
X135935000Y-99822936D02*
X135935000Y-100277064D01*
%TO.C,U1*%
X123590000Y-94740000D02*
X124850000Y-94740000D01*
X123590000Y-98500000D02*
X123590000Y-94740000D01*
X130410000Y-94740000D02*
X129150000Y-94740000D01*
X130410000Y-98500000D02*
X130410000Y-94740000D01*
X123690000Y-99780000D02*
X123360000Y-100020000D01*
X123360000Y-99540000D01*
X123690000Y-99780000D01*
G36*
X123690000Y-99780000D02*
G01*
X123360000Y-100020000D01*
X123360000Y-99540000D01*
X123690000Y-99780000D01*
G37*
%TD*%
M02*
