%TF.GenerationSoftware,KiCad,Pcbnew,8.0.4*%
%TF.CreationDate,2024-07-24T16:54:55-04:00*%
%TF.ProjectId,esp32-wroom-table-lights,65737033-322d-4777-926f-6f6d2d746162,rev?*%
%TF.SameCoordinates,Original*%
%TF.FileFunction,Legend,Bot*%
%TF.FilePolarity,Positive*%
%FSLAX46Y46*%
G04 Gerber Fmt 4.6, Leading zero omitted, Abs format (unit mm)*
G04 Created by KiCad (PCBNEW 8.0.4) date 2024-07-24 16:54:55*
%MOMM*%
%LPD*%
G01*
G04 APERTURE LIST*
%ADD10C,0.150000*%
%ADD11C,0.120000*%
G04 APERTURE END LIST*
D10*
X180716666Y-100929819D02*
X181049999Y-100453628D01*
X181288094Y-100929819D02*
X181288094Y-99929819D01*
X181288094Y-99929819D02*
X180907142Y-99929819D01*
X180907142Y-99929819D02*
X180811904Y-99977438D01*
X180811904Y-99977438D02*
X180764285Y-100025057D01*
X180764285Y-100025057D02*
X180716666Y-100120295D01*
X180716666Y-100120295D02*
X180716666Y-100263152D01*
X180716666Y-100263152D02*
X180764285Y-100358390D01*
X180764285Y-100358390D02*
X180811904Y-100406009D01*
X180811904Y-100406009D02*
X180907142Y-100453628D01*
X180907142Y-100453628D02*
X181288094Y-100453628D01*
X180383332Y-99929819D02*
X179716666Y-99929819D01*
X179716666Y-99929819D02*
X180145237Y-100929819D01*
X196618094Y-110894819D02*
X196618094Y-109894819D01*
X196618094Y-109894819D02*
X196379999Y-109894819D01*
X196379999Y-109894819D02*
X196237142Y-109942438D01*
X196237142Y-109942438D02*
X196141904Y-110037676D01*
X196141904Y-110037676D02*
X196094285Y-110132914D01*
X196094285Y-110132914D02*
X196046666Y-110323390D01*
X196046666Y-110323390D02*
X196046666Y-110466247D01*
X196046666Y-110466247D02*
X196094285Y-110656723D01*
X196094285Y-110656723D02*
X196141904Y-110751961D01*
X196141904Y-110751961D02*
X196237142Y-110847200D01*
X196237142Y-110847200D02*
X196379999Y-110894819D01*
X196379999Y-110894819D02*
X196618094Y-110894819D01*
X195475237Y-110323390D02*
X195570475Y-110275771D01*
X195570475Y-110275771D02*
X195618094Y-110228152D01*
X195618094Y-110228152D02*
X195665713Y-110132914D01*
X195665713Y-110132914D02*
X195665713Y-110085295D01*
X195665713Y-110085295D02*
X195618094Y-109990057D01*
X195618094Y-109990057D02*
X195570475Y-109942438D01*
X195570475Y-109942438D02*
X195475237Y-109894819D01*
X195475237Y-109894819D02*
X195284761Y-109894819D01*
X195284761Y-109894819D02*
X195189523Y-109942438D01*
X195189523Y-109942438D02*
X195141904Y-109990057D01*
X195141904Y-109990057D02*
X195094285Y-110085295D01*
X195094285Y-110085295D02*
X195094285Y-110132914D01*
X195094285Y-110132914D02*
X195141904Y-110228152D01*
X195141904Y-110228152D02*
X195189523Y-110275771D01*
X195189523Y-110275771D02*
X195284761Y-110323390D01*
X195284761Y-110323390D02*
X195475237Y-110323390D01*
X195475237Y-110323390D02*
X195570475Y-110371009D01*
X195570475Y-110371009D02*
X195618094Y-110418628D01*
X195618094Y-110418628D02*
X195665713Y-110513866D01*
X195665713Y-110513866D02*
X195665713Y-110704342D01*
X195665713Y-110704342D02*
X195618094Y-110799580D01*
X195618094Y-110799580D02*
X195570475Y-110847200D01*
X195570475Y-110847200D02*
X195475237Y-110894819D01*
X195475237Y-110894819D02*
X195284761Y-110894819D01*
X195284761Y-110894819D02*
X195189523Y-110847200D01*
X195189523Y-110847200D02*
X195141904Y-110799580D01*
X195141904Y-110799580D02*
X195094285Y-110704342D01*
X195094285Y-110704342D02*
X195094285Y-110513866D01*
X195094285Y-110513866D02*
X195141904Y-110418628D01*
X195141904Y-110418628D02*
X195189523Y-110371009D01*
X195189523Y-110371009D02*
X195284761Y-110323390D01*
D11*
%TO.C,R7*%
X183851515Y-104475000D02*
G75*
G02*
X177248485Y-104475000I-3301515J0D01*
G01*
X177248485Y-104475000D02*
G75*
G02*
X183851515Y-104475000I3301515J0D01*
G01*
%TO.C,D8*%
X199880000Y-116000000D02*
G75*
G02*
X191880000Y-116000000I-4000000J0D01*
G01*
X191880000Y-116000000D02*
G75*
G02*
X199880000Y-116000000I4000000J0D01*
G01*
X199940000Y-118141145D02*
G75*
G02*
X191290000Y-115999514I-4060000J2141145D01*
G01*
X191290000Y-116000486D02*
G75*
G02*
X199940000Y-113858855I4590000J486D01*
G01*
X199940000Y-118142000D02*
X199940000Y-113858000D01*
%TD*%
M02*
