%TF.GenerationSoftware,KiCad,Pcbnew,8.0.1*%
%TF.CreationDate,2024-04-01T21:08:38-04:00*%
%TF.ProjectId,esp32-node-board-40x65,65737033-322d-46e6-9f64-652d626f6172,rev?*%
%TF.SameCoordinates,Original*%
%TF.FileFunction,Legend,Top*%
%TF.FilePolarity,Positive*%
%FSLAX46Y46*%
G04 Gerber Fmt 4.6, Leading zero omitted, Abs format (unit mm)*
G04 Created by KiCad (PCBNEW 8.0.1) date 2024-04-01 21:08:38*
%MOMM*%
%LPD*%
G01*
G04 APERTURE LIST*
%ADD10C,0.750000*%
%ADD11C,0.200000*%
%ADD12C,0.150000*%
%ADD13C,0.125000*%
%ADD14C,0.250000*%
%ADD15C,0.100000*%
%ADD16C,0.160000*%
%ADD17C,0.120000*%
G04 APERTURE END LIST*
D10*
X145250000Y-42114210D02*
X145250000Y-78085782D01*
X81914218Y-40164218D02*
X143085790Y-40164218D01*
X145250000Y-78085782D02*
G75*
G02*
X143250000Y-80085800I-2000000J-18D01*
G01*
X79914218Y-42114210D02*
X79914218Y-78085782D01*
X81914218Y-80085782D02*
G75*
G02*
X79914218Y-78085782I-18J1999982D01*
G01*
X143250000Y-40250000D02*
G75*
G02*
X145250000Y-42250000I0J-2000000D01*
G01*
X79914218Y-42164218D02*
G75*
G02*
X81914218Y-40164218I1999982J18D01*
G01*
X81914214Y-80085782D02*
X143085786Y-80085782D01*
D11*
X115938095Y-49552219D02*
X116604761Y-49552219D01*
X116604761Y-49552219D02*
X116176190Y-50552219D01*
X117414285Y-49885552D02*
X117414285Y-50552219D01*
X117176190Y-49504600D02*
X116938095Y-50218885D01*
X116938095Y-50218885D02*
X117557142Y-50218885D01*
X118414285Y-50552219D02*
X117938095Y-50552219D01*
X117938095Y-50552219D02*
X117938095Y-49552219D01*
X118700000Y-50504600D02*
X118842857Y-50552219D01*
X118842857Y-50552219D02*
X119080952Y-50552219D01*
X119080952Y-50552219D02*
X119176190Y-50504600D01*
X119176190Y-50504600D02*
X119223809Y-50456980D01*
X119223809Y-50456980D02*
X119271428Y-50361742D01*
X119271428Y-50361742D02*
X119271428Y-50266504D01*
X119271428Y-50266504D02*
X119223809Y-50171266D01*
X119223809Y-50171266D02*
X119176190Y-50123647D01*
X119176190Y-50123647D02*
X119080952Y-50076028D01*
X119080952Y-50076028D02*
X118890476Y-50028409D01*
X118890476Y-50028409D02*
X118795238Y-49980790D01*
X118795238Y-49980790D02*
X118747619Y-49933171D01*
X118747619Y-49933171D02*
X118700000Y-49837933D01*
X118700000Y-49837933D02*
X118700000Y-49742695D01*
X118700000Y-49742695D02*
X118747619Y-49647457D01*
X118747619Y-49647457D02*
X118795238Y-49599838D01*
X118795238Y-49599838D02*
X118890476Y-49552219D01*
X118890476Y-49552219D02*
X119128571Y-49552219D01*
X119128571Y-49552219D02*
X119271428Y-49599838D01*
X120176190Y-49552219D02*
X119700000Y-49552219D01*
X119700000Y-49552219D02*
X119652381Y-50028409D01*
X119652381Y-50028409D02*
X119700000Y-49980790D01*
X119700000Y-49980790D02*
X119795238Y-49933171D01*
X119795238Y-49933171D02*
X120033333Y-49933171D01*
X120033333Y-49933171D02*
X120128571Y-49980790D01*
X120128571Y-49980790D02*
X120176190Y-50028409D01*
X120176190Y-50028409D02*
X120223809Y-50123647D01*
X120223809Y-50123647D02*
X120223809Y-50361742D01*
X120223809Y-50361742D02*
X120176190Y-50456980D01*
X120176190Y-50456980D02*
X120128571Y-50504600D01*
X120128571Y-50504600D02*
X120033333Y-50552219D01*
X120033333Y-50552219D02*
X119795238Y-50552219D01*
X119795238Y-50552219D02*
X119700000Y-50504600D01*
X119700000Y-50504600D02*
X119652381Y-50456980D01*
X120700000Y-50552219D02*
X120890476Y-50552219D01*
X120890476Y-50552219D02*
X120985714Y-50504600D01*
X120985714Y-50504600D02*
X121033333Y-50456980D01*
X121033333Y-50456980D02*
X121128571Y-50314123D01*
X121128571Y-50314123D02*
X121176190Y-50123647D01*
X121176190Y-50123647D02*
X121176190Y-49742695D01*
X121176190Y-49742695D02*
X121128571Y-49647457D01*
X121128571Y-49647457D02*
X121080952Y-49599838D01*
X121080952Y-49599838D02*
X120985714Y-49552219D01*
X120985714Y-49552219D02*
X120795238Y-49552219D01*
X120795238Y-49552219D02*
X120700000Y-49599838D01*
X120700000Y-49599838D02*
X120652381Y-49647457D01*
X120652381Y-49647457D02*
X120604762Y-49742695D01*
X120604762Y-49742695D02*
X120604762Y-49980790D01*
X120604762Y-49980790D02*
X120652381Y-50076028D01*
X120652381Y-50076028D02*
X120700000Y-50123647D01*
X120700000Y-50123647D02*
X120795238Y-50171266D01*
X120795238Y-50171266D02*
X120985714Y-50171266D01*
X120985714Y-50171266D02*
X121080952Y-50123647D01*
X121080952Y-50123647D02*
X121128571Y-50076028D01*
X121128571Y-50076028D02*
X121176190Y-49980790D01*
X122080952Y-49552219D02*
X121604762Y-49552219D01*
X121604762Y-49552219D02*
X121557143Y-50028409D01*
X121557143Y-50028409D02*
X121604762Y-49980790D01*
X121604762Y-49980790D02*
X121700000Y-49933171D01*
X121700000Y-49933171D02*
X121938095Y-49933171D01*
X121938095Y-49933171D02*
X122033333Y-49980790D01*
X122033333Y-49980790D02*
X122080952Y-50028409D01*
X122080952Y-50028409D02*
X122128571Y-50123647D01*
X122128571Y-50123647D02*
X122128571Y-50361742D01*
X122128571Y-50361742D02*
X122080952Y-50456980D01*
X122080952Y-50456980D02*
X122033333Y-50504600D01*
X122033333Y-50504600D02*
X121938095Y-50552219D01*
X121938095Y-50552219D02*
X121700000Y-50552219D01*
X121700000Y-50552219D02*
X121604762Y-50504600D01*
X121604762Y-50504600D02*
X121557143Y-50456980D01*
X115869673Y-63241219D02*
X115869673Y-64050742D01*
X115869673Y-64050742D02*
X115917292Y-64145980D01*
X115917292Y-64145980D02*
X115964911Y-64193600D01*
X115964911Y-64193600D02*
X116060149Y-64241219D01*
X116060149Y-64241219D02*
X116250625Y-64241219D01*
X116250625Y-64241219D02*
X116345863Y-64193600D01*
X116345863Y-64193600D02*
X116393482Y-64145980D01*
X116393482Y-64145980D02*
X116441101Y-64050742D01*
X116441101Y-64050742D02*
X116441101Y-63241219D01*
X117393482Y-64241219D02*
X116917292Y-64241219D01*
X116917292Y-64241219D02*
X116917292Y-63241219D01*
X117726816Y-64241219D02*
X117726816Y-63241219D01*
X117726816Y-63241219D02*
X118298244Y-64241219D01*
X118298244Y-64241219D02*
X118298244Y-63241219D01*
X118726816Y-63336457D02*
X118774435Y-63288838D01*
X118774435Y-63288838D02*
X118869673Y-63241219D01*
X118869673Y-63241219D02*
X119107768Y-63241219D01*
X119107768Y-63241219D02*
X119203006Y-63288838D01*
X119203006Y-63288838D02*
X119250625Y-63336457D01*
X119250625Y-63336457D02*
X119298244Y-63431695D01*
X119298244Y-63431695D02*
X119298244Y-63526933D01*
X119298244Y-63526933D02*
X119250625Y-63669790D01*
X119250625Y-63669790D02*
X118679197Y-64241219D01*
X118679197Y-64241219D02*
X119298244Y-64241219D01*
X119917292Y-63241219D02*
X120012530Y-63241219D01*
X120012530Y-63241219D02*
X120107768Y-63288838D01*
X120107768Y-63288838D02*
X120155387Y-63336457D01*
X120155387Y-63336457D02*
X120203006Y-63431695D01*
X120203006Y-63431695D02*
X120250625Y-63622171D01*
X120250625Y-63622171D02*
X120250625Y-63860266D01*
X120250625Y-63860266D02*
X120203006Y-64050742D01*
X120203006Y-64050742D02*
X120155387Y-64145980D01*
X120155387Y-64145980D02*
X120107768Y-64193600D01*
X120107768Y-64193600D02*
X120012530Y-64241219D01*
X120012530Y-64241219D02*
X119917292Y-64241219D01*
X119917292Y-64241219D02*
X119822054Y-64193600D01*
X119822054Y-64193600D02*
X119774435Y-64145980D01*
X119774435Y-64145980D02*
X119726816Y-64050742D01*
X119726816Y-64050742D02*
X119679197Y-63860266D01*
X119679197Y-63860266D02*
X119679197Y-63622171D01*
X119679197Y-63622171D02*
X119726816Y-63431695D01*
X119726816Y-63431695D02*
X119774435Y-63336457D01*
X119774435Y-63336457D02*
X119822054Y-63288838D01*
X119822054Y-63288838D02*
X119917292Y-63241219D01*
X120869673Y-63241219D02*
X120964911Y-63241219D01*
X120964911Y-63241219D02*
X121060149Y-63288838D01*
X121060149Y-63288838D02*
X121107768Y-63336457D01*
X121107768Y-63336457D02*
X121155387Y-63431695D01*
X121155387Y-63431695D02*
X121203006Y-63622171D01*
X121203006Y-63622171D02*
X121203006Y-63860266D01*
X121203006Y-63860266D02*
X121155387Y-64050742D01*
X121155387Y-64050742D02*
X121107768Y-64145980D01*
X121107768Y-64145980D02*
X121060149Y-64193600D01*
X121060149Y-64193600D02*
X120964911Y-64241219D01*
X120964911Y-64241219D02*
X120869673Y-64241219D01*
X120869673Y-64241219D02*
X120774435Y-64193600D01*
X120774435Y-64193600D02*
X120726816Y-64145980D01*
X120726816Y-64145980D02*
X120679197Y-64050742D01*
X120679197Y-64050742D02*
X120631578Y-63860266D01*
X120631578Y-63860266D02*
X120631578Y-63622171D01*
X120631578Y-63622171D02*
X120679197Y-63431695D01*
X120679197Y-63431695D02*
X120726816Y-63336457D01*
X120726816Y-63336457D02*
X120774435Y-63288838D01*
X120774435Y-63288838D02*
X120869673Y-63241219D01*
X121536340Y-63241219D02*
X122155387Y-63241219D01*
X122155387Y-63241219D02*
X121822054Y-63622171D01*
X121822054Y-63622171D02*
X121964911Y-63622171D01*
X121964911Y-63622171D02*
X122060149Y-63669790D01*
X122060149Y-63669790D02*
X122107768Y-63717409D01*
X122107768Y-63717409D02*
X122155387Y-63812647D01*
X122155387Y-63812647D02*
X122155387Y-64050742D01*
X122155387Y-64050742D02*
X122107768Y-64145980D01*
X122107768Y-64145980D02*
X122060149Y-64193600D01*
X122060149Y-64193600D02*
X121964911Y-64241219D01*
X121964911Y-64241219D02*
X121679197Y-64241219D01*
X121679197Y-64241219D02*
X121583959Y-64193600D01*
X121583959Y-64193600D02*
X121536340Y-64145980D01*
D12*
X110730476Y-81774819D02*
X110730476Y-82489104D01*
X110730476Y-82489104D02*
X110682857Y-82631961D01*
X110682857Y-82631961D02*
X110587619Y-82727200D01*
X110587619Y-82727200D02*
X110444762Y-82774819D01*
X110444762Y-82774819D02*
X110349524Y-82774819D01*
X111730476Y-82774819D02*
X111159048Y-82774819D01*
X111444762Y-82774819D02*
X111444762Y-81774819D01*
X111444762Y-81774819D02*
X111349524Y-81917676D01*
X111349524Y-81917676D02*
X111254286Y-82012914D01*
X111254286Y-82012914D02*
X111159048Y-82060533D01*
X112206667Y-82774819D02*
X112397143Y-82774819D01*
X112397143Y-82774819D02*
X112492381Y-82727200D01*
X112492381Y-82727200D02*
X112540000Y-82679580D01*
X112540000Y-82679580D02*
X112635238Y-82536723D01*
X112635238Y-82536723D02*
X112682857Y-82346247D01*
X112682857Y-82346247D02*
X112682857Y-81965295D01*
X112682857Y-81965295D02*
X112635238Y-81870057D01*
X112635238Y-81870057D02*
X112587619Y-81822438D01*
X112587619Y-81822438D02*
X112492381Y-81774819D01*
X112492381Y-81774819D02*
X112301905Y-81774819D01*
X112301905Y-81774819D02*
X112206667Y-81822438D01*
X112206667Y-81822438D02*
X112159048Y-81870057D01*
X112159048Y-81870057D02*
X112111429Y-81965295D01*
X112111429Y-81965295D02*
X112111429Y-82203390D01*
X112111429Y-82203390D02*
X112159048Y-82298628D01*
X112159048Y-82298628D02*
X112206667Y-82346247D01*
X112206667Y-82346247D02*
X112301905Y-82393866D01*
X112301905Y-82393866D02*
X112492381Y-82393866D01*
X112492381Y-82393866D02*
X112587619Y-82346247D01*
X112587619Y-82346247D02*
X112635238Y-82298628D01*
X112635238Y-82298628D02*
X112682857Y-82203390D01*
X94690476Y-59874819D02*
X94690476Y-60589104D01*
X94690476Y-60589104D02*
X94642857Y-60731961D01*
X94642857Y-60731961D02*
X94547619Y-60827200D01*
X94547619Y-60827200D02*
X94404762Y-60874819D01*
X94404762Y-60874819D02*
X94309524Y-60874819D01*
X95690476Y-60874819D02*
X95119048Y-60874819D01*
X95404762Y-60874819D02*
X95404762Y-59874819D01*
X95404762Y-59874819D02*
X95309524Y-60017676D01*
X95309524Y-60017676D02*
X95214286Y-60112914D01*
X95214286Y-60112914D02*
X95119048Y-60160533D01*
X96261905Y-60303390D02*
X96166667Y-60255771D01*
X96166667Y-60255771D02*
X96119048Y-60208152D01*
X96119048Y-60208152D02*
X96071429Y-60112914D01*
X96071429Y-60112914D02*
X96071429Y-60065295D01*
X96071429Y-60065295D02*
X96119048Y-59970057D01*
X96119048Y-59970057D02*
X96166667Y-59922438D01*
X96166667Y-59922438D02*
X96261905Y-59874819D01*
X96261905Y-59874819D02*
X96452381Y-59874819D01*
X96452381Y-59874819D02*
X96547619Y-59922438D01*
X96547619Y-59922438D02*
X96595238Y-59970057D01*
X96595238Y-59970057D02*
X96642857Y-60065295D01*
X96642857Y-60065295D02*
X96642857Y-60112914D01*
X96642857Y-60112914D02*
X96595238Y-60208152D01*
X96595238Y-60208152D02*
X96547619Y-60255771D01*
X96547619Y-60255771D02*
X96452381Y-60303390D01*
X96452381Y-60303390D02*
X96261905Y-60303390D01*
X96261905Y-60303390D02*
X96166667Y-60351009D01*
X96166667Y-60351009D02*
X96119048Y-60398628D01*
X96119048Y-60398628D02*
X96071429Y-60493866D01*
X96071429Y-60493866D02*
X96071429Y-60684342D01*
X96071429Y-60684342D02*
X96119048Y-60779580D01*
X96119048Y-60779580D02*
X96166667Y-60827200D01*
X96166667Y-60827200D02*
X96261905Y-60874819D01*
X96261905Y-60874819D02*
X96452381Y-60874819D01*
X96452381Y-60874819D02*
X96547619Y-60827200D01*
X96547619Y-60827200D02*
X96595238Y-60779580D01*
X96595238Y-60779580D02*
X96642857Y-60684342D01*
X96642857Y-60684342D02*
X96642857Y-60493866D01*
X96642857Y-60493866D02*
X96595238Y-60398628D01*
X96595238Y-60398628D02*
X96547619Y-60351009D01*
X96547619Y-60351009D02*
X96452381Y-60303390D01*
X97874819Y-109518094D02*
X96874819Y-109518094D01*
X96874819Y-109518094D02*
X96874819Y-109279999D01*
X96874819Y-109279999D02*
X96922438Y-109137142D01*
X96922438Y-109137142D02*
X97017676Y-109041904D01*
X97017676Y-109041904D02*
X97112914Y-108994285D01*
X97112914Y-108994285D02*
X97303390Y-108946666D01*
X97303390Y-108946666D02*
X97446247Y-108946666D01*
X97446247Y-108946666D02*
X97636723Y-108994285D01*
X97636723Y-108994285D02*
X97731961Y-109041904D01*
X97731961Y-109041904D02*
X97827200Y-109137142D01*
X97827200Y-109137142D02*
X97874819Y-109279999D01*
X97874819Y-109279999D02*
X97874819Y-109518094D01*
X96874819Y-108089523D02*
X96874819Y-108279999D01*
X96874819Y-108279999D02*
X96922438Y-108375237D01*
X96922438Y-108375237D02*
X96970057Y-108422856D01*
X96970057Y-108422856D02*
X97112914Y-108518094D01*
X97112914Y-108518094D02*
X97303390Y-108565713D01*
X97303390Y-108565713D02*
X97684342Y-108565713D01*
X97684342Y-108565713D02*
X97779580Y-108518094D01*
X97779580Y-108518094D02*
X97827200Y-108470475D01*
X97827200Y-108470475D02*
X97874819Y-108375237D01*
X97874819Y-108375237D02*
X97874819Y-108184761D01*
X97874819Y-108184761D02*
X97827200Y-108089523D01*
X97827200Y-108089523D02*
X97779580Y-108041904D01*
X97779580Y-108041904D02*
X97684342Y-107994285D01*
X97684342Y-107994285D02*
X97446247Y-107994285D01*
X97446247Y-107994285D02*
X97351009Y-108041904D01*
X97351009Y-108041904D02*
X97303390Y-108089523D01*
X97303390Y-108089523D02*
X97255771Y-108184761D01*
X97255771Y-108184761D02*
X97255771Y-108375237D01*
X97255771Y-108375237D02*
X97303390Y-108470475D01*
X97303390Y-108470475D02*
X97351009Y-108518094D01*
X97351009Y-108518094D02*
X97446247Y-108565713D01*
X138670476Y-81774819D02*
X138670476Y-82489104D01*
X138670476Y-82489104D02*
X138622857Y-82631961D01*
X138622857Y-82631961D02*
X138527619Y-82727200D01*
X138527619Y-82727200D02*
X138384762Y-82774819D01*
X138384762Y-82774819D02*
X138289524Y-82774819D01*
X139670476Y-82774819D02*
X139099048Y-82774819D01*
X139384762Y-82774819D02*
X139384762Y-81774819D01*
X139384762Y-81774819D02*
X139289524Y-81917676D01*
X139289524Y-81917676D02*
X139194286Y-82012914D01*
X139194286Y-82012914D02*
X139099048Y-82060533D01*
X140003810Y-81774819D02*
X140670476Y-81774819D01*
X140670476Y-81774819D02*
X140241905Y-82774819D01*
X104690476Y-69874819D02*
X104690476Y-70589104D01*
X104690476Y-70589104D02*
X104642857Y-70731961D01*
X104642857Y-70731961D02*
X104547619Y-70827200D01*
X104547619Y-70827200D02*
X104404762Y-70874819D01*
X104404762Y-70874819D02*
X104309524Y-70874819D01*
X105690476Y-70874819D02*
X105119048Y-70874819D01*
X105404762Y-70874819D02*
X105404762Y-69874819D01*
X105404762Y-69874819D02*
X105309524Y-70017676D01*
X105309524Y-70017676D02*
X105214286Y-70112914D01*
X105214286Y-70112914D02*
X105119048Y-70160533D01*
X106547619Y-69874819D02*
X106357143Y-69874819D01*
X106357143Y-69874819D02*
X106261905Y-69922438D01*
X106261905Y-69922438D02*
X106214286Y-69970057D01*
X106214286Y-69970057D02*
X106119048Y-70112914D01*
X106119048Y-70112914D02*
X106071429Y-70303390D01*
X106071429Y-70303390D02*
X106071429Y-70684342D01*
X106071429Y-70684342D02*
X106119048Y-70779580D01*
X106119048Y-70779580D02*
X106166667Y-70827200D01*
X106166667Y-70827200D02*
X106261905Y-70874819D01*
X106261905Y-70874819D02*
X106452381Y-70874819D01*
X106452381Y-70874819D02*
X106547619Y-70827200D01*
X106547619Y-70827200D02*
X106595238Y-70779580D01*
X106595238Y-70779580D02*
X106642857Y-70684342D01*
X106642857Y-70684342D02*
X106642857Y-70446247D01*
X106642857Y-70446247D02*
X106595238Y-70351009D01*
X106595238Y-70351009D02*
X106547619Y-70303390D01*
X106547619Y-70303390D02*
X106452381Y-70255771D01*
X106452381Y-70255771D02*
X106261905Y-70255771D01*
X106261905Y-70255771D02*
X106166667Y-70303390D01*
X106166667Y-70303390D02*
X106119048Y-70351009D01*
X106119048Y-70351009D02*
X106071429Y-70446247D01*
X88513333Y-83284819D02*
X88180000Y-82808628D01*
X87941905Y-83284819D02*
X87941905Y-82284819D01*
X87941905Y-82284819D02*
X88322857Y-82284819D01*
X88322857Y-82284819D02*
X88418095Y-82332438D01*
X88418095Y-82332438D02*
X88465714Y-82380057D01*
X88465714Y-82380057D02*
X88513333Y-82475295D01*
X88513333Y-82475295D02*
X88513333Y-82618152D01*
X88513333Y-82618152D02*
X88465714Y-82713390D01*
X88465714Y-82713390D02*
X88418095Y-82761009D01*
X88418095Y-82761009D02*
X88322857Y-82808628D01*
X88322857Y-82808628D02*
X87941905Y-82808628D01*
X88846667Y-82284819D02*
X89513333Y-82284819D01*
X89513333Y-82284819D02*
X89084762Y-83284819D01*
X105650476Y-81774819D02*
X105650476Y-82489104D01*
X105650476Y-82489104D02*
X105602857Y-82631961D01*
X105602857Y-82631961D02*
X105507619Y-82727200D01*
X105507619Y-82727200D02*
X105364762Y-82774819D01*
X105364762Y-82774819D02*
X105269524Y-82774819D01*
X106650476Y-82774819D02*
X106079048Y-82774819D01*
X106364762Y-82774819D02*
X106364762Y-81774819D01*
X106364762Y-81774819D02*
X106269524Y-81917676D01*
X106269524Y-81917676D02*
X106174286Y-82012914D01*
X106174286Y-82012914D02*
X106079048Y-82060533D01*
X107555238Y-81774819D02*
X107079048Y-81774819D01*
X107079048Y-81774819D02*
X107031429Y-82251009D01*
X107031429Y-82251009D02*
X107079048Y-82203390D01*
X107079048Y-82203390D02*
X107174286Y-82155771D01*
X107174286Y-82155771D02*
X107412381Y-82155771D01*
X107412381Y-82155771D02*
X107507619Y-82203390D01*
X107507619Y-82203390D02*
X107555238Y-82251009D01*
X107555238Y-82251009D02*
X107602857Y-82346247D01*
X107602857Y-82346247D02*
X107602857Y-82584342D01*
X107602857Y-82584342D02*
X107555238Y-82679580D01*
X107555238Y-82679580D02*
X107507619Y-82727200D01*
X107507619Y-82727200D02*
X107412381Y-82774819D01*
X107412381Y-82774819D02*
X107174286Y-82774819D01*
X107174286Y-82774819D02*
X107079048Y-82727200D01*
X107079048Y-82727200D02*
X107031429Y-82679580D01*
X87714819Y-109518094D02*
X86714819Y-109518094D01*
X86714819Y-109518094D02*
X86714819Y-109279999D01*
X86714819Y-109279999D02*
X86762438Y-109137142D01*
X86762438Y-109137142D02*
X86857676Y-109041904D01*
X86857676Y-109041904D02*
X86952914Y-108994285D01*
X86952914Y-108994285D02*
X87143390Y-108946666D01*
X87143390Y-108946666D02*
X87286247Y-108946666D01*
X87286247Y-108946666D02*
X87476723Y-108994285D01*
X87476723Y-108994285D02*
X87571961Y-109041904D01*
X87571961Y-109041904D02*
X87667200Y-109137142D01*
X87667200Y-109137142D02*
X87714819Y-109279999D01*
X87714819Y-109279999D02*
X87714819Y-109518094D01*
X86714819Y-108041904D02*
X86714819Y-108518094D01*
X86714819Y-108518094D02*
X87191009Y-108565713D01*
X87191009Y-108565713D02*
X87143390Y-108518094D01*
X87143390Y-108518094D02*
X87095771Y-108422856D01*
X87095771Y-108422856D02*
X87095771Y-108184761D01*
X87095771Y-108184761D02*
X87143390Y-108089523D01*
X87143390Y-108089523D02*
X87191009Y-108041904D01*
X87191009Y-108041904D02*
X87286247Y-107994285D01*
X87286247Y-107994285D02*
X87524342Y-107994285D01*
X87524342Y-107994285D02*
X87619580Y-108041904D01*
X87619580Y-108041904D02*
X87667200Y-108089523D01*
X87667200Y-108089523D02*
X87714819Y-108184761D01*
X87714819Y-108184761D02*
X87714819Y-108422856D01*
X87714819Y-108422856D02*
X87667200Y-108518094D01*
X87667200Y-108518094D02*
X87619580Y-108565713D01*
X91166666Y-59874819D02*
X91166666Y-60589104D01*
X91166666Y-60589104D02*
X91119047Y-60731961D01*
X91119047Y-60731961D02*
X91023809Y-60827200D01*
X91023809Y-60827200D02*
X90880952Y-60874819D01*
X90880952Y-60874819D02*
X90785714Y-60874819D01*
X91547619Y-59874819D02*
X92214285Y-59874819D01*
X92214285Y-59874819D02*
X91785714Y-60874819D01*
X133066667Y-103667200D02*
X133209524Y-103714819D01*
X133209524Y-103714819D02*
X133447619Y-103714819D01*
X133447619Y-103714819D02*
X133542857Y-103667200D01*
X133542857Y-103667200D02*
X133590476Y-103619580D01*
X133590476Y-103619580D02*
X133638095Y-103524342D01*
X133638095Y-103524342D02*
X133638095Y-103429104D01*
X133638095Y-103429104D02*
X133590476Y-103333866D01*
X133590476Y-103333866D02*
X133542857Y-103286247D01*
X133542857Y-103286247D02*
X133447619Y-103238628D01*
X133447619Y-103238628D02*
X133257143Y-103191009D01*
X133257143Y-103191009D02*
X133161905Y-103143390D01*
X133161905Y-103143390D02*
X133114286Y-103095771D01*
X133114286Y-103095771D02*
X133066667Y-103000533D01*
X133066667Y-103000533D02*
X133066667Y-102905295D01*
X133066667Y-102905295D02*
X133114286Y-102810057D01*
X133114286Y-102810057D02*
X133161905Y-102762438D01*
X133161905Y-102762438D02*
X133257143Y-102714819D01*
X133257143Y-102714819D02*
X133495238Y-102714819D01*
X133495238Y-102714819D02*
X133638095Y-102762438D01*
X133971429Y-102714819D02*
X134209524Y-103714819D01*
X134209524Y-103714819D02*
X134400000Y-103000533D01*
X134400000Y-103000533D02*
X134590476Y-103714819D01*
X134590476Y-103714819D02*
X134828572Y-102714819D01*
X135733333Y-103714819D02*
X135161905Y-103714819D01*
X135447619Y-103714819D02*
X135447619Y-102714819D01*
X135447619Y-102714819D02*
X135352381Y-102857676D01*
X135352381Y-102857676D02*
X135257143Y-102952914D01*
X135257143Y-102952914D02*
X135161905Y-103000533D01*
D13*
X107716666Y-41977190D02*
X107692857Y-42001000D01*
X107692857Y-42001000D02*
X107621428Y-42024809D01*
X107621428Y-42024809D02*
X107573809Y-42024809D01*
X107573809Y-42024809D02*
X107502381Y-42001000D01*
X107502381Y-42001000D02*
X107454762Y-41953380D01*
X107454762Y-41953380D02*
X107430952Y-41905761D01*
X107430952Y-41905761D02*
X107407143Y-41810523D01*
X107407143Y-41810523D02*
X107407143Y-41739095D01*
X107407143Y-41739095D02*
X107430952Y-41643857D01*
X107430952Y-41643857D02*
X107454762Y-41596238D01*
X107454762Y-41596238D02*
X107502381Y-41548619D01*
X107502381Y-41548619D02*
X107573809Y-41524809D01*
X107573809Y-41524809D02*
X107621428Y-41524809D01*
X107621428Y-41524809D02*
X107692857Y-41548619D01*
X107692857Y-41548619D02*
X107716666Y-41572428D01*
X107907143Y-41572428D02*
X107930952Y-41548619D01*
X107930952Y-41548619D02*
X107978571Y-41524809D01*
X107978571Y-41524809D02*
X108097619Y-41524809D01*
X108097619Y-41524809D02*
X108145238Y-41548619D01*
X108145238Y-41548619D02*
X108169047Y-41572428D01*
X108169047Y-41572428D02*
X108192857Y-41620047D01*
X108192857Y-41620047D02*
X108192857Y-41667666D01*
X108192857Y-41667666D02*
X108169047Y-41739095D01*
X108169047Y-41739095D02*
X107883333Y-42024809D01*
X107883333Y-42024809D02*
X108192857Y-42024809D01*
D11*
G36*
X93412907Y-54162736D02*
G01*
X93468522Y-54189280D01*
X93518283Y-54237560D01*
X93544306Y-54312202D01*
X93545024Y-54390707D01*
X92943295Y-54392117D01*
X92942638Y-54320382D01*
X92967859Y-54241109D01*
X93014468Y-54193071D01*
X93064171Y-54167069D01*
X93193494Y-54133239D01*
X93283781Y-54131943D01*
X93412907Y-54162736D01*
G37*
G36*
X93844195Y-54690475D02*
G01*
X92644195Y-54690475D01*
X92644195Y-54299999D01*
X92744195Y-54299999D01*
X92746116Y-54509984D01*
X92761048Y-54546032D01*
X92788638Y-54573622D01*
X92824686Y-54588554D01*
X92844195Y-54590475D01*
X93663704Y-54588554D01*
X93699752Y-54573622D01*
X93727342Y-54546032D01*
X93742274Y-54509984D01*
X93744195Y-54490475D01*
X93742460Y-54300855D01*
X93743410Y-54287492D01*
X93742293Y-54282580D01*
X93742274Y-54280490D01*
X93741262Y-54278047D01*
X93739063Y-54268377D01*
X93704179Y-54168320D01*
X93704179Y-54166204D01*
X93699518Y-54154951D01*
X93692977Y-54136190D01*
X93690622Y-54133474D01*
X93689247Y-54130155D01*
X93676810Y-54115002D01*
X93599075Y-54039579D01*
X93591221Y-54030523D01*
X93587008Y-54027871D01*
X93585466Y-54026375D01*
X93583024Y-54025363D01*
X93574630Y-54020080D01*
X93503072Y-53985927D01*
X93496434Y-53981009D01*
X93481850Y-53975799D01*
X93480132Y-53974979D01*
X93479411Y-53974927D01*
X93477973Y-53974414D01*
X93330462Y-53939236D01*
X93320847Y-53935253D01*
X93308776Y-53934064D01*
X93306200Y-53933450D01*
X93304741Y-53933667D01*
X93301338Y-53933332D01*
X93191951Y-53934902D01*
X93182190Y-53933450D01*
X93170263Y-53935213D01*
X93167543Y-53935253D01*
X93166179Y-53935817D01*
X93162798Y-53936318D01*
X93017524Y-53974320D01*
X93008259Y-53974979D01*
X92993677Y-53980558D01*
X92991956Y-53981009D01*
X92991374Y-53981439D01*
X92989950Y-53981985D01*
X92913360Y-54022052D01*
X92902923Y-54026376D01*
X92899101Y-54029511D01*
X92897169Y-54030523D01*
X92895438Y-54032517D01*
X92887769Y-54038812D01*
X92822744Y-54105830D01*
X92820978Y-54106714D01*
X92813314Y-54115549D01*
X92799143Y-54130156D01*
X92797768Y-54133474D01*
X92795413Y-54136190D01*
X92787422Y-54154090D01*
X92750822Y-54269126D01*
X92746116Y-54280490D01*
X92745626Y-54285459D01*
X92744980Y-54287492D01*
X92745167Y-54290125D01*
X92744195Y-54299999D01*
X92644195Y-54299999D01*
X92644195Y-53423809D01*
X92744195Y-53423809D01*
X92745800Y-53599316D01*
X92744980Y-53601778D01*
X92745947Y-53615393D01*
X92746116Y-53633794D01*
X92747491Y-53637114D01*
X92747746Y-53640698D01*
X92754752Y-53659006D01*
X92794820Y-53735596D01*
X92799142Y-53746031D01*
X92802277Y-53749852D01*
X92803290Y-53751787D01*
X92805286Y-53753518D01*
X92811578Y-53761185D01*
X92864826Y-53811717D01*
X92900875Y-53826649D01*
X92939893Y-53826650D01*
X92975941Y-53811719D01*
X93003531Y-53784129D01*
X93018463Y-53748081D01*
X93018464Y-53709063D01*
X93003533Y-53673015D01*
X92991096Y-53657861D01*
X92965220Y-53633304D01*
X92943997Y-53592737D01*
X92942688Y-53449567D01*
X92962246Y-53408586D01*
X92977557Y-53392451D01*
X93018589Y-53370986D01*
X93053671Y-53370281D01*
X93131111Y-53394919D01*
X93588638Y-53849813D01*
X93624686Y-53864745D01*
X93663704Y-53864745D01*
X93699752Y-53849813D01*
X93727342Y-53822223D01*
X93742274Y-53786175D01*
X93744195Y-53766666D01*
X93742274Y-53251919D01*
X93727342Y-53215871D01*
X93699752Y-53188281D01*
X93663704Y-53173349D01*
X93624686Y-53173349D01*
X93588638Y-53188281D01*
X93561048Y-53215871D01*
X93546116Y-53251919D01*
X93544195Y-53271428D01*
X93545149Y-53527175D01*
X93267514Y-53251138D01*
X93266051Y-53248211D01*
X93254453Y-53238152D01*
X93242609Y-53226376D01*
X93239290Y-53225001D01*
X93236575Y-53222646D01*
X93218675Y-53214655D01*
X93103638Y-53178055D01*
X93092275Y-53173349D01*
X93087305Y-53172859D01*
X93085273Y-53172213D01*
X93082639Y-53172400D01*
X93072766Y-53171428D01*
X93010479Y-53172678D01*
X93009084Y-53172213D01*
X92999410Y-53172900D01*
X92977067Y-53173349D01*
X92973746Y-53174724D01*
X92970164Y-53174979D01*
X92951855Y-53181985D01*
X92875265Y-53222052D01*
X92864827Y-53226376D01*
X92861005Y-53229512D01*
X92859074Y-53230523D01*
X92857343Y-53232518D01*
X92849674Y-53238813D01*
X92810712Y-53279869D01*
X92803290Y-53286307D01*
X92800702Y-53290417D01*
X92799143Y-53292061D01*
X92798132Y-53294500D01*
X92792847Y-53302897D01*
X92762210Y-53367089D01*
X92761048Y-53368252D01*
X92757054Y-53377893D01*
X92747746Y-53397397D01*
X92747491Y-53400979D01*
X92746116Y-53404300D01*
X92744195Y-53423809D01*
X92644195Y-53423809D01*
X92644195Y-53071428D01*
X93844195Y-53071428D01*
X93844195Y-54690475D01*
G37*
D13*
X93077190Y-52383333D02*
X93101000Y-52407142D01*
X93101000Y-52407142D02*
X93124809Y-52478571D01*
X93124809Y-52478571D02*
X93124809Y-52526190D01*
X93124809Y-52526190D02*
X93101000Y-52597618D01*
X93101000Y-52597618D02*
X93053380Y-52645237D01*
X93053380Y-52645237D02*
X93005761Y-52669047D01*
X93005761Y-52669047D02*
X92910523Y-52692856D01*
X92910523Y-52692856D02*
X92839095Y-52692856D01*
X92839095Y-52692856D02*
X92743857Y-52669047D01*
X92743857Y-52669047D02*
X92696238Y-52645237D01*
X92696238Y-52645237D02*
X92648619Y-52597618D01*
X92648619Y-52597618D02*
X92624809Y-52526190D01*
X92624809Y-52526190D02*
X92624809Y-52478571D01*
X92624809Y-52478571D02*
X92648619Y-52407142D01*
X92648619Y-52407142D02*
X92672428Y-52383333D01*
X92791476Y-51954761D02*
X93124809Y-51954761D01*
X92601000Y-52073809D02*
X92958142Y-52192856D01*
X92958142Y-52192856D02*
X92958142Y-51883333D01*
D12*
X131454819Y-47333333D02*
X132169104Y-47333333D01*
X132169104Y-47333333D02*
X132311961Y-47380952D01*
X132311961Y-47380952D02*
X132407200Y-47476190D01*
X132407200Y-47476190D02*
X132454819Y-47619047D01*
X132454819Y-47619047D02*
X132454819Y-47714285D01*
X132454819Y-46333333D02*
X132454819Y-46904761D01*
X132454819Y-46619047D02*
X131454819Y-46619047D01*
X131454819Y-46619047D02*
X131597676Y-46714285D01*
X131597676Y-46714285D02*
X131692914Y-46809523D01*
X131692914Y-46809523D02*
X131740533Y-46904761D01*
D14*
G36*
X120308636Y-69466267D02*
G01*
X120373509Y-69545137D01*
X120413107Y-69734271D01*
X120415238Y-70125578D01*
X120376272Y-70329947D01*
X120314792Y-70408973D01*
X120266031Y-70440652D01*
X120146996Y-70441983D01*
X120100884Y-70414278D01*
X120036014Y-70335410D01*
X119996416Y-70146275D01*
X119994285Y-69754969D01*
X120033251Y-69550601D01*
X120094731Y-69471574D01*
X120143492Y-69439893D01*
X120262526Y-69438562D01*
X120308636Y-69466267D01*
G37*
G36*
X121356255Y-69466267D02*
G01*
X121421128Y-69545137D01*
X121460726Y-69734271D01*
X121462857Y-70125578D01*
X121423891Y-70329947D01*
X121362411Y-70408973D01*
X121313650Y-70440652D01*
X121194615Y-70441983D01*
X121148503Y-70414278D01*
X121083633Y-70335410D01*
X121044035Y-70146275D01*
X121041904Y-69754969D01*
X121080870Y-69550601D01*
X121142350Y-69471574D01*
X121191111Y-69439893D01*
X121310145Y-69438562D01*
X121356255Y-69466267D01*
G37*
G36*
X126601997Y-69475564D02*
G01*
X126665214Y-69552421D01*
X126701702Y-69639633D01*
X126746456Y-69853394D01*
X126748286Y-70008026D01*
X126707521Y-70221828D01*
X126670331Y-70319219D01*
X126605910Y-70402026D01*
X126517032Y-70440465D01*
X126424766Y-70441310D01*
X126422877Y-69439148D01*
X126509220Y-69438358D01*
X126601997Y-69475564D01*
G37*
G36*
X119309106Y-69466549D02*
G01*
X119332520Y-69494425D01*
X119365717Y-69573773D01*
X119367261Y-69704254D01*
X119336824Y-69783962D01*
X119313520Y-69814561D01*
X119266309Y-69845234D01*
X119168353Y-69845815D01*
X119166953Y-69845420D01*
X119163364Y-69845844D01*
X119042693Y-69846559D01*
X119041926Y-69439544D01*
X119261990Y-69438240D01*
X119309106Y-69466549D01*
G37*
G36*
X114023392Y-69466549D02*
G01*
X114046806Y-69494425D01*
X114080003Y-69573773D01*
X114081547Y-69704254D01*
X114051110Y-69783962D01*
X114027806Y-69814561D01*
X113980595Y-69845234D01*
X113756979Y-69846559D01*
X113756212Y-69439544D01*
X113976276Y-69438240D01*
X114023392Y-69466549D01*
G37*
G36*
X127135317Y-70829162D02*
G01*
X111512302Y-70829162D01*
X111512302Y-69315273D01*
X111651191Y-69315273D01*
X111653593Y-70589659D01*
X111672257Y-70634719D01*
X111706745Y-70669207D01*
X111751805Y-70687871D01*
X111776191Y-70690273D01*
X112276767Y-70687871D01*
X112321827Y-70669207D01*
X112356315Y-70634719D01*
X112374979Y-70589659D01*
X112374979Y-70540887D01*
X112356315Y-70495827D01*
X112321827Y-70461339D01*
X112276767Y-70442675D01*
X112252381Y-70440273D01*
X111900958Y-70441959D01*
X111900190Y-70034678D01*
X112133910Y-70033109D01*
X112178970Y-70014445D01*
X112213458Y-69979957D01*
X112232122Y-69934897D01*
X112232122Y-69886125D01*
X112213458Y-69841065D01*
X112178970Y-69806577D01*
X112133910Y-69787913D01*
X112109524Y-69785511D01*
X111899723Y-69786919D01*
X111899283Y-69553369D01*
X112508334Y-69553369D01*
X112510558Y-69686215D01*
X112510448Y-69695306D01*
X112510727Y-69696268D01*
X112510736Y-69696802D01*
X112511222Y-69697977D01*
X112517274Y-69718840D01*
X112566050Y-69835426D01*
X112569986Y-69849008D01*
X112574884Y-69856540D01*
X112576180Y-69859638D01*
X112578331Y-69861843D01*
X112583344Y-69869551D01*
X112635591Y-69931756D01*
X112642916Y-69942027D01*
X112646608Y-69944873D01*
X112648073Y-69946617D01*
X112650862Y-69948153D01*
X112662323Y-69956988D01*
X112754574Y-70012414D01*
X112763966Y-70020255D01*
X112776393Y-70025525D01*
X112779513Y-70027399D01*
X112781661Y-70027758D01*
X112786525Y-70029821D01*
X112955911Y-70080766D01*
X113023392Y-70121311D01*
X113046806Y-70149188D01*
X113080107Y-70228782D01*
X113081302Y-70300133D01*
X113051111Y-70379198D01*
X113027805Y-70409800D01*
X112980425Y-70440582D01*
X112805064Y-70442187D01*
X112657976Y-70383203D01*
X112609204Y-70383101D01*
X112564104Y-70401672D01*
X112529546Y-70436087D01*
X112510787Y-70481108D01*
X112510685Y-70529880D01*
X112529256Y-70574980D01*
X112563671Y-70609538D01*
X112585258Y-70621135D01*
X112751548Y-70687820D01*
X112751682Y-70687820D01*
X112751805Y-70687871D01*
X112776191Y-70690273D01*
X113001785Y-70688208D01*
X113010480Y-70690215D01*
X113023659Y-70688008D01*
X113038672Y-70687871D01*
X113048301Y-70683882D01*
X113058583Y-70682161D01*
X113080535Y-70671273D01*
X113083685Y-70669226D01*
X113083732Y-70669207D01*
X113083763Y-70669175D01*
X113177513Y-70608266D01*
X113190023Y-70601378D01*
X113193321Y-70597996D01*
X113195180Y-70596789D01*
X113197031Y-70594193D01*
X113207133Y-70583837D01*
X113253260Y-70523268D01*
X113261916Y-70514399D01*
X113265981Y-70506564D01*
X113268110Y-70503770D01*
X113268967Y-70500812D01*
X113273203Y-70492650D01*
X113323729Y-70360329D01*
X113327360Y-70351564D01*
X113327458Y-70350563D01*
X113327648Y-70350067D01*
X113327632Y-70348797D01*
X113329762Y-70327178D01*
X113327537Y-70194330D01*
X113327648Y-70185240D01*
X113327368Y-70184277D01*
X113327360Y-70183744D01*
X113326873Y-70182568D01*
X113320822Y-70161706D01*
X113272045Y-70045121D01*
X113268110Y-70031539D01*
X113263211Y-70024006D01*
X113261916Y-70020909D01*
X113259764Y-70018703D01*
X113254752Y-70010996D01*
X113202504Y-69948791D01*
X113195180Y-69938521D01*
X113191486Y-69935673D01*
X113190023Y-69933931D01*
X113187236Y-69932396D01*
X113175774Y-69923559D01*
X113083523Y-69868132D01*
X113074130Y-69860291D01*
X113061701Y-69855020D01*
X113058584Y-69853148D01*
X113056436Y-69852788D01*
X113051570Y-69850725D01*
X112882183Y-69799778D01*
X112814702Y-69759234D01*
X112791288Y-69731359D01*
X112757988Y-69651763D01*
X112756793Y-69580415D01*
X112786984Y-69501348D01*
X112810289Y-69470747D01*
X112857670Y-69439963D01*
X113033030Y-69438358D01*
X113180119Y-69497344D01*
X113228891Y-69497446D01*
X113273991Y-69478876D01*
X113308550Y-69444460D01*
X113327309Y-69399440D01*
X113327411Y-69350668D01*
X113312837Y-69315273D01*
X113508334Y-69315273D01*
X113510736Y-70589659D01*
X113529400Y-70634719D01*
X113563888Y-70669207D01*
X113608948Y-70687871D01*
X113657720Y-70687871D01*
X113702780Y-70669207D01*
X113737268Y-70634719D01*
X113755932Y-70589659D01*
X113758334Y-70565273D01*
X113758130Y-70456925D01*
X114413555Y-70456925D01*
X114427129Y-70503770D01*
X114440487Y-70524313D01*
X114492734Y-70586518D01*
X114500059Y-70596789D01*
X114503751Y-70599635D01*
X114505216Y-70601379D01*
X114508005Y-70602915D01*
X114519466Y-70611750D01*
X114606105Y-70663805D01*
X114611507Y-70669207D01*
X114623060Y-70673992D01*
X114636656Y-70682161D01*
X114646937Y-70683882D01*
X114656567Y-70687871D01*
X114680953Y-70690273D01*
X114953949Y-70688158D01*
X114962861Y-70690215D01*
X114976172Y-70687986D01*
X114991053Y-70687871D01*
X115000682Y-70683882D01*
X115010964Y-70682161D01*
X115032916Y-70671273D01*
X115036066Y-70669226D01*
X115036113Y-70669207D01*
X115036144Y-70669175D01*
X115129894Y-70608266D01*
X115142404Y-70601378D01*
X115145702Y-70597996D01*
X115147561Y-70596789D01*
X115149412Y-70594193D01*
X115159514Y-70583837D01*
X115181800Y-70554574D01*
X115365936Y-70554574D01*
X115367879Y-70572061D01*
X115367879Y-70589659D01*
X115370551Y-70596109D01*
X115371322Y-70603049D01*
X115379809Y-70618461D01*
X115386543Y-70634719D01*
X115391480Y-70639656D01*
X115394848Y-70645772D01*
X115408588Y-70656764D01*
X115421031Y-70669207D01*
X115427481Y-70671878D01*
X115432933Y-70676240D01*
X115449834Y-70681137D01*
X115466091Y-70687871D01*
X115476667Y-70688912D01*
X115479778Y-70689814D01*
X115482615Y-70689498D01*
X115490477Y-70690273D01*
X116133910Y-70687871D01*
X116178970Y-70669207D01*
X116213458Y-70634719D01*
X116232122Y-70589659D01*
X116232122Y-70540887D01*
X116213458Y-70495827D01*
X116178970Y-70461339D01*
X116133910Y-70442675D01*
X116109524Y-70440273D01*
X115748633Y-70441620D01*
X116009780Y-70113469D01*
X116415498Y-70113469D01*
X116434162Y-70158529D01*
X116468650Y-70193017D01*
X116513710Y-70211681D01*
X116538096Y-70214083D01*
X117324387Y-70211681D01*
X117369447Y-70193017D01*
X117403935Y-70158529D01*
X117422599Y-70113469D01*
X117422599Y-70064697D01*
X117403935Y-70019637D01*
X117369447Y-69985149D01*
X117324387Y-69966485D01*
X117300001Y-69964083D01*
X116513710Y-69966485D01*
X116468650Y-69985149D01*
X116434162Y-70019637D01*
X116415498Y-70064697D01*
X116415498Y-70113469D01*
X116009780Y-70113469D01*
X116143543Y-69945385D01*
X116144436Y-69944869D01*
X116156553Y-69929037D01*
X116172872Y-69908532D01*
X116173251Y-69907220D01*
X116174080Y-69906139D01*
X116182684Y-69883196D01*
X116226890Y-69709431D01*
X116232122Y-69696802D01*
X116233396Y-69683857D01*
X116234266Y-69680442D01*
X116233960Y-69678140D01*
X116234524Y-69672416D01*
X116232299Y-69539569D01*
X116232410Y-69530480D01*
X116232130Y-69529517D01*
X116232122Y-69528983D01*
X116231634Y-69527805D01*
X116225584Y-69506946D01*
X116176809Y-69390363D01*
X116172872Y-69376777D01*
X116167972Y-69369242D01*
X116166678Y-69366148D01*
X116164527Y-69363944D01*
X116159514Y-69356234D01*
X116124256Y-69314257D01*
X117555957Y-69314257D01*
X117558161Y-69338662D01*
X117799645Y-70593806D01*
X117802912Y-70611506D01*
X117803109Y-70611810D01*
X117803178Y-70612168D01*
X117816368Y-70632260D01*
X117829446Y-70652431D01*
X117829744Y-70652636D01*
X117829944Y-70652940D01*
X117849848Y-70666475D01*
X117869620Y-70680085D01*
X117869973Y-70680160D01*
X117870276Y-70680366D01*
X117893897Y-70685264D01*
X117917319Y-70690261D01*
X117917675Y-70690195D01*
X117918032Y-70690269D01*
X117941630Y-70685774D01*
X117965281Y-70681409D01*
X117965586Y-70681210D01*
X117965943Y-70681143D01*
X117986095Y-70667913D01*
X118006206Y-70654875D01*
X118006410Y-70654577D01*
X118006715Y-70654378D01*
X118020306Y-70634390D01*
X118033860Y-70614701D01*
X118034004Y-70614246D01*
X118034141Y-70614046D01*
X118034275Y-70613395D01*
X118041297Y-70591353D01*
X118109848Y-70265931D01*
X118181566Y-70597936D01*
X118184907Y-70614045D01*
X118185111Y-70614345D01*
X118185188Y-70614701D01*
X118198797Y-70634472D01*
X118212333Y-70654377D01*
X118212636Y-70654576D01*
X118212842Y-70654875D01*
X118232952Y-70667913D01*
X118253105Y-70681143D01*
X118253463Y-70681211D01*
X118253767Y-70681408D01*
X118277248Y-70685741D01*
X118301016Y-70690269D01*
X118301374Y-70690194D01*
X118301729Y-70690260D01*
X118325064Y-70685282D01*
X118348772Y-70680366D01*
X118349074Y-70680160D01*
X118349428Y-70680085D01*
X118369140Y-70666515D01*
X118389104Y-70652940D01*
X118389304Y-70652634D01*
X118389602Y-70652430D01*
X118402653Y-70632300D01*
X118415870Y-70612168D01*
X118416005Y-70611706D01*
X118416136Y-70611506D01*
X118416255Y-70610859D01*
X118422792Y-70588662D01*
X118662900Y-69315273D01*
X118794048Y-69315273D01*
X118796450Y-70589659D01*
X118815114Y-70634719D01*
X118849602Y-70669207D01*
X118894662Y-70687871D01*
X118943434Y-70687871D01*
X118988494Y-70669207D01*
X119022982Y-70634719D01*
X119041646Y-70589659D01*
X119044048Y-70565273D01*
X119043160Y-70094299D01*
X119083613Y-70094059D01*
X119395423Y-70646451D01*
X119433724Y-70676647D01*
X119480666Y-70689887D01*
X119529101Y-70684155D01*
X119571655Y-70660325D01*
X119601850Y-70622024D01*
X119615090Y-70575082D01*
X119609358Y-70526648D01*
X119599539Y-70504197D01*
X119398892Y-70148738D01*
X119746429Y-70148738D01*
X119748830Y-70172863D01*
X119748831Y-70172993D01*
X119748847Y-70173031D01*
X119748856Y-70173122D01*
X119794959Y-70393327D01*
X119794507Y-70397401D01*
X119799212Y-70413640D01*
X119803613Y-70434658D01*
X119806591Y-70439105D01*
X119808081Y-70444246D01*
X119821439Y-70464789D01*
X119919619Y-70584154D01*
X119928630Y-70596789D01*
X119932405Y-70599699D01*
X119933787Y-70601379D01*
X119936577Y-70602915D01*
X119948037Y-70611750D01*
X120034676Y-70663805D01*
X120040078Y-70669207D01*
X120051631Y-70673992D01*
X120065227Y-70682161D01*
X120075508Y-70683882D01*
X120085138Y-70687871D01*
X120109524Y-70690273D01*
X120287808Y-70688279D01*
X120296194Y-70690215D01*
X120309178Y-70688041D01*
X120324386Y-70687871D01*
X120334015Y-70683882D01*
X120344297Y-70682161D01*
X120366249Y-70671273D01*
X120369399Y-70669226D01*
X120369446Y-70669207D01*
X120369477Y-70669175D01*
X120463227Y-70608266D01*
X120475737Y-70601378D01*
X120479035Y-70597996D01*
X120480894Y-70596789D01*
X120482745Y-70594193D01*
X120492847Y-70583837D01*
X120575870Y-70477117D01*
X120578772Y-70475183D01*
X120587410Y-70462283D01*
X120601443Y-70444246D01*
X120602932Y-70439105D01*
X120605911Y-70434658D01*
X120613049Y-70411217D01*
X120656574Y-70182935D01*
X120660693Y-70172993D01*
X120663068Y-70148877D01*
X120663095Y-70148738D01*
X120794048Y-70148738D01*
X120796449Y-70172863D01*
X120796450Y-70172993D01*
X120796466Y-70173031D01*
X120796475Y-70173122D01*
X120842578Y-70393327D01*
X120842126Y-70397401D01*
X120846831Y-70413640D01*
X120851232Y-70434658D01*
X120854210Y-70439105D01*
X120855700Y-70444246D01*
X120869058Y-70464789D01*
X120967238Y-70584154D01*
X120976249Y-70596789D01*
X120980024Y-70599699D01*
X120981406Y-70601379D01*
X120984196Y-70602915D01*
X120995656Y-70611750D01*
X121082295Y-70663805D01*
X121087697Y-70669207D01*
X121099250Y-70673992D01*
X121112846Y-70682161D01*
X121123127Y-70683882D01*
X121132757Y-70687871D01*
X121157143Y-70690273D01*
X121335427Y-70688279D01*
X121343813Y-70690215D01*
X121356797Y-70688041D01*
X121372005Y-70687871D01*
X121381634Y-70683882D01*
X121391916Y-70682161D01*
X121413868Y-70671273D01*
X121417018Y-70669226D01*
X121417065Y-70669207D01*
X121417096Y-70669175D01*
X121510846Y-70608266D01*
X121523356Y-70601378D01*
X121526654Y-70597996D01*
X121528513Y-70596789D01*
X121530364Y-70594193D01*
X121540466Y-70583837D01*
X121623489Y-70477117D01*
X121626391Y-70475183D01*
X121635029Y-70462283D01*
X121649062Y-70444246D01*
X121650551Y-70439105D01*
X121653530Y-70434658D01*
X121660668Y-70411217D01*
X121704193Y-70182935D01*
X121708312Y-70172993D01*
X121710687Y-70148877D01*
X121710714Y-70148738D01*
X121710705Y-70148694D01*
X121710714Y-70148607D01*
X121708504Y-69742975D01*
X121710714Y-69731809D01*
X121708312Y-69707683D01*
X121708312Y-69707554D01*
X121708295Y-69707515D01*
X121708287Y-69707425D01*
X121662184Y-69487223D01*
X121662637Y-69483147D01*
X121657929Y-69466900D01*
X121653530Y-69445889D01*
X121650551Y-69441441D01*
X121649062Y-69436301D01*
X121635704Y-69415759D01*
X121553052Y-69315273D01*
X121889286Y-69315273D01*
X121891688Y-70589659D01*
X121910352Y-70634719D01*
X121944840Y-70669207D01*
X121989900Y-70687871D01*
X122038672Y-70687871D01*
X122083732Y-70669207D01*
X122118220Y-70634719D01*
X122136884Y-70589659D01*
X122139286Y-70565273D01*
X122138220Y-69999823D01*
X122225813Y-70232701D01*
X122225960Y-70236839D01*
X122233983Y-70254422D01*
X122241293Y-70273855D01*
X122244347Y-70277133D01*
X122246208Y-70281211D01*
X122260874Y-70294874D01*
X122274538Y-70309541D01*
X122278615Y-70311401D01*
X122281894Y-70314456D01*
X122300668Y-70321465D01*
X122318910Y-70329789D01*
X122323390Y-70329947D01*
X122327586Y-70331514D01*
X122347619Y-70330805D01*
X122367652Y-70331514D01*
X122371847Y-70329947D01*
X122376328Y-70329789D01*
X122394569Y-70321465D01*
X122413344Y-70314456D01*
X122416622Y-70311401D01*
X122420700Y-70309541D01*
X122434363Y-70294874D01*
X122449030Y-70281211D01*
X122450890Y-70277133D01*
X122453945Y-70273855D01*
X122464724Y-70251849D01*
X122557246Y-70002149D01*
X122558354Y-70589659D01*
X122577018Y-70634719D01*
X122611506Y-70669207D01*
X122656566Y-70687871D01*
X122705338Y-70687871D01*
X122750398Y-70669207D01*
X122784886Y-70634719D01*
X122803550Y-70589659D01*
X122805952Y-70565273D01*
X122805748Y-70456925D01*
X124175459Y-70456925D01*
X124189033Y-70503770D01*
X124202391Y-70524313D01*
X124254638Y-70586518D01*
X124261963Y-70596789D01*
X124265655Y-70599635D01*
X124267120Y-70601379D01*
X124269909Y-70602915D01*
X124281370Y-70611750D01*
X124368009Y-70663805D01*
X124373411Y-70669207D01*
X124384964Y-70673992D01*
X124398560Y-70682161D01*
X124408841Y-70683882D01*
X124418471Y-70687871D01*
X124442857Y-70690273D01*
X124715853Y-70688158D01*
X124724765Y-70690215D01*
X124738076Y-70687986D01*
X124752957Y-70687871D01*
X124762586Y-70683882D01*
X124772868Y-70682161D01*
X124794820Y-70671273D01*
X124797970Y-70669226D01*
X124798017Y-70669207D01*
X124798048Y-70669175D01*
X124891798Y-70608266D01*
X124904308Y-70601378D01*
X124907606Y-70597996D01*
X124909465Y-70596789D01*
X124911316Y-70594193D01*
X124921418Y-70583837D01*
X124943704Y-70554574D01*
X125127840Y-70554574D01*
X125129783Y-70572061D01*
X125129783Y-70589659D01*
X125132455Y-70596109D01*
X125133226Y-70603049D01*
X125141713Y-70618461D01*
X125148447Y-70634719D01*
X125153384Y-70639656D01*
X125156752Y-70645772D01*
X125170492Y-70656764D01*
X125182935Y-70669207D01*
X125189385Y-70671878D01*
X125194837Y-70676240D01*
X125211738Y-70681137D01*
X125227995Y-70687871D01*
X125238571Y-70688912D01*
X125241682Y-70689814D01*
X125244519Y-70689498D01*
X125252381Y-70690273D01*
X125895814Y-70687871D01*
X125940874Y-70669207D01*
X125975362Y-70634719D01*
X125994026Y-70589659D01*
X125994026Y-70540887D01*
X125975362Y-70495827D01*
X125940874Y-70461339D01*
X125895814Y-70442675D01*
X125871428Y-70440273D01*
X125510537Y-70441620D01*
X125905447Y-69945385D01*
X125906340Y-69944869D01*
X125918457Y-69929037D01*
X125934776Y-69908532D01*
X125935155Y-69907220D01*
X125935984Y-69906139D01*
X125944588Y-69883196D01*
X125988794Y-69709431D01*
X125994026Y-69696802D01*
X125995300Y-69683857D01*
X125996170Y-69680442D01*
X125995864Y-69678140D01*
X125996428Y-69672416D01*
X125994203Y-69539569D01*
X125994314Y-69530480D01*
X125994034Y-69529517D01*
X125994026Y-69528983D01*
X125993538Y-69527805D01*
X125987488Y-69506946D01*
X125938713Y-69390363D01*
X125934776Y-69376777D01*
X125929876Y-69369242D01*
X125928582Y-69366148D01*
X125926431Y-69363944D01*
X125921418Y-69356234D01*
X125887014Y-69315273D01*
X126175000Y-69315273D01*
X126177402Y-70589659D01*
X126196066Y-70634719D01*
X126230554Y-70669207D01*
X126275614Y-70687871D01*
X126300000Y-70690273D01*
X126562481Y-70687871D01*
X126562603Y-70687820D01*
X126562737Y-70687820D01*
X126586171Y-70680658D01*
X126713824Y-70625449D01*
X126718728Y-70624905D01*
X126732059Y-70617563D01*
X126750614Y-70609539D01*
X126755450Y-70604682D01*
X126761451Y-70601378D01*
X126778561Y-70583837D01*
X126870732Y-70465358D01*
X126880963Y-70454875D01*
X126885120Y-70446863D01*
X126887157Y-70444246D01*
X126888014Y-70441288D01*
X126892250Y-70433126D01*
X126934309Y-70322977D01*
X126939244Y-70315610D01*
X126946382Y-70292169D01*
X126946689Y-70290558D01*
X126946695Y-70290543D01*
X126946694Y-70290528D01*
X126989907Y-70063887D01*
X126994026Y-70053945D01*
X126996401Y-70029829D01*
X126996428Y-70029690D01*
X126996419Y-70029646D01*
X126996428Y-70029559D01*
X126994432Y-69860944D01*
X126996428Y-69850857D01*
X126994027Y-69826740D01*
X126994026Y-69826602D01*
X126994009Y-69826563D01*
X126994001Y-69826473D01*
X126946573Y-69599945D01*
X126946695Y-69590002D01*
X126939869Y-69566468D01*
X126939259Y-69565012D01*
X126939244Y-69564936D01*
X126939201Y-69564872D01*
X126891092Y-69449883D01*
X126887157Y-69436301D01*
X126882259Y-69428769D01*
X126880963Y-69425671D01*
X126878809Y-69423464D01*
X126873799Y-69415759D01*
X126786901Y-69310111D01*
X126785031Y-69305568D01*
X126774307Y-69294799D01*
X126761451Y-69279169D01*
X126755452Y-69275865D01*
X126750616Y-69271009D01*
X126729029Y-69259413D01*
X126562738Y-69192726D01*
X126562603Y-69192725D01*
X126562481Y-69192675D01*
X126538095Y-69190273D01*
X126275614Y-69192675D01*
X126230554Y-69211339D01*
X126196066Y-69245827D01*
X126177402Y-69290887D01*
X126175000Y-69315273D01*
X125887014Y-69315273D01*
X125869170Y-69294029D01*
X125861846Y-69283759D01*
X125858152Y-69280911D01*
X125856689Y-69279169D01*
X125853902Y-69277634D01*
X125842440Y-69268797D01*
X125755800Y-69216741D01*
X125750398Y-69211339D01*
X125738842Y-69206552D01*
X125725250Y-69198386D01*
X125714969Y-69196664D01*
X125705338Y-69192675D01*
X125680952Y-69190273D01*
X125455356Y-69192337D01*
X125446662Y-69190331D01*
X125433484Y-69192537D01*
X125418471Y-69192675D01*
X125408839Y-69196664D01*
X125398559Y-69198386D01*
X125376607Y-69209274D01*
X125373459Y-69211318D01*
X125373411Y-69211339D01*
X125373378Y-69211371D01*
X125279644Y-69272271D01*
X125267120Y-69279168D01*
X125263816Y-69282554D01*
X125261963Y-69283759D01*
X125260116Y-69286348D01*
X125250010Y-69296710D01*
X125189033Y-69376777D01*
X125175459Y-69423622D01*
X125180845Y-69472097D01*
X125204372Y-69514820D01*
X125242456Y-69545288D01*
X125289301Y-69558862D01*
X125337776Y-69553476D01*
X125380499Y-69529949D01*
X125397609Y-69512408D01*
X125429336Y-69470747D01*
X125476717Y-69439963D01*
X125643272Y-69438438D01*
X125690058Y-69466549D01*
X125713472Y-69494425D01*
X125746773Y-69574022D01*
X125748053Y-69650411D01*
X125712516Y-69790095D01*
X125160390Y-70483883D01*
X125148447Y-70495827D01*
X125145799Y-70502217D01*
X125141414Y-70507729D01*
X125136516Y-70524630D01*
X125129783Y-70540887D01*
X125129783Y-70547868D01*
X125127840Y-70554574D01*
X124943704Y-70554574D01*
X124967545Y-70523268D01*
X124976201Y-70514399D01*
X124980266Y-70506564D01*
X124982395Y-70503770D01*
X124983252Y-70500812D01*
X124987488Y-70492650D01*
X125038014Y-70360329D01*
X125041645Y-70351564D01*
X125041743Y-70350563D01*
X125041933Y-70350067D01*
X125041917Y-70348797D01*
X125044047Y-70327178D01*
X125041761Y-70020765D01*
X125041933Y-70006670D01*
X125041648Y-70005690D01*
X125041645Y-70005173D01*
X125041157Y-70003995D01*
X125035107Y-69983136D01*
X124986330Y-69866548D01*
X124982394Y-69852966D01*
X124977496Y-69845434D01*
X124976201Y-69842338D01*
X124974048Y-69840132D01*
X124969036Y-69832424D01*
X124916786Y-69770215D01*
X124909465Y-69759950D01*
X124905773Y-69757103D01*
X124904308Y-69755359D01*
X124901516Y-69753821D01*
X124890059Y-69744988D01*
X124805427Y-69694138D01*
X125013881Y-69393818D01*
X125022981Y-69384719D01*
X125027100Y-69374774D01*
X125033468Y-69365600D01*
X125036421Y-69352270D01*
X125041645Y-69339659D01*
X125041645Y-69328693D01*
X125044018Y-69317983D01*
X125041645Y-69304535D01*
X125041645Y-69290887D01*
X125037448Y-69280756D01*
X125035542Y-69269951D01*
X125028203Y-69258436D01*
X125022981Y-69245827D01*
X125015224Y-69238070D01*
X125009330Y-69228821D01*
X124998146Y-69220992D01*
X124988493Y-69211339D01*
X124978360Y-69207142D01*
X124969375Y-69200852D01*
X124956043Y-69197898D01*
X124943433Y-69192675D01*
X124923690Y-69190730D01*
X124921757Y-69190302D01*
X124920891Y-69190454D01*
X124919047Y-69190273D01*
X124275614Y-69192675D01*
X124230554Y-69211339D01*
X124196066Y-69245827D01*
X124177402Y-69290887D01*
X124177402Y-69339659D01*
X124196066Y-69384719D01*
X124230554Y-69419207D01*
X124275614Y-69437871D01*
X124300000Y-69440273D01*
X124681111Y-69438850D01*
X124490879Y-69712918D01*
X124481780Y-69722018D01*
X124477660Y-69731962D01*
X124471293Y-69741137D01*
X124468339Y-69754466D01*
X124463116Y-69767078D01*
X124463116Y-69778043D01*
X124460743Y-69788754D01*
X124463116Y-69802201D01*
X124463116Y-69815850D01*
X124467312Y-69825981D01*
X124469219Y-69836785D01*
X124476556Y-69848298D01*
X124481780Y-69860910D01*
X124489536Y-69868666D01*
X124495431Y-69877916D01*
X124506614Y-69885744D01*
X124516268Y-69895398D01*
X124526401Y-69899595D01*
X124535387Y-69905885D01*
X124548716Y-69908838D01*
X124561328Y-69914062D01*
X124581070Y-69916006D01*
X124583004Y-69916435D01*
X124583869Y-69916282D01*
X124585714Y-69916464D01*
X124691417Y-69914945D01*
X124737679Y-69942741D01*
X124761091Y-69970615D01*
X124794197Y-70049746D01*
X124796056Y-70298906D01*
X124765396Y-70379198D01*
X124742090Y-70409800D01*
X124694784Y-70440534D01*
X124480678Y-70442193D01*
X124433749Y-70413996D01*
X124380499Y-70350598D01*
X124337776Y-70327071D01*
X124289301Y-70321685D01*
X124242456Y-70335259D01*
X124204372Y-70365727D01*
X124180845Y-70408450D01*
X124175459Y-70456925D01*
X122805748Y-70456925D01*
X122805100Y-70113469D01*
X123034545Y-70113469D01*
X123053209Y-70158529D01*
X123087697Y-70193017D01*
X123132757Y-70211681D01*
X123157143Y-70214083D01*
X123943434Y-70211681D01*
X123988494Y-70193017D01*
X124022982Y-70158529D01*
X124041646Y-70113469D01*
X124041646Y-70064697D01*
X124022982Y-70019637D01*
X123988494Y-69985149D01*
X123943434Y-69966485D01*
X123919048Y-69964083D01*
X123132757Y-69966485D01*
X123087697Y-69985149D01*
X123053209Y-70019637D01*
X123034545Y-70064697D01*
X123034545Y-70113469D01*
X122805100Y-70113469D01*
X122803637Y-69337191D01*
X122804336Y-69335306D01*
X122803594Y-69314346D01*
X122803550Y-69290887D01*
X122802690Y-69288811D01*
X122802611Y-69286565D01*
X122793387Y-69266351D01*
X122784886Y-69245827D01*
X122783296Y-69244237D01*
X122782363Y-69242192D01*
X122766106Y-69227047D01*
X122750398Y-69211339D01*
X122748321Y-69210478D01*
X122746677Y-69208947D01*
X122725864Y-69201177D01*
X122705338Y-69192675D01*
X122703090Y-69192675D01*
X122700985Y-69191889D01*
X122678776Y-69192675D01*
X122656566Y-69192675D01*
X122654491Y-69193534D01*
X122652243Y-69193614D01*
X122632024Y-69202840D01*
X122611506Y-69211339D01*
X122609916Y-69212928D01*
X122607871Y-69213862D01*
X122592726Y-69230118D01*
X122577018Y-69245827D01*
X122576157Y-69247903D01*
X122574626Y-69249548D01*
X122563847Y-69271554D01*
X122347998Y-69854083D01*
X122136887Y-69292818D01*
X122136884Y-69290887D01*
X122129017Y-69271895D01*
X122120612Y-69249548D01*
X122119080Y-69247903D01*
X122118220Y-69245827D01*
X122102511Y-69230118D01*
X122087367Y-69213862D01*
X122085321Y-69212928D01*
X122083732Y-69211339D01*
X122063213Y-69202840D01*
X122042995Y-69193614D01*
X122040746Y-69193534D01*
X122038672Y-69192675D01*
X122016462Y-69192675D01*
X121994253Y-69191889D01*
X121992148Y-69192675D01*
X121989900Y-69192675D01*
X121969373Y-69201177D01*
X121948561Y-69208947D01*
X121946916Y-69210478D01*
X121944840Y-69211339D01*
X121929131Y-69227047D01*
X121912875Y-69242192D01*
X121911941Y-69244237D01*
X121910352Y-69245827D01*
X121901853Y-69266345D01*
X121892627Y-69286564D01*
X121892547Y-69288812D01*
X121891688Y-69290887D01*
X121889286Y-69315273D01*
X121553052Y-69315273D01*
X121537524Y-69296395D01*
X121528513Y-69283759D01*
X121524736Y-69280847D01*
X121523356Y-69279169D01*
X121520569Y-69277634D01*
X121509107Y-69268797D01*
X121422467Y-69216741D01*
X121417065Y-69211339D01*
X121405509Y-69206552D01*
X121391917Y-69198386D01*
X121381636Y-69196664D01*
X121372005Y-69192675D01*
X121347619Y-69190273D01*
X121169333Y-69192266D01*
X121160948Y-69190331D01*
X121147965Y-69192504D01*
X121132757Y-69192675D01*
X121123125Y-69196664D01*
X121112845Y-69198386D01*
X121090893Y-69209274D01*
X121087745Y-69211318D01*
X121087697Y-69211339D01*
X121087664Y-69211371D01*
X120993933Y-69272269D01*
X120981406Y-69279168D01*
X120978103Y-69282554D01*
X120976249Y-69283759D01*
X120974400Y-69286350D01*
X120964297Y-69296710D01*
X120881271Y-69403431D01*
X120878371Y-69405365D01*
X120869734Y-69418260D01*
X120855700Y-69436301D01*
X120854210Y-69441441D01*
X120851232Y-69445889D01*
X120844094Y-69469331D01*
X120800568Y-69697610D01*
X120796450Y-69707554D01*
X120794074Y-69731669D01*
X120794048Y-69731809D01*
X120794056Y-69731852D01*
X120794048Y-69731940D01*
X120796257Y-70137571D01*
X120794048Y-70148738D01*
X120663095Y-70148738D01*
X120663086Y-70148694D01*
X120663095Y-70148607D01*
X120660885Y-69742975D01*
X120663095Y-69731809D01*
X120660693Y-69707683D01*
X120660693Y-69707554D01*
X120660676Y-69707515D01*
X120660668Y-69707425D01*
X120614565Y-69487223D01*
X120615018Y-69483147D01*
X120610310Y-69466900D01*
X120605911Y-69445889D01*
X120602932Y-69441441D01*
X120601443Y-69436301D01*
X120588085Y-69415759D01*
X120489905Y-69296395D01*
X120480894Y-69283759D01*
X120477117Y-69280847D01*
X120475737Y-69279169D01*
X120472950Y-69277634D01*
X120461488Y-69268797D01*
X120374848Y-69216741D01*
X120369446Y-69211339D01*
X120357890Y-69206552D01*
X120344298Y-69198386D01*
X120334017Y-69196664D01*
X120324386Y-69192675D01*
X120300000Y-69190273D01*
X120121714Y-69192266D01*
X120113329Y-69190331D01*
X120100346Y-69192504D01*
X120085138Y-69192675D01*
X120075506Y-69196664D01*
X120065226Y-69198386D01*
X120043274Y-69209274D01*
X120040126Y-69211318D01*
X120040078Y-69211339D01*
X120040045Y-69211371D01*
X119946314Y-69272269D01*
X119933787Y-69279168D01*
X119930484Y-69282554D01*
X119928630Y-69283759D01*
X119926781Y-69286350D01*
X119916678Y-69296710D01*
X119833652Y-69403431D01*
X119830752Y-69405365D01*
X119822115Y-69418260D01*
X119808081Y-69436301D01*
X119806591Y-69441441D01*
X119803613Y-69445889D01*
X119796475Y-69469331D01*
X119752949Y-69697610D01*
X119748831Y-69707554D01*
X119746455Y-69731669D01*
X119746429Y-69731809D01*
X119746437Y-69731852D01*
X119746429Y-69731940D01*
X119748638Y-70137571D01*
X119746429Y-70148738D01*
X119398892Y-70148738D01*
X119359689Y-70079288D01*
X119366250Y-70076035D01*
X119369401Y-70073987D01*
X119369446Y-70073969D01*
X119369475Y-70073939D01*
X119463211Y-70013037D01*
X119475737Y-70006140D01*
X119479039Y-70002753D01*
X119480894Y-70001549D01*
X119482742Y-69998957D01*
X119492846Y-69988598D01*
X119538971Y-69928033D01*
X119547630Y-69919161D01*
X119551696Y-69911325D01*
X119553823Y-69908533D01*
X119554679Y-69905577D01*
X119558917Y-69897412D01*
X119609443Y-69765091D01*
X119613074Y-69756326D01*
X119613172Y-69755325D01*
X119613362Y-69754829D01*
X119613346Y-69753559D01*
X119615476Y-69731940D01*
X119613224Y-69541734D01*
X119613362Y-69530480D01*
X119613080Y-69529508D01*
X119613074Y-69528983D01*
X119612586Y-69527805D01*
X119606536Y-69506946D01*
X119557761Y-69390363D01*
X119553824Y-69376777D01*
X119548924Y-69369242D01*
X119547630Y-69366148D01*
X119545479Y-69363944D01*
X119540466Y-69356234D01*
X119488218Y-69294029D01*
X119480894Y-69283759D01*
X119477200Y-69280911D01*
X119475737Y-69279169D01*
X119472950Y-69277634D01*
X119461488Y-69268797D01*
X119374848Y-69216741D01*
X119369446Y-69211339D01*
X119357890Y-69206552D01*
X119344298Y-69198386D01*
X119334017Y-69196664D01*
X119324386Y-69192675D01*
X119300000Y-69190273D01*
X118894662Y-69192675D01*
X118849602Y-69211339D01*
X118815114Y-69245827D01*
X118796450Y-69290887D01*
X118794048Y-69315273D01*
X118662900Y-69315273D01*
X118663092Y-69314257D01*
X118653189Y-69266501D01*
X118625763Y-69226169D01*
X118584991Y-69199403D01*
X118537080Y-69190277D01*
X118489324Y-69200180D01*
X118448992Y-69227606D01*
X118422226Y-69268378D01*
X118415304Y-69291884D01*
X118292965Y-69940694D01*
X118229378Y-69646333D01*
X118225660Y-69626183D01*
X118224709Y-69624717D01*
X118224336Y-69622988D01*
X118211466Y-69604291D01*
X118199126Y-69585259D01*
X118197679Y-69584263D01*
X118196682Y-69582814D01*
X118177628Y-69570460D01*
X118158952Y-69557604D01*
X118157233Y-69557237D01*
X118155757Y-69556280D01*
X118133413Y-69552156D01*
X118111253Y-69547429D01*
X118109526Y-69547747D01*
X118107795Y-69547428D01*
X118085580Y-69552167D01*
X118063291Y-69556281D01*
X118061816Y-69557236D01*
X118060096Y-69557604D01*
X118041396Y-69570475D01*
X118022366Y-69582814D01*
X118021369Y-69584261D01*
X118019922Y-69585258D01*
X118007575Y-69604299D01*
X117994712Y-69622988D01*
X117993990Y-69625254D01*
X117993388Y-69626183D01*
X117992965Y-69628469D01*
X117987275Y-69646337D01*
X117925740Y-69938444D01*
X117796823Y-69268378D01*
X117770057Y-69227606D01*
X117729725Y-69200180D01*
X117681969Y-69190277D01*
X117634058Y-69199403D01*
X117593286Y-69226169D01*
X117565860Y-69266501D01*
X117555957Y-69314257D01*
X116124256Y-69314257D01*
X116107266Y-69294029D01*
X116099942Y-69283759D01*
X116096248Y-69280911D01*
X116094785Y-69279169D01*
X116091998Y-69277634D01*
X116080536Y-69268797D01*
X115993896Y-69216741D01*
X115988494Y-69211339D01*
X115976938Y-69206552D01*
X115963346Y-69198386D01*
X115953065Y-69196664D01*
X115943434Y-69192675D01*
X115919048Y-69190273D01*
X115693452Y-69192337D01*
X115684758Y-69190331D01*
X115671580Y-69192537D01*
X115656567Y-69192675D01*
X115646935Y-69196664D01*
X115636655Y-69198386D01*
X115614703Y-69209274D01*
X115611555Y-69211318D01*
X115611507Y-69211339D01*
X115611474Y-69211371D01*
X115517740Y-69272271D01*
X115505216Y-69279168D01*
X115501912Y-69282554D01*
X115500059Y-69283759D01*
X115498212Y-69286348D01*
X115488106Y-69296710D01*
X115427129Y-69376777D01*
X115413555Y-69423622D01*
X115418941Y-69472097D01*
X115442468Y-69514820D01*
X115480552Y-69545288D01*
X115527397Y-69558862D01*
X115575872Y-69553476D01*
X115618595Y-69529949D01*
X115635705Y-69512408D01*
X115667432Y-69470747D01*
X115714813Y-69439963D01*
X115881368Y-69438438D01*
X115928154Y-69466549D01*
X115951568Y-69494425D01*
X115984869Y-69574022D01*
X115986149Y-69650411D01*
X115950612Y-69790095D01*
X115398486Y-70483883D01*
X115386543Y-70495827D01*
X115383895Y-70502217D01*
X115379510Y-70507729D01*
X115374612Y-70524630D01*
X115367879Y-70540887D01*
X115367879Y-70547868D01*
X115365936Y-70554574D01*
X115181800Y-70554574D01*
X115205641Y-70523268D01*
X115214297Y-70514399D01*
X115218362Y-70506564D01*
X115220491Y-70503770D01*
X115221348Y-70500812D01*
X115225584Y-70492650D01*
X115276110Y-70360329D01*
X115279741Y-70351564D01*
X115279839Y-70350563D01*
X115280029Y-70350067D01*
X115280013Y-70348797D01*
X115282143Y-70327178D01*
X115279857Y-70020765D01*
X115280029Y-70006670D01*
X115279744Y-70005690D01*
X115279741Y-70005173D01*
X115279253Y-70003995D01*
X115273203Y-69983136D01*
X115224426Y-69866548D01*
X115220490Y-69852966D01*
X115215592Y-69845434D01*
X115214297Y-69842338D01*
X115212144Y-69840132D01*
X115207132Y-69832424D01*
X115154882Y-69770215D01*
X115147561Y-69759950D01*
X115143869Y-69757103D01*
X115142404Y-69755359D01*
X115139612Y-69753821D01*
X115128155Y-69744988D01*
X115043523Y-69694138D01*
X115251977Y-69393818D01*
X115261077Y-69384719D01*
X115265196Y-69374774D01*
X115271564Y-69365600D01*
X115274517Y-69352270D01*
X115279741Y-69339659D01*
X115279741Y-69328693D01*
X115282114Y-69317983D01*
X115279741Y-69304535D01*
X115279741Y-69290887D01*
X115275544Y-69280756D01*
X115273638Y-69269951D01*
X115266299Y-69258436D01*
X115261077Y-69245827D01*
X115253320Y-69238070D01*
X115247426Y-69228821D01*
X115236242Y-69220992D01*
X115226589Y-69211339D01*
X115216456Y-69207142D01*
X115207471Y-69200852D01*
X115194139Y-69197898D01*
X115181529Y-69192675D01*
X115161786Y-69190730D01*
X115159853Y-69190302D01*
X115158987Y-69190454D01*
X115157143Y-69190273D01*
X114513710Y-69192675D01*
X114468650Y-69211339D01*
X114434162Y-69245827D01*
X114415498Y-69290887D01*
X114415498Y-69339659D01*
X114434162Y-69384719D01*
X114468650Y-69419207D01*
X114513710Y-69437871D01*
X114538096Y-69440273D01*
X114919207Y-69438850D01*
X114728975Y-69712918D01*
X114719876Y-69722018D01*
X114715756Y-69731962D01*
X114709389Y-69741137D01*
X114706435Y-69754466D01*
X114701212Y-69767078D01*
X114701212Y-69778043D01*
X114698839Y-69788754D01*
X114701212Y-69802201D01*
X114701212Y-69815850D01*
X114705408Y-69825981D01*
X114707315Y-69836785D01*
X114714652Y-69848298D01*
X114719876Y-69860910D01*
X114727632Y-69868666D01*
X114733527Y-69877916D01*
X114744710Y-69885744D01*
X114754364Y-69895398D01*
X114764497Y-69899595D01*
X114773483Y-69905885D01*
X114786812Y-69908838D01*
X114799424Y-69914062D01*
X114819166Y-69916006D01*
X114821100Y-69916435D01*
X114821965Y-69916282D01*
X114823810Y-69916464D01*
X114929513Y-69914945D01*
X114975775Y-69942741D01*
X114999187Y-69970615D01*
X115032293Y-70049746D01*
X115034152Y-70298906D01*
X115003492Y-70379198D01*
X114980186Y-70409800D01*
X114932880Y-70440534D01*
X114718774Y-70442193D01*
X114671845Y-70413996D01*
X114618595Y-70350598D01*
X114575872Y-70327071D01*
X114527397Y-70321685D01*
X114480552Y-70335259D01*
X114442468Y-70365727D01*
X114418941Y-70408450D01*
X114413555Y-70456925D01*
X113758130Y-70456925D01*
X113757446Y-70094299D01*
X114001283Y-70092854D01*
X114010481Y-70094977D01*
X114023958Y-70092720D01*
X114038672Y-70092633D01*
X114048303Y-70088643D01*
X114058584Y-70086922D01*
X114080536Y-70076035D01*
X114083687Y-70073987D01*
X114083732Y-70073969D01*
X114083761Y-70073939D01*
X114177497Y-70013037D01*
X114190023Y-70006140D01*
X114193325Y-70002753D01*
X114195180Y-70001549D01*
X114197028Y-69998957D01*
X114207132Y-69988598D01*
X114253257Y-69928033D01*
X114261916Y-69919161D01*
X114265982Y-69911325D01*
X114268109Y-69908533D01*
X114268965Y-69905577D01*
X114273203Y-69897412D01*
X114323729Y-69765091D01*
X114327360Y-69756326D01*
X114327458Y-69755325D01*
X114327648Y-69754829D01*
X114327632Y-69753559D01*
X114329762Y-69731940D01*
X114327510Y-69541734D01*
X114327648Y-69530480D01*
X114327366Y-69529508D01*
X114327360Y-69528983D01*
X114326872Y-69527805D01*
X114320822Y-69506946D01*
X114272047Y-69390363D01*
X114268110Y-69376777D01*
X114263210Y-69369242D01*
X114261916Y-69366148D01*
X114259765Y-69363944D01*
X114254752Y-69356234D01*
X114202504Y-69294029D01*
X114195180Y-69283759D01*
X114191486Y-69280911D01*
X114190023Y-69279169D01*
X114187236Y-69277634D01*
X114175774Y-69268797D01*
X114089134Y-69216741D01*
X114083732Y-69211339D01*
X114072176Y-69206552D01*
X114058584Y-69198386D01*
X114048303Y-69196664D01*
X114038672Y-69192675D01*
X114014286Y-69190273D01*
X113608948Y-69192675D01*
X113563888Y-69211339D01*
X113529400Y-69245827D01*
X113510736Y-69290887D01*
X113508334Y-69315273D01*
X113312837Y-69315273D01*
X113308841Y-69305568D01*
X113274426Y-69271009D01*
X113252839Y-69259413D01*
X113086548Y-69192726D01*
X113086413Y-69192725D01*
X113086291Y-69192675D01*
X113061905Y-69190273D01*
X112836309Y-69192337D01*
X112827615Y-69190331D01*
X112814437Y-69192537D01*
X112799424Y-69192675D01*
X112789792Y-69196664D01*
X112779512Y-69198386D01*
X112757560Y-69209274D01*
X112754412Y-69211318D01*
X112754364Y-69211339D01*
X112754331Y-69211371D01*
X112660597Y-69272271D01*
X112648073Y-69279168D01*
X112644769Y-69282554D01*
X112642916Y-69283759D01*
X112641069Y-69286348D01*
X112630963Y-69296710D01*
X112584838Y-69357275D01*
X112576180Y-69366147D01*
X112572114Y-69373982D01*
X112569986Y-69376777D01*
X112569128Y-69379736D01*
X112564894Y-69387897D01*
X112514363Y-69520225D01*
X112510736Y-69528983D01*
X112510637Y-69529982D01*
X112510448Y-69530479D01*
X112510463Y-69531749D01*
X112508334Y-69553369D01*
X111899283Y-69553369D01*
X111899069Y-69439683D01*
X112276767Y-69437871D01*
X112321827Y-69419207D01*
X112356315Y-69384719D01*
X112374979Y-69339659D01*
X112374979Y-69290887D01*
X112356315Y-69245827D01*
X112321827Y-69211339D01*
X112276767Y-69192675D01*
X112252381Y-69190273D01*
X111751805Y-69192675D01*
X111706745Y-69211339D01*
X111672257Y-69245827D01*
X111653593Y-69290887D01*
X111651191Y-69315273D01*
X111512302Y-69315273D01*
X111512302Y-69051384D01*
X127135317Y-69051384D01*
X127135317Y-70829162D01*
G37*
D13*
X130224809Y-64180952D02*
X130629571Y-64180952D01*
X130629571Y-64180952D02*
X130677190Y-64157142D01*
X130677190Y-64157142D02*
X130701000Y-64133333D01*
X130701000Y-64133333D02*
X130724809Y-64085714D01*
X130724809Y-64085714D02*
X130724809Y-63990476D01*
X130724809Y-63990476D02*
X130701000Y-63942857D01*
X130701000Y-63942857D02*
X130677190Y-63919047D01*
X130677190Y-63919047D02*
X130629571Y-63895238D01*
X130629571Y-63895238D02*
X130224809Y-63895238D01*
X130224809Y-63704761D02*
X130224809Y-63395237D01*
X130224809Y-63395237D02*
X130415285Y-63561904D01*
X130415285Y-63561904D02*
X130415285Y-63490475D01*
X130415285Y-63490475D02*
X130439095Y-63442856D01*
X130439095Y-63442856D02*
X130462904Y-63419047D01*
X130462904Y-63419047D02*
X130510523Y-63395237D01*
X130510523Y-63395237D02*
X130629571Y-63395237D01*
X130629571Y-63395237D02*
X130677190Y-63419047D01*
X130677190Y-63419047D02*
X130701000Y-63442856D01*
X130701000Y-63442856D02*
X130724809Y-63490475D01*
X130724809Y-63490475D02*
X130724809Y-63633332D01*
X130724809Y-63633332D02*
X130701000Y-63680951D01*
X130701000Y-63680951D02*
X130677190Y-63704761D01*
X108424809Y-50480952D02*
X108829571Y-50480952D01*
X108829571Y-50480952D02*
X108877190Y-50457142D01*
X108877190Y-50457142D02*
X108901000Y-50433333D01*
X108901000Y-50433333D02*
X108924809Y-50385714D01*
X108924809Y-50385714D02*
X108924809Y-50290476D01*
X108924809Y-50290476D02*
X108901000Y-50242857D01*
X108901000Y-50242857D02*
X108877190Y-50219047D01*
X108877190Y-50219047D02*
X108829571Y-50195238D01*
X108829571Y-50195238D02*
X108424809Y-50195238D01*
X108424809Y-49719047D02*
X108424809Y-49957142D01*
X108424809Y-49957142D02*
X108662904Y-49980951D01*
X108662904Y-49980951D02*
X108639095Y-49957142D01*
X108639095Y-49957142D02*
X108615285Y-49909523D01*
X108615285Y-49909523D02*
X108615285Y-49790475D01*
X108615285Y-49790475D02*
X108639095Y-49742856D01*
X108639095Y-49742856D02*
X108662904Y-49719047D01*
X108662904Y-49719047D02*
X108710523Y-49695237D01*
X108710523Y-49695237D02*
X108829571Y-49695237D01*
X108829571Y-49695237D02*
X108877190Y-49719047D01*
X108877190Y-49719047D02*
X108901000Y-49742856D01*
X108901000Y-49742856D02*
X108924809Y-49790475D01*
X108924809Y-49790475D02*
X108924809Y-49909523D01*
X108924809Y-49909523D02*
X108901000Y-49957142D01*
X108901000Y-49957142D02*
X108877190Y-49980951D01*
X97024809Y-47266666D02*
X97381952Y-47266666D01*
X97381952Y-47266666D02*
X97453380Y-47290475D01*
X97453380Y-47290475D02*
X97501000Y-47338094D01*
X97501000Y-47338094D02*
X97524809Y-47409523D01*
X97524809Y-47409523D02*
X97524809Y-47457142D01*
X97072428Y-47052380D02*
X97048619Y-47028571D01*
X97048619Y-47028571D02*
X97024809Y-46980952D01*
X97024809Y-46980952D02*
X97024809Y-46861904D01*
X97024809Y-46861904D02*
X97048619Y-46814285D01*
X97048619Y-46814285D02*
X97072428Y-46790476D01*
X97072428Y-46790476D02*
X97120047Y-46766666D01*
X97120047Y-46766666D02*
X97167666Y-46766666D01*
X97167666Y-46766666D02*
X97239095Y-46790476D01*
X97239095Y-46790476D02*
X97524809Y-47076190D01*
X97524809Y-47076190D02*
X97524809Y-46766666D01*
D12*
X114094819Y-77133333D02*
X114809104Y-77133333D01*
X114809104Y-77133333D02*
X114951961Y-77180952D01*
X114951961Y-77180952D02*
X115047200Y-77276190D01*
X115047200Y-77276190D02*
X115094819Y-77419047D01*
X115094819Y-77419047D02*
X115094819Y-77514285D01*
X114094819Y-76228571D02*
X114094819Y-76419047D01*
X114094819Y-76419047D02*
X114142438Y-76514285D01*
X114142438Y-76514285D02*
X114190057Y-76561904D01*
X114190057Y-76561904D02*
X114332914Y-76657142D01*
X114332914Y-76657142D02*
X114523390Y-76704761D01*
X114523390Y-76704761D02*
X114904342Y-76704761D01*
X114904342Y-76704761D02*
X114999580Y-76657142D01*
X114999580Y-76657142D02*
X115047200Y-76609523D01*
X115047200Y-76609523D02*
X115094819Y-76514285D01*
X115094819Y-76514285D02*
X115094819Y-76323809D01*
X115094819Y-76323809D02*
X115047200Y-76228571D01*
X115047200Y-76228571D02*
X114999580Y-76180952D01*
X114999580Y-76180952D02*
X114904342Y-76133333D01*
X114904342Y-76133333D02*
X114666247Y-76133333D01*
X114666247Y-76133333D02*
X114571009Y-76180952D01*
X114571009Y-76180952D02*
X114523390Y-76228571D01*
X114523390Y-76228571D02*
X114475771Y-76323809D01*
X114475771Y-76323809D02*
X114475771Y-76514285D01*
X114475771Y-76514285D02*
X114523390Y-76609523D01*
X114523390Y-76609523D02*
X114571009Y-76657142D01*
X114571009Y-76657142D02*
X114666247Y-76704761D01*
X128604819Y-77609523D02*
X129319104Y-77609523D01*
X129319104Y-77609523D02*
X129461961Y-77657142D01*
X129461961Y-77657142D02*
X129557200Y-77752380D01*
X129557200Y-77752380D02*
X129604819Y-77895237D01*
X129604819Y-77895237D02*
X129604819Y-77990475D01*
X129604819Y-76609523D02*
X129604819Y-77180951D01*
X129604819Y-76895237D02*
X128604819Y-76895237D01*
X128604819Y-76895237D02*
X128747676Y-76990475D01*
X128747676Y-76990475D02*
X128842914Y-77085713D01*
X128842914Y-77085713D02*
X128890533Y-77180951D01*
X128604819Y-75990475D02*
X128604819Y-75895237D01*
X128604819Y-75895237D02*
X128652438Y-75799999D01*
X128652438Y-75799999D02*
X128700057Y-75752380D01*
X128700057Y-75752380D02*
X128795295Y-75704761D01*
X128795295Y-75704761D02*
X128985771Y-75657142D01*
X128985771Y-75657142D02*
X129223866Y-75657142D01*
X129223866Y-75657142D02*
X129414342Y-75704761D01*
X129414342Y-75704761D02*
X129509580Y-75752380D01*
X129509580Y-75752380D02*
X129557200Y-75799999D01*
X129557200Y-75799999D02*
X129604819Y-75895237D01*
X129604819Y-75895237D02*
X129604819Y-75990475D01*
X129604819Y-75990475D02*
X129557200Y-76085713D01*
X129557200Y-76085713D02*
X129509580Y-76133332D01*
X129509580Y-76133332D02*
X129414342Y-76180951D01*
X129414342Y-76180951D02*
X129223866Y-76228570D01*
X129223866Y-76228570D02*
X128985771Y-76228570D01*
X128985771Y-76228570D02*
X128795295Y-76180951D01*
X128795295Y-76180951D02*
X128700057Y-76133332D01*
X128700057Y-76133332D02*
X128652438Y-76085713D01*
X128652438Y-76085713D02*
X128604819Y-75990475D01*
X138159580Y-74466666D02*
X138207200Y-74514285D01*
X138207200Y-74514285D02*
X138254819Y-74657142D01*
X138254819Y-74657142D02*
X138254819Y-74752380D01*
X138254819Y-74752380D02*
X138207200Y-74895237D01*
X138207200Y-74895237D02*
X138111961Y-74990475D01*
X138111961Y-74990475D02*
X138016723Y-75038094D01*
X138016723Y-75038094D02*
X137826247Y-75085713D01*
X137826247Y-75085713D02*
X137683390Y-75085713D01*
X137683390Y-75085713D02*
X137492914Y-75038094D01*
X137492914Y-75038094D02*
X137397676Y-74990475D01*
X137397676Y-74990475D02*
X137302438Y-74895237D01*
X137302438Y-74895237D02*
X137254819Y-74752380D01*
X137254819Y-74752380D02*
X137254819Y-74657142D01*
X137254819Y-74657142D02*
X137302438Y-74514285D01*
X137302438Y-74514285D02*
X137350057Y-74466666D01*
X137254819Y-73561904D02*
X137254819Y-74038094D01*
X137254819Y-74038094D02*
X137731009Y-74085713D01*
X137731009Y-74085713D02*
X137683390Y-74038094D01*
X137683390Y-74038094D02*
X137635771Y-73942856D01*
X137635771Y-73942856D02*
X137635771Y-73704761D01*
X137635771Y-73704761D02*
X137683390Y-73609523D01*
X137683390Y-73609523D02*
X137731009Y-73561904D01*
X137731009Y-73561904D02*
X137826247Y-73514285D01*
X137826247Y-73514285D02*
X138064342Y-73514285D01*
X138064342Y-73514285D02*
X138159580Y-73561904D01*
X138159580Y-73561904D02*
X138207200Y-73609523D01*
X138207200Y-73609523D02*
X138254819Y-73704761D01*
X138254819Y-73704761D02*
X138254819Y-73942856D01*
X138254819Y-73942856D02*
X138207200Y-74038094D01*
X138207200Y-74038094D02*
X138159580Y-74085713D01*
D13*
X98316666Y-42077190D02*
X98292857Y-42101000D01*
X98292857Y-42101000D02*
X98221428Y-42124809D01*
X98221428Y-42124809D02*
X98173809Y-42124809D01*
X98173809Y-42124809D02*
X98102381Y-42101000D01*
X98102381Y-42101000D02*
X98054762Y-42053380D01*
X98054762Y-42053380D02*
X98030952Y-42005761D01*
X98030952Y-42005761D02*
X98007143Y-41910523D01*
X98007143Y-41910523D02*
X98007143Y-41839095D01*
X98007143Y-41839095D02*
X98030952Y-41743857D01*
X98030952Y-41743857D02*
X98054762Y-41696238D01*
X98054762Y-41696238D02*
X98102381Y-41648619D01*
X98102381Y-41648619D02*
X98173809Y-41624809D01*
X98173809Y-41624809D02*
X98221428Y-41624809D01*
X98221428Y-41624809D02*
X98292857Y-41648619D01*
X98292857Y-41648619D02*
X98316666Y-41672428D01*
X98483333Y-41624809D02*
X98792857Y-41624809D01*
X98792857Y-41624809D02*
X98626190Y-41815285D01*
X98626190Y-41815285D02*
X98697619Y-41815285D01*
X98697619Y-41815285D02*
X98745238Y-41839095D01*
X98745238Y-41839095D02*
X98769047Y-41862904D01*
X98769047Y-41862904D02*
X98792857Y-41910523D01*
X98792857Y-41910523D02*
X98792857Y-42029571D01*
X98792857Y-42029571D02*
X98769047Y-42077190D01*
X98769047Y-42077190D02*
X98745238Y-42101000D01*
X98745238Y-42101000D02*
X98697619Y-42124809D01*
X98697619Y-42124809D02*
X98554762Y-42124809D01*
X98554762Y-42124809D02*
X98507143Y-42101000D01*
X98507143Y-42101000D02*
X98483333Y-42077190D01*
D12*
X100410839Y-56269819D02*
X100410839Y-56984104D01*
X100410839Y-56984104D02*
X100363220Y-57126961D01*
X100363220Y-57126961D02*
X100267982Y-57222200D01*
X100267982Y-57222200D02*
X100125125Y-57269819D01*
X100125125Y-57269819D02*
X100029887Y-57269819D01*
X101363220Y-56269819D02*
X100887030Y-56269819D01*
X100887030Y-56269819D02*
X100839411Y-56746009D01*
X100839411Y-56746009D02*
X100887030Y-56698390D01*
X100887030Y-56698390D02*
X100982268Y-56650771D01*
X100982268Y-56650771D02*
X101220363Y-56650771D01*
X101220363Y-56650771D02*
X101315601Y-56698390D01*
X101315601Y-56698390D02*
X101363220Y-56746009D01*
X101363220Y-56746009D02*
X101410839Y-56841247D01*
X101410839Y-56841247D02*
X101410839Y-57079342D01*
X101410839Y-57079342D02*
X101363220Y-57174580D01*
X101363220Y-57174580D02*
X101315601Y-57222200D01*
X101315601Y-57222200D02*
X101220363Y-57269819D01*
X101220363Y-57269819D02*
X100982268Y-57269819D01*
X100982268Y-57269819D02*
X100887030Y-57222200D01*
X100887030Y-57222200D02*
X100839411Y-57174580D01*
D11*
X139490476Y-72667219D02*
X139490476Y-73381504D01*
X139490476Y-73381504D02*
X139442857Y-73524361D01*
X139442857Y-73524361D02*
X139347619Y-73619600D01*
X139347619Y-73619600D02*
X139204762Y-73667219D01*
X139204762Y-73667219D02*
X139109524Y-73667219D01*
X140490476Y-73667219D02*
X139919048Y-73667219D01*
X140204762Y-73667219D02*
X140204762Y-72667219D01*
X140204762Y-72667219D02*
X140109524Y-72810076D01*
X140109524Y-72810076D02*
X140014286Y-72905314D01*
X140014286Y-72905314D02*
X139919048Y-72952933D01*
X141347619Y-73000552D02*
X141347619Y-73667219D01*
X141109524Y-72619600D02*
X140871429Y-73333885D01*
X140871429Y-73333885D02*
X141490476Y-73333885D01*
D15*
X143726109Y-52919046D02*
X143726109Y-52609522D01*
X143726109Y-52609522D02*
X143916585Y-52776189D01*
X143916585Y-52776189D02*
X143916585Y-52704760D01*
X143916585Y-52704760D02*
X143940395Y-52657141D01*
X143940395Y-52657141D02*
X143964204Y-52633332D01*
X143964204Y-52633332D02*
X144011823Y-52609522D01*
X144011823Y-52609522D02*
X144130871Y-52609522D01*
X144130871Y-52609522D02*
X144178490Y-52633332D01*
X144178490Y-52633332D02*
X144202300Y-52657141D01*
X144202300Y-52657141D02*
X144226109Y-52704760D01*
X144226109Y-52704760D02*
X144226109Y-52847617D01*
X144226109Y-52847617D02*
X144202300Y-52895236D01*
X144202300Y-52895236D02*
X144178490Y-52919046D01*
X143726109Y-52466665D02*
X144226109Y-52299999D01*
X144226109Y-52299999D02*
X143726109Y-52133332D01*
X143726109Y-52014285D02*
X143726109Y-51704761D01*
X143726109Y-51704761D02*
X143916585Y-51871428D01*
X143916585Y-51871428D02*
X143916585Y-51799999D01*
X143916585Y-51799999D02*
X143940395Y-51752380D01*
X143940395Y-51752380D02*
X143964204Y-51728571D01*
X143964204Y-51728571D02*
X144011823Y-51704761D01*
X144011823Y-51704761D02*
X144130871Y-51704761D01*
X144130871Y-51704761D02*
X144178490Y-51728571D01*
X144178490Y-51728571D02*
X144202300Y-51752380D01*
X144202300Y-51752380D02*
X144226109Y-51799999D01*
X144226109Y-51799999D02*
X144226109Y-51942856D01*
X144226109Y-51942856D02*
X144202300Y-51990475D01*
X144202300Y-51990475D02*
X144178490Y-52014285D01*
X143749919Y-50180952D02*
X143726109Y-50228571D01*
X143726109Y-50228571D02*
X143726109Y-50300000D01*
X143726109Y-50300000D02*
X143749919Y-50371428D01*
X143749919Y-50371428D02*
X143797538Y-50419047D01*
X143797538Y-50419047D02*
X143845157Y-50442857D01*
X143845157Y-50442857D02*
X143940395Y-50466666D01*
X143940395Y-50466666D02*
X144011823Y-50466666D01*
X144011823Y-50466666D02*
X144107061Y-50442857D01*
X144107061Y-50442857D02*
X144154680Y-50419047D01*
X144154680Y-50419047D02*
X144202300Y-50371428D01*
X144202300Y-50371428D02*
X144226109Y-50300000D01*
X144226109Y-50300000D02*
X144226109Y-50252381D01*
X144226109Y-50252381D02*
X144202300Y-50180952D01*
X144202300Y-50180952D02*
X144178490Y-50157143D01*
X144178490Y-50157143D02*
X144011823Y-50157143D01*
X144011823Y-50157143D02*
X144011823Y-50252381D01*
X144226109Y-49942857D02*
X143726109Y-49942857D01*
X143726109Y-49942857D02*
X144226109Y-49657143D01*
X144226109Y-49657143D02*
X143726109Y-49657143D01*
X144226109Y-49419047D02*
X143726109Y-49419047D01*
X143726109Y-49419047D02*
X143726109Y-49299999D01*
X143726109Y-49299999D02*
X143749919Y-49228571D01*
X143749919Y-49228571D02*
X143797538Y-49180952D01*
X143797538Y-49180952D02*
X143845157Y-49157142D01*
X143845157Y-49157142D02*
X143940395Y-49133333D01*
X143940395Y-49133333D02*
X144011823Y-49133333D01*
X144011823Y-49133333D02*
X144107061Y-49157142D01*
X144107061Y-49157142D02*
X144154680Y-49180952D01*
X144154680Y-49180952D02*
X144202300Y-49228571D01*
X144202300Y-49228571D02*
X144226109Y-49299999D01*
X144226109Y-49299999D02*
X144226109Y-49419047D01*
X144226109Y-57733333D02*
X143988014Y-57899999D01*
X144226109Y-58019047D02*
X143726109Y-58019047D01*
X143726109Y-58019047D02*
X143726109Y-57828571D01*
X143726109Y-57828571D02*
X143749919Y-57780952D01*
X143749919Y-57780952D02*
X143773728Y-57757142D01*
X143773728Y-57757142D02*
X143821347Y-57733333D01*
X143821347Y-57733333D02*
X143892776Y-57733333D01*
X143892776Y-57733333D02*
X143940395Y-57757142D01*
X143940395Y-57757142D02*
X143964204Y-57780952D01*
X143964204Y-57780952D02*
X143988014Y-57828571D01*
X143988014Y-57828571D02*
X143988014Y-58019047D01*
X143726109Y-57566666D02*
X144226109Y-57233333D01*
X143726109Y-57233333D02*
X144226109Y-57566666D01*
X144226109Y-57042857D02*
X143726109Y-57042857D01*
X143726109Y-57042857D02*
X143726109Y-56923809D01*
X143726109Y-56923809D02*
X143749919Y-56852381D01*
X143749919Y-56852381D02*
X143797538Y-56804762D01*
X143797538Y-56804762D02*
X143845157Y-56780952D01*
X143845157Y-56780952D02*
X143940395Y-56757143D01*
X143940395Y-56757143D02*
X144011823Y-56757143D01*
X144011823Y-56757143D02*
X144107061Y-56780952D01*
X144107061Y-56780952D02*
X144154680Y-56804762D01*
X144154680Y-56804762D02*
X144202300Y-56852381D01*
X144202300Y-56852381D02*
X144226109Y-56923809D01*
X144226109Y-56923809D02*
X144226109Y-57042857D01*
X143726109Y-55440951D02*
X143726109Y-55155237D01*
X144226109Y-55298094D02*
X143726109Y-55298094D01*
X143726109Y-55036190D02*
X144226109Y-54702857D01*
X143726109Y-54702857D02*
X144226109Y-55036190D01*
X144226109Y-54512381D02*
X143726109Y-54512381D01*
X143726109Y-54512381D02*
X143726109Y-54393333D01*
X143726109Y-54393333D02*
X143749919Y-54321905D01*
X143749919Y-54321905D02*
X143797538Y-54274286D01*
X143797538Y-54274286D02*
X143845157Y-54250476D01*
X143845157Y-54250476D02*
X143940395Y-54226667D01*
X143940395Y-54226667D02*
X144011823Y-54226667D01*
X144011823Y-54226667D02*
X144107061Y-54250476D01*
X144107061Y-54250476D02*
X144154680Y-54274286D01*
X144154680Y-54274286D02*
X144202300Y-54321905D01*
X144202300Y-54321905D02*
X144226109Y-54393333D01*
X144226109Y-54393333D02*
X144226109Y-54512381D01*
D11*
G36*
X139867816Y-61857758D02*
G01*
X139565464Y-61757575D01*
X139867036Y-61656452D01*
X139867816Y-61857758D01*
G37*
G36*
X139619386Y-60646281D02*
G01*
X139645163Y-60670943D01*
X139676129Y-60730582D01*
X139676705Y-60850837D01*
X139676051Y-60854548D01*
X139676738Y-60857651D01*
X139677380Y-60991558D01*
X139351747Y-60992171D01*
X139350517Y-60735835D01*
X139379453Y-60675688D01*
X139404115Y-60649911D01*
X139464046Y-60618794D01*
X139559893Y-60617660D01*
X139619386Y-60646281D01*
G37*
G36*
X140463330Y-63206348D02*
G01*
X139041108Y-63206348D01*
X139041108Y-63014746D01*
X139154140Y-63014746D01*
X139169072Y-63050794D01*
X139196662Y-63078384D01*
X139232710Y-63093316D01*
X139252219Y-63095237D01*
X140046071Y-63093397D01*
X140049235Y-63094452D01*
X140064679Y-63093354D01*
X140081251Y-63093316D01*
X140084571Y-63091940D01*
X140088155Y-63091686D01*
X140106463Y-63084680D01*
X140201487Y-63035342D01*
X140212537Y-63030766D01*
X140216385Y-63027607D01*
X140218291Y-63026618D01*
X140220020Y-63024623D01*
X140227690Y-63018329D01*
X140275623Y-62968228D01*
X140283600Y-62961311D01*
X140286211Y-62957161D01*
X140287747Y-62955557D01*
X140288757Y-62953116D01*
X140294043Y-62944720D01*
X140333981Y-62861702D01*
X140335366Y-62860318D01*
X140339818Y-62849568D01*
X140348668Y-62831174D01*
X140348922Y-62827590D01*
X140350298Y-62824270D01*
X140352219Y-62804761D01*
X140350613Y-62629253D01*
X140351434Y-62626792D01*
X140350466Y-62613176D01*
X140350298Y-62594776D01*
X140348922Y-62591455D01*
X140348668Y-62587872D01*
X140341662Y-62569563D01*
X140292320Y-62474530D01*
X140287747Y-62463489D01*
X140284590Y-62459643D01*
X140283600Y-62457735D01*
X140281603Y-62456003D01*
X140275310Y-62448335D01*
X140225202Y-62400397D01*
X140218291Y-62392428D01*
X140214144Y-62389817D01*
X140212537Y-62388280D01*
X140210093Y-62387268D01*
X140201701Y-62381985D01*
X140118683Y-62342046D01*
X140117299Y-62340662D01*
X140106549Y-62336209D01*
X140088155Y-62327360D01*
X140084571Y-62327105D01*
X140081251Y-62325730D01*
X140061742Y-62323809D01*
X139232710Y-62325730D01*
X139196662Y-62340662D01*
X139169072Y-62368252D01*
X139154140Y-62404300D01*
X139154140Y-62443318D01*
X139169072Y-62479366D01*
X139196662Y-62506956D01*
X139232710Y-62521888D01*
X139252219Y-62523809D01*
X140035194Y-62521994D01*
X140095578Y-62551044D01*
X140121355Y-62575705D01*
X140152413Y-62635524D01*
X140153724Y-62778854D01*
X140124983Y-62838597D01*
X140100324Y-62864371D01*
X140040782Y-62895285D01*
X139232710Y-62897158D01*
X139196662Y-62912090D01*
X139169072Y-62939680D01*
X139154140Y-62975728D01*
X139154140Y-63014746D01*
X139041108Y-63014746D01*
X139041108Y-61769649D01*
X139153004Y-61769649D01*
X139155263Y-61776427D01*
X139155770Y-61783555D01*
X139161376Y-61794767D01*
X139165342Y-61806665D01*
X139170025Y-61812064D01*
X139173220Y-61818454D01*
X139182691Y-61826669D01*
X139190907Y-61836141D01*
X139197296Y-61839335D01*
X139202696Y-61844019D01*
X139220596Y-61852010D01*
X139939558Y-62090235D01*
X139946995Y-62093316D01*
X139948855Y-62093316D01*
X140239711Y-62189690D01*
X140278631Y-62186924D01*
X140313530Y-62169474D01*
X140339095Y-62139998D01*
X140351434Y-62102982D01*
X140348667Y-62064062D01*
X140331218Y-62029163D01*
X140301742Y-62003598D01*
X140283841Y-61995607D01*
X140066225Y-61923501D01*
X140064933Y-61590092D01*
X140301742Y-61510686D01*
X140331218Y-61485121D01*
X140348667Y-61450222D01*
X140351434Y-61411302D01*
X140339095Y-61374286D01*
X140313530Y-61344810D01*
X140278631Y-61327360D01*
X140239711Y-61324594D01*
X140220596Y-61328941D01*
X139232703Y-61660202D01*
X139225806Y-61660693D01*
X139214738Y-61666226D01*
X139202696Y-61670265D01*
X139197296Y-61674948D01*
X139190907Y-61678143D01*
X139182691Y-61687614D01*
X139173220Y-61695830D01*
X139170025Y-61702219D01*
X139165342Y-61707619D01*
X139161376Y-61719516D01*
X139155770Y-61730729D01*
X139155263Y-61737856D01*
X139153004Y-61744635D01*
X139153892Y-61757142D01*
X139153004Y-61769649D01*
X139041108Y-61769649D01*
X139041108Y-60709523D01*
X139152219Y-60709523D01*
X139154140Y-61109984D01*
X139169072Y-61146032D01*
X139196662Y-61173622D01*
X139232710Y-61188554D01*
X139252219Y-61190475D01*
X140271728Y-61188554D01*
X140307776Y-61173622D01*
X140335366Y-61146032D01*
X140350298Y-61109984D01*
X140350298Y-61070966D01*
X140335366Y-61034918D01*
X140307776Y-61007328D01*
X140271728Y-60992396D01*
X140252219Y-60990475D01*
X139875551Y-60991184D01*
X139875137Y-60904869D01*
X140324446Y-60588209D01*
X140345415Y-60555304D01*
X140352196Y-60516879D01*
X140343756Y-60478785D01*
X140321381Y-60446820D01*
X140288476Y-60425851D01*
X140250052Y-60419070D01*
X140211957Y-60427510D01*
X140194873Y-60437124D01*
X139866820Y-60668326D01*
X139865471Y-60664801D01*
X139816128Y-60569767D01*
X139811556Y-60558727D01*
X139808400Y-60554881D01*
X139807409Y-60552973D01*
X139805411Y-60551240D01*
X139799119Y-60543574D01*
X139749018Y-60495642D01*
X139742101Y-60487666D01*
X139737951Y-60485053D01*
X139736347Y-60483519D01*
X139733907Y-60482508D01*
X139725511Y-60477223D01*
X139642493Y-60437284D01*
X139641109Y-60435900D01*
X139630359Y-60431447D01*
X139611965Y-60422598D01*
X139608381Y-60422343D01*
X139605061Y-60420968D01*
X139585552Y-60419047D01*
X139457395Y-60420563D01*
X139455202Y-60419832D01*
X139442419Y-60420740D01*
X139423186Y-60420968D01*
X139419865Y-60422343D01*
X139416282Y-60422598D01*
X139397973Y-60429604D01*
X139302939Y-60478946D01*
X139291899Y-60483519D01*
X139288053Y-60486674D01*
X139286145Y-60487666D01*
X139284412Y-60489663D01*
X139276746Y-60495956D01*
X139228814Y-60546056D01*
X139220838Y-60552974D01*
X139218225Y-60557123D01*
X139216691Y-60558728D01*
X139215680Y-60561167D01*
X139210395Y-60569564D01*
X139170456Y-60652581D01*
X139169072Y-60653966D01*
X139164619Y-60664715D01*
X139155770Y-60683110D01*
X139155515Y-60686693D01*
X139154140Y-60690014D01*
X139152219Y-60709523D01*
X139041108Y-60709523D01*
X139041108Y-59661904D01*
X139152219Y-59661904D01*
X139154140Y-60252841D01*
X139169072Y-60288889D01*
X139196662Y-60316479D01*
X139232710Y-60331411D01*
X139271728Y-60331411D01*
X139307776Y-60316479D01*
X139335366Y-60288889D01*
X139350298Y-60252841D01*
X139352219Y-60233332D01*
X139351614Y-60047430D01*
X140271728Y-60045697D01*
X140307776Y-60030765D01*
X140335366Y-60003175D01*
X140350298Y-59967127D01*
X140350298Y-59928109D01*
X140335366Y-59892061D01*
X140307776Y-59864471D01*
X140271728Y-59849539D01*
X140252219Y-59847618D01*
X139350970Y-59849316D01*
X139350298Y-59642395D01*
X139335366Y-59606347D01*
X139307776Y-59578757D01*
X139271728Y-59563825D01*
X139232710Y-59563825D01*
X139196662Y-59578757D01*
X139169072Y-59606347D01*
X139154140Y-59642395D01*
X139152219Y-59661904D01*
X139041108Y-59661904D01*
X139041108Y-59452714D01*
X140463330Y-59452714D01*
X140463330Y-63206348D01*
G37*
D13*
X87416666Y-41677190D02*
X87392857Y-41701000D01*
X87392857Y-41701000D02*
X87321428Y-41724809D01*
X87321428Y-41724809D02*
X87273809Y-41724809D01*
X87273809Y-41724809D02*
X87202381Y-41701000D01*
X87202381Y-41701000D02*
X87154762Y-41653380D01*
X87154762Y-41653380D02*
X87130952Y-41605761D01*
X87130952Y-41605761D02*
X87107143Y-41510523D01*
X87107143Y-41510523D02*
X87107143Y-41439095D01*
X87107143Y-41439095D02*
X87130952Y-41343857D01*
X87130952Y-41343857D02*
X87154762Y-41296238D01*
X87154762Y-41296238D02*
X87202381Y-41248619D01*
X87202381Y-41248619D02*
X87273809Y-41224809D01*
X87273809Y-41224809D02*
X87321428Y-41224809D01*
X87321428Y-41224809D02*
X87392857Y-41248619D01*
X87392857Y-41248619D02*
X87416666Y-41272428D01*
X87892857Y-41724809D02*
X87607143Y-41724809D01*
X87750000Y-41724809D02*
X87750000Y-41224809D01*
X87750000Y-41224809D02*
X87702381Y-41296238D01*
X87702381Y-41296238D02*
X87654762Y-41343857D01*
X87654762Y-41343857D02*
X87607143Y-41367666D01*
D11*
X89938095Y-63652219D02*
X89938095Y-64461742D01*
X89938095Y-64461742D02*
X89985714Y-64556980D01*
X89985714Y-64556980D02*
X90033333Y-64604600D01*
X90033333Y-64604600D02*
X90128571Y-64652219D01*
X90128571Y-64652219D02*
X90319047Y-64652219D01*
X90319047Y-64652219D02*
X90414285Y-64604600D01*
X90414285Y-64604600D02*
X90461904Y-64556980D01*
X90461904Y-64556980D02*
X90509523Y-64461742D01*
X90509523Y-64461742D02*
X90509523Y-63652219D01*
X90890476Y-63652219D02*
X91557142Y-63652219D01*
X91557142Y-63652219D02*
X91128571Y-64652219D01*
X91071428Y-71228409D02*
X91214285Y-71276028D01*
X91214285Y-71276028D02*
X91261904Y-71323647D01*
X91261904Y-71323647D02*
X91309523Y-71418885D01*
X91309523Y-71418885D02*
X91309523Y-71561742D01*
X91309523Y-71561742D02*
X91261904Y-71656980D01*
X91261904Y-71656980D02*
X91214285Y-71704600D01*
X91214285Y-71704600D02*
X91119047Y-71752219D01*
X91119047Y-71752219D02*
X90738095Y-71752219D01*
X90738095Y-71752219D02*
X90738095Y-70752219D01*
X90738095Y-70752219D02*
X91071428Y-70752219D01*
X91071428Y-70752219D02*
X91166666Y-70799838D01*
X91166666Y-70799838D02*
X91214285Y-70847457D01*
X91214285Y-70847457D02*
X91261904Y-70942695D01*
X91261904Y-70942695D02*
X91261904Y-71037933D01*
X91261904Y-71037933D02*
X91214285Y-71133171D01*
X91214285Y-71133171D02*
X91166666Y-71180790D01*
X91166666Y-71180790D02*
X91071428Y-71228409D01*
X91071428Y-71228409D02*
X90738095Y-71228409D01*
X91738095Y-71752219D02*
X91738095Y-70752219D01*
X91738095Y-70752219D02*
X92071428Y-71466504D01*
X92071428Y-71466504D02*
X92404761Y-70752219D01*
X92404761Y-70752219D02*
X92404761Y-71752219D01*
X92880952Y-71228409D02*
X93214285Y-71228409D01*
X93357142Y-71752219D02*
X92880952Y-71752219D01*
X92880952Y-71752219D02*
X92880952Y-70752219D01*
X92880952Y-70752219D02*
X93357142Y-70752219D01*
X94071428Y-72133171D02*
X94023809Y-72085552D01*
X94023809Y-72085552D02*
X93928571Y-71942695D01*
X93928571Y-71942695D02*
X93880952Y-71847457D01*
X93880952Y-71847457D02*
X93833333Y-71704600D01*
X93833333Y-71704600D02*
X93785714Y-71466504D01*
X93785714Y-71466504D02*
X93785714Y-71276028D01*
X93785714Y-71276028D02*
X93833333Y-71037933D01*
X93833333Y-71037933D02*
X93880952Y-70895076D01*
X93880952Y-70895076D02*
X93928571Y-70799838D01*
X93928571Y-70799838D02*
X94023809Y-70656980D01*
X94023809Y-70656980D02*
X94071428Y-70609361D01*
X94452381Y-71752219D02*
X94452381Y-70752219D01*
X94452381Y-70752219D02*
X94833333Y-70752219D01*
X94833333Y-70752219D02*
X94928571Y-70799838D01*
X94928571Y-70799838D02*
X94976190Y-70847457D01*
X94976190Y-70847457D02*
X95023809Y-70942695D01*
X95023809Y-70942695D02*
X95023809Y-71085552D01*
X95023809Y-71085552D02*
X94976190Y-71180790D01*
X94976190Y-71180790D02*
X94928571Y-71228409D01*
X94928571Y-71228409D02*
X94833333Y-71276028D01*
X94833333Y-71276028D02*
X94452381Y-71276028D01*
X95357143Y-72133171D02*
X95404762Y-72085552D01*
X95404762Y-72085552D02*
X95500000Y-71942695D01*
X95500000Y-71942695D02*
X95547619Y-71847457D01*
X95547619Y-71847457D02*
X95595238Y-71704600D01*
X95595238Y-71704600D02*
X95642857Y-71466504D01*
X95642857Y-71466504D02*
X95642857Y-71276028D01*
X95642857Y-71276028D02*
X95595238Y-71037933D01*
X95595238Y-71037933D02*
X95547619Y-70895076D01*
X95547619Y-70895076D02*
X95500000Y-70799838D01*
X95500000Y-70799838D02*
X95404762Y-70656980D01*
X95404762Y-70656980D02*
X95357143Y-70609361D01*
X96833334Y-70847457D02*
X96880953Y-70799838D01*
X96880953Y-70799838D02*
X96976191Y-70752219D01*
X96976191Y-70752219D02*
X97214286Y-70752219D01*
X97214286Y-70752219D02*
X97309524Y-70799838D01*
X97309524Y-70799838D02*
X97357143Y-70847457D01*
X97357143Y-70847457D02*
X97404762Y-70942695D01*
X97404762Y-70942695D02*
X97404762Y-71037933D01*
X97404762Y-71037933D02*
X97357143Y-71180790D01*
X97357143Y-71180790D02*
X96785715Y-71752219D01*
X96785715Y-71752219D02*
X97404762Y-71752219D01*
X97976191Y-71180790D02*
X97880953Y-71133171D01*
X97880953Y-71133171D02*
X97833334Y-71085552D01*
X97833334Y-71085552D02*
X97785715Y-70990314D01*
X97785715Y-70990314D02*
X97785715Y-70942695D01*
X97785715Y-70942695D02*
X97833334Y-70847457D01*
X97833334Y-70847457D02*
X97880953Y-70799838D01*
X97880953Y-70799838D02*
X97976191Y-70752219D01*
X97976191Y-70752219D02*
X98166667Y-70752219D01*
X98166667Y-70752219D02*
X98261905Y-70799838D01*
X98261905Y-70799838D02*
X98309524Y-70847457D01*
X98309524Y-70847457D02*
X98357143Y-70942695D01*
X98357143Y-70942695D02*
X98357143Y-70990314D01*
X98357143Y-70990314D02*
X98309524Y-71085552D01*
X98309524Y-71085552D02*
X98261905Y-71133171D01*
X98261905Y-71133171D02*
X98166667Y-71180790D01*
X98166667Y-71180790D02*
X97976191Y-71180790D01*
X97976191Y-71180790D02*
X97880953Y-71228409D01*
X97880953Y-71228409D02*
X97833334Y-71276028D01*
X97833334Y-71276028D02*
X97785715Y-71371266D01*
X97785715Y-71371266D02*
X97785715Y-71561742D01*
X97785715Y-71561742D02*
X97833334Y-71656980D01*
X97833334Y-71656980D02*
X97880953Y-71704600D01*
X97880953Y-71704600D02*
X97976191Y-71752219D01*
X97976191Y-71752219D02*
X98166667Y-71752219D01*
X98166667Y-71752219D02*
X98261905Y-71704600D01*
X98261905Y-71704600D02*
X98309524Y-71656980D01*
X98309524Y-71656980D02*
X98357143Y-71561742D01*
X98357143Y-71561742D02*
X98357143Y-71371266D01*
X98357143Y-71371266D02*
X98309524Y-71276028D01*
X98309524Y-71276028D02*
X98261905Y-71228409D01*
X98261905Y-71228409D02*
X98166667Y-71180790D01*
X98976191Y-70752219D02*
X99071429Y-70752219D01*
X99071429Y-70752219D02*
X99166667Y-70799838D01*
X99166667Y-70799838D02*
X99214286Y-70847457D01*
X99214286Y-70847457D02*
X99261905Y-70942695D01*
X99261905Y-70942695D02*
X99309524Y-71133171D01*
X99309524Y-71133171D02*
X99309524Y-71371266D01*
X99309524Y-71371266D02*
X99261905Y-71561742D01*
X99261905Y-71561742D02*
X99214286Y-71656980D01*
X99214286Y-71656980D02*
X99166667Y-71704600D01*
X99166667Y-71704600D02*
X99071429Y-71752219D01*
X99071429Y-71752219D02*
X98976191Y-71752219D01*
X98976191Y-71752219D02*
X98880953Y-71704600D01*
X98880953Y-71704600D02*
X98833334Y-71656980D01*
X98833334Y-71656980D02*
X98785715Y-71561742D01*
X98785715Y-71561742D02*
X98738096Y-71371266D01*
X98738096Y-71371266D02*
X98738096Y-71133171D01*
X98738096Y-71133171D02*
X98785715Y-70942695D01*
X98785715Y-70942695D02*
X98833334Y-70847457D01*
X98833334Y-70847457D02*
X98880953Y-70799838D01*
X98880953Y-70799838D02*
X98976191Y-70752219D01*
D16*
X86693775Y-52804260D02*
X87341394Y-52804260D01*
X87341394Y-52804260D02*
X87417584Y-52766165D01*
X87417584Y-52766165D02*
X87455680Y-52728070D01*
X87455680Y-52728070D02*
X87493775Y-52651879D01*
X87493775Y-52651879D02*
X87493775Y-52499498D01*
X87493775Y-52499498D02*
X87455680Y-52423308D01*
X87455680Y-52423308D02*
X87417584Y-52385213D01*
X87417584Y-52385213D02*
X87341394Y-52347117D01*
X87341394Y-52347117D02*
X86693775Y-52347117D01*
X86960441Y-51623308D02*
X87493775Y-51623308D01*
X86655680Y-51813784D02*
X87227108Y-52004261D01*
X87227108Y-52004261D02*
X87227108Y-51509022D01*
D11*
G36*
X142963330Y-62487300D02*
G01*
X141541108Y-62487300D01*
X141541108Y-62295698D01*
X141654140Y-62295698D01*
X141669072Y-62331746D01*
X141696662Y-62359336D01*
X141732710Y-62374268D01*
X141752219Y-62376189D01*
X142771728Y-62374268D01*
X142807776Y-62359336D01*
X142835366Y-62331746D01*
X142850298Y-62295698D01*
X142850298Y-62256680D01*
X142835366Y-62220632D01*
X142807776Y-62193042D01*
X142771728Y-62178110D01*
X142752219Y-62176189D01*
X141732710Y-62178110D01*
X141696662Y-62193042D01*
X141669072Y-62220632D01*
X141654140Y-62256680D01*
X141654140Y-62295698D01*
X141541108Y-62295698D01*
X141541108Y-61466666D01*
X141652219Y-61466666D01*
X141653881Y-61689621D01*
X141653004Y-61692254D01*
X141654006Y-61706359D01*
X141654140Y-61724270D01*
X141655515Y-61727590D01*
X141655770Y-61731174D01*
X141662776Y-61749482D01*
X141712116Y-61844511D01*
X141716691Y-61855556D01*
X141719847Y-61859402D01*
X141720838Y-61861310D01*
X141722832Y-61863039D01*
X141729127Y-61870710D01*
X141791899Y-61930765D01*
X141827948Y-61945696D01*
X141866966Y-61945696D01*
X141903014Y-61930765D01*
X141930604Y-61903175D01*
X141945535Y-61867127D01*
X141945535Y-61828109D01*
X141930604Y-61792060D01*
X141918167Y-61776907D01*
X141883085Y-61743343D01*
X141852061Y-61683591D01*
X141850637Y-61492729D01*
X141879453Y-61432831D01*
X141904115Y-61407054D01*
X141964254Y-61375829D01*
X142018357Y-61374923D01*
X142124652Y-61409026D01*
X142696662Y-61978384D01*
X142732710Y-61993316D01*
X142771728Y-61993316D01*
X142807776Y-61978384D01*
X142835366Y-61950794D01*
X142850298Y-61914746D01*
X142852219Y-61895237D01*
X142850298Y-61256681D01*
X142835366Y-61220633D01*
X142807776Y-61193043D01*
X142771728Y-61178111D01*
X142732710Y-61178111D01*
X142696662Y-61193043D01*
X142669072Y-61220633D01*
X142654140Y-61256681D01*
X142652219Y-61276190D01*
X142653360Y-61655742D01*
X142261280Y-61265479D01*
X142259789Y-61262497D01*
X142248087Y-61252348D01*
X142236347Y-61240662D01*
X142233028Y-61239287D01*
X142230313Y-61236932D01*
X142212412Y-61228941D01*
X142069332Y-61183036D01*
X142057442Y-61178111D01*
X142052448Y-61177619D01*
X142050440Y-61176975D01*
X142047806Y-61177162D01*
X142037933Y-61176190D01*
X141956915Y-61177546D01*
X141955202Y-61176975D01*
X141944157Y-61177759D01*
X141923186Y-61178111D01*
X141919865Y-61179486D01*
X141916282Y-61179741D01*
X141897973Y-61186747D01*
X141802939Y-61236089D01*
X141791899Y-61240662D01*
X141788053Y-61243817D01*
X141786145Y-61244809D01*
X141784412Y-61246806D01*
X141776746Y-61253099D01*
X141728814Y-61303199D01*
X141720838Y-61310117D01*
X141718225Y-61314266D01*
X141716691Y-61315871D01*
X141715680Y-61318310D01*
X141710395Y-61326707D01*
X141670456Y-61409724D01*
X141669072Y-61411109D01*
X141664619Y-61421858D01*
X141655770Y-61440253D01*
X141655515Y-61443836D01*
X141654140Y-61447157D01*
X141652219Y-61466666D01*
X141541108Y-61466666D01*
X141541108Y-60466666D01*
X141652219Y-60466666D01*
X141653828Y-60562808D01*
X141653004Y-60574411D01*
X141654103Y-60579247D01*
X141654140Y-60581413D01*
X141655151Y-60583855D01*
X141657351Y-60593527D01*
X141701759Y-60721901D01*
X141701759Y-60724270D01*
X141706728Y-60736266D01*
X141712961Y-60754284D01*
X141715316Y-60756999D01*
X141716691Y-60760318D01*
X141729127Y-60775472D01*
X141825511Y-60869483D01*
X141833764Y-60878999D01*
X141838002Y-60881666D01*
X141839519Y-60883146D01*
X141841956Y-60884155D01*
X141850355Y-60889442D01*
X141940626Y-60932870D01*
X141947600Y-60938037D01*
X141962234Y-60943265D01*
X141963901Y-60944067D01*
X141964621Y-60944118D01*
X141966060Y-60944632D01*
X142151372Y-60989211D01*
X142161281Y-60993316D01*
X142173390Y-60994508D01*
X142175929Y-60995119D01*
X142177387Y-60994901D01*
X142180790Y-60995237D01*
X142318363Y-60993609D01*
X142328508Y-60995119D01*
X142340486Y-60993347D01*
X142343156Y-60993316D01*
X142344519Y-60992751D01*
X142347901Y-60992251D01*
X142530980Y-60944746D01*
X142540536Y-60944067D01*
X142555148Y-60938475D01*
X142556837Y-60938037D01*
X142557417Y-60937606D01*
X142558844Y-60937061D01*
X142653866Y-60887724D01*
X142664918Y-60883147D01*
X142668766Y-60879988D01*
X142670672Y-60878999D01*
X142672401Y-60877004D01*
X142680071Y-60870710D01*
X142763902Y-60784764D01*
X142765912Y-60783760D01*
X142774172Y-60774235D01*
X142787747Y-60760319D01*
X142789122Y-60756999D01*
X142791477Y-60754284D01*
X142799468Y-60736384D01*
X142845374Y-60593299D01*
X142850298Y-60581413D01*
X142850789Y-60576420D01*
X142851434Y-60574412D01*
X142851246Y-60571777D01*
X142852219Y-60561904D01*
X142850609Y-60465760D01*
X142851434Y-60454158D01*
X142850334Y-60449322D01*
X142850298Y-60447157D01*
X142849286Y-60444715D01*
X142847087Y-60435043D01*
X142802678Y-60306665D01*
X142802678Y-60304299D01*
X142797710Y-60292306D01*
X142791477Y-60274286D01*
X142789122Y-60271570D01*
X142787747Y-60268251D01*
X142775310Y-60253097D01*
X142712537Y-60193042D01*
X142676488Y-60178111D01*
X142637470Y-60178112D01*
X142601422Y-60193043D01*
X142573832Y-60220633D01*
X142558901Y-60256682D01*
X142558902Y-60295700D01*
X142573833Y-60331748D01*
X142586270Y-60346901D01*
X142616926Y-60376230D01*
X142652422Y-60478842D01*
X142653485Y-60542329D01*
X142619240Y-60649069D01*
X142553752Y-60716208D01*
X142485145Y-60751829D01*
X142317580Y-60795308D01*
X142198772Y-60796714D01*
X142031500Y-60756474D01*
X141956830Y-60720552D01*
X141887824Y-60653245D01*
X141852015Y-60549727D01*
X141850952Y-60486241D01*
X141885339Y-60379060D01*
X141930604Y-60331748D01*
X141945535Y-60295699D01*
X141945535Y-60256681D01*
X141930604Y-60220633D01*
X141903014Y-60193043D01*
X141866966Y-60178112D01*
X141827948Y-60178112D01*
X141791899Y-60193043D01*
X141776746Y-60205480D01*
X141739661Y-60244242D01*
X141738526Y-60244810D01*
X141732779Y-60251435D01*
X141716691Y-60268252D01*
X141715316Y-60271570D01*
X141712961Y-60274286D01*
X141704970Y-60292187D01*
X141659065Y-60435266D01*
X141654140Y-60447157D01*
X141653648Y-60452150D01*
X141653004Y-60454159D01*
X141653191Y-60456792D01*
X141652219Y-60466666D01*
X141541108Y-60466666D01*
X141541108Y-60067000D01*
X142963330Y-60067000D01*
X142963330Y-62487300D01*
G37*
D15*
X138402300Y-57995237D02*
X138426109Y-57923809D01*
X138426109Y-57923809D02*
X138426109Y-57804761D01*
X138426109Y-57804761D02*
X138402300Y-57757142D01*
X138402300Y-57757142D02*
X138378490Y-57733333D01*
X138378490Y-57733333D02*
X138330871Y-57709523D01*
X138330871Y-57709523D02*
X138283252Y-57709523D01*
X138283252Y-57709523D02*
X138235633Y-57733333D01*
X138235633Y-57733333D02*
X138211823Y-57757142D01*
X138211823Y-57757142D02*
X138188014Y-57804761D01*
X138188014Y-57804761D02*
X138164204Y-57899999D01*
X138164204Y-57899999D02*
X138140395Y-57947618D01*
X138140395Y-57947618D02*
X138116585Y-57971428D01*
X138116585Y-57971428D02*
X138068966Y-57995237D01*
X138068966Y-57995237D02*
X138021347Y-57995237D01*
X138021347Y-57995237D02*
X137973728Y-57971428D01*
X137973728Y-57971428D02*
X137949919Y-57947618D01*
X137949919Y-57947618D02*
X137926109Y-57899999D01*
X137926109Y-57899999D02*
X137926109Y-57780952D01*
X137926109Y-57780952D02*
X137949919Y-57709523D01*
X138378490Y-57209524D02*
X138402300Y-57233333D01*
X138402300Y-57233333D02*
X138426109Y-57304762D01*
X138426109Y-57304762D02*
X138426109Y-57352381D01*
X138426109Y-57352381D02*
X138402300Y-57423809D01*
X138402300Y-57423809D02*
X138354680Y-57471428D01*
X138354680Y-57471428D02*
X138307061Y-57495238D01*
X138307061Y-57495238D02*
X138211823Y-57519047D01*
X138211823Y-57519047D02*
X138140395Y-57519047D01*
X138140395Y-57519047D02*
X138045157Y-57495238D01*
X138045157Y-57495238D02*
X137997538Y-57471428D01*
X137997538Y-57471428D02*
X137949919Y-57423809D01*
X137949919Y-57423809D02*
X137926109Y-57352381D01*
X137926109Y-57352381D02*
X137926109Y-57304762D01*
X137926109Y-57304762D02*
X137949919Y-57233333D01*
X137949919Y-57233333D02*
X137973728Y-57209524D01*
X138426109Y-56757143D02*
X138426109Y-56995238D01*
X138426109Y-56995238D02*
X137926109Y-56995238D01*
X138402300Y-55523141D02*
X138426109Y-55451713D01*
X138426109Y-55451713D02*
X138426109Y-55332665D01*
X138426109Y-55332665D02*
X138402300Y-55285046D01*
X138402300Y-55285046D02*
X138378490Y-55261237D01*
X138378490Y-55261237D02*
X138330871Y-55237427D01*
X138330871Y-55237427D02*
X138283252Y-55237427D01*
X138283252Y-55237427D02*
X138235633Y-55261237D01*
X138235633Y-55261237D02*
X138211823Y-55285046D01*
X138211823Y-55285046D02*
X138188014Y-55332665D01*
X138188014Y-55332665D02*
X138164204Y-55427903D01*
X138164204Y-55427903D02*
X138140395Y-55475522D01*
X138140395Y-55475522D02*
X138116585Y-55499332D01*
X138116585Y-55499332D02*
X138068966Y-55523141D01*
X138068966Y-55523141D02*
X138021347Y-55523141D01*
X138021347Y-55523141D02*
X137973728Y-55499332D01*
X137973728Y-55499332D02*
X137949919Y-55475522D01*
X137949919Y-55475522D02*
X137926109Y-55427903D01*
X137926109Y-55427903D02*
X137926109Y-55308856D01*
X137926109Y-55308856D02*
X137949919Y-55237427D01*
X138426109Y-55023142D02*
X137926109Y-55023142D01*
X137926109Y-55023142D02*
X137926109Y-54904094D01*
X137926109Y-54904094D02*
X137949919Y-54832666D01*
X137949919Y-54832666D02*
X137997538Y-54785047D01*
X137997538Y-54785047D02*
X138045157Y-54761237D01*
X138045157Y-54761237D02*
X138140395Y-54737428D01*
X138140395Y-54737428D02*
X138211823Y-54737428D01*
X138211823Y-54737428D02*
X138307061Y-54761237D01*
X138307061Y-54761237D02*
X138354680Y-54785047D01*
X138354680Y-54785047D02*
X138402300Y-54832666D01*
X138402300Y-54832666D02*
X138426109Y-54904094D01*
X138426109Y-54904094D02*
X138426109Y-55023142D01*
X138283252Y-54546951D02*
X138283252Y-54308856D01*
X138426109Y-54594570D02*
X137926109Y-54427904D01*
X137926109Y-54427904D02*
X138426109Y-54261237D01*
X137949919Y-50180952D02*
X137926109Y-50228571D01*
X137926109Y-50228571D02*
X137926109Y-50300000D01*
X137926109Y-50300000D02*
X137949919Y-50371428D01*
X137949919Y-50371428D02*
X137997538Y-50419047D01*
X137997538Y-50419047D02*
X138045157Y-50442857D01*
X138045157Y-50442857D02*
X138140395Y-50466666D01*
X138140395Y-50466666D02*
X138211823Y-50466666D01*
X138211823Y-50466666D02*
X138307061Y-50442857D01*
X138307061Y-50442857D02*
X138354680Y-50419047D01*
X138354680Y-50419047D02*
X138402300Y-50371428D01*
X138402300Y-50371428D02*
X138426109Y-50300000D01*
X138426109Y-50300000D02*
X138426109Y-50252381D01*
X138426109Y-50252381D02*
X138402300Y-50180952D01*
X138402300Y-50180952D02*
X138378490Y-50157143D01*
X138378490Y-50157143D02*
X138211823Y-50157143D01*
X138211823Y-50157143D02*
X138211823Y-50252381D01*
X138426109Y-49942857D02*
X137926109Y-49942857D01*
X137926109Y-49942857D02*
X138426109Y-49657143D01*
X138426109Y-49657143D02*
X137926109Y-49657143D01*
X138426109Y-49419047D02*
X137926109Y-49419047D01*
X137926109Y-49419047D02*
X137926109Y-49299999D01*
X137926109Y-49299999D02*
X137949919Y-49228571D01*
X137949919Y-49228571D02*
X137997538Y-49180952D01*
X137997538Y-49180952D02*
X138045157Y-49157142D01*
X138045157Y-49157142D02*
X138140395Y-49133333D01*
X138140395Y-49133333D02*
X138211823Y-49133333D01*
X138211823Y-49133333D02*
X138307061Y-49157142D01*
X138307061Y-49157142D02*
X138354680Y-49180952D01*
X138354680Y-49180952D02*
X138402300Y-49228571D01*
X138402300Y-49228571D02*
X138426109Y-49299999D01*
X138426109Y-49299999D02*
X138426109Y-49419047D01*
X137926109Y-53005236D02*
X138426109Y-52838570D01*
X138426109Y-52838570D02*
X137926109Y-52671903D01*
X138402300Y-52290951D02*
X138426109Y-52338570D01*
X138426109Y-52338570D02*
X138426109Y-52433808D01*
X138426109Y-52433808D02*
X138402300Y-52481427D01*
X138402300Y-52481427D02*
X138378490Y-52505237D01*
X138378490Y-52505237D02*
X138330871Y-52529046D01*
X138330871Y-52529046D02*
X138188014Y-52529046D01*
X138188014Y-52529046D02*
X138140395Y-52505237D01*
X138140395Y-52505237D02*
X138116585Y-52481427D01*
X138116585Y-52481427D02*
X138092776Y-52433808D01*
X138092776Y-52433808D02*
X138092776Y-52338570D01*
X138092776Y-52338570D02*
X138116585Y-52290951D01*
X138402300Y-51862380D02*
X138426109Y-51909999D01*
X138426109Y-51909999D02*
X138426109Y-52005237D01*
X138426109Y-52005237D02*
X138402300Y-52052856D01*
X138402300Y-52052856D02*
X138378490Y-52076666D01*
X138378490Y-52076666D02*
X138330871Y-52100475D01*
X138330871Y-52100475D02*
X138188014Y-52100475D01*
X138188014Y-52100475D02*
X138140395Y-52076666D01*
X138140395Y-52076666D02*
X138116585Y-52052856D01*
X138116585Y-52052856D02*
X138092776Y-52005237D01*
X138092776Y-52005237D02*
X138092776Y-51909999D01*
X138092776Y-51909999D02*
X138116585Y-51862380D01*
D16*
G36*
X93422851Y-50244343D02*
G01*
X93482585Y-50273080D01*
X93537790Y-50326925D01*
X93566345Y-50409471D01*
X93567100Y-50510624D01*
X92925688Y-50511832D01*
X92924977Y-50416545D01*
X92952658Y-50330267D01*
X93005049Y-50276553D01*
X93059931Y-50248058D01*
X93193984Y-50213274D01*
X93289031Y-50212149D01*
X93422851Y-50244343D01*
G37*
G36*
X93815164Y-50759364D02*
G01*
X92677385Y-50759364D01*
X92677385Y-50399999D01*
X92766275Y-50399999D01*
X92767812Y-50606082D01*
X92779757Y-50634921D01*
X92801829Y-50656993D01*
X92830668Y-50668938D01*
X92846275Y-50670475D01*
X93661882Y-50668938D01*
X93690721Y-50656993D01*
X93712793Y-50634921D01*
X93724738Y-50606082D01*
X93726275Y-50590475D01*
X93724862Y-50401040D01*
X93725647Y-50389993D01*
X93724750Y-50386049D01*
X93724738Y-50384392D01*
X93723929Y-50382440D01*
X93722170Y-50374701D01*
X93686644Y-50272004D01*
X93686644Y-50270105D01*
X93682660Y-50260489D01*
X93677681Y-50246095D01*
X93675797Y-50243922D01*
X93674697Y-50241267D01*
X93664748Y-50229144D01*
X93587639Y-50153934D01*
X93581038Y-50146323D01*
X93577648Y-50144189D01*
X93576434Y-50143005D01*
X93574482Y-50142196D01*
X93567766Y-50137969D01*
X93495549Y-50103227D01*
X93489970Y-50099093D01*
X93478261Y-50094910D01*
X93476929Y-50094269D01*
X93476352Y-50094228D01*
X93475202Y-50093817D01*
X93326950Y-50058151D01*
X93319025Y-50054869D01*
X93309340Y-50053915D01*
X93307307Y-50053426D01*
X93306138Y-50053599D01*
X93303418Y-50053332D01*
X93193363Y-50054634D01*
X93185243Y-50053426D01*
X93175659Y-50054843D01*
X93173525Y-50054869D01*
X93172434Y-50055320D01*
X93169729Y-50055721D01*
X93023264Y-50093725D01*
X93015621Y-50094269D01*
X93003930Y-50098742D01*
X93002580Y-50099093D01*
X93002115Y-50099437D01*
X93000974Y-50099874D01*
X92924953Y-50139343D01*
X92916114Y-50143005D01*
X92913036Y-50145531D01*
X92911511Y-50146323D01*
X92910126Y-50147918D01*
X92903992Y-50152954D01*
X92836929Y-50221708D01*
X92835320Y-50222513D01*
X92828709Y-50230136D01*
X92817852Y-50241267D01*
X92816751Y-50243924D01*
X92814869Y-50246095D01*
X92808475Y-50260415D01*
X92771750Y-50374882D01*
X92767812Y-50384392D01*
X92767418Y-50388385D01*
X92766903Y-50389993D01*
X92767052Y-50392101D01*
X92766275Y-50399999D01*
X92677385Y-50399999D01*
X92677385Y-49600082D01*
X92766274Y-49600082D01*
X92767812Y-49607771D01*
X92767812Y-49615606D01*
X92770842Y-49622921D01*
X92772396Y-49630691D01*
X92776758Y-49637204D01*
X92779757Y-49644445D01*
X92785357Y-49650045D01*
X92789765Y-49656627D01*
X92801766Y-49666454D01*
X92801829Y-49666517D01*
X92801856Y-49666528D01*
X92801899Y-49666563D01*
X92905213Y-49733950D01*
X92969719Y-49796867D01*
X93011646Y-49877620D01*
X93035227Y-49898072D01*
X93064840Y-49907943D01*
X93095976Y-49905730D01*
X93123895Y-49891771D01*
X93144347Y-49868190D01*
X93154218Y-49838577D01*
X93152005Y-49807441D01*
X93146400Y-49792794D01*
X93106928Y-49716770D01*
X93103268Y-49707934D01*
X93100744Y-49704858D01*
X93099951Y-49703331D01*
X93098353Y-49701945D01*
X93093319Y-49695811D01*
X93076662Y-49679564D01*
X93567273Y-49678640D01*
X93567812Y-49844178D01*
X93579757Y-49873017D01*
X93601829Y-49895089D01*
X93630668Y-49907034D01*
X93661882Y-49907034D01*
X93690721Y-49895089D01*
X93712793Y-49873017D01*
X93724738Y-49844178D01*
X93726275Y-49828571D01*
X93724738Y-49355821D01*
X93712793Y-49326982D01*
X93690721Y-49304910D01*
X93661882Y-49292965D01*
X93630668Y-49292965D01*
X93601829Y-49304910D01*
X93579757Y-49326982D01*
X93567812Y-49355821D01*
X93566275Y-49371428D01*
X93566758Y-49520148D01*
X92853744Y-49521492D01*
X92846192Y-49519998D01*
X92838576Y-49521521D01*
X92830668Y-49521536D01*
X92823352Y-49524566D01*
X92815583Y-49526120D01*
X92809069Y-49530482D01*
X92801829Y-49533481D01*
X92796228Y-49539081D01*
X92789647Y-49543489D01*
X92785299Y-49550010D01*
X92779757Y-49555553D01*
X92776725Y-49562871D01*
X92772333Y-49569461D01*
X92770811Y-49577150D01*
X92767812Y-49584392D01*
X92767812Y-49592309D01*
X92766274Y-49600082D01*
X92677385Y-49600082D01*
X92677385Y-49204076D01*
X93815164Y-49204076D01*
X93815164Y-50759364D01*
G37*
D17*
%TO.C,J19*%
X110210000Y-83320000D02*
X111540000Y-83320000D01*
X110210000Y-84650000D02*
X110210000Y-83320000D01*
X110210000Y-85920000D02*
X110210000Y-85980000D01*
X110210000Y-85920000D02*
X112870000Y-85920000D01*
X110210000Y-85980000D02*
X112870000Y-85980000D01*
X112870000Y-85920000D02*
X112870000Y-85980000D01*
%TO.C,J18*%
X94170000Y-61420000D02*
X95500000Y-61420000D01*
X94170000Y-62750000D02*
X94170000Y-61420000D01*
X94170000Y-64020000D02*
X94170000Y-64080000D01*
X94170000Y-64020000D02*
X96830000Y-64020000D01*
X94170000Y-64080000D02*
X96830000Y-64080000D01*
X96830000Y-64020000D02*
X96830000Y-64080000D01*
%TO.C,D6*%
X99835000Y-111340000D02*
X102925000Y-111340000D01*
X99835170Y-111339999D02*
G75*
G02*
X101380462Y-105790001I1544830J2559999D01*
G01*
X101379538Y-105790000D02*
G75*
G02*
X102924830Y-111340000I462J-2990000D01*
G01*
X103880000Y-108780000D02*
G75*
G02*
X98880000Y-108780000I-2500000J0D01*
G01*
X98880000Y-108780000D02*
G75*
G02*
X103880000Y-108780000I2500000J0D01*
G01*
%TO.C,J17*%
X138150000Y-83320000D02*
X139480000Y-83320000D01*
X138150000Y-84650000D02*
X138150000Y-83320000D01*
X138150000Y-85920000D02*
X138150000Y-85980000D01*
X138150000Y-85920000D02*
X140810000Y-85920000D01*
X138150000Y-85980000D02*
X140810000Y-85980000D01*
X140810000Y-85920000D02*
X140810000Y-85980000D01*
%TO.C,J16*%
X104170000Y-71420000D02*
X105500000Y-71420000D01*
X104170000Y-72750000D02*
X104170000Y-71420000D01*
X104170000Y-74020000D02*
X104170000Y-74080000D01*
X104170000Y-74020000D02*
X106830000Y-74020000D01*
X104170000Y-74080000D02*
X106830000Y-74080000D01*
X106830000Y-74020000D02*
X106830000Y-74080000D01*
%TO.C,R7*%
X87952936Y-83740000D02*
X89407064Y-83740000D01*
X87952936Y-85560000D02*
X89407064Y-85560000D01*
%TO.C,J15*%
X105130000Y-83320000D02*
X106460000Y-83320000D01*
X105130000Y-84650000D02*
X105130000Y-83320000D01*
X105130000Y-85920000D02*
X105130000Y-85980000D01*
X105130000Y-85920000D02*
X107790000Y-85920000D01*
X105130000Y-85980000D02*
X107790000Y-85980000D01*
X107790000Y-85920000D02*
X107790000Y-85980000D01*
%TO.C,D5*%
X89675000Y-111340000D02*
X92765000Y-111340000D01*
X89675170Y-111339999D02*
G75*
G02*
X91220462Y-105790001I1544830J2559999D01*
G01*
X91219538Y-105790000D02*
G75*
G02*
X92764830Y-111340000I462J-2990000D01*
G01*
X93720000Y-108780000D02*
G75*
G02*
X88720000Y-108780000I-2500000J0D01*
G01*
X88720000Y-108780000D02*
G75*
G02*
X93720000Y-108780000I2500000J0D01*
G01*
%TO.C,J7*%
X90170000Y-61420000D02*
X91500000Y-61420000D01*
X90170000Y-62750000D02*
X90170000Y-61420000D01*
X90170000Y-64020000D02*
X90170000Y-64080000D01*
X90170000Y-64020000D02*
X92830000Y-64020000D01*
X90170000Y-64080000D02*
X92830000Y-64080000D01*
X92830000Y-64020000D02*
X92830000Y-64080000D01*
%TO.C,SW1*%
X130900000Y-106760000D02*
X130900000Y-108260000D01*
X132150000Y-110760000D02*
X136650000Y-110760000D01*
X136650000Y-104260000D02*
X132150000Y-104260000D01*
X137900000Y-108260000D02*
X137900000Y-106760000D01*
%TO.C,C2*%
X103919000Y-44570000D02*
X103919000Y-43830000D01*
X103959000Y-44737000D02*
X103959000Y-43663000D01*
X103999000Y-44864000D02*
X103999000Y-43536000D01*
X104039000Y-44968000D02*
X104039000Y-43432000D01*
X104079000Y-45059000D02*
X104079000Y-43341000D01*
X104119000Y-45140000D02*
X104119000Y-43260000D01*
X104159000Y-45213000D02*
X104159000Y-43187000D01*
X104199000Y-43360000D02*
X104199000Y-43120000D01*
X104199000Y-45280000D02*
X104199000Y-45040000D01*
X104239000Y-43360000D02*
X104239000Y-43058000D01*
X104239000Y-45342000D02*
X104239000Y-45040000D01*
X104279000Y-43360000D02*
X104279000Y-43000000D01*
X104279000Y-45400000D02*
X104279000Y-45040000D01*
X104319000Y-43360000D02*
X104319000Y-42946000D01*
X104319000Y-45454000D02*
X104319000Y-45040000D01*
X104359000Y-43360000D02*
X104359000Y-42896000D01*
X104359000Y-45504000D02*
X104359000Y-45040000D01*
X104399000Y-43360000D02*
X104399000Y-42849000D01*
X104399000Y-45551000D02*
X104399000Y-45040000D01*
X104439000Y-43360000D02*
X104439000Y-42804000D01*
X104439000Y-45596000D02*
X104439000Y-45040000D01*
X104479000Y-43360000D02*
X104479000Y-42762000D01*
X104479000Y-45638000D02*
X104479000Y-45040000D01*
X104519000Y-43360000D02*
X104519000Y-42722000D01*
X104519000Y-45678000D02*
X104519000Y-45040000D01*
X104559000Y-43360000D02*
X104559000Y-42684000D01*
X104559000Y-45716000D02*
X104559000Y-45040000D01*
X104599000Y-43360000D02*
X104599000Y-42648000D01*
X104599000Y-45752000D02*
X104599000Y-45040000D01*
X104639000Y-43360000D02*
X104639000Y-42613000D01*
X104639000Y-45787000D02*
X104639000Y-45040000D01*
X104679000Y-43360000D02*
X104679000Y-42581000D01*
X104679000Y-45819000D02*
X104679000Y-45040000D01*
X104719000Y-43360000D02*
X104719000Y-42550000D01*
X104719000Y-45850000D02*
X104719000Y-45040000D01*
X104759000Y-43360000D02*
X104759000Y-42520000D01*
X104759000Y-45880000D02*
X104759000Y-45040000D01*
X104799000Y-43360000D02*
X104799000Y-42492000D01*
X104799000Y-45908000D02*
X104799000Y-45040000D01*
X104839000Y-43360000D02*
X104839000Y-42465000D01*
X104839000Y-45935000D02*
X104839000Y-45040000D01*
X104879000Y-43360000D02*
X104879000Y-42440000D01*
X104879000Y-45960000D02*
X104879000Y-45040000D01*
X104919000Y-43360000D02*
X104919000Y-42415000D01*
X104919000Y-45985000D02*
X104919000Y-45040000D01*
X104959000Y-43360000D02*
X104959000Y-42392000D01*
X104959000Y-46008000D02*
X104959000Y-45040000D01*
X104999000Y-43360000D02*
X104999000Y-42370000D01*
X104999000Y-46030000D02*
X104999000Y-45040000D01*
X105039000Y-43360000D02*
X105039000Y-42349000D01*
X105039000Y-46051000D02*
X105039000Y-45040000D01*
X105079000Y-43360000D02*
X105079000Y-42330000D01*
X105079000Y-46070000D02*
X105079000Y-45040000D01*
X105119000Y-43360000D02*
X105119000Y-42311000D01*
X105119000Y-46089000D02*
X105119000Y-45040000D01*
X105159000Y-43360000D02*
X105159000Y-42293000D01*
X105159000Y-46107000D02*
X105159000Y-45040000D01*
X105199000Y-43360000D02*
X105199000Y-42276000D01*
X105199000Y-46124000D02*
X105199000Y-45040000D01*
X105239000Y-43360000D02*
X105239000Y-42260000D01*
X105239000Y-46140000D02*
X105239000Y-45040000D01*
X105279000Y-43360000D02*
X105279000Y-42246000D01*
X105279000Y-46154000D02*
X105279000Y-45040000D01*
X105320000Y-43360000D02*
X105320000Y-42232000D01*
X105320000Y-46168000D02*
X105320000Y-45040000D01*
X105360000Y-43360000D02*
X105360000Y-42218000D01*
X105360000Y-46182000D02*
X105360000Y-45040000D01*
X105400000Y-43360000D02*
X105400000Y-42206000D01*
X105400000Y-46194000D02*
X105400000Y-45040000D01*
X105440000Y-43360000D02*
X105440000Y-42195000D01*
X105440000Y-46205000D02*
X105440000Y-45040000D01*
X105480000Y-43360000D02*
X105480000Y-42184000D01*
X105480000Y-46216000D02*
X105480000Y-45040000D01*
X105520000Y-43360000D02*
X105520000Y-42175000D01*
X105520000Y-46225000D02*
X105520000Y-45040000D01*
X105560000Y-43360000D02*
X105560000Y-42166000D01*
X105560000Y-46234000D02*
X105560000Y-45040000D01*
X105600000Y-43360000D02*
X105600000Y-42158000D01*
X105600000Y-46242000D02*
X105600000Y-45040000D01*
X105640000Y-43360000D02*
X105640000Y-42150000D01*
X105640000Y-46250000D02*
X105640000Y-45040000D01*
X105680000Y-43360000D02*
X105680000Y-42144000D01*
X105680000Y-46256000D02*
X105680000Y-45040000D01*
X105720000Y-43360000D02*
X105720000Y-42138000D01*
X105720000Y-46262000D02*
X105720000Y-45040000D01*
X105760000Y-43360000D02*
X105760000Y-42133000D01*
X105760000Y-46267000D02*
X105760000Y-45040000D01*
X105800000Y-43360000D02*
X105800000Y-42129000D01*
X105800000Y-46271000D02*
X105800000Y-45040000D01*
X105840000Y-46274000D02*
X105840000Y-42126000D01*
X105880000Y-46277000D02*
X105880000Y-42123000D01*
X105920000Y-46279000D02*
X105920000Y-42121000D01*
X105960000Y-46280000D02*
X105960000Y-42120000D01*
X106000000Y-46280000D02*
X106000000Y-42120000D01*
X108069801Y-45595000D02*
X108069801Y-45195000D01*
X108269801Y-45395000D02*
X107869801Y-45395000D01*
X108120000Y-44200000D02*
G75*
G02*
X103880000Y-44200000I-2120000J0D01*
G01*
X103880000Y-44200000D02*
G75*
G02*
X108120000Y-44200000I2120000J0D01*
G01*
%TO.C,D2*%
X94492500Y-52315000D02*
X94492500Y-55485000D01*
X94492500Y-55485000D02*
X98552500Y-55485000D01*
X98552500Y-52315000D02*
X94492500Y-52315000D01*
%TO.C,C4*%
X88440000Y-51429437D02*
X88440000Y-54060000D01*
X88440000Y-54060000D02*
X89140000Y-54060000D01*
X89140000Y-50729437D02*
X88440000Y-51429437D01*
X91260000Y-50729437D02*
X91960000Y-51429437D01*
X91635000Y-49925000D02*
X91635000Y-50300000D01*
X91822500Y-50112500D02*
X91447500Y-50112500D01*
X91960000Y-51429437D02*
X91960000Y-54060000D01*
X91960000Y-54060000D02*
X91260000Y-54060000D01*
%TO.C,J1*%
X110180000Y-41180000D02*
X110180000Y-47595000D01*
X110180000Y-41180000D02*
X128420000Y-41180000D01*
X110180000Y-47595000D02*
X109800000Y-47595000D01*
X110180000Y-66140000D02*
X110180000Y-66920000D01*
X110180000Y-66920000D02*
X111180000Y-66920000D01*
X128420000Y-41180000D02*
X128420000Y-47595000D01*
X128420000Y-66140000D02*
X128420000Y-66920000D01*
X128420000Y-66920000D02*
X127420000Y-66920000D01*
D15*
X102300000Y-79900000D02*
X136300000Y-79900000D01*
X136300000Y-26560000D01*
X102300000Y-26560000D01*
X102300000Y-79900000D01*
D17*
%TO.C,U3*%
X109365000Y-61160000D02*
X109365000Y-66460000D01*
X109365000Y-66460000D02*
X129805000Y-66460000D01*
X129805000Y-61160000D02*
X109365000Y-61160000D01*
X129805000Y-62810000D02*
X129805000Y-61160000D01*
X129805000Y-66460000D02*
X129805000Y-64810000D01*
X129805000Y-64810000D02*
G75*
G02*
X129805000Y-62810000I0J1000000D01*
G01*
D15*
%TO.C,J9*%
X81280000Y-58770000D02*
X81280000Y-68930000D01*
X81280000Y-58770000D02*
X88900000Y-58770000D01*
X81280000Y-68930000D02*
X88900000Y-68930000D01*
X83820000Y-63860000D02*
X88900000Y-63850000D01*
X86360000Y-58770000D02*
X81280000Y-58770000D01*
X86360000Y-68930000D02*
X86360000Y-58770000D01*
X88900000Y-68930000D02*
X88900000Y-58770000D01*
D17*
%TO.C,U5*%
X109395000Y-47440000D02*
X109395000Y-49090000D01*
X109395000Y-51090000D02*
X109395000Y-52740000D01*
X109395000Y-52740000D02*
X129835000Y-52740000D01*
X129835000Y-47440000D02*
X109395000Y-47440000D01*
X129835000Y-52740000D02*
X129835000Y-47440000D01*
X109395000Y-49090000D02*
G75*
G02*
X109395000Y-51090000I0J-1000000D01*
G01*
%TO.C,J2*%
X93695000Y-44120000D02*
X93695000Y-46720000D01*
X93695000Y-44120000D02*
X96355000Y-44120000D01*
X93695000Y-46720000D02*
X96355000Y-46720000D01*
X95025000Y-41520000D02*
X96355000Y-41520000D01*
X96355000Y-41520000D02*
X96355000Y-42850000D01*
X96355000Y-44120000D02*
X96355000Y-46720000D01*
%TO.C,J6*%
X102990000Y-75470000D02*
X102990000Y-78130000D01*
X110670000Y-75470000D02*
X102990000Y-75470000D01*
X110670000Y-75470000D02*
X110670000Y-78130000D01*
X110670000Y-78130000D02*
X102990000Y-78130000D01*
X113270000Y-76800000D02*
X113270000Y-78130000D01*
X113270000Y-78130000D02*
X111940000Y-78130000D01*
%TO.C,J10*%
X117430000Y-75470000D02*
X117430000Y-78130000D01*
X125110000Y-75470000D02*
X117430000Y-75470000D01*
X125110000Y-75470000D02*
X125110000Y-78130000D01*
X125110000Y-78130000D02*
X117430000Y-78130000D01*
X127710000Y-76800000D02*
X127710000Y-78130000D01*
X127710000Y-78130000D02*
X126380000Y-78130000D01*
%TO.C,C5*%
X133340000Y-73429437D02*
X133340000Y-76060000D01*
X133340000Y-76060000D02*
X134040000Y-76060000D01*
X134040000Y-72729437D02*
X133340000Y-73429437D01*
X136160000Y-72729437D02*
X136860000Y-73429437D01*
X136535000Y-71925000D02*
X136535000Y-72300000D01*
X136722500Y-72112500D02*
X136347500Y-72112500D01*
X136860000Y-73429437D02*
X136860000Y-76060000D01*
X136860000Y-76060000D02*
X136160000Y-76060000D01*
%TO.C,C3*%
X98230199Y-43005000D02*
X98630199Y-43005000D01*
X98430199Y-42805000D02*
X98430199Y-43205000D01*
X100500000Y-42120000D02*
X100500000Y-46280000D01*
X100540000Y-42120000D02*
X100540000Y-46280000D01*
X100580000Y-42121000D02*
X100580000Y-46279000D01*
X100620000Y-42123000D02*
X100620000Y-46277000D01*
X100660000Y-42126000D02*
X100660000Y-46274000D01*
X100700000Y-42129000D02*
X100700000Y-43360000D01*
X100700000Y-45040000D02*
X100700000Y-46271000D01*
X100740000Y-42133000D02*
X100740000Y-43360000D01*
X100740000Y-45040000D02*
X100740000Y-46267000D01*
X100780000Y-42138000D02*
X100780000Y-43360000D01*
X100780000Y-45040000D02*
X100780000Y-46262000D01*
X100820000Y-42144000D02*
X100820000Y-43360000D01*
X100820000Y-45040000D02*
X100820000Y-46256000D01*
X100860000Y-42150000D02*
X100860000Y-43360000D01*
X100860000Y-45040000D02*
X100860000Y-46250000D01*
X100900000Y-42158000D02*
X100900000Y-43360000D01*
X100900000Y-45040000D02*
X100900000Y-46242000D01*
X100940000Y-42166000D02*
X100940000Y-43360000D01*
X100940000Y-45040000D02*
X100940000Y-46234000D01*
X100980000Y-42175000D02*
X100980000Y-43360000D01*
X100980000Y-45040000D02*
X100980000Y-46225000D01*
X101020000Y-42184000D02*
X101020000Y-43360000D01*
X101020000Y-45040000D02*
X101020000Y-46216000D01*
X101060000Y-42195000D02*
X101060000Y-43360000D01*
X101060000Y-45040000D02*
X101060000Y-46205000D01*
X101100000Y-42206000D02*
X101100000Y-43360000D01*
X101100000Y-45040000D02*
X101100000Y-46194000D01*
X101140000Y-42218000D02*
X101140000Y-43360000D01*
X101140000Y-45040000D02*
X101140000Y-46182000D01*
X101180000Y-42232000D02*
X101180000Y-43360000D01*
X101180000Y-45040000D02*
X101180000Y-46168000D01*
X101221000Y-42246000D02*
X101221000Y-43360000D01*
X101221000Y-45040000D02*
X101221000Y-46154000D01*
X101261000Y-42260000D02*
X101261000Y-43360000D01*
X101261000Y-45040000D02*
X101261000Y-46140000D01*
X101301000Y-42276000D02*
X101301000Y-43360000D01*
X101301000Y-45040000D02*
X101301000Y-46124000D01*
X101341000Y-42293000D02*
X101341000Y-43360000D01*
X101341000Y-45040000D02*
X101341000Y-46107000D01*
X101381000Y-42311000D02*
X101381000Y-43360000D01*
X101381000Y-45040000D02*
X101381000Y-46089000D01*
X101421000Y-42330000D02*
X101421000Y-43360000D01*
X101421000Y-45040000D02*
X101421000Y-46070000D01*
X101461000Y-42349000D02*
X101461000Y-43360000D01*
X101461000Y-45040000D02*
X101461000Y-46051000D01*
X101501000Y-42370000D02*
X101501000Y-43360000D01*
X101501000Y-45040000D02*
X101501000Y-46030000D01*
X101541000Y-42392000D02*
X101541000Y-43360000D01*
X101541000Y-45040000D02*
X101541000Y-46008000D01*
X101581000Y-42415000D02*
X101581000Y-43360000D01*
X101581000Y-45040000D02*
X101581000Y-45985000D01*
X101621000Y-42440000D02*
X101621000Y-43360000D01*
X101621000Y-45040000D02*
X101621000Y-45960000D01*
X101661000Y-42465000D02*
X101661000Y-43360000D01*
X101661000Y-45040000D02*
X101661000Y-45935000D01*
X101701000Y-42492000D02*
X101701000Y-43360000D01*
X101701000Y-45040000D02*
X101701000Y-45908000D01*
X101741000Y-42520000D02*
X101741000Y-43360000D01*
X101741000Y-45040000D02*
X101741000Y-45880000D01*
X101781000Y-42550000D02*
X101781000Y-43360000D01*
X101781000Y-45040000D02*
X101781000Y-45850000D01*
X101821000Y-42581000D02*
X101821000Y-43360000D01*
X101821000Y-45040000D02*
X101821000Y-45819000D01*
X101861000Y-42613000D02*
X101861000Y-43360000D01*
X101861000Y-45040000D02*
X101861000Y-45787000D01*
X101901000Y-42648000D02*
X101901000Y-43360000D01*
X101901000Y-45040000D02*
X101901000Y-45752000D01*
X101941000Y-42684000D02*
X101941000Y-43360000D01*
X101941000Y-45040000D02*
X101941000Y-45716000D01*
X101981000Y-42722000D02*
X101981000Y-43360000D01*
X101981000Y-45040000D02*
X101981000Y-45678000D01*
X102021000Y-42762000D02*
X102021000Y-43360000D01*
X102021000Y-45040000D02*
X102021000Y-45638000D01*
X102061000Y-42804000D02*
X102061000Y-43360000D01*
X102061000Y-45040000D02*
X102061000Y-45596000D01*
X102101000Y-42849000D02*
X102101000Y-43360000D01*
X102101000Y-45040000D02*
X102101000Y-45551000D01*
X102141000Y-42896000D02*
X102141000Y-43360000D01*
X102141000Y-45040000D02*
X102141000Y-45504000D01*
X102181000Y-42946000D02*
X102181000Y-43360000D01*
X102181000Y-45040000D02*
X102181000Y-45454000D01*
X102221000Y-43000000D02*
X102221000Y-43360000D01*
X102221000Y-45040000D02*
X102221000Y-45400000D01*
X102261000Y-43058000D02*
X102261000Y-43360000D01*
X102261000Y-45040000D02*
X102261000Y-45342000D01*
X102301000Y-43120000D02*
X102301000Y-43360000D01*
X102301000Y-45040000D02*
X102301000Y-45280000D01*
X102341000Y-43187000D02*
X102341000Y-45213000D01*
X102381000Y-43260000D02*
X102381000Y-45140000D01*
X102421000Y-43341000D02*
X102421000Y-45059000D01*
X102461000Y-43432000D02*
X102461000Y-44968000D01*
X102501000Y-43536000D02*
X102501000Y-44864000D01*
X102541000Y-43663000D02*
X102541000Y-44737000D01*
X102581000Y-43830000D02*
X102581000Y-44570000D01*
X102620000Y-44200000D02*
G75*
G02*
X98380000Y-44200000I-2120000J0D01*
G01*
X98380000Y-44200000D02*
G75*
G02*
X102620000Y-44200000I2120000J0D01*
G01*
%TO.C,J5*%
X98595000Y-60820000D02*
X98595000Y-63420000D01*
X98595000Y-60820000D02*
X101255000Y-60820000D01*
X98595000Y-63420000D02*
X101255000Y-63420000D01*
X99925000Y-58220000D02*
X101255000Y-58220000D01*
X101255000Y-58220000D02*
X101255000Y-59550000D01*
X101255000Y-60820000D02*
X101255000Y-63420000D01*
%TO.C,J14*%
X137630000Y-64490000D02*
X137630000Y-65760000D01*
X137630000Y-64490000D02*
X138960000Y-64490000D01*
X137630000Y-67030000D02*
X137630000Y-69630000D01*
X137630000Y-67030000D02*
X140290000Y-67030000D01*
X137630000Y-67090000D02*
X140290000Y-67090000D01*
X137630000Y-69570000D02*
X137630000Y-72170000D01*
X137630000Y-69570000D02*
X140290000Y-69570000D01*
X137630000Y-69630000D02*
X140290000Y-69630000D01*
X137630000Y-72170000D02*
X140290000Y-72170000D01*
X140170000Y-64490000D02*
X140170000Y-67090000D01*
X140170000Y-64490000D02*
X142830000Y-64490000D01*
X140170000Y-67030000D02*
X140170000Y-69630000D01*
X140170000Y-67030000D02*
X142830000Y-67030000D01*
X140170000Y-67090000D02*
X142830000Y-67090000D01*
X140170000Y-69570000D02*
X140170000Y-72170000D01*
X140170000Y-69570000D02*
X142830000Y-69570000D01*
X140170000Y-69630000D02*
X142830000Y-69630000D01*
X140170000Y-72170000D02*
X142830000Y-72170000D01*
X140290000Y-64490000D02*
X140290000Y-67090000D01*
X140290000Y-67030000D02*
X140290000Y-69630000D01*
X140290000Y-69570000D02*
X140290000Y-72170000D01*
X142830000Y-64490000D02*
X142830000Y-67090000D01*
X142830000Y-67030000D02*
X142830000Y-69630000D01*
X142830000Y-69570000D02*
X142830000Y-72170000D01*
%TO.C,C1*%
X88120000Y-43260000D02*
X92280000Y-43260000D01*
X88120000Y-43300000D02*
X92280000Y-43300000D01*
X88121000Y-43220000D02*
X92279000Y-43220000D01*
X88123000Y-43180000D02*
X92277000Y-43180000D01*
X88126000Y-43140000D02*
X92274000Y-43140000D01*
X88129000Y-43100000D02*
X89360000Y-43100000D01*
X88133000Y-43060000D02*
X89360000Y-43060000D01*
X88138000Y-43020000D02*
X89360000Y-43020000D01*
X88144000Y-42980000D02*
X89360000Y-42980000D01*
X88150000Y-42940000D02*
X89360000Y-42940000D01*
X88158000Y-42900000D02*
X89360000Y-42900000D01*
X88166000Y-42860000D02*
X89360000Y-42860000D01*
X88175000Y-42820000D02*
X89360000Y-42820000D01*
X88184000Y-42780000D02*
X89360000Y-42780000D01*
X88195000Y-42740000D02*
X89360000Y-42740000D01*
X88206000Y-42700000D02*
X89360000Y-42700000D01*
X88218000Y-42660000D02*
X89360000Y-42660000D01*
X88232000Y-42620000D02*
X89360000Y-42620000D01*
X88246000Y-42579000D02*
X89360000Y-42579000D01*
X88260000Y-42539000D02*
X89360000Y-42539000D01*
X88276000Y-42499000D02*
X89360000Y-42499000D01*
X88293000Y-42459000D02*
X89360000Y-42459000D01*
X88311000Y-42419000D02*
X89360000Y-42419000D01*
X88330000Y-42379000D02*
X89360000Y-42379000D01*
X88349000Y-42339000D02*
X89360000Y-42339000D01*
X88370000Y-42299000D02*
X89360000Y-42299000D01*
X88392000Y-42259000D02*
X89360000Y-42259000D01*
X88415000Y-42219000D02*
X89360000Y-42219000D01*
X88440000Y-42179000D02*
X89360000Y-42179000D01*
X88465000Y-42139000D02*
X89360000Y-42139000D01*
X88492000Y-42099000D02*
X89360000Y-42099000D01*
X88520000Y-42059000D02*
X89360000Y-42059000D01*
X88550000Y-42019000D02*
X89360000Y-42019000D01*
X88581000Y-41979000D02*
X89360000Y-41979000D01*
X88613000Y-41939000D02*
X89360000Y-41939000D01*
X88648000Y-41899000D02*
X89360000Y-41899000D01*
X88684000Y-41859000D02*
X89360000Y-41859000D01*
X88722000Y-41819000D02*
X89360000Y-41819000D01*
X88762000Y-41779000D02*
X89360000Y-41779000D01*
X88804000Y-41739000D02*
X89360000Y-41739000D01*
X88805000Y-45369801D02*
X89205000Y-45369801D01*
X88849000Y-41699000D02*
X89360000Y-41699000D01*
X88896000Y-41659000D02*
X89360000Y-41659000D01*
X88946000Y-41619000D02*
X89360000Y-41619000D01*
X89000000Y-41579000D02*
X89360000Y-41579000D01*
X89005000Y-45569801D02*
X89005000Y-45169801D01*
X89058000Y-41539000D02*
X89360000Y-41539000D01*
X89120000Y-41499000D02*
X89360000Y-41499000D01*
X89187000Y-41459000D02*
X91213000Y-41459000D01*
X89260000Y-41419000D02*
X91140000Y-41419000D01*
X89341000Y-41379000D02*
X91059000Y-41379000D01*
X89432000Y-41339000D02*
X90968000Y-41339000D01*
X89536000Y-41299000D02*
X90864000Y-41299000D01*
X89663000Y-41259000D02*
X90737000Y-41259000D01*
X89830000Y-41219000D02*
X90570000Y-41219000D01*
X91040000Y-41499000D02*
X91280000Y-41499000D01*
X91040000Y-41539000D02*
X91342000Y-41539000D01*
X91040000Y-41579000D02*
X91400000Y-41579000D01*
X91040000Y-41619000D02*
X91454000Y-41619000D01*
X91040000Y-41659000D02*
X91504000Y-41659000D01*
X91040000Y-41699000D02*
X91551000Y-41699000D01*
X91040000Y-41739000D02*
X91596000Y-41739000D01*
X91040000Y-41779000D02*
X91638000Y-41779000D01*
X91040000Y-41819000D02*
X91678000Y-41819000D01*
X91040000Y-41859000D02*
X91716000Y-41859000D01*
X91040000Y-41899000D02*
X91752000Y-41899000D01*
X91040000Y-41939000D02*
X91787000Y-41939000D01*
X91040000Y-41979000D02*
X91819000Y-41979000D01*
X91040000Y-42019000D02*
X91850000Y-42019000D01*
X91040000Y-42059000D02*
X91880000Y-42059000D01*
X91040000Y-42099000D02*
X91908000Y-42099000D01*
X91040000Y-42139000D02*
X91935000Y-42139000D01*
X91040000Y-42179000D02*
X91960000Y-42179000D01*
X91040000Y-42219000D02*
X91985000Y-42219000D01*
X91040000Y-42259000D02*
X92008000Y-42259000D01*
X91040000Y-42299000D02*
X92030000Y-42299000D01*
X91040000Y-42339000D02*
X92051000Y-42339000D01*
X91040000Y-42379000D02*
X92070000Y-42379000D01*
X91040000Y-42419000D02*
X92089000Y-42419000D01*
X91040000Y-42459000D02*
X92107000Y-42459000D01*
X91040000Y-42499000D02*
X92124000Y-42499000D01*
X91040000Y-42539000D02*
X92140000Y-42539000D01*
X91040000Y-42579000D02*
X92154000Y-42579000D01*
X91040000Y-42620000D02*
X92168000Y-42620000D01*
X91040000Y-42660000D02*
X92182000Y-42660000D01*
X91040000Y-42700000D02*
X92194000Y-42700000D01*
X91040000Y-42740000D02*
X92205000Y-42740000D01*
X91040000Y-42780000D02*
X92216000Y-42780000D01*
X91040000Y-42820000D02*
X92225000Y-42820000D01*
X91040000Y-42860000D02*
X92234000Y-42860000D01*
X91040000Y-42900000D02*
X92242000Y-42900000D01*
X91040000Y-42940000D02*
X92250000Y-42940000D01*
X91040000Y-42980000D02*
X92256000Y-42980000D01*
X91040000Y-43020000D02*
X92262000Y-43020000D01*
X91040000Y-43060000D02*
X92267000Y-43060000D01*
X91040000Y-43100000D02*
X92271000Y-43100000D01*
X92320000Y-43300000D02*
G75*
G02*
X88080000Y-43300000I-2120000J0D01*
G01*
X88080000Y-43300000D02*
G75*
G02*
X92320000Y-43300000I2120000J0D01*
G01*
%TO.C,U7*%
D15*
X90000000Y-78100000D02*
X100000000Y-78100000D01*
X100000000Y-65100000D01*
X90000000Y-65100000D01*
X90000000Y-78100000D01*
X93160147Y-66900000D02*
G75*
G02*
X90439853Y-66900000I-1360147J0D01*
G01*
X90439853Y-66900000D02*
G75*
G02*
X93160147Y-66900000I1360147J0D01*
G01*
D17*
%TO.C,U4*%
X81484000Y-47190000D02*
X81484000Y-57430000D01*
X84615000Y-47190000D02*
X84615000Y-57430000D01*
X86125000Y-47190000D02*
X81484000Y-47190000D01*
X86125000Y-47190000D02*
X86125000Y-57430000D01*
X86125000Y-50460000D02*
X84615000Y-50460000D01*
X86125000Y-54161000D02*
X84615000Y-54161000D01*
X86125000Y-57430000D02*
X81484000Y-57430000D01*
%TO.C,D1*%
X94540000Y-48415000D02*
X94540000Y-51585000D01*
X94540000Y-51585000D02*
X98600000Y-51585000D01*
X98600000Y-48415000D02*
X94540000Y-48415000D01*
D15*
%TO.C,J8*%
X81280000Y-68930000D02*
X81280000Y-79090000D01*
X81280000Y-68930000D02*
X88900000Y-68930000D01*
X81280000Y-79090000D02*
X88900000Y-79090000D01*
X83820000Y-74020000D02*
X88900000Y-74010000D01*
X86360000Y-68930000D02*
X81280000Y-68930000D01*
X86360000Y-79090000D02*
X86360000Y-68930000D01*
X88900000Y-79090000D02*
X88900000Y-68930000D01*
%TD*%
M02*
