M48
; DRILL file {KiCad 9.0.6} date 2026-02-24T23:58:33-0500
; FORMAT={-:-/ absolute / metric / decimal}
; #@! TF.CreationDate,2026-02-24T23:58:33-05:00
; #@! TF.GenerationSoftware,Kicad,Pcbnew,9.0.6
; #@! TF.FileFunction,Plated,1,2,PTH
FMAT,2
METRIC
; #@! TA.AperFunction,Plated,PTH,ViaDrill
T1C0.381
; #@! TA.AperFunction,Plated,PTH,ComponentDrill
T2C0.400
; #@! TA.AperFunction,Plated,PTH,ViaDrill
T3C0.635
; #@! TA.AperFunction,Plated,PTH,ComponentDrill
T4C0.900
; #@! TA.AperFunction,Plated,PTH,ComponentDrill
T5C1.000
; #@! TA.AperFunction,Plated,PTH,ComponentDrill
T6C1.200
; #@! TA.AperFunction,Plated,PTH,ComponentDrill
T7C1.300
; #@! TA.AperFunction,Plated,PTH,ComponentDrill
T8C1.600
%
G90
G05
T1
X72.75Y-126.25
X75.0Y-126.25
X77.25Y-126.25
X79.5Y-121.75
X79.5Y-124.0
X79.5Y-126.25
X81.6Y-79.2
X81.75Y-121.75
X81.75Y-124.0
X81.75Y-126.25
X84.0Y-121.75
X84.0Y-124.0
X84.0Y-126.25
X86.25Y-121.75
X86.25Y-124.0
X86.25Y-126.25
X88.5Y-121.75
X88.5Y-124.0
X88.5Y-126.25
X93.0Y-111.0
X93.0Y-113.25
X95.25Y-108.75
X95.417Y-111.0
X95.417Y-113.25
X97.75Y-106.5
X97.75Y-108.75
X97.833Y-111.0
X97.833Y-113.25
X98.05Y-89.45
X100.25Y-104.25
X100.25Y-106.5
X100.25Y-108.75
X100.25Y-111.0
X100.25Y-113.25
X102.0Y-30.25
X104.25Y-30.25
X104.6Y-95.8
X106.5Y-30.25
X108.5Y-86.5
X108.75Y-30.25
X111.0Y-30.25
X112.5Y-33.0
X112.5Y-35.438
X112.5Y-37.875
X112.5Y-40.312
X112.5Y-42.75
X113.0Y-65.0
X113.0Y-67.438
X113.0Y-69.875
X113.0Y-72.312
X113.0Y-74.75
X113.0Y-83.25
X113.0Y-85.688
X113.0Y-88.125
X113.0Y-90.562
X113.0Y-93.0
X113.0Y-115.25
X113.0Y-117.688
X113.0Y-120.125
X113.0Y-122.562
X113.0Y-125.0
X113.7Y-109.5
X114.0Y-33.0
X114.0Y-35.438
X114.0Y-37.875
X114.0Y-40.312
X114.0Y-42.75
X114.5Y-65.0
X114.5Y-67.438
X114.5Y-69.875
X114.5Y-72.312
X114.5Y-74.75
X114.5Y-83.25
X114.5Y-85.688
X114.5Y-88.125
X114.5Y-90.562
X114.5Y-93.0
X114.5Y-115.25
X114.5Y-117.688
X114.5Y-120.125
X114.5Y-122.562
X114.5Y-125.0
X119.65Y-57.8
X121.911Y-35.3
X121.911Y-37.8
X121.911Y-40.3
X121.911Y-117.175
X121.911Y-119.675
X121.911Y-122.175
X122.236Y-86.0
X122.236Y-88.5
X122.236Y-91.0
X122.436Y-66.7
X122.436Y-69.2
X122.436Y-71.7
X125.236Y-86.0
X125.236Y-88.5
X125.236Y-91.0
X125.411Y-35.3
X125.411Y-40.3
X125.411Y-117.175
X125.411Y-122.175
X125.436Y-37.875
X125.436Y-66.7
X125.436Y-69.2
X125.436Y-71.7
X125.436Y-119.75
X125.55Y-59.1
X128.236Y-86.0
X128.236Y-88.5
X128.236Y-91.0
X128.411Y-35.3
X128.411Y-37.8
X128.411Y-40.3
X128.411Y-117.175
X128.411Y-119.675
X128.411Y-122.175
X128.436Y-66.7
X128.436Y-69.2
X128.436Y-71.7
X129.2Y-103.95
X129.2Y-108.95
X135.5Y-106.5
X136.0Y-33.0
X136.0Y-35.438
X136.0Y-37.875
X136.0Y-40.312
X136.0Y-42.75
X136.25Y-83.25
X136.25Y-85.688
X136.25Y-88.125
X136.25Y-90.562
X136.25Y-93.0
X136.5Y-65.0
X136.5Y-67.438
X136.5Y-69.875
X136.5Y-72.312
X136.5Y-74.75
X136.5Y-115.25
X136.5Y-117.688
X136.5Y-120.125
X136.5Y-122.562
X136.5Y-125.0
X137.5Y-33.0
X137.5Y-35.438
X137.5Y-37.875
X137.5Y-40.312
X137.5Y-42.75
X137.75Y-83.25
X137.75Y-85.688
X137.75Y-88.125
X137.75Y-90.562
X137.75Y-93.0
X138.0Y-65.0
X138.0Y-67.438
X138.0Y-69.875
X138.0Y-72.312
X138.0Y-74.75
X138.0Y-115.25
X138.0Y-117.688
X138.0Y-120.125
X138.0Y-122.562
X138.0Y-125.0
X139.5Y-30.5
X141.75Y-30.5
X143.0Y-104.0
X143.0Y-109.0
X143.0Y-114.0
X144.0Y-30.5
X146.25Y-30.5
X148.5Y-30.5
X150.75Y-30.5
X153.0Y-126.5
X160.5Y-101.5
X160.5Y-106.5
X160.5Y-111.5
X160.5Y-116.5
X160.5Y-121.5
T3
X66.0Y-49.933
X66.0Y-52.067
X66.0Y-54.2
X77.95Y-31.0
X80.083Y-31.0
X82.217Y-31.0
X84.35Y-31.0
T4
X69.4Y-48.0
X69.4Y-52.0
X69.4Y-56.0
T5
X71.55Y-103.65
X72.4Y-70.2
X74.95Y-123.4
X78.2Y-86.4
X85.9Y-105.25
X93.86Y-52.6
X96.4Y-52.6
X100.5Y-52.6
X100.9Y-94.45
X106.45Y-64.8
X153.2Y-32.4
X159.0Y-62.5
X159.0Y-95.5
T6
X65.15Y-46.0
X65.15Y-58.0
X68.5Y-112.1
X68.5Y-114.6
X68.5Y-117.1
X71.0Y-112.1
X71.0Y-114.6
X71.0Y-117.1
X71.15Y-46.0
X71.15Y-58.0
X96.2Y-116.882
X100.2Y-121.382
X104.2Y-118.132
T7
X92.65Y-34.645
X92.65Y-39.725
X97.72Y-34.645
X97.72Y-39.725
X152.27Y-69.96
X152.27Y-75.04
X152.27Y-83.96
X152.27Y-89.04
X157.35Y-69.96
X157.35Y-75.04
X157.35Y-83.96
X157.35Y-89.04
T8
X76.55Y-40.15
X81.25Y-37.15
X81.25Y-43.15
T2
G00X67.5Y-78.7
M15
G01X67.5Y-79.7
M16
G05
G00X73.0Y-74.2
M15
G01X72.0Y-74.2
M16
G05
G00X72.0Y-84.2
M15
G01X73.0Y-84.2
M16
G05
M30
