M48
; DRILL file {KiCad 9.0.6} date 2026-02-27T15:09:59-0500
; FORMAT={-:-/ absolute / metric / decimal}
; #@! TF.CreationDate,2026-02-27T15:09:59-05:00
; #@! TF.GenerationSoftware,Kicad,Pcbnew,9.0.6
; #@! TF.FileFunction,Plated,1,2,PTH
FMAT,2
METRIC
; #@! TA.AperFunction,Plated,PTH,ComponentDrill
T1C0.025
; #@! TA.AperFunction,Plated,PTH,ComponentDrill
T2C0.200
; #@! TA.AperFunction,Plated,PTH,ViaDrill
T3C0.300
; #@! TA.AperFunction,Plated,PTH,ComponentDrill
T4C0.406
; #@! TA.AperFunction,Plated,PTH,ComponentDrill
T5C0.990
; #@! TA.AperFunction,Plated,PTH,ViaDrill
T6C1.000
; #@! TA.AperFunction,Plated,PTH,ComponentDrill
T7C1.000
; #@! TA.AperFunction,Plated,PTH,ComponentDrill
T8C1.016
; #@! TA.AperFunction,Plated,PTH,ComponentDrill
T9C1.300
%
G90
G05
T1
X72.453Y-102.314
X72.453Y-110.964
X75.838Y-102.314
X75.838Y-110.964
T2
X129.06Y-129.375
X129.06Y-130.875
X129.81Y-128.625
X129.81Y-130.125
X129.81Y-131.625
X130.56Y-129.375
X130.56Y-130.875
X131.31Y-128.625
X131.31Y-130.125
X131.31Y-131.625
X132.06Y-129.375
X132.06Y-130.875
T3
X76.15Y-144.75
X87.65Y-112.0
X91.6Y-104.0
X92.8Y-104.0
X93.9Y-104.0
X95.0Y-104.0
X98.2Y-115.0
X99.4Y-115.0
X100.5Y-115.0
X101.6Y-115.0
X106.892Y-118.992
X109.581Y-117.181
X109.65Y-119.275
X110.15Y-118.541
X110.153Y-117.741
X112.65Y-104.0
X114.9Y-126.25
X115.7Y-140.5
X116.0Y-107.75
X116.625Y-142.675
X118.525Y-120.125
X119.1Y-114.1
X119.1Y-115.3
X119.1Y-116.4
X119.1Y-117.5
X119.895Y-131.995
X119.9Y-128.185
X119.9Y-129.455
X119.9Y-130.725
X120.07Y-120.83
X120.15Y-119.25
X121.15Y-126.05
X121.75Y-115.5
X122.55Y-115.5
X122.75Y-126.5
X123.35Y-115.5
X123.65Y-106.75
X124.15Y-115.5
X124.15Y-127.8
X124.9Y-128.55
X125.124Y-115.526
X126.007Y-115.526
X126.807Y-115.5
X127.65Y-115.5
X129.4Y-136.75
X130.15Y-137.5
T4
X75.468Y-103.664
X75.468Y-104.514
X75.468Y-105.364
X75.468Y-106.214
X75.468Y-107.064
X75.468Y-107.914
X75.468Y-108.764
X75.468Y-109.614
X76.818Y-103.664
X76.818Y-104.514
X76.818Y-105.364
X76.818Y-106.214
X76.818Y-107.064
X76.818Y-107.914
X76.818Y-108.764
X76.818Y-109.614
T5
X72.01Y-142.51
X72.01Y-147.01
X132.537Y-106.525
X132.537Y-111.025
T6
X75.35Y-135.9
X75.35Y-138.4
X102.9Y-123.25
X105.4Y-136.0
X108.15Y-138.5
X110.4Y-141.0
X135.15Y-127.833
X135.15Y-130.167
X135.15Y-132.5
X135.15Y-134.833
T7
X72.65Y-127.0
X72.65Y-129.54
X72.65Y-132.08
X89.275Y-148.2
X91.815Y-148.2
T8
X87.696Y-101.99
X90.236Y-101.99
X92.776Y-101.99
X95.316Y-101.99
X96.84Y-147.71
X96.84Y-150.25
X97.856Y-101.99
X99.38Y-147.71
X99.38Y-150.25
X100.396Y-101.99
X101.92Y-147.71
X101.92Y-150.25
X102.936Y-101.99
X104.46Y-147.71
X104.46Y-150.25
X105.476Y-101.99
X107.0Y-147.71
X107.0Y-150.25
X108.016Y-101.99
X109.54Y-147.71
X109.54Y-150.25
X110.556Y-101.99
X112.08Y-147.71
X112.08Y-150.25
X114.62Y-101.99
X114.62Y-104.53
X114.62Y-147.71
X114.62Y-150.25
X117.16Y-101.99
X117.16Y-104.53
X119.7Y-101.99
X119.7Y-104.53
X119.7Y-147.71
X119.7Y-150.25
X122.24Y-101.99
X122.24Y-104.53
X122.24Y-147.71
X122.24Y-150.25
X124.78Y-101.99
X124.78Y-104.53
X124.78Y-147.71
X124.78Y-150.25
X127.32Y-101.99
X127.32Y-147.71
X127.32Y-150.25
X129.86Y-101.99
X129.86Y-147.71
X129.86Y-150.25
X132.4Y-101.99
X132.4Y-150.25
T9
X74.5Y-141.25
X74.5Y-148.26
X130.047Y-105.275
X130.047Y-112.285
T7
G00X76.4Y-118.75
M15
G01X76.4Y-116.75
M16
G05
G00X80.4Y-122.45
M15
G01X78.4Y-122.45
M16
G05
G00X82.4Y-119.0
M15
G01X82.4Y-116.5
M16
G05
M30
