%TF.GenerationSoftware,KiCad,Pcbnew,9.0.6*%
%TF.CreationDate,2026-02-27T15:10:02-05:00*%
%TF.ProjectId,ESP32-Uno-Board-v2,45535033-322d-4556-9e6f-2d426f617264,rev?*%
%TF.SameCoordinates,Original*%
%TF.FileFunction,Soldermask,Top*%
%TF.FilePolarity,Negative*%
%FSLAX46Y46*%
G04 Gerber Fmt 4.6, Leading zero omitted, Abs format (unit mm)*
G04 Created by KiCad (PCBNEW 9.0.6) date 2026-02-27 15:10:02*
%MOMM*%
%LPD*%
G01*
G04 APERTURE LIST*
G04 Aperture macros list*
%AMRoundRect*
0 Rectangle with rounded corners*
0 $1 Rounding radius*
0 $2 $3 $4 $5 $6 $7 $8 $9 X,Y pos of 4 corners*
0 Add a 4 corners polygon primitive as box body*
4,1,4,$2,$3,$4,$5,$6,$7,$8,$9,$2,$3,0*
0 Add four circle primitives for the rounded corners*
1,1,$1+$1,$2,$3*
1,1,$1+$1,$4,$5*
1,1,$1+$1,$6,$7*
1,1,$1+$1,$8,$9*
0 Add four rect primitives between the rounded corners*
20,1,$1+$1,$2,$3,$4,$5,0*
20,1,$1+$1,$4,$5,$6,$7,0*
20,1,$1+$1,$6,$7,$8,$9,0*
20,1,$1+$1,$8,$9,$2,$3,0*%
G04 Aperture macros list end*
%ADD10R,0.855600X1.600000*%
%ADD11RoundRect,0.250000X0.350000X-0.850000X0.350000X0.850000X-0.350000X0.850000X-0.350000X-0.850000X0*%
%ADD12RoundRect,0.249997X2.650003X-2.950003X2.650003X2.950003X-2.650003X2.950003X-2.650003X-2.950003X0*%
%ADD13C,1.500000*%
%ADD14RoundRect,0.250000X-0.400000X-0.625000X0.400000X-0.625000X0.400000X0.625000X-0.400000X0.625000X0*%
%ADD15R,3.149600X1.219200*%
%ADD16R,1.600200X2.108200*%
%ADD17RoundRect,0.250000X0.625000X-0.400000X0.625000X0.400000X-0.625000X0.400000X-0.625000X-0.400000X0*%
%ADD18C,3.200000*%
%ADD19O,1.727200X1.727200*%
%ADD20R,1.727200X1.727200*%
%ADD21R,1.700000X1.700000*%
%ADD22O,1.700000X1.700000*%
%ADD23RoundRect,0.375000X0.625000X0.375000X-0.625000X0.375000X-0.625000X-0.375000X0.625000X-0.375000X0*%
%ADD24RoundRect,0.500000X0.500000X1.400000X-0.500000X1.400000X-0.500000X-1.400000X0.500000X-1.400000X0*%
%ADD25RoundRect,0.102000X-0.450000X0.750000X-0.450000X-0.750000X0.450000X-0.750000X0.450000X0.750000X0*%
%ADD26RoundRect,0.102000X-0.500000X0.500000X-0.500000X-0.500000X0.500000X-0.500000X0.500000X0.500000X0*%
%ADD27RoundRect,0.102000X-0.750000X0.450000X-0.750000X-0.450000X0.750000X-0.450000X0.750000X0.450000X0*%
%ADD28RoundRect,0.250000X0.400000X0.625000X-0.400000X0.625000X-0.400000X-0.625000X0.400000X-0.625000X0*%
%ADD29O,2.704000X5.204000*%
%ADD30O,2.454000X4.704000*%
%ADD31O,4.704000X2.454000*%
%ADD32C,2.100000*%
%ADD33C,1.750000*%
%ADD34C,0.660400*%
%ADD35O,1.905000X1.117600*%
%ADD36O,2.616200X1.117600*%
%ADD37R,2.260600X1.879600*%
G04 APERTURE END LIST*
D10*
%TO.C,C2*%
X96372199Y-119250000D03*
X99427801Y-119250000D03*
%TD*%
D11*
%TO.C,Q1*%
X87150000Y-123250000D03*
D12*
X89430000Y-116950000D03*
D11*
X91710000Y-123250000D03*
%TD*%
D13*
%TO.C,TP2*%
X118650000Y-109800000D03*
%TD*%
D14*
%TO.C,R6*%
X88350000Y-144750000D03*
X91450000Y-144750000D03*
%TD*%
D15*
%TO.C,C1*%
X95470300Y-128750000D03*
X100829700Y-128750000D03*
%TD*%
D16*
%TO.C,SW2*%
X112150000Y-129250000D03*
X112150000Y-119979000D03*
%TD*%
D17*
%TO.C,R5*%
X121950000Y-111100000D03*
X121950000Y-108000000D03*
%TD*%
D18*
%TO.C,A2*%
X82870000Y-150250000D03*
X84140000Y-101990000D03*
X134940000Y-117230000D03*
X134940000Y-145170000D03*
D19*
X104460000Y-147710000D03*
X104460000Y-150250000D03*
X107000000Y-147710000D03*
X107000000Y-150250000D03*
X119700000Y-150250000D03*
X122240000Y-150250000D03*
X124780000Y-150250000D03*
X127320000Y-150250000D03*
X129860000Y-150250000D03*
X132400000Y-150250000D03*
X92776000Y-101990000D03*
X96840000Y-150250000D03*
X132400000Y-101990000D03*
X129860000Y-101990000D03*
X127320000Y-101990000D03*
X124780000Y-101990000D03*
X122240000Y-101990000D03*
X119700000Y-101990000D03*
X117160000Y-101990000D03*
X114620000Y-101990000D03*
X110556000Y-101990000D03*
X108016000Y-101990000D03*
X105476000Y-101990000D03*
X102936000Y-101990000D03*
X100396000Y-101990000D03*
X97856000Y-101990000D03*
X124780000Y-104530000D03*
X122240000Y-104530000D03*
X119700000Y-104530000D03*
X117160000Y-104530000D03*
X114620000Y-104530000D03*
X129860000Y-147710000D03*
X127320000Y-147710000D03*
X124780000Y-147710000D03*
X122240000Y-147710000D03*
X119700000Y-147710000D03*
D20*
X95316000Y-101990000D03*
X109540000Y-150250000D03*
X112080000Y-150250000D03*
X109540000Y-147710000D03*
X112080000Y-147710000D03*
D19*
X99380000Y-150250000D03*
X101920000Y-147710000D03*
X99380000Y-147710000D03*
X96840000Y-147710000D03*
X101920000Y-150250000D03*
X87696000Y-101990000D03*
X90236000Y-101990000D03*
X114620000Y-147710000D03*
X114620000Y-150250000D03*
%TD*%
D21*
%TO.C,D2*%
X89275000Y-148200000D03*
D22*
X91815000Y-148200000D03*
%TD*%
D23*
%TO.C,U3*%
X102300000Y-141300000D03*
X102300000Y-139000000D03*
X102300000Y-136700000D03*
D24*
X96000000Y-139000000D03*
%TD*%
D14*
%TO.C,R1*%
X80650000Y-107500000D03*
X83750000Y-107500000D03*
%TD*%
D21*
%TO.C,SW1*%
X72650000Y-132080000D03*
D22*
X72650000Y-129540000D03*
X72650000Y-127000000D03*
%TD*%
D23*
%TO.C,U2*%
X85400000Y-141550000D03*
X85400000Y-139250000D03*
X85400000Y-136950000D03*
D24*
X79100000Y-139250000D03*
%TD*%
D25*
%TO.C,U1*%
X135910000Y-122735000D03*
D26*
X132060000Y-128625000D03*
X130560000Y-128625000D03*
X129060000Y-128625000D03*
X132060000Y-130125000D03*
X129060000Y-130125000D03*
X132060000Y-131625000D03*
X130560000Y-131625000D03*
X129060000Y-131625000D03*
D25*
X134640000Y-122735000D03*
X133370000Y-122735000D03*
X132100000Y-122735000D03*
X130830000Y-122735000D03*
X129560000Y-122735000D03*
X128290000Y-122735000D03*
X127020000Y-122735000D03*
X125750000Y-122735000D03*
X124480000Y-122735000D03*
X123210000Y-122735000D03*
X121940000Y-122735000D03*
X120670000Y-122735000D03*
X119400000Y-122735000D03*
D27*
X118150000Y-124500000D03*
X118150000Y-125770000D03*
X118150000Y-127040000D03*
X118150000Y-128310000D03*
X118150000Y-129580000D03*
X118150000Y-130850000D03*
X118150000Y-132120000D03*
X118150000Y-133390000D03*
X118150000Y-134660000D03*
X118150000Y-135930000D03*
X118150000Y-137200000D03*
X118150000Y-138470000D03*
D25*
X119400000Y-140235000D03*
X120670000Y-140235000D03*
X121940000Y-140235000D03*
X123210000Y-140235000D03*
X124480000Y-140235000D03*
X125750000Y-140235000D03*
X127020000Y-140235000D03*
X128290000Y-140235000D03*
X129560000Y-140235000D03*
X130830000Y-140235000D03*
X132100000Y-140235000D03*
X133370000Y-140235000D03*
X134640000Y-140235000D03*
X135910000Y-140235000D03*
D26*
X130560000Y-130125000D03*
%TD*%
D28*
%TO.C,R4*%
X84200000Y-144750000D03*
X81100000Y-144750000D03*
%TD*%
D13*
%TO.C,TP1*%
X72650000Y-136250000D03*
%TD*%
D29*
%TO.C,J2*%
X82400000Y-117750000D03*
D30*
X76400000Y-117750000D03*
D31*
X79400000Y-122450000D03*
%TD*%
D32*
%TO.C,BTN3*%
X130047500Y-105275000D03*
X130047500Y-112285000D03*
D33*
X132537500Y-106525000D03*
X132537500Y-111025000D03*
%TD*%
D32*
%TO.C,BTN4*%
X74500000Y-148260000D03*
X74500000Y-141250000D03*
D33*
X72010000Y-147010000D03*
X72010000Y-142510000D03*
%TD*%
D10*
%TO.C,C3*%
X99427801Y-123250000D03*
X96372199Y-123250000D03*
%TD*%
D14*
%TO.C,R2*%
X80600000Y-111000000D03*
X83700000Y-111000000D03*
%TD*%
D28*
%TO.C,R3*%
X81950000Y-127500000D03*
X78850000Y-127500000D03*
%TD*%
D34*
%TO.C,J1*%
X76817566Y-103664444D03*
X76817566Y-104514445D03*
X76817566Y-105364443D03*
X76817566Y-106214444D03*
X76817566Y-107064445D03*
X76817566Y-107914446D03*
X76817566Y-108764444D03*
X76817566Y-109614445D03*
X75467566Y-109614445D03*
X75467566Y-108764444D03*
X75467566Y-107914446D03*
X75467566Y-107064445D03*
X75467566Y-106214444D03*
X75467566Y-105364443D03*
X75467566Y-104514445D03*
X75467566Y-103664444D03*
D35*
X72452566Y-102314459D03*
X72452566Y-110964429D03*
D36*
X75837565Y-102314444D03*
X75837566Y-110964429D03*
%TD*%
D37*
%TO.C,D1*%
X87150000Y-131803400D03*
X87150000Y-127485400D03*
%TD*%
M02*
