%TF.GenerationSoftware,KiCad,Pcbnew,8.0.4*%
%TF.CreationDate,2024-07-28T00:02:18-04:00*%
%TF.ProjectId,ESP32-C3-WROOM-Node-Temperature,45535033-322d-4433-932d-57524f4f4d2d,rev?*%
%TF.SameCoordinates,Original*%
%TF.FileFunction,Copper,L2,Bot*%
%TF.FilePolarity,Positive*%
%FSLAX46Y46*%
G04 Gerber Fmt 4.6, Leading zero omitted, Abs format (unit mm)*
G04 Created by KiCad (PCBNEW 8.0.4) date 2024-07-28 00:02:18*
%MOMM*%
%LPD*%
G01*
G04 APERTURE LIST*
G04 Aperture macros list*
%AMRoundRect*
0 Rectangle with rounded corners*
0 $1 Rounding radius*
0 $2 $3 $4 $5 $6 $7 $8 $9 X,Y pos of 4 corners*
0 Add a 4 corners polygon primitive as box body*
4,1,4,$2,$3,$4,$5,$6,$7,$8,$9,$2,$3,0*
0 Add four circle primitives for the rounded corners*
1,1,$1+$1,$2,$3*
1,1,$1+$1,$4,$5*
1,1,$1+$1,$6,$7*
1,1,$1+$1,$8,$9*
0 Add four rect primitives between the rounded corners*
20,1,$1+$1,$2,$3,$4,$5,0*
20,1,$1+$1,$4,$5,$6,$7,0*
20,1,$1+$1,$6,$7,$8,$9,0*
20,1,$1+$1,$8,$9,$2,$3,0*%
%AMOutline5P*
0 Free polygon, 5 corners , with rotation*
0 The origin of the aperture is its center*
0 number of corners: always 5*
0 $1 to $10 corner X, Y*
0 $11 Rotation angle, in degrees counterclockwise*
0 create outline with 5 corners*
4,1,5,$1,$2,$3,$4,$5,$6,$7,$8,$9,$10,$1,$2,$11*%
%AMOutline6P*
0 Free polygon, 6 corners , with rotation*
0 The origin of the aperture is its center*
0 number of corners: always 6*
0 $1 to $12 corner X, Y*
0 $13 Rotation angle, in degrees counterclockwise*
0 create outline with 6 corners*
4,1,6,$1,$2,$3,$4,$5,$6,$7,$8,$9,$10,$11,$12,$1,$2,$13*%
%AMOutline7P*
0 Free polygon, 7 corners , with rotation*
0 The origin of the aperture is its center*
0 number of corners: always 7*
0 $1 to $14 corner X, Y*
0 $15 Rotation angle, in degrees counterclockwise*
0 create outline with 7 corners*
4,1,7,$1,$2,$3,$4,$5,$6,$7,$8,$9,$10,$11,$12,$13,$14,$1,$2,$15*%
%AMOutline8P*
0 Free polygon, 8 corners , with rotation*
0 The origin of the aperture is its center*
0 number of corners: always 8*
0 $1 to $16 corner X, Y*
0 $17 Rotation angle, in degrees counterclockwise*
0 create outline with 8 corners*
4,1,8,$1,$2,$3,$4,$5,$6,$7,$8,$9,$10,$11,$12,$13,$14,$15,$16,$1,$2,$17*%
G04 Aperture macros list end*
%TA.AperFunction,ComponentPad*%
%ADD10R,1.300000X1.300000*%
%TD*%
%TA.AperFunction,ComponentPad*%
%ADD11C,1.300000*%
%TD*%
%TA.AperFunction,ComponentPad*%
%ADD12O,2.000000X3.000000*%
%TD*%
%TA.AperFunction,ComponentPad*%
%ADD13R,1.524000X1.524000*%
%TD*%
%TA.AperFunction,ComponentPad*%
%ADD14C,1.524000*%
%TD*%
%TA.AperFunction,ComponentPad*%
%ADD15R,1.700000X1.700000*%
%TD*%
%TA.AperFunction,ComponentPad*%
%ADD16O,1.700000X1.700000*%
%TD*%
%TA.AperFunction,ComponentPad*%
%ADD17Outline5P,-0.850000X0.425000X-0.425000X0.850000X0.850000X0.850000X0.850000X-0.850000X-0.850000X-0.850000X90.000000*%
%TD*%
%TA.AperFunction,ComponentPad*%
%ADD18C,5.000000*%
%TD*%
%TA.AperFunction,ComponentPad*%
%ADD19R,1.905000X2.000000*%
%TD*%
%TA.AperFunction,ComponentPad*%
%ADD20O,1.905000X2.000000*%
%TD*%
%TA.AperFunction,ComponentPad*%
%ADD21R,3.000000X2.000000*%
%TD*%
%TA.AperFunction,ComponentPad*%
%ADD22O,3.000000X2.000000*%
%TD*%
%TA.AperFunction,ComponentPad*%
%ADD23O,1.500000X1.000000*%
%TD*%
%TA.AperFunction,ComponentPad*%
%ADD24O,1.000000X1.000000*%
%TD*%
%TA.AperFunction,ComponentPad*%
%ADD25R,1.500000X1.500000*%
%TD*%
%TA.AperFunction,ComponentPad*%
%ADD26C,1.600000*%
%TD*%
%TA.AperFunction,SMDPad,CuDef*%
%ADD27RoundRect,0.250000X-0.724784X-0.159099X-0.159099X-0.724784X0.724784X0.159099X0.159099X0.724784X0*%
%TD*%
%TA.AperFunction,SMDPad,CuDef*%
%ADD28RoundRect,0.375000X0.625000X0.375000X-0.625000X0.375000X-0.625000X-0.375000X0.625000X-0.375000X0*%
%TD*%
%TA.AperFunction,SMDPad,CuDef*%
%ADD29RoundRect,0.500000X0.500000X1.400000X-0.500000X1.400000X-0.500000X-1.400000X0.500000X-1.400000X0*%
%TD*%
%TA.AperFunction,SMDPad,CuDef*%
%ADD30RoundRect,0.250000X0.724784X0.159099X0.159099X0.724784X-0.724784X-0.159099X-0.159099X-0.724784X0*%
%TD*%
%TA.AperFunction,ViaPad*%
%ADD31C,0.600000*%
%TD*%
%TA.AperFunction,Conductor*%
%ADD32C,0.200000*%
%TD*%
%TA.AperFunction,Conductor*%
%ADD33C,0.500000*%
%TD*%
%TA.AperFunction,Conductor*%
%ADD34C,0.250000*%
%TD*%
%TA.AperFunction,Conductor*%
%ADD35C,1.000000*%
%TD*%
G04 APERTURE END LIST*
D10*
%TO.P,Q1,1,C*%
%TO.N,+3V3*%
X145830000Y-76830000D03*
D11*
%TO.P,Q1,2,B*%
%TO.N,Net-(D1-AG)*%
X147100000Y-78100000D03*
%TO.P,Q1,3,E*%
%TO.N,Net-(Q1-E)*%
X145830000Y-79370000D03*
%TD*%
D12*
%TO.P,J3,1,Pin_1*%
%TO.N,/NC*%
X136800000Y-92800000D03*
%TO.P,J3,2,Pin_2*%
%TO.N,/COM*%
X131720000Y-92800000D03*
%TD*%
D13*
%TO.P,J4,GND,GND*%
%TO.N,GND*%
X147600000Y-95800000D03*
D14*
%TO.P,J4,SCL,SCL*%
%TO.N,/SCL*%
X155220000Y-95800000D03*
%TO.P,J4,SDA,SDA*%
%TO.N,/SDA*%
X152680000Y-95800000D03*
%TO.P,J4,Vcc,VCC*%
%TO.N,+3V3*%
X150140000Y-95800000D03*
%TD*%
D13*
%TO.P,U3,1,3V3*%
%TO.N,+3V3*%
X162100000Y-88960000D03*
D14*
%TO.P,U3,2,GND*%
%TO.N,GND*%
X162100000Y-91500000D03*
%TO.P,U3,3,SCL*%
%TO.N,/SCL*%
X162100000Y-94040000D03*
%TO.P,U3,4,SDA*%
%TO.N,/SDA*%
X162100000Y-96580000D03*
%TD*%
D15*
%TO.P,J1,1,Pin_1*%
%TO.N,GND*%
X113775000Y-89750000D03*
D16*
%TO.P,J1,2,Pin_2*%
%TO.N,Net-(J1-Pin_2)*%
X113775000Y-87210000D03*
%TD*%
D17*
%TO.P,U1,1,GPIO5*%
%TO.N,unconnected-(U1-GPIO5-Pad1)*%
X152840000Y-84920000D03*
D16*
%TO.P,U1,2,GPIO6_SDA*%
%TO.N,/SDA*%
X155380000Y-84920000D03*
%TO.P,U1,3,GPIO7_SCL*%
%TO.N,/SCL*%
X157920000Y-84920000D03*
%TO.P,U1,4,GPIO8_SCK*%
%TO.N,unconnected-(U1-GPIO8_SCK-Pad4)*%
X160460000Y-84920000D03*
%TO.P,U1,5,GPIO9_MISO*%
%TO.N,unconnected-(U1-GPIO9_MISO-Pad5)*%
X163000000Y-84920000D03*
%TO.P,U1,6,GPIO_MOSI*%
%TO.N,/GPIO10*%
X165540000Y-84920000D03*
%TO.P,U1,7,GPIO20_Rx*%
%TO.N,unconnected-(U1-GPIO20_Rx-Pad7)*%
X168080000Y-84920000D03*
%TO.P,U1,8,GPIO21_Tx*%
%TO.N,unconnected-(U1-GPIO21_Tx-Pad8)*%
X170620000Y-84920000D03*
%TO.P,U1,9,GPIO0_ADC0*%
%TO.N,unconnected-(U1-GPIO0_ADC0-Pad9)*%
X170620000Y-69680000D03*
%TO.P,U1,10,GPIO1_ADC1*%
%TO.N,/ADC1*%
X168080000Y-69680000D03*
%TO.P,U1,11,GPIO2_D0*%
%TO.N,unconnected-(U1-GPIO2_D0-Pad11)*%
X165540000Y-69680000D03*
%TO.P,U1,12,GPIO3_D1*%
%TO.N,unconnected-(U1-GPIO3_D1-Pad12)*%
X163000000Y-69680000D03*
%TO.P,U1,13,GPIO4_D2*%
%TO.N,unconnected-(U1-GPIO4_D2-Pad13)*%
X160460000Y-69680000D03*
%TO.P,U1,14,3V3*%
%TO.N,+3V3*%
X157920000Y-69680000D03*
D15*
%TO.P,U1,15,5V*%
%TO.N,+5V*%
X155380000Y-69680000D03*
D16*
%TO.P,U1,16,GND*%
%TO.N,GND*%
X152840000Y-69680000D03*
%TD*%
D18*
%TO.P,H1,1,GND*%
%TO.N,GND*%
X113600000Y-62300000D03*
%TO.P,H1,2,GND*%
X113600000Y-96300000D03*
%TO.P,H1,3,GND*%
X172600000Y-96300000D03*
%TO.P,H1,4,GND*%
X172600000Y-62300000D03*
%TD*%
D19*
%TO.P,U4,1,IN*%
%TO.N,/Power Supply/VIN*%
X121060000Y-72645000D03*
D20*
%TO.P,U4,2,GND*%
%TO.N,GND*%
X123600000Y-72645000D03*
%TO.P,U4,3,OUT*%
%TO.N,+5V*%
X126140000Y-72645000D03*
%TD*%
D12*
%TO.P,J2,1,Pin_1*%
%TO.N,/COM*%
X126200000Y-92800000D03*
%TO.P,J2,2,Pin_2*%
%TO.N,/NO*%
X121120000Y-92800000D03*
%TD*%
%TO.P,K1,11*%
%TO.N,/COM*%
X125600000Y-79300000D03*
%TO.P,K1,12*%
%TO.N,/NC*%
X130680000Y-79300000D03*
%TO.P,K1,14*%
%TO.N,/NO*%
X120520000Y-79300000D03*
%TO.P,K1,21*%
%TO.N,/COM*%
X125600000Y-86800000D03*
%TO.P,K1,22*%
%TO.N,/NC*%
X130680000Y-86800000D03*
%TO.P,K1,24*%
%TO.N,/NO*%
X120520000Y-86800000D03*
D21*
%TO.P,K1,A1*%
%TO.N,Net-(Q1-E)*%
X138300000Y-79300000D03*
D22*
%TO.P,K1,A2*%
%TO.N,GND*%
X138300000Y-86920000D03*
%TD*%
D23*
%TO.P,R2,1*%
%TO.N,/ADC1*%
X165800000Y-64270000D03*
D24*
%TO.P,R2,2*%
%TO.N,GND*%
X165800000Y-63000000D03*
%TD*%
D25*
%TO.P,SW1,1,COM*%
%TO.N,/Power Supply/VDC*%
X113800000Y-78760000D03*
D26*
%TO.P,SW1,2,A*%
X113800000Y-76220000D03*
%TO.P,SW1,3,B*%
%TO.N,Net-(J1-Pin_2)*%
X113800000Y-81300000D03*
%TD*%
D27*
%TO.P,R1,1*%
%TO.N,Net-(D1-AG)*%
X161903984Y-74403984D03*
%TO.P,R1,2*%
%TO.N,/GPIO10*%
X164096016Y-76596016D03*
%TD*%
D28*
%TO.P,U2,1,ADJ*%
%TO.N,GND*%
X132050000Y-62800000D03*
%TO.P,U2,2,VO*%
%TO.N,+3V3*%
X132050000Y-65100000D03*
%TO.P,U2,3,VI*%
%TO.N,/Power Supply/VIN*%
X132050000Y-67400000D03*
D29*
%TO.P,U2,4*%
%TO.N,N/C*%
X125750000Y-65100000D03*
%TD*%
D30*
%TO.P,R3,1*%
%TO.N,+3V3*%
X170296016Y-76296016D03*
%TO.P,R3,2*%
%TO.N,/ADC1*%
X168103984Y-74103984D03*
%TD*%
D31*
%TO.N,+3V3*%
X136000000Y-65100000D03*
%TD*%
D32*
%TO.N,/SDA*%
X152680000Y-95800000D02*
X152680000Y-94420000D01*
X155380000Y-91720000D02*
X155380000Y-84920000D01*
X152680000Y-94420000D02*
X155380000Y-91720000D01*
%TO.N,/SCL*%
X155220000Y-95800000D02*
X158100000Y-95800000D01*
X158100000Y-95800000D02*
X159860000Y-94040000D01*
X159860000Y-94040000D02*
X162100000Y-94040000D01*
%TO.N,/GPIO10*%
X165540000Y-82740000D02*
X165540000Y-84920000D01*
X164096016Y-76596016D02*
X164096016Y-81296016D01*
X164096016Y-81296016D02*
X165540000Y-82740000D01*
%TO.N,/ADC1*%
X168080000Y-69680000D02*
X168080000Y-74080000D01*
X168080000Y-74080000D02*
X168103984Y-74103984D01*
D33*
%TO.N,+3V3*%
X171100000Y-90200000D02*
X171100000Y-91300000D01*
X142800000Y-77600000D02*
X142800000Y-95800000D01*
X171100000Y-91300000D02*
X168100000Y-94300000D01*
D34*
X170296016Y-76296016D02*
X171500000Y-77500000D01*
D33*
X171500000Y-66300000D02*
X173700000Y-68500000D01*
X166600000Y-98100000D02*
X152440000Y-98100000D01*
X173700000Y-87600000D02*
X173700000Y-79000000D01*
X145100000Y-98100000D02*
X152440000Y-98100000D01*
X136000000Y-65100000D02*
X159000000Y-65100000D01*
X142800000Y-95800000D02*
X145100000Y-98100000D01*
X172340000Y-88960000D02*
X171100000Y-90200000D01*
X145830000Y-76830000D02*
X143570000Y-76830000D01*
X143570000Y-76830000D02*
X142800000Y-77600000D01*
X168100000Y-94300000D02*
X168100000Y-96600000D01*
D34*
X172200000Y-77500000D02*
X173700000Y-79000000D01*
D33*
X160200000Y-66300000D02*
X171500000Y-66300000D01*
D34*
X171500000Y-77500000D02*
X172200000Y-77500000D01*
D33*
X173700000Y-68500000D02*
X173700000Y-79000000D01*
X136000000Y-65100000D02*
X132050000Y-65100000D01*
X172340000Y-88960000D02*
X173700000Y-87600000D01*
X162100000Y-88960000D02*
X172340000Y-88960000D01*
X152440000Y-98100000D02*
X150140000Y-95800000D01*
X159000000Y-65100000D02*
X160200000Y-66300000D01*
X168100000Y-96600000D02*
X166600000Y-98100000D01*
%TO.N,/Power Supply/VIN*%
X122900000Y-69200000D02*
X128700000Y-69200000D01*
X121060000Y-72645000D02*
X121060000Y-71040000D01*
X130500000Y-67400000D02*
X132050000Y-67400000D01*
X128700000Y-69200000D02*
X130500000Y-67400000D01*
X121060000Y-71040000D02*
X122900000Y-69200000D01*
%TO.N,+5V*%
X155380000Y-69680000D02*
X155400000Y-69700000D01*
X154000000Y-73200000D02*
X130000000Y-73200000D01*
X155400000Y-69700000D02*
X155400000Y-71800000D01*
X155400000Y-71800000D02*
X154000000Y-73200000D01*
X129445000Y-72645000D02*
X126140000Y-72645000D01*
X130000000Y-73200000D02*
X129445000Y-72645000D01*
D35*
%TO.N,/NC*%
X134700000Y-90700000D02*
X136800000Y-92800000D01*
X133300000Y-86800000D02*
X134700000Y-88200000D01*
X130680000Y-86800000D02*
X130680000Y-79300000D01*
X134700000Y-88200000D02*
X134700000Y-90700000D01*
X130680000Y-86800000D02*
X133300000Y-86800000D01*
%TO.N,/COM*%
X125600000Y-86800000D02*
X125600000Y-79300000D01*
X125600000Y-86800000D02*
X125600000Y-89200000D01*
X125600000Y-89200000D02*
X126200000Y-89800000D01*
X126200000Y-89800000D02*
X126200000Y-92800000D01*
X126200000Y-92800000D02*
X131720000Y-92800000D01*
%TO.N,/NO*%
X120520000Y-79300000D02*
X120520000Y-86800000D01*
X120520000Y-86800000D02*
X120520000Y-89620000D01*
X120520000Y-89620000D02*
X121120000Y-90220000D01*
X121120000Y-90220000D02*
X121120000Y-92800000D01*
D32*
%TO.N,Net-(D1-AG)*%
X155752082Y-76350000D02*
X148850000Y-76350000D01*
X148850000Y-76350000D02*
X147100000Y-78100000D01*
X157698098Y-74403984D02*
X155752082Y-76350000D01*
X161903984Y-74403984D02*
X157698098Y-74403984D01*
%TD*%
%TA.AperFunction,Conductor*%
%TO.N,GND*%
G36*
X170637967Y-59820185D02*
G01*
X170683722Y-59872989D01*
X170693666Y-59942147D01*
X170664641Y-60005703D01*
X170662899Y-60007416D01*
X170662818Y-60009265D01*
X171730893Y-61077340D01*
X171622816Y-61155864D01*
X171455864Y-61322816D01*
X171377340Y-61430893D01*
X170306148Y-60359701D01*
X170306147Y-60359702D01*
X170297976Y-60368363D01*
X170297972Y-60368368D01*
X170089289Y-60648677D01*
X169914561Y-60951316D01*
X169914555Y-60951329D01*
X169776145Y-61272199D01*
X169675916Y-61606988D01*
X169675914Y-61606997D01*
X169615236Y-61951119D01*
X169615235Y-61951130D01*
X169594916Y-62299996D01*
X169594916Y-62300003D01*
X169615235Y-62648869D01*
X169615236Y-62648880D01*
X169675914Y-62993002D01*
X169675916Y-62993011D01*
X169776145Y-63327800D01*
X169914555Y-63648670D01*
X169914561Y-63648683D01*
X170089289Y-63951322D01*
X170297967Y-64231625D01*
X170306148Y-64240296D01*
X171377340Y-63169105D01*
X171455864Y-63277184D01*
X171622816Y-63444136D01*
X171730893Y-63522658D01*
X170662818Y-64590733D01*
X170662819Y-64590734D01*
X170805484Y-64710445D01*
X171097461Y-64902480D01*
X171409739Y-65059314D01*
X171409745Y-65059316D01*
X171738130Y-65178838D01*
X171738133Y-65178839D01*
X172078171Y-65259429D01*
X172425276Y-65299999D01*
X172425277Y-65300000D01*
X172774723Y-65300000D01*
X172774723Y-65299999D01*
X173121827Y-65259429D01*
X173121829Y-65259429D01*
X173461866Y-65178839D01*
X173461869Y-65178838D01*
X173790254Y-65059316D01*
X173790260Y-65059314D01*
X174102538Y-64902480D01*
X174394509Y-64710449D01*
X174394510Y-64710448D01*
X174537179Y-64590734D01*
X174537180Y-64590733D01*
X173469106Y-63522658D01*
X173577184Y-63444136D01*
X173744136Y-63277184D01*
X173822659Y-63169106D01*
X174893850Y-64240297D01*
X174900977Y-64240193D01*
X174945636Y-64214097D01*
X175015443Y-64217056D01*
X175072568Y-64257287D01*
X175098875Y-64322015D01*
X175099500Y-64334447D01*
X175099500Y-94265550D01*
X175079815Y-94332589D01*
X175027011Y-94378344D01*
X174957853Y-94388288D01*
X174895304Y-94359723D01*
X174893851Y-94359701D01*
X173822658Y-95430893D01*
X173744136Y-95322816D01*
X173577184Y-95155864D01*
X173469105Y-95077340D01*
X174537180Y-94009265D01*
X174537179Y-94009264D01*
X174394519Y-93889557D01*
X174102538Y-93697519D01*
X173790260Y-93540685D01*
X173790254Y-93540683D01*
X173461869Y-93421161D01*
X173461866Y-93421160D01*
X173121828Y-93340570D01*
X172774723Y-93300000D01*
X172425277Y-93300000D01*
X172078172Y-93340570D01*
X172078170Y-93340570D01*
X171738133Y-93421160D01*
X171738130Y-93421161D01*
X171409745Y-93540683D01*
X171409739Y-93540685D01*
X171097461Y-93697519D01*
X170805480Y-93889557D01*
X170662819Y-94009264D01*
X170662818Y-94009265D01*
X171730894Y-95077340D01*
X171622816Y-95155864D01*
X171455864Y-95322816D01*
X171377340Y-95430893D01*
X170306148Y-94359701D01*
X170306147Y-94359702D01*
X170297976Y-94368363D01*
X170297972Y-94368368D01*
X170089289Y-94648677D01*
X169914561Y-94951316D01*
X169914555Y-94951329D01*
X169776145Y-95272199D01*
X169675916Y-95606988D01*
X169675914Y-95606997D01*
X169615236Y-95951119D01*
X169615235Y-95951130D01*
X169594916Y-96299996D01*
X169594916Y-96300003D01*
X169615235Y-96648869D01*
X169615236Y-96648880D01*
X169675914Y-96993002D01*
X169675916Y-96993011D01*
X169776145Y-97327800D01*
X169914555Y-97648670D01*
X169914561Y-97648683D01*
X170089289Y-97951322D01*
X170297967Y-98231625D01*
X170306148Y-98240296D01*
X171377340Y-97169105D01*
X171455864Y-97277184D01*
X171622816Y-97444136D01*
X171730893Y-97522658D01*
X170662818Y-98590733D01*
X170663197Y-98599391D01*
X170689337Y-98638683D01*
X170690445Y-98708544D01*
X170653607Y-98767914D01*
X170590520Y-98797943D01*
X170570929Y-98799500D01*
X167261231Y-98799500D01*
X167194192Y-98779815D01*
X167148437Y-98727011D01*
X167138493Y-98657853D01*
X167167518Y-98594297D01*
X167173550Y-98587819D01*
X168682948Y-97078419D01*
X168682947Y-97078419D01*
X168682951Y-97078416D01*
X168765084Y-96955495D01*
X168821658Y-96818913D01*
X168850500Y-96673918D01*
X168850500Y-96526083D01*
X168850500Y-94662229D01*
X168870185Y-94595190D01*
X168886819Y-94574548D01*
X171682950Y-91778417D01*
X171682952Y-91778415D01*
X171719305Y-91724008D01*
X171765084Y-91655495D01*
X171793608Y-91586632D01*
X171821659Y-91518912D01*
X171850500Y-91373917D01*
X171850500Y-91226082D01*
X171850500Y-90562230D01*
X171870185Y-90495191D01*
X171886819Y-90474549D01*
X172397040Y-89964328D01*
X172922952Y-89438416D01*
X172922952Y-89438415D01*
X174282951Y-88078416D01*
X174365084Y-87955495D01*
X174421658Y-87818913D01*
X174424089Y-87806688D01*
X174425322Y-87800497D01*
X174450500Y-87673920D01*
X174450500Y-68426079D01*
X174421659Y-68281092D01*
X174421658Y-68281091D01*
X174421658Y-68281087D01*
X174365084Y-68144505D01*
X174312017Y-68065084D01*
X174297484Y-68043334D01*
X174282954Y-68021586D01*
X174282952Y-68021584D01*
X171978421Y-65717052D01*
X171978414Y-65717046D01*
X171904729Y-65667812D01*
X171904729Y-65667813D01*
X171855491Y-65634913D01*
X171718917Y-65578343D01*
X171718907Y-65578340D01*
X171573920Y-65549500D01*
X171573918Y-65549500D01*
X160562229Y-65549500D01*
X160495190Y-65529815D01*
X160474548Y-65513181D01*
X159478421Y-64517052D01*
X159478414Y-64517046D01*
X159404729Y-64467812D01*
X159404729Y-64467813D01*
X159355491Y-64434913D01*
X159218917Y-64378343D01*
X159218907Y-64378340D01*
X159169655Y-64368543D01*
X164549499Y-64368543D01*
X164587947Y-64561829D01*
X164587950Y-64561839D01*
X164663364Y-64743907D01*
X164663371Y-64743920D01*
X164772860Y-64907781D01*
X164772863Y-64907785D01*
X164912214Y-65047136D01*
X164912218Y-65047139D01*
X165076079Y-65156628D01*
X165076092Y-65156635D01*
X165258160Y-65232049D01*
X165258165Y-65232051D01*
X165258169Y-65232051D01*
X165258170Y-65232052D01*
X165451456Y-65270500D01*
X165451459Y-65270500D01*
X166148543Y-65270500D01*
X166278582Y-65244632D01*
X166341835Y-65232051D01*
X166523914Y-65156632D01*
X166687782Y-65047139D01*
X166827139Y-64907782D01*
X166936632Y-64743914D01*
X167012051Y-64561835D01*
X167040005Y-64421302D01*
X167050500Y-64368543D01*
X167050500Y-64171456D01*
X167012052Y-63978170D01*
X167012051Y-63978169D01*
X167012051Y-63978165D01*
X166960220Y-63853033D01*
X166936635Y-63796092D01*
X166936628Y-63796079D01*
X166827139Y-63632218D01*
X166827136Y-63632214D01*
X166741515Y-63546593D01*
X166708030Y-63485270D01*
X166713014Y-63415578D01*
X166719840Y-63400455D01*
X166728347Y-63384539D01*
X166769160Y-63250000D01*
X165966988Y-63250000D01*
X165984205Y-63240060D01*
X166040060Y-63184205D01*
X166079556Y-63115796D01*
X166100000Y-63039496D01*
X166100000Y-62960504D01*
X166079556Y-62884204D01*
X166040060Y-62815795D01*
X165984205Y-62759940D01*
X165966988Y-62750000D01*
X166050000Y-62750000D01*
X166769160Y-62750000D01*
X166769160Y-62749999D01*
X166728347Y-62615458D01*
X166635496Y-62441746D01*
X166635492Y-62441739D01*
X166510528Y-62289471D01*
X166358260Y-62164507D01*
X166358253Y-62164503D01*
X166184541Y-62071652D01*
X166050000Y-62030839D01*
X166050000Y-62750000D01*
X165966988Y-62750000D01*
X165915796Y-62720444D01*
X165839496Y-62700000D01*
X165760504Y-62700000D01*
X165684204Y-62720444D01*
X165615795Y-62759940D01*
X165559940Y-62815795D01*
X165520444Y-62884204D01*
X165500000Y-62960504D01*
X165500000Y-63039496D01*
X165520444Y-63115796D01*
X165559940Y-63184205D01*
X165615795Y-63240060D01*
X165633012Y-63250000D01*
X164830840Y-63250000D01*
X164871652Y-63384539D01*
X164880162Y-63400461D01*
X164894403Y-63468864D01*
X164869402Y-63534107D01*
X164858485Y-63546593D01*
X164772860Y-63632218D01*
X164663371Y-63796079D01*
X164663364Y-63796092D01*
X164587950Y-63978160D01*
X164587947Y-63978170D01*
X164549500Y-64171456D01*
X164549500Y-64171459D01*
X164549500Y-64368541D01*
X164549500Y-64368543D01*
X164549499Y-64368543D01*
X159169655Y-64368543D01*
X159073920Y-64349500D01*
X159073918Y-64349500D01*
X136299972Y-64349500D01*
X136259017Y-64342542D01*
X136179254Y-64314631D01*
X136179249Y-64314630D01*
X136000004Y-64294435D01*
X135999996Y-64294435D01*
X135820750Y-64314630D01*
X135820745Y-64314631D01*
X135740983Y-64342542D01*
X135700028Y-64349500D01*
X133542942Y-64349500D01*
X133475903Y-64329815D01*
X133431854Y-64280594D01*
X133417030Y-64250704D01*
X133297724Y-64102280D01*
X133297722Y-64102278D01*
X133228112Y-64046324D01*
X133188196Y-63988985D01*
X133185616Y-63919163D01*
X133221194Y-63859030D01*
X133228115Y-63853033D01*
X133297366Y-63797367D01*
X133297367Y-63797366D01*
X133416607Y-63649025D01*
X133416609Y-63649022D01*
X133501168Y-63478523D01*
X133547102Y-63293824D01*
X133550000Y-63251096D01*
X133550000Y-63050000D01*
X130550000Y-63050000D01*
X130550000Y-63251096D01*
X130552897Y-63293824D01*
X130598831Y-63478523D01*
X130683390Y-63649022D01*
X130683392Y-63649025D01*
X130802630Y-63797364D01*
X130871884Y-63853031D01*
X130911803Y-63910375D01*
X130914383Y-63980197D01*
X130878805Y-64040329D01*
X130871885Y-64046326D01*
X130802276Y-64102280D01*
X130682969Y-64250704D01*
X130682967Y-64250707D01*
X130598360Y-64421302D01*
X130552400Y-64606107D01*
X130549500Y-64648879D01*
X130549500Y-65551122D01*
X130549501Y-65551125D01*
X130552399Y-65593886D01*
X130552399Y-65593887D01*
X130598360Y-65778696D01*
X130682967Y-65949292D01*
X130682969Y-65949295D01*
X130802277Y-66097721D01*
X130802278Y-66097722D01*
X130871486Y-66153353D01*
X130911405Y-66210696D01*
X130913985Y-66280518D01*
X130878406Y-66340651D01*
X130871486Y-66346647D01*
X130802278Y-66402277D01*
X130802277Y-66402278D01*
X130682969Y-66550704D01*
X130668146Y-66580594D01*
X130620725Y-66631907D01*
X130557058Y-66649500D01*
X130426080Y-66649500D01*
X130281092Y-66678340D01*
X130281082Y-66678343D01*
X130144511Y-66734912D01*
X130144498Y-66734919D01*
X130021584Y-66817048D01*
X130021580Y-66817051D01*
X128425451Y-68413181D01*
X128364128Y-68446666D01*
X128337770Y-68449500D01*
X122826080Y-68449500D01*
X122681092Y-68478340D01*
X122681086Y-68478342D01*
X122544508Y-68534914D01*
X122544496Y-68534921D01*
X122495269Y-68567813D01*
X122421588Y-68617044D01*
X122421580Y-68617050D01*
X120477050Y-70561580D01*
X120477044Y-70561588D01*
X120427812Y-70635268D01*
X120427813Y-70635269D01*
X120394921Y-70684496D01*
X120394914Y-70684508D01*
X120338342Y-70821086D01*
X120338340Y-70821092D01*
X120309500Y-70966079D01*
X120309500Y-71020500D01*
X120289815Y-71087539D01*
X120237011Y-71133294D01*
X120185501Y-71144500D01*
X120059630Y-71144500D01*
X120059623Y-71144501D01*
X120000016Y-71150908D01*
X119865171Y-71201202D01*
X119865164Y-71201206D01*
X119749955Y-71287452D01*
X119749952Y-71287455D01*
X119663706Y-71402664D01*
X119663702Y-71402671D01*
X119613408Y-71537517D01*
X119607001Y-71597116D01*
X119607000Y-71597135D01*
X119607000Y-73692870D01*
X119607001Y-73692876D01*
X119613408Y-73752483D01*
X119663702Y-73887328D01*
X119663706Y-73887335D01*
X119749952Y-74002544D01*
X119749955Y-74002547D01*
X119865164Y-74088793D01*
X119865171Y-74088797D01*
X120000017Y-74139091D01*
X120000016Y-74139091D01*
X120006944Y-74139835D01*
X120059627Y-74145500D01*
X122060372Y-74145499D01*
X122119983Y-74139091D01*
X122254831Y-74088796D01*
X122370046Y-74002546D01*
X122456296Y-73887331D01*
X122466872Y-73858974D01*
X122508740Y-73803041D01*
X122574204Y-73778622D01*
X122642477Y-73793472D01*
X122655940Y-73801988D01*
X122838723Y-73934788D01*
X123042429Y-74038582D01*
X123259871Y-74109234D01*
X123350000Y-74123509D01*
X123350000Y-73135747D01*
X123387708Y-73157518D01*
X123527591Y-73195000D01*
X123672409Y-73195000D01*
X123812292Y-73157518D01*
X123850000Y-73135747D01*
X123850000Y-74123508D01*
X123940128Y-74109234D01*
X124157570Y-74038582D01*
X124361276Y-73934788D01*
X124546242Y-73800402D01*
X124707905Y-73638739D01*
X124769371Y-73554137D01*
X124824701Y-73511470D01*
X124894314Y-73505491D01*
X124956109Y-73538096D01*
X124970007Y-73554134D01*
X125031714Y-73639066D01*
X125193434Y-73800786D01*
X125378462Y-73935217D01*
X125510599Y-74002544D01*
X125582244Y-74039049D01*
X125799751Y-74109721D01*
X125799752Y-74109721D01*
X125799755Y-74109722D01*
X126025646Y-74145500D01*
X126025647Y-74145500D01*
X126254353Y-74145500D01*
X126254354Y-74145500D01*
X126480245Y-74109722D01*
X126480248Y-74109721D01*
X126480249Y-74109721D01*
X126697755Y-74039049D01*
X126697755Y-74039048D01*
X126697758Y-74039048D01*
X126901538Y-73935217D01*
X127086566Y-73800786D01*
X127248286Y-73639066D01*
X127382717Y-73454038D01*
X127382717Y-73454037D01*
X127385581Y-73450096D01*
X127386591Y-73450830D01*
X127434123Y-73407832D01*
X127488033Y-73395500D01*
X129082770Y-73395500D01*
X129149809Y-73415185D01*
X129170451Y-73431819D01*
X129377372Y-73638739D01*
X129417049Y-73678416D01*
X129488188Y-73749555D01*
X129521585Y-73782952D01*
X129644498Y-73865080D01*
X129644511Y-73865087D01*
X129698213Y-73887331D01*
X129698214Y-73887331D01*
X129781088Y-73921659D01*
X129897241Y-73944763D01*
X129916468Y-73948587D01*
X129926081Y-73950500D01*
X129926082Y-73950500D01*
X154073920Y-73950500D01*
X154171462Y-73931096D01*
X154218913Y-73921658D01*
X154301793Y-73887328D01*
X154355491Y-73865086D01*
X154355492Y-73865085D01*
X154355495Y-73865084D01*
X154408496Y-73829670D01*
X154478416Y-73782952D01*
X155982952Y-72278416D01*
X156032186Y-72204729D01*
X156065084Y-72155495D01*
X156121658Y-72018913D01*
X156150500Y-71873918D01*
X156150500Y-71154499D01*
X156170185Y-71087460D01*
X156222989Y-71041705D01*
X156274500Y-71030499D01*
X156277871Y-71030499D01*
X156277872Y-71030499D01*
X156337483Y-71024091D01*
X156472331Y-70973796D01*
X156587546Y-70887546D01*
X156673796Y-70772331D01*
X156722810Y-70640916D01*
X156764681Y-70584984D01*
X156830145Y-70560566D01*
X156898418Y-70575417D01*
X156926673Y-70596569D01*
X157048599Y-70718495D01*
X157145384Y-70786265D01*
X157242165Y-70854032D01*
X157242167Y-70854033D01*
X157242170Y-70854035D01*
X157456337Y-70953903D01*
X157684592Y-71015063D01*
X157861034Y-71030500D01*
X157919999Y-71035659D01*
X157920000Y-71035659D01*
X157920001Y-71035659D01*
X157978966Y-71030500D01*
X158155408Y-71015063D01*
X158383663Y-70953903D01*
X158597830Y-70854035D01*
X158791401Y-70718495D01*
X158958495Y-70551401D01*
X159088425Y-70365842D01*
X159143002Y-70322217D01*
X159212500Y-70315023D01*
X159274855Y-70346546D01*
X159291575Y-70365842D01*
X159421500Y-70551395D01*
X159421505Y-70551401D01*
X159588599Y-70718495D01*
X159685384Y-70786265D01*
X159782165Y-70854032D01*
X159782167Y-70854033D01*
X159782170Y-70854035D01*
X159996337Y-70953903D01*
X160224592Y-71015063D01*
X160401034Y-71030500D01*
X160459999Y-71035659D01*
X160460000Y-71035659D01*
X160460001Y-71035659D01*
X160518966Y-71030500D01*
X160695408Y-71015063D01*
X160923663Y-70953903D01*
X161137830Y-70854035D01*
X161331401Y-70718495D01*
X161498495Y-70551401D01*
X161628425Y-70365842D01*
X161683002Y-70322217D01*
X161752500Y-70315023D01*
X161814855Y-70346546D01*
X161831575Y-70365842D01*
X161961500Y-70551395D01*
X161961505Y-70551401D01*
X162128599Y-70718495D01*
X162225384Y-70786265D01*
X162322165Y-70854032D01*
X162322167Y-70854033D01*
X162322170Y-70854035D01*
X162536337Y-70953903D01*
X162764592Y-71015063D01*
X162941034Y-71030500D01*
X162999999Y-71035659D01*
X163000000Y-71035659D01*
X163000001Y-71035659D01*
X163058966Y-71030500D01*
X163235408Y-71015063D01*
X163463663Y-70953903D01*
X163677830Y-70854035D01*
X163871401Y-70718495D01*
X164038495Y-70551401D01*
X164168425Y-70365842D01*
X164223002Y-70322217D01*
X164292500Y-70315023D01*
X164354855Y-70346546D01*
X164371575Y-70365842D01*
X164501500Y-70551395D01*
X164501505Y-70551401D01*
X164668599Y-70718495D01*
X164765384Y-70786265D01*
X164862165Y-70854032D01*
X164862167Y-70854033D01*
X164862170Y-70854035D01*
X165076337Y-70953903D01*
X165304592Y-71015063D01*
X165481034Y-71030500D01*
X165539999Y-71035659D01*
X165540000Y-71035659D01*
X165540001Y-71035659D01*
X165598966Y-71030500D01*
X165775408Y-71015063D01*
X166003663Y-70953903D01*
X166217830Y-70854035D01*
X166411401Y-70718495D01*
X166578495Y-70551401D01*
X166708425Y-70365842D01*
X166763002Y-70322217D01*
X166832500Y-70315023D01*
X166894855Y-70346546D01*
X166911575Y-70365842D01*
X167041500Y-70551395D01*
X167041505Y-70551401D01*
X167208599Y-70718495D01*
X167305384Y-70786265D01*
X167402165Y-70854032D01*
X167402167Y-70854033D01*
X167402170Y-70854035D01*
X167407898Y-70856706D01*
X167460339Y-70902872D01*
X167479500Y-70969090D01*
X167479500Y-73050053D01*
X167459815Y-73117092D01*
X167443181Y-73137734D01*
X166813163Y-73767753D01*
X166813152Y-73767765D01*
X166747899Y-73847866D01*
X166747898Y-73847867D01*
X166669158Y-74004652D01*
X166628700Y-74175354D01*
X166628699Y-74175365D01*
X166628699Y-74350800D01*
X166628700Y-74350811D01*
X166669159Y-74521515D01*
X166738758Y-74660100D01*
X166747897Y-74678298D01*
X166813154Y-74758405D01*
X167449563Y-75394812D01*
X167449567Y-75394815D01*
X167449569Y-75394817D01*
X167461681Y-75404684D01*
X167529670Y-75460071D01*
X167686452Y-75538808D01*
X167857164Y-75579269D01*
X167857167Y-75579269D01*
X168032603Y-75579269D01*
X168032606Y-75579269D01*
X168125003Y-75557369D01*
X168203315Y-75538809D01*
X168203316Y-75538808D01*
X168203318Y-75538808D01*
X168360099Y-75460071D01*
X168440207Y-75394814D01*
X169394812Y-74440207D01*
X169460071Y-74360099D01*
X169538808Y-74203318D01*
X169549747Y-74157167D01*
X169577742Y-74039048D01*
X169579269Y-74032606D01*
X169579269Y-73857164D01*
X169538808Y-73686452D01*
X169460071Y-73529670D01*
X169394814Y-73449563D01*
X169340751Y-73395500D01*
X168758410Y-72813160D01*
X168726180Y-72786903D01*
X168686639Y-72729299D01*
X168680500Y-72690768D01*
X168680500Y-70969090D01*
X168700185Y-70902051D01*
X168752101Y-70856706D01*
X168757830Y-70854035D01*
X168951401Y-70718495D01*
X169118495Y-70551401D01*
X169248425Y-70365842D01*
X169303002Y-70322217D01*
X169372500Y-70315023D01*
X169434855Y-70346546D01*
X169451575Y-70365842D01*
X169581500Y-70551395D01*
X169581505Y-70551401D01*
X169748599Y-70718495D01*
X169845384Y-70786265D01*
X169942165Y-70854032D01*
X169942167Y-70854033D01*
X169942170Y-70854035D01*
X170156337Y-70953903D01*
X170384592Y-71015063D01*
X170561034Y-71030500D01*
X170619999Y-71035659D01*
X170620000Y-71035659D01*
X170620001Y-71035659D01*
X170678966Y-71030500D01*
X170855408Y-71015063D01*
X171083663Y-70953903D01*
X171297830Y-70854035D01*
X171491401Y-70718495D01*
X171658495Y-70551401D01*
X171794035Y-70357830D01*
X171893903Y-70143663D01*
X171955063Y-69915408D01*
X171975659Y-69680000D01*
X171955063Y-69444592D01*
X171893903Y-69216337D01*
X171794035Y-69002171D01*
X171788425Y-68994158D01*
X171658494Y-68808597D01*
X171491402Y-68641506D01*
X171491395Y-68641501D01*
X171297834Y-68505967D01*
X171297830Y-68505965D01*
X171238588Y-68478340D01*
X171083663Y-68406097D01*
X171083659Y-68406096D01*
X171083655Y-68406094D01*
X170855413Y-68344938D01*
X170855403Y-68344936D01*
X170620001Y-68324341D01*
X170619999Y-68324341D01*
X170384596Y-68344936D01*
X170384586Y-68344938D01*
X170156344Y-68406094D01*
X170156335Y-68406098D01*
X169942171Y-68505964D01*
X169942169Y-68505965D01*
X169748597Y-68641505D01*
X169581505Y-68808597D01*
X169451575Y-68994158D01*
X169396998Y-69037783D01*
X169327500Y-69044977D01*
X169265145Y-69013454D01*
X169248425Y-68994158D01*
X169118494Y-68808597D01*
X168951402Y-68641506D01*
X168951395Y-68641501D01*
X168757834Y-68505967D01*
X168757830Y-68505965D01*
X168698588Y-68478340D01*
X168543663Y-68406097D01*
X168543659Y-68406096D01*
X168543655Y-68406094D01*
X168315413Y-68344938D01*
X168315403Y-68344936D01*
X168080001Y-68324341D01*
X168079999Y-68324341D01*
X167844596Y-68344936D01*
X167844586Y-68344938D01*
X167616344Y-68406094D01*
X167616335Y-68406098D01*
X167402171Y-68505964D01*
X167402169Y-68505965D01*
X167208597Y-68641505D01*
X167041505Y-68808597D01*
X166911575Y-68994158D01*
X166856998Y-69037783D01*
X166787500Y-69044977D01*
X166725145Y-69013454D01*
X166708425Y-68994158D01*
X166578494Y-68808597D01*
X166411402Y-68641506D01*
X166411395Y-68641501D01*
X166217834Y-68505967D01*
X166217830Y-68505965D01*
X166158588Y-68478340D01*
X166003663Y-68406097D01*
X166003659Y-68406096D01*
X166003655Y-68406094D01*
X165775413Y-68344938D01*
X165775403Y-68344936D01*
X165540001Y-68324341D01*
X165539999Y-68324341D01*
X165304596Y-68344936D01*
X165304586Y-68344938D01*
X165076344Y-68406094D01*
X165076335Y-68406098D01*
X164862171Y-68505964D01*
X164862169Y-68505965D01*
X164668597Y-68641505D01*
X164501505Y-68808597D01*
X164371575Y-68994158D01*
X164316998Y-69037783D01*
X164247500Y-69044977D01*
X164185145Y-69013454D01*
X164168425Y-68994158D01*
X164038494Y-68808597D01*
X163871402Y-68641506D01*
X163871395Y-68641501D01*
X163677834Y-68505967D01*
X163677830Y-68505965D01*
X163618588Y-68478340D01*
X163463663Y-68406097D01*
X163463659Y-68406096D01*
X163463655Y-68406094D01*
X163235413Y-68344938D01*
X163235403Y-68344936D01*
X163000001Y-68324341D01*
X162999999Y-68324341D01*
X162764596Y-68344936D01*
X162764586Y-68344938D01*
X162536344Y-68406094D01*
X162536335Y-68406098D01*
X162322171Y-68505964D01*
X162322169Y-68505965D01*
X162128597Y-68641505D01*
X161961505Y-68808597D01*
X161831575Y-68994158D01*
X161776998Y-69037783D01*
X161707500Y-69044977D01*
X161645145Y-69013454D01*
X161628425Y-68994158D01*
X161498494Y-68808597D01*
X161331402Y-68641506D01*
X161331395Y-68641501D01*
X161137834Y-68505967D01*
X161137830Y-68505965D01*
X161078588Y-68478340D01*
X160923663Y-68406097D01*
X160923659Y-68406096D01*
X160923655Y-68406094D01*
X160695413Y-68344938D01*
X160695403Y-68344936D01*
X160460001Y-68324341D01*
X160459999Y-68324341D01*
X160224596Y-68344936D01*
X160224586Y-68344938D01*
X159996344Y-68406094D01*
X159996335Y-68406098D01*
X159782171Y-68505964D01*
X159782169Y-68505965D01*
X159588597Y-68641505D01*
X159421505Y-68808597D01*
X159291575Y-68994158D01*
X159236998Y-69037783D01*
X159167500Y-69044977D01*
X159105145Y-69013454D01*
X159088425Y-68994158D01*
X158958494Y-68808597D01*
X158791402Y-68641506D01*
X158791395Y-68641501D01*
X158597834Y-68505967D01*
X158597830Y-68505965D01*
X158538588Y-68478340D01*
X158383663Y-68406097D01*
X158383659Y-68406096D01*
X158383655Y-68406094D01*
X158155413Y-68344938D01*
X158155403Y-68344936D01*
X157920001Y-68324341D01*
X157919999Y-68324341D01*
X157684596Y-68344936D01*
X157684586Y-68344938D01*
X157456344Y-68406094D01*
X157456335Y-68406098D01*
X157242171Y-68505964D01*
X157242169Y-68505965D01*
X157048600Y-68641503D01*
X156926673Y-68763430D01*
X156865350Y-68796914D01*
X156795658Y-68791930D01*
X156739725Y-68750058D01*
X156722810Y-68719081D01*
X156673797Y-68587671D01*
X156673793Y-68587664D01*
X156587547Y-68472455D01*
X156587544Y-68472452D01*
X156472335Y-68386206D01*
X156472328Y-68386202D01*
X156337482Y-68335908D01*
X156337483Y-68335908D01*
X156277883Y-68329501D01*
X156277881Y-68329500D01*
X156277873Y-68329500D01*
X156277864Y-68329500D01*
X154482129Y-68329500D01*
X154482123Y-68329501D01*
X154422516Y-68335908D01*
X154287671Y-68386202D01*
X154287664Y-68386206D01*
X154172455Y-68472452D01*
X154172452Y-68472455D01*
X154086206Y-68587664D01*
X154086202Y-68587671D01*
X154036997Y-68719598D01*
X153995126Y-68775532D01*
X153929661Y-68799949D01*
X153861388Y-68785097D01*
X153833134Y-68763946D01*
X153711082Y-68641894D01*
X153517578Y-68506399D01*
X153303492Y-68406570D01*
X153303486Y-68406567D01*
X153090000Y-68349364D01*
X153090000Y-69246988D01*
X153032993Y-69214075D01*
X152905826Y-69180000D01*
X152774174Y-69180000D01*
X152647007Y-69214075D01*
X152590000Y-69246988D01*
X152590000Y-68349364D01*
X152589999Y-68349364D01*
X152376513Y-68406567D01*
X152376507Y-68406570D01*
X152162422Y-68506399D01*
X152162420Y-68506400D01*
X151968926Y-68641886D01*
X151968920Y-68641891D01*
X151801891Y-68808920D01*
X151801886Y-68808926D01*
X151666400Y-69002420D01*
X151666399Y-69002422D01*
X151566570Y-69216507D01*
X151566567Y-69216513D01*
X151509364Y-69429999D01*
X151509364Y-69430000D01*
X152406988Y-69430000D01*
X152374075Y-69487007D01*
X152340000Y-69614174D01*
X152340000Y-69745826D01*
X152374075Y-69872993D01*
X152406988Y-69930000D01*
X151509364Y-69930000D01*
X151566567Y-70143486D01*
X151566570Y-70143492D01*
X151666399Y-70357578D01*
X151801894Y-70551082D01*
X151968917Y-70718105D01*
X152162421Y-70853600D01*
X152376507Y-70953429D01*
X152376516Y-70953433D01*
X152590000Y-71010634D01*
X152590000Y-70113012D01*
X152647007Y-70145925D01*
X152774174Y-70180000D01*
X152905826Y-70180000D01*
X153032993Y-70145925D01*
X153090000Y-70113012D01*
X153090000Y-71010633D01*
X153303483Y-70953433D01*
X153303492Y-70953429D01*
X153517578Y-70853600D01*
X153711078Y-70718108D01*
X153833133Y-70596053D01*
X153894456Y-70562568D01*
X153964148Y-70567552D01*
X154020082Y-70609423D01*
X154036997Y-70640401D01*
X154086202Y-70772328D01*
X154086206Y-70772335D01*
X154172452Y-70887544D01*
X154172455Y-70887547D01*
X154287664Y-70973793D01*
X154287671Y-70973797D01*
X154316958Y-70984720D01*
X154422517Y-71024091D01*
X154482127Y-71030500D01*
X154525499Y-71030499D01*
X154592537Y-71050182D01*
X154638293Y-71102985D01*
X154649500Y-71154499D01*
X154649500Y-71437770D01*
X154629815Y-71504809D01*
X154613181Y-71525451D01*
X153725451Y-72413181D01*
X153664128Y-72446666D01*
X153637770Y-72449500D01*
X130362229Y-72449500D01*
X130295190Y-72429815D01*
X130274548Y-72413181D01*
X129923421Y-72062052D01*
X129923414Y-72062046D01*
X129849729Y-72012812D01*
X129849729Y-72012813D01*
X129800491Y-71979913D01*
X129663917Y-71923343D01*
X129663907Y-71923340D01*
X129518920Y-71894500D01*
X129518918Y-71894500D01*
X127488033Y-71894500D01*
X127420994Y-71874815D01*
X127386305Y-71839377D01*
X127385581Y-71839904D01*
X127340990Y-71778530D01*
X127248286Y-71650934D01*
X127086566Y-71489214D01*
X126901538Y-71354783D01*
X126697755Y-71250950D01*
X126480248Y-71180278D01*
X126294812Y-71150908D01*
X126254354Y-71144500D01*
X126025646Y-71144500D01*
X125950349Y-71156426D01*
X125799753Y-71180278D01*
X125799750Y-71180278D01*
X125582244Y-71250950D01*
X125378461Y-71354783D01*
X125312550Y-71402671D01*
X125193434Y-71489214D01*
X125193432Y-71489216D01*
X125193431Y-71489216D01*
X125031716Y-71650931D01*
X125031709Y-71650940D01*
X124970007Y-71735864D01*
X124914677Y-71778530D01*
X124845063Y-71784508D01*
X124783269Y-71751901D01*
X124769372Y-71735863D01*
X124707907Y-71651263D01*
X124707902Y-71651257D01*
X124546242Y-71489597D01*
X124361276Y-71355211D01*
X124157568Y-71251417D01*
X123940124Y-71180765D01*
X123850000Y-71166490D01*
X123850000Y-72154252D01*
X123812292Y-72132482D01*
X123672409Y-72095000D01*
X123527591Y-72095000D01*
X123387708Y-72132482D01*
X123350000Y-72154252D01*
X123350000Y-71166490D01*
X123349999Y-71166490D01*
X123259875Y-71180765D01*
X123042431Y-71251417D01*
X122838719Y-71355213D01*
X122655939Y-71488010D01*
X122590132Y-71511490D01*
X122522079Y-71495664D01*
X122473384Y-71445558D01*
X122466875Y-71431033D01*
X122456296Y-71402669D01*
X122456295Y-71402667D01*
X122456293Y-71402664D01*
X122370047Y-71287455D01*
X122370044Y-71287452D01*
X122254835Y-71201206D01*
X122254830Y-71201203D01*
X122220993Y-71188583D01*
X122165060Y-71146711D01*
X122140643Y-71081247D01*
X122155495Y-71012974D01*
X122176642Y-70984724D01*
X123174549Y-69986819D01*
X123235872Y-69953334D01*
X123262230Y-69950500D01*
X128773920Y-69950500D01*
X128876976Y-69930000D01*
X128918913Y-69921658D01*
X129055495Y-69865084D01*
X129104729Y-69832186D01*
X129178416Y-69782952D01*
X130598206Y-68363160D01*
X130659527Y-68329677D01*
X130729218Y-68334661D01*
X130782530Y-68373155D01*
X130802277Y-68397721D01*
X130802278Y-68397722D01*
X130950704Y-68517030D01*
X130950707Y-68517032D01*
X131121302Y-68601639D01*
X131121303Y-68601639D01*
X131121307Y-68601641D01*
X131306111Y-68647600D01*
X131348877Y-68650500D01*
X132751122Y-68650499D01*
X132793889Y-68647600D01*
X132978693Y-68601641D01*
X133149296Y-68517030D01*
X133297722Y-68397722D01*
X133417030Y-68249296D01*
X133501641Y-68078693D01*
X133547600Y-67893889D01*
X133550500Y-67851123D01*
X133550499Y-66948878D01*
X133547600Y-66906111D01*
X133501641Y-66721307D01*
X133480333Y-66678343D01*
X133417032Y-66550707D01*
X133417030Y-66550704D01*
X133297722Y-66402278D01*
X133297721Y-66402277D01*
X133228514Y-66346647D01*
X133188595Y-66289304D01*
X133186015Y-66219482D01*
X133221594Y-66159349D01*
X133228514Y-66153353D01*
X133237909Y-66145800D01*
X133297722Y-66097722D01*
X133417030Y-65949296D01*
X133431854Y-65919406D01*
X133479275Y-65868093D01*
X133542942Y-65850500D01*
X135700028Y-65850500D01*
X135740982Y-65857457D01*
X135820745Y-65885368D01*
X135820750Y-65885369D01*
X135999996Y-65905565D01*
X136000000Y-65905565D01*
X136000004Y-65905565D01*
X136179249Y-65885369D01*
X136179252Y-65885368D01*
X136179255Y-65885368D01*
X136259017Y-65857457D01*
X136299972Y-65850500D01*
X158637770Y-65850500D01*
X158704809Y-65870185D01*
X158725451Y-65886819D01*
X159721580Y-66882948D01*
X159721584Y-66882951D01*
X159844498Y-66965080D01*
X159844511Y-66965087D01*
X159981082Y-67021656D01*
X159981087Y-67021658D01*
X159981091Y-67021658D01*
X159981092Y-67021659D01*
X160126079Y-67050500D01*
X160126082Y-67050500D01*
X160273917Y-67050500D01*
X171137770Y-67050500D01*
X171204809Y-67070185D01*
X171225451Y-67086819D01*
X172913181Y-68774549D01*
X172946666Y-68835872D01*
X172949500Y-68862230D01*
X172949500Y-77065547D01*
X172929815Y-77132586D01*
X172877011Y-77178341D01*
X172807853Y-77188285D01*
X172744297Y-77159260D01*
X172737820Y-77153229D01*
X172692929Y-77108339D01*
X172692925Y-77108334D01*
X172692925Y-77108335D01*
X172685858Y-77101268D01*
X172685858Y-77101267D01*
X172598733Y-77014142D01*
X172598732Y-77014141D01*
X172598731Y-77014140D01*
X172547509Y-76979915D01*
X172528814Y-76967423D01*
X172496286Y-76945688D01*
X172496283Y-76945686D01*
X172496280Y-76945685D01*
X172415792Y-76912347D01*
X172382454Y-76898538D01*
X172382455Y-76898538D01*
X172382452Y-76898537D01*
X172382448Y-76898536D01*
X172382444Y-76898535D01*
X172280922Y-76878341D01*
X172280921Y-76878341D01*
X172261611Y-76874500D01*
X172261607Y-76874500D01*
X172261606Y-76874500D01*
X171810453Y-76874500D01*
X171743414Y-76854815D01*
X171722776Y-76838185D01*
X171634591Y-76750000D01*
X171601108Y-76688681D01*
X171606092Y-76618989D01*
X171626135Y-76584006D01*
X171652103Y-76552131D01*
X171730840Y-76395350D01*
X171741779Y-76349199D01*
X171762969Y-76259793D01*
X171771301Y-76224638D01*
X171771301Y-76049196D01*
X171730840Y-75878484D01*
X171652103Y-75721702D01*
X171586846Y-75641595D01*
X170950437Y-75005188D01*
X170950422Y-75005176D01*
X170918291Y-74979000D01*
X170870330Y-74939929D01*
X170870328Y-74939928D01*
X170870327Y-74939927D01*
X170713547Y-74861191D01*
X170542843Y-74820732D01*
X170542838Y-74820731D01*
X170542836Y-74820731D01*
X170367394Y-74820731D01*
X170367392Y-74820731D01*
X170367386Y-74820732D01*
X170196684Y-74861190D01*
X170091220Y-74914155D01*
X170039901Y-74939929D01*
X170039899Y-74939930D01*
X170039894Y-74939933D01*
X169959804Y-75005176D01*
X169959786Y-75005192D01*
X169005195Y-75959785D01*
X169005184Y-75959797D01*
X168939931Y-76039898D01*
X168939930Y-76039899D01*
X168861190Y-76196684D01*
X168820732Y-76367386D01*
X168820731Y-76367397D01*
X168820731Y-76542832D01*
X168820732Y-76542843D01*
X168861191Y-76713547D01*
X168939928Y-76870329D01*
X169001315Y-76945685D01*
X169005186Y-76950437D01*
X169641595Y-77586844D01*
X169721702Y-77652103D01*
X169878484Y-77730840D01*
X170049196Y-77771301D01*
X170049199Y-77771301D01*
X170224635Y-77771301D01*
X170224638Y-77771301D01*
X170317035Y-77749401D01*
X170395347Y-77730841D01*
X170395348Y-77730840D01*
X170395350Y-77730840D01*
X170552131Y-77652103D01*
X170584006Y-77626136D01*
X170648415Y-77599057D01*
X170717239Y-77611099D01*
X170750004Y-77634594D01*
X171101263Y-77985855D01*
X171101267Y-77985858D01*
X171203715Y-78054312D01*
X171244729Y-78071300D01*
X171244730Y-78071301D01*
X171244731Y-78071301D01*
X171317548Y-78101463D01*
X171337597Y-78105451D01*
X171371196Y-78112134D01*
X171438392Y-78125501D01*
X171438394Y-78125501D01*
X171567721Y-78125501D01*
X171567741Y-78125500D01*
X171889548Y-78125500D01*
X171956587Y-78145185D01*
X171977229Y-78161819D01*
X172913181Y-79097771D01*
X172946666Y-79159094D01*
X172949500Y-79185452D01*
X172949500Y-87237770D01*
X172929815Y-87304809D01*
X172913181Y-87325451D01*
X172065451Y-88173181D01*
X172004128Y-88206666D01*
X171977770Y-88209500D01*
X163480266Y-88209500D01*
X163413227Y-88189815D01*
X163367472Y-88137011D01*
X163356976Y-88098750D01*
X163356091Y-88090516D01*
X163305797Y-87955671D01*
X163305793Y-87955664D01*
X163219547Y-87840455D01*
X163219544Y-87840452D01*
X163104335Y-87754206D01*
X163104328Y-87754202D01*
X162969482Y-87703908D01*
X162969483Y-87703908D01*
X162909883Y-87697501D01*
X162909881Y-87697500D01*
X162909873Y-87697500D01*
X162909864Y-87697500D01*
X161290129Y-87697500D01*
X161290123Y-87697501D01*
X161230516Y-87703908D01*
X161095671Y-87754202D01*
X161095664Y-87754206D01*
X160980455Y-87840452D01*
X160980452Y-87840455D01*
X160894206Y-87955664D01*
X160894202Y-87955671D01*
X160843908Y-88090517D01*
X160837501Y-88150116D01*
X160837500Y-88150135D01*
X160837500Y-89769870D01*
X160837501Y-89769872D01*
X160843908Y-89829483D01*
X160894202Y-89964328D01*
X160894206Y-89964335D01*
X160980452Y-90079544D01*
X160980455Y-90079547D01*
X161095664Y-90165793D01*
X161095671Y-90165797D01*
X161230517Y-90216091D01*
X161230516Y-90216091D01*
X161237444Y-90216835D01*
X161290127Y-90222500D01*
X161330949Y-90222499D01*
X161397986Y-90242182D01*
X161443742Y-90294985D01*
X161453687Y-90364143D01*
X161424664Y-90427700D01*
X161402072Y-90448074D01*
X161401811Y-90448256D01*
X161401810Y-90448257D01*
X162072553Y-91119000D01*
X162049840Y-91119000D01*
X161952939Y-91144964D01*
X161866060Y-91195124D01*
X161795124Y-91266060D01*
X161744964Y-91352939D01*
X161719000Y-91449840D01*
X161719000Y-91472552D01*
X161048258Y-90801811D01*
X161002901Y-90866590D01*
X160909579Y-91066720D01*
X160909575Y-91066729D01*
X160852426Y-91280013D01*
X160852424Y-91280023D01*
X160833179Y-91499999D01*
X160833179Y-91500000D01*
X160852424Y-91719976D01*
X160852426Y-91719986D01*
X160909575Y-91933270D01*
X160909580Y-91933284D01*
X161002898Y-92133405D01*
X161002901Y-92133411D01*
X161048258Y-92198187D01*
X161048259Y-92198188D01*
X161719000Y-91527447D01*
X161719000Y-91550160D01*
X161744964Y-91647061D01*
X161795124Y-91733940D01*
X161866060Y-91804876D01*
X161952939Y-91855036D01*
X162049840Y-91881000D01*
X162072553Y-91881000D01*
X161401810Y-92551740D01*
X161466589Y-92597098D01*
X161595781Y-92657342D01*
X161648220Y-92703514D01*
X161667372Y-92770708D01*
X161647156Y-92837589D01*
X161595781Y-92882106D01*
X161466340Y-92942465D01*
X161466338Y-92942466D01*
X161285377Y-93069175D01*
X161129175Y-93225377D01*
X161016271Y-93386623D01*
X160961694Y-93430248D01*
X160914696Y-93439500D01*
X159946669Y-93439500D01*
X159946653Y-93439499D01*
X159939057Y-93439499D01*
X159780943Y-93439499D01*
X159673587Y-93468265D01*
X159628210Y-93480424D01*
X159628209Y-93480425D01*
X159578096Y-93509359D01*
X159578095Y-93509360D01*
X159534689Y-93534420D01*
X159491285Y-93559479D01*
X159491282Y-93559481D01*
X159379478Y-93671286D01*
X157887584Y-95163181D01*
X157826261Y-95196666D01*
X157799903Y-95199500D01*
X156405304Y-95199500D01*
X156338265Y-95179815D01*
X156303729Y-95146623D01*
X156190827Y-94985381D01*
X156115342Y-94909896D01*
X156034620Y-94829174D01*
X156034616Y-94829171D01*
X156034615Y-94829170D01*
X155853666Y-94702468D01*
X155853662Y-94702466D01*
X155834170Y-94693377D01*
X155653450Y-94609106D01*
X155653447Y-94609105D01*
X155653445Y-94609104D01*
X155440070Y-94551930D01*
X155440062Y-94551929D01*
X155220002Y-94532677D01*
X155219998Y-94532677D01*
X154999937Y-94551929D01*
X154999929Y-94551930D01*
X154786554Y-94609104D01*
X154786548Y-94609107D01*
X154586340Y-94702465D01*
X154586338Y-94702466D01*
X154405377Y-94829175D01*
X154249175Y-94985377D01*
X154122466Y-95166338D01*
X154122465Y-95166340D01*
X154062382Y-95295189D01*
X154016209Y-95347628D01*
X153949016Y-95366780D01*
X153882135Y-95346564D01*
X153837618Y-95295189D01*
X153812878Y-95242135D01*
X153777534Y-95166339D01*
X153673026Y-95017085D01*
X153650827Y-94985381D01*
X153575342Y-94909896D01*
X153494620Y-94829174D01*
X153494616Y-94829171D01*
X153494615Y-94829170D01*
X153395370Y-94759678D01*
X153351745Y-94705101D01*
X153344552Y-94635603D01*
X153376074Y-94573248D01*
X153378779Y-94570455D01*
X155860520Y-92088716D01*
X155939577Y-91951784D01*
X155980501Y-91799057D01*
X155980501Y-91640942D01*
X155980501Y-91633347D01*
X155980500Y-91633329D01*
X155980500Y-86209090D01*
X156000185Y-86142051D01*
X156052101Y-86096706D01*
X156057830Y-86094035D01*
X156251401Y-85958495D01*
X156418495Y-85791401D01*
X156548425Y-85605842D01*
X156603002Y-85562217D01*
X156672500Y-85555023D01*
X156734855Y-85586546D01*
X156751575Y-85605842D01*
X156881500Y-85791395D01*
X156881505Y-85791401D01*
X157048599Y-85958495D01*
X157140522Y-86022860D01*
X157242165Y-86094032D01*
X157242167Y-86094033D01*
X157242170Y-86094035D01*
X157456337Y-86193903D01*
X157456343Y-86193904D01*
X157456344Y-86193905D01*
X157511285Y-86208626D01*
X157684592Y-86255063D01*
X157861034Y-86270500D01*
X157919999Y-86275659D01*
X157920000Y-86275659D01*
X157920001Y-86275659D01*
X157978966Y-86270500D01*
X158155408Y-86255063D01*
X158383663Y-86193903D01*
X158597830Y-86094035D01*
X158791401Y-85958495D01*
X158958495Y-85791401D01*
X159088425Y-85605842D01*
X159143002Y-85562217D01*
X159212500Y-85555023D01*
X159274855Y-85586546D01*
X159291575Y-85605842D01*
X159421500Y-85791395D01*
X159421505Y-85791401D01*
X159588599Y-85958495D01*
X159680522Y-86022860D01*
X159782165Y-86094032D01*
X159782167Y-86094033D01*
X159782170Y-86094035D01*
X159996337Y-86193903D01*
X159996343Y-86193904D01*
X159996344Y-86193905D01*
X160051285Y-86208626D01*
X160224592Y-86255063D01*
X160401034Y-86270500D01*
X160459999Y-86275659D01*
X160460000Y-86275659D01*
X160460001Y-86275659D01*
X160518966Y-86270500D01*
X160695408Y-86255063D01*
X160923663Y-86193903D01*
X161137830Y-86094035D01*
X161331401Y-85958495D01*
X161498495Y-85791401D01*
X161628425Y-85605842D01*
X161683002Y-85562217D01*
X161752500Y-85555023D01*
X161814855Y-85586546D01*
X161831575Y-85605842D01*
X161961500Y-85791395D01*
X161961505Y-85791401D01*
X162128599Y-85958495D01*
X162220522Y-86022860D01*
X162322165Y-86094032D01*
X162322167Y-86094033D01*
X162322170Y-86094035D01*
X162536337Y-86193903D01*
X162536343Y-86193904D01*
X162536344Y-86193905D01*
X162591285Y-86208626D01*
X162764592Y-86255063D01*
X162941034Y-86270500D01*
X162999999Y-86275659D01*
X163000000Y-86275659D01*
X163000001Y-86275659D01*
X163058966Y-86270500D01*
X163235408Y-86255063D01*
X163463663Y-86193903D01*
X163677830Y-86094035D01*
X163871401Y-85958495D01*
X164038495Y-85791401D01*
X164168425Y-85605842D01*
X164223002Y-85562217D01*
X164292500Y-85555023D01*
X164354855Y-85586546D01*
X164371575Y-85605842D01*
X164501500Y-85791395D01*
X164501505Y-85791401D01*
X164668599Y-85958495D01*
X164760522Y-86022860D01*
X164862165Y-86094032D01*
X164862167Y-86094033D01*
X164862170Y-86094035D01*
X165076337Y-86193903D01*
X165076343Y-86193904D01*
X165076344Y-86193905D01*
X165131285Y-86208626D01*
X165304592Y-86255063D01*
X165481034Y-86270500D01*
X165539999Y-86275659D01*
X165540000Y-86275659D01*
X165540001Y-86275659D01*
X165598966Y-86270500D01*
X165775408Y-86255063D01*
X166003663Y-86193903D01*
X166217830Y-86094035D01*
X166411401Y-85958495D01*
X166578495Y-85791401D01*
X166708425Y-85605842D01*
X166763002Y-85562217D01*
X166832500Y-85555023D01*
X166894855Y-85586546D01*
X166911575Y-85605842D01*
X167041500Y-85791395D01*
X167041505Y-85791401D01*
X167208599Y-85958495D01*
X167300522Y-86022860D01*
X167402165Y-86094032D01*
X167402167Y-86094033D01*
X167402170Y-86094035D01*
X167616337Y-86193903D01*
X167616343Y-86193904D01*
X167616344Y-86193905D01*
X167671285Y-86208626D01*
X167844592Y-86255063D01*
X168021034Y-86270500D01*
X168079999Y-86275659D01*
X168080000Y-86275659D01*
X168080001Y-86275659D01*
X168138966Y-86270500D01*
X168315408Y-86255063D01*
X168543663Y-86193903D01*
X168757830Y-86094035D01*
X168951401Y-85958495D01*
X169118495Y-85791401D01*
X169248425Y-85605842D01*
X169303002Y-85562217D01*
X169372500Y-85555023D01*
X169434855Y-85586546D01*
X169451575Y-85605842D01*
X169581500Y-85791395D01*
X169581505Y-85791401D01*
X169748599Y-85958495D01*
X169840522Y-86022860D01*
X169942165Y-86094032D01*
X169942167Y-86094033D01*
X169942170Y-86094035D01*
X170156337Y-86193903D01*
X170156343Y-86193904D01*
X170156344Y-86193905D01*
X170211285Y-86208626D01*
X170384592Y-86255063D01*
X170561034Y-86270500D01*
X170619999Y-86275659D01*
X170620000Y-86275659D01*
X170620001Y-86275659D01*
X170678966Y-86270500D01*
X170855408Y-86255063D01*
X171083663Y-86193903D01*
X171297830Y-86094035D01*
X171491401Y-85958495D01*
X171658495Y-85791401D01*
X171794035Y-85597830D01*
X171893903Y-85383663D01*
X171955063Y-85155408D01*
X171975659Y-84920000D01*
X171955063Y-84684592D01*
X171893903Y-84456337D01*
X171794035Y-84242171D01*
X171788425Y-84234158D01*
X171658494Y-84048597D01*
X171491402Y-83881506D01*
X171491395Y-83881501D01*
X171297834Y-83745967D01*
X171297830Y-83745965D01*
X171292085Y-83743286D01*
X171083663Y-83646097D01*
X171083659Y-83646096D01*
X171083655Y-83646094D01*
X170855413Y-83584938D01*
X170855403Y-83584936D01*
X170620001Y-83564341D01*
X170619999Y-83564341D01*
X170384596Y-83584936D01*
X170384586Y-83584938D01*
X170156344Y-83646094D01*
X170156335Y-83646098D01*
X169942171Y-83745964D01*
X169942169Y-83745965D01*
X169748597Y-83881505D01*
X169581505Y-84048597D01*
X169451575Y-84234158D01*
X169396998Y-84277783D01*
X169327500Y-84284977D01*
X169265145Y-84253454D01*
X169248425Y-84234158D01*
X169118494Y-84048597D01*
X168951402Y-83881506D01*
X168951395Y-83881501D01*
X168757834Y-83745967D01*
X168757830Y-83745965D01*
X168752085Y-83743286D01*
X168543663Y-83646097D01*
X168543659Y-83646096D01*
X168543655Y-83646094D01*
X168315413Y-83584938D01*
X168315403Y-83584936D01*
X168080001Y-83564341D01*
X168079999Y-83564341D01*
X167844596Y-83584936D01*
X167844586Y-83584938D01*
X167616344Y-83646094D01*
X167616335Y-83646098D01*
X167402171Y-83745964D01*
X167402169Y-83745965D01*
X167208597Y-83881505D01*
X167041505Y-84048597D01*
X166911575Y-84234158D01*
X166856998Y-84277783D01*
X166787500Y-84284977D01*
X166725145Y-84253454D01*
X166708425Y-84234158D01*
X166578494Y-84048597D01*
X166411402Y-83881506D01*
X166411395Y-83881501D01*
X166217831Y-83745965D01*
X166217826Y-83745962D01*
X166212091Y-83743288D01*
X166159653Y-83697113D01*
X166140500Y-83630908D01*
X166140500Y-82829060D01*
X166140501Y-82829047D01*
X166140501Y-82660944D01*
X166125636Y-82605468D01*
X166099577Y-82508216D01*
X166099573Y-82508209D01*
X166020524Y-82371290D01*
X166020518Y-82371282D01*
X164732835Y-81083599D01*
X164699350Y-81022276D01*
X164696516Y-80995918D01*
X164696516Y-77673929D01*
X164716201Y-77606890D01*
X164732831Y-77586252D01*
X165386844Y-76932239D01*
X165452103Y-76852131D01*
X165530840Y-76695350D01*
X165571301Y-76524638D01*
X165571301Y-76349196D01*
X165530840Y-76178484D01*
X165452103Y-76021702D01*
X165386846Y-75941595D01*
X164750437Y-75305188D01*
X164750422Y-75305176D01*
X164718291Y-75279000D01*
X164670330Y-75239929D01*
X164670328Y-75239928D01*
X164670327Y-75239927D01*
X164513547Y-75161191D01*
X164342843Y-75120732D01*
X164342838Y-75120731D01*
X164342836Y-75120731D01*
X164167394Y-75120731D01*
X164167392Y-75120731D01*
X164167386Y-75120732D01*
X163996684Y-75161190D01*
X163891220Y-75214155D01*
X163839901Y-75239929D01*
X163839899Y-75239930D01*
X163839894Y-75239933D01*
X163759804Y-75305176D01*
X163759786Y-75305192D01*
X162805195Y-76259785D01*
X162805184Y-76259797D01*
X162739931Y-76339898D01*
X162739930Y-76339899D01*
X162661190Y-76496684D01*
X162620732Y-76667386D01*
X162620731Y-76667397D01*
X162620731Y-76842832D01*
X162620732Y-76842843D01*
X162661191Y-77013547D01*
X162739927Y-77170327D01*
X162739929Y-77170330D01*
X162805186Y-77250437D01*
X163441595Y-77886844D01*
X163442634Y-77887690D01*
X163449831Y-77893553D01*
X163489376Y-77951155D01*
X163495516Y-77989692D01*
X163495516Y-81209346D01*
X163495515Y-81209364D01*
X163495515Y-81375070D01*
X163495514Y-81375070D01*
X163536439Y-81527801D01*
X163556567Y-81562662D01*
X163556568Y-81562666D01*
X163615491Y-81664725D01*
X163615497Y-81664733D01*
X163734365Y-81783601D01*
X163734371Y-81783606D01*
X164903181Y-82952416D01*
X164936666Y-83013739D01*
X164939500Y-83040097D01*
X164939500Y-83630908D01*
X164919815Y-83697947D01*
X164867914Y-83743286D01*
X164862173Y-83745963D01*
X164862169Y-83745965D01*
X164668597Y-83881505D01*
X164501505Y-84048597D01*
X164371575Y-84234158D01*
X164316998Y-84277783D01*
X164247500Y-84284977D01*
X164185145Y-84253454D01*
X164168425Y-84234158D01*
X164038494Y-84048597D01*
X163871402Y-83881506D01*
X163871395Y-83881501D01*
X163677834Y-83745967D01*
X163677830Y-83745965D01*
X163672085Y-83743286D01*
X163463663Y-83646097D01*
X163463659Y-83646096D01*
X163463655Y-83646094D01*
X163235413Y-83584938D01*
X163235403Y-83584936D01*
X163000001Y-83564341D01*
X162999999Y-83564341D01*
X162764596Y-83584936D01*
X162764586Y-83584938D01*
X162536344Y-83646094D01*
X162536335Y-83646098D01*
X162322171Y-83745964D01*
X162322169Y-83745965D01*
X162128597Y-83881505D01*
X161961505Y-84048597D01*
X161831575Y-84234158D01*
X161776998Y-84277783D01*
X161707500Y-84284977D01*
X161645145Y-84253454D01*
X161628425Y-84234158D01*
X161498494Y-84048597D01*
X161331402Y-83881506D01*
X161331395Y-83881501D01*
X161137834Y-83745967D01*
X161137830Y-83745965D01*
X161132085Y-83743286D01*
X160923663Y-83646097D01*
X160923659Y-83646096D01*
X160923655Y-83646094D01*
X160695413Y-83584938D01*
X160695403Y-83584936D01*
X160460001Y-83564341D01*
X160459999Y-83564341D01*
X160224596Y-83584936D01*
X160224586Y-83584938D01*
X159996344Y-83646094D01*
X159996335Y-83646098D01*
X159782171Y-83745964D01*
X159782169Y-83745965D01*
X159588597Y-83881505D01*
X159421505Y-84048597D01*
X159291575Y-84234158D01*
X159236998Y-84277783D01*
X159167500Y-84284977D01*
X159105145Y-84253454D01*
X159088425Y-84234158D01*
X158958494Y-84048597D01*
X158791402Y-83881506D01*
X158791395Y-83881501D01*
X158597834Y-83745967D01*
X158597830Y-83745965D01*
X158592085Y-83743286D01*
X158383663Y-83646097D01*
X158383659Y-83646096D01*
X158383655Y-83646094D01*
X158155413Y-83584938D01*
X158155403Y-83584936D01*
X157920001Y-83564341D01*
X157919999Y-83564341D01*
X157684596Y-83584936D01*
X157684586Y-83584938D01*
X157456344Y-83646094D01*
X157456335Y-83646098D01*
X157242171Y-83745964D01*
X157242169Y-83745965D01*
X157048597Y-83881505D01*
X156881505Y-84048597D01*
X156751575Y-84234158D01*
X156696998Y-84277783D01*
X156627500Y-84284977D01*
X156565145Y-84253454D01*
X156548425Y-84234158D01*
X156418494Y-84048597D01*
X156251402Y-83881506D01*
X156251395Y-83881501D01*
X156057834Y-83745967D01*
X156057830Y-83745965D01*
X156052085Y-83743286D01*
X155843663Y-83646097D01*
X155843659Y-83646096D01*
X155843655Y-83646094D01*
X155615413Y-83584938D01*
X155615403Y-83584936D01*
X155380001Y-83564341D01*
X155379999Y-83564341D01*
X155144596Y-83584936D01*
X155144586Y-83584938D01*
X154916344Y-83646094D01*
X154916335Y-83646098D01*
X154702171Y-83745964D01*
X154702169Y-83745965D01*
X154508600Y-83881503D01*
X154386673Y-84003430D01*
X154325350Y-84036914D01*
X154255658Y-84031930D01*
X154199725Y-83990058D01*
X154182810Y-83959081D01*
X154133797Y-83827671D01*
X154133793Y-83827664D01*
X154047547Y-83712455D01*
X154047544Y-83712452D01*
X153932335Y-83626206D01*
X153932328Y-83626202D01*
X153797482Y-83575908D01*
X153797483Y-83575908D01*
X153737883Y-83569501D01*
X153737881Y-83569500D01*
X153737873Y-83569500D01*
X153737864Y-83569500D01*
X151942129Y-83569500D01*
X151942123Y-83569501D01*
X151882516Y-83575908D01*
X151747671Y-83626202D01*
X151747664Y-83626206D01*
X151632455Y-83712452D01*
X151632452Y-83712455D01*
X151546206Y-83827664D01*
X151546202Y-83827671D01*
X151495908Y-83962517D01*
X151489501Y-84022116D01*
X151489500Y-84022135D01*
X151489500Y-85385970D01*
X151500060Y-85470049D01*
X151555136Y-85603015D01*
X151555137Y-85603016D01*
X151607121Y-85669935D01*
X151607127Y-85669941D01*
X152090067Y-86152882D01*
X152090077Y-86152891D01*
X152142876Y-86193905D01*
X152156984Y-86204864D01*
X152289951Y-86259940D01*
X152374023Y-86270500D01*
X153737872Y-86270499D01*
X153797483Y-86264091D01*
X153932331Y-86213796D01*
X154047546Y-86127546D01*
X154133796Y-86012331D01*
X154182810Y-85880916D01*
X154224681Y-85824984D01*
X154290145Y-85800566D01*
X154358418Y-85815417D01*
X154386673Y-85836569D01*
X154508599Y-85958495D01*
X154600522Y-86022860D01*
X154702165Y-86094032D01*
X154702167Y-86094033D01*
X154702170Y-86094035D01*
X154707898Y-86096706D01*
X154760339Y-86142872D01*
X154779500Y-86209090D01*
X154779500Y-91419902D01*
X154759815Y-91486941D01*
X154743181Y-91507583D01*
X152199481Y-94051282D01*
X152199477Y-94051287D01*
X152182276Y-94081082D01*
X152182273Y-94081088D01*
X152120423Y-94188215D01*
X152079499Y-94340943D01*
X152079499Y-94340945D01*
X152079499Y-94509046D01*
X152079500Y-94509059D01*
X152079500Y-94614695D01*
X152059815Y-94681734D01*
X152026623Y-94716270D01*
X151865378Y-94829174D01*
X151709175Y-94985377D01*
X151582466Y-95166338D01*
X151582465Y-95166340D01*
X151522382Y-95295189D01*
X151476209Y-95347628D01*
X151409016Y-95366780D01*
X151342135Y-95346564D01*
X151297618Y-95295189D01*
X151272878Y-95242135D01*
X151237534Y-95166339D01*
X151133026Y-95017085D01*
X151110827Y-94985381D01*
X151035342Y-94909896D01*
X150954620Y-94829174D01*
X150954616Y-94829171D01*
X150954615Y-94829170D01*
X150773666Y-94702468D01*
X150773662Y-94702466D01*
X150754170Y-94693377D01*
X150573450Y-94609106D01*
X150573447Y-94609105D01*
X150573445Y-94609104D01*
X150360070Y-94551930D01*
X150360062Y-94551929D01*
X150140002Y-94532677D01*
X150139998Y-94532677D01*
X149919937Y-94551929D01*
X149919929Y-94551930D01*
X149706554Y-94609104D01*
X149706548Y-94609107D01*
X149506340Y-94702465D01*
X149506338Y-94702466D01*
X149325377Y-94829175D01*
X149169175Y-94985377D01*
X149087575Y-95101916D01*
X149032998Y-95145541D01*
X148963500Y-95152735D01*
X148901145Y-95121212D01*
X148865731Y-95060983D01*
X148862000Y-95030793D01*
X148862000Y-94990172D01*
X148861999Y-94990155D01*
X148855598Y-94930627D01*
X148855596Y-94930620D01*
X148805354Y-94795913D01*
X148805350Y-94795906D01*
X148719190Y-94680812D01*
X148719187Y-94680809D01*
X148604093Y-94594649D01*
X148604086Y-94594645D01*
X148469379Y-94544403D01*
X148469372Y-94544401D01*
X148409844Y-94538000D01*
X147850000Y-94538000D01*
X147850000Y-95511184D01*
X147833940Y-95495124D01*
X147747061Y-95444964D01*
X147650160Y-95419000D01*
X147549840Y-95419000D01*
X147452939Y-95444964D01*
X147366060Y-95495124D01*
X147350000Y-95511184D01*
X147350000Y-94538000D01*
X146790155Y-94538000D01*
X146730627Y-94544401D01*
X146730620Y-94544403D01*
X146595913Y-94594645D01*
X146595906Y-94594649D01*
X146480812Y-94680809D01*
X146480809Y-94680812D01*
X146394649Y-94795906D01*
X146394645Y-94795913D01*
X146344403Y-94930620D01*
X146344401Y-94930627D01*
X146338000Y-94990155D01*
X146338000Y-95550000D01*
X147311184Y-95550000D01*
X147295124Y-95566060D01*
X147244964Y-95652939D01*
X147219000Y-95749840D01*
X147219000Y-95850160D01*
X147244964Y-95947061D01*
X147295124Y-96033940D01*
X147311184Y-96050000D01*
X146338000Y-96050000D01*
X146338000Y-96609844D01*
X146344401Y-96669372D01*
X146344403Y-96669379D01*
X146394645Y-96804086D01*
X146394649Y-96804093D01*
X146480809Y-96919187D01*
X146480812Y-96919190D01*
X146595906Y-97005350D01*
X146595913Y-97005354D01*
X146730620Y-97055596D01*
X146730627Y-97055598D01*
X146790155Y-97061999D01*
X146790172Y-97062000D01*
X147350000Y-97062000D01*
X147350000Y-96088816D01*
X147366060Y-96104876D01*
X147452939Y-96155036D01*
X147549840Y-96181000D01*
X147650160Y-96181000D01*
X147747061Y-96155036D01*
X147833940Y-96104876D01*
X147850000Y-96088816D01*
X147850000Y-97062000D01*
X148409828Y-97062000D01*
X148409844Y-97061999D01*
X148469372Y-97055598D01*
X148469379Y-97055596D01*
X148604086Y-97005354D01*
X148604093Y-97005350D01*
X148719187Y-96919190D01*
X148719190Y-96919187D01*
X148805350Y-96804093D01*
X148805354Y-96804086D01*
X148855596Y-96669379D01*
X148855598Y-96669372D01*
X148861999Y-96609844D01*
X148862000Y-96609827D01*
X148862000Y-96569207D01*
X148881685Y-96502168D01*
X148934489Y-96456413D01*
X149003647Y-96446469D01*
X149067203Y-96475494D01*
X149087573Y-96498082D01*
X149107180Y-96526083D01*
X149169170Y-96614615D01*
X149169175Y-96614621D01*
X149325378Y-96770824D01*
X149325384Y-96770829D01*
X149506333Y-96897531D01*
X149506335Y-96897532D01*
X149506338Y-96897534D01*
X149706550Y-96990894D01*
X149919932Y-97048070D01*
X150069395Y-97061146D01*
X150139998Y-97067323D01*
X150140000Y-97067323D01*
X150140001Y-97067323D01*
X150157521Y-97065790D01*
X150271784Y-97055793D01*
X150340283Y-97069559D01*
X150370272Y-97091640D01*
X150416451Y-97137819D01*
X150449936Y-97199142D01*
X150444952Y-97268834D01*
X150403080Y-97324767D01*
X150337616Y-97349184D01*
X150328770Y-97349500D01*
X145462229Y-97349500D01*
X145395190Y-97329815D01*
X145374548Y-97313181D01*
X143586819Y-95525451D01*
X143553334Y-95464128D01*
X143550500Y-95437770D01*
X143550500Y-77962229D01*
X143570185Y-77895190D01*
X143586819Y-77874548D01*
X143844548Y-77616819D01*
X143905871Y-77583334D01*
X143932229Y-77580500D01*
X144597209Y-77580500D01*
X144664248Y-77600185D01*
X144710003Y-77652989D01*
X144713391Y-77661167D01*
X144736202Y-77722328D01*
X144736206Y-77722335D01*
X144822452Y-77837544D01*
X144822455Y-77837547D01*
X144937664Y-77923793D01*
X144937671Y-77923797D01*
X145072517Y-77974091D01*
X145072516Y-77974091D01*
X145079444Y-77974835D01*
X145132127Y-77980500D01*
X145663759Y-77980499D01*
X145730797Y-78000183D01*
X145776552Y-78052987D01*
X145786496Y-78122146D01*
X145757471Y-78185702D01*
X145698693Y-78223476D01*
X145686544Y-78226387D01*
X145513802Y-78258679D01*
X145513799Y-78258679D01*
X145513799Y-78258680D01*
X145314982Y-78335701D01*
X145314980Y-78335702D01*
X145133699Y-78447947D01*
X144976127Y-78591593D01*
X144847632Y-78761746D01*
X144752596Y-78952605D01*
X144752596Y-78952607D01*
X144694244Y-79157689D01*
X144674571Y-79369999D01*
X144674571Y-79370000D01*
X144694244Y-79582310D01*
X144752596Y-79787392D01*
X144752596Y-79787394D01*
X144847632Y-79978253D01*
X144947612Y-80110646D01*
X144976128Y-80148407D01*
X145133698Y-80292052D01*
X145314981Y-80404298D01*
X145513802Y-80481321D01*
X145723390Y-80520500D01*
X145723392Y-80520500D01*
X145936608Y-80520500D01*
X145936610Y-80520500D01*
X146146198Y-80481321D01*
X146345019Y-80404298D01*
X146526302Y-80292052D01*
X146683872Y-80148407D01*
X146812366Y-79978255D01*
X146842323Y-79918092D01*
X146907403Y-79787394D01*
X146907403Y-79787393D01*
X146907405Y-79787389D01*
X146965756Y-79582310D01*
X146985429Y-79370000D01*
X146985429Y-79369999D01*
X146985958Y-79364292D01*
X146988361Y-79364514D01*
X147005114Y-79307461D01*
X147057918Y-79261706D01*
X147109429Y-79250500D01*
X147206608Y-79250500D01*
X147206610Y-79250500D01*
X147416198Y-79211321D01*
X147615019Y-79134298D01*
X147796302Y-79022052D01*
X147953872Y-78878407D01*
X148082366Y-78708255D01*
X148177405Y-78517389D01*
X148235756Y-78312310D01*
X148255429Y-78100000D01*
X148251195Y-78054312D01*
X148235227Y-77881981D01*
X148236850Y-77881830D01*
X148243098Y-77819925D01*
X148270282Y-77778951D01*
X149062417Y-76986819D01*
X149123740Y-76953334D01*
X149150098Y-76950500D01*
X155665413Y-76950500D01*
X155665429Y-76950501D01*
X155673025Y-76950501D01*
X155831136Y-76950501D01*
X155831139Y-76950501D01*
X155983867Y-76909577D01*
X156037967Y-76878342D01*
X156120798Y-76830520D01*
X156232602Y-76718716D01*
X156232602Y-76718714D01*
X156242806Y-76708511D01*
X156242809Y-76708506D01*
X157910514Y-75040803D01*
X157971837Y-75007318D01*
X157998195Y-75004484D01*
X160510305Y-75004484D01*
X160577344Y-75024169D01*
X160606444Y-75050169D01*
X160613142Y-75058392D01*
X160613153Y-75058404D01*
X160613154Y-75058405D01*
X161249563Y-75694812D01*
X161249567Y-75694815D01*
X161249569Y-75694817D01*
X161261681Y-75704684D01*
X161329670Y-75760071D01*
X161486452Y-75838808D01*
X161657164Y-75879269D01*
X161657167Y-75879269D01*
X161832603Y-75879269D01*
X161832606Y-75879269D01*
X161925003Y-75857369D01*
X162003315Y-75838809D01*
X162003316Y-75838808D01*
X162003318Y-75838808D01*
X162160099Y-75760071D01*
X162240207Y-75694814D01*
X163194812Y-74740207D01*
X163260071Y-74660099D01*
X163338808Y-74503318D01*
X163353765Y-74440214D01*
X163372752Y-74360101D01*
X163379269Y-74332606D01*
X163379269Y-74157164D01*
X163338808Y-73986452D01*
X163260071Y-73829670D01*
X163194814Y-73749563D01*
X162558405Y-73113156D01*
X162558390Y-73113144D01*
X162523978Y-73085110D01*
X162478298Y-73047897D01*
X162478296Y-73047896D01*
X162478295Y-73047895D01*
X162321515Y-72969159D01*
X162150811Y-72928700D01*
X162150806Y-72928699D01*
X162150804Y-72928699D01*
X161975362Y-72928699D01*
X161975360Y-72928699D01*
X161975354Y-72928700D01*
X161804652Y-72969158D01*
X161699188Y-73022123D01*
X161647869Y-73047897D01*
X161647867Y-73047898D01*
X161647862Y-73047901D01*
X161567772Y-73113144D01*
X161567754Y-73113160D01*
X160913751Y-73767165D01*
X160852428Y-73800650D01*
X160826070Y-73803484D01*
X157619040Y-73803484D01*
X157466312Y-73844407D01*
X157430500Y-73865084D01*
X157430499Y-73865084D01*
X157329385Y-73923461D01*
X157329380Y-73923465D01*
X157217576Y-74035270D01*
X155539666Y-75713181D01*
X155478343Y-75746666D01*
X155451985Y-75749500D01*
X148936670Y-75749500D01*
X148936654Y-75749499D01*
X148929058Y-75749499D01*
X148770943Y-75749499D01*
X148694579Y-75769961D01*
X148618214Y-75790423D01*
X148618209Y-75790426D01*
X148481290Y-75869475D01*
X148481282Y-75869481D01*
X147416824Y-76933938D01*
X147355501Y-76967423D01*
X147306359Y-76968146D01*
X147284424Y-76964045D01*
X147206610Y-76949500D01*
X147104499Y-76949500D01*
X147037460Y-76929815D01*
X146991705Y-76877011D01*
X146980499Y-76825500D01*
X146980499Y-76132129D01*
X146980498Y-76132123D01*
X146974091Y-76072516D01*
X146923797Y-75937671D01*
X146923793Y-75937664D01*
X146837547Y-75822455D01*
X146837544Y-75822452D01*
X146722335Y-75736206D01*
X146722328Y-75736202D01*
X146587482Y-75685908D01*
X146587483Y-75685908D01*
X146527883Y-75679501D01*
X146527881Y-75679500D01*
X146527873Y-75679500D01*
X146527864Y-75679500D01*
X145132129Y-75679500D01*
X145132123Y-75679501D01*
X145072516Y-75685908D01*
X144937671Y-75736202D01*
X144937664Y-75736206D01*
X144822455Y-75822452D01*
X144822452Y-75822455D01*
X144736206Y-75937664D01*
X144736202Y-75937671D01*
X144713391Y-75998833D01*
X144671520Y-76054767D01*
X144606056Y-76079184D01*
X144597209Y-76079500D01*
X143496080Y-76079500D01*
X143351092Y-76108340D01*
X143351082Y-76108343D01*
X143214511Y-76164912D01*
X143214498Y-76164919D01*
X143091584Y-76247048D01*
X143091580Y-76247051D01*
X142217045Y-77121586D01*
X142184480Y-77170327D01*
X142184478Y-77170330D01*
X142134914Y-77244507D01*
X142078343Y-77381082D01*
X142078340Y-77381092D01*
X142049500Y-77526079D01*
X142049500Y-77526082D01*
X142049500Y-95873918D01*
X142049500Y-95873920D01*
X142049499Y-95873920D01*
X142078340Y-96018907D01*
X142078343Y-96018917D01*
X142134912Y-96155488D01*
X142134915Y-96155494D01*
X142134916Y-96155495D01*
X142143748Y-96168713D01*
X142143749Y-96168716D01*
X142217046Y-96278414D01*
X142217052Y-96278421D01*
X144526451Y-98587819D01*
X144559936Y-98649142D01*
X144554952Y-98718834D01*
X144513080Y-98774767D01*
X144447616Y-98799184D01*
X144438770Y-98799500D01*
X115629070Y-98799500D01*
X115562031Y-98779815D01*
X115516276Y-98727011D01*
X115506332Y-98657853D01*
X115535357Y-98594297D01*
X115537099Y-98592582D01*
X115537180Y-98590733D01*
X114469106Y-97522659D01*
X114577184Y-97444136D01*
X114744136Y-97277184D01*
X114822658Y-97169106D01*
X115893849Y-98240297D01*
X115893851Y-98240296D01*
X115902022Y-98231636D01*
X115902033Y-98231623D01*
X116110710Y-97951322D01*
X116285438Y-97648683D01*
X116285444Y-97648670D01*
X116423854Y-97327800D01*
X116524083Y-96993011D01*
X116524085Y-96993002D01*
X116584763Y-96648880D01*
X116584764Y-96648869D01*
X116605084Y-96300003D01*
X116605084Y-96299996D01*
X116584764Y-95951130D01*
X116584763Y-95951119D01*
X116524085Y-95606997D01*
X116524083Y-95606988D01*
X116423854Y-95272199D01*
X116285444Y-94951329D01*
X116285438Y-94951316D01*
X116110710Y-94648677D01*
X115902032Y-94368374D01*
X115893850Y-94359702D01*
X114822658Y-95430893D01*
X114744136Y-95322816D01*
X114577184Y-95155864D01*
X114469105Y-95077340D01*
X115537180Y-94009265D01*
X115537179Y-94009264D01*
X115394519Y-93889557D01*
X115102538Y-93697519D01*
X114790260Y-93540685D01*
X114790254Y-93540683D01*
X114461869Y-93421161D01*
X114461866Y-93421160D01*
X114121828Y-93340570D01*
X113774723Y-93300000D01*
X113425277Y-93300000D01*
X113078172Y-93340570D01*
X113078170Y-93340570D01*
X112738133Y-93421160D01*
X112738130Y-93421161D01*
X112409745Y-93540683D01*
X112409739Y-93540685D01*
X112097461Y-93697519D01*
X111805480Y-93889557D01*
X111662819Y-94009264D01*
X111662818Y-94009265D01*
X112730894Y-95077340D01*
X112622816Y-95155864D01*
X112455864Y-95322816D01*
X112377340Y-95430893D01*
X111306148Y-94359701D01*
X111299012Y-94359806D01*
X111254376Y-94385895D01*
X111184569Y-94382943D01*
X111127439Y-94342718D01*
X111101126Y-94277993D01*
X111100500Y-94265548D01*
X111100500Y-87209999D01*
X112419341Y-87209999D01*
X112419341Y-87210000D01*
X112439936Y-87445403D01*
X112439938Y-87445413D01*
X112501094Y-87673655D01*
X112501096Y-87673659D01*
X112501097Y-87673663D01*
X112568830Y-87818917D01*
X112600965Y-87887830D01*
X112600967Y-87887834D01*
X112709281Y-88042521D01*
X112736501Y-88081396D01*
X112736506Y-88081402D01*
X112858818Y-88203714D01*
X112892303Y-88265037D01*
X112887319Y-88334729D01*
X112845447Y-88390662D01*
X112814471Y-88407577D01*
X112682912Y-88456646D01*
X112682906Y-88456649D01*
X112567812Y-88542809D01*
X112567809Y-88542812D01*
X112481649Y-88657906D01*
X112481645Y-88657913D01*
X112431403Y-88792620D01*
X112431401Y-88792627D01*
X112425000Y-88852155D01*
X112425000Y-89500000D01*
X113341988Y-89500000D01*
X113309075Y-89557007D01*
X113275000Y-89684174D01*
X113275000Y-89815826D01*
X113309075Y-89942993D01*
X113341988Y-90000000D01*
X112425000Y-90000000D01*
X112425000Y-90647844D01*
X112431401Y-90707372D01*
X112431403Y-90707379D01*
X112481645Y-90842086D01*
X112481649Y-90842093D01*
X112567809Y-90957187D01*
X112567812Y-90957190D01*
X112682906Y-91043350D01*
X112682913Y-91043354D01*
X112817620Y-91093596D01*
X112817627Y-91093598D01*
X112877155Y-91099999D01*
X112877172Y-91100000D01*
X113525000Y-91100000D01*
X113525000Y-90183012D01*
X113582007Y-90215925D01*
X113709174Y-90250000D01*
X113840826Y-90250000D01*
X113967993Y-90215925D01*
X114025000Y-90183012D01*
X114025000Y-91100000D01*
X114672828Y-91100000D01*
X114672844Y-91099999D01*
X114732372Y-91093598D01*
X114732379Y-91093596D01*
X114867086Y-91043354D01*
X114867093Y-91043350D01*
X114982187Y-90957190D01*
X114982190Y-90957187D01*
X115068350Y-90842093D01*
X115068354Y-90842086D01*
X115118596Y-90707379D01*
X115118598Y-90707372D01*
X115124999Y-90647844D01*
X115125000Y-90647827D01*
X115125000Y-90000000D01*
X114208012Y-90000000D01*
X114240925Y-89942993D01*
X114275000Y-89815826D01*
X114275000Y-89684174D01*
X114240925Y-89557007D01*
X114208012Y-89500000D01*
X115125000Y-89500000D01*
X115125000Y-88852172D01*
X115124999Y-88852155D01*
X115118598Y-88792627D01*
X115118596Y-88792620D01*
X115068354Y-88657913D01*
X115068350Y-88657906D01*
X114982190Y-88542812D01*
X114982187Y-88542809D01*
X114867093Y-88456649D01*
X114867088Y-88456646D01*
X114735528Y-88407577D01*
X114679595Y-88365705D01*
X114655178Y-88300241D01*
X114670030Y-88231968D01*
X114691175Y-88203720D01*
X114813495Y-88081401D01*
X114949035Y-87887830D01*
X115048903Y-87673663D01*
X115110063Y-87445408D01*
X115130659Y-87210000D01*
X115110063Y-86974592D01*
X115048903Y-86746337D01*
X114949035Y-86532171D01*
X114940444Y-86519901D01*
X114813494Y-86338597D01*
X114646402Y-86171506D01*
X114646395Y-86171501D01*
X114452834Y-86035967D01*
X114452830Y-86035965D01*
X114402140Y-86012328D01*
X114238663Y-85936097D01*
X114238659Y-85936096D01*
X114238655Y-85936094D01*
X114010413Y-85874938D01*
X114010403Y-85874936D01*
X113775001Y-85854341D01*
X113774999Y-85854341D01*
X113539596Y-85874936D01*
X113539586Y-85874938D01*
X113311344Y-85936094D01*
X113311335Y-85936098D01*
X113097171Y-86035964D01*
X113097169Y-86035965D01*
X112903597Y-86171505D01*
X112736505Y-86338597D01*
X112600965Y-86532169D01*
X112600964Y-86532171D01*
X112501098Y-86746335D01*
X112501094Y-86746344D01*
X112439938Y-86974586D01*
X112439936Y-86974596D01*
X112419341Y-87209999D01*
X111100500Y-87209999D01*
X111100500Y-76219998D01*
X112494532Y-76219998D01*
X112494532Y-76220001D01*
X112514364Y-76446686D01*
X112514366Y-76446697D01*
X112573258Y-76666488D01*
X112573261Y-76666497D01*
X112669431Y-76872732D01*
X112669432Y-76872734D01*
X112799954Y-77059141D01*
X112960858Y-77220045D01*
X113054021Y-77285278D01*
X113097646Y-77339854D01*
X113104840Y-77409353D01*
X113073317Y-77471708D01*
X113013088Y-77507122D01*
X112996152Y-77510143D01*
X112942516Y-77515908D01*
X112807671Y-77566202D01*
X112807664Y-77566206D01*
X112692455Y-77652452D01*
X112692452Y-77652455D01*
X112606206Y-77767664D01*
X112606202Y-77767671D01*
X112555908Y-77902517D01*
X112549501Y-77962116D01*
X112549501Y-77962123D01*
X112549500Y-77962135D01*
X112549500Y-79557870D01*
X112549501Y-79557876D01*
X112555908Y-79617483D01*
X112606202Y-79752328D01*
X112606206Y-79752335D01*
X112692452Y-79867544D01*
X112692455Y-79867547D01*
X112807664Y-79953793D01*
X112807671Y-79953797D01*
X112852618Y-79970561D01*
X112942517Y-80004091D01*
X112996157Y-80009858D01*
X113060703Y-80036594D01*
X113100552Y-80093986D01*
X113103047Y-80163811D01*
X113067395Y-80223900D01*
X113054022Y-80234721D01*
X112960856Y-80299956D01*
X112799954Y-80460858D01*
X112669432Y-80647265D01*
X112669431Y-80647267D01*
X112573261Y-80853502D01*
X112573258Y-80853511D01*
X112514366Y-81073302D01*
X112514364Y-81073313D01*
X112494532Y-81299998D01*
X112494532Y-81300001D01*
X112514364Y-81526686D01*
X112514366Y-81526697D01*
X112573258Y-81746488D01*
X112573261Y-81746497D01*
X112669431Y-81952732D01*
X112669432Y-81952734D01*
X112799954Y-82139141D01*
X112960858Y-82300045D01*
X112960861Y-82300047D01*
X113147266Y-82430568D01*
X113353504Y-82526739D01*
X113573308Y-82585635D01*
X113735230Y-82599801D01*
X113799998Y-82605468D01*
X113800000Y-82605468D01*
X113800002Y-82605468D01*
X113856673Y-82600509D01*
X114026692Y-82585635D01*
X114246496Y-82526739D01*
X114452734Y-82430568D01*
X114639139Y-82300047D01*
X114800047Y-82139139D01*
X114930568Y-81952734D01*
X115026739Y-81746496D01*
X115085635Y-81526692D01*
X115105468Y-81300000D01*
X115085635Y-81073308D01*
X115026739Y-80853504D01*
X114930568Y-80647266D01*
X114800047Y-80460861D01*
X114800045Y-80460858D01*
X114639141Y-80299954D01*
X114545978Y-80234721D01*
X114502353Y-80180144D01*
X114495159Y-80110646D01*
X114526682Y-80048291D01*
X114586911Y-80012877D01*
X114603842Y-80009857D01*
X114657483Y-80004091D01*
X114792331Y-79953796D01*
X114907546Y-79867546D01*
X114993796Y-79752331D01*
X115044091Y-79617483D01*
X115050500Y-79557873D01*
X115050499Y-78681902D01*
X119019500Y-78681902D01*
X119019500Y-79918097D01*
X119056446Y-80151368D01*
X119129433Y-80375996D01*
X119203062Y-80520500D01*
X119236657Y-80586433D01*
X119375483Y-80777510D01*
X119375485Y-80777512D01*
X119483181Y-80885208D01*
X119516666Y-80946531D01*
X119519500Y-80972889D01*
X119519500Y-85127111D01*
X119499815Y-85194150D01*
X119483181Y-85214792D01*
X119375485Y-85322487D01*
X119375485Y-85322488D01*
X119375483Y-85322490D01*
X119331044Y-85383655D01*
X119236657Y-85513566D01*
X119129433Y-85724003D01*
X119056446Y-85948631D01*
X119019500Y-86181902D01*
X119019500Y-87418097D01*
X119056446Y-87651368D01*
X119129433Y-87875996D01*
X119234093Y-88081401D01*
X119236657Y-88086433D01*
X119375483Y-88277510D01*
X119375485Y-88277512D01*
X119483181Y-88385208D01*
X119516666Y-88446531D01*
X119519500Y-88472889D01*
X119519500Y-89718541D01*
X119529710Y-89769870D01*
X119529711Y-89769872D01*
X119529711Y-89769874D01*
X119557947Y-89911829D01*
X119557948Y-89911832D01*
X119557949Y-89911836D01*
X119564713Y-89928164D01*
X119564714Y-89928168D01*
X119633364Y-90093907D01*
X119633371Y-90093920D01*
X119742860Y-90257781D01*
X119742863Y-90257785D01*
X119886537Y-90401459D01*
X119886559Y-90401479D01*
X120083181Y-90598101D01*
X120116666Y-90659424D01*
X120119500Y-90685782D01*
X120119500Y-91127111D01*
X120099815Y-91194150D01*
X120083181Y-91214792D01*
X119975485Y-91322487D01*
X119975485Y-91322488D01*
X119975483Y-91322490D01*
X119938119Y-91373917D01*
X119836657Y-91513566D01*
X119729433Y-91724003D01*
X119656446Y-91948631D01*
X119619500Y-92181902D01*
X119619500Y-93418097D01*
X119656446Y-93651368D01*
X119729433Y-93875996D01*
X119812998Y-94040000D01*
X119836657Y-94086433D01*
X119975483Y-94277510D01*
X120142490Y-94444517D01*
X120333567Y-94583343D01*
X120384126Y-94609104D01*
X120544003Y-94690566D01*
X120544005Y-94690566D01*
X120544008Y-94690568D01*
X120664412Y-94729689D01*
X120768631Y-94763553D01*
X121001903Y-94800500D01*
X121001908Y-94800500D01*
X121238097Y-94800500D01*
X121471368Y-94763553D01*
X121483294Y-94759678D01*
X121695992Y-94690568D01*
X121906433Y-94583343D01*
X122097510Y-94444517D01*
X122264517Y-94277510D01*
X122403343Y-94086433D01*
X122510568Y-93875992D01*
X122583553Y-93651368D01*
X122590651Y-93606554D01*
X122620500Y-93418097D01*
X122620500Y-92181902D01*
X122583553Y-91948631D01*
X122528701Y-91779815D01*
X122510568Y-91724008D01*
X122510566Y-91724004D01*
X122510566Y-91724003D01*
X122403342Y-91513566D01*
X122382013Y-91484209D01*
X122264517Y-91322490D01*
X122156819Y-91214792D01*
X122123334Y-91153469D01*
X122120500Y-91127111D01*
X122120500Y-90121456D01*
X122120499Y-90121454D01*
X122082052Y-89928168D01*
X122082051Y-89928167D01*
X122082051Y-89928165D01*
X122075287Y-89911836D01*
X122059961Y-89874834D01*
X122021918Y-89782989D01*
X122006635Y-89746092D01*
X122006628Y-89746079D01*
X121897139Y-89582218D01*
X121897136Y-89582214D01*
X121754686Y-89439764D01*
X121754655Y-89439735D01*
X121556819Y-89241899D01*
X121523334Y-89180576D01*
X121520500Y-89154218D01*
X121520500Y-88472889D01*
X121540185Y-88405850D01*
X121556819Y-88385208D01*
X121607298Y-88334729D01*
X121664517Y-88277510D01*
X121803343Y-88086433D01*
X121910568Y-87875992D01*
X121983553Y-87651368D01*
X121997673Y-87562218D01*
X122020500Y-87418097D01*
X122020500Y-86181902D01*
X121983553Y-85948631D01*
X121911946Y-85728250D01*
X121910568Y-85724008D01*
X121910566Y-85724005D01*
X121910566Y-85724003D01*
X121850359Y-85605842D01*
X121803343Y-85513567D01*
X121664517Y-85322490D01*
X121556819Y-85214792D01*
X121523334Y-85153469D01*
X121520500Y-85127111D01*
X121520500Y-80972889D01*
X121540185Y-80905850D01*
X121556819Y-80885208D01*
X121588525Y-80853502D01*
X121664517Y-80777510D01*
X121803343Y-80586433D01*
X121910568Y-80375992D01*
X121983553Y-80151368D01*
X121990003Y-80110646D01*
X122020500Y-79918097D01*
X122020500Y-78681902D01*
X124099500Y-78681902D01*
X124099500Y-79918097D01*
X124136446Y-80151368D01*
X124209433Y-80375996D01*
X124283062Y-80520500D01*
X124316657Y-80586433D01*
X124455483Y-80777510D01*
X124455485Y-80777512D01*
X124563181Y-80885208D01*
X124596666Y-80946531D01*
X124599500Y-80972889D01*
X124599500Y-85127111D01*
X124579815Y-85194150D01*
X124563181Y-85214792D01*
X124455485Y-85322487D01*
X124455485Y-85322488D01*
X124455483Y-85322490D01*
X124411044Y-85383655D01*
X124316657Y-85513566D01*
X124209433Y-85724003D01*
X124136446Y-85948631D01*
X124099500Y-86181902D01*
X124099500Y-87418097D01*
X124136446Y-87651368D01*
X124209433Y-87875996D01*
X124314093Y-88081401D01*
X124316657Y-88086433D01*
X124455483Y-88277510D01*
X124455485Y-88277512D01*
X124563181Y-88385208D01*
X124596666Y-88446531D01*
X124599500Y-88472889D01*
X124599500Y-89298541D01*
X124604979Y-89326086D01*
X124606428Y-89333367D01*
X124606428Y-89333370D01*
X124637947Y-89491829D01*
X124637949Y-89491835D01*
X124644713Y-89508164D01*
X124644714Y-89508168D01*
X124713364Y-89673907D01*
X124713371Y-89673920D01*
X124822860Y-89837781D01*
X124822863Y-89837785D01*
X124966537Y-89981459D01*
X124966559Y-89981479D01*
X125163181Y-90178101D01*
X125196666Y-90239424D01*
X125199500Y-90265782D01*
X125199500Y-91127111D01*
X125179815Y-91194150D01*
X125163181Y-91214792D01*
X125055485Y-91322487D01*
X125055485Y-91322488D01*
X125055483Y-91322490D01*
X125018119Y-91373917D01*
X124916657Y-91513566D01*
X124809433Y-91724003D01*
X124736446Y-91948631D01*
X124699500Y-92181902D01*
X124699500Y-93418097D01*
X124736446Y-93651368D01*
X124809433Y-93875996D01*
X124892998Y-94040000D01*
X124916657Y-94086433D01*
X125055483Y-94277510D01*
X125222490Y-94444517D01*
X125413567Y-94583343D01*
X125464126Y-94609104D01*
X125624003Y-94690566D01*
X125624005Y-94690566D01*
X125624008Y-94690568D01*
X125744412Y-94729689D01*
X125848631Y-94763553D01*
X126081903Y-94800500D01*
X126081908Y-94800500D01*
X126318097Y-94800500D01*
X126551368Y-94763553D01*
X126563294Y-94759678D01*
X126775992Y-94690568D01*
X126986433Y-94583343D01*
X127177510Y-94444517D01*
X127344517Y-94277510D01*
X127483343Y-94086433D01*
X127590568Y-93875992D01*
X127590567Y-93875992D01*
X127592780Y-93871651D01*
X127593986Y-93872265D01*
X127633962Y-93822650D01*
X127700254Y-93800579D01*
X127704692Y-93800500D01*
X130215308Y-93800500D01*
X130282347Y-93820185D01*
X130327027Y-93871749D01*
X130327220Y-93871651D01*
X130327615Y-93872428D01*
X130328102Y-93872989D01*
X130329279Y-93875693D01*
X130364338Y-93944499D01*
X130436657Y-94086433D01*
X130575483Y-94277510D01*
X130742490Y-94444517D01*
X130933567Y-94583343D01*
X130984126Y-94609104D01*
X131144003Y-94690566D01*
X131144005Y-94690566D01*
X131144008Y-94690568D01*
X131264412Y-94729689D01*
X131368631Y-94763553D01*
X131601903Y-94800500D01*
X131601908Y-94800500D01*
X131838097Y-94800500D01*
X132071368Y-94763553D01*
X132083294Y-94759678D01*
X132295992Y-94690568D01*
X132506433Y-94583343D01*
X132697510Y-94444517D01*
X132864517Y-94277510D01*
X133003343Y-94086433D01*
X133110568Y-93875992D01*
X133183553Y-93651368D01*
X133190651Y-93606554D01*
X133220500Y-93418097D01*
X133220500Y-92181902D01*
X133183553Y-91948631D01*
X133128701Y-91779815D01*
X133110568Y-91724008D01*
X133110566Y-91724004D01*
X133110566Y-91724003D01*
X133003342Y-91513566D01*
X132982013Y-91484209D01*
X132864517Y-91322490D01*
X132697510Y-91155483D01*
X132506433Y-91016657D01*
X132457719Y-90991836D01*
X132295996Y-90909433D01*
X132071368Y-90836446D01*
X131838097Y-90799500D01*
X131838092Y-90799500D01*
X131601908Y-90799500D01*
X131601903Y-90799500D01*
X131368631Y-90836446D01*
X131144003Y-90909433D01*
X130933566Y-91016657D01*
X130894329Y-91045165D01*
X130742490Y-91155483D01*
X130742488Y-91155485D01*
X130742487Y-91155485D01*
X130575485Y-91322487D01*
X130575485Y-91322488D01*
X130575483Y-91322490D01*
X130538119Y-91373917D01*
X130436657Y-91513566D01*
X130327220Y-91728349D01*
X130326013Y-91727734D01*
X130286038Y-91777350D01*
X130219746Y-91799421D01*
X130215308Y-91799500D01*
X127704692Y-91799500D01*
X127637653Y-91779815D01*
X127592972Y-91728250D01*
X127592780Y-91728349D01*
X127592384Y-91727571D01*
X127591898Y-91727011D01*
X127590720Y-91724306D01*
X127555657Y-91655492D01*
X127483343Y-91513567D01*
X127344517Y-91322490D01*
X127236819Y-91214792D01*
X127203334Y-91153469D01*
X127200500Y-91127111D01*
X127200500Y-89701456D01*
X127168971Y-89542952D01*
X127162051Y-89508164D01*
X127133160Y-89438416D01*
X127096496Y-89349901D01*
X127086635Y-89326093D01*
X127086634Y-89326092D01*
X127086632Y-89326086D01*
X127006113Y-89205580D01*
X126977139Y-89162217D01*
X126834686Y-89019764D01*
X126834655Y-89019735D01*
X126636819Y-88821899D01*
X126603334Y-88760576D01*
X126600500Y-88734218D01*
X126600500Y-88472889D01*
X126620185Y-88405850D01*
X126636819Y-88385208D01*
X126687298Y-88334729D01*
X126744517Y-88277510D01*
X126883343Y-88086433D01*
X126990568Y-87875992D01*
X127063553Y-87651368D01*
X127077673Y-87562218D01*
X127100500Y-87418097D01*
X127100500Y-86181902D01*
X127063553Y-85948631D01*
X126991946Y-85728250D01*
X126990568Y-85724008D01*
X126990566Y-85724005D01*
X126990566Y-85724003D01*
X126930359Y-85605842D01*
X126883343Y-85513567D01*
X126744517Y-85322490D01*
X126636819Y-85214792D01*
X126603334Y-85153469D01*
X126600500Y-85127111D01*
X126600500Y-80972889D01*
X126620185Y-80905850D01*
X126636819Y-80885208D01*
X126668525Y-80853502D01*
X126744517Y-80777510D01*
X126883343Y-80586433D01*
X126990568Y-80375992D01*
X127063553Y-80151368D01*
X127070003Y-80110646D01*
X127100500Y-79918097D01*
X127100500Y-78681902D01*
X129179500Y-78681902D01*
X129179500Y-79918097D01*
X129216446Y-80151368D01*
X129289433Y-80375996D01*
X129363062Y-80520500D01*
X129396657Y-80586433D01*
X129535483Y-80777510D01*
X129535485Y-80777512D01*
X129643181Y-80885208D01*
X129676666Y-80946531D01*
X129679500Y-80972889D01*
X129679500Y-85127111D01*
X129659815Y-85194150D01*
X129643181Y-85214792D01*
X129535485Y-85322487D01*
X129535485Y-85322488D01*
X129535483Y-85322490D01*
X129491044Y-85383655D01*
X129396657Y-85513566D01*
X129289433Y-85724003D01*
X129216446Y-85948631D01*
X129179500Y-86181902D01*
X129179500Y-87418097D01*
X129216446Y-87651368D01*
X129289433Y-87875996D01*
X129394093Y-88081401D01*
X129396657Y-88086433D01*
X129535483Y-88277510D01*
X129702490Y-88444517D01*
X129893567Y-88583343D01*
X129954559Y-88614420D01*
X130104003Y-88690566D01*
X130104005Y-88690566D01*
X130104008Y-88690568D01*
X130224412Y-88729689D01*
X130328631Y-88763553D01*
X130561903Y-88800500D01*
X130561908Y-88800500D01*
X130798097Y-88800500D01*
X131031368Y-88763553D01*
X131040530Y-88760576D01*
X131255992Y-88690568D01*
X131466433Y-88583343D01*
X131657510Y-88444517D01*
X131824517Y-88277510D01*
X131963343Y-88086433D01*
X132070568Y-87875992D01*
X132070567Y-87875992D01*
X132072780Y-87871651D01*
X132073986Y-87872265D01*
X132113962Y-87822650D01*
X132180254Y-87800579D01*
X132184692Y-87800500D01*
X132834218Y-87800500D01*
X132901257Y-87820185D01*
X132921899Y-87836819D01*
X133663181Y-88578101D01*
X133696666Y-88639424D01*
X133699500Y-88665782D01*
X133699500Y-90798544D01*
X133737947Y-90991833D01*
X133737949Y-90991836D01*
X133760038Y-91045165D01*
X133768970Y-91066729D01*
X133813366Y-91173911D01*
X133813371Y-91173920D01*
X133922859Y-91337780D01*
X133922860Y-91337781D01*
X133922861Y-91337782D01*
X134062218Y-91477139D01*
X134062219Y-91477139D01*
X134069286Y-91484206D01*
X134069285Y-91484206D01*
X134069289Y-91484209D01*
X135263181Y-92678101D01*
X135296666Y-92739424D01*
X135299500Y-92765782D01*
X135299500Y-93418097D01*
X135336446Y-93651368D01*
X135409433Y-93875996D01*
X135492998Y-94040000D01*
X135516657Y-94086433D01*
X135655483Y-94277510D01*
X135822490Y-94444517D01*
X136013567Y-94583343D01*
X136064126Y-94609104D01*
X136224003Y-94690566D01*
X136224005Y-94690566D01*
X136224008Y-94690568D01*
X136344412Y-94729689D01*
X136448631Y-94763553D01*
X136681903Y-94800500D01*
X136681908Y-94800500D01*
X136918097Y-94800500D01*
X137151368Y-94763553D01*
X137163294Y-94759678D01*
X137375992Y-94690568D01*
X137586433Y-94583343D01*
X137777510Y-94444517D01*
X137944517Y-94277510D01*
X138083343Y-94086433D01*
X138190568Y-93875992D01*
X138263553Y-93651368D01*
X138270651Y-93606554D01*
X138300500Y-93418097D01*
X138300500Y-92181902D01*
X138263553Y-91948631D01*
X138208701Y-91779815D01*
X138190568Y-91724008D01*
X138190566Y-91724004D01*
X138190566Y-91724003D01*
X138083342Y-91513566D01*
X138062013Y-91484209D01*
X137944517Y-91322490D01*
X137777510Y-91155483D01*
X137586433Y-91016657D01*
X137537719Y-90991836D01*
X137375996Y-90909433D01*
X137151368Y-90836446D01*
X136918097Y-90799500D01*
X136918092Y-90799500D01*
X136681908Y-90799500D01*
X136681903Y-90799500D01*
X136448632Y-90836446D01*
X136372009Y-90861342D01*
X136302168Y-90863336D01*
X136246012Y-90831091D01*
X135736819Y-90321898D01*
X135703334Y-90260575D01*
X135700500Y-90234217D01*
X135700500Y-88101456D01*
X135662052Y-87908170D01*
X135662051Y-87908169D01*
X135662051Y-87908165D01*
X135634005Y-87840455D01*
X135586635Y-87726092D01*
X135586628Y-87726079D01*
X135477139Y-87562218D01*
X135477136Y-87562214D01*
X135334686Y-87419764D01*
X135334655Y-87419735D01*
X134584920Y-86670000D01*
X136320898Y-86670000D01*
X137866988Y-86670000D01*
X137834075Y-86727007D01*
X137800000Y-86854174D01*
X137800000Y-86985826D01*
X137834075Y-87112993D01*
X137866988Y-87170000D01*
X136320898Y-87170000D01*
X136336934Y-87271247D01*
X136409897Y-87495802D01*
X136517085Y-87706171D01*
X136655866Y-87897186D01*
X136822813Y-88064133D01*
X137013828Y-88202914D01*
X137224197Y-88310102D01*
X137448752Y-88383065D01*
X137448751Y-88383065D01*
X137681948Y-88420000D01*
X138050000Y-88420000D01*
X138050000Y-87353012D01*
X138107007Y-87385925D01*
X138234174Y-87420000D01*
X138365826Y-87420000D01*
X138492993Y-87385925D01*
X138550000Y-87353012D01*
X138550000Y-88420000D01*
X138918052Y-88420000D01*
X139151247Y-88383065D01*
X139375802Y-88310102D01*
X139586171Y-88202914D01*
X139777186Y-88064133D01*
X139944133Y-87897186D01*
X140082914Y-87706171D01*
X140190102Y-87495802D01*
X140263065Y-87271247D01*
X140279102Y-87170000D01*
X138733012Y-87170000D01*
X138765925Y-87112993D01*
X138800000Y-86985826D01*
X138800000Y-86854174D01*
X138765925Y-86727007D01*
X138733012Y-86670000D01*
X140279102Y-86670000D01*
X140263065Y-86568752D01*
X140190102Y-86344197D01*
X140082914Y-86133828D01*
X139944133Y-85942813D01*
X139777186Y-85775866D01*
X139586171Y-85637085D01*
X139375802Y-85529897D01*
X139151247Y-85456934D01*
X139151248Y-85456934D01*
X138918052Y-85420000D01*
X138550000Y-85420000D01*
X138550000Y-86486988D01*
X138492993Y-86454075D01*
X138365826Y-86420000D01*
X138234174Y-86420000D01*
X138107007Y-86454075D01*
X138050000Y-86486988D01*
X138050000Y-85420000D01*
X137681948Y-85420000D01*
X137448752Y-85456934D01*
X137224197Y-85529897D01*
X137013828Y-85637085D01*
X136822813Y-85775866D01*
X136655866Y-85942813D01*
X136517085Y-86133828D01*
X136409897Y-86344197D01*
X136336934Y-86568752D01*
X136320898Y-86670000D01*
X134584920Y-86670000D01*
X134081479Y-86166559D01*
X134081459Y-86166537D01*
X133937785Y-86022863D01*
X133937781Y-86022860D01*
X133773920Y-85913371D01*
X133773907Y-85913364D01*
X133631410Y-85854341D01*
X133631408Y-85854340D01*
X133591840Y-85837950D01*
X133591829Y-85837947D01*
X133490907Y-85817873D01*
X133398543Y-85799500D01*
X133398541Y-85799500D01*
X132184692Y-85799500D01*
X132117653Y-85779815D01*
X132072972Y-85728250D01*
X132072780Y-85728349D01*
X132072384Y-85727571D01*
X132071898Y-85727011D01*
X132070720Y-85724306D01*
X132043016Y-85669934D01*
X131963343Y-85513567D01*
X131824517Y-85322490D01*
X131716819Y-85214792D01*
X131683334Y-85153469D01*
X131680500Y-85127111D01*
X131680500Y-80972889D01*
X131700185Y-80905850D01*
X131716819Y-80885208D01*
X131748525Y-80853502D01*
X131824517Y-80777510D01*
X131963343Y-80586433D01*
X132070568Y-80375992D01*
X132143553Y-80151368D01*
X132150003Y-80110646D01*
X132180500Y-79918097D01*
X132180500Y-78681902D01*
X132143553Y-78448631D01*
X132099259Y-78312310D01*
X132079707Y-78252135D01*
X136299500Y-78252135D01*
X136299500Y-80347870D01*
X136299501Y-80347876D01*
X136305908Y-80407483D01*
X136356202Y-80542328D01*
X136356206Y-80542335D01*
X136442452Y-80657544D01*
X136442455Y-80657547D01*
X136557664Y-80743793D01*
X136557671Y-80743797D01*
X136692517Y-80794091D01*
X136692516Y-80794091D01*
X136699444Y-80794835D01*
X136752127Y-80800500D01*
X139847872Y-80800499D01*
X139907483Y-80794091D01*
X140042331Y-80743796D01*
X140157546Y-80657546D01*
X140243796Y-80542331D01*
X140294091Y-80407483D01*
X140300500Y-80347873D01*
X140300499Y-78252128D01*
X140294091Y-78192517D01*
X140291549Y-78185702D01*
X140243797Y-78057671D01*
X140243793Y-78057664D01*
X140157547Y-77942455D01*
X140157544Y-77942452D01*
X140042335Y-77856206D01*
X140042328Y-77856202D01*
X139907482Y-77805908D01*
X139907483Y-77805908D01*
X139847883Y-77799501D01*
X139847881Y-77799500D01*
X139847873Y-77799500D01*
X139847864Y-77799500D01*
X136752129Y-77799500D01*
X136752123Y-77799501D01*
X136692516Y-77805908D01*
X136557671Y-77856202D01*
X136557664Y-77856206D01*
X136442455Y-77942452D01*
X136442452Y-77942455D01*
X136356206Y-78057664D01*
X136356202Y-78057671D01*
X136305908Y-78192517D01*
X136302523Y-78224008D01*
X136299501Y-78252123D01*
X136299500Y-78252135D01*
X132079707Y-78252135D01*
X132070568Y-78224008D01*
X132070566Y-78224005D01*
X132070566Y-78224003D01*
X131985814Y-78057669D01*
X131963343Y-78013567D01*
X131824517Y-77822490D01*
X131657510Y-77655483D01*
X131466433Y-77516657D01*
X131444801Y-77505635D01*
X131255996Y-77409433D01*
X131031368Y-77336446D01*
X130798097Y-77299500D01*
X130798092Y-77299500D01*
X130561908Y-77299500D01*
X130561903Y-77299500D01*
X130328631Y-77336446D01*
X130104003Y-77409433D01*
X129893566Y-77516657D01*
X129796969Y-77586840D01*
X129702490Y-77655483D01*
X129702488Y-77655485D01*
X129702487Y-77655485D01*
X129535485Y-77822487D01*
X129535485Y-77822488D01*
X129535483Y-77822490D01*
X129510987Y-77856206D01*
X129396657Y-78013566D01*
X129289433Y-78224003D01*
X129216446Y-78448631D01*
X129179500Y-78681902D01*
X127100500Y-78681902D01*
X127063553Y-78448631D01*
X127019259Y-78312310D01*
X126990568Y-78224008D01*
X126990566Y-78224005D01*
X126990566Y-78224003D01*
X126905814Y-78057669D01*
X126883343Y-78013567D01*
X126744517Y-77822490D01*
X126577510Y-77655483D01*
X126386433Y-77516657D01*
X126364801Y-77505635D01*
X126175996Y-77409433D01*
X125951368Y-77336446D01*
X125718097Y-77299500D01*
X125718092Y-77299500D01*
X125481908Y-77299500D01*
X125481903Y-77299500D01*
X125248631Y-77336446D01*
X125024003Y-77409433D01*
X124813566Y-77516657D01*
X124716969Y-77586840D01*
X124622490Y-77655483D01*
X124622488Y-77655485D01*
X124622487Y-77655485D01*
X124455485Y-77822487D01*
X124455485Y-77822488D01*
X124455483Y-77822490D01*
X124430987Y-77856206D01*
X124316657Y-78013566D01*
X124209433Y-78224003D01*
X124136446Y-78448631D01*
X124099500Y-78681902D01*
X122020500Y-78681902D01*
X121983553Y-78448631D01*
X121939259Y-78312310D01*
X121910568Y-78224008D01*
X121910566Y-78224005D01*
X121910566Y-78224003D01*
X121825814Y-78057669D01*
X121803343Y-78013567D01*
X121664517Y-77822490D01*
X121497510Y-77655483D01*
X121306433Y-77516657D01*
X121284801Y-77505635D01*
X121095996Y-77409433D01*
X120871368Y-77336446D01*
X120638097Y-77299500D01*
X120638092Y-77299500D01*
X120401908Y-77299500D01*
X120401903Y-77299500D01*
X120168631Y-77336446D01*
X119944003Y-77409433D01*
X119733566Y-77516657D01*
X119636969Y-77586840D01*
X119542490Y-77655483D01*
X119542488Y-77655485D01*
X119542487Y-77655485D01*
X119375485Y-77822487D01*
X119375485Y-77822488D01*
X119375483Y-77822490D01*
X119350987Y-77856206D01*
X119236657Y-78013566D01*
X119129433Y-78224003D01*
X119056446Y-78448631D01*
X119019500Y-78681902D01*
X115050499Y-78681902D01*
X115050499Y-77962128D01*
X115044091Y-77902517D01*
X115041358Y-77895190D01*
X114993797Y-77767671D01*
X114993793Y-77767664D01*
X114907547Y-77652455D01*
X114907544Y-77652452D01*
X114792335Y-77566206D01*
X114792328Y-77566202D01*
X114657482Y-77515908D01*
X114657483Y-77515908D01*
X114603846Y-77510142D01*
X114539295Y-77483404D01*
X114499446Y-77426012D01*
X114496953Y-77356187D01*
X114532605Y-77296098D01*
X114545972Y-77285282D01*
X114639139Y-77220047D01*
X114800047Y-77059139D01*
X114930568Y-76872734D01*
X115026739Y-76666496D01*
X115085635Y-76446692D01*
X115105468Y-76220000D01*
X115085635Y-75993308D01*
X115026739Y-75773504D01*
X114930568Y-75567266D01*
X114800047Y-75380861D01*
X114800045Y-75380858D01*
X114639141Y-75219954D01*
X114452734Y-75089432D01*
X114452732Y-75089431D01*
X114246497Y-74993261D01*
X114246488Y-74993258D01*
X114026697Y-74934366D01*
X114026693Y-74934365D01*
X114026692Y-74934365D01*
X114026691Y-74934364D01*
X114026686Y-74934364D01*
X113800002Y-74914532D01*
X113799998Y-74914532D01*
X113573313Y-74934364D01*
X113573302Y-74934366D01*
X113353511Y-74993258D01*
X113353502Y-74993261D01*
X113147267Y-75089431D01*
X113147265Y-75089432D01*
X112960858Y-75219954D01*
X112799954Y-75380858D01*
X112669432Y-75567265D01*
X112669431Y-75567267D01*
X112573261Y-75773502D01*
X112573258Y-75773511D01*
X112514366Y-75993302D01*
X112514364Y-75993313D01*
X112494532Y-76219998D01*
X111100500Y-76219998D01*
X111100500Y-64334449D01*
X111120185Y-64267410D01*
X111172989Y-64221655D01*
X111242147Y-64211711D01*
X111304695Y-64240275D01*
X111306148Y-64240297D01*
X112377340Y-63169105D01*
X112455864Y-63277184D01*
X112622816Y-63444136D01*
X112730893Y-63522658D01*
X111662818Y-64590733D01*
X111662819Y-64590734D01*
X111805484Y-64710445D01*
X112097461Y-64902480D01*
X112409739Y-65059314D01*
X112409745Y-65059316D01*
X112738130Y-65178838D01*
X112738133Y-65178839D01*
X113078171Y-65259429D01*
X113425276Y-65299999D01*
X113425277Y-65300000D01*
X113774723Y-65300000D01*
X113774723Y-65299999D01*
X114121827Y-65259429D01*
X114121829Y-65259429D01*
X114461866Y-65178839D01*
X114461869Y-65178838D01*
X114790254Y-65059316D01*
X114790260Y-65059314D01*
X115102538Y-64902480D01*
X115394509Y-64710449D01*
X115394510Y-64710448D01*
X115537179Y-64590734D01*
X115537180Y-64590733D01*
X114469106Y-63522658D01*
X114577184Y-63444136D01*
X114744136Y-63277184D01*
X114822658Y-63169106D01*
X115893849Y-64240297D01*
X115893851Y-64240296D01*
X115902022Y-64231636D01*
X115902033Y-64231623D01*
X116110710Y-63951322D01*
X116285438Y-63648683D01*
X116285444Y-63648670D01*
X116288336Y-63641966D01*
X124249500Y-63641966D01*
X124249500Y-66558028D01*
X124249501Y-66558034D01*
X124260113Y-66677415D01*
X124316089Y-66873045D01*
X124316090Y-66873048D01*
X124316091Y-66873049D01*
X124410302Y-67053407D01*
X124410304Y-67053409D01*
X124538890Y-67211109D01*
X124632803Y-67287684D01*
X124696593Y-67339698D01*
X124876951Y-67433909D01*
X125072582Y-67489886D01*
X125191963Y-67500500D01*
X126308036Y-67500499D01*
X126427418Y-67489886D01*
X126623049Y-67433909D01*
X126803407Y-67339698D01*
X126961109Y-67211109D01*
X127089698Y-67053407D01*
X127183909Y-66873049D01*
X127239886Y-66677418D01*
X127250500Y-66558037D01*
X127250499Y-63641964D01*
X127239886Y-63522582D01*
X127183909Y-63326951D01*
X127089698Y-63146593D01*
X127002372Y-63039496D01*
X126961109Y-62988890D01*
X126803409Y-62860304D01*
X126803410Y-62860304D01*
X126803407Y-62860302D01*
X126623049Y-62766091D01*
X126623048Y-62766090D01*
X126623045Y-62766089D01*
X126566812Y-62749999D01*
X164830839Y-62749999D01*
X164830840Y-62750000D01*
X165550000Y-62750000D01*
X165550000Y-62030839D01*
X165549999Y-62030839D01*
X165415458Y-62071652D01*
X165241746Y-62164503D01*
X165241739Y-62164507D01*
X165089471Y-62289471D01*
X164964507Y-62441739D01*
X164964503Y-62441746D01*
X164871652Y-62615458D01*
X164830839Y-62749999D01*
X126566812Y-62749999D01*
X126505829Y-62732550D01*
X126427418Y-62710114D01*
X126427415Y-62710113D01*
X126427413Y-62710113D01*
X126361102Y-62704217D01*
X126308037Y-62699500D01*
X126308032Y-62699500D01*
X125191971Y-62699500D01*
X125191965Y-62699500D01*
X125191964Y-62699501D01*
X125186351Y-62700000D01*
X125072584Y-62710113D01*
X124876954Y-62766089D01*
X124786772Y-62813196D01*
X124696593Y-62860302D01*
X124696591Y-62860303D01*
X124696590Y-62860304D01*
X124538890Y-62988890D01*
X124410304Y-63146590D01*
X124316089Y-63326954D01*
X124260114Y-63522583D01*
X124260113Y-63522586D01*
X124259089Y-63534107D01*
X124250367Y-63632218D01*
X124249500Y-63641966D01*
X116288336Y-63641966D01*
X116423854Y-63327800D01*
X116524083Y-62993011D01*
X116524085Y-62993002D01*
X116584763Y-62648880D01*
X116584764Y-62648869D01*
X116602236Y-62348903D01*
X130550000Y-62348903D01*
X130550000Y-62550000D01*
X131800000Y-62550000D01*
X132300000Y-62550000D01*
X133550000Y-62550000D01*
X133550000Y-62348903D01*
X133547102Y-62306175D01*
X133501168Y-62121476D01*
X133416609Y-61950977D01*
X133416607Y-61950974D01*
X133297367Y-61802633D01*
X133297366Y-61802632D01*
X133149025Y-61683392D01*
X133149022Y-61683390D01*
X132978523Y-61598831D01*
X132793824Y-61552897D01*
X132751097Y-61550000D01*
X132300000Y-61550000D01*
X132300000Y-62550000D01*
X131800000Y-62550000D01*
X131800000Y-61550000D01*
X131348903Y-61550000D01*
X131306175Y-61552897D01*
X131121476Y-61598831D01*
X130950977Y-61683390D01*
X130950974Y-61683392D01*
X130802633Y-61802632D01*
X130802632Y-61802633D01*
X130683392Y-61950974D01*
X130683390Y-61950977D01*
X130598831Y-62121476D01*
X130552897Y-62306175D01*
X130550000Y-62348903D01*
X116602236Y-62348903D01*
X116605084Y-62300003D01*
X116605084Y-62299996D01*
X116584764Y-61951130D01*
X116584763Y-61951119D01*
X116524085Y-61606997D01*
X116524083Y-61606988D01*
X116423854Y-61272199D01*
X116285444Y-60951329D01*
X116285438Y-60951316D01*
X116110710Y-60648677D01*
X115902032Y-60368374D01*
X115893850Y-60359702D01*
X114822658Y-61430893D01*
X114744136Y-61322816D01*
X114577184Y-61155864D01*
X114469105Y-61077340D01*
X115537180Y-60009265D01*
X115536801Y-60000605D01*
X115510663Y-59961317D01*
X115509555Y-59891456D01*
X115546392Y-59832087D01*
X115609480Y-59802057D01*
X115629071Y-59800500D01*
X170570928Y-59800500D01*
X170637967Y-59820185D01*
G37*
%TD.AperFunction*%
%TA.AperFunction,Conductor*%
G36*
X170371882Y-89730185D02*
G01*
X170417637Y-89782989D01*
X170427581Y-89852147D01*
X170419404Y-89881952D01*
X170378343Y-89981082D01*
X170378340Y-89981092D01*
X170349500Y-90126079D01*
X170349500Y-90937770D01*
X170329815Y-91004809D01*
X170313181Y-91025451D01*
X167517047Y-93821584D01*
X167517045Y-93821586D01*
X167480697Y-93875989D01*
X167480695Y-93875992D01*
X167434919Y-93944499D01*
X167434912Y-93944511D01*
X167378343Y-94081082D01*
X167378340Y-94081092D01*
X167349500Y-94226079D01*
X167349500Y-96237770D01*
X167329815Y-96304809D01*
X167313181Y-96325451D01*
X166325451Y-97313181D01*
X166264128Y-97346666D01*
X166237770Y-97349500D01*
X163328832Y-97349500D01*
X163261793Y-97329815D01*
X163216038Y-97277011D01*
X163206094Y-97207853D01*
X163216448Y-97173098D01*
X163290894Y-97013450D01*
X163348070Y-96800068D01*
X163367323Y-96580000D01*
X163348070Y-96359932D01*
X163290894Y-96146550D01*
X163197534Y-95946339D01*
X163070826Y-95765380D01*
X162914620Y-95609174D01*
X162914616Y-95609171D01*
X162914615Y-95609170D01*
X162733666Y-95482468D01*
X162733658Y-95482464D01*
X162604811Y-95422382D01*
X162552371Y-95376210D01*
X162533219Y-95309017D01*
X162553435Y-95242135D01*
X162604811Y-95197618D01*
X162610802Y-95194824D01*
X162733662Y-95137534D01*
X162914620Y-95010826D01*
X163070826Y-94854620D01*
X163197534Y-94673662D01*
X163290894Y-94473450D01*
X163348070Y-94260068D01*
X163367323Y-94040000D01*
X163348070Y-93819932D01*
X163290894Y-93606550D01*
X163197534Y-93406339D01*
X163070826Y-93225380D01*
X162914620Y-93069174D01*
X162914616Y-93069171D01*
X162914615Y-93069170D01*
X162733666Y-92942468D01*
X162733662Y-92942466D01*
X162604218Y-92882105D01*
X162551779Y-92835932D01*
X162532627Y-92768739D01*
X162552843Y-92701858D01*
X162604219Y-92657340D01*
X162733416Y-92597095D01*
X162733417Y-92597094D01*
X162798188Y-92551741D01*
X162127448Y-91881000D01*
X162150160Y-91881000D01*
X162247061Y-91855036D01*
X162333940Y-91804876D01*
X162404876Y-91733940D01*
X162455036Y-91647061D01*
X162481000Y-91550160D01*
X162481000Y-91527447D01*
X163151741Y-92198188D01*
X163197094Y-92133417D01*
X163197100Y-92133407D01*
X163290419Y-91933284D01*
X163290424Y-91933270D01*
X163347573Y-91719986D01*
X163347575Y-91719976D01*
X163366821Y-91500000D01*
X163366821Y-91499999D01*
X163347575Y-91280023D01*
X163347573Y-91280013D01*
X163290424Y-91066729D01*
X163290420Y-91066720D01*
X163197096Y-90866586D01*
X163151741Y-90801811D01*
X163151740Y-90801810D01*
X162481000Y-91472551D01*
X162481000Y-91449840D01*
X162455036Y-91352939D01*
X162404876Y-91266060D01*
X162333940Y-91195124D01*
X162247061Y-91144964D01*
X162150160Y-91119000D01*
X162127448Y-91119000D01*
X162798188Y-90448259D01*
X162798187Y-90448258D01*
X162797925Y-90448074D01*
X162754300Y-90393498D01*
X162747106Y-90323999D01*
X162778628Y-90261644D01*
X162838858Y-90226230D01*
X162869047Y-90222499D01*
X162909872Y-90222499D01*
X162969483Y-90216091D01*
X163104331Y-90165796D01*
X163219546Y-90079546D01*
X163305796Y-89964331D01*
X163356091Y-89829483D01*
X163356977Y-89821244D01*
X163383715Y-89756693D01*
X163441108Y-89716845D01*
X163480266Y-89710500D01*
X170304843Y-89710500D01*
X170371882Y-89730185D01*
G37*
%TD.AperFunction*%
%TD*%
M02*
