%TF.GenerationSoftware,KiCad,Pcbnew,8.0.4*%
%TF.CreationDate,2024-08-05T14:03:49-04:00*%
%TF.ProjectId,ESP32-C3-WROOM-Node-Temperature,45535033-322d-4433-932d-57524f4f4d2d,rev?*%
%TF.SameCoordinates,Original*%
%TF.FileFunction,Legend,Bot*%
%TF.FilePolarity,Positive*%
%FSLAX46Y46*%
G04 Gerber Fmt 4.6, Leading zero omitted, Abs format (unit mm)*
G04 Created by KiCad (PCBNEW 8.0.4) date 2024-08-05 14:03:49*
%MOMM*%
%LPD*%
G01*
G04 APERTURE LIST*
%ADD10C,0.150000*%
%ADD11C,0.120000*%
G04 APERTURE END LIST*
D10*
X164396245Y-74439456D02*
X164968664Y-74338441D01*
X164800306Y-74843517D02*
X165507412Y-74136410D01*
X165507412Y-74136410D02*
X165238038Y-73867036D01*
X165238038Y-73867036D02*
X165137023Y-73833364D01*
X165137023Y-73833364D02*
X165069680Y-73833364D01*
X165069680Y-73833364D02*
X164968664Y-73867036D01*
X164968664Y-73867036D02*
X164867649Y-73968051D01*
X164867649Y-73968051D02*
X164833977Y-74069067D01*
X164833977Y-74069067D02*
X164833977Y-74136410D01*
X164833977Y-74136410D02*
X164867649Y-74237425D01*
X164867649Y-74237425D02*
X165137023Y-74506799D01*
X163722810Y-73766021D02*
X164126871Y-74170082D01*
X163924840Y-73968051D02*
X164631947Y-73260945D01*
X164631947Y-73260945D02*
X164598275Y-73429303D01*
X164598275Y-73429303D02*
X164598275Y-73563990D01*
X164598275Y-73563990D02*
X164631947Y-73665006D01*
X129661904Y-60054819D02*
X129661904Y-60864342D01*
X129661904Y-60864342D02*
X129614285Y-60959580D01*
X129614285Y-60959580D02*
X129566666Y-61007200D01*
X129566666Y-61007200D02*
X129471428Y-61054819D01*
X129471428Y-61054819D02*
X129280952Y-61054819D01*
X129280952Y-61054819D02*
X129185714Y-61007200D01*
X129185714Y-61007200D02*
X129138095Y-60959580D01*
X129138095Y-60959580D02*
X129090476Y-60864342D01*
X129090476Y-60864342D02*
X129090476Y-60054819D01*
X128661904Y-60150057D02*
X128614285Y-60102438D01*
X128614285Y-60102438D02*
X128519047Y-60054819D01*
X128519047Y-60054819D02*
X128280952Y-60054819D01*
X128280952Y-60054819D02*
X128185714Y-60102438D01*
X128185714Y-60102438D02*
X128138095Y-60150057D01*
X128138095Y-60150057D02*
X128090476Y-60245295D01*
X128090476Y-60245295D02*
X128090476Y-60340533D01*
X128090476Y-60340533D02*
X128138095Y-60483390D01*
X128138095Y-60483390D02*
X128709523Y-61054819D01*
X128709523Y-61054819D02*
X128090476Y-61054819D01*
X170283179Y-74352522D02*
X170855598Y-74251507D01*
X170687240Y-74756583D02*
X171394346Y-74049476D01*
X171394346Y-74049476D02*
X171124972Y-73780102D01*
X171124972Y-73780102D02*
X171023957Y-73746430D01*
X171023957Y-73746430D02*
X170956614Y-73746430D01*
X170956614Y-73746430D02*
X170855598Y-73780102D01*
X170855598Y-73780102D02*
X170754583Y-73881117D01*
X170754583Y-73881117D02*
X170720911Y-73982133D01*
X170720911Y-73982133D02*
X170720911Y-74049476D01*
X170720911Y-74049476D02*
X170754583Y-74150491D01*
X170754583Y-74150491D02*
X171023957Y-74419865D01*
X170754583Y-73409713D02*
X170316850Y-72971980D01*
X170316850Y-72971980D02*
X170283179Y-73477056D01*
X170283179Y-73477056D02*
X170182163Y-73376041D01*
X170182163Y-73376041D02*
X170081148Y-73342369D01*
X170081148Y-73342369D02*
X170013805Y-73342369D01*
X170013805Y-73342369D02*
X169912789Y-73376041D01*
X169912789Y-73376041D02*
X169744431Y-73544400D01*
X169744431Y-73544400D02*
X169710759Y-73645415D01*
X169710759Y-73645415D02*
X169710759Y-73712759D01*
X169710759Y-73712759D02*
X169744431Y-73813774D01*
X169744431Y-73813774D02*
X169946461Y-74015804D01*
X169946461Y-74015804D02*
X170047476Y-74049476D01*
X170047476Y-74049476D02*
X170114820Y-74049476D01*
D11*
%TO.C,R1*%
X162870645Y-76657579D02*
X161842421Y-75629355D01*
X164157579Y-75370645D02*
X163129355Y-74342421D01*
%TO.C,U2*%
X126990000Y-61690000D02*
X130750000Y-61690000D01*
X126990000Y-62950000D02*
X126990000Y-61690000D01*
X126990000Y-67250000D02*
X126990000Y-68510000D01*
X126990000Y-68510000D02*
X130750000Y-68510000D01*
X132030000Y-61790000D02*
X131790000Y-61460000D01*
X132270000Y-61460000D01*
X132030000Y-61790000D01*
G36*
X132030000Y-61790000D02*
G01*
X131790000Y-61460000D01*
X132270000Y-61460000D01*
X132030000Y-61790000D01*
G37*
%TO.C,R3*%
X168042421Y-75329355D02*
X169070645Y-76357579D01*
X169329355Y-74042421D02*
X170357579Y-75070645D01*
%TD*%
M02*
